<svg width="160" height="100" viewBox="0 0 160 100" fill="none" xmlns="http://www.w3.org/2000/svg">
<g clip-path="url(#clip0_14_2024)">
<path d="M159.38 0.609863H0.619995V99.3799H159.38V0.609863Z" fill="#FFDB92"/>
<path d="M160 100H0V0H160V100ZM1.24 98.78H158.76V1.22H1.24V98.77V98.78Z" fill="#EFD9B4"/>
<path d="M159.38 0.609863H0.619995V41.9599H159.38V0.609863Z" fill="white"/>
<path d="M160 42.58H0V0H160V42.58ZM1.24 41.35H158.76V1.22H1.24V41.35Z" fill="white"/>
<path d="M159.38 43.5698H0.619995V48.1298H159.38V43.5698Z" fill="#B2AEA6"/>
<path d="M160 48.74H0V42.96H160V48.74ZM1.24 47.52H158.76V44.18H1.24V47.52Z" fill="#B2AEA6"/>
<path d="M80.8 24.4799V7.69994C80.8 6.16994 79.55 4.93994 78.01 4.93994H50.82C49.28 4.93994 48.03 6.17994 48.03 7.69994V24.2799C48.03 25.0699 48.36 25.8299 48.94 26.3699L57.16 34.0499C57.81 34.6599 58.67 34.9999 59.57 34.9999H89.61C90.58 34.9999 91.01 33.7999 90.26 33.1899L81.62 26.1799C81.1 25.7599 80.8 25.1399 80.8 24.4699V24.4799Z" fill="#455767"/>
<path d="M77.8 7.75977H50.58V23.4598H77.8V7.75977Z" fill="#3888BA"/>
<path d="M64.24 10.1299H53.63V11.2599H64.24V10.1299Z" fill="#A0D1EA"/>
<path d="M67.44 14.0898H56.83V15.2198H67.44V14.0898Z" fill="#A0D1EA"/>
<path d="M64.5401 17.77H53.9301V18.9H64.5401V17.77Z" fill="#A0D1EA"/>
<path d="M80.2001 28.6399H57.5501L56.1801 27.6299H78.8301L80.2001 28.6399Z" fill="#506575"/>
<path d="M83.04 31.8498H60.39L59.02 30.8398H81.67L83.04 31.8498Z" fill="#506575"/>
<path d="M102.86 10.9099H87.13V24.9899C87.13 27.7499 89.37 29.9899 92.13 29.9899H93.72C94.49 29.9899 95.12 30.6199 95.12 31.3899V32.7699C95.12 34.5199 96.99 35.6399 98.54 34.7999L102.55 32.6199L102.87 10.8999L102.86 10.9099Z" fill="#FADDDC"/>
<path d="M88.17 25.6501L87.26 25.3901C86.44 25.1601 85.96 24.3101 86.19 23.4901L87.45 19.0101C87.55 18.6701 87.9 18.4701 88.24 18.5601C88.58 18.6501 88.78 19.0101 88.69 19.3501L87.6 23.2301C87.47 23.7001 87.74 24.1801 88.21 24.3101L88.53 24.4001C88.87 24.5001 89.07 24.8501 88.98 25.1901C88.89 25.5301 88.53 25.7301 88.19 25.6401L88.17 25.6501Z" fill="#E0B1BB"/>
<path d="M90.38 18.9501C90.38 19.4201 90.76 19.8001 91.23 19.8001C91.7 19.8001 92.08 19.4201 92.08 18.9501C92.08 18.4801 91.7 18.1001 91.23 18.1001C90.76 18.1001 90.38 18.4801 90.38 18.9501Z" fill="#757570"/>
<path d="M107.76 14.48C107.23 11.26 104.19 9.98004 102.55 8.40004C100.47 6.40004 98.87 5.09004 94.37 5.33004C92.82 5.41004 92.08 6.45004 91.9 6.45004C86.81 6.45004 84.95 10.55 84.97 13.02C85.01 16.4 86.76 17.31 86.76 17.31C86.76 17.31 86.83 17.31 86.86 17.31C88.36 17.31 87.47 11.32 88.41 11.32C89.35 11.32 88.87 17.41 96.03 17.41C96.57 17.41 97 17.86 97 18.38V20.12C97 20.44 97.26 20.7 97.59 20.7C97.92 20.7 98.19 20.44 98.18 20.12V20.14C98.18 19.8 100.2 23.38 101.88 26.42C102.16 26.92 102.62 26.83 102.62 26.83C103.13 26.05 104.55 22.94 105.96 19.48C106.62 17.86 108.14 16.76 107.76 14.49V14.48Z" fill="#3E2967"/>
<path d="M99.1101 23.7402H100.1C100.63 23.7402 101.06 23.3104 101.06 22.7802V18.6302C101.06 18.1 100.63 17.6702 100.1 17.6702H99.1101C98.5799 17.6702 98.1501 18.1 98.1501 18.6302V22.7802C98.1501 23.3104 98.5799 23.7402 99.1101 23.7402Z" fill="#FADDDC"/>
<path d="M116.89 36.0202C116.55 35.4202 116.06 34.9602 115.5 34.6402C113.72 32.9702 111.32 31.9502 108.67 31.9502H87.4701C84.7701 31.9502 82.3001 32.9002 80.3601 34.4702C79.6601 34.7802 79.0501 35.3102 78.6401 36.0202C78.5901 36.1102 78.4401 36.3802 78.2101 36.8102C77.5601 37.7602 77.0601 38.8202 76.7301 39.9602C73.7001 47.0602 68.8701 46.3102 76.2001 61.9002C76.2001 61.9002 119.34 61.8702 119.34 61.8602C129.02 41.2202 117.4 36.9202 116.88 36.0202H116.89Z" fill="#E5E1DC"/>
<path d="M114.6 84.0801H81.89C77.86 84.0801 74.45 81.1301 73.91 77.1701L70.41 51.4001C69.76 46.6201 73.52 42.3701 78.39 42.3701H117.41C122.2 42.3701 125.93 46.4801 125.41 51.1901L122.61 76.9601C122.17 81.0101 118.72 84.0801 114.61 84.0801H114.6Z" fill="#E5E5E5"/>
<path d="M117.4 49.7299C117.47 49.7299 117.68 49.7299 117.87 49.9399C118.06 50.1499 118.03 50.3499 118.03 50.4199L115.23 76.1899C115.2 76.5099 114.93 76.7399 114.61 76.7399H81.9C81.59 76.7399 81.32 76.5099 81.28 76.1999L77.78 50.4299C77.78 50.3599 77.74 50.1499 77.93 49.9399C78.12 49.7299 78.33 49.7299 78.4 49.7299H117.42M117.42 42.3799H78.4C73.53 42.3799 69.77 46.6299 70.42 51.4099L73.92 77.1799C74.46 81.1299 77.87 84.0899 81.9 84.0899H114.61C118.72 84.0899 122.17 81.0199 122.61 76.9699L125.41 51.1999C125.92 46.4899 122.19 42.3799 117.41 42.3799H117.42Z" fill="#F7F7F7"/>
<rect x="120" y="4" width="36" height="16" rx="4" fill="#1C1C1C"/>
<path d="M125.817 16H124.675L127.214 8.92969H128.454L131.003 16H129.86L129.216 14.1348H126.462L125.817 16ZM126.77 13.2363H128.903L127.858 10.2188H127.81L126.77 13.2363ZM131.569 14.5059C131.564 13.2949 132.595 12.9824 133.552 12.9141C133.903 12.8945 134.699 12.8506 134.943 12.8408L134.938 12.416C134.943 11.8154 134.572 11.4688 133.864 11.4688C133.249 11.4688 132.878 11.752 132.771 12.1426H131.735C131.828 11.2637 132.648 10.6289 133.903 10.6289C134.748 10.6289 135.979 10.9365 135.983 12.4746V16H134.968V15.2773H134.929C134.724 15.6729 134.235 16.1172 133.356 16.1172C132.351 16.1172 131.564 15.541 131.569 14.5059ZM132.585 14.5156C132.585 15.0234 133.005 15.2822 133.591 15.2871C134.44 15.2822 134.948 14.7158 134.948 14.0859L134.943 13.6025C134.704 13.6172 133.947 13.6709 133.698 13.6855C133.015 13.7344 132.585 13.9932 132.585 14.5156ZM137.243 16V10.6973H138.249V11.5371H138.308C138.503 10.9707 139.035 10.6143 139.655 10.6191C139.782 10.6143 139.987 10.6289 140.095 10.6387V11.6348C140.007 11.6152 139.763 11.5713 139.548 11.5762C138.825 11.5713 138.288 12.0742 138.288 12.7676V16H137.243ZM142.946 16.1074C141.442 16.1074 140.461 15.0137 140.466 13.373C140.461 11.7227 141.442 10.6289 142.946 10.6289C144.44 10.6289 145.417 11.7227 145.417 13.373C145.417 15.0137 144.44 16.1074 142.946 16.1074ZM141.511 13.373C141.511 14.3838 141.975 15.2383 142.946 15.2383C143.903 15.2383 144.362 14.3838 144.362 13.373C144.362 12.3574 143.903 11.4932 142.946 11.4883C141.975 11.4932 141.511 12.3574 141.511 13.373ZM147.487 12.8555V16H146.442V10.6973H147.448V11.5664H147.507C147.756 10.9951 148.278 10.6289 149.069 10.6289C150.158 10.6289 150.881 11.3174 150.876 12.6309V16H149.841V12.7578C149.836 11.9863 149.421 11.5273 148.718 11.5273C148 11.5273 147.487 12.0107 147.487 12.8555Z" fill="white"/>
</g>
<defs>
<clipPath id="clip0_14_2024">
<rect width="160" height="100" fill="white"/>
</clipPath>
</defs>
</svg>
