<svg width="160" height="100" viewBox="0 0 160 100" fill="none" xmlns="http://www.w3.org/2000/svg">
<g clip-path="url(#clip0_14_2375)">
<path d="M159.38 0.610107H0.620117V99.3801H159.38V0.610107Z" fill="#FFDB92"/>
<path d="M160 100H0V0H160V100ZM1.24 98.78H158.76V1.22H1.24V98.77V98.78Z" fill="#EFD9B4"/>
<path d="M159.38 0.610107H0.620117V41.9601H159.38V0.610107Z" fill="white"/>
<path d="M160 42.58H0V0H160V42.58ZM1.24 41.35H158.76V1.22H1.24V41.35Z" fill="white"/>
<path d="M159.38 43.5701H0.620117V48.1301H159.38V43.5701Z" fill="#B2AEA6"/>
<path d="M160 48.74H0V42.96H160V48.74ZM1.24 47.52H158.76V44.18H1.24V47.52Z" fill="#B2AEA6"/>
<path d="M80.8 23.8901V7.1101C80.8 5.5801 79.55 4.3501 78.01 4.3501H50.82C49.28 4.3501 48.03 5.5901 48.03 7.1101V23.6901C48.03 24.4801 48.36 25.2401 48.94 25.7801L57.16 33.4601C57.81 34.0701 58.67 34.4101 59.57 34.4101H89.61C90.58 34.4101 91.01 33.2101 90.26 32.6001L81.62 25.5901C81.1 25.1701 80.8 24.5501 80.8 23.8801V23.8901Z" fill="#455767"/>
<path d="M77.8001 7.17993H50.5801V22.8799H77.8001V7.17993Z" fill="#3888BA"/>
<path d="M64.2399 9.54004H53.6299V10.67H64.2399V9.54004Z" fill="#A0D1EA"/>
<path d="M67.4401 13.5H56.8301V14.63H67.4401V13.5Z" fill="#A0D1EA"/>
<path d="M64.5399 17.1799H53.9299V18.3099H64.5399V17.1799Z" fill="#A0D1EA"/>
<path d="M80.1999 28.05H57.5499L56.1799 27.04H78.8299L80.1999 28.05Z" fill="#506575"/>
<path d="M83.04 31.26H60.39L59.02 30.25H81.67L83.04 31.26Z" fill="#506575"/>
<path d="M116.89 30.1301C116.55 29.5301 116.06 29.0701 115.5 28.7501C113.72 27.0801 111.32 26.0601 108.67 26.0601H87.4699C84.7699 26.0601 82.2999 27.0101 80.3599 28.5801C79.6599 28.8901 79.0499 29.4201 78.6399 30.1301C78.5899 30.2201 78.4399 30.4901 78.2099 30.9201C77.5599 31.8701 77.0599 32.9301 76.7299 34.0701C73.6999 41.1701 68.8699 40.4201 76.1999 56.0101C76.1999 56.0101 119.34 55.9801 119.34 55.9701C129.02 35.3301 117.4 31.0301 116.88 30.1301H116.89Z" fill="#74E0C1"/>
<path d="M89.42 13.75H91.94V17.98H89.42C88.25 17.98 87.3 17.03 87.3 15.86C87.3 14.69 88.25 13.74 89.42 13.74V13.75Z" fill="#FADDDC"/>
<path d="M105.81 17.99H103.29V13.76H105.81C106.98 13.76 107.93 14.71 107.93 15.88C107.93 17.05 106.98 18 105.81 18V17.99Z" fill="#FADDDC"/>
<path d="M90.74 7.41992V18.4799C90.74 20.5099 91.98 22.2399 93.74 22.9999C94.33 23.2499 94.71 23.8399 94.71 24.4699V26.0199H100.75V24.4699C100.75 23.8299 101.13 23.2499 101.72 22.9999C103.49 22.2499 104.72 20.5099 104.72 18.4799V7.41992H90.73H90.74Z" fill="#FADDDC"/>
<path d="M92.61 3.29997C90.4 4.03997 88.2 4.32997 88.2 11.09C88.2 13.95 88.31 18.03 91.87 20.9C94.05 22.65 95.59 24.5 97.77 24.43C101.22 24.32 102.9 20.93 104.45 19.36C106.14 17.65 107.7 14.3 105.9 8.44997C104.23 3.00997 99.75 1.42997 95.19 1.60997C93.35 1.67997 93.24 3.08997 92.61 3.29997Z" fill="#3E2967"/>
<path d="M114.6 78.19H81.8899C77.8599 78.19 74.4499 75.24 73.9099 71.28L70.4099 45.51C69.7599 40.73 73.5199 36.48 78.3899 36.48H117.41C122.2 36.48 125.93 40.59 125.41 45.3L122.61 71.07C122.17 75.12 118.72 78.19 114.61 78.19H114.6Z" fill="#E5E5E5"/>
<path d="M117.4 43.84C117.47 43.84 117.68 43.84 117.87 44.05C118.06 44.26 118.03 44.46 118.03 44.53L115.23 70.3C115.2 70.62 114.93 70.85 114.61 70.85H81.8999C81.5899 70.85 81.3199 70.62 81.2799 70.31L77.7799 44.54C77.7799 44.47 77.7399 44.26 77.9299 44.05C78.1199 43.84 78.3299 43.84 78.3999 43.84H117.42M117.42 36.49H78.3999C73.5299 36.49 69.7699 40.74 70.4199 45.52L73.9199 71.29C74.4599 75.24 77.8699 78.2 81.8999 78.2H114.61C118.72 78.2 122.17 75.13 122.61 71.08L125.41 45.31C125.92 40.6 122.19 36.49 117.41 36.49H117.42Z" fill="#F7F7F7"/>
<rect x="121" y="4" width="35" height="16" rx="4" fill="#1C1C1C"/>
<path d="M126.659 16H125.517L128.056 8.92969H129.296L131.845 16H130.702L130.058 14.1348H127.304L126.659 16ZM127.611 13.2363H129.745L128.7 10.2188H128.651L127.611 13.2363ZM132.704 16V10.6973H133.749V16H132.704ZM132.567 9.26172C132.572 8.91992 132.87 8.64648 133.231 8.64648C133.588 8.64648 133.886 8.91992 133.886 9.26172C133.886 9.60352 133.588 9.88184 133.231 9.87695C132.87 9.88184 132.572 9.60352 132.567 9.26172ZM137.001 16.1074C135.722 16.1025 134.784 15.0723 134.784 13.3633C134.784 11.6348 135.736 10.6289 137.011 10.6289C137.997 10.6289 138.354 11.2246 138.544 11.5566H138.593V8.92969H139.638V16H138.622V15.1699H138.544C138.349 15.5166 137.968 16.1025 137.001 16.1074ZM135.849 13.3438C135.844 14.4082 136.322 15.2139 137.235 15.2188C138.124 15.2139 138.622 14.457 138.622 13.3438C138.622 12.2402 138.134 11.5127 137.235 11.5176C136.312 11.5127 135.844 12.2988 135.849 13.3438ZM143.28 16.1074C141.718 16.1074 140.756 15.0283 140.761 13.3828C140.756 11.752 141.732 10.6289 143.212 10.6289C144.418 10.6289 145.565 11.376 145.565 13.2949V13.666H141.796C141.825 14.6768 142.421 15.248 143.29 15.248C143.881 15.248 144.267 14.9941 144.442 14.6719H145.497C145.263 15.5312 144.447 16.1074 143.28 16.1074ZM141.801 12.8848H144.54C144.54 12.0791 144.018 11.4834 143.222 11.4883C142.387 11.4834 141.845 12.1377 141.801 12.8848ZM147.646 12.8555V16H146.601V10.6973H147.606V11.5664H147.665C147.914 10.9951 148.437 10.6289 149.228 10.6289C150.316 10.6289 151.039 11.3174 151.034 12.6309V16H149.999V12.7578C149.994 11.9863 149.579 11.5273 148.876 11.5273C148.158 11.5273 147.646 12.0107 147.646 12.8555Z" fill="white"/>
</g>
<defs>
<clipPath id="clip0_14_2375">
<rect width="160" height="100" fill="white"/>
</clipPath>
</defs>
</svg>
