<svg width="160" height="100" viewBox="0 0 160 100" fill="none" xmlns="http://www.w3.org/2000/svg">
<g clip-path="url(#clip0_14_2407)">
<path d="M159.25 0.610107H0.619995V99.3801H159.25V0.610107Z" fill="#FFDB92"/>
<path d="M159.86 100H0V0H159.86V100ZM1.24 98.78H158.63V1.22H1.24V98.77V98.78Z" fill="#EFD9B4"/>
<path d="M159.39 82.55H0.76001V99.39H159.39V82.55Z" fill="white"/>
<path d="M160 99.9999H0.140015V81.9399H160V99.9999ZM1.37001 98.7799H158.76V83.1699H1.37001V98.7799Z" fill="white"/>
<path d="M72.65 43.8901C72.31 43.2901 71.82 42.8301 71.26 42.5101C69.48 40.8401 67.08 39.8201 64.44 39.8201H43.25C40.55 39.8201 38.08 40.7701 36.15 42.3401C35.45 42.6501 34.84 43.1801 34.43 43.8901C34.38 43.9801 34.23 44.2501 34 44.6801C33.35 45.6301 32.85 46.6901 32.52 47.8301C29.49 54.9301 23.61 72.7001 37.35 85.9501L41.87 79.1801C41.58 78.5901 37.7 74.8701 37.45 74.2701L68.72 81.8901C68.47 82.4901 68.2 83.0801 67.91 83.6701L69.55 85.7501C86.24 65.4301 73.16 44.7901 72.64 43.8901H72.65Z" fill="#FADDDC"/>
<path d="M75.12 84.4801C75.57 82.4601 74.29 80.4801 72.26 80.0501C70.59 79.6901 68.94 80.5001 68.16 81.9101C67.99 82.2201 67.86 82.5501 67.78 82.9101C67.59 83.7801 67.43 84.6501 67.29 85.5101L74.86 85.8401C74.94 85.3901 75.03 84.9401 75.13 84.4901L75.12 84.4801Z" fill="#FADDDC"/>
<path d="M64.45 39.8201L43.17 39.7501C28.63 39.3101 26.96 59.2901 26.96 59.2901L35.94 61.5001C35.94 61.5001 38.51 82.4101 38.26 81.8201H68.64C68.39 82.4201 71.72 62.0901 71.72 62.0901L80.56 58.4101C80.56 58.4101 76.44 39.1201 64.45 39.8201Z" fill="#74E0C1"/>
<path d="M50.03 23.6201H64.22V34.7001C64.22 37.1901 62.2 39.2101 59.71 39.2101H58.28C57.58 39.2101 57.01 40.4501 57.01 41.1501V41.5701C57.01 43.4901 55.46 45.0401 53.54 45.0401C51.63 45.0401 50.08 43.4901 50.07 41.5801L50.02 23.6201H50.03Z" fill="#FADDDC"/>
<path d="M59.6701 35.12H60.5301C61.3001 35.12 61.9201 34.5 61.9201 33.73V29.54C61.9201 29.22 61.6601 28.96 61.3401 28.96C61.0201 28.96 60.7601 29.22 60.7601 29.54V33.18C60.7601 33.62 60.4101 33.97 59.9701 33.97H59.6701C59.3501 33.97 59.0901 34.23 59.0901 34.55C59.0901 34.87 59.3501 35.13 59.6701 35.13V35.12Z" fill="#E0B1BB"/>
<path d="M56.47 29.6699C56.47 30.0999 56.82 30.4399 57.24 30.4399C57.66 30.4399 58.01 30.0899 58.01 29.6699C58.01 29.2499 57.66 28.8999 57.24 28.8999C56.82 28.8999 56.47 29.2499 56.47 29.6699Z" fill="#757570"/>
<path d="M54.3401 18.0199C52.1801 18.8699 48.7001 20.6999 48.0201 25.0299C47.6701 27.2299 49.1901 33.7199 49.1901 33.7199C49.4001 34.4199 49.9101 34.3699 50.0601 34.4199L50.0301 30.0399V29.8699C50.0301 29.7799 50.0501 29.6999 50.0701 29.6199C50.1801 29.2199 50.5401 28.9199 50.9801 28.9199H51.1001C51.6201 28.9199 52.0501 29.3399 52.0501 29.8699V30.6699V30.6399L52.0601 31.3099C52.0601 31.5899 52.2901 31.8099 52.5601 31.8099C52.8301 31.8099 53.0601 31.5799 53.0601 31.3099V29.1499C53.0601 28.3099 53.2701 27.4799 53.7401 26.7799C54.1401 26.1699 54.8801 25.1299 56.0501 24.8599C57.2101 24.5899 60.6001 24.7999 62.0101 24.4699C64.1301 23.9699 64.7201 21.0899 64.2001 19.0499C63.7501 17.2899 58.0301 16.5699 54.3501 18.0199H54.3401Z" fill="#3E2967"/>
<path d="M64.0099 19.8201C64.1199 19.8601 65.3799 20.3101 65.4099 21.9501C65.4399 23.5901 64.1899 27.9501 64.1899 27.9501C64.1899 27.9501 64.3799 23.7401 63.0499 23.5801C61.7199 23.4201 63.9999 19.8201 63.9999 19.8201H64.0099Z" fill="#3E2967"/>
<path d="M57.9801 62.2799H53.0701V60.9499H56.0601L53.4301 53.8499L54.6801 53.3799L57.9801 62.2799Z" fill="white"/>
<path d="M46.9999 58.51L45.6699 58.49C45.6899 57.13 46.3499 54.55 48.6799 54.49C48.7099 54.49 48.7499 54.49 48.7799 54.49C51.1399 54.49 52.0199 56.58 52.1599 57.71L50.8399 57.87C50.8099 57.66 50.4899 55.74 48.7199 55.83C47.0899 55.87 47.0099 58.49 47.0099 58.52L46.9999 58.51Z" fill="white"/>
<path d="M58.84 57.36L57.51 57.34C57.53 55.98 58.19 53.4 60.52 53.34C62.89 53.29 63.85 55.42 63.99 56.56L62.67 56.72C62.64 56.51 62.38 54.6 60.55 54.68C58.92 54.72 58.85 57.34 58.84 57.37V57.36Z" fill="white"/>
<path d="M55.59 67.82C48.92 67.82 48.3 62.23 48.29 62.18L49.62 62.05C49.64 62.23 50.15 66.49 55.59 66.49C60.5 66.49 60.67 61.44 60.68 61.22L62.01 61.25C61.97 63.52 60.57 67.82 55.59 67.82Z" fill="white"/>
<path d="M39.4299 63.21H67.6699C68.9099 63.21 69.9199 64.22 69.9199 65.46V86.45H37.1699V65.46C37.1699 64.22 38.1799 63.21 39.4199 63.21H39.4299Z" fill="#F7F7F7"/>
<path d="M53.8101 78.0399C55.3123 78.0399 56.5301 76.8356 56.5301 75.3499C56.5301 73.8643 55.3123 72.6599 53.8101 72.6599C52.3079 72.6599 51.0901 73.8643 51.0901 75.3499C51.0901 76.8356 52.3079 78.0399 53.8101 78.0399Z" fill="#CED5D8"/>
<path d="M147.53 57.17L132.04 38.54C131.78 39.16 131.34 39.69 130.78 40.05L145.86 58.2C146.29 57.71 146.87 57.35 147.52 57.18L147.53 57.17Z" fill="#455767"/>
<path d="M125.69 37.3001C125.69 37.2201 125.69 37.1401 125.7 37.0601L109.85 44.1801L109.3 43.6401C109.1 43.4401 108.81 43.3601 108.54 43.4401L98.66 46.0601C98.07 46.2201 97.88 46.9401 98.31 47.3701L108.17 57.1401C108.6 57.5701 109.33 57.3701 109.49 56.7901L112.14 47.0001C112.21 46.7301 112.14 46.4401 111.94 46.2401L111.33 45.6401L126.17 38.9801C125.88 38.4901 125.71 37.9201 125.71 37.3201L125.69 37.3001Z" fill="#455767"/>
<path d="M147.29 63.4199L143.77 88.1799L145.69 88.4499L149.24 63.4699C148.96 63.5499 148.66 63.5999 148.35 63.5999C147.98 63.5999 147.62 63.5399 147.29 63.4199Z" fill="#455767"/>
<path d="M131.12 37.2999C131.12 36.1299 130.16 35.1899 128.99 35.1899C128.11 35.1899 127.36 35.7199 127.03 36.4599C126.92 36.7199 126.85 36.9999 126.85 37.2999C126.85 37.7399 126.99 38.1499 127.22 38.4799C127.6 39.0399 128.25 39.4099 128.99 39.4099C129.37 39.4099 129.73 39.3099 130.04 39.1399C130.66 38.7999 131.08 38.1599 131.12 37.4199C131.12 37.3799 131.12 37.3399 131.12 37.2999Z" fill="#455767"/>
<path d="M148.4 58.21C148.4 58.21 148.37 58.21 148.35 58.21C147.64 58.21 147.01 58.56 146.62 59.09C146.37 59.44 146.22 59.86 146.22 60.32C146.22 61.17 146.73 61.9 147.46 62.24C147.73 62.36 148.03 62.44 148.35 62.44C148.74 62.44 149.11 62.33 149.43 62.15C150.06 61.78 150.48 61.11 150.48 60.33C150.48 59.18 149.55 58.25 148.4 58.22V58.21Z" fill="#455767"/>
<path style="mix-blend-mode:darken" d="M97.4499 91.7001L108.16 57.1301L98.2999 47.3601L27.8199 93.0301L97.4499 91.7001Z" fill="url(#paint0_linear_14_2407)"/>
<path d="M145.09 92.36C149.453 92.36 152.99 90.7796 152.99 88.83C152.99 86.8805 149.453 85.3 145.09 85.3C140.727 85.3 137.19 86.8805 137.19 88.83C137.19 90.7796 140.727 92.36 145.09 92.36Z" fill="#455767"/>
<rect x="121" y="4" width="35" height="16" rx="4" fill="#1C1C1C"/>
<path d="M126.659 16H125.517L128.056 8.92969H129.296L131.845 16H130.702L130.058 14.1348H127.304L126.659 16ZM127.611 13.2363H129.745L128.7 10.2188H128.651L127.611 13.2363ZM132.704 16V10.6973H133.749V16H132.704ZM132.567 9.26172C132.572 8.91992 132.87 8.64648 133.231 8.64648C133.588 8.64648 133.886 8.91992 133.886 9.26172C133.886 9.60352 133.588 9.88184 133.231 9.87695C132.87 9.88184 132.572 9.60352 132.567 9.26172ZM137.001 16.1074C135.722 16.1025 134.784 15.0723 134.784 13.3633C134.784 11.6348 135.736 10.6289 137.011 10.6289C137.997 10.6289 138.354 11.2246 138.544 11.5566H138.593V8.92969H139.638V16H138.622V15.1699H138.544C138.349 15.5166 137.968 16.1025 137.001 16.1074ZM135.849 13.3438C135.844 14.4082 136.322 15.2139 137.235 15.2188C138.124 15.2139 138.622 14.457 138.622 13.3438C138.622 12.2402 138.134 11.5127 137.235 11.5176C136.312 11.5127 135.844 12.2988 135.849 13.3438ZM143.28 16.1074C141.718 16.1074 140.756 15.0283 140.761 13.3828C140.756 11.752 141.732 10.6289 143.212 10.6289C144.418 10.6289 145.565 11.376 145.565 13.2949V13.666H141.796C141.825 14.6768 142.421 15.248 143.29 15.248C143.881 15.248 144.267 14.9941 144.442 14.6719H145.497C145.263 15.5312 144.447 16.1074 143.28 16.1074ZM141.801 12.8848H144.54C144.54 12.0791 144.018 11.4834 143.222 11.4883C142.387 11.4834 141.845 12.1377 141.801 12.8848ZM147.646 12.8555V16H146.601V10.6973H147.606V11.5664H147.665C147.914 10.9951 148.437 10.6289 149.228 10.6289C150.316 10.6289 151.039 11.3174 151.034 12.6309V16H149.999V12.7578C149.994 11.9863 149.579 11.5273 148.876 11.5273C148.158 11.5273 147.646 12.0107 147.646 12.8555Z" fill="white"/>
</g>
<defs>
<linearGradient id="paint0_linear_14_2407" x1="71.9899" y1="76.1901" x2="89.4999" y2="45.9301" gradientUnits="userSpaceOnUse">
<stop stop-color="white"/>
<stop offset="1" stop-color="#FFC552"/>
</linearGradient>
<clipPath id="clip0_14_2407">
<rect width="160" height="100" fill="white"/>
</clipPath>
</defs>
</svg>
