<svg width="160" height="100" viewBox="0 0 160 100" fill="none" xmlns="http://www.w3.org/2000/svg">
<g clip-path="url(#clip0_14_2441)">
<path d="M159.25 0.610107H0.619995V99.3801H159.25V0.610107Z" fill="#FFDB92"/>
<path d="M159.86 100H0V0H159.86V100ZM1.24 98.78H158.63V1.22H1.24V98.77V98.78Z" fill="#EFD9B4"/>
<path d="M159.39 82.55H0.76001V99.39H159.39V82.55Z" fill="white"/>
<path d="M160 99.9999H0.140015V81.9399H160V99.9999ZM1.37001 98.7799H158.76V83.1699H1.37001V98.7799Z" fill="white"/>
<path d="M72.65 43.8901C72.31 43.2901 71.82 42.8301 71.26 42.5101C69.48 40.8401 67.08 39.8201 64.44 39.8201H43.25C40.55 39.8201 38.08 40.7701 36.15 42.3401C35.45 42.6501 34.84 43.1801 34.43 43.8901C34.38 43.9801 34.23 44.2501 34 44.6801C33.35 45.6301 32.85 46.6901 32.52 47.8301C29.49 54.9301 24.66 70.5201 31.99 86.1201L39.16 83.6701C38.87 83.0801 38.6 82.4801 38.35 81.8901H68.73C68.48 82.4901 68.21 83.0801 67.92 83.6701L75.09 86.1201C84.79 65.4701 73.17 44.8001 72.65 43.9001V43.8901Z" fill="#502489"/>
<path d="M31.45 84.9C30.45 83.09 31.12 80.83 32.95 79.84C34.45 79.03 36.26 79.33 37.41 80.47C37.66 80.72 37.88 81 38.06 81.33C38.49 82.11 38.89 82.9 39.26 83.68L32.09 86.13C31.89 85.72 31.68 85.31 31.45 84.91V84.9Z" fill="#FADDDC"/>
<path d="M75.64 85.0501C76.64 83.2401 75.97 80.9801 74.14 79.9901C72.64 79.1801 70.83 79.4801 69.68 80.6201C69.43 80.8701 69.21 81.1501 69.03 81.4801C68.6 82.2601 68.2 83.0501 67.83 83.8301L75 86.2801C75.2 85.8701 75.41 85.4601 75.64 85.0601V85.0501Z" fill="#FADDDC"/>
<path d="M44.5701 56.1401L44.5101 56.2501C44.2601 56.7101 44.1401 57.0701 44.1401 57.3201C44.1401 57.3901 44.1701 57.4701 44.2301 57.5401C44.1801 57.5601 44.0801 57.5901 43.9101 57.6501C43.8301 57.6801 43.7601 57.6901 43.6901 57.6901C43.5501 57.6901 43.4801 57.6201 43.4801 57.4901C43.4801 57.2201 43.6501 56.8001 43.9901 56.2401L44.0801 56.0901H43.9301C43.6101 56.0901 43.3601 56.1401 43.1801 56.2401C43.2701 55.9101 43.5201 55.7401 43.9201 55.7401H44.2801L44.3601 55.6301C44.6701 55.1701 45.1401 54.5401 45.7701 53.7601C45.9801 53.5001 46.1401 53.3301 46.2501 53.2701C46.3601 53.2101 46.5601 53.1501 46.8701 53.0901C46.8101 53.4401 46.7801 53.7701 46.7801 54.0801C46.7801 54.8901 46.8701 55.7001 47.0601 56.5301C47.1601 56.9801 47.3201 57.2801 47.5301 57.4101C47.3501 57.5901 47.1901 57.6801 47.0601 57.6801C46.7501 57.6801 46.5101 57.1501 46.3401 56.0801C46.0201 56.1201 45.6901 56.1301 45.3601 56.1301H44.5601L44.5701 56.1401ZM44.7801 55.7901H45.3701C45.7801 55.8001 46.0901 55.7901 46.3001 55.7601C46.2101 55.0701 46.1601 54.5001 46.1601 54.0501V53.8301C46.1001 53.9101 45.9501 54.0901 45.7301 54.3701C45.3201 54.8701 45.0201 55.3101 44.8301 55.6801L44.7701 55.8001L44.7801 55.7901Z" fill="#F1F0EC"/>
<path d="M51.61 55.1899C51.2 55.9599 50.8 56.5699 50.39 56.9999C49.98 57.4399 49.62 57.6599 49.3 57.6599C49.07 57.6599 48.89 57.5699 48.74 57.3899C48.6 57.2099 48.53 56.9799 48.53 56.6899C48.53 56.5299 48.56 56.2999 48.62 56.0099L49.21 53.0599C49.13 53.0699 49.07 53.0799 49.01 53.0799C48.56 53.0799 48.33 52.8899 48.33 52.5099V52.4399C48.57 52.5699 48.83 52.6399 49.13 52.6399C49.43 52.6399 49.69 52.5699 49.91 52.4199L49.23 55.9599C49.17 56.2799 49.14 56.4999 49.14 56.6199C49.14 56.9499 49.26 57.1199 49.5 57.1199C49.74 57.1199 49.97 56.9899 50.21 56.7199C50.45 56.4499 50.84 55.8899 51.38 55.0199L51.62 55.1799L51.61 55.1899Z" fill="#F1F0EC"/>
<path d="M53.87 55.5399C53.9 55.6399 53.91 55.7299 53.91 55.8299C53.91 56.3199 53.74 56.7499 53.39 57.1099C53.04 57.4699 52.64 57.6599 52.17 57.6599C51.83 57.6599 51.55 57.5599 51.34 57.3499C51.13 57.1499 51.02 56.8799 51.02 56.5599C51.02 56.3299 51.06 55.9899 51.15 55.5599L51.64 53.0599C51.54 53.0799 51.46 53.0899 51.39 53.0899C50.97 53.0899 50.76 52.8699 50.76 52.4299C50.89 52.5499 51.09 52.6199 51.37 52.6199C51.62 52.6199 51.94 52.5599 52.35 52.4299L51.66 55.9199C51.61 56.1599 51.59 56.3599 51.59 56.5499C51.59 56.7899 51.65 56.9899 51.78 57.1399C51.91 57.2899 52.07 57.3699 52.28 57.3699C52.59 57.3699 52.85 57.2299 53.06 56.9499C53.28 56.6699 53.38 56.3299 53.38 55.9399C53.38 55.7399 53.35 55.5499 53.28 55.3699C53.03 55.2899 52.83 55.1799 52.67 55.0499C52.51 54.9199 52.43 54.7899 52.43 54.6599C52.43 54.5899 52.46 54.5099 52.51 54.3999C53.04 54.4399 53.44 54.6699 53.72 55.0899C53.97 55.2099 54.24 55.2699 54.53 55.2699C54.82 55.2699 55.11 55.1799 55.41 55.0099L55.56 55.2499C55.22 55.5099 54.84 55.6399 54.41 55.6399C54.22 55.6399 54.03 55.6199 53.86 55.5699L53.87 55.5399Z" fill="#F1F0EC"/>
<path d="M55.3499 56.3601C55.3499 56.9301 55.5899 57.2201 56.0799 57.2201C56.4999 57.2201 56.9699 57.0201 57.4699 56.6201C57.9799 56.2201 58.4399 55.6901 58.8399 55.0301L59.0899 55.1701C58.7099 55.8901 58.2099 56.4801 57.5899 56.9501C56.9699 57.4201 56.3899 57.6601 55.8399 57.6601C55.4899 57.6601 55.2099 57.5501 54.9999 57.3201C54.7999 57.0901 54.6899 56.7801 54.6899 56.3901C54.6899 55.8201 54.8799 55.3301 55.2499 54.9301C55.6199 54.5301 56.0699 54.3201 56.5899 54.3201C56.8399 54.3201 57.0499 54.3801 57.1999 54.5101C57.3499 54.6401 57.4299 54.8101 57.4299 55.0201C57.4299 55.3701 57.2199 55.6801 56.7999 55.9501C56.3799 56.2201 55.8899 56.3601 55.3399 56.3601H55.3499ZM55.3699 56.0801C55.7799 56.0601 56.1299 55.9401 56.4299 55.7301C56.7199 55.5201 56.8699 55.2701 56.8699 54.9901C56.8699 54.7401 56.7599 54.6101 56.5399 54.6101C56.2699 54.6101 56.0299 54.7501 55.7999 55.0401C55.5699 55.3301 55.4299 55.6701 55.3799 56.0801H55.3699Z" fill="#F1F0EC"/>
<path d="M59 57.5701C58.87 57.6301 58.76 57.6601 58.68 57.6601C58.48 57.6601 58.38 57.5701 58.38 57.3901C58.38 57.3001 58.42 57.0801 58.49 56.7201L58.64 55.9901C58.73 55.5501 58.78 55.2301 58.78 55.0201C58.78 54.9101 58.75 54.8101 58.68 54.7401C58.89 54.6701 59.05 54.6301 59.18 54.6301C59.32 54.6301 59.39 54.7201 59.39 54.8901C59.39 55.0001 59.34 55.2801 59.24 55.7401L59.07 56.6001C59.44 55.8801 59.81 55.3201 60.19 54.9201C60.57 54.5201 60.91 54.3201 61.21 54.3201C61.32 54.3201 61.41 54.3501 61.49 54.4101C61.57 54.4701 61.61 54.5501 61.61 54.6301C61.61 54.7701 61.46 54.9501 61.16 55.1801C61.09 55.0201 60.98 54.9501 60.84 54.9501C60.59 54.9501 60.27 55.2201 59.89 55.7401C59.65 56.0701 59.44 56.4101 59.27 56.7601C59.09 57.1101 59 57.3601 59 57.5101V57.5601V57.5701Z" fill="#F1F0EC"/>
<path d="M63.77 56.4201C63.82 56.5201 63.85 56.6001 63.85 56.6701C63.85 56.8601 63.69 57.0701 63.36 57.3101C63.04 57.5401 62.74 57.6601 62.47 57.6601C62.23 57.6601 62.04 57.5601 61.89 57.3501C61.74 57.1401 61.67 56.8701 61.67 56.5401C61.67 56.1701 61.77 55.6501 61.96 54.9701L62.1 54.4801H61.6C61.39 54.4801 61.23 54.5101 61.1 54.5701C61.21 54.3601 61.31 54.2301 61.38 54.1801C61.45 54.1301 61.58 54.1001 61.76 54.1001H62.2L62.26 53.9001C62.35 53.6001 62.46 53.3901 62.58 53.2801C62.71 53.1701 62.89 53.1101 63.15 53.1101C63.18 53.1101 63.23 53.1101 63.29 53.1101C63.14 53.3101 62.98 53.6401 62.81 54.1001H64.36C64.63 54.1001 64.84 54.0601 64.98 53.9901C64.93 54.1901 64.87 54.3201 64.78 54.3801C64.7 54.4401 64.55 54.4701 64.33 54.4701H62.68C62.66 54.5301 62.65 54.5801 62.64 54.6101C62.4 55.4201 62.28 56.0301 62.28 56.4401C62.28 56.8901 62.44 57.1201 62.77 57.1201C62.94 57.1201 63.12 57.0501 63.32 56.9101C63.52 56.7701 63.66 56.6101 63.75 56.4201H63.77Z" fill="#F1F0EC"/>
<path d="M50.9399 20.48H65.4799V33.49C65.4799 36.04 63.4099 38.11 60.8599 38.11H59.3899C58.6699 38.11 58.0899 38.69 58.0899 39.41V40.73C58.0899 42.69 56.4999 44.28 54.5399 44.28C52.5799 44.28 50.9899 42.7 50.9899 40.74L50.9399 20.49V20.48Z" fill="#FADDDC"/>
<path d="M60.7699 33.9101H61.6499C62.4399 33.9101 63.0799 33.2701 63.0799 32.4801V28.1801C63.0799 27.8501 62.8099 27.5901 62.4899 27.5901C62.1699 27.5901 61.8999 27.8601 61.8999 28.1801V31.9001C61.8999 32.3501 61.5399 32.7101 61.0899 32.7101H60.7799C60.4499 32.7101 60.1899 32.9801 60.1899 33.3001C60.1899 33.6301 60.4599 33.8901 60.7799 33.8901L60.7699 33.9101Z" fill="#E0B1BB"/>
<path d="M49.53 27.0001V21.5301C49.53 20.3301 50.5 19.3601 51.7 19.3601H53.01V17.0301H58.93C59.63 15.4701 61.35 14.4701 63.24 14.8901C64.66 15.2001 65.8 16.3801 66.08 17.8001C66.54 20.1001 64.91 22.1101 62.75 22.3201V22.3601H60.39H54.6C53.68 22.3601 52.94 23.1001 52.94 24.0201V26.5401C52.94 27.6201 52.07 28.4901 50.99 28.4901H50.97C50.97 28.4901 50.96 28.4901 50.95 28.4901V31.2501H49.52V26.9901L49.53 27.0001Z" fill="#3E2967"/>
<path d="M60.28 33.9099H62.1501C62.9701 33.9099 63.6301 34.5699 63.6301 35.3899V35.6299L61.91 35.0499C61.63 34.9499 61.3301 34.9499 61.0401 35.0199L58.8 35.6299V35.3899C58.8 34.5699 59.46 33.9099 60.28 33.9099Z" fill="#3E2967"/>
<path d="M61.08 37.29C61.32 37.24 61.56 37.26 61.79 37.34L62.58 37.63V37.87C62.58 38.69 61.92 39.35 61.1 39.35H60.97C60.15 39.35 59.49 38.69 59.49 37.87V37.63L61.07 37.29H61.08Z" fill="#3E2967"/>
<path d="M58.3701 28.1201C58.3701 28.5501 58.0201 28.9001 57.5901 28.9001C57.1601 28.9001 56.8101 28.5501 56.8101 28.1201C56.8101 27.6901 57.1601 27.3401 57.5901 27.3401C58.0201 27.3401 58.3701 27.6901 58.3701 28.1201Z" fill="#757570"/>
<path d="M39.43 63.21H67.67C68.91 63.21 69.92 64.22 69.92 65.46V86.45H37.17V65.46C37.17 64.22 38.18 63.21 39.42 63.21H39.43Z" fill="#F7F7F7"/>
<path d="M53.81 78.0399C55.3122 78.0399 56.53 76.8356 56.53 75.3499C56.53 73.8643 55.3122 72.6599 53.81 72.6599C52.3078 72.6599 51.09 73.8643 51.09 75.3499C51.09 76.8356 52.3078 78.0399 53.81 78.0399Z" fill="#CED5D8"/>
<path d="M147.53 57.17L132.04 38.54C131.78 39.16 131.34 39.69 130.78 40.05L145.86 58.2C146.29 57.71 146.87 57.35 147.52 57.18L147.53 57.17Z" fill="#455767"/>
<path d="M125.69 37.3001C125.69 37.2201 125.69 37.1401 125.7 37.0601L109.85 44.1801L109.3 43.6401C109.1 43.4401 108.81 43.3601 108.54 43.4401L98.66 46.0601C98.07 46.2201 97.88 46.9401 98.31 47.3701L108.17 57.1401C108.6 57.5701 109.33 57.3701 109.49 56.7901L112.14 47.0001C112.21 46.7301 112.14 46.4401 111.94 46.2401L111.33 45.6401L126.17 38.9801C125.88 38.4901 125.71 37.9201 125.71 37.3201L125.69 37.3001Z" fill="#455767"/>
<path d="M147.29 63.4199L143.77 88.1799L145.69 88.4499L149.24 63.4699C148.96 63.5499 148.66 63.5999 148.35 63.5999C147.98 63.5999 147.62 63.5399 147.29 63.4199Z" fill="#455767"/>
<path d="M131.12 37.2999C131.12 36.1299 130.16 35.1899 128.99 35.1899C128.11 35.1899 127.36 35.7199 127.03 36.4599C126.92 36.7199 126.85 36.9999 126.85 37.2999C126.85 37.7399 126.99 38.1499 127.22 38.4799C127.6 39.0399 128.25 39.4099 128.99 39.4099C129.37 39.4099 129.73 39.3099 130.04 39.1399C130.66 38.7999 131.08 38.1599 131.12 37.4199C131.12 37.3799 131.12 37.3399 131.12 37.2999Z" fill="#455767"/>
<path d="M148.4 58.21C148.4 58.21 148.37 58.21 148.35 58.21C147.64 58.21 147.01 58.56 146.62 59.09C146.37 59.44 146.22 59.86 146.22 60.32C146.22 61.17 146.73 61.9 147.46 62.24C147.73 62.36 148.03 62.44 148.35 62.44C148.74 62.44 149.11 62.33 149.43 62.15C150.06 61.78 150.48 61.11 150.48 60.33C150.48 59.18 149.55 58.25 148.4 58.22V58.21Z" fill="#455767"/>
<path style="mix-blend-mode:darken" d="M97.4499 91.7001L108.16 57.1301L98.2999 47.3601L27.8199 93.0301L97.4499 91.7001Z" fill="url(#paint0_linear_14_2441)"/>
<path d="M145.09 92.36C149.453 92.36 152.99 90.7796 152.99 88.83C152.99 86.8805 149.453 85.3 145.09 85.3C140.727 85.3 137.19 86.8805 137.19 88.83C137.19 90.7796 140.727 92.36 145.09 92.36Z" fill="#455767"/>
<rect x="119" y="4" width="37" height="16" rx="4" fill="#1C1C1C"/>
<path d="M124.814 16H123.672L126.211 8.92969H127.451L130 16H128.857L128.213 14.1348H125.459L124.814 16ZM125.767 13.2363H127.9L126.855 10.2188H126.807L125.767 13.2363ZM131.855 8.92969V16H130.811V8.92969H131.855ZM133.213 16V8.92969H134.248V11.5566H134.307C134.497 11.2246 134.849 10.6289 135.83 10.6289C137.114 10.6289 138.062 11.6348 138.066 13.3633C138.062 15.0723 137.124 16.1025 135.84 16.1074C134.878 16.1025 134.502 15.5166 134.307 15.1699H134.229V16H133.213ZM134.229 13.3438C134.229 14.457 134.727 15.2139 135.605 15.2188C136.523 15.2139 137.002 14.4082 137.002 13.3438C137.002 12.2988 136.538 11.5127 135.605 11.5176C134.712 11.5127 134.229 12.2402 134.229 13.3438ZM141.387 16.1074C139.824 16.1074 138.862 15.0283 138.867 13.3828C138.862 11.752 139.839 10.6289 141.318 10.6289C142.524 10.6289 143.672 11.376 143.672 13.2949V13.666H139.902C139.932 14.6768 140.527 15.248 141.396 15.248C141.987 15.248 142.373 14.9941 142.549 14.6719H143.604C143.369 15.5312 142.554 16.1074 141.387 16.1074ZM139.907 12.8848H142.646C142.646 12.0791 142.124 11.4834 141.328 11.4883C140.493 11.4834 139.951 12.1377 139.907 12.8848ZM144.707 16V10.6973H145.713V11.5371H145.771C145.967 10.9707 146.499 10.6143 147.119 10.6191C147.246 10.6143 147.451 10.6289 147.559 10.6387V11.6348C147.471 11.6152 147.227 11.5713 147.012 11.5762C146.289 11.5713 145.752 12.0742 145.752 12.7676V16H144.707ZM151.133 10.6973V11.5273H150.049V14.4375C150.054 15.0381 150.347 15.1455 150.684 15.1504C150.835 15.1504 151.064 15.1357 151.211 15.1211V16.0293C151.069 16.0488 150.845 16.0684 150.557 16.0684C149.741 16.0684 149.004 15.6191 149.014 14.6523V11.5273H148.232V10.6973H149.014V9.42773H150.049V10.6973H151.133Z" fill="white"/>
</g>
<defs>
<linearGradient id="paint0_linear_14_2441" x1="71.9899" y1="76.1901" x2="89.4999" y2="45.9301" gradientUnits="userSpaceOnUse">
<stop stop-color="white"/>
<stop offset="1" stop-color="#FFC552"/>
</linearGradient>
<clipPath id="clip0_14_2441">
<rect width="160" height="100" fill="white"/>
</clipPath>
</defs>
</svg>
