<svg width="160" height="100" viewBox="0 0 160 100" fill="none" xmlns="http://www.w3.org/2000/svg">
<g clip-path="url(#clip0_14_316)">
<path d="M159.246 0.612549H0.618286V99.3877H159.246V0.612549Z" fill="#FFDB92"/>
<path d="M159.864 100H0V0H159.864V100ZM1.23648 98.7751H158.628V1.22489H1.23648V98.7751Z" fill="#EFD9B4"/>
<path d="M159.382 82.5454H0.754272V99.3754H159.382V82.5454Z" fill="white"/>
<path d="M160 99.9999H0.135986V81.9451H160V99.9999ZM1.37246 98.7751H158.763V83.17H1.37246V98.7751Z" fill="white"/>
<path d="M72.6553 43.8877C72.3091 43.2875 71.8268 42.8343 71.2704 42.5036C69.4899 40.8377 67.0911 39.8088 64.4451 39.8088H43.2642C40.5687 39.8088 38.0958 40.752 36.1669 42.3321C35.4621 42.6506 34.8562 43.165 34.4482 43.8755C34.3987 43.9612 34.2503 44.2307 34.0154 44.6717C33.3601 45.6271 32.8655 46.6805 32.544 47.8196C29.5146 54.9117 24.6924 70.5168 32.0123 86.1097L39.1839 83.6599C38.8871 83.0719 38.6151 82.4717 38.3678 81.8715H68.748C68.5007 82.4717 68.2287 83.0597 67.9319 83.6599L75.1035 86.1097C84.8098 65.458 73.187 44.7941 72.6676 43.8877H72.6553Z" fill="#F4B2C4"/>
<path d="M31.4559 84.8972C30.4544 83.0844 31.1345 80.8183 32.9521 79.8384C34.4482 79.03 36.2658 79.3362 37.4158 80.4631C37.6631 80.7081 37.8856 80.9898 38.0587 81.3205C38.4915 82.1045 38.8872 82.8884 39.2581 83.6723L32.0865 86.1221C31.8887 85.7179 31.6785 85.3014 31.4436 84.8972H31.4559Z" fill="#FADDDC"/>
<path d="M75.6353 85.0442C76.6368 83.2314 75.9568 80.9653 74.1392 79.9854C72.643 79.177 70.8254 79.4832 69.6755 80.6101C69.4282 80.8551 69.2056 81.1368 69.0325 81.4675C68.5997 82.2514 68.2041 83.0354 67.8331 83.8193L75.0047 86.2691C75.2025 85.8649 75.4127 85.4484 75.6477 85.0442H75.6353Z" fill="#FADDDC"/>
<path d="M53.1067 62.1509L60.8099 39.7844H45.5394L53.1067 62.1509Z" fill="white"/>
<path d="M46.5162 21.1782V32.239C46.5162 34.26 47.7527 35.9994 49.5209 36.7588C50.1144 37.016 50.4977 37.5917 50.4977 38.2287V39.772H56.5317V38.2287C56.5317 37.5917 56.915 37.0038 57.5085 36.7588C59.2767 35.9994 60.5131 34.26 60.5131 32.239V21.1782H46.541H46.5162Z" fill="#FADDDC"/>
<path d="M54.3926 33.7579H53.6012C52.8841 33.7579 52.3153 33.1822 52.3153 32.484V28.6378C52.3153 28.3439 52.5502 28.0989 52.8594 28.0989C53.1685 28.0989 53.4034 28.3316 53.4034 28.6378V31.9818C53.4034 32.386 53.7249 32.7045 54.1329 32.7045H54.405C54.7017 32.7045 54.949 32.9372 54.949 33.2434C54.949 33.5496 54.7141 33.7701 54.405 33.7701L54.3926 33.7579Z" fill="#E0B1BB"/>
<path d="M57.4591 28.4787C57.4591 28.8707 57.1376 29.1892 56.7419 29.1892C56.3463 29.1892 56.0248 28.8707 56.0248 28.4787C56.0248 28.0868 56.3463 27.7683 56.7419 27.7683C57.1376 27.7683 57.4591 28.0868 57.4591 28.4787Z" fill="#757570"/>
<path d="M50.2009 28.4787C50.2009 28.8707 49.8794 29.1892 49.4838 29.1892C49.0881 29.1892 48.7666 28.8707 48.7666 28.4787C48.7666 28.0868 49.0881 27.7683 49.4838 27.7683C49.8794 27.7683 50.2009 28.0868 50.2009 28.4787Z" fill="#757570"/>
<path d="M53.4652 17.4056C52.5996 17.0994 51.6846 16.7687 50.7697 16.8667C49.6445 16.9892 48.816 17.7118 48.272 18.655C47.4683 20.0391 45.3663 19.2797 44.9953 22.0112C44.6862 24.3262 46.8377 25.7226 49.1128 25.0734C51.3879 24.412 53.8237 23.4688 55.5919 23.9833C57.3601 24.4977 59.0417 25.7104 60.5996 25.0734C62.2936 24.3752 63.2828 21.754 61.4775 19.3899C60.612 18.2508 58.4234 17.0749 56.6553 17.6383C55.629 17.9691 54.3802 17.7241 53.4652 17.4056Z" fill="#3E2967"/>
<path d="M45.0325 23.0525C45.0819 23.126 46.4915 27.4621 46.4915 27.4621V24.3509L45.0325 23.0403V23.0525Z" fill="#3E2967"/>
<path d="M60.4761 24.8898V27.6581L62.0711 23.5547L60.4761 24.8898Z" fill="#3E2967"/>
<path d="M39.9629 63.2043H67.1283C68.6615 63.2043 69.9103 64.4415 69.9103 65.9603V86.4405H37.1685V65.9603C37.1685 64.4415 38.4173 63.2043 39.9505 63.2043H39.9629Z" fill="#455767"/>
<path d="M53.8114 78.0499C55.3138 78.0499 56.5317 76.8434 56.5317 75.3552C56.5317 73.8669 55.3138 72.6604 53.8114 72.6604C52.3091 72.6604 51.0912 73.8669 51.0912 75.3552C51.0912 76.8434 52.3091 78.0499 53.8114 78.0499Z" fill="#66767F"/>
<path d="M147.524 57.1655L132.031 38.5349C131.771 39.1596 131.326 39.6863 130.77 40.0415L145.855 58.1944C146.288 57.7044 146.869 57.337 147.524 57.1777V57.1655Z" fill="#455767"/>
<path d="M125.688 37.298C125.688 37.2122 125.688 37.1387 125.7 37.053L109.849 44.1696L109.304 43.6306C109.107 43.4347 108.81 43.3612 108.538 43.4224L98.6584 46.0437C98.0649 46.2029 97.8795 46.9256 98.2999 47.3543L108.155 57.1167C108.587 57.5454 109.317 57.3494 109.478 56.7615L112.124 46.9746C112.198 46.7051 112.124 46.4111 111.913 46.2152L111.308 45.615L126.145 38.9516C125.849 38.4616 125.675 37.8982 125.675 37.2857L125.688 37.298Z" fill="#455767"/>
<path d="M147.289 63.4126L143.765 88.1799L145.682 88.4493L149.23 63.4738C148.946 63.5473 148.649 63.5963 148.34 63.5963C147.969 63.5963 147.611 63.5351 147.277 63.4248L147.289 63.4126Z" fill="#455767"/>
<path d="M131.116 37.2978C131.116 36.1341 130.164 35.1787 128.977 35.1787C128.099 35.1787 127.345 35.7054 127.023 36.4526C126.912 36.7098 126.85 36.9915 126.85 37.2978C126.85 37.7387 126.986 38.1429 127.221 38.4859C127.604 39.0494 128.247 39.4168 128.989 39.4168C129.373 39.4168 129.731 39.3188 130.04 39.1474C130.658 38.8044 131.079 38.1674 131.116 37.4203C131.116 37.3835 131.116 37.3468 131.116 37.2978Z" fill="#455767"/>
<path d="M148.389 58.2068C148.389 58.2068 148.352 58.2068 148.34 58.2068C147.623 58.2068 146.992 58.562 146.609 59.0887C146.362 59.4317 146.201 59.8604 146.201 60.3136C146.201 61.1588 146.708 61.8937 147.437 62.2367C147.709 62.3592 148.006 62.4327 148.328 62.4327C148.723 62.4327 149.094 62.3224 149.403 62.1387C150.034 61.7712 150.454 61.0975 150.454 60.3258C150.454 59.1744 149.527 58.2435 148.365 58.219L148.389 58.2068Z" fill="#455767"/>
<path style="mix-blend-mode:darken" d="M97.4466 91.6952L108.155 57.1288L98.2998 47.3665L27.8207 93.0181L97.4466 91.6952Z" fill="url(#paint0_linear_14_316)"/>
<path d="M145.076 92.3566C149.439 92.3566 152.977 90.7772 152.977 88.8289C152.977 86.8807 149.439 85.3013 145.076 85.3013C140.712 85.3013 137.175 86.8807 137.175 88.8289C137.175 90.7772 140.712 92.3566 145.076 92.3566Z" fill="#455767"/>
<rect x="121.615" y="4.19507" width="34" height="16" rx="4" fill="#1C1C1C"/>
<path d="M128.718 16.1951H126.423V9.12476H128.786C130.871 9.12476 132.111 10.448 132.116 12.6501C132.111 14.8572 130.871 16.1951 128.718 16.1951ZM127.497 15.2576H128.659C130.261 15.2527 131.052 14.3201 131.052 12.6501C131.052 10.9851 130.261 10.0623 128.718 10.0623H127.497V15.2576ZM132.995 14.7009C132.99 13.49 134.021 13.1775 134.978 13.1091C135.329 13.0896 136.125 13.0457 136.369 13.0359L136.364 12.6111C136.369 12.0105 135.998 11.6638 135.29 11.6638C134.675 11.6638 134.304 11.947 134.196 12.3376H133.161C133.254 11.4587 134.074 10.824 135.329 10.824C136.174 10.824 137.404 11.1316 137.409 12.6697V16.1951H136.394V15.4724H136.355C136.15 15.8679 135.661 16.3123 134.782 16.3123C133.776 16.3123 132.99 15.7361 132.995 14.7009ZM134.011 14.7107C134.011 15.2185 134.431 15.4773 135.017 15.4822C135.866 15.4773 136.374 14.9109 136.374 14.281L136.369 13.7976C136.13 13.8123 135.373 13.866 135.124 13.8806C134.441 13.9294 134.011 14.1882 134.011 14.7107ZM143.025 10.8923L141.101 16.1951H139.978L138.054 10.8923H139.177L140.515 14.9646H140.564L141.901 10.8923H143.025ZM143.874 16.1951V10.8923H144.919V16.1951H143.874ZM143.737 9.45679C143.742 9.11499 144.04 8.84155 144.401 8.84155C144.758 8.84155 145.056 9.11499 145.056 9.45679C145.056 9.79858 144.758 10.0769 144.401 10.072C144.04 10.0769 143.742 9.79858 143.737 9.45679ZM148.171 16.3025C146.892 16.2976 145.954 15.2673 145.954 13.5583C145.954 11.8298 146.906 10.824 148.181 10.824C149.167 10.824 149.524 11.4197 149.714 11.7517H149.763V9.12476H150.808V16.1951H149.792V15.365H149.714C149.519 15.7117 149.138 16.2976 148.171 16.3025ZM147.019 13.5388C147.014 14.6033 147.492 15.4089 148.405 15.4138C149.294 15.4089 149.792 14.6521 149.792 13.5388C149.792 12.4353 149.304 11.7078 148.405 11.7126C147.483 11.7078 147.014 12.4939 147.019 13.5388Z" fill="white"/>
</g>
<defs>
<linearGradient id="paint0_linear_14_316" x1="72.0865" y1="76.1881" x2="89.4222" y2="45.9144" gradientUnits="userSpaceOnUse">
<stop stop-color="white"/>
<stop offset="1" stop-color="#FFC552"/>
</linearGradient>
<clipPath id="clip0_14_316">
<rect width="160" height="100" fill="white"/>
</clipPath>
</defs>
</svg>
