<svg width="160" height="100" viewBox="0 0 160 100" fill="none" xmlns="http://www.w3.org/2000/svg">
<g clip-path="url(#clip0_85_1150)">
<path d="M159.25 0.609863H0.619995V99.3799H159.25V0.609863Z" fill="#FFDB92"/>
<path d="M159.86 100H0V0H159.86V100ZM1.24 98.78H158.63V1.22H1.24V98.77V98.78Z" fill="#EFD9B4"/>
<path d="M159.39 82.5498H0.76001V99.3898H159.39V82.5498Z" fill="white"/>
<path d="M160 99.9999H0.140015V81.9399H160V99.9999ZM1.37001 98.7799H158.76V83.1699H1.37001V98.7799Z" fill="white"/>
<path d="M72.65 43.8898C72.31 43.2898 71.82 42.8298 71.26 42.5098C69.48 40.8398 67.08 39.8198 64.44 39.8198H43.25C40.55 39.8198 38.08 40.7698 36.15 42.3398C35.45 42.6498 34.84 43.1798 34.43 43.8898C34.38 43.9798 34.23 44.2498 34 44.6798C33.35 45.6298 32.85 46.6898 32.52 47.8298C29.49 54.9298 24.66 70.5198 31.99 86.1198L39.16 83.6698C38.87 83.0798 38.6 82.4798 38.35 81.8898H68.73C68.48 82.4898 68.21 83.0798 67.92 83.6698L75.09 86.1198C84.79 65.4698 73.17 44.7998 72.65 43.8998V43.8898Z" fill="#3E2967"/>
<path d="M31.45 84.9002C30.45 83.0902 31.12 80.8302 32.95 79.8402C34.45 79.0302 36.26 79.3302 37.41 80.4702C37.66 80.7202 37.88 81.0002 38.06 81.3302C38.49 82.1102 38.89 82.9002 39.26 83.6802L32.09 86.1302C31.89 85.7202 31.68 85.3102 31.45 84.9102V84.9002Z" fill="#FADDDC"/>
<path d="M75.64 85.0501C76.64 83.2401 75.97 80.9801 74.14 79.9901C72.64 79.1801 70.83 79.4801 69.68 80.6201C69.43 80.8701 69.21 81.1501 69.03 81.4801C68.6 82.2601 68.2 83.0501 67.83 83.8301L75 86.2801C75.2 85.8701 75.41 85.4601 75.64 85.0601V85.0501Z" fill="#FADDDC"/>
<path d="M49.89 19.9702H65.76V31.0302C65.76 34.5502 62.91 37.4002 59.39 37.4002H59.11C58.33 37.4002 57.7 38.0302 57.7 38.8102V40.6802C57.7 42.8202 55.96 44.5602 53.82 44.5602C51.68 44.5602 49.95 42.8302 49.94 40.6902L49.89 19.9702Z" fill="#FADDDC"/>
<path d="M52.12 12.0499C50.92 12.1699 48.32 13.1799 46.77 14.4899C45.22 15.7999 43.14 17.8799 42.49 18.5299C41.84 19.1799 39.51 21.5599 38.98 22.3899C37.97 23.9899 36.6 27.2599 37.08 31.2399C37.56 35.2199 41.77 39.6199 46.94 40.7499C52.11 41.8799 59.48 42.5899 64 39.3199C68.52 36.0499 70.18 33.1399 69.65 28.9199C69.12 24.6999 67.04 22.1499 65.85 20.6599C64.66 19.1699 64.72 16.5599 62.05 14.8399C59.38 13.1199 56.94 11.5699 52.13 12.0499H52.12Z" fill="#FCC31E"/>
<path d="M52.97 37.6499C57.1011 37.6499 60.45 34.301 60.45 30.1699C60.45 26.0389 57.1011 22.6899 52.97 22.6899C48.8389 22.6899 45.49 26.0389 45.49 30.1699C45.49 34.301 48.8389 37.6499 52.97 37.6499Z" fill="#FADDDC"/>
<path d="M50.6 31.0399C51.7377 31.0399 52.66 30.1176 52.66 28.9799C52.66 27.8422 51.7377 26.9199 50.6 26.9199C49.4623 26.9199 48.54 27.8422 48.54 28.9799C48.54 30.1176 49.4623 31.0399 50.6 31.0399Z" fill="#F1F0EB"/>
<path d="M57.02 31.0399C58.1577 31.0399 59.08 30.1176 59.08 28.9799C59.08 27.8422 58.1577 26.9199 57.02 26.9199C55.8823 26.9199 54.96 27.8422 54.96 28.9799C54.96 30.1176 55.8823 31.0399 57.02 31.0399Z" fill="#F1F0EB"/>
<path d="M52.47 34.2H53.22C53.89 34.2 54.44 33.65 54.44 32.98V29.3C54.44 29.02 54.21 28.79 53.93 28.79C53.65 28.79 53.42 29.02 53.42 29.3V32.49C53.42 32.87 53.11 33.18 52.73 33.18H52.47C52.19 33.18 51.96 33.41 51.96 33.69C51.96 33.97 52.19 34.2 52.47 34.2Z" fill="#E0B1BB"/>
<path d="M47.96 29.0001C47.96 30.4501 49.14 31.6201 50.58 31.6201C52.02 31.6201 53.07 30.5501 53.18 29.2101H54.4C54.49 30.5801 55.62 31.6701 57.01 31.6701C58.4 31.6701 59.63 30.4901 59.63 29.0501C59.63 27.6001 58.45 26.4301 57.01 26.4301C55.82 26.4301 54.83 27.2301 54.51 28.3101H53.1C52.79 27.2001 51.79 26.3901 50.58 26.3901C49.13 26.3901 47.96 27.5701 47.96 29.0101V29.0001ZM55.42 29.0401C55.42 28.1601 56.13 27.4501 57.01 27.4501C57.89 27.4501 58.6 28.1601 58.6 29.0401C58.6 29.9201 57.89 30.6301 57.01 30.6301C56.13 30.6301 55.42 29.9201 55.42 29.0401ZM48.99 29.0001C48.99 28.1201 49.7 27.4101 50.58 27.4101C51.46 27.4101 52.17 28.1201 52.17 29.0001C52.17 29.8801 51.46 30.5901 50.58 30.5901C49.7 30.5901 48.99 29.8801 48.99 29.0001Z" fill="#898989"/>
<path d="M47.13 19.3201C47.732 19.3201 48.22 18.8321 48.22 18.2301C48.22 17.6281 47.732 17.1401 47.13 17.1401C46.528 17.1401 46.04 17.6281 46.04 18.2301C46.04 18.8321 46.528 19.3201 47.13 19.3201Z" fill="#D6952D"/>
<path d="M63.59 23.2401C64.192 23.2401 64.68 22.752 64.68 22.1501C64.68 21.5481 64.192 21.0601 63.59 21.0601C62.988 21.0601 62.5 21.5481 62.5 22.1501C62.5 22.752 62.988 23.2401 63.59 23.2401Z" fill="#D6952D"/>
<path d="M45.64 38.5002C46.1315 38.5002 46.53 38.1017 46.53 37.6102C46.53 37.1187 46.1315 36.7202 45.64 36.7202C45.1485 36.7202 44.75 37.1187 44.75 37.6102C44.75 38.1017 45.1485 38.5002 45.64 38.5002Z" fill="#D6952D"/>
<path d="M62.76 27.5002C63.2515 27.5002 63.65 27.1017 63.65 26.6102C63.65 26.1187 63.2515 25.7202 62.76 25.7202C62.2685 25.7202 61.87 26.1187 61.87 26.6102C61.87 27.1017 62.2685 27.5002 62.76 27.5002Z" fill="#D6952D"/>
<path d="M42.91 23.4601C43.1364 23.4601 43.32 23.2766 43.32 23.0501C43.32 22.8237 43.1364 22.6401 42.91 22.6401C42.6836 22.6401 42.5 22.8237 42.5 23.0501C42.5 23.2766 42.6836 23.4601 42.91 23.4601Z" fill="#D6952D"/>
<path d="M63.77 32.3102C63.9964 32.3102 64.18 32.1267 64.18 31.9002C64.18 31.6738 63.9964 31.4902 63.77 31.4902C63.5435 31.4902 63.36 31.6738 63.36 31.9002C63.36 32.1267 63.5435 32.3102 63.77 32.3102Z" fill="#D6952D"/>
<path d="M40.05 30.83C40.2157 30.83 40.35 30.6957 40.35 30.53C40.35 30.3643 40.2157 30.23 40.05 30.23C39.8843 30.23 39.75 30.3643 39.75 30.53C39.75 30.6957 39.8843 30.83 40.05 30.83Z" fill="#D6952D"/>
<path d="M66.44 28.6898C66.6057 28.6898 66.74 28.5555 66.74 28.3898C66.74 28.2242 66.6057 28.0898 66.44 28.0898C66.2743 28.0898 66.14 28.2242 66.14 28.3898C66.14 28.5555 66.2743 28.6898 66.44 28.6898Z" fill="#D6952D"/>
<path d="M40.2299 26.6098C40.5227 26.6098 40.7599 26.3725 40.7599 26.0798C40.7599 25.7871 40.5227 25.5498 40.2299 25.5498C39.9372 25.5498 39.7 25.7871 39.7 26.0798C39.7 26.3725 39.9372 26.6098 40.2299 26.6098Z" fill="#D6952D"/>
<path d="M62.54 12.44C61.68 13.6 61.39 15 61.65 16.25C62.92 16.13 64.17 15.46 65.04 14.29C65.91 13.12 66.19 11.73 65.93 10.48C64.66 10.6 63.41 11.27 62.54 12.44Z" fill="#2D963A"/>
<path d="M64.4 13.5598C63.05 14.0898 62.07 15.1198 61.62 16.3098C62.75 16.8798 64.18 16.9798 65.53 16.4498C66.88 15.9198 67.86 14.8898 68.31 13.6998C67.18 13.1298 65.75 13.0298 64.4 13.5598Z" fill="#3EB750"/>
<path d="M39.43 63.21H67.67C68.91 63.21 69.92 64.22 69.92 65.46V86.45H37.17V65.46C37.17 64.22 38.18 63.21 39.42 63.21H39.43Z" fill="#F7F7F7"/>
<path d="M53.81 78.0402C55.3122 78.0402 56.53 76.8358 56.53 75.3502C56.53 73.8645 55.3122 72.6602 53.81 72.6602C52.3078 72.6602 51.09 73.8645 51.09 75.3502C51.09 76.8358 52.3078 78.0402 53.81 78.0402Z" fill="#CED5D8"/>
<path d="M53.55 53.7599C52.85 54.6999 52.62 55.8399 52.83 56.8499C53.86 56.7599 54.88 56.2099 55.58 55.2599C56.28 54.3099 56.51 53.1799 56.3 52.1699C55.27 52.2599 54.25 52.8099 53.55 53.7599Z" fill="#2D963A"/>
<path d="M55.0701 54.6701C53.9801 55.1001 53.1801 55.9301 52.8101 56.9001C53.7301 57.3701 54.8901 57.4401 55.9801 57.0201C57.0701 56.6001 57.8701 55.7601 58.2401 54.7901C57.3201 54.3201 56.1601 54.2501 55.0701 54.6701Z" fill="#3EB750"/>
<path d="M147.53 57.17L132.04 38.54C131.78 39.16 131.34 39.69 130.78 40.05L145.86 58.2C146.29 57.71 146.87 57.35 147.52 57.18L147.53 57.17Z" fill="#455767"/>
<path d="M125.69 37.3001C125.69 37.2201 125.69 37.1401 125.7 37.0601L109.85 44.1801L109.3 43.6401C109.1 43.4401 108.81 43.3601 108.54 43.4401L98.66 46.0601C98.07 46.2201 97.88 46.9401 98.31 47.3701L108.17 57.1401C108.6 57.5701 109.33 57.3701 109.49 56.7901L112.14 47.0001C112.21 46.7301 112.14 46.4401 111.94 46.2401L111.33 45.6401L126.17 38.9801C125.88 38.4901 125.71 37.9201 125.71 37.3201L125.69 37.3001Z" fill="#455767"/>
<path d="M147.29 63.4199L143.77 88.1799L145.69 88.4499L149.24 63.4699C148.96 63.5499 148.66 63.5999 148.35 63.5999C147.98 63.5999 147.62 63.5399 147.29 63.4199Z" fill="#455767"/>
<path d="M131.12 37.2999C131.12 36.1299 130.16 35.1899 128.99 35.1899C128.11 35.1899 127.36 35.7199 127.03 36.4599C126.92 36.7199 126.85 36.9999 126.85 37.2999C126.85 37.7399 126.99 38.1499 127.22 38.4799C127.6 39.0399 128.25 39.4099 128.99 39.4099C129.37 39.4099 129.73 39.3099 130.04 39.1399C130.66 38.7999 131.08 38.1599 131.12 37.4199C131.12 37.3799 131.12 37.3399 131.12 37.2999Z" fill="#455767"/>
<path d="M148.4 58.21C148.4 58.21 148.37 58.21 148.35 58.21C147.64 58.21 147.01 58.56 146.62 59.09C146.37 59.44 146.22 59.86 146.22 60.32C146.22 61.17 146.73 61.9 147.46 62.24C147.73 62.36 148.03 62.44 148.35 62.44C148.74 62.44 149.11 62.33 149.43 62.15C150.06 61.78 150.48 61.11 150.48 60.33C150.48 59.18 149.55 58.25 148.4 58.22V58.21Z" fill="#455767"/>
<path style="mix-blend-mode:darken" d="M97.4499 91.6999L108.16 57.1299L98.2999 47.3599L27.8199 93.0299L97.4499 91.6999Z" fill="url(#paint0_linear_85_1150)"/>
<path d="M145.09 92.3598C149.453 92.3598 152.99 90.7794 152.99 88.8298C152.99 86.8802 149.453 85.2998 145.09 85.2998C140.727 85.2998 137.19 86.8802 137.19 88.8298C137.19 90.7794 140.727 92.3598 145.09 92.3598Z" fill="#455767"/>
<rect x="118" y="5" width="38" height="16" rx="4" fill="#1C1C1C"/>
<path d="M122.781 17V9.92969H125.301C126.946 9.92969 127.752 10.916 127.752 12.2246C127.752 13.5283 126.941 14.5195 125.301 14.5195H123.855V17H122.781ZM123.855 13.6016H125.193C126.233 13.6064 126.668 13.0205 126.668 12.2246C126.668 11.4238 126.233 10.8525 125.193 10.8477H123.855V13.6016ZM130.975 17.1074C129.471 17.1074 128.489 16.0137 128.494 14.373C128.489 12.7227 129.471 11.6289 130.975 11.6289C132.469 11.6289 133.445 12.7227 133.445 14.373C133.445 16.0137 132.469 17.1074 130.975 17.1074ZM129.539 14.373C129.539 15.3838 130.003 16.2383 130.975 16.2383C131.932 16.2383 132.391 15.3838 132.391 14.373C132.391 13.3574 131.932 12.4932 130.975 12.4883C130.003 12.4932 129.539 13.3574 129.539 14.373ZM136.951 11.6973V12.5273H135.867V15.4375C135.872 16.0381 136.165 16.1455 136.502 16.1504C136.653 16.1504 136.883 16.1357 137.029 16.1211V17.0293C136.888 17.0488 136.663 17.0684 136.375 17.0684C135.56 17.0684 134.822 16.6191 134.832 15.6523V12.5273H134.051V11.6973H134.832V10.4277H135.867V11.6973H136.951ZM137.723 15.5059C137.718 14.2949 138.748 13.9824 139.705 13.9141C140.057 13.8945 140.853 13.8506 141.097 13.8408L141.092 13.416C141.097 12.8154 140.726 12.4688 140.018 12.4688C139.402 12.4688 139.031 12.752 138.924 13.1426H137.889C137.981 12.2637 138.802 11.6289 140.057 11.6289C140.901 11.6289 142.132 11.9365 142.137 13.4746V17H141.121V16.2773H141.082C140.877 16.6729 140.389 17.1172 139.51 17.1172C138.504 17.1172 137.718 16.541 137.723 15.5059ZM138.738 15.5156C138.738 16.0234 139.158 16.2822 139.744 16.2871C140.594 16.2822 141.102 15.7158 141.102 15.0859L141.097 14.6025C140.857 14.6172 140.101 14.6709 139.852 14.6855C139.168 14.7344 138.738 14.9932 138.738 15.5156ZM145.877 11.6973V12.5273H144.793V15.4375C144.798 16.0381 145.091 16.1455 145.428 16.1504C145.579 16.1504 145.809 16.1357 145.955 16.1211V17.0293C145.813 17.0488 145.589 17.0684 145.301 17.0684C144.485 17.0684 143.748 16.6191 143.758 15.6523V12.5273H142.977V11.6973H143.758V10.4277H144.793V11.6973H145.877ZM149.08 17.1074C147.576 17.1074 146.595 16.0137 146.6 14.373C146.595 12.7227 147.576 11.6289 149.08 11.6289C150.574 11.6289 151.551 12.7227 151.551 14.373C151.551 16.0137 150.574 17.1074 149.08 17.1074ZM147.645 14.373C147.645 15.3838 148.108 16.2383 149.08 16.2383C150.037 16.2383 150.496 15.3838 150.496 14.373C150.496 13.3574 150.037 12.4932 149.08 12.4883C148.108 12.4932 147.645 13.3574 147.645 14.373Z" fill="white"/>
</g>
<defs>
<linearGradient id="paint0_linear_85_1150" x1="71.9899" y1="76.1899" x2="89.4999" y2="45.9299" gradientUnits="userSpaceOnUse">
<stop stop-color="white"/>
<stop offset="1" stop-color="#FFC552"/>
</linearGradient>
<clipPath id="clip0_85_1150">
<rect width="160" height="100" fill="white"/>
</clipPath>
</defs>
</svg>
