<svg width="160" height="100" viewBox="0 0 160 100" fill="none" xmlns="http://www.w3.org/2000/svg">
<g clip-path="url(#clip0_14_1388)">
<path d="M159.38 0.610107H0.619995V99.3801H159.38V0.610107Z" fill="#FFDB92"/>
<path d="M160 100H0V0H160V100ZM1.24 98.78H158.76V1.22H1.24V98.77V98.78Z" fill="#EFD9B4"/>
<path d="M159.38 0.610107H0.619995V41.9601H159.38V0.610107Z" fill="white"/>
<path d="M160 42.58H0V0H160V42.58ZM1.24 41.35H158.76V1.22H1.24V41.35Z" fill="white"/>
<path d="M159.38 43.5701H0.619995V48.1301H159.38V43.5701Z" fill="#B2AEA6"/>
<path d="M160 48.74H0V42.96H160V48.74ZM1.24 47.52H158.76V44.18H1.24V47.52Z" fill="#B2AEA6"/>
<path d="M78.04 26.76V9.97997C78.04 8.44997 76.79 7.21997 75.25 7.21997H48.06C46.52 7.21997 45.27 8.45997 45.27 9.97997V26.56C45.27 27.35 45.6 28.11 46.18 28.65L54.4 36.33C55.05 36.94 55.91 37.28 56.81 37.28H86.85C87.82 37.28 88.25 36.08 87.5 35.47L78.86 28.46C78.34 28.04 78.04 27.42 78.04 26.75V26.76Z" fill="#455767"/>
<path d="M75.0399 10.05H47.8199V25.75H75.0399V10.05Z" fill="#3888BA"/>
<path d="M61.47 12.4099H50.86V13.5399H61.47V12.4099Z" fill="#A0D1EA"/>
<path d="M64.6799 16.3799H54.0699V17.5099H64.6799V16.3799Z" fill="#A0D1EA"/>
<path d="M61.78 20.0601H51.17V21.1901H61.78V20.0601Z" fill="#A0D1EA"/>
<path d="M77.44 30.9199H54.78L53.41 29.9099H76.07L77.44 30.9199Z" fill="#506575"/>
<path d="M80.28 34.1301H57.63L56.26 33.1201H78.91L80.28 34.1301Z" fill="#506575"/>
<path d="M99.93 6.08008H83.59V20.7101C83.59 23.5801 85.91 25.9001 88.78 25.9001H90.43C91.23 25.9001 91.89 26.5501 91.89 27.3601V28.8001C91.89 30.6201 93.84 31.7801 95.44 30.9101L99.61 28.6501L99.94 6.09008L99.93 6.08008Z" fill="#FADDDC"/>
<path d="M84.67 21.3901L83.72 21.1201C82.87 20.8801 82.37 20.0001 82.61 19.1401L83.92 14.4901C84.02 14.1301 84.39 13.9301 84.74 14.0301C85.09 14.1301 85.3 14.5001 85.2 14.8501L84.07 18.8801C83.93 19.3601 84.22 19.8601 84.7 20.0001L85.03 20.0901C85.39 20.1901 85.59 20.5601 85.49 20.9101C85.39 21.2601 85.02 21.4701 84.67 21.3701V21.3901Z" fill="#E0B1BB"/>
<path d="M86.96 14.43C86.96 14.91 87.35 15.31 87.84 15.31C88.33 15.31 88.72 14.92 88.72 14.43C88.72 13.95 88.33 13.55 87.84 13.55C87.35 13.55 86.96 13.94 86.96 14.43Z" fill="#757570"/>
<path d="M95.9901 19.3999H97.09C97.6202 19.3999 98.05 18.9701 98.05 18.4399V14.0499C98.05 13.5197 97.6202 13.0899 97.09 13.0899H95.9901C95.4599 13.0899 95.03 13.5197 95.03 14.0499V18.4399C95.03 18.9701 95.4599 19.3999 95.9901 19.3999Z" fill="#FADDDC"/>
<path d="M95.99 12.3601L96.02 16.5401C96.02 16.8901 96.31 17.1701 96.65 17.1701C97 17.1701 97.28 16.8901 97.28 16.5401V14.9401C97.28 14.3401 97.77 13.8501 98.37 13.8501C98.97 13.8501 99.46 14.3401 99.46 14.9401V20.2201L101.02 11.8001C101.02 11.8001 101.5 7.59006 98.49 6.39006C95.48 5.19006 95.97 12.3601 95.97 12.3601H95.99Z" fill="#3E2967"/>
<path d="M101.02 12.3199L101.23 11.0399L101.13 11.0199C101.22 6.4499 97.94 2.3999 93.3 1.6599L91.82 1.4199C87.18 0.679898 82.7999 3.5099 81.4599 7.8799L76.66 7.1099C76.05 7.0099 75.4799 7.4299 75.3899 8.0299C75.2999 8.6299 75.7099 9.2099 76.3099 9.2999L100.88 13.2299L101.03 12.3199H101.02Z" fill="#A4B2D3"/>
<path d="M114.13 32.9999C113.79 32.3999 113.3 31.9399 112.74 31.6199C110.96 29.9499 108.56 28.9299 105.91 28.9299H84.71C82.01 28.9299 79.54 29.8799 77.6 31.4499C76.9 31.7599 76.29 32.2899 75.88 32.9999C75.83 33.0899 75.68 33.3599 75.45 33.7899C74.8 34.7399 74.3 35.7999 73.97 36.9399C70.94 44.0399 66.11 43.2899 73.44 58.8799C73.44 58.8799 116.58 58.8499 116.58 58.8399C126.26 38.1999 114.64 33.8999 114.12 32.9999H114.13Z" fill="#4D6059"/>
<path d="M111.83 81.0701H79.12C75.09 81.0701 71.68 78.1201 71.14 74.1601L67.64 48.3901C66.99 43.6101 70.75 39.3601 75.62 39.3601H114.64C119.43 39.3601 123.16 43.4701 122.64 48.1801L119.84 73.9501C119.4 78.0001 115.95 81.0701 111.84 81.0701H111.83Z" fill="#E5E5E5"/>
<path d="M114.64 46.7101C114.71 46.7101 114.92 46.7101 115.11 46.9201C115.3 47.1301 115.27 47.3301 115.27 47.4001L112.47 73.1701C112.44 73.4901 112.17 73.7201 111.85 73.7201H79.14C78.83 73.7201 78.56 73.4901 78.52 73.1801L75.02 47.4101C75.02 47.3401 74.98 47.1301 75.17 46.9201C75.36 46.7101 75.57 46.7101 75.64 46.7101H114.66M114.66 39.3601H75.64C70.77 39.3601 67.01 43.6101 67.66 48.3901L71.16 74.1601C71.7 78.1101 75.11 81.0701 79.14 81.0701H111.85C115.96 81.0701 119.41 78.0001 119.85 73.9501L122.65 48.1801C123.16 43.4701 119.43 39.3601 114.65 39.3601H114.66Z" fill="#F7F7F7"/>
<rect x="124.615" y="4.19507" width="31" height="16" rx="4" fill="#1C1C1C"/>
<path d="M129.573 16.1951V9.12476H132.093C133.738 9.12476 134.544 10.0378 134.544 11.3416C134.544 12.2937 134.114 13.0115 133.255 13.3386L134.818 16.1951H133.597L132.161 13.5291H132.093H130.648V16.1951H129.573ZM130.648 12.6013H131.985C133.026 12.5964 133.46 12.1375 133.46 11.3416C133.46 10.5457 133.026 10.0476 131.985 10.0427H130.648V12.6013ZM136.292 18.1873C136.077 18.1824 135.867 18.1775 135.735 18.158V17.2888C135.853 17.2986 136.058 17.3035 136.204 17.3083C136.526 17.3035 136.795 17.2839 137.044 16.615L137.171 16.2634L135.228 10.8923H136.341L137.679 15.0037H137.737L139.075 10.8923H140.198L138.011 16.8982C137.703 17.738 137.166 18.1824 136.292 18.1873ZM140.638 14.7009C140.633 13.49 141.663 13.1775 142.62 13.1091C142.972 13.0896 143.768 13.0457 144.012 13.0359L144.007 12.6111C144.012 12.0105 143.641 11.6638 142.933 11.6638C142.318 11.6638 141.946 11.947 141.839 12.3376H140.804C140.897 11.4587 141.717 10.824 142.972 10.824C143.817 10.824 145.047 11.1316 145.052 12.6697V16.1951H144.036V15.4724H143.997C143.792 15.8679 143.304 16.3123 142.425 16.3123C141.419 16.3123 140.633 15.7361 140.638 14.7009ZM141.653 14.7107C141.653 15.2185 142.073 15.4773 142.659 15.4822C143.509 15.4773 144.017 14.9109 144.017 14.281L144.012 13.7976C143.773 13.8123 143.016 13.866 142.767 13.8806C142.083 13.9294 141.653 14.1882 141.653 14.7107ZM147.357 13.0505V16.1951H146.312V10.8923H147.318V11.7615H147.376C147.625 11.1902 148.148 10.824 148.939 10.824C150.027 10.824 150.75 11.5125 150.745 12.8259V16.1951H149.71V12.9529C149.705 12.1814 149.29 11.7224 148.587 11.7224C147.869 11.7224 147.357 12.2058 147.357 13.0505Z" fill="white"/>
</g>
<defs>
<clipPath id="clip0_14_1388">
<rect width="160" height="100" fill="white"/>
</clipPath>
</defs>
</svg>
