<svg width="160" height="100" viewBox="0 0 160 100" fill="none" xmlns="http://www.w3.org/2000/svg">
<g clip-path="url(#clip0_14_1931)">
<path d="M159.38 0.610107H0.620117V99.3801H159.38V0.610107Z" fill="#FFDB92"/>
<path d="M160 100H0V0H160V100ZM1.24 98.78H158.76V1.22H1.24V98.77V98.78Z" fill="#EFD9B4"/>
<path d="M159.38 0.610107H0.620117V41.9601H159.38V0.610107Z" fill="white"/>
<path d="M160 42.58H0V0H160V42.58ZM1.24 41.35H158.76V1.22H1.24V41.35Z" fill="white"/>
<path d="M159.38 43.5701H0.620117V48.1301H159.38V43.5701Z" fill="#B2AEA6"/>
<path d="M160 48.74H0V42.96H160V48.74ZM1.24 47.52H158.76V44.18H1.24V47.52Z" fill="#B2AEA6"/>
<path d="M80.8 24.4799V7.69994C80.8 6.16994 79.55 4.93994 78.01 4.93994H50.82C49.28 4.93994 48.03 6.17994 48.03 7.69994V24.2799C48.03 25.0699 48.36 25.8299 48.94 26.3699L57.16 34.0499C57.81 34.6599 58.67 34.9999 59.57 34.9999H89.61C90.58 34.9999 91.01 33.7999 90.26 33.1899L81.62 26.1799C81.1 25.7599 80.8 25.1399 80.8 24.4699V24.4799Z" fill="#455767"/>
<path d="M77.8001 7.76001H50.5801V23.46H77.8001V7.76001Z" fill="#3888BA"/>
<path d="M64.2399 10.1299H53.6299V11.2599H64.2399V10.1299Z" fill="#A0D1EA"/>
<path d="M67.4401 14.0901H56.8301V15.2201H67.4401V14.0901Z" fill="#A0D1EA"/>
<path d="M64.5399 17.77H53.9299V18.9H64.5399V17.77Z" fill="#A0D1EA"/>
<path d="M80.1999 28.6399H57.5499L56.1799 27.6299H78.8299L80.1999 28.6399Z" fill="#506575"/>
<path d="M83.04 31.8501H60.39L59.02 30.8401H81.67L83.04 31.8501Z" fill="#506575"/>
<path d="M102.61 11.73H87.27V25.45C87.27 28.14 89.45 30.32 92.14 30.32H93.69C94.45 30.32 95.06 30.93 95.06 31.69V33.04C95.06 34.75 96.89 35.84 98.39 35.02L102.3 32.9L102.61 11.73Z" fill="#FADDDC"/>
<path d="M88.29 26.0999L87.4 25.8499C86.6 25.6299 86.1299 24.7899 86.3599 23.9899L87.5899 19.6299C87.6799 19.2999 88.03 19.0999 88.36 19.1999C88.6899 19.2999 88.89 19.6399 88.79 19.9699L87.73 23.7499C87.6 24.1999 87.8699 24.6699 88.3199 24.7999L88.6299 24.8899C88.9599 24.9799 89.1599 25.3299 89.0599 25.6599C88.9599 25.9899 88.62 26.1899 88.29 26.0899V26.0999Z" fill="#E0B1BB"/>
<path d="M99.2299 9.1099H97.8199C96.9099 9.1099 96.0299 8.5999 95.6699 7.7399C95.1399 6.4799 93.9099 5.5899 92.4799 5.5899C92.1599 5.5899 91.8499 5.6399 91.5599 5.7199C90.5599 4.3499 88.8499 3.5399 86.9799 3.8799C85.1499 4.2099 83.6699 5.69991 83.2999 7.54991C83.1299 8.39991 83.1899 9.2099 83.4199 9.9499C83.7999 11.8799 85.4799 13.3299 87.4799 13.3299H93.7599C95.4899 13.3299 96.1099 15.0799 96.1099 16.1599L96.1699 19.5299C96.1699 21.2099 96.6199 23.5399 100.73 22.8799L102.24 25.5299C102.7 25.6099 103.47 26.0899 103.86 24.4199V17.0099V14.5699C103.86 12.7399 103.66 9.1099 99.2099 9.1099H99.2299Z" fill="#3E2967"/>
<path d="M90.4399 19.56C90.4399 20.02 90.8099 20.38 91.2599 20.38C91.7099 20.38 92.0799 20.01 92.0799 19.56C92.0799 19.1 91.7099 18.74 91.2599 18.74C90.8099 18.74 90.4399 19.11 90.4399 19.56Z" fill="#757570"/>
<path d="M98.87 24.29H99.79C100.32 24.29 100.75 23.8602 100.75 23.33V19.33C100.75 18.7998 100.32 18.37 99.79 18.37H98.87C98.3398 18.37 97.91 18.7998 97.91 19.33V23.33C97.91 23.8602 98.3398 24.29 98.87 24.29Z" fill="#FADDDC"/>
<path d="M116.89 36.02C116.55 35.42 116.06 34.9599 115.5 34.6399C113.72 32.9699 111.32 31.95 108.67 31.95H87.4699C84.7699 31.95 82.2999 32.9 80.3599 34.47C79.6599 34.78 79.0499 35.31 78.6399 36.02C78.5899 36.11 78.4399 36.38 78.2099 36.81C77.5599 37.76 77.0599 38.8199 76.7299 39.9599C73.6999 47.0599 68.8699 46.31 76.1999 61.9C76.1999 61.9 119.34 61.87 119.34 61.86C129.02 41.22 117.4 36.92 116.88 36.02H116.89Z" fill="#FCC31E"/>
<path d="M114.6 84.0801H81.8899C77.8599 84.0801 74.4499 81.1301 73.9099 77.1701L70.4099 51.4001C69.7599 46.6201 73.5199 42.3701 78.3899 42.3701H117.41C122.2 42.3701 125.93 46.4801 125.41 51.1901L122.61 76.9601C122.17 81.0101 118.72 84.0801 114.61 84.0801H114.6Z" fill="#E5E5E5"/>
<path d="M117.4 49.7299C117.47 49.7299 117.68 49.7299 117.87 49.9399C118.06 50.1499 118.03 50.3499 118.03 50.4199L115.23 76.1899C115.2 76.5099 114.93 76.7399 114.61 76.7399H81.8999C81.5899 76.7399 81.3199 76.5099 81.2799 76.1999L77.7799 50.4299C77.7799 50.3599 77.7399 50.1499 77.9299 49.9399C78.1199 49.7299 78.3299 49.7299 78.3999 49.7299H117.42M117.42 42.3799H78.3999C73.5299 42.3799 69.7699 46.6299 70.4199 51.4099L73.9199 77.1799C74.4599 81.1299 77.8699 84.0899 81.8999 84.0899H114.61C118.72 84.0899 122.17 81.0199 122.61 76.9699L125.41 51.1999C125.92 46.4899 122.19 42.3799 117.41 42.3799H117.42Z" fill="#F7F7F7"/>
<rect x="127" y="4" width="29" height="16" rx="4" fill="#1C1C1C"/>
<path d="M136.041 10.7949C135.973 10.1357 135.396 9.75977 134.586 9.75977C133.722 9.75977 133.175 10.2041 133.17 10.8047C133.17 11.4736 133.897 11.7373 134.459 11.8691L135.143 12.0547C136.046 12.2744 137.179 12.7676 137.184 14.0469C137.179 15.2432 136.227 16.1172 134.557 16.1172C132.975 16.1172 131.979 15.3262 131.91 14.0371H132.984C133.048 14.8086 133.731 15.1748 134.557 15.1797C135.46 15.1748 136.114 14.7207 136.119 14.0273C136.114 13.4121 135.528 13.1631 134.781 12.9629L133.941 12.7383C132.804 12.4258 132.101 11.8496 132.096 10.8633C132.101 9.64258 133.185 8.83203 134.615 8.83203C136.051 8.83203 137.052 9.65234 137.086 10.7949H136.041ZM138.004 14.5059C137.999 13.2949 139.029 12.9824 139.986 12.9141C140.338 12.8945 141.134 12.8506 141.378 12.8408L141.373 12.416C141.378 11.8154 141.007 11.4688 140.299 11.4688C139.684 11.4688 139.312 11.752 139.205 12.1426H138.17C138.263 11.2637 139.083 10.6289 140.338 10.6289C141.183 10.6289 142.413 10.9365 142.418 12.4746V16H141.402V15.2773H141.363C141.158 15.6729 140.67 16.1172 139.791 16.1172C138.785 16.1172 137.999 15.541 138.004 14.5059ZM139.02 14.5156C139.02 15.0234 139.439 15.2822 140.025 15.2871C140.875 15.2822 141.383 14.7158 141.383 14.0859L141.378 13.6025C141.139 13.6172 140.382 13.6709 140.133 13.6855C139.449 13.7344 139.02 13.9932 139.02 14.5156ZM143.678 16V10.6973H144.684V11.5664H144.742C144.967 10.9756 145.489 10.6289 146.188 10.6289C146.896 10.6289 147.389 10.9756 147.613 11.5664H147.672C147.921 10.9951 148.497 10.6289 149.264 10.6289C150.221 10.6289 150.899 11.2295 150.904 12.4453V16H149.859V12.543C149.859 11.8252 149.41 11.5273 148.863 11.5273C148.194 11.5273 147.809 11.9863 147.809 12.6211V16H146.773V12.4844C146.773 11.9033 146.378 11.5273 145.807 11.5273C145.221 11.5273 144.723 12.0156 144.723 12.7285V16H143.678Z" fill="white"/>
</g>
<defs>
<clipPath id="clip0_14_1931">
<rect width="160" height="100" fill="white"/>
</clipPath>
</defs>
</svg>
