<svg width="160" height="100" viewBox="0 0 160 100" fill="none" xmlns="http://www.w3.org/2000/svg">
<g clip-path="url(#clip0_14_1613)">
<path d="M159.38 0.610107H0.620117V99.3801H159.38V0.610107Z" fill="#FFDB92"/>
<path d="M160 100H0V0H160V100ZM1.24 98.78H158.76V1.22H1.24V98.77V98.78Z" fill="#EFD9B4"/>
<path d="M159.38 0.610107H0.620117V41.9601H159.38V0.610107Z" fill="white"/>
<path d="M160 42.58H0V0H160V42.58ZM1.24 41.35H158.76V1.22H1.24V41.35Z" fill="white"/>
<path d="M159.38 43.5701H0.620117V48.1301H159.38V43.5701Z" fill="#B2AEA6"/>
<path d="M160 48.74H0V42.96H160V48.74ZM1.24 47.52H158.76V44.18H1.24V47.52Z" fill="#B2AEA6"/>
<path d="M80.8 23.8901V7.1101C80.8 5.5801 79.55 4.3501 78.01 4.3501H50.82C49.28 4.3501 48.03 5.5901 48.03 7.1101V23.6901C48.03 24.4801 48.36 25.2401 48.94 25.7801L57.16 33.4601C57.81 34.0701 58.67 34.4101 59.57 34.4101H89.61C90.58 34.4101 91.01 33.2101 90.26 32.6001L81.62 25.5901C81.1 25.1701 80.8 24.5501 80.8 23.8801V23.8901Z" fill="#455767"/>
<path d="M77.8001 7.17993H50.5801V22.8799H77.8001V7.17993Z" fill="#3888BA"/>
<path d="M64.2399 9.54004H53.6299V10.67H64.2399V9.54004Z" fill="#A0D1EA"/>
<path d="M67.4401 13.5H56.8301V14.63H67.4401V13.5Z" fill="#A0D1EA"/>
<path d="M64.5399 17.1799H53.9299V18.3099H64.5399V17.1799Z" fill="#A0D1EA"/>
<path d="M80.1999 28.05H57.5499L56.1799 27.04H78.8299L80.1999 28.05Z" fill="#506575"/>
<path d="M83.04 31.26H60.39L59.02 30.25H81.67L83.04 31.26Z" fill="#506575"/>
<path d="M116.89 30.1301C116.55 29.5301 116.06 29.0701 115.5 28.7501C113.72 27.0801 111.32 26.0601 108.67 26.0601H87.4699C84.7699 26.0601 82.2999 27.0101 80.3599 28.5801C79.6599 28.8901 79.0499 29.4201 78.6399 30.1301C78.5899 30.2201 78.4399 30.4901 78.2099 30.9201C77.5599 31.8701 77.0599 32.9301 76.7299 34.0701C73.6999 41.1701 68.8699 40.4201 76.1999 56.0101C76.1999 56.0101 119.34 55.9801 119.34 55.9701C129.02 35.3301 117.4 31.0301 116.88 30.1301H116.89Z" fill="#5280DD"/>
<path d="M90.74 7.41992V18.4799C90.74 20.5099 91.98 22.2399 93.74 22.9999C94.33 23.2499 94.71 23.8399 94.71 24.4699V26.0199H100.75V24.4699C100.75 23.8299 101.13 23.2499 101.72 22.9999C103.49 22.2499 104.72 20.5099 104.72 18.4799V7.41992H90.73H90.74Z" fill="#FADDDC"/>
<path d="M114.6 78.19H81.8899C77.8599 78.19 74.4499 75.24 73.9099 71.28L70.4099 45.51C69.7599 40.73 73.5199 36.48 78.3899 36.48H117.41C122.2 36.48 125.93 40.59 125.41 45.3L122.61 71.07C122.17 75.12 118.72 78.19 114.61 78.19H114.6Z" fill="#E5E5E5"/>
<path d="M117.4 43.84C117.47 43.84 117.68 43.84 117.87 44.05C118.06 44.26 118.03 44.46 118.03 44.53L115.23 70.3C115.2 70.62 114.93 70.85 114.61 70.85H81.8999C81.5899 70.85 81.3199 70.62 81.2799 70.31L77.7799 44.54C77.7799 44.47 77.7399 44.26 77.9299 44.05C78.1199 43.84 78.3299 43.84 78.3999 43.84H117.42M117.42 36.49H78.3999C73.5299 36.49 69.7699 40.74 70.4199 45.52L73.9199 71.29C74.4599 75.24 77.8699 78.2 81.8999 78.2H114.61C118.72 78.2 122.17 75.13 122.61 71.08L125.41 45.31C125.92 40.6 122.19 36.49 117.41 36.49H117.42Z" fill="#F7F7F7"/>
<path d="M104.27 33.9199H91.4599C89.2099 33.9199 87.4199 32.0199 87.5599 29.7699L88.7599 10.7399C89.0599 5.92994 93.0499 2.18994 97.8599 2.18994C102.68 2.18994 106.66 5.92994 106.96 10.7399L108.16 29.7699C108.3 32.0199 106.52 33.9199 104.26 33.9199H104.27Z" fill="#3E2967"/>
<rect x="124.615" y="4.19507" width="31" height="16" rx="4" fill="#1C1C1C"/>
<path d="M128.997 9.12476H130.218L132.054 12.3279H132.132L133.978 9.12476H135.198L132.63 13.4216V16.1951H131.556V13.4216L128.997 9.12476ZM137.376 16.3025C135.872 16.3025 134.891 15.2087 134.896 13.5681C134.891 11.9177 135.872 10.824 137.376 10.824C138.87 10.824 139.847 11.9177 139.847 13.5681C139.847 15.2087 138.87 16.3025 137.376 16.3025ZM135.94 13.5681C135.94 14.5789 136.404 15.4333 137.376 15.4333C138.333 15.4333 138.792 14.5789 138.792 13.5681C138.792 12.5525 138.333 11.6882 137.376 11.6833C136.404 11.6882 135.94 12.5525 135.94 13.5681ZM141.917 13.0505V16.1951H140.872V9.12476H141.897V11.7615H141.966C142.215 11.1853 142.713 10.824 143.538 10.824C144.627 10.824 145.354 11.4978 145.354 12.8259V16.1951H144.31V12.9529C144.31 12.1716 143.89 11.7224 143.187 11.7224C142.449 11.7224 141.917 12.2058 141.917 13.0505ZM146.37 14.7009C146.365 13.49 147.396 13.1775 148.353 13.1091C148.704 13.0896 149.5 13.0457 149.744 13.0359L149.739 12.6111C149.744 12.0105 149.373 11.6638 148.665 11.6638C148.05 11.6638 147.679 11.947 147.571 12.3376H146.536C146.629 11.4587 147.449 10.824 148.704 10.824C149.549 10.824 150.779 11.1316 150.784 12.6697V16.1951H149.769V15.4724H149.729C149.524 15.8679 149.036 16.3123 148.157 16.3123C147.151 16.3123 146.365 15.7361 146.37 14.7009ZM147.386 14.7107C147.386 15.2185 147.806 15.4773 148.392 15.4822C149.241 15.4773 149.749 14.9109 149.749 14.281L149.744 13.7976C149.505 13.8123 148.748 13.866 148.499 13.8806C147.815 13.9294 147.386 14.1882 147.386 14.7107Z" fill="white"/>
</g>
<defs>
<clipPath id="clip0_14_1613">
<rect width="160" height="100" fill="white"/>
</clipPath>
</defs>
</svg>
