<svg width="160" height="100" viewBox="0 0 160 100" fill="none" xmlns="http://www.w3.org/2000/svg">
<g clip-path="url(#clip0_14_336)">
<path d="M159.381 0.612549H0.618774V99.3877H159.381V0.612549Z" fill="#FFDB92"/>
<path d="M160 100H0V0H160V100ZM1.23753 98.7751H158.762V1.22489H1.23753V98.7751Z" fill="#EFD9B4"/>
<path d="M159.381 0.612549H0.618774V41.9648H159.381V0.612549Z" fill="white"/>
<path d="M160 42.5772H0V0H160V42.5772ZM1.23753 41.3523H158.762V1.22489H1.23753V41.3523Z" fill="white"/>
<path d="M159.381 43.5693H0.618774V48.1259H159.381V43.5693Z" fill="#B2AEA6"/>
<path d="M160 48.7383H0V42.9568H160V48.7383ZM1.23753 47.5134H158.762V44.1817H1.23753V47.5134Z" fill="#B2AEA6"/>
<path d="M80.7983 23.8853V7.1166C80.7983 5.58549 79.5484 4.3606 78.0138 4.3606H50.8253C49.2784 4.3606 48.0409 5.59773 48.0409 7.1166V23.6894C48.0409 24.4855 48.375 25.2327 48.9567 25.7839L57.1739 33.464C57.8297 34.0764 58.6836 34.4071 59.5747 34.4071H89.6095C90.5747 34.4071 91.0079 33.2068 90.2654 32.5943L81.6274 25.5879C81.1076 25.1715 80.8106 24.5468 80.8106 23.8853H80.7983Z" fill="#455767"/>
<path d="M77.791 7.17773H50.5778V22.8808H77.791V7.17773Z" fill="#3888BA"/>
<path d="M64.2277 9.54199H53.6221V10.6689H64.2277V9.54199Z" fill="#A0D1EA"/>
<path d="M67.4329 13.4983H56.8273V14.6252H67.4329V13.4983Z" fill="#A0D1EA"/>
<path d="M64.5371 17.1853H53.9315V18.3122H64.5371V17.1853Z" fill="#A0D1EA"/>
<path d="M80.1918 28.0499H57.545L56.1714 27.0332H78.8305L80.1918 28.0499Z" fill="#506575"/>
<path d="M83.0381 31.2591H60.3914L59.0177 30.2424H81.6645L83.0381 31.2591Z" fill="#506575"/>
<path d="M116.885 30.1323C116.538 29.5322 116.055 29.0789 115.499 28.7482C113.716 27.0824 111.316 26.0535 108.667 26.0535H87.4685C84.7707 26.0535 82.2956 26.9966 80.3651 28.5767C79.6597 28.8952 79.0533 29.4097 78.6449 30.1201C78.5954 30.2058 78.4469 30.4753 78.2118 30.9163C77.5559 31.8717 77.0609 32.9251 76.7391 34.0642C73.7072 41.1564 68.8808 40.4092 76.207 56.002C76.207 56.002 119.347 55.9775 119.347 55.9653C129.025 35.3259 117.404 31.0265 116.885 30.1201V30.1323Z" fill="#F4B2C4"/>
<path d="M90.7356 7.42285V18.4836C90.7356 20.5047 91.9731 22.244 93.7428 23.0035C94.3368 23.2607 94.7204 23.8364 94.7204 24.4733V26.0167H100.76V24.4733C100.76 23.8364 101.143 23.2484 101.737 23.0035C103.507 22.244 104.744 20.5047 104.744 18.4836V7.42285H90.7603H90.7356Z" fill="#FADDDC"/>
<path d="M96.0941 1.0656C93.421 1.0656 88.1863 4.33606 88.1863 11.0975C88.1863 13.9637 88.2977 18.0426 91.8617 20.9088C94.0398 22.6604 95.5867 24.51 97.7647 24.4365C101.217 24.3263 102.888 20.9333 104.447 19.3655C106.143 17.6506 107.69 14.3067 105.895 8.45169C103.556 0.845123 98.433 1.0656 96.0941 1.0656Z" fill="#3E2967"/>
<path d="M114.595 78.1848H81.8872C77.8528 78.1848 74.4497 75.2328 73.9051 71.2764L70.4029 45.5047C69.747 40.7277 73.5091 36.4773 78.385 36.4773H117.404C122.193 36.4773 125.918 40.5929 125.411 45.2965L122.614 71.0682C122.169 75.1103 118.728 78.1848 114.607 78.1848H114.595Z" fill="#E5E5E5"/>
<path d="M117.392 43.8388C117.466 43.8388 117.676 43.8388 117.862 44.0471C118.048 44.2553 118.023 44.4635 118.023 44.5248L115.226 70.2965C115.189 70.6149 114.929 70.8477 114.607 70.8477H81.8996C81.5902 70.8477 81.3179 70.6149 81.2808 70.3087L77.7786 44.537C77.7786 44.4635 77.7415 44.2553 77.9271 44.0471C78.1127 43.8388 78.3231 43.8388 78.3973 43.8388H117.417M117.417 36.4895H78.3973C73.5215 36.4895 69.7718 40.7399 70.4153 45.5169L73.9175 71.2886C74.4496 75.245 77.8652 78.197 81.8996 78.197H114.607C118.716 78.197 122.169 75.1348 122.614 71.0804L125.411 45.3087C125.918 40.5929 122.193 36.4895 117.404 36.4895H117.417Z" fill="#F7F7F7"/>
<rect x="121.615" y="4.19507" width="34" height="16" rx="4" fill="#1C1C1C"/>
<path d="M128.718 16.1951H126.423V9.12476H128.786C130.871 9.12476 132.111 10.448 132.116 12.6501C132.111 14.8572 130.871 16.1951 128.718 16.1951ZM127.497 15.2576H128.659C130.261 15.2527 131.052 14.3201 131.052 12.6501C131.052 10.9851 130.261 10.0623 128.718 10.0623H127.497V15.2576ZM132.995 14.7009C132.99 13.49 134.021 13.1775 134.978 13.1091C135.329 13.0896 136.125 13.0457 136.369 13.0359L136.364 12.6111C136.369 12.0105 135.998 11.6638 135.29 11.6638C134.675 11.6638 134.304 11.947 134.196 12.3376H133.161C133.254 11.4587 134.074 10.824 135.329 10.824C136.174 10.824 137.404 11.1316 137.409 12.6697V16.1951H136.394V15.4724H136.355C136.15 15.8679 135.661 16.3123 134.782 16.3123C133.776 16.3123 132.99 15.7361 132.995 14.7009ZM134.011 14.7107C134.011 15.2185 134.431 15.4773 135.017 15.4822C135.866 15.4773 136.374 14.9109 136.374 14.281L136.369 13.7976C136.13 13.8123 135.373 13.866 135.124 13.8806C134.441 13.9294 134.011 14.1882 134.011 14.7107ZM143.025 10.8923L141.101 16.1951H139.978L138.054 10.8923H139.177L140.515 14.9646H140.564L141.901 10.8923H143.025ZM143.874 16.1951V10.8923H144.919V16.1951H143.874ZM143.737 9.45679C143.742 9.11499 144.04 8.84155 144.401 8.84155C144.758 8.84155 145.056 9.11499 145.056 9.45679C145.056 9.79858 144.758 10.0769 144.401 10.072C144.04 10.0769 143.742 9.79858 143.737 9.45679ZM148.171 16.3025C146.892 16.2976 145.954 15.2673 145.954 13.5583C145.954 11.8298 146.906 10.824 148.181 10.824C149.167 10.824 149.524 11.4197 149.714 11.7517H149.763V9.12476H150.808V16.1951H149.792V15.365H149.714C149.519 15.7117 149.138 16.2976 148.171 16.3025ZM147.019 13.5388C147.014 14.6033 147.492 15.4089 148.405 15.4138C149.294 15.4089 149.792 14.6521 149.792 13.5388C149.792 12.4353 149.304 11.7078 148.405 11.7126C147.483 11.7078 147.014 12.4939 147.019 13.5388Z" fill="white"/>
</g>
<defs>
<clipPath id="clip0_14_336">
<rect width="160" height="100" fill="white"/>
</clipPath>
</defs>
</svg>
