<svg
    width="160"
    height="100"
    viewBox="0 0 160 100"
    fill="none"
    xmlns="http://www.w3.org/2000/svg"
>
    <g clip-path="url(#clip0_14_287)">
        <path
            d="M160 100H0V0H160V100ZM1.23753 98.7751H158.762V1.22489H1.23753V98.7751Z"
            fill="#EFD9B4"
        />
        <path d="M159.381 0.612549H0.618774V41.9648H159.381V0.612549Z" fill="white" />
        <path
            d="M160 42.5772H0V0H160V42.5772ZM1.23753 41.3523H158.762V1.22489H1.23753V41.3523Z"
            fill="white"
        />
        <path d="M159.381 43.5693H0.618774V48.1259H159.381V43.5693Z" fill="#B2AEA6" />
        <path
            d="M160 48.7383H0V42.9568H160V48.7383ZM1.23753 47.5134H158.762V44.1817H1.23753V47.5134Z"
            fill="#B2AEA6"
        />
        <path
            d="M96.7004 71.9255H63.9925C59.9582 71.9255 56.555 68.9735 56.0105 65.0171L52.5083 39.2455C51.8524 34.4684 55.6145 30.218 60.4903 30.218H99.5096C104.299 30.218 108.024 34.3336 107.516 39.0372L104.72 64.8089C104.274 68.851 100.834 71.9255 96.7128 71.9255H96.7004Z"
            fill="#E5E5E5"
        />
        <path
            d="M99.5097 37.5796C99.5839 37.5796 99.7943 37.5796 99.9799 37.7878C100.166 37.996 100.141 38.2043 100.141 38.2655L97.344 64.0372C97.3069 64.3557 97.047 64.5884 96.7252 64.5884H64.0174C63.708 64.5884 63.4357 64.3557 63.3986 64.0494L59.8964 38.2778C59.8964 38.2043 59.8593 37.996 60.0449 37.7878C60.2305 37.5796 60.4409 37.5796 60.5152 37.5796H99.5344M99.5344 30.2302H60.5152C55.6393 30.2302 51.8896 34.4806 52.5331 39.2577L56.0353 65.0293C56.5674 68.9857 59.983 71.9377 64.0174 71.9377H96.7252C100.834 71.9377 104.287 68.8755 104.732 64.8211L107.529 39.0494C108.036 34.3336 104.311 30.2302 99.522 30.2302H99.5344Z"
            fill="#F7F7F7"
        />
    </g>
    <defs>
        <clipPath id="clip0_14_287">
            <rect width="160" height="100" fill="white" />
        </clipPath>
    </defs>
</svg>
