<svg width="77" height="227" viewBox="0 0 77 227" fill="none" xmlns="http://www.w3.org/2000/svg">
<path d="M25.3583 105.427C20.5585 88.3513 13.1676 82.8293 13.0826 82.7868L15.5463 79.3037C15.8861 79.5586 24.169 85.5478 29.4361 104.28L25.3583 105.427Z" fill="#50D866"/>
<path d="M41.5844 104.025L37.5067 102.878C42.7738 84.1885 51.0566 78.1568 51.3965 77.9019L53.8601 81.385C53.8601 81.385 46.4267 86.9495 41.5844 104.025Z" fill="#50D866"/>
<path d="M35.0431 103.091L30.9653 101.944C35.9351 84.316 34.1936 54.4125 34.1511 54.1151L38.3988 53.8603C38.4837 55.0921 40.2253 84.7408 35.0431 103.091Z" fill="#50D866"/>
<path d="M31.0078 100.415C8.53767 37.2945 19.9214 14.2722 20.3886 13.3377L24.1691 15.2916C24.0416 15.504 13.3375 38.0166 35.0005 99.013L31.0078 100.415Z" fill="#50D866"/>
<path d="M35.5526 100.33C32.7067 62.2705 60.4015 41.0322 61.5908 40.1402L64.1394 43.5383C63.8845 43.7507 37.1243 64.3519 39.8003 99.9897L35.5526 100.33Z" fill="#50D866"/>
<path d="M10.789 82.3621C16.7477 82.3621 21.5781 77.5317 21.5781 71.573C21.5781 65.6144 16.7477 60.784 10.789 60.784C4.8304 60.784 0 65.6144 0 71.573C0 77.5317 4.8304 82.3621 10.789 82.3621Z" fill="#FF6075"/>
<path d="M66.0509 43.7933C72.0096 43.7933 76.84 38.9629 76.84 33.0042C76.84 27.0456 72.0096 22.2152 66.0509 22.2152C60.0923 22.2152 55.2618 27.0456 55.2618 33.0042C55.2618 38.9629 60.0923 43.7933 66.0509 43.7933Z" fill="#FF8645"/>
<path d="M34.3635 54.9221C40.3221 54.9221 45.1525 50.0917 45.1525 44.1331C45.1525 38.1745 40.3221 33.344 34.3635 33.344C28.4049 33.344 23.5745 38.1745 23.5745 44.1331C23.5745 50.0917 28.4049 54.9221 34.3635 54.9221Z" fill="#FFACFF"/>
<path d="M20.3038 21.5781C26.2625 21.5781 31.0928 16.7477 31.0928 10.7891C31.0928 4.83043 26.2625 0 20.3038 0C14.3452 0 9.51472 4.83043 9.51472 10.7891C9.51472 16.7477 14.3452 21.5781 20.3038 21.5781Z" fill="#FF6075"/>
<path d="M50.6321 226.995H24.5939C15.5464 226.995 8.75016 218.754 10.4492 209.877L20.6436 156.696C22.81 145.355 22.725 133.716 20.3888 122.417L15.5039 98.9279H59.6371L54.7524 122.417C52.4161 133.716 52.3312 145.355 54.4975 156.696L64.6919 209.877C66.3909 218.754 59.5947 226.995 50.5471 226.995H50.6321Z" fill="white"/>
</svg>
