<svg width="165" height="81" viewBox="0 0 165 81" fill="none" xmlns="http://www.w3.org/2000/svg">
<g clip-path="url(#clip0_1237_5942)">
<path d="M97.817 9.33366L94.1797 4.22043C93.3714 3.24649 92.159 2.67835 90.8658 2.51603L65.4857 0.324642C62.495 0.0811556 59.8277 2.02905 59.1811 4.95089L55.1396 22.482L54.0889 31.1663C54.0889 31.1663 55.0588 33.3577 56.1096 33.6824C57.1603 34.007 89.1684 36.523 89.8958 36.6042C90.6233 36.6854 92.4823 37.6593 93.6947 33.6824C94.6647 30.4359 97.0895 17.4499 98.6253 12.6613C99.0294 11.525 98.6253 10.2264 97.8978 9.33366H97.817Z" fill="#2978A6"/>
<path d="M62.01 -1.16462e-06L90.9466 2.51603C91.9973 2.59719 92.644 3.6523 92.3207 4.62625L86.6627 22.7255C86.1777 24.4299 84.5611 25.485 82.7829 25.3226L57.2412 22.7255C56.1096 22.6443 55.3013 21.508 55.5438 20.3717L59.9893 1.54208C60.2318 0.568135 61.1209 -0.0811635 62.0909 -1.16462e-06H62.01Z" fill="#39A2DB"/>
<path d="M78.5798 14.6092C78.5798 14.6092 78.014 14.1222 77.6099 13.9599C77.2057 13.7976 76.8016 13.5541 76.3166 13.3918C75.8316 13.2295 75.3467 13.0671 74.9425 12.9048C74.2959 12.6613 73.6493 12.499 73.0026 12.1743C72.356 11.9309 71.7902 11.6062 71.2244 11.3627C70.6586 11.0381 70.2545 10.7134 69.9312 10.3888C69.6079 10.0641 69.527 9.65832 69.527 9.2525C69.527 8.84669 69.8503 8.52204 70.2545 8.27856C70.6586 8.03507 71.1436 7.79158 71.7902 7.71042C72.4369 7.62926 73.0835 7.5481 73.8109 7.5481C74.5384 7.5481 75.2658 7.5481 75.9933 7.71042C76.8016 7.87274 77.6099 8.03507 78.3373 8.27856C79.0648 8.52204 79.7114 8.84669 80.2772 9.17134C80.843 9.49599 81.2471 9.9018 81.5705 10.3076C81.8938 10.7134 81.9746 11.1192 81.9746 11.6062L79.5497 11.2004C79.5497 11.2004 79.4689 10.6323 79.2264 10.3888C79.0648 10.1453 78.8223 9.9018 78.499 9.65832C78.1757 9.41483 77.8523 9.2525 77.3674 9.09018C76.9632 8.92786 76.3974 8.84669 75.8316 8.68437C75.3467 8.68437 74.9425 8.60321 74.4576 8.60321C74.0534 8.60321 73.6493 8.60321 73.2451 8.68437C72.9218 8.68437 72.5985 8.84669 72.356 9.00902C72.1135 9.17134 71.9519 9.41483 71.9519 9.65832C71.9519 9.9018 71.9519 10.1453 72.2752 10.3888C72.5177 10.6323 72.841 10.7946 73.2451 11.0381C73.6493 11.2004 74.0534 11.4439 74.5384 11.6062C75.0234 11.7685 75.4275 11.9309 75.8316 12.012C76.4783 12.2555 77.2057 12.499 77.8523 12.7425C78.499 12.986 79.1456 13.3106 79.6306 13.6353C80.1964 13.9599 80.6005 14.2846 80.843 14.6904C81.1663 15.0962 81.2471 15.502 81.1663 15.9078C81.1663 16.3136 80.843 16.6383 80.4389 16.9629C80.0347 17.2064 79.4689 17.4499 78.9031 17.5311C78.2565 17.6122 77.6099 17.6934 76.8016 17.6934C76.0741 17.6934 75.2658 17.6934 74.5384 17.5311C73.6493 17.3687 72.7602 17.2064 71.9519 16.8818C71.1436 16.6383 70.4161 16.2325 69.8503 15.9078C69.2845 15.5832 68.8804 15.1774 68.6379 14.8527C68.3954 14.4469 68.2338 14.0411 68.3146 13.6353L70.7395 14.0411C70.7395 14.0411 70.9011 14.6092 71.0628 14.9339C71.3053 15.1774 71.5477 15.4208 71.8711 15.6643C72.1944 15.9078 72.5985 16.0701 73.0835 16.2325C73.5684 16.3948 74.0534 16.476 74.7 16.6383C75.185 16.6383 75.5892 16.7194 76.0741 16.8006C76.5591 16.8006 76.9632 16.8006 77.2866 16.7194C77.6907 16.7194 77.9332 16.5571 78.2565 16.3948C78.499 16.2325 78.6606 16.0701 78.6606 15.7455C78.6606 15.4208 78.6606 15.1774 78.4181 14.9339L78.5798 14.6092Z" fill="black"/>
<path d="M112.851 17.9369C113.659 17.2064 114.71 16.8818 115.761 16.9629L159.893 20.7775C161.429 20.9399 165.47 23.5371 164.985 29.2996L163.692 44.5581C163.53 46.5872 162.965 49.1844 157.387 48.6974C151.81 48.2104 119.236 45.2886 115.276 44.9639C111.315 44.6393 108.486 43.2595 108.81 39.6884L110.345 21.5892C110.345 20.6964 110.83 19.8848 111.477 19.3166L112.932 18.018L112.851 17.9369Z" fill="#12684D"/>
<path d="M113.013 19.3978C113.013 19.3978 114.387 17.6934 116.407 17.6934C118.428 17.6934 159.004 21.3457 159.974 21.4269C160.944 21.508 162.075 22.7255 162.641 23.9429C163.045 24.7545 162.075 32.7896 161.51 36.7665C161.348 38.2275 160.055 39.2014 158.6 39.1202C149.224 38.4709 116.731 35.4679 114.468 35.3056C111.8 35.0621 111.396 32.9519 111.719 30.9228C112.043 28.8938 112.932 19.479 112.932 19.479L113.013 19.3978Z" fill="#0F9266"/>
<path d="M125.945 27.7575L125.784 29.9489L128.774 30.1924V30.8417L124.975 30.517L125.46 24.3487L129.178 24.6733V25.3226L126.188 25.0792L126.026 27.0271L128.613 27.2705V27.9198L126.026 27.6764L125.945 27.7575Z" fill="black"/>
<path d="M130.391 26.3777H131.118V27.1082C131.118 27.027 131.28 26.9459 131.361 26.8647C131.442 26.8647 131.522 26.7024 131.603 26.7024C131.765 26.7024 131.927 26.5401 132.088 26.5401C132.25 26.5401 132.411 26.5401 132.573 26.5401C132.816 26.5401 133.058 26.5401 133.22 26.7024C133.381 26.8647 133.543 26.9459 133.705 27.027C133.866 27.1894 133.947 27.3517 133.947 27.5952C133.947 27.8387 133.947 28.0822 133.947 28.4068L133.705 31.3286H132.896L133.139 28.4068C133.139 28.1633 133.139 28.001 133.139 27.9198C133.139 27.7575 133.058 27.6763 132.977 27.5952C132.896 27.514 132.816 27.4329 132.654 27.3517C132.492 27.2705 132.411 27.2705 132.25 27.2705C132.088 27.2705 132.007 27.2705 131.846 27.2705C131.684 27.2705 131.603 27.2705 131.522 27.4329C131.442 27.4329 131.361 27.514 131.28 27.5952C131.28 27.5952 131.118 27.7575 131.037 27.8387L130.795 31.0852H129.987L130.391 26.4589V26.3777Z" fill="black"/>
<path d="M137.423 26.9459L139.12 27.1082V27.6764L137.342 27.514L137.1 30.0301C137.1 30.0301 137.1 30.3547 137.1 30.4359C137.1 30.517 137.18 30.6794 137.261 30.7605C137.261 30.7605 137.423 30.9229 137.504 30.9229C137.584 30.9229 137.746 30.9229 137.827 30.9229C137.908 30.9229 137.989 30.9229 138.069 30.9229C138.15 30.9229 138.231 30.9229 138.312 30.9229C138.393 30.9229 138.474 30.9229 138.554 30.9229C138.635 30.9229 138.716 30.9229 138.716 30.9229V31.491C138.716 31.491 138.635 31.491 138.554 31.5722C138.474 31.6533 138.393 31.5722 138.231 31.5722C138.15 31.5722 137.989 31.5722 137.908 31.5722C137.746 31.5722 137.665 31.5722 137.504 31.5722C137.261 31.5722 137.1 31.5722 136.938 31.4098C136.776 31.4098 136.615 31.2475 136.534 31.0852C136.453 30.9229 136.291 30.7605 136.291 30.5982C136.291 30.3547 136.291 30.1112 136.291 29.8677L136.534 27.3517H135.321V26.6213H136.534L136.615 25.6473H137.423L137.342 26.7836L137.423 26.9459Z" fill="black"/>
<path d="M141.464 31.8156C141.464 31.8156 140.979 31.491 140.818 31.3287C140.656 31.0852 140.494 30.8417 140.413 30.5982C140.333 30.3547 140.333 30.0301 140.333 29.7054V29.5431C140.333 29.5431 140.494 28.8126 140.575 28.5692C140.737 28.3257 140.898 28.0822 141.141 27.8387C141.383 27.6764 141.545 27.514 141.868 27.4329C142.111 27.3517 142.353 27.3517 142.677 27.3517C143 27.3517 143.323 27.4329 143.485 27.5952C143.727 27.7575 143.889 27.9199 144.051 28.0822C144.212 28.3257 144.293 28.5692 144.374 28.8126C144.374 29.0561 144.374 29.3808 144.374 29.7054V30.0301L141.141 29.7866C141.141 29.7866 141.141 30.2736 141.222 30.4359C141.222 30.5982 141.383 30.7605 141.464 30.9229C141.545 31.0852 141.707 31.1663 141.868 31.2475C142.03 31.3287 142.192 31.4098 142.434 31.4098C142.677 31.4098 143 31.4098 143.162 31.3287C143.323 31.2475 143.566 31.0852 143.727 30.9229L144.132 31.3287C144.132 31.3287 143.727 31.7345 143.404 31.8968C143.081 32.0591 142.677 32.1403 142.273 32.0591C141.949 32.0591 141.626 31.978 141.383 31.8156H141.464ZM142.111 28.001C142.111 28.001 141.868 28.0822 141.707 28.2445C141.545 28.3257 141.464 28.488 141.383 28.6503C141.303 28.8126 141.222 28.975 141.141 29.2184L143.566 29.4619C143.566 29.4619 143.566 29.1373 143.566 28.975C143.566 28.8126 143.485 28.6503 143.404 28.5692C143.323 28.4068 143.242 28.3257 143.081 28.2445C142.919 28.1633 142.757 28.0822 142.596 28.0822C142.434 28.0822 142.273 28.0822 142.111 28.0822V28.001Z" fill="black"/>
<path d="M149.305 27.9198C149.305 27.9198 149.547 27.9198 149.628 28.001L149.466 28.7315C149.466 28.7315 149.143 28.6503 149.062 28.6503C148.9 28.6503 148.82 28.6503 148.658 28.6503C148.496 28.6503 148.335 28.6503 148.173 28.6503C148.011 28.6503 147.85 28.7315 147.769 28.8126C147.688 28.8126 147.526 28.975 147.446 29.0561C147.365 29.1373 147.284 29.2996 147.203 29.3808L146.961 32.3026H146.152L146.556 27.6764H147.284V28.3257C147.284 28.3257 147.688 28.001 148.011 27.9198C148.254 27.8387 148.577 27.7575 148.9 27.7575C149.062 27.7575 149.224 27.7575 149.305 27.7575V27.9198Z" fill="black"/>
<path d="M32.4268 47.6423C29.517 48.1292 8.33999 50.8076 7.28922 52.025C6.23845 53.2425 -0.146983 57.8687 0.0146741 59.0862C0.176331 60.3036 7.28922 75.3998 8.33999 78.0781C9.39076 80.7565 13.1089 81.8928 20.3834 80.1884C27.658 78.484 41.6413 75.7244 41.6413 75.7244L32.4268 47.7234V47.6423Z" fill="#AA251F"/>
<path d="M32.1035 47.6423C32.1035 47.6423 15.1296 50.6453 11.5731 51.2134C8.0167 51.7816 6.64262 53.3236 7.4509 55.9208C8.25919 58.518 11.5731 65.2545 12.1389 67.2836C12.7047 69.3126 14.0788 72.7214 18.6052 71.991C23.1316 71.2605 34.2859 67.8517 36.5491 67.2836C38.8123 66.7154 36.5491 61.4399 36.5491 61.4399L32.1035 47.5611V47.6423Z" fill="#E23B28"/>
</g>
<defs>
<clipPath id="clip0_1237_5942">
<rect width="165" height="81" fill="white"/>
</clipPath>
</defs>
</svg>
