<svg width="287" height="221" viewBox="0 0 287 221" fill="none" xmlns="http://www.w3.org/2000/svg">
<path d="M189.927 217.734L152.672 101.259L106.002 77.6506L0 213.026L189.927 217.734Z" fill="url(#paint0_linear_1237_5625)"/>
<path d="M265.315 80.2049L208.792 12.1886C207.844 14.4509 206.238 16.3849 204.195 17.6985L259.221 83.9268C260.79 82.1388 262.906 80.8252 265.278 80.2049H265.315Z" fill="white"/>
<path d="M186.169 11.1669C186.06 10.875 185.987 10.6196 185.914 10.3276L140.448 54.5163L137.893 53.3487C136.945 52.9108 135.85 53.0203 135.011 53.6041L104.396 74.9504C102.572 76.2275 102.827 78.9642 104.834 79.8765L150.811 101.077C152.818 101.989 155.08 100.42 154.898 98.2306L151.759 61.3398C151.686 60.3181 151.03 59.4424 150.117 59.0045L147.271 57.6909L189.818 16.3119C188.212 14.9983 186.899 13.2833 186.132 11.2034L186.169 11.1669Z" fill="white"/>
<path d="M264.439 103.011L251.594 193.359L258.6 194.344L271.554 103.193C270.532 103.485 269.438 103.668 268.307 103.668C266.957 103.668 265.643 103.449 264.439 103.011Z" fill="white"/>
<path d="M205.435 7.70043C205.435 3.43116 201.932 0.00115967 197.663 0.00115967C194.452 0.00115967 191.715 1.9351 190.511 4.63532C190.11 5.58404 189.854 6.60574 189.854 7.70043C189.854 9.30596 190.365 10.802 191.205 12.0062C192.591 14.0496 194.963 15.3997 197.663 15.3997C199.05 15.3997 200.363 15.0348 201.495 14.4145C203.757 13.1738 205.29 10.8385 205.435 8.1383C205.435 7.99234 205.435 7.84638 205.435 7.70043Z" fill="white"/>
<path d="M268.489 84.0363C268.489 84.0363 268.38 84.0363 268.307 84.0363C265.716 84.0363 263.417 85.3134 261.994 87.2474C261.082 88.5245 260.534 90.057 260.534 91.7355C260.534 94.8371 262.395 97.5009 265.059 98.7415C266.044 99.1794 267.139 99.4713 268.307 99.4713C269.73 99.4713 271.08 99.0699 272.248 98.4131C274.546 97.063 276.079 94.6182 276.079 91.772C276.079 87.5758 272.685 84.1822 268.489 84.0728V84.0363Z" fill="white"/>
<path d="M256.411 208.648C272.332 208.648 285.238 202.881 285.238 195.767C285.238 188.653 272.332 182.886 256.411 182.886C240.491 182.886 227.584 188.653 227.584 195.767C227.584 202.881 240.491 208.648 256.411 208.648Z" fill="white"/>
<defs>
<linearGradient id="paint0_linear_1237_5625" x1="94.7265" y1="232.658" x2="97.3538" y2="52.181" gradientUnits="userSpaceOnUse">
<stop offset="0.18" stop-color="#FFC800" stop-opacity="0"/>
<stop offset="0.72" stop-color="#FFAE00"/>
</linearGradient>
</defs>
</svg>
