<svg width="104" height="91" viewBox="0 0 104 91" fill="none" xmlns="http://www.w3.org/2000/svg">
<g clip-path="url(#clip0_1237_5650)">
<path d="M85.6596 75.4644L6.92549 38.7495L4.87553 43.1455L83.6096 79.8605L85.6596 75.4644Z" fill="#DC2E26"/>
<path d="M56.0704 65.6053L33.2751 54.9755L29.8892 62.2364L52.6845 72.8662L56.0704 65.6053Z" fill="#DA2B26"/>
<path d="M40.5364 42.7566L20.927 33.6124L16.4355 43.2443L36.0449 52.3885L40.5364 42.7566Z" fill="#85B842"/>
<path d="M16.6216 43.361L6.84157 38.8005L21.1822 33.581L16.6216 43.361Z" fill="#09871A"/>
<path d="M31.3837 38.3983L21.6037 33.8377L35.9327 28.643L31.3837 38.3983Z" fill="#1993CE"/>
<path d="M45.4922 33.1608L35.7368 28.6117L50.0527 23.3808L45.4922 33.1608Z" fill="#1993CE"/>
<path d="M59.9382 28.2311L50.1829 23.6821L64.4988 18.4511L59.9382 28.2311Z" fill="#1993CE"/>
<path d="M60.1605 28.3348L69.9158 32.8838L64.7211 18.5547L60.1605 28.3348Z" fill="#582B8B"/>
<path d="M65.2086 42.2046L74.9639 46.7536L69.7691 32.4246L65.2086 42.2046Z" fill="#1993CE"/>
<path d="M70.0148 56.593L79.7701 61.1421L74.5754 46.813L70.0148 56.593Z" fill="#1993CE"/>
<path d="M75.3182 70.8826L85.0982 75.4431L79.8788 61.1025L75.3182 70.8826Z" fill="#09871A"/>
<path d="M59.9977 51.8317L40.3883 42.6875L35.8968 52.3193L55.5062 61.4635L59.9977 51.8317Z" fill="#1993CE"/>
<path d="M79.8047 61.068L60.1953 51.9238L55.7038 61.5557L75.3132 70.6999L79.8047 61.068Z" fill="#85B842"/>
<path d="M55.3726 37.8284L36.0102 28.7994L31.5187 38.4312L50.8812 47.4602L55.3726 37.8284Z" fill="#582B8B"/>
<path d="M69.5964 32.795L50.0857 23.6969L45.5943 33.3287L65.1049 42.4269L69.5964 32.795Z" fill="#FDDC53"/>
<path d="M74.6363 46.8114L55.2738 37.7823L50.7824 47.4142L70.1448 56.4432L74.6363 46.8114Z" fill="#582B8B"/>
<path d="M52.7421 72.7427L29.9468 62.1129L27.9083 66.4843L50.7037 77.1141L52.7421 72.7427Z" fill="#15445B"/>
<path d="M10.255 53.0807C12.0146 53.9012 14.1061 53.1399 14.9266 51.3804C15.7471 49.6209 14.9859 47.5293 13.2263 46.7088C11.4668 45.8884 9.37527 46.6496 8.55478 48.4091C7.73428 50.1687 8.49552 52.2602 10.255 53.0807Z" fill="#F28D02"/>
<path d="M20.2326 57.7334C21.9922 58.5539 24.0837 57.7926 24.9042 56.0331C25.7247 54.2736 24.9635 52.1821 23.2039 51.3616C21.4444 50.5411 19.3529 51.3023 18.5324 53.0618C17.7119 54.8214 18.4731 56.9129 20.2326 57.7334Z" fill="#F28D02"/>
<path d="M61.5014 76.9777C63.2609 77.7982 65.3524 77.0369 66.1729 75.2774C66.9934 73.5178 66.2322 71.4263 64.4726 70.6058C62.7131 69.7853 60.6216 70.5466 59.8011 72.3061C58.9806 74.0656 59.7418 76.1572 61.5014 76.9777Z" fill="#F28D02"/>
<path d="M71.479 81.6304C73.2385 82.4509 75.33 81.6896 76.1505 79.9301C76.971 78.1706 76.2098 76.079 74.4502 75.2585C72.6907 74.438 70.5992 75.1993 69.7787 76.9588C68.9582 78.7183 69.7194 80.8099 71.479 81.6304Z" fill="#F28D02"/>
</g>
<defs>
<clipPath id="clip0_1237_5650">
<rect width="86.9555" height="59" fill="white" transform="translate(24.9348) rotate(25.0004)"/>
</clipPath>
</defs>
</svg>
