<svg width="100" height="40" viewBox="0 0 100 40" fill="none" xmlns="http://www.w3.org/2000/svg">
<rect x="1" y="1" width="98" height="38" rx="19" stroke="white" stroke-width="2"/>
<path d="M31.6719 17.9219C31.5781 17.0234 30.8672 16.5 29.7188 16.5C28.5312 16.5 27.8672 17.0469 27.8594 17.7969C27.8516 18.6172 28.6953 18.9844 29.6719 19.2031L30.6875 19.4531C32.625 19.8984 34.0703 20.8828 34.0781 22.7656C34.0703 24.8359 32.4609 26.1641 29.7031 26.1562C26.9688 26.1641 25.2266 24.8984 25.1562 22.4688H27.4375C27.5156 23.6094 28.4219 24.1875 29.6719 24.1875C30.9062 24.1875 31.7031 23.6094 31.7031 22.7656C31.7031 21.9922 31 21.6328 29.7656 21.3281L28.5312 21.0312C26.625 20.5625 25.4531 19.6094 25.4531 17.9531C25.4453 15.8984 27.2578 14.5312 29.7344 14.5312C32.2422 14.5312 33.8906 15.9219 33.9219 17.9219H31.6719ZM35.1719 16.625V14.6875H44.4375V16.625H40.9688V26H38.6406V16.625H35.1719ZM46.3906 26H43.8594L47.7812 14.6875H50.7969L54.7031 26H52.1875L51.3359 23.3906H47.2422L46.3906 26ZM47.8359 21.5625H50.7422L49.3281 17.2344H49.25L47.8359 21.5625ZM55.9844 26V14.6875H60.4219C62.9922 14.6875 64.4688 16.1328 64.4688 18.375C64.4688 19.9219 63.7578 21.0469 62.4688 21.6016L64.875 26H62.2812L60.1172 21.9844H58.3281V26H55.9844ZM58.3281 20.0781H59.9844C61.375 20.0781 62.0547 19.5078 62.0469 18.375C62.0547 17.2344 61.375 16.6172 59.9844 16.6094H58.3281V20.0781ZM65.6562 16.625V14.6875H74.9219V16.625H71.4531V26H69.125V16.625H65.6562Z" fill="white"/>
</svg>
