<svg width="156" height="172" viewBox="0 0 156 172" fill="none" xmlns="http://www.w3.org/2000/svg">
<g clip-path="url(#clip0_137_1718)">
<path d="M133.398 123.295C131.149 119.67 127.004 117.953 123.051 118.622L134.378 111.545C139.157 108.562 140.618 102.256 137.645 97.461C136.024 94.8449 133.41 93.225 130.598 92.7751L134.903 90.0881C139.682 87.1056 141.143 80.7997 138.164 76.0044C135.191 71.2092 128.907 69.7436 124.127 72.7262L114.409 78.7942C115.107 76.1587 114.774 73.2597 113.223 70.7656C110.251 65.9704 103.966 64.5048 99.1866 67.4874L65.8916 88.2883C70.4403 83.4738 71.3884 76.0302 67.7303 70.1357C66.1286 67.5516 62.7396 66.761 60.1641 68.368L34.3136 84.5151C34.3136 84.5151 0.24347 109.661 14.4404 143.678C27.8558 175.831 59.8566 178.203 88.2826 162.782C89.4165 162.544 90.5313 162.114 91.5691 161.465L130.13 137.379C134.91 134.396 136.37 128.09 133.391 123.295H133.398ZM59.8374 117.214L59.2864 116.507L60.0872 116.006C59.9847 116.404 59.8951 116.803 59.8374 117.214Z" fill="#FFBF00"/>
<path d="M110.37 79.8864L73.8506 102.702C72.5681 103.504 72.1758 105.196 72.9744 106.483C73.7731 107.77 75.4601 108.163 76.7426 107.362L113.262 84.5463C114.544 83.745 114.936 82.0523 114.138 80.7655C113.339 79.4787 111.652 79.0851 110.37 79.8864Z" fill="#D9A600"/>
<path d="M125.996 92.6637L84.561 118.551C83.2785 119.352 82.8862 121.045 83.6848 122.332C84.4834 123.619 86.1705 124.012 87.453 123.211L128.888 97.3236C130.171 96.5223 130.563 94.8296 129.764 93.5428C128.966 92.256 127.279 91.8624 125.996 92.6637Z" fill="#D9A600"/>
<path d="M62.1595 87.2924L42.913 99.317C41.6305 100.118 41.2382 101.811 42.0368 103.098C42.8354 104.385 44.5225 104.778 45.805 103.977L65.0515 91.9523C66.3341 91.151 66.7263 89.4583 65.9277 88.1715C65.1291 86.8847 63.4421 86.4911 62.1595 87.2924Z" fill="#D9A600"/>
<path d="M120.629 116.612L94.5568 132.901C93.2743 133.702 92.882 135.395 93.6806 136.682C94.4792 137.969 96.1663 138.362 97.4488 137.561L123.521 121.272C124.803 120.471 125.195 118.778 124.397 117.492C123.598 116.205 121.911 115.811 120.629 116.612Z" fill="#D9A600"/>
<path d="M119.483 98.8625C116.471 95.8414 112.051 95.1086 108.348 96.6577L117.785 87.1893C121.763 83.1975 121.763 76.7245 117.785 72.7327C115.613 70.5537 112.704 69.5702 109.86 69.7759L113.448 66.1762C117.426 62.1844 117.426 55.7114 113.448 51.7197C109.469 47.7279 103.018 47.7279 99.0392 51.7197L90.9477 59.8382C91.031 57.1127 90.0508 54.3616 87.9815 52.2853C84.003 48.2935 77.5516 48.2935 73.5731 52.2853L45.8391 80.1121C49.1833 74.3912 48.4209 66.9219 43.5327 62.0173C41.3865 59.8639 37.9077 59.8639 35.7615 62.0173L14.229 83.6217C14.229 83.6217 -13.2808 115.839 8.22607 145.748C28.5541 174.019 60.2602 169.056 84.4643 147.567C85.5149 147.079 86.5015 146.41 87.3728 145.536L119.495 113.306C123.474 109.314 123.474 102.841 119.495 98.8496L119.483 98.8625ZM46.4669 109.662L45.7686 109.096L46.4349 108.427C46.422 108.839 46.4285 109.25 46.4605 109.662H46.4669Z" fill="#FFE670"/>
<path d="M87.2508 61.8214L56.831 92.3429C55.7626 93.4148 55.7627 95.1526 56.831 96.2245C57.8993 97.2964 59.6314 97.2964 60.6997 96.2245L91.1195 65.703C92.1878 64.6311 92.1878 62.8933 91.1195 61.8214C90.0512 60.7495 88.3191 60.7495 87.2508 61.8214Z" fill="#EBB300"/>
<path d="M105.362 70.7232L70.8467 105.354C69.7784 106.425 69.7784 108.163 70.8467 109.235C71.915 110.307 73.6471 110.307 74.7154 109.235L109.231 74.6048C110.299 73.5329 110.299 71.7951 109.231 70.7232C108.162 69.6513 106.43 69.6513 105.362 70.7232Z" fill="#EBB300"/>
<path d="M41.9645 79.9966L25.9324 96.0824C24.8641 97.1543 24.8641 98.8921 25.9324 99.964C27.0007 101.036 28.7328 101.036 29.8011 99.964L45.8333 83.8783C46.9016 82.8064 46.9016 81.0685 45.8333 79.9966C44.7649 78.9248 43.0329 78.9248 41.9645 79.9966Z" fill="#EBB300"/>
<path d="M105.526 95.2677L83.8089 117.058C82.7406 118.13 82.7406 119.867 83.8089 120.939C84.8772 122.011 86.6093 122.011 87.6776 120.939L109.395 99.1493C110.463 98.0774 110.463 96.3396 109.395 95.2677C108.327 94.1958 106.595 94.1958 105.526 95.2677Z" fill="#EBB300"/>
<path d="M132.206 21.6808C133.039 19.995 132.352 17.951 130.672 17.1152C128.992 16.2795 126.955 16.9686 126.122 18.6544L117.07 36.9741C116.237 38.6599 116.924 40.7039 118.604 41.5397C120.284 42.3754 122.322 41.6863 123.154 40.0005L132.206 21.6808Z" fill="#AEADB2"/>
<path d="M152.973 46.1107C154.55 45.0928 155.006 42.9848 153.991 41.4024C152.977 39.8199 150.876 39.3623 149.299 40.3801L135.467 49.3065C133.89 50.3244 133.434 52.4324 134.448 54.0148C135.463 55.5973 137.564 56.055 139.141 55.0371L152.973 46.1107Z" fill="#AEADB2"/>
<path d="M155.001 23.7409C156.327 22.4104 156.327 20.2534 155.001 18.9229C153.675 17.5925 151.525 17.5925 150.199 18.9229L131.626 37.5585C130.3 38.889 130.3 41.0461 131.626 42.3765C132.952 43.707 135.102 43.707 136.428 42.3765L155.001 23.7409Z" fill="#AEADB2"/>
<path d="M45.9076 23.274C44.5001 22.0307 42.3546 22.1677 41.1154 23.5799C39.8762 24.9921 40.0127 27.1449 41.4203 28.3882L56.7164 41.8996C58.1239 43.1429 60.2695 43.0059 61.5087 41.5937C62.7478 40.1815 62.6113 38.0287 61.2038 36.7854L45.9076 23.274Z" fill="#AEADB2"/>
<path d="M74.7896 9.45482C74.2173 7.66305 72.3057 6.67604 70.5199 7.25028C68.7341 7.82452 67.7503 9.74256 68.3227 11.5343L73.3418 27.2477C73.9142 29.0395 75.8258 30.0265 77.6116 29.4522C79.3974 28.878 80.3811 26.96 79.8088 25.1682L74.7896 9.45482Z" fill="#AEADB2"/>
<path d="M53.7792 1.69961C52.841 0.0704719 50.7641 -0.487095 49.1404 0.454245C47.5167 1.39558 46.961 3.47937 47.8992 5.1085L61.0406 27.9278C61.9788 29.5569 64.0557 30.1145 65.6794 29.1731C67.3031 28.2318 67.8588 26.148 66.9206 24.5189L53.7792 1.69961Z" fill="#AEADB2"/>
</g>
<defs>
<clipPath id="clip0_137_1718">
<rect width="156" height="172" fill="white"/>
</clipPath>
</defs>
</svg>
