<svg width="382" height="410" viewBox="0 0 382 410" fill="none" xmlns="http://www.w3.org/2000/svg">
<g clip-path="url(#clip0_14_194)">
<rect width="382" height="410" rx="20" fill="#EEEEEE"/>
<rect width="382" height="64" fill="#455767"/>
<path d="M177.398 23.5625C180.539 23.5742 182.777 26.4336 182.789 30.9219C182.777 35.457 180.539 38.3164 177.398 38.3047C174.258 38.3164 172.02 35.457 172.031 30.9219C172.02 26.4336 174.258 23.5742 177.398 23.5625ZM174.164 30.9219C174.152 34.2617 175.488 36.3125 177.398 36.3125C179.344 36.3125 180.656 34.2617 180.656 30.9219C180.656 27.6289 179.344 25.5664 177.398 25.5547C175.488 25.5664 174.152 27.6289 174.164 30.9219ZM185.906 42.9922V21.9922H188.133V30.2188H191.508V32.0938H188.133V42.9922H185.906ZM194.906 41.1641C193.992 41.1523 193.23 40.4141 193.242 39.5C193.23 38.5859 193.992 37.8359 194.906 37.8359C195.809 37.8359 196.559 38.5859 196.57 39.5C196.559 40.4141 195.809 41.1523 194.906 41.1641ZM201.234 41.1641C200.32 41.1523 199.559 40.4141 199.57 39.5C199.559 38.5859 200.32 37.8359 201.234 37.8359C202.137 37.8359 202.887 38.5859 202.898 39.5C202.887 40.4141 202.137 41.1523 201.234 41.1641ZM207.562 41.1641C206.648 41.1523 205.887 40.4141 205.898 39.5C205.887 38.5859 206.648 37.8359 207.562 37.8359C208.465 37.8359 209.215 38.5859 209.227 39.5C209.215 40.4141 208.465 41.1523 207.562 41.1641Z" fill="white"/>
<rect x="136" y="104" width="110" height="110" rx="55" fill="#33477A"/>
<path d="M189.818 128L173.553 165.971C173.152 166.909 172.809 167.869 172.582 168.865C172.487 169.279 172.408 169.693 172.35 170.113C170.904 180.452 178.989 189.995 189.823 189.995C200.657 189.995 208.742 180.452 207.296 170.113C207.238 169.693 207.159 169.274 207.064 168.865C206.837 167.874 206.494 166.909 206.093 165.971L189.818 128Z" fill="#3EB6EF"/>
<path d="M109.323 265.266V266.602H102.96V267.973H107.513V271.664H98.3369V273.053H107.952V274.336H96.7021V270.451H105.86V269.256H96.6846V267.973H101.29V266.602H94.9619V265.266H109.323ZM96.8076 264.105V259.254H107.478V264.105H96.8076ZM98.4424 262.787H105.808V260.572H98.4424V262.787ZM115.651 259.869C118.139 259.86 119.932 261.398 119.94 263.613C119.932 265.828 118.139 267.366 115.651 267.375C113.173 267.366 111.354 265.828 111.362 263.613C111.354 261.398 113.173 259.86 115.651 259.869ZM110.606 269.748C113.472 269.748 117.444 269.722 120.89 269.221L121.013 270.434C117.453 271.119 113.63 271.137 110.817 271.137L110.606 269.748ZM113.015 263.613C112.997 265.011 114.122 265.916 115.651 265.916C117.181 265.916 118.306 265.011 118.306 263.613C118.306 262.233 117.181 261.311 115.651 261.311C114.122 261.311 112.997 262.233 113.015 263.613ZM121.874 274.529V258.744H123.544V274.529H121.874ZM143.53 258.744V266.76H141.86V258.744H143.53ZM130.716 265.723C134.653 264.896 136.71 263.13 136.965 260.818H131.542V259.447H138.802C138.793 263.578 136.095 266.03 131.331 267.076L130.716 265.723ZM133.177 268.781V267.463H143.53V271.418H134.882V273.018H144.058V274.336H133.229V270.17H141.86V268.781H133.177ZM159.579 258.744V274.494H157.979V258.744H159.579ZM146.202 265.547C146.202 262.137 147.538 260.001 149.595 260.01C151.511 260.001 152.803 261.82 152.996 264.773H154.78V259.043H156.38V273.721H154.78V266.127H153.005C152.855 269.203 151.546 271.11 149.595 271.102C147.538 271.11 146.202 268.966 146.202 265.547ZM147.749 265.547C147.749 268.052 148.461 269.528 149.595 269.52C150.755 269.528 151.476 268.052 151.476 265.547C151.476 263.033 150.755 261.565 149.595 261.574C148.461 261.565 147.749 263.033 147.749 265.547ZM170.354 259.588C172.736 259.597 174.485 261.108 174.485 263.262C174.485 265.415 172.736 266.909 170.354 266.918C167.981 266.909 166.206 265.415 166.224 263.262C166.206 261.108 167.981 259.597 170.354 259.588ZM167.56 273.967V268.307H169.194V272.569C170.144 272.508 171.233 272.341 172.024 271.928L172.402 273C174.081 272.297 174.942 270.899 174.942 269.52V269.291H172.446V267.955H179.021V269.291H176.542V269.52C176.524 271.058 177.509 272.552 179.513 273.158L178.722 274.424C177.254 273.94 176.27 273.009 175.733 271.849C175.197 272.991 174.213 273.932 172.763 274.424L172.13 273.387C170.908 273.87 169.52 273.958 168.368 273.967H167.56ZM167.841 263.262C167.832 264.606 168.931 265.547 170.354 265.547C171.787 265.547 172.868 264.606 172.868 263.262C172.868 261.908 171.787 260.977 170.354 260.977C168.931 260.977 167.832 261.908 167.841 263.262ZM176.683 267.199V258.744H178.353V262.348H180.638V263.736H178.353V267.199H176.683ZM195.069 258.744V274.494H193.487V258.744H195.069ZM181.481 269.941C184.821 267.955 186.421 265.31 186.711 262.066H182.22V260.695H188.372C188.363 262.233 188.152 263.701 187.669 265.072H190.165V259.148H191.747V273.721H190.165V266.408H187.089C186.157 268.236 184.654 269.836 182.431 271.137L181.481 269.941ZM210.872 265.406V266.777H207.55V269.695C209.009 269.634 210.477 269.537 211.856 269.379L211.979 270.609C208.508 271.128 204.781 271.181 201.784 271.189L201.573 269.801C202.9 269.801 204.368 269.792 205.88 269.757V266.777H202.716V260.203H210.802V261.557H204.368V265.406H210.872ZM212.841 274.529V258.744H214.511V274.529H212.841ZM222.632 269.133C222.632 270.495 223.309 271.928 224.732 272.798C226.174 271.857 226.859 270.328 226.868 269.133V268.289H228.503V269.133C228.503 270.759 229.575 272.376 231.667 273.035L230.806 274.283C229.259 273.729 228.204 272.675 227.659 271.374C227.158 272.64 226.218 273.817 224.759 274.424C223.265 273.853 222.307 272.736 221.814 271.444C221.252 272.684 220.206 273.729 218.729 274.283L217.921 273.035C219.934 272.332 221.015 270.662 221.032 269.133V268.289H222.632V269.133ZM217.288 263.332C217.279 261.152 219.028 259.605 221.401 259.605C223.44 259.605 225.058 260.81 225.418 262.594H228.503V258.744H230.173V267.674H228.503V263.965H225.444C225.119 265.793 223.484 267.041 221.401 267.041C219.028 267.041 217.279 265.503 217.288 263.332ZM218.888 263.332C218.879 264.694 219.942 265.652 221.401 265.652C222.825 265.652 223.889 264.694 223.897 263.332C223.889 261.943 222.825 261.003 221.401 261.012C219.942 261.003 218.879 261.943 218.888 263.332ZM236.026 268.184V269.854H243.427V268.184H245.097V274.301H234.374V268.184H236.026ZM232.599 267.199V265.811H246.96V267.199H232.599ZM233.372 263.525C236.422 263.13 238.918 261.451 238.927 259.588V258.92H240.632V259.588C240.641 261.398 243.154 263.156 246.169 263.525L245.571 264.844C243.022 264.492 240.799 263.279 239.788 261.601C238.769 263.288 236.536 264.492 234.005 264.844L233.372 263.525ZM236.026 272.965H243.427V271.154H236.026V272.965ZM261.233 258.744V274.494H259.563V258.744H261.233ZM249.122 270.486V260.273H250.774V269.045C253.077 269.036 255.494 268.834 258.017 268.324L258.245 269.73C255.459 270.302 252.928 270.495 250.44 270.486H249.122ZM275.981 258.744V264.844H278.513V266.215H275.981V274.529H274.312V258.744H275.981ZM264.38 270.609V260.256H271.745V261.609H266.05V269.221C268.695 269.212 270.673 269.098 272.923 268.693L273.134 270.1C270.664 270.539 268.572 270.618 265.646 270.609H264.38ZM281.062 273.123C280.376 273.114 279.805 272.561 279.813 271.875C279.805 271.189 280.376 270.627 281.062 270.627C281.738 270.627 282.301 271.189 282.31 271.875C282.301 272.561 281.738 273.114 281.062 273.123ZM86.999 287.645C86.9902 289.648 88.3877 291.477 90.7783 292.232L89.9873 293.533C88.1943 292.962 86.8848 291.775 86.1904 290.281C85.5049 292.004 84.125 293.366 82.2354 294.025L81.374 292.689C83.835 291.881 85.3203 289.851 85.3291 287.662V287.223H81.8662V285.869H90.3916V287.223H86.999V287.645ZM83.501 297.506C83.501 295.66 85.5137 294.579 88.792 294.588C92.0352 294.579 94.0127 295.66 94.0127 297.506C94.0127 299.378 92.0352 300.468 88.792 300.459C85.5137 300.468 83.501 299.378 83.501 297.506ZM85.1709 297.506C85.1621 298.561 86.5156 299.149 88.792 299.141C91.0508 299.149 92.3867 298.561 92.3779 297.506C92.3867 296.478 91.0508 295.897 88.792 295.906C86.5156 295.897 85.1621 296.478 85.1709 297.506ZM92.2021 294.201V284.744H93.8721V288.646H96.1572V290.018H93.8721V294.201H92.2021ZM105.017 286.309V296.539H97.6514V286.309H105.017ZM99.2861 295.186H103.364V287.627H99.2861V295.186ZM107.653 300.494V284.744H109.323V290.914H111.854V292.32H109.323V300.494H107.653ZM118.13 287.838C118.13 289.473 119.712 290.949 122.12 291.477L121.364 292.76C119.492 292.32 118.06 291.318 117.339 289.991C116.627 291.45 115.194 292.558 113.261 293.059L112.522 291.758C114.931 291.151 116.478 289.596 116.478 287.838V287.574H113.05V286.238H116.478V284.674H118.147V286.238H121.558V287.574H118.13V287.838ZM115.423 294.975V293.674H125.724V297.559H117.128V299.035H126.286V300.336H115.458V296.328H124.071V294.975H115.423ZM121.101 289.93V288.594H124.071V284.744H125.724V292.988H124.071V289.93H121.101ZM146.923 291.266V292.602H140.56V293.973H145.112V297.664H135.937V299.053H145.552V300.336H134.302V296.451H143.46V295.256H134.284V293.973H138.89V292.602H132.562V291.266H146.923ZM134.407 290.105V285.254H145.077V290.105H134.407ZM136.042 288.787H143.407V286.572H136.042V288.787ZM153.251 285.869C155.738 285.86 157.531 287.398 157.54 289.613C157.531 291.828 155.738 293.366 153.251 293.375C150.772 293.366 148.953 291.828 148.962 289.613C148.953 287.398 150.772 285.86 153.251 285.869ZM148.206 295.748C151.071 295.748 155.044 295.722 158.489 295.221L158.612 296.434C155.053 297.119 151.229 297.137 148.417 297.137L148.206 295.748ZM150.614 289.613C150.597 291.011 151.722 291.916 153.251 291.916C154.78 291.916 155.905 291.011 155.905 289.613C155.905 288.233 154.78 287.311 153.251 287.311C151.722 287.311 150.597 288.233 150.614 289.613ZM159.474 300.529V284.744H161.144V300.529H159.474ZM170.495 285.641V288.014H174.433V285.641H176.085V288.646H179.53V284.744H181.2V293.867H179.53V290.035H176.085V293.059H168.825V285.641H170.495ZM170.495 291.723H174.433V289.332H170.495V291.723ZM170.812 300.301V294.605H181.2V300.301H170.812ZM172.464 298.947H179.565V295.941H172.464V298.947ZM196.001 284.762V288.682H198.304V290.088H196.001V294.131H194.331V284.762H196.001ZM184.259 286.924V285.588H191.431V290.035H185.946V292.004C188.68 291.995 190.613 291.916 192.907 291.529L193.083 292.865C190.648 293.305 188.565 293.393 185.542 293.393H184.276V288.77H189.796V286.924H184.259ZM185.911 300.301V294.869H196.001V300.301H185.911ZM187.546 298.947H194.384V296.17H187.546V298.947ZM212.735 284.744V300.494H211.136V284.744H212.735ZM199.358 291.547C199.358 288.137 200.694 286.001 202.751 286.01C204.667 286.001 205.959 287.82 206.152 290.773H207.937V285.043H209.536V299.721H207.937V292.127H206.161C206.012 295.203 204.702 297.11 202.751 297.102C200.694 297.11 199.358 294.966 199.358 291.547ZM200.905 291.547C200.905 294.052 201.617 295.528 202.751 295.52C203.911 295.528 204.632 294.052 204.632 291.547C204.632 289.033 203.911 287.565 202.751 287.574C201.617 287.565 200.905 289.033 200.905 291.547ZM233.53 293.639V295.01H229.874V300.494H228.187V295.01H224.425V300.494H222.702V295.01H219.116V293.639H233.53ZM220.681 288.822C220.689 286.695 222.957 285.342 226.288 285.342C229.619 285.342 231.904 286.695 231.896 288.822C231.904 290.923 229.619 292.25 226.288 292.232C222.957 292.25 220.689 290.923 220.681 288.822ZM222.403 288.822C222.395 290.114 223.95 290.914 226.288 290.914C228.635 290.914 230.182 290.114 230.19 288.822C230.182 287.495 228.635 286.687 226.288 286.678C223.95 286.687 222.395 287.495 222.403 288.822ZM239.823 285.869C242.311 285.86 244.104 287.398 244.112 289.613C244.104 291.828 242.311 293.366 239.823 293.375C237.345 293.366 235.525 291.828 235.534 289.613C235.525 287.398 237.345 285.86 239.823 285.869ZM234.778 295.748C237.644 295.748 241.616 295.722 245.062 295.221L245.185 296.434C241.625 297.119 237.802 297.137 234.989 297.137L234.778 295.748ZM237.187 289.613C237.169 291.011 238.294 291.916 239.823 291.916C241.353 291.916 242.478 291.011 242.478 289.613C242.478 288.233 241.353 287.311 239.823 287.311C238.294 287.311 237.169 288.233 237.187 289.613ZM246.046 300.529V284.744H247.716V300.529H246.046ZM262.517 284.744V291.125H265.048V292.514H262.517V300.494H260.864V284.744H262.517ZM250.159 288.576V287.205H254.044V284.955H255.714V287.205H259.493V288.576H250.159ZM250.968 293.393C250.968 291.248 252.62 289.736 254.888 289.736C257.146 289.736 258.799 291.248 258.808 293.393C258.799 295.555 257.146 297.058 254.888 297.066C252.62 297.058 250.968 295.555 250.968 293.393ZM252.567 293.393C252.559 294.764 253.543 295.678 254.888 295.66C256.224 295.678 257.199 294.764 257.208 293.393C257.199 292.048 256.224 291.116 254.888 291.107C253.543 291.116 252.559 292.048 252.567 293.393ZM270.603 289.051C270.603 291.564 271.657 294.245 273.767 295.537L272.835 296.82C271.358 295.933 270.365 294.359 269.82 292.54C269.249 294.535 268.159 296.24 266.63 297.172L265.593 295.924C267.816 294.588 268.994 291.802 268.985 289.121V286.186H270.603V289.051ZM272.062 291.67V290.281H274.505V285.043H276.087V299.721H274.505V291.67H272.062ZM277.757 300.494V284.744H279.356V300.494H277.757ZM295.774 297.137V298.525H281.36V297.137H284.806V293.023C283.514 292.312 282.723 291.187 282.731 289.771C282.723 287.293 285.157 285.667 288.532 285.658C291.916 285.667 294.351 287.293 294.351 289.771C294.351 291.16 293.595 292.276 292.329 292.988V297.137H295.774ZM284.349 289.771C284.349 291.459 286.062 292.558 288.532 292.566C290.984 292.558 292.725 291.459 292.733 289.771C292.725 288.075 290.984 286.994 288.532 286.994C286.062 286.994 284.349 288.075 284.349 289.771ZM286.458 297.137H290.642V293.639C290 293.788 289.288 293.867 288.532 293.867C287.794 293.867 287.091 293.788 286.458 293.639V297.137ZM298.71 299.123C298.024 299.114 297.453 298.561 297.462 297.875C297.453 297.189 298.024 296.627 298.71 296.627C299.387 296.627 299.949 297.189 299.958 297.875C299.949 298.561 299.387 299.114 298.71 299.123Z" fill="black"/>
<rect width="382" height="64" transform="translate(0 346)" fill="#455767"/>
<path d="M187.297 368.016V374.25H190.297V376.078H187.297V382.148H185.07V368.016H187.297ZM170.633 379.805C172.262 379.805 174.148 379.805 176.117 379.758V378.34C173.727 378.07 172.203 376.945 172.227 375.258C172.203 373.336 174.207 372.141 177.219 372.164C180.23 372.141 182.199 373.336 182.211 375.258C182.199 376.934 180.711 378.059 178.344 378.34V379.676C180.219 379.582 182.117 379.43 183.875 379.172L184.062 380.766C179.551 381.551 174.57 381.586 170.867 381.586L170.633 379.805ZM171.172 371.461V369.797H176.117V367.828H178.344V369.797H183.289V371.461H171.172ZM173.258 384.867V383.133H187.297V388.992H185.07V384.867H173.258ZM174.336 375.258C174.336 376.242 175.426 376.887 177.219 376.875C178.988 376.887 180.09 376.242 180.078 375.258C180.09 374.25 178.988 373.664 177.219 373.688C175.426 373.664 174.336 374.25 174.336 375.258ZM208.93 368.016V383.273H206.703V368.016H208.93ZM191.938 374.625C191.949 371.59 194.363 369.434 197.539 369.422C200.703 369.434 203.117 371.59 203.117 374.625C203.117 377.707 200.703 379.852 197.539 379.852C194.363 379.852 191.949 377.707 191.938 374.625ZM194.117 374.625C194.105 376.605 195.582 377.906 197.539 377.906C199.461 377.906 200.938 376.605 200.938 374.625C200.938 372.691 199.461 371.367 197.539 371.367C195.582 371.367 194.105 372.691 194.117 374.625ZM195.195 388.547V381.727H197.445V386.742H209.562V388.547H195.195Z" fill="white"/>
</g>
<defs>
<clipPath id="clip0_14_194">
<rect width="382" height="410" rx="20" fill="white"/>
</clipPath>
</defs>
</svg>
