<svg width="382" height="488" viewBox="0 0 382 488" fill="none" xmlns="http://www.w3.org/2000/svg">
<g clip-path="url(#clip0_14_116)">
<rect width="382" height="488" rx="20" fill="#EEEEEE"/>
<rect width="382" height="64" fill="#455767"/>
<path d="M145.984 24.3359V26.1172H139.703V29.8672H145.633V31.625H139.703V36.0547C142.551 36.0312 144.426 35.9375 146.641 35.5625L146.828 37.3906C144.367 37.8359 142.328 37.9297 138.977 37.9297H137.57V24.3359H145.984ZM148.047 41.9609V22.3906H150.18V30.3359H152.711V21.9922H154.844V42.9922H152.711V32.1406H150.18V41.9609H148.047ZM176.992 24.9688V26.7969H174.016V29.4688H176.992V31.3203H174.016V34.3906H171.789V21.9922H174.016V24.9688H176.992ZM157.844 28.2031C157.82 25.25 160.211 23.2109 163.422 23.2109C166.645 23.2109 169 25.25 169.023 28.2031C169 31.1328 166.645 33.1836 163.422 33.1953C160.211 33.1836 157.82 31.1328 157.844 28.2031ZM160.023 28.2031C160 30.0664 161.453 31.2969 163.422 31.3203C165.391 31.2969 166.832 30.0664 166.844 28.2031C166.832 26.3516 165.391 25.0742 163.422 25.0859C161.453 25.0742 160 26.3516 160.023 28.2031ZM160.188 38.9609C160.188 36.4414 162.906 34.9648 167.242 34.9531C171.531 34.9648 174.203 36.4414 174.203 38.9609C174.203 41.4688 171.531 42.957 167.242 42.9453C162.906 42.957 160.188 41.4688 160.188 38.9609ZM162.414 38.9609C162.402 40.3906 164.207 41.1758 167.242 41.1641C170.254 41.1758 172.035 40.3906 172.023 38.9609C172.035 37.5547 170.254 36.7461 167.242 36.7578C164.207 36.7461 162.402 37.5547 162.414 38.9609ZM185.102 23.4922C188.418 23.4805 190.809 25.5312 190.82 28.4844C190.809 31.4375 188.418 33.4883 185.102 33.5C181.797 33.4883 179.371 31.4375 179.383 28.4844C179.371 25.5312 181.797 23.4805 185.102 23.4922ZM178.375 36.6641C182.195 36.6641 187.492 36.6289 192.086 35.9609L192.25 37.5781C187.504 38.4922 182.406 38.5156 178.656 38.5156L178.375 36.6641ZM181.586 28.4844C181.562 30.3477 183.062 31.5547 185.102 31.5547C187.141 31.5547 188.641 30.3477 188.641 28.4844C188.641 26.6445 187.141 25.4141 185.102 25.4141C183.062 25.4141 181.562 26.6445 181.586 28.4844ZM193.398 43.0391V21.9922H195.625V43.0391H193.398ZM224.008 32.4922V34.2734H215.523V36.4766H221.664V42.9453H219.414V38.2812H206.992V36.4766H213.32V34.2734H204.859V32.4922H224.008ZM205.891 29.7734C210.062 29.3867 212.945 27.8633 213.191 25.7656H206.781V24.0078H213.32V21.9219H215.523V24.0078H222.086V25.7656H215.652C215.875 27.8633 218.746 29.3867 222.953 29.7734L222.25 31.4375C218.629 31.1094 215.711 29.9023 214.422 27.9219C213.121 29.9023 210.191 31.1094 206.594 31.4375L205.891 29.7734ZM244.75 32.7031V34.5078H225.602V32.7031H234.062V30.4297H228.109V22.4844H230.312V24.7578H240.039V22.4844H242.266V30.4297H236.266V32.7031H244.75ZM227.734 38.1641V36.3828H242.406V42.9922H240.156V38.1641H227.734ZM230.312 28.6484H240.039V26.4219H230.312V28.6484Z" fill="white"/>
<path d="M225.206 141.44V132.97C225.206 128.45 221.55 124.794 217.03 124.794H208.56C206.398 124.794 204.315 123.93 202.782 122.397L196.788 116.403C193.584 113.199 188.416 113.199 185.212 116.403L179.218 122.397C177.685 123.93 175.602 124.794 173.44 124.794H164.97C160.45 124.794 156.794 128.45 156.794 132.97V141.44C156.794 143.602 155.93 145.685 154.397 147.218L148.403 153.212C145.199 156.416 145.199 161.584 148.403 164.788L154.397 170.782C155.93 172.315 156.794 174.398 156.794 176.56V185.03C156.794 189.55 160.45 193.206 164.97 193.206H173.44C175.602 193.206 177.685 194.07 179.218 195.603L185.212 201.597C188.416 204.801 193.584 204.801 196.788 201.597L202.782 195.603C204.315 194.07 206.398 193.206 208.56 193.206H217.03C221.55 193.206 225.206 189.55 225.206 185.03V176.56C225.206 174.398 226.07 172.315 227.603 170.782L233.597 164.788C236.801 161.584 236.801 156.416 233.597 153.212L227.603 147.218C226.07 145.685 225.206 143.602 225.206 141.44Z" fill="#F8B121"/>
<path d="M52.959 258.762V262.26H55.2617V263.648H52.959V267.639H51.2891V258.762H52.959ZM41.3047 266.566V259.535H42.9746V265.178C45.1104 265.16 47.334 264.976 49.7598 264.492L49.9707 265.863C47.3164 266.399 44.9082 266.558 42.5879 266.566H41.3047ZM42.8691 274.283V268.465H52.959V274.283H42.8691ZM44.5039 272.947H51.3418V269.766H44.5039V272.947ZM61.8184 262.752C61.8184 265.635 63.4355 268.509 65.8438 269.59L64.8242 270.926C63.04 270.029 61.6865 268.254 60.9922 266.101C60.2979 268.368 58.9268 270.284 57.1074 271.225L56.0527 269.871C58.4961 268.702 60.1221 265.67 60.1309 262.752V260.062H61.8184V262.752ZM64.1035 265.336V263.982H67.6191V258.744H69.2715V274.529H67.6191V265.336H64.1035ZM76.6367 260.836C76.6455 261.68 77.4541 262.813 78.8779 263.42C80.2842 262.831 81.0752 261.732 81.0664 260.836V260.678H79.1855V259.307H85.0918V260.678H82.7539V260.906C82.7539 262.049 83.7646 263.332 85.6543 263.824L84.916 265.037C83.3691 264.606 82.3408 263.666 81.8398 262.559C81.3301 263.543 80.3457 264.431 78.8691 264.844C77.3838 264.413 76.3994 263.508 75.8809 262.523C75.3711 263.613 74.3604 264.589 72.8223 265.037L72.1016 263.824C73.9385 263.288 74.9932 261.935 74.9844 260.906V260.678H72.6289V259.307H78.5527V260.678H76.6367V260.836ZM71.6973 267.814V266.461H78.043V264.949H79.6953V266.461H86.0938V267.814H71.6973ZM73.2617 270.68V269.344H84.2832V274.494H82.5957V270.68H73.2617ZM97.1328 263.385C97.124 265.872 98.7676 268.649 101.158 269.783L100.209 271.084C98.4424 270.24 97.0361 268.465 96.3242 266.408C95.6035 268.649 94.127 270.592 92.334 271.488L91.3496 270.17C93.7402 269.019 95.4717 266.048 95.4805 263.385V261.715H91.9297V260.326H100.561V261.715H97.1328V263.385ZM102.248 274.494V258.744H103.918V264.984H106.449V266.391H103.918V274.494H102.248ZM120.283 258.744V274.529H118.613V258.744H120.283ZM108.084 261.521V260.168H115.467V265.916H109.807V269.361C112.364 269.353 114.588 269.229 117.225 268.799L117.383 270.17C114.597 270.636 112.224 270.741 109.438 270.75H108.102V264.58H113.762V261.521H108.084ZM136.314 258.744V274.494H134.715V258.744H136.314ZM122.938 265.547C122.938 262.137 124.273 260.001 126.33 260.01C128.246 260.001 129.538 261.82 129.731 264.773H131.516V259.043H133.115V273.721H131.516V266.127H129.74C129.591 269.203 128.281 271.11 126.33 271.102C124.273 271.11 122.938 268.966 122.938 265.547ZM124.484 265.547C124.484 268.052 125.196 269.528 126.33 269.52C127.49 269.528 128.211 268.052 128.211 265.547C128.211 263.033 127.49 261.565 126.33 261.574C125.196 261.565 124.484 263.033 124.484 265.547ZM147.09 259.588C149.472 259.597 151.221 261.108 151.221 263.262C151.221 265.415 149.472 266.909 147.09 266.918C144.717 266.909 142.941 265.415 142.959 263.262C142.941 261.108 144.717 259.597 147.09 259.588ZM144.295 273.967V268.307H145.93V272.569C146.879 272.508 147.969 272.341 148.76 271.928L149.138 273C150.816 272.297 151.678 270.899 151.678 269.52V269.291H149.182V267.955H155.756V269.291H153.277V269.52C153.26 271.058 154.244 272.552 156.248 273.158L155.457 274.424C153.989 273.94 153.005 273.009 152.469 271.849C151.933 272.991 150.948 273.932 149.498 274.424L148.865 273.387C147.644 273.87 146.255 273.958 145.104 273.967H144.295ZM144.576 263.262C144.567 264.606 145.666 265.547 147.09 265.547C148.522 265.547 149.604 264.606 149.604 263.262C149.604 261.908 148.522 260.977 147.09 260.977C145.666 260.977 144.567 261.908 144.576 263.262ZM153.418 267.199V258.744H155.088V262.348H157.373V263.736H155.088V267.199H153.418ZM162.488 259.922C164.844 259.931 166.522 262.075 166.531 265.441C166.522 268.843 164.844 270.987 162.488 270.979C160.133 270.987 158.454 268.843 158.463 265.441C158.454 262.075 160.133 259.931 162.488 259.922ZM160.062 265.441C160.054 267.946 161.056 269.484 162.488 269.484C163.947 269.484 164.932 267.946 164.932 265.441C164.932 262.972 163.947 261.425 162.488 261.416C161.056 261.425 160.054 262.972 160.062 265.441ZM168.869 274.494V258.744H170.539V264.914H173.07V266.32H170.539V274.494H168.869ZM185.393 259.693C188.759 259.702 191.211 261.363 191.211 263.877C191.211 266.232 189.154 267.806 186.219 268.043V271.137H192.635V272.525H178.221V271.137H184.566V268.043C181.648 267.806 179.583 266.232 179.592 263.877C179.583 261.363 182.044 259.702 185.393 259.693ZM181.209 263.877C181.209 265.644 182.967 266.742 185.393 266.76C187.836 266.742 189.585 265.644 189.594 263.877C189.585 262.172 187.836 261.047 185.393 261.064C182.967 261.047 181.209 262.172 181.209 263.877ZM206.908 258.762V270.293H205.238V264.369H202.232V263.016H205.238V258.762H206.908ZM193.795 267.006C196.212 266.188 197.724 264.114 197.715 261.943V261.328H194.305V259.957H202.795V261.328H199.42V261.943C199.411 263.903 200.835 265.881 203.217 266.672L202.355 268.008C200.589 267.393 199.279 266.127 198.594 264.562C197.908 266.303 196.528 267.691 194.656 268.359L193.795 267.006ZM196.678 274.16V269.256H198.348V272.807H207.33V274.16H196.678ZM223.73 268.008V269.326H217.297V274.494H215.662V269.326H209.316V268.008H223.73ZM211.109 266.215V259.377H212.762V261.434H220.25V259.377H221.92V266.215H211.109ZM212.762 264.879H220.25V262.77H212.762V264.879ZM238.021 258.744V274.529H236.369V265.934H233.24V264.562H236.369V258.744H238.021ZM225.611 270.803V260.15H232.977V261.504H227.299V264.562H232.309V265.898H227.299V269.414C229.936 269.414 231.764 269.335 233.855 268.975L234.031 270.328C231.737 270.697 229.76 270.794 226.842 270.803H225.611ZM252.014 259.693C255.38 259.702 257.832 261.363 257.832 263.877C257.832 266.232 255.775 267.806 252.84 268.043V271.137H259.256V272.525H244.842V271.137H251.188V268.043C248.27 267.806 246.204 266.232 246.213 263.877C246.204 261.363 248.665 259.702 252.014 259.693ZM247.83 263.877C247.83 265.644 249.588 266.742 252.014 266.76C254.457 266.742 256.206 265.644 256.215 263.877C256.206 262.172 254.457 261.047 252.014 261.064C249.588 261.047 247.83 262.172 247.83 263.877ZM273.951 260.484V261.855H261.137V260.484H266.744V258.674H268.396V260.484H273.951ZM260.398 270.311V268.939H274.812V270.311H268.396V274.512H266.744V270.311H260.398ZM262.332 265.318C262.323 263.596 264.292 262.655 267.57 262.664C270.84 262.655 272.809 263.596 272.809 265.318C272.809 266.997 270.84 267.946 267.57 267.955C264.292 267.946 262.323 266.997 262.332 265.318ZM264.055 265.318C264.055 266.197 265.312 266.698 267.57 266.689C269.82 266.698 271.077 266.197 271.086 265.318C271.077 264.413 269.82 263.912 267.57 263.912C265.312 263.912 264.055 264.413 264.055 265.318ZM288.471 258.744V265.143H290.756V266.514H288.471V274.494H286.801V258.744H288.471ZM275.814 270.064C278.117 267.665 278.952 264.958 279.119 261.803H276.377V260.432H280.701C280.692 264.369 279.989 267.955 277.133 270.996L275.814 270.064ZM280.314 271.119C282.661 268.377 283.347 265.16 283.47 261.803H281.211V260.432H285.043C285.043 264.413 284.542 268.614 281.65 272.033L280.314 271.119ZM297.312 263.385C297.304 266.021 299.035 268.746 301.461 269.783L300.547 271.084C298.692 270.267 297.216 268.526 296.486 266.426C295.757 268.676 294.28 270.592 292.443 271.488L291.477 270.17C293.85 269.054 295.607 266.101 295.625 263.385V261.715H292.021V260.326H300.898V261.715H297.312V263.385ZM302.885 274.494V258.744H304.555V274.494H302.885ZM318.371 260.502V261.838H313.66V264.65H318.107V265.969H313.66V269.291C315.796 269.273 317.202 269.203 318.863 268.922L319.004 270.293C317.158 270.627 315.629 270.697 313.115 270.697H312.061V260.502H318.371ZM319.918 273.721V259.043H321.518V265.002H323.416V258.744H325.016V274.494H323.416V266.355H321.518V273.721H319.918ZM341.627 260.977V262.348H339.395V264.352H341.627V265.74H339.395V268.043H337.725V258.744H339.395V260.977H341.627ZM327.266 263.402C327.248 261.188 329.041 259.658 331.449 259.658C333.866 259.658 335.633 261.188 335.65 263.402C335.633 265.6 333.866 267.138 331.449 267.146C329.041 267.138 327.248 265.6 327.266 263.402ZM328.9 263.402C328.883 264.8 329.973 265.723 331.449 265.74C332.926 265.723 334.007 264.8 334.016 263.402C334.007 262.014 332.926 261.056 331.449 261.064C329.973 261.056 328.883 262.014 328.9 263.402ZM329.023 271.471C329.023 269.581 331.062 268.474 334.314 268.465C337.531 268.474 339.535 269.581 339.535 271.471C339.535 273.352 337.531 274.468 334.314 274.459C331.062 274.468 329.023 273.352 329.023 271.471ZM330.693 271.471C330.685 272.543 332.038 273.132 334.314 273.123C336.573 273.132 337.909 272.543 337.9 271.471C337.909 270.416 336.573 269.81 334.314 269.818C332.038 269.81 330.685 270.416 330.693 271.471ZM51.2275 285.869C53.7148 285.86 55.5078 287.398 55.5166 289.613C55.5078 291.828 53.7148 293.366 51.2275 293.375C48.749 293.366 46.9297 291.828 46.9385 289.613C46.9297 287.398 48.749 285.86 51.2275 285.869ZM46.1826 295.748C49.0479 295.748 53.0205 295.722 56.4658 295.221L56.5889 296.434C53.0293 297.119 49.2061 297.137 46.3936 297.137L46.1826 295.748ZM48.5908 289.613C48.5732 291.011 49.6982 291.916 51.2275 291.916C52.7568 291.916 53.8818 291.011 53.8818 289.613C53.8818 288.233 52.7568 287.311 51.2275 287.311C49.6982 287.311 48.5732 288.233 48.5908 289.613ZM57.4502 300.529V284.744H59.1201V300.529H57.4502ZM80.4072 292.619V293.955H74.0439V295.607H78.6494V300.459H76.9619V296.961H67.6455V295.607H72.3916V293.955H66.0459V292.619H80.4072ZM66.8193 290.58C69.9482 290.29 72.1104 289.147 72.2949 287.574H67.4873V286.256H72.3916V284.691H74.0439V286.256H78.9658V287.574H74.1406C74.3076 289.147 76.4609 290.29 79.6162 290.58L79.0889 291.828C76.373 291.582 74.1846 290.677 73.2178 289.191C72.2422 290.677 70.0449 291.582 67.3467 291.828L66.8193 290.58ZM95.9639 292.777V294.131H81.6025V292.777H87.9482V291.072H83.4834V285.113H85.1357V286.818H92.4307V285.113H94.1006V291.072H89.6006V292.777H95.9639ZM83.2021 296.873V295.537H94.2061V300.494H92.5186V296.873H83.2021ZM85.1357 289.736H92.4307V288.066H85.1357V289.736ZM104.331 285.008C107.882 284.999 109.947 285.957 109.956 287.715C109.947 289.481 107.882 290.439 104.331 290.439C100.78 290.439 98.6973 289.481 98.7061 287.715C98.6973 285.957 100.78 284.999 104.331 285.008ZM97.1592 292.742V291.406H111.521V292.742H97.1592ZM98.8818 295.203V293.955H109.71V297.646H100.534V299.053H110.149V300.336H98.8994V296.434H108.058V295.203H98.8818ZM100.446 287.715C100.438 288.69 101.826 289.191 104.331 289.191C106.854 289.191 108.242 288.69 108.233 287.715C108.242 286.783 106.854 286.238 104.331 286.238C101.826 286.238 100.438 286.783 100.446 287.715ZM129.485 284.744V288.471H131.771V289.859H129.485V293.938H127.815V284.744H129.485ZM117.726 293.023V285.641H119.36V287.926H123.491V285.641H125.144V293.023H117.726ZM119.36 291.705H123.491V289.244H119.36V291.705ZM119.448 300.266V294.764H129.608V296.1H121.118V298.947H129.89V300.266H119.448ZM136.095 294.184V295.854H143.495V294.184H145.165V300.301H134.442V294.184H136.095ZM132.667 293.199V291.811H147.028V293.199H132.667ZM133.44 289.525C136.49 289.13 138.986 287.451 138.995 285.588V284.92H140.7V285.588C140.709 287.398 143.223 289.156 146.237 289.525L145.64 290.844C143.091 290.492 140.867 289.279 139.856 287.601C138.837 289.288 136.604 290.492 134.073 290.844L133.44 289.525ZM136.095 298.965H143.495V297.154H136.095V298.965ZM161.302 284.744V300.494H159.632V284.744H161.302ZM149.19 296.486V286.273H150.843V295.045C153.146 295.036 155.562 294.834 158.085 294.324L158.313 295.73C155.527 296.302 152.996 296.495 150.509 296.486H149.19ZM176.05 284.744V290.844H178.581V292.215H176.05V300.529H174.38V284.744H176.05ZM164.448 296.609V286.256H171.813V287.609H166.118V295.221C168.764 295.212 170.741 295.098 172.991 294.693L173.202 296.1C170.732 296.539 168.641 296.618 165.714 296.609H164.448ZM181.13 299.123C180.444 299.114 179.873 298.561 179.882 297.875C179.873 297.189 180.444 296.627 181.13 296.627C181.807 296.627 182.369 297.189 182.378 297.875C182.369 298.561 181.807 299.114 181.13 299.123ZM200.536 284.744V291.125H203.067V292.514H200.536V300.494H198.884V284.744H200.536ZM188.179 288.576V287.205H192.063V284.955H193.733V287.205H197.513V288.576H188.179ZM188.987 293.393C188.987 291.248 190.64 289.736 192.907 289.736C195.166 289.736 196.818 291.248 196.827 293.393C196.818 295.555 195.166 297.058 192.907 297.066C190.64 297.058 188.987 295.555 188.987 293.393ZM190.587 293.393C190.578 294.764 191.562 295.678 192.907 295.66C194.243 295.678 195.219 294.764 195.228 293.393C195.219 292.048 194.243 291.116 192.907 291.107C191.562 291.116 190.578 292.048 190.587 293.393ZM209.624 289.385C209.615 292.021 211.347 294.746 213.772 295.783L212.858 297.084C211.004 296.267 209.527 294.526 208.798 292.426C208.068 294.676 206.592 296.592 204.755 297.488L203.788 296.17C206.161 295.054 207.919 292.101 207.937 289.385V287.715H204.333V286.326H213.21V287.715H209.624V289.385ZM215.196 300.494V284.744H216.866V300.494H215.196ZM227.36 286.133V293.48H219.995V286.133H227.36ZM221.63 292.162H225.726V287.486H221.63V292.162ZM221.771 300.16V295.168H223.44V298.807H232.423V300.16H221.771ZM230.085 296.275V284.727H231.755V289.438H234.04V290.844H231.755V296.275H230.085ZM251.882 284.709V290.826H254.044V292.232H251.882V300.494H250.212V284.709H251.882ZM239.753 296.451V286.361H243.796V287.732H241.423V295.054C242.179 295.019 243.014 294.939 243.937 294.746L244.077 296.135C242.653 296.425 241.52 296.451 240.474 296.451H239.753ZM244.675 296.451V286.361H248.876V287.732H246.31V295.062C247.47 295.045 248.34 294.957 249.298 294.711L249.438 296.1C248.173 296.416 247.136 296.451 245.448 296.451H244.675ZM262.886 286.977C262.886 289.543 265.619 291.969 268.651 292.514L267.878 293.902C265.355 293.357 263.044 291.705 262.024 289.49C260.987 291.696 258.676 293.34 256.153 293.902L255.415 292.514C258.403 291.951 261.119 289.543 261.128 286.977V285.781H262.886V286.977ZM254.888 298.42V297.031H269.302V298.42H254.888ZM282.819 284.762V289.824H285.104V291.213H282.819V296.539H281.149V284.762H282.819ZM270.462 287.943V286.59H274.329V284.744H275.999V286.59H279.849V287.943H270.462ZM271.323 291.67C271.314 289.868 272.87 288.69 275.155 288.699C277.414 288.69 278.97 289.868 278.97 291.67C278.97 293.454 277.414 294.614 275.155 294.623C272.87 294.614 271.314 293.454 271.323 291.67ZM272.835 300.16V295.607H274.505V298.807H283.487V300.16H272.835ZM272.94 291.67C272.923 292.698 273.819 293.331 275.155 293.322C276.491 293.331 277.388 292.698 277.405 291.67C277.388 290.633 276.491 289.991 275.155 289.982C273.819 289.991 272.923 290.633 272.94 291.67ZM303.825 284.762V295.748H302.243V290.492H300.45V294.5H298.886V285.008H300.45V289.121H302.243V284.762H303.825ZM290.308 287.943V286.625H293.489V284.885H295.142V286.625H298.271V287.943H290.308ZM290.923 291.477C290.923 289.789 292.329 288.69 294.298 288.682C296.311 288.69 297.708 289.789 297.708 291.477C297.708 293.155 296.311 294.271 294.298 294.271C292.329 294.271 290.923 293.155 290.923 291.477ZM292.312 299.141C295.317 298.798 297.646 297.251 297.655 295.484V295.115H299.325V295.484C299.325 297.251 301.663 298.798 304.687 299.141L304.071 300.424C301.602 300.099 299.475 299.044 298.499 297.479C297.506 299.044 295.37 300.099 292.892 300.424L292.312 299.141ZM292.417 291.477C292.417 292.435 293.182 293.015 294.298 293.006C295.432 293.015 296.205 292.435 296.196 291.477C296.205 290.527 295.432 289.921 294.298 289.93C293.182 289.921 292.417 290.527 292.417 291.477ZM311.401 286.449C311.393 288.515 312.843 290.334 315.216 291.055L314.354 292.355C312.588 291.775 311.296 290.615 310.61 289.104C309.925 290.835 308.545 292.162 306.655 292.812L305.829 291.477C308.281 290.668 309.74 288.717 309.749 286.449V285.289H311.401V286.449ZM308.149 294.922V293.604H318.327V297.506H309.819V299H318.872V300.336H308.185V296.275H316.675V294.922H308.149ZM316.657 292.936V284.744H318.327V288.066H320.612V289.455H318.327V292.936H316.657ZM335.062 284.744V300.494H333.462V284.744H335.062ZM321.685 291.547C321.685 288.137 323.021 286.001 325.077 286.01C326.993 286.001 328.285 287.82 328.479 290.773H330.263V285.043H331.862V299.721H330.263V292.127H328.487C328.338 295.203 327.028 297.11 325.077 297.102C323.021 297.11 321.685 294.966 321.685 291.547ZM323.231 291.547C323.231 294.052 323.943 295.528 325.077 295.52C326.237 295.528 326.958 294.052 326.958 291.547C326.958 289.033 326.237 287.565 325.077 287.574C323.943 287.565 323.231 289.033 323.231 291.547ZM65.2021 316.932V318.303H62.7588V326.477H61.0889V310.744H62.7588V316.932H65.2021ZM51.0869 322.521V312.273H52.7393V321.133C54.9365 321.124 57.2305 320.939 59.7354 320.43L59.9287 321.836C57.2305 322.372 54.752 322.53 52.3877 322.521H51.0869ZM80.4424 319.393V320.746H66.0283V319.393H80.4424ZM67.8389 312.537V311.219H78.6318V315.262H69.5264V316.809H78.9482V318.092H67.874V314.049H76.9619V312.537H67.8389ZM67.9092 326.16V321.871H69.5791V324.807H78.9658V326.16H67.9092ZM89.3896 313.346V314.699H81.5674V313.346H84.6611V311.201H86.3135V313.346H89.3896ZM82.0771 319.27C82.0684 317.151 83.5098 315.648 85.4873 315.648C87.4824 315.648 88.9062 317.151 88.915 319.27C88.9062 321.423 87.4824 322.935 85.4873 322.926C83.5098 322.935 82.0684 321.423 82.0771 319.27ZM83.5537 319.27C83.5449 320.605 84.3535 321.502 85.4873 321.502C86.6211 321.502 87.4385 320.605 87.4385 319.27C87.4385 317.96 86.6211 317.046 85.4873 317.037C84.3535 317.046 83.5449 317.96 83.5537 319.27ZM90.1104 325.756V311.096H91.6924V317.301H93.5029V310.744H95.085V326.494H93.5029V318.672H91.6924V325.756H90.1104ZM102.96 315.385C102.951 318.021 104.683 320.746 107.108 321.783L106.194 323.084C104.34 322.267 102.863 320.526 102.134 318.426C101.404 320.676 99.9277 322.592 98.0908 323.488L97.124 322.17C99.4971 321.054 101.255 318.101 101.272 315.385V313.715H97.6689V312.326H106.546V313.715H102.96V315.385ZM108.532 326.494V310.744H110.202V326.494H108.532ZM125.812 310.744V326.494H124.124V310.744H125.812ZM112.874 322.275C117.058 320.28 119.105 317.441 119.431 313.768H113.63V312.432H121.118C121.118 317.046 119.158 321.036 113.753 323.629L112.874 322.275ZM138.714 312.326C138.696 314.102 140.146 315.604 142.599 316.176L141.825 317.494C139.944 317.011 138.573 316.009 137.861 314.638C137.158 316.158 135.734 317.318 133.827 317.846L133.001 316.545C135.488 315.903 136.982 314.225 136.991 312.326V311.412H138.714V312.326ZM132.649 319.111C135.585 319.12 139.575 319.085 143.021 318.602L143.144 319.797C141.711 320.061 140.217 320.228 138.767 320.333V326.002H137.097V320.43C135.576 320.5 134.135 320.5 132.878 320.5L132.649 319.111ZM144.11 326.494V310.762H145.763V326.494H144.11ZM162.62 319.691V321.08H156.187V326.494H154.552V321.08H148.206V319.691H162.62ZM149.771 314.84C149.779 312.695 152.047 311.342 155.378 311.342C158.709 311.342 160.994 312.695 160.985 314.84C160.994 316.958 158.709 318.303 155.378 318.303C152.047 318.303 149.779 316.958 149.771 314.84ZM151.493 314.84C151.484 316.149 153.04 316.967 155.378 316.967C157.725 316.967 159.271 316.149 159.28 314.84C159.271 313.513 157.725 312.687 155.378 312.678C153.04 312.687 151.484 313.513 151.493 314.84ZM176.858 310.744V326.494H175.188V310.744H176.858ZM164.747 322.486V312.273H166.399V321.045C168.702 321.036 171.119 320.834 173.642 320.324L173.87 321.73C171.084 322.302 168.553 322.495 166.065 322.486H164.747ZM198.128 319.639V321.01H194.472V326.494H192.784V321.01H189.022V326.494H187.3V321.01H183.714V319.639H198.128ZM185.278 314.822C185.287 312.695 187.555 311.342 190.886 311.342C194.217 311.342 196.502 312.695 196.493 314.822C196.502 316.923 194.217 318.25 190.886 318.232C187.555 318.25 185.287 316.923 185.278 314.822ZM187.001 314.822C186.992 316.114 188.548 316.914 190.886 316.914C193.232 316.914 194.779 316.114 194.788 314.822C194.779 313.495 193.232 312.687 190.886 312.678C188.548 312.687 186.992 313.495 187.001 314.822ZM204.421 311.869C206.908 311.86 208.701 313.398 208.71 315.613C208.701 317.828 206.908 319.366 204.421 319.375C201.942 319.366 200.123 317.828 200.132 315.613C200.123 313.398 201.942 311.86 204.421 311.869ZM199.376 321.748C202.241 321.748 206.214 321.722 209.659 321.221L209.782 322.434C206.223 323.119 202.399 323.137 199.587 323.137L199.376 321.748ZM201.784 315.613C201.767 317.011 202.892 317.916 204.421 317.916C205.95 317.916 207.075 317.011 207.075 315.613C207.075 314.233 205.95 313.311 204.421 313.311C202.892 313.311 201.767 314.233 201.784 315.613ZM210.644 326.529V310.744H212.313V326.529H210.644ZM227.114 310.744V317.125H229.646V318.514H227.114V326.494H225.462V310.744H227.114ZM214.757 314.576V313.205H218.642V310.955H220.312V313.205H224.091V314.576H214.757ZM215.565 319.393C215.565 317.248 217.218 315.736 219.485 315.736C221.744 315.736 223.396 317.248 223.405 319.393C223.396 321.555 221.744 323.058 219.485 323.066C217.218 323.058 215.565 321.555 215.565 319.393ZM217.165 319.393C217.156 320.764 218.141 321.678 219.485 321.66C220.821 321.678 221.797 320.764 221.806 319.393C221.797 318.048 220.821 317.116 219.485 317.107C218.141 317.116 217.156 318.048 217.165 319.393ZM236.185 314.752C236.167 317.626 237.907 320.526 240.351 321.607L239.349 322.926C237.538 322.064 236.105 320.298 235.367 318.145C234.638 320.456 233.188 322.354 231.298 323.277L230.278 321.871C232.757 320.772 234.497 317.758 234.497 314.752V312.062H236.185V314.752ZM241.774 326.529V310.744H243.444V326.529H241.774ZM259.019 310.744V318.76H257.349V310.744H259.019ZM246.204 317.723C250.142 316.896 252.198 315.13 252.453 312.818H247.03V311.447H254.29C254.281 315.578 251.583 318.03 246.819 319.076L246.204 317.723ZM248.665 320.781V319.463H259.019V323.418H250.37V325.018H259.546V326.336H248.718V322.17H257.349V320.781H248.665ZM278.179 310.744V316.844H280.71V318.25H278.179V326.494H276.509V310.744H278.179ZM266.507 322.75V312.062H268.159V316.105H272.325V312.062H273.978V322.75H266.507ZM268.159 321.379H272.325V317.424H268.159V321.379ZM293.841 310.762V314.436H296.144V315.842H293.841V319.445H292.171V310.762H293.841ZM282.099 312.871V311.5H289.271V315.859H283.786V317.758C286.52 317.731 288.453 317.652 290.747 317.23L290.923 318.602C288.488 319.023 286.405 319.12 283.382 319.129H282.116V314.576H287.636V312.871H282.099ZM283.769 326.301V320.113H285.421V321.889H292.171V320.113H293.841V326.301H283.769ZM285.421 324.947H292.171V323.207H285.421V324.947ZM310.101 310.744V326.494H308.431V310.744H310.101ZM297.989 322.486V312.273H299.642V321.045C301.944 321.036 304.361 320.834 306.884 320.324L307.112 321.73C304.326 322.302 301.795 322.495 299.308 322.486H297.989ZM324.849 310.744V316.844H327.38V318.215H324.849V326.529H323.179V310.744H324.849ZM313.247 322.609V312.256H320.612V313.609H314.917V321.221C317.562 321.212 319.54 321.098 321.79 320.693L322.001 322.1C319.531 322.539 317.439 322.618 314.513 322.609H313.247ZM329.929 325.123C329.243 325.114 328.672 324.561 328.681 323.875C328.672 323.189 329.243 322.627 329.929 322.627C330.605 322.627 331.168 323.189 331.177 323.875C331.168 324.561 330.605 325.114 329.929 325.123ZM52.959 336.762V340.26H55.2617V341.648H52.959V345.639H51.2891V336.762H52.959ZM41.3047 344.566V337.535H42.9746V343.178C45.1104 343.16 47.334 342.976 49.7598 342.492L49.9707 343.863C47.3164 344.399 44.9082 344.558 42.5879 344.566H41.3047ZM42.8691 352.283V346.465H52.959V352.283H42.8691ZM44.5039 350.947H51.3418V347.766H44.5039V350.947ZM61.8184 340.752C61.8184 343.635 63.4355 346.509 65.8438 347.59L64.8242 348.926C63.04 348.029 61.6865 346.254 60.9922 344.101C60.2979 346.368 58.9268 348.284 57.1074 349.225L56.0527 347.871C58.4961 346.702 60.1221 343.67 60.1309 340.752V338.062H61.8184V340.752ZM64.1035 343.336V341.982H67.6191V336.744H69.2715V352.529H67.6191V343.336H64.1035ZM76.6367 338.836C76.6455 339.68 77.4541 340.813 78.8779 341.42C80.2842 340.831 81.0752 339.732 81.0664 338.836V338.678H79.1855V337.307H85.0918V338.678H82.7539V338.906C82.7539 340.049 83.7646 341.332 85.6543 341.824L84.916 343.037C83.3691 342.606 82.3408 341.666 81.8398 340.559C81.3301 341.543 80.3457 342.431 78.8691 342.844C77.3838 342.413 76.3994 341.508 75.8809 340.523C75.3711 341.613 74.3604 342.589 72.8223 343.037L72.1016 341.824C73.9385 341.288 74.9932 339.935 74.9844 338.906V338.678H72.6289V337.307H78.5527V338.678H76.6367V338.836ZM71.6973 345.814V344.461H78.043V342.949H79.6953V344.461H86.0938V345.814H71.6973ZM73.2617 348.68V347.344H84.2832V352.494H82.5957V348.68H73.2617ZM100.807 336.744V352.494H99.207V336.744H100.807ZM87.4297 343.547C87.4297 340.137 88.7656 338.001 90.8223 338.01C92.7383 338.001 94.0303 339.82 94.2236 342.773H96.0078V337.043H97.6074V351.721H96.0078V344.127H94.2324C94.083 347.203 92.7734 349.11 90.8223 349.102C88.7656 349.11 87.4297 346.966 87.4297 343.547ZM88.9766 343.547C88.9766 346.052 89.6885 347.528 90.8223 347.52C91.9824 347.528 92.7031 346.052 92.7031 343.547C92.7031 341.033 91.9824 339.565 90.8223 339.574C89.6885 339.565 88.9766 341.033 88.9766 343.547ZM111.582 337.588C113.964 337.597 115.713 339.108 115.713 341.262C115.713 343.415 113.964 344.909 111.582 344.918C109.209 344.909 107.434 343.415 107.451 341.262C107.434 339.108 109.209 337.597 111.582 337.588ZM108.787 351.967V346.307H110.422V350.569C111.371 350.508 112.461 350.341 113.252 349.928L113.63 351C115.309 350.297 116.17 348.899 116.17 347.52V347.291H113.674V345.955H120.248V347.291H117.77V347.52C117.752 349.058 118.736 350.552 120.74 351.158L119.949 352.424C118.481 351.94 117.497 351.009 116.961 349.849C116.425 350.991 115.44 351.932 113.99 352.424L113.357 351.387C112.136 351.87 110.747 351.958 109.596 351.967H108.787ZM109.068 341.262C109.06 342.606 110.158 343.547 111.582 343.547C113.015 343.547 114.096 342.606 114.096 341.262C114.096 339.908 113.015 338.977 111.582 338.977C110.158 338.977 109.06 339.908 109.068 341.262ZM117.91 345.199V336.744H119.58V340.348H121.865V341.736H119.58V345.199H117.91ZM135.506 341.35V342.686H124.66V337.307H126.312V341.35H135.506ZM122.744 346.008V344.672H137.158V346.008H122.744ZM124.537 352.125V347.502H126.207V350.754H135.611V352.125H124.537ZM148.18 340.752C148.162 343.538 149.788 346.395 152.135 347.537L151.098 348.873C149.384 347.977 148.057 346.219 147.362 344.118C146.659 346.351 145.279 348.24 143.486 349.172L142.449 347.818C144.866 346.658 146.501 343.635 146.51 340.752V338.062H148.18V340.752ZM153.312 352.494V336.744H154.982V343.02H157.514V344.443H154.982V352.494H153.312ZM170.645 336.762V340.682H172.947V342.088H170.645V346.131H168.975V336.762H170.645ZM158.902 338.924V337.588H166.074V342.035H160.59V344.004C163.323 343.995 165.257 343.916 167.551 343.529L167.727 344.865C165.292 345.305 163.209 345.393 160.186 345.393H158.92V340.77H164.439V338.924H158.902ZM160.555 352.301V346.869H170.645V352.301H160.555ZM162.189 350.947H169.027V348.17H162.189V350.947ZM187.379 336.744V352.494H185.779V336.744H187.379ZM174.002 343.547C174.002 340.137 175.338 338.001 177.395 338.01C179.311 338.001 180.603 339.82 180.796 342.773H182.58V337.043H184.18V351.721H182.58V344.127H180.805C180.655 347.203 179.346 349.11 177.395 349.102C175.338 349.11 174.002 346.966 174.002 343.547ZM175.549 343.547C175.549 346.052 176.261 347.528 177.395 347.52C178.555 347.528 179.275 346.052 179.275 343.547C179.275 341.033 178.555 339.565 177.395 339.574C176.261 339.565 175.549 341.033 175.549 343.547ZM202.918 336.744V352.494H201.336V336.744H202.918ZM189.33 347.941C192.67 345.955 194.27 343.31 194.56 340.066H190.068V338.695H196.221C196.212 340.233 196.001 341.701 195.518 343.072H198.014V337.148H199.596V351.721H198.014V344.408H194.938C194.006 346.236 192.503 347.836 190.279 349.137L189.33 347.941ZM217.684 341.35V342.686H206.838V337.307H208.49V341.35H217.684ZM204.922 346.008V344.672H219.336V346.008H204.922ZM206.715 352.125V347.502H208.385V350.754H217.789V352.125H206.715ZM239.252 345.023V346.342H224.855V345.023H239.252ZM226.49 349.049V347.713H237.424V352.494H235.719V349.049H226.49ZM226.736 343.688V337.148H237.494V338.467H228.424V339.75H237.09V341.016H228.424V342.404H237.6V343.688H226.736ZM248.516 338.133C248.507 340.225 251.064 342.185 254.158 342.598L253.508 343.969C250.933 343.556 248.674 342.22 247.646 340.365C246.617 342.22 244.358 343.556 241.801 343.969L241.133 342.598C244.218 342.185 246.767 340.251 246.775 338.133V337.271H248.516V338.133ZM240.447 346.887V345.516H254.809V346.887H248.41V352.494H246.775V346.887H240.447ZM273.916 336.744V352.494H272.316V336.744H273.916ZM260.17 348.152C262.402 346.808 263.536 343.942 263.545 341.139V339.873H260.645V338.52H267.852V339.873H265.145V341.139C265.145 343.828 266.234 346.526 268.449 347.801L267.447 349.031C265.944 348.135 264.916 346.526 264.362 344.628C263.8 346.685 262.728 348.442 261.189 349.4L260.17 348.152ZM266.691 343.688V342.316H269.135V337.078H270.717V351.703H269.135V343.688H266.691ZM281.457 339.574C281.448 341.587 282.846 343.494 285.254 344.303L284.41 345.604C282.626 344.988 281.316 343.758 280.631 342.211C279.945 343.907 278.574 345.252 276.729 345.902L275.832 344.602C278.293 343.767 279.778 341.728 279.787 339.557V339.135H276.324V337.781H284.85V339.135H281.457V339.574ZM277.924 348.363V347.01H288.33V352.494H286.66V348.363H277.924ZM286.66 346.236V336.744H288.33V340.787H290.615V342.193H288.33V346.236H286.66ZM299.439 337.008V338.396H306.734V337.008H308.404V342.246H297.787V337.008H299.439ZM295.906 344.76V343.441H310.268V344.76H295.906ZM297.629 347.273V346.025H308.457V349.682H299.281V351.053H308.896V352.336H297.646V348.486H306.805V347.273H297.629ZM299.439 340.98H306.734V339.627H299.439V340.98ZM323.732 336.744V342.896H326.264V344.303H323.732V352.529H322.08V336.744H323.732ZM312.078 339.521V338.168H319.285V343.951H313.766V347.361C316.464 347.353 318.477 347.256 320.779 346.834L320.938 348.188C318.477 348.645 316.35 348.75 313.396 348.768H312.113V342.598H317.633V339.521H312.078ZM340.08 336.762V348.205H338.41V336.762H340.08ZM327.336 341.719C327.345 339.442 329.155 337.825 331.537 337.816C333.91 337.825 335.721 339.442 335.721 341.719C335.721 344.03 333.91 345.639 331.537 345.639C329.155 345.639 327.345 344.03 327.336 341.719ZM328.971 341.719C328.962 343.204 330.069 344.18 331.537 344.18C332.979 344.18 334.086 343.204 334.086 341.719C334.086 340.269 332.979 339.275 331.537 339.275C330.069 339.275 328.962 340.269 328.971 341.719ZM329.779 352.16V347.045H331.467V350.807H340.555V352.16H329.779ZM127.569 370.215V371.586H116.601V364.15H127.429V365.521H118.253V370.215H127.569ZM114.808 376.42V375.031H129.222V376.42H114.808ZM142.054 372.553C145.297 372.553 147.274 373.643 147.274 375.506C147.274 377.396 145.297 378.485 142.054 378.494C138.775 378.485 136.763 377.396 136.763 375.506C136.763 373.643 138.775 372.553 142.054 372.553ZM135.374 371.041V363.729H137.009V365.996H141.14V363.729H142.792V371.041H135.374ZM137.009 369.705H141.14V367.314H137.009V369.705ZM138.433 375.506C138.424 376.561 139.777 377.158 142.054 377.158C144.312 377.158 145.648 376.561 145.64 375.506C145.648 374.46 144.312 373.871 142.054 373.871C139.777 373.871 138.424 374.46 138.433 375.506ZM145.464 372.148V362.744H147.134V366.594H149.419V368.018H147.134V372.148H145.464ZM163.868 362.744V378.494H162.269V370.373H160.405V377.686H158.823V363.061H160.405V369.002H162.269V362.744H163.868ZM150.14 373.291C150.605 373.291 151.142 373.291 151.722 373.282V366.031H150.474V364.66H157.786V366.031H156.538V373.089C157.065 373.036 157.575 372.983 158.05 372.922L158.138 374.152C155.659 374.627 152.363 374.697 150.333 374.697L150.14 373.291ZM153.251 373.256C153.831 373.238 154.42 373.221 155.009 373.186V366.031H153.251V373.256ZM180.269 369.969V371.252H165.854V369.969H180.269ZM167.56 373.555V372.359H178.493V375.822H169.247V377.123H178.985V378.301H167.577V374.715H176.841V373.555H167.56ZM167.665 364.326V363.148H178.458V366.559H169.353V367.754H178.722V368.932H167.7V365.451H176.788V364.326H167.665ZM199.341 362.744V378.494H197.741V362.744H199.341ZM185.595 374.152C187.827 372.808 188.961 369.942 188.97 367.139V365.873H186.069V364.52H193.276V365.873H190.569V367.139C190.569 369.828 191.659 372.526 193.874 373.801L192.872 375.031C191.369 374.135 190.341 372.526 189.787 370.628C189.225 372.685 188.152 374.442 186.614 375.4L185.595 374.152ZM192.116 369.688V368.316H194.56V363.078H196.142V377.703H194.56V369.688H192.116ZM208.481 372.641C211.892 372.641 214.045 373.722 214.054 375.559C214.045 377.387 211.892 378.468 208.481 378.459C205.106 378.468 202.944 377.387 202.944 375.559C202.944 373.722 205.106 372.641 208.481 372.641ZM201.397 371.34V369.986H207.146V367.033H208.78V369.986H215.724V371.34H201.397ZM203.067 364.854V363.518H213.931V364.836C213.939 366.093 213.939 367.394 213.491 369.02L211.856 368.844C212.278 367.235 212.278 366.075 212.278 364.854H203.067ZM204.614 375.559C204.597 376.578 206.1 377.167 208.481 377.176C210.89 377.167 212.384 376.578 212.401 375.559C212.384 374.521 210.89 373.915 208.481 373.906C206.1 373.915 204.597 374.521 204.614 375.559ZM229.312 362.744V366.699H231.597V368.105H229.312V371.92H227.642V362.744H229.312ZM216.954 365.627V364.291H220.821V362.604H222.491V364.291H226.341V365.627H216.954ZM217.815 369.037C217.807 367.358 219.354 366.269 221.647 366.277C223.915 366.269 225.462 367.358 225.462 369.037C225.462 370.716 223.915 371.814 221.647 371.797C219.354 371.814 217.807 370.716 217.815 369.037ZM219.239 378.301V372.57H220.892V374.1H227.642V372.57H229.312V378.301H219.239ZM219.433 369.037C219.415 369.978 220.312 370.558 221.647 370.566C222.983 370.558 223.88 369.978 223.897 369.037C223.88 368.114 222.983 367.517 221.647 367.525C220.312 367.517 219.415 368.114 219.433 369.037ZM220.892 376.965H227.642V375.4H220.892V376.965ZM245.571 362.744V378.494H243.901V362.744H245.571ZM233.46 374.486V364.273H235.112V373.045C237.415 373.036 239.832 372.834 242.354 372.324L242.583 373.73C239.797 374.302 237.266 374.495 234.778 374.486H233.46ZM260.319 362.744V368.844H262.851V370.215H260.319V378.529H258.649V362.744H260.319ZM248.718 374.609V364.256H256.083V365.609H250.388V373.221C253.033 373.212 255.011 373.098 257.261 372.693L257.472 374.1C255.002 374.539 252.91 374.618 249.983 374.609H248.718ZM265.399 377.123C264.714 377.114 264.143 376.561 264.151 375.875C264.143 375.189 264.714 374.627 265.399 374.627C266.076 374.627 266.639 375.189 266.647 375.875C266.639 376.561 266.076 377.114 265.399 377.123Z" fill="black"/>
<rect width="382" height="64" transform="translate(0 424)" fill="#455767"/>
<path d="M187.297 446.016V452.25H190.297V454.078H187.297V460.148H185.07V446.016H187.297ZM170.633 457.805C172.262 457.805 174.148 457.805 176.117 457.758V456.34C173.727 456.07 172.203 454.945 172.227 453.258C172.203 451.336 174.207 450.141 177.219 450.164C180.23 450.141 182.199 451.336 182.211 453.258C182.199 454.934 180.711 456.059 178.344 456.34V457.676C180.219 457.582 182.117 457.43 183.875 457.172L184.062 458.766C179.551 459.551 174.57 459.586 170.867 459.586L170.633 457.805ZM171.172 449.461V447.797H176.117V445.828H178.344V447.797H183.289V449.461H171.172ZM173.258 462.867V461.133H187.297V466.992H185.07V462.867H173.258ZM174.336 453.258C174.336 454.242 175.426 454.887 177.219 454.875C178.988 454.887 180.09 454.242 180.078 453.258C180.09 452.25 178.988 451.664 177.219 451.688C175.426 451.664 174.336 452.25 174.336 453.258ZM208.93 446.016V461.273H206.703V446.016H208.93ZM191.938 452.625C191.949 449.59 194.363 447.434 197.539 447.422C200.703 447.434 203.117 449.59 203.117 452.625C203.117 455.707 200.703 457.852 197.539 457.852C194.363 457.852 191.949 455.707 191.938 452.625ZM194.117 452.625C194.105 454.605 195.582 455.906 197.539 455.906C199.461 455.906 200.938 454.605 200.938 452.625C200.938 450.691 199.461 449.367 197.539 449.367C195.582 449.367 194.105 450.691 194.117 452.625ZM195.195 466.547V459.727H197.445V464.742H209.562V466.547H195.195Z" fill="white"/>
</g>
<defs>
<clipPath id="clip0_14_116">
<rect width="382" height="488" rx="20" fill="white"/>
</clipPath>
</defs>
</svg>
