<svg width="64" height="64" viewBox="0 0 64 64" fill="none" xmlns="http://www.w3.org/2000/svg">
<g clip-path="url(#clip0_1237_3502)">
<mask id="mask0_1237_3502" style="mask-type:luminance" maskUnits="userSpaceOnUse" x="0" y="0" width="64" height="64">
<path d="M64 0H0V64H64V0Z" fill="white"/>
</mask>
<g mask="url(#mask0_1237_3502)">
<path d="M64 0H0V64H64V0Z" fill="#A5B6CE"/>
<path d="M64 64C64 52.2989 54.0619 44.0936 42.3608 44.0936H14.5811C7.47472 44.0936 0.00603774 52.3049 0 64H64Z" fill="white"/>
<path d="M23.1909 51.4053L30.5026 44.0936H19.043V49.6845C19.043 51.8521 21.6633 52.9328 23.1909 51.4053Z" fill="#E5E1DC"/>
<path d="M38.0439 51.4053L30.7322 44.0936H42.1918V49.6845C42.1918 51.8521 39.5714 52.9328 38.0439 51.4053Z" fill="#E5E1DC"/>
<path d="M30.6778 48.0604H29.7661V63.9819H30.6778V48.0604Z" fill="#E5E1DC"/>
<path d="M24.7668 10.2219H42.8559C45.3857 10.2219 47.4325 12.2687 47.4325 14.7985V32.6098C47.4325 36.5887 44.2084 39.8068 40.2355 39.8068H37.9472C36.8302 39.8068 35.9246 40.7125 35.9246 41.8294V44.16H24.8634L24.7729 10.2219H24.7668Z" fill="#FADDDC"/>
<path d="M40.0965 33.2679H41.4671C42.6927 33.2679 43.6889 32.2717 43.6889 31.046V24.3502C43.6889 23.837 43.2723 23.4204 42.7591 23.4204C42.2459 23.4204 41.8293 23.837 41.8293 24.3502V30.1585C41.8293 30.8528 41.2678 31.4204 40.5674 31.4204H40.0905C39.5772 31.4204 39.1606 31.837 39.1606 32.3502C39.1606 32.8634 39.5772 33.28 40.0905 33.28L40.0965 33.2679Z" fill="#E0B1BB"/>
<path d="M22.412 27.5623H26.1675V19.5864H22.412V27.5623Z" fill="#FADDDC"/>
<path d="M50.8255 13.434C50.8255 9.51548 48.4104 2.41511 39.215 2.41511C38.9372 2.41511 38.6595 2.46945 38.3878 2.42718C28.0029 0.784918 22.0014 5.21662 19.375 11.6287C18.0467 12.5283 17.1772 14.0498 17.1772 15.7766C17.1772 17.5034 18.1131 19.1094 19.5078 19.997C20.3772 22.2068 20.824 24.4227 22.0678 26.3608C22.0678 26.3608 22.104 28.4619 22.104 29.8928C22.104 32.0604 24.8331 32.0544 24.8331 32.0544L24.821 27.2C23.2089 26.6083 22.8225 25.2136 22.8225 23.0702C22.8225 20.9268 24.7244 20.9268 24.7244 20.9268V23.4687C24.7244 24.2294 25.3403 24.8393 26.095 24.8393C26.8497 24.8393 27.4655 24.2234 27.4655 23.4687V21.2649C27.4655 20.8966 27.8157 20.8483 28.184 20.8483C42.1252 20.8483 40.7184 11.3027 42.2218 11.3027C43.7252 11.3027 43.3629 18.1796 47.372 18.1796C47.4142 18.1796 47.4444 20.2868 47.4444 20.2868C47.4444 20.2868 50.8316 18.9947 50.8316 13.44L50.8255 13.434Z" fill="#3E2967"/>
<path d="M33.6303 24.0604C33.6605 24.797 34.2763 25.3766 35.019 25.3464C35.7616 25.3162 36.3352 24.7004 36.305 23.9577C36.2748 23.2211 35.659 22.6415 34.9163 22.6717C34.1797 22.7019 33.6001 23.3177 33.6303 24.0604Z" fill="#757570"/>
</g>
</g>
<defs>
<clipPath id="clip0_1237_3502">
<rect width="64" height="64" rx="16" fill="white"/>
</clipPath>
</defs>
</svg>
