<svg width="64" height="64" viewBox="0 0 64 64" fill="none" xmlns="http://www.w3.org/2000/svg">
<g clip-path="url(#clip0_1237_3785)">
<mask id="mask0_1237_3785" style="mask-type:luminance" maskUnits="userSpaceOnUse" x="0" y="0" width="64" height="64">
<path d="M64.0001 0H0.00610352V64H64.0001V0Z" fill="white"/>
</mask>
<g mask="url(#mask0_1237_3785)">
<path d="M64.0001 0H0.00610352V64H64.0001V0Z" fill="#A5B6CE"/>
<path d="M0.00613469 63.9759C0.00613469 54.08 -0.965849 46.0619 17.7856 46.0619H45.9188C55.8137 46.0619 63.8311 54.08 63.8311 63.9759H0.00613469Z" fill="#74E0C1"/>
<path d="M22.7722 46.1041H39.8755V46.7864C39.8755 51.3268 36.1868 55.0158 31.6468 55.0158H31.0009C26.4609 55.0158 22.7722 51.3268 22.7722 46.7864V46.1041Z" fill="#65CEAE"/>
<path d="M25.4528 15.4808H49.7766V34.4755C49.7766 38.7442 46.3173 42.2038 42.049 42.2038H39.5919C38.3965 42.2038 37.4245 44.323 37.4245 45.5245V46.2491C37.4245 49.5336 34.7621 52.1962 31.4779 52.1962C28.1997 52.1962 25.5434 49.5457 25.5313 46.2672L25.4468 15.4808H25.4528Z" fill="#FADDDC"/>
<path d="M41.9705 35.1879H43.4377C44.7539 35.1879 45.8226 34.1192 45.8226 32.803V25.6121C45.8226 25.0626 45.3758 24.6158 44.8264 24.6158C44.2769 24.6158 43.8301 25.0626 43.8301 25.6121V31.843C43.8301 32.5917 43.2264 33.1955 42.4777 33.1955H41.9645C41.4151 33.1955 40.9683 33.6423 40.9683 34.1917C40.9683 34.7411 41.4151 35.1879 41.9645 35.1879H41.9705Z" fill="#E0B1BB"/>
<path d="M36.4827 25.8475C36.4827 26.5781 37.0744 27.1758 37.811 27.1758C38.5476 27.1758 39.1393 26.5841 39.1393 25.8475C39.1393 25.117 38.5476 24.5192 37.811 24.5192C37.0804 24.5192 36.4827 25.1109 36.4827 25.8475Z" fill="#757570"/>
<path d="M32.8482 5.88074C29.1414 7.34791 23.1827 10.4694 22.0115 17.8898C21.4138 21.6634 24.0098 32.7789 24.0098 32.7789C24.3781 33.9804 25.2474 33.8958 25.4949 33.9804L25.4527 26.4694V26.1796C25.4527 26.0347 25.4768 25.8898 25.513 25.757C25.7002 25.0687 26.322 24.5555 27.0767 24.5555H27.2759C28.1754 24.5555 28.8999 25.28 28.8999 26.1796V27.5502L28.924 27.5019V28.6551C28.924 29.1321 29.3104 29.5185 29.7874 29.5185C30.2643 29.5185 30.6507 29.1321 30.6507 28.6551V24.96C30.6507 23.523 31.0129 22.086 31.8098 20.8906C32.498 19.8521 33.7719 18.0589 35.7642 17.606C37.7564 17.1532 43.5642 17.5094 45.973 16.9419C49.6134 16.0785 50.6216 11.1456 49.7341 7.6498C48.9674 4.62489 39.1631 3.39923 32.8482 5.89282V5.88074Z" fill="#3E2967"/>
<path d="M49.4086 8.97205C49.6018 9.03846 51.7512 9.81733 51.8176 12.6188C51.884 15.4203 49.7346 22.9011 49.7346 22.9011C49.7346 22.9011 50.0606 15.6739 47.7844 15.4143C45.5082 15.1547 49.4146 8.97205 49.4146 8.97205H49.4086Z" fill="#3E2967"/>
</g>
</g>
<defs>
<clipPath id="clip0_1237_3785">
<rect width="64" height="64" rx="16" fill="white"/>
</clipPath>
</defs>
</svg>
