<svg width="64" height="64" viewBox="0 0 64 64" fill="none" xmlns="http://www.w3.org/2000/svg">
<g clip-path="url(#clip0_1237_3784)">
<mask id="mask0_1237_3784" style="mask-type:luminance" maskUnits="userSpaceOnUse" x="0" y="0" width="64" height="64">
<path d="M64 0H0V64H64V0Z" fill="white"/>
</mask>
<g mask="url(#mask0_1237_3784)">
<path d="M64 0H0V64H64V0Z" fill="#CED6E4"/>
<path d="M0 64C0 54.5087 2.62038 46.8166 19.1034 46.8166H43.3992C52.8906 46.8166 64 45.7117 64 64H0Z" fill="#502489"/>
<path d="M25.5456 14.4423H49.2195V35.6287C49.2195 39.7826 45.8505 43.1517 41.6965 43.1517H39.3056C38.1403 43.1517 37.1924 44.0996 37.1924 45.2649V47.4083C37.1924 50.6023 34.6022 53.1925 31.4082 53.1925C28.2203 53.1925 25.6301 50.6083 25.6241 47.4204L25.5396 14.4423H25.5456Z" fill="#FADDDC"/>
<path d="M41.5577 36.317H42.9886C44.2686 36.317 45.3131 35.2785 45.3131 33.9925V26.9947C45.3131 26.4574 44.8784 26.0287 44.3471 26.0287C43.8158 26.0287 43.3811 26.4634 43.3811 26.9947V33.0626C43.3811 33.7872 42.7894 34.3789 42.0648 34.3789H41.5637C41.0263 34.3789 40.5977 34.8136 40.5977 35.3449C40.5977 35.8823 41.0324 36.311 41.5637 36.311L41.5577 36.317Z" fill="#E0B1BB"/>
<path d="M23.2574 25.0505V16.1388C23.2574 14.1887 24.8393 12.6007 26.7956 12.6007H28.9329V8.80903H38.5691C39.7103 6.27318 42.5057 4.64299 45.585 5.32526C47.8974 5.83846 49.751 7.74639 50.2159 10.0649C50.9646 13.8143 48.308 17.0807 44.794 17.4309V17.4913H40.942H31.5171C30.0257 17.4913 28.8122 18.6988 28.8122 20.1962V24.3019C28.8122 26.0588 27.3872 27.4777 25.6363 27.4777H25.6061C25.6061 27.4777 25.588 27.4777 25.5759 27.4777V31.9819H23.2454V25.0505H23.2574Z" fill="#3E2967"/>
<path d="M40.7548 36.317H43.8099C45.1382 36.317 46.2129 37.3917 46.2129 38.72V39.1185L43.4175 38.1705C42.9586 38.0136 42.4695 38.0015 42.0046 38.1283L38.3518 39.1185V38.72C38.3518 37.3917 39.4265 36.317 40.7548 36.317Z" fill="#3E2967"/>
<path d="M42.0709 41.8174C42.4573 41.7328 42.8558 41.763 43.2241 41.8958L44.5162 42.3668V42.7653C44.5162 44.0936 43.4415 45.1683 42.1132 45.1683H41.9079C40.5796 45.1683 39.5049 44.0936 39.5049 42.7653V42.3668L42.0709 41.8174Z" fill="#3E2967"/>
<path d="M37.6514 26.88C37.6514 27.5804 37.0839 28.1539 36.3775 28.1539C35.6711 28.1539 35.1035 27.5864 35.1035 26.88C35.1035 26.1736 35.6711 25.606 36.3775 25.606C37.0839 25.606 37.6514 26.1736 37.6514 26.88Z" fill="#757570"/>
</g>
</g>
<defs>
<clipPath id="clip0_1237_3784">
<rect width="64" height="64" rx="16" fill="white"/>
</clipPath>
</defs>
</svg>
