<svg width="64" height="64" viewBox="0 0 64 64" fill="none" xmlns="http://www.w3.org/2000/svg">
<g clip-path="url(#clip0_1237_3312)">
<mask id="mask0_1237_3312" style="mask-type:luminance" maskUnits="userSpaceOnUse" x="0" y="0" width="64" height="64">
<path d="M64 0H0V64H64V0Z" fill="white"/>
</mask>
<g mask="url(#mask0_1237_3312)">
<path d="M64 0H0V64H64V0Z" fill="#E8CB8B"/>
<path d="M0 64C0 51.9245 13.2226 46.6234 23.4566 46.6234H47.7645C57.2196 46.6234 63.9879 52.8302 63.994 64H0Z" fill="#A4B2D3"/>
<path d="M46.044 37.2412L23.9612 36.4198C21.0888 36.313 18.6736 38.5549 18.5668 41.4273C18.46 44.2997 20.7019 46.7149 23.5743 46.8217L45.6572 47.643C48.5295 47.7499 50.9447 45.5079 51.0515 42.6355C51.1584 39.7631 48.9164 37.348 46.044 37.2412Z" fill="#A4B2D3"/>
<path d="M34.6507 46.7925L43.822 42.0528C45.096 41.3947 45.9171 40.1027 45.9714 38.6717C46.0016 37.8808 45.3858 37.2226 44.6069 37.1925L25.4009 36.48C24.616 36.4498 23.9578 37.0657 23.9277 37.8445C23.8733 39.2815 24.5978 40.634 25.8235 41.3826L34.6507 46.7925Z" fill="#3E2967"/>
<path d="M40.1629 44.0634L41.4007 10.56L24.2837 9.92604C21.1079 9.80529 18.4392 12.2868 18.3184 15.4626L17.8897 29.3374C17.6965 34.4876 21.7177 38.8106 26.8618 39.0038L27.1154 39.0159C28.2384 39.0581 29.1199 40.006 29.0777 41.1291L28.9871 43.5442L34.5539 46.9555L40.1569 44.0634H40.1629Z" fill="#FADDDC"/>
<path d="M24.8514 32.966L23.4688 32.9117C22.231 32.8634 21.265 31.8249 21.3072 30.5872L21.5608 23.8309C21.5789 23.3117 22.0137 22.9132 22.5329 22.9313C23.0521 22.9494 23.4506 23.3841 23.4325 23.9034L23.2152 29.76C23.191 30.4604 23.7344 31.0521 24.4408 31.0762L24.9238 31.0943C25.4431 31.1125 25.8416 31.5472 25.8235 32.0664C25.8054 32.5857 25.3706 32.9841 24.8514 32.966Z" fill="#E0B1BB"/>
<path d="M27.991 47.9034C28.5478 47.9034 28.9993 47.452 28.9993 46.8951C28.9993 46.3382 28.5478 45.8868 27.991 45.8868C27.4341 45.8868 26.9827 46.3382 26.9827 46.8951C26.9827 47.452 27.4341 47.9034 27.991 47.9034Z" fill="#F1EFEA"/>
<path d="M26.8378 63.1668C26.4816 63.1547 26.2039 62.8528 26.216 62.4966L27.3329 46.871C27.345 46.5147 27.6469 46.237 28.0031 46.2491C28.3594 46.2611 28.6371 46.563 28.625 46.9193L27.508 62.5449C27.496 62.9011 27.1941 63.1789 26.8378 63.1668Z" fill="white"/>
<path d="M39.4082 48.3321C39.9651 48.3321 40.4165 47.8806 40.4165 47.3238C40.4165 46.7669 39.9651 46.3155 39.4082 46.3155C38.8513 46.3155 38.3999 46.7669 38.3999 47.3238C38.3999 47.8806 38.8513 48.3321 39.4082 48.3321Z" fill="#F1EFEA"/>
<path d="M38.2673 63.5955C37.9111 63.5834 37.6333 63.2815 37.6454 62.9253L38.7624 47.2996C38.7745 46.9434 39.0763 46.6657 39.4326 46.6777C39.7888 46.6898 40.0665 46.9917 40.0545 47.3479L38.9375 62.9736C38.9254 63.3298 38.6235 63.6076 38.2673 63.5955Z" fill="white"/>
<path opacity="0.5" d="M29.5848 28.0393H26.9946C25.3523 28.0393 24.012 26.6989 24.012 25.0566C24.012 23.4144 25.3523 22.074 26.9946 22.074H29.5848C31.2271 22.074 32.5674 23.4144 32.5674 25.0566C32.5674 26.6989 31.2271 28.0393 29.5848 28.0393Z" fill="white"/>
<path opacity="0.5" d="M17.9501 28.0393H17.135C15.4927 28.0393 14.1523 26.6989 14.1523 25.0566C14.1523 23.4144 15.4927 22.074 17.135 22.074H17.9501C19.5923 22.074 20.9327 23.4144 20.9327 25.0566C20.9327 26.6989 19.5923 28.0393 17.9501 28.0393Z" fill="white"/>
<path d="M30.2612 20.2747H26.3186C25.0144 20.2747 23.8914 21.0657 23.3903 22.1887H21.5548C21.0537 21.0657 19.9307 20.2747 18.6265 20.2747H16.459C14.6899 20.2747 13.2529 21.7117 13.2529 23.4808V24.8332C13.2529 26.6023 14.6899 28.0392 16.459 28.0392H18.6265C20.3956 28.0392 21.8326 26.6023 21.8326 24.8332V23.9879H23.1065V24.8332C23.1065 26.6023 24.5435 28.0392 26.3126 28.0392H30.2552C32.0243 28.0392 33.4612 26.6023 33.4612 24.8332V23.4808C33.4612 21.7117 32.0243 20.2747 30.2552 20.2747H30.2612ZM20.0333 24.8332C20.0333 25.606 19.4054 26.24 18.6265 26.24H16.459C15.6801 26.24 15.0522 25.6121 15.0522 24.8332V23.4808C15.0522 22.7079 15.6801 22.074 16.459 22.074H18.6265C19.3993 22.074 20.0333 22.7079 20.0333 23.4808V24.8332ZM31.668 24.8332C31.668 25.606 31.0401 26.24 30.2612 26.24H26.3186C25.5458 26.24 24.9118 25.6121 24.9118 24.8332V23.4808C24.9118 22.7079 25.5397 22.074 26.3186 22.074H30.2612C31.0341 22.074 31.668 22.7079 31.668 23.4808V24.8332Z" fill="#9C9E9F"/>
<path d="M44.6612 16.5796C45.0053 13.1502 43.8581 9.69056 41.4068 7.26943C38.3095 4.2083 33.5819 2.58415 26.9223 3.63471C26.6687 3.67698 26.4091 3.62264 26.1495 3.62264C18.554 3.62264 15.7766 9.90188 15.8128 13.7057C15.8672 18.8921 18.4815 20.2928 18.4815 20.2928C18.4815 20.2928 18.5842 20.2808 18.6264 20.2808C22.7864 20.2808 22.0619 11.0913 23.4627 11.0913C24.8634 11.0913 22.6717 19.8762 35.1095 20.4317C35.9125 20.4679 36.5525 21.114 36.5525 21.923V24.5917C36.5525 25.0807 36.9389 25.4732 37.4279 25.4732C37.917 25.4732 38.3155 25.0808 38.3155 24.5857V21.766C38.3155 21.0657 38.8347 20.4438 39.5291 20.4075C40.2717 20.3713 40.8876 20.957 40.8876 21.6936L40.6581 30.9615V31.0038C41.5698 29.5789 44.0755 22.4785 44.6672 16.5736L44.6612 16.5796Z" fill="#3E2967"/>
</g>
</g>
<defs>
<clipPath id="clip0_1237_3312">
<rect width="64" height="64" rx="16" fill="white"/>
</clipPath>
</defs>
</svg>
