<svg width="64" height="64" viewBox="0 0 64 64" fill="none" xmlns="http://www.w3.org/2000/svg">
<g clip-path="url(#clip0_1237_3419)">
<mask id="mask0_1237_3419" style="mask-type:luminance" maskUnits="userSpaceOnUse" x="0" y="0" width="64" height="64">
<path d="M64 0H0V64H64V0Z" fill="white"/>
</mask>
<g mask="url(#mask0_1237_3419)">
<path d="M64 0H0V64H64V0Z" fill="#BC9CA4"/>
<path d="M64.2355 64.0845C64.2355 52.5585 54.8891 43.2121 43.363 43.2121H15.994C4.46792 43.2121 0.00603774 52.5585 0 64.0785H64.2355V64.0845Z" fill="#4D6059"/>
<path d="M35.3086 55.9637H34.4089V63.9637H35.3086V55.9637Z" fill="#2E423A"/>
<path d="M38.563 43.1819L33.9019 56.2959L23.8853 43.1819H38.563Z" fill="#F4D3D3"/>
<path d="M23.8853 43.1819L33.9019 56.2959L24 59.1457L23.8853 43.1819Z" fill="#2E423A"/>
<path d="M38.6173 43.1215L44.3169 58.3426L33.9019 56.2958L38.6173 43.1215Z" fill="#2E423A"/>
<path d="M25.4492 13.0716H49.4673V31.8188C49.4673 36.0331 46.0499 39.4505 41.8356 39.4505H39.4084C38.225 39.4505 37.265 41.5456 37.265 42.729V43.4475C37.265 46.6897 34.6386 49.3162 31.3963 49.3162C28.1601 49.3162 25.5337 46.6958 25.5276 43.4656L25.4431 13.0777L25.4492 13.0716Z" fill="#F4D3D3"/>
<path d="M41.7509 32.5192H43.2C44.5041 32.5192 45.5547 31.4626 45.5547 30.1645V23.0702C45.5547 22.5268 45.1139 22.086 44.5706 22.086C44.0272 22.086 43.5864 22.5268 43.5864 23.0702V29.2226C43.5864 29.9592 42.9887 30.557 42.2521 30.557H41.7449C41.2015 30.557 40.7607 30.9977 40.7607 31.5411C40.7607 32.0845 41.2015 32.5253 41.7449 32.5253L41.7509 32.5192Z" fill="#E0B1BB"/>
<path d="M36.3352 23.3056C36.3352 24.0301 36.9209 24.6158 37.6454 24.6158C38.3699 24.6158 38.9556 24.0301 38.9556 23.3056C38.9556 22.5811 38.3699 21.9954 37.6454 21.9954C36.9209 21.9954 36.3352 22.5811 36.3352 23.3056Z" fill="#757570"/>
<path d="M35.6288 16.0544C35.6288 16.0544 35.4115 16.0664 35.0613 16.1027C35.2424 16.0785 35.4296 16.0544 35.6288 16.0544Z" fill="#3E2967"/>
<path d="M25.5095 23.203C25.6967 22.5208 26.3125 22.0196 27.0491 22.0196H27.2484C28.1359 22.0196 28.8544 22.7381 28.8544 23.6257V24.9781L28.8786 24.9298V26.0649C28.8786 26.5359 29.259 26.9162 29.7299 26.9162C30.2008 26.9162 30.5812 26.5359 30.5812 26.0649V22.4181C30.5812 20.9993 30.9435 19.5864 31.7224 18.403C32.3986 17.3766 33.431 16.3804 34.9284 16.1268C32.7427 16.3804 26.0469 17.6181 25.5095 23.2091V23.203Z" fill="#674E99"/>
<path d="M33.1291 2.90414C29.3615 3.24829 26.1917 5.59697 25.4732 9.17131C25.4732 9.17131 20.6611 10.9887 20.6611 15.9517C20.6611 19.7192 21.5668 21.9713 23.36 22.8407L25.0023 30.1162C25.0023 30.4362 25.2015 30.6475 25.4491 30.7321V23.6256C25.4491 23.4807 25.4732 23.3419 25.5094 23.209C26.0468 17.6 32.7728 16.3683 34.9464 16.1207L35.1698 16.1026C35.2 16.1026 41.2377 16.5856 46.7381 17.2679C48.7064 17.0626 50.6083 16.4589 51.7313 14.1706C53.0234 12.486 52.8966 1.09282 33.1351 2.91017L33.1291 2.90414Z" fill="#3E2967"/>
</g>
</g>
<defs>
<clipPath id="clip0_1237_3419">
<rect width="64" height="64" rx="16" fill="white"/>
</clipPath>
</defs>
</svg>
