<svg width="64" height="64" viewBox="0 0 64 64" fill="none" xmlns="http://www.w3.org/2000/svg">
<g clip-path="url(#clip0_1237_3376)">
<mask id="mask0_1237_3376" style="mask-type:luminance" maskUnits="userSpaceOnUse" x="0" y="0" width="64" height="64">
<path d="M64 0H0V64H64V0Z" fill="white"/>
</mask>
<g mask="url(#mask0_1237_3376)">
<path d="M64 0H0V64H64V0Z" fill="#AFAECC"/>
<path d="M64 48C64 48 52.4981 43.6287 47.9577 43.6287H16.7426C8.17509 43.9125 0 45.6211 0 45.6211V64.0061H64V48.0061V48Z" fill="#74E0C1"/>
<path d="M58.2582 59.5019H46.5994V63.4928H58.2582V59.5019Z" fill="#5DC9A8"/>
<path d="M21.3434 56.7607H9.68457V60.7517H21.3434V56.7607Z" fill="#5DC9A8"/>
<path d="M52.1055 46.6596H44.8965V50.6506H52.1055V46.6596Z" fill="#5DC9A8"/>
<path d="M36.8725 13.4944H13.428V31.7947C13.428 35.9064 16.7608 39.2393 20.8725 39.2393H23.2393C24.3925 39.2393 25.3284 40.1751 25.3284 41.3283V43.7736C25.3284 46.9374 27.8944 49.5034 31.0582 49.5034C34.2159 49.5034 36.7759 46.9494 36.788 43.7917L36.8665 13.4944H36.8725Z" fill="#FADDDC"/>
<path d="M21.0174 32.483H19.6046C18.3367 32.483 17.3042 31.4506 17.3042 30.1826V23.2574C17.3042 22.726 17.7329 22.2974 18.2642 22.2974C18.7955 22.2974 19.2242 22.726 19.2242 23.2574V29.2649C19.2242 29.9834 19.8099 30.5691 20.5284 30.5691H21.0234C21.5548 30.5691 21.9834 30.9977 21.9834 31.5291C21.9834 32.0604 21.5548 32.4891 21.0234 32.4891L21.0174 32.483Z" fill="#E0B1BB"/>
<path d="M35.8159 7.48074C35.5321 6.0981 34.3125 5.05961 32.8453 5.05961C32.5253 5.05961 32.2295 5.11999 31.9397 5.21056C31.5472 3.99697 30.4181 3.11546 29.0717 3.11546C28.1902 3.11546 27.4053 3.49584 26.8498 4.09357C25.8536 2.87395 24.3563 2.08301 22.6596 2.08301C20.6853 2.08301 18.9766 3.14565 18.0227 4.71546C17.5155 4.43169 16.9359 4.25659 16.308 4.25659C14.4483 4.25659 12.9449 5.69357 12.788 7.51093C10.6023 7.75848 8.9238 9.70263 9.15927 12.003C9.37663 14.1464 11.3389 15.6981 13.4944 15.6981H30.243C31.5774 15.6981 32.6642 16.7789 32.6642 18.1192V19.0672C32.6642 21.3373 34.5057 23.1728 36.7698 23.1728C37.4521 23.1728 38.0257 22.6536 38.0921 21.9773L39.1547 11.3207C39.354 9.30414 37.8144 7.56527 35.8159 7.47471V7.48074Z" fill="#3E2967"/>
<path d="M23.3901 23.5351C23.3901 24.2294 23.9516 24.797 24.652 24.797C25.3524 24.797 25.9139 24.2355 25.9139 23.5351C25.9139 22.8407 25.3524 22.2732 24.652 22.2732C23.9577 22.2732 23.3901 22.8347 23.3901 23.5351Z" fill="#757570"/>
<path d="M43.5441 43.6227H20.4316L26.8135 64H37.5486L43.5441 43.6227Z" fill="white"/>
</g>
</g>
<defs>
<clipPath id="clip0_1237_3376">
<rect width="64" height="64" rx="16" fill="white"/>
</clipPath>
</defs>
</svg>
