<svg width="64" height="64" viewBox="0 0 64 64" fill="none" xmlns="http://www.w3.org/2000/svg">
<g clip-path="url(#clip0_1237_3884)">
<rect width="64" height="64" rx="16" fill="#A9B791"/>
<mask id="mask0_1237_3884" style="mask-type:luminance" maskUnits="userSpaceOnUse" x="0" y="0" width="64" height="64">
<path d="M64 0H0V64H64V0Z" fill="white"/>
</mask>
<g mask="url(#mask0_1237_3884)">
<path d="M18.1602 52.1L24.3302 103.18L40.2802 52.1H18.1602Z" fill="white"/>
<path d="M-11.78 131.41L73.68 130.21L70.89 73.58C68.77 58.76 71.47 49.95 46.11 48.15H14.19C-3.91003 50.11 -6.13003 57.25 -6.13003 68.47L-11.78 131.41Z" fill="#18161C"/>
<path d="M57.6401 53.09C61.7101 51.37 66.4001 53.27 68.1301 57.34C68.6301 58.51 77.6801 73.89 78.4401 94.95L58.9101 98.16C58.6501 78.84 53.4701 63.83 53.3701 63.58C51.6601 59.5 53.5701 54.8 57.6501 53.09H57.6401Z" fill="#18161C"/>
<path d="M5.42006 53.66C1.31006 52.03 -3.33994 54.03 -4.96994 58.14C-5.43994 59.32 -14.1499 74.9 -14.4399 95.97L5.16006 98.75C4.99006 79.43 9.83006 64.31 9.93006 64.05C11.5501 59.94 9.54006 55.28 5.42006 53.65V53.66Z" fill="#18161C"/>
<path d="M30.76 58.31C25.4 58.31 21.06 53.96 21.06 48.61V48.2H40.47V48.61C40.47 53.97 36.12 58.31 30.77 58.31H30.76Z" fill="#3C3B42"/>
<path d="M23.6201 12.62H51.6201V34.48C51.6201 39.39 47.6401 43.38 42.7201 43.38H39.8901C38.5101 43.38 37.3901 44.5 37.3901 45.88V48.61C37.3901 52.39 34.3201 55.46 30.5401 55.45C26.7701 55.45 23.7101 52.39 23.7001 48.62L23.6001 12.62H23.6201Z" fill="#FADDDC"/>
<path d="M42.5601 35.3H44.2501C45.7701 35.3 47.0001 34.07 47.0001 32.55V24.28C47.0001 23.65 46.4901 23.13 45.8501 23.13C45.2101 23.13 44.7001 23.64 44.7001 24.28V31.45C44.7001 32.31 44.0001 33.01 43.1401 33.01H42.5501C41.9201 33.01 41.4001 33.52 41.4001 34.16C41.4001 34.8 41.9101 35.31 42.5501 35.31L42.5601 35.3Z" fill="#E0B1BB"/>
<path d="M39.76 24.63C39.76 25.46 39.09 26.13 38.26 26.13C37.43 26.13 36.76 25.46 36.76 24.63C36.76 23.8 37.43 23.13 38.26 23.13C39.09 23.13 39.76 23.8 39.76 24.63Z" fill="#3E2967"/>
<path d="M37.7101 3.86001C39.9301 3.86001 42.0201 3.02001 43.8501 1.77001C45.2401 0.82001 46.9101 0.26001 48.7201 0.26001C51.6101 0.26001 54.1601 1.69001 55.7501 3.86001C56.8001 5.30001 57.4401 7.06001 57.4401 8.97001C57.4401 12.31 55.5401 15.18 52.7801 16.64C52.4801 16.79 52.1901 16.95 51.8701 17.08C50.0501 17.82 47.9201 18.26 45.6301 18.26C42.8401 18.26 40.2801 17.62 38.2301 16.55C36.8401 15.82 35.3301 15.34 33.7601 15.34C30.7001 15.34 28.2201 17.82 28.2201 20.88V26.35C28.2201 28.82 26.2101 30.83 23.7401 30.83H23.6601C21.9501 30.83 20.5601 29.44 20.5601 27.73V13.1C20.5601 7.99001 24.7001 3.85001 29.8101 3.85001H37.7001L37.7101 3.86001Z" fill="#3E2967"/>
</g>
</g>
<defs>
<clipPath id="clip0_1237_3884">
<rect width="64" height="64" rx="16" fill="white"/>
</clipPath>
</defs>
</svg>
