<svg width="64" height="64" viewBox="0 0 64 64" fill="none" xmlns="http://www.w3.org/2000/svg">
<g clip-path="url(#clip0_1237_3266)">
<mask id="mask0_1237_3266" style="mask-type:luminance" maskUnits="userSpaceOnUse" x="0" y="0" width="64" height="64">
<path d="M63.9878 0H0.0119629V64H63.9878V0Z" fill="white"/>
</mask>
<g mask="url(#mask0_1237_3266)">
<path d="M63.9878 0H0.0119629V64H63.9878V0Z" fill="#E8CB8B"/>
<path d="M37.7939 10.4513H16.3801V29.6272C16.3801 33.3887 19.428 36.4317 23.1821 36.4317H25.3428C26.399 36.4317 27.25 37.2891 27.25 38.3396V40.5434H37.7034L37.7879 10.4513H37.7939Z" fill="#FADDDC"/>
<path d="M23.3087 30.2491H22.0171C20.8583 30.2491 19.9167 29.3072 19.9167 28.1479V21.8143C19.9167 21.3313 20.3091 20.9389 20.7919 20.9389C21.2747 20.9389 21.667 21.3313 21.667 21.8143V27.3026C21.667 27.9608 22.1982 28.4921 22.856 28.4921H23.3087C23.7915 28.4921 24.1838 28.8845 24.1838 29.3676C24.1838 29.8506 23.7915 30.243 23.3087 30.243V30.2491Z" fill="#E0B1BB"/>
<path d="M39.2665 7.33584L39.5562 3.9064H24.6788C20.5143 3.9064 16.8146 6.56904 15.4868 10.5177L12.5837 19.1698H16.1386C25.0228 18.0166 29.2054 11.3268 29.2054 11.3268C30.7746 20.2143 37.8844 23.8732 37.8844 23.8732C37.8844 23.8732 40.1477 20.3532 41.2642 16.2415C42.1515 12.9751 40.1356 8.87546 39.2725 7.3298L39.2665 7.33584Z" fill="#3E2967"/>
<path d="M27.0327 21.9834C27.0327 22.6174 27.5457 23.1366 28.1855 23.1366C28.8252 23.1366 29.3383 22.6234 29.3383 21.9834C29.3383 21.3494 28.8252 20.8302 28.1855 20.8302C27.5518 20.8302 27.0327 21.3434 27.0327 21.9834Z" fill="#757570"/>
<path d="M42.3506 40.4347H24.4193C8.36493 40.4347 -0.320089 53.1562 0.0118611 64H63.9877C64.4826 51.8098 52.3393 40.4347 42.3506 40.4347Z" fill="#9A9A99"/>
<path d="M32.3922 40.3743H21.8362V45.4279C21.8362 47.3841 24.2021 48.3623 25.5842 46.9796L32.2172 40.5494L38.995 47.04C40.3771 48.4226 42.743 47.4445 42.743 45.4883V40.3743H32.3922Z" fill="white"/>
</g>
</g>
<defs>
<clipPath id="clip0_1237_3266">
<rect width="64" height="64" rx="16" fill="white"/>
</clipPath>
</defs>
</svg>
