<svg width="64" height="64" viewBox="0 0 64 64" fill="none" xmlns="http://www.w3.org/2000/svg">
<g clip-path="url(#clip0_1237_3786)">
<mask id="mask0_1237_3786" style="mask-type:luminance" maskUnits="userSpaceOnUse" x="0" y="0" width="64" height="64">
<path d="M64 0.293091H0V63.695H64V0.293091Z" fill="white"/>
</mask>
<g mask="url(#mask0_1237_3786)">
<path d="M64 0.293091H0V63.695H64V0.293091Z" fill="#7A9993"/>
<path d="M0.235384 68.3664C0.235384 58.563 -0.736692 50.6198 18.0165 50.6198H46.1524C56.0482 50.6198 64.0663 58.563 64.0663 68.3664H0.235384Z" fill="#3E2967"/>
<path d="M25.6845 20.3304H50.0105V39.1476C50.0105 43.3764 46.5509 46.8037 42.2822 46.8037H39.8249C38.6294 46.8037 37.6573 48.9032 37.6573 50.0934V50.8112C37.6573 54.065 34.9947 56.7028 31.7102 56.7028C28.4317 56.7028 25.7751 54.077 25.763 50.8291L25.6785 20.3304H25.6845Z" fill="#FADDDC"/>
<path d="M30.6537 2.02767C28.6311 2.22506 24.2175 3.91777 21.6031 6.11291C18.9888 8.30207 15.4688 11.7892 14.3639 12.8837C13.259 13.9783 9.31633 17.9619 8.42879 19.3555C6.72011 22.0471 4.40766 27.526 5.21067 34.1951C6.01369 40.8703 13.1563 48.2393 21.905 50.1353C30.6537 52.0254 43.1216 53.2217 50.7654 47.7428C58.4092 42.2639 61.2227 37.3832 60.3171 30.3133C59.4114 23.2434 55.8914 18.9548 53.8809 16.4666C51.8703 13.9783 51.9729 9.59403 47.4446 6.70506C42.9224 3.81609 38.7986 1.22618 30.6537 2.02169V2.02767Z" fill="#FCC31E"/>
<path d="M32.1026 44.9256C39.0918 44.9256 44.7577 39.3127 44.7577 32.3888C44.7577 25.4649 39.0918 19.8519 32.1026 19.8519C25.1134 19.8519 19.4475 25.4649 19.4475 32.3888C19.4475 39.3127 25.1134 44.9256 32.1026 44.9256Z" fill="#FADDDC"/>
<path d="M28.0875 33.8542C30.0148 33.8542 31.5773 32.3064 31.5773 30.397C31.5773 28.4877 30.0148 26.9398 28.0875 26.9398C26.1601 26.9398 24.5977 28.4877 24.5977 30.397C24.5977 32.3064 26.1601 33.8542 28.0875 33.8542Z" fill="#F1F0EB"/>
<path d="M38.9495 33.8542C40.8769 33.8542 42.4393 32.3064 42.4393 30.397C42.4393 28.4877 40.8769 26.9398 38.9495 26.9398C37.0222 26.9398 35.4597 28.4877 35.4597 30.397C35.4597 32.3064 37.0222 33.8542 38.9495 33.8542Z" fill="#F1F0EB"/>
<path d="M31.2452 39.1536H32.5191C33.6603 39.1536 34.584 38.2385 34.584 37.108V30.9413C34.584 30.4687 34.1976 30.0859 33.7206 30.0859C33.2437 30.0859 32.8572 30.4687 32.8572 30.9413V36.2886C32.8572 36.9286 32.332 37.4489 31.6859 37.4489H31.2391C30.7621 37.4489 30.3757 37.8317 30.3757 38.3043C30.3757 38.7768 30.7621 39.1596 31.2391 39.1596L31.2452 39.1536Z" fill="#E0B1BB"/>
<path d="M23.6077 30.4389C23.6077 32.8613 25.6001 34.8351 28.0454 34.8351C30.3699 34.8351 32.2597 33.0467 32.4469 30.7918H34.5118C34.6628 33.0826 36.5707 34.9069 38.9194 34.9069C41.3646 34.9069 43.3571 32.9331 43.3571 30.5106C43.3571 28.0882 41.3646 26.1144 38.9194 26.1144C36.9088 26.1144 35.2303 27.4482 34.6869 29.2665H32.302C31.7828 27.4123 30.0801 26.0426 28.0454 26.0426C25.6001 26.0426 23.6077 28.0164 23.6077 30.4389ZM36.2326 30.5106C36.2326 29.0392 37.4401 27.843 38.9254 27.843C40.4107 27.843 41.6182 29.0392 41.6182 30.5106C41.6182 31.982 40.4107 33.1783 38.9254 33.1783C37.4401 33.1783 36.2326 31.982 36.2326 30.5106ZM25.3526 30.4389C25.3526 28.9675 26.5601 27.7712 28.0454 27.7712C29.5307 27.7712 30.7382 28.9675 30.7382 30.4389C30.7382 31.9103 29.5307 33.1065 28.0454 33.1065C26.5601 33.1065 25.3526 31.9103 25.3526 30.4389Z" fill="#898989"/>
<path d="M22.2067 14.2176C23.227 14.2176 24.0542 13.3981 24.0542 12.3873C24.0542 11.3765 23.227 10.557 22.2067 10.557C21.1863 10.557 20.3591 11.3765 20.3591 12.3873C20.3591 13.3981 21.1863 14.2176 22.2067 14.2176Z" fill="#D6952D"/>
<path d="M50.059 20.791C51.0793 20.791 51.9065 19.9715 51.9065 18.9607C51.9065 17.9499 51.0793 17.1304 50.059 17.1304C49.0386 17.1304 48.2114 17.9499 48.2114 18.9607C48.2114 19.9715 49.0386 20.791 50.059 20.791Z" fill="#D6952D"/>
<path d="M19.695 46.3492C20.5253 46.3492 21.1984 45.6824 21.1984 44.8598C21.1984 44.0373 20.5253 43.3705 19.695 43.3705C18.8647 43.3705 18.1917 44.0373 18.1917 44.8598C18.1917 45.6824 18.8647 46.3492 19.695 46.3492Z" fill="#D6952D"/>
<path d="M48.6521 27.9207C49.4824 27.9207 50.1555 27.2539 50.1555 26.4314C50.1555 25.6088 49.4824 24.942 48.6521 24.942C47.8218 24.942 47.1487 25.6088 47.1487 26.4314C47.1487 27.2539 47.8218 27.9207 48.6521 27.9207Z" fill="#D6952D"/>
<path d="M15.0703 21.1499C15.4571 21.1499 15.7706 20.8392 15.7706 20.456C15.7706 20.0728 15.4571 19.7622 15.0703 19.7622C14.6834 19.7622 14.3699 20.0728 14.3699 20.456C14.3699 20.8392 14.6834 21.1499 15.0703 21.1499Z" fill="#D6952D"/>
<path d="M50.3608 35.9895C50.7476 35.9895 51.0612 35.6789 51.0612 35.2957C51.0612 34.9125 50.7476 34.6019 50.3608 34.6019C49.974 34.6019 49.6604 34.9125 49.6604 35.2957C49.6604 35.6789 49.974 35.9895 50.3608 35.9895Z" fill="#D6952D"/>
<path d="M10.2399 33.5013C10.5167 33.5013 10.741 33.2791 10.741 33.0049C10.741 32.7307 10.5167 32.5084 10.2399 32.5084C9.96313 32.5084 9.73877 32.7307 9.73877 33.0049C9.73877 33.2791 9.96313 33.5013 10.2399 33.5013Z" fill="#D6952D"/>
<path d="M54.8891 29.9125C55.1658 29.9125 55.3902 29.6902 55.3902 29.4161C55.3902 29.1419 55.1658 28.9196 54.8891 28.9196C54.6123 28.9196 54.3879 29.1419 54.3879 29.4161C54.3879 29.6902 54.6123 29.9125 54.8891 29.9125Z" fill="#D6952D"/>
<path d="M10.542 26.4254C11.0388 26.4254 11.4416 26.0264 11.4416 25.5342C11.4416 25.042 11.0388 24.643 10.542 24.643C10.0451 24.643 9.64233 25.042 9.64233 25.5342C9.64233 26.0264 10.0451 26.4254 10.542 26.4254Z" fill="#D6952D"/>
<path d="M48.2778 2.67961C46.8166 4.62952 46.3397 6.97419 46.7683 9.06167C48.9117 8.86428 51.037 7.73382 52.4982 5.78391C53.9593 3.834 54.4363 1.48933 54.0076 -0.598145C51.8642 -0.400761 49.7389 0.729706 48.2778 2.67961Z" fill="#2D963A"/>
<path d="M51.4414 4.55178C49.1592 5.43103 47.4928 7.16561 46.738 9.16337C48.658 10.1264 51.0671 10.2879 53.3494 9.40262C55.6316 8.52337 57.298 6.78879 58.0528 4.79103C56.1328 3.82804 53.7237 3.66655 51.4414 4.55178Z" fill="#3EB750"/>
</g>
</g>
<defs>
<clipPath id="clip0_1237_3786">
<rect width="64" height="64" rx="16" fill="white"/>
</clipPath>
</defs>
</svg>
