<svg width="64" height="64" viewBox="0 0 64 64" fill="none" xmlns="http://www.w3.org/2000/svg">
<mask id="mask0_1237_3340" style="mask-type:luminance" maskUnits="userSpaceOnUse" x="0" y="0" width="64" height="64">
<path d="M64 0H0.0180664V64H64V0Z" fill="white"/>
</mask>
<g mask="url(#mask0_1237_3340)">
<path d="M64.0002 0H0.0183105V64H64.0002V0Z" fill="#7A9993"/>
<path d="M63.8251 57.6543C63.8251 48.3623 59.4791 40.8513 50.1897 40.8513H15.3618C-0.386193 40.8513 0.000112468 63.9819 0.000112468 63.9819L64.0001 63.8853L63.8311 57.6543H63.8251Z" fill="#4D6059"/>
<path d="M37.8883 12.7457H15.543V28.3291C15.543 33.28 19.5569 37.2951 24.5065 37.2951H24.8988C25.9974 37.2951 26.8907 38.1887 26.8907 39.2876V41.92C26.8907 44.9389 29.3353 47.3842 32.3533 47.3842C35.3653 47.3842 37.8038 44.9449 37.8159 41.9381L37.8944 12.7517L37.8883 12.7457Z" fill="#FADDDC"/>
<path d="M22.7739 30.8468H21.4279C20.2147 30.8468 19.2368 29.8627 19.2368 28.6551V22.0498C19.2368 21.5427 19.6473 21.1381 20.1483 21.1381C20.6492 21.1381 21.0597 21.5487 21.0597 22.0498V27.7736C21.0597 28.4619 21.615 29.0174 22.3031 29.0174H22.7739C23.281 29.0174 23.6854 29.4279 23.6854 29.9291C23.6854 30.4302 23.2749 30.8408 22.7739 30.8408V30.8468Z" fill="#E0B1BB"/>
<path d="M27.452 22.3155C27.452 22.9857 26.9087 23.5351 26.2327 23.5351C25.5567 23.5351 25.0134 22.9917 25.0134 22.3155C25.0134 21.6393 25.5567 21.0959 26.2327 21.0959C26.9087 21.0959 27.452 21.6393 27.452 22.3155Z" fill="#757570"/>
<path d="M33.2706 17.4128L33.3189 22.9192C33.3189 23.3781 33.6931 23.7464 34.1519 23.7464C34.6106 23.7464 34.9848 23.3721 34.9848 22.9132V20.8C34.9848 20.0091 35.6307 19.363 36.4214 19.363C37.2121 19.363 37.858 20.0091 37.858 20.8V27.7555L39.9163 16.6702C39.9163 16.6702 40.55 11.1275 36.5904 9.54566C32.6308 7.96377 33.2706 17.4128 33.2706 17.4128Z" fill="#3E2967"/>
<path d="M40.025 15.6498C40.1397 9.63621 35.8299 4.29282 29.7215 3.32074L27.7779 3.00678C21.6694 2.02867 15.905 5.75395 14.1425 11.5079L7.81673 10.4936C7.01998 10.3668 6.26547 10.9102 6.13872 11.7072C6.01196 12.5041 6.5552 13.2589 7.35196 13.3856L39.699 18.56L40.031 15.6498H40.025Z" fill="#A4B2D3"/>
</g>
</svg>
