<svg width="64" height="64" viewBox="0 0 64 64" fill="none" xmlns="http://www.w3.org/2000/svg">
<g clip-path="url(#clip0_1237_3466)">
<mask id="mask0_1237_3466" style="mask-type:luminance" maskUnits="userSpaceOnUse" x="0" y="0" width="64" height="64">
<path d="M64 0.264557H0V64H64V0.264557Z" fill="white"/>
</mask>
<g mask="url(#mask0_1237_3466)">
<path d="M64 0.264557H0V64H64V0.264557Z" fill="#7A9993"/>
<path d="M0 64C0 52.1608 7.79472 44.0556 19.677 44.0556H47.8913C59.7796 44.0556 63.9879 52.1668 63.994 64H0Z" fill="#FCC31E"/>
<path d="M43.2422 55.6302H39.4385L42.1253 52.9546L41.4188 52.2451L38.726 54.9268V51.1327H37.7237V54.9268L35.0309 52.2451L34.3185 52.9546L37.0113 55.6302H33.2075V56.6344H37.0113L34.3185 59.3101L35.0309 60.0196L37.7237 57.3379V61.1319H38.726V57.3379L41.4188 60.0196L42.1253 59.3101L39.4385 56.6344H43.2422V55.6302Z" fill="#F6A723"/>
<path d="M18.9162 56.2976H15.1064L17.7993 53.6159L17.0868 52.9124L14.4 55.5941V51.8H13.3917V55.5941L10.7049 52.9124L9.99247 53.6159L12.6853 56.2976H8.87549V57.2957H12.6853L9.99247 59.9774L10.7049 60.6869L13.3917 58.0052V61.7933H14.4V58.0052L17.0868 60.6869L17.7993 59.9774L15.1064 57.2957H18.9162V56.2976Z" fill="#F6A723"/>
<path d="M38.5208 12.6449H13.9834V31.7234C13.9834 36.0105 17.4732 39.4859 21.7781 39.4859H24.2596C25.4672 39.4859 26.4453 40.46 26.4453 41.6625V44.1458C26.4453 46.6712 28.5042 48.7215 31.04 48.7215H33.8476C36.3774 48.7215 38.4302 46.6832 38.4423 44.1578L38.5268 12.6389L38.5208 12.6449Z" fill="#FADDDC"/>
<path d="M34.7169 8.45397H30.1584C28.6671 8.45397 27.2482 7.63623 26.6626 6.27133C25.8052 4.25705 23.8007 2.85006 21.4641 2.85006C20.9448 2.85006 20.4437 2.92823 19.9667 3.0545C18.3426 0.865844 15.5592 -0.42089 12.5161 0.126273C9.54557 0.66141 7.13652 3.01842 6.53274 5.97069C6.25501 7.32357 6.35765 8.62233 6.73803 9.79482C7.35991 12.8673 10.089 15.1763 13.3554 15.1763H30.5026C32.2233 15.1763 33.618 16.5652 33.618 18.2788V23.6843C33.618 26.36 35.7976 28.5246 38.4784 28.5246C39.3358 28.5246 40.0241 27.8332 40.0241 26.9853V13.7392C40.0241 10.817 37.6452 8.45397 34.7169 8.45397Z" fill="#3E2967"/>
<path d="M21.923 32.4389H20.4437C19.1154 32.4389 18.0347 31.3626 18.0347 30.0398V22.8185C18.0347 22.2653 18.4815 21.8204 19.0369 21.8204C19.5924 21.8204 20.0392 22.2653 20.0392 22.8185V29.0778C20.0392 29.8294 20.649 30.4367 21.4037 30.4367H21.923C22.4784 30.4367 22.9252 30.8816 22.9252 31.4348C22.9252 31.988 22.4784 32.4329 21.923 32.4329V32.4389Z" fill="#E0B1BB"/>
<path d="M27.0672 23.1071C27.0672 23.8407 26.4695 24.442 25.7269 24.442C24.9842 24.442 24.3865 23.8467 24.3865 23.1071C24.3865 22.3675 24.9842 21.7723 25.7269 21.7723C26.4695 21.7723 27.0672 22.3675 27.0672 23.1071Z" fill="#757570"/>
</g>
</g>
<defs>
<clipPath id="clip0_1237_3466">
<rect width="64" height="64" rx="16" fill="white"/>
</clipPath>
</defs>
</svg>
