<svg width="64" height="64" viewBox="0 0 64 64" fill="none" xmlns="http://www.w3.org/2000/svg">
<g clip-path="url(#clip0_1237_3587)">
<mask id="mask0_1237_3587" style="mask-type:luminance" maskUnits="userSpaceOnUse" x="2" y="13" width="50" height="50">
<path d="M51.6893 13.9905H2.96777V62.5106H51.6893V13.9905Z" fill="white"/>
</mask>
<g mask="url(#mask0_1237_3587)">
<path d="M51.6893 13.9904H2.96777V62.5105H51.6893V13.9904Z" fill="#7A9993"/>
<path d="M2.96777 62.5105C2.96777 53.4977 8.90168 47.3274 17.9473 47.3274H39.4262C48.4764 47.3274 51.6801 53.5023 51.6847 62.5105H2.96777Z" fill="#FCC31E"/>
<path d="M35.887 56.1387H32.9913L35.0366 54.1018L34.4989 53.5617L32.4489 55.6032V52.7148H31.6859V55.6032L29.6359 53.5617L29.0935 54.1018L31.1435 56.1387H28.2478V56.9031H31.1435L29.0935 58.9401L29.6359 59.4802L31.6859 57.4387V60.327H32.4489V57.4387L34.4989 59.4802L35.0366 58.9401L32.9913 56.9031H35.887V56.1387Z" fill="#F6A723"/>
<path d="M17.3681 56.6469H14.4678L16.5178 54.6054L15.9754 54.0698L13.93 56.1113V53.223H13.1624V56.1113L11.1171 54.0698L10.5747 54.6054L12.6247 56.6469H9.72437V57.4067H12.6247L10.5747 59.4482L11.1171 59.9884L13.1624 57.9469V60.8306H13.93V57.9469L15.9754 59.9884L16.5178 59.4482L14.4678 57.4067H17.3681V56.6469Z" fill="#F6A723"/>
<path d="M32.2927 23.4152H13.613V37.9391C13.613 41.2028 16.2697 43.8485 19.5469 43.8485H21.4361C22.3553 43.8485 23.0999 44.5901 23.0999 45.5055V47.396C23.0999 49.3185 24.6673 50.8794 26.5978 50.8794H28.7351C30.661 50.8794 32.2237 49.3276 32.2329 47.4051L32.2973 23.4106L32.2927 23.4152Z" fill="#FADDDC"/>
<path d="M29.3968 20.2248H25.9265C24.7912 20.2248 23.7111 19.6023 23.2652 18.5632C22.6125 17.0298 21.0866 15.9587 19.3078 15.9587C18.9125 15.9587 18.531 16.0182 18.1679 16.1143C16.9314 14.4482 14.8125 13.4686 12.4959 13.8852C10.2345 14.2926 8.40058 16.0869 7.94094 18.3344C7.72951 19.3643 7.80765 20.353 8.09722 21.2456C8.57065 23.5846 10.6482 25.3423 13.1348 25.3423H26.1885C27.4985 25.3423 28.5603 26.3997 28.5603 27.7042V31.8193C28.5603 33.8562 30.2195 35.5041 32.2603 35.5041C32.913 35.5041 33.437 34.9777 33.437 34.3323V24.2483C33.437 22.0237 31.626 20.2248 29.3968 20.2248Z" fill="#3E2967"/>
<path d="M19.6571 38.484H18.531C17.5198 38.484 16.697 37.6647 16.697 36.6577V31.1602C16.697 30.7391 17.0372 30.4004 17.46 30.4004C17.8829 30.4004 18.223 30.7391 18.223 31.1602V35.9253C18.223 36.4974 18.6872 36.9598 19.2618 36.9598H19.6571C20.0799 36.9598 20.4201 37.2985 20.4201 37.7196C20.4201 38.1407 20.0799 38.4794 19.6571 38.4794V38.484Z" fill="#E0B1BB"/>
<path d="M23.5733 31.3797C23.5733 31.9381 23.1182 32.3959 22.5529 32.3959C21.9875 32.3959 21.5325 31.9427 21.5325 31.3797C21.5325 30.8167 21.9875 30.3635 22.5529 30.3635C23.1182 30.3635 23.5733 30.8167 23.5733 31.3797Z" fill="#757570"/>
</g>
<mask id="mask1_1237_3587" style="mask-type:luminance" maskUnits="userSpaceOnUse" x="-1" y="0" width="66" height="65">
<path d="M64.1993 -6.10352e-05H-0.760986V64.9603H64.1993V-6.10352e-05Z" fill="white"/>
</mask>
<g mask="url(#mask1_1237_3587)">
<path d="M64.1993 -6.10352e-05H-0.760986V64.9603H64.1993V-6.10352e-05Z" fill="#A5B6CE"/>
<path d="M59.983 53.2123C57.1946 49.7865 53.4625 50.9386 50.1961 52.6362C46.4762 54.5727 44.4845 66.5536 45.8633 70.5125C46.6233 72.7004 54.6514 81.3658 65.9949 93.6654L78.5764 79.6192C69.3348 69.3359 64.5057 58.7584 59.9891 53.2061L59.983 53.2123Z" fill="#E52729"/>
<path d="M70.781 116.984H-7.66162L-2.83862 66.1185C-2.83862 55.4736 -3.73949 46.8449 16.435 46.8449H46.7089C57.3538 46.8449 65.9825 55.4736 65.9825 66.1185L70.7688 116.984H70.781Z" fill="#EA5041"/>
<path d="M10.7664 51.5882C7.9106 48.5179 3.11212 48.3402 0.0356941 51.1899C-0.846785 52.0111 -14.6539 61.8042 -23.491 79.7357L-7.83921 90.0987C-0.111383 73.4786 10.1965 62.5028 10.3864 62.3251C13.4506 59.4631 13.6222 54.6524 10.7603 51.5821L10.7664 51.5882Z" fill="#EA5041"/>
<path d="M21.8035 46.8939H40.213V47.28C40.213 52.3604 36.0886 56.4848 31.0082 56.4848C25.9278 56.4848 21.8035 52.3604 21.8035 47.28V46.8939Z" fill="#FFD415"/>
<path d="M25.1311 9.68271H44.5579C47.2728 9.68271 49.4729 11.8828 49.4729 14.5976V33.7241C49.4729 37.9956 46.0104 41.4581 41.7389 41.4581H39.2814C38.0803 41.4581 37.112 42.4325 37.112 43.6275V47.8622C37.112 51.147 34.4462 53.8128 31.1614 53.8128C27.8827 53.8128 25.2231 51.1593 25.2108 47.8806L25.125 9.68271H25.1311Z" fill="#FADDDC"/>
<path d="M41.598 34.435H43.0688C44.3864 34.435 45.4588 33.3687 45.4588 32.045V24.8503C45.4588 24.2988 45.0115 23.8575 44.466 23.8575C43.9206 23.8575 43.4733 24.3049 43.4733 24.8503V31.089C43.4733 31.8366 42.8666 32.4433 42.1189 32.4433H41.6041C41.0526 32.4433 40.6113 32.8907 40.6113 33.4361C40.6113 33.9815 41.0587 34.4289 41.6041 34.4289L41.598 34.435Z" fill="#ECBEC6"/>
<path d="M22.6062 28.3067H26.6387V19.7393H22.6062V28.3067Z" fill="#FADDDC"/>
<path opacity="0.5" d="M36.2173 29.0115H39.2018C41.0893 29.0115 42.6336 27.4671 42.6336 25.5796C42.6336 23.6921 41.0893 22.1477 39.2018 22.1477H36.2173C34.3297 22.1477 32.7854 23.6921 32.7854 25.5796C32.7854 27.4671 34.3297 29.0115 36.2173 29.0115Z" fill="white"/>
<path d="M31.7498 26.3518V24.7952C31.7498 22.7544 33.4044 21.0998 35.4451 21.0998H39.9862C42.0208 21.0998 43.6816 22.7544 43.6816 24.7952V26.3518C43.6816 28.3864 42.027 30.0472 39.9862 30.0472H35.4451C33.4105 30.0472 31.7498 28.3925 31.7498 26.3518ZM35.439 23.1773C34.5443 23.1773 33.8211 23.9066 33.8211 24.7952V26.3518C33.8211 27.2465 34.5504 27.9697 35.439 27.9697H39.9801C40.8748 27.9697 41.598 27.2465 41.598 26.3518V24.7952C41.598 23.9004 40.8687 23.1773 39.9801 23.1773H35.439Z" fill="#9A9A99"/>
<path opacity="0.5" d="M49.6137 29.0115H50.5514C52.4389 29.0115 53.9832 27.4671 53.9832 25.5796C53.9832 23.6921 52.4389 22.1477 50.5514 22.1477H49.6137C47.7262 22.1477 46.1819 23.6921 46.1819 25.5796C46.1819 27.4671 47.7262 29.0115 49.6137 29.0115Z" fill="white"/>
<path d="M45.1462 26.3518V24.7952C45.1462 22.7544 46.8009 21.0998 48.8416 21.0998H51.3359C53.3705 21.0998 55.0312 22.7544 55.0312 24.7952V26.3518C55.0312 28.3864 53.3766 30.0472 51.3359 30.0472H48.8416C46.807 30.0472 45.1462 28.3925 45.1462 26.3518ZM48.8416 23.1773C47.9469 23.1773 47.2237 23.9066 47.2237 24.7952V26.3518C47.2237 27.2465 47.9469 27.9697 48.8416 27.9697H51.3359C52.2306 27.9697 52.9537 27.2465 52.9537 26.3518V24.7952C52.9537 23.9004 52.2245 23.1773 51.3359 23.1773H48.8416Z" fill="#9A9A99"/>
<path d="M46.0778 23.306H42.1863V25.3835H46.0778V23.306Z" fill="#9A9A99"/>
<path d="M41.2793 6.10375H41.1567C41.1996 6.10375 41.2425 6.09149 41.2854 6.09149C41.2854 6.09149 41.2854 6.09762 41.2854 6.10375H41.2793Z" fill="#3E2967"/>
<path d="M53.8792 11.7051V12.7285C53.8792 15.0818 51.961 16.9999 49.6077 16.9999H32.1481C30.947 16.9999 29.9726 17.9437 29.9726 19.1448L30.0216 20.2173C30.0216 21.5472 29.2801 22.6441 28.465 22.877C27.5457 23.1344 27.031 24.1027 27.2638 25.0219C27.5948 26.3027 27.9808 28.705 27.3129 31.0828C26.5713 33.6383 22.3795 33.6138 22.9679 33.0255C23.5317 32.4617 24.3467 32.0021 24.2181 30.9051C23.8871 31.5976 20.6146 31.9776 20.6146 31.2115C20.7678 31.2606 23.403 28.5763 22.3796 27.3752C21.6625 26.5295 20.2591 26.5295 20.2591 24.0782C20.2591 20.8301 21.8157 21.0385 20.2591 19.4758C18.7271 17.9437 19.009 15.8233 19.8486 14.8489C20.6943 13.85 22.6615 10.3507 22.6615 10.3507C22.7411 10.1485 22.8147 9.9646 22.9188 9.78688C21.8219 9.58465 21.1539 8.45704 21.1539 8.45704C22.5573 9.14954 24.2242 7.61133 24.2242 7.61133L24.2487 7.63584C26.602 4.87809 30.3096 4.41234 33.7599 4.31428C37.2346 4.18559 39.8698 5.41126 41.5306 6.05473C43.4978 5.92603 45.1095 4.70037 45.8511 2.98444C47.3586 3.33988 48.4862 4.59619 48.6885 6.12827C51.6056 6.36115 53.8792 8.73281 53.8792 11.6989V11.7051Z" fill="#3E2967"/>
<path d="M-19.4464 81.8683L-21.53 80.4772C-8.28671 60.5785 -3.09601 56.5828 -0.307619 54.444C-0.0318432 54.2296 0.213289 54.0396 0.446165 53.8557C7.84919 47.7887 22.5756 49.1308 23.2068 49.1859L22.9678 51.6802C22.8207 51.6618 8.63974 50.3871 2.0334 55.7923C1.78827 55.9945 1.51862 56.2029 1.22446 56.4296C-1.44749 58.4887 -6.42369 62.3128 -19.4403 81.8745L-19.4464 81.8683Z" fill="#FFD415"/>
</g>
</g>
<defs>
<clipPath id="clip0_1237_3587">
<rect width="64" height="64" rx="16" fill="white"/>
</clipPath>
</defs>
</svg>
