<svg width="64" height="64" viewBox="0 0 64 64" fill="none" xmlns="http://www.w3.org/2000/svg">
<g clip-path="url(#clip0_1237_3265)">
<mask id="mask0_1237_3265" style="mask-type:luminance" maskUnits="userSpaceOnUse" x="0" y="0" width="64" height="64">
<path d="M64 0H0V64H64V0Z" fill="white"/>
</mask>
<g mask="url(#mask0_1237_3265)">
<path d="M64 0H0V64H64V0Z" fill="#CED6E4"/>
<path d="M64 64C60.3049 48.4649 47.7102 41.2257 46.1525 41.1653C44.0513 40.1751 41.5759 39.7162 38.6657 39.9275H16.8694C16.1992 39.9275 15.5472 39.9819 14.9072 40.0785C14.7985 40.0785 14.6898 40.0725 14.5751 40.0785C8.22943 40.4045 2.1917 42.0709 0 43.5502V63.9215C5.74189 63.9819 64 64.006 64 64.006V64Z" fill="#5280DD"/>
<path d="M26.4393 32.9781H14.1465V40.0785H26.4393V32.9781Z" fill="#3E2967"/>
<path d="M35.2242 9.34039H13.7178V29.3796C13.7178 33.1532 16.7789 36.2144 20.5525 36.2144H22.7261C23.7827 36.2144 24.6461 37.0717 24.6461 38.1344V40.7125C24.6461 43.6166 27.0008 45.9653 29.8989 45.9653C32.797 45.9653 35.1457 43.6227 35.1517 40.7245L35.2242 9.34039Z" fill="#FADDDC"/>
<path d="M20.6792 30.0075H19.3811C18.2158 30.0075 17.2739 29.0657 17.2739 27.9004V21.5426C17.2739 21.0536 17.6664 20.6611 18.1554 20.6611C18.6445 20.6611 19.0369 21.0536 19.0369 21.5426V27.0551C19.0369 27.7132 19.5743 28.2506 20.2324 28.2506H20.6852C21.1683 28.2506 21.5668 28.643 21.5668 29.1321C21.5668 29.6211 21.1743 30.0136 20.6852 30.0136L20.6792 30.0075Z" fill="#E0B1BB"/>
<path d="M22.7441 21.7962C22.7441 22.4966 23.3117 23.0641 24.0121 23.0641C24.7124 23.0641 25.28 22.4966 25.28 21.7962C25.28 21.0958 24.7124 20.5283 24.0121 20.5283C23.3117 20.5283 22.7441 21.0958 22.7441 21.7962Z" fill="#757570"/>
<path d="M27.0912 14.7864C28.2746 16.5615 29.9773 19.2241 30.6535 23.0883C32.2112 31.9758 26.566 34.4453 26.566 34.4453L33.6301 35.0189L33.0445 51.8823C37.458 51.8823 51.2724 55.8974 42.7531 26.5962L39.3116 12.3774C37.9531 6.77433 32.9358 2.82565 27.1697 2.82565H20.8845C19.4233 2.82565 18.1675 3.85811 17.8897 5.29509C14.6837 5.29509 12.2686 7.86112 11.6829 10.9162C10.1614 18.8438 11.2241 29.6875 11.2241 29.6875C11.5139 34.5781 9.38257 34.6204 9.38257 34.6204C9.38257 34.6204 12.2928 34.7472 13.0595 34.7472H16.006C16.006 34.7472 13.8384 32.6883 13.8022 29.7298C13.7841 28.2385 13.7841 24.5857 13.7901 21.3253C13.7901 17.5517 15.6739 11.8641 18.8075 9.76301C18.8075 9.76301 23.7041 9.69056 27.1033 14.8045L27.0912 14.7864Z" fill="#3E2967"/>
</g>
</g>
<defs>
<clipPath id="clip0_1237_3265">
<rect width="64" height="64" rx="16" fill="white"/>
</clipPath>
</defs>
</svg>
