<svg width="160" height="100" viewBox="0 0 160 100" fill="none" xmlns="http://www.w3.org/2000/svg">
<g clip-path="url(#clip0_14_2024)">
<g clip-path="url(#clip1_14_2024)">
<path d="M159.357 0.617188H0.619995V99.3732H159.357V0.617188Z" fill="#FFE45F"/>
<path d="M159.977 99.9931H0V0.00732422H159.977V99.9931ZM1.23982 98.7733H158.737V1.22715H1.23982V98.7633V98.7733Z" fill="#EFD9B4"/>
<path d="M159.357 0.617188H0.619995V41.9613H159.357V0.617188Z" fill="white"/>
<path d="M159.977 42.5813H0V0.00732422H159.977V42.5813ZM1.23982 41.3515H158.737V1.22715H1.23982V41.3515Z" fill="white"/>
<path d="M159.357 43.5708H0.619995V48.1302H159.357V43.5708Z" fill="#B2AEA6"/>
<path d="M159.977 48.7401H0V42.9609H159.977V48.7401ZM1.23982 47.5203H158.737V44.1808H1.23982V47.5203Z" fill="#B2AEA6"/>
<path d="M80.7886 24.4835V7.7059C80.7886 6.17611 79.5387 4.94629 77.9989 4.94629H50.8128C49.273 4.94629 48.0232 6.18611 48.0232 7.7059V24.2835C48.0232 25.0734 48.3531 25.8333 48.9331 26.3733L57.1519 34.0522C57.8018 34.6621 58.6617 35.002 59.5616 35.002H89.5973C90.5672 35.002 90.9971 33.8022 90.2472 33.1923L81.6084 26.1833C81.0885 25.7633 80.7886 25.1434 80.7886 24.4735V24.4835Z" fill="#455767"/>
<path d="M77.789 7.76611H50.5729V23.4639H77.789V7.76611Z" fill="#3888BA"/>
<path d="M64.2309 10.1357H53.6224V11.2656H64.2309V10.1357Z" fill="#A0D1EA"/>
<path d="M67.4304 14.0952H56.8219V15.2251H67.4304V14.0952Z" fill="#A0D1EA"/>
<path d="M64.5309 17.7744H53.9224V18.9043H64.5309V17.7744Z" fill="#A0D1EA"/>
<path d="M80.1886 28.6432H57.5418L56.172 27.6333H78.8188L80.1886 28.6432Z" fill="#506575"/>
<path d="M83.0282 31.8526H60.3814L59.0116 30.8428H81.6584L83.0282 31.8526Z" fill="#506575"/>
<path d="M102.845 10.9158H87.1177V24.9938C87.1177 27.7534 89.3574 29.9931 92.117 29.9931H93.7067C94.4766 29.9931 95.1065 30.623 95.1065 31.3929V32.7727C95.1065 34.5224 96.9763 35.6423 98.5261 34.8024L102.535 32.6227L102.855 10.9058L102.845 10.9158Z" fill="#FADDDC"/>
<path d="M88.1578 25.6535L87.2478 25.3935C86.4278 25.1636 85.9478 24.3137 86.1778 23.4938L87.4378 19.0144C87.5378 18.6745 87.8878 18.4745 88.2278 18.5645C88.5678 18.6545 88.7678 19.0144 88.6778 19.3544L87.5878 23.2338C87.4578 23.7038 87.7278 24.1837 88.1978 24.3137L88.5178 24.4037C88.8578 24.5037 89.0578 24.8536 88.9678 25.1936C88.8778 25.5335 88.5178 25.7335 88.1778 25.6435L88.1578 25.6535Z" fill="#E0B1BB"/>
<path d="M90.3672 18.9544C90.3672 19.4243 90.7472 19.8043 91.2172 19.8043C91.6872 19.8043 92.0672 19.4243 92.0672 18.9544C92.0672 18.4844 91.6872 18.1045 91.2172 18.1045C90.7472 18.1045 90.3672 18.4844 90.3672 18.9544Z" fill="#757570"/>
<path d="M107.745 14.4851C107.215 11.2655 104.175 9.98573 102.535 8.40595C100.456 6.40623 98.856 5.09642 94.3566 5.33638C92.8068 5.41637 92.0669 6.45623 91.8869 6.45623C86.7977 6.45623 84.9379 10.5556 84.9579 13.0253C84.9979 16.4048 86.7477 17.3147 86.7477 17.3147C86.7477 17.3147 86.8177 17.3147 86.8477 17.3147C88.3474 17.3147 87.4576 11.3255 88.3974 11.3255C89.3373 11.3255 88.8574 17.4147 96.0164 17.4147C96.5563 17.4147 96.9862 17.8646 96.9862 18.3845V20.1243C96.9862 20.4442 97.2462 20.7042 97.5761 20.7042C97.9061 20.7042 98.176 20.4442 98.166 20.1243V20.1443C98.166 19.8043 100.186 23.3838 101.866 26.4234C102.145 26.9233 102.605 26.8333 102.605 26.8333C103.115 26.0534 104.535 22.9439 105.945 19.4844C106.605 17.8646 108.125 16.7648 107.745 14.4951V14.4851Z" fill="#3E2967"/>
<path d="M99.0957 23.7437H100.086C100.616 23.7437 101.046 23.3139 101.046 22.7838V18.6344C101.046 18.1043 100.616 17.6745 100.086 17.6745H99.0957C98.5655 17.6745 98.1357 18.1043 98.1357 18.6344V22.7838C98.1357 23.3139 98.5655 23.7437 99.0957 23.7437Z" fill="#FADDDC"/>
<path d="M84.5081 78.8361L86.6778 91.2043C86.9777 92.9341 88.4875 94.2039 90.2472 94.2039C92.177 94.2039 93.7767 92.6841 93.8667 90.7544L94.4866 77.8862L84.5081 78.8361Z" fill="#3E2967"/>
<path d="M100.826 78.5257L100.446 90.934C100.386 92.7537 101.796 94.2835 103.625 94.3835C105.225 94.4635 106.655 93.4136 107.055 91.8638L110.654 77.7358L100.836 78.5257H100.826Z" fill="#3E2967"/>
<path d="M114.864 90.5644L102.535 87.9047L109.904 86.6549L108.525 85.2751L98.976 86.5549V79.3359H95.8364V86.5749L85.9478 85.2051L84.1581 86.3749L92.3169 87.9747L79.2488 90.6543L79.1188 92.3141L95.7464 90.2444L96.3263 95.8136L98.2161 95.8536L98.446 90.3144L115.084 92.2441L114.864 90.5644Z" fill="#8C8C8C"/>
<path d="M80.4988 94.9434C81.4543 94.9434 82.2288 94.169 82.2288 93.2136C82.2288 92.2583 81.4543 91.4839 80.4988 91.4839C79.5433 91.4839 78.7688 92.2583 78.7688 93.2136C78.7688 94.169 79.5433 94.9434 80.4988 94.9434Z" fill="#8C8C8C"/>
<path d="M97.1964 99.083C98.1519 99.083 98.9264 98.3086 98.9264 97.3533C98.9264 96.398 98.1519 95.6235 97.1964 95.6235C96.241 95.6235 95.4664 96.398 95.4664 97.3533C95.4664 98.3086 96.241 99.083 97.1964 99.083Z" fill="#8C8C8C"/>
<path d="M114.324 95.4937C115.279 95.4937 116.054 94.7192 116.054 93.7639C116.054 92.8086 115.279 92.0342 114.324 92.0342C113.369 92.0342 112.594 92.8086 112.594 93.7639C112.594 94.7192 113.369 95.4937 114.324 95.4937Z" fill="#8C8C8C"/>
<path d="M108.525 89.7642C109.48 89.7642 110.255 88.9898 110.255 88.0344C110.255 87.0791 109.48 86.3047 108.525 86.3047C107.569 86.3047 106.795 87.0791 106.795 88.0344C106.795 88.9898 107.569 89.7642 108.525 89.7642Z" fill="#8C8C8C"/>
<path d="M85.1881 89.6245C86.1436 89.6245 86.9181 88.8501 86.9181 87.8948C86.9181 86.9395 86.1436 86.165 85.1881 86.165C84.2327 86.165 83.4581 86.9395 83.4581 87.8948C83.4581 88.8501 84.2327 89.6245 85.1881 89.6245Z" fill="#8C8C8C"/>
<path d="M75.5193 34.4924C75.2193 32.3027 73.1896 30.7629 70.9999 31.0729C69.2002 31.3229 67.8404 32.7327 67.5804 34.4424C67.5204 34.8124 67.5204 35.2023 67.5804 35.5923C67.7104 36.5421 67.8804 37.472 68.0603 38.3819L75.7592 35.9522C75.6692 35.4723 75.5893 34.9823 75.5193 34.4924Z" fill="#FADDDC"/>
<path d="M89.8873 33.0222C89.5874 30.8325 87.5576 29.2927 85.3679 29.6027C83.5682 29.8526 82.2084 31.2624 81.9484 32.9722C81.8884 33.3421 81.8884 33.7321 81.9484 34.122C82.0784 35.0719 82.2484 36.0018 82.4284 36.9116L90.1273 34.482C90.0373 34.0021 89.9573 33.5121 89.8873 33.0222Z" fill="#FADDDC"/>
<path d="M102.455 71.2671C103.355 69.2474 102.435 66.8778 100.416 65.9779C100.206 65.8779 79.4887 56.4192 75.7592 35.9521L68.0603 38.3818C72.9796 62.3784 96.1463 72.8569 97.1762 73.3069C99.1959 74.1967 101.556 73.2869 102.455 71.2571V71.2671Z" fill="#E5E1DC"/>
<path d="M109.404 32.0825H87.7976C85.0479 32.0825 77.1091 33.0424 73.8295 36.8218C70.9799 40.1114 70.57 45.0907 70.9499 56.989C71.0499 60.1685 73.6696 62.7082 76.8491 62.6982C89.7773 62.6582 120.273 62.5782 120.273 62.5682C123.772 50.7299 123.722 46.2305 121.763 40.2114C119.583 33.5123 110.874 32.0825 109.394 32.0825H109.404Z" fill="#E5E1DC"/>
<path d="M114.264 81.5157H83.2182C79.3888 81.5157 76.1592 78.5061 75.6493 74.4767L72.3198 48.2204C71.6998 43.3511 75.2693 39.0117 79.8887 39.0117H116.923C121.463 39.0117 125.002 43.2011 124.522 48.0004L121.863 74.2567C121.443 78.3861 118.173 81.5057 114.264 81.5057V81.5157Z" fill="#E5E5E5"/>
<path d="M116.923 46.5007C116.993 46.5007 117.183 46.5007 117.363 46.7106C117.543 46.9206 117.523 47.1306 117.513 47.2006L114.854 73.4568C114.824 73.7768 114.564 74.0168 114.264 74.0168H83.2183C82.9183 74.0168 82.6683 73.7768 82.6283 73.4668L79.2988 47.2106C79.2988 47.1406 79.2588 46.9306 79.4388 46.7106C79.6188 46.4907 79.8187 46.4907 79.8887 46.4907H116.923M116.923 39.0117H79.8887C75.2594 39.0117 71.6999 43.3411 72.3198 48.2204L75.6493 74.4767C76.1593 78.5061 79.3988 81.5157 83.2183 81.5157H114.264C118.163 81.5157 121.443 78.3861 121.863 74.2667L124.522 48.0104C125.012 43.2111 121.473 39.0217 116.923 39.0217V39.0117Z" fill="#F7F7F7"/>
<path d="M81.9283 66.3076H115.324L114.584 73.5566L82.9582 73.5766L81.9283 66.3076Z" fill="#B2AEA6"/>
<path d="M46.7733 55.769H4.6093C4.3332 55.769 4.10938 55.9929 4.10938 56.269V95.7134C4.10938 95.9895 4.3332 96.2133 4.6093 96.2133H46.7733C47.0494 96.2133 47.2733 95.9895 47.2733 95.7134V56.269C47.2733 55.9929 47.0494 55.769 46.7733 55.769Z" fill="#E2E2E2"/>
<path d="M44.3937 58.0986H6.99895C6.72285 58.0986 6.49902 58.3225 6.49902 58.5986V65.9075C6.49902 66.1836 6.72285 66.4075 6.99895 66.4075H44.3937C44.6698 66.4075 44.8936 66.1836 44.8936 65.9075V58.5986C44.8936 58.3225 44.6698 58.0986 44.3937 58.0986Z" fill="white"/>
<path d="M44.3937 67.6577H6.99895C6.72285 67.6577 6.49902 67.8815 6.49902 68.1576V75.4666C6.49902 75.7427 6.72285 75.9665 6.99895 75.9665H44.3937C44.6698 75.9665 44.8936 75.7427 44.8936 75.4666V68.1576C44.8936 67.8815 44.6698 67.6577 44.3937 67.6577Z" fill="white"/>
<path d="M44.3937 77.2163H6.99895C6.72285 77.2163 6.49902 77.4401 6.49902 77.7162V93.424C6.49902 93.7001 6.72285 93.9239 6.99895 93.9239H44.3937C44.6698 93.9239 44.8936 93.7001 44.8936 93.424V77.7162C44.8936 77.4401 44.6698 77.2163 44.3937 77.2163Z" fill="white"/>
<path d="M30.1657 60.0186H20.727C20.1804 60.0186 19.7372 60.4617 19.7372 61.0084C19.7372 61.5551 20.1804 61.9983 20.727 61.9983H30.1657C30.7124 61.9983 31.1556 61.5551 31.1556 61.0084C31.1556 60.4617 30.7124 60.0186 30.1657 60.0186Z" fill="#B2AEA6"/>
<path d="M30.1657 69.7974H20.727C20.1804 69.7974 19.7372 70.2405 19.7372 70.7872C19.7372 71.3339 20.1804 71.7771 20.727 71.7771H30.1657C30.7124 71.7771 31.1556 71.3339 31.1556 70.7872C31.1556 70.2405 30.7124 69.7974 30.1657 69.7974Z" fill="#B2AEA6"/>
<path d="M30.1657 79.6855H20.727C20.1804 79.6855 19.7372 80.1287 19.7372 80.6754C19.7372 81.2221 20.1804 81.6653 20.727 81.6653H30.1657C30.7124 81.6653 31.1556 81.2221 31.1556 80.6754C31.1556 80.1287 30.7124 79.6855 30.1657 79.6855Z" fill="#B2AEA6"/>
<path d="M46.7734 55.7692L42.634 52.1997H7.82892L4.60938 55.7692C4.60938 55.7692 46.8934 55.8892 46.7734 55.7692Z" fill="#C1BFBC"/>
</g>
<rect x="120" y="4" width="36" height="16" rx="4" fill="#1C1C1C"/>
<path d="M125.817 16H124.675L127.214 8.92969H128.454L131.003 16H129.86L129.216 14.1348H126.462L125.817 16ZM126.77 13.2363H128.903L127.858 10.2188H127.81L126.77 13.2363ZM131.569 14.5059C131.564 13.2949 132.595 12.9824 133.552 12.9141C133.903 12.8945 134.699 12.8506 134.943 12.8408L134.938 12.416C134.943 11.8154 134.572 11.4688 133.864 11.4688C133.249 11.4688 132.878 11.752 132.771 12.1426H131.735C131.828 11.2637 132.648 10.6289 133.903 10.6289C134.748 10.6289 135.979 10.9365 135.983 12.4746V16H134.968V15.2773H134.929C134.724 15.6729 134.235 16.1172 133.356 16.1172C132.351 16.1172 131.564 15.541 131.569 14.5059ZM132.585 14.5156C132.585 15.0234 133.005 15.2822 133.591 15.2871C134.44 15.2822 134.948 14.7158 134.948 14.0859L134.943 13.6025C134.704 13.6172 133.947 13.6709 133.698 13.6855C133.015 13.7344 132.585 13.9932 132.585 14.5156ZM137.243 16V10.6973H138.249V11.5371H138.308C138.503 10.9707 139.035 10.6143 139.655 10.6191C139.782 10.6143 139.987 10.6289 140.095 10.6387V11.6348C140.007 11.6152 139.763 11.5713 139.548 11.5762C138.825 11.5713 138.288 12.0742 138.288 12.7676V16H137.243ZM142.946 16.1074C141.442 16.1074 140.461 15.0137 140.466 13.373C140.461 11.7227 141.442 10.6289 142.946 10.6289C144.44 10.6289 145.417 11.7227 145.417 13.373C145.417 15.0137 144.44 16.1074 142.946 16.1074ZM141.511 13.373C141.511 14.3838 141.975 15.2383 142.946 15.2383C143.903 15.2383 144.362 14.3838 144.362 13.373C144.362 12.3574 143.903 11.4932 142.946 11.4883C141.975 11.4932 141.511 12.3574 141.511 13.373ZM147.487 12.8555V16H146.442V10.6973H147.448V11.5664H147.507C147.756 10.9951 148.278 10.6289 149.069 10.6289C150.158 10.6289 150.881 11.3174 150.876 12.6309V16H149.841V12.7578C149.836 11.9863 149.421 11.5273 148.718 11.5273C148 11.5273 147.487 12.0107 147.487 12.8555Z" fill="white"/>
</g>
<defs>
<clipPath id="clip0_14_2024">
<rect width="160" height="100" fill="white"/>
</clipPath>
<clipPath id="clip1_14_2024">
<rect width="159.977" height="100" fill="white"/>
</clipPath>
</defs>
</svg>
