<svg width="160" height="100" viewBox="0 0 160 100" fill="none" xmlns="http://www.w3.org/2000/svg">
<g clip-path="url(#clip0_14_1999)">
<g clip-path="url(#clip1_14_1999)">
<path d="M159.228 0.617188H0.619995V99.3732H159.228V0.617188Z" fill="#FFE45F"/>
<path d="M159.837 99.9931H0V0.00732422H159.837V99.9931ZM1.23982 98.7733H158.607V1.22715H1.23982V98.7633V98.7733Z" fill="#EFD9B4"/>
<path d="M159.368 82.5454H0.76001V99.383H159.368V82.5454Z" fill="white"/>
<path d="M159.977 99.993H0.140015V81.9355H159.977V99.993ZM1.36984 98.7732H158.738V83.1654H1.36984V98.7732Z" fill="white"/>
<path d="M72.6398 43.8912C72.2998 43.2913 71.8099 42.8313 71.25 42.5114C69.4702 40.8416 67.0705 39.8218 64.4309 39.8218H43.2439C40.5443 39.8218 38.0747 40.7716 36.1449 42.3414C35.445 42.6514 34.8351 43.1813 34.4252 43.8912C34.3752 43.9812 34.2252 44.2512 33.9952 44.6811C33.3453 45.631 32.8454 46.6908 32.5154 47.8306C29.4859 54.9296 24.6566 70.5174 31.9855 86.1152L39.1545 83.6656C38.8645 83.0756 38.5946 82.4757 38.3446 81.8858H68.7203C68.4704 82.4857 68.2004 83.0756 67.9104 83.6656L75.0794 86.1152C84.778 65.4681 73.1597 44.8011 72.6398 43.9012V43.8912Z" fill="white"/>
<path d="M31.4456 84.8955C30.4457 83.0858 31.1156 80.8261 32.9454 79.8362C34.4451 79.0263 36.2549 79.3263 37.4047 80.4661C37.6547 80.7161 37.8747 80.9961 38.0546 81.326C38.4846 82.1059 38.8845 82.8958 39.2545 83.6757L32.0855 86.1253C31.8855 85.7154 31.6755 85.3055 31.4456 84.9055V84.8955Z" fill="#FADDDC"/>
<path d="M75.6293 85.0454C76.6292 83.2357 75.9593 80.976 74.1295 79.9861C72.6298 79.1762 70.82 79.4762 69.6702 80.616C69.4202 80.866 69.2002 81.146 69.0203 81.4759C68.5903 82.2558 68.1904 83.0457 67.8204 83.8256L74.9894 86.2752C75.1894 85.8653 75.3994 85.4554 75.6293 85.0554V85.0454Z" fill="#FADDDC"/>
<path d="M48.8231 44.4811L53.5424 39.7617H46.1434V43.3712C46.1434 44.771 47.8332 45.4709 48.8231 44.4811Z" fill="#E5E1DC"/>
<path d="M58.4117 44.4811L53.6924 39.7617H61.0913V43.3712C61.0913 44.771 59.4016 45.4709 58.4117 44.4811Z" fill="#E5E1DC"/>
<path d="M53.6525 42.3213H53.0625V81.6157H53.6525V42.3213Z" fill="#E5E1DC"/>
<path d="M38.0846 53.5195H47.5133V62.9182C47.5133 63.9081 46.7034 64.7179 45.7135 64.7179H39.8843C38.8945 64.7179 38.0846 63.9081 38.0846 62.9182V53.5195Z" fill="#E5E1DC"/>
<path d="M58.9617 53.5195H68.3903V62.9182C68.3903 63.9081 67.5804 64.7179 66.5906 64.7179H60.7614C59.7716 64.7179 58.9617 63.9081 58.9617 62.9182V53.5195Z" fill="#E5E1DC"/>
<path d="M49.8429 17.905H61.5212C63.151 17.905 64.4708 19.2248 64.4708 20.8546V32.353C64.4708 34.9226 62.3911 37.0023 59.8215 37.0023H58.3417C57.6218 37.0023 57.0419 37.5822 57.0419 38.3021V39.8019H49.9029L49.8429 17.895V17.905Z" fill="#FADDDC"/>
<path d="M59.7316 32.7728H60.6116C61.4016 32.7728 62.0516 32.1629 62.0516 31.413V27.3336C62.0516 27.0236 61.7816 26.7637 61.4516 26.7637C61.1216 26.7637 60.8516 27.0136 60.8516 27.3336V30.8731C60.8516 31.293 60.4916 31.643 60.0416 31.643H59.7316C59.4016 31.643 59.1316 31.8929 59.1316 32.2129C59.1316 32.5329 59.4016 32.7828 59.7316 32.7828V32.7728Z" fill="#E0B1BB"/>
<path d="M48.3228 29.0933H50.7428V23.944H48.3228V29.0933Z" fill="#FADDDC"/>
<path d="M66.6605 19.9745C66.6605 17.4449 65.1007 12.8655 59.1716 12.8655C58.9916 12.8655 58.8116 12.9055 58.6317 12.8655C51.9326 11.8057 48.0532 14.6653 46.3634 18.8047C45.5035 19.3846 44.9436 20.3645 44.9436 21.4843C44.9436 22.6041 45.5435 23.634 46.4434 24.2139C47.0033 25.6337 47.2933 27.0735 48.0932 28.3233C48.0932 28.3233 48.1132 29.6831 48.1132 30.603C48.1132 32.0028 49.8729 31.9928 49.8729 31.9928V28.8532C48.8231 28.4733 48.5731 27.5734 48.5731 26.1936C48.5731 24.8138 49.8029 24.8138 49.8029 24.8138V26.4536C49.8029 26.9435 50.2029 27.3435 50.6928 27.3435C51.1827 27.3435 51.5827 26.9435 51.5827 26.4536V25.0338C51.5827 24.7938 51.8026 24.7638 52.0426 24.7638C61.0413 24.7638 60.1315 18.6047 61.1013 18.6047C62.0712 18.6047 61.8412 23.0441 64.4308 23.0441C64.4608 23.0441 64.4808 24.4039 64.4808 24.4039C64.4808 24.4039 66.6705 23.574 66.6705 19.9845L66.6605 19.9745Z" fill="#3E2967"/>
<path d="M55.5622 26.8338C55.5822 27.3137 55.9822 27.6836 56.4622 27.6636C56.9422 27.6436 57.3122 27.2437 57.2922 26.7638C57.2722 26.2838 56.8722 25.9139 56.3922 25.9339C55.9122 25.9539 55.5422 26.3538 55.5622 26.8338Z" fill="#757570"/>
<path d="M39.4244 63.2085H67.6603C68.9002 63.2085 69.91 64.2184 69.91 65.4582V86.4452H37.1647V65.4582C37.1647 64.2184 38.1745 63.2085 39.4144 63.2085H39.4244Z" fill="#455767"/>
<path d="M53.8028 78.0365C55.305 78.0365 56.5228 76.8323 56.5228 75.3468C56.5228 73.8614 55.305 72.6572 53.8028 72.6572C52.3006 72.6572 51.0828 73.8614 51.0828 75.3468C51.0828 76.8323 52.3006 78.0365 53.8028 78.0365Z" fill="#969899"/>
<path d="M147.509 57.1693L132.021 38.542C131.761 39.1619 131.321 39.6918 130.761 40.0518L145.839 58.1992C146.269 57.7093 146.849 57.3493 147.499 57.1793L147.509 57.1693Z" fill="#455767"/>
<path d="M125.672 37.302C125.672 37.222 125.672 37.142 125.682 37.062L109.834 44.181L109.284 43.6411C109.085 43.4411 108.795 43.3611 108.525 43.4411L98.646 46.0607C98.0561 46.2207 97.8661 46.9406 98.296 47.3705L108.155 57.1392C108.585 57.5691 109.314 57.3691 109.474 56.7892L112.124 47.0006C112.194 46.7306 112.124 46.4407 111.924 46.2407L111.314 45.6408L126.152 38.9817C125.862 38.4918 125.692 37.9219 125.692 37.322L125.672 37.302Z" fill="#455767"/>
<path d="M147.27 63.4185L143.75 88.1749L145.67 88.4449L149.22 63.4685C148.94 63.5484 148.64 63.5984 148.33 63.5984C147.96 63.5984 147.6 63.5384 147.27 63.4185Z" fill="#455767"/>
<path d="M131.102 37.3021C131.102 36.1323 130.142 35.1924 128.972 35.1924C128.092 35.1924 127.342 35.7223 127.012 36.4622C126.902 36.7222 126.832 37.0021 126.832 37.3021C126.832 37.742 126.972 38.152 127.202 38.4819C127.582 39.0418 128.232 39.4118 128.972 39.4118C129.352 39.4118 129.712 39.3118 130.022 39.1418C130.642 38.8019 131.062 38.162 131.102 37.4221C131.102 37.3821 131.102 37.3421 131.102 37.3021Z" fill="#455767"/>
<path d="M148.379 58.209C148.379 58.209 148.349 58.209 148.329 58.209C147.619 58.209 146.989 58.5589 146.599 59.0889C146.349 59.4388 146.199 59.8588 146.199 60.3187C146.199 61.1686 146.709 61.8985 147.439 62.2384C147.709 62.3584 148.009 62.4384 148.329 62.4384C148.719 62.4384 149.089 62.3284 149.409 62.1484C150.039 61.7785 150.459 61.1086 150.459 60.3287C150.459 59.1788 149.529 58.249 148.379 58.219V58.209Z" fill="#455767"/>
<path style="mix-blend-mode:darken" d="M97.4362 91.6945L108.145 57.1295L98.2861 47.3608L27.816 93.0244L97.4362 91.6945Z" fill="url(#paint0_linear_14_1999)"/>
<path d="M145.069 92.3544C149.432 92.3544 152.968 90.7742 152.968 88.8249C152.968 86.8756 149.432 85.2954 145.069 85.2954C140.707 85.2954 137.171 86.8756 137.171 88.8249C137.171 90.7742 140.707 92.3544 145.069 92.3544Z" fill="#455767"/>
</g>
<rect x="120" y="4" width="36" height="16" rx="4" fill="#1C1C1C"/>
<path d="M125.817 16H124.675L127.214 8.92969H128.454L131.003 16H129.86L129.216 14.1348H126.462L125.817 16ZM126.77 13.2363H128.903L127.858 10.2188H127.81L126.77 13.2363ZM131.569 14.5059C131.564 13.2949 132.595 12.9824 133.552 12.9141C133.903 12.8945 134.699 12.8506 134.943 12.8408L134.938 12.416C134.943 11.8154 134.572 11.4688 133.864 11.4688C133.249 11.4688 132.878 11.752 132.771 12.1426H131.735C131.828 11.2637 132.648 10.6289 133.903 10.6289C134.748 10.6289 135.979 10.9365 135.983 12.4746V16H134.968V15.2773H134.929C134.724 15.6729 134.235 16.1172 133.356 16.1172C132.351 16.1172 131.564 15.541 131.569 14.5059ZM132.585 14.5156C132.585 15.0234 133.005 15.2822 133.591 15.2871C134.44 15.2822 134.948 14.7158 134.948 14.0859L134.943 13.6025C134.704 13.6172 133.947 13.6709 133.698 13.6855C133.015 13.7344 132.585 13.9932 132.585 14.5156ZM137.243 16V10.6973H138.249V11.5371H138.308C138.503 10.9707 139.035 10.6143 139.655 10.6191C139.782 10.6143 139.987 10.6289 140.095 10.6387V11.6348C140.007 11.6152 139.763 11.5713 139.548 11.5762C138.825 11.5713 138.288 12.0742 138.288 12.7676V16H137.243ZM142.946 16.1074C141.442 16.1074 140.461 15.0137 140.466 13.373C140.461 11.7227 141.442 10.6289 142.946 10.6289C144.44 10.6289 145.417 11.7227 145.417 13.373C145.417 15.0137 144.44 16.1074 142.946 16.1074ZM141.511 13.373C141.511 14.3838 141.975 15.2383 142.946 15.2383C143.903 15.2383 144.362 14.3838 144.362 13.373C144.362 12.3574 143.903 11.4932 142.946 11.4883C141.975 11.4932 141.511 12.3574 141.511 13.373ZM147.487 12.8555V16H146.442V10.6973H147.448V11.5664H147.507C147.756 10.9951 148.278 10.6289 149.069 10.6289C150.158 10.6289 150.881 11.3174 150.876 12.6309V16H149.841V12.7578C149.836 11.9863 149.421 11.5273 148.718 11.5273C148 11.5273 147.487 12.0107 147.487 12.8555Z" fill="white"/>
</g>
<defs>
<linearGradient id="paint0_linear_14_1999" x1="71.9798" y1="76.1868" x2="89.4873" y2="45.931" gradientUnits="userSpaceOnUse">
<stop stop-color="white"/>
<stop offset="1" stop-color="#FFC552"/>
</linearGradient>
<clipPath id="clip0_14_1999">
<rect width="160" height="100" fill="white"/>
</clipPath>
<clipPath id="clip1_14_1999">
<rect width="159.977" height="100" fill="white"/>
</clipPath>
</defs>
</svg>
