<svg width="160" height="100" viewBox="0 0 160 100" fill="none" xmlns="http://www.w3.org/2000/svg">
<g clip-path="url(#clip0_14_2024)">
<path d="M159.38 0.610107H0.620117V99.3801H159.38V0.610107Z" fill="#FFDB92"/>
<path d="M160 100H0V0H160V100ZM1.24 98.78H158.76V1.22H1.24V98.77V98.78Z" fill="#EFD9B4"/>
<path d="M159.38 0.610107H0.620117V41.9601H159.38V0.610107Z" fill="white"/>
<path d="M160 42.58H0V0H160V42.58ZM1.24 41.35H158.76V1.22H1.24V41.35Z" fill="white"/>
<path d="M159.38 43.5701H0.620117V48.1301H159.38V43.5701Z" fill="#B2AEA6"/>
<path d="M160 48.74H0V42.96H160V48.74ZM1.24 47.52H158.76V44.18H1.24V47.52Z" fill="#B2AEA6"/>
<path d="M80.8 24.4799V7.69994C80.8 6.16994 79.55 4.93994 78.01 4.93994H50.82C49.28 4.93994 48.03 6.17994 48.03 7.69994V24.2799C48.03 25.0699 48.36 25.8299 48.94 26.3699L57.16 34.0499C57.81 34.6599 58.67 34.9999 59.57 34.9999H89.61C90.58 34.9999 91.01 33.7999 90.26 33.1899L81.62 26.1799C81.1 25.7599 80.8 25.1399 80.8 24.4699V24.4799Z" fill="#455767"/>
<path d="M77.8001 7.76001H50.5801V23.46H77.8001V7.76001Z" fill="#3888BA"/>
<path d="M64.2399 10.1299H53.6299V11.2599H64.2399V10.1299Z" fill="#A0D1EA"/>
<path d="M67.4401 14.0901H56.8301V15.2201H67.4401V14.0901Z" fill="#A0D1EA"/>
<path d="M64.5399 17.77H53.9299V18.9H64.5399V17.77Z" fill="#A0D1EA"/>
<path d="M80.1999 28.6399H57.5499L56.1799 27.6299H78.8299L80.1999 28.6399Z" fill="#506575"/>
<path d="M83.04 31.8501H60.39L59.02 30.8401H81.67L83.04 31.8501Z" fill="#506575"/>
<path d="M102.86 10.9099H87.1299V24.9899C87.1299 27.7499 89.3699 29.9899 92.1299 29.9899H93.7199C94.4899 29.9899 95.1199 30.6199 95.1199 31.3899V32.7699C95.1199 34.5199 96.9899 35.6399 98.5399 34.7999L102.55 32.6199L102.87 10.8999L102.86 10.9099Z" fill="#FADDDC"/>
<path d="M88.1699 25.6501L87.2599 25.3901C86.4399 25.1601 85.9599 24.3101 86.1899 23.4901L87.4499 19.0101C87.5499 18.6701 87.8999 18.4701 88.2399 18.5601C88.5799 18.6501 88.7799 19.0101 88.6899 19.3501L87.5999 23.2301C87.4699 23.7001 87.7399 24.1801 88.2099 24.3101L88.5299 24.4001C88.8699 24.5001 89.0699 24.8501 88.9799 25.1901C88.8899 25.5301 88.5299 25.7301 88.1899 25.6401L88.1699 25.6501Z" fill="#E0B1BB"/>
<path d="M90.3799 18.9501C90.3799 19.4201 90.7599 19.8001 91.2299 19.8001C91.6999 19.8001 92.0799 19.4201 92.0799 18.9501C92.0799 18.4801 91.6999 18.1001 91.2299 18.1001C90.7599 18.1001 90.3799 18.4801 90.3799 18.9501Z" fill="#757570"/>
<path d="M107.76 14.48C107.23 11.26 104.19 9.98004 102.55 8.40004C100.47 6.40004 98.8699 5.09004 94.3699 5.33004C92.8199 5.41004 92.0799 6.45004 91.8999 6.45004C86.8099 6.45004 84.9499 10.55 84.9699 13.02C85.0099 16.4 86.7599 17.31 86.7599 17.31C86.7599 17.31 86.8299 17.31 86.8599 17.31C88.3599 17.31 87.4699 11.32 88.4099 11.32C89.3499 11.32 88.8699 17.41 96.0299 17.41C96.5699 17.41 96.9999 17.86 96.9999 18.38V20.12C96.9999 20.44 97.2599 20.7 97.5899 20.7C97.9199 20.7 98.1899 20.44 98.1799 20.12V20.14C98.1799 19.8 100.2 23.38 101.88 26.42C102.16 26.92 102.62 26.83 102.62 26.83C103.13 26.05 104.55 22.94 105.96 19.48C106.62 17.86 108.14 16.76 107.76 14.49V14.48Z" fill="#3E2967"/>
<path d="M99.1101 23.74H100.1C100.63 23.74 101.06 23.3102 101.06 22.78V18.63C101.06 18.0998 100.63 17.67 100.1 17.67H99.1101C98.5799 17.67 98.1501 18.0998 98.1501 18.63V22.78C98.1501 23.3102 98.5799 23.74 99.1101 23.74Z" fill="#FADDDC"/>
<path d="M116.89 36.02C116.55 35.42 116.06 34.9599 115.5 34.6399C113.72 32.9699 111.32 31.95 108.67 31.95H87.4699C84.7699 31.95 82.2999 32.9 80.3599 34.47C79.6599 34.78 79.0499 35.31 78.6399 36.02C78.5899 36.11 78.4399 36.38 78.2099 36.81C77.5599 37.76 77.0599 38.8199 76.7299 39.9599C73.6999 47.0599 68.8699 46.31 76.1999 61.9C76.1999 61.9 119.34 61.87 119.34 61.86C129.02 41.22 117.4 36.92 116.88 36.02H116.89Z" fill="#E5E1DC"/>
<path d="M114.6 84.0801H81.8899C77.8599 84.0801 74.4499 81.1301 73.9099 77.1701L70.4099 51.4001C69.7599 46.6201 73.5199 42.3701 78.3899 42.3701H117.41C122.2 42.3701 125.93 46.4801 125.41 51.1901L122.61 76.9601C122.17 81.0101 118.72 84.0801 114.61 84.0801H114.6Z" fill="#E5E5E5"/>
<path d="M117.4 49.7299C117.47 49.7299 117.68 49.7299 117.87 49.9399C118.06 50.1499 118.03 50.3499 118.03 50.4199L115.23 76.1899C115.2 76.5099 114.93 76.7399 114.61 76.7399H81.8999C81.5899 76.7399 81.3199 76.5099 81.2799 76.1999L77.7799 50.4299C77.7799 50.3599 77.7399 50.1499 77.9299 49.9399C78.1199 49.7299 78.3299 49.7299 78.3999 49.7299H117.42M117.42 42.3799H78.3999C73.5299 42.3799 69.7699 46.6299 70.4199 51.4099L73.9199 77.1799C74.4599 81.1299 77.8699 84.0899 81.8999 84.0899H114.61C118.72 84.0899 122.17 81.0199 122.61 76.9699L125.41 51.1999C125.92 46.4899 122.19 42.3799 117.41 42.3799H117.42Z" fill="#F7F7F7"/>
<rect x="126" y="4" width="30" height="16" rx="4" fill="#1C1C1C"/>
<path d="M131.532 16H130.39L132.929 8.92969H134.169L136.718 16H135.575L134.931 14.1348H132.177L131.532 16ZM132.484 13.2363H134.618L133.573 10.2188H133.524L132.484 13.2363ZM137.528 16V10.6973H138.534V11.5371H138.593C138.788 10.9707 139.32 10.6143 139.94 10.6191C140.067 10.6143 140.272 10.6289 140.38 10.6387V11.6348C140.292 11.6152 140.048 11.5713 139.833 11.5762C139.11 11.5713 138.573 12.0742 138.573 12.7676V16H137.528ZM143.231 16.1074C141.728 16.1074 140.746 15.0137 140.751 13.373C140.746 11.7227 141.728 10.6289 143.231 10.6289C144.726 10.6289 145.702 11.7227 145.702 13.373C145.702 15.0137 144.726 16.1074 143.231 16.1074ZM141.796 13.373C141.796 14.3838 142.26 15.2383 143.231 15.2383C144.188 15.2383 144.647 14.3838 144.647 13.373C144.647 12.3574 144.188 11.4932 143.231 11.4883C142.26 11.4932 141.796 12.3574 141.796 13.373ZM147.772 12.8555V16H146.728V10.6973H147.733V11.5664H147.792C148.041 10.9951 148.563 10.6289 149.354 10.6289C150.443 10.6289 151.166 11.3174 151.161 12.6309V16H150.126V12.7578C150.121 11.9863 149.706 11.5273 149.003 11.5273C148.285 11.5273 147.772 12.0107 147.772 12.8555Z" fill="white"/>
</g>
<defs>
<clipPath id="clip0_14_2024">
<rect width="160" height="100" fill="white"/>
</clipPath>
</defs>
</svg>
