<svg width="160" height="100" viewBox="0 0 160 100" fill="none" xmlns="http://www.w3.org/2000/svg">
<g clip-path="url(#clip0_14_1999)">
<path d="M159.25 0.610107H0.619995V99.3801H159.25V0.610107Z" fill="#FFDB92"/>
<path d="M159.86 100H0V0H159.86V100ZM1.24 98.78H158.63V1.22H1.24V98.77V98.78Z" fill="#EFD9B4"/>
<path d="M159.39 82.55H0.76001V99.39H159.39V82.55Z" fill="white"/>
<path d="M160 99.9999H0.140015V81.9399H160V99.9999ZM1.37001 98.7799H158.76V83.1699H1.37001V98.7799Z" fill="white"/>
<path d="M72.65 43.8901C72.31 43.2901 71.82 42.8301 71.26 42.5101C69.48 40.8401 67.08 39.8201 64.44 39.8201H43.25C40.55 39.8201 38.08 40.7701 36.15 42.3401C35.45 42.6501 34.84 43.1801 34.43 43.8901C34.38 43.9801 34.23 44.2501 34 44.6801C33.35 45.6301 32.85 46.6901 32.52 47.8301C29.49 54.9301 24.66 70.5201 31.99 86.1201L39.16 83.6701C38.87 83.0801 38.6 82.4801 38.35 81.8901H68.73C68.48 82.4901 68.21 83.0801 67.92 83.6701L75.09 86.1201C84.79 65.4701 73.17 44.8001 72.65 43.9001V43.8901Z" fill="white"/>
<path d="M31.45 84.9C30.45 83.09 31.12 80.83 32.95 79.84C34.45 79.03 36.26 79.33 37.41 80.47C37.66 80.72 37.88 81 38.06 81.33C38.49 82.11 38.89 82.9 39.26 83.68L32.09 86.13C31.89 85.72 31.68 85.31 31.45 84.91V84.9Z" fill="#FADDDC"/>
<path d="M75.6401 85.0501C76.6401 83.2401 75.9701 80.9801 74.1401 79.9901C72.6401 79.1801 70.8301 79.4801 69.6801 80.6201C69.4301 80.8701 69.2101 81.1501 69.0301 81.4801C68.6001 82.2601 68.2001 83.0501 67.8301 83.8301L75.0001 86.2801C75.2001 85.8701 75.4101 85.4601 75.6401 85.0601V85.0501Z" fill="#FADDDC"/>
<path d="M48.8299 44.48L53.5499 39.76H46.1499V43.37C46.1499 44.77 47.8399 45.47 48.8299 44.48Z" fill="#E5E1DC"/>
<path d="M58.4199 44.48L53.7 39.76H61.0999V43.37C61.0999 44.77 59.4099 45.47 58.4199 44.48Z" fill="#E5E1DC"/>
<path d="M53.6601 42.3201H53.0701V81.6201H53.6601V42.3201Z" fill="#E5E1DC"/>
<path d="M38.0901 53.52H47.5201V62.92C47.5201 63.91 46.7101 64.72 45.7201 64.72H39.8901C38.9001 64.72 38.0901 63.91 38.0901 62.92V53.52Z" fill="#E5E1DC"/>
<path d="M58.97 53.52H68.4V62.92C68.4 63.91 67.59 64.72 66.6 64.72H60.77C59.78 64.72 58.97 63.91 58.97 62.92V53.52Z" fill="#E5E1DC"/>
<path d="M49.8501 17.8999H61.5301C63.1601 17.8999 64.4801 19.2199 64.4801 20.8499V32.3499C64.4801 34.9199 62.4001 36.9999 59.8301 36.9999H58.3501C57.6301 36.9999 57.0501 37.5799 57.0501 38.2999V39.7999H49.9101L49.8501 17.8899V17.8999Z" fill="#FADDDC"/>
<path d="M59.7399 32.77H60.6199C61.4099 32.77 62.0599 32.16 62.0599 31.41V27.33C62.0599 27.02 61.7899 26.76 61.4599 26.76C61.1299 26.76 60.8599 27.01 60.8599 27.33V30.87C60.8599 31.29 60.4999 31.64 60.0499 31.64H59.7399C59.4099 31.64 59.1399 31.89 59.1399 32.21C59.1399 32.53 59.4099 32.78 59.7399 32.78V32.77Z" fill="#E0B1BB"/>
<path d="M48.33 29.0901H50.75V23.9401H48.33V29.0901Z" fill="#FADDDC"/>
<path d="M66.6699 19.9699C66.6699 17.4399 65.11 12.8599 59.18 12.8599C59 12.8599 58.82 12.8999 58.6399 12.8599C51.9399 11.7999 48.0599 14.6599 46.3699 18.7999C45.5099 19.3799 44.95 20.3599 44.95 21.4799C44.95 22.5999 45.55 23.6299 46.45 24.2099C47.01 25.6299 47.2999 27.0699 48.0999 28.3199C48.0999 28.3199 48.1199 29.6799 48.1199 30.5999C48.1199 31.9999 49.88 31.9899 49.88 31.9899V28.8499C48.83 28.4699 48.58 27.5699 48.58 26.1899C48.58 24.8099 49.81 24.8099 49.81 24.8099V26.4499C49.81 26.9399 50.21 27.3399 50.7 27.3399C51.19 27.3399 51.59 26.9399 51.59 26.4499V25.0299C51.59 24.7899 51.8099 24.7599 52.0499 24.7599C61.0499 24.7599 60.14 18.5999 61.11 18.5999C62.08 18.5999 61.85 23.0399 64.44 23.0399C64.47 23.0399 64.4899 24.3999 64.4899 24.3999C64.4899 24.3999 66.68 23.5699 66.68 19.9799L66.6699 19.9699Z" fill="#3E2967"/>
<path d="M55.5701 26.83C55.5901 27.31 55.9901 27.68 56.4701 27.66C56.9501 27.64 57.3201 27.24 57.3001 26.76C57.2801 26.28 56.8801 25.91 56.4001 25.93C55.9201 25.95 55.5501 26.35 55.5701 26.83Z" fill="#757570"/>
<path d="M39.4299 63.21H67.6699C68.9099 63.21 69.9199 64.22 69.9199 65.46V86.45H37.1699V65.46C37.1699 64.22 38.1799 63.21 39.4199 63.21H39.4299Z" fill="#455767"/>
<path d="M53.8101 78.0399C55.3123 78.0399 56.5301 76.8356 56.5301 75.3499C56.5301 73.8643 55.3123 72.6599 53.8101 72.6599C52.3079 72.6599 51.0901 73.8643 51.0901 75.3499C51.0901 76.8356 52.3079 78.0399 53.8101 78.0399Z" fill="#969899"/>
<path d="M147.53 57.17L132.04 38.54C131.78 39.16 131.34 39.69 130.78 40.05L145.86 58.2C146.29 57.71 146.87 57.35 147.52 57.18L147.53 57.17Z" fill="#455767"/>
<path d="M125.69 37.3001C125.69 37.2201 125.69 37.1401 125.7 37.0601L109.85 44.1801L109.3 43.6401C109.1 43.4401 108.81 43.3601 108.54 43.4401L98.66 46.0601C98.07 46.2201 97.88 46.9401 98.31 47.3701L108.17 57.1401C108.6 57.5701 109.33 57.3701 109.49 56.7901L112.14 47.0001C112.21 46.7301 112.14 46.4401 111.94 46.2401L111.33 45.6401L126.17 38.9801C125.88 38.4901 125.71 37.9201 125.71 37.3201L125.69 37.3001Z" fill="#455767"/>
<path d="M147.29 63.4199L143.77 88.1799L145.69 88.4499L149.24 63.4699C148.96 63.5499 148.66 63.5999 148.35 63.5999C147.98 63.5999 147.62 63.5399 147.29 63.4199Z" fill="#455767"/>
<path d="M131.12 37.2999C131.12 36.1299 130.16 35.1899 128.99 35.1899C128.11 35.1899 127.36 35.7199 127.03 36.4599C126.92 36.7199 126.85 36.9999 126.85 37.2999C126.85 37.7399 126.99 38.1499 127.22 38.4799C127.6 39.0399 128.25 39.4099 128.99 39.4099C129.37 39.4099 129.73 39.3099 130.04 39.1399C130.66 38.7999 131.08 38.1599 131.12 37.4199C131.12 37.3799 131.12 37.3399 131.12 37.2999Z" fill="#455767"/>
<path d="M148.4 58.21C148.4 58.21 148.37 58.21 148.35 58.21C147.64 58.21 147.01 58.56 146.62 59.09C146.37 59.44 146.22 59.86 146.22 60.32C146.22 61.17 146.73 61.9 147.46 62.24C147.73 62.36 148.03 62.44 148.35 62.44C148.74 62.44 149.11 62.33 149.43 62.15C150.06 61.78 150.48 61.11 150.48 60.33C150.48 59.18 149.55 58.25 148.4 58.22V58.21Z" fill="#455767"/>
<path style="mix-blend-mode:darken" d="M97.4499 91.7001L108.16 57.1301L98.2999 47.3601L27.8199 93.0301L97.4499 91.7001Z" fill="url(#paint0_linear_14_1999)"/>
<path d="M145.09 92.36C149.453 92.36 152.99 90.7796 152.99 88.83C152.99 86.8805 149.453 85.3 145.09 85.3C140.727 85.3 137.19 86.8805 137.19 88.83C137.19 90.7796 140.727 92.36 145.09 92.36Z" fill="#455767"/>
<rect x="126" y="4" width="30" height="16" rx="4" fill="#1C1C1C"/>
<path d="M131.532 16H130.39L132.929 8.92969H134.169L136.718 16H135.575L134.931 14.1348H132.177L131.532 16ZM132.484 13.2363H134.618L133.573 10.2188H133.524L132.484 13.2363ZM137.528 16V10.6973H138.534V11.5371H138.593C138.788 10.9707 139.32 10.6143 139.94 10.6191C140.067 10.6143 140.272 10.6289 140.38 10.6387V11.6348C140.292 11.6152 140.048 11.5713 139.833 11.5762C139.11 11.5713 138.573 12.0742 138.573 12.7676V16H137.528ZM143.231 16.1074C141.728 16.1074 140.746 15.0137 140.751 13.373C140.746 11.7227 141.728 10.6289 143.231 10.6289C144.726 10.6289 145.702 11.7227 145.702 13.373C145.702 15.0137 144.726 16.1074 143.231 16.1074ZM141.796 13.373C141.796 14.3838 142.26 15.2383 143.231 15.2383C144.188 15.2383 144.647 14.3838 144.647 13.373C144.647 12.3574 144.188 11.4932 143.231 11.4883C142.26 11.4932 141.796 12.3574 141.796 13.373ZM147.772 12.8555V16H146.728V10.6973H147.733V11.5664H147.792C148.041 10.9951 148.563 10.6289 149.354 10.6289C150.443 10.6289 151.166 11.3174 151.161 12.6309V16H150.126V12.7578C150.121 11.9863 149.706 11.5273 149.003 11.5273C148.285 11.5273 147.772 12.0107 147.772 12.8555Z" fill="white"/>
</g>
<defs>
<linearGradient id="paint0_linear_14_1999" x1="71.9899" y1="76.1901" x2="89.4999" y2="45.9301" gradientUnits="userSpaceOnUse">
<stop stop-color="white"/>
<stop offset="1" stop-color="#FFC552"/>
</linearGradient>
<clipPath id="clip0_14_1999">
<rect width="160" height="100" fill="white"/>
</clipPath>
</defs>
</svg>
