<svg width="160" height="100" viewBox="0 0 160 100" fill="none" xmlns="http://www.w3.org/2000/svg">
<g clip-path="url(#clip0_14_1999)">
<path d="M159.25 0.609863H0.619995V99.3799H159.25V0.609863Z" fill="#FFDB92"/>
<path d="M159.86 100H0V0H159.86V100ZM1.24 98.78H158.63V1.22H1.24V98.77V98.78Z" fill="#EFD9B4"/>
<path d="M159.39 82.5498H0.76001V99.3898H159.39V82.5498Z" fill="white"/>
<path d="M160 99.9999H0.140015V81.9399H160V99.9999ZM1.37001 98.7799H158.76V83.1699H1.37001V98.7799Z" fill="white"/>
<path d="M72.65 43.8898C72.31 43.2898 71.82 42.8298 71.26 42.5098C69.48 40.8398 67.08 39.8198 64.44 39.8198H43.25C40.55 39.8198 38.08 40.7698 36.15 42.3398C35.45 42.6498 34.84 43.1798 34.43 43.8898C34.38 43.9798 34.23 44.2498 34 44.6798C33.35 45.6298 32.85 46.6898 32.52 47.8298C29.49 54.9298 24.66 70.5198 31.99 86.1198L39.16 83.6698C38.87 83.0798 38.6 82.4798 38.35 81.8898H68.73C68.48 82.4898 68.21 83.0798 67.92 83.6698L75.09 86.1198C84.79 65.4698 73.17 44.7998 72.65 43.8998V43.8898Z" fill="white"/>
<path d="M31.45 84.9002C30.45 83.0902 31.12 80.8302 32.95 79.8402C34.45 79.0302 36.26 79.3302 37.41 80.4702C37.66 80.7202 37.88 81.0002 38.06 81.3302C38.49 82.1102 38.89 82.9002 39.26 83.6802L32.09 86.1302C31.89 85.7202 31.68 85.3102 31.45 84.9102V84.9002Z" fill="#FADDDC"/>
<path d="M75.64 85.0501C76.64 83.2401 75.97 80.9801 74.14 79.9901C72.64 79.1801 70.83 79.4801 69.68 80.6201C69.43 80.8701 69.21 81.1501 69.03 81.4801C68.6 82.2601 68.2 83.0501 67.83 83.8301L75 86.2801C75.2 85.8701 75.41 85.4601 75.64 85.0601V85.0501Z" fill="#FADDDC"/>
<path d="M48.83 44.4798L53.55 39.7598H46.15V43.3698C46.15 44.7698 47.84 45.4698 48.83 44.4798Z" fill="#E5E1DC"/>
<path d="M58.4199 44.4798L53.7 39.7598H61.0999V43.3698C61.0999 44.7698 59.4099 45.4698 58.4199 44.4798Z" fill="#E5E1DC"/>
<path d="M53.6599 42.3198H53.0699V81.6198H53.6599V42.3198Z" fill="#E5E1DC"/>
<path d="M38.09 53.52H47.52V62.92C47.52 63.91 46.71 64.72 45.72 64.72H39.89C38.9 64.72 38.09 63.91 38.09 62.92V53.52Z" fill="#E5E1DC"/>
<path d="M58.97 53.52H68.4V62.92C68.4 63.91 67.59 64.72 66.6 64.72H60.77C59.78 64.72 58.97 63.91 58.97 62.92V53.52Z" fill="#E5E1DC"/>
<path d="M49.85 17.9001H61.53C63.16 17.9001 64.48 19.2201 64.48 20.8501V32.3501C64.48 34.9201 62.4 37.0001 59.83 37.0001H58.35C57.63 37.0001 57.05 37.5801 57.05 38.3001V39.8001H49.91L49.85 17.8901V17.9001Z" fill="#FADDDC"/>
<path d="M59.74 32.7698H60.62C61.41 32.7698 62.06 32.1598 62.06 31.4098V27.3298C62.06 27.0198 61.79 26.7598 61.46 26.7598C61.13 26.7598 60.86 27.0098 60.86 27.3298V30.8698C60.86 31.2898 60.5 31.6398 60.05 31.6398H59.74C59.41 31.6398 59.14 31.8898 59.14 32.2098C59.14 32.5298 59.41 32.7798 59.74 32.7798V32.7698Z" fill="#E0B1BB"/>
<path d="M48.33 29.0898H50.75V23.9398H48.33V29.0898Z" fill="#FADDDC"/>
<path d="M66.6699 19.9702C66.6699 17.4402 65.11 12.8602 59.18 12.8602C59 12.8602 58.82 12.9002 58.6399 12.8602C51.9399 11.8002 48.0599 14.6602 46.3699 18.8002C45.5099 19.3802 44.95 20.3602 44.95 21.4802C44.95 22.6002 45.55 23.6302 46.45 24.2102C47.01 25.6302 47.2999 27.0702 48.0999 28.3202C48.0999 28.3202 48.1199 29.6802 48.1199 30.6002C48.1199 32.0002 49.88 31.9902 49.88 31.9902V28.8502C48.83 28.4702 48.58 27.5702 48.58 26.1902C48.58 24.8102 49.81 24.8102 49.81 24.8102V26.4502C49.81 26.9402 50.21 27.3402 50.7 27.3402C51.19 27.3402 51.59 26.9402 51.59 26.4502V25.0302C51.59 24.7902 51.8099 24.7602 52.0499 24.7602C61.0499 24.7602 60.14 18.6002 61.11 18.6002C62.08 18.6002 61.85 23.0402 64.44 23.0402C64.47 23.0402 64.4899 24.4002 64.4899 24.4002C64.4899 24.4002 66.68 23.5702 66.68 19.9802L66.6699 19.9702Z" fill="#3E2967"/>
<path d="M55.57 26.83C55.59 27.31 55.99 27.68 56.47 27.66C56.95 27.64 57.32 27.24 57.3 26.76C57.28 26.28 56.88 25.91 56.4 25.93C55.92 25.95 55.55 26.35 55.57 26.83Z" fill="#757570"/>
<path d="M39.43 63.21H67.67C68.91 63.21 69.92 64.22 69.92 65.46V86.45H37.17V65.46C37.17 64.22 38.18 63.21 39.42 63.21H39.43Z" fill="#455767"/>
<path d="M53.81 78.0402C55.3122 78.0402 56.53 76.8358 56.53 75.3502C56.53 73.8645 55.3122 72.6602 53.81 72.6602C52.3078 72.6602 51.09 73.8645 51.09 75.3502C51.09 76.8358 52.3078 78.0402 53.81 78.0402Z" fill="#969899"/>
<path d="M147.53 57.17L132.04 38.54C131.78 39.16 131.34 39.69 130.78 40.05L145.86 58.2C146.29 57.71 146.87 57.35 147.52 57.18L147.53 57.17Z" fill="#455767"/>
<path d="M125.69 37.3001C125.69 37.2201 125.69 37.1401 125.7 37.0601L109.85 44.1801L109.3 43.6401C109.1 43.4401 108.81 43.3601 108.54 43.4401L98.66 46.0601C98.07 46.2201 97.88 46.9401 98.31 47.3701L108.17 57.1401C108.6 57.5701 109.33 57.3701 109.49 56.7901L112.14 47.0001C112.21 46.7301 112.14 46.4401 111.94 46.2401L111.33 45.6401L126.17 38.9801C125.88 38.4901 125.71 37.9201 125.71 37.3201L125.69 37.3001Z" fill="#455767"/>
<path d="M147.29 63.4199L143.77 88.1799L145.69 88.4499L149.24 63.4699C148.96 63.5499 148.66 63.5999 148.35 63.5999C147.98 63.5999 147.62 63.5399 147.29 63.4199Z" fill="#455767"/>
<path d="M131.12 37.2999C131.12 36.1299 130.16 35.1899 128.99 35.1899C128.11 35.1899 127.36 35.7199 127.03 36.4599C126.92 36.7199 126.85 36.9999 126.85 37.2999C126.85 37.7399 126.99 38.1499 127.22 38.4799C127.6 39.0399 128.25 39.4099 128.99 39.4099C129.37 39.4099 129.73 39.3099 130.04 39.1399C130.66 38.7999 131.08 38.1599 131.12 37.4199C131.12 37.3799 131.12 37.3399 131.12 37.2999Z" fill="#455767"/>
<path d="M148.4 58.21C148.4 58.21 148.37 58.21 148.35 58.21C147.64 58.21 147.01 58.56 146.62 59.09C146.37 59.44 146.22 59.86 146.22 60.32C146.22 61.17 146.73 61.9 147.46 62.24C147.73 62.36 148.03 62.44 148.35 62.44C148.74 62.44 149.11 62.33 149.43 62.15C150.06 61.78 150.48 61.11 150.48 60.33C150.48 59.18 149.55 58.25 148.4 58.22V58.21Z" fill="#455767"/>
<path style="mix-blend-mode:darken" d="M97.4499 91.6999L108.16 57.1299L98.2999 47.3599L27.8199 93.0299L97.4499 91.6999Z" fill="url(#paint0_linear_14_1999)"/>
<path d="M145.09 92.3598C149.453 92.3598 152.99 90.7794 152.99 88.8298C152.99 86.8802 149.453 85.2998 145.09 85.2998C140.727 85.2998 137.19 86.8802 137.19 88.8298C137.19 90.7794 140.727 92.3598 145.09 92.3598Z" fill="#455767"/>
<rect x="120" y="4" width="36" height="16" rx="4" fill="#1C1C1C"/>
<path d="M125.817 16H124.675L127.214 8.92969H128.454L131.003 16H129.86L129.216 14.1348H126.462L125.817 16ZM126.77 13.2363H128.903L127.858 10.2188H127.81L126.77 13.2363ZM131.569 14.5059C131.564 13.2949 132.595 12.9824 133.552 12.9141C133.903 12.8945 134.699 12.8506 134.943 12.8408L134.938 12.416C134.943 11.8154 134.572 11.4688 133.864 11.4688C133.249 11.4688 132.878 11.752 132.771 12.1426H131.735C131.828 11.2637 132.648 10.6289 133.903 10.6289C134.748 10.6289 135.979 10.9365 135.983 12.4746V16H134.968V15.2773H134.929C134.724 15.6729 134.235 16.1172 133.356 16.1172C132.351 16.1172 131.564 15.541 131.569 14.5059ZM132.585 14.5156C132.585 15.0234 133.005 15.2822 133.591 15.2871C134.44 15.2822 134.948 14.7158 134.948 14.0859L134.943 13.6025C134.704 13.6172 133.947 13.6709 133.698 13.6855C133.015 13.7344 132.585 13.9932 132.585 14.5156ZM137.243 16V10.6973H138.249V11.5371H138.308C138.503 10.9707 139.035 10.6143 139.655 10.6191C139.782 10.6143 139.987 10.6289 140.095 10.6387V11.6348C140.007 11.6152 139.763 11.5713 139.548 11.5762C138.825 11.5713 138.288 12.0742 138.288 12.7676V16H137.243ZM142.946 16.1074C141.442 16.1074 140.461 15.0137 140.466 13.373C140.461 11.7227 141.442 10.6289 142.946 10.6289C144.44 10.6289 145.417 11.7227 145.417 13.373C145.417 15.0137 144.44 16.1074 142.946 16.1074ZM141.511 13.373C141.511 14.3838 141.975 15.2383 142.946 15.2383C143.903 15.2383 144.362 14.3838 144.362 13.373C144.362 12.3574 143.903 11.4932 142.946 11.4883C141.975 11.4932 141.511 12.3574 141.511 13.373ZM147.487 12.8555V16H146.442V10.6973H147.448V11.5664H147.507C147.756 10.9951 148.278 10.6289 149.069 10.6289C150.158 10.6289 150.881 11.3174 150.876 12.6309V16H149.841V12.7578C149.836 11.9863 149.421 11.5273 148.718 11.5273C148 11.5273 147.487 12.0107 147.487 12.8555Z" fill="white"/>
</g>
<defs>
<linearGradient id="paint0_linear_14_1999" x1="71.9899" y1="76.1899" x2="89.4999" y2="45.9299" gradientUnits="userSpaceOnUse">
<stop stop-color="white"/>
<stop offset="1" stop-color="#FFC552"/>
</linearGradient>
<clipPath id="clip0_14_1999">
<rect width="160" height="100" fill="white"/>
</clipPath>
</defs>
</svg>
