<svg width="160" height="100" viewBox="0 0 160 100" fill="none" xmlns="http://www.w3.org/2000/svg">
<g clip-path="url(#clip0_14_2375)">
<g clip-path="url(#clip1_14_2375)">
<path d="M159.38 0.617188H0.619995V99.3732H159.38V0.617188Z" fill="#FFE45F"/>
<path d="M160 99.9931H0V0.00732422H160V99.9931ZM1.24 98.7733H158.76V1.22715H1.24V98.7633V98.7733Z" fill="#EFD9B4"/>
<path d="M159.38 0.617188H0.619995V41.9613H159.38V0.617188Z" fill="white"/>
<path d="M160 42.5813H0V0.00732422H160V42.5813ZM1.24 41.3515H158.76V1.22715H1.24V41.3515Z" fill="white"/>
<path d="M159.38 43.5708H0.619995V48.1302H159.38V43.5708Z" fill="#B2AEA6"/>
<path d="M160 48.7401H0V42.9609H160V48.7401ZM1.24 47.5203H158.76V44.1808H1.24V47.5203Z" fill="#B2AEA6"/>
<path d="M72.0801 23.8937V7.11605C72.0801 5.58627 70.8301 4.35645 69.2901 4.35645H42.1001C40.5601 4.35645 39.3101 5.59627 39.3101 7.11605V23.6937C39.3101 24.4836 39.6401 25.2435 40.2201 25.7834L48.4401 33.4623C49.0901 34.0722 49.9501 34.4122 50.8501 34.4122H80.8901C81.8601 34.4122 82.2901 33.2124 81.5401 32.6024L72.9001 25.5934C72.3801 25.1735 72.0801 24.5536 72.0801 23.8837V23.8937Z" fill="#455767"/>
<path d="M69.09 7.18604H41.87V22.8838H69.09V7.18604Z" fill="#3888BA"/>
<path d="M55.52 9.5459H44.91V10.6757H55.52V9.5459Z" fill="#A0D1EA"/>
<path d="M58.72 13.5054H48.11V14.6352H58.72V13.5054Z" fill="#A0D1EA"/>
<path d="M55.83 17.1846H45.22V18.3144H55.83V17.1846Z" fill="#A0D1EA"/>
<path d="M71.48 28.0533H48.83L47.46 27.0435H70.11L71.48 28.0533Z" fill="#506575"/>
<path d="M74.3301 31.2628H51.67L50.3 30.2529H72.96L74.3301 31.2628Z" fill="#506575"/>
<path d="M93.99 11.5457L79.84 10.6958L79.08 23.354C78.93 25.8337 80.82 27.9734 83.31 28.1233L84.74 28.2133C85.44 28.2533 85.97 28.8532 85.93 29.5531L85.86 30.793C85.86 31.8228 87.04 33.1526 88.34 32.8927C89.64 32.6327 91.92 31.7328 92.57 30.633L94 11.5457H93.99Z" fill="#FADDDC"/>
<path d="M79.5 23.6137L78.69 23.3337C77.96 23.0838 77.58 22.2939 77.83 21.564L79.2 17.6046C79.31 17.3046 79.64 17.1446 79.94 17.2446C80.24 17.3446 80.4 17.6745 80.3 17.9845L79.11 21.414C78.97 21.824 79.18 22.2739 79.6 22.4139L79.88 22.5139C80.18 22.6138 80.34 22.9438 80.24 23.2537C80.14 23.5637 79.8 23.7137 79.5 23.6137Z" fill="#E0B1BB"/>
<path d="M81.84 17.7045C81.81 18.1245 82.13 18.4844 82.55 18.5144C82.97 18.5444 83.33 18.2244 83.36 17.8045C83.39 17.3846 83.07 17.0246 82.65 16.9946C82.23 16.9646 81.87 17.2846 81.84 17.7045Z" fill="#757570"/>
<path d="M89.27 7.59578C91.35 8.56564 94.65 10.5554 95.07 14.8547C95.28 17.0344 93.41 23.3235 93.41 23.3235C93.16 23.9935 92.6 25.1233 92.46 25.1633L92.24 24.9433L91.66 21.8538C91.15 21.8238 89.39 18.7642 89.36 19.2741L89.31 20.064V20.034L89.26 20.6939C89.24 20.9639 89.01 21.1739 88.74 21.1539C88.47 21.1339 88.26 20.9039 88.28 20.6339L88.41 18.5142C88.46 17.6943 88.67 16.6745 88.26 15.9646C87.9 15.3447 87.38 14.4848 86.26 14.1548C85.14 13.8249 82.74 13.8849 81.38 13.4749C79.32 12.855 78.92 9.99544 79.55 8.01572C80.09 6.30596 85.76 5.94601 89.29 7.58578L89.27 7.59578Z" fill="#3E2967"/>
<path d="M80.23 7.84619C80.12 7.87619 78.86 8.24613 78.72 9.85591C78.59 11.4557 79.56 15.8251 79.56 15.8251C79.56 15.8251 79.62 11.6756 80.94 11.6057C82.26 11.5357 80.23 7.85619 80.23 7.85619V7.84619Z" fill="#3E2967"/>
<path d="M90.0306 22.7212L90.7294 22.7632C91.2586 22.795 91.7134 22.3918 91.7452 21.8627L91.9582 18.3196C91.9901 17.7904 91.5868 17.3356 91.0576 17.3038L90.3588 17.2618C89.8296 17.23 89.3748 17.6332 89.343 18.1624L89.13 21.7055C89.0981 22.2346 89.5014 22.6894 90.0306 22.7212Z" fill="#FADDDC"/>
<path d="M78.5699 77.0261L80.6999 89.1643C80.9999 90.8641 82.4799 92.1039 84.1999 92.1039C86.0999 92.1039 87.6599 90.6141 87.7499 88.7244L88.3599 76.0962L78.5699 77.0261Z" fill="#3E2967"/>
<path d="M94.5801 76.7164L94.2101 88.8847C94.1601 90.6744 95.5401 92.1742 97.3301 92.2642C98.9001 92.3442 100.3 91.3143 100.69 89.7946L104.22 75.9365L94.5801 76.7164Z" fill="#3E2967"/>
<path d="M108.36 88.5346L96.26 85.9149L103.49 84.6951L102.14 83.3353L92.77 84.5951V77.5161H89.69V84.6251L79.98 83.2753L78.22 84.4251L86.23 85.9949L73.41 88.6245L73.28 90.2443L89.6 88.2146L90.17 93.6838L92.02 93.7138L92.24 88.2846L108.57 90.1743L108.36 88.5346Z" fill="#8C8C8C"/>
<path d="M74.6301 92.8141C75.5634 92.8141 76.3201 92.0576 76.3201 91.1243C76.3201 90.1911 75.5634 89.4346 74.6301 89.4346C73.6967 89.4346 72.9401 90.1911 72.9401 91.1243C72.9401 92.0576 73.6967 92.8141 74.6301 92.8141Z" fill="#8C8C8C"/>
<path d="M91.03 96.8834C91.9633 96.8834 92.72 96.1269 92.72 95.1937C92.72 94.2604 91.9633 93.5039 91.03 93.5039C90.0966 93.5039 89.34 94.2604 89.34 95.1937C89.34 96.1269 90.0966 96.8834 91.03 96.8834Z" fill="#8C8C8C"/>
<path d="M107.83 93.3639C108.763 93.3639 109.52 92.6074 109.52 91.6741C109.52 90.7409 108.763 89.9844 107.83 89.9844C106.897 89.9844 106.14 90.7409 106.14 91.6741C106.14 92.6074 106.897 93.3639 107.83 93.3639Z" fill="#8C8C8C"/>
<path d="M102.14 87.7345C103.073 87.7345 103.83 86.978 103.83 86.0447C103.83 85.1115 103.073 84.355 102.14 84.355C101.207 84.355 100.45 85.1115 100.45 86.0447C100.45 86.978 101.207 87.7345 102.14 87.7345Z" fill="#8C8C8C"/>
<path d="M79.24 87.6046C80.1734 87.6046 80.93 86.8481 80.93 85.9149C80.93 84.9816 80.1734 84.2251 79.24 84.2251C78.3067 84.2251 77.55 84.9816 77.55 85.9149C77.55 86.8481 78.3067 87.6046 79.24 87.6046Z" fill="#8C8C8C"/>
<path d="M68.21 32.4424C67.91 30.2927 65.92 28.7829 63.77 29.0829C62 29.3329 60.67 30.7127 60.42 32.3924C60.37 32.7524 60.36 33.1323 60.42 33.5223C60.55 34.4521 60.71 35.372 60.89 36.2619L68.45 33.8722C68.36 33.4023 68.28 32.9224 68.22 32.4424H68.21Z" fill="#FADDDC"/>
<path d="M94.63 68.5172C95.51 66.5374 94.61 64.2078 92.63 63.3279C92.42 63.2379 72.1 53.9492 68.44 33.8721L60.88 36.2617C65.7 59.7984 88.44 70.0869 89.45 70.5269C91.44 71.4067 93.75 70.5069 94.63 68.5172Z" fill="#FADDDC"/>
<path d="M101.45 30.0728H80.25C77.55 30.0728 69.76 31.0126 66.54 34.7221C63.74 37.9516 63.34 42.8309 63.72 54.5093C63.82 57.6288 66.39 60.1185 69.51 60.1085C82.2 60.0785 112.12 59.9985 112.12 59.9785C115.56 48.3702 115.5 43.9508 113.58 38.0416C111.44 31.4726 102.89 30.0728 101.45 30.0728Z" fill="#74E0C1"/>
<path d="M106.22 78.5659H75.7499C71.9999 78.5659 68.8199 75.6163 68.3199 71.6569L65.0599 45.8905C64.4499 41.1112 67.9499 36.8618 72.4899 36.8618H108.83C113.29 36.8618 116.76 40.9712 116.28 45.6806L113.67 71.4469C113.26 75.4963 110.05 78.5659 106.22 78.5659Z" fill="#E5E5E5"/>
<path d="M108.83 44.221C108.89 44.221 109.09 44.221 109.26 44.431C109.43 44.641 109.41 44.8409 109.41 44.9109L106.8 70.6773C106.77 70.9972 106.52 71.2272 106.22 71.2272H75.7499C75.4599 71.2272 75.2099 70.9972 75.1699 70.6873L71.9099 44.9209C71.9099 44.8509 71.8699 44.641 72.0499 44.431C72.2199 44.221 72.4199 44.221 72.4899 44.221H108.83ZM108.83 36.8721H72.4899C67.9499 36.8721 64.4499 41.1215 65.0599 45.9008L68.3199 71.6671C68.8199 75.6166 71.9999 78.5762 75.7499 78.5762H106.22C110.05 78.5762 113.26 75.5066 113.67 71.4572L116.28 45.6908C116.76 40.9815 113.28 36.8721 108.83 36.8721Z" fill="#F7F7F7"/>
<path d="M74.4301 63.9282H107.82L107.08 71.1772L75.4601 71.1872L74.4301 63.9282Z" fill="#B2AEA6"/>
<path d="M46.7301 55.3892H4.56006C4.28392 55.3892 4.06006 55.613 4.06006 55.8891V95.3335C4.06006 95.6096 4.28392 95.8334 4.56006 95.8334H46.7301C47.0062 95.8334 47.2301 95.6096 47.2301 95.3335V55.8891C47.2301 55.613 47.0062 55.3892 46.7301 55.3892Z" fill="#E2E2E2"/>
<path d="M44.3399 57.729H6.93994C6.6638 57.729 6.43994 57.9528 6.43994 58.2289V65.5379C6.43994 65.814 6.6638 66.0378 6.93994 66.0378H44.3399C44.6161 66.0378 44.8399 65.814 44.8399 65.5379V58.2289C44.8399 57.9528 44.6161 57.729 44.3399 57.729Z" fill="white"/>
<path d="M44.3399 67.2773H6.93994C6.6638 67.2773 6.43994 67.5012 6.43994 67.7773V75.0862C6.43994 75.3623 6.6638 75.5862 6.93994 75.5862H44.3399C44.6161 75.5862 44.8399 75.3623 44.8399 75.0862V67.7773C44.8399 67.5012 44.6161 67.2773 44.3399 67.2773Z" fill="white"/>
<path d="M44.3399 76.8364H6.93994C6.6638 76.8364 6.43994 77.0603 6.43994 77.3364V93.0441C6.43994 93.3202 6.6638 93.5441 6.93994 93.5441H44.3399C44.6161 93.5441 44.8399 93.3202 44.8399 93.0441V77.3364C44.8399 77.0603 44.6161 76.8364 44.3399 76.8364Z" fill="white"/>
<path d="M30.1101 59.6484H20.6701C20.1233 59.6484 19.6801 60.0916 19.6801 60.6383C19.6801 61.185 20.1233 61.6282 20.6701 61.6282H30.1101C30.6568 61.6282 31.1001 61.185 31.1001 60.6383C31.1001 60.0916 30.6568 59.6484 30.1101 59.6484Z" fill="#B2AEA6"/>
<path d="M30.1101 69.4272H20.6701C20.1233 69.4272 19.6801 69.8704 19.6801 70.4171C19.6801 70.9638 20.1233 71.407 20.6701 71.407H30.1101C30.6568 71.407 31.1001 70.9638 31.1001 70.4171C31.1001 69.8704 30.6568 69.4272 30.1101 69.4272Z" fill="#B2AEA6"/>
<path d="M30.1101 79.3057H20.6701C20.1233 79.3057 19.6801 79.7488 19.6801 80.2955C19.6801 80.8422 20.1233 81.2854 20.6701 81.2854H30.1101C30.6568 81.2854 31.1001 80.8422 31.1001 80.2955C31.1001 79.7488 30.6568 79.3057 30.1101 79.3057Z" fill="#B2AEA6"/>
<path d="M46.7301 55.3893L42.5901 51.8198H7.77005L4.55005 55.3893C4.55005 55.3893 46.8401 55.5093 46.7201 55.3893H46.7301Z" fill="#C1BFBC"/>
<path d="M133.35 92.5939C141.69 92.5939 148.45 89.2007 148.45 85.015C148.45 80.8292 141.69 77.436 133.35 77.436C125.011 77.436 118.25 80.8292 118.25 85.015C118.25 89.2007 125.011 92.5939 133.35 92.5939Z" fill="#F5B1BA"/>
<path d="M127.83 86.8747C127.64 87.0047 127.24 87.9645 127.47 88.3445C127.7 88.7244 128.54 89.3943 129.68 89.0144C130.82 88.6344 131.22 88.6144 131.68 88.2545C132.14 87.8945 134.33 86.4647 134.6 85.0549C134.6 85.0549 135.45 84.845 135.7 84.785C135.95 84.725 137.16 84.425 137.16 84.425C137.16 84.425 135.53 84.955 135.2 85.7449C134.87 86.5347 135.37 87.1147 135.54 87.1746C135.71 87.2346 133.38 87.3146 133.58 87.7346C133.78 88.1545 135.35 89.9743 136.38 89.6143C136.38 89.6143 136.46 90.2042 137.53 90.0942C138.6 89.9842 140.39 89.3943 140.84 89.0544C140.84 89.0544 140.67 89.8443 141.63 89.4743C142.59 89.1044 143.45 88.2945 143.82 87.7346C143.82 87.7346 144.07 88.4045 144.77 87.7946C145.47 87.1846 148.25 83.5552 147.04 80.4156C145.83 77.276 144.77 74.1665 142.02 72.9567C139.27 71.7468 128.95 71.1069 125.89 74.4964C125.89 74.4964 126.23 80.4156 126.68 80.9455C127.13 81.4755 127.84 86.8647 127.84 86.8647L127.83 86.8747Z" fill="white"/>
<path d="M121.82 84.7652C121.46 85.0252 120.81 86.8449 122.3 87.9548C123.79 89.0646 125.19 89.4346 125.89 89.0646C126.59 88.6947 127.04 88.2847 126.96 87.7048C126.88 87.1249 125.76 86.225 125.43 86.055C125.1 85.8851 122.7 84.1253 121.82 84.7552V84.7652Z" fill="white"/>
<path d="M121.69 78.1959C122.14 77.456 123.14 76.3961 124.52 75.8462C125.9 75.2963 127.95 75.4163 128.92 75.8862C129.89 76.3562 131.83 79.9057 132.36 84.265C132.36 84.265 132.57 85.8748 130.9 86.6747C128.74 87.7045 127.18 87.1946 124.46 85.8648C124.46 85.8648 124.04 86.0648 123.25 85.4149C122.46 84.765 122.06 85.1249 122.06 85.1249C122.06 85.1249 119.45 81.8454 121.69 78.1959Z" fill="#AAA399"/>
<path d="M121.43 77.4261C121.89 76.6462 122.92 75.5164 124.34 74.9365C125.76 74.3565 127.86 74.4765 128.85 74.9765C129.84 75.4764 132.71 77.916 132.1 82.8553C132.1 82.8553 132.52 85.375 130.8 86.2149C129.08 87.0547 127.44 87.5147 124.64 86.1049C124.64 86.1049 123.84 86.4448 123.03 85.7649C122.22 85.085 121.81 84.7751 121.81 84.7751C121.81 84.7751 119.13 81.2956 121.43 77.4361V77.4261Z" fill="white"/>
<path d="M121.58 77.0862C121.2 77.1161 118.22 78.6659 118.07 80.3657C117.92 82.0655 118.53 82.6054 119.42 83.3753C120.31 84.1452 120.42 85.115 120.81 85.075C121.2 85.035 121.54 84.3051 121.54 84.3051C121.54 84.3051 121.77 85.345 122.78 85.7349C123.79 86.1249 124.28 86.0049 124.65 86.1049C125.02 86.2049 125.37 84.8151 126.37 84.0052C127.37 83.1953 126.99 80.8356 126.22 80.0257C125.45 79.2159 124.17 76.8962 121.59 77.0962L121.58 77.0862Z" fill="#897F6E"/>
<path d="M129.015 85.0884C129.614 84.8478 129.971 84.3286 129.81 83.9289C129.65 83.5292 129.033 83.4002 128.434 83.6409C127.834 83.8816 127.478 84.4007 127.638 84.8004C127.799 85.2002 128.415 85.3291 129.015 85.0884Z" fill="#444441"/>
<path d="M128.07 86.3149C127.96 86.3149 127.84 86.3149 127.72 86.285C127.62 86.265 127.54 86.175 127.56 86.065C127.58 85.965 127.67 85.885 127.78 85.905C128.19 85.965 128.49 85.905 128.67 85.735C128.94 85.4751 128.9 85.0151 128.9 85.0051L128.85 84.5752L129.2 84.8352C129.33 84.9351 129.75 85.1751 130.07 85.1051C130.21 85.0751 130.32 84.9851 130.41 84.8252C130.46 84.7352 130.58 84.6952 130.67 84.7452C130.76 84.7952 130.8 84.9151 130.75 85.0051C130.61 85.2651 130.41 85.4251 130.15 85.4751C129.83 85.5451 129.5 85.4251 129.27 85.3151C129.24 85.5251 129.16 85.805 128.94 86.005C128.73 86.205 128.44 86.3049 128.08 86.3049L128.07 86.3149Z" fill="#444441"/>
<path d="M126.67 88.6847C126.58 88.6847 126.5 88.6147 126.48 88.5247C126.36 87.8248 125.81 87.7648 125.79 87.7548C125.69 87.7448 125.61 87.6548 125.62 87.5449C125.63 87.4449 125.72 87.3649 125.83 87.3749C126.13 87.4049 126.73 87.6648 126.86 88.4547C126.88 88.5547 126.81 88.6547 126.7 88.6747C126.69 88.6747 126.68 88.6747 126.67 88.6747V88.6847Z" fill="#AAA399"/>
<path d="M126.02 89.2345C125.93 89.2345 125.85 89.1645 125.83 89.0745C125.71 88.3746 125.16 88.3146 125.14 88.3046C125.04 88.2946 124.96 88.2046 124.97 88.0946C124.98 87.9947 125.07 87.9147 125.18 87.9247C125.48 87.9547 126.08 88.2146 126.21 89.0045C126.23 89.1045 126.16 89.2045 126.05 89.2245C126.04 89.2245 126.03 89.2245 126.02 89.2245V89.2345Z" fill="#AAA399"/>
<path d="M127.78 88.8644C127.69 88.8644 127.61 88.8044 127.59 88.7144C127.42 87.9046 128.16 87.3946 128.19 87.3746C128.28 87.3146 128.4 87.3346 128.46 87.4246C128.52 87.5146 128.5 87.6346 128.41 87.6946C128.38 87.7146 127.85 88.0845 127.97 88.6344C127.99 88.7344 127.92 88.8344 127.82 88.8644C127.81 88.8644 127.79 88.8644 127.78 88.8644Z" fill="#AAA399"/>
<path d="M128.88 89.3146C128.8 89.3146 128.72 89.2646 128.7 89.1846C128.48 88.4847 129.24 87.7148 129.27 87.6848C129.34 87.6148 129.47 87.6148 129.54 87.6848C129.61 87.7548 129.61 87.8848 129.54 87.9548C129.36 88.1347 128.94 88.6747 129.06 89.0646C129.09 89.1646 129.04 89.2746 128.94 89.3046C128.92 89.3046 128.9 89.3046 128.88 89.3046V89.3146Z" fill="#AAA399"/>
<path d="M133.79 88.2348C133.79 88.2348 133.7 88.2148 133.66 88.1848C133.51 88.0448 133.34 87.8548 133.39 87.6448C133.43 87.5149 133.54 87.4249 133.73 87.3749C134.03 87.3049 135.19 87.0649 135.5 87.0449C135.62 87.0449 135.95 86.845 136.26 86.645C136.25 86.625 136.24 86.605 136.23 86.575C136.18 86.415 136.23 86.235 136.4 86.0451C136.69 85.6951 137.69 85.7251 138.31 85.7851C138.31 85.7851 138.31 85.7851 138.31 85.7751C138.31 85.6751 138.35 85.5351 138.53 85.4152C138.78 85.2452 139.56 85.2452 140.14 85.2652C140.09 85.1152 140.12 84.9852 140.14 84.9452C140.22 84.5753 140.89 84.3153 142.06 83.8854C142.75 83.6354 143.6 83.3154 143.78 83.0855C143.85 83.0055 143.97 82.9855 144.05 83.0555C144.13 83.1255 144.15 83.2455 144.08 83.3255C143.85 83.6154 143.21 83.8654 142.19 84.2453C141.59 84.4653 140.58 84.8352 140.51 85.0352V85.0552C140.51 85.0552 140.49 85.1252 140.53 85.1852C140.57 85.2552 140.66 85.2952 140.74 85.3052C140.84 85.3252 140.9 85.4252 140.88 85.5251C140.86 85.6251 140.78 85.6951 140.68 85.6851C139.89 85.6251 138.93 85.6351 138.76 85.7451C138.71 85.7751 138.71 85.7951 138.71 85.7951C138.71 85.8051 138.75 85.8551 138.79 85.8751C138.86 85.9251 138.89 86.0251 138.86 86.1051C138.83 86.185 138.74 86.235 138.66 86.225C137.85 86.1151 136.88 86.1151 136.72 86.295C136.63 86.405 136.62 86.465 136.63 86.475C136.63 86.475 136.65 86.485 136.66 86.495C136.73 86.525 136.78 86.585 136.78 86.655C136.78 86.725 136.76 86.795 136.71 86.8349C136.52 86.9749 135.87 87.4249 135.56 87.4449C135.29 87.4649 134.16 87.6948 133.86 87.7648C133.85 87.7648 133.84 87.7648 133.83 87.7648C133.85 87.7948 133.89 87.8448 133.97 87.9148C134.05 87.9848 134.05 88.1048 133.98 88.1848C133.94 88.2248 133.89 88.2448 133.84 88.2448L133.79 88.2348Z" fill="#AAA399"/>
<path d="M135.1 86.4049C134.76 85.2151 136.39 84.4052 137.03 84.1752C136.87 83.8352 136.38 83.3053 136.04 81.9955C135.55 80.0858 138.34 78.196 138.87 77.9261C138.96 77.8761 139.09 77.9061 139 77.9561C138.58 78.166 135.91 79.8658 136.34 81.5456C136.79 83.2953 137.81 84.4752 137.75 84.4952C137.07 84.7051 135.32 85.455 135.14 86.3649C135.12 86.4649 135.11 86.4949 135.09 86.4049H135.1Z" fill="#AAA399"/>
<path d="M131.88 88.0546C133.58 86.8447 134.32 85.8749 134.47 84.6051C134.61 83.4552 134.05 82.6253 133.94 82.5153C133.87 82.4454 134.23 82.6253 134.3 82.7053C134.84 83.3352 135.34 84.2351 135.01 84.995C134.45 86.2548 133.74 87.0047 131.96 88.0846C131.93 88.1046 131.8 88.1246 131.88 88.0546Z" fill="#AAA399"/>
<path d="M124.67 82.9255C124.65 83.2155 124.87 83.4654 125.17 83.4854C125.47 83.5054 125.71 83.2855 125.73 82.9855C125.75 82.6855 125.53 82.4456 125.23 82.4256C124.93 82.4056 124.69 82.6255 124.67 82.9255Z" fill="#444441"/>
<path d="M129.23 80.8654C129.21 81.1554 129.43 81.4054 129.73 81.4254C130.03 81.4454 130.27 81.2254 130.29 80.9254C130.31 80.6255 130.09 80.3855 129.79 80.3655C129.49 80.3455 129.25 80.5655 129.23 80.8654Z" fill="#444441"/>
<path d="M125.73 74.5966C125.73 74.5966 126.39 70.1372 126.97 69.6373C127.55 69.1374 129.13 71.687 129.58 73.0068C130.03 74.3266 130.72 77.6062 130.63 77.7661C130.54 77.9261 129.81 74.7166 125.73 74.5966Z" fill="#897F6E"/>
</g>
<rect x="121" y="4" width="35" height="16" rx="4" fill="#1C1C1C"/>
<path d="M126.659 16H125.517L128.056 8.92969H129.296L131.845 16H130.702L130.058 14.1348H127.304L126.659 16ZM127.611 13.2363H129.745L128.7 10.2188H128.651L127.611 13.2363ZM132.704 16V10.6973H133.749V16H132.704ZM132.567 9.26172C132.572 8.91992 132.87 8.64648 133.231 8.64648C133.588 8.64648 133.886 8.91992 133.886 9.26172C133.886 9.60352 133.588 9.88184 133.231 9.87695C132.87 9.88184 132.572 9.60352 132.567 9.26172ZM137.001 16.1074C135.722 16.1025 134.784 15.0723 134.784 13.3633C134.784 11.6348 135.736 10.6289 137.011 10.6289C137.997 10.6289 138.354 11.2246 138.544 11.5566H138.593V8.92969H139.638V16H138.622V15.1699H138.544C138.349 15.5166 137.968 16.1025 137.001 16.1074ZM135.849 13.3438C135.844 14.4082 136.322 15.2139 137.235 15.2188C138.124 15.2139 138.622 14.457 138.622 13.3438C138.622 12.2402 138.134 11.5127 137.235 11.5176C136.312 11.5127 135.844 12.2988 135.849 13.3438ZM143.28 16.1074C141.718 16.1074 140.756 15.0283 140.761 13.3828C140.756 11.752 141.732 10.6289 143.212 10.6289C144.418 10.6289 145.565 11.376 145.565 13.2949V13.666H141.796C141.825 14.6768 142.421 15.248 143.29 15.248C143.881 15.248 144.267 14.9941 144.442 14.6719H145.497C145.263 15.5312 144.447 16.1074 143.28 16.1074ZM141.801 12.8848H144.54C144.54 12.0791 144.018 11.4834 143.222 11.4883C142.387 11.4834 141.845 12.1377 141.801 12.8848ZM147.646 12.8555V16H146.601V10.6973H147.606V11.5664H147.665C147.914 10.9951 148.437 10.6289 149.228 10.6289C150.316 10.6289 151.039 11.3174 151.034 12.6309V16H149.999V12.7578C149.994 11.9863 149.579 11.5273 148.876 11.5273C148.158 11.5273 147.646 12.0107 147.646 12.8555Z" fill="white"/>
</g>
<defs>
<clipPath id="clip0_14_2375">
<rect width="160" height="100" fill="white"/>
</clipPath>
<clipPath id="clip1_14_2375">
<rect width="160" height="100" fill="white"/>
</clipPath>
</defs>
</svg>
