<svg width="160" height="100" viewBox="0 0 160 100" fill="none" xmlns="http://www.w3.org/2000/svg">
<g clip-path="url(#clip0_14_2407)">
<g clip-path="url(#clip1_14_2407)">
<path d="M159.25 0.617188H0.619995V99.3732H159.25V0.617188Z" fill="#FFE45F"/>
<path d="M159.86 99.9931H0V0.00732422H159.86V99.9931ZM1.24 98.7733H158.63V1.22715H1.24V98.7633V98.7733Z" fill="#EFD9B4"/>
<path d="M120.9 82.2553C120.76 81.4254 119.87 78.7458 119.32 77.026C118.77 75.3063 119.66 72.4867 119.94 72.0068C120.22 71.5268 119.6 67.4674 120.01 65.6777C120.42 63.8879 120.42 63.548 120.84 63.6179C121.26 63.6879 123.45 65.8176 124.62 68.6372C124.62 68.6372 127.78 68.4273 128.61 68.4973C128.61 68.4973 131.29 63.408 132.46 63.338C133.63 63.268 134.52 69.5271 133.84 72.4867C133.84 72.4867 135.22 75.4463 133.91 79.1557C132.6 82.8652 132.95 83.3551 132.95 83.3551L133.23 84.595C133.23 84.595 129.17 88.7244 120.85 85.1449L120.92 82.2553H120.9Z" fill="#FEFEFE"/>
<path d="M119.31 77.0561C118.76 75.3364 119.65 72.5168 119.93 72.0369C120.21 71.5569 119.59 67.4975 120 65.7078C120.41 63.918 120.41 63.5781 120.83 63.6481C121.25 63.718 123.44 65.8477 124.61 68.6673C124.61 68.6673 125.63 68.5174 126.45 68.5873C126.45 68.5873 127.71 70.0072 126.82 73.9366C126.35 76.0263 125.79 77.2061 124.69 78.286C123.59 79.3658 121.87 79.6458 120.56 78.8159C120.06 78.4959 119.48 77.6061 119.31 77.0561Z" fill="#897F6E"/>
<path d="M128.62 68.5275C128.62 68.5275 131.3 63.4382 132.47 63.3683C133.64 63.2983 134.53 69.5574 133.85 72.517C133.85 72.517 127.8 68.4575 128.62 68.5275Z" fill="#897F6E"/>
<path d="M126.47 80.7456C125.92 80.7456 124.64 79.0459 125.19 78.6359C125.74 78.226 127.9 78.226 128.17 78.6859C128.44 79.1459 127.67 80.2457 127.34 80.5657C127.01 80.8856 126.65 80.7456 126.47 80.7456Z" fill="#444441"/>
<path d="M129.96 68.8671C129.96 68.8671 132.48 70.2469 133.08 71.2068C133.08 71.2068 132.9 66.3874 132.39 65.8875C131.88 65.3876 129.96 68.8671 129.96 68.8671Z" fill="#9E888D"/>
<path d="M121.11 65.8379C121.11 65.8379 120.24 67.3077 120.79 71.1571C120.79 71.1571 123.22 69.2774 123.73 69.1374C123.73 69.1374 122.54 66.3878 121.12 65.8379H121.11Z" fill="#9E888D"/>
<path d="M123.31 76.1263C123.702 76.1263 124.02 75.8085 124.02 75.4164C124.02 75.0244 123.702 74.7065 123.31 74.7065C122.918 74.7065 122.6 75.0244 122.6 75.4164C122.6 75.8085 122.918 76.1263 123.31 76.1263Z" fill="#444441"/>
<path d="M130.15 76.1263C130.542 76.1263 130.86 75.8085 130.86 75.4164C130.86 75.0244 130.542 74.7065 130.15 74.7065C129.758 74.7065 129.44 75.0244 129.44 75.4164C129.44 75.8085 129.758 76.1263 130.15 76.1263Z" fill="#444441"/>
<path d="M159.39 82.5454H0.76001V99.383H159.39V82.5454Z" fill="white"/>
<path d="M160 99.993H0.140015V81.9355H160V99.993ZM1.37001 98.7732H158.76V83.1654H1.37001V98.7732Z" fill="white"/>
<path d="M72.65 43.8907C72.31 43.2908 71.82 42.8309 71.26 42.5109C69.48 40.8411 67.08 39.8213 64.44 39.8213H43.25C40.55 39.8213 38.08 40.7712 36.15 42.3409C35.45 42.6509 34.84 43.1808 34.43 43.8907C34.38 43.9807 34.23 44.2507 34 44.6806C33.35 45.6305 32.85 46.6903 32.52 47.8302C29.49 54.9291 23.61 72.6966 37.35 85.9447L41.87 79.1757C41.58 78.5858 37.7 74.8663 37.45 74.2664L68.72 81.8853C68.47 82.4852 68.2 83.0752 67.91 83.6651L69.55 85.7448C86.24 65.4277 73.16 44.7906 72.64 43.8907H72.65Z" fill="#FADDDC"/>
<path d="M75.12 84.4751C75.57 82.4554 74.29 80.4757 72.26 80.0457C70.59 79.6858 68.94 80.4957 68.16 81.9055C67.99 82.2154 67.86 82.5454 67.78 82.9053C67.59 83.7752 67.43 84.6451 67.29 85.5049L74.86 85.8349C74.94 85.385 75.03 84.935 75.13 84.4851L75.12 84.4751Z" fill="#FADDDC"/>
<path d="M64.45 39.8213L43.17 39.7513C28.63 39.3114 26.96 59.2885 26.96 59.2885L35.94 61.4982C35.94 61.4982 38.51 82.4053 38.26 81.8153H68.64C68.39 82.4153 71.72 62.0881 71.72 62.0881L80.56 58.4087C80.56 58.4087 76.44 39.1214 64.45 39.8213Z" fill="#74E0C1"/>
<path d="M57.9799 62.2781H53.0699V60.9483H56.0599L53.4299 53.8493L54.6799 53.3794L57.9799 62.2781Z" fill="white"/>
<path d="M47 58.5087L45.67 58.4887C45.69 57.1289 46.35 54.5492 48.68 54.4893C48.71 54.4893 48.75 54.4893 48.78 54.4893C51.14 54.4893 52.02 56.579 52.16 57.7088L50.84 57.8688C50.81 57.6588 50.49 55.7391 48.72 55.8291C47.09 55.8691 47.01 58.4887 47.01 58.5187L47 58.5087Z" fill="white"/>
<path d="M58.84 57.3592L57.51 57.3392C57.53 55.9794 58.19 53.3997 60.52 53.3397C62.89 53.2897 63.85 55.4194 63.99 56.5593L62.67 56.7193C62.64 56.5093 62.38 54.5996 60.55 54.6795C58.92 54.7195 58.85 57.3392 58.84 57.3692V57.3592Z" fill="white"/>
<path d="M55.59 67.8173C48.92 67.8173 48.3 62.2281 48.29 62.1781L49.62 62.0481C49.64 62.2281 50.15 66.4875 55.59 66.4875C60.5 66.4875 60.67 61.4382 60.68 61.2183L62.01 61.2483C61.97 63.5179 60.57 67.8173 55.59 67.8173Z" fill="white"/>
<path d="M54.38 19.8242L69.31 22.6638L66.77 36.0219C66.27 38.6416 63.74 40.3613 61.13 39.8614L59.62 39.5714C58.89 39.4314 58.18 39.9114 58.04 40.6513L57.79 41.9611C57.52 43.0309 55.95 44.1008 54.66 43.4909C53.37 42.881 51.24 41.3512 50.86 40.0314L54.4 19.8242H54.38Z" fill="#FADDDC"/>
<path d="M66.26 36.1718L67.17 36.0918C67.99 36.0219 68.6 35.302 68.53 34.4821L68.14 30.0127C68.11 29.6728 67.81 29.4128 67.47 29.4428C67.13 29.4728 66.87 29.7727 66.9 30.1127L67.23 33.9921C67.27 34.4521 66.93 34.862 66.46 34.902L66.14 34.932C65.8 34.962 65.54 35.262 65.57 35.6019C65.6 35.9419 65.9 36.2018 66.24 36.1718H66.26Z" fill="#E0B1BB"/>
<path d="M65.38 29.4231C65.3 29.863 64.87 30.153 64.43 30.073C63.99 29.993 63.7 29.5631 63.78 29.1231C63.86 28.6832 64.29 28.3932 64.73 28.4732C65.17 28.5532 65.46 28.9832 65.38 29.4231Z" fill="#757570"/>
<path d="M60.32 16.9645C57.91 17.4244 53.95 18.6242 52.39 22.9736C51.6 25.1833 51.89 32.2023 51.89 32.2023C51.97 32.9722 52.25 34.282 52.39 34.362L52.68 34.192L54.1 31.1324C54.64 31.2324 57.27 28.5228 57.17 29.0627L57.01 29.8926L57.03 29.8626L56.9 30.5625C56.85 30.8525 57.03 31.1324 57.32 31.1824C57.61 31.2324 57.89 31.0525 57.94 30.7625L58.37 28.5328C58.54 27.6629 58.58 26.5531 59.2 25.9232C59.74 25.3733 60.5 24.6134 61.76 24.5734C63.02 24.5334 65.49 25.2233 67.01 25.1533C69.31 25.0533 70.49 22.1837 70.35 19.964C70.23 18.0443 64.45 16.1746 60.34 16.9545L60.32 16.9645Z" fill="#3E2967"/>
<path d="M69.64 19.6045C69.75 19.6645 70.96 20.3844 70.68 22.0841C70.4 23.7839 68.24 28.0633 68.24 28.0633C68.24 28.0633 69.27 23.7339 67.92 23.314C66.57 22.894 69.65 19.6045 69.65 19.6045H69.64Z" fill="#3E2967"/>
<path d="M56.7234 26.7415L55.8491 26.575C55.3282 26.4759 54.8256 26.8177 54.7264 27.3384L53.9876 31.2182C53.8885 31.7389 54.2303 32.2415 54.7511 32.3406L55.6254 32.5071C56.1463 32.6062 56.6489 32.2644 56.7481 31.7437L57.4869 27.8639C57.586 27.3432 57.2442 26.8406 56.7234 26.7415Z" fill="#FADDDC"/>
<path d="M39.43 63.208H67.67C68.91 63.208 69.92 64.2179 69.92 65.4577V86.4447H37.17V65.4577C37.17 64.2179 38.18 63.208 39.42 63.208H39.43Z" fill="#F7F7F7"/>
<path d="M53.81 78.036C55.3122 78.036 56.53 76.8318 56.53 75.3464C56.53 73.8609 55.3122 72.6567 53.81 72.6567C52.3078 72.6567 51.09 73.8609 51.09 75.3464C51.09 76.8318 52.3078 78.036 53.81 78.036Z" fill="#CED5D8"/>
<path d="M120.48 83.1551C120.48 82.001 119.547 81.0654 118.395 81.0654C117.244 81.0654 116.31 82.001 116.31 83.1551V83.915C116.31 85.0691 117.244 86.0047 118.395 86.0047C119.547 86.0047 120.48 85.0691 120.48 83.915V83.1551Z" fill="#E0E0E0"/>
<path d="M120.39 81.3456C120.39 80.1914 119.456 79.2559 118.305 79.2559C117.153 79.2559 116.22 80.1914 116.22 81.3456V83.0353C116.22 84.1894 117.153 85.125 118.305 85.125C119.456 85.125 120.39 84.1894 120.39 83.0353V81.3456Z" fill="white"/>
<path d="M137.493 84.185C137.973 83.1354 137.513 81.8964 136.466 81.4175C135.419 80.9385 134.181 81.4011 133.701 82.4506L133.497 82.8962C133.017 83.9457 133.477 85.1847 134.524 85.6637C135.571 86.1426 136.809 85.68 137.289 84.6305L137.493 84.185Z" fill="#E0E0E0"/>
<path d="M137.7 81.3456C137.7 80.1914 136.767 79.2559 135.615 79.2559C134.464 79.2559 133.53 80.1914 133.53 81.3456V83.0353C133.53 84.1894 134.464 85.125 135.615 85.125C136.767 85.125 137.7 84.1894 137.7 83.0353V81.3456Z" fill="white"/>
<path d="M134.79 85.1948L134.69 84.9648C135.19 84.7448 135.09 83.485 135 83.0151L135.25 82.9751C135.28 83.1651 135.55 84.8548 134.79 85.1948Z" fill="#AAA399"/>
<path d="M136.3 85.1753L136.2 84.9453C136.7 84.7253 136.6 83.4655 136.51 82.9956L136.76 82.9556C136.79 83.1455 137.06 84.8353 136.3 85.1753Z" fill="#AAA399"/>
<path d="M119.06 85.1948C118.3 84.8548 118.57 83.1651 118.6 82.9751L118.85 83.0151C118.77 83.485 118.67 84.7448 119.16 84.9648L119.06 85.1948Z" fill="#AAA399"/>
<path d="M117.55 85.1753C116.79 84.8353 117.06 83.1455 117.09 82.9556L117.34 82.9956C117.26 83.4655 117.16 84.7253 117.65 84.9453L117.55 85.1753Z" fill="#AAA399"/>
</g>
<rect x="121" y="4" width="35" height="16" rx="4" fill="#1C1C1C"/>
<path d="M126.659 16H125.517L128.056 8.92969H129.296L131.845 16H130.702L130.058 14.1348H127.304L126.659 16ZM127.611 13.2363H129.745L128.7 10.2188H128.651L127.611 13.2363ZM132.704 16V10.6973H133.749V16H132.704ZM132.567 9.26172C132.572 8.91992 132.87 8.64648 133.231 8.64648C133.588 8.64648 133.886 8.91992 133.886 9.26172C133.886 9.60352 133.588 9.88184 133.231 9.87695C132.87 9.88184 132.572 9.60352 132.567 9.26172ZM137.001 16.1074C135.722 16.1025 134.784 15.0723 134.784 13.3633C134.784 11.6348 135.736 10.6289 137.011 10.6289C137.997 10.6289 138.354 11.2246 138.544 11.5566H138.593V8.92969H139.638V16H138.622V15.1699H138.544C138.349 15.5166 137.968 16.1025 137.001 16.1074ZM135.849 13.3438C135.844 14.4082 136.322 15.2139 137.235 15.2188C138.124 15.2139 138.622 14.457 138.622 13.3438C138.622 12.2402 138.134 11.5127 137.235 11.5176C136.312 11.5127 135.844 12.2988 135.849 13.3438ZM143.28 16.1074C141.718 16.1074 140.756 15.0283 140.761 13.3828C140.756 11.752 141.732 10.6289 143.212 10.6289C144.418 10.6289 145.565 11.376 145.565 13.2949V13.666H141.796C141.825 14.6768 142.421 15.248 143.29 15.248C143.881 15.248 144.267 14.9941 144.442 14.6719H145.497C145.263 15.5312 144.447 16.1074 143.28 16.1074ZM141.801 12.8848H144.54C144.54 12.0791 144.018 11.4834 143.222 11.4883C142.387 11.4834 141.845 12.1377 141.801 12.8848ZM147.646 12.8555V16H146.601V10.6973H147.606V11.5664H147.665C147.914 10.9951 148.437 10.6289 149.228 10.6289C150.316 10.6289 151.039 11.3174 151.034 12.6309V16H149.999V12.7578C149.994 11.9863 149.579 11.5273 148.876 11.5273C148.158 11.5273 147.646 12.0107 147.646 12.8555Z" fill="white"/>
</g>
<defs>
<clipPath id="clip0_14_2407">
<rect width="160" height="100" fill="white"/>
</clipPath>
<clipPath id="clip1_14_2407">
<rect width="160" height="100" fill="white"/>
</clipPath>
</defs>
</svg>
