<svg width="160" height="100" viewBox="0 0 160 100" fill="none" xmlns="http://www.w3.org/2000/svg">
<g clip-path="url(#clip0_14_2469)">
<g clip-path="url(#clip1_14_2469)">
<path d="M159.38 0.609863H0.619995V99.3799H159.38V0.609863Z" fill="#FFE45F"/>
<path d="M160 100H0V0H160V100ZM1.24 98.78H158.76V1.22H1.24V98.77V98.78Z" fill="#EFD9B4"/>
<path d="M159.38 0.609863H0.619995V41.9599H159.38V0.609863Z" fill="white"/>
<path d="M160 42.58H0V0H160V42.58ZM1.24 41.35H158.76V1.22H1.24V41.35Z" fill="white"/>
<path d="M160 42.4399H0V48.2299H160V42.4399Z" fill="#B2AEA6"/>
<path d="M46.54 56.9399H4.37C4.09385 56.9399 3.87 57.1638 3.87 57.4399V96.8899C3.87 97.1661 4.09385 97.3899 4.37 97.3899H46.54C46.8161 97.3899 47.04 97.1661 47.04 96.8899V57.4399C47.04 57.1638 46.8161 56.9399 46.54 56.9399Z" fill="#E2E2E2"/>
<path d="M44.15 59.2798H6.75C6.47386 59.2798 6.25 59.5036 6.25 59.7798V67.0898C6.25 67.3659 6.47386 67.5898 6.75 67.5898H44.15C44.4261 67.5898 44.65 67.3659 44.65 67.0898V59.7798C44.65 59.5036 44.4261 59.2798 44.15 59.2798Z" fill="white"/>
<path d="M44.15 68.8398H6.75C6.47386 68.8398 6.25 69.0637 6.25 69.3398V76.6498C6.25 76.926 6.47386 77.1498 6.75 77.1498H44.15C44.4261 77.1498 44.65 76.926 44.65 76.6498V69.3398C44.65 69.0637 44.4261 68.8398 44.15 68.8398Z" fill="white"/>
<path d="M44.15 78.3901H6.75C6.47386 78.3901 6.25 78.614 6.25 78.8901V94.6001C6.25 94.8763 6.47386 95.1001 6.75 95.1001H44.15C44.4261 95.1001 44.65 94.8763 44.65 94.6001V78.8901C44.65 78.614 44.4261 78.3901 44.15 78.3901Z" fill="white"/>
<path d="M29.92 61.2002H20.48C19.9332 61.2002 19.49 61.6434 19.49 62.1902C19.49 62.737 19.9332 63.1802 20.48 63.1802H29.92C30.4668 63.1802 30.91 62.737 30.91 62.1902C30.91 61.6434 30.4668 61.2002 29.92 61.2002Z" fill="#B2AEA6"/>
<path d="M29.92 70.98H20.48C19.9332 70.98 19.49 71.4232 19.49 71.97C19.49 72.5167 19.9332 72.96 20.48 72.96H29.92C30.4668 72.96 30.91 72.5167 30.91 71.97C30.91 71.4232 30.4668 70.98 29.92 70.98Z" fill="#B2AEA6"/>
<path d="M29.92 80.8599H20.48C19.9332 80.8599 19.49 81.3031 19.49 81.8499C19.49 82.3966 19.9332 82.8399 20.48 82.8399H29.92C30.4668 82.8399 30.91 82.3966 30.91 81.8499C30.91 81.3031 30.4668 80.8599 29.92 80.8599Z" fill="#B2AEA6"/>
<path d="M46.53 56.9401L42.39 53.3701H7.57999L4.35999 56.9401C4.35999 56.9401 46.65 57.0601 46.53 56.9401Z" fill="#C1BFBC"/>
<path d="M91.76 78.91L93.89 91.05C94.19 92.75 95.67 93.99 97.39 93.99C99.29 93.99 100.85 92.5 100.94 90.61L101.55 77.98L91.76 78.91Z" fill="#3E2967"/>
<path d="M107.77 78.5998L107.4 90.7698C107.35 92.5598 108.73 94.0598 110.52 94.1498C112.09 94.2298 113.49 93.1998 113.88 91.6798L117.41 77.8198L107.77 78.5998Z" fill="#3E2967"/>
<path d="M121.55 90.4101L109.46 87.8001L116.68 86.5701L115.33 85.2201L105.96 86.4801V79.3901H102.88V86.5001L93.18 85.1501L91.41 86.3001L99.42 87.8801L86.6 90.5001L86.47 92.1301L102.79 90.1001L103.36 95.5701L105.21 95.6001L105.44 90.1701L121.76 92.0601L121.55 90.4101Z" fill="#8C8C8C"/>
<path d="M87.82 94.6998C88.7534 94.6998 89.51 93.9432 89.51 93.0098C89.51 92.0765 88.7534 91.3198 87.82 91.3198C86.8866 91.3198 86.13 92.0765 86.13 93.0098C86.13 93.9432 86.8866 94.6998 87.82 94.6998Z" fill="#8C8C8C"/>
<path d="M104.22 98.7599C105.153 98.7599 105.91 98.0032 105.91 97.0699C105.91 96.1365 105.153 95.3799 104.22 95.3799C103.287 95.3799 102.53 96.1365 102.53 97.0699C102.53 98.0032 103.287 98.7599 104.22 98.7599Z" fill="#8C8C8C"/>
<path d="M121.02 95.2399C121.953 95.2399 122.71 94.4832 122.71 93.5499C122.71 92.6165 121.953 91.8599 121.02 91.8599C120.087 91.8599 119.33 92.6165 119.33 93.5499C119.33 94.4832 120.087 95.2399 121.02 95.2399Z" fill="#8C8C8C"/>
<path d="M115.33 89.6202C116.263 89.6202 117.02 88.8636 117.02 87.9302C117.02 86.9969 116.263 86.2402 115.33 86.2402C114.397 86.2402 113.64 86.9969 113.64 87.9302C113.64 88.8636 114.397 89.6202 115.33 89.6202Z" fill="#8C8C8C"/>
<path d="M92.43 89.4801C93.3634 89.4801 94.12 88.7235 94.12 87.7901C94.12 86.8567 93.3634 86.1001 92.43 86.1001C91.4966 86.1001 90.74 86.8567 90.74 87.7901C90.74 88.7235 91.4966 89.4801 92.43 89.4801Z" fill="#8C8C8C"/>
<path d="M107.51 12.1999H92.77V25.3899C92.77 27.9799 94.87 30.0699 97.45 30.0699H98.94C99.67 30.0699 100.25 30.6599 100.25 31.3799V32.6799C100.25 34.3199 102.01 35.3699 103.45 34.5799L107.21 32.5399L107.51 12.1899V12.1999Z" fill="#FADDDC"/>
<path d="M93.7401 26L92.8801 25.76C92.1101 25.54 91.6601 24.75 91.8801 23.98L93.0601 19.79C93.1501 19.47 93.4801 19.28 93.8001 19.37C94.1201 19.46 94.3101 19.79 94.2201 20.11L93.2001 23.74C93.0801 24.18 93.3301 24.63 93.7701 24.75L94.0701 24.83C94.3901 24.92 94.5801 25.25 94.4901 25.57C94.4001 25.89 94.0701 26.08 93.7501 25.99L93.7401 26Z" fill="#E0B1BB"/>
<path d="M108.93 18.8001V13.2501C108.93 12.0301 107.94 11.0501 106.73 11.0501H105.4V8.69014H99.4001C98.6501 7.04014 96.7801 6.00014 94.7601 6.59014C93.5501 6.94014 92.5601 7.94014 92.2301 9.16014C91.5501 11.6201 93.25 13.8201 95.53 14.0501V14.0901H100.23C101.16 14.0901 101.91 14.8401 101.91 15.7701V18.3301C101.91 19.4201 102.8 20.3101 103.89 20.3101L105.75 20.4501C105.75 20.4501 105.55 20.3101 105.56 20.3101L105.77 25.9801L106.55 25.9501C107.89 25.8901 108.94 24.7901 108.94 23.4501V18.8001H108.93Z" fill="#3E2967"/>
<path d="M93.86 25.96L93.06 25.79C92.62 26.28 92.61 26.43 92.61 27.25L93.12 27.1C93.4 27 93.71 26.99 94 27.07L96.28 27.69L95.87 26.99C95.3 26.31 94.7 25.96 93.87 25.96H93.86Z" fill="#3E2967"/>
<path d="M94.95 29.2398C94.71 29.1898 94.26 28.7998 94.26 28.7998C93.75 29.2898 94.17 30.4398 95.56 30.9998C95.56 30.9998 97.45 30.8798 97.45 30.0698L96.29 29.5298L94.95 29.2398Z" fill="#3E2967"/>
<path d="M95.8101 19.7299C95.8101 20.1699 96.1601 20.5199 96.6001 20.5199C97.0401 20.5199 97.3901 20.1699 97.3901 19.7299C97.3901 19.2899 97.0401 18.9399 96.6001 18.9399C96.1601 18.9399 95.8101 19.2899 95.8101 19.7299Z" fill="#757570"/>
<path d="M83.29 24.18V5.60004C83.29 3.91004 81.91 2.54004 80.2 2.54004H50.07C48.36 2.54004 46.98 3.91004 46.98 5.60004V23.97C46.98 24.85 47.35 25.69 47.99 26.29L57.09 34.8C57.81 35.47 58.76 35.85 59.76 35.85H93.04C94.11 35.85 94.59 34.52 93.76 33.85L84.19 26.09C83.62 25.63 83.29 24.93 83.29 24.2V24.18Z" fill="#455767"/>
<path d="M79.98 5.66992H49.82V23.0699H79.98V5.66992Z" fill="#3888BA"/>
<path d="M64.94 8.29004H53.19V9.55004H64.94V8.29004Z" fill="#A0D1EA"/>
<path d="M68.49 12.6802H56.74V13.9402H68.49V12.6802Z" fill="#A0D1EA"/>
<path d="M65.28 16.7598H53.53V18.0198H65.28V16.7598Z" fill="#A0D1EA"/>
<path d="M82.63 28.7902H57.53L56.01 27.6802H81.11L82.63 28.7902Z" fill="#506575"/>
<path d="M85.78 32.35H60.68L59.16 31.23H84.26L85.78 32.35Z" fill="#506575"/>
<path d="M81.4 34.3101C81.1 32.1601 79.11 30.6501 76.96 30.9501C75.19 31.2001 73.86 32.5801 73.61 34.2601C73.56 34.6201 73.55 35.0001 73.61 35.3901C73.74 36.3201 73.9 37.2401 74.08 38.1301L81.64 35.7401C81.55 35.2701 81.47 34.7901 81.41 34.3101H81.4Z" fill="#FADDDC"/>
<path d="M95.49 32.8702C95.19 30.7202 93.2 29.2102 91.05 29.5102C89.28 29.7602 87.95 31.1402 87.7 32.8202C87.65 33.1802 87.64 33.5602 87.7 33.9502C87.83 34.8802 87.99 35.8002 88.17 36.6902L95.73 34.3002C95.64 33.8302 95.56 33.3502 95.5 32.8702H95.49Z" fill="#FADDDC"/>
<path d="M107.83 70.4C108.71 68.42 107.81 66.09 105.83 65.21C105.62 65.12 85.3 55.83 81.64 35.75L74.08 38.14C78.9 61.68 101.64 71.97 102.65 72.41C104.64 73.29 106.95 72.39 107.83 70.4Z" fill="#502489"/>
<path d="M114.64 31.9502H93.44C90.74 31.9502 82.95 32.8902 79.73 36.6002C76.93 39.8302 76.53 44.7102 76.91 56.3902C77.01 59.5102 79.58 62.0002 82.7 61.9902C95.39 61.9602 125.31 61.8802 125.31 61.8602C128.75 50.2502 128.69 45.8302 126.77 39.9202C124.63 33.3502 116.08 31.9502 114.64 31.9502Z" fill="#502489"/>
<path d="M119.41 80.4502H88.94C85.19 80.4502 82.01 77.5002 81.51 73.5402L78.25 47.7702C77.64 42.9902 81.14 38.7402 85.68 38.7402H122.02C126.48 38.7402 129.95 42.8502 129.47 47.5602L126.86 73.3302C126.45 77.3802 123.24 80.4502 119.41 80.4502Z" fill="#E5E5E5"/>
<path d="M122.02 46.1C122.08 46.1 122.28 46.1 122.45 46.31C122.62 46.52 122.6 46.72 122.6 46.79L119.99 72.56C119.96 72.88 119.71 73.11 119.41 73.11H88.94C88.65 73.11 88.4 72.88 88.36 72.57L85.1 46.8C85.1 46.73 85.06 46.52 85.24 46.31C85.41 46.1 85.61 46.1 85.68 46.1H122.02ZM122.02 38.75H85.68C81.14 38.75 77.64 43 78.25 47.78L81.51 73.55C82.01 77.5 85.19 80.46 88.94 80.46H119.41C123.24 80.46 126.45 77.39 126.86 73.34L129.47 47.57C129.95 42.86 126.47 38.75 122.02 38.75Z" fill="#F7F7F7"/>
<path d="M87.36 65.8501H120.75L120.01 73.1001L88.39 73.1201L87.36 65.8501Z" fill="#B2AEA6"/>
<path d="M38.24 25.3398H6.35999V27.1198H38.24V25.3398Z" fill="#DC2E26"/>
<path d="M26.87 26.6499H17.64V29.5899H26.87V26.6499Z" fill="#DA2B26"/>
<path d="M18.17 21.46H10.23V25.36H18.17V21.46Z" fill="#85B842"/>
<path d="M10.3 25.3702H6.34003L10.3 21.4102V25.3702Z" fill="#09871A"/>
<path d="M14.44 21.44H10.49L14.44 17.48V21.44Z" fill="#1993CE"/>
<path d="M18.33 17.5H14.37L18.33 13.54V17.5Z" fill="#1993CE"/>
<path d="M22.37 13.6202H18.41L22.37 9.66016V13.6202Z" fill="#1993CE"/>
<path d="M22.45 13.6202H26.41L22.45 9.66016V13.6202Z" fill="#582B8B"/>
<path d="M26.28 17.4502H30.24L26.28 13.4902V17.4502Z" fill="#1993CE"/>
<path d="M30.11 21.4898H34.07L30.11 17.5298V21.4898Z" fill="#1993CE"/>
<path d="M34.1 25.4202H38.05L34.1 21.4702V25.4202Z" fill="#09871A"/>
<path d="M26.04 21.46H18.1V25.36H26.04V21.46Z" fill="#1993CE"/>
<path d="M34.07 21.46H26.13V25.36H34.07V21.46Z" fill="#85B842"/>
<path d="M22.34 17.5298H14.5V21.4298H22.34V17.5298Z" fill="#582B8B"/>
<path d="M26.28 13.6401H18.38V17.5401H26.28V13.6401Z" fill="#FDDC53"/>
<path d="M30.13 17.5298H22.29V21.4298H30.13V17.5298Z" fill="#582B8B"/>
<path d="M26.87 29.54H17.64V31.31H26.87V29.54Z" fill="#15445B"/>
<path d="M9.69997 29.6C10.4124 29.6 10.99 29.0225 10.99 28.31C10.99 27.5976 10.4124 27.02 9.69997 27.02C8.98753 27.02 8.40997 27.5976 8.40997 28.31C8.40997 29.0225 8.98753 29.6 9.69997 29.6Z" fill="#F28D02"/>
<path d="M13.74 29.6C14.4525 29.6 15.03 29.0225 15.03 28.31C15.03 27.5976 14.4525 27.02 13.74 27.02C13.0276 27.02 12.45 27.5976 12.45 28.31C12.45 29.0225 13.0276 29.6 13.74 29.6Z" fill="#F28D02"/>
<path d="M30.45 29.6C31.1624 29.6 31.74 29.0225 31.74 28.31C31.74 27.5976 31.1624 27.02 30.45 27.02C29.7375 27.02 29.16 27.5976 29.16 28.31C29.16 29.0225 29.7375 29.6 30.45 29.6Z" fill="#F28D02"/>
<path d="M34.49 29.6C35.2025 29.6 35.78 29.0225 35.78 28.31C35.78 27.5976 35.2025 27.02 34.49 27.02C33.7776 27.02 33.2 27.5976 33.2 28.31C33.2 29.0225 33.7776 29.6 34.49 29.6Z" fill="#F28D02"/>
</g>
<rect x="119" y="4" width="37" height="16" rx="4" fill="#1C1C1C"/>
<path d="M124.814 16H123.672L126.211 8.92969H127.451L130 16H128.857L128.213 14.1348H125.459L124.814 16ZM125.767 13.2363H127.9L126.855 10.2188H126.807L125.767 13.2363ZM131.855 8.92969V16H130.811V8.92969H131.855ZM133.213 16V8.92969H134.248V11.5566H134.307C134.497 11.2246 134.849 10.6289 135.83 10.6289C137.114 10.6289 138.062 11.6348 138.066 13.3633C138.062 15.0723 137.124 16.1025 135.84 16.1074C134.878 16.1025 134.502 15.5166 134.307 15.1699H134.229V16H133.213ZM134.229 13.3438C134.229 14.457 134.727 15.2139 135.605 15.2188C136.523 15.2139 137.002 14.4082 137.002 13.3438C137.002 12.2988 136.538 11.5127 135.605 11.5176C134.712 11.5127 134.229 12.2402 134.229 13.3438ZM141.387 16.1074C139.824 16.1074 138.862 15.0283 138.867 13.3828C138.862 11.752 139.839 10.6289 141.318 10.6289C142.524 10.6289 143.672 11.376 143.672 13.2949V13.666H139.902C139.932 14.6768 140.527 15.248 141.396 15.248C141.987 15.248 142.373 14.9941 142.549 14.6719H143.604C143.369 15.5312 142.554 16.1074 141.387 16.1074ZM139.907 12.8848H142.646C142.646 12.0791 142.124 11.4834 141.328 11.4883C140.493 11.4834 139.951 12.1377 139.907 12.8848ZM144.707 16V10.6973H145.713V11.5371H145.771C145.967 10.9707 146.499 10.6143 147.119 10.6191C147.246 10.6143 147.451 10.6289 147.559 10.6387V11.6348C147.471 11.6152 147.227 11.5713 147.012 11.5762C146.289 11.5713 145.752 12.0742 145.752 12.7676V16H144.707ZM151.133 10.6973V11.5273H150.049V14.4375C150.054 15.0381 150.347 15.1455 150.684 15.1504C150.835 15.1504 151.064 15.1357 151.211 15.1211V16.0293C151.069 16.0488 150.845 16.0684 150.557 16.0684C149.741 16.0684 149.004 15.6191 149.014 14.6523V11.5273H148.232V10.6973H149.014V9.42773H150.049V10.6973H151.133Z" fill="white"/>
</g>
<defs>
<clipPath id="clip0_14_2469">
<rect width="160" height="100" fill="white"/>
</clipPath>
<clipPath id="clip1_14_2469">
<rect width="160" height="100" fill="white"/>
</clipPath>
</defs>
</svg>
