<svg width="160" height="100" viewBox="0 0 160 100" fill="none" xmlns="http://www.w3.org/2000/svg">
<g clip-path="url(#clip0_14_2441)">
<g clip-path="url(#clip1_14_2441)">
<path d="M159.25 0.609863H0.619995V99.3799H159.25V0.609863Z" fill="#FFE45F"/>
<path d="M159.86 100H0V0H159.86V100ZM1.24 98.78H158.63V1.22H1.24V98.77V98.78Z" fill="#EFD9B4"/>
<path d="M159.39 82.5498H0.76001V99.3898H159.39V82.5498Z" fill="white"/>
<path d="M160 99.9999H0.140015V81.9399H160V99.9999ZM1.37001 98.7799H158.76V83.1699H1.37001V98.7799Z" fill="white"/>
<path d="M72.65 43.8898C72.31 43.2898 71.82 42.8298 71.26 42.5098C69.48 40.8398 67.08 39.8198 64.44 39.8198H43.25C40.55 39.8198 38.08 40.7698 36.15 42.3398C35.45 42.6498 34.84 43.1798 34.43 43.8898C34.38 43.9798 34.23 44.2498 34 44.6798C33.35 45.6298 32.85 46.6898 32.52 47.8298C29.49 54.9298 24.66 70.5198 31.99 86.1198L39.16 83.6698C38.87 83.0798 38.6 82.4798 38.35 81.8898H68.73C68.48 82.4898 68.21 83.0798 67.92 83.6698L75.09 86.1198C84.79 65.4698 73.17 44.7998 72.65 43.8998V43.8898Z" fill="#502489"/>
<path d="M75.64 85.0501C76.64 83.2401 75.97 80.9801 74.14 79.9901C72.64 79.1801 70.83 79.4801 69.68 80.6201C69.43 80.8701 69.21 81.1501 69.03 81.4801C68.6 82.2601 68.2 83.0501 67.83 83.8301L75 86.2801C75.2 85.8701 75.41 85.4601 75.64 85.0601V85.0501Z" fill="#FADDDC"/>
<path d="M45.99 75.3801V72.3501H34.75V86.4001H45.99V83.8801C48.32 83.8601 50.2 81.9601 50.2 79.6301C50.2 77.3001 48.32 75.4001 45.99 75.3801ZM45.99 82.8801V76.3801C47.77 76.4001 49.2 77.8501 49.2 79.6301C49.2 81.4101 47.77 82.8601 45.99 82.8801Z" fill="#5BC6FF"/>
<path d="M34.35 76H37.79C39.07 76 40.1 77.04 40.1 78.31V86.4H32.03V78.31C32.03 77.03 33.07 76 34.34 76H34.35Z" fill="#FADDDC"/>
<path d="M44.57 56.1398L44.51 56.2498C44.26 56.7098 44.14 57.0698 44.14 57.3198C44.14 57.3898 44.17 57.4698 44.23 57.5398C44.18 57.5598 44.08 57.5898 43.91 57.6498C43.83 57.6798 43.76 57.6898 43.69 57.6898C43.55 57.6898 43.48 57.6198 43.48 57.4898C43.48 57.2198 43.65 56.7998 43.99 56.2398L44.08 56.0898H43.93C43.61 56.0898 43.36 56.1398 43.18 56.2398C43.27 55.9098 43.52 55.7398 43.92 55.7398H44.28L44.36 55.6298C44.67 55.1698 45.14 54.5398 45.77 53.7598C45.98 53.4998 46.14 53.3298 46.25 53.2698C46.36 53.2098 46.56 53.1498 46.87 53.0898C46.81 53.4398 46.78 53.7698 46.78 54.0798C46.78 54.8898 46.87 55.6998 47.06 56.5298C47.16 56.9798 47.32 57.2798 47.53 57.4098C47.35 57.5898 47.19 57.6798 47.06 57.6798C46.75 57.6798 46.51 57.1498 46.34 56.0798C46.02 56.1198 45.69 56.1298 45.36 56.1298H44.56L44.57 56.1398ZM44.78 55.7898H45.37C45.78 55.7998 46.09 55.7898 46.3 55.7598C46.21 55.0698 46.16 54.4998 46.16 54.0498V53.8298C46.1 53.9098 45.95 54.0898 45.73 54.3698C45.32 54.8698 45.02 55.3098 44.83 55.6798L44.77 55.7998L44.78 55.7898Z" fill="#F1F0EC"/>
<path d="M51.61 55.1899C51.2 55.9599 50.8 56.5699 50.39 56.9999C49.98 57.4399 49.62 57.6599 49.3 57.6599C49.07 57.6599 48.89 57.5699 48.74 57.3899C48.6 57.2099 48.53 56.9799 48.53 56.6899C48.53 56.5299 48.56 56.2999 48.62 56.0099L49.21 53.0599C49.13 53.0699 49.07 53.0799 49.01 53.0799C48.56 53.0799 48.33 52.8899 48.33 52.5099V52.4399C48.57 52.5699 48.83 52.6399 49.13 52.6399C49.43 52.6399 49.69 52.5699 49.91 52.4199L49.23 55.9599C49.17 56.2799 49.14 56.4999 49.14 56.6199C49.14 56.9499 49.26 57.1199 49.5 57.1199C49.74 57.1199 49.97 56.9899 50.21 56.7199C50.45 56.4499 50.84 55.8899 51.38 55.0199L51.62 55.1799L51.61 55.1899Z" fill="#F1F0EC"/>
<path d="M53.87 55.5402C53.9 55.6402 53.91 55.7302 53.91 55.8302C53.91 56.3202 53.74 56.7502 53.39 57.1102C53.04 57.4702 52.64 57.6602 52.17 57.6602C51.83 57.6602 51.55 57.5602 51.34 57.3502C51.13 57.1502 51.02 56.8802 51.02 56.5602C51.02 56.3302 51.06 55.9902 51.15 55.5602L51.64 53.0602C51.54 53.0802 51.46 53.0902 51.39 53.0902C50.97 53.0902 50.76 52.8702 50.76 52.4302C50.89 52.5502 51.09 52.6202 51.37 52.6202C51.62 52.6202 51.94 52.5602 52.35 52.4302L51.66 55.9202C51.61 56.1602 51.59 56.3602 51.59 56.5502C51.59 56.7902 51.65 56.9902 51.78 57.1402C51.91 57.2902 52.07 57.3702 52.28 57.3702C52.59 57.3702 52.85 57.2302 53.06 56.9502C53.28 56.6702 53.38 56.3302 53.38 55.9402C53.38 55.7402 53.35 55.5502 53.28 55.3702C53.03 55.2902 52.83 55.1802 52.67 55.0502C52.51 54.9202 52.43 54.7902 52.43 54.6602C52.43 54.5902 52.46 54.5102 52.51 54.4002C53.04 54.4402 53.44 54.6702 53.72 55.0902C53.97 55.2102 54.24 55.2702 54.53 55.2702C54.82 55.2702 55.11 55.1802 55.41 55.0102L55.56 55.2502C55.22 55.5102 54.84 55.6402 54.41 55.6402C54.22 55.6402 54.03 55.6202 53.86 55.5702L53.87 55.5402Z" fill="#F1F0EC"/>
<path d="M55.35 56.3598C55.35 56.9298 55.59 57.2198 56.08 57.2198C56.5 57.2198 56.97 57.0198 57.47 56.6198C57.98 56.2198 58.44 55.6898 58.84 55.0298L59.09 55.1698C58.71 55.8898 58.21 56.4798 57.59 56.9498C56.97 57.4198 56.39 57.6598 55.84 57.6598C55.49 57.6598 55.21 57.5498 55 57.3198C54.8 57.0898 54.69 56.7798 54.69 56.3898C54.69 55.8198 54.88 55.3298 55.25 54.9298C55.62 54.5298 56.07 54.3198 56.59 54.3198C56.84 54.3198 57.05 54.3798 57.2 54.5098C57.35 54.6398 57.43 54.8098 57.43 55.0198C57.43 55.3698 57.22 55.6798 56.8 55.9498C56.38 56.2198 55.89 56.3598 55.34 56.3598H55.35ZM55.37 56.0798C55.78 56.0598 56.13 55.9398 56.43 55.7298C56.72 55.5198 56.87 55.2698 56.87 54.9898C56.87 54.7398 56.76 54.6098 56.54 54.6098C56.27 54.6098 56.03 54.7498 55.8 55.0398C55.57 55.3298 55.43 55.6698 55.38 56.0798H55.37Z" fill="#F1F0EC"/>
<path d="M59 57.5698C58.87 57.6298 58.76 57.6598 58.68 57.6598C58.48 57.6598 58.38 57.5698 58.38 57.3898C58.38 57.2998 58.42 57.0798 58.49 56.7198L58.64 55.9898C58.73 55.5498 58.78 55.2298 58.78 55.0198C58.78 54.9098 58.75 54.8098 58.68 54.7398C58.89 54.6698 59.05 54.6298 59.18 54.6298C59.32 54.6298 59.39 54.7198 59.39 54.8898C59.39 54.9998 59.34 55.2798 59.24 55.7398L59.07 56.5998C59.44 55.8798 59.81 55.3198 60.19 54.9198C60.57 54.5198 60.91 54.3198 61.21 54.3198C61.32 54.3198 61.41 54.3498 61.49 54.4098C61.57 54.4698 61.61 54.5498 61.61 54.6298C61.61 54.7698 61.46 54.9498 61.16 55.1798C61.09 55.0198 60.98 54.9498 60.84 54.9498C60.59 54.9498 60.27 55.2198 59.89 55.7398C59.65 56.0698 59.44 56.4098 59.27 56.7598C59.09 57.1098 59 57.3598 59 57.5098V57.5598V57.5698Z" fill="#F1F0EC"/>
<path d="M63.77 56.4199C63.82 56.5199 63.85 56.5999 63.85 56.6699C63.85 56.8599 63.69 57.0699 63.36 57.3099C63.04 57.5399 62.74 57.6599 62.47 57.6599C62.23 57.6599 62.04 57.5599 61.89 57.3499C61.74 57.1399 61.67 56.8699 61.67 56.5399C61.67 56.1699 61.77 55.6499 61.96 54.9699L62.1 54.4799H61.6C61.39 54.4799 61.23 54.5099 61.1 54.5699C61.21 54.3599 61.31 54.2299 61.38 54.1799C61.45 54.1299 61.58 54.0999 61.76 54.0999H62.2L62.26 53.8999C62.35 53.5999 62.46 53.3899 62.58 53.2799C62.71 53.1699 62.89 53.1099 63.15 53.1099C63.18 53.1099 63.23 53.1099 63.29 53.1099C63.14 53.3099 62.98 53.6399 62.81 54.0999H64.36C64.63 54.0999 64.84 54.0599 64.98 53.9899C64.93 54.1899 64.87 54.3199 64.78 54.3799C64.7 54.4399 64.55 54.4699 64.33 54.4699H62.68C62.66 54.5299 62.65 54.5799 62.64 54.6099C62.4 55.4199 62.28 56.0299 62.28 56.4399C62.28 56.8899 62.44 57.1199 62.77 57.1199C62.94 57.1199 63.12 57.0499 63.32 56.9099C63.52 56.7699 63.66 56.6099 63.75 56.4199H63.77Z" fill="#F1F0EC"/>
<path d="M54.31 20.1401L68.65 22.5101L66.53 35.3501C66.11 37.8701 63.74 39.5701 61.22 39.1501L59.77 38.9101C59.06 38.7901 58.4 39.2701 58.28 39.9801L58.07 41.2801C57.75 43.2201 55.92 44.5301 53.99 44.2101C52.06 43.8901 50.75 42.0701 51.06 40.1401L54.31 20.1501V20.1401Z" fill="#FADDDC"/>
<path d="M61.83 34.9898L62.7 35.1298C63.48 35.2598 64.21 34.7298 64.34 33.9598L65.04 29.7198C65.09 29.3998 64.87 29.0898 64.55 29.0398C64.23 28.9898 63.92 29.2098 63.87 29.5298L63.26 33.1998C63.19 33.6398 62.77 33.9398 62.33 33.8698L62.03 33.8198C61.71 33.7698 61.4 33.9898 61.35 34.3098C61.3 34.6298 61.52 34.9398 61.84 34.9898H61.83Z" fill="#E0B1BB"/>
<path d="M51.87 26.3398L52.76 20.9398C52.96 19.7598 54.07 18.9598 55.26 19.1498L56.55 19.3598L56.93 17.0598L62.77 18.0198C63.72 16.5998 65.57 15.8898 67.37 16.6098C68.72 17.1498 69.65 18.4898 69.7 19.9398C69.78 22.2898 67.84 23.9998 65.68 23.8598V23.8998L63.34 23.5198L57.63 22.5798C56.73 22.4298 55.87 23.0398 55.72 23.9498L55.31 26.4398C55.13 27.4998 54.13 28.2198 53.07 28.0498H53.05C53.05 28.0498 53.04 28.0498 53.03 28.0498L52.58 30.7798L51.17 30.5498L51.86 26.3498L51.87 26.3398Z" fill="#3E2967"/>
<path d="M61.34 34.9099L63.19 35.2199C63.99 35.3499 64.54 36.1099 64.41 36.9199L64.37 37.1599L62.77 36.3099C62.51 36.1699 62.21 36.1099 61.92 36.1399L59.61 36.3799L59.65 36.1399C59.78 35.3399 60.54 34.7899 61.35 34.9199L61.34 34.9099Z" fill="#3E2967"/>
<path d="M61.59 38.3699C61.83 38.3599 62.07 38.4199 62.28 38.5299L63.02 38.9399L62.98 39.1799C62.85 39.9799 62.09 40.5299 61.28 40.3999L61.16 40.3799C60.36 40.2499 59.81 39.4899 59.94 38.6799L59.98 38.4399L61.59 38.3599V38.3699Z" fill="#3E2967"/>
<path d="M60.4 28.8799C60.33 29.3099 59.93 29.5899 59.5 29.5199C59.07 29.4499 58.79 29.0499 58.86 28.6199C58.93 28.1899 59.33 27.9099 59.76 27.9799C60.19 28.0499 60.47 28.4499 60.4 28.8799Z" fill="#757570"/>
<path d="M100.85 85.1401L56.82 85.0801L56.84 85.8401L64.55 88.8401L99.45 88.8901C100.22 88.8901 100.85 88.2701 100.85 87.4901V85.1301V85.1401Z" fill="#2C3B41"/>
<path d="M99 62.27H65.14C64.1017 62.27 63.26 63.1117 63.26 64.15V87.01C63.26 88.0483 64.1017 88.89 65.14 88.89H99C100.038 88.89 100.88 88.0483 100.88 87.01V64.15C100.88 63.1117 100.038 62.27 99 62.27Z" fill="#455767"/>
<path d="M82.08 78.51C83.6595 78.51 84.94 77.2296 84.94 75.65C84.94 74.0705 83.6595 72.79 82.08 72.79C80.5004 72.79 79.22 74.0705 79.22 75.65C79.22 77.2296 80.5004 78.51 82.08 78.51Z" fill="#DCE6F1"/>
<path d="M151.3 52.7501L135.81 34.1201C135.55 34.7401 135.11 35.2701 134.55 35.6301L149.63 53.7801C150.06 53.2901 150.64 52.9301 151.29 52.7601L151.3 52.7501Z" fill="white"/>
<path d="M129.46 32.8899C129.46 32.8099 129.46 32.7299 129.47 32.6499L113.62 39.7699L113.07 39.2299C112.87 39.0299 112.58 38.9499 112.31 39.0299L102.43 41.6499C101.84 41.8099 101.65 42.5299 102.08 42.9599L111.94 52.7299C112.37 53.1599 113.1 52.9599 113.26 52.3799L115.91 42.5899C115.98 42.3199 115.91 42.0299 115.71 41.8299L115.1 41.2299L129.94 34.5699C129.65 34.0799 129.48 33.5099 129.48 32.9099L129.46 32.8899Z" fill="white"/>
<path d="M151.07 59L147.55 83.76L149.47 84.03L153.02 59.05C152.74 59.13 152.44 59.18 152.13 59.18C151.76 59.18 151.4 59.12 151.07 59Z" fill="white"/>
<path d="M134.9 32.8898C134.9 31.7198 133.94 30.7798 132.77 30.7798C131.89 30.7798 131.14 31.3098 130.81 32.0498C130.7 32.3098 130.63 32.5898 130.63 32.8898C130.63 33.3298 130.77 33.7398 131 34.0698C131.38 34.6298 132.03 34.9998 132.77 34.9998C133.15 34.9998 133.51 34.8998 133.82 34.7298C134.44 34.3898 134.86 33.7498 134.9 33.0098C134.9 32.9698 134.9 32.9298 134.9 32.8898Z" fill="white"/>
<path d="M152.17 53.7998C152.17 53.7998 152.14 53.7998 152.12 53.7998C151.41 53.7998 150.78 54.1498 150.39 54.6798C150.14 55.0298 149.99 55.4498 149.99 55.9098C149.99 56.7598 150.5 57.4898 151.23 57.8298C151.5 57.9498 151.8 58.0298 152.12 58.0298C152.51 58.0298 152.88 57.9198 153.2 57.7398C153.83 57.3698 154.25 56.6998 154.25 55.9198C154.25 54.7698 153.32 53.8398 152.17 53.8098V53.7998Z" fill="white"/>
<path style="mix-blend-mode:darken" d="M101.23 87.2902L111.94 52.7202L102.08 42.9502L31.6 88.6102L101.23 87.2902Z" fill="url(#paint0_linear_14_2441)"/>
<path d="M145.87 91.2298C152.149 91.2298 157.24 88.9554 157.24 86.1498C157.24 83.3442 152.149 81.0698 145.87 81.0698C139.591 81.0698 134.5 83.3442 134.5 86.1498C134.5 88.9554 139.591 91.2298 145.87 91.2298Z" fill="#F4EFEF"/>
<path d="M148.86 87.9501C153.223 87.9501 156.76 86.3697 156.76 84.4201C156.76 82.4706 153.223 80.8901 148.86 80.8901C144.497 80.8901 140.96 82.4706 140.96 84.4201C140.96 86.3697 144.497 87.9501 148.86 87.9501Z" fill="white"/>
<path d="M143.9 85.5498H112.02V87.3298H143.9V85.5498Z" fill="#DC2E26"/>
<path d="M132.53 86.8599H123.3V89.7999H132.53V86.8599Z" fill="#DA2B26"/>
<path d="M123.82 81.6699H115.88V85.5699H123.82V81.6699Z" fill="#85B842"/>
<path d="M115.96 85.5801H112L115.96 81.6201V85.5801Z" fill="#09871A"/>
<path d="M120.1 81.6399H116.14L120.1 77.6899V81.6399Z" fill="#1993CE"/>
<path d="M123.98 77.71H120.03L123.98 73.75V77.71Z" fill="#1993CE"/>
<path d="M128.02 73.8301H124.07L128.02 69.8701V73.8301Z" fill="#1993CE"/>
<path d="M128.11 73.8301H132.06L128.11 69.8701V73.8301Z" fill="#582B8B"/>
<path d="M131.94 77.6602H135.89L131.94 73.7002V77.6602Z" fill="#1993CE"/>
<path d="M135.77 81.7002H139.72L135.77 77.7402V81.7002Z" fill="#1993CE"/>
<path d="M139.75 85.6299H143.71L139.75 81.6699V85.6299Z" fill="#09871A"/>
<path d="M131.7 81.6699H123.76V85.5699H131.7V81.6699Z" fill="#1993CE"/>
<path d="M139.72 81.6699H131.78V85.5699H139.72V81.6699Z" fill="#85B842"/>
<path d="M127.99 77.73H120.15V81.63H127.99V77.73Z" fill="#582B8B"/>
<path d="M131.94 73.8501H124.04V77.7501H131.94V73.8501Z" fill="#FDDC53"/>
<path d="M135.79 77.73H127.95V81.63H135.79V77.73Z" fill="#582B8B"/>
<path d="M132.53 89.75H123.3V91.52H132.53V89.75Z" fill="#15445B"/>
<path d="M115.35 89.8002C116.062 89.8002 116.64 89.2227 116.64 88.5102C116.64 87.7978 116.062 87.2202 115.35 87.2202C114.638 87.2202 114.06 87.7978 114.06 88.5102C114.06 89.2227 114.638 89.8002 115.35 89.8002Z" fill="#F28D02"/>
<path d="M119.39 89.8002C120.102 89.8002 120.68 89.2227 120.68 88.5102C120.68 87.7978 120.102 87.2202 119.39 87.2202C118.678 87.2202 118.1 87.7978 118.1 88.5102C118.1 89.2227 118.678 89.8002 119.39 89.8002Z" fill="#F28D02"/>
<path d="M136.1 89.8002C136.812 89.8002 137.39 89.2227 137.39 88.5102C137.39 87.7978 136.812 87.2202 136.1 87.2202C135.388 87.2202 134.81 87.7978 134.81 88.5102C134.81 89.2227 135.388 89.8002 136.1 89.8002Z" fill="#F28D02"/>
<path d="M140.14 89.8002C140.852 89.8002 141.43 89.2227 141.43 88.5102C141.43 87.7978 140.852 87.2202 140.14 87.2202C139.428 87.2202 138.85 87.7978 138.85 88.5102C138.85 89.2227 139.428 89.8002 140.14 89.8002Z" fill="#F28D02"/>
</g>
<rect x="119" y="4" width="37" height="16" rx="4" fill="#1C1C1C"/>
<path d="M124.814 16H123.672L126.211 8.92969H127.451L130 16H128.857L128.213 14.1348H125.459L124.814 16ZM125.767 13.2363H127.9L126.855 10.2188H126.807L125.767 13.2363ZM131.855 8.92969V16H130.811V8.92969H131.855ZM133.213 16V8.92969H134.248V11.5566H134.307C134.497 11.2246 134.849 10.6289 135.83 10.6289C137.114 10.6289 138.062 11.6348 138.066 13.3633C138.062 15.0723 137.124 16.1025 135.84 16.1074C134.878 16.1025 134.502 15.5166 134.307 15.1699H134.229V16H133.213ZM134.229 13.3438C134.229 14.457 134.727 15.2139 135.605 15.2188C136.523 15.2139 137.002 14.4082 137.002 13.3438C137.002 12.2988 136.538 11.5127 135.605 11.5176C134.712 11.5127 134.229 12.2402 134.229 13.3438ZM141.387 16.1074C139.824 16.1074 138.862 15.0283 138.867 13.3828C138.862 11.752 139.839 10.6289 141.318 10.6289C142.524 10.6289 143.672 11.376 143.672 13.2949V13.666H139.902C139.932 14.6768 140.527 15.248 141.396 15.248C141.987 15.248 142.373 14.9941 142.549 14.6719H143.604C143.369 15.5312 142.554 16.1074 141.387 16.1074ZM139.907 12.8848H142.646C142.646 12.0791 142.124 11.4834 141.328 11.4883C140.493 11.4834 139.951 12.1377 139.907 12.8848ZM144.707 16V10.6973H145.713V11.5371H145.771C145.967 10.9707 146.499 10.6143 147.119 10.6191C147.246 10.6143 147.451 10.6289 147.559 10.6387V11.6348C147.471 11.6152 147.227 11.5713 147.012 11.5762C146.289 11.5713 145.752 12.0742 145.752 12.7676V16H144.707ZM151.133 10.6973V11.5273H150.049V14.4375C150.054 15.0381 150.347 15.1455 150.684 15.1504C150.835 15.1504 151.064 15.1357 151.211 15.1211V16.0293C151.069 16.0488 150.845 16.0684 150.557 16.0684C149.741 16.0684 149.004 15.6191 149.014 14.6523V11.5273H148.232V10.6973H149.014V9.42773H150.049V10.6973H151.133Z" fill="white"/>
</g>
<defs>
<linearGradient id="paint0_linear_14_2441" x1="75.77" y1="71.7802" x2="93.28" y2="41.5102" gradientUnits="userSpaceOnUse">
<stop stop-color="white"/>
<stop offset="1" stop-color="#FFA900"/>
</linearGradient>
<clipPath id="clip0_14_2441">
<rect width="160" height="100" fill="white"/>
</clipPath>
<clipPath id="clip1_14_2441">
<rect width="160" height="100" fill="white"/>
</clipPath>
</defs>
</svg>
