<svg width="160" height="100" viewBox="0 0 160 100" fill="none" xmlns="http://www.w3.org/2000/svg">
<g clip-path="url(#clip0_14_2469)">
<path d="M159.38 0.610107H0.619995V99.3801H159.38V0.610107Z" fill="#FFDB92"/>
<path d="M160 100H0V0H160V100ZM1.24 98.78H158.76V1.22H1.24V98.77V98.78Z" fill="#EFD9B4"/>
<path d="M159.38 0.610107H0.619995V41.9601H159.38V0.610107Z" fill="white"/>
<path d="M160 42.58H0V0H160V42.58ZM1.24 41.35H158.76V1.22H1.24V41.35Z" fill="white"/>
<path d="M159.38 43.5701H0.619995V48.1301H159.38V43.5701Z" fill="#B2AEA6"/>
<path d="M160 48.74H0V42.96H160V48.74ZM1.24 47.52H158.76V44.18H1.24V47.52Z" fill="#B2AEA6"/>
<path d="M80.8 24.4799V7.69994C80.8 6.16994 79.55 4.93994 78.01 4.93994H50.82C49.28 4.93994 48.03 6.17994 48.03 7.69994V24.2799C48.03 25.0699 48.36 25.8299 48.94 26.3699L57.16 34.0499C57.81 34.6599 58.67 34.9999 59.57 34.9999H89.61C90.58 34.9999 91.01 33.7999 90.26 33.1899L81.62 26.1799C81.1 25.7599 80.8 25.1399 80.8 24.4699V24.4799Z" fill="#455767"/>
<path d="M77.8 7.76001H50.58V23.46H77.8V7.76001Z" fill="#3888BA"/>
<path d="M64.24 10.1299H53.63V11.2599H64.24V10.1299Z" fill="#A0D1EA"/>
<path d="M67.44 14.0901H56.83V15.2201H67.44V14.0901Z" fill="#A0D1EA"/>
<path d="M64.5401 17.77H53.9301V18.9H64.5401V17.77Z" fill="#A0D1EA"/>
<path d="M80.2001 28.6399H57.5501L56.1801 27.6299H78.8301L80.2001 28.6399Z" fill="#506575"/>
<path d="M83.04 31.8501H60.39L59.02 30.8401H81.67L83.04 31.8501Z" fill="#506575"/>
<path d="M102.61 12.29H87.87V25.48C87.87 28.07 89.97 30.16 92.55 30.16H94.04C94.77 30.16 95.35 30.75 95.35 31.47V32.77C95.35 34.41 97.11 35.46 98.55 34.67L102.31 32.63L102.61 12.28V12.29Z" fill="#FADDDC"/>
<path d="M88.85 26.0901L87.99 25.8501C87.22 25.6301 86.77 24.8401 86.99 24.0701L88.17 19.8801C88.26 19.5601 88.59 19.3701 88.91 19.4601C89.23 19.5501 89.42 19.8801 89.33 20.2001L88.31 23.8301C88.19 24.2701 88.44 24.7201 88.88 24.8401L89.18 24.9201C89.5 25.0101 89.69 25.3401 89.6 25.6601C89.51 25.9801 89.18 26.1701 88.86 26.0801L88.85 26.0901Z" fill="#E0B1BB"/>
<path d="M104.04 18.9V13.35C104.04 12.13 103.05 11.15 101.84 11.15H100.51V8.78999H94.51C93.76 7.13999 91.89 6.09999 89.87 6.68999C88.66 7.03999 87.67 8.03999 87.34 9.25999C86.66 11.72 88.36 13.92 90.64 14.15V14.19H95.34C96.27 14.19 97.02 14.94 97.02 15.87V18.43C97.02 19.52 97.91 20.41 99 20.41L100.86 20.55C100.86 20.55 100.66 20.41 100.67 20.41L100.88 26.08L101.66 26.05C103 25.99 104.05 24.89 104.05 23.55V18.9H104.04Z" fill="#3E2967"/>
<path d="M88.97 26.0499L88.17 25.8799C87.73 26.3699 87.72 26.5199 87.72 27.3399L88.23 27.1899C88.51 27.0899 88.82 27.0799 89.11 27.1599L91.39 27.7799L90.98 27.0799C90.41 26.3999 89.81 26.0499 88.98 26.0499H88.97Z" fill="#3E2967"/>
<path d="M90.0501 29.3299C89.8101 29.2799 89.3601 28.8899 89.3601 28.8899C88.8501 29.3799 89.2701 30.5299 90.6601 31.0899C90.6601 31.0899 92.5501 30.9699 92.5501 30.1599L91.3901 29.6199L90.0501 29.3299Z" fill="#3E2967"/>
<path d="M90.92 19.82C90.92 20.26 91.27 20.61 91.71 20.61C92.15 20.61 92.5 20.26 92.5 19.82C92.5 19.38 92.15 19.03 91.71 19.03C91.27 19.03 90.92 19.38 90.92 19.82Z" fill="#757570"/>
<path d="M116.89 36.02C116.55 35.42 116.06 34.9599 115.5 34.6399C113.72 32.9699 111.32 31.95 108.67 31.95H87.4701C84.7701 31.95 82.3001 32.9 80.3601 34.47C79.6601 34.78 79.0501 35.31 78.6401 36.02C78.5901 36.11 78.4401 36.38 78.2101 36.81C77.5601 37.76 77.0601 38.8199 76.7301 39.9599C73.7001 47.0599 68.8701 46.31 76.2001 61.9C76.2001 61.9 119.34 61.87 119.34 61.86C129.02 41.22 117.4 36.92 116.88 36.02H116.89Z" fill="#502489"/>
<path d="M114.6 84.0801H81.89C77.86 84.0801 74.45 81.1301 73.91 77.1701L70.41 51.4001C69.76 46.6201 73.52 42.3701 78.39 42.3701H117.41C122.2 42.3701 125.93 46.4801 125.41 51.1901L122.61 76.9601C122.17 81.0101 118.72 84.0801 114.61 84.0801H114.6Z" fill="#E5E5E5"/>
<path d="M117.4 49.7299C117.47 49.7299 117.68 49.7299 117.87 49.9399C118.06 50.1499 118.03 50.3499 118.03 50.4199L115.23 76.1899C115.2 76.5099 114.93 76.7399 114.61 76.7399H81.9C81.59 76.7399 81.32 76.5099 81.28 76.1999L77.78 50.4299C77.78 50.3599 77.74 50.1499 77.93 49.9399C78.12 49.7299 78.33 49.7299 78.4 49.7299H117.42M117.42 42.3799H78.4C73.53 42.3799 69.77 46.6299 70.42 51.4099L73.92 77.1799C74.46 81.1299 77.87 84.0899 81.9 84.0899H114.61C118.72 84.0899 122.17 81.0199 122.61 76.9699L125.41 51.1999C125.92 46.4899 122.19 42.3799 117.41 42.3799H117.42Z" fill="#F7F7F7"/>
<rect x="119" y="4" width="37" height="16" rx="4" fill="#1C1C1C"/>
<path d="M124.814 16H123.672L126.211 8.92969H127.451L130 16H128.857L128.213 14.1348H125.459L124.814 16ZM125.767 13.2363H127.9L126.855 10.2188H126.807L125.767 13.2363ZM131.855 8.92969V16H130.811V8.92969H131.855ZM133.213 16V8.92969H134.248V11.5566H134.307C134.497 11.2246 134.849 10.6289 135.83 10.6289C137.114 10.6289 138.062 11.6348 138.066 13.3633C138.062 15.0723 137.124 16.1025 135.84 16.1074C134.878 16.1025 134.502 15.5166 134.307 15.1699H134.229V16H133.213ZM134.229 13.3438C134.229 14.457 134.727 15.2139 135.605 15.2188C136.523 15.2139 137.002 14.4082 137.002 13.3438C137.002 12.2988 136.538 11.5127 135.605 11.5176C134.712 11.5127 134.229 12.2402 134.229 13.3438ZM141.387 16.1074C139.824 16.1074 138.862 15.0283 138.867 13.3828C138.862 11.752 139.839 10.6289 141.318 10.6289C142.524 10.6289 143.672 11.376 143.672 13.2949V13.666H139.902C139.932 14.6768 140.527 15.248 141.396 15.248C141.987 15.248 142.373 14.9941 142.549 14.6719H143.604C143.369 15.5312 142.554 16.1074 141.387 16.1074ZM139.907 12.8848H142.646C142.646 12.0791 142.124 11.4834 141.328 11.4883C140.493 11.4834 139.951 12.1377 139.907 12.8848ZM144.707 16V10.6973H145.713V11.5371H145.771C145.967 10.9707 146.499 10.6143 147.119 10.6191C147.246 10.6143 147.451 10.6289 147.559 10.6387V11.6348C147.471 11.6152 147.227 11.5713 147.012 11.5762C146.289 11.5713 145.752 12.0742 145.752 12.7676V16H144.707ZM151.133 10.6973V11.5273H150.049V14.4375C150.054 15.0381 150.347 15.1455 150.684 15.1504C150.835 15.1504 151.064 15.1357 151.211 15.1211V16.0293C151.069 16.0488 150.845 16.0684 150.557 16.0684C149.741 16.0684 149.004 15.6191 149.014 14.6523V11.5273H148.232V10.6973H149.014V9.42773H150.049V10.6973H151.133Z" fill="white"/>
</g>
<defs>
<clipPath id="clip0_14_2469">
<rect width="160" height="100" fill="white"/>
</clipPath>
</defs>
</svg>
