<svg width="160" height="100" viewBox="0 0 160 100" fill="none" xmlns="http://www.w3.org/2000/svg">
<g clip-path="url(#clip0_14_828)">
<g clip-path="url(#clip1_14_828)">
<path d="M159.38 0.610107H0.619995V99.3801H159.38V0.610107Z" fill="#FFE45F"/>
<path d="M160 100H0V0H160V100ZM1.24 98.78H158.76V1.22H1.24V98.77V98.78Z" fill="#EFD9B4"/>
<path d="M159.38 0.610107H0.619995V41.9601H159.38V0.610107Z" fill="white"/>
<path d="M160 42.58H0V0H160V42.58ZM1.24 41.35H158.76V1.22H1.24V41.35Z" fill="white"/>
<path d="M160 42.4399H0V48.2299H160V42.4399Z" fill="#B2AEA6"/>
<path d="M46.54 56.9399H4.37C4.09385 56.9399 3.87 57.1638 3.87 57.4399V96.8899C3.87 97.1661 4.09385 97.3899 4.37 97.3899H46.54C46.8161 97.3899 47.04 97.1661 47.04 96.8899V57.4399C47.04 57.1638 46.8161 56.9399 46.54 56.9399Z" fill="#E2E2E2"/>
<path d="M44.15 59.28H6.75C6.47386 59.28 6.25 59.5039 6.25 59.78V67.09C6.25 67.3662 6.47386 67.59 6.75 67.59H44.15C44.4261 67.59 44.65 67.3662 44.65 67.09V59.78C44.65 59.5039 44.4261 59.28 44.15 59.28Z" fill="white"/>
<path d="M44.15 68.8401H6.75C6.47386 68.8401 6.25 69.0639 6.25 69.3401V76.6501C6.25 76.9262 6.47386 77.1501 6.75 77.1501H44.15C44.4261 77.1501 44.65 76.9262 44.65 76.6501V69.3401C44.65 69.0639 44.4261 68.8401 44.15 68.8401Z" fill="white"/>
<path d="M44.15 78.3899H6.75C6.47386 78.3899 6.25 78.6138 6.25 78.8899V94.5999C6.25 94.876 6.47386 95.0999 6.75 95.0999H44.15C44.4261 95.0999 44.65 94.876 44.65 94.5999V78.8899C44.65 78.6138 44.4261 78.3899 44.15 78.3899Z" fill="white"/>
<path d="M29.92 61.2H20.48C19.9332 61.2 19.49 61.6432 19.49 62.1899C19.49 62.7367 19.9332 63.18 20.48 63.18H29.92C30.4668 63.18 30.91 62.7367 30.91 62.1899C30.91 61.6432 30.4668 61.2 29.92 61.2Z" fill="#B2AEA6"/>
<path d="M29.92 70.98H20.48C19.9332 70.98 19.49 71.4232 19.49 71.97C19.49 72.5167 19.9332 72.96 20.48 72.96H29.92C30.4668 72.96 30.91 72.5167 30.91 71.97C30.91 71.4232 30.4668 70.98 29.92 70.98Z" fill="#B2AEA6"/>
<path d="M29.92 80.8601H20.48C19.9332 80.8601 19.49 81.3033 19.49 81.8501C19.49 82.3969 19.9332 82.8401 20.48 82.8401H29.92C30.4668 82.8401 30.91 82.3969 30.91 81.8501C30.91 81.3033 30.4668 80.8601 29.92 80.8601Z" fill="#B2AEA6"/>
<path d="M46.53 56.9401L42.39 53.3701H7.57999L4.35999 56.9401C4.35999 56.9401 46.65 57.0601 46.53 56.9401Z" fill="#C1BFBC"/>
<path d="M91.76 78.91L93.89 91.05C94.19 92.75 95.67 93.99 97.39 93.99C99.29 93.99 100.85 92.5 100.94 90.61L101.55 77.98L91.76 78.91Z" fill="#3E2967"/>
<path d="M107.77 78.6001L107.4 90.7701C107.35 92.5601 108.73 94.0601 110.52 94.1501C112.09 94.2301 113.49 93.2001 113.88 91.6801L117.41 77.8201L107.77 78.6001Z" fill="#3E2967"/>
<path d="M121.55 90.4099L109.46 87.7999L116.68 86.5699L115.33 85.2199L105.96 86.4799V79.3899H102.88V86.4999L93.18 85.1499L91.41 86.2999L99.42 87.8799L86.6 90.4999L86.47 92.1299L102.79 90.0999L103.36 95.5699L105.21 95.5999L105.44 90.1699L121.76 92.0599L121.55 90.4099Z" fill="#8C8C8C"/>
<path d="M87.82 94.7001C88.7534 94.7001 89.51 93.9434 89.51 93.0101C89.51 92.0767 88.7534 91.3201 87.82 91.3201C86.8866 91.3201 86.13 92.0767 86.13 93.0101C86.13 93.9434 86.8866 94.7001 87.82 94.7001Z" fill="#8C8C8C"/>
<path d="M104.22 98.7599C105.153 98.7599 105.91 98.0032 105.91 97.0699C105.91 96.1365 105.153 95.3799 104.22 95.3799C103.287 95.3799 102.53 96.1365 102.53 97.0699C102.53 98.0032 103.287 98.7599 104.22 98.7599Z" fill="#8C8C8C"/>
<path d="M121.02 95.2401C121.953 95.2401 122.71 94.4835 122.71 93.5501C122.71 92.6167 121.953 91.8601 121.02 91.8601C120.087 91.8601 119.33 92.6167 119.33 93.5501C119.33 94.4835 120.087 95.2401 121.02 95.2401Z" fill="#8C8C8C"/>
<path d="M115.33 89.62C116.263 89.62 117.02 88.8634 117.02 87.93C117.02 86.9966 116.263 86.24 115.33 86.24C114.397 86.24 113.64 86.9966 113.64 87.93C113.64 88.8634 114.397 89.62 115.33 89.62Z" fill="#8C8C8C"/>
<path d="M92.43 89.4801C93.3634 89.4801 94.12 88.7235 94.12 87.7901C94.12 86.8567 93.3634 86.1001 92.43 86.1001C91.4966 86.1001 90.74 86.8567 90.74 87.7901C90.74 88.7235 91.4966 89.4801 92.43 89.4801Z" fill="#8C8C8C"/>
<path d="M83.29 24.18V5.60004C83.29 3.91004 81.91 2.54004 80.2 2.54004H50.07C48.36 2.54004 46.98 3.91004 46.98 5.60004V23.97C46.98 24.85 47.35 25.69 47.99 26.29L57.09 34.8C57.81 35.47 58.76 35.85 59.76 35.85H93.04C94.11 35.85 94.59 34.52 93.76 33.85L84.19 26.09C83.62 25.63 83.29 24.93 83.29 24.2V24.18Z" fill="#455767"/>
<path d="M79.98 5.66992H49.82V23.0699H79.98V5.66992Z" fill="#3888BA"/>
<path d="M64.94 8.29004H53.19V9.55004H64.94V8.29004Z" fill="#A0D1EA"/>
<path d="M68.49 12.6799H56.74V13.9399H68.49V12.6799Z" fill="#A0D1EA"/>
<path d="M65.28 16.76H53.53V18.02H65.28V16.76Z" fill="#A0D1EA"/>
<path d="M82.63 28.7899H57.53L56.01 27.6799H81.11L82.63 28.7899Z" fill="#506575"/>
<path d="M85.78 32.35H60.68L59.16 31.23H84.26L85.78 32.35Z" fill="#506575"/>
<path d="M81.4 34.3101C81.1 32.1601 79.11 30.6501 76.96 30.9501C75.19 31.2001 73.86 32.5801 73.61 34.2601C73.56 34.6201 73.55 35.0001 73.61 35.3901C73.74 36.3201 73.9 37.2401 74.08 38.1301L81.64 35.7401C81.55 35.2701 81.47 34.7901 81.41 34.3101H81.4Z" fill="#FADDDC"/>
<path d="M95.49 32.8699C95.19 30.7199 93.2 29.2099 91.05 29.5099C89.28 29.7599 87.95 31.1399 87.7 32.8199C87.65 33.1799 87.64 33.5599 87.7 33.9499C87.83 34.8799 87.99 35.7999 88.17 36.6899L95.73 34.2999C95.64 33.8299 95.56 33.3499 95.5 32.8699H95.49Z" fill="#FADDDC"/>
<path d="M107.83 70.4C108.71 68.42 107.81 66.09 105.83 65.21C105.62 65.12 85.3 55.83 81.64 35.75L74.08 38.14C78.9 61.68 101.64 71.97 102.65 72.41C104.64 73.29 106.95 72.39 107.83 70.4Z" fill="#A4B2D3"/>
<path d="M114.64 31.95H93.44C90.74 31.95 82.95 32.8899 79.73 36.5999C76.93 39.8299 76.53 44.7099 76.91 56.3899C77.01 59.5099 79.58 62 82.7 61.99C95.39 61.96 125.31 61.88 125.31 61.86C128.75 50.25 128.69 45.8299 126.77 39.9199C124.63 33.3499 116.08 31.95 114.64 31.95Z" fill="#A4B2D3"/>
<path d="M119.41 80.45H88.94C85.19 80.45 82.01 77.5 81.51 73.54L78.25 47.77C77.64 42.99 81.14 38.74 85.68 38.74H122.02C126.48 38.74 129.95 42.85 129.47 47.56L126.86 73.33C126.45 77.38 123.24 80.45 119.41 80.45Z" fill="#E5E5E5"/>
<path d="M122.02 46.1C122.08 46.1 122.28 46.1 122.45 46.31C122.62 46.52 122.6 46.72 122.6 46.79L119.99 72.56C119.96 72.88 119.71 73.11 119.41 73.11H88.94C88.65 73.11 88.4 72.88 88.36 72.57L85.1 46.8C85.1 46.73 85.06 46.52 85.24 46.31C85.41 46.1 85.61 46.1 85.68 46.1H122.02ZM122.02 38.75H85.68C81.14 38.75 77.64 43 78.25 47.78L81.51 73.55C82.01 77.5 85.19 80.46 88.94 80.46H119.41C123.24 80.46 126.45 77.39 126.86 73.34L129.47 47.57C129.95 42.86 126.47 38.75 122.02 38.75Z" fill="#F7F7F7"/>
<path d="M87.36 65.8501H120.75L120.01 73.1001L88.39 73.1201L87.36 65.8501Z" fill="#B2AEA6"/>
<path d="M106.51 8.09009L91.54 9.71009L93.09 24.0801C93.39 26.9001 95.77 28.9501 98.4 28.6701L99.91 28.5101C100.65 28.4301 101.31 29.0101 101.4 29.8001L101.98 35.1801L108.6 30.3001L106.5 8.10009L106.51 8.09009Z" fill="#FADDDC"/>
<path d="M94.34 24.62L93.38 24.46C92.52 24.32 91.93 23.5 92.08 22.64L92.87 17.93C92.93 17.57 93.27 17.33 93.63 17.39C93.99 17.45 94.23 17.79 94.17 18.15L93.49 22.23C93.41 22.72 93.74 23.18 94.23 23.26L94.57 23.32C94.93 23.38 95.17 23.72 95.11 24.08C95.05 24.44 94.71 24.68 94.35 24.62H94.34Z" fill="#E0B1BB"/>
<path opacity="0.5" d="M97.87 20.2L96.33 20.37C95.35 20.48 94.46 19.67 94.34 18.58C94.22 17.49 94.92 16.51 95.9 16.4L97.44 16.23C98.42 16.12 99.31 16.93 99.43 18.02C99.55 19.11 98.85 20.09 97.87 20.2Z" fill="#64FFFF"/>
<path opacity="0.5" d="M90.94 20.9499L91.75 20.8599C90.77 20.9699 89.88 20.1599 89.76 19.0699C89.64 17.9799 90.34 16.9999 91.32 16.8899L90.51 16.9799C91.49 16.8699 92.38 17.6799 92.5 18.7699C92.62 19.8599 91.92 20.8399 90.94 20.9499Z" fill="#64FFFF"/>
<path d="M99.87 17.3401L99.97 18.2401C100.1 19.4201 99.34 20.4701 98.29 20.5801L95.94 20.8301C94.89 20.9401 93.93 20.0801 93.8 18.9001L93.74 18.3401L92.98 18.4201L93.04 18.9801C93.17 20.1601 92.41 21.2101 91.36 21.3201C90.31 21.4301 89.35 20.5701 89.22 19.3901L89.12 18.4901C88.99 17.3101 89.75 16.2601 90.8 16.1501C91.58 16.0701 92.3 16.5201 92.68 17.2301L93.77 17.1101C93.99 16.3301 94.6 15.7301 95.37 15.6501L97.72 15.4001C98.77 15.2901 99.73 16.1501 99.86 17.3301L99.87 17.3401ZM91.87 18.2101C91.81 17.6901 91.39 17.3101 90.93 17.3601C90.47 17.4101 90.14 17.8701 90.19 18.3901L90.29 19.2901C90.35 19.8101 90.77 20.1801 91.23 20.1301C91.69 20.0801 92.02 19.6201 91.97 19.1001L91.87 18.2001V18.2101ZM98.79 17.4601C98.73 16.9401 98.31 16.5601 97.85 16.6101L95.5 16.8601C95.04 16.9101 94.71 17.3701 94.76 17.8901L94.86 18.7901C94.92 19.3101 95.34 19.6801 95.8 19.6301L98.15 19.3801C98.61 19.3301 98.94 18.8701 98.89 18.3501L98.79 17.4501V17.4601Z" fill="#565C5E"/>
<path d="M109.47 12.02C109.46 9.71002 108.43 7.49002 106.57 6.06002C104.23 4.25002 100.88 3.52002 96.4 4.71002C96.23 4.76002 96.05 4.74002 95.87 4.76002C90.67 5.32002 89.22 9.71002 89.53 12.23C89.94 15.68 91.83 16.42 91.83 16.42C91.83 16.42 91.9 16.4 91.93 16.4C93.47 16.23 91.89 10.22 92.85 10.11C93.81 10 93.99 16.28 101.3 15.48C101.85 15.42 102.34 15.83 102.39 16.36L102.58 18.14C102.61 18.46 102.91 18.7 103.25 18.66C103.59 18.63 103.83 18.33 103.79 18.01V18.03C103.75 17.69 105.52 20.79 106.67 22C107.08 22.43 107.97 21.64 107.97 21.64C108.49 20.62 109.49 15.99 109.47 12.01V12.02Z" fill="#3E2967"/>
<path d="M105.123 21.6243L106.186 21.5091C106.714 21.452 107.095 20.9785 107.038 20.4513L106.572 16.1564C106.515 15.6293 106.042 15.2483 105.515 15.3054L104.451 15.4206C103.924 15.4776 103.543 15.9512 103.6 16.4783L104.065 20.7732C104.122 21.3003 104.596 21.6814 105.123 21.6243Z" fill="#FADDDC"/>
<path d="M111.47 29.54H99.61C97.9697 29.54 96.64 30.8675 96.64 32.505C96.64 34.1426 97.9697 35.47 99.61 35.47H111.47C113.11 35.47 114.44 34.1426 114.44 32.505C114.44 30.8675 113.11 29.54 111.47 29.54Z" fill="#A4B2D3"/>
<path d="M19.44 22.97L14.6 28.61H17.61L19.6 24.74L19.44 22.97Z" fill="#EACA44"/>
<path d="M33.76 14.21H20.4V28.36H33.76V14.21Z" fill="#F4EFEF"/>
<path d="M36.2 30.88H18V11.77H36.2V30.89V30.88ZM20.5 28.38H33.7V14.26H20.5V28.38Z" fill="#FFE45F"/>
<path d="M22.4 25.9199C22.79 24.8199 23.66 23.5199 24.33 23.0899C25 22.6599 29.05 22.0699 30.58 23.5199C32.11 24.9699 32.94 27.7199 33.06 28.3499H21.7C21.7 28.3499 22.01 27.0399 22.41 25.9099L22.4 25.9199Z" fill="#D59EDD"/>
<path d="M31.23 20.74C31.23 21.19 30.86 21.56 30.4 21.56C30.38 21.56 30.36 21.56 30.35 21.55C29.92 23.03 28.51 24.12 26.85 24.12C25.19 24.12 23.79 23.04 23.35 21.56H23.32C22.86 21.56 22.49 21.19 22.49 20.74C22.49 20.29 22.83 19.94 23.27 19.92C23.59 18.28 25.07 17.03 26.85 17.03C28.63 17.03 30.11 18.27 30.43 19.91C30.88 19.93 31.23 20.29 31.23 20.74Z" fill="#FADDDC"/>
<path d="M24.78 20.63C24.9512 20.63 25.09 20.4912 25.09 20.32C25.09 20.1488 24.9512 20.01 24.78 20.01C24.6088 20.01 24.47 20.1488 24.47 20.32C24.47 20.4912 24.6088 20.63 24.78 20.63Z" fill="#4C4C47"/>
<path d="M28 20.63C28.1712 20.63 28.31 20.4912 28.31 20.32C28.31 20.1488 28.1712 20.01 28 20.01C27.8288 20.01 27.69 20.1488 27.69 20.32C27.69 20.4912 27.8288 20.63 28 20.63Z" fill="#4C4C47"/>
<path d="M26.13 21.92C26.13 21.92 26.08 21.92 26.06 21.91C25.7 21.8 25.58 21.6 25.54 21.45C25.45 21.05 25.84 20.67 25.92 20.59C26.02 20.5 26.18 20.5 26.27 20.6C26.36 20.7 26.36 20.86 26.26 20.95C26.13 21.07 26.01 21.26 26.03 21.33C26.03 21.35 26.08 21.39 26.2 21.43C26.33 21.47 26.41 21.61 26.37 21.74C26.34 21.85 26.24 21.92 26.13 21.92Z" fill="#E0B1BB"/>
<path d="M25.19 22.5001L28.26 22.1001C28.26 22.1001 28.17 23.1101 26.97 23.2401C25.64 23.3801 25.19 22.5001 25.19 22.5001Z" fill="#AD4336"/>
<path d="M23.47 18.8399L24.68 18.9999L25.32 17.6699L25.19 18.9799C25.19 18.9799 26.5 19.0199 26.69 18.9899L26.86 17.5499L27.05 19.0399C27.05 19.0399 28.56 19.0799 28.91 19.0499C29.26 19.0199 30.18 18.7899 30.18 18.7899C30.18 18.7899 29.61 16.8799 27.37 16.6599C25.13 16.4399 23.84 17.7499 23.47 18.8299V18.8399Z" fill="#3E2967"/>
<path d="M29.03 17.26C29.03 17.26 29.57 16.06 30.06 15.79L30.19 16.09L29.69 16.66L30.35 16.42V16.75L29.16 17.42L29.03 17.26Z" fill="#3E2967"/>
<path d="M24.79 17.3599C24.79 17.3599 24.25 16.1599 23.76 15.8899L23.63 16.1899L24.13 16.7599L23.47 16.5199V16.8499L24.66 17.5199L24.79 17.3599Z" fill="#3E2967"/>
</g>
<rect x="124.615" y="4.19507" width="31" height="16" rx="4" fill="#1C1C1C"/>
<path d="M130.233 16.1951H129.09L131.629 9.12476H132.869L135.418 16.1951H134.276L133.631 14.3298H130.877L130.233 16.1951ZM131.185 13.4314H133.318L132.274 10.4138H132.225L131.185 13.4314ZM137.274 9.12476V16.1951H136.229V9.12476H137.274ZM143.094 10.8923L141.17 16.1951H140.047L138.123 10.8923H139.246L140.584 14.9646H140.633L141.971 10.8923H143.094ZM143.943 16.1951V10.8923H144.988V16.1951H143.943ZM143.807 9.45679C143.812 9.11499 144.109 8.84155 144.471 8.84155C144.827 8.84155 145.125 9.11499 145.125 9.45679C145.125 9.79858 144.827 10.0769 144.471 10.072C144.109 10.0769 143.812 9.79858 143.807 9.45679ZM147.303 13.0505V16.1951H146.258V10.8923H147.264V11.7615H147.322C147.571 11.1902 148.094 10.824 148.885 10.824C149.974 10.824 150.696 11.5125 150.692 12.8259V16.1951H149.656V12.9529C149.651 12.1814 149.236 11.7224 148.533 11.7224C147.816 11.7224 147.303 12.2058 147.303 13.0505Z" fill="white"/>
</g>
<defs>
<clipPath id="clip0_14_828">
<rect width="160" height="100" fill="white"/>
</clipPath>
<clipPath id="clip1_14_828">
<rect width="160" height="100" fill="white"/>
</clipPath>
</defs>
</svg>
