<svg width="160" height="100" viewBox="0 0 160 100" fill="none" xmlns="http://www.w3.org/2000/svg">
<g clip-path="url(#clip0_14_805)">
<path d="M159.25 0.610107H0.619995V99.3801H159.25V0.610107Z" fill="#FFDB92"/>
<path d="M159.86 100H0V0H159.86V100ZM1.24 98.78H158.63V1.22H1.24V98.77V98.78Z" fill="#EFD9B4"/>
<path d="M159.39 82.55H0.76001V99.39H159.39V82.55Z" fill="white"/>
<path d="M160 99.9999H0.140015V81.9399H160V99.9999ZM1.37001 98.7799H158.76V83.1699H1.37001V98.7799Z" fill="white"/>
<path d="M72.65 43.8901C72.31 43.2901 71.82 42.8301 71.26 42.5101C69.48 40.8401 67.08 39.8201 64.44 39.8201H43.25C40.55 39.8201 38.08 40.7701 36.15 42.3401C35.45 42.6501 34.84 43.1801 34.43 43.8901C34.38 43.9801 34.23 44.2501 34 44.6801C33.35 45.6301 32.85 46.6901 32.52 47.8301C29.49 54.9301 24.66 70.5201 31.99 86.1201L39.16 83.6701C38.87 83.0801 38.6 82.4801 38.35 81.8901H68.73C68.48 82.4901 68.21 83.0801 67.92 83.6701L75.09 86.1201C84.79 65.4701 73.17 44.8001 72.65 43.9001V43.8901Z" fill="#A4B2D3"/>
<path d="M31.45 84.9C30.45 83.09 31.12 80.83 32.95 79.84C34.45 79.03 36.26 79.33 37.41 80.47C37.66 80.72 37.88 81 38.06 81.33C38.49 82.11 38.89 82.9 39.26 83.68L32.09 86.13C31.89 85.72 31.68 85.31 31.45 84.91V84.9Z" fill="#FADDDC"/>
<path d="M75.64 85.0501C76.64 83.2401 75.97 80.9801 74.14 79.9901C72.64 79.1801 70.83 79.4801 69.68 80.6201C69.43 80.8701 69.21 81.1501 69.03 81.4801C68.6 82.2601 68.2 83.0501 67.83 83.8301L75 86.2801C75.2 85.8701 75.41 85.4601 75.64 85.0601V85.0501Z" fill="#FADDDC"/>
<path d="M62.3052 34.258L45.8765 33.647C44.6513 33.6014 43.6211 34.5577 43.5756 35.7829L43.4919 38.0314C43.4464 39.2566 44.4027 40.2868 45.6279 40.3323L62.0565 40.9434C63.2818 40.9889 64.312 40.0326 64.3575 38.8074L64.4411 36.559C64.4867 35.3337 63.5304 34.3036 62.3052 34.258Z" fill="#A4B2D3"/>
<path d="M53.87 40.34L59.76 37.3C60.58 36.88 61.11 36.05 61.14 35.13C61.16 34.62 60.77 34.2 60.26 34.18L47.93 33.72C47.43 33.7 47 34.09 46.98 34.6C46.95 35.52 47.41 36.39 48.2 36.87L53.87 40.34Z" fill="#3E2967"/>
<path d="M57.41 38.5901L58.21 17.0701L47.22 16.6601C45.18 16.5801 43.47 18.1801 43.39 20.2201L43.12 29.1301C43 32.4401 45.58 35.2201 48.88 35.3401H49.04C49.76 35.3701 50.33 35.9801 50.3 36.7001L50.24 38.2501L53.82 40.4401L57.42 38.5801L57.41 38.5901Z" fill="#FADDDC"/>
<path d="M47.57 31.4601L46.68 31.4301C45.88 31.4001 45.26 30.7301 45.29 29.9401L45.45 25.6001C45.46 25.2701 45.74 25.0101 46.07 25.0201C46.4 25.0301 46.66 25.3101 46.65 25.6401L46.51 29.4001C46.49 29.8501 46.85 30.2301 47.3 30.2501H47.61C47.94 30.2701 48.2 30.5501 48.19 30.8801C48.18 31.2101 47.9 31.4701 47.57 31.4601Z" fill="#E0B1BB"/>
<path d="M49.5899 41.06C49.9489 41.06 50.2399 40.769 50.2399 40.41C50.2399 40.051 49.9489 39.76 49.5899 39.76C49.231 39.76 48.9399 40.051 48.9399 40.41C48.9399 40.769 49.231 41.06 49.5899 41.06Z" fill="#F1EFEA"/>
<path d="M48.85 60.1199C48.62 60.1199 48.44 59.9199 48.45 59.6899L49.17 40.3899C49.17 40.1599 49.37 39.9799 49.6 39.9899C49.83 39.9999 50.01 40.1899 50 40.4199L49.28 59.7199C49.28 59.9499 49.08 60.1299 48.85 60.1199Z" fill="white"/>
<path d="M56.92 41.33C57.279 41.33 57.57 41.039 57.57 40.68C57.57 40.321 57.279 40.03 56.92 40.03C56.561 40.03 56.27 40.321 56.27 40.68C56.27 41.039 56.561 41.33 56.92 41.33Z" fill="#F1EFEA"/>
<path d="M56.1899 60.3999C55.9599 60.3999 55.7799 60.1999 55.7899 59.9699L56.5099 40.6699C56.5099 40.4399 56.7099 40.2599 56.9399 40.2699C57.1699 40.2799 57.3499 40.4699 57.3399 40.6999L56.6199 59.9999C56.6199 60.2299 56.4199 60.4099 56.1899 60.3999Z" fill="white"/>
<path opacity="0.5" d="M50.61 28.3H48.95C47.9 28.3 47.03 27.44 47.03 26.38C47.03 25.33 47.89 24.46 48.95 24.46H50.61C51.66 24.46 52.53 25.32 52.53 26.38C52.53 27.43 51.67 28.3 50.61 28.3Z" fill="white"/>
<path opacity="0.5" d="M43.1399 28.3H42.6199C41.5699 28.3 40.7 27.44 40.7 26.38C40.7 25.33 41.5599 24.46 42.6199 24.46H43.1399C44.1899 24.46 45.06 25.32 45.06 26.38C45.06 27.43 44.1999 28.3 43.1399 28.3Z" fill="white"/>
<path d="M51.05 23.3101H48.52C47.68 23.3101 46.96 23.8201 46.64 24.5401H45.46C45.14 23.8201 44.42 23.3101 43.58 23.3101H42.19C41.05 23.3101 40.13 24.2301 40.13 25.3701V26.2401C40.13 27.3801 41.05 28.3001 42.19 28.3001H43.58C44.72 28.3001 45.64 27.3801 45.64 26.2401V25.7001H46.46V26.2401C46.46 27.3801 47.38 28.3001 48.52 28.3001H51.05C52.19 28.3001 53.11 27.3801 53.11 26.2401V25.3701C53.11 24.2301 52.19 23.3101 51.05 23.3101ZM44.48 26.2401C44.48 26.7401 44.07 27.1401 43.58 27.1401H42.19C41.69 27.1401 41.29 26.7401 41.29 26.2401V25.3701C41.29 24.8701 41.69 24.4701 42.19 24.4701H43.58C44.08 24.4701 44.48 24.8801 44.48 25.3701V26.2401ZM51.95 26.2401C51.95 26.7401 51.54 27.1401 51.05 27.1401H48.52C48.02 27.1401 47.62 26.7401 47.62 26.2401V25.3701C47.62 24.8701 48.02 24.4701 48.52 24.4701H51.05C51.55 24.4701 51.95 24.8801 51.95 25.3701V26.2401Z" fill="#9C9E9F"/>
<path d="M60.2999 20.9401C60.5199 18.7401 59.7799 16.5101 58.2099 14.9601C56.2199 12.9901 53.1799 11.9501 48.9099 12.6301C48.7499 12.6601 48.5799 12.6301 48.4099 12.6301C43.5299 12.6301 41.7499 16.6601 41.7699 19.1001C41.8099 22.4301 43.4799 23.3301 43.4799 23.3301C43.4799 23.3301 43.5499 23.3301 43.5699 23.3301C46.2399 23.3301 45.7799 17.4301 46.6799 17.4301C47.5799 17.4301 46.1699 23.0701 54.1599 23.4301C54.6799 23.4501 55.0899 23.8701 55.0899 24.3901V26.1001C55.0899 26.4101 55.3399 26.6701 55.6499 26.6701C55.9599 26.6701 56.2199 26.4201 56.2199 26.1001V24.2901C56.2199 23.8401 56.5499 23.4401 56.9999 23.4201C57.4799 23.4001 57.8699 23.7701 57.8699 24.2501L57.7199 30.2001V30.2301C58.3099 29.3101 59.9199 24.7601 60.2899 20.9601L60.2999 20.9401Z" fill="#3E2967"/>
<path d="M39.43 63.21H67.67C68.91 63.21 69.92 64.22 69.92 65.46V86.45H37.17V65.46C37.17 64.22 38.18 63.21 39.42 63.21H39.43Z" fill="#455767"/>
<path d="M53.81 78.0399C55.3122 78.0399 56.53 76.8356 56.53 75.3499C56.53 73.8643 55.3122 72.6599 53.81 72.6599C52.3078 72.6599 51.09 73.8643 51.09 75.3499C51.09 76.8356 52.3078 78.0399 53.81 78.0399Z" fill="#66767F"/>
<path d="M147.53 57.17L132.04 38.54C131.78 39.16 131.34 39.69 130.78 40.05L145.86 58.2C146.29 57.71 146.87 57.35 147.52 57.18L147.53 57.17Z" fill="#455767"/>
<path d="M125.69 37.3001C125.69 37.2201 125.69 37.1401 125.7 37.0601L109.85 44.1801L109.3 43.6401C109.1 43.4401 108.81 43.3601 108.54 43.4401L98.66 46.0601C98.07 46.2201 97.88 46.9401 98.31 47.3701L108.17 57.1401C108.6 57.5701 109.33 57.3701 109.49 56.7901L112.14 47.0001C112.21 46.7301 112.14 46.4401 111.94 46.2401L111.33 45.6401L126.17 38.9801C125.88 38.4901 125.71 37.9201 125.71 37.3201L125.69 37.3001Z" fill="#455767"/>
<path d="M147.29 63.4199L143.77 88.1799L145.69 88.4499L149.24 63.4699C148.96 63.5499 148.66 63.5999 148.35 63.5999C147.98 63.5999 147.62 63.5399 147.29 63.4199Z" fill="#455767"/>
<path d="M131.12 37.2999C131.12 36.1299 130.16 35.1899 128.99 35.1899C128.11 35.1899 127.36 35.7199 127.03 36.4599C126.92 36.7199 126.85 36.9999 126.85 37.2999C126.85 37.7399 126.99 38.1499 127.22 38.4799C127.6 39.0399 128.25 39.4099 128.99 39.4099C129.37 39.4099 129.73 39.3099 130.04 39.1399C130.66 38.7999 131.08 38.1599 131.12 37.4199C131.12 37.3799 131.12 37.3399 131.12 37.2999Z" fill="#455767"/>
<path d="M148.4 58.21C148.4 58.21 148.37 58.21 148.35 58.21C147.64 58.21 147.01 58.56 146.62 59.09C146.37 59.44 146.22 59.86 146.22 60.32C146.22 61.17 146.73 61.9 147.46 62.24C147.73 62.36 148.03 62.44 148.35 62.44C148.74 62.44 149.11 62.33 149.43 62.15C150.06 61.78 150.48 61.11 150.48 60.33C150.48 59.18 149.55 58.25 148.4 58.22V58.21Z" fill="#455767"/>
<path style="mix-blend-mode:darken" d="M97.4499 91.7001L108.16 57.1301L98.2999 47.3601L27.8199 93.0301L97.4499 91.7001Z" fill="url(#paint0_linear_14_805)"/>
<path d="M145.09 92.36C149.453 92.36 152.99 90.7796 152.99 88.83C152.99 86.8805 149.453 85.3 145.09 85.3C140.727 85.3 137.19 86.8805 137.19 88.83C137.19 90.7796 140.727 92.36 145.09 92.36Z" fill="#455767"/>
<rect x="124.615" y="4.19507" width="31" height="16" rx="4" fill="#1C1C1C"/>
<path d="M130.233 16.1951H129.09L131.629 9.12476H132.869L135.418 16.1951H134.276L133.631 14.3298H130.877L130.233 16.1951ZM131.185 13.4314H133.318L132.274 10.4138H132.225L131.185 13.4314ZM137.274 9.12476V16.1951H136.229V9.12476H137.274ZM143.094 10.8923L141.17 16.1951H140.047L138.123 10.8923H139.246L140.584 14.9646H140.633L141.971 10.8923H143.094ZM143.943 16.1951V10.8923H144.988V16.1951H143.943ZM143.807 9.45679C143.812 9.11499 144.109 8.84155 144.471 8.84155C144.827 8.84155 145.125 9.11499 145.125 9.45679C145.125 9.79858 144.827 10.0769 144.471 10.072C144.109 10.0769 143.812 9.79858 143.807 9.45679ZM147.303 13.0505V16.1951H146.258V10.8923H147.264V11.7615H147.322C147.571 11.1902 148.094 10.824 148.885 10.824C149.974 10.824 150.696 11.5125 150.692 12.8259V16.1951H149.656V12.9529C149.651 12.1814 149.236 11.7224 148.533 11.7224C147.816 11.7224 147.303 12.2058 147.303 13.0505Z" fill="white"/>
</g>
<defs>
<linearGradient id="paint0_linear_14_805" x1="71.9899" y1="76.1901" x2="89.4999" y2="45.9301" gradientUnits="userSpaceOnUse">
<stop stop-color="white"/>
<stop offset="1" stop-color="#FFC552"/>
</linearGradient>
<clipPath id="clip0_14_805">
<rect width="160" height="100" fill="white"/>
</clipPath>
</defs>
</svg>
