<svg width="160" height="100" viewBox="0 0 160 100" fill="none" xmlns="http://www.w3.org/2000/svg">
<g clip-path="url(#clip0_14_805)">
<g clip-path="url(#clip1_14_805)">
<path d="M159.25 0.610107H0.619995V99.3801H159.25V0.610107Z" fill="#FFE45F"/>
<path d="M159.86 100H0V0H159.86V100ZM1.24 98.78H158.63V1.22H1.24V98.77V98.78Z" fill="#EFD9B4"/>
<path d="M159.39 82.55H0.76001V99.39H159.39V82.55Z" fill="white"/>
<path d="M160 99.9999H0.140015V81.9399H160V99.9999ZM1.37001 98.7799H158.76V83.1699H1.37001V98.7799Z" fill="white"/>
<path d="M72.65 43.8901C72.31 43.2901 71.82 42.8301 71.26 42.5101C69.48 40.8401 67.08 39.8201 64.44 39.8201H43.25C40.55 39.8201 33.5 42.9901 31.87 46.1801C26.21 57.2701 24.33 64.8701 24.55 71.7401C24.66 75.0801 28.81 86.2201 28.72 86.0201L68.72 81.8801C68.47 82.4801 68.2 83.0701 67.91 83.6601L75.08 86.1101C84.78 65.4601 73.16 44.7901 72.64 43.8901H72.65Z" fill="#A4B2D3"/>
<path d="M75.64 85.0501C76.64 83.2401 75.97 80.9801 74.14 79.9901C72.64 79.1801 70.83 79.4801 69.68 80.6201C69.43 80.8701 69.21 81.1501 69.03 81.4801C68.6 82.2601 68.2 83.0501 67.83 83.8301L75 86.2801C75.2 85.8701 75.41 85.4601 75.64 85.0601V85.0501Z" fill="#FADDDC"/>
<path d="M62.3052 34.258L45.8765 33.647C44.6513 33.6014 43.6211 34.5577 43.5756 35.7829L43.4919 38.0314C43.4464 39.2566 44.4027 40.2868 45.6279 40.3323L62.0565 40.9434C63.2818 40.9889 64.312 40.0326 64.3575 38.8074L64.4411 36.559C64.4867 35.3337 63.5304 34.3036 62.3052 34.258Z" fill="#A4B2D3"/>
<path d="M53.87 40.34L59.76 37.3C60.58 36.88 61.11 36.05 61.14 35.13C61.16 34.62 60.77 34.2 60.26 34.18L47.93 33.72C47.43 33.7 47 34.09 46.98 34.6C46.95 35.52 47.41 36.39 48.2 36.87L53.87 40.34Z" fill="#3E2967"/>
<path d="M50.41 38.0601L51.62 16.5601L62.6 17.1701C64.64 17.2801 66.2 19.0301 66.08 21.0701L65.52 29.9701C65.34 33.2701 62.51 35.8001 59.2 35.6201H59.04C58.32 35.5701 57.7 36.1201 57.66 36.8501L57.57 38.4001L53.81 40.2501L50.4 38.0701L50.41 38.0601Z" fill="#FADDDC"/>
<path d="M49.59 41.06C49.949 41.06 50.24 40.769 50.24 40.41C50.24 40.051 49.949 39.76 49.59 39.76C49.231 39.76 48.94 40.051 48.94 40.41C48.94 40.769 49.231 41.06 49.59 41.06Z" fill="#F1EFEA"/>
<path d="M48.85 60.1199C48.62 60.1199 48.44 59.9199 48.45 59.6899L49.17 40.3899C49.17 40.1599 49.37 39.9799 49.6 39.9899C49.83 39.9999 50.01 40.1899 50 40.4199L49.28 59.7199C49.28 59.9499 49.08 60.1299 48.85 60.1199Z" fill="white"/>
<path d="M56.92 41.33C57.279 41.33 57.57 41.039 57.57 40.68C57.57 40.321 57.279 40.03 56.92 40.03C56.561 40.03 56.27 40.321 56.27 40.68C56.27 41.039 56.561 41.33 56.92 41.33Z" fill="#F1EFEA"/>
<path d="M56.19 60.3999C55.96 60.3999 55.78 60.1999 55.79 59.9699L56.51 40.6699C56.51 40.4399 56.71 40.2599 56.94 40.2699C57.17 40.2799 57.35 40.4699 57.34 40.6999L56.62 59.9999C56.62 60.2299 56.42 60.4099 56.19 60.3999Z" fill="white"/>
<path d="M60.82 31.4201L61.7 31.5001C62.49 31.5701 63.2 30.9901 63.27 30.2001L63.68 25.8801C63.71 25.5501 63.47 25.2601 63.14 25.2301C62.81 25.2001 62.52 25.4401 62.49 25.7701L62.14 29.5201C62.1 29.9701 61.7 30.3001 61.25 30.2601L60.94 30.2301C60.61 30.2001 60.32 30.4401 60.29 30.7701C60.26 31.1001 60.5 31.3901 60.83 31.4201H60.82Z" fill="#E0B1BB"/>
<path opacity="0.5" d="M58.22 27.89L59.87 28.11C60.91 28.25 61.88 27.51 62.02 26.46C62.16 25.42 61.42 24.45 60.37 24.31L58.72 24.09C57.68 23.95 56.71 24.69 56.57 25.74C56.43 26.78 57.17 27.75 58.22 27.89Z" fill="#76FFFF"/>
<path opacity="0.5" d="M65.62 28.86L66.14 28.93C67.18 29.07 68.15 28.33 68.29 27.28C68.43 26.24 67.69 25.27 66.64 25.13L66.12 25.06C65.08 24.92 64.11 25.66 63.97 26.71C63.83 27.75 64.57 28.72 65.62 28.86Z" fill="#76FFFF"/>
<path d="M58.44 22.8801L60.95 23.2101C61.78 23.3201 62.43 23.9201 62.65 24.6701L63.82 24.8201C64.23 24.1501 65.01 23.7401 65.85 23.8501L67.23 24.0301C68.36 24.1801 69.15 25.2201 69 26.3401L68.89 27.2001C68.74 28.3301 67.71 29.1201 66.58 28.9701L65.2 28.7901C64.07 28.6401 63.28 27.6001 63.43 26.4801L63.5 25.9401L62.69 25.8301L62.62 26.3701C62.47 27.5001 61.44 28.2901 60.31 28.1401L57.8 27.8101C56.67 27.6601 55.88 26.6201 56.03 25.5001L56.14 24.6401C56.29 23.5101 57.32 22.7201 58.45 22.8701L58.44 22.8801ZM64.57 26.6401C64.5 27.1301 64.85 27.5901 65.35 27.6501L66.73 27.8301C67.22 27.9001 67.68 27.5501 67.74 27.0501L67.85 26.1901C67.92 25.7001 67.57 25.2401 67.07 25.1801L65.69 25.0001C65.2 24.9301 64.74 25.2801 64.68 25.7801L64.57 26.6401ZM57.16 25.6701C57.09 26.1601 57.44 26.6201 57.94 26.6801L60.45 27.0101C60.94 27.0701 61.4 26.7301 61.46 26.2301L61.57 25.3701C61.64 24.8801 61.29 24.4201 60.79 24.3601L58.28 24.0301C57.79 23.9601 57.33 24.3101 57.27 24.8101L57.16 25.6701Z" fill="#565C5E"/>
<path d="M49.57 19.3201C49.64 17.1101 50.66 15.0001 52.42 13.6601C54.65 11.9701 57.8 11.3301 61.95 12.5601C62.11 12.6101 62.28 12.6001 62.44 12.6201C67.28 13.2601 68.52 17.4901 68.18 19.9001C67.71 23.2001 65.93 23.8701 65.93 23.8701C65.93 23.8701 65.86 23.8501 65.84 23.8501C63.19 23.5001 64.42 17.7101 63.53 17.5901C62.64 17.4701 63.3 23.2501 55.33 22.5601C54.82 22.5201 54.35 22.8801 54.29 23.3901L54.07 25.0901C54.03 25.4001 53.75 25.6201 53.44 25.5801C53.13 25.5401 52.91 25.2501 52.95 24.9401L53.19 23.1501C53.25 22.7101 52.97 22.2601 52.53 22.1801C52.06 22.0901 51.62 22.4201 51.56 22.8901L50.93 28.8101V28.8401C50.46 27.8601 49.46 23.1301 49.58 19.3201H49.57Z" fill="#3E2967"/>
<path d="M91.76 83.9201L47.73 83.8601L47.75 84.6201L55.46 87.6201L90.36 87.6701C91.13 87.6701 91.76 87.0501 91.76 86.2701V83.9101V83.9201Z" fill="#2C3B41"/>
<path d="M89.9 61.05H56.04C55.0017 61.05 54.16 61.8918 54.16 62.93V85.7901C54.16 86.8283 55.0017 87.67 56.04 87.67H89.9C90.9383 87.67 91.78 86.8283 91.78 85.7901V62.93C91.78 61.8918 90.9383 61.05 89.9 61.05Z" fill="#455767"/>
<path d="M72.99 77.2901C74.5695 77.2901 75.85 76.0096 75.85 74.4301C75.85 72.8505 74.5695 71.5701 72.99 71.5701C71.4105 71.5701 70.13 72.8505 70.13 74.4301C70.13 76.0096 71.4105 77.2901 72.99 77.2901Z" fill="#DCE6F1"/>
<path d="M147.53 57.17L132.04 38.54C131.78 39.16 131.34 39.69 130.78 40.05L145.86 58.2C146.29 57.71 146.87 57.35 147.52 57.18L147.53 57.17Z" fill="#455767"/>
<path d="M125.69 37.3001C125.69 37.2201 125.69 37.1401 125.7 37.0601L109.85 44.1801L109.3 43.6401C109.1 43.4401 108.81 43.3601 108.54 43.4401L98.66 46.0601C98.07 46.2201 97.88 46.9401 98.31 47.3701L108.17 57.1401C108.6 57.5701 109.33 57.3701 109.49 56.7901L112.14 47.0001C112.21 46.7301 112.14 46.4401 111.94 46.2401L111.33 45.6401L126.17 38.9801C125.88 38.4901 125.71 37.9201 125.71 37.3201L125.69 37.3001Z" fill="#455767"/>
<path d="M147.29 63.4199L143.77 88.1799L145.69 88.4499L149.24 63.4699C148.96 63.5499 148.66 63.5999 148.35 63.5999C147.98 63.5999 147.62 63.5399 147.29 63.4199Z" fill="#455767"/>
<path d="M131.12 37.2999C131.12 36.1299 130.16 35.1899 128.99 35.1899C128.11 35.1899 127.36 35.7199 127.03 36.4599C126.92 36.7199 126.85 36.9999 126.85 37.2999C126.85 37.7399 126.99 38.1499 127.22 38.4799C127.6 39.0399 128.25 39.4099 128.99 39.4099C129.37 39.4099 129.73 39.3099 130.04 39.1399C130.66 38.7999 131.08 38.1599 131.12 37.4199C131.12 37.3799 131.12 37.3399 131.12 37.2999Z" fill="#455767"/>
<path d="M148.4 58.21C148.4 58.21 148.37 58.21 148.35 58.21C147.64 58.21 147.01 58.56 146.62 59.09C146.37 59.44 146.22 59.86 146.22 60.32C146.22 61.17 146.73 61.9 147.46 62.24C147.73 62.36 148.03 62.44 148.35 62.44C148.74 62.44 149.11 62.33 149.43 62.15C150.06 61.78 150.48 61.11 150.48 60.33C150.48 59.18 149.55 58.25 148.4 58.22V58.21Z" fill="#455767"/>
<path style="mix-blend-mode:darken" d="M97.45 91.7001L108.16 57.1301L98.3 47.3601L27.82 93.0301L97.45 91.7001Z" fill="url(#paint0_linear_14_805)"/>
<path d="M145.09 92.36C149.453 92.36 152.99 90.7796 152.99 88.83C152.99 86.8805 149.453 85.3 145.09 85.3C140.727 85.3 137.19 86.8805 137.19 88.83C137.19 90.7796 140.727 92.36 145.09 92.36Z" fill="#455767"/>
<path d="M42.83 74.9199V71.8899H31.59V85.9399H42.83V83.4199C45.16 83.3999 47.04 81.4999 47.04 79.1699C47.04 76.8399 45.16 74.9399 42.83 74.9199ZM42.83 82.4199V75.9199C44.61 75.9399 46.04 77.3899 46.04 79.1699C46.04 80.9499 44.61 82.3999 42.83 82.4199Z" fill="#2F3C43"/>
<path d="M31.19 75.54H34.63C35.91 75.54 36.94 76.58 36.94 77.85V85.94H28.87V77.85C28.87 76.57 29.91 75.54 31.18 75.54H31.19Z" fill="#FADDDC"/>
</g>
<rect x="124.615" y="4.19507" width="31" height="16" rx="4" fill="#1C1C1C"/>
<path d="M130.233 16.1951H129.09L131.629 9.12476H132.869L135.418 16.1951H134.276L133.631 14.3298H130.877L130.233 16.1951ZM131.185 13.4314H133.318L132.274 10.4138H132.225L131.185 13.4314ZM137.274 9.12476V16.1951H136.229V9.12476H137.274ZM143.094 10.8923L141.17 16.1951H140.047L138.123 10.8923H139.246L140.584 14.9646H140.633L141.971 10.8923H143.094ZM143.943 16.1951V10.8923H144.988V16.1951H143.943ZM143.807 9.45679C143.812 9.11499 144.109 8.84155 144.471 8.84155C144.827 8.84155 145.125 9.11499 145.125 9.45679C145.125 9.79858 144.827 10.0769 144.471 10.072C144.109 10.0769 143.812 9.79858 143.807 9.45679ZM147.303 13.0505V16.1951H146.258V10.8923H147.264V11.7615H147.322C147.571 11.1902 148.094 10.824 148.885 10.824C149.974 10.824 150.696 11.5125 150.692 12.8259V16.1951H149.656V12.9529C149.651 12.1814 149.236 11.7224 148.533 11.7224C147.816 11.7224 147.303 12.2058 147.303 13.0505Z" fill="white"/>
</g>
<defs>
<linearGradient id="paint0_linear_14_805" x1="71.99" y1="76.1901" x2="89.5" y2="45.9301" gradientUnits="userSpaceOnUse">
<stop stop-color="white"/>
<stop offset="1" stop-color="#FFC552"/>
</linearGradient>
<clipPath id="clip0_14_805">
<rect width="160" height="100" fill="white"/>
</clipPath>
<clipPath id="clip1_14_805">
<rect width="160" height="100" fill="white"/>
</clipPath>
</defs>
</svg>
