<svg width="160" height="100" viewBox="0 0 160 100" fill="none" xmlns="http://www.w3.org/2000/svg">
<g clip-path="url(#clip0_14_1780)">
<path d="M159.38 0.610107H0.620117V99.3801H159.38V0.610107Z" fill="#FFDB92"/>
<path d="M160 100H0V0H160V100ZM1.24 98.78H158.76V1.22H1.24V98.77V98.78Z" fill="#EFD9B4"/>
<path d="M159.38 0.610107H0.620117V41.9601H159.38V0.610107Z" fill="white"/>
<path d="M160 42.58H0V0H160V42.58ZM1.24 41.35H158.76V1.22H1.24V41.35Z" fill="white"/>
<path d="M159.38 43.5701H0.620117V48.1301H159.38V43.5701Z" fill="#B2AEA6"/>
<path d="M160 48.74H0V42.96H160V48.74ZM1.24 47.52H158.76V44.18H1.24V47.52Z" fill="#B2AEA6"/>
<path d="M80.8 23.8901V7.1101C80.8 5.5801 79.55 4.3501 78.01 4.3501H50.82C49.28 4.3501 48.03 5.5901 48.03 7.1101V23.6901C48.03 24.4801 48.36 25.2401 48.94 25.7801L57.16 33.4601C57.81 34.0701 58.67 34.4101 59.57 34.4101H89.61C90.58 34.4101 91.01 33.2101 90.26 32.6001L81.62 25.5901C81.1 25.1701 80.8 24.5501 80.8 23.8801V23.8901Z" fill="#455767"/>
<path d="M77.8001 7.17993H50.5801V22.8799H77.8001V7.17993Z" fill="#3888BA"/>
<path d="M64.2399 9.54004H53.6299V10.67H64.2399V9.54004Z" fill="#A0D1EA"/>
<path d="M67.4401 13.5H56.8301V14.63H67.4401V13.5Z" fill="#A0D1EA"/>
<path d="M64.5399 17.1799H53.9299V18.3099H64.5399V17.1799Z" fill="#A0D1EA"/>
<path d="M80.1999 28.05H57.5499L56.1799 27.04H78.8299L80.1999 28.05Z" fill="#506575"/>
<path d="M83.04 31.26H60.39L59.02 30.25H81.67L83.04 31.26Z" fill="#506575"/>
<path d="M105.33 11.1699H89.48V25.3599C89.48 28.1399 91.73 30.3999 94.52 30.3999H96.12C96.9 30.3999 97.53 31.0299 97.53 31.8099V37.1199L105.01 33.0599L105.33 11.1699Z" fill="#FADDDC"/>
<path d="M89.9601 25.6101L89.0401 25.3501C88.2101 25.1201 87.7301 24.2601 87.9601 23.4301L89.2301 18.9201C89.3301 18.5801 89.6801 18.3701 90.0301 18.4701C90.3801 18.5701 90.5801 18.9201 90.4801 19.2701L89.3801 23.1801C89.2501 23.6501 89.5201 24.1401 89.9901 24.2701L90.3101 24.3601C90.6501 24.4601 90.8601 24.8101 90.7601 25.1601C90.6601 25.5101 90.3101 25.7101 89.9601 25.6101Z" fill="#E0B1BB"/>
<path d="M92.1799 18.86C92.1799 19.33 92.5599 19.71 93.0299 19.71C93.4999 19.71 93.8799 19.33 93.8799 18.86C93.8799 18.39 93.4999 18.01 93.0299 18.01C92.5599 18.01 92.1799 18.39 92.1799 18.86Z" fill="#757570"/>
<path d="M103.62 17.97C102.28 15.51 99.73 13.82 96.75 13.73C95.44 13.47 92.87 13.68 91.36 13.32C89.02 12.77 88.38 9.60003 88.95 7.35003C89.44 5.41003 95.74 4.62003 99.8 6.22003C102.18 7.16003 106.01 9.17003 106.76 13.93C107.14 16.35 105.94 19.96 105.94 19.96C105.92 20.02 105.9 20.12 105.88 20.23C104.06 19.25 103.62 17.97 103.62 17.97Z" fill="#3E2967"/>
<path d="M104.8 24.87C104.8 24.87 103.6 22.12 103.6 22.04V18.33C103.6 17.52 102.94 16.86 102.13 16.86C101.32 16.86 100.66 17.52 100.66 18.33V20.1V20.84C100.66 21.15 100.41 21.39 100.11 21.39C99.81 21.39 99.56 21.14 99.56 20.84V18.47C99.56 17.55 99.73 16.4 99.22 15.63C98.78 14.96 98.14 14.04 96.86 13.75C96.83 13.75 96.79 13.74 96.76 13.73C99.74 13.81 102.29 15.51 103.63 17.97C103.63 17.97 104.06 19.25 105.89 20.23C105.64 21.42 105.22 25.05 105.07 25.1L104.81 24.87H104.8Z" fill="#674E99"/>
<path d="M99.3501 4.77997C101.8 5.00997 103.86 6.52997 104.33 8.85997C104.33 8.85997 107.46 10.04 107.46 13.27C107.46 15.72 106.87 17.19 105.7 17.75L104.34 18.45V18.26C104.34 18.17 104.32 18.08 104.3 17.99C103.95 14.34 99.5701 13.54 98.1601 13.38H98.0101C98.0101 13.38 94.0601 13.68 90.4801 14.13C89.2001 14 87.9601 13.6 87.2301 12.11C86.3901 11.01 86.4701 3.59997 99.3301 4.77997H99.3501Z" fill="#3E2967"/>
<path d="M116.89 37.1999C116.55 36.5999 116.06 36.1399 115.5 35.8199C113.72 34.1499 111.32 33.1299 108.67 33.1299H87.4699C84.7699 33.1299 82.2999 34.0799 80.3599 35.6499C79.6599 35.9599 79.0499 36.4899 78.6399 37.1999C78.5899 37.2899 78.4399 37.5599 78.2099 37.9899C77.5599 38.9399 77.0599 39.9999 76.7299 41.1399C73.6999 48.2399 68.8699 47.4899 76.1999 63.0799C76.1999 63.0799 119.34 63.0499 119.34 63.0399C129.02 42.3999 117.4 38.0999 116.88 37.1999H116.89Z" fill="#4D6059"/>
<path d="M114.6 85.2601H81.8899C77.8599 85.2601 74.4499 82.31 73.9099 78.35L70.4099 52.5801C69.7599 47.8001 73.5199 43.55 78.3899 43.55H117.41C122.2 43.55 125.93 47.66 125.41 52.37L122.61 78.14C122.17 82.19 118.72 85.2601 114.61 85.2601H114.6Z" fill="#E5E5E5"/>
<path d="M117.4 50.9101C117.47 50.9101 117.68 50.9101 117.87 51.1201C118.06 51.3301 118.03 51.5301 118.03 51.6001L115.23 77.3701C115.2 77.6901 114.93 77.9201 114.61 77.9201H81.8999C81.5899 77.9201 81.3199 77.6901 81.2799 77.3801L77.7799 51.6101C77.7799 51.5401 77.7399 51.3301 77.9299 51.1201C78.1199 50.9101 78.3299 50.9101 78.3999 50.9101H117.42M117.42 43.5601H78.3999C73.5299 43.5601 69.7699 47.8101 70.4199 52.5901L73.9199 78.3601C74.4599 82.3101 77.8699 85.2701 81.8999 85.2701H114.61C118.72 85.2701 122.17 82.2001 122.61 78.1501L125.41 52.3801C125.92 47.6701 122.19 43.5601 117.41 43.5601H117.42Z" fill="#F7F7F7"/>
<rect x="117" y="4" width="39" height="16" rx="4" fill="#1C1C1C"/>
<path d="M122.799 16H121.656L124.195 8.92969H125.436L127.984 16H126.842L126.197 14.1348H123.443L122.799 16ZM123.751 13.2363H125.885L124.84 10.2188H124.791L123.751 13.2363ZM128.795 16V10.6973H129.801V11.5371H129.859C130.055 10.9707 130.587 10.6143 131.207 10.6191C131.334 10.6143 131.539 10.6289 131.646 10.6387V11.6348C131.559 11.6152 131.314 11.5713 131.1 11.5762C130.377 11.5713 129.84 12.0742 129.84 12.7676V16H128.795ZM133.473 12.8555V16H132.428V10.6973H133.434V11.5664H133.492C133.741 10.9951 134.264 10.6289 135.055 10.6289C136.144 10.6289 136.866 11.3174 136.861 12.6309V16H135.826V12.7578C135.821 11.9863 135.406 11.5273 134.703 11.5273C133.985 11.5273 133.473 12.0107 133.473 12.8555ZM140.377 16.1074C138.873 16.1074 137.892 15.0137 137.896 13.373C137.892 11.7227 138.873 10.6289 140.377 10.6289C141.871 10.6289 142.848 11.7227 142.848 13.373C142.848 15.0137 141.871 16.1074 140.377 16.1074ZM138.941 13.373C138.941 14.3838 139.405 15.2383 140.377 15.2383C141.334 15.2383 141.793 14.3838 141.793 13.373C141.793 12.3574 141.334 11.4932 140.377 11.4883C139.405 11.4932 138.941 12.3574 138.941 13.373ZM144.918 8.92969V16H143.873V8.92969H144.918ZM148.17 16.1074C146.891 16.1025 145.953 15.0723 145.953 13.3633C145.953 11.6348 146.905 10.6289 148.18 10.6289C149.166 10.6289 149.522 11.2246 149.713 11.5566H149.762V8.92969H150.807V16H149.791V15.1699H149.713C149.518 15.5166 149.137 16.1025 148.17 16.1074ZM147.018 13.3438C147.013 14.4082 147.491 15.2139 148.404 15.2188C149.293 15.2139 149.791 14.457 149.791 13.3438C149.791 12.2402 149.303 11.5127 148.404 11.5176C147.481 11.5127 147.013 12.2988 147.018 13.3438Z" fill="white"/>
</g>
<defs>
<clipPath id="clip0_14_1780">
<rect width="160" height="100" fill="white"/>
</clipPath>
</defs>
</svg>
