<svg width="160" height="100" viewBox="0 0 160 100" fill="none" xmlns="http://www.w3.org/2000/svg">
<g clip-path="url(#clip0_14_1723)">
<path d="M159.25 0.610107H0.619995V99.3801H159.25V0.610107Z" fill="#FFDB92"/>
<path d="M159.86 100H0V0H159.86V100ZM1.24 98.78H158.63V1.22H1.24V98.77V98.78Z" fill="#EFD9B4"/>
<path d="M159.39 82.55H0.76001V99.39H159.39V82.55Z" fill="white"/>
<path d="M160 99.9999H0.140015V81.9399H160V99.9999ZM1.37001 98.7799H158.76V83.1699H1.37001V98.7799Z" fill="white"/>
<path d="M72.65 43.8901C72.31 43.2901 71.82 42.8301 71.26 42.5101C69.48 40.8401 67.08 39.8201 64.44 39.8201H43.25C40.55 39.8201 38.08 40.7701 36.15 42.3401C35.45 42.6501 34.84 43.1801 34.43 43.8901C34.38 43.9801 34.23 44.2501 34 44.6801C33.35 45.6301 32.85 46.6901 32.52 47.8301C29.49 54.9301 24.66 70.5201 31.99 86.1201L39.16 83.6701C38.87 83.0801 38.6 82.4801 38.35 81.8901H68.73C68.48 82.4901 68.21 83.0801 67.92 83.6701L75.09 86.1201C84.79 65.4701 73.17 44.8001 72.65 43.9001V43.8901Z" fill="#4D6059"/>
<path d="M31.45 84.9C30.45 83.09 31.12 80.83 32.95 79.84C34.45 79.03 36.26 79.33 37.41 80.47C37.66 80.72 37.88 81 38.06 81.33C38.49 82.11 38.89 82.9 39.26 83.68L32.09 86.13C31.89 85.72 31.68 85.31 31.45 84.91V84.9Z" fill="#FADDDC"/>
<path d="M75.6401 85.0501C76.6401 83.2401 75.9701 80.9801 74.1401 79.9901C72.6401 79.1801 70.8301 79.4801 69.6801 80.6201C69.4301 80.8701 69.2101 81.1501 69.0301 81.4801C68.6001 82.2601 68.2001 83.0501 67.8301 83.8301L75.0001 86.2801C75.2001 85.8701 75.4101 85.4601 75.6401 85.0601V85.0501Z" fill="#FADDDC"/>
<path d="M55.08 47.48H54.45V79.36H55.08V47.48Z" fill="#2E423A"/>
<path d="M60.4299 58.1599H70.5199V68.3499C70.5199 69.3399 69.7099 70.1499 68.7199 70.1499H62.2299C61.2399 70.1499 60.4299 69.3399 60.4299 68.3499V58.1599Z" fill="#2E423A"/>
<path d="M47.0701 39.8701L54.0901 49.0701L47.1501 51.0701L47.0701 39.8701Z" fill="#2E423A"/>
<path d="M57.4001 39.8301L61.4001 50.5101L54.0901 49.0701L57.4001 39.8301Z" fill="#2E423A"/>
<path d="M48.6299 20.3601H64.1499V32.4801C64.1499 35.2001 61.9399 37.4101 59.2199 37.4101H57.6499C56.8899 37.4101 56.2699 38.7601 56.2699 39.5301V39.9901C56.2699 42.0901 54.5699 43.7801 52.4799 43.7801C50.3899 43.7801 48.6899 42.0901 48.6899 40.0001L48.6399 20.3601H48.6299Z" fill="#FADDDC"/>
<path d="M59.17 32.9299H60.1101C60.9501 32.9299 61.6301 32.2499 61.6301 31.4099V26.8199C61.6301 26.4699 61.35 26.1899 61 26.1899C60.65 26.1899 60.37 26.4699 60.37 26.8199V30.7999C60.37 31.2799 59.98 31.6599 59.51 31.6599H59.18C58.83 31.6599 58.55 31.9399 58.55 32.2899C58.55 32.6399 58.83 32.9199 59.18 32.9199L59.17 32.9299Z" fill="#E0B1BB"/>
<path d="M55.6699 26.9701C55.6699 27.4401 56.0499 27.8201 56.5199 27.8201C56.9899 27.8201 57.3699 27.4401 57.3699 26.9701C57.3699 26.5001 56.9899 26.1201 56.5199 26.1201C56.0499 26.1201 55.6699 26.5001 55.6699 26.9701Z" fill="#757570"/>
<path d="M55.2101 22.29C55.2101 22.29 55.0701 22.29 54.8401 22.32C54.9601 22.3 55.0801 22.29 55.2101 22.29Z" fill="#3E2967"/>
<path d="M48.6699 26.9101C48.7899 26.4701 49.1899 26.1401 49.6699 26.1401H49.7999C50.3699 26.1401 50.8399 26.6001 50.8399 27.1801V28.0501L50.8599 28.0201V28.7501C50.8599 29.0501 51.1099 29.3001 51.4099 29.3001C51.7099 29.3001 51.9599 29.0501 51.9599 28.7501V26.3901C51.9599 25.4701 52.1899 24.5601 52.6999 23.7901C53.1399 23.1301 53.7999 22.4801 54.7699 22.3201C53.3599 22.4801 49.0299 23.2801 48.6799 26.9001L48.6699 26.9101Z" fill="#674E99"/>
<path d="M53.6 13.7899C51.16 14.0099 49.12 15.5299 48.65 17.8399C48.65 17.8399 45.54 19.0099 45.54 22.2199C45.54 24.6599 46.12 26.1099 47.29 26.6699L48.35 31.3699C48.35 31.5799 48.48 31.7099 48.64 31.7699V27.1799C48.64 27.0899 48.66 26.9999 48.68 26.9099C49.03 23.2899 53.38 22.4899 54.78 22.3299H54.92C54.92 22.3299 58.84 22.6299 62.4 23.0699C63.67 22.9399 64.9 22.5499 65.63 21.0699C66.47 19.9799 66.38 12.6199 53.61 13.7899H53.6Z" fill="#3E2967"/>
<path d="M57.01 39.8L53.74 49L46.72 39.8H57.01Z" fill="#FADDDC"/>
<path d="M39.4299 63.21H67.6699C68.9099 63.21 69.9199 64.22 69.9199 65.46V86.45H37.1699V65.46C37.1699 64.22 38.1799 63.21 39.4199 63.21H39.4299Z" fill="#F7F7F7"/>
<path d="M53.8101 78.0399C55.3123 78.0399 56.5301 76.8356 56.5301 75.3499C56.5301 73.8643 55.3123 72.6599 53.8101 72.6599C52.3079 72.6599 51.0901 73.8643 51.0901 75.3499C51.0901 76.8356 52.3079 78.0399 53.8101 78.0399Z" fill="#CED5D8"/>
<path d="M147.53 57.17L132.04 38.54C131.78 39.16 131.34 39.69 130.78 40.05L145.86 58.2C146.29 57.71 146.87 57.35 147.52 57.18L147.53 57.17Z" fill="#455767"/>
<path d="M125.69 37.3001C125.69 37.2201 125.69 37.1401 125.7 37.0601L109.85 44.1801L109.3 43.6401C109.1 43.4401 108.81 43.3601 108.54 43.4401L98.66 46.0601C98.07 46.2201 97.88 46.9401 98.31 47.3701L108.17 57.1401C108.6 57.5701 109.33 57.3701 109.49 56.7901L112.14 47.0001C112.21 46.7301 112.14 46.4401 111.94 46.2401L111.33 45.6401L126.17 38.9801C125.88 38.4901 125.71 37.9201 125.71 37.3201L125.69 37.3001Z" fill="#455767"/>
<path d="M147.29 63.4199L143.77 88.1799L145.69 88.4499L149.24 63.4699C148.96 63.5499 148.66 63.5999 148.35 63.5999C147.98 63.5999 147.62 63.5399 147.29 63.4199Z" fill="#455767"/>
<path d="M131.12 37.2999C131.12 36.1299 130.16 35.1899 128.99 35.1899C128.11 35.1899 127.36 35.7199 127.03 36.4599C126.92 36.7199 126.85 36.9999 126.85 37.2999C126.85 37.7399 126.99 38.1499 127.22 38.4799C127.6 39.0399 128.25 39.4099 128.99 39.4099C129.37 39.4099 129.73 39.3099 130.04 39.1399C130.66 38.7999 131.08 38.1599 131.12 37.4199C131.12 37.3799 131.12 37.3399 131.12 37.2999Z" fill="#455767"/>
<path d="M148.4 58.21C148.4 58.21 148.37 58.21 148.35 58.21C147.64 58.21 147.01 58.56 146.62 59.09C146.37 59.44 146.22 59.86 146.22 60.32C146.22 61.17 146.73 61.9 147.46 62.24C147.73 62.36 148.03 62.44 148.35 62.44C148.74 62.44 149.11 62.33 149.43 62.15C150.06 61.78 150.48 61.11 150.48 60.33C150.48 59.18 149.55 58.25 148.4 58.22V58.21Z" fill="#455767"/>
<path style="mix-blend-mode:darken" d="M97.4499 91.7001L108.16 57.1301L98.2999 47.3601L27.8199 93.0301L97.4499 91.7001Z" fill="url(#paint0_linear_14_1723)"/>
<path d="M145.09 92.36C149.453 92.36 152.99 90.7796 152.99 88.83C152.99 86.8805 149.453 85.3 145.09 85.3C140.727 85.3 137.19 86.8805 137.19 88.83C137.19 90.7796 140.727 92.36 145.09 92.36Z" fill="#455767"/>
<rect x="117" y="4" width="39" height="16" rx="4" fill="#1C1C1C"/>
<path d="M122.799 16H121.656L124.195 8.92969H125.436L127.984 16H126.842L126.197 14.1348H123.443L122.799 16ZM123.751 13.2363H125.885L124.84 10.2188H124.791L123.751 13.2363ZM128.795 16V10.6973H129.801V11.5371H129.859C130.055 10.9707 130.587 10.6143 131.207 10.6191C131.334 10.6143 131.539 10.6289 131.646 10.6387V11.6348C131.559 11.6152 131.314 11.5713 131.1 11.5762C130.377 11.5713 129.84 12.0742 129.84 12.7676V16H128.795ZM133.473 12.8555V16H132.428V10.6973H133.434V11.5664H133.492C133.741 10.9951 134.264 10.6289 135.055 10.6289C136.144 10.6289 136.866 11.3174 136.861 12.6309V16H135.826V12.7578C135.821 11.9863 135.406 11.5273 134.703 11.5273C133.985 11.5273 133.473 12.0107 133.473 12.8555ZM140.377 16.1074C138.873 16.1074 137.892 15.0137 137.896 13.373C137.892 11.7227 138.873 10.6289 140.377 10.6289C141.871 10.6289 142.848 11.7227 142.848 13.373C142.848 15.0137 141.871 16.1074 140.377 16.1074ZM138.941 13.373C138.941 14.3838 139.405 15.2383 140.377 15.2383C141.334 15.2383 141.793 14.3838 141.793 13.373C141.793 12.3574 141.334 11.4932 140.377 11.4883C139.405 11.4932 138.941 12.3574 138.941 13.373ZM144.918 8.92969V16H143.873V8.92969H144.918ZM148.17 16.1074C146.891 16.1025 145.953 15.0723 145.953 13.3633C145.953 11.6348 146.905 10.6289 148.18 10.6289C149.166 10.6289 149.522 11.2246 149.713 11.5566H149.762V8.92969H150.807V16H149.791V15.1699H149.713C149.518 15.5166 149.137 16.1025 148.17 16.1074ZM147.018 13.3438C147.013 14.4082 147.491 15.2139 148.404 15.2188C149.293 15.2139 149.791 14.457 149.791 13.3438C149.791 12.2402 149.303 11.5127 148.404 11.5176C147.481 11.5127 147.013 12.2988 147.018 13.3438Z" fill="white"/>
</g>
<defs>
<linearGradient id="paint0_linear_14_1723" x1="71.9899" y1="76.1901" x2="89.4999" y2="45.9301" gradientUnits="userSpaceOnUse">
<stop stop-color="white"/>
<stop offset="1" stop-color="#FFC552"/>
</linearGradient>
<clipPath id="clip0_14_1723">
<rect width="160" height="100" fill="white"/>
</clipPath>
</defs>
</svg>
