<svg width="160" height="100" viewBox="0 0 160 100" fill="none" xmlns="http://www.w3.org/2000/svg">
<g clip-path="url(#clip0_14_1780)">
<g clip-path="url(#clip1_14_1780)">
<path d="M159.38 0.616943H0.619995V99.3729H159.38V0.616943Z" fill="#FFE45F"/>
<path d="M160 99.9929H0V0.00708008H160V99.9929ZM1.24 98.7731H158.76V1.22691H1.24V98.7631V98.7731Z" fill="#EFD9B4"/>
<path d="M159.38 0.616943H0.619995V41.9611H159.38V0.616943Z" fill="white"/>
<path d="M160 42.581H0V0.00708008H160V42.581ZM1.24 41.3512H158.76V1.22691H1.24V41.3512Z" fill="white"/>
<path d="M159.38 43.5708H0.619995V48.1302H159.38V43.5708Z" fill="#B2AEA6"/>
<path d="M160 48.7401H0V42.9609H160V48.7401ZM1.24 47.5203H158.76V44.1808H1.24V47.5203Z" fill="#B2AEA6"/>
<path d="M80.8 23.8937V7.11605C80.8 5.58627 79.55 4.35645 78.01 4.35645H50.82C49.28 4.35645 48.03 5.59627 48.03 7.11605V23.6937C48.03 24.4836 48.36 25.2435 48.94 25.7834L57.16 33.4623C57.81 34.0722 58.67 34.4122 59.57 34.4122H89.61C90.58 34.4122 91.01 33.2124 90.26 32.6024L81.62 25.5934C81.1 25.1735 80.8 24.5536 80.8 23.8837V23.8937Z" fill="#455767"/>
<path d="M77.8 7.18604H50.58V22.8838H77.8V7.18604Z" fill="#3888BA"/>
<path d="M64.24 9.54565H53.63V10.6755H64.24V9.54565Z" fill="#A0D1EA"/>
<path d="M67.44 13.5051H56.83V14.635H67.44V13.5051Z" fill="#A0D1EA"/>
<path d="M64.5401 17.1846H53.9301V18.3144H64.5401V17.1846Z" fill="#A0D1EA"/>
<path d="M80.2001 28.0531H57.5501L56.1801 27.0432H78.8301L80.2001 28.0531Z" fill="#506575"/>
<path d="M83.04 31.2625H60.39L59.02 30.2527H81.67L83.04 31.2625Z" fill="#506575"/>
<path d="M105.33 11.1755H89.48V25.3635C89.48 28.1431 91.73 30.4028 94.52 30.4028H96.12C96.9 30.4028 97.53 31.0327 97.53 31.8126V37.1219L105.01 33.0624L105.33 11.1755Z" fill="#FADDDC"/>
<path d="M89.96 25.6135L89.04 25.3535C88.21 25.1235 87.73 24.2636 87.96 23.4338L89.23 18.9244C89.33 18.5845 89.68 18.3745 90.03 18.4745C90.38 18.5745 90.58 18.9244 90.48 19.2744L89.38 23.1838C89.25 23.6537 89.52 24.1437 89.99 24.2736L90.31 24.3636C90.65 24.4636 90.86 24.8136 90.76 25.1635C90.66 25.5135 90.31 25.7134 89.96 25.6135Z" fill="#E0B1BB"/>
<path d="M92.1801 18.8645C92.1801 19.3345 92.5601 19.7144 93.0301 19.7144C93.5001 19.7144 93.8801 19.3345 93.8801 18.8645C93.8801 18.3946 93.5001 18.0146 93.0301 18.0146C92.5601 18.0146 92.1801 18.3946 92.1801 18.8645Z" fill="#757570"/>
<path d="M103.62 17.9746C102.28 15.5149 99.73 13.8252 96.75 13.7352C95.44 13.4752 92.87 13.6852 91.36 13.3253C89.02 12.7753 88.38 9.60578 88.95 7.3561C89.44 5.41637 95.74 4.62648 99.8 6.22626C102.18 7.16612 106.01 9.17584 106.76 13.9352C107.14 16.3548 105.94 19.9643 105.94 19.9643C105.92 20.0243 105.9 20.1243 105.88 20.2343C104.06 19.2544 103.62 17.9746 103.62 17.9746Z" fill="#3E2967"/>
<path d="M104.8 24.8735C104.8 24.8735 103.6 22.1239 103.6 22.0439V18.3345C103.6 17.5246 102.94 16.8647 102.13 16.8647C101.32 16.8647 100.66 17.5246 100.66 18.3345V20.1042V20.8441C100.66 21.1541 100.41 21.394 100.11 21.394C99.81 21.394 99.56 21.1441 99.56 20.8441V18.4744C99.56 17.5546 99.73 16.4047 99.22 15.6348C98.78 14.9649 98.14 14.0451 96.86 13.7551C96.83 13.7551 96.79 13.7451 96.76 13.7351C99.74 13.8151 102.29 15.5149 103.63 17.9745C103.63 17.9745 104.06 19.2543 105.89 20.2342C105.64 21.424 105.22 25.0535 105.07 25.1035L104.81 24.8735H104.8Z" fill="#674E99"/>
<path d="M99.35 4.7863C101.8 5.01626 103.86 6.53605 104.33 8.86572C104.33 8.86572 107.46 10.0456 107.46 13.2751C107.46 15.7247 106.87 17.1945 105.7 17.7545L104.34 18.4544V18.2644C104.34 18.1744 104.32 18.0844 104.3 17.9944C103.95 14.3449 99.57 13.5451 98.16 13.3851H98.01C98.01 13.3851 94.06 13.685 90.48 14.135C89.2 14.005 87.96 13.605 87.23 12.1153C86.39 11.0154 86.47 3.60646 99.33 4.7863H99.35Z" fill="#3E2967"/>
<path d="M86.0601 78.8559L88.1901 90.9942C88.4901 92.6939 89.9701 93.9338 91.6901 93.9338C93.5901 93.9338 95.1501 92.444 95.2401 90.5542L95.8501 77.926L86.0601 78.8559Z" fill="#3E2967"/>
<path d="M102.07 78.546L101.7 90.7143C101.65 92.504 103.03 94.0038 104.82 94.0938C106.39 94.1738 107.79 93.1439 108.18 91.6241L111.71 77.7661L102.07 78.546Z" fill="#3E2967"/>
<path d="M115.85 90.3644L103.75 87.7448L110.98 86.5249L109.62 85.1651L100.26 86.4249V79.3459H97.17V86.4549L87.47 85.1051L85.71 86.255L93.72 87.8247L80.9 90.4544L80.76 92.0741L97.09 90.0444L97.66 95.5137L99.5 95.5437L99.73 90.1144L116.06 92.0141L115.85 90.3644Z" fill="#8C8C8C"/>
<path d="M82.1201 94.6437C83.0534 94.6437 83.8101 93.8872 83.8101 92.9539C83.8101 92.0207 83.0534 91.2642 82.1201 91.2642C81.1867 91.2642 80.4301 92.0207 80.4301 92.9539C80.4301 93.8872 81.1867 94.6437 82.1201 94.6437Z" fill="#8C8C8C"/>
<path d="M98.5101 98.713C99.4434 98.713 100.2 97.9565 100.2 97.0233C100.2 96.09 99.4434 95.3335 98.5101 95.3335C97.5767 95.3335 96.8201 96.09 96.8201 97.0233C96.8201 97.9565 97.5767 98.713 98.5101 98.713Z" fill="#8C8C8C"/>
<path d="M115.31 95.1935C116.243 95.1935 117 94.437 117 93.5037C117 92.5705 116.243 91.814 115.31 91.814C114.377 91.814 113.62 92.5705 113.62 93.5037C113.62 94.437 114.377 95.1935 115.31 95.1935Z" fill="#8C8C8C"/>
<path d="M109.62 89.5643C110.553 89.5643 111.31 88.8078 111.31 87.8746C111.31 86.9413 110.553 86.1848 109.62 86.1848C108.687 86.1848 107.93 86.9413 107.93 87.8746C107.93 88.8078 108.687 89.5643 109.62 89.5643Z" fill="#8C8C8C"/>
<path d="M86.73 89.4345C87.6634 89.4345 88.42 88.6779 88.42 87.7447C88.42 86.8115 87.6634 86.0549 86.73 86.0549C85.7967 86.0549 85.04 86.8115 85.04 87.7447C85.04 88.6779 85.7967 89.4345 86.73 89.4345Z" fill="#8C8C8C"/>
<path d="M77.24 35.3521C76.94 33.2024 74.95 31.6926 72.8 31.9926C71.03 32.2425 69.7 33.6223 69.45 35.3021C69.4 35.6621 69.39 36.042 69.45 36.4319C69.58 37.3618 69.74 38.2817 69.92 39.1716L77.48 36.7819C77.39 36.312 77.31 35.832 77.25 35.3521H77.24Z" fill="#FADDDC"/>
<path d="M91.33 33.9024C91.03 31.7527 89.04 30.2429 86.89 30.5429C85.12 30.7928 83.79 32.1726 83.54 33.8524C83.49 34.2123 83.48 34.5923 83.54 34.9822C83.67 35.9121 83.83 36.832 84.01 37.7218L91.57 35.3322C91.48 34.8623 91.4 34.3823 91.34 33.9024H91.33Z" fill="#FADDDC"/>
<path d="M103.67 71.4271C104.55 69.4473 103.65 67.1177 101.67 66.2378C101.46 66.1478 81.14 56.8591 77.48 36.782L69.92 39.1716C74.74 62.7083 97.48 72.9968 98.49 73.4368C100.48 74.3167 102.79 73.4168 103.67 71.4271Z" fill="#4D6059"/>
<path d="M110.48 32.9824H89.28C86.58 32.9824 78.79 33.9223 75.57 37.6318C72.77 40.8613 72.37 45.7406 72.75 57.419C72.85 60.5385 75.42 63.0282 78.54 63.0182C91.23 62.9882 121.15 62.9082 121.15 62.8882C124.59 51.2798 124.53 46.8605 122.61 40.9513C120.47 34.3822 111.92 32.9824 110.48 32.9824Z" fill="#4D6059"/>
<path d="M115.25 81.4856H84.78C81.03 81.4856 77.85 78.536 77.35 74.5766L74.09 48.8102C73.48 44.0309 76.98 39.7815 81.52 39.7815H117.86C122.32 39.7815 125.79 43.8909 125.31 48.6002L122.7 74.3666C122.29 78.416 119.08 81.4856 115.25 81.4856Z" fill="#E5E5E5"/>
<path d="M117.86 47.1305C117.92 47.1305 118.12 47.1305 118.29 47.3404C118.46 47.5504 118.44 47.7504 118.44 47.8204L115.83 73.5867C115.8 73.9067 115.55 74.1366 115.25 74.1366H84.78C84.49 74.1366 84.24 73.9067 84.2 73.5967L80.94 47.8304C80.94 47.7604 80.9 47.5504 81.08 47.3404C81.25 47.1305 81.45 47.1305 81.52 47.1305H117.86ZM117.86 39.7815H81.52C76.98 39.7815 73.48 44.0309 74.09 48.8102L77.35 74.5766C77.85 78.526 81.03 81.4856 84.78 81.4856H115.25C119.08 81.4856 122.29 78.416 122.7 74.3666L125.31 48.6002C125.79 43.8909 122.31 39.7815 117.86 39.7815Z" fill="#F7F7F7"/>
<path d="M83.09 67.1575H116.49L115.74 74.4064L84.12 74.4264L83.09 67.1575Z" fill="#B2AEA6"/>
<path d="M46.93 55.6191H4.76001C4.48387 55.6191 4.26001 55.843 4.26001 56.1191V95.5635C4.26001 95.8396 4.48387 96.0634 4.76001 96.0634H46.93C47.2062 96.0634 47.43 95.8396 47.43 95.5635V56.1191C47.43 55.843 47.2062 55.6191 46.93 55.6191Z" fill="#E2E2E2"/>
<path d="M44.54 57.959H7.14001C6.86387 57.959 6.64001 58.1828 6.64001 58.4589V65.7679C6.64001 66.044 6.86387 66.2678 7.14001 66.2678H44.54C44.8162 66.2678 45.04 66.044 45.04 65.7679V58.4589C45.04 58.1828 44.8162 57.959 44.54 57.959Z" fill="white"/>
<path d="M44.54 67.5076H7.14001C6.86387 67.5076 6.64001 67.7314 6.64001 68.0075V75.3165C6.64001 75.5926 6.86387 75.8164 7.14001 75.8164H44.54C44.8162 75.8164 45.04 75.5926 45.04 75.3165V68.0075C45.04 67.7314 44.8162 67.5076 44.54 67.5076Z" fill="white"/>
<path d="M44.54 77.0662H7.14001C6.86387 77.0662 6.64001 77.29 6.64001 77.5661V93.2739C6.64001 93.55 6.86387 93.7738 7.14001 93.7738H44.54C44.8162 93.7738 45.04 93.55 45.04 93.2739V77.5661C45.04 77.29 44.8162 77.0662 44.54 77.0662Z" fill="white"/>
<path d="M30.32 59.8787H20.88C20.3333 59.8787 19.89 60.3218 19.89 60.8685C19.89 61.4152 20.3333 61.8584 20.88 61.8584H30.32C30.8668 61.8584 31.31 61.4152 31.31 60.8685C31.31 60.3218 30.8668 59.8787 30.32 59.8787Z" fill="#B2AEA6"/>
<path d="M30.32 69.6572H20.88C20.3333 69.6572 19.89 70.1004 19.89 70.6471C19.89 71.1938 20.3333 71.6369 20.88 71.6369H30.32C30.8668 71.6369 31.31 71.1938 31.31 70.6471C31.31 70.1004 30.8668 69.6572 30.32 69.6572Z" fill="#B2AEA6"/>
<path d="M30.32 79.5359H20.88C20.3333 79.5359 19.89 79.9791 19.89 80.5257C19.89 81.0724 20.3333 81.5156 20.88 81.5156H30.32C30.8668 81.5156 31.31 81.0724 31.31 80.5257C31.31 79.9791 30.8668 79.5359 30.32 79.5359Z" fill="#B2AEA6"/>
<path d="M46.93 55.6193L42.79 52.0498H7.98001L4.76001 55.6193C4.76001 55.6193 47.05 55.7393 46.93 55.6193Z" fill="#C1BFBC"/>
</g>
<rect x="117" y="4" width="39" height="16" rx="4" fill="#1C1C1C"/>
<path d="M122.799 16H121.656L124.195 8.92969H125.436L127.984 16H126.842L126.197 14.1348H123.443L122.799 16ZM123.751 13.2363H125.885L124.84 10.2188H124.791L123.751 13.2363ZM128.795 16V10.6973H129.801V11.5371H129.859C130.055 10.9707 130.587 10.6143 131.207 10.6191C131.334 10.6143 131.539 10.6289 131.646 10.6387V11.6348C131.559 11.6152 131.314 11.5713 131.1 11.5762C130.377 11.5713 129.84 12.0742 129.84 12.7676V16H128.795ZM133.473 12.8555V16H132.428V10.6973H133.434V11.5664H133.492C133.741 10.9951 134.264 10.6289 135.055 10.6289C136.144 10.6289 136.866 11.3174 136.861 12.6309V16H135.826V12.7578C135.821 11.9863 135.406 11.5273 134.703 11.5273C133.985 11.5273 133.473 12.0107 133.473 12.8555ZM140.377 16.1074C138.873 16.1074 137.892 15.0137 137.896 13.373C137.892 11.7227 138.873 10.6289 140.377 10.6289C141.871 10.6289 142.848 11.7227 142.848 13.373C142.848 15.0137 141.871 16.1074 140.377 16.1074ZM138.941 13.373C138.941 14.3838 139.405 15.2383 140.377 15.2383C141.334 15.2383 141.793 14.3838 141.793 13.373C141.793 12.3574 141.334 11.4932 140.377 11.4883C139.405 11.4932 138.941 12.3574 138.941 13.373ZM144.918 8.92969V16H143.873V8.92969H144.918ZM148.17 16.1074C146.891 16.1025 145.953 15.0723 145.953 13.3633C145.953 11.6348 146.905 10.6289 148.18 10.6289C149.166 10.6289 149.522 11.2246 149.713 11.5566H149.762V8.92969H150.807V16H149.791V15.1699H149.713C149.518 15.5166 149.137 16.1025 148.17 16.1074ZM147.018 13.3438C147.013 14.4082 147.491 15.2139 148.404 15.2188C149.293 15.2139 149.791 14.457 149.791 13.3438C149.791 12.2402 149.303 11.5127 148.404 11.5176C147.481 11.5127 147.013 12.2988 147.018 13.3438Z" fill="white"/>
</g>
<defs>
<clipPath id="clip0_14_1780">
<rect width="160" height="100" fill="white"/>
</clipPath>
<clipPath id="clip1_14_1780">
<rect width="160" height="100" fill="white"/>
</clipPath>
</defs>
</svg>
