<svg width="160" height="100" viewBox="0 0 160 100" fill="none" xmlns="http://www.w3.org/2000/svg">
<g clip-path="url(#clip0_14_1723)">
<g clip-path="url(#clip1_14_1723)">
<path d="M159.228 0.616943H0.619995V99.3729H159.228V0.616943Z" fill="#FFE45F"/>
<path d="M159.837 99.9929H0V0.00708008H159.837V99.9929ZM1.23982 98.7731H158.607V1.22691H1.23982V98.7631V98.7731Z" fill="#EFD9B4"/>
<path d="M159.368 82.5454H0.76001V99.383H159.368V82.5454Z" fill="white"/>
<path d="M159.977 99.993H0.140015V81.9355H159.977V99.993ZM1.36984 98.7732H158.738V83.1654H1.36984V98.7732Z" fill="white"/>
<path d="M72.6398 43.891C72.2998 43.291 71.8099 42.8311 71.25 42.5112C69.4702 40.8414 67.0705 39.8215 64.4309 39.8215H43.2439C40.5443 39.8215 38.0747 40.7714 36.1449 42.3412C35.445 42.6511 34.8351 43.1811 34.4252 43.891C34.3752 43.9809 34.2252 44.2509 33.9952 44.6808C33.3453 45.6307 32.8454 46.6906 32.5154 47.8304C29.4859 54.9294 24.6566 70.5172 31.9855 86.115L39.1545 83.6653C38.8645 83.0754 38.5946 82.4755 38.3446 81.8856H68.7203C68.4704 82.4855 68.2004 83.0754 67.9104 83.6653L75.0794 86.115C84.778 65.4679 73.1597 44.8008 72.6398 43.901V43.891Z" fill="#4D6059"/>
<path d="M31.4456 84.895C30.4457 83.0853 31.1156 80.8256 32.9454 79.8357C34.4451 79.0259 36.2549 79.3258 37.4047 80.4657C37.6547 80.7156 37.8747 80.9956 38.0546 81.3255C38.4846 82.1054 38.8845 82.8953 39.2545 83.6752L32.0855 86.1248C31.8855 85.7149 31.6755 85.305 31.4456 84.905V84.895Z" fill="#FADDDC"/>
<path d="M75.6293 85.0449C76.6292 83.2352 75.9593 80.9755 74.1295 79.9856C72.6298 79.1758 70.82 79.4757 69.6702 80.6156C69.4202 80.8655 69.2002 81.1455 69.0203 81.4754C68.5903 82.2553 68.1904 83.0452 67.8204 83.8251L74.9894 86.2747C75.1894 85.8648 75.3994 85.4549 75.6293 85.0549V85.0449Z" fill="#FADDDC"/>
<path d="M55.0723 47.4805H54.4423V79.356H55.0723V47.4805Z" fill="#2E423A"/>
<path d="M60.4214 58.1589H70.51V68.3475C70.51 69.3373 69.7001 70.1472 68.7102 70.1472H62.2211C61.2313 70.1472 60.4214 69.3373 60.4214 68.3475V58.1589Z" fill="#2E423A"/>
<path d="M47.0634 39.8713L54.0834 49.07L47.1434 51.0698L47.0634 39.8713Z" fill="#2E423A"/>
<path d="M57.3918 39.8315L61.3912 50.51L54.0823 49.0702L57.3918 39.8315Z" fill="#2E423A"/>
<path d="M48.623 20.3643H64.1408V32.4825C64.1408 35.2022 61.9312 37.4118 59.2115 37.4118H57.6418C56.8819 37.4118 56.262 38.7616 56.262 39.5315V39.9915C56.262 42.0912 54.5622 43.7809 52.4725 43.7809C50.3828 43.7809 48.683 42.0912 48.683 40.0015L48.633 20.3643H48.623Z" fill="#FADDDC"/>
<path d="M59.1617 32.9324H60.1017C60.9417 32.9324 61.6217 32.2525 61.6217 31.4126V26.8233C61.6217 26.4733 61.3417 26.1934 60.9917 26.1934C60.6417 26.1934 60.3617 26.4733 60.3617 26.8233V30.8027C60.3617 31.2826 59.9717 31.6626 59.5017 31.6626H59.1717C58.8217 31.6626 58.5417 31.9425 58.5417 32.2925C58.5417 32.6424 58.8217 32.9224 59.1717 32.9224L59.1617 32.9324Z" fill="#E0B1BB"/>
<path d="M55.6621 26.9732C55.6621 27.4431 56.0421 27.823 56.5121 27.823C56.9821 27.823 57.3621 27.4431 57.3621 26.9732C57.3621 26.5032 56.9821 26.1233 56.5121 26.1233C56.0421 26.1233 55.6621 26.5032 55.6621 26.9732Z" fill="#757570"/>
<path d="M55.2023 22.2939C55.2023 22.2939 55.0623 22.2939 54.8323 22.3239C54.9523 22.3039 55.0723 22.2939 55.2023 22.2939Z" fill="#3E2967"/>
<path d="M48.6631 26.9133C48.7831 26.4734 49.1831 26.1434 49.6631 26.1434H49.7931C50.3631 26.1434 50.8331 26.6034 50.8331 27.1833V28.0532L50.8531 28.0232V28.7531C50.8531 29.053 51.1031 29.303 51.4031 29.303C51.7031 29.303 51.9531 29.053 51.9531 28.7531V26.3934C51.9531 25.4735 52.1831 24.5637 52.6931 23.7938C53.1331 23.1339 53.7931 22.484 54.7631 22.324C53.3531 22.484 49.0231 23.2838 48.6731 26.9033L48.6631 26.9133Z" fill="#674E99"/>
<path d="M53.5924 13.795C51.1528 14.015 49.1131 15.5348 48.6431 17.8445C48.6431 17.8445 45.5336 19.0143 45.5336 22.2238C45.5336 24.6635 46.1135 26.1133 47.2833 26.6732L48.3432 31.3725C48.3432 31.5825 48.4732 31.7125 48.6331 31.7725V27.1831C48.6331 27.0932 48.6531 27.0032 48.6731 26.9132C49.0231 23.2937 53.3725 22.4938 54.7723 22.3338H54.9122C54.9122 22.3338 58.8317 22.6338 62.3912 23.0737C63.661 22.9437 64.8908 22.5538 65.6207 21.074C66.4606 19.9842 66.3706 12.6252 53.6024 13.795H53.5924Z" fill="#3E2967"/>
<path d="M57.0019 39.8015L53.7324 49.0002L46.7134 39.8015H57.0019Z" fill="#FADDDC"/>
<path d="M39.4244 63.208H67.6603C68.9002 63.208 69.91 64.2179 69.91 65.4577V86.4447H37.1647V65.4577C37.1647 64.2179 38.1745 63.208 39.4144 63.208H39.4244Z" fill="#F7F7F7"/>
<path d="M53.8028 78.036C55.305 78.036 56.5228 76.8318 56.5228 75.3464C56.5228 73.8609 55.305 72.6567 53.8028 72.6567C52.3006 72.6567 51.0828 73.8609 51.0828 75.3464C51.0828 76.8318 52.3006 78.036 53.8028 78.036Z" fill="#CED5D8"/>
<path d="M147.509 57.1689L132.021 38.5415C131.761 39.1614 131.321 39.6913 130.761 40.0513L145.839 58.1987C146.269 57.7088 146.849 57.3488 147.499 57.1789L147.509 57.1689Z" fill="#455767"/>
<path d="M125.672 37.3017C125.672 37.2217 125.672 37.1418 125.682 37.0618L109.834 44.1808L109.284 43.6408C109.085 43.4409 108.795 43.3609 108.525 43.4409L98.646 46.0605C98.0561 46.2205 97.8661 46.9404 98.296 47.3703L108.155 57.1389C108.585 57.5689 109.314 57.3689 109.474 56.789L112.124 47.0004C112.194 46.7304 112.124 46.4404 111.924 46.2405L111.314 45.6405L126.152 38.9815C125.862 38.4916 125.692 37.9216 125.692 37.3217L125.672 37.3017Z" fill="#455767"/>
<path d="M147.27 63.418L143.75 88.1745L145.67 88.4444L149.22 63.468C148.94 63.548 148.64 63.5979 148.33 63.5979C147.96 63.5979 147.6 63.538 147.27 63.418Z" fill="#455767"/>
<path d="M131.102 37.3018C131.102 36.132 130.142 35.1921 128.972 35.1921C128.092 35.1921 127.342 35.7221 127.012 36.462C126.902 36.7219 126.832 37.0019 126.832 37.3018C126.832 37.7418 126.972 38.1517 127.202 38.4817C127.582 39.0416 128.232 39.4115 128.972 39.4115C129.352 39.4115 129.712 39.3116 130.022 39.1416C130.642 38.8016 131.062 38.1617 131.102 37.4218C131.102 37.3818 131.102 37.3418 131.102 37.3018Z" fill="#455767"/>
<path d="M148.379 58.2087C148.379 58.2087 148.349 58.2087 148.329 58.2087C147.619 58.2087 146.989 58.5587 146.599 59.0886C146.349 59.4386 146.199 59.8585 146.199 60.3184C146.199 61.1683 146.709 61.8982 147.439 62.2382C147.709 62.3582 148.009 62.4381 148.329 62.4381C148.719 62.4381 149.089 62.3282 149.409 62.1482C150.039 61.7782 150.459 61.1083 150.459 60.3284C150.459 59.1786 149.529 58.2487 148.379 58.2187V58.2087Z" fill="#455767"/>
<path style="mix-blend-mode:darken" d="M97.4362 91.6941L108.145 57.129L98.2861 47.3604L27.816 93.0239L97.4362 91.6941Z" fill="url(#paint0_linear_14_1723)"/>
<path d="M145.069 92.3539C149.432 92.3539 152.968 90.7737 152.968 88.8244C152.968 86.8751 149.432 85.2949 145.069 85.2949C140.707 85.2949 137.171 86.8751 137.171 88.8244C137.171 90.7737 140.707 92.3539 145.069 92.3539Z" fill="#455767"/>
</g>
<rect x="117" y="4" width="39" height="16" rx="4" fill="#1C1C1C"/>
<path d="M122.799 16H121.656L124.195 8.92969H125.436L127.984 16H126.842L126.197 14.1348H123.443L122.799 16ZM123.751 13.2363H125.885L124.84 10.2188H124.791L123.751 13.2363ZM128.795 16V10.6973H129.801V11.5371H129.859C130.055 10.9707 130.587 10.6143 131.207 10.6191C131.334 10.6143 131.539 10.6289 131.646 10.6387V11.6348C131.559 11.6152 131.314 11.5713 131.1 11.5762C130.377 11.5713 129.84 12.0742 129.84 12.7676V16H128.795ZM133.473 12.8555V16H132.428V10.6973H133.434V11.5664H133.492C133.741 10.9951 134.264 10.6289 135.055 10.6289C136.144 10.6289 136.866 11.3174 136.861 12.6309V16H135.826V12.7578C135.821 11.9863 135.406 11.5273 134.703 11.5273C133.985 11.5273 133.473 12.0107 133.473 12.8555ZM140.377 16.1074C138.873 16.1074 137.892 15.0137 137.896 13.373C137.892 11.7227 138.873 10.6289 140.377 10.6289C141.871 10.6289 142.848 11.7227 142.848 13.373C142.848 15.0137 141.871 16.1074 140.377 16.1074ZM138.941 13.373C138.941 14.3838 139.405 15.2383 140.377 15.2383C141.334 15.2383 141.793 14.3838 141.793 13.373C141.793 12.3574 141.334 11.4932 140.377 11.4883C139.405 11.4932 138.941 12.3574 138.941 13.373ZM144.918 8.92969V16H143.873V8.92969H144.918ZM148.17 16.1074C146.891 16.1025 145.953 15.0723 145.953 13.3633C145.953 11.6348 146.905 10.6289 148.18 10.6289C149.166 10.6289 149.522 11.2246 149.713 11.5566H149.762V8.92969H150.807V16H149.791V15.1699H149.713C149.518 15.5166 149.137 16.1025 148.17 16.1074ZM147.018 13.3438C147.013 14.4082 147.491 15.2139 148.404 15.2188C149.293 15.2139 149.791 14.457 149.791 13.3438C149.791 12.2402 149.303 11.5127 148.404 11.5176C147.481 11.5127 147.013 12.2988 147.018 13.3438Z" fill="white"/>
</g>
<defs>
<linearGradient id="paint0_linear_14_1723" x1="71.9798" y1="76.1863" x2="89.4873" y2="45.9306" gradientUnits="userSpaceOnUse">
<stop stop-color="white"/>
<stop offset="1" stop-color="#FFC552"/>
</linearGradient>
<clipPath id="clip0_14_1723">
<rect width="160" height="100" fill="white"/>
</clipPath>
<clipPath id="clip1_14_1723">
<rect width="159.977" height="100" fill="white"/>
</clipPath>
</defs>
</svg>
