<svg width="160" height="100" viewBox="0 0 160 100" fill="none" xmlns="http://www.w3.org/2000/svg">
<g clip-path="url(#clip0_14_1503)">
<g clip-path="url(#clip1_14_1503)">
<path d="M159.228 0.616943H0.619995V99.3729H159.228V0.616943Z" fill="#FFE45F"/>
<path d="M159.837 99.9929H0V0.00708008H159.837V99.9929ZM1.23982 98.7731H158.607V1.22691H1.23982V98.7631V98.7731Z" fill="#EFD9B4"/>
<path d="M159.368 82.5454H0.76001V99.383H159.368V82.5454Z" fill="white"/>
<path d="M159.977 99.993H0.140015V81.9355H159.977V99.993ZM1.36984 98.7732H158.738V83.1654H1.36984V98.7732Z" fill="white"/>
<path d="M72.6398 43.891C72.2998 43.291 71.8099 42.8311 71.25 42.5112C69.4702 40.8414 67.0705 39.8215 64.4309 39.8215H43.2439C40.5443 39.8215 38.0747 40.7714 36.1449 42.3412C35.445 42.6511 34.8351 43.1811 34.4252 43.891C34.3752 43.9809 34.2252 44.2509 33.9952 44.6808C33.3453 45.6307 32.8454 46.6906 32.5154 47.8304C29.4859 54.9294 24.6566 70.5172 31.9855 86.115L39.1545 83.6653C38.8645 83.0754 38.5946 82.4755 38.3446 81.8856H68.7203C68.4704 82.4855 68.2004 83.0754 67.9104 83.6653L75.0794 86.115C84.778 65.4679 73.1597 44.8008 72.6398 43.901V43.891Z" fill="#74E0C1"/>
<path d="M75.6293 85.0449C76.6292 83.2352 75.9593 80.9755 74.1295 79.9856C72.6298 79.1758 70.82 79.4757 69.6702 80.6156C69.4202 80.8655 69.2002 81.1455 69.0203 81.4754C68.5903 82.2553 68.1904 83.0452 67.8204 83.8251L74.9894 86.2747C75.1894 85.8648 75.3994 85.4549 75.6293 85.0549V85.0449Z" fill="#FADDDC"/>
<path d="M53.8423 66.0578L61.6112 39.6216H45.5635L53.8423 66.0578Z" fill="white"/>
<path d="M44.7536 59.3887H32.8153V62.1583H44.7536V59.3887Z" fill="#5DC9A8"/>
<path d="M45.0836 62.8882H37.8846V65.6578H45.0836V62.8882Z" fill="#5DC9A8"/>
<path d="M75.0094 59.1287H60.7114V61.8983H75.0094V59.1287Z" fill="#5DC9A8"/>
<path d="M74.9994 54.8894H66.9105V57.659H74.9994V54.8894Z" fill="#5DC9A8"/>
<path d="M71.8198 50.6499H63.731V53.4195H71.8198V50.6499Z" fill="#5DC9A8"/>
<path d="M46.1935 48.7502H38.1046V51.5199H46.1935V48.7502Z" fill="#5DC9A8"/>
<path d="M40.4149 52.5596H35.4149V55.3292H40.4149V52.5596Z" fill="#5DC9A8"/>
<path d="M67.5511 41.7412H62.5511V44.5108H67.5511V41.7412Z" fill="#5DC9A8"/>
<path d="M57.5019 20.1243H42.144V32.1126C42.144 34.8022 44.3237 36.9919 47.0233 36.9919H48.5731C49.333 36.9919 49.9429 37.6018 49.9429 38.3617V39.9615C49.9429 42.0312 51.6227 43.7109 53.6924 43.7109C55.7621 43.7109 57.4419 42.0412 57.4419 39.9715L57.4919 20.1243H57.5019Z" fill="#FADDDC"/>
<path d="M46.6938 32.5624H45.7638C44.9338 32.5624 44.2538 31.8924 44.2538 31.0526V26.5132C44.2538 26.1633 44.5338 25.8833 44.8838 25.8833C45.2338 25.8833 45.5138 26.1633 45.5138 26.5132V30.4427C45.5138 30.9126 45.8938 31.2925 46.3638 31.2925H46.6838C47.0338 31.2925 47.3138 31.5725 47.3138 31.9224C47.3138 32.2724 47.0338 32.5524 46.6838 32.5524L46.6938 32.5624Z" fill="#E0B1BB"/>
<path d="M56.392 16.1848C56.202 15.2849 55.4022 14.595 54.4423 14.595C54.2323 14.595 54.0423 14.635 53.8524 14.695C53.5924 13.8951 52.8525 13.3252 51.9726 13.3252C51.3927 13.3252 50.8828 13.5751 50.5228 13.9651C49.8729 13.1652 48.8931 12.6453 47.7832 12.6453C46.4934 12.6453 45.3736 13.3452 44.7437 14.375C44.4137 14.185 44.0338 14.0751 43.6238 14.0751C42.404 14.0751 41.4141 15.0149 41.3242 16.2048C39.8944 16.3647 38.7945 17.6446 38.9445 19.1443C39.0845 20.5441 40.3743 21.564 41.7841 21.564H52.7525C53.6324 21.564 54.3323 22.2739 54.3323 23.1438V23.7637C54.3323 25.2535 55.5321 26.4533 57.0219 26.4533C57.4719 26.4533 57.8418 26.1134 57.8918 25.6734L58.5817 18.6944C58.7117 17.3746 57.7018 16.2348 56.392 16.1748V16.1848Z" fill="#3E2967"/>
<path d="M48.2532 26.7034C48.2532 27.1634 48.6232 27.5333 49.0832 27.5333C49.5432 27.5333 49.9132 27.1634 49.9132 26.7034C49.9132 26.2435 49.5432 25.8735 49.0832 25.8735C48.6232 25.8735 48.2532 26.2435 48.2532 26.7034Z" fill="#757570"/>
<path d="M92.7469 85.415L48.7231 85.355L48.7431 86.1149L56.452 89.1144L91.3471 89.1644C92.117 89.1644 92.7469 88.5445 92.7469 87.7646V85.405V85.415Z" fill="#2C3B41"/>
<path d="M90.8972 62.5481H57.042C56.0038 62.5481 55.1622 63.3897 55.1622 64.4278V87.2846C55.1622 88.3227 56.0038 89.1643 57.042 89.1643H90.8972C91.9353 89.1643 92.7769 88.3227 92.7769 87.2846V64.4278C92.7769 63.3897 91.9353 62.5481 90.8972 62.5481Z" fill="#455767"/>
<path d="M73.9799 78.7858C75.5594 78.7858 76.8399 77.5056 76.8399 75.9262C76.8399 74.3469 75.5594 73.0667 73.9799 73.0667C72.4003 73.0667 71.1199 74.3469 71.1199 75.9262C71.1199 77.5056 72.4003 78.7858 73.9799 78.7858Z" fill="#DCE6F1"/>
<path d="M147.509 57.1689L132.021 38.5415C131.761 39.1614 131.321 39.6913 130.761 40.0513L145.839 58.1987C146.269 57.7088 146.849 57.3488 147.499 57.1789L147.509 57.1689Z" fill="#455767"/>
<path d="M125.672 37.3017C125.672 37.2217 125.672 37.1418 125.682 37.0618L109.834 44.1808L109.284 43.6408C109.085 43.4409 108.795 43.3609 108.525 43.4409L98.646 46.0605C98.0561 46.2205 97.8661 46.9404 98.296 47.3703L108.155 57.1389C108.585 57.5689 109.314 57.3689 109.474 56.789L112.124 47.0004C112.194 46.7304 112.124 46.4404 111.924 46.2405L111.314 45.6405L126.152 38.9815C125.862 38.4916 125.692 37.9216 125.692 37.3217L125.672 37.3017Z" fill="#455767"/>
<path d="M147.27 63.418L143.75 88.1745L145.67 88.4444L149.22 63.468C148.94 63.548 148.64 63.5979 148.33 63.5979C147.96 63.5979 147.6 63.538 147.27 63.418Z" fill="#455767"/>
<path d="M131.102 37.3018C131.102 36.132 130.142 35.1921 128.972 35.1921C128.092 35.1921 127.342 35.7221 127.012 36.462C126.902 36.7219 126.832 37.0019 126.832 37.3018C126.832 37.7418 126.972 38.1517 127.202 38.4817C127.582 39.0416 128.232 39.4115 128.972 39.4115C129.352 39.4115 129.712 39.3116 130.022 39.1416C130.642 38.8016 131.062 38.1617 131.102 37.4218C131.102 37.3818 131.102 37.3418 131.102 37.3018Z" fill="#455767"/>
<path d="M148.379 58.2087C148.379 58.2087 148.349 58.2087 148.329 58.2087C147.619 58.2087 146.989 58.5587 146.599 59.0886C146.349 59.4386 146.199 59.8585 146.199 60.3184C146.199 61.1683 146.709 61.8982 147.439 62.2382C147.709 62.3582 148.009 62.4381 148.329 62.4381C148.719 62.4381 149.089 62.3282 149.409 62.1482C150.039 61.7782 150.459 61.1083 150.459 60.3284C150.459 59.1786 149.529 58.2487 148.379 58.2187V58.2087Z" fill="#455767"/>
<path style="mix-blend-mode:darken" d="M97.4362 91.6941L108.145 57.129L98.2861 47.3604L27.816 93.0239L97.4362 91.6941Z" fill="url(#paint0_linear_14_1503)"/>
<path d="M145.069 92.3539C149.432 92.3539 152.968 90.7737 152.968 88.8244C152.968 86.8751 149.432 85.2949 145.069 85.2949C140.707 85.2949 137.171 86.8751 137.171 88.8244C137.171 90.7737 140.707 92.3539 145.069 92.3539Z" fill="#455767"/>
<path d="M45.6335 74.8264V71.7969H34.3951V85.8449H45.6335V83.3252C47.9632 83.3052 49.8429 81.4055 49.8429 79.0758C49.8429 76.7462 47.9632 74.8464 45.6335 74.8264ZM45.6335 82.3254V75.8263C47.4133 75.8463 48.8431 77.2961 48.8431 79.0758C48.8431 80.8556 47.4133 82.3054 45.6335 82.3254Z" fill="#2F3C43"/>
<path d="M33.9952 75.4563H37.4347C38.7145 75.4563 39.7444 76.4961 39.7444 77.766V85.8548H31.6755V77.766C31.6755 76.4862 32.7154 75.4563 33.9852 75.4563H33.9952Z" fill="#FADDDC"/>
</g>
<rect x="116.115" y="4.19507" width="40" height="16" rx="4" fill="#1C1C1C"/>
<path d="M126.013 11.4294C125.842 10.5164 125.085 10.0085 124.187 10.0134C122.966 10.0085 122.062 10.946 122.058 12.6599C122.062 14.3835 122.971 15.3113 124.187 15.3064C125.075 15.3113 125.827 14.8132 126.013 13.9099L127.097 13.9197C126.872 15.3162 125.734 16.2927 124.177 16.2927C122.336 16.2927 120.993 14.9207 120.993 12.6599C120.993 10.3992 122.346 9.0271 124.177 9.0271C125.671 9.0271 126.857 9.91089 127.097 11.4294H126.013ZM129.216 13.0505V16.1951H128.171V9.12476H129.196V11.7615H129.265C129.514 11.1853 130.012 10.824 130.837 10.824C131.926 10.824 132.653 11.4978 132.653 12.8259V16.1951H131.608V12.9529C131.608 12.1716 131.188 11.7224 130.485 11.7224C129.748 11.7224 129.216 12.2058 129.216 13.0505ZM133.669 14.7009C133.664 13.49 134.694 13.1775 135.651 13.1091C136.003 13.0896 136.799 13.0457 137.043 13.0359L137.038 12.6111C137.043 12.0105 136.672 11.6638 135.964 11.6638C135.349 11.6638 134.978 11.947 134.87 12.3376H133.835C133.928 11.4587 134.748 10.824 136.003 10.824C136.848 10.824 138.078 11.1316 138.083 12.6697V16.1951H137.067V15.4724H137.028C136.823 15.8679 136.335 16.3123 135.456 16.3123C134.45 16.3123 133.664 15.7361 133.669 14.7009ZM134.685 14.7107C134.685 15.2185 135.104 15.4773 135.69 15.4822C136.54 15.4773 137.048 14.9109 137.048 14.281L137.043 13.7976C136.804 13.8123 136.047 13.866 135.798 13.8806C135.114 13.9294 134.685 14.1882 134.685 14.7107ZM140.388 9.12476V16.1951H139.343V9.12476H140.388ZM144.636 12.3376C144.538 11.9177 144.206 11.6443 143.63 11.6443C143.034 11.6443 142.609 11.9519 142.614 12.3572C142.609 12.6697 142.858 12.8943 143.444 13.031L144.284 13.2263C145.261 13.446 145.734 13.9099 145.739 14.6619C145.734 15.6189 144.924 16.3025 143.571 16.3025C142.297 16.3025 141.545 15.7361 141.413 14.7498H142.478C142.57 15.2283 142.932 15.4675 143.562 15.4626C144.235 15.4675 144.67 15.1843 144.675 14.74C144.67 14.3982 144.416 14.1785 143.854 14.0466L143.024 13.8708C142.067 13.6609 141.569 13.1482 141.569 12.4158C141.569 11.4734 142.39 10.824 143.62 10.824C144.802 10.824 145.539 11.4246 145.642 12.3376H144.636ZM149.04 16.3025C147.478 16.3025 146.516 15.2234 146.521 13.5779C146.516 11.947 147.492 10.824 148.972 10.824C150.178 10.824 151.325 11.571 151.325 13.49V13.8611H147.556C147.585 14.8718 148.181 15.4431 149.05 15.4431C149.641 15.4431 150.026 15.1892 150.202 14.8669H151.257C151.022 15.7263 150.207 16.3025 149.04 16.3025ZM147.561 13.0798H150.3C150.3 12.2742 149.777 11.6785 148.981 11.6833C148.146 11.6785 147.604 12.3328 147.561 13.0798Z" fill="white"/>
</g>
<defs>
<linearGradient id="paint0_linear_14_1503" x1="71.9798" y1="76.1863" x2="89.4873" y2="45.9306" gradientUnits="userSpaceOnUse">
<stop stop-color="white"/>
<stop offset="1" stop-color="#FFC552"/>
</linearGradient>
<clipPath id="clip0_14_1503">
<rect width="160" height="100" fill="white"/>
</clipPath>
<clipPath id="clip1_14_1503">
<rect width="159.977" height="100" fill="white"/>
</clipPath>
</defs>
</svg>
