<svg width="160" height="100" viewBox="0 0 160 100" fill="none" xmlns="http://www.w3.org/2000/svg">
<g clip-path="url(#clip0_14_1503)">
<path d="M159.25 0.610107H0.619995V99.3801H159.25V0.610107Z" fill="#FFDB92"/>
<path d="M159.86 100H0V0H159.86V100ZM1.24 98.78H158.63V1.22H1.24V98.77V98.78Z" fill="#EFD9B4"/>
<path d="M159.39 82.55H0.76001V99.39H159.39V82.55Z" fill="white"/>
<path d="M160 99.9999H0.140015V81.9399H160V99.9999ZM1.37001 98.7799H158.76V83.1699H1.37001V98.7799Z" fill="white"/>
<path d="M72.65 43.8901C72.31 43.2901 71.82 42.8301 71.26 42.5101C69.48 40.8401 67.08 39.8201 64.44 39.8201H43.25C40.55 39.8201 38.08 40.7701 36.15 42.3401C35.45 42.6501 34.84 43.1801 34.43 43.8901C34.38 43.9801 34.23 44.2501 34 44.6801C33.35 45.6301 32.85 46.6901 32.52 47.8301C29.49 54.9301 24.66 70.5201 31.99 86.1201L39.16 83.6701C38.87 83.0801 38.6 82.4801 38.35 81.8901H68.73C68.48 82.4901 68.21 83.0801 67.92 83.6701L75.09 86.1201C84.79 65.4701 73.17 44.8001 72.65 43.9001V43.8901Z" fill="#74E0C1"/>
<path d="M31.45 84.9C30.45 83.09 31.12 80.83 32.95 79.84C34.45 79.03 36.26 79.33 37.41 80.47C37.66 80.72 37.88 81 38.06 81.33C38.49 82.11 38.89 82.9 39.26 83.68L32.09 86.13C31.89 85.72 31.68 85.31 31.45 84.91V84.9Z" fill="#FADDDC"/>
<path d="M75.6401 85.0501C76.6401 83.2401 75.9701 80.9801 74.1401 79.9901C72.6401 79.1801 70.8301 79.4801 69.6801 80.6201C69.4301 80.8701 69.2101 81.1501 69.0301 81.4801C68.6001 82.2601 68.2001 83.0501 67.8301 83.8301L75.0001 86.2801C75.2001 85.8701 75.4101 85.4601 75.6401 85.0601V85.0501Z" fill="#FADDDC"/>
<path d="M53.8501 66.0601L61.6201 39.6201H45.5701L53.8501 66.0601Z" fill="white"/>
<path d="M44.7599 59.3899H32.8199V62.1599H44.7599V59.3899Z" fill="#5DC9A8"/>
<path d="M45.0899 62.8899H37.8899V65.6599H45.0899V62.8899Z" fill="#5DC9A8"/>
<path d="M75.02 59.1299H60.72V61.8999H75.02V59.1299Z" fill="#5DC9A8"/>
<path d="M75.0099 54.8899H66.9199V57.6599H75.0099V54.8899Z" fill="#5DC9A8"/>
<path d="M71.83 50.6499H63.74V53.4199H71.83V50.6499Z" fill="#5DC9A8"/>
<path d="M46.2001 48.75H38.1101V51.52H46.2001V48.75Z" fill="#5DC9A8"/>
<path d="M40.42 52.5601H35.42V55.3301H40.42V52.5601Z" fill="#5DC9A8"/>
<path d="M67.5601 41.74H62.5601V44.51H67.5601V41.74Z" fill="#5DC9A8"/>
<path d="M57.5099 20.1201H42.1499V32.1101C42.1499 34.8001 44.3299 36.9901 47.0299 36.9901H48.5799C49.3399 36.9901 49.9499 37.6001 49.9499 38.3601V39.9601C49.9499 42.0301 51.6299 43.7101 53.6999 43.7101C55.7699 43.7101 57.4499 42.0401 57.4499 39.9701L57.4999 20.1201H57.5099Z" fill="#FADDDC"/>
<path d="M46.7 32.5599H45.77C44.94 32.5599 44.26 31.8899 44.26 31.0499V26.5099C44.26 26.1599 44.54 25.8799 44.89 25.8799C45.24 25.8799 45.52 26.1599 45.52 26.5099V30.4399C45.52 30.9099 45.9 31.2899 46.37 31.2899H46.69C47.04 31.2899 47.32 31.5699 47.32 31.9199C47.32 32.2699 47.04 32.5499 46.69 32.5499L46.7 32.5599Z" fill="#E0B1BB"/>
<path d="M56.4 16.1799C56.21 15.2799 55.41 14.5899 54.45 14.5899C54.24 14.5899 54.05 14.6299 53.86 14.6899C53.6 13.8899 52.86 13.3199 51.98 13.3199C51.4 13.3199 50.89 13.5699 50.53 13.9599C49.88 13.1599 48.9 12.6399 47.79 12.6399C46.5 12.6399 45.38 13.3399 44.75 14.3699C44.42 14.1799 44.04 14.0699 43.63 14.0699C42.41 14.0699 41.42 15.0099 41.33 16.1999C39.9 16.3599 38.8 17.6399 38.95 19.1399C39.09 20.5399 40.38 21.5599 41.79 21.5599H52.76C53.64 21.5599 54.34 22.2699 54.34 23.1399V23.7599C54.34 25.2499 55.54 26.4499 57.03 26.4499C57.48 26.4499 57.85 26.1099 57.9 25.6699L58.59 18.6899C58.72 17.3699 57.71 16.2299 56.4 16.1699V16.1799Z" fill="#3E2967"/>
<path d="M48.26 26.7001C48.26 27.1601 48.63 27.5301 49.09 27.5301C49.55 27.5301 49.92 27.1601 49.92 26.7001C49.92 26.2401 49.55 25.8701 49.09 25.8701C48.63 25.8701 48.26 26.2401 48.26 26.7001Z" fill="#757570"/>
<path d="M39.4299 63.21H67.6699C68.9099 63.21 69.9199 64.22 69.9199 65.46V86.45H37.1699V65.46C37.1699 64.22 38.1799 63.21 39.4199 63.21H39.4299Z" fill="#F7F7F7"/>
<path d="M53.8101 78.0399C55.3123 78.0399 56.5301 76.8356 56.5301 75.3499C56.5301 73.8643 55.3123 72.6599 53.8101 72.6599C52.3079 72.6599 51.0901 73.8643 51.0901 75.3499C51.0901 76.8356 52.3079 78.0399 53.8101 78.0399Z" fill="#CED5D8"/>
<path d="M147.53 57.17L132.04 38.54C131.78 39.16 131.34 39.69 130.78 40.05L145.86 58.2C146.29 57.71 146.87 57.35 147.52 57.18L147.53 57.17Z" fill="#455767"/>
<path d="M125.69 37.3001C125.69 37.2201 125.69 37.1401 125.7 37.0601L109.85 44.1801L109.3 43.6401C109.1 43.4401 108.81 43.3601 108.54 43.4401L98.66 46.0601C98.07 46.2201 97.88 46.9401 98.31 47.3701L108.17 57.1401C108.6 57.5701 109.33 57.3701 109.49 56.7901L112.14 47.0001C112.21 46.7301 112.14 46.4401 111.94 46.2401L111.33 45.6401L126.17 38.9801C125.88 38.4901 125.71 37.9201 125.71 37.3201L125.69 37.3001Z" fill="#455767"/>
<path d="M147.29 63.4199L143.77 88.1799L145.69 88.4499L149.24 63.4699C148.96 63.5499 148.66 63.5999 148.35 63.5999C147.98 63.5999 147.62 63.5399 147.29 63.4199Z" fill="#455767"/>
<path d="M131.12 37.2999C131.12 36.1299 130.16 35.1899 128.99 35.1899C128.11 35.1899 127.36 35.7199 127.03 36.4599C126.92 36.7199 126.85 36.9999 126.85 37.2999C126.85 37.7399 126.99 38.1499 127.22 38.4799C127.6 39.0399 128.25 39.4099 128.99 39.4099C129.37 39.4099 129.73 39.3099 130.04 39.1399C130.66 38.7999 131.08 38.1599 131.12 37.4199C131.12 37.3799 131.12 37.3399 131.12 37.2999Z" fill="#455767"/>
<path d="M148.4 58.21C148.4 58.21 148.37 58.21 148.35 58.21C147.64 58.21 147.01 58.56 146.62 59.09C146.37 59.44 146.22 59.86 146.22 60.32C146.22 61.17 146.73 61.9 147.46 62.24C147.73 62.36 148.03 62.44 148.35 62.44C148.74 62.44 149.11 62.33 149.43 62.15C150.06 61.78 150.48 61.11 150.48 60.33C150.48 59.18 149.55 58.25 148.4 58.22V58.21Z" fill="#455767"/>
<path style="mix-blend-mode:darken" d="M97.4499 91.7001L108.16 57.1301L98.2999 47.3601L27.8199 93.0301L97.4499 91.7001Z" fill="url(#paint0_linear_14_1503)"/>
<path d="M145.09 92.36C149.453 92.36 152.99 90.7796 152.99 88.83C152.99 86.8805 149.453 85.3 145.09 85.3C140.727 85.3 137.19 86.8805 137.19 88.83C137.19 90.7796 140.727 92.36 145.09 92.36Z" fill="#455767"/>
<rect x="116.115" y="4.19507" width="40" height="16" rx="4" fill="#1C1C1C"/>
<path d="M126.013 11.4294C125.842 10.5164 125.085 10.0085 124.187 10.0134C122.966 10.0085 122.062 10.946 122.058 12.6599C122.062 14.3835 122.971 15.3113 124.187 15.3064C125.075 15.3113 125.827 14.8132 126.013 13.9099L127.097 13.9197C126.872 15.3162 125.734 16.2927 124.177 16.2927C122.336 16.2927 120.993 14.9207 120.993 12.6599C120.993 10.3992 122.346 9.0271 124.177 9.0271C125.671 9.0271 126.857 9.91089 127.097 11.4294H126.013ZM129.216 13.0505V16.1951H128.171V9.12476H129.196V11.7615H129.265C129.514 11.1853 130.012 10.824 130.837 10.824C131.926 10.824 132.653 11.4978 132.653 12.8259V16.1951H131.608V12.9529C131.608 12.1716 131.188 11.7224 130.485 11.7224C129.748 11.7224 129.216 12.2058 129.216 13.0505ZM133.669 14.7009C133.664 13.49 134.694 13.1775 135.651 13.1091C136.003 13.0896 136.799 13.0457 137.043 13.0359L137.038 12.6111C137.043 12.0105 136.672 11.6638 135.964 11.6638C135.349 11.6638 134.978 11.947 134.87 12.3376H133.835C133.928 11.4587 134.748 10.824 136.003 10.824C136.848 10.824 138.078 11.1316 138.083 12.6697V16.1951H137.067V15.4724H137.028C136.823 15.8679 136.335 16.3123 135.456 16.3123C134.45 16.3123 133.664 15.7361 133.669 14.7009ZM134.685 14.7107C134.685 15.2185 135.104 15.4773 135.69 15.4822C136.54 15.4773 137.048 14.9109 137.048 14.281L137.043 13.7976C136.804 13.8123 136.047 13.866 135.798 13.8806C135.114 13.9294 134.685 14.1882 134.685 14.7107ZM140.388 9.12476V16.1951H139.343V9.12476H140.388ZM144.636 12.3376C144.538 11.9177 144.206 11.6443 143.63 11.6443C143.034 11.6443 142.609 11.9519 142.614 12.3572C142.609 12.6697 142.858 12.8943 143.444 13.031L144.284 13.2263C145.261 13.446 145.734 13.9099 145.739 14.6619C145.734 15.6189 144.924 16.3025 143.571 16.3025C142.297 16.3025 141.545 15.7361 141.413 14.7498H142.478C142.57 15.2283 142.932 15.4675 143.562 15.4626C144.235 15.4675 144.67 15.1843 144.675 14.74C144.67 14.3982 144.416 14.1785 143.854 14.0466L143.024 13.8708C142.067 13.6609 141.569 13.1482 141.569 12.4158C141.569 11.4734 142.39 10.824 143.62 10.824C144.802 10.824 145.539 11.4246 145.642 12.3376H144.636ZM149.04 16.3025C147.478 16.3025 146.516 15.2234 146.521 13.5779C146.516 11.947 147.492 10.824 148.972 10.824C150.178 10.824 151.325 11.571 151.325 13.49V13.8611H147.556C147.585 14.8718 148.181 15.4431 149.05 15.4431C149.641 15.4431 150.026 15.1892 150.202 14.8669H151.257C151.022 15.7263 150.207 16.3025 149.04 16.3025ZM147.561 13.0798H150.3C150.3 12.2742 149.777 11.6785 148.981 11.6833C148.146 11.6785 147.604 12.3328 147.561 13.0798Z" fill="white"/>
</g>
<defs>
<linearGradient id="paint0_linear_14_1503" x1="71.9899" y1="76.1901" x2="89.4999" y2="45.9301" gradientUnits="userSpaceOnUse">
<stop stop-color="white"/>
<stop offset="1" stop-color="#FFC552"/>
</linearGradient>
<clipPath id="clip0_14_1503">
<rect width="160" height="100" fill="white"/>
</clipPath>
</defs>
</svg>
