<svg width="160" height="100" viewBox="0 0 160 100" fill="none" xmlns="http://www.w3.org/2000/svg">
<g clip-path="url(#clip0_14_1542)">
<path d="M159.38 0.610107H0.620117V99.3801H159.38V0.610107Z" fill="#FFDB92"/>
<path d="M160 100H0V0H160V100ZM1.24 98.78H158.76V1.22H1.24V98.77V98.78Z" fill="#EFD9B4"/>
<path d="M159.38 0.610107H0.620117V41.9601H159.38V0.610107Z" fill="white"/>
<path d="M160 42.58H0V0H160V42.58ZM1.24 41.35H158.76V1.22H1.24V41.35Z" fill="white"/>
<path d="M159.38 43.5701H0.620117V48.1301H159.38V43.5701Z" fill="#B2AEA6"/>
<path d="M160 48.74H0V42.96H160V48.74ZM1.24 47.52H158.76V44.18H1.24V47.52Z" fill="#B2AEA6"/>
<path d="M80.8 23.8901V7.1101C80.8 5.5801 79.55 4.3501 78.01 4.3501H50.82C49.28 4.3501 48.03 5.5901 48.03 7.1101V23.6901C48.03 24.4801 48.36 25.2401 48.94 25.7801L57.16 33.4601C57.81 34.0701 58.67 34.4101 59.57 34.4101H89.61C90.58 34.4101 91.01 33.2101 90.26 32.6001L81.62 25.5901C81.1 25.1701 80.8 24.5501 80.8 23.8801V23.8901Z" fill="#455767"/>
<path d="M77.8001 7.17993H50.5801V22.8799H77.8001V7.17993Z" fill="#3888BA"/>
<path d="M64.2399 9.54004H53.6299V10.67H64.2399V9.54004Z" fill="#A0D1EA"/>
<path d="M67.4401 13.5H56.8301V14.63H67.4401V13.5Z" fill="#A0D1EA"/>
<path d="M64.5399 17.1799H53.9299V18.3099H64.5399V17.1799Z" fill="#A0D1EA"/>
<path d="M80.1999 28.05H57.5499L56.1799 27.04H78.8299L80.1999 28.05Z" fill="#506575"/>
<path d="M83.04 31.26H60.39L59.02 30.25H81.67L83.04 31.26Z" fill="#506575"/>
<path d="M116.89 30.1301C116.55 29.5301 116.06 29.0701 115.5 28.7501C113.72 27.0801 111.32 26.0601 108.67 26.0601H87.4699C84.7699 26.0601 82.2999 27.0101 80.3599 28.5801C79.6599 28.8901 79.0499 29.4201 78.6399 30.1301C78.5899 30.2201 78.4399 30.4901 78.2099 30.9201C77.5599 31.8701 77.0599 32.9301 76.7299 34.0701C73.6999 41.1701 68.8699 40.4201 76.1999 56.0101C76.1999 56.0101 119.34 55.9801 119.34 55.9701C129.02 35.3301 117.4 31.0301 116.88 30.1301H116.89Z" fill="#74E0C1"/>
<path d="M90.74 7.41992V18.4799C90.74 20.5099 91.98 22.2399 93.74 22.9999C94.33 23.2499 94.71 23.8399 94.71 24.4699V26.0199H100.75V24.4699C100.75 23.8299 101.13 23.2499 101.72 22.9999C103.49 22.2499 104.72 20.5099 104.72 18.4799V7.41992H90.73H90.74Z" fill="#FADDDC"/>
<path d="M114.6 78.19H81.8899C77.8599 78.19 74.4499 75.24 73.9099 71.28L70.4099 45.51C69.7599 40.73 73.5199 36.48 78.3899 36.48H117.41C122.2 36.48 125.93 40.59 125.41 45.3L122.61 71.07C122.17 75.12 118.72 78.19 114.61 78.19H114.6Z" fill="#E5E5E5"/>
<path d="M117.4 43.84C117.47 43.84 117.68 43.84 117.87 44.05C118.06 44.26 118.03 44.46 118.03 44.53L115.23 70.3C115.2 70.62 114.93 70.85 114.61 70.85H81.8999C81.5899 70.85 81.3199 70.62 81.2799 70.31L77.7799 44.54C77.7799 44.47 77.7399 44.26 77.9299 44.05C78.1199 43.84 78.3299 43.84 78.3999 43.84H117.42M117.42 36.49H78.3999C73.5299 36.49 69.7699 40.74 70.4199 45.52L73.9199 71.29C74.4599 75.24 77.8699 78.2 81.8999 78.2H114.61C118.72 78.2 122.17 75.13 122.61 71.08L125.41 45.31C125.92 40.6 122.19 36.49 117.41 36.49H117.42Z" fill="#F7F7F7"/>
<path d="M107.37 7.28989C107.5 5.94989 106.5 4.78989 105.19 4.72989C105.01 3.80989 104.21 3.11989 103.25 3.11989C103.04 3.11989 102.85 3.15989 102.66 3.21989C102.4 2.40989 101.66 1.82989 100.79 1.82989C100.3 1.82989 99.8599 2.01989 99.5099 2.31989C99.3699 2.28989 99.2299 2.25989 99.0999 2.23989C98.4599 1.57989 97.5899 1.13989 96.5999 1.13989C95.4399 1.13989 94.4299 1.70989 93.7799 2.57989C93.6299 2.63989 93.4899 2.71989 93.3399 2.78989C93.0699 2.66989 92.7699 2.57989 92.4499 2.57989C91.2399 2.57989 90.2499 3.52989 90.1499 4.73989C88.7199 4.90989 87.6299 6.19989 87.7799 7.72989C87.8299 8.27989 88.0599 8.76989 88.3999 9.15989C88.2799 9.77989 88.1999 10.4299 88.1999 11.1299C88.1999 13.7299 88.3099 17.4299 91.8699 20.0299C94.0499 21.6199 95.5899 23.2899 97.7699 23.2299C101.22 23.1299 102.9 20.0499 104.45 18.6299C105.36 17.7999 106.23 16.5299 106.55 14.7099C106.61 14.5999 106.66 14.4899 106.67 14.3499L107.36 7.26989L107.37 7.28989Z" fill="#3E2967"/>
<rect x="116.115" y="4.19507" width="40" height="16" rx="4" fill="#1C1C1C"/>
<path d="M126.013 11.4294C125.842 10.5164 125.085 10.0085 124.187 10.0134C122.966 10.0085 122.062 10.946 122.058 12.6599C122.062 14.3835 122.971 15.3113 124.187 15.3064C125.075 15.3113 125.827 14.8132 126.013 13.9099L127.097 13.9197C126.872 15.3162 125.734 16.2927 124.177 16.2927C122.336 16.2927 120.993 14.9207 120.993 12.6599C120.993 10.3992 122.346 9.0271 124.177 9.0271C125.671 9.0271 126.857 9.91089 127.097 11.4294H126.013ZM129.216 13.0505V16.1951H128.171V9.12476H129.196V11.7615H129.265C129.514 11.1853 130.012 10.824 130.837 10.824C131.926 10.824 132.653 11.4978 132.653 12.8259V16.1951H131.608V12.9529C131.608 12.1716 131.188 11.7224 130.485 11.7224C129.748 11.7224 129.216 12.2058 129.216 13.0505ZM133.669 14.7009C133.664 13.49 134.694 13.1775 135.651 13.1091C136.003 13.0896 136.799 13.0457 137.043 13.0359L137.038 12.6111C137.043 12.0105 136.672 11.6638 135.964 11.6638C135.349 11.6638 134.978 11.947 134.87 12.3376H133.835C133.928 11.4587 134.748 10.824 136.003 10.824C136.848 10.824 138.078 11.1316 138.083 12.6697V16.1951H137.067V15.4724H137.028C136.823 15.8679 136.335 16.3123 135.456 16.3123C134.45 16.3123 133.664 15.7361 133.669 14.7009ZM134.685 14.7107C134.685 15.2185 135.104 15.4773 135.69 15.4822C136.54 15.4773 137.048 14.9109 137.048 14.281L137.043 13.7976C136.804 13.8123 136.047 13.866 135.798 13.8806C135.114 13.9294 134.685 14.1882 134.685 14.7107ZM140.388 9.12476V16.1951H139.343V9.12476H140.388ZM144.636 12.3376C144.538 11.9177 144.206 11.6443 143.63 11.6443C143.034 11.6443 142.609 11.9519 142.614 12.3572C142.609 12.6697 142.858 12.8943 143.444 13.031L144.284 13.2263C145.261 13.446 145.734 13.9099 145.739 14.6619C145.734 15.6189 144.924 16.3025 143.571 16.3025C142.297 16.3025 141.545 15.7361 141.413 14.7498H142.478C142.57 15.2283 142.932 15.4675 143.562 15.4626C144.235 15.4675 144.67 15.1843 144.675 14.74C144.67 14.3982 144.416 14.1785 143.854 14.0466L143.024 13.8708C142.067 13.6609 141.569 13.1482 141.569 12.4158C141.569 11.4734 142.39 10.824 143.62 10.824C144.802 10.824 145.539 11.4246 145.642 12.3376H144.636ZM149.04 16.3025C147.478 16.3025 146.516 15.2234 146.521 13.5779C146.516 11.947 147.492 10.824 148.972 10.824C150.178 10.824 151.325 11.571 151.325 13.49V13.8611H147.556C147.585 14.8718 148.181 15.4431 149.05 15.4431C149.641 15.4431 150.026 15.1892 150.202 14.8669H151.257C151.022 15.7263 150.207 16.3025 149.04 16.3025ZM147.561 13.0798H150.3C150.3 12.2742 149.777 11.6785 148.981 11.6833C148.146 11.6785 147.604 12.3328 147.561 13.0798Z" fill="white"/>
</g>
<defs>
<clipPath id="clip0_14_1542">
<rect width="160" height="100" fill="white"/>
</clipPath>
</defs>
</svg>
