<svg width="160" height="100" viewBox="0 0 160 100" fill="none" xmlns="http://www.w3.org/2000/svg">
<g clip-path="url(#clip0_14_1542)">
<g clip-path="url(#clip1_14_1542)">
<path d="M159.357 0.616943H0.619995V99.3729H159.357V0.616943Z" fill="#FFE45F"/>
<path d="M159.977 99.9929H0V0.00708008H159.977V99.9929ZM1.23982 98.7731H158.737V1.22691H1.23982V98.7631V98.7731Z" fill="#EFD9B4"/>
<path d="M159.357 0.616943H0.619995V41.9611H159.357V0.616943Z" fill="white"/>
<path d="M159.977 42.581H0V0.00708008H159.977V42.581ZM1.23982 41.3512H158.737V1.22691H1.23982V41.3512Z" fill="white"/>
<path d="M159.357 43.5708H0.619995V48.1302H159.357V43.5708Z" fill="#B2AEA6"/>
<path d="M159.977 48.7401H0V42.9609H159.977V48.7401ZM1.23982 47.5203H158.737V44.1808H1.23982V47.5203Z" fill="#B2AEA6"/>
<path d="M80.7886 23.8937V7.11605C80.7886 5.58627 79.5387 4.35645 77.9989 4.35645H50.8128C49.273 4.35645 48.0232 5.59627 48.0232 7.11605V23.6937C48.0232 24.4836 48.3531 25.2435 48.9331 25.7834L57.1519 33.4623C57.8018 34.0722 58.6617 34.4122 59.5616 34.4122H89.5973C90.5672 34.4122 90.9971 33.2124 90.2472 32.6024L81.6084 25.5934C81.0885 25.1735 80.7886 24.5536 80.7886 23.8837V23.8937Z" fill="#455767"/>
<path d="M77.789 7.18604H50.5729V22.8838H77.789V7.18604Z" fill="#3888BA"/>
<path d="M64.2309 9.54565H53.6224V10.6755H64.2309V9.54565Z" fill="#A0D1EA"/>
<path d="M67.4304 13.5051H56.8219V14.635H67.4304V13.5051Z" fill="#A0D1EA"/>
<path d="M64.5309 17.1846H53.9224V18.3144H64.5309V17.1846Z" fill="#A0D1EA"/>
<path d="M80.1886 28.0531H57.5418L56.172 27.0432H78.8188L80.1886 28.0531Z" fill="#506575"/>
<path d="M83.0282 31.2625H60.3814L59.0116 30.2527H81.6584L83.0282 31.2625Z" fill="#506575"/>
<path d="M105.915 9.39585L90.0572 7.51611L89.4273 12.8454L88.3774 21.7041C88.0475 24.4837 90.0372 27.0133 92.8168 27.3433L94.4166 27.5333C95.1965 27.6233 95.7564 28.3332 95.6664 29.1131C95.3865 31.5127 97.7661 33.3424 100.006 32.4426L103.005 31.2527L105.925 9.39585H105.915Z" fill="#FADDDC"/>
<path d="M88.8177 22.014L87.9277 21.6441C87.1277 21.3141 86.7477 20.3942 87.0777 19.5943L88.8777 15.235C89.0177 14.905 89.3977 14.745 89.7277 14.885C90.0577 15.025 90.2177 15.4049 90.0777 15.7349L88.5177 19.5144C88.3277 19.9643 88.5477 20.4842 88.9977 20.6742L89.3077 20.8042C89.6377 20.9442 89.7977 21.3241 89.6577 21.6541C89.5177 21.984 89.1377 22.144 88.8077 22.004L88.8177 22.014Z" fill="#E0B1BB"/>
<path d="M91.847 15.5249C91.787 15.9949 92.127 16.4248 92.597 16.4748C93.067 16.5248 93.497 16.1948 93.547 15.7249C93.597 15.255 93.267 14.825 92.797 14.775C92.327 14.725 91.897 15.055 91.847 15.5249Z" fill="#757570"/>
<path d="M100.692 20.8425L101.725 20.9653C102.251 21.0279 102.729 20.6519 102.791 20.1255L103.293 15.9058C103.356 15.3794 102.98 14.9019 102.453 14.8393L101.42 14.7165C100.894 14.6539 100.416 15.0299 100.354 15.5563L99.8521 19.776C99.7895 20.3024 100.166 20.7799 100.692 20.8425Z" fill="#FADDDC"/>
<path d="M105.185 6.6461C105.105 5.68623 104.365 4.88635 103.365 4.76636C103.155 4.73637 102.945 4.76636 102.735 4.79636C102.565 3.94648 101.876 3.25658 100.966 3.14659C100.366 3.0766 99.8058 3.26658 99.3859 3.62652C98.806 2.72665 97.8661 2.06675 96.7162 1.92677C95.3864 1.76679 94.1366 2.34671 93.3667 3.33657C93.0468 3.1066 92.6668 2.93662 92.2469 2.88663C90.9871 2.73665 89.8572 3.58653 89.6073 4.80636C88.1075 4.80636 86.8177 5.97619 86.7877 7.55597C86.7577 9.02576 87.9675 10.2356 89.4273 10.4056L98.7959 11.5154C99.6958 11.6254 100.346 12.4453 100.236 13.3451L100.156 13.9851C99.9758 15.5248 101.066 17.0146 102.605 17.0946C105.665 17.2546 103.585 20.8741 104.115 22.2839C104.295 22.7538 104.795 22.4839 104.825 22.3639L107.355 12.9152C108.635 10.3456 106.535 6.85607 105.185 6.6261V6.6461Z" fill="#3E2967"/>
<path d="M85.4579 76.6161L87.6276 88.9844C87.9275 90.7141 89.4373 91.9839 91.1971 91.9839C93.1268 91.9839 94.7266 90.4642 94.8166 88.5344L95.4365 75.6663L85.4579 76.6161Z" fill="#3E2967"/>
<path d="M101.776 76.2962L101.396 88.7045C101.336 90.5242 102.745 92.054 104.575 92.154C106.175 92.234 107.605 91.1841 108.005 89.6343L111.604 75.5063L101.786 76.2962H101.776Z" fill="#3E2967"/>
<path d="M115.824 88.3346L103.495 85.675L110.854 84.4252L109.474 83.0454L99.9358 84.3252V77.1062H96.7962V84.3552L86.9076 82.9754L85.1079 84.1552L93.2667 85.755L80.2086 88.4346L80.0686 90.0844L96.7062 88.0147L97.2862 93.5939L99.1659 93.6239L99.3959 88.0846L116.034 90.0244L115.824 88.3346Z" fill="#8C8C8C"/>
<path d="M81.4487 92.7139C82.4042 92.7139 83.1787 91.9395 83.1787 90.9841C83.1787 90.0288 82.4042 89.2544 81.4487 89.2544C80.4933 89.2544 79.7188 90.0288 79.7188 90.9841C79.7188 91.9395 80.4933 92.7139 81.4487 92.7139Z" fill="#8C8C8C"/>
<path d="M98.1563 96.8533C99.1117 96.8533 99.8863 96.0789 99.8863 95.1235C99.8863 94.1682 99.1117 93.3938 98.1563 93.3938C97.2008 93.3938 96.4263 94.1682 96.4263 95.1235C96.4263 96.0789 97.2008 96.8533 98.1563 96.8533Z" fill="#8C8C8C"/>
<path d="M115.274 93.264C116.229 93.264 117.004 92.4895 117.004 91.5342C117.004 90.5789 116.229 89.8044 115.274 89.8044C114.318 89.8044 113.544 90.5789 113.544 91.5342C113.544 92.4895 114.318 93.264 115.274 93.264Z" fill="#8C8C8C"/>
<path d="M109.475 87.5347C110.43 87.5347 111.205 86.7603 111.205 85.8049C111.205 84.8496 110.43 84.0752 109.475 84.0752C108.519 84.0752 107.745 84.8496 107.745 85.8049C107.745 86.7603 108.519 87.5347 109.475 87.5347Z" fill="#8C8C8C"/>
<path d="M86.148 87.4046C87.1034 87.4046 87.878 86.6301 87.878 85.6748C87.878 84.7195 87.1034 83.9451 86.148 83.9451C85.1925 83.9451 84.418 84.7195 84.418 85.6748C84.418 86.6301 85.1925 87.4046 86.148 87.4046Z" fill="#8C8C8C"/>
<path d="M76.4792 32.2724C76.1793 30.0827 74.1496 28.543 71.9599 28.8529C70.1601 29.1029 68.8003 30.5127 68.5404 32.2224C68.4804 32.5924 68.4804 32.9823 68.5404 33.3723C68.6703 34.3221 68.8403 35.252 69.0203 36.1619L76.7192 33.7322C76.6292 33.2523 76.5492 32.7624 76.4792 32.2724Z" fill="#FADDDC"/>
<path d="M90.8371 30.7927C90.5372 28.603 88.5075 27.0632 86.3178 27.3732C84.518 27.6232 83.1582 29.0329 82.8983 30.7427C82.8383 31.1127 82.8383 31.5026 82.8983 31.8925C83.0282 32.8424 83.1982 33.7723 83.3782 34.6821L91.0771 32.2525C90.9871 31.7726 90.9071 31.2826 90.8371 30.7927Z" fill="#FADDDC"/>
<path d="M103.405 69.0474C104.305 67.0277 103.385 64.658 101.366 63.7582C101.156 63.6582 80.4386 54.1995 76.7092 33.7324L69.0103 36.1621C73.9296 60.1587 97.0963 70.6372 98.1261 71.0871C100.146 71.977 102.506 71.0671 103.405 69.0374V69.0474Z" fill="#74E0C1"/>
<path d="M110.354 29.8628H88.7474C85.9978 29.8628 78.0589 30.8227 74.7794 34.6021C71.9298 37.8917 71.5198 42.8709 71.8998 54.7693C71.9998 57.9488 74.6194 60.4885 77.7989 60.4785C90.7271 60.4385 121.223 60.3585 121.223 60.3485C124.722 48.5101 124.672 44.0108 122.713 37.9916C120.533 31.2926 111.824 29.8628 110.344 29.8628H110.354Z" fill="#74E0C1"/>
<path d="M115.214 79.286H84.168C80.3386 79.286 77.109 76.2764 76.5991 72.247L73.2696 45.9907C72.6497 41.1214 76.2192 36.782 80.8385 36.782H117.873C122.413 36.782 125.952 40.9714 125.472 45.7707L122.813 72.027C122.393 76.1564 119.123 79.276 115.214 79.276V79.286Z" fill="#E5E5E5"/>
<path d="M117.873 44.2809C117.943 44.2809 118.133 44.2809 118.313 44.4909C118.493 44.7009 118.473 44.9108 118.463 44.9808L115.804 71.2371C115.774 71.5571 115.514 71.797 115.214 71.797H84.1681C83.8681 71.797 83.6182 71.5571 83.5782 71.2471L80.2486 44.9908C80.2486 44.9208 80.2086 44.7109 80.3886 44.4909C80.5686 44.2709 80.7686 44.2709 80.8386 44.2709H117.873M117.873 36.792H80.8386C76.2092 36.792 72.6497 41.1214 73.2696 46.0007L76.5992 72.257C77.1091 76.2864 80.3486 79.296 84.1681 79.296H115.214C119.113 79.296 122.393 76.1664 122.813 72.047L125.472 45.7907C125.962 40.9914 122.423 36.802 117.873 36.802V36.792Z" fill="#F7F7F7"/>
<path d="M82.8883 64.0879H116.274L115.534 71.3369L83.9182 71.3469L82.8883 64.0879Z" fill="#B2AEA6"/>
<path d="M47.0133 55.1692H4.84929C4.57319 55.1692 4.34937 55.393 4.34937 55.6691V95.1135C4.34937 95.3896 4.57319 95.6135 4.84929 95.6135H47.0133C47.2894 95.6135 47.5132 95.3896 47.5132 95.1135V55.6691C47.5132 55.393 47.2894 55.1692 47.0133 55.1692Z" fill="#E2E2E2"/>
<path d="M44.6336 57.499H7.23894C6.96284 57.499 6.73901 57.7228 6.73901 57.999V65.3079C6.73901 65.584 6.96284 65.8078 7.23894 65.8078H44.6336C44.9097 65.8078 45.1336 65.584 45.1336 65.3079V57.999C45.1336 57.7228 44.9097 57.499 44.6336 57.499Z" fill="white"/>
<path d="M44.6336 67.0576H7.23894C6.96284 67.0576 6.73901 67.2814 6.73901 67.5575V74.8665C6.73901 75.1426 6.96284 75.3664 7.23894 75.3664H44.6336C44.9097 75.3664 45.1336 75.1426 45.1336 74.8665V67.5575C45.1336 67.2814 44.9097 67.0576 44.6336 67.0576Z" fill="white"/>
<path d="M44.6336 76.6162H7.23894C6.96284 76.6162 6.73901 76.84 6.73901 77.1161V92.8239C6.73901 93.1 6.96284 93.3238 7.23894 93.3238H44.6336C44.9097 93.3238 45.1336 93.1 45.1336 92.8239V77.1161C45.1336 76.84 44.9097 76.6162 44.6336 76.6162Z" fill="white"/>
<path d="M30.4057 59.4287H20.967C20.4203 59.4287 19.9772 59.8719 19.9772 60.4186C19.9772 60.9653 20.4203 61.4084 20.967 61.4084H30.4057C30.9524 61.4084 31.3956 60.9653 31.3956 60.4186C31.3956 59.8719 30.9524 59.4287 30.4057 59.4287Z" fill="#B2AEA6"/>
<path d="M30.4057 69.1973H20.967C20.4203 69.1973 19.9772 69.6404 19.9772 70.1871C19.9772 70.7338 20.4203 71.177 20.967 71.177H30.4057C30.9524 71.177 31.3956 70.7338 31.3956 70.1871C31.3956 69.6404 30.9524 69.1973 30.4057 69.1973Z" fill="#B2AEA6"/>
<path d="M30.4057 79.0859H20.967C20.4203 79.0859 19.9772 79.5291 19.9772 80.0758C19.9772 80.6225 20.4203 81.0657 20.967 81.0657H30.4057C30.9524 81.0657 31.3956 80.6225 31.3956 80.0758C31.3956 79.5291 30.9524 79.0859 30.4057 79.0859Z" fill="#B2AEA6"/>
<path d="M47.0134 55.1693L42.874 51.5999H8.06891L4.84937 55.1693C4.84937 55.1693 47.1334 55.2893 47.0134 55.1693Z" fill="#C1BFBC"/>
</g>
<rect x="116.115" y="4.19507" width="40" height="16" rx="4" fill="#1C1C1C"/>
<path d="M126.013 11.4294C125.842 10.5164 125.085 10.0085 124.187 10.0134C122.966 10.0085 122.062 10.946 122.058 12.6599C122.062 14.3835 122.971 15.3113 124.187 15.3064C125.075 15.3113 125.827 14.8132 126.013 13.9099L127.097 13.9197C126.872 15.3162 125.734 16.2927 124.177 16.2927C122.336 16.2927 120.993 14.9207 120.993 12.6599C120.993 10.3992 122.346 9.0271 124.177 9.0271C125.671 9.0271 126.857 9.91089 127.097 11.4294H126.013ZM129.216 13.0505V16.1951H128.171V9.12476H129.196V11.7615H129.265C129.514 11.1853 130.012 10.824 130.837 10.824C131.926 10.824 132.653 11.4978 132.653 12.8259V16.1951H131.608V12.9529C131.608 12.1716 131.188 11.7224 130.485 11.7224C129.748 11.7224 129.216 12.2058 129.216 13.0505ZM133.669 14.7009C133.664 13.49 134.694 13.1775 135.651 13.1091C136.003 13.0896 136.799 13.0457 137.043 13.0359L137.038 12.6111C137.043 12.0105 136.672 11.6638 135.964 11.6638C135.349 11.6638 134.978 11.947 134.87 12.3376H133.835C133.928 11.4587 134.748 10.824 136.003 10.824C136.848 10.824 138.078 11.1316 138.083 12.6697V16.1951H137.067V15.4724H137.028C136.823 15.8679 136.335 16.3123 135.456 16.3123C134.45 16.3123 133.664 15.7361 133.669 14.7009ZM134.685 14.7107C134.685 15.2185 135.104 15.4773 135.69 15.4822C136.54 15.4773 137.048 14.9109 137.048 14.281L137.043 13.7976C136.804 13.8123 136.047 13.866 135.798 13.8806C135.114 13.9294 134.685 14.1882 134.685 14.7107ZM140.388 9.12476V16.1951H139.343V9.12476H140.388ZM144.636 12.3376C144.538 11.9177 144.206 11.6443 143.63 11.6443C143.034 11.6443 142.609 11.9519 142.614 12.3572C142.609 12.6697 142.858 12.8943 143.444 13.031L144.284 13.2263C145.261 13.446 145.734 13.9099 145.739 14.6619C145.734 15.6189 144.924 16.3025 143.571 16.3025C142.297 16.3025 141.545 15.7361 141.413 14.7498H142.478C142.57 15.2283 142.932 15.4675 143.562 15.4626C144.235 15.4675 144.67 15.1843 144.675 14.74C144.67 14.3982 144.416 14.1785 143.854 14.0466L143.024 13.8708C142.067 13.6609 141.569 13.1482 141.569 12.4158C141.569 11.4734 142.39 10.824 143.62 10.824C144.802 10.824 145.539 11.4246 145.642 12.3376H144.636ZM149.04 16.3025C147.478 16.3025 146.516 15.2234 146.521 13.5779C146.516 11.947 147.492 10.824 148.972 10.824C150.178 10.824 151.325 11.571 151.325 13.49V13.8611H147.556C147.585 14.8718 148.181 15.4431 149.05 15.4431C149.641 15.4431 150.026 15.1892 150.202 14.8669H151.257C151.022 15.7263 150.207 16.3025 149.04 16.3025ZM147.561 13.0798H150.3C150.3 12.2742 149.777 11.6785 148.981 11.6833C148.146 11.6785 147.604 12.3328 147.561 13.0798Z" fill="white"/>
</g>
<defs>
<clipPath id="clip0_14_1542">
<rect width="160" height="100" fill="white"/>
</clipPath>
<clipPath id="clip1_14_1542">
<rect width="159.977" height="100" fill="white"/>
</clipPath>
</defs>
</svg>
