<svg width="160" height="100" viewBox="0 0 160 100" fill="none" xmlns="http://www.w3.org/2000/svg">
<g clip-path="url(#clip0_14_336)">
<g clip-path="url(#clip1_14_336)">
<path d="M159.38 0.610107H0.619995V99.3801H159.38V0.610107Z" fill="#FFE45F"/>
<path d="M160 100H0V0H160V100ZM1.24 98.78H158.76V1.22H1.24V98.77V98.78Z" fill="#EFD9B4"/>
<path d="M85.79 78.91L87.92 91.05C88.22 92.75 89.7 93.99 91.42 93.99C93.32 93.99 94.88 92.5 94.97 90.61L95.58 77.98L85.79 78.91Z" fill="#3E2967"/>
<path d="M101.81 78.6001L101.44 90.7701C101.39 92.5601 102.77 94.0601 104.56 94.1501C106.13 94.2301 107.53 93.2001 107.92 91.6801L111.45 77.8201L101.81 78.6001Z" fill="#3E2967"/>
<path d="M115.58 90.4099L103.49 87.7999L110.72 86.5699L109.36 85.2199L100 86.4799V79.3899H96.91V86.4999L87.21 85.1499L85.45 86.2999L93.46 87.8799L80.64 90.4999L80.5 92.1299L96.83 90.0999L97.39 95.5699L99.24 95.5999L99.47 90.1699L115.8 92.0599L115.58 90.4099Z" fill="#8C8C8C"/>
<path d="M81.86 94.7001C82.7933 94.7001 83.55 93.9434 83.55 93.0101C83.55 92.0767 82.7933 91.3201 81.86 91.3201C80.9266 91.3201 80.17 92.0767 80.17 93.0101C80.17 93.9434 80.9266 94.7001 81.86 94.7001Z" fill="#8C8C8C"/>
<path d="M98.25 98.7599C99.1834 98.7599 99.94 98.0032 99.94 97.0699C99.94 96.1365 99.1834 95.3799 98.25 95.3799C97.3166 95.3799 96.56 96.1365 96.56 97.0699C96.56 98.0032 97.3166 98.7599 98.25 98.7599Z" fill="#8C8C8C"/>
<path d="M115.05 95.2401C115.983 95.2401 116.74 94.4835 116.74 93.5501C116.74 92.6167 115.983 91.8601 115.05 91.8601C114.117 91.8601 113.36 92.6167 113.36 93.5501C113.36 94.4835 114.117 95.2401 115.05 95.2401Z" fill="#8C8C8C"/>
<path d="M109.36 89.62C110.293 89.62 111.05 88.8634 111.05 87.93C111.05 86.9966 110.293 86.24 109.36 86.24C108.427 86.24 107.67 86.9966 107.67 87.93C107.67 88.8634 108.427 89.62 109.36 89.62Z" fill="#8C8C8C"/>
<path d="M86.46 89.4801C87.3934 89.4801 88.15 88.7235 88.15 87.7901C88.15 86.8567 87.3934 86.1001 86.46 86.1001C85.5267 86.1001 84.77 86.8567 84.77 87.7901C84.77 88.7235 85.5267 89.4801 86.46 89.4801Z" fill="#8C8C8C"/>
<path d="M159.38 0.610107H0.619995V41.9601H159.38V0.610107Z" fill="white"/>
<path d="M160 42.58H0V0H160V42.58ZM1.24 41.35H158.76V1.22H1.24V41.35Z" fill="white"/>
<path d="M159.38 43.5701H0.619995V48.1301H159.38V43.5701Z" fill="#B2AEA6"/>
<path d="M160 48.74H0V42.96H160V48.74ZM1.24 47.52H158.76V44.18H1.24V47.52Z" fill="#B2AEA6"/>
<path d="M77.33 24.18V5.60004C77.33 3.91004 75.95 2.54004 74.24 2.54004H44.11C42.4 2.54004 41.02 3.91004 41.02 5.60004V23.97C41.02 24.85 41.39 25.69 42.03 26.29L51.13 34.8C51.85 35.47 52.8 35.85 53.8 35.85H87.08C88.15 35.85 88.63 34.52 87.8 33.85L78.23 26.09C77.66 25.63 77.33 24.93 77.33 24.2V24.18Z" fill="#455767"/>
<path d="M74.01 5.66992H43.85V23.0699H74.01V5.66992Z" fill="#3888BA"/>
<path d="M58.97 8.29004H47.22V9.55004H58.97V8.29004Z" fill="#A0D1EA"/>
<path d="M62.52 12.6799H50.77V13.9399H62.52V12.6799Z" fill="#A0D1EA"/>
<path d="M59.31 16.76H47.56V18.02H59.31V16.76Z" fill="#A0D1EA"/>
<path d="M76.66 28.7899H51.56L50.05 27.6799H75.15L76.66 28.7899Z" fill="#506575"/>
<path d="M79.81 32.35H54.72L53.2 31.23H78.3L79.81 32.35Z" fill="#506575"/>
<path d="M101.16 12.6699H85.95V24.5499C85.95 27.2199 88.11 29.3799 90.78 29.3799H92.32C93.07 29.3799 93.68 29.9899 93.68 30.7399V32.2199C93.68 34.2699 95.35 35.9399 97.4 35.9399C99.45 35.9399 101.11 34.2799 101.11 32.2299L101.16 12.6699Z" fill="#FADDDC"/>
<path d="M88.24 24.9899H87.32C86.5 24.9899 85.83 24.3199 85.83 23.4999V18.9999C85.83 18.6599 86.11 18.3799 86.45 18.3799C86.79 18.3799 87.07 18.6599 87.07 18.9999V22.8999C87.07 23.3699 87.45 23.7499 87.92 23.7499H88.24C88.58 23.7499 88.86 24.0299 88.86 24.3699C88.86 24.7099 88.58 24.9899 88.24 24.9899Z" fill="#E0B1BB"/>
<path d="M89.76 19.1901C89.76 19.6401 90.13 20.0101 90.58 20.0101C91.03 20.0101 91.4 19.6401 91.4 19.1901C91.4 18.7401 91.03 18.3701 90.58 18.3701C90.13 18.3701 89.76 18.7401 89.76 19.1901Z" fill="#3E2967"/>
<path d="M93.5 7.90995C92.29 7.90995 91.16 7.44995 90.16 6.76995C89.41 6.24995 88.5 5.94995 87.51 5.94995C85.94 5.94995 84.55 6.72995 83.69 7.90995C83.12 8.68995 82.77 9.64995 82.77 10.69C82.77 12.5 83.8 14.06 85.3 14.86C85.46 14.94 85.62 15.03 85.79 15.1C86.78 15.5 87.94 15.74 89.18 15.74C90.69 15.74 92.09 15.39 93.2 14.81C93.96 14.41 94.77 14.15 95.63 14.15C97.29 14.15 98.64 15.5 98.64 17.16V20.13C98.64 21.47 99.73 22.56 101.07 22.56H101.11C102.04 22.56 102.79 21.81 102.79 20.88V12.93C102.79 10.16 100.54 7.90995 97.77 7.90995H93.48H93.5Z" fill="#3E2967"/>
<path d="M75.43 34.3101C75.13 32.1601 73.14 30.6501 70.99 30.9501C69.22 31.2001 67.89 32.5801 67.64 34.2601C67.59 34.6201 67.58 35.0001 67.64 35.3901C67.77 36.3201 67.93 37.2401 68.11 38.1301L75.67 35.7401C75.58 35.2701 75.5 34.7901 75.44 34.3101H75.43Z" fill="#FADDDC"/>
<path d="M89.53 32.8699C89.23 30.7199 87.24 29.2099 85.09 29.5099C83.32 29.7599 81.99 31.1399 81.74 32.8199C81.69 33.1799 81.68 33.5599 81.74 33.9499C81.87 34.8799 82.03 35.7999 82.21 36.6899L89.77 34.2999C89.68 33.8299 89.6 33.3499 89.54 32.8699H89.53Z" fill="#FADDDC"/>
<path d="M101.86 70.4C102.74 68.42 101.84 66.09 99.86 65.21C99.65 65.12 79.33 55.83 75.67 35.75L68.11 38.14C72.93 61.68 95.67 71.97 96.68 72.41C98.67 73.29 100.98 72.39 101.86 70.4Z" fill="#FADDDC"/>
<path d="M108.67 31.95H87.47C84.77 31.95 76.98 32.8899 73.76 36.5999C70.96 39.8299 70.56 44.7099 70.94 56.3899C71.04 59.5099 73.61 62 76.73 61.99C89.42 61.96 119.34 61.88 119.34 61.86C122.78 50.25 122.72 45.8299 120.8 39.9199C118.66 33.3499 110.11 31.95 108.67 31.95Z" fill="#18161C"/>
<path d="M113.45 80.45H82.98C79.23 80.45 76.05 77.5 75.55 73.54L72.29 47.77C71.68 42.99 75.18 38.74 79.72 38.74H116.06C120.52 38.74 123.99 42.85 123.51 47.56L120.9 73.33C120.49 77.38 117.28 80.45 113.45 80.45Z" fill="#E5E5E5"/>
<path d="M116.06 46.1C116.12 46.1 116.32 46.1 116.49 46.31C116.66 46.52 116.64 46.72 116.64 46.79L114.03 72.56C114 72.88 113.75 73.11 113.45 73.11H82.98C82.69 73.11 82.44 72.88 82.4 72.57L79.14 46.8C79.14 46.73 79.1 46.52 79.28 46.31C79.45 46.1 79.65 46.1 79.72 46.1H116.06ZM116.06 38.75H79.72C75.18 38.75 71.68 43 72.29 47.78L75.55 73.55C76.05 77.5 79.23 80.46 82.98 80.46H113.45C117.28 80.46 120.49 77.39 120.9 73.34L123.51 47.57C123.99 42.86 120.51 38.75 116.06 38.75Z" fill="#F7F7F7"/>
<path d="M81.39 65.8501H114.79L114.05 73.1001L82.42 73.1201L81.39 65.8501Z" fill="#B2AEA6"/>
<path d="M46.54 56.9399H4.37C4.09385 56.9399 3.87 57.1638 3.87 57.4399V96.8899C3.87 97.1661 4.09385 97.3899 4.37 97.3899H46.54C46.8161 97.3899 47.04 97.1661 47.04 96.8899V57.4399C47.04 57.1638 46.8161 56.9399 46.54 56.9399Z" fill="#E2E2E2"/>
<path d="M44.15 59.28H6.75C6.47386 59.28 6.25 59.5039 6.25 59.78V67.09C6.25 67.3662 6.47386 67.59 6.75 67.59H44.15C44.4261 67.59 44.65 67.3662 44.65 67.09V59.78C44.65 59.5039 44.4261 59.28 44.15 59.28Z" fill="white"/>
<path d="M44.15 68.8401H6.75C6.47386 68.8401 6.25 69.0639 6.25 69.3401V76.6501C6.25 76.9262 6.47386 77.1501 6.75 77.1501H44.15C44.4261 77.1501 44.65 76.9262 44.65 76.6501V69.3401C44.65 69.0639 44.4261 68.8401 44.15 68.8401Z" fill="white"/>
<path d="M44.15 78.3899H6.75C6.47386 78.3899 6.25 78.6138 6.25 78.8899V94.5999C6.25 94.876 6.47386 95.0999 6.75 95.0999H44.15C44.4261 95.0999 44.65 94.876 44.65 94.5999V78.8899C44.65 78.6138 44.4261 78.3899 44.15 78.3899Z" fill="white"/>
<path d="M29.92 61.2H20.48C19.9332 61.2 19.49 61.6432 19.49 62.1899C19.49 62.7367 19.9332 63.18 20.48 63.18H29.92C30.4668 63.18 30.91 62.7367 30.91 62.1899C30.91 61.6432 30.4668 61.2 29.92 61.2Z" fill="#B2AEA6"/>
<path d="M29.92 70.98H20.48C19.9332 70.98 19.49 71.4232 19.49 71.97C19.49 72.5167 19.9332 72.96 20.48 72.96H29.92C30.4668 72.96 30.91 72.5167 30.91 71.97C30.91 71.4232 30.4668 70.98 29.92 70.98Z" fill="#B2AEA6"/>
<path d="M29.92 80.8601H20.48C19.9332 80.8601 19.49 81.3033 19.49 81.8501C19.49 82.3969 19.9332 82.8401 20.48 82.8401H29.92C30.4668 82.8401 30.91 82.3969 30.91 81.8501C30.91 81.3033 30.4668 80.8601 29.92 80.8601Z" fill="#B2AEA6"/>
<path d="M46.53 56.9401L42.39 53.3701H7.57999L4.35999 56.9401C4.35999 56.9401 46.65 57.0601 46.53 56.9401Z" fill="#C1BFBC"/>
</g>
<rect x="121.615" y="4.19507" width="34" height="16" rx="4" fill="#1C1C1C"/>
<path d="M128.718 16.1951H126.423V9.12476H128.786C130.871 9.12476 132.111 10.448 132.116 12.6501C132.111 14.8572 130.871 16.1951 128.718 16.1951ZM127.497 15.2576H128.659C130.261 15.2527 131.052 14.3201 131.052 12.6501C131.052 10.9851 130.261 10.0623 128.718 10.0623H127.497V15.2576ZM132.995 14.7009C132.99 13.49 134.021 13.1775 134.978 13.1091C135.329 13.0896 136.125 13.0457 136.369 13.0359L136.364 12.6111C136.369 12.0105 135.998 11.6638 135.29 11.6638C134.675 11.6638 134.304 11.947 134.196 12.3376H133.161C133.254 11.4587 134.074 10.824 135.329 10.824C136.174 10.824 137.404 11.1316 137.409 12.6697V16.1951H136.394V15.4724H136.355C136.15 15.8679 135.661 16.3123 134.782 16.3123C133.776 16.3123 132.99 15.7361 132.995 14.7009ZM134.011 14.7107C134.011 15.2185 134.431 15.4773 135.017 15.4822C135.866 15.4773 136.374 14.9109 136.374 14.281L136.369 13.7976C136.13 13.8123 135.373 13.866 135.124 13.8806C134.441 13.9294 134.011 14.1882 134.011 14.7107ZM143.025 10.8923L141.101 16.1951H139.978L138.054 10.8923H139.177L140.515 14.9646H140.564L141.901 10.8923H143.025ZM143.874 16.1951V10.8923H144.919V16.1951H143.874ZM143.737 9.45679C143.742 9.11499 144.04 8.84155 144.401 8.84155C144.758 8.84155 145.056 9.11499 145.056 9.45679C145.056 9.79858 144.758 10.0769 144.401 10.072C144.04 10.0769 143.742 9.79858 143.737 9.45679ZM148.171 16.3025C146.892 16.2976 145.954 15.2673 145.954 13.5583C145.954 11.8298 146.906 10.824 148.181 10.824C149.167 10.824 149.524 11.4197 149.714 11.7517H149.763V9.12476H150.808V16.1951H149.792V15.365H149.714C149.519 15.7117 149.138 16.2976 148.171 16.3025ZM147.019 13.5388C147.014 14.6033 147.492 15.4089 148.405 15.4138C149.294 15.4089 149.792 14.6521 149.792 13.5388C149.792 12.4353 149.304 11.7078 148.405 11.7126C147.483 11.7078 147.014 12.4939 147.019 13.5388Z" fill="white"/>
</g>
<defs>
<clipPath id="clip0_14_336">
<rect width="160" height="100" fill="white"/>
</clipPath>
<clipPath id="clip1_14_336">
<rect width="160" height="100" fill="white"/>
</clipPath>
</defs>
</svg>
