<svg width="160" height="100" viewBox="0 0 160 100" fill="none" xmlns="http://www.w3.org/2000/svg">
<g clip-path="url(#clip0_14_316)">
<g clip-path="url(#clip1_14_316)">
<path d="M159.25 0.610107H0.619995V99.3801H159.25V0.610107Z" fill="#FFE45F"/>
<path d="M159.86 100H0V0H159.86V100ZM1.24 98.78H158.63V1.22H1.24V98.77V98.78Z" fill="#EFD9B4"/>
<path d="M159.39 82.55H0.76001V99.39H159.39V82.55Z" fill="white"/>
<path d="M160 99.9999H0.140015V81.9399H160V99.9999ZM1.37001 98.7799H158.76V83.1699H1.37001V98.7799Z" fill="white"/>
<path d="M56.19 39.5601L59.54 67.3101L68.21 39.5601H56.19Z" fill="white"/>
<path d="M39.92 82.6399L86.35 81.9899L84.83 51.2199C83.68 43.1699 85.15 38.3899 71.37 37.3999H54.03C44.2 38.4599 42.99 42.3399 42.99 48.4399L39.92 82.6299V82.6399Z" fill="#18161C"/>
<path d="M77.63 40.1C79.84 39.17 82.39 40.2 83.33 42.41C83.6 43.05 88.52 51.4 88.93 62.84L78.32 64.59C78.18 54.09 75.37 45.94 75.31 45.8C74.38 43.59 75.42 41.03 77.63 40.1Z" fill="#18161C"/>
<path d="M80.47 87.1901C79.94 88.0501 79.38 88.9101 78.78 89.7601C78.53 90.1101 78.24 90.4101 77.92 90.6601C76.44 91.8201 74.32 91.9301 72.71 90.7901C70.75 89.4001 70.28 86.6801 71.68 84.7201C71.99 84.2801 72.29 83.8301 72.58 83.3901C77.59 75.6401 78.91 71.7601 78.81 64.5101L87.55 63.0601C87.86 71.7001 86.48 77.4501 80.48 87.1901H80.47Z" fill="#FADDDC"/>
<path d="M48.11 88.8001C48.66 89.6501 49.24 90.4901 49.86 91.3301C50.12 91.6701 50.41 91.9701 50.74 92.2201C52.24 93.3501 54.37 93.4101 55.95 92.2301C57.88 90.8001 58.28 88.0701 56.85 86.1401C56.53 85.7101 56.22 85.2701 55.92 84.8301C50.74 77.2001 48.7 72.0801 48.63 64.8401L39.86 63.5801C39.74 72.2201 41.89 79.2001 48.1 88.8001H48.11Z" fill="#FADDDC"/>
<path d="M49.27 40.41C47.04 39.53 44.51 40.61 43.62 42.84C43.36 43.48 38.63 51.95 38.48 63.39L49.13 64.9C49.04 54.4 51.67 46.19 51.72 46.05C52.6 43.82 51.51 41.29 49.27 40.4V40.41Z" fill="#18161C"/>
<path d="M63.73 42.9299H62.34C59.82 42.9299 57.77 40.8799 57.77 38.3599V37.4399H68.31V38.3599C68.31 40.8799 66.26 42.9299 63.74 42.9299H63.73Z" fill="#3C3B42"/>
<path d="M59.15 18.1201H74.36V30.0001C74.36 32.6701 72.2 34.8301 69.53 34.8301H67.99C67.24 34.8301 66.63 35.4401 66.63 36.1901V37.6701C66.63 39.7201 64.96 41.3901 62.91 41.3901C60.86 41.3901 59.2 39.7301 59.2 37.6801L59.15 18.1201Z" fill="#FADDDC"/>
<path d="M69.44 30.4401H70.36C71.18 30.4401 71.85 29.7701 71.85 28.9501V24.4501C71.85 24.1101 71.57 23.8301 71.23 23.8301C70.89 23.8301 70.61 24.1101 70.61 24.4501V28.3501C70.61 28.8201 70.23 29.2001 69.76 29.2001H69.44C69.1 29.2001 68.82 29.4801 68.82 29.8201C68.82 30.1601 69.1 30.4401 69.44 30.4401Z" fill="#E0B1BB"/>
<path d="M67.92 24.6401C67.92 25.0901 67.55 25.4601 67.1 25.4601C66.65 25.4601 66.28 25.0901 66.28 24.6401C66.28 24.1901 66.65 23.8201 67.1 23.8201C67.55 23.8201 67.92 24.1901 67.92 24.6401Z" fill="#3E2967"/>
<path d="M66.81 13.3599C68.02 13.3599 69.15 12.8999 70.15 12.2199C70.9 11.6999 71.81 11.3999 72.8 11.3999C74.37 11.3999 75.76 12.1799 76.62 13.3599C77.19 14.1399 77.54 15.0999 77.54 16.1399C77.54 17.9499 76.51 19.5099 75.01 20.3099C74.85 20.3899 74.69 20.4799 74.52 20.5499C73.53 20.9499 72.37 21.1899 71.13 21.1899C69.62 21.1899 68.22 20.8399 67.11 20.2599C66.35 19.8599 65.54 19.5999 64.68 19.5999C63.02 19.5999 61.67 20.9499 61.67 22.6099V25.5799C61.67 26.9199 60.58 28.0099 59.24 28.0099H59.2C58.27 28.0099 57.52 27.2599 57.52 26.3299V18.3799C57.52 15.6099 59.77 13.3599 62.54 13.3599H66.83H66.81Z" fill="#3E2967"/>
<path d="M69.82 52.28H70.01V53.24C70.01 53.62 69.82 53.74 69.57 53.74C69.5 53.74 69.42 53.73 69.37 53.71L69.4 53.56C69.4 53.56 69.49 53.59 69.56 53.59C69.73 53.59 69.82 53.52 69.82 53.23V52.28Z" fill="white"/>
<path d="M70.42 53.2399C70.42 53.4899 70.58 53.5999 70.77 53.5999C70.9 53.5999 70.99 53.5799 71.06 53.5499L71.09 53.6799C71.02 53.7099 70.91 53.7499 70.74 53.7499C70.42 53.7499 70.23 53.5399 70.23 53.2299C70.23 52.9199 70.42 52.6699 70.72 52.6699C71.06 52.6699 71.14 52.9699 71.14 53.1599C71.14 53.1999 71.14 53.2299 71.14 53.2499H70.42V53.2399ZM70.97 53.0999C70.97 52.9799 70.92 52.7999 70.71 52.7999C70.52 52.7999 70.44 52.9699 70.42 53.0999H70.97Z" fill="white"/>
<path d="M71.38 52.9699C71.38 52.8599 71.38 52.7799 71.38 52.6899H71.55V52.8599H71.56C71.61 52.7599 71.73 52.6699 71.9 52.6699C72.04 52.6699 72.26 52.7599 72.26 53.1099V53.7299H72.07V53.1299C72.07 52.9599 72.01 52.8199 71.83 52.8199C71.71 52.8199 71.61 52.9099 71.58 53.0099C71.58 53.0299 71.57 53.0699 71.57 53.0999V53.7199H71.38V52.9699Z" fill="white"/>
<path d="M72.57 52.9699C72.57 52.8599 72.57 52.7799 72.57 52.6899H72.74V52.8599H72.75C72.8 52.7599 72.92 52.6699 73.09 52.6699C73.23 52.6699 73.45 52.7599 73.45 53.1099V53.7299H73.26V53.1299C73.26 52.9599 73.2 52.8199 73.02 52.8199C72.9 52.8199 72.8 52.9099 72.77 53.0099C72.77 53.0299 72.76 53.0699 72.76 53.0999V53.7199H72.57V52.9699Z" fill="white"/>
<path d="M73.84 52.51C73.77 52.51 73.73 52.46 73.73 52.39C73.73 52.32 73.78 52.27 73.85 52.27C73.92 52.27 73.97 52.32 73.97 52.39C73.97 52.45 73.93 52.51 73.85 52.51H73.84ZM73.75 53.72V52.69H73.94V53.72H73.75Z" fill="white"/>
<path d="M74.27 53.7199V52.8299H74.13V52.6899H74.27V52.6399C74.27 52.4899 74.3 52.3599 74.39 52.2799C74.46 52.2099 74.55 52.1799 74.64 52.1799C74.71 52.1799 74.76 52.1899 74.8 52.2099L74.78 52.3599C74.78 52.3599 74.71 52.3399 74.66 52.3399C74.5 52.3399 74.46 52.4799 74.46 52.6399V52.6999H74.71V52.8399H74.46V53.7299H74.27V53.7199Z" fill="white"/>
<path d="M74.95 53.2399C74.95 53.4899 75.11 53.5999 75.3 53.5999C75.43 53.5999 75.52 53.5799 75.59 53.5499L75.62 53.6799C75.55 53.7099 75.44 53.7499 75.27 53.7499C74.95 53.7499 74.76 53.5399 74.76 53.2299C74.76 52.9199 74.95 52.6699 75.25 52.6699C75.59 52.6699 75.67 52.9699 75.67 53.1599C75.67 53.1999 75.67 53.2299 75.67 53.2499H74.95V53.2399ZM75.5 53.0999C75.5 52.9799 75.45 52.7999 75.24 52.7999C75.05 52.7999 74.97 52.9699 74.95 53.0999H75.5Z" fill="white"/>
<path d="M75.92 53.0099C75.92 52.8899 75.92 52.7799 75.92 52.6899H76.08V52.8899H76.09C76.14 52.7499 76.25 52.6599 76.38 52.6599C76.4 52.6599 76.41 52.6599 76.43 52.6599V52.8399C76.43 52.8399 76.39 52.8399 76.37 52.8399C76.24 52.8399 76.14 52.9399 76.12 53.0799C76.12 53.1099 76.12 53.1399 76.12 53.1699V53.7199H75.93V53.0099H75.92Z" fill="white"/>
<path d="M126.87 94.86L116.66 62.93L103.87 56.46L74.82 93.56L126.87 94.86Z" fill="url(#paint0_linear_14_316)"/>
<path d="M147.53 57.17L132.04 38.54C131.78 39.16 131.34 39.69 130.78 40.05L145.86 58.2C146.29 57.71 146.87 57.35 147.52 57.18L147.53 57.17Z" fill="white"/>
<path d="M125.84 38.25C125.81 38.17 125.79 38.1 125.77 38.02L113.31 50.13L112.61 49.81C112.35 49.69 112.05 49.72 111.82 49.88L103.43 55.73C102.93 56.08 103 56.83 103.55 57.08L116.15 62.89C116.7 63.14 117.32 62.71 117.27 62.11L116.41 52C116.39 51.72 116.21 51.48 115.96 51.36L115.18 51L126.84 39.66C126.4 39.3 126.04 38.83 125.83 38.26L125.84 38.25Z" fill="white"/>
<path d="M147.29 63.4199L143.77 88.1799L145.69 88.4499L149.24 63.4699C148.96 63.5499 148.66 63.5999 148.35 63.5999C147.98 63.5999 147.62 63.5399 147.29 63.4199Z" fill="white"/>
<path d="M131.12 37.2999C131.12 36.1299 130.16 35.1899 128.99 35.1899C128.11 35.1899 127.36 35.7199 127.03 36.4599C126.92 36.7199 126.85 36.9999 126.85 37.2999C126.85 37.7399 126.99 38.1499 127.22 38.4799C127.6 39.0399 128.25 39.4099 128.99 39.4099C129.37 39.4099 129.73 39.3099 130.04 39.1399C130.66 38.7999 131.08 38.1599 131.12 37.4199C131.12 37.3799 131.12 37.3399 131.12 37.2999Z" fill="white"/>
<path d="M148.4 58.21C148.4 58.21 148.37 58.21 148.35 58.21C147.64 58.21 147.01 58.56 146.62 59.09C146.37 59.44 146.22 59.86 146.22 60.32C146.22 61.17 146.73 61.9 147.46 62.24C147.73 62.36 148.03 62.44 148.35 62.44C148.74 62.44 149.11 62.33 149.43 62.15C150.06 61.78 150.48 61.11 150.48 60.33C150.48 59.18 149.55 58.25 148.4 58.22V58.21Z" fill="white"/>
<path d="M142.09 95.65C148.369 95.65 153.46 93.3756 153.46 90.57C153.46 87.7644 148.369 85.49 142.09 85.49C135.81 85.49 130.72 87.7644 130.72 90.57C130.72 93.3756 135.81 95.65 142.09 95.65Z" fill="#F4EFEF"/>
<path d="M145.09 92.36C149.453 92.36 152.99 90.7796 152.99 88.83C152.99 86.8805 149.453 85.3 145.09 85.3C140.727 85.3 137.19 86.8805 137.19 88.83C137.19 90.7796 140.727 92.36 145.09 92.36Z" fill="white"/>
<path d="M47.57 69.4299H79.54C80.78 69.4299 81.79 70.4399 81.79 71.6799V95.3199H45.31V71.6799C45.31 70.4399 46.32 69.4299 47.56 69.4299H47.57Z" fill="#455767"/>
<path d="M63.85 85.96C65.5234 85.96 66.88 84.6168 66.88 82.96C66.88 81.3031 65.5234 79.96 63.85 79.96C62.1766 79.96 60.82 81.3031 60.82 82.96C60.82 84.6168 62.1766 85.96 63.85 85.96Z" fill="#969899"/>
</g>
<rect x="121.615" y="4.19507" width="34" height="16" rx="4" fill="#1C1C1C"/>
<path d="M128.718 16.1951H126.423V9.12476H128.786C130.871 9.12476 132.111 10.448 132.116 12.6501C132.111 14.8572 130.871 16.1951 128.718 16.1951ZM127.497 15.2576H128.659C130.261 15.2527 131.052 14.3201 131.052 12.6501C131.052 10.9851 130.261 10.0623 128.718 10.0623H127.497V15.2576ZM132.995 14.7009C132.99 13.49 134.021 13.1775 134.978 13.1091C135.329 13.0896 136.125 13.0457 136.369 13.0359L136.364 12.6111C136.369 12.0105 135.998 11.6638 135.29 11.6638C134.675 11.6638 134.304 11.947 134.196 12.3376H133.161C133.254 11.4587 134.074 10.824 135.329 10.824C136.174 10.824 137.404 11.1316 137.409 12.6697V16.1951H136.394V15.4724H136.355C136.15 15.8679 135.661 16.3123 134.782 16.3123C133.776 16.3123 132.99 15.7361 132.995 14.7009ZM134.011 14.7107C134.011 15.2185 134.431 15.4773 135.017 15.4822C135.866 15.4773 136.374 14.9109 136.374 14.281L136.369 13.7976C136.13 13.8123 135.373 13.866 135.124 13.8806C134.441 13.9294 134.011 14.1882 134.011 14.7107ZM143.025 10.8923L141.101 16.1951H139.978L138.054 10.8923H139.177L140.515 14.9646H140.564L141.901 10.8923H143.025ZM143.874 16.1951V10.8923H144.919V16.1951H143.874ZM143.737 9.45679C143.742 9.11499 144.04 8.84155 144.401 8.84155C144.758 8.84155 145.056 9.11499 145.056 9.45679C145.056 9.79858 144.758 10.0769 144.401 10.072C144.04 10.0769 143.742 9.79858 143.737 9.45679ZM148.171 16.3025C146.892 16.2976 145.954 15.2673 145.954 13.5583C145.954 11.8298 146.906 10.824 148.181 10.824C149.167 10.824 149.524 11.4197 149.714 11.7517H149.763V9.12476H150.808V16.1951H149.792V15.365H149.714C149.519 15.7117 149.138 16.2976 148.171 16.3025ZM147.019 13.5388C147.014 14.6033 147.492 15.4089 148.405 15.4138C149.294 15.4089 149.792 14.6521 149.792 13.5388C149.792 12.4353 149.304 11.7078 148.405 11.7126C147.483 11.7078 147.014 12.4939 147.019 13.5388Z" fill="white"/>
</g>
<defs>
<linearGradient id="paint0_linear_14_316" x1="100.78" y1="98.95" x2="101.5" y2="49.49" gradientUnits="userSpaceOnUse">
<stop offset="0.18" stop-color="#FFC800" stop-opacity="0"/>
<stop offset="0.72" stop-color="#FFAE00"/>
</linearGradient>
<clipPath id="clip0_14_316">
<rect width="160" height="100" fill="white"/>
</clipPath>
<clipPath id="clip1_14_316">
<rect width="160" height="100" fill="white"/>
</clipPath>
</defs>
</svg>
