<svg width="160" height="100" viewBox="0 0 160 100" fill="none" xmlns="http://www.w3.org/2000/svg">
<g clip-path="url(#clip0_14_287)">
<g clip-path="url(#clip1_14_287)">
<path d="M160 100H0V0H160V100ZM1.24 98.78H158.76V1.22H1.24V98.77V98.78Z" fill="#EFD9B4"/>
<path d="M159.38 0.610107H0.619995V41.9601H159.38V0.610107Z" fill="white"/>
<path d="M160 42.58H0V0H160V42.58ZM1.24 41.35H158.76V1.22H1.24V41.35Z" fill="white"/>
<path d="M159.38 43.5701H0.619995V48.1301H159.38V43.5701Z" fill="#B2AEA6"/>
<path d="M160 48.74H0V42.96H160V48.74ZM1.24 47.52H158.76V44.18H1.24V47.52Z" fill="#B2AEA6"/>
<path d="M96.71 71.93H64C59.97 71.93 56.56 68.98 56.02 65.02L52.52 39.25C51.87 34.47 55.63 30.22 60.5 30.22H99.52C104.31 30.22 108.04 34.33 107.52 39.04L104.72 64.81C104.28 68.86 100.83 71.93 96.72 71.93H96.71Z" fill="#E5E5E5"/>
<path d="M97.59 82.02L85.49 79.41L92.72 78.18L91.36 76.83L82 78.09V71H78.91V78.11L69.21 76.76L67.45 77.91L75.46 79.48L62.64 82.11L62.5 83.74L78.83 81.71L79.4 87.18L81.25 87.21L81.47 81.77L97.8 83.67L97.59 82.02Z" fill="#8C8C8C"/>
<path d="M63.86 86.3099C64.7933 86.3099 65.55 85.5533 65.55 84.6199C65.55 83.6866 64.7933 82.9299 63.86 82.9299C62.9266 82.9299 62.17 83.6866 62.17 84.6199C62.17 85.5533 62.9266 86.3099 63.86 86.3099Z" fill="#8C8C8C"/>
<path d="M80.25 90.37C81.1834 90.37 81.94 89.6134 81.94 88.68C81.94 87.7466 81.1834 86.99 80.25 86.99C79.3166 86.99 78.56 87.7466 78.56 88.68C78.56 89.6134 79.3166 90.37 80.25 90.37Z" fill="#8C8C8C"/>
<path d="M97.05 86.85C97.9833 86.85 98.74 86.0933 98.74 85.16C98.74 84.2266 97.9833 83.47 97.05 83.47C96.1166 83.47 95.36 84.2266 95.36 85.16C95.36 86.0933 96.1166 86.85 97.05 86.85Z" fill="#8C8C8C"/>
<path d="M91.36 81.2301C92.2933 81.2301 93.05 80.4735 93.05 79.5401C93.05 78.6067 92.2933 77.8501 91.36 77.8501C90.4266 77.8501 89.67 78.6067 89.67 79.5401C89.67 80.4735 90.4266 81.2301 91.36 81.2301Z" fill="#8C8C8C"/>
<path d="M68.47 81.09C69.4034 81.09 70.16 80.3333 70.16 79.4C70.16 78.4666 69.4034 77.71 68.47 77.71C67.5367 77.71 66.78 78.4666 66.78 79.4C66.78 80.3333 67.5367 81.09 68.47 81.09Z" fill="#8C8C8C"/>
<path d="M99.51 37.58C99.58 37.58 99.79 37.58 99.98 37.79C100.17 38 100.14 38.2 100.14 38.27L97.34 64.04C97.31 64.36 97.04 64.59 96.72 64.59H64.01C63.7 64.59 63.43 64.36 63.39 64.05L59.89 38.28C59.89 38.21 59.85 38 60.04 37.79C60.23 37.58 60.44 37.58 60.51 37.58H99.53M99.51 30.23H60.49C55.62 30.23 51.86 34.48 52.51 39.26L56.01 65.03C56.55 68.98 59.96 71.94 63.99 71.94H96.7C100.81 71.94 104.26 68.87 104.7 64.82L107.5 39.05C108.01 34.34 104.28 30.23 99.5 30.23H99.51Z" fill="#F7F7F7"/>
<path d="M62.52 57.05H97.76L96.98 64.3001L63.61 64.32L62.52 57.05Z" fill="#B2AEA6"/>
<path d="M46.09 56.6899H3.91998C3.64384 56.6899 3.41998 56.9138 3.41998 57.1899V96.6399C3.41998 96.9161 3.64384 97.1399 3.91998 97.1399H46.09C46.3661 97.1399 46.59 96.9161 46.59 96.6399V57.1899C46.59 56.9138 46.3661 56.6899 46.09 56.6899Z" fill="#E2E2E2"/>
<path d="M43.7 59.02H6.29999C6.02385 59.02 5.79999 59.2439 5.79999 59.52V66.83C5.79999 67.1062 6.02385 67.33 6.29999 67.33H43.7C43.9761 67.33 44.2 67.1062 44.2 66.83V59.52C44.2 59.2439 43.9761 59.02 43.7 59.02Z" fill="white"/>
<path d="M43.7 68.5801H6.29999C6.02385 68.5801 5.79999 68.8039 5.79999 69.0801V76.3901C5.79999 76.6662 6.02385 76.8901 6.29999 76.8901H43.7C43.9761 76.8901 44.2 76.6662 44.2 76.3901V69.0801C44.2 68.8039 43.9761 68.5801 43.7 68.5801Z" fill="white"/>
<path d="M43.7 78.1399H6.29999C6.02385 78.1399 5.79999 78.3638 5.79999 78.6399V94.3499C5.79999 94.626 6.02385 94.8499 6.29999 94.8499H43.7C43.9761 94.8499 44.2 94.626 44.2 94.3499V78.6399C44.2 78.3638 43.9761 78.1399 43.7 78.1399Z" fill="white"/>
<path d="M29.48 60.95H20.04C19.4932 60.95 19.05 61.3932 19.05 61.9399C19.05 62.4867 19.4932 62.93 20.04 62.93H29.48C30.0267 62.93 30.47 62.4867 30.47 61.9399C30.47 61.3932 30.0267 60.95 29.48 60.95Z" fill="#B2AEA6"/>
<path d="M29.48 70.72H20.04C19.4932 70.72 19.05 71.1632 19.05 71.71C19.05 72.2567 19.4932 72.7 20.04 72.7H29.48C30.0267 72.7 30.47 72.2567 30.47 71.71C30.47 71.1632 30.0267 70.72 29.48 70.72Z" fill="#B2AEA6"/>
<path d="M29.48 80.6101H20.04C19.4932 80.6101 19.05 81.0533 19.05 81.6001C19.05 82.1469 19.4932 82.5901 20.04 82.5901H29.48C30.0267 82.5901 30.47 82.1469 30.47 81.6001C30.47 81.0533 30.0267 80.6101 29.48 80.6101Z" fill="#B2AEA6"/>
<path d="M46.09 56.6901L41.95 53.1201H7.12997L3.90997 56.6901C3.90997 56.6901 46.2 56.8101 46.08 56.6901H46.09Z" fill="#C1BFBC"/>
</g>
</g>
<defs>
<clipPath id="clip0_14_287">
<rect width="160" height="100" fill="white"/>
</clipPath>
<clipPath id="clip1_14_287">
<rect width="160" height="100" fill="white"/>
</clipPath>
</defs>
</svg>
