<svg width="160" height="100" viewBox="0 0 160 100" fill="none" xmlns="http://www.w3.org/2000/svg">
<g clip-path="url(#clip0_14_278)">
<path d="M160 100H0V0H160V100ZM1.23753 98.7751H158.762V1.22489H1.23753V98.7751Z" fill="#EFD9B4"/>
<path d="M96.7005 99.0813H63.9926C59.9583 99.0813 56.5551 96.1293 56.0105 92.1729L52.5083 66.4012C51.8524 61.6241 55.6145 57.3738 60.4904 57.3738H99.5097C104.299 57.3738 108.024 61.4894 107.516 66.193L104.72 91.9647C104.274 96.0068 100.834 99.0813 96.7128 99.0813H96.7005Z" fill="#E5E5E5"/>
<path d="M99.5097 64.7353C99.5839 64.7353 99.7943 64.7353 99.9799 64.9436C100.166 65.1518 100.141 65.36 100.141 65.4213L97.344 91.1929C97.3069 91.5114 97.047 91.7441 96.7252 91.7441H64.0174C63.708 91.7441 63.4357 91.5114 63.3986 91.2052L59.8964 65.4335C59.8964 65.36 59.8593 65.1518 60.0449 64.9436C60.2305 64.7353 60.4409 64.7353 60.5152 64.7353H99.5344M99.5344 57.386H60.5152C55.6393 57.386 51.8896 61.6364 52.5331 66.4134L56.0353 92.1851C56.5674 96.1415 59.983 99.0935 64.0174 99.0935H96.7252C100.834 99.0935 104.287 96.0313 104.732 91.9769L107.529 66.2052C108.036 61.4894 104.311 57.386 99.522 57.386H99.5344Z" fill="white"/>
<path d="M159.381 82.5454H0.618774V99.3754H159.381V82.5454Z" fill="white"/>
<path d="M160 99.9999H0V81.9451H160V99.9999ZM1.23753 98.7751H158.762V83.17H1.23753V98.7751Z" fill="white"/>
</g>
<defs>
<clipPath id="clip0_14_278">
<rect width="160" height="100" fill="white"/>
</clipPath>
</defs>
</svg>
