<svg width="160" height="100" viewBox="0 0 160 100" fill="none" xmlns="http://www.w3.org/2000/svg">
<g clip-path="url(#clip0_14_1188)">
<g clip-path="url(#clip1_14_1188)">
<path d="M159.38 0.610107H0.619995V99.3801H159.38V0.610107Z" fill="#FFE45F"/>
<path d="M160 100H0V0H160V100ZM1.24 98.78H158.76V1.22H1.24V98.77V98.78Z" fill="#EFD9B4"/>
<path d="M159.38 0.610107H0.619995V41.9601H159.38V0.610107Z" fill="white"/>
<path d="M160 42.58H0V0H160V42.58ZM1.24 41.35H158.76V1.22H1.24V41.35Z" fill="white"/>
<path d="M160 42.4399H0V48.2299H160V42.4399Z" fill="#B2AEA6"/>
<path d="M46.54 56.9399H4.37C4.09385 56.9399 3.87 57.1638 3.87 57.4399V96.8899C3.87 97.1661 4.09385 97.3899 4.37 97.3899H46.54C46.8161 97.3899 47.04 97.1661 47.04 96.8899V57.4399C47.04 57.1638 46.8161 56.9399 46.54 56.9399Z" fill="#E2E2E2"/>
<path d="M44.15 59.28H6.75C6.47386 59.28 6.25 59.5039 6.25 59.78V67.09C6.25 67.3662 6.47386 67.59 6.75 67.59H44.15C44.4261 67.59 44.65 67.3662 44.65 67.09V59.78C44.65 59.5039 44.4261 59.28 44.15 59.28Z" fill="white"/>
<path d="M44.15 68.8401H6.75C6.47386 68.8401 6.25 69.0639 6.25 69.3401V76.6501C6.25 76.9262 6.47386 77.1501 6.75 77.1501H44.15C44.4261 77.1501 44.65 76.9262 44.65 76.6501V69.3401C44.65 69.0639 44.4261 68.8401 44.15 68.8401Z" fill="white"/>
<path d="M44.15 78.3899H6.75C6.47386 78.3899 6.25 78.6138 6.25 78.8899V94.5999C6.25 94.876 6.47386 95.0999 6.75 95.0999H44.15C44.4261 95.0999 44.65 94.876 44.65 94.5999V78.8899C44.65 78.6138 44.4261 78.3899 44.15 78.3899Z" fill="white"/>
<path d="M29.92 61.2H20.48C19.9332 61.2 19.49 61.6432 19.49 62.1899C19.49 62.7367 19.9332 63.18 20.48 63.18H29.92C30.4668 63.18 30.91 62.7367 30.91 62.1899C30.91 61.6432 30.4668 61.2 29.92 61.2Z" fill="#B2AEA6"/>
<path d="M29.92 70.98H20.48C19.9332 70.98 19.49 71.4232 19.49 71.97C19.49 72.5167 19.9332 72.96 20.48 72.96H29.92C30.4668 72.96 30.91 72.5167 30.91 71.97C30.91 71.4232 30.4668 70.98 29.92 70.98Z" fill="#B2AEA6"/>
<path d="M29.92 80.8601H20.48C19.9332 80.8601 19.49 81.3033 19.49 81.8501C19.49 82.3969 19.9332 82.8401 20.48 82.8401H29.92C30.4668 82.8401 30.91 82.3969 30.91 81.8501C30.91 81.3033 30.4668 80.8601 29.92 80.8601Z" fill="#B2AEA6"/>
<path d="M46.53 56.9401L42.39 53.3701H7.57999L4.35999 56.9401C4.35999 56.9401 46.65 57.0601 46.53 56.9401Z" fill="#C1BFBC"/>
<path d="M153.57 63.71H134.75C134.474 63.71 134.25 63.9338 134.25 64.21V93.59C134.25 93.8661 134.474 94.09 134.75 94.09H153.57C153.846 94.09 154.07 93.8661 154.07 93.59V64.21C154.07 63.9338 153.846 63.71 153.57 63.71Z" fill="#455767"/>
<path d="M152.47 65.46H135.84C135.564 65.46 135.34 65.6838 135.34 65.96V71.2C135.34 71.4761 135.564 71.7 135.84 71.7H152.47C152.746 71.7 152.97 71.4761 152.97 71.2V65.96C152.97 65.6838 152.746 65.46 152.47 65.46Z" fill="#506575"/>
<path d="M152.47 72.6399H135.84C135.564 72.6399 135.34 72.8638 135.34 73.1399V78.3799C135.34 78.656 135.564 78.8799 135.84 78.8799H152.47C152.746 78.8799 152.97 78.656 152.97 78.3799V73.1399C152.97 72.8638 152.746 72.6399 152.47 72.6399Z" fill="#506575"/>
<path d="M152.47 79.8201H135.84C135.564 79.8201 135.34 80.0439 135.34 80.3201V91.8701C135.34 92.1462 135.564 92.3701 135.84 92.3701H152.47C152.746 92.3701 152.97 92.1462 152.97 91.8701V80.3201C152.97 80.0439 152.746 79.8201 152.47 79.8201Z" fill="#506575"/>
<path d="M138.53 66.8999H137.88C137.471 66.8999 137.14 67.2312 137.14 67.6399V67.6499C137.14 68.0586 137.471 68.3899 137.88 68.3899H138.53C138.939 68.3899 139.27 68.0586 139.27 67.6499V67.6399C139.27 67.2312 138.939 66.8999 138.53 66.8999Z" fill="#B2FFA6"/>
<path d="M138.53 74.25H137.88C137.471 74.25 137.14 74.5813 137.14 74.99V75C137.14 75.4087 137.471 75.74 137.88 75.74H138.53C138.939 75.74 139.27 75.4087 139.27 75V74.99C139.27 74.5813 138.939 74.25 138.53 74.25Z" fill="#B2FEA6"/>
<path d="M141.31 66.8999H140.66C140.251 66.8999 139.92 67.2312 139.92 67.6399V67.6499C139.92 68.0586 140.251 68.3899 140.66 68.3899H141.31C141.719 68.3899 142.05 68.0586 142.05 67.6499V67.6399C142.05 67.2312 141.719 66.8999 141.31 66.8999Z" fill="#FF41A6"/>
<path d="M153.84 63.71L151.94 61.03H135.96L134.48 63.71C134.48 63.71 153.9 63.8 153.84 63.71Z" fill="#506575"/>
<path d="M91.76 78.91L93.89 91.05C94.19 92.75 95.67 93.99 97.39 93.99C99.29 93.99 100.85 92.5 100.94 90.61L101.55 77.98L91.76 78.91Z" fill="#3E2967"/>
<path d="M107.77 78.6001L107.4 90.7701C107.35 92.5601 108.73 94.0601 110.52 94.1501C112.09 94.2301 113.49 93.2001 113.88 91.6801L117.41 77.8201L107.77 78.6001Z" fill="#3E2967"/>
<path d="M121.55 90.4099L109.46 87.7999L116.68 86.5699L115.33 85.2199L105.96 86.4799V79.3899H102.88V86.4999L93.18 85.1499L91.41 86.2999L99.42 87.8799L86.6 90.4999L86.47 92.1299L102.79 90.0999L103.36 95.5699L105.21 95.5999L105.44 90.1699L121.76 92.0599L121.55 90.4099Z" fill="#8C8C8C"/>
<path d="M87.82 94.7001C88.7534 94.7001 89.51 93.9434 89.51 93.0101C89.51 92.0767 88.7534 91.3201 87.82 91.3201C86.8866 91.3201 86.13 92.0767 86.13 93.0101C86.13 93.9434 86.8866 94.7001 87.82 94.7001Z" fill="#8C8C8C"/>
<path d="M104.22 98.7599C105.153 98.7599 105.91 98.0032 105.91 97.0699C105.91 96.1365 105.153 95.3799 104.22 95.3799C103.287 95.3799 102.53 96.1365 102.53 97.0699C102.53 98.0032 103.287 98.7599 104.22 98.7599Z" fill="#8C8C8C"/>
<path d="M121.02 95.2401C121.953 95.2401 122.71 94.4835 122.71 93.5501C122.71 92.6167 121.953 91.8601 121.02 91.8601C120.087 91.8601 119.33 92.6167 119.33 93.5501C119.33 94.4835 120.087 95.2401 121.02 95.2401Z" fill="#8C8C8C"/>
<path d="M115.33 89.62C116.263 89.62 117.02 88.8634 117.02 87.93C117.02 86.9966 116.263 86.24 115.33 86.24C114.397 86.24 113.64 86.9966 113.64 87.93C113.64 88.8634 114.397 89.62 115.33 89.62Z" fill="#8C8C8C"/>
<path d="M74.51 26.8401H62.82V31.0101H74.51V26.8401Z" fill="#2F3C43"/>
<path d="M78.41 30.97H58.92V32.07H78.41V30.97Z" fill="#455767"/>
<path d="M89.09 0.310059H48.25C47.0902 0.310059 46.15 1.25026 46.15 2.41006V25.8701C46.15 27.0299 47.0902 27.9701 48.25 27.9701H89.09C90.2498 27.9701 91.19 27.0299 91.19 25.8701V2.41006C91.19 1.25026 90.2498 0.310059 89.09 0.310059Z" fill="#455767"/>
<path d="M89.18 2.33008H48.16V25.0801H89.18V2.33008Z" fill="#3888BA"/>
<path d="M88.38 25.8501H84.63C84.3483 25.8501 84.12 26.0784 84.12 26.3601V26.3701C84.12 26.6518 84.3483 26.8801 84.63 26.8801H88.38C88.6617 26.8801 88.89 26.6518 88.89 26.3701V26.3601C88.89 26.0784 88.6617 25.8501 88.38 25.8501Z" fill="#2F3C43"/>
<path d="M82.86 25.8501H82.65C82.3684 25.8501 82.14 26.0784 82.14 26.3601V26.3701C82.14 26.6518 82.3684 26.8801 82.65 26.8801H82.86C83.1417 26.8801 83.37 26.6518 83.37 26.3701V26.3601C83.37 26.0784 83.1417 25.8501 82.86 25.8501Z" fill="#2F3C43"/>
<path d="M62.42 4.83008H51.38V6.01008H62.42V4.83008Z" fill="#A0D1EA"/>
<path d="M67.28 4.83008H63.22V6.01008H67.28V4.83008Z" fill="#A0D16A"/>
<path d="M76.93 8.96997H66.54V10.15H76.93V8.96997Z" fill="#EFBA7F"/>
<path d="M57.65 16.4399H51.63V17.6199H57.65V16.4399Z" fill="#EFBA7F"/>
<path d="M65.76 8.95996H54.72V10.14H65.76V8.95996Z" fill="#A0D1EA"/>
<path d="M62.74 12.79H51.7V13.97H62.74V12.79Z" fill="#A0D1EA"/>
<path d="M74.44 12.79H63.4V13.97H74.44V12.79Z" fill="#A0D1EA"/>
<path d="M69.54 16.49H58.5V17.67H69.54V16.49Z" fill="#A0D1EA"/>
<path d="M91.32 29.3H52.81C51.8546 29.3 51.08 30.0746 51.08 31.0301V40.17C51.08 41.1255 51.8546 41.9001 52.81 41.9001H91.32C92.2755 41.9001 93.05 41.1255 93.05 40.17V31.0301C93.05 30.0746 92.2755 29.3 91.32 29.3Z" fill="#455767"/>
<path d="M55.33 30.4199H52.35V32.1099H55.33V30.4199Z" fill="#65747F"/>
<path d="M58.25 30.4199H55.68V32.1099H58.25V30.4199Z" fill="#65747F"/>
<path d="M61.22 30.4199H58.65V32.1099H61.22V30.4199Z" fill="#65747F"/>
<path d="M64.32 30.4199H61.75V32.1099H64.32V30.4199Z" fill="#65747F"/>
<path d="M67.41 30.4199H64.84V32.1099H67.41V30.4199Z" fill="#65747F"/>
<path d="M70.51 30.4199H67.94V32.1099H70.51V30.4199Z" fill="#65747F"/>
<path d="M73.6 30.4199H71.03V32.1099H73.6V30.4199Z" fill="#65747F"/>
<path d="M76.69 30.4199H74.12V32.1099H76.69V30.4199Z" fill="#65747F"/>
<path d="M79.79 30.4199H77.22V32.1099H79.79V30.4199Z" fill="#65747F"/>
<path d="M82.88 30.4199H80.31V32.1099H82.88V30.4199Z" fill="#65747F"/>
<path d="M85.98 30.4199H83.41V32.1099H85.98V30.4199Z" fill="#65747F"/>
<path d="M88.95 30.4199H86.38V32.1099H88.95V30.4199Z" fill="#65747F"/>
<path d="M91.81 30.4199H89.24V32.1099H91.81V30.4199Z" fill="#65747F"/>
<path d="M57.31 32.49H52.39V34.18H57.31V32.49Z" fill="#65747F"/>
<path d="M60.23 32.49H57.66V34.18H60.23V32.49Z" fill="#65747F"/>
<path d="M63.21 32.49H60.64V34.18H63.21V32.49Z" fill="#65747F"/>
<path d="M66.3 32.49H63.73V34.18H66.3V32.49Z" fill="#65747F"/>
<path d="M69.4 32.49H66.83V34.18H69.4V32.49Z" fill="#65747F"/>
<path d="M72.49 32.49H69.92V34.18H72.49V32.49Z" fill="#65747F"/>
<path d="M75.58 32.49H73.01V34.18H75.58V32.49Z" fill="#65747F"/>
<path d="M78.68 32.49H76.11V34.18H78.68V32.49Z" fill="#65747F"/>
<path d="M81.77 32.49H79.2V34.18H81.77V32.49Z" fill="#65747F"/>
<path d="M84.87 32.49H82.3V34.18H84.87V32.49Z" fill="#65747F"/>
<path d="M87.96 32.49H85.39V34.18H87.96V32.49Z" fill="#65747F"/>
<path d="M91.76 32.49H88.31V34.18H91.76V32.49Z" fill="#65747F"/>
<path d="M59.01 34.5901H52.35V36.2801H59.01V34.5901Z" fill="#65747F"/>
<path d="M61.93 34.5901H59.36V36.2801H61.93V34.5901Z" fill="#65747F"/>
<path d="M64.91 34.5901H62.34V36.2801H64.91V34.5901Z" fill="#65747F"/>
<path d="M68 34.5901H65.43V36.2801H68V34.5901Z" fill="#65747F"/>
<path d="M71.1 34.5901H68.53V36.2801H71.1V34.5901Z" fill="#65747F"/>
<path d="M74.19 34.5901H71.62V36.2801H74.19V34.5901Z" fill="#65747F"/>
<path d="M77.29 34.5901H74.72V36.2801H77.29V34.5901Z" fill="#65747F"/>
<path d="M80.38 34.5901H77.81V36.2801H80.38V34.5901Z" fill="#65747F"/>
<path d="M83.47 34.5901H80.9V36.2801H83.47V34.5901Z" fill="#65747F"/>
<path d="M86.57 34.5901H84V36.2801H86.57V34.5901Z" fill="#65747F"/>
<path d="M91.74 34.5901H87.09V36.2801H91.74V34.5901Z" fill="#65747F"/>
<path d="M59.97 36.8101H52.36V38.5001H59.97V36.8101Z" fill="#65747F"/>
<path d="M55.94 38.99H52.36V40.68H55.94V38.99Z" fill="#65747F"/>
<path d="M59.93 38.99H56.35V40.68H59.93V38.99Z" fill="#65747F"/>
<path d="M63.93 38.99H60.35V40.68H63.93V38.99Z" fill="#65747F"/>
<path d="M91.78 38.99H64.27V40.68H91.78V38.99Z" fill="#65747F"/>
<path d="M62.89 36.8101H60.32V38.5001H62.89V36.8101Z" fill="#65747F"/>
<path d="M65.87 36.8101H63.3V38.5001H65.87V36.8101Z" fill="#65747F"/>
<path d="M68.97 36.8101H66.4V38.5001H68.97V36.8101Z" fill="#65747F"/>
<path d="M72.06 36.8101H69.49V38.5001H72.06V36.8101Z" fill="#65747F"/>
<path d="M75.15 36.8101H72.58V38.5001H75.15V36.8101Z" fill="#65747F"/>
<path d="M78.25 36.8101H75.68V38.5001H78.25V36.8101Z" fill="#65747F"/>
<path d="M81.34 36.8101H78.77V38.5001H81.34V36.8101Z" fill="#65747F"/>
<path d="M84.44 36.8101H81.87V38.5001H84.44V36.8101Z" fill="#65747F"/>
<path d="M87.53 36.8101H84.96V38.5001H87.53V36.8101Z" fill="#65747F"/>
<path d="M91.75 36.8101H88.05V38.5001H91.75V36.8101Z" fill="#65747F"/>
<path d="M92.43 89.4801C93.3634 89.4801 94.12 88.7235 94.12 87.7901C94.12 86.8567 93.3634 86.1001 92.43 86.1001C91.4966 86.1001 90.74 86.8567 90.74 87.7901C90.74 88.7235 91.4966 89.4801 92.43 89.4801Z" fill="#8C8C8C"/>
<path d="M81.4 34.3101C81.1 32.1601 79.11 30.6501 76.96 30.9501C75.19 31.2001 73.86 32.5801 73.61 34.2601C73.56 34.6201 73.55 35.0001 73.61 35.3901C73.74 36.3201 73.9 37.2401 74.08 38.1301L81.64 35.7401C81.55 35.2701 81.47 34.7901 81.41 34.3101H81.4Z" fill="#FADDDC"/>
<path d="M95.49 32.8699C95.19 30.7199 93.2 29.2099 91.05 29.5099C89.28 29.7599 87.95 31.1399 87.7 32.8199C87.65 33.1799 87.64 33.5599 87.7 33.9499C87.83 34.8799 87.99 35.7999 88.17 36.6899L95.73 34.2999C95.64 33.8299 95.56 33.3499 95.5 32.8699H95.49Z" fill="#FADDDC"/>
<path d="M107.83 70.4C108.71 68.42 107.81 66.09 105.83 65.21C105.62 65.12 85.3 55.83 81.64 35.75L74.08 38.14C78.9 61.68 101.64 71.97 102.65 72.41C104.64 73.29 106.95 72.39 107.83 70.4Z" fill="#9A9A99"/>
<path d="M114.64 31.95H93.44C90.74 31.95 82.95 32.8899 79.73 36.5999C76.93 39.8299 76.53 44.7099 76.91 56.3899C77.01 59.5099 79.58 62 82.7 61.99C95.39 61.96 125.31 61.88 125.31 61.86C128.75 50.25 128.69 45.8299 126.77 39.9199C124.63 33.3499 116.08 31.95 114.64 31.95Z" fill="#9A9A99"/>
<path d="M119.41 80.45H88.94C85.19 80.45 82.01 77.5 81.51 73.54L78.25 47.77C77.64 42.99 81.14 38.74 85.68 38.74H122.02C126.48 38.74 129.95 42.85 129.47 47.56L126.86 73.33C126.45 77.38 123.24 80.45 119.41 80.45Z" fill="#E5E5E5"/>
<path d="M122.02 46.1C122.08 46.1 122.28 46.1 122.45 46.31C122.62 46.52 122.6 46.72 122.6 46.79L119.99 72.56C119.96 72.88 119.71 73.11 119.41 73.11H88.94C88.65 73.11 88.4 72.88 88.36 72.57L85.1 46.8C85.1 46.73 85.06 46.52 85.24 46.31C85.41 46.1 85.61 46.1 85.68 46.1H122.02ZM122.02 38.75H85.68C81.14 38.75 77.64 43 78.25 47.78L81.51 73.55C82.01 77.5 85.19 80.46 88.94 80.46H119.41C123.24 80.46 126.45 77.39 126.86 73.34L129.47 47.57C129.95 42.86 126.47 38.75 122.02 38.75Z" fill="#F7F7F7"/>
<path d="M109.84 10.28H95.63V15.06V23C95.63 25.49 97.65 27.51 100.14 27.51H101.57C102.27 27.51 102.84 28.08 102.84 28.78V32.4L109.55 29.9L109.84 10.28Z" fill="#FADDDC"/>
<path d="M96.07 23.2201L95.24 22.9901C94.5 22.7801 94.07 22.0101 94.28 21.2701L95.42 17.2301C95.51 16.9201 95.83 16.7401 96.14 16.8301C96.45 16.9201 96.63 17.2401 96.54 17.5501L95.56 21.0501C95.44 21.4701 95.69 21.9101 96.11 22.0201L96.4 22.1001C96.71 22.1901 96.89 22.5101 96.8 22.8201C96.71 23.1301 96.39 23.3101 96.08 23.2201H96.07Z" fill="#E0B1BB"/>
<path d="M98.06 17.1699C98.06 17.5899 98.4 17.9299 98.82 17.9299C99.24 17.9299 99.58 17.5899 99.58 17.1699C99.58 16.7499 99.24 16.4099 98.82 16.4099C98.4 16.4099 98.06 16.7499 98.06 17.1699Z" fill="#757570"/>
<path d="M106.55 20.95H107.26C107.79 20.95 108.22 20.5201 108.22 19.99V16.42C108.22 15.8898 107.79 15.46 107.26 15.46H106.55C106.02 15.46 105.59 15.8898 105.59 16.42V19.99C105.59 20.5201 106.02 20.95 106.55 20.95Z" fill="#FADDDC"/>
<path d="M101.8 5.26995C105.87 5.52995 108.92 6.22995 110.8 8.02995C112.28 9.45995 113.14 11.7199 113.26 13.7399C113.75 22.0499 109.89 23.7799 109.57 23.3699C109.45 23.2099 109.83 17.3299 109.83 17.3299C109.83 16.5999 109.24 16.0199 108.52 16.0199C107.8 16.0199 107.21 16.6099 107.21 17.3299C107.21 17.3299 107.3 19.0899 107.24 19.0599C99.29 15.5899 98.28 13.3699 96.06 10.3999C95.92 10.2099 95.85 14.6799 95.85 14.6799C95.85 14.6799 93.3 14.1799 93.8 11.1699C94.24 8.48995 97.39 4.98995 101.8 5.26995Z" fill="#3E2967"/>
<path d="M106.44 5.8999L112.73 6.8499L111.11 8.8099L106.44 5.8999Z" fill="#3E2967"/>
<path d="M87.36 65.8501H120.75L120.01 73.1001L88.39 73.1201L87.36 65.8501Z" fill="#B2AEA6"/>
<path d="M101.55 29.54H109.53C111.17 29.54 112.5 30.87 112.5 32.51C112.5 33.36 111.81 34.05 110.96 34.05H100.13C99.28 34.05 98.59 33.36 98.59 32.51C98.59 30.87 99.92 29.54 101.56 29.54H101.55Z" fill="white"/>
</g>
<rect x="123.615" y="4.19507" width="33" height="16" rx="4" fill="#1C1C1C"/>
<path d="M128.426 16.1951V9.12476H129.5V12.4939H129.588L132.547 9.12476H133.895L131.043 12.3083L133.904 16.1951H132.606L130.33 13.0408L129.5 13.9978V16.1951H128.426ZM136.59 16.3025C135.027 16.3025 134.066 15.2234 134.07 13.5779C134.066 11.947 135.042 10.824 136.522 10.824C137.728 10.824 138.875 11.571 138.875 13.49V13.8611H135.106C135.135 14.8718 135.731 15.4431 136.6 15.4431C137.191 15.4431 137.576 15.1892 137.752 14.8669H138.807C138.572 15.7263 137.757 16.3025 136.59 16.3025ZM135.11 13.0798H137.85C137.85 12.2742 137.327 11.6785 136.531 11.6833C135.696 11.6785 135.154 12.3328 135.11 13.0798ZM144.295 10.8923L142.371 16.1951H141.248L139.324 10.8923H140.447L141.785 14.9646H141.834L143.172 10.8923H144.295ZM145.145 16.1951V10.8923H146.19V16.1951H145.145ZM145.008 9.45679C145.013 9.11499 145.311 8.84155 145.672 8.84155C146.028 8.84155 146.326 9.11499 146.326 9.45679C146.326 9.79858 146.028 10.0769 145.672 10.072C145.311 10.0769 145.013 9.79858 145.008 9.45679ZM148.504 13.0505V16.1951H147.459V10.8923H148.465V11.7615H148.524C148.773 11.1902 149.295 10.824 150.086 10.824C151.175 10.824 151.898 11.5125 151.893 12.8259V16.1951H150.858V12.9529C150.853 12.1814 150.438 11.7224 149.734 11.7224C149.017 11.7224 148.504 12.2058 148.504 13.0505Z" fill="white"/>
</g>
<defs>
<clipPath id="clip0_14_1188">
<rect width="160" height="100" fill="white"/>
</clipPath>
<clipPath id="clip1_14_1188">
<rect width="160" height="100" fill="white"/>
</clipPath>
</defs>
</svg>
