<svg width="160" height="100" viewBox="0 0 160 100" fill="none" xmlns="http://www.w3.org/2000/svg">
<g clip-path="url(#clip0_14_1149)">
<g clip-path="url(#clip1_14_1149)">
<path d="M159.25 0.610107H0.619995V99.3801H159.25V0.610107Z" fill="#FFE45F"/>
<path d="M159.86 100H0V0H159.86V100ZM1.24 98.78H158.63V1.22H1.24V98.77V98.78Z" fill="#EFD9B4"/>
<path d="M159.39 82.55H0.76001V99.39H159.39V82.55Z" fill="white"/>
<path d="M160 99.9999H0.140015V81.9399H160V99.9999ZM1.37001 98.7799H158.76V83.1699H1.37001V98.7799Z" fill="white"/>
<path d="M72.65 43.8901C72.31 43.2901 71.82 42.8301 71.26 42.5101C69.48 40.8401 67.08 39.8201 64.44 39.8201H43.25C40.55 39.8201 38.08 40.7701 36.15 42.3401C35.45 42.6501 34.84 43.1801 34.43 43.8901C34.38 43.9801 34.23 44.2501 34 44.6801C33.35 45.6301 32.85 46.6901 32.52 47.8301C29.49 54.9301 24.66 70.5201 31.99 86.1201L39.16 83.6701C38.87 83.0801 38.6 82.4801 38.35 81.8901H68.73C68.48 82.4901 68.21 83.0801 67.92 83.6701L75.09 86.1201C84.79 65.4701 73.17 44.8001 72.65 43.9001V43.8901Z" fill="#9A9A99"/>
<path d="M31.45 84.9C30.45 83.09 31.12 80.83 32.95 79.84C34.45 79.03 36.26 79.33 37.41 80.47C37.66 80.72 37.88 81 38.06 81.33C38.49 82.11 38.89 82.9 39.26 83.68L32.09 86.13C31.89 85.72 31.68 85.31 31.45 84.91V84.9Z" fill="#FADDDC"/>
<path d="M75.64 85.0501C76.64 83.2401 75.97 80.9801 74.14 79.9901C72.64 79.1801 70.83 79.4801 69.68 80.6201C69.43 80.8701 69.21 81.1501 69.03 81.4801C68.6 82.2601 68.2 83.0501 67.83 83.8301L75 86.2801C75.2 85.8701 75.41 85.4601 75.64 85.0601V85.0501Z" fill="#FADDDC"/>
<path d="M57.64 19.05H42.75V32.37C42.75 34.98 44.87 37.1 47.48 37.1H48.98C49.71 37.1 50.31 37.6901 50.31 38.43V39.96H57.58L57.64 19.05Z" fill="#FADDDC"/>
<path d="M47.57 32.8001H46.67C45.86 32.8001 45.21 32.1501 45.21 31.3401V26.9401C45.21 26.6001 45.48 26.3301 45.82 26.3301C46.16 26.3301 46.43 26.6001 46.43 26.9401V30.7501C46.43 31.2101 46.8 31.5801 47.26 31.5801H47.57C47.91 31.5801 48.18 31.8501 48.18 32.1901C48.18 32.5301 47.91 32.8001 47.57 32.8001Z" fill="#E0B1BB"/>
<path d="M58.67 16.88L58.87 14.5H48.53C45.63 14.5 43.06 16.35 42.14 19.1L40.12 25.11H42.59C48.77 24.31 51.67 19.66 51.67 19.66C52.76 25.84 57.7 28.38 57.7 28.38C57.7 28.38 59.27 25.93 60.05 23.07C60.67 20.8 59.27 17.95 58.66 16.88H58.67Z" fill="#3E2967"/>
<path d="M50.16 27.06C50.16 27.5 50.52 27.86 50.96 27.86C51.4 27.86 51.76 27.5 51.76 27.06C51.76 26.62 51.4 26.26 50.96 26.26C50.52 26.26 50.16 26.62 50.16 27.06Z" fill="#757570"/>
<path d="M53.89 39.8401H46.55V43.3501C46.55 44.7101 48.19 45.3901 49.15 44.4301L53.76 39.9601L58.47 44.4701C59.43 45.4301 61.08 44.7501 61.08 43.3901V39.8401H53.89Z" fill="white"/>
<path d="M77.1 58.3601H32.28C31.1202 58.3601 30.18 59.3003 30.18 60.4601V86.3601C30.18 87.5199 31.1202 88.4601 32.28 88.4601H77.1C78.2598 88.4601 79.2 87.5199 79.2 86.3601V60.4601C79.2 59.3003 78.2598 58.3601 77.1 58.3601Z" fill="#455767"/>
<path d="M76.19 86.1499H72.02C71.7383 86.1499 71.51 86.3782 71.51 86.6599V86.7599C71.51 87.0416 71.7383 87.2699 72.02 87.2699H76.19C76.4717 87.2699 76.7 87.0416 76.7 86.7599V86.6599C76.7 86.3782 76.4717 86.1499 76.19 86.1499Z" fill="#2F3C43"/>
<path d="M70.18 86.1499H69.86C69.5783 86.1499 69.35 86.3782 69.35 86.6599V86.7599C69.35 87.0416 69.5783 87.2699 69.86 87.2699H70.18C70.4616 87.2699 70.69 87.0416 70.69 86.7599V86.6599C70.69 86.3782 70.4616 86.1499 70.18 86.1499Z" fill="#2F3C43"/>
<path d="M61.06 71.3999H48.33V91.7699H61.06V71.3999Z" fill="#2F3C43"/>
<path d="M54.33 74.7799C53.54 74.7799 52.82 75.0999 52.31 75.6199C51.79 76.1399 51.47 76.8499 51.47 77.6399C51.47 78.4299 51.79 79.1499 52.31 79.6599C52.83 80.1799 53.54 80.4999 54.33 80.4999C55.12 80.4999 55.84 80.1799 56.35 79.6599C56.87 79.1399 57.19 78.4299 57.19 77.6399C57.19 76.8499 56.87 76.1299 56.35 75.6199C55.83 75.0999 55.12 74.7799 54.33 74.7799ZM54.33 74.4299C56.1 74.4299 57.54 75.8699 57.54 77.6399C57.54 79.4099 56.1 80.8499 54.33 80.8499C52.56 80.8499 51.12 79.4099 51.12 77.6399C51.12 75.8699 52.56 74.4299 54.33 74.4299Z" fill="white"/>
<path d="M52.81 77.61C52.81 77.42 52.69 77.32 52.51 77.32H52.4V77.91H52.5C52.66 77.91 52.8 77.82 52.8 77.62M54.72 77.82L53.93 78.44L53.21 77.87C53.11 78.12 52.85 78.3 52.56 78.3H51.94V76.92H52.56C52.88 76.92 53.12 77.13 53.21 77.35L53.93 76.78L54.2 76.99L53.54 77.51L53.67 77.61L54.33 77.09L54.6 77.3L53.94 77.82L54.07 77.92L54.73 77.4V76.92H55.21V77.9H55.69V78.3H54.73V77.82H54.72ZM56.29 77.9H56.77V78.3H55.81V76.92H56.29V77.9Z" fill="white"/>
<path d="M65.29 91.73H44.08V92.92H65.29V91.73Z" fill="#455767"/>
<path d="M147.53 57.17L132.04 38.54C131.78 39.16 131.34 39.69 130.78 40.05L145.86 58.2C146.29 57.71 146.87 57.35 147.52 57.18L147.53 57.17Z" fill="#455767"/>
<path d="M125.69 37.3001C125.69 37.2201 125.69 37.1401 125.7 37.0601L109.85 44.1801L109.3 43.6401C109.1 43.4401 108.81 43.3601 108.54 43.4401L98.66 46.0601C98.07 46.2201 97.88 46.9401 98.31 47.3701L108.17 57.1401C108.6 57.5701 109.33 57.3701 109.49 56.7901L112.14 47.0001C112.21 46.7301 112.14 46.4401 111.94 46.2401L111.33 45.6401L126.17 38.9801C125.88 38.4901 125.71 37.9201 125.71 37.3201L125.69 37.3001Z" fill="#455767"/>
<path d="M147.29 63.4199L143.77 88.1799L145.69 88.4499L149.24 63.4699C148.96 63.5499 148.66 63.5999 148.35 63.5999C147.98 63.5999 147.62 63.5399 147.29 63.4199Z" fill="#455767"/>
<path d="M131.12 37.2999C131.12 36.1299 130.16 35.1899 128.99 35.1899C128.11 35.1899 127.36 35.7199 127.03 36.4599C126.92 36.7199 126.85 36.9999 126.85 37.2999C126.85 37.7399 126.99 38.1499 127.22 38.4799C127.6 39.0399 128.25 39.4099 128.99 39.4099C129.37 39.4099 129.73 39.3099 130.04 39.1399C130.66 38.7999 131.08 38.1599 131.12 37.4199C131.12 37.3799 131.12 37.3399 131.12 37.2999Z" fill="#455767"/>
<path d="M148.4 58.21C148.4 58.21 148.37 58.21 148.35 58.21C147.64 58.21 147.01 58.56 146.62 59.09C146.37 59.44 146.22 59.86 146.22 60.32C146.22 61.17 146.73 61.9 147.46 62.24C147.73 62.36 148.03 62.44 148.35 62.44C148.74 62.44 149.11 62.33 149.43 62.15C150.06 61.78 150.48 61.11 150.48 60.33C150.48 59.18 149.55 58.25 148.4 58.22V58.21Z" fill="#455767"/>
<path style="mix-blend-mode:darken" d="M97.45 91.7001L108.16 57.1301L98.3 47.3601L27.82 93.0301L97.45 91.7001Z" fill="url(#paint0_linear_14_1149)"/>
<path d="M145.09 92.36C149.453 92.36 152.99 90.7796 152.99 88.83C152.99 86.8805 149.453 85.3 145.09 85.3C140.727 85.3 137.19 86.8805 137.19 88.83C137.19 90.7796 140.727 92.36 145.09 92.36Z" fill="#455767"/>
</g>
<rect x="123.615" y="4.19507" width="33" height="16" rx="4" fill="#1C1C1C"/>
<path d="M128.426 16.1951V9.12476H129.5V12.4939H129.588L132.547 9.12476H133.895L131.043 12.3083L133.904 16.1951H132.606L130.33 13.0408L129.5 13.9978V16.1951H128.426ZM136.59 16.3025C135.027 16.3025 134.066 15.2234 134.07 13.5779C134.066 11.947 135.042 10.824 136.522 10.824C137.728 10.824 138.875 11.571 138.875 13.49V13.8611H135.106C135.135 14.8718 135.731 15.4431 136.6 15.4431C137.191 15.4431 137.576 15.1892 137.752 14.8669H138.807C138.572 15.7263 137.757 16.3025 136.59 16.3025ZM135.11 13.0798H137.85C137.85 12.2742 137.327 11.6785 136.531 11.6833C135.696 11.6785 135.154 12.3328 135.11 13.0798ZM144.295 10.8923L142.371 16.1951H141.248L139.324 10.8923H140.447L141.785 14.9646H141.834L143.172 10.8923H144.295ZM145.145 16.1951V10.8923H146.19V16.1951H145.145ZM145.008 9.45679C145.013 9.11499 145.311 8.84155 145.672 8.84155C146.028 8.84155 146.326 9.11499 146.326 9.45679C146.326 9.79858 146.028 10.0769 145.672 10.072C145.311 10.0769 145.013 9.79858 145.008 9.45679ZM148.504 13.0505V16.1951H147.459V10.8923H148.465V11.7615H148.524C148.773 11.1902 149.295 10.824 150.086 10.824C151.175 10.824 151.898 11.5125 151.893 12.8259V16.1951H150.858V12.9529C150.853 12.1814 150.438 11.7224 149.734 11.7224C149.017 11.7224 148.504 12.2058 148.504 13.0505Z" fill="white"/>
</g>
<defs>
<linearGradient id="paint0_linear_14_1149" x1="71.99" y1="76.1901" x2="89.5" y2="45.9301" gradientUnits="userSpaceOnUse">
<stop stop-color="white"/>
<stop offset="1" stop-color="#FFC552"/>
</linearGradient>
<clipPath id="clip0_14_1149">
<rect width="160" height="100" fill="white"/>
</clipPath>
<clipPath id="clip1_14_1149">
<rect width="160" height="100" fill="white"/>
</clipPath>
</defs>
</svg>
