<svg width="160" height="100" viewBox="0 0 160 100" fill="none" xmlns="http://www.w3.org/2000/svg">
<g clip-path="url(#clip0_14_1188)">
<path d="M159.38 0.610107H0.619995V99.3801H159.38V0.610107Z" fill="#FFDB92"/>
<path d="M160 100H0V0H160V100ZM1.24 98.78H158.76V1.22H1.24V98.77V98.78Z" fill="#EFD9B4"/>
<path d="M159.38 0.610107H0.619995V41.9601H159.38V0.610107Z" fill="white"/>
<path d="M160 42.58H0V0H160V42.58ZM1.24 41.35H158.76V1.22H1.24V41.35Z" fill="white"/>
<path d="M159.38 43.5701H0.619995V48.1301H159.38V43.5701Z" fill="#B2AEA6"/>
<path d="M160 48.74H0V42.96H160V48.74ZM1.24 47.52H158.76V44.18H1.24V47.52Z" fill="#B2AEA6"/>
<path d="M80.8 23.8901V7.1101C80.8 5.5801 79.55 4.3501 78.01 4.3501H50.82C49.28 4.3501 48.03 5.5901 48.03 7.1101V23.6901C48.03 24.4801 48.36 25.2401 48.94 25.7801L57.16 33.4601C57.81 34.0701 58.67 34.4101 59.57 34.4101H89.61C90.58 34.4101 91.01 33.2101 90.26 32.6001L81.62 25.5901C81.1 25.1701 80.8 24.5501 80.8 23.8801V23.8901Z" fill="#455767"/>
<path d="M77.8 7.17993H50.58V22.8799H77.8V7.17993Z" fill="#3888BA"/>
<path d="M64.24 9.54004H53.63V10.67H64.24V9.54004Z" fill="#A0D1EA"/>
<path d="M67.44 13.5H56.83V14.63H67.44V13.5Z" fill="#A0D1EA"/>
<path d="M64.5401 17.1799H53.9301V18.3099H64.5401V17.1799Z" fill="#A0D1EA"/>
<path d="M80.2001 28.05H57.5501L56.1801 27.04H78.8301L80.2001 28.05Z" fill="#506575"/>
<path d="M83.04 31.26H60.39L59.02 30.25H81.67L83.04 31.26Z" fill="#506575"/>
<path d="M116.89 30.1301C116.55 29.5301 116.06 29.0701 115.5 28.7501C113.72 27.0801 111.32 26.0601 108.67 26.0601H87.4701C84.7701 26.0601 82.3001 27.0101 80.3601 28.5801C79.6601 28.8901 79.0501 29.4201 78.6401 30.1301C78.5901 30.2201 78.4401 30.4901 78.2101 30.9201C77.5601 31.8701 77.0601 32.9301 76.7301 34.0701C73.7001 41.1701 68.8701 40.4201 76.2001 56.0101C76.2001 56.0101 119.34 55.9801 119.34 55.9701C129.02 35.3301 117.4 31.0301 116.88 30.1301H116.89Z" fill="#9A9A99"/>
<path d="M90.74 7.41992V18.4799C90.74 20.5099 91.98 22.2399 93.74 22.9999C94.33 23.2499 94.71 23.8399 94.71 24.4699V26.0199H100.75V24.4699C100.75 23.8299 101.13 23.2499 101.72 22.9999C103.49 22.2499 104.72 20.5099 104.72 18.4799V7.41992H90.73H90.74Z" fill="#FADDDC"/>
<path d="M96.1 1.06006C93.43 1.06006 88.2 4.33006 88.2 11.0901C88.2 13.9501 88.31 18.0301 91.87 20.9001C94.05 22.6501 95.59 24.5001 97.77 24.4301C101.22 24.3201 102.9 20.9301 104.45 19.3601C106.14 17.6501 107.7 14.3001 105.9 8.45006C103.56 0.850059 98.44 1.07006 96.1 1.07006V1.06006Z" fill="#3E2967"/>
<path d="M114.6 78.19H81.89C77.86 78.19 74.45 75.24 73.91 71.28L70.41 45.51C69.76 40.73 73.52 36.48 78.39 36.48H117.41C122.2 36.48 125.93 40.59 125.41 45.3L122.61 71.07C122.17 75.12 118.72 78.19 114.61 78.19H114.6Z" fill="#E5E5E5"/>
<path d="M117.4 43.84C117.47 43.84 117.68 43.84 117.87 44.05C118.06 44.26 118.03 44.46 118.03 44.53L115.23 70.3C115.2 70.62 114.93 70.85 114.61 70.85H81.9C81.59 70.85 81.32 70.62 81.28 70.31L77.78 44.54C77.78 44.47 77.74 44.26 77.93 44.05C78.12 43.84 78.33 43.84 78.4 43.84H117.42M117.42 36.49H78.4C73.53 36.49 69.77 40.74 70.42 45.52L73.92 71.29C74.46 75.24 77.87 78.2 81.9 78.2H114.61C118.72 78.2 122.17 75.13 122.61 71.08L125.41 45.31C125.92 40.6 122.19 36.49 117.41 36.49H117.42Z" fill="#F7F7F7"/>
<rect x="123.615" y="4.19507" width="33" height="16" rx="4" fill="#1C1C1C"/>
<path d="M128.426 16.1951V9.12476H129.5V12.4939H129.588L132.547 9.12476H133.895L131.043 12.3083L133.904 16.1951H132.606L130.33 13.0408L129.5 13.9978V16.1951H128.426ZM136.59 16.3025C135.027 16.3025 134.066 15.2234 134.07 13.5779C134.066 11.947 135.042 10.824 136.522 10.824C137.728 10.824 138.875 11.571 138.875 13.49V13.8611H135.106C135.135 14.8718 135.731 15.4431 136.6 15.4431C137.191 15.4431 137.576 15.1892 137.752 14.8669H138.807C138.572 15.7263 137.757 16.3025 136.59 16.3025ZM135.11 13.0798H137.85C137.85 12.2742 137.327 11.6785 136.531 11.6833C135.696 11.6785 135.154 12.3328 135.11 13.0798ZM144.295 10.8923L142.371 16.1951H141.248L139.324 10.8923H140.447L141.785 14.9646H141.834L143.172 10.8923H144.295ZM145.145 16.1951V10.8923H146.19V16.1951H145.145ZM145.008 9.45679C145.013 9.11499 145.311 8.84155 145.672 8.84155C146.028 8.84155 146.326 9.11499 146.326 9.45679C146.326 9.79858 146.028 10.0769 145.672 10.072C145.311 10.0769 145.013 9.79858 145.008 9.45679ZM148.504 13.0505V16.1951H147.459V10.8923H148.465V11.7615H148.524C148.773 11.1902 149.295 10.824 150.086 10.824C151.175 10.824 151.898 11.5125 151.893 12.8259V16.1951H150.858V12.9529C150.853 12.1814 150.438 11.7224 149.734 11.7224C149.017 11.7224 148.504 12.2058 148.504 13.0505Z" fill="white"/>
</g>
<defs>
<clipPath id="clip0_14_1188">
<rect width="160" height="100" fill="white"/>
</clipPath>
</defs>
</svg>
