<svg width="160" height="100" viewBox="0 0 160 100" fill="none" xmlns="http://www.w3.org/2000/svg">
<g clip-path="url(#clip0_85_1150)">
<g clip-path="url(#clip1_85_1150)">
<path d="M159.228 0.617188H0.619995V99.3732H159.228V0.617188Z" fill="#FFE45F"/>
<path d="M159.837 99.9931H0V0.00732422H159.837V99.9931ZM1.23982 98.7733H158.607V1.22715H1.23982V98.7633V98.7733Z" fill="#EFD9B4"/>
<path d="M159.368 82.5454H0.76001V99.383H159.368V82.5454Z" fill="white"/>
<path d="M159.977 99.993H0.140015V81.9355H159.977V99.993ZM1.36984 98.7732H158.738V83.1654H1.36984V98.7732Z" fill="white"/>
<path d="M72.6398 43.8912C72.2998 43.2913 71.8099 42.8313 71.25 42.5114C69.4702 40.8416 67.0705 39.8218 64.4309 39.8218H43.2439C40.5443 39.8218 38.0747 40.7716 36.1449 42.3414C35.445 42.6514 34.8351 43.1813 34.4252 43.8912C34.3752 43.9812 34.2252 44.2512 33.9952 44.6811C33.3453 45.631 32.8454 46.6908 32.5154 47.8306C29.4859 54.9296 24.6566 70.5174 31.9855 86.1152L39.1545 83.6656C38.8645 83.0756 38.5946 82.4757 38.3446 81.8858H68.7203C68.4704 82.4857 68.2004 83.0756 67.9104 83.6656L75.0794 86.1152C84.778 65.4681 73.1597 44.8011 72.6398 43.9012V43.8912Z" fill="#3E2967"/>
<path d="M31.4456 84.8955C30.4457 83.0858 31.1156 80.8261 32.9454 79.8362C34.4451 79.0263 36.2549 79.3263 37.4047 80.4661C37.6547 80.7161 37.8747 80.9961 38.0546 81.326C38.4846 82.1059 38.8845 82.8958 39.2545 83.6757L32.0855 86.1253C31.8855 85.7154 31.6755 85.3055 31.4456 84.9055V84.8955Z" fill="#FADDDC"/>
<path d="M75.6293 85.0454C76.6292 83.2357 75.9593 80.976 74.1295 79.9861C72.6298 79.1762 70.82 79.4762 69.6702 80.616C69.4202 80.866 69.2002 81.146 69.0203 81.4759C68.5903 82.2558 68.1904 83.0457 67.8204 83.8256L74.9894 86.2752C75.1894 85.8653 75.3994 85.4554 75.6293 85.0554V85.0454Z" fill="#FADDDC"/>
<path d="M49.8829 19.9746H65.7507V31.033C65.7507 34.5525 62.9011 37.4021 59.3816 37.4021H59.1016C58.3217 37.4021 57.6918 38.0321 57.6918 38.8119V40.6817C57.6918 42.8214 55.9521 44.5611 53.8124 44.5611C51.6727 44.5611 49.9429 42.8314 49.9329 40.6917L49.8829 19.9746Z" fill="#FADDDC"/>
<path d="M52.1126 12.0558C50.9127 12.1757 48.3131 13.1856 46.7633 14.4954C45.2136 15.8052 43.1339 17.8849 42.4839 18.5348C41.834 19.1847 39.5044 21.5644 38.9744 22.3943C37.9646 23.9941 36.5948 27.2636 37.0747 31.243C37.5546 35.2225 41.764 39.6218 46.9333 40.7517C52.1026 41.8815 59.4715 42.5914 63.9909 39.3219C68.5103 36.0523 70.17 33.1428 69.6401 28.9234C69.1102 24.704 67.0305 22.1543 65.8406 20.6645C64.6508 19.1747 64.7108 16.5651 62.0412 14.8454C59.3715 13.1256 56.9319 11.5758 52.1226 12.0558H52.1126Z" fill="#FCC31E"/>
<path d="M52.9625 37.6522C57.093 37.6522 60.4414 34.3038 60.4414 30.1733C60.4414 26.0428 57.093 22.6943 52.9625 22.6943C48.832 22.6943 45.4835 26.0428 45.4835 30.1733C45.4835 34.3038 48.832 37.6522 52.9625 37.6522Z" fill="#FADDDC"/>
<path d="M50.5931 31.0428C51.7308 31.0428 52.6531 30.1206 52.6531 28.983C52.6531 27.8455 51.7308 26.9233 50.5931 26.9233C49.4554 26.9233 48.5331 27.8455 48.5331 28.983C48.5331 30.1206 49.4554 31.0428 50.5931 31.0428Z" fill="#F1F0EB"/>
<path d="M57.0122 31.0428C58.1499 31.0428 59.0722 30.1206 59.0722 28.983C59.0722 27.8455 58.1499 26.9233 57.0122 26.9233C55.8744 26.9233 54.9521 27.8455 54.9521 28.983C54.9521 30.1206 55.8744 31.0428 57.0122 31.0428Z" fill="#F1F0EB"/>
<path d="M52.4626 34.2027H53.2126C53.8826 34.2027 54.4326 33.6528 54.4326 32.9829V29.3034C54.4326 29.0234 54.2026 28.7935 53.9226 28.7935C53.6426 28.7935 53.4126 29.0234 53.4126 29.3034V32.4929C53.4126 32.8729 53.1026 33.1828 52.7226 33.1828H52.4626C52.1826 33.1828 51.9526 33.4128 51.9526 33.6928C51.9526 33.9727 52.1826 34.2027 52.4626 34.2027Z" fill="#E0B1BB"/>
<path d="M47.9532 29.0032C47.9532 30.453 49.1331 31.6228 50.5729 31.6228C52.0127 31.6228 53.0625 30.553 53.1725 29.2132H54.3923C54.4823 30.583 55.6122 31.6728 57.002 31.6728C58.3918 31.6728 59.6216 30.493 59.6216 29.0532C59.6216 27.6034 58.4418 26.4335 57.002 26.4335C55.8121 26.4335 54.8223 27.2334 54.5023 28.3133H53.0925C52.7826 27.2034 51.7827 26.3936 50.5729 26.3936C49.1231 26.3936 47.9532 27.5734 47.9532 29.0132V29.0032ZM55.4122 29.0532C55.4122 28.1733 56.1221 27.4634 57.002 27.4634C57.8818 27.4634 58.5917 28.1733 58.5917 29.0532C58.5917 29.9331 57.8818 30.643 57.002 30.643C56.1221 30.643 55.4122 29.9331 55.4122 29.0532ZM48.9831 29.0032C48.9831 28.1233 49.693 27.4134 50.5729 27.4134C51.4528 27.4134 52.1626 28.1233 52.1626 29.0032C52.1626 29.8831 51.4528 30.593 50.5729 30.593C49.693 30.593 48.9831 29.8831 48.9831 29.0032Z" fill="#898989"/>
<path d="M47.1234 19.3247C47.7254 19.3247 48.2134 18.8368 48.2134 18.2349C48.2134 17.633 47.7254 17.145 47.1234 17.145C46.5215 17.145 46.0334 17.633 46.0334 18.2349C46.0334 18.8368 46.5215 19.3247 47.1234 19.3247Z" fill="#D6952D"/>
<path d="M63.5811 23.2441C64.1831 23.2441 64.6711 22.7562 64.6711 22.1543C64.6711 21.5524 64.1831 21.0645 63.5811 21.0645C62.9791 21.0645 62.4911 21.5524 62.4911 22.1543C62.4911 22.7562 62.9791 23.2441 63.5811 23.2441Z" fill="#D6952D"/>
<path d="M45.6337 38.5019C46.1252 38.5019 46.5237 38.1035 46.5237 37.612C46.5237 37.1206 46.1252 36.7222 45.6337 36.7222C45.1421 36.7222 44.7437 37.1206 44.7437 37.612C44.7437 38.1035 45.1421 38.5019 45.6337 38.5019Z" fill="#D6952D"/>
<path d="M62.7512 27.5034C63.2427 27.5034 63.6412 27.105 63.6412 26.6135C63.6412 26.122 63.2427 25.7236 62.7512 25.7236C62.2597 25.7236 61.8612 26.122 61.8612 26.6135C61.8612 27.105 62.2597 27.5034 62.7512 27.5034Z" fill="#D6952D"/>
<path d="M42.904 23.4639C43.1305 23.4639 43.314 23.2804 43.314 23.054C43.314 22.8276 43.1305 22.644 42.904 22.644C42.6776 22.644 42.494 22.8276 42.494 23.054C42.494 23.2804 42.6776 23.4639 42.904 23.4639Z" fill="#D6952D"/>
<path d="M63.7611 32.3126C63.9875 32.3126 64.1711 32.129 64.1711 31.9026C64.1711 31.6762 63.9875 31.4927 63.7611 31.4927C63.5346 31.4927 63.3511 31.6762 63.3511 31.9026C63.3511 32.129 63.5346 32.3126 63.7611 32.3126Z" fill="#D6952D"/>
<path d="M40.0444 30.8328C40.2101 30.8328 40.3444 30.6985 40.3444 30.5329C40.3444 30.3672 40.2101 30.2329 40.0444 30.2329C39.8787 30.2329 39.7444 30.3672 39.7444 30.5329C39.7444 30.6985 39.8787 30.8328 40.0444 30.8328Z" fill="#D6952D"/>
<path d="M66.4306 28.6932C66.5963 28.6932 66.7306 28.5589 66.7306 28.3932C66.7306 28.2276 66.5963 28.0933 66.4306 28.0933C66.2649 28.0933 66.1306 28.2276 66.1306 28.3932C66.1306 28.5589 66.2649 28.6932 66.4306 28.6932Z" fill="#D6952D"/>
<path d="M40.2243 26.6136C40.517 26.6136 40.7543 26.3763 40.7543 26.0836C40.7543 25.791 40.517 25.5537 40.2243 25.5537C39.9316 25.5537 39.6943 25.791 39.6943 26.0836C39.6943 26.3763 39.9316 26.6136 40.2243 26.6136Z" fill="#D6952D"/>
<path d="M62.5312 12.4456C61.6712 13.6054 61.3812 15.0052 61.6412 16.255C62.9112 16.135 64.1612 15.4651 65.0312 14.2953C65.8912 13.1355 66.1812 11.7357 65.9212 10.4858C64.6512 10.6058 63.4012 11.2757 62.5312 12.4456Z" fill="#2D963A"/>
<path d="M64.3912 13.5656C63.0412 14.0955 62.0612 15.1254 61.6112 16.3152C62.7412 16.8851 64.1712 16.9851 65.5212 16.4552C66.8712 15.9253 67.8512 14.8954 68.3012 13.7056C67.1712 13.1357 65.7412 13.0357 64.3912 13.5656Z" fill="#3EB750"/>
<path d="M39.4244 63.2085H67.6603C68.9002 63.2085 69.91 64.2184 69.91 65.4582V86.4452H37.1647V65.4582C37.1647 64.2184 38.1745 63.2085 39.4144 63.2085H39.4244Z" fill="#F7F7F7"/>
<path d="M53.8028 78.0365C55.305 78.0365 56.5228 76.8323 56.5228 75.3468C56.5228 73.8614 55.305 72.6572 53.8028 72.6572C52.3006 72.6572 51.0828 73.8614 51.0828 75.3468C51.0828 76.8323 52.3006 78.0365 53.8028 78.0365Z" fill="#CED5D8"/>
<path d="M53.5426 53.7597C52.8426 54.6996 52.6126 55.8394 52.8226 56.8493C53.8526 56.7593 54.8726 56.2093 55.5726 55.2595C56.2726 54.3096 56.5026 53.1798 56.2926 52.1699C55.2626 52.2599 54.2426 52.8098 53.5426 53.7597Z" fill="#2D963A"/>
<path d="M55.0625 54.6696C53.9725 55.0995 53.1725 55.9294 52.8025 56.8993C53.7225 57.3692 54.8825 57.4392 55.9725 57.0193C57.0625 56.5993 57.8625 55.7594 58.2325 54.7896C57.3125 54.3196 56.1525 54.2496 55.0625 54.6696Z" fill="#3EB750"/>
<path d="M147.509 57.1693L132.021 38.542C131.761 39.1619 131.321 39.6918 130.761 40.0518L145.839 58.1992C146.269 57.7093 146.849 57.3493 147.499 57.1793L147.509 57.1693Z" fill="#455767"/>
<path d="M125.672 37.302C125.672 37.222 125.672 37.142 125.682 37.062L109.834 44.181L109.284 43.6411C109.085 43.4411 108.795 43.3611 108.525 43.4411L98.646 46.0607C98.0561 46.2207 97.8661 46.9406 98.296 47.3705L108.155 57.1392C108.585 57.5691 109.314 57.3691 109.474 56.7892L112.124 47.0006C112.194 46.7306 112.124 46.4407 111.924 46.2407L111.314 45.6408L126.152 38.9817C125.862 38.4918 125.692 37.9219 125.692 37.322L125.672 37.302Z" fill="#455767"/>
<path d="M147.27 63.4185L143.75 88.1749L145.67 88.4449L149.22 63.4685C148.94 63.5484 148.64 63.5984 148.33 63.5984C147.96 63.5984 147.6 63.5384 147.27 63.4185Z" fill="#455767"/>
<path d="M131.102 37.3021C131.102 36.1323 130.142 35.1924 128.972 35.1924C128.092 35.1924 127.342 35.7223 127.012 36.4622C126.902 36.7222 126.832 37.0021 126.832 37.3021C126.832 37.742 126.972 38.152 127.202 38.4819C127.582 39.0418 128.232 39.4118 128.972 39.4118C129.352 39.4118 129.712 39.3118 130.022 39.1418C130.642 38.8019 131.062 38.162 131.102 37.4221C131.102 37.3821 131.102 37.3421 131.102 37.3021Z" fill="#455767"/>
<path d="M148.379 58.209C148.379 58.209 148.349 58.209 148.329 58.209C147.619 58.209 146.989 58.5589 146.599 59.0889C146.349 59.4388 146.199 59.8588 146.199 60.3187C146.199 61.1686 146.709 61.8985 147.439 62.2384C147.709 62.3584 148.009 62.4384 148.329 62.4384C148.719 62.4384 149.089 62.3284 149.409 62.1484C150.039 61.7785 150.459 61.1086 150.459 60.3287C150.459 59.1788 149.529 58.249 148.379 58.219V58.209Z" fill="#455767"/>
<path style="mix-blend-mode:darken" d="M97.4362 91.6945L108.145 57.1295L98.2861 47.3608L27.816 93.0244L97.4362 91.6945Z" fill="url(#paint0_linear_85_1150)"/>
<path d="M145.069 92.3544C149.432 92.3544 152.968 90.7742 152.968 88.8249C152.968 86.8756 149.432 85.2954 145.069 85.2954C140.707 85.2954 137.171 86.8756 137.171 88.8249C137.171 90.7742 140.707 92.3544 145.069 92.3544Z" fill="#455767"/>
</g>
<rect x="118" y="5" width="38" height="16" rx="4" fill="#1C1C1C"/>
<path d="M122.781 17V9.92969H125.301C126.946 9.92969 127.752 10.916 127.752 12.2246C127.752 13.5283 126.941 14.5195 125.301 14.5195H123.855V17H122.781ZM123.855 13.6016H125.193C126.233 13.6064 126.668 13.0205 126.668 12.2246C126.668 11.4238 126.233 10.8525 125.193 10.8477H123.855V13.6016ZM130.975 17.1074C129.471 17.1074 128.489 16.0137 128.494 14.373C128.489 12.7227 129.471 11.6289 130.975 11.6289C132.469 11.6289 133.445 12.7227 133.445 14.373C133.445 16.0137 132.469 17.1074 130.975 17.1074ZM129.539 14.373C129.539 15.3838 130.003 16.2383 130.975 16.2383C131.932 16.2383 132.391 15.3838 132.391 14.373C132.391 13.3574 131.932 12.4932 130.975 12.4883C130.003 12.4932 129.539 13.3574 129.539 14.373ZM136.951 11.6973V12.5273H135.867V15.4375C135.872 16.0381 136.165 16.1455 136.502 16.1504C136.653 16.1504 136.883 16.1357 137.029 16.1211V17.0293C136.888 17.0488 136.663 17.0684 136.375 17.0684C135.56 17.0684 134.822 16.6191 134.832 15.6523V12.5273H134.051V11.6973H134.832V10.4277H135.867V11.6973H136.951ZM137.723 15.5059C137.718 14.2949 138.748 13.9824 139.705 13.9141C140.057 13.8945 140.853 13.8506 141.097 13.8408L141.092 13.416C141.097 12.8154 140.726 12.4688 140.018 12.4688C139.402 12.4688 139.031 12.752 138.924 13.1426H137.889C137.981 12.2637 138.802 11.6289 140.057 11.6289C140.901 11.6289 142.132 11.9365 142.137 13.4746V17H141.121V16.2773H141.082C140.877 16.6729 140.389 17.1172 139.51 17.1172C138.504 17.1172 137.718 16.541 137.723 15.5059ZM138.738 15.5156C138.738 16.0234 139.158 16.2822 139.744 16.2871C140.594 16.2822 141.102 15.7158 141.102 15.0859L141.097 14.6025C140.857 14.6172 140.101 14.6709 139.852 14.6855C139.168 14.7344 138.738 14.9932 138.738 15.5156ZM145.877 11.6973V12.5273H144.793V15.4375C144.798 16.0381 145.091 16.1455 145.428 16.1504C145.579 16.1504 145.809 16.1357 145.955 16.1211V17.0293C145.813 17.0488 145.589 17.0684 145.301 17.0684C144.485 17.0684 143.748 16.6191 143.758 15.6523V12.5273H142.977V11.6973H143.758V10.4277H144.793V11.6973H145.877ZM149.08 17.1074C147.576 17.1074 146.595 16.0137 146.6 14.373C146.595 12.7227 147.576 11.6289 149.08 11.6289C150.574 11.6289 151.551 12.7227 151.551 14.373C151.551 16.0137 150.574 17.1074 149.08 17.1074ZM147.645 14.373C147.645 15.3838 148.108 16.2383 149.08 16.2383C150.037 16.2383 150.496 15.3838 150.496 14.373C150.496 13.3574 150.037 12.4932 149.08 12.4883C148.108 12.4932 147.645 13.3574 147.645 14.373Z" fill="white"/>
</g>
<defs>
<linearGradient id="paint0_linear_85_1150" x1="71.9798" y1="76.1868" x2="89.4873" y2="45.931" gradientUnits="userSpaceOnUse">
<stop stop-color="white"/>
<stop offset="1" stop-color="#FFC552"/>
</linearGradient>
<clipPath id="clip0_85_1150">
<rect width="160" height="100" fill="white"/>
</clipPath>
<clipPath id="clip1_85_1150">
<rect width="159.977" height="100" fill="white"/>
</clipPath>
</defs>
</svg>
