<svg width="160" height="100" viewBox="0 0 160 100" fill="none" xmlns="http://www.w3.org/2000/svg">
<g clip-path="url(#clip0_85_1150)">
<path d="M159.25 0.610107H0.619995V99.3801H159.25V0.610107Z" fill="#EAD4A7"/>
<path d="M159.86 100H0V0H159.86V100ZM1.24 98.78H158.63V1.22H1.24V98.77V98.78Z" fill="#EFD9B4"/>
<path d="M159.39 82.55H0.76001V99.39H159.39V82.55Z" fill="white"/>
<path d="M160 99.9999H0.140015V81.9399H160V99.9999ZM1.37001 98.7799H158.76V83.1699H1.37001V98.7799Z" fill="white"/>
<path d="M72.65 43.8901C72.31 43.2901 71.82 42.8301 71.26 42.5101C69.48 40.8401 67.08 39.8201 64.44 39.8201H43.25C40.55 39.8201 38.08 40.7701 36.15 42.3401C35.45 42.6501 34.84 43.1801 34.43 43.8901C34.38 43.9801 34.23 44.2501 34 44.6801C33.35 45.6301 32.85 46.6901 32.52 47.8301C29.49 54.9301 24.66 70.5201 31.99 86.1201L39.16 83.6701C38.87 83.0801 38.6 82.4801 38.35 81.8901H68.73C68.48 82.4901 68.21 83.0801 67.92 83.6701L75.09 86.1201C84.79 65.4701 73.17 44.8001 72.65 43.9001V43.8901Z" fill="#3E2967"/>
<path d="M31.45 84.9C30.45 83.09 31.12 80.83 32.95 79.84C34.45 79.03 36.26 79.33 37.41 80.47C37.66 80.72 37.88 81 38.06 81.33C38.49 82.11 38.89 82.9 39.26 83.68L32.09 86.13C31.89 85.72 31.68 85.31 31.45 84.91V84.9Z" fill="#FADDDC"/>
<path d="M75.6401 85.0501C76.6401 83.2401 75.9701 80.9801 74.1401 79.9901C72.6401 79.1801 70.8301 79.4801 69.6801 80.6201C69.4301 80.8701 69.2101 81.1501 69.0301 81.4801C68.6001 82.2601 68.2001 83.0501 67.8301 83.8301L75.0001 86.2801C75.2001 85.8701 75.4101 85.4601 75.6401 85.0601V85.0501Z" fill="#FADDDC"/>
<path d="M49.8899 19.97H65.7599V31.03C65.7599 34.55 62.9099 37.4 59.3899 37.4H59.1099C58.3299 37.4 57.6999 38.03 57.6999 38.81V40.68C57.6999 42.82 55.9599 44.56 53.8199 44.56C51.6799 44.56 49.9499 42.83 49.9399 40.69L49.8899 19.97Z" fill="#FADDDC"/>
<path d="M52.1201 12.0499C50.9201 12.1699 48.3201 13.1799 46.7701 14.4899C45.2201 15.7999 43.1401 17.8799 42.4901 18.5299C41.8401 19.1799 39.5101 21.5599 38.9801 22.3899C37.9701 23.9899 36.6001 27.2599 37.0801 31.2399C37.5601 35.2199 41.7701 39.6199 46.9401 40.7499C52.1101 41.8799 59.4801 42.5899 64.0001 39.3199C68.5201 36.0499 70.1801 33.1399 69.6501 28.9199C69.1201 24.6999 67.0401 22.1499 65.8501 20.6599C64.6601 19.1699 64.7201 16.5599 62.0501 14.8399C59.3801 13.1199 56.9401 11.5699 52.1301 12.0499H52.1201Z" fill="#FCC31E"/>
<path d="M52.97 37.6499C57.1011 37.6499 60.45 34.301 60.45 30.1699C60.45 26.0389 57.1011 22.6899 52.97 22.6899C48.8389 22.6899 45.49 26.0389 45.49 30.1699C45.49 34.301 48.8389 37.6499 52.97 37.6499Z" fill="#FADDDC"/>
<path d="M50.6 31.0399C51.7377 31.0399 52.66 30.1176 52.66 28.9799C52.66 27.8422 51.7377 26.9199 50.6 26.9199C49.4623 26.9199 48.54 27.8422 48.54 28.9799C48.54 30.1176 49.4623 31.0399 50.6 31.0399Z" fill="#F1F0EB"/>
<path d="M57.02 31.0399C58.1577 31.0399 59.08 30.1176 59.08 28.9799C59.08 27.8422 58.1577 26.9199 57.02 26.9199C55.8823 26.9199 54.96 27.8422 54.96 28.9799C54.96 30.1176 55.8823 31.0399 57.02 31.0399Z" fill="#F1F0EB"/>
<path d="M52.47 34.2H53.22C53.89 34.2 54.44 33.65 54.44 32.98V29.3C54.44 29.02 54.21 28.79 53.93 28.79C53.65 28.79 53.42 29.02 53.42 29.3V32.49C53.42 32.87 53.11 33.18 52.73 33.18H52.47C52.19 33.18 51.96 33.41 51.96 33.69C51.96 33.97 52.19 34.2 52.47 34.2Z" fill="#E0B1BB"/>
<path d="M47.96 28.9999C47.96 30.4499 49.14 31.6199 50.58 31.6199C52.02 31.6199 53.07 30.5499 53.18 29.2099H54.4C54.49 30.5799 55.62 31.6699 57.01 31.6699C58.4 31.6699 59.63 30.4899 59.63 29.0499C59.63 27.5999 58.45 26.4299 57.01 26.4299C55.82 26.4299 54.83 27.2299 54.51 28.3099H53.1C52.79 27.1999 51.79 26.3899 50.58 26.3899C49.13 26.3899 47.96 27.5699 47.96 29.0099V28.9999ZM55.42 29.0399C55.42 28.1599 56.13 27.4499 57.01 27.4499C57.89 27.4499 58.6 28.1599 58.6 29.0399C58.6 29.9199 57.89 30.6299 57.01 30.6299C56.13 30.6299 55.42 29.9199 55.42 29.0399ZM48.99 28.9999C48.99 28.1199 49.7 27.4099 50.58 27.4099C51.46 27.4099 52.17 28.1199 52.17 28.9999C52.17 29.8799 51.46 30.5899 50.58 30.5899C49.7 30.5899 48.99 29.8799 48.99 28.9999Z" fill="#898989"/>
<path d="M47.13 19.3199C47.732 19.3199 48.22 18.8319 48.22 18.2299C48.22 17.6279 47.732 17.1399 47.13 17.1399C46.528 17.1399 46.04 17.6279 46.04 18.2299C46.04 18.8319 46.528 19.3199 47.13 19.3199Z" fill="#D6952D"/>
<path d="M63.59 23.2401C64.192 23.2401 64.68 22.752 64.68 22.1501C64.68 21.5481 64.192 21.0601 63.59 21.0601C62.988 21.0601 62.5 21.5481 62.5 22.1501C62.5 22.752 62.988 23.2401 63.59 23.2401Z" fill="#D6952D"/>
<path d="M45.64 38.5C46.1315 38.5 46.53 38.1015 46.53 37.61C46.53 37.1184 46.1315 36.72 45.64 36.72C45.1485 36.72 44.75 37.1184 44.75 37.61C44.75 38.1015 45.1485 38.5 45.64 38.5Z" fill="#D6952D"/>
<path d="M62.7601 27.5C63.2516 27.5 63.6501 27.1015 63.6501 26.61C63.6501 26.1184 63.2516 25.72 62.7601 25.72C62.2686 25.72 61.8701 26.1184 61.8701 26.61C61.8701 27.1015 62.2686 27.5 62.7601 27.5Z" fill="#D6952D"/>
<path d="M42.91 23.4599C43.1364 23.4599 43.32 23.2763 43.32 23.0499C43.32 22.8235 43.1364 22.6399 42.91 22.6399C42.6836 22.6399 42.5 22.8235 42.5 23.0499C42.5 23.2763 42.6836 23.4599 42.91 23.4599Z" fill="#D6952D"/>
<path d="M63.7701 32.31C63.9965 32.31 64.1801 32.1264 64.1801 31.9C64.1801 31.6736 63.9965 31.49 63.7701 31.49C63.5437 31.49 63.3601 31.6736 63.3601 31.9C63.3601 32.1264 63.5437 32.31 63.7701 32.31Z" fill="#D6952D"/>
<path d="M40.05 30.83C40.2157 30.83 40.35 30.6957 40.35 30.53C40.35 30.3643 40.2157 30.23 40.05 30.23C39.8843 30.23 39.75 30.3643 39.75 30.53C39.75 30.6957 39.8843 30.83 40.05 30.83Z" fill="#D6952D"/>
<path d="M66.4399 28.6901C66.6056 28.6901 66.7399 28.5558 66.7399 28.3901C66.7399 28.2244 66.6056 28.0901 66.4399 28.0901C66.2742 28.0901 66.1399 28.2244 66.1399 28.3901C66.1399 28.5558 66.2742 28.6901 66.4399 28.6901Z" fill="#D6952D"/>
<path d="M40.2299 26.6101C40.5227 26.6101 40.7599 26.3728 40.7599 26.08C40.7599 25.7873 40.5227 25.55 40.2299 25.55C39.9372 25.55 39.7 25.7873 39.7 26.08C39.7 26.3728 39.9372 26.6101 40.2299 26.6101Z" fill="#D6952D"/>
<path d="M62.54 12.44C61.68 13.6 61.39 15 61.65 16.25C62.92 16.13 64.17 15.46 65.04 14.29C65.91 13.12 66.19 11.73 65.93 10.48C64.66 10.6 63.41 11.27 62.54 12.44Z" fill="#2D963A"/>
<path d="M64.4001 13.56C63.0501 14.09 62.0701 15.12 61.6201 16.31C62.7501 16.88 64.1801 16.98 65.5301 16.45C66.8801 15.92 67.8601 14.89 68.3101 13.7C67.1801 13.13 65.7501 13.03 64.4001 13.56Z" fill="#3EB750"/>
<path d="M39.4299 63.21H67.6699C68.9099 63.21 69.9199 64.22 69.9199 65.46V86.45H37.1699V65.46C37.1699 64.22 38.1799 63.21 39.4199 63.21H39.4299Z" fill="#F7F7F7"/>
<path d="M53.8101 78.0399C55.3123 78.0399 56.5301 76.8356 56.5301 75.3499C56.5301 73.8643 55.3123 72.6599 53.8101 72.6599C52.3079 72.6599 51.0901 73.8643 51.0901 75.3499C51.0901 76.8356 52.3079 78.0399 53.8101 78.0399Z" fill="#CED5D8"/>
<path d="M53.5499 53.7599C52.8499 54.6999 52.6199 55.8399 52.8299 56.8499C53.8599 56.7599 54.8799 56.2099 55.5799 55.2599C56.2799 54.3099 56.5099 53.1799 56.2999 52.1699C55.2699 52.2599 54.2499 52.8099 53.5499 53.7599Z" fill="#2D963A"/>
<path d="M55.0701 54.6701C53.9801 55.1001 53.1801 55.9301 52.8101 56.9001C53.7301 57.3701 54.8901 57.4401 55.9801 57.0201C57.0701 56.6001 57.8701 55.7601 58.2401 54.7901C57.3201 54.3201 56.1601 54.2501 55.0701 54.6701Z" fill="#3EB750"/>
<path d="M147.53 57.17L132.04 38.54C131.78 39.16 131.34 39.69 130.78 40.05L145.86 58.2C146.29 57.71 146.87 57.35 147.52 57.18L147.53 57.17Z" fill="#455767"/>
<path d="M125.69 37.3001C125.69 37.2201 125.69 37.1401 125.7 37.0601L109.85 44.1801L109.3 43.6401C109.1 43.4401 108.81 43.3601 108.54 43.4401L98.66 46.0601C98.07 46.2201 97.88 46.9401 98.31 47.3701L108.17 57.1401C108.6 57.5701 109.33 57.3701 109.49 56.7901L112.14 47.0001C112.21 46.7301 112.14 46.4401 111.94 46.2401L111.33 45.6401L126.17 38.9801C125.88 38.4901 125.71 37.9201 125.71 37.3201L125.69 37.3001Z" fill="#455767"/>
<path d="M147.29 63.4199L143.77 88.1799L145.69 88.4499L149.24 63.4699C148.96 63.5499 148.66 63.5999 148.35 63.5999C147.98 63.5999 147.62 63.5399 147.29 63.4199Z" fill="#455767"/>
<path d="M131.12 37.2999C131.12 36.1299 130.16 35.1899 128.99 35.1899C128.11 35.1899 127.36 35.7199 127.03 36.4599C126.92 36.7199 126.85 36.9999 126.85 37.2999C126.85 37.7399 126.99 38.1499 127.22 38.4799C127.6 39.0399 128.25 39.4099 128.99 39.4099C129.37 39.4099 129.73 39.3099 130.04 39.1399C130.66 38.7999 131.08 38.1599 131.12 37.4199C131.12 37.3799 131.12 37.3399 131.12 37.2999Z" fill="#455767"/>
<path d="M148.4 58.21C148.4 58.21 148.37 58.21 148.35 58.21C147.64 58.21 147.01 58.56 146.62 59.09C146.37 59.44 146.22 59.86 146.22 60.32C146.22 61.17 146.73 61.9 147.46 62.24C147.73 62.36 148.03 62.44 148.35 62.44C148.74 62.44 149.11 62.33 149.43 62.15C150.06 61.78 150.48 61.11 150.48 60.33C150.48 59.18 149.55 58.25 148.4 58.22V58.21Z" fill="#455767"/>
<path style="mix-blend-mode:darken" d="M97.4499 91.7001L108.16 57.1301L98.2999 47.3601L27.8199 93.0301L97.4499 91.7001Z" fill="url(#paint0_linear_85_1150)"/>
<path d="M145.09 92.36C149.453 92.36 152.99 90.7796 152.99 88.83C152.99 86.8805 149.453 85.3 145.09 85.3C140.727 85.3 137.19 86.8805 137.19 88.83C137.19 90.7796 140.727 92.36 145.09 92.36Z" fill="#455767"/>
<rect x="118" y="5" width="38" height="16" rx="4" fill="#1C1C1C"/>
<path d="M122.781 17V9.92969H125.301C126.946 9.92969 127.752 10.916 127.752 12.2246C127.752 13.5283 126.941 14.5195 125.301 14.5195H123.855V17H122.781ZM123.855 13.6016H125.193C126.233 13.6064 126.668 13.0205 126.668 12.2246C126.668 11.4238 126.233 10.8525 125.193 10.8477H123.855V13.6016ZM130.975 17.1074C129.471 17.1074 128.489 16.0137 128.494 14.373C128.489 12.7227 129.471 11.6289 130.975 11.6289C132.469 11.6289 133.445 12.7227 133.445 14.373C133.445 16.0137 132.469 17.1074 130.975 17.1074ZM129.539 14.373C129.539 15.3838 130.003 16.2383 130.975 16.2383C131.932 16.2383 132.391 15.3838 132.391 14.373C132.391 13.3574 131.932 12.4932 130.975 12.4883C130.003 12.4932 129.539 13.3574 129.539 14.373ZM136.951 11.6973V12.5273H135.867V15.4375C135.872 16.0381 136.165 16.1455 136.502 16.1504C136.653 16.1504 136.883 16.1357 137.029 16.1211V17.0293C136.888 17.0488 136.663 17.0684 136.375 17.0684C135.56 17.0684 134.822 16.6191 134.832 15.6523V12.5273H134.051V11.6973H134.832V10.4277H135.867V11.6973H136.951ZM137.723 15.5059C137.718 14.2949 138.748 13.9824 139.705 13.9141C140.057 13.8945 140.853 13.8506 141.097 13.8408L141.092 13.416C141.097 12.8154 140.726 12.4688 140.018 12.4688C139.402 12.4688 139.031 12.752 138.924 13.1426H137.889C137.981 12.2637 138.802 11.6289 140.057 11.6289C140.901 11.6289 142.132 11.9365 142.137 13.4746V17H141.121V16.2773H141.082C140.877 16.6729 140.389 17.1172 139.51 17.1172C138.504 17.1172 137.718 16.541 137.723 15.5059ZM138.738 15.5156C138.738 16.0234 139.158 16.2822 139.744 16.2871C140.594 16.2822 141.102 15.7158 141.102 15.0859L141.097 14.6025C140.857 14.6172 140.101 14.6709 139.852 14.6855C139.168 14.7344 138.738 14.9932 138.738 15.5156ZM145.877 11.6973V12.5273H144.793V15.4375C144.798 16.0381 145.091 16.1455 145.428 16.1504C145.579 16.1504 145.809 16.1357 145.955 16.1211V17.0293C145.813 17.0488 145.589 17.0684 145.301 17.0684C144.485 17.0684 143.748 16.6191 143.758 15.6523V12.5273H142.977V11.6973H143.758V10.4277H144.793V11.6973H145.877ZM149.08 17.1074C147.576 17.1074 146.595 16.0137 146.6 14.373C146.595 12.7227 147.576 11.6289 149.08 11.6289C150.574 11.6289 151.551 12.7227 151.551 14.373C151.551 16.0137 150.574 17.1074 149.08 17.1074ZM147.645 14.373C147.645 15.3838 148.108 16.2383 149.08 16.2383C150.037 16.2383 150.496 15.3838 150.496 14.373C150.496 13.3574 150.037 12.4932 149.08 12.4883C148.108 12.4932 147.645 13.3574 147.645 14.373Z" fill="white"/>
</g>
<defs>
<linearGradient id="paint0_linear_85_1150" x1="71.9899" y1="76.1901" x2="89.4999" y2="45.9301" gradientUnits="userSpaceOnUse">
<stop stop-color="white"/>
<stop offset="1" stop-color="#FFC552"/>
</linearGradient>
<clipPath id="clip0_85_1150">
<rect width="160" height="100" fill="white"/>
</clipPath>
</defs>
</svg>
