<svg width="160" height="100" viewBox="0 0 160 100" fill="none" xmlns="http://www.w3.org/2000/svg">
<g clip-path="url(#clip0_85_1192)">
<path d="M159.38 0.610107H0.620117V99.3801H159.38V0.610107Z" fill="#EAD4A7"/>
<path d="M160 100H0V0H160V100ZM1.24 98.78H158.76V1.22H1.24V98.77V98.78Z" fill="#EFD9B4"/>
<path d="M159.38 0.610107H0.620117V41.9601H159.38V0.610107Z" fill="white"/>
<path d="M160 42.58H0V0H160V42.58ZM1.24 41.35H158.76V1.22H1.24V41.35Z" fill="white"/>
<path d="M159.38 43.5701H0.620117V48.1301H159.38V43.5701Z" fill="#B2AEA6"/>
<path d="M160 48.74H0V42.96H160V48.74ZM1.24 47.52H158.76V44.18H1.24V47.52Z" fill="#B2AEA6"/>
<path d="M78.04 26.76V9.97997C78.04 8.44997 76.79 7.21997 75.25 7.21997H48.06C46.52 7.21997 45.27 8.45997 45.27 9.97997V26.56C45.27 27.35 45.6 28.11 46.18 28.65L54.4 36.33C55.05 36.94 55.91 37.28 56.81 37.28H86.85C87.82 37.28 88.25 36.08 87.5 35.47L78.86 28.46C78.34 28.04 78.04 27.42 78.04 26.75V26.76Z" fill="#455767"/>
<path d="M75.0401 10.05H47.8201V25.75H75.0401V10.05Z" fill="#3888BA"/>
<path d="M61.4701 12.4099H50.8601V13.5399H61.4701V12.4099Z" fill="#A0D1EA"/>
<path d="M64.6801 16.3799H54.0701V17.5099H64.6801V16.3799Z" fill="#A0D1EA"/>
<path d="M61.7799 20.0601H51.1699V21.1901H61.7799V20.0601Z" fill="#A0D1EA"/>
<path d="M77.4399 30.9199H54.7799L53.4099 29.9099H76.0699L77.4399 30.9199Z" fill="#506575"/>
<path d="M80.28 34.1301H57.63L56.26 33.1201H78.91L80.28 34.1301Z" fill="#506575"/>
<path d="M99.9301 6.08008H83.5901V20.7101C83.5901 23.5801 85.9101 25.9001 88.7801 25.9001H90.4301C91.2301 25.9001 91.8901 26.5501 91.8901 27.3601V28.8001C91.8901 30.6201 93.8401 31.7801 95.4401 30.9101L99.6101 28.6501L99.9401 6.09008L99.9301 6.08008Z" fill="#FADDDC"/>
<path d="M84.67 21.3901L83.72 21.1201C82.87 20.8801 82.37 20.0001 82.61 19.1401L83.92 14.4901C84.02 14.1301 84.39 13.9301 84.74 14.0301C85.09 14.1301 85.3 14.5001 85.2 14.8501L84.07 18.8801C83.93 19.3601 84.22 19.8601 84.7 20.0001L85.03 20.0901C85.39 20.1901 85.59 20.5601 85.49 20.9101C85.39 21.2601 85.02 21.4701 84.67 21.3701V21.3901Z" fill="#E0B1BB"/>
<path d="M86.96 14.43C86.96 14.91 87.35 15.31 87.84 15.31C88.33 15.31 88.72 14.92 88.72 14.43C88.72 13.94 88.33 13.55 87.84 13.55C87.35 13.55 86.96 13.94 86.96 14.43Z" fill="#757570"/>
<path d="M95.9901 19.3999H97.09C97.6202 19.3999 98.05 18.9701 98.05 18.4399V14.0499C98.05 13.5197 97.6202 13.0899 97.09 13.0899H95.9901C95.4599 13.0899 95.03 13.5197 95.03 14.0499V18.4399C95.03 18.9701 95.4599 19.3999 95.9901 19.3999Z" fill="#FADDDC"/>
<path d="M105.91 28.9299H84.7099C82.0099 28.9299 79.5399 29.8799 77.5999 31.4499C76.8999 31.7599 75.6999 33.3199 75.4699 33.7299C74.9799 34.6399 74.1899 36.1599 73.9699 36.9299C70.9399 44.0299 66.1099 43.2799 73.4399 58.8699C73.4399 58.8699 116.58 58.8399 116.58 58.8299C126.26 38.1899 113.26 28.9199 105.91 28.9199V28.9299Z" fill="#3E2967"/>
<path d="M111.83 81.0701H79.1199C75.0899 81.0701 71.6799 78.1201 71.1399 74.1601L67.6399 48.3901C66.9899 43.6101 70.7499 39.3601 75.6199 39.3601H114.64C119.43 39.3601 123.16 43.4701 122.64 48.1801L119.84 73.9501C119.4 78.0001 115.95 81.0701 111.84 81.0701H111.83Z" fill="#E5E5E5"/>
<path d="M114.64 46.7101C114.71 46.7101 114.92 46.7101 115.11 46.9201C115.3 47.1301 115.27 47.3301 115.27 47.4001L112.47 73.1701C112.44 73.4901 112.17 73.7201 111.85 73.7201H79.1399C78.8299 73.7201 78.5599 73.4901 78.5199 73.1801L75.0199 47.4101C75.0199 47.3401 74.9799 47.1301 75.1699 46.9201C75.3599 46.7101 75.5699 46.7101 75.6399 46.7101H114.66M114.66 39.3601H75.6399C70.7699 39.3601 67.0099 43.6101 67.6599 48.3901L71.1599 74.1601C71.6999 78.1101 75.1099 81.0701 79.1399 81.0701H111.85C115.96 81.0701 119.41 78.0001 119.85 73.9501L122.65 48.1801C123.16 43.4701 119.43 39.3601 114.65 39.3601H114.66Z" fill="#F7F7F7"/>
<path d="M93.8801 0.159924C92.4901 0.299924 89.4601 1.46992 87.6701 2.98992C85.8801 4.50992 83.4601 6.92992 82.7001 7.67992C81.9401 8.42992 79.2401 11.1999 78.6301 12.1699C77.4601 14.0299 75.8701 17.8299 76.4201 22.4599C76.9701 27.0899 81.8701 32.1899 87.8801 33.5099C93.8901 34.8199 102.45 35.6499 107.69 31.8499C112.93 28.0499 114.87 24.6699 114.25 19.7699C113.63 14.8699 111.21 11.8999 109.83 10.1699C108.45 8.43992 108.52 5.40992 105.41 3.39992C102.3 1.38992 99.4701 -0.400076 93.8801 0.159924Z" fill="#FCC31E"/>
<path d="M88.0801 8.61007C88.7815 8.61007 89.3501 8.04147 89.3501 7.34007C89.3501 6.63867 88.7815 6.07007 88.0801 6.07007C87.3787 6.07007 86.8101 6.63867 86.8101 7.34007C86.8101 8.04147 87.3787 8.61007 88.0801 8.61007Z" fill="#D6952D"/>
<path d="M107.2 13.1601C107.901 13.1601 108.47 12.5915 108.47 11.8901C108.47 11.1887 107.901 10.6201 107.2 10.6201C106.499 10.6201 105.93 11.1887 105.93 11.8901C105.93 12.5915 106.499 13.1601 107.2 13.1601Z" fill="#D6952D"/>
<path d="M91.82 29.1501C92.3889 29.1501 92.85 28.6889 92.85 28.1201C92.85 27.5512 92.3889 27.0901 91.82 27.0901C91.2512 27.0901 90.79 27.5512 90.79 28.1201C90.79 28.6889 91.2512 29.1501 91.82 29.1501Z" fill="#D6952D"/>
<path d="M98.1001 25.6201C98.6689 25.6201 99.1301 25.1589 99.1301 24.5901C99.1301 24.0212 98.6689 23.5601 98.1001 23.5601C97.5312 23.5601 97.0701 24.0212 97.0701 24.5901C97.0701 25.1589 97.5312 25.6201 98.1001 25.6201Z" fill="#D6952D"/>
<path d="M83.18 13.41C83.4451 13.41 83.66 13.195 83.66 12.93C83.66 12.6649 83.4451 12.45 83.18 12.45C82.9149 12.45 82.7 12.6649 82.7 12.93C82.7 13.195 82.9149 13.41 83.18 13.41Z" fill="#D6952D"/>
<path d="M101.34 26.0501C101.605 26.0501 101.82 25.8352 101.82 25.5701C101.82 25.305 101.605 25.0901 101.34 25.0901C101.075 25.0901 100.86 25.305 100.86 25.5701C100.86 25.8352 101.075 26.0501 101.34 26.0501Z" fill="#D6952D"/>
<path d="M79.86 21.97C80.0478 21.97 80.2 21.8178 80.2 21.63C80.2 21.4423 80.0478 21.29 79.86 21.29C79.6722 21.29 79.52 21.4423 79.52 21.63C79.52 21.8178 79.6722 21.97 79.86 21.97Z" fill="#D6952D"/>
<path d="M110.51 19.48C110.698 19.48 110.85 19.3278 110.85 19.14C110.85 18.9523 110.698 18.8 110.51 18.8C110.322 18.8 110.17 18.9523 110.17 19.14C110.17 19.3278 110.322 19.48 110.51 19.48Z" fill="#D6952D"/>
<path d="M80.07 17.0701C80.4124 17.0701 80.69 16.7925 80.69 16.4501C80.69 16.1077 80.4124 15.8301 80.07 15.8301C79.7275 15.8301 79.45 16.1077 79.45 16.4501C79.45 16.7925 79.7275 17.0701 80.07 17.0701Z" fill="#D6952D"/>
<path d="M85.1 2.38011C86.1 3.73011 86.43 5.36011 86.14 6.80011C84.67 6.66011 83.21 5.88011 82.21 4.53011C81.21 3.18011 80.88 1.55011 81.17 0.110107C82.64 0.250107 84.1 1.03011 85.1 2.38011Z" fill="#2D963A"/>
<path d="M82.9299 3.68001C84.4999 4.29001 85.6399 5.49001 86.1599 6.87001C84.8399 7.54001 83.1899 7.65001 81.6199 7.04001C80.0499 6.43001 78.9099 5.23001 78.3899 3.85001C79.7099 3.18001 81.3599 3.07001 82.9299 3.68001Z" fill="#3EB750"/>
<rect x="118" y="5" width="38" height="16" rx="4" fill="#1C1C1C"/>
<path d="M122.781 17V9.92969H125.301C126.946 9.92969 127.752 10.916 127.752 12.2246C127.752 13.5283 126.941 14.5195 125.301 14.5195H123.855V17H122.781ZM123.855 13.6016H125.193C126.233 13.6064 126.668 13.0205 126.668 12.2246C126.668 11.4238 126.233 10.8525 125.193 10.8477H123.855V13.6016ZM130.975 17.1074C129.471 17.1074 128.489 16.0137 128.494 14.373C128.489 12.7227 129.471 11.6289 130.975 11.6289C132.469 11.6289 133.445 12.7227 133.445 14.373C133.445 16.0137 132.469 17.1074 130.975 17.1074ZM129.539 14.373C129.539 15.3838 130.003 16.2383 130.975 16.2383C131.932 16.2383 132.391 15.3838 132.391 14.373C132.391 13.3574 131.932 12.4932 130.975 12.4883C130.003 12.4932 129.539 13.3574 129.539 14.373ZM136.951 11.6973V12.5273H135.867V15.4375C135.872 16.0381 136.165 16.1455 136.502 16.1504C136.653 16.1504 136.883 16.1357 137.029 16.1211V17.0293C136.888 17.0488 136.663 17.0684 136.375 17.0684C135.56 17.0684 134.822 16.6191 134.832 15.6523V12.5273H134.051V11.6973H134.832V10.4277H135.867V11.6973H136.951ZM137.723 15.5059C137.718 14.2949 138.748 13.9824 139.705 13.9141C140.057 13.8945 140.853 13.8506 141.097 13.8408L141.092 13.416C141.097 12.8154 140.726 12.4688 140.018 12.4688C139.402 12.4688 139.031 12.752 138.924 13.1426H137.889C137.981 12.2637 138.802 11.6289 140.057 11.6289C140.901 11.6289 142.132 11.9365 142.137 13.4746V17H141.121V16.2773H141.082C140.877 16.6729 140.389 17.1172 139.51 17.1172C138.504 17.1172 137.718 16.541 137.723 15.5059ZM138.738 15.5156C138.738 16.0234 139.158 16.2822 139.744 16.2871C140.594 16.2822 141.102 15.7158 141.102 15.0859L141.097 14.6025C140.857 14.6172 140.101 14.6709 139.852 14.6855C139.168 14.7344 138.738 14.9932 138.738 15.5156ZM145.877 11.6973V12.5273H144.793V15.4375C144.798 16.0381 145.091 16.1455 145.428 16.1504C145.579 16.1504 145.809 16.1357 145.955 16.1211V17.0293C145.813 17.0488 145.589 17.0684 145.301 17.0684C144.485 17.0684 143.748 16.6191 143.758 15.6523V12.5273H142.977V11.6973H143.758V10.4277H144.793V11.6973H145.877ZM149.08 17.1074C147.576 17.1074 146.595 16.0137 146.6 14.373C146.595 12.7227 147.576 11.6289 149.08 11.6289C150.574 11.6289 151.551 12.7227 151.551 14.373C151.551 16.0137 150.574 17.1074 149.08 17.1074ZM147.645 14.373C147.645 15.3838 148.108 16.2383 149.08 16.2383C150.037 16.2383 150.496 15.3838 150.496 14.373C150.496 13.3574 150.037 12.4932 149.08 12.4883C148.108 12.4932 147.645 13.3574 147.645 14.373Z" fill="white"/>
</g>
<defs>
<clipPath id="clip0_85_1192">
<rect width="160" height="100" fill="white"/>
</clipPath>
</defs>
</svg>
