<svg width="160" height="100" viewBox="0 0 160 100" fill="none" xmlns="http://www.w3.org/2000/svg">
<g clip-path="url(#clip0_85_1192)">
<g clip-path="url(#clip1_85_1192)">
<path d="M159.357 0.617188H0.619995V99.3732H159.357V0.617188Z" fill="#FFE45F"/>
<path d="M159.977 99.9931H0V0.00732422H159.977V99.9931ZM1.23982 98.7733H158.737V1.22715H1.23982V98.7633V98.7733Z" fill="#EFD9B4"/>
<path d="M159.357 0.617188H0.619995V41.9613H159.357V0.617188Z" fill="white"/>
<path d="M159.977 42.5813H0V0.00732422H159.977V42.5813ZM1.23982 41.3515H158.737V1.22715H1.23982V41.3515Z" fill="white"/>
<path d="M159.357 43.5708H0.619995V48.1302H159.357V43.5708Z" fill="#B2AEA6"/>
<path d="M159.977 48.7401H0V42.9609H159.977V48.7401ZM1.23982 47.5203H158.737V44.1808H1.23982V47.5203Z" fill="#B2AEA6"/>
<path d="M78.0289 26.7633V9.98568C78.0289 8.4559 76.7791 7.22607 75.2393 7.22607H48.0532C46.5134 7.22607 45.2635 8.4659 45.2635 9.98568V26.5633C45.2635 27.3532 45.5935 28.1131 46.1734 28.653L54.3923 36.332C55.0422 36.9419 55.902 37.2818 56.8019 37.2818H86.8377C87.8075 37.2818 88.2375 36.082 87.4876 35.4721L78.8488 28.4631C78.3289 28.0431 78.0289 27.4232 78.0289 26.7533V26.7633Z" fill="#455767"/>
<path d="M75.0294 10.0557H47.8132V25.7534H75.0294V10.0557Z" fill="#3888BA"/>
<path d="M61.4613 12.4155H50.8528V13.5454H61.4613V12.4155Z" fill="#A0D1EA"/>
<path d="M64.6709 16.3848H54.0624V17.5146H64.6709V16.3848Z" fill="#A0D1EA"/>
<path d="M61.7712 20.0645H51.1627V21.1943H61.7712V20.0645Z" fill="#A0D1EA"/>
<path d="M77.4291 30.9229H54.7723L53.4025 29.9131H76.0593L77.4291 30.9229Z" fill="#506575"/>
<path d="M80.2687 34.1324H57.6219L56.2521 33.1226H78.8989L80.2687 34.1324Z" fill="#506575"/>
<path d="M99.9158 6.08643H83.5781V20.7144C83.5781 23.5839 85.8978 25.9036 88.7674 25.9036H90.4172C91.217 25.9036 91.877 26.5535 91.877 27.3634V28.8032C91.877 30.6229 93.8267 31.7828 95.4265 30.9129L99.5959 28.6532L99.9258 6.09642L99.9158 6.08643Z" fill="#FADDDC"/>
<path d="M84.6582 21.3939L83.7082 21.124C82.8582 20.884 82.3582 20.0041 82.5982 19.1442L83.9082 14.4949C84.0082 14.1349 84.3782 13.935 84.7282 14.035C85.0782 14.1349 85.2882 14.5049 85.1882 14.8548L84.0582 18.8843C83.9182 19.3642 84.2082 19.8641 84.6882 20.0041L85.0182 20.0941C85.3782 20.1941 85.5782 20.564 85.4782 20.914C85.3782 21.2639 85.0082 21.4739 84.6582 21.3739V21.3939Z" fill="#E0B1BB"/>
<path d="M86.9476 14.4351C86.9476 14.915 87.3376 15.3149 87.8276 15.3149C88.3176 15.3149 88.7076 14.925 88.7076 14.4351C88.7076 13.9451 88.3176 13.5552 87.8276 13.5552C87.3376 13.5552 86.9476 13.9451 86.9476 14.4351Z" fill="#757570"/>
<path d="M95.9761 19.4043H97.0761C97.6063 19.4043 98.0361 18.9746 98.0361 18.4444V14.0551C98.0361 13.5249 97.6063 13.0952 97.0761 13.0952H95.9761C95.4459 13.0952 95.0161 13.5249 95.0161 14.0551V18.4444C95.0161 18.9746 95.4459 19.4043 95.9761 19.4043Z" fill="#FADDDC"/>
<path d="M81.0385 74.9962L83.2081 87.3645C83.5081 89.0943 85.0179 90.3641 86.7776 90.3641C88.7074 90.3641 90.3071 88.8443 90.3971 86.9146L91.017 74.0464L81.0385 74.9962Z" fill="#3E2967"/>
<path d="M97.3562 74.6864L96.9762 87.0946C96.9162 88.9144 98.326 90.4441 100.156 90.5441C101.756 90.6241 103.185 89.5743 103.585 88.0245L107.185 73.8965L97.3662 74.6864H97.3562Z" fill="#3E2967"/>
<path d="M111.394 86.725L99.066 84.0554L106.435 82.8155L105.055 81.4257L95.5065 82.7156V75.4966H92.3669V82.7356L82.4783 81.3658L80.6786 82.5356L88.8474 84.1354L75.7793 86.815L75.6393 88.4747L92.2769 86.405L92.8568 91.9742L94.7366 92.0042L94.9665 86.465L111.604 88.4048L111.394 86.725Z" fill="#8C8C8C"/>
<path d="M77.0193 91.0943C77.9748 91.0943 78.7493 90.3198 78.7493 89.3645C78.7493 88.4092 77.9748 87.6348 77.0193 87.6348C76.0638 87.6348 75.2893 88.4092 75.2893 89.3645C75.2893 90.3198 76.0638 91.0943 77.0193 91.0943Z" fill="#8C8C8C"/>
<path d="M93.7269 95.2437C94.6824 95.2437 95.4569 94.4692 95.4569 93.5139C95.4569 92.5586 94.6824 91.7842 93.7269 91.7842C92.7715 91.7842 91.9969 92.5586 91.9969 93.5139C91.9969 94.4692 92.7715 95.2437 93.7269 95.2437Z" fill="#8C8C8C"/>
<path d="M110.855 91.6539C111.81 91.6539 112.585 90.8794 112.585 89.9241C112.585 88.9688 111.81 88.1943 110.855 88.1943C109.899 88.1943 109.125 88.9688 109.125 89.9241C109.125 90.8794 109.899 91.6539 110.855 91.6539Z" fill="#8C8C8C"/>
<path d="M105.055 85.9248C106.011 85.9248 106.785 85.1504 106.785 84.1951C106.785 83.2398 106.011 82.4653 105.055 82.4653C104.1 82.4653 103.325 83.2398 103.325 84.1951C103.325 85.1504 104.1 85.9248 105.055 85.9248Z" fill="#8C8C8C"/>
<path d="M81.7187 85.7847C82.6741 85.7847 83.4486 85.0103 83.4486 84.0549C83.4486 83.0996 82.6741 82.3252 81.7187 82.3252C80.7632 82.3252 79.9886 83.0996 79.9886 84.0549C79.9886 85.0103 80.7632 85.7847 81.7187 85.7847Z" fill="#8C8C8C"/>
<path d="M72.0498 30.6526C71.7498 28.4629 69.7201 26.9231 67.5304 27.233C65.7307 27.483 64.3709 28.8928 64.1109 30.6026C64.0509 30.9725 64.0509 31.3625 64.1109 31.7524C64.2409 32.7023 64.4109 33.6321 64.5908 34.542L72.2898 32.1124C72.1998 31.6324 72.1198 31.1425 72.0498 30.6526Z" fill="#FADDDC"/>
<path d="M86.4177 29.1731C86.1178 26.9834 84.088 25.4436 81.8984 25.7536C80.0986 26.0035 78.7388 27.4133 78.4788 29.1231C78.4188 29.493 78.4188 29.883 78.4788 30.2729C78.6088 31.2228 78.7788 32.1527 78.9588 33.0625L86.6577 30.6329C86.5677 30.1529 86.4877 29.663 86.4177 29.1731Z" fill="#FADDDC"/>
<path d="M98.9859 67.4273C99.8858 65.4076 98.9659 63.0379 96.9462 62.138C96.7363 62.0381 76.0192 52.5794 72.2897 32.1123L64.5908 34.542C69.5101 58.5386 92.6768 69.0171 93.7067 69.467C95.7264 70.3569 98.0861 69.447 98.9859 67.4173V67.4273Z" fill="#3E2967"/>
<path d="M105.925 28.2432H84.3181C81.5684 28.2432 73.6296 29.203 70.35 32.9825C67.5004 36.272 67.0905 41.2513 67.4704 53.1496C67.5704 56.3292 70.1901 58.8688 73.3696 58.8588C86.2978 58.8188 116.793 58.7388 116.793 58.7288C120.293 46.8905 120.243 42.3912 118.283 36.372C116.104 29.673 107.395 28.2432 105.915 28.2432H105.925Z" fill="#3E2967"/>
<path d="M110.794 77.6661H79.7487C75.9193 77.6661 72.6897 74.6565 72.1798 70.6271L68.8503 44.3708C68.2304 39.5015 71.7999 35.1621 76.4192 35.1621H113.454C117.993 35.1621 121.533 39.3515 121.053 44.1508L118.393 70.4071C117.973 74.5365 114.704 77.6561 110.794 77.6561V77.6661Z" fill="#E5E5E5"/>
<path d="M113.454 42.6608C113.524 42.6608 113.714 42.6608 113.894 42.8708C114.074 43.0808 114.054 43.2907 114.044 43.3607L111.384 69.617C111.354 69.937 111.094 70.1769 110.794 70.1769H79.7486C79.4487 70.1769 79.1987 69.9369 79.1587 69.627L75.8292 43.3707C75.8292 43.3007 75.7892 43.0908 75.9692 42.8708C76.1492 42.6508 76.3491 42.6508 76.4191 42.6508H113.454M113.454 35.1719H76.4191C71.7898 35.1719 68.2303 39.5013 68.8502 44.3806L72.1797 70.6369C72.6897 74.6663 75.9292 77.6759 79.7486 77.6759H110.794C114.694 77.6759 117.973 74.5463 118.393 70.4269L121.053 44.1706C121.543 39.3713 118.003 35.1819 113.454 35.1819V35.1719Z" fill="#F7F7F7"/>
<path d="M78.4589 62.4683H111.844L111.104 69.7172L79.4887 69.7272L78.4589 62.4683Z" fill="#B2AEA6"/>
<path d="M46.5534 55.2793H4.38933C4.11323 55.2793 3.8894 55.5031 3.8894 55.7792V95.2236C3.8894 95.4997 4.11323 95.7236 4.38933 95.7236H46.5534C46.8295 95.7236 47.0533 95.4997 47.0533 95.2236V55.7792C47.0533 55.5031 46.8295 55.2793 46.5534 55.2793Z" fill="#E2E2E2"/>
<path d="M44.1638 57.6089H6.76909C6.49299 57.6089 6.26917 57.8327 6.26917 58.1088V65.4178C6.26917 65.6939 6.49299 65.9177 6.76909 65.9177H44.1638C44.4399 65.9177 44.6637 65.6939 44.6637 65.4178V58.1088C44.6637 57.8327 44.4399 57.6089 44.1638 57.6089Z" fill="white"/>
<path d="M44.1638 67.1675H6.76909C6.49299 67.1675 6.26917 67.3913 6.26917 67.6674V74.9764C6.26917 75.2525 6.49299 75.4763 6.76909 75.4763H44.1638C44.4399 75.4763 44.6637 75.2525 44.6637 74.9764V67.6674C44.6637 67.3913 44.4399 67.1675 44.1638 67.1675Z" fill="white"/>
<path d="M44.1638 76.7261H6.76909C6.49299 76.7261 6.26917 76.9499 6.26917 77.226V92.9338C6.26917 93.2099 6.49299 93.4337 6.76909 93.4337H44.1638C44.4399 93.4337 44.6637 93.2099 44.6637 92.9338V77.226C44.6637 76.9499 44.4399 76.7261 44.1638 76.7261Z" fill="white"/>
<path d="M29.9357 59.5288H20.4971C19.9504 59.5288 19.5072 59.972 19.5072 60.5187C19.5072 61.0654 19.9504 61.5085 20.4971 61.5085H29.9357C30.4824 61.5085 30.9256 61.0654 30.9256 60.5187C30.9256 59.972 30.4824 59.5288 29.9357 59.5288Z" fill="#B2AEA6"/>
<path d="M29.9357 69.3071H20.4971C19.9504 69.3071 19.5072 69.7503 19.5072 70.297C19.5072 70.8437 19.9504 71.2869 20.4971 71.2869H29.9357C30.4824 71.2869 30.9256 70.8437 30.9256 70.297C30.9256 69.7503 30.4824 69.3071 29.9357 69.3071Z" fill="#B2AEA6"/>
<path d="M29.9357 79.1958H20.4971C19.9504 79.1958 19.5072 79.639 19.5072 80.1857C19.5072 80.7324 19.9504 81.1755 20.4971 81.1755H29.9357C30.4824 81.1755 30.9256 80.7324 30.9256 80.1857C30.9256 79.639 30.4824 79.1958 29.9357 79.1958Z" fill="#B2AEA6"/>
<path d="M46.5534 55.2795L42.414 51.71H7.59894L4.37939 55.2795C4.37939 55.2795 46.6634 55.3994 46.5434 55.2795H46.5534Z" fill="#C1BFBC"/>
<path d="M93.8667 0.166989C92.4769 0.30697 89.4473 1.4768 87.6576 2.99659C85.8678 4.51637 83.4482 6.93603 82.6883 7.68592C81.9284 8.44582 79.2288 11.2054 78.6189 12.1753C77.449 14.035 75.8593 17.8345 76.4092 22.4638C76.9591 27.0932 81.8584 32.1924 87.8675 33.5123C93.8767 34.8321 102.435 35.652 107.675 31.8525C112.924 28.053 114.854 24.6735 114.234 19.7742C113.614 14.8749 111.194 11.9053 109.814 10.1756C108.435 8.44582 108.505 5.41625 105.395 3.40653C102.286 1.39682 99.4559 -0.392931 93.8667 0.166989Z" fill="#FCC31E"/>
<path d="M88.0677 8.61581C88.7691 8.61581 89.3377 8.04729 89.3377 7.34599C89.3377 6.64469 88.7691 6.07617 88.0677 6.07617C87.3663 6.07617 86.7977 6.64469 86.7977 7.34599C86.7977 8.04729 87.3663 8.61581 88.0677 8.61581Z" fill="#D6952D"/>
<path d="M107.185 13.1651C107.886 13.1651 108.455 12.5966 108.455 11.8953C108.455 11.194 107.886 10.6255 107.185 10.6255C106.484 10.6255 105.915 11.194 105.915 11.8953C105.915 12.5966 106.484 13.1651 107.185 13.1651Z" fill="#D6952D"/>
<path d="M91.8071 29.153C92.376 29.153 92.8371 28.6919 92.8371 28.1231C92.8371 27.5543 92.376 27.0933 91.8071 27.0933C91.2382 27.0933 90.7771 27.5543 90.7771 28.1231C90.7771 28.6919 91.2382 29.153 91.8071 29.153Z" fill="#D6952D"/>
<path d="M98.0863 25.6237C98.6551 25.6237 99.1163 25.1626 99.1163 24.5938C99.1163 24.025 98.6551 23.564 98.0863 23.564C97.5174 23.564 97.0563 24.025 97.0563 24.5938C97.0563 25.1626 97.5174 25.6237 98.0863 25.6237Z" fill="#D6952D"/>
<path d="M83.1682 13.4149C83.4333 13.4149 83.6482 13.2001 83.6482 12.935C83.6482 12.67 83.4333 12.4551 83.1682 12.4551C82.9031 12.4551 82.6882 12.67 82.6882 12.935C82.6882 13.2001 82.9031 13.4149 83.1682 13.4149Z" fill="#D6952D"/>
<path d="M101.326 26.0536C101.591 26.0536 101.806 25.8387 101.806 25.5737C101.806 25.3086 101.591 25.0938 101.326 25.0938C101.061 25.0938 100.846 25.3086 100.846 25.5737C100.846 25.8387 101.061 26.0536 101.326 26.0536Z" fill="#D6952D"/>
<path d="M79.8487 21.9738C80.0364 21.9738 80.1887 21.8216 80.1887 21.6339C80.1887 21.4461 80.0364 21.2939 79.8487 21.2939C79.6609 21.2939 79.5087 21.4461 79.5087 21.6339C79.5087 21.8216 79.6609 21.9738 79.8487 21.9738Z" fill="#D6952D"/>
<path d="M110.494 19.4841C110.682 19.4841 110.834 19.3319 110.834 19.1442C110.834 18.9564 110.682 18.8042 110.494 18.8042C110.307 18.8042 110.154 18.9564 110.154 19.1442C110.154 19.3319 110.307 19.4841 110.494 19.4841Z" fill="#D6952D"/>
<path d="M80.0587 17.0748C80.4011 17.0748 80.6787 16.7972 80.6787 16.4549C80.6787 16.1125 80.4011 15.835 80.0587 15.835C79.7163 15.835 79.4387 16.1125 79.4387 16.4549C79.4387 16.7972 79.7163 17.0748 80.0587 17.0748Z" fill="#D6952D"/>
<path d="M85.0885 2.38687C86.0885 3.73667 86.4185 5.36644 86.1285 6.80624C84.6585 6.66626 83.1985 5.88637 82.1985 4.53656C81.1985 3.18675 80.8685 1.55698 81.1585 0.117188C82.6285 0.257168 84.0885 1.03706 85.0885 2.38687Z" fill="#2D963A"/>
<path d="M82.9183 3.68679C84.488 4.29671 85.6279 5.49654 86.1478 6.87634C84.828 7.54625 83.1782 7.65623 81.6085 7.04632C80.0387 6.4364 78.8988 5.23657 78.3789 3.85677C79.6987 3.18686 81.3485 3.07688 82.9183 3.68679Z" fill="#3EB750"/>
</g>
<rect x="118" y="5" width="38" height="16" rx="4" fill="#1C1C1C"/>
<path d="M122.781 17V9.92969H125.301C126.946 9.92969 127.752 10.916 127.752 12.2246C127.752 13.5283 126.941 14.5195 125.301 14.5195H123.855V17H122.781ZM123.855 13.6016H125.193C126.233 13.6064 126.668 13.0205 126.668 12.2246C126.668 11.4238 126.233 10.8525 125.193 10.8477H123.855V13.6016ZM130.975 17.1074C129.471 17.1074 128.489 16.0137 128.494 14.373C128.489 12.7227 129.471 11.6289 130.975 11.6289C132.469 11.6289 133.445 12.7227 133.445 14.373C133.445 16.0137 132.469 17.1074 130.975 17.1074ZM129.539 14.373C129.539 15.3838 130.003 16.2383 130.975 16.2383C131.932 16.2383 132.391 15.3838 132.391 14.373C132.391 13.3574 131.932 12.4932 130.975 12.4883C130.003 12.4932 129.539 13.3574 129.539 14.373ZM136.951 11.6973V12.5273H135.867V15.4375C135.872 16.0381 136.165 16.1455 136.502 16.1504C136.653 16.1504 136.883 16.1357 137.029 16.1211V17.0293C136.888 17.0488 136.663 17.0684 136.375 17.0684C135.56 17.0684 134.822 16.6191 134.832 15.6523V12.5273H134.051V11.6973H134.832V10.4277H135.867V11.6973H136.951ZM137.723 15.5059C137.718 14.2949 138.748 13.9824 139.705 13.9141C140.057 13.8945 140.853 13.8506 141.097 13.8408L141.092 13.416C141.097 12.8154 140.726 12.4688 140.018 12.4688C139.402 12.4688 139.031 12.752 138.924 13.1426H137.889C137.981 12.2637 138.802 11.6289 140.057 11.6289C140.901 11.6289 142.132 11.9365 142.137 13.4746V17H141.121V16.2773H141.082C140.877 16.6729 140.389 17.1172 139.51 17.1172C138.504 17.1172 137.718 16.541 137.723 15.5059ZM138.738 15.5156C138.738 16.0234 139.158 16.2822 139.744 16.2871C140.594 16.2822 141.102 15.7158 141.102 15.0859L141.097 14.6025C140.857 14.6172 140.101 14.6709 139.852 14.6855C139.168 14.7344 138.738 14.9932 138.738 15.5156ZM145.877 11.6973V12.5273H144.793V15.4375C144.798 16.0381 145.091 16.1455 145.428 16.1504C145.579 16.1504 145.809 16.1357 145.955 16.1211V17.0293C145.813 17.0488 145.589 17.0684 145.301 17.0684C144.485 17.0684 143.748 16.6191 143.758 15.6523V12.5273H142.977V11.6973H143.758V10.4277H144.793V11.6973H145.877ZM149.08 17.1074C147.576 17.1074 146.595 16.0137 146.6 14.373C146.595 12.7227 147.576 11.6289 149.08 11.6289C150.574 11.6289 151.551 12.7227 151.551 14.373C151.551 16.0137 150.574 17.1074 149.08 17.1074ZM147.645 14.373C147.645 15.3838 148.108 16.2383 149.08 16.2383C150.037 16.2383 150.496 15.3838 150.496 14.373C150.496 13.3574 150.037 12.4932 149.08 12.4883C148.108 12.4932 147.645 13.3574 147.645 14.373Z" fill="white"/>
</g>
<defs>
<clipPath id="clip0_85_1192">
<rect width="160" height="100" fill="white"/>
</clipPath>
<clipPath id="clip1_85_1192">
<rect width="159.977" height="100" fill="white"/>
</clipPath>
</defs>
</svg>
