<svg width="160" height="100" viewBox="0 0 160 100" fill="none" xmlns="http://www.w3.org/2000/svg">
<g clip-path="url(#clip0_85_1192)">
<path d="M159.38 0.609863H0.619995V99.3799H159.38V0.609863Z" fill="#FFDB92"/>
<path d="M160 100H0V0H160V100ZM1.24 98.78H158.76V1.22H1.24V98.77V98.78Z" fill="#EFD9B4"/>
<path d="M159.38 0.609863H0.619995V41.9599H159.38V0.609863Z" fill="white"/>
<path d="M160 42.58H0V0H160V42.58ZM1.24 41.35H158.76V1.22H1.24V41.35Z" fill="white"/>
<path d="M159.38 43.5698H0.619995V48.1298H159.38V43.5698Z" fill="#B2AEA6"/>
<path d="M160 48.74H0V42.96H160V48.74ZM1.24 47.52H158.76V44.18H1.24V47.52Z" fill="#B2AEA6"/>
<path d="M78.04 26.7602V9.98021C78.04 8.45021 76.79 7.22021 75.25 7.22021H48.06C46.52 7.22021 45.27 8.46021 45.27 9.98021V26.5602C45.27 27.3502 45.6 28.1102 46.18 28.6502L54.4 36.3302C55.05 36.9402 55.91 37.2802 56.81 37.2802H86.85C87.82 37.2802 88.25 36.0802 87.5 35.4702L78.86 28.4602C78.34 28.0402 78.04 27.4202 78.04 26.7502V26.7602Z" fill="#455767"/>
<path d="M75.0399 10.0498H47.8199V25.7498H75.0399V10.0498Z" fill="#3888BA"/>
<path d="M61.47 12.4102H50.86V13.5402H61.47V12.4102Z" fill="#A0D1EA"/>
<path d="M64.6799 16.3799H54.0699V17.5099H64.6799V16.3799Z" fill="#A0D1EA"/>
<path d="M61.78 20.0601H51.17V21.1901H61.78V20.0601Z" fill="#A0D1EA"/>
<path d="M77.44 30.9202H54.78L53.41 29.9102H76.07L77.44 30.9202Z" fill="#506575"/>
<path d="M80.28 34.1301H57.63L56.26 33.1201H78.91L80.28 34.1301Z" fill="#506575"/>
<path d="M99.93 6.08008H83.59V20.7101C83.59 23.5801 85.91 25.9001 88.78 25.9001H90.43C91.23 25.9001 91.89 26.5501 91.89 27.3601V28.8001C91.89 30.6201 93.84 31.7801 95.44 30.9101L99.61 28.6501L99.94 6.09008L99.93 6.08008Z" fill="#FADDDC"/>
<path d="M84.67 21.3901L83.72 21.1201C82.87 20.8801 82.37 20.0001 82.61 19.1401L83.92 14.4901C84.02 14.1301 84.39 13.9301 84.74 14.0301C85.09 14.1301 85.3 14.5001 85.2 14.8501L84.07 18.8801C83.93 19.3601 84.22 19.8601 84.7 20.0001L85.03 20.0901C85.39 20.1901 85.59 20.5601 85.49 20.9101C85.39 21.2601 85.02 21.4701 84.67 21.3701V21.3901Z" fill="#E0B1BB"/>
<path d="M86.96 14.4298C86.96 14.9098 87.35 15.3098 87.84 15.3098C88.33 15.3098 88.72 14.9198 88.72 14.4298C88.72 13.9398 88.33 13.5498 87.84 13.5498C87.35 13.5498 86.96 13.9398 86.96 14.4298Z" fill="#757570"/>
<path d="M95.9901 19.3999H97.09C97.6202 19.3999 98.05 18.9701 98.05 18.4399V14.0499C98.05 13.5197 97.6202 13.0899 97.09 13.0899H95.9901C95.4599 13.0899 95.03 13.5197 95.03 14.0499V18.4399C95.03 18.9701 95.4599 19.3999 95.9901 19.3999Z" fill="#FADDDC"/>
<path d="M105.91 28.9299H84.71C82.01 28.9299 79.54 29.8799 77.6 31.4499C76.9 31.7599 75.7 33.3199 75.47 33.7299C74.98 34.6399 74.19 36.1599 73.97 36.9299C70.94 44.0299 66.11 43.2799 73.44 58.8699C73.44 58.8699 116.58 58.8399 116.58 58.8299C126.26 38.1899 113.26 28.9199 105.91 28.9199V28.9299Z" fill="#3E2967"/>
<path d="M111.83 81.0699H79.12C75.09 81.0699 71.68 78.1199 71.14 74.1599L67.64 48.3899C66.99 43.6099 70.75 39.3599 75.62 39.3599H114.64C119.43 39.3599 123.16 43.4699 122.64 48.1799L119.84 73.9499C119.4 77.9999 115.95 81.0699 111.84 81.0699H111.83Z" fill="#E5E5E5"/>
<path d="M114.64 46.7099C114.71 46.7099 114.92 46.7099 115.11 46.9199C115.3 47.1299 115.27 47.3299 115.27 47.3999L112.47 73.1699C112.44 73.4899 112.17 73.7199 111.85 73.7199H79.14C78.83 73.7199 78.56 73.4899 78.52 73.1799L75.02 47.4099C75.02 47.3399 74.98 47.1299 75.17 46.9199C75.36 46.7099 75.57 46.7099 75.64 46.7099H114.66M114.66 39.3599H75.64C70.77 39.3599 67.01 43.6099 67.66 48.3899L71.16 74.1599C71.7 78.1099 75.11 81.0699 79.14 81.0699H111.85C115.96 81.0699 119.41 77.9999 119.85 73.9499L122.65 48.1799C123.16 43.4699 119.43 39.3599 114.65 39.3599H114.66Z" fill="#F7F7F7"/>
<path d="M93.8801 0.160168C92.4901 0.300168 89.4601 1.47017 87.6701 2.99017C85.8801 4.51017 83.4601 6.93017 82.7001 7.68017C81.9401 8.43017 79.2401 11.2002 78.6301 12.1702C77.4601 14.0302 75.8701 17.8302 76.4201 22.4602C76.9701 27.0902 81.8701 32.1902 87.8801 33.5102C93.8901 34.8202 102.45 35.6502 107.69 31.8502C112.93 28.0502 114.87 24.6702 114.25 19.7702C113.63 14.8702 111.21 11.9002 109.83 10.1702C108.45 8.44017 108.52 5.41017 105.41 3.40017C102.3 1.39017 99.4701 -0.399832 93.8801 0.160168Z" fill="#FCC31E"/>
<path d="M88.0801 8.60982C88.7815 8.60982 89.3501 8.04123 89.3501 7.33982C89.3501 6.63842 88.7815 6.06982 88.0801 6.06982C87.3787 6.06982 86.8101 6.63842 86.8101 7.33982C86.8101 8.04123 87.3787 8.60982 88.0801 8.60982Z" fill="#D6952D"/>
<path d="M107.2 13.1601C107.901 13.1601 108.47 12.5915 108.47 11.8901C108.47 11.1887 107.901 10.6201 107.2 10.6201C106.499 10.6201 105.93 11.1887 105.93 11.8901C105.93 12.5915 106.499 13.1601 107.2 13.1601Z" fill="#D6952D"/>
<path d="M91.82 29.1498C92.3889 29.1498 92.85 28.6887 92.85 28.1198C92.85 27.551 92.3889 27.0898 91.82 27.0898C91.2512 27.0898 90.79 27.551 90.79 28.1198C90.79 28.6887 91.2512 29.1498 91.82 29.1498Z" fill="#D6952D"/>
<path d="M98.0999 25.6201C98.6688 25.6201 99.1299 25.1589 99.1299 24.5901C99.1299 24.0212 98.6688 23.5601 98.0999 23.5601C97.5311 23.5601 97.0699 24.0212 97.0699 24.5901C97.0699 25.1589 97.5311 25.6201 98.0999 25.6201Z" fill="#D6952D"/>
<path d="M83.18 13.4102C83.4451 13.4102 83.66 13.1953 83.66 12.9302C83.66 12.6651 83.4451 12.4502 83.18 12.4502C82.9149 12.4502 82.7 12.6651 82.7 12.9302C82.7 13.1953 82.9149 13.4102 83.18 13.4102Z" fill="#D6952D"/>
<path d="M101.34 26.0498C101.605 26.0498 101.82 25.8349 101.82 25.5698C101.82 25.3047 101.605 25.0898 101.34 25.0898C101.075 25.0898 100.86 25.3047 100.86 25.5698C100.86 25.8349 101.075 26.0498 101.34 26.0498Z" fill="#D6952D"/>
<path d="M79.86 21.97C80.0478 21.97 80.2 21.8178 80.2 21.63C80.2 21.4423 80.0478 21.29 79.86 21.29C79.6722 21.29 79.52 21.4423 79.52 21.63C79.52 21.8178 79.6722 21.97 79.86 21.97Z" fill="#D6952D"/>
<path d="M110.51 19.4798C110.698 19.4798 110.85 19.3276 110.85 19.1398C110.85 18.952 110.698 18.7998 110.51 18.7998C110.322 18.7998 110.17 18.952 110.17 19.1398C110.17 19.3276 110.322 19.4798 110.51 19.4798Z" fill="#D6952D"/>
<path d="M80.07 17.0701C80.4124 17.0701 80.69 16.7925 80.69 16.4501C80.69 16.1077 80.4124 15.8301 80.07 15.8301C79.7275 15.8301 79.45 16.1077 79.45 16.4501C79.45 16.7925 79.7275 17.0701 80.07 17.0701Z" fill="#D6952D"/>
<path d="M85.1 2.37986C86.1 3.72986 86.43 5.35986 86.14 6.79986C84.67 6.65986 83.21 5.87986 82.21 4.52986C81.21 3.17986 80.88 1.54986 81.17 0.109863C82.64 0.249863 84.1 1.02986 85.1 2.37986Z" fill="#2D963A"/>
<path d="M82.93 3.68001C84.5 4.29001 85.64 5.49001 86.16 6.87001C84.84 7.54001 83.19 7.65001 81.62 7.04001C80.05 6.43001 78.91 5.23001 78.39 3.85001C79.71 3.18001 81.36 3.07001 82.93 3.68001Z" fill="#3EB750"/>
<rect x="118" y="5" width="38" height="16" rx="4" fill="#1C1C1C"/>
<path d="M122.781 17V9.92969H125.301C126.946 9.92969 127.752 10.916 127.752 12.2246C127.752 13.5283 126.941 14.5195 125.301 14.5195H123.855V17H122.781ZM123.855 13.6016H125.193C126.233 13.6064 126.668 13.0205 126.668 12.2246C126.668 11.4238 126.233 10.8525 125.193 10.8477H123.855V13.6016ZM130.975 17.1074C129.471 17.1074 128.489 16.0137 128.494 14.373C128.489 12.7227 129.471 11.6289 130.975 11.6289C132.469 11.6289 133.445 12.7227 133.445 14.373C133.445 16.0137 132.469 17.1074 130.975 17.1074ZM129.539 14.373C129.539 15.3838 130.003 16.2383 130.975 16.2383C131.932 16.2383 132.391 15.3838 132.391 14.373C132.391 13.3574 131.932 12.4932 130.975 12.4883C130.003 12.4932 129.539 13.3574 129.539 14.373ZM136.951 11.6973V12.5273H135.867V15.4375C135.872 16.0381 136.165 16.1455 136.502 16.1504C136.653 16.1504 136.883 16.1357 137.029 16.1211V17.0293C136.888 17.0488 136.663 17.0684 136.375 17.0684C135.56 17.0684 134.822 16.6191 134.832 15.6523V12.5273H134.051V11.6973H134.832V10.4277H135.867V11.6973H136.951ZM137.723 15.5059C137.718 14.2949 138.748 13.9824 139.705 13.9141C140.057 13.8945 140.853 13.8506 141.097 13.8408L141.092 13.416C141.097 12.8154 140.726 12.4688 140.018 12.4688C139.402 12.4688 139.031 12.752 138.924 13.1426H137.889C137.981 12.2637 138.802 11.6289 140.057 11.6289C140.901 11.6289 142.132 11.9365 142.137 13.4746V17H141.121V16.2773H141.082C140.877 16.6729 140.389 17.1172 139.51 17.1172C138.504 17.1172 137.718 16.541 137.723 15.5059ZM138.738 15.5156C138.738 16.0234 139.158 16.2822 139.744 16.2871C140.594 16.2822 141.102 15.7158 141.102 15.0859L141.097 14.6025C140.857 14.6172 140.101 14.6709 139.852 14.6855C139.168 14.7344 138.738 14.9932 138.738 15.5156ZM145.877 11.6973V12.5273H144.793V15.4375C144.798 16.0381 145.091 16.1455 145.428 16.1504C145.579 16.1504 145.809 16.1357 145.955 16.1211V17.0293C145.813 17.0488 145.589 17.0684 145.301 17.0684C144.485 17.0684 143.748 16.6191 143.758 15.6523V12.5273H142.977V11.6973H143.758V10.4277H144.793V11.6973H145.877ZM149.08 17.1074C147.576 17.1074 146.595 16.0137 146.6 14.373C146.595 12.7227 147.576 11.6289 149.08 11.6289C150.574 11.6289 151.551 12.7227 151.551 14.373C151.551 16.0137 150.574 17.1074 149.08 17.1074ZM147.645 14.373C147.645 15.3838 148.108 16.2383 149.08 16.2383C150.037 16.2383 150.496 15.3838 150.496 14.373C150.496 13.3574 150.037 12.4932 149.08 12.4883C148.108 12.4932 147.645 13.3574 147.645 14.373Z" fill="white"/>
</g>
<defs>
<clipPath id="clip0_85_1192">
<rect width="160" height="100" fill="white"/>
</clipPath>
</defs>
</svg>
