<svg width="160" height="100" viewBox="0 0 160 100" fill="none" xmlns="http://www.w3.org/2000/svg">
<g clip-path="url(#clip0_14_1337)">
<path d="M159.25 0.610107H0.619995V99.3801H159.25V0.610107Z" fill="#FFDB92"/>
<path d="M159.86 100H0V0H159.86V100ZM1.24 98.78H158.63V1.22H1.24V98.77V98.78Z" fill="#EFD9B4"/>
<path d="M159.39 82.55H0.76001V99.39H159.39V82.55Z" fill="white"/>
<path d="M160 99.9999H0.140015V81.9399H160V99.9999ZM1.37001 98.7799H158.76V83.1699H1.37001V98.7799Z" fill="white"/>
<path d="M72.65 43.8901C72.31 43.2901 71.82 42.8301 71.26 42.5101C69.48 40.8401 67.08 39.8201 64.44 39.8201H43.25C40.55 39.8201 38.08 40.7701 36.15 42.3401C35.45 42.6501 34.84 43.1801 34.43 43.8901C34.38 43.9801 34.23 44.2501 34 44.6801C33.35 45.6301 32.85 46.6901 32.52 47.8301C29.49 54.9301 24.66 70.5201 31.99 86.1201L39.16 83.6701C38.87 83.0801 38.6 82.4801 38.35 81.8901H68.73C68.48 82.4901 68.21 83.0801 67.92 83.6701L75.09 86.1201C84.79 65.4701 73.17 44.8001 72.65 43.9001V43.8901Z" fill="#4D6059"/>
<path d="M31.45 84.9C30.45 83.09 31.12 80.83 32.95 79.84C34.45 79.03 36.26 79.33 37.41 80.47C37.66 80.72 37.88 81 38.06 81.33C38.49 82.11 38.89 82.9 39.26 83.68L32.09 86.13C31.89 85.72 31.68 85.31 31.45 84.91V84.9Z" fill="#FADDDC"/>
<path d="M75.64 85.0501C76.64 83.2401 75.97 80.9801 74.14 79.9901C72.64 79.1801 70.83 79.4801 69.68 80.6201C69.43 80.8701 69.21 81.1501 69.03 81.4801C68.6 82.2601 68.2 83.0501 67.83 83.8301L75 86.2801C75.2 85.8701 75.41 85.4601 75.64 85.0601V85.0501Z" fill="#FADDDC"/>
<path d="M53.7601 71.6L49.3501 75.3L48.3401 69.64H42.5901L45.4701 64.65L41.0601 60.94L46.4601 58.97L45.4801 53.31L50.8801 55.28L53.7601 50.29L56.6501 55.28L62.0501 53.31L61.0601 58.97L66.4601 60.94L62.0501 64.65L64.9301 69.64H59.1801L58.1701 75.3L53.7601 71.6ZM53.7601 70.71C55.8401 70.71 57.6201 69.97 59.0901 68.5C60.5601 67.03 61.3001 65.26 61.3001 63.18C61.3001 61.1 60.5601 59.33 59.0901 57.86C57.6201 56.39 55.8401 55.66 53.7601 55.66C51.6801 55.66 49.9101 56.39 48.4401 57.86C46.9701 59.33 46.2401 61.1 46.2401 63.18C46.2401 65.26 46.9801 67.04 48.4501 68.5C49.9301 69.97 51.7001 70.71 53.7701 70.71H53.7601Z" fill="#A4B2D3"/>
<path d="M49.89 19.97H65.76V31.03C65.76 34.55 62.91 37.4 59.39 37.4H59.11C58.33 37.4 57.7 38.03 57.7 38.81V40.68C57.7 42.82 55.96 44.56 53.82 44.56C51.68 44.56 49.95 42.83 49.94 40.69L49.89 19.97Z" fill="#FADDDC"/>
<path d="M60.62 32.8199H61.58C62.44 32.8199 63.14 32.1199 63.14 31.2599V26.5699C63.14 26.2099 62.85 25.9199 62.49 25.9199C62.13 25.9199 61.84 26.2099 61.84 26.5699V30.6399C61.84 31.1299 61.44 31.5199 60.96 31.5199H60.63C60.27 31.5199 59.98 31.8099 59.98 32.1699C59.98 32.5299 60.27 32.8199 60.63 32.8199H60.62Z" fill="#E0B1BB"/>
<path d="M57.3 26.7699C57.3 27.2499 57.69 27.6399 58.17 27.6399C58.65 27.6399 59.0401 27.2499 59.0401 26.7699C59.0401 26.2899 58.65 25.8999 58.17 25.8999C57.69 25.8999 57.3 26.2899 57.3 26.7699Z" fill="#757570"/>
<path d="M53.17 23.29L53.14 27.2C53.14 27.52 52.87 27.79 52.55 27.79C52.22 27.79 51.96 27.53 51.96 27.2V25.7C51.96 25.14 51.5 24.68 50.94 24.68C50.38 24.68 49.92 25.14 49.92 25.7V30.64L48.46 22.77C48.46 22.77 48.01 18.83 50.82 17.71C53.63 16.59 53.18 23.29 53.18 23.29H53.17Z" fill="#3E2967"/>
<path d="M48.3699 22.0401C48.2899 17.7701 51.3499 13.9801 55.6899 13.2901L57.0699 13.0701C61.4099 12.3801 65.4999 15.0201 66.7499 19.1101L71.2399 18.3901C71.8099 18.3001 72.3399 18.6901 72.4299 19.2501C72.5199 19.8201 72.1299 20.3501 71.5699 20.4401L48.5999 24.1101L48.3699 22.0401Z" fill="#A4B2D3"/>
<path d="M39.43 63.21H67.67C68.91 63.21 69.92 64.22 69.92 65.46V86.45H37.17V65.46C37.17 64.22 38.18 63.21 39.42 63.21H39.43Z" fill="#F7F7F7"/>
<path d="M53.81 78.0399C55.3122 78.0399 56.53 76.8356 56.53 75.3499C56.53 73.8643 55.3122 72.6599 53.81 72.6599C52.3078 72.6599 51.09 73.8643 51.09 75.3499C51.09 76.8356 52.3078 78.0399 53.81 78.0399Z" fill="#CED5D8"/>
<path d="M147.53 57.17L132.04 38.54C131.78 39.16 131.34 39.69 130.78 40.05L145.86 58.2C146.29 57.71 146.87 57.35 147.52 57.18L147.53 57.17Z" fill="#455767"/>
<path d="M125.69 37.3001C125.69 37.2201 125.69 37.1401 125.7 37.0601L109.85 44.1801L109.3 43.6401C109.1 43.4401 108.81 43.3601 108.54 43.4401L98.66 46.0601C98.07 46.2201 97.88 46.9401 98.31 47.3701L108.17 57.1401C108.6 57.5701 109.33 57.3701 109.49 56.7901L112.14 47.0001C112.21 46.7301 112.14 46.4401 111.94 46.2401L111.33 45.6401L126.17 38.9801C125.88 38.4901 125.71 37.9201 125.71 37.3201L125.69 37.3001Z" fill="#455767"/>
<path d="M147.29 63.4199L143.77 88.1799L145.69 88.4499L149.24 63.4699C148.96 63.5499 148.66 63.5999 148.35 63.5999C147.98 63.5999 147.62 63.5399 147.29 63.4199Z" fill="#455767"/>
<path d="M131.12 37.2999C131.12 36.1299 130.16 35.1899 128.99 35.1899C128.11 35.1899 127.36 35.7199 127.03 36.4599C126.92 36.7199 126.85 36.9999 126.85 37.2999C126.85 37.7399 126.99 38.1499 127.22 38.4799C127.6 39.0399 128.25 39.4099 128.99 39.4099C129.37 39.4099 129.73 39.3099 130.04 39.1399C130.66 38.7999 131.08 38.1599 131.12 37.4199C131.12 37.3799 131.12 37.3399 131.12 37.2999Z" fill="#455767"/>
<path d="M148.4 58.21C148.4 58.21 148.37 58.21 148.35 58.21C147.64 58.21 147.01 58.56 146.62 59.09C146.37 59.44 146.22 59.86 146.22 60.32C146.22 61.17 146.73 61.9 147.46 62.24C147.73 62.36 148.03 62.44 148.35 62.44C148.74 62.44 149.11 62.33 149.43 62.15C150.06 61.78 150.48 61.11 150.48 60.33C150.48 59.18 149.55 58.25 148.4 58.22V58.21Z" fill="#455767"/>
<path style="mix-blend-mode:darken" d="M97.4499 91.7001L108.16 57.1301L98.2999 47.3601L27.8199 93.0301L97.4499 91.7001Z" fill="url(#paint0_linear_14_1337)"/>
<path d="M145.09 92.36C149.453 92.36 152.99 90.7796 152.99 88.83C152.99 86.8805 149.453 85.3 145.09 85.3C140.727 85.3 137.19 86.8805 137.19 88.83C137.19 90.7796 140.727 92.36 145.09 92.36Z" fill="#455767"/>
<rect x="124.615" y="4.19507" width="31" height="16" rx="4" fill="#1C1C1C"/>
<path d="M129.573 16.1951V9.12476H132.093C133.738 9.12476 134.544 10.0378 134.544 11.3416C134.544 12.2937 134.114 13.0115 133.255 13.3386L134.818 16.1951H133.597L132.161 13.5291H132.093H130.648V16.1951H129.573ZM130.648 12.6013H131.985C133.026 12.5964 133.46 12.1375 133.46 11.3416C133.46 10.5457 133.026 10.0476 131.985 10.0427H130.648V12.6013ZM136.292 18.1873C136.077 18.1824 135.867 18.1775 135.735 18.158V17.2888C135.853 17.2986 136.058 17.3035 136.204 17.3083C136.526 17.3035 136.795 17.2839 137.044 16.615L137.171 16.2634L135.228 10.8923H136.341L137.679 15.0037H137.737L139.075 10.8923H140.198L138.011 16.8982C137.703 17.738 137.166 18.1824 136.292 18.1873ZM140.638 14.7009C140.633 13.49 141.663 13.1775 142.62 13.1091C142.972 13.0896 143.768 13.0457 144.012 13.0359L144.007 12.6111C144.012 12.0105 143.641 11.6638 142.933 11.6638C142.318 11.6638 141.946 11.947 141.839 12.3376H140.804C140.897 11.4587 141.717 10.824 142.972 10.824C143.817 10.824 145.047 11.1316 145.052 12.6697V16.1951H144.036V15.4724H143.997C143.792 15.8679 143.304 16.3123 142.425 16.3123C141.419 16.3123 140.633 15.7361 140.638 14.7009ZM141.653 14.7107C141.653 15.2185 142.073 15.4773 142.659 15.4822C143.509 15.4773 144.017 14.9109 144.017 14.281L144.012 13.7976C143.773 13.8123 143.016 13.866 142.767 13.8806C142.083 13.9294 141.653 14.1882 141.653 14.7107ZM147.357 13.0505V16.1951H146.312V10.8923H147.318V11.7615H147.376C147.625 11.1902 148.148 10.824 148.939 10.824C150.027 10.824 150.75 11.5125 150.745 12.8259V16.1951H149.71V12.9529C149.705 12.1814 149.29 11.7224 148.587 11.7224C147.869 11.7224 147.357 12.2058 147.357 13.0505Z" fill="white"/>
</g>
<defs>
<linearGradient id="paint0_linear_14_1337" x1="71.9899" y1="76.1901" x2="89.4999" y2="45.9301" gradientUnits="userSpaceOnUse">
<stop stop-color="white"/>
<stop offset="1" stop-color="#FFC552"/>
</linearGradient>
<clipPath id="clip0_14_1337">
<rect width="160" height="100" fill="white"/>
</clipPath>
</defs>
</svg>
