<svg width="160" height="100" viewBox="0 0 160 100" fill="none" xmlns="http://www.w3.org/2000/svg">
<g clip-path="url(#clip0_14_1337)">
<g clip-path="url(#clip1_14_1337)">
<path d="M159.228 0.617188H0.619995V99.3732H159.228V0.617188Z" fill="#FFE45F"/>
<path d="M159.837 99.9931H0V0.00732422H159.837V99.9931ZM1.23982 98.7733H158.607V1.22715H1.23982V98.7633V98.7733Z" fill="#EFD9B4"/>
<path d="M159.368 82.5454H0.76001V99.383H159.368V82.5454Z" fill="white"/>
<path d="M159.977 99.993H0.140015V81.9355H159.977V99.993ZM1.36984 98.7732H158.738V83.1654H1.36984V98.7732Z" fill="white"/>
<path d="M72.6397 43.8912C72.2997 43.2913 71.8098 42.8313 71.2499 42.5114C69.4701 40.8416 67.0705 39.8218 64.4309 39.8218H43.2439C40.5442 39.8218 38.0746 40.7716 36.1449 42.3414C35.445 42.6514 34.8351 43.1813 34.4251 43.8912C34.3751 43.9812 34.2251 44.2512 33.9952 44.6811C33.3453 45.631 32.8453 46.6908 32.5154 47.8306C29.4858 54.9296 24.6565 70.5174 31.9855 86.1152L39.1544 83.6656C38.8645 83.0756 38.5945 82.4757 38.3446 81.8858H68.7203C68.4703 82.4857 68.2003 83.0756 67.9104 83.6656L75.0793 86.1152C84.778 65.4681 73.1596 44.8011 72.6397 43.9012V43.8912Z" fill="#4D6059"/>
<path d="M75.6293 85.0454C76.6291 83.2357 75.9592 80.976 74.1295 79.9861C72.6297 79.1762 70.8199 79.4762 69.6701 80.616C69.4201 80.866 69.2002 81.146 69.0202 81.4759C68.5903 82.2558 68.1903 83.0457 67.8204 83.8256L74.9894 86.2752C75.1893 85.8653 75.3993 85.4554 75.6293 85.0554V85.0454Z" fill="#FADDDC"/>
<path d="M45.7235 75.0369V72.0073H34.4851V86.0553H45.7235V83.5357C48.0532 83.5157 49.9329 81.616 49.9329 79.2863C49.9329 76.9566 48.0532 75.0569 45.7235 75.0369ZM45.7235 82.5358V76.0368C47.5033 76.0567 48.9331 77.5065 48.9331 79.2863C48.9331 81.066 47.5033 82.5158 45.7235 82.5358Z" fill="white"/>
<path d="M34.0852 75.6567H37.5247C38.8045 75.6567 39.8344 76.6966 39.8344 77.9664V86.0553H31.7655V77.9664C31.7655 76.6866 32.8054 75.6567 34.0752 75.6567H34.0852Z" fill="#FADDDC"/>
<path d="M53.7524 71.597L49.343 75.2965L48.3332 69.6373H42.584L45.4636 64.648L41.0542 60.9385L46.4534 58.9688L45.4736 53.3096L50.8728 55.2793L53.7524 50.29L56.642 55.2793L62.0412 53.3096L61.0514 58.9688L66.4506 60.9385L62.0412 64.648L64.9208 69.6373H59.1716L58.1618 75.2965L53.7524 71.597ZM53.7524 70.7171C55.8321 70.7171 57.6119 69.9772 59.0816 68.5075C60.5514 67.0377 61.2913 65.2679 61.2913 63.1882C61.2913 61.1085 60.5514 59.3388 59.0816 57.869C57.6119 56.3992 55.8321 55.6693 53.7524 55.6693C51.6727 55.6693 49.9029 56.3992 48.4332 57.869C46.9634 59.3388 46.2335 61.1085 46.2335 63.1882C46.2335 65.2679 46.9734 67.0477 48.4432 68.5075C49.9229 69.9772 51.6927 70.7171 53.7624 70.7171H53.7524Z" fill="#A4B2D3"/>
<path d="M49.8829 19.9746H65.7507V31.033C65.7507 34.5525 62.9011 37.4021 59.3816 37.4021H59.1016C58.3217 37.4021 57.6918 38.0321 57.6918 38.8119V40.6817C57.6918 42.8214 55.9521 44.5611 53.8124 44.5611C51.6727 44.5611 49.9429 42.8314 49.9329 40.6917L49.8829 19.9746Z" fill="#FADDDC"/>
<path d="M60.6115 32.8228H61.5715C62.4315 32.8228 63.1315 32.1229 63.1315 31.2631V26.5737C63.1315 26.2138 62.8415 25.9238 62.4815 25.9238C62.1215 25.9238 61.8315 26.2138 61.8315 26.5737V30.6432C61.8315 31.1331 61.4315 31.523 60.9515 31.523H60.6215C60.2615 31.523 59.9715 31.813 59.9715 32.1729C59.9715 32.5329 60.2615 32.8228 60.6215 32.8228H60.6115Z" fill="#E0B1BB"/>
<path d="M57.2919 26.7737C57.2919 27.2536 57.6819 27.6436 58.1619 27.6436C58.6419 27.6436 59.0319 27.2536 59.0319 26.7737C59.0319 26.2938 58.6419 25.9038 58.1619 25.9038C57.6819 25.9038 57.2919 26.2938 57.2919 26.7737Z" fill="#757570"/>
<path d="M53.1631 23.2938L53.1331 27.2033C53.1331 27.5232 52.8631 27.7932 52.5431 27.7932C52.2131 27.7932 51.9531 27.5332 51.9531 27.2033V25.7035C51.9531 25.1436 51.4931 24.6836 50.9331 24.6836C50.3731 24.6836 49.9131 25.1436 49.9131 25.7035V30.6428L48.4531 22.7739C48.4531 22.7739 48.0031 18.8345 50.8131 17.7146C53.6231 16.5948 53.1731 23.2938 53.1731 23.2938H53.1631Z" fill="#3E2967"/>
<path d="M48.3632 22.0444C48.2832 17.775 51.3427 13.9856 55.6821 13.2957L57.0619 13.0757C61.4013 12.3858 65.4907 15.0254 66.7406 19.1149L71.2299 18.395C71.7998 18.305 72.3298 18.6949 72.4198 19.2548C72.5097 19.8248 72.1198 20.3547 71.5599 20.4447L48.5931 24.1141L48.3632 22.0444Z" fill="#A4B2D3"/>
<path d="M92.5769 86.0654L48.5531 86.0054L48.5731 86.7653L56.282 89.7648L91.1771 89.8148C91.9469 89.8148 92.5769 89.1949 92.5769 88.415V86.0554V86.0654Z" fill="#2C3B41"/>
<path d="M90.7171 63.1982H56.8619C55.8238 63.1982 54.9822 64.0398 54.9822 65.078V87.9347C54.9822 88.9729 55.8238 89.8145 56.8619 89.8145H90.7171C91.7553 89.8145 92.5968 88.9729 92.5968 87.9347V65.078C92.5968 64.0398 91.7553 63.1982 90.7171 63.1982Z" fill="#455767"/>
<path d="M73.81 79.4462C75.3895 79.4462 76.67 78.1659 76.67 76.5866C76.67 75.0073 75.3895 73.7271 73.81 73.7271C72.2304 73.7271 70.95 75.0073 70.95 76.5866C70.95 78.1659 72.2304 79.4462 73.81 79.4462Z" fill="#DCE6F1"/>
<path d="M147.509 57.1693L132.021 38.542C131.761 39.1619 131.321 39.6918 130.761 40.0518L145.839 58.1992C146.269 57.7093 146.849 57.3493 147.499 57.1793L147.509 57.1693Z" fill="white"/>
<path d="M125.672 37.302C125.672 37.222 125.672 37.142 125.682 37.062L109.834 44.181L109.284 43.6411C109.085 43.4411 108.795 43.3611 108.525 43.4411L98.646 46.0607C98.0561 46.2207 97.8661 46.9406 98.296 47.3705L108.155 57.1392C108.585 57.5691 109.314 57.3691 109.474 56.7892L112.124 47.0006C112.194 46.7306 112.124 46.4407 111.924 46.2407L111.314 45.6408L126.152 38.9817C125.862 38.4918 125.692 37.9219 125.692 37.322L125.672 37.302Z" fill="white"/>
<path d="M147.27 63.4185L143.75 88.1749L145.67 88.4449L149.22 63.4685C148.94 63.5484 148.64 63.5984 148.33 63.5984C147.96 63.5984 147.6 63.5384 147.27 63.4185Z" fill="white"/>
<path d="M131.102 37.3021C131.102 36.1323 130.142 35.1924 128.972 35.1924C128.092 35.1924 127.342 35.7223 127.012 36.4622C126.902 36.7222 126.832 37.0021 126.832 37.3021C126.832 37.742 126.972 38.152 127.202 38.4819C127.582 39.0418 128.232 39.4118 128.972 39.4118C129.352 39.4118 129.712 39.3118 130.022 39.1418C130.642 38.8019 131.062 38.162 131.102 37.4221C131.102 37.3821 131.102 37.3421 131.102 37.3021Z" fill="white"/>
<path d="M148.379 58.209C148.379 58.209 148.349 58.209 148.329 58.209C147.619 58.209 146.989 58.5589 146.599 59.0889C146.349 59.4388 146.199 59.8588 146.199 60.3187C146.199 61.1686 146.709 61.8985 147.439 62.2384C147.709 62.3584 148.009 62.4384 148.329 62.4384C148.719 62.4384 149.089 62.3284 149.409 62.1484C150.039 61.7785 150.459 61.1086 150.459 60.3287C150.459 59.1788 149.529 58.249 148.379 58.219V58.209Z" fill="white"/>
<path style="mix-blend-mode:darken" d="M97.4362 91.6945L108.145 57.1295L98.2861 47.3608L27.816 93.0244L97.4362 91.6945Z" fill="url(#paint0_linear_14_1337)"/>
<path d="M142.6 93.5141C148.332 93.5141 152.978 91.9339 152.978 89.9846C152.978 88.0353 148.332 86.4551 142.6 86.4551C136.868 86.4551 132.221 88.0353 132.221 89.9846C132.221 91.9339 136.868 93.5141 142.6 93.5141Z" fill="#E5D1D1"/>
<path d="M145.069 92.3544C149.432 92.3544 152.968 90.7742 152.968 88.8249C152.968 86.8756 149.432 85.2954 145.069 85.2954C140.707 85.2954 137.171 86.8756 137.171 88.8249C137.171 90.7742 140.707 92.3544 145.069 92.3544Z" fill="white"/>
</g>
<rect x="124.615" y="4.19531" width="31" height="16" rx="4" fill="#1C1C1C"/>
<path d="M129.573 16.1953V9.125H132.093C133.738 9.125 134.544 10.0381 134.544 11.3418C134.544 12.2939 134.114 13.0117 133.255 13.3389L134.818 16.1953H133.597L132.161 13.5293H132.093H130.648V16.1953H129.573ZM130.648 12.6016H131.985C133.026 12.5967 133.46 12.1377 133.46 11.3418C133.46 10.5459 133.026 10.0479 131.985 10.043H130.648V12.6016ZM136.292 18.1875C136.077 18.1826 135.867 18.1777 135.735 18.1582V17.2891C135.853 17.2988 136.058 17.3037 136.204 17.3086C136.526 17.3037 136.795 17.2842 137.044 16.6152L137.171 16.2637L135.228 10.8926H136.341L137.679 15.0039H137.737L139.075 10.8926H140.198L138.011 16.8984C137.703 17.7383 137.166 18.1826 136.292 18.1875ZM140.638 14.7012C140.633 13.4902 141.663 13.1777 142.62 13.1094C142.972 13.0898 143.768 13.0459 144.012 13.0361L144.007 12.6113C144.012 12.0107 143.641 11.6641 142.933 11.6641C142.318 11.6641 141.946 11.9473 141.839 12.3379H140.804C140.897 11.459 141.717 10.8242 142.972 10.8242C143.817 10.8242 145.047 11.1318 145.052 12.6699V16.1953H144.036V15.4727H143.997C143.792 15.8682 143.304 16.3125 142.425 16.3125C141.419 16.3125 140.633 15.7363 140.638 14.7012ZM141.653 14.7109C141.653 15.2188 142.073 15.4775 142.659 15.4824C143.509 15.4775 144.017 14.9111 144.017 14.2812L144.012 13.7979C143.773 13.8125 143.016 13.8662 142.767 13.8809C142.083 13.9297 141.653 14.1885 141.653 14.7109ZM147.357 13.0508V16.1953H146.312V10.8926H147.318V11.7617H147.376C147.625 11.1904 148.148 10.8242 148.939 10.8242C150.027 10.8242 150.75 11.5127 150.745 12.8262V16.1953H149.71V12.9531C149.705 12.1816 149.29 11.7227 148.587 11.7227C147.869 11.7227 147.357 12.2061 147.357 13.0508Z" fill="white"/>
</g>
<defs>
<linearGradient id="paint0_linear_14_1337" x1="71.9798" y1="76.1868" x2="89.4873" y2="45.931" gradientUnits="userSpaceOnUse">
<stop stop-color="white"/>
<stop offset="1" stop-color="#FFC552"/>
</linearGradient>
<clipPath id="clip0_14_1337">
<rect width="160" height="100" fill="white"/>
</clipPath>
<clipPath id="clip1_14_1337">
<rect width="159.977" height="100" fill="white"/>
</clipPath>
</defs>
</svg>
