<svg width="160" height="100" viewBox="0 0 160 100" fill="none" xmlns="http://www.w3.org/2000/svg">
<g clip-path="url(#clip0_14_1906)">
<path d="M159.25 0.610107H0.619995V99.3801H159.25V0.610107Z" fill="#FFDB92"/>
<path d="M159.86 100H0V0H159.86V100ZM1.24 98.78H158.63V1.22H1.24V98.77V98.78Z" fill="#EFD9B4"/>
<path d="M159.39 82.55H0.76001V99.39H159.39V82.55Z" fill="white"/>
<path d="M160 99.9999H0.140015V81.9399H160V99.9999ZM1.37001 98.7799H158.76V83.1699H1.37001V98.7799Z" fill="white"/>
<path d="M72.65 43.8901C72.31 43.2901 71.82 42.8301 71.26 42.5101C69.48 40.8401 67.08 39.8201 64.44 39.8201H43.25C40.55 39.8201 38.08 40.7701 36.15 42.3401C35.45 42.6501 34.84 43.1801 34.43 43.8901C34.38 43.9801 34.23 44.2501 34 44.6801C33.35 45.6301 32.85 46.6901 32.52 47.8301C29.49 54.9301 24.66 70.5201 31.99 86.1201L39.16 83.6701C38.87 83.0801 38.6 82.4801 38.35 81.8901H68.73C68.48 82.4901 68.21 83.0801 67.92 83.6701L75.09 86.1201C84.79 65.4701 73.17 44.8001 72.65 43.9001V43.8901Z" fill="#FCC31E"/>
<path d="M31.45 84.9C30.45 83.09 31.12 80.83 32.95 79.84C34.45 79.03 36.26 79.33 37.41 80.47C37.66 80.72 37.88 81 38.06 81.33C38.49 82.11 38.89 82.9 39.26 83.68L32.09 86.13C31.89 85.72 31.68 85.31 31.45 84.91V84.9Z" fill="#FADDDC"/>
<path d="M75.6401 85.0501C76.6401 83.2401 75.9701 80.9801 74.1401 79.9901C72.6401 79.1801 70.8301 79.4801 69.6801 80.6201C69.4301 80.8701 69.2101 81.1501 69.0301 81.4801C68.6001 82.2601 68.2001 83.0501 67.8301 83.8301L75.0001 86.2801C75.2001 85.8701 75.4101 85.4601 75.6401 85.0601V85.0501Z" fill="#FADDDC"/>
<path d="M72.8599 53.94H70.4099L72.1399 52.21L71.6799 51.75L69.9599 53.48V51.03H69.3099V53.48L67.5799 51.75L67.1299 52.21L68.8599 53.94H66.4099V54.58H68.8599L67.1299 56.31L67.5799 56.76L69.3099 55.04V57.48H69.9599V55.04L71.6799 56.76L72.1399 56.31L70.4099 54.58H72.8599V53.94Z" fill="#F6A723"/>
<path d="M65.0501 45.2899H62.6101L64.3401 43.5599L63.8801 43.1099L62.1501 44.8399V42.3899H61.5101V44.8399L59.7801 43.1099L59.3201 43.5599L61.0501 45.2899H58.6101V45.9399H61.0501L59.3201 47.6599L59.7801 48.1199L61.5101 46.3899V48.8399H62.1501V46.3899L63.8801 48.1199L64.3401 47.6599L62.6101 45.9399H65.0501V45.2899Z" fill="#F6A723"/>
<path d="M40.47 57.0001H38.02L39.75 55.2701L39.29 54.8101L37.56 56.5401V54.1001H36.92V56.5401L35.19 54.8101L34.74 55.2701L36.46 57.0001H34.02V57.6401H36.46L34.74 59.3701L35.19 59.8301L36.92 58.1001V60.5401H37.56V58.1001L39.29 59.8301L39.75 59.3701L38.02 57.6401H40.47V57.0001Z" fill="#F6A723"/>
<path d="M60.2601 56.7601H57.8101L59.5401 55.0301L59.0901 54.5701L57.3601 56.3001V53.8601H56.7101V56.3001L54.9901 54.5701L54.5301 55.0301L56.2601 56.7601H53.8101V57.4001H56.2601L54.5301 59.1301L54.9901 59.5901L56.7101 57.8601V60.3001H57.3601V57.8601L59.0901 59.5901L59.5401 59.1301L57.8101 57.4001H60.2601V56.7601Z" fill="#F6A723"/>
<path d="M72.2701 66.88H69.8201L71.5501 65.15L71.0901 64.7L69.3601 66.43V63.98H68.7201V66.43L66.9901 64.7L66.5401 65.15L68.2601 66.88H65.8201V67.53H68.2601L66.5401 69.25L66.9901 69.71L68.7201 67.98V70.43H69.3601V67.98L71.0901 69.71L71.5501 69.25L69.8201 67.53H72.2701V66.88Z" fill="#F6A723"/>
<path d="M45.0101 44.46H42.5601L44.2901 42.73L43.8301 42.2701L42.1001 44V41.55H41.4601V44L39.7301 42.2701L39.2801 42.73L41.0001 44.46H38.5601V45.1H41.0001L39.2801 46.8301L39.7301 47.28L41.4601 45.5601V48H42.1001V45.5601L43.8301 47.28L44.2901 46.8301L42.5601 45.1H45.0101V44.46Z" fill="#F6A723"/>
<path d="M49.3299 65.0499H46.8799L48.6099 63.3299L48.1599 62.8699L46.4299 64.5999V62.1499H45.7799V64.5999L44.0499 62.8699L43.5999 63.3299L45.3299 65.0499H42.8799V65.6999H45.3299L43.5999 67.4299L44.0499 67.8799L45.7799 66.1599V68.5999H46.4299V66.1599L48.1599 67.8799L48.6099 67.4299L46.8799 65.6999H49.3299V65.0499Z" fill="#F6A723"/>
<path d="M57.6299 78.2401H55.1799L56.9099 76.5101L56.4599 76.0601L54.7299 77.7901V75.3401H54.0799V77.7901L52.3499 76.0601L51.8999 76.5101L53.6299 78.2401H51.1799V78.8901H53.6299L51.8999 80.6201L52.3499 81.0701L54.0799 79.3401V81.7901H54.7299V79.3401L56.4599 81.0701L56.9099 80.6201L55.1799 78.8901H57.6299V78.2401Z" fill="#F6A723"/>
<path d="M50.26 20.3999H66.02V32.7099C66.02 35.4799 63.78 37.7199 61.01 37.7199H59.42C58.64 37.7199 58.01 38.3499 58.01 39.1299V40.7299C58.01 42.3599 56.69 43.6799 55.06 43.6799H53.26C51.63 43.6799 50.31 42.3599 50.31 40.7399L50.25 20.4099L50.26 20.3999Z" fill="#FADDDC"/>
<path d="M52.7101 17.6999H53.4201H55.6401C56.6001 17.6999 57.5101 17.1699 57.8901 16.2899C58.4401 14.9899 59.7301 14.0799 61.2301 14.0799C61.5601 14.0799 61.8801 14.1299 62.1901 14.2099C63.2301 12.7999 65.0201 11.9699 66.9801 12.3199C68.8901 12.6599 70.4401 14.1899 70.8201 16.0899C71.0001 16.9599 70.9301 17.7999 70.6901 18.5599C70.2901 20.5399 68.5401 22.0299 66.4401 22.0299H55.4201C54.3201 22.0299 53.4201 22.9299 53.4201 24.0299V27.5199C53.4201 29.2499 52.0201 30.6399 50.3001 30.6399C49.7501 30.6399 49.3101 30.1899 49.3101 29.6499V22.0299V21.0999C49.3101 19.2199 50.8401 17.6899 52.7201 17.6899L52.7101 17.6999Z" fill="#3E2967"/>
<path d="M60.93 33.1701H61.8801C62.7301 33.1701 63.43 32.4801 63.43 31.6201V26.9601C63.43 26.6001 63.1401 26.3201 62.7901 26.3201C62.4401 26.3201 62.1501 26.6101 62.1501 26.9601V31.0001C62.1501 31.4801 61.7601 31.8801 61.2701 31.8801H60.94C60.58 31.8801 60.3 32.1701 60.3 32.5201C60.3 32.8701 60.59 33.1601 60.94 33.1601L60.93 33.1701Z" fill="#E0B1BB"/>
<path d="M57.6201 27.15C57.6201 27.62 58.0001 28.01 58.4801 28.01C58.9601 28.01 59.3401 27.63 59.3401 27.15C59.3401 26.67 58.9601 26.29 58.4801 26.29C58.0001 26.29 57.6201 26.67 57.6201 27.15Z" fill="#757570"/>
<path d="M39.4299 63.21H67.6699C68.9099 63.21 69.9199 64.22 69.9199 65.46V86.45H37.1699V65.46C37.1699 64.22 38.1799 63.21 39.4199 63.21H39.4299Z" fill="#455767"/>
<path d="M53.8101 78.0399C55.3123 78.0399 56.5301 76.8356 56.5301 75.3499C56.5301 73.8643 55.3123 72.6599 53.8101 72.6599C52.3079 72.6599 51.0901 73.8643 51.0901 75.3499C51.0901 76.8356 52.3079 78.0399 53.8101 78.0399Z" fill="#969899"/>
<path d="M147.53 57.17L132.04 38.54C131.78 39.16 131.34 39.69 130.78 40.05L145.86 58.2C146.29 57.71 146.87 57.35 147.52 57.18L147.53 57.17Z" fill="#455767"/>
<path d="M125.69 37.3001C125.69 37.2201 125.69 37.1401 125.7 37.0601L109.85 44.1801L109.3 43.6401C109.1 43.4401 108.81 43.3601 108.54 43.4401L98.66 46.0601C98.07 46.2201 97.88 46.9401 98.31 47.3701L108.17 57.1401C108.6 57.5701 109.33 57.3701 109.49 56.7901L112.14 47.0001C112.21 46.7301 112.14 46.4401 111.94 46.2401L111.33 45.6401L126.17 38.9801C125.88 38.4901 125.71 37.9201 125.71 37.3201L125.69 37.3001Z" fill="#455767"/>
<path d="M147.29 63.4199L143.77 88.1799L145.69 88.4499L149.24 63.4699C148.96 63.5499 148.66 63.5999 148.35 63.5999C147.98 63.5999 147.62 63.5399 147.29 63.4199Z" fill="#455767"/>
<path d="M131.12 37.2999C131.12 36.1299 130.16 35.1899 128.99 35.1899C128.11 35.1899 127.36 35.7199 127.03 36.4599C126.92 36.7199 126.85 36.9999 126.85 37.2999C126.85 37.7399 126.99 38.1499 127.22 38.4799C127.6 39.0399 128.25 39.4099 128.99 39.4099C129.37 39.4099 129.73 39.3099 130.04 39.1399C130.66 38.7999 131.08 38.1599 131.12 37.4199C131.12 37.3799 131.12 37.3399 131.12 37.2999Z" fill="#455767"/>
<path d="M148.4 58.21C148.4 58.21 148.37 58.21 148.35 58.21C147.64 58.21 147.01 58.56 146.62 59.09C146.37 59.44 146.22 59.86 146.22 60.32C146.22 61.17 146.73 61.9 147.46 62.24C147.73 62.36 148.03 62.44 148.35 62.44C148.74 62.44 149.11 62.33 149.43 62.15C150.06 61.78 150.48 61.11 150.48 60.33C150.48 59.18 149.55 58.25 148.4 58.22V58.21Z" fill="#455767"/>
<path style="mix-blend-mode:darken" d="M97.4499 91.7001L108.16 57.1301L98.2999 47.3601L27.8199 93.0301L97.4499 91.7001Z" fill="url(#paint0_linear_14_1906)"/>
<path d="M145.09 92.36C149.453 92.36 152.99 90.7796 152.99 88.83C152.99 86.8805 149.453 85.3 145.09 85.3C140.727 85.3 137.19 86.8805 137.19 88.83C137.19 90.7796 140.727 92.36 145.09 92.36Z" fill="#455767"/>
<rect x="127" y="4" width="29" height="16" rx="4" fill="#1C1C1C"/>
<path d="M136.041 10.7949C135.973 10.1357 135.396 9.75977 134.586 9.75977C133.722 9.75977 133.175 10.2041 133.17 10.8047C133.17 11.4736 133.897 11.7373 134.459 11.8691L135.143 12.0547C136.046 12.2744 137.179 12.7676 137.184 14.0469C137.179 15.2432 136.227 16.1172 134.557 16.1172C132.975 16.1172 131.979 15.3262 131.91 14.0371H132.984C133.048 14.8086 133.731 15.1748 134.557 15.1797C135.46 15.1748 136.114 14.7207 136.119 14.0273C136.114 13.4121 135.528 13.1631 134.781 12.9629L133.941 12.7383C132.804 12.4258 132.101 11.8496 132.096 10.8633C132.101 9.64258 133.185 8.83203 134.615 8.83203C136.051 8.83203 137.052 9.65234 137.086 10.7949H136.041ZM138.004 14.5059C137.999 13.2949 139.029 12.9824 139.986 12.9141C140.338 12.8945 141.134 12.8506 141.378 12.8408L141.373 12.416C141.378 11.8154 141.007 11.4688 140.299 11.4688C139.684 11.4688 139.312 11.752 139.205 12.1426H138.17C138.263 11.2637 139.083 10.6289 140.338 10.6289C141.183 10.6289 142.413 10.9365 142.418 12.4746V16H141.402V15.2773H141.363C141.158 15.6729 140.67 16.1172 139.791 16.1172C138.785 16.1172 137.999 15.541 138.004 14.5059ZM139.02 14.5156C139.02 15.0234 139.439 15.2822 140.025 15.2871C140.875 15.2822 141.383 14.7158 141.383 14.0859L141.378 13.6025C141.139 13.6172 140.382 13.6709 140.133 13.6855C139.449 13.7344 139.02 13.9932 139.02 14.5156ZM143.678 16V10.6973H144.684V11.5664H144.742C144.967 10.9756 145.489 10.6289 146.188 10.6289C146.896 10.6289 147.389 10.9756 147.613 11.5664H147.672C147.921 10.9951 148.497 10.6289 149.264 10.6289C150.221 10.6289 150.899 11.2295 150.904 12.4453V16H149.859V12.543C149.859 11.8252 149.41 11.5273 148.863 11.5273C148.194 11.5273 147.809 11.9863 147.809 12.6211V16H146.773V12.4844C146.773 11.9033 146.378 11.5273 145.807 11.5273C145.221 11.5273 144.723 12.0156 144.723 12.7285V16H143.678Z" fill="white"/>
</g>
<defs>
<linearGradient id="paint0_linear_14_1906" x1="71.9899" y1="76.1901" x2="89.4999" y2="45.9301" gradientUnits="userSpaceOnUse">
<stop stop-color="white"/>
<stop offset="1" stop-color="#FFC552"/>
</linearGradient>
<clipPath id="clip0_14_1906">
<rect width="160" height="100" fill="white"/>
</clipPath>
</defs>
</svg>
