<svg width="160" height="100" viewBox="0 0 160 100" fill="none" xmlns="http://www.w3.org/2000/svg">
<g clip-path="url(#clip0_14_1931)">
<g clip-path="url(#clip1_14_1931)">
<path d="M159.38 0.610107H0.619995V99.3801H159.38V0.610107Z" fill="#FFE45F"/>
<path d="M160 100H0V0H160V100ZM1.24 98.78H158.76V1.22H1.24V98.77V98.78Z" fill="#EFD9B4"/>
<path d="M85.79 78.91L87.92 91.05C88.22 92.75 89.7 93.99 91.42 93.99C93.32 93.99 94.88 92.5 94.97 90.61L95.58 77.98L85.79 78.91Z" fill="#3E2967"/>
<path d="M101.81 78.6001L101.44 90.7701C101.39 92.5601 102.77 94.0601 104.56 94.1501C106.13 94.2301 107.53 93.2001 107.92 91.6801L111.45 77.8201L101.81 78.6001Z" fill="#3E2967"/>
<path d="M115.58 90.4099L103.49 87.7999L110.72 86.5699L109.36 85.2199L100 86.4799V79.3899H96.91V86.4999L87.21 85.1499L85.45 86.2999L93.46 87.8799L80.64 90.4999L80.5 92.1299L96.83 90.0999L97.39 95.5699L99.24 95.5999L99.47 90.1699L115.8 92.0599L115.58 90.4099Z" fill="#8C8C8C"/>
<path d="M81.86 94.7001C82.7934 94.7001 83.55 93.9434 83.55 93.0101C83.55 92.0767 82.7934 91.3201 81.86 91.3201C80.9267 91.3201 80.17 92.0767 80.17 93.0101C80.17 93.9434 80.9267 94.7001 81.86 94.7001Z" fill="#8C8C8C"/>
<path d="M98.2501 98.7599C99.1834 98.7599 99.9401 98.0032 99.9401 97.0699C99.9401 96.1365 99.1834 95.3799 98.2501 95.3799C97.3167 95.3799 96.5601 96.1365 96.5601 97.0699C96.5601 98.0032 97.3167 98.7599 98.2501 98.7599Z" fill="#8C8C8C"/>
<path d="M115.05 95.2401C115.983 95.2401 116.74 94.4835 116.74 93.5501C116.74 92.6167 115.983 91.8601 115.05 91.8601C114.117 91.8601 113.36 92.6167 113.36 93.5501C113.36 94.4835 114.117 95.2401 115.05 95.2401Z" fill="#8C8C8C"/>
<path d="M109.36 89.62C110.293 89.62 111.05 88.8634 111.05 87.93C111.05 86.9966 110.293 86.24 109.36 86.24C108.427 86.24 107.67 86.9966 107.67 87.93C107.67 88.8634 108.427 89.62 109.36 89.62Z" fill="#8C8C8C"/>
<path d="M86.46 89.4801C87.3934 89.4801 88.15 88.7235 88.15 87.7901C88.15 86.8567 87.3934 86.1001 86.46 86.1001C85.5267 86.1001 84.77 86.8567 84.77 87.7901C84.77 88.7235 85.5267 89.4801 86.46 89.4801Z" fill="#8C8C8C"/>
<path d="M1.23999 41.35H158.76V1.21997H1.23999V41.35Z" fill="white"/>
<path d="M160 0H0V42.57H160V0Z" fill="white"/>
<path d="M160 48.3301H0V42.55H160V48.3301Z" fill="#B2AEA6"/>
<path d="M73.3799 26.75H61.6899V30.92H73.3799V26.75Z" fill="#2F3C43"/>
<path d="M77.28 30.8701H57.79V31.9701H77.28V30.8701Z" fill="#455767"/>
<path d="M87.96 0.209961H47.12C45.9602 0.209961 45.02 1.15016 45.02 2.30996V25.77C45.02 26.9298 45.9602 27.87 47.12 27.87H87.96C89.1198 27.87 90.06 26.9298 90.06 25.77V2.30996C90.06 1.15016 89.1198 0.209961 87.96 0.209961Z" fill="#455767"/>
<path d="M88.05 2.22998H47.03V24.98H88.05V2.22998Z" fill="#3888BA"/>
<path d="M87.25 25.75H83.5C83.2183 25.75 82.99 25.9783 82.99 26.26V26.27C82.99 26.5517 83.2183 26.78 83.5 26.78H87.25C87.5317 26.78 87.76 26.5517 87.76 26.27V26.26C87.76 25.9783 87.5317 25.75 87.25 25.75Z" fill="#2F3C43"/>
<path d="M81.72 25.75H81.51C81.2283 25.75 81 25.9783 81 26.26V26.27C81 26.5517 81.2283 26.78 81.51 26.78H81.72C82.0017 26.78 82.23 26.5517 82.23 26.27V26.26C82.23 25.9783 82.0017 25.75 81.72 25.75Z" fill="#2F3C43"/>
<path d="M61.29 4.72998H50.25V5.90998H61.29V4.72998Z" fill="#A0D1EA"/>
<path d="M66.15 4.72998H62.09V5.90998H66.15V4.72998Z" fill="#A0D16A"/>
<path d="M75.8 8.87012H65.41V10.0501H75.8V8.87012Z" fill="#EFBA7F"/>
<path d="M56.52 16.3401H50.5V17.5201H56.52V16.3401Z" fill="#EFBA7F"/>
<path d="M64.63 8.86011H53.59V10.0401H64.63V8.86011Z" fill="#A0D1EA"/>
<path d="M61.6099 12.6899H50.5699V13.8699H61.6099V12.6899Z" fill="#A0D1EA"/>
<path d="M73.31 12.6899H62.27V13.8699H73.31V12.6899Z" fill="#A0D1EA"/>
<path d="M68.41 16.3899H57.37V17.5699H68.41V16.3899Z" fill="#A0D1EA"/>
<path d="M95.2901 29.5601H56.78C55.8246 29.5601 55.05 30.3346 55.05 31.2901V40.4301C55.05 41.3855 55.8246 42.1601 56.78 42.1601H95.2901C96.2455 42.1601 97.02 41.3855 97.02 40.4301V31.2901C97.02 30.3346 96.2455 29.5601 95.2901 29.5601Z" fill="#455767"/>
<path d="M59.2999 30.6799H56.3199V32.3699H59.2999V30.6799Z" fill="#E23B28"/>
<path d="M62.22 30.6799H59.65V32.3699H62.22V30.6799Z" fill="#414B55"/>
<path d="M65.19 30.6799H62.62V32.3699H65.19V30.6799Z" fill="#E7E7E6"/>
<path d="M68.29 30.6799H65.72V32.3699H68.29V30.6799Z" fill="#E7E7E6"/>
<path d="M71.3801 30.6799H68.8101V32.3699H71.3801V30.6799Z" fill="#E7E7E6"/>
<path d="M74.47 30.6799H71.9V32.3699H74.47V30.6799Z" fill="#E7E7E6"/>
<path d="M77.57 30.6799H75V32.3699H77.57V30.6799Z" fill="#E7E7E6"/>
<path d="M80.66 30.6799H78.09V32.3699H80.66V30.6799Z" fill="#E7E7E6"/>
<path d="M83.7599 30.6799H81.1899V32.3699H83.7599V30.6799Z" fill="#E7E7E6"/>
<path d="M86.85 30.6799H84.28V32.3699H86.85V30.6799Z" fill="#E7E7E6"/>
<path d="M89.95 30.6799H87.38V32.3699H89.95V30.6799Z" fill="#E7E7E6"/>
<path d="M92.92 30.6799H90.35V32.3699H92.92V30.6799Z" fill="#E7E7E6"/>
<path d="M95.78 30.6799H93.21V32.3699H95.78V30.6799Z" fill="#E7E7E6"/>
<path d="M61.28 32.75H56.36V34.44H61.28V32.75Z" fill="#3C6383"/>
<path d="M64.2 32.75H61.63V34.44H64.2V32.75Z" fill="#414B55"/>
<path d="M67.18 32.75H64.61V34.44H67.18V32.75Z" fill="#E7E7E6"/>
<path d="M70.27 32.75H67.7V34.44H70.27V32.75Z" fill="#E7E7E6"/>
<path d="M73.37 32.75H70.8V34.44H73.37V32.75Z" fill="#E7E7E6"/>
<path d="M76.46 32.75H73.89V34.44H76.46V32.75Z" fill="#E7E7E6"/>
<path d="M79.55 32.75H76.98V34.44H79.55V32.75Z" fill="#E7E7E6"/>
<path d="M82.65 32.75H80.08V34.44H82.65V32.75Z" fill="#E7E7E6"/>
<path d="M85.74 32.75H83.17V34.44H85.74V32.75Z" fill="#E7E7E6"/>
<path d="M88.84 32.75H86.27V34.44H88.84V32.75Z" fill="#E7E7E6"/>
<path d="M91.93 32.75H89.36V34.44H91.93V32.75Z" fill="#E7E7E6"/>
<path d="M95.73 32.75H92.28V34.44H95.73V32.75Z" fill="#E7E7E6"/>
<path d="M62.9799 34.8501H56.3199V36.5401H62.9799V34.8501Z" fill="#3C6383"/>
<path d="M65.9 34.8501H63.33V36.5401H65.9V34.8501Z" fill="#414B55"/>
<path d="M68.8801 34.8501H66.3101V36.5401H68.8801V34.8501Z" fill="#E7E7E6"/>
<path d="M71.97 34.8501H69.4V36.5401H71.97V34.8501Z" fill="#E7E7E6"/>
<path d="M75.07 34.8501H72.5V36.5401H75.07V34.8501Z" fill="#E7E7E6"/>
<path d="M78.16 34.8501H75.59V36.5401H78.16V34.8501Z" fill="#E7E7E6"/>
<path d="M81.2599 34.8501H78.6899V36.5401H81.2599V34.8501Z" fill="#E7E7E6"/>
<path d="M84.35 34.8501H81.78V36.5401H84.35V34.8501Z" fill="#E7E7E6"/>
<path d="M87.44 34.8501H84.87V36.5401H87.44V34.8501Z" fill="#E7E7E6"/>
<path d="M90.54 34.8501H87.97V36.5401H90.54V34.8501Z" fill="#E7E7E6"/>
<path d="M95.7101 34.8501H91.0601V36.5401H95.7101V34.8501Z" fill="#E7E7E6"/>
<path d="M63.94 37.0701H56.33V38.7601H63.94V37.0701Z" fill="#3C6383"/>
<path d="M59.91 39.25H56.33V40.94H59.91V39.25Z" fill="#3C6383"/>
<path d="M63.8999 39.25H60.3199V40.94H63.8999V39.25Z" fill="#3C6383"/>
<path d="M67.8999 39.25H64.3199V40.94H67.8999V39.25Z" fill="#3C6383"/>
<path d="M95.75 39.25H68.24V40.94H95.75V39.25Z" fill="#E7E7E6"/>
<path d="M66.86 37.0701H64.29V38.7601H66.86V37.0701Z" fill="#414B55"/>
<path d="M69.84 37.0701H67.27V38.7601H69.84V37.0701Z" fill="#E7E7E6"/>
<path d="M72.94 37.0701H70.37V38.7601H72.94V37.0701Z" fill="#E7E7E6"/>
<path d="M76.03 37.0701H73.46V38.7601H76.03V37.0701Z" fill="#E7E7E6"/>
<path d="M79.12 37.0701H76.55V38.7601H79.12V37.0701Z" fill="#E7E7E6"/>
<path d="M82.22 37.0701H79.65V38.7601H82.22V37.0701Z" fill="#E7E7E6"/>
<path d="M85.31 37.0701H82.74V38.7601H85.31V37.0701Z" fill="#E7E7E6"/>
<path d="M88.41 37.0701H85.84V38.7601H88.41V37.0701Z" fill="#E7E7E6"/>
<path d="M91.5001 37.0701H88.9301V38.7601H91.5001V37.0701Z" fill="#E7E7E6"/>
<path d="M95.72 37.0701H92.02V38.7601H95.72V37.0701Z" fill="#E7E7E6"/>
<path d="M75.43 34.3101C75.13 32.1601 73.14 30.6501 70.99 30.9501C69.22 31.2001 67.89 32.5801 67.64 34.2601C67.59 34.6201 67.58 35.0001 67.64 35.3901C67.77 36.3201 67.93 37.2401 68.11 38.1301L75.67 35.7401C75.58 35.2701 75.5 34.7901 75.44 34.3101H75.43Z" fill="#FADDDC"/>
<path d="M89.5299 32.8699C89.2299 30.7199 87.2399 29.2099 85.0899 29.5099C83.3199 29.7599 81.9899 31.1399 81.7399 32.8199C81.6899 33.1799 81.6799 33.5599 81.7399 33.9499C81.8699 34.8799 82.0299 35.7999 82.2099 36.6899L89.7699 34.2999C89.6799 33.8299 89.5999 33.3499 89.5399 32.8699H89.5299Z" fill="#FADDDC"/>
<path d="M101.86 70.4C102.74 68.42 101.84 66.09 99.86 65.21C99.65 65.12 79.33 55.83 75.67 35.75L68.11 38.14C72.93 61.68 95.67 71.97 96.68 72.41C98.67 73.29 100.98 72.39 101.86 70.4Z" fill="#F29A0C"/>
<path d="M102.61 11.73H87.27V25.45C87.27 28.14 89.45 30.32 92.14 30.32H93.69C94.45 30.32 95.06 30.93 95.06 31.69V33.04C95.06 34.75 96.89 35.84 98.39 35.02L102.3 32.9L102.61 11.73Z" fill="#FADDDC"/>
<path d="M88.29 26.0999L87.4 25.8499C86.6 25.6299 86.1299 24.7899 86.3599 23.9899L87.5899 19.6299C87.6799 19.2999 88.03 19.0999 88.36 19.1999C88.6899 19.2999 88.89 19.6399 88.79 19.9699L87.73 23.7499C87.6 24.1999 87.8699 24.6699 88.3199 24.7999L88.6299 24.8899C88.9599 24.9799 89.1599 25.3299 89.0599 25.6599C88.9599 25.9899 88.62 26.1899 88.29 26.0899V26.0999Z" fill="#E0B1BB"/>
<path d="M99.23 9.1099H97.82C96.91 9.1099 96.03 8.5999 95.67 7.7399C95.14 6.4799 93.91 5.5899 92.48 5.5899C92.16 5.5899 91.85 5.6399 91.56 5.7199C90.56 4.3499 88.85 3.5399 86.98 3.8799C85.15 4.2099 83.67 5.69991 83.3 7.54991C83.13 8.39991 83.19 9.2099 83.42 9.9499C83.8 11.8799 85.48 13.3299 87.48 13.3299H93.76C95.49 13.3299 96.11 15.0799 96.11 16.1599L96.17 19.5299C96.17 21.2099 96.62 23.5399 100.73 22.8799L102.24 25.5299C102.7 25.6099 103.47 26.0899 103.86 24.4199V14.5699C103.86 12.7399 103.66 9.1099 99.21 9.1099H99.23Z" fill="#3E2967"/>
<path d="M90.4399 19.56C90.4399 20.02 90.8099 20.38 91.2599 20.38C91.7099 20.38 92.0799 20.01 92.0799 19.56C92.0799 19.11 91.7099 18.74 91.2599 18.74C90.8099 18.74 90.4399 19.11 90.4399 19.56Z" fill="#757570"/>
<path d="M98.87 24.29H99.79C100.32 24.29 100.75 23.8602 100.75 23.33V19.33C100.75 18.7998 100.32 18.37 99.79 18.37H98.87C98.3398 18.37 97.91 18.7998 97.91 19.33V23.33C97.91 23.8602 98.3398 24.29 98.87 24.29Z" fill="#FADDDC"/>
<path d="M108.67 31.95H87.47C84.77 31.95 76.9801 32.8899 73.7601 36.5999C70.9601 39.8299 70.5601 44.7099 70.9401 56.3899C71.0401 59.5099 73.6101 62 76.7301 61.99C89.4201 61.96 119.34 61.88 119.34 61.86C122.78 50.25 122.72 45.8299 120.8 39.9199C118.66 33.3499 110.11 31.95 108.67 31.95Z" fill="#FCB61E"/>
<path d="M113.45 80.45H82.98C79.23 80.45 76.05 77.5 75.55 73.54L72.29 47.77C71.68 42.99 75.18 38.74 79.72 38.74H116.06C120.52 38.74 123.99 42.85 123.51 47.56L120.9 73.33C120.49 77.38 117.28 80.45 113.45 80.45Z" fill="#E5E5E5"/>
<path d="M116.06 46.1C116.12 46.1 116.32 46.1 116.49 46.31C116.66 46.52 116.64 46.72 116.64 46.79L114.03 72.56C114 72.88 113.75 73.11 113.45 73.11H82.98C82.69 73.11 82.44 72.88 82.4 72.57L79.14 46.8C79.14 46.73 79.1 46.52 79.28 46.31C79.45 46.1 79.65 46.1 79.72 46.1H116.06ZM116.06 38.75H79.72C75.18 38.75 71.68 43 72.29 47.78L75.55 73.55C76.05 77.5 79.23 80.46 82.98 80.46H113.45C117.28 80.46 120.49 77.39 120.9 73.34L123.51 47.57C123.99 42.86 120.51 38.75 116.06 38.75Z" fill="#F7F7F7"/>
<path d="M72.33 61.3401H78.08V69.9101H72.33C71.02 69.9101 69.95 68.8401 69.95 67.5301V63.7201C69.95 62.4101 71.02 61.3401 72.33 61.3401Z" fill="#F7F7F7"/>
<path d="M120.44 61.3401H123.19C124.85 61.3401 126.2 62.6901 126.2 64.3501V66.3101C126.2 68.3001 124.58 69.9201 122.59 69.9201H120.45C119.14 69.9201 118.07 68.8501 118.07 67.5401V63.7301C118.07 62.4201 119.14 61.3501 120.45 61.3501L120.44 61.3401Z" fill="#F7F7F7"/>
<path d="M81.37 65.3H114.77L114.03 72.55L82.4 72.56L81.37 65.3Z" fill="#B2AEA6"/>
<path d="M45.8599 56.45H3.68994C3.4138 56.45 3.18994 56.6738 3.18994 56.95V96.4C3.18994 96.6761 3.4138 96.9 3.68994 96.9H45.8599C46.1361 96.9 46.3599 96.6761 46.3599 96.4V56.95C46.3599 56.6738 46.1361 56.45 45.8599 56.45Z" fill="#E2E2E2"/>
<path d="M43.4699 58.78H6.06995C5.7938 58.78 5.56995 59.0039 5.56995 59.28V66.59C5.56995 66.8662 5.7938 67.09 6.06995 67.09H43.4699C43.7461 67.09 43.9699 66.8662 43.9699 66.59V59.28C43.9699 59.0039 43.7461 58.78 43.4699 58.78Z" fill="white"/>
<path d="M43.4699 68.3401H6.06995C5.7938 68.3401 5.56995 68.5639 5.56995 68.8401V76.1501C5.56995 76.4262 5.7938 76.6501 6.06995 76.6501H43.4699C43.7461 76.6501 43.9699 76.4262 43.9699 76.1501V68.8401C43.9699 68.5639 43.7461 68.3401 43.4699 68.3401Z" fill="white"/>
<path d="M43.4699 77.8999H6.06995C5.7938 77.8999 5.56995 78.1238 5.56995 78.3999V94.1099C5.56995 94.386 5.7938 94.6099 6.06995 94.6099H43.4699C43.7461 94.6099 43.9699 94.386 43.9699 94.1099V78.3999C43.9699 78.1238 43.7461 77.8999 43.4699 77.8999Z" fill="white"/>
<path d="M29.2499 60.71H19.8099C19.2632 60.71 18.8199 61.1532 18.8199 61.7C18.8199 62.2467 19.2632 62.69 19.8099 62.69H29.2499C29.7967 62.69 30.2399 62.2467 30.2399 61.7C30.2399 61.1532 29.7967 60.71 29.2499 60.71Z" fill="#B2AEA6"/>
<path d="M29.2499 70.48H19.8099C19.2632 70.48 18.8199 70.9232 18.8199 71.47C18.8199 72.0167 19.2632 72.46 19.8099 72.46H29.2499C29.7967 72.46 30.2399 72.0167 30.2399 71.47C30.2399 70.9232 29.7967 70.48 29.2499 70.48Z" fill="#B2AEA6"/>
<path d="M29.2499 80.3701H19.8099C19.2632 80.3701 18.8199 80.8134 18.8199 81.3601C18.8199 81.9069 19.2632 82.3501 19.8099 82.3501H29.2499C29.7967 82.3501 30.2399 81.9069 30.2399 81.3601C30.2399 80.8134 29.7967 80.3701 29.2499 80.3701Z" fill="#B2AEA6"/>
<path d="M45.8601 56.4501L41.5001 52.8601H6.68005L3.68005 56.4501C3.68005 56.4501 45.9701 56.5701 45.8501 56.4501H45.8601Z" fill="#C1BFBC"/>
<path d="M136.55 26.23L136.1 25.6C136 25.48 135.85 25.41 135.69 25.39L132.54 25.12C132.17 25.09 131.84 25.33 131.76 25.69L131.26 27.85L131.13 28.92C131.13 28.92 131.25 29.19 131.38 29.23C131.51 29.27 135.47 29.58 135.56 29.59C135.65 29.6 135.88 29.72 136.03 29.23C136.15 28.83 136.45 27.23 136.64 26.64C136.69 26.5 136.64 26.34 136.55 26.23Z" fill="#2978A6"/>
<path d="M132.12 25.0801L135.7 25.3901C135.83 25.4001 135.91 25.5301 135.87 25.6501L135.17 27.8801C135.11 28.0901 134.91 28.2201 134.69 28.2001L131.53 27.8801C131.39 27.8701 131.29 27.7301 131.32 27.5901L131.85 25.2801C131.88 25.1601 131.99 25.0801 132.11 25.0901L132.12 25.0801Z" fill="#39A2DB"/>
<path d="M134.17 26.88C134.17 26.88 134.1 26.82 134.05 26.8C134 26.78 133.95 26.75 133.89 26.73C133.83 26.71 133.77 26.69 133.72 26.67C133.64 26.64 133.56 26.62 133.48 26.58C133.4 26.55 133.33 26.51 133.26 26.48C133.19 26.44 133.14 26.4 133.1 26.36C133.06 26.32 133.05 26.27 133.05 26.22C133.05 26.17 133.09 26.13 133.14 26.1C133.19 26.07 133.25 26.04 133.33 26.03C133.41 26.02 133.49 26.01 133.58 26.01C133.67 26.01 133.76 26.01 133.85 26.03C133.95 26.05 134.05 26.07 134.14 26.1C134.23 26.13 134.31 26.17 134.38 26.21C134.45 26.25 134.5 26.3 134.54 26.35C134.58 26.4 134.59 26.45 134.59 26.51L134.29 26.46C134.29 26.46 134.28 26.39 134.25 26.36C134.23 26.33 134.2 26.3 134.16 26.27C134.12 26.24 134.08 26.22 134.02 26.2C133.97 26.18 133.9 26.17 133.83 26.15C133.77 26.15 133.72 26.14 133.66 26.14C133.61 26.14 133.56 26.14 133.51 26.15C133.47 26.15 133.43 26.17 133.4 26.19C133.37 26.21 133.35 26.24 133.35 26.27C133.35 26.3 133.35 26.33 133.39 26.36C133.42 26.39 133.46 26.41 133.51 26.44C133.56 26.46 133.61 26.49 133.67 26.51C133.73 26.53 133.78 26.55 133.83 26.56C133.91 26.59 134 26.62 134.08 26.65C134.16 26.68 134.24 26.72 134.3 26.76C134.37 26.8 134.42 26.84 134.45 26.89C134.49 26.94 134.5 26.99 134.49 27.04C134.49 27.09 134.45 27.13 134.4 27.17C134.35 27.2 134.28 27.23 134.21 27.24C134.13 27.25 134.05 27.26 133.95 27.26C133.86 27.26 133.76 27.26 133.67 27.24C133.56 27.22 133.45 27.2 133.35 27.16C133.25 27.13 133.16 27.08 133.09 27.04C133.02 27 132.97 26.95 132.94 26.91C132.91 26.86 132.89 26.81 132.9 26.76L133.2 26.81C133.2 26.81 133.22 26.88 133.24 26.92C133.27 26.95 133.3 26.98 133.34 27.01C133.38 27.04 133.43 27.06 133.49 27.08C133.55 27.1 133.61 27.11 133.69 27.13C133.75 27.13 133.8 27.14 133.86 27.15C133.92 27.15 133.97 27.15 134.01 27.14C134.06 27.14 134.09 27.12 134.13 27.1C134.16 27.08 134.18 27.06 134.18 27.02C134.18 26.98 134.18 26.95 134.15 26.92L134.17 26.88Z" fill="black"/>
<path d="M138.41 27.29C138.51 27.2 138.64 27.16 138.77 27.17L144.23 27.64C144.42 27.66 144.92 27.98 144.86 28.69L144.7 30.57C144.68 30.82 144.61 31.14 143.92 31.08C143.23 31.02 139.2 30.66 138.71 30.62C138.22 30.58 137.87 30.41 137.91 29.97L138.1 27.74C138.1 27.63 138.16 27.53 138.24 27.46L138.42 27.3L138.41 27.29Z" fill="#12684D"/>
<path d="M138.43 27.47C138.43 27.47 138.6 27.26 138.85 27.26C139.1 27.26 144.12 27.71 144.24 27.72C144.36 27.73 144.5 27.88 144.57 28.03C144.62 28.13 144.5 29.12 144.43 29.61C144.41 29.79 144.25 29.91 144.07 29.9C142.91 29.82 138.89 29.45 138.61 29.43C138.28 29.4 138.23 29.14 138.27 28.89C138.31 28.64 138.42 27.48 138.42 27.48L138.43 27.47Z" fill="#0F9266"/>
<path d="M140.03 28.4901L140.01 28.7601L140.38 28.7901V28.8701L139.91 28.8301L139.97 28.0701L140.43 28.1101V28.1901L140.06 28.1601L140.04 28.4001L140.36 28.4301V28.5101L140.04 28.4801L140.03 28.4901Z" fill="black"/>
<path d="M140.58 28.3301H140.67V28.4201C140.67 28.4101 140.69 28.4001 140.7 28.3901C140.71 28.3901 140.72 28.3701 140.73 28.3701C140.75 28.3701 140.77 28.3501 140.79 28.3501C140.81 28.3501 140.83 28.3501 140.85 28.3501C140.88 28.3501 140.91 28.3501 140.93 28.3701C140.95 28.3901 140.97 28.4001 140.99 28.4101C141.01 28.4301 141.02 28.4501 141.02 28.4801C141.02 28.5101 141.02 28.5401 141.02 28.5801L140.99 28.9401H140.89L140.92 28.5801C140.92 28.5501 140.92 28.5301 140.92 28.5201C140.92 28.5001 140.91 28.4901 140.9 28.4801C140.89 28.4701 140.88 28.4601 140.86 28.4501C140.84 28.4401 140.83 28.4401 140.81 28.4401C140.79 28.4401 140.78 28.4401 140.76 28.4401C140.74 28.4401 140.73 28.4401 140.72 28.4601C140.71 28.4601 140.7 28.4701 140.69 28.4801C140.69 28.4801 140.67 28.5001 140.66 28.5101L140.63 28.9101H140.53L140.58 28.3401V28.3301Z" fill="black"/>
<path d="M141.45 28.4L141.66 28.42V28.49L141.44 28.47L141.41 28.78C141.41 28.78 141.41 28.82 141.41 28.83C141.41 28.84 141.42 28.86 141.43 28.87C141.43 28.87 141.45 28.89 141.46 28.89C141.47 28.89 141.49 28.89 141.5 28.89C141.51 28.89 141.52 28.89 141.53 28.89C141.54 28.89 141.55 28.89 141.56 28.89C141.57 28.89 141.58 28.89 141.59 28.89C141.6 28.89 141.61 28.89 141.61 28.89V28.96C141.61 28.96 141.6 28.96 141.59 28.97C141.58 28.98 141.57 28.97 141.55 28.97C141.54 28.97 141.52 28.97 141.51 28.97C141.49 28.97 141.48 28.97 141.46 28.97C141.43 28.97 141.41 28.97 141.39 28.95C141.37 28.95 141.35 28.93 141.34 28.91C141.33 28.89 141.31 28.87 141.31 28.85C141.31 28.82 141.31 28.79 141.31 28.76L141.34 28.45H141.19V28.36H141.34L141.35 28.24H141.45L141.44 28.38L141.45 28.4Z" fill="black"/>
<path d="M141.95 29C141.95 29 141.89 28.96 141.87 28.94C141.85 28.91 141.83 28.88 141.82 28.85C141.81 28.82 141.81 28.78 141.81 28.74V28.7199C141.81 28.7199 141.83 28.63 141.84 28.6C141.86 28.57 141.88 28.54 141.91 28.51C141.94 28.49 141.96 28.4699 142 28.4599C142.03 28.4499 142.06 28.45 142.1 28.45C142.14 28.45 142.18 28.4599 142.2 28.4799C142.23 28.4999 142.25 28.52 142.27 28.54C142.29 28.57 142.3 28.5999 142.31 28.6299C142.31 28.6599 142.31 28.7 142.31 28.74V28.78L141.91 28.75C141.91 28.75 141.91 28.81 141.92 28.83C141.92 28.85 141.94 28.8699 141.95 28.8899C141.96 28.9099 141.98 28.92 142 28.93C142.02 28.94 142.04 28.95 142.07 28.95C142.1 28.95 142.14 28.95 142.16 28.94C142.18 28.93 142.21 28.9099 142.23 28.8899L142.28 28.94C142.28 28.94 142.23 28.99 142.19 29.01C142.15 29.03 142.1 29.04 142.05 29.03C142.01 29.03 141.97 29.02 141.94 29H141.95ZM142.03 28.53C142.03 28.53 142 28.5399 141.98 28.5599C141.96 28.5699 141.95 28.59 141.94 28.61C141.93 28.63 141.92 28.65 141.91 28.68L142.21 28.7099C142.21 28.7099 142.21 28.67 142.21 28.65C142.21 28.63 142.2 28.61 142.19 28.6C142.18 28.58 142.17 28.5699 142.15 28.5599C142.13 28.5499 142.11 28.54 142.09 28.54C142.07 28.54 142.05 28.54 142.03 28.54V28.53Z" fill="black"/>
<path d="M142.92 28.52C142.92 28.52 142.95 28.52 142.96 28.53L142.94 28.62C142.94 28.62 142.9 28.61 142.89 28.61C142.87 28.61 142.86 28.61 142.84 28.61C142.82 28.61 142.8 28.61 142.78 28.61C142.76 28.61 142.74 28.62 142.73 28.63C142.72 28.63 142.7 28.65 142.69 28.66C142.68 28.67 142.67 28.69 142.66 28.7L142.63 29.06H142.53L142.58 28.49H142.67V28.57C142.67 28.57 142.72 28.53 142.76 28.52C142.79 28.51 142.83 28.5 142.87 28.5C142.89 28.5 142.91 28.5 142.92 28.5V28.52Z" fill="black"/>
<path d="M128.46 30.95C128.1 31.01 125.48 31.34 125.35 31.49C125.22 31.64 124.42 32.1999 124.45 32.3499C124.48 32.4999 125.35 34.3599 125.48 34.6899C125.61 35.0199 126.07 35.16 126.97 34.95C127.87 34.74 129.6 34.4 129.6 34.4L128.46 30.95Z" fill="#AA251F"/>
<path d="M128.42 30.9499C128.42 30.9499 126.32 31.3199 125.88 31.3899C125.44 31.4599 125.27 31.6499 125.37 31.9699C125.47 32.2899 125.88 33.1199 125.95 33.3699C126.02 33.6199 126.19 34.0399 126.75 33.9499C127.31 33.8599 128.69 33.4399 128.97 33.3699C129.25 33.2999 128.97 32.6499 128.97 32.6499L128.42 30.9399V30.9499Z" fill="#E23B28"/>
</g>
<rect x="127" y="4" width="29" height="16" rx="4" fill="#1C1C1C"/>
<path d="M136.041 10.7949C135.973 10.1357 135.396 9.75977 134.586 9.75977C133.722 9.75977 133.175 10.2041 133.17 10.8047C133.17 11.4736 133.897 11.7373 134.459 11.8691L135.143 12.0547C136.046 12.2744 137.179 12.7676 137.184 14.0469C137.179 15.2432 136.227 16.1172 134.557 16.1172C132.975 16.1172 131.979 15.3262 131.91 14.0371H132.984C133.048 14.8086 133.731 15.1748 134.557 15.1797C135.46 15.1748 136.114 14.7207 136.119 14.0273C136.114 13.4121 135.528 13.1631 134.781 12.9629L133.941 12.7383C132.804 12.4258 132.101 11.8496 132.096 10.8633C132.101 9.64258 133.185 8.83203 134.615 8.83203C136.051 8.83203 137.052 9.65234 137.086 10.7949H136.041ZM138.004 14.5059C137.999 13.2949 139.029 12.9824 139.986 12.9141C140.338 12.8945 141.134 12.8506 141.378 12.8408L141.373 12.416C141.378 11.8154 141.007 11.4688 140.299 11.4688C139.684 11.4688 139.312 11.752 139.205 12.1426H138.17C138.263 11.2637 139.083 10.6289 140.338 10.6289C141.183 10.6289 142.413 10.9365 142.418 12.4746V16H141.402V15.2773H141.363C141.158 15.6729 140.67 16.1172 139.791 16.1172C138.785 16.1172 137.999 15.541 138.004 14.5059ZM139.02 14.5156C139.02 15.0234 139.439 15.2822 140.025 15.2871C140.875 15.2822 141.383 14.7158 141.383 14.0859L141.378 13.6025C141.139 13.6172 140.382 13.6709 140.133 13.6855C139.449 13.7344 139.02 13.9932 139.02 14.5156ZM143.678 16V10.6973H144.684V11.5664H144.742C144.967 10.9756 145.489 10.6289 146.188 10.6289C146.896 10.6289 147.389 10.9756 147.613 11.5664H147.672C147.921 10.9951 148.497 10.6289 149.264 10.6289C150.221 10.6289 150.899 11.2295 150.904 12.4453V16H149.859V12.543C149.859 11.8252 149.41 11.5273 148.863 11.5273C148.194 11.5273 147.809 11.9863 147.809 12.6211V16H146.773V12.4844C146.773 11.9033 146.378 11.5273 145.807 11.5273C145.221 11.5273 144.723 12.0156 144.723 12.7285V16H143.678Z" fill="white"/>
</g>
<defs>
<clipPath id="clip0_14_1931">
<rect width="160" height="100" fill="white"/>
</clipPath>
<clipPath id="clip1_14_1931">
<rect width="160" height="100" fill="white"/>
</clipPath>
</defs>
</svg>
