<svg width="160" height="100" viewBox="0 0 160 100" fill="none" xmlns="http://www.w3.org/2000/svg">
<g clip-path="url(#clip0_14_1906)">
<g clip-path="url(#clip1_14_1906)">
<path d="M159.25 0.610107H0.619995V99.3801H159.25V0.610107Z" fill="#FFE45F"/>
<path d="M159.86 100H0V0H159.86V100ZM1.24 98.78H158.63V1.22H1.24V98.77V98.78Z" fill="#EFD9B4"/>
<path d="M159.39 82.55H0.76001V99.39H159.39V82.55Z" fill="white"/>
<path d="M160 99.9999H0.140015V81.9399H160V99.9999ZM1.37001 98.7799H158.76V83.1699H1.37001V98.7799Z" fill="white"/>
<path d="M72.65 43.8901C72.31 43.2901 71.82 42.8301 71.26 42.5101C69.48 40.8401 67.08 39.8201 64.44 39.8201H43.25C40.55 39.8201 38.08 40.7701 36.15 42.3401C35.45 42.6501 34.84 43.1801 34.43 43.8901C34.38 43.9801 34.23 44.2501 34 44.6801C33.35 45.6301 32.85 46.6901 32.52 47.8301C29.49 54.9301 24.66 70.5201 31.99 86.1201L39.16 83.6701C38.87 83.0801 38.6 82.4801 38.35 81.8901H68.73C68.48 82.4901 68.21 83.0801 67.92 83.6701L75.09 86.1201C84.79 65.4701 73.17 44.8001 72.65 43.9001V43.8901Z" fill="#FCB61E"/>
<path d="M75.64 85.0501C76.64 83.2401 75.97 80.9801 74.14 79.9901C72.64 79.1801 70.83 79.4801 69.68 80.6201C69.43 80.8701 69.21 81.1501 69.03 81.4801C68.6 82.2601 68.2 83.0501 67.83 83.8301L75 86.2801C75.2 85.8701 75.41 85.4601 75.64 85.0601V85.0501Z" fill="#FADDDC"/>
<path d="M72.86 53.94H70.41L72.14 52.21L71.68 51.75L69.96 53.48V51.03H69.31V53.48L67.58 51.75L67.13 52.21L68.86 53.94H66.41V54.58H68.86L67.13 56.31L67.58 56.76L69.31 55.04V57.48H69.96V55.04L71.68 56.76L72.14 56.31L70.41 54.58H72.86V53.94Z" fill="#EA7F0A"/>
<path d="M65.05 45.2899H62.61L64.34 43.5599L63.88 43.1099L62.15 44.8399V42.3899H61.51V44.8399L59.78 43.1099L59.32 43.5599L61.05 45.2899H58.61V45.9399H61.05L59.32 47.6599L59.78 48.1199L61.51 46.3899V48.8399H62.15V46.3899L63.88 48.1199L64.34 47.6599L62.61 45.9399H65.05V45.2899Z" fill="#EA7F0A"/>
<path d="M40.47 57.0001H38.02L39.75 55.2701L39.29 54.8101L37.56 56.5401V54.1001H36.92V56.5401L35.19 54.8101L34.74 55.2701L36.46 57.0001H34.02V57.6401H36.46L34.74 59.3701L35.19 59.8301L36.92 58.1001V60.5401H37.56V58.1001L39.29 59.8301L39.75 59.3701L38.02 57.6401H40.47V57.0001Z" fill="#EA7F0A"/>
<path d="M60.2601 56.7601H57.8101L59.5401 55.0301L59.0901 54.5701L57.3601 56.3001V53.8601H56.7101V56.3001L54.9901 54.5701L54.5301 55.0301L56.2601 56.7601H53.8101V57.4001H56.2601L54.5301 59.1301L54.9901 59.5901L56.7101 57.8601V60.3001H57.3601V57.8601L59.0901 59.5901L59.5401 59.1301L57.8101 57.4001H60.2601V56.7601Z" fill="#EA7F0A"/>
<path d="M72.2699 66.88H69.8199L71.5499 65.15L71.0899 64.7L69.3599 66.43V63.98H68.7199V66.43L66.9899 64.7L66.5399 65.15L68.2599 66.88H65.8199V67.53H68.2599L66.5399 69.25L66.9899 69.71L68.7199 67.98V70.43H69.3599V67.98L71.0899 69.71L71.5499 69.25L69.8199 67.53H72.2699V66.88Z" fill="#F6A723"/>
<path d="M45.0101 44.46H42.5601L44.2901 42.73L43.8301 42.2701L42.1001 44V41.55H41.4601V44L39.7301 42.2701L39.2801 42.73L41.0001 44.46H38.5601V45.1H41.0001L39.2801 46.8301L39.7301 47.28L41.4601 45.5601V48H42.1001V45.5601L43.8301 47.28L44.2901 46.8301L42.5601 45.1H45.0101V44.46Z" fill="#EA7F0A"/>
<path d="M49.33 65.0499H46.88L48.61 63.3299L48.16 62.8699L46.43 64.5999V62.1499H45.78V64.5999L44.05 62.8699L43.6 63.3299L45.33 65.0499H42.88V65.6999H45.33L43.6 67.4299L44.05 67.8799L45.78 66.1599V68.5999H46.43V66.1599L48.16 67.8799L48.61 67.4299L46.88 65.6999H49.33V65.0499Z" fill="#F6A723"/>
<path d="M57.6301 78.2401H55.1801L56.9101 76.5101L56.4601 76.0601L54.7301 77.7901V75.3401H54.0801V77.7901L52.3501 76.0601L51.9001 76.5101L53.6301 78.2401H51.1801V78.8901H53.6301L51.9001 80.6201L52.3501 81.0701L54.0801 79.3401V81.7901H54.7301V79.3401L56.4601 81.0701L56.9101 80.6201L55.1801 78.8901H57.6301V78.2401Z" fill="#F6A723"/>
<path d="M50.26 20.3999H66.02V32.7099C66.02 35.4799 63.78 37.7199 61.01 37.7199H59.42C58.64 37.7199 58.01 38.3499 58.01 39.1299V40.7299C58.01 42.3599 56.69 43.6799 55.06 43.6799H53.26C51.63 43.6799 50.31 42.3599 50.31 40.7399L50.25 20.4099L50.26 20.3999Z" fill="#FADDDC"/>
<path d="M52.7101 17.6999H53.4201H55.6401C56.6001 17.6999 57.5101 17.1699 57.8901 16.2899C58.4401 14.9899 59.7301 14.0799 61.2301 14.0799C61.5601 14.0799 61.8801 14.1299 62.1901 14.2099C63.2301 12.7999 65.0201 11.9699 66.9801 12.3199C68.8901 12.6599 70.4401 14.1899 70.8201 16.0899C71.0001 16.9599 70.9301 17.7999 70.6901 18.5599C70.2901 20.5399 68.5401 22.0299 66.4401 22.0299H55.4201C54.3201 22.0299 53.4201 22.9299 53.4201 24.0299V27.5199C53.4201 29.2499 52.0201 30.6399 50.3001 30.6399C49.7501 30.6399 49.3101 30.1899 49.3101 29.6499V22.0299V21.0999C49.3101 19.2199 50.8401 17.6899 52.7201 17.6899L52.7101 17.6999Z" fill="#3E2967"/>
<path d="M60.93 33.1701H61.8801C62.7301 33.1701 63.43 32.4801 63.43 31.6201V26.9601C63.43 26.6001 63.1401 26.3201 62.7901 26.3201C62.4401 26.3201 62.1501 26.6101 62.1501 26.9601V31.0001C62.1501 31.4801 61.7601 31.8801 61.2701 31.8801H60.94C60.58 31.8801 60.3 32.1701 60.3 32.5201C60.3 32.8801 60.59 33.1601 60.94 33.1601L60.93 33.1701Z" fill="#E0B1BB"/>
<path d="M57.62 27.15C57.62 27.62 58 28.01 58.48 28.01C58.96 28.01 59.34 27.63 59.34 27.15C59.34 26.67 58.96 26.29 58.48 26.29C58 26.29 57.62 26.67 57.62 27.15Z" fill="#757570"/>
<path d="M98.26 59.6399H53.44C52.2802 59.6399 51.34 60.5801 51.34 61.7399V87.6399C51.34 88.7997 52.2802 89.7399 53.44 89.7399H98.26C99.4198 89.7399 100.36 88.7997 100.36 87.6399V61.7399C100.36 60.5801 99.4198 59.6399 98.26 59.6399Z" fill="#455767"/>
<path d="M97.35 87.4399H93.18C92.8984 87.4399 92.67 87.6683 92.67 87.9499V88.0499C92.67 88.3316 92.8984 88.5599 93.18 88.5599H97.35C97.6317 88.5599 97.86 88.3316 97.86 88.0499V87.9499C97.86 87.6683 97.6317 87.4399 97.35 87.4399Z" fill="#2F3C43"/>
<path d="M91.34 87.4399H91.02C90.7383 87.4399 90.51 87.6683 90.51 87.9499V88.0499C90.51 88.3316 90.7383 88.5599 91.02 88.5599H91.34C91.6217 88.5599 91.85 88.3316 91.85 88.0499V87.9499C91.85 87.6683 91.6217 87.4399 91.34 87.4399Z" fill="#2F3C43"/>
<path d="M82.22 72.6899H69.49V93.0599H82.22V72.6899Z" fill="#2F3C43"/>
<path d="M75.49 76.06C74.7 76.06 73.98 76.38 73.47 76.9C72.95 77.42 72.63 78.13 72.63 78.92C72.63 79.71 72.95 80.43 73.47 80.94C73.99 81.46 74.7 81.78 75.49 81.78C76.28 81.78 77 81.46 77.51 80.94C78.03 80.42 78.35 79.71 78.35 78.92C78.35 78.13 78.03 77.41 77.51 76.9C76.99 76.38 76.28 76.06 75.49 76.06ZM75.49 75.72C77.26 75.72 78.7 77.16 78.7 78.93C78.7 80.7 77.26 82.14 75.49 82.14C73.72 82.14 72.28 80.7 72.28 78.93C72.28 77.16 73.72 75.72 75.49 75.72Z" fill="white"/>
<path d="M73.97 78.9001C73.97 78.7101 73.85 78.6101 73.67 78.6101H73.56V79.2001H73.66C73.82 79.2001 73.96 79.1101 73.96 78.9101M75.88 79.1101L75.09 79.7301L74.37 79.1601C74.27 79.4101 74.01 79.5901 73.72 79.5901H73.1V78.2101H73.72C74.04 78.2101 74.28 78.4201 74.37 78.6401L75.09 78.0701L75.36 78.2801L74.7 78.8001L74.83 78.9001L75.49 78.3801L75.76 78.5901L75.1 79.1101L75.23 79.2101L75.89 78.6901V78.2101H76.37V79.1901H76.85V79.5901H75.89V79.1101H75.88ZM77.46 79.1901H77.94V79.5901H76.98V78.2101H77.46V79.1901Z" fill="white"/>
<path d="M86.46 93.02H65.25V94.21H86.46V93.02Z" fill="#455767"/>
<path d="M147.53 57.17L132.04 38.54C131.78 39.16 131.34 39.69 130.78 40.05L145.86 58.2C146.29 57.71 146.87 57.35 147.52 57.18L147.53 57.17Z" fill="white"/>
<path d="M125.69 37.3001C125.69 37.2201 125.69 37.1401 125.7 37.0601L109.85 44.1801L109.3 43.6401C109.1 43.4401 108.81 43.3601 108.54 43.4401L98.66 46.0601C98.07 46.2201 97.88 46.9401 98.31 47.3701L108.17 57.1401C108.6 57.5701 109.33 57.3701 109.49 56.7901L112.14 47.0001C112.21 46.7301 112.14 46.4401 111.94 46.2401L111.33 45.6401L126.17 38.9801C125.88 38.4901 125.71 37.9201 125.71 37.3201L125.69 37.3001Z" fill="white"/>
<path d="M147.29 63.4199L143.77 88.1799L145.69 88.4499L149.24 63.4699C148.96 63.5499 148.66 63.5999 148.35 63.5999C147.98 63.5999 147.62 63.5399 147.29 63.4199Z" fill="white"/>
<path d="M131.12 37.2999C131.12 36.1299 130.16 35.1899 128.99 35.1899C128.11 35.1899 127.36 35.7199 127.03 36.4599C126.92 36.7199 126.85 36.9999 126.85 37.2999C126.85 37.7399 126.99 38.1499 127.22 38.4799C127.6 39.0399 128.25 39.4099 128.99 39.4099C129.37 39.4099 129.73 39.3099 130.04 39.1399C130.66 38.7999 131.08 38.1599 131.12 37.4199C131.12 37.3799 131.12 37.3399 131.12 37.2999Z" fill="white"/>
<path d="M148.4 58.21C148.4 58.21 148.37 58.21 148.35 58.21C147.64 58.21 147.01 58.56 146.62 59.09C146.37 59.44 146.22 59.86 146.22 60.32C146.22 61.17 146.73 61.9 147.46 62.24C147.73 62.36 148.03 62.44 148.35 62.44C148.74 62.44 149.11 62.33 149.43 62.15C150.06 61.78 150.48 61.11 150.48 60.33C150.48 59.18 149.55 58.25 148.4 58.22V58.21Z" fill="white"/>
<path style="mix-blend-mode:darken" d="M97.4499 91.7001L108.16 57.1301L98.2999 47.3601L27.8199 93.0301L97.4499 91.7001Z" fill="url(#paint0_linear_14_1906)"/>
<path d="M142.09 95.65C148.369 95.65 153.46 93.3756 153.46 90.57C153.46 87.7644 148.369 85.49 142.09 85.49C135.81 85.49 130.72 87.7644 130.72 90.57C130.72 93.3756 135.81 95.65 142.09 95.65Z" fill="#F4EFEF"/>
<path d="M145.09 92.36C149.453 92.36 152.99 90.7796 152.99 88.83C152.99 86.8805 149.453 85.3 145.09 85.3C140.727 85.3 137.19 86.8805 137.19 88.83C137.19 90.7796 140.727 92.36 145.09 92.36Z" fill="white"/>
<path d="M45.6701 75.3701V72.3401H34.4301V86.3901H45.6701V83.8701C48.0001 83.8501 49.8801 81.9501 49.8801 79.6201C49.8801 77.2901 48.0001 75.3901 45.6701 75.3701ZM45.6701 82.8701V76.3701C47.4501 76.3901 48.8801 77.8401 48.8801 79.6201C48.8801 81.4001 47.4501 82.8501 45.6701 82.8701Z" fill="#2F3C43"/>
<path d="M34.03 75.99H37.47C38.75 75.99 39.78 77.03 39.78 78.3V86.39H31.71V78.3C31.71 77.02 32.75 75.99 34.02 75.99H34.03Z" fill="#FADDDC"/>
<path d="M18.6099 87.8801L18.1599 87.2501C18.0599 87.1301 17.9099 87.0601 17.7499 87.0401L14.5999 86.7701C14.2299 86.7401 13.8999 86.9801 13.8199 87.3401L13.3199 89.5001L13.1899 90.5701C13.1899 90.5701 13.3099 90.8401 13.4399 90.8801C13.5699 90.9201 17.5299 91.2301 17.6199 91.2401C17.7099 91.2501 17.9399 91.3701 18.0899 90.8801C18.2099 90.4801 18.5099 88.8801 18.6999 88.2901C18.7499 88.1501 18.6999 87.9901 18.6099 87.8801Z" fill="#2978A6"/>
<path d="M14.18 86.73L17.76 87.04C17.89 87.05 17.97 87.18 17.93 87.3L17.23 89.53C17.17 89.74 16.97 89.87 16.75 89.85L13.59 89.53C13.45 89.52 13.35 89.38 13.38 89.24L13.91 86.93C13.94 86.81 14.05 86.73 14.17 86.74L14.18 86.73Z" fill="#39A2DB"/>
<path d="M16.22 88.5299C16.22 88.5299 16.15 88.4699 16.1 88.4499C16.05 88.4299 16 88.3999 15.94 88.3799C15.88 88.3599 15.82 88.3399 15.77 88.3199C15.69 88.2899 15.61 88.2699 15.53 88.2299C15.45 88.1999 15.38 88.1599 15.31 88.1299C15.24 88.0899 15.19 88.0499 15.15 88.0099C15.11 87.9699 15.1 87.9199 15.1 87.8699C15.1 87.8199 15.14 87.7799 15.19 87.7499C15.24 87.7199 15.3 87.6899 15.38 87.6799C15.46 87.6699 15.54 87.6599 15.63 87.6599C15.72 87.6599 15.81 87.6599 15.9 87.6799C16 87.6999 16.1 87.7199 16.19 87.7499C16.28 87.7799 16.36 87.8199 16.43 87.8599C16.5 87.8999 16.55 87.9499 16.59 87.9999C16.63 88.0499 16.64 88.0999 16.64 88.1599L16.34 88.1099C16.34 88.1099 16.33 88.0399 16.3 88.0099C16.28 87.9799 16.25 87.9499 16.21 87.9199C16.17 87.8899 16.13 87.8699 16.07 87.8499C16.02 87.8299 15.95 87.8199 15.88 87.7999C15.82 87.7999 15.77 87.7899 15.71 87.7899C15.66 87.7899 15.61 87.7899 15.56 87.7999C15.52 87.7999 15.48 87.8199 15.45 87.8399C15.42 87.8599 15.4 87.8899 15.4 87.9199C15.4 87.9499 15.4 87.9799 15.44 88.0099C15.47 88.0399 15.51 88.0599 15.56 88.0899C15.61 88.1099 15.66 88.1399 15.72 88.1599C15.78 88.1799 15.83 88.1999 15.88 88.2099C15.96 88.2399 16.05 88.2699 16.13 88.2999C16.21 88.3299 16.29 88.3699 16.35 88.4099C16.42 88.4499 16.47 88.4899 16.5 88.5399C16.54 88.5899 16.55 88.6399 16.54 88.6899C16.54 88.7399 16.5 88.7799 16.45 88.8199C16.4 88.8499 16.33 88.8799 16.26 88.8899C16.18 88.8999 16.1 88.9099 16 88.9099C15.91 88.9099 15.81 88.9099 15.72 88.8899C15.61 88.8699 15.5 88.8499 15.4 88.8099C15.3 88.7799 15.21 88.7299 15.14 88.6899C15.07 88.6499 15.02 88.5999 14.99 88.5599C14.96 88.5099 14.94 88.4599 14.95 88.4099L15.25 88.4599C15.25 88.4599 15.27 88.5299 15.29 88.5699C15.32 88.5999 15.35 88.6299 15.39 88.6599C15.43 88.6899 15.48 88.7099 15.54 88.7299C15.6 88.7499 15.66 88.7599 15.74 88.7799C15.8 88.7799 15.85 88.7899 15.91 88.7999C15.97 88.7999 16.02 88.7999 16.06 88.7899C16.11 88.7899 16.14 88.7699 16.18 88.7499C16.21 88.7299 16.23 88.7099 16.23 88.6699C16.23 88.6299 16.23 88.5999 16.2 88.5699L16.22 88.5299Z" fill="black"/>
<path d="M20.46 88.9401C20.56 88.8501 20.69 88.8101 20.82 88.8201L26.28 89.2901C26.47 89.3101 26.97 89.6301 26.91 90.3401L26.75 92.2201C26.73 92.4701 26.66 92.7901 25.97 92.7301C25.28 92.6701 21.25 92.3101 20.76 92.2701C20.27 92.2301 19.92 92.0601 19.96 91.6201L20.15 89.3901C20.15 89.2801 20.21 89.1801 20.29 89.1101L20.47 88.9501L20.46 88.9401Z" fill="#12684D"/>
<path d="M20.49 89.1199C20.49 89.1199 20.66 88.9099 20.91 88.9099C21.16 88.9099 26.18 89.3599 26.3 89.3699C26.42 89.3799 26.56 89.5299 26.63 89.6799C26.68 89.7799 26.56 90.7699 26.49 91.2599C26.47 91.4399 26.31 91.5599 26.13 91.5499C24.97 91.4699 20.95 91.0999 20.67 91.0799C20.34 91.0499 20.29 90.7899 20.33 90.5399C20.37 90.2899 20.48 89.1299 20.48 89.1299L20.49 89.1199Z" fill="#0F9266"/>
<path d="M22.08 90.14L22.06 90.41L22.43 90.44V90.52L21.96 90.48L22.02 89.72L22.48 89.76V89.84L22.11 89.81L22.09 90.05L22.41 90.08V90.16L22.09 90.13L22.08 90.14Z" fill="black"/>
<path d="M22.63 89.98H22.72V90.07C22.72 90.06 22.74 90.05 22.75 90.04C22.76 90.04 22.77 90.02 22.78 90.02C22.8 90.02 22.82 90 22.84 90C22.86 90 22.88 90 22.9 90C22.93 90 22.96 90 22.98 90.02C23 90.04 23.02 90.05 23.04 90.06C23.06 90.08 23.07 90.1 23.07 90.13C23.07 90.16 23.07 90.19 23.07 90.23L23.04 90.59H22.94L22.97 90.23C22.97 90.2 22.97 90.18 22.97 90.17C22.97 90.15 22.96 90.14 22.95 90.13C22.94 90.12 22.93 90.11 22.91 90.1C22.89 90.09 22.88 90.09 22.86 90.09C22.84 90.09 22.83 90.09 22.81 90.09C22.79 90.09 22.78 90.09 22.77 90.11C22.76 90.11 22.75 90.12 22.74 90.13C22.74 90.13 22.72 90.15 22.71 90.16L22.68 90.56H22.58L22.63 89.99V89.98Z" fill="black"/>
<path d="M23.5 90.0499L23.71 90.0699V90.1399L23.49 90.1199L23.46 90.4299C23.46 90.4299 23.46 90.4699 23.46 90.4799C23.46 90.4899 23.47 90.5099 23.48 90.5199C23.48 90.5199 23.5 90.5399 23.51 90.5399C23.52 90.5399 23.54 90.5399 23.55 90.5399C23.56 90.5399 23.57 90.5399 23.58 90.5399C23.59 90.5399 23.6 90.5399 23.61 90.5399C23.62 90.5399 23.63 90.5399 23.64 90.5399C23.65 90.5399 23.66 90.5399 23.66 90.5399V90.6099C23.66 90.6099 23.65 90.6099 23.64 90.6199C23.63 90.6299 23.62 90.6199 23.6 90.6199C23.59 90.6199 23.57 90.6199 23.56 90.6199C23.54 90.6199 23.53 90.6199 23.51 90.6199C23.48 90.6199 23.46 90.6199 23.44 90.5999C23.42 90.5999 23.4 90.5799 23.39 90.5599C23.38 90.5399 23.36 90.5199 23.36 90.4999C23.36 90.4699 23.36 90.4399 23.36 90.4099L23.39 90.0999H23.24V90.0099H23.39L23.4 89.8899H23.5L23.49 90.0299L23.5 90.0499Z" fill="black"/>
<path d="M24 90.6501C24 90.6501 23.94 90.6101 23.92 90.5901C23.9 90.5601 23.88 90.5301 23.87 90.5001C23.86 90.4701 23.86 90.4301 23.86 90.3901V90.3701C23.86 90.3701 23.88 90.2801 23.89 90.2501C23.91 90.2201 23.93 90.1901 23.96 90.1601C23.99 90.1401 24.01 90.1201 24.05 90.1101C24.08 90.1001 24.11 90.1001 24.15 90.1001C24.19 90.1001 24.23 90.1101 24.25 90.1301C24.28 90.1501 24.3 90.1701 24.32 90.1901C24.34 90.2201 24.35 90.2501 24.36 90.2801C24.36 90.3101 24.36 90.3501 24.36 90.3901V90.4301L23.96 90.4001C23.96 90.4001 23.96 90.4601 23.97 90.4801C23.97 90.5001 23.99 90.5201 24 90.5401C24.01 90.5601 24.03 90.5701 24.05 90.5801C24.07 90.5901 24.09 90.6001 24.12 90.6001C24.15 90.6001 24.19 90.6001 24.21 90.5901C24.23 90.5801 24.26 90.5601 24.28 90.5401L24.33 90.5901C24.33 90.5901 24.28 90.6401 24.24 90.6601C24.2 90.6801 24.15 90.6901 24.1 90.6801C24.06 90.6801 24.02 90.6701 23.99 90.6501H24ZM24.08 90.1801C24.08 90.1801 24.05 90.1901 24.03 90.2101C24.01 90.2201 24 90.2401 23.99 90.2601C23.98 90.2801 23.97 90.3001 23.96 90.3301L24.26 90.3601C24.26 90.3601 24.26 90.3201 24.26 90.3001C24.26 90.2801 24.25 90.2601 24.24 90.2501C24.23 90.2301 24.22 90.2201 24.2 90.2101C24.18 90.2001 24.16 90.1901 24.14 90.1901C24.12 90.1901 24.1 90.1901 24.08 90.1901V90.1801Z" fill="black"/>
<path d="M24.97 90.1699C24.97 90.1699 25 90.1699 25.01 90.1799L24.99 90.2699C24.99 90.2699 24.95 90.2599 24.94 90.2599C24.92 90.2599 24.91 90.2599 24.89 90.2599C24.87 90.2599 24.85 90.2599 24.83 90.2599C24.81 90.2599 24.79 90.2699 24.78 90.2799C24.77 90.2799 24.75 90.2999 24.74 90.3099C24.73 90.3199 24.72 90.3399 24.71 90.3499L24.68 90.7099H24.58L24.63 90.1399H24.72V90.2199C24.72 90.2199 24.77 90.1799 24.81 90.1699C24.84 90.1599 24.88 90.1499 24.92 90.1499C24.94 90.1499 24.96 90.1499 24.97 90.1499V90.1699Z" fill="black"/>
<path d="M10.51 92.6001C10.15 92.6601 7.52997 92.9901 7.39997 93.1401C7.26997 93.2901 6.46997 93.8501 6.49997 94.0001C6.52997 94.1501 7.39997 96.0101 7.52997 96.3401C7.65997 96.6701 8.11997 96.8101 9.01997 96.6001C9.91997 96.3901 11.65 96.0501 11.65 96.0501L10.51 92.6001Z" fill="#AA251F"/>
<path d="M10.48 92.6001C10.48 92.6001 8.38 92.9701 7.94 93.0401C7.5 93.1101 7.33 93.3001 7.43 93.6201C7.53 93.9401 7.94 94.7701 8.01 95.0201C8.08 95.2701 8.25 95.6901 8.81 95.6001C9.37 95.5101 10.75 95.0901 11.03 95.0201C11.31 94.9501 11.03 94.3001 11.03 94.3001L10.48 92.5901V92.6001Z" fill="#E23B28"/>
</g>
<rect x="127" y="4" width="29" height="16" rx="4" fill="#1C1C1C"/>
<path d="M136.041 10.7949C135.973 10.1357 135.396 9.75977 134.586 9.75977C133.722 9.75977 133.175 10.2041 133.17 10.8047C133.17 11.4736 133.897 11.7373 134.459 11.8691L135.143 12.0547C136.046 12.2744 137.179 12.7676 137.184 14.0469C137.179 15.2432 136.227 16.1172 134.557 16.1172C132.975 16.1172 131.979 15.3262 131.91 14.0371H132.984C133.048 14.8086 133.731 15.1748 134.557 15.1797C135.46 15.1748 136.114 14.7207 136.119 14.0273C136.114 13.4121 135.528 13.1631 134.781 12.9629L133.941 12.7383C132.804 12.4258 132.101 11.8496 132.096 10.8633C132.101 9.64258 133.185 8.83203 134.615 8.83203C136.051 8.83203 137.052 9.65234 137.086 10.7949H136.041ZM138.004 14.5059C137.999 13.2949 139.029 12.9824 139.986 12.9141C140.338 12.8945 141.134 12.8506 141.378 12.8408L141.373 12.416C141.378 11.8154 141.007 11.4688 140.299 11.4688C139.684 11.4688 139.312 11.752 139.205 12.1426H138.17C138.263 11.2637 139.083 10.6289 140.338 10.6289C141.183 10.6289 142.413 10.9365 142.418 12.4746V16H141.402V15.2773H141.363C141.158 15.6729 140.67 16.1172 139.791 16.1172C138.785 16.1172 137.999 15.541 138.004 14.5059ZM139.02 14.5156C139.02 15.0234 139.439 15.2822 140.025 15.2871C140.875 15.2822 141.383 14.7158 141.383 14.0859L141.378 13.6025C141.139 13.6172 140.382 13.6709 140.133 13.6855C139.449 13.7344 139.02 13.9932 139.02 14.5156ZM143.678 16V10.6973H144.684V11.5664H144.742C144.967 10.9756 145.489 10.6289 146.188 10.6289C146.896 10.6289 147.389 10.9756 147.613 11.5664H147.672C147.921 10.9951 148.497 10.6289 149.264 10.6289C150.221 10.6289 150.899 11.2295 150.904 12.4453V16H149.859V12.543C149.859 11.8252 149.41 11.5273 148.863 11.5273C148.194 11.5273 147.809 11.9863 147.809 12.6211V16H146.773V12.4844C146.773 11.9033 146.378 11.5273 145.807 11.5273C145.221 11.5273 144.723 12.0156 144.723 12.7285V16H143.678Z" fill="white"/>
</g>
<defs>
<linearGradient id="paint0_linear_14_1906" x1="71.9899" y1="76.1901" x2="89.4999" y2="45.9301" gradientUnits="userSpaceOnUse">
<stop stop-color="white"/>
<stop offset="1" stop-color="#FFA900"/>
</linearGradient>
<clipPath id="clip0_14_1906">
<rect width="160" height="100" fill="white"/>
</clipPath>
<clipPath id="clip1_14_1906">
<rect width="160" height="100" fill="white"/>
</clipPath>
</defs>
</svg>
