<svg width="160" height="100" viewBox="0 0 160 100" fill="none" xmlns="http://www.w3.org/2000/svg">
<g clip-path="url(#clip0_1233_3065)">
<g clip-path="url(#clip1_1233_3065)">
<path d="M159.228 0.617188H0.619995V99.3732H159.228V0.617188Z" fill="#FFE45F"/>
<path d="M159.837 99.9931H0V0.00732422H159.837V99.9931ZM1.23982 98.7733H158.607V1.22715H1.23982V98.7633V98.7733Z" fill="#EFD9B4"/>
<path d="M159.368 82.5454H0.76001V99.383H159.368V82.5454Z" fill="white"/>
<path d="M159.977 99.993H0.140015V81.9355H159.977V99.993ZM1.36984 98.7732H158.738V83.1654H1.36984V98.7732Z" fill="white"/>
<path d="M71.1399 46.3009C70.8 45.701 70.3101 45.241 69.7501 44.9211C67.9704 43.2513 65.5707 42.2314 62.9311 42.2314H41.7441C39.0445 42.2314 36.5748 43.1813 34.6451 44.7511C33.9452 45.061 33.3353 45.591 32.9254 46.3009C32.8754 46.3909 32.7254 46.6608 32.4954 47.0908C31.8455 48.0406 31.3456 49.1005 31.0156 50.2403C27.9861 57.3393 22.1069 75.1068 35.8449 88.3549L40.3643 81.5859C40.0743 80.9959 36.1949 77.2765 35.9449 76.6766L67.2105 84.2955C66.9605 84.8954 66.6906 85.4853 66.4006 86.0752L68.0404 88.1549C84.728 67.8378 71.6499 47.2007 71.1299 46.3009H71.1399Z" fill="#FADDDC"/>
<path d="M73.6096 86.8848C74.0595 84.865 72.7797 82.8853 70.75 82.4554C69.0802 82.0954 67.4305 82.9053 66.6506 84.3151C66.4806 84.6251 66.3506 84.955 66.2706 85.315C66.0807 86.1849 65.9207 87.0547 65.7807 87.9146L73.3496 88.2446C73.4296 87.7946 73.5196 87.3447 73.6196 86.8948L73.6096 86.8848Z" fill="#FADDDC"/>
<path d="M62.9311 42.2314L41.6541 42.1615C27.1162 41.7215 25.4464 61.6987 25.4464 61.6987L34.4251 63.9084C34.4251 63.9084 36.9948 84.8154 36.7448 84.2255H67.1205C66.8705 84.8254 70.2001 64.4983 70.2001 64.4983L79.0388 60.8188C79.0388 60.8188 74.9194 41.5315 62.9311 42.2314Z" fill="#EA5041"/>
<path d="M59.3316 62.0083H59.1216C58.3118 61.0285 57.2719 60.5386 55.9821 60.5386C55.1722 60.5386 54.9622 60.5386 55.3522 60.5186C55.1022 60.5286 54.9122 60.5985 54.7723 60.7085C54.5223 60.9385 54.4023 61.3884 54.4023 62.0683C54.4023 63.2482 55.0422 64.0081 56.322 64.348V64.538C55.5921 64.8179 55.0922 65.2179 54.8223 65.7378C54.6423 66.1178 54.5423 66.6177 54.5423 67.2376C54.5423 68.0075 55.0922 68.6674 56.1921 69.2273V69.4573H49.713C49.783 69.4173 49.783 69.3373 49.713 69.2273C50.8128 68.6674 51.3627 68.0075 51.3627 67.2376C51.3627 66.6177 51.2628 66.1078 51.0728 65.7378C50.8028 65.2179 50.3029 64.8179 49.583 64.538V64.348C50.8628 64.0181 51.5027 63.2582 51.5027 62.0683C51.5027 61.6884 51.5027 61.4884 51.4827 61.4684C51.4627 61.2285 51.3727 61.0585 51.2228 60.9385C51.0328 60.7785 50.7528 60.6885 50.3829 60.6685C50.6228 60.6785 50.3029 60.6885 49.433 60.6885C48.4532 60.6885 47.6133 61.2385 46.9134 62.3383H46.6234V59.4287H59.3216V62.0083H59.3316Z" fill="white"/>
<path d="M52.3628 53.7396C52.0328 53.8295 51.7728 53.8195 51.6228 53.7096C51.2428 53.4296 51.5328 52.8697 51.6328 52.6997C51.4428 52.9097 51.2628 53.1096 51.1128 53.3396C50.8828 53.6896 50.7828 54.0795 50.9428 54.3195C51.2228 54.7694 51.8928 54.5594 52.3128 54.3795L56.2628 52.7097L52.3628 53.7396Z" fill="white"/>
<path d="M51.4928 54.7195C51.1928 54.7195 50.9728 54.6095 50.8328 54.3896C50.6628 54.1196 50.7228 53.6897 51.0028 53.2597C51.1528 53.0298 51.3428 52.8198 51.5328 52.6098L51.7528 52.7598C51.6628 52.8998 51.4128 53.3797 51.7028 53.5897C51.8128 53.6697 52.0428 53.6797 52.3228 53.5997L56.2228 52.5698L56.3128 52.8198L52.3628 54.4896C52.0228 54.6295 51.7228 54.7095 51.4828 54.7095L51.4928 54.7195ZM51.3028 53.3097C51.3028 53.3097 51.2628 53.3697 51.2328 53.4097C51.0128 53.7497 50.9428 54.0696 51.0628 54.2496C51.2328 54.5195 51.6328 54.5195 52.2628 54.2496L54.4628 53.3197L52.4028 53.8596C52.0328 53.9596 51.7328 53.9396 51.5528 53.7996C51.3628 53.6597 51.3028 53.4797 51.3028 53.2897V53.3097Z" fill="white"/>
<path d="M49.183 42.1313C49.183 42.1313 49.643 45.6408 53.2625 45.6408C57.2119 45.6408 57.1619 42.2213 57.1619 42.2213" stroke="#FFD415" stroke-width="1.33323" stroke-miterlimit="10"/>
<path d="M25.4464 61.6987L34.4351 63.9084" stroke="#FFD415" stroke-width="2.66646" stroke-miterlimit="10"/>
<path d="M70.21 64.4983L79.0388 60.8188" stroke="#FFD415" stroke-width="2.66646" stroke-miterlimit="10"/>
<path d="M49.9429 43.6909C49.9429 43.6909 34.4851 42.1111 31.9855 50.2299C29.4858 58.3488 30.0058 62.4682 30.0058 62.4682" stroke="#FFD415" stroke-width="1.99984" stroke-miterlimit="10"/>
<path d="M56.9619 43.1814C56.9619 43.1814 70.18 42.8315 72.6797 50.9503C75.1793 59.0692 74.8194 62.4787 74.8194 62.4787" stroke="#FFD415" stroke-width="1.99984" stroke-miterlimit="10"/>
<path d="M49.5829 19.9043H61.5712C63.241 19.9043 64.6008 21.2641 64.6008 22.9339V34.7322C64.6008 37.3618 62.4611 39.5015 59.8315 39.5015H58.3117C57.5718 39.5015 56.9719 40.1014 56.9719 40.8413V41.5212C56.9719 43.5509 55.3321 45.1907 53.3024 45.1907C51.2827 45.1907 49.6429 43.5509 49.6329 41.5312L49.5829 19.9043Z" fill="#FADDDC"/>
<path d="M59.7416 35.1724H60.6516C61.4616 35.1724 62.1216 34.5125 62.1216 33.7026V29.2632C62.1216 28.9233 61.8516 28.6533 61.5116 28.6533C61.1716 28.6533 60.9016 28.9233 60.9016 29.2632V33.1127C60.9016 33.5726 60.5316 33.9426 60.0716 33.9426H59.7516C59.4116 33.9426 59.1416 34.2125 59.1416 34.5525C59.1416 34.8924 59.4116 35.1624 59.7516 35.1624L59.7416 35.1724Z" fill="#ECBEC6"/>
<path d="M48.0228 31.3931H50.5128V26.1038H48.0228V31.3931Z" fill="#FADDDC"/>
<path opacity="0.5" d="M56.4223 31.8229H58.2623C59.4323 31.8229 60.3823 30.873 60.3823 29.7032C60.3823 28.5334 59.4323 27.5835 58.2623 27.5835H56.4223C55.2523 27.5835 54.3023 28.5334 54.3023 29.7032C54.3023 30.873 55.2523 31.8229 56.4223 31.8229Z" fill="white"/>
<path d="M53.6624 30.1932V29.2333C53.6624 27.9735 54.6822 26.9536 55.942 26.9536H58.7416C60.0015 26.9536 61.0213 27.9735 61.0213 29.2333V30.1932C61.0213 31.453 60.0015 32.4728 58.7416 32.4728H55.942C54.6822 32.4728 53.6624 31.453 53.6624 30.1932ZM55.942 28.2334C55.3921 28.2334 54.9422 28.6834 54.9422 29.2333V30.1932C54.9422 30.7431 55.3921 31.193 55.942 31.193H58.7416C59.2916 31.193 59.7415 30.7431 59.7415 30.1932V29.2333C59.7415 28.6834 59.2916 28.2334 58.7416 28.2334H55.942Z" fill="#9A9A99"/>
<path opacity="0.5" d="M64.6911 31.8229H65.2711C66.4411 31.8229 67.3911 30.873 67.3911 29.7032C67.3911 28.5334 66.4411 27.5835 65.2711 27.5835H64.6911C63.5211 27.5835 62.5711 28.5334 62.5711 29.7032C62.5711 30.873 63.5211 31.8229 64.6911 31.8229Z" fill="white"/>
<path d="M61.9312 30.1932V29.2333C61.9312 27.9735 62.9512 26.9536 64.2112 26.9536H65.7512C67.0112 26.9536 68.0312 27.9735 68.0312 29.2333V30.1932C68.0312 31.453 67.0112 32.4728 65.7512 32.4728H64.2112C62.9512 32.4728 61.9312 31.453 61.9312 30.1932ZM64.2112 28.2334C63.6612 28.2334 63.2112 28.6834 63.2112 29.2333V30.1932C63.2112 30.7431 63.6612 31.193 64.2112 31.193H65.7512C66.3012 31.193 66.7512 30.7431 66.7512 30.1932V29.2333C66.7512 28.6834 66.3012 28.2334 65.7512 28.2334H64.2112Z" fill="#9A9A99"/>
<path d="M62.5015 28.3032H60.1015V29.583H62.5015V28.3032Z" fill="#9A9A99"/>
<path d="M67.3205 21.1544V21.7843C67.3205 23.2341 66.1406 24.4139 64.6908 24.4139H53.9224C53.1825 24.4139 52.5826 24.9938 52.5826 25.7337L52.6125 26.3936C52.6125 27.2135 52.1526 27.8934 51.6527 28.0334C51.0828 28.1934 50.7728 28.7933 50.9128 29.3532C51.1128 30.1431 51.3527 31.6229 50.9428 33.0927C50.4829 34.6725 47.9032 34.6525 48.2632 34.2925C48.6131 33.9426 49.113 33.6626 49.0331 32.9827C48.8231 33.4126 46.8134 33.6426 46.8134 33.1727C46.9034 33.2027 48.5331 31.5529 47.9032 30.803C47.4633 30.2831 46.5934 30.2831 46.5934 28.7733C46.5934 26.7736 47.5533 26.8936 46.5934 25.9337C45.6435 24.9838 45.8235 23.674 46.3434 23.0841C46.8634 22.4642 48.0732 20.3045 48.0732 20.3045C48.1232 20.1745 48.1632 20.0645 48.2332 19.9545C47.5533 19.8246 47.1433 19.1347 47.1433 19.1347C48.0132 19.5646 49.0331 18.6147 49.0331 18.6147L49.0531 18.6347C50.5028 16.935 52.7925 16.645 54.9222 16.585C57.0619 16.505 58.6917 17.2649 59.7115 17.6549C60.9214 17.5749 61.9212 16.815 62.3812 15.7651C63.311 15.9851 64.0009 16.755 64.1309 17.7049C65.9307 17.8448 67.3305 19.3146 67.3305 21.1444L67.3205 21.1544Z" fill="#3E2967"/>
<path d="M77.0891 58.3589H32.2754C31.1158 58.3589 30.1757 59.299 30.1757 60.4586V86.3549C30.1757 87.5146 31.1158 88.4546 32.2754 88.4546H77.0891C78.2487 88.4546 79.1888 87.5146 79.1888 86.3549V60.4586C79.1888 59.299 78.2487 58.3589 77.0891 58.3589Z" fill="#455767"/>
<path d="M76.1799 86.145H72.0099C71.7282 86.145 71.4999 86.3733 71.4999 86.6549V86.7549C71.4999 87.0366 71.7282 87.2649 72.0099 87.2649H76.1799C76.4615 87.2649 76.6899 87.0366 76.6899 86.7549V86.6549C76.6899 86.3733 76.4615 86.145 76.1799 86.145Z" fill="#2F3C43"/>
<path d="M70.1702 86.145H69.8502C69.5685 86.145 69.3401 86.3733 69.3401 86.6549V86.7549C69.3401 87.0366 69.5685 87.2649 69.8502 87.2649H70.1702C70.4518 87.2649 70.6802 87.0366 70.6802 86.7549V86.6549C70.6802 86.3733 70.4518 86.145 70.1702 86.145Z" fill="#2F3C43"/>
<path d="M61.0513 71.397H48.3231V91.7641H61.0513V71.397Z" fill="#2F3C43"/>
<path d="M54.3227 74.7767C53.5327 74.7767 52.8127 75.0967 52.3027 75.6166C51.7827 76.1365 51.4627 76.8464 51.4627 77.6363C51.4627 78.4262 51.7827 79.1461 52.3027 79.656C52.8227 80.1759 53.5327 80.4959 54.3227 80.4959C55.1127 80.4959 55.8327 80.1759 56.3427 79.656C56.8627 79.1361 57.1827 78.4262 57.1827 77.6363C57.1827 76.8464 56.8627 76.1265 56.3427 75.6166C55.8227 75.0967 55.1127 74.7767 54.3227 74.7767ZM54.3227 74.4268C56.0927 74.4268 57.5327 75.8666 57.5327 77.6363C57.5327 79.4061 56.0927 80.8458 54.3227 80.8458C52.5527 80.8458 51.1127 79.4061 51.1127 77.6363C51.1127 75.8666 52.5527 74.4268 54.3227 74.4268Z" fill="white"/>
<path d="M52.8027 77.6063C52.8027 77.4163 52.6827 77.3163 52.5027 77.3163H52.3927V77.9062H52.4927C52.6527 77.9062 52.7927 77.8162 52.7927 77.6163M54.7127 77.8162L53.9227 78.4361L53.2027 77.8662C53.1027 78.1162 52.8427 78.2962 52.5527 78.2962H51.9327V76.9163H52.5527C52.8727 76.9163 53.1127 77.1263 53.2027 77.3463L53.9227 76.7764L54.1927 76.9863L53.5327 77.5063L53.6627 77.6063L54.3227 77.0863L54.5927 77.2963L53.9327 77.8162L54.0627 77.9162L54.7227 77.3963V76.9163H55.2027V77.8962H55.6827V78.2962H54.7227V77.8162H54.7127ZM56.2827 77.8962H56.7627V78.2962H55.8027V76.9163H56.2827V77.8962Z" fill="white"/>
<path d="M65.2807 91.7241H44.0737V92.9139H65.2807V91.7241Z" fill="#455767"/>
<path d="M147.509 57.1693L132.021 38.542C131.761 39.1619 131.321 39.6918 130.761 40.0518L145.839 58.1992C146.269 57.7093 146.849 57.3493 147.499 57.1793L147.509 57.1693Z" fill="#455767"/>
<path d="M125.672 37.302C125.672 37.222 125.672 37.142 125.682 37.062L109.834 44.181L109.284 43.6411C109.085 43.4411 108.795 43.3611 108.525 43.4411L98.646 46.0607C98.0561 46.2207 97.8661 46.9406 98.296 47.3705L108.155 57.1392C108.585 57.5691 109.314 57.3691 109.474 56.7892L112.124 47.0006C112.194 46.7306 112.124 46.4407 111.924 46.2407L111.314 45.6408L126.152 38.9817C125.862 38.4918 125.692 37.9219 125.692 37.322L125.672 37.302Z" fill="#455767"/>
<path d="M147.27 63.4185L143.75 88.1749L145.67 88.4449L149.22 63.4685C148.94 63.5484 148.64 63.5984 148.33 63.5984C147.96 63.5984 147.6 63.5384 147.27 63.4185Z" fill="#455767"/>
<path d="M131.102 37.3021C131.102 36.1323 130.142 35.1924 128.972 35.1924C128.092 35.1924 127.342 35.7223 127.012 36.4622C126.902 36.7222 126.832 37.0021 126.832 37.3021C126.832 37.742 126.972 38.152 127.202 38.4819C127.582 39.0418 128.232 39.4118 128.972 39.4118C129.352 39.4118 129.712 39.3118 130.022 39.1418C130.642 38.8019 131.062 38.162 131.102 37.4221C131.102 37.3821 131.102 37.3421 131.102 37.3021Z" fill="#455767"/>
<path d="M148.379 58.209C148.379 58.209 148.349 58.209 148.329 58.209C147.619 58.209 146.989 58.5589 146.599 59.0889C146.349 59.4388 146.199 59.8588 146.199 60.3187C146.199 61.1686 146.709 61.8985 147.439 62.2384C147.709 62.3584 148.009 62.4384 148.329 62.4384C148.719 62.4384 149.089 62.3284 149.409 62.1484C150.039 61.7785 150.459 61.1086 150.459 60.3287C150.459 59.1788 149.529 58.249 148.379 58.219V58.209Z" fill="#455767"/>
<path style="mix-blend-mode:darken" d="M97.4362 91.6941L108.145 57.129L98.2861 47.3604L27.816 93.0239L97.4362 91.6941Z" fill="url(#paint0_linear_1233_3065)"/>
<path d="M145.069 92.3544C149.432 92.3544 152.968 90.7742 152.968 88.8249C152.968 86.8756 149.432 85.2954 145.069 85.2954C140.707 85.2954 137.171 86.8756 137.171 88.8249C137.171 90.7742 140.707 92.3544 145.069 92.3544Z" fill="#455767"/>
</g>
<rect x="120" y="4" width="36" height="16" rx="4" fill="#1C1C1C"/>
<path d="M124.46 9.85742V8.92969H129.938V9.85742H127.741V16H126.667V9.85742H124.46ZM129.978 14.5059C129.973 13.2949 131.003 12.9824 131.96 12.9141C132.312 12.8945 133.107 12.8506 133.352 12.8408L133.347 12.416C133.352 11.8154 132.98 11.4688 132.272 11.4688C131.657 11.4688 131.286 11.752 131.179 12.1426H130.144C130.236 11.2637 131.057 10.6289 132.312 10.6289C133.156 10.6289 134.387 10.9365 134.392 12.4746V16H133.376V15.2773H133.337C133.132 15.6729 132.644 16.1172 131.765 16.1172C130.759 16.1172 129.973 15.541 129.978 14.5059ZM130.993 14.5156C130.993 15.0234 131.413 15.2822 131.999 15.2871C132.849 15.2822 133.356 14.7158 133.356 14.0859L133.352 13.6025C133.112 13.6172 132.355 13.6709 132.106 13.6855C131.423 13.7344 130.993 13.9932 130.993 14.5156ZM136.101 17.9922C135.886 17.9873 135.676 17.9824 135.544 17.9629V17.0938C135.661 17.1035 135.866 17.1084 136.013 17.1133C136.335 17.1084 136.604 17.0889 136.853 16.4199L136.979 16.0684L135.036 10.6973H136.149L137.487 14.8086H137.546L138.884 10.6973H140.007L137.819 16.7031C137.512 17.543 136.975 17.9873 136.101 17.9922ZM141.901 8.92969V16H140.856V8.92969H141.901ZM145.417 16.1074C143.913 16.1074 142.932 15.0137 142.937 13.373C142.932 11.7227 143.913 10.6289 145.417 10.6289C146.911 10.6289 147.888 11.7227 147.888 13.373C147.888 15.0137 146.911 16.1074 145.417 16.1074ZM143.981 13.373C143.981 14.3838 144.445 15.2383 145.417 15.2383C146.374 15.2383 146.833 14.3838 146.833 13.373C146.833 12.3574 146.374 11.4932 145.417 11.4883C144.445 11.4932 143.981 12.3574 143.981 13.373ZM148.913 16V10.6973H149.919V11.5371H149.978C150.173 10.9707 150.705 10.6143 151.325 10.6191C151.452 10.6143 151.657 10.6289 151.765 10.6387V11.6348C151.677 11.6152 151.433 11.5713 151.218 11.5762C150.495 11.5713 149.958 12.0742 149.958 12.7676V16H148.913Z" fill="white"/>
</g>
<defs>
<linearGradient id="paint0_linear_1233_3065" x1="71.9798" y1="76.1863" x2="89.4873" y2="45.9306" gradientUnits="userSpaceOnUse">
<stop stop-color="white"/>
<stop offset="1" stop-color="#FFC552"/>
</linearGradient>
<clipPath id="clip0_1233_3065">
<rect width="160" height="100" fill="white"/>
</clipPath>
<clipPath id="clip1_1233_3065">
<rect width="159.977" height="100" fill="white"/>
</clipPath>
</defs>
</svg>
