<svg width="160" height="100" viewBox="0 0 160 100" fill="none" xmlns="http://www.w3.org/2000/svg">
<g clip-path="url(#clip0_1233_3125)">
<g clip-path="url(#clip1_1233_3125)">
<path d="M159.377 0.609863H0.622803V99.3799H159.377V0.609863Z" fill="#FFE45F"/>
<path d="M159.997 100H0.00280762V0H159.997V100ZM1.24276 98.78H158.757V1.22H1.24276V98.77V98.78Z" fill="#EFD9B4"/>
<path d="M159.377 0.609863H0.622803V41.9599H159.377V0.609863Z" fill="white"/>
<path d="M159.997 42.58H0.00280762V0H159.997V42.58ZM1.24276 41.35H158.757V1.22H1.24276V41.35Z" fill="white"/>
<path d="M159.997 42.4399H0.00280762V48.2299H159.997V42.4399Z" fill="#B2AEA6"/>
<path d="M46.5412 56.9399H4.37266C4.09653 56.9399 3.87268 57.1638 3.87268 57.4399V96.8899C3.87268 97.1661 4.09653 97.3899 4.37266 97.3899H46.5412C46.8173 97.3899 47.0412 97.1661 47.0412 96.8899V57.4399C47.0412 57.1638 46.8173 56.9399 46.5412 56.9399Z" fill="#E2E2E2"/>
<path d="M44.1513 59.2798H6.75261C6.47647 59.2798 6.25262 59.5036 6.25262 59.7798V67.0898C6.25262 67.3659 6.47647 67.5898 6.75261 67.5898H44.1513C44.4274 67.5898 44.6513 67.3659 44.6513 67.0898V59.7798C44.6513 59.5036 44.4274 59.2798 44.1513 59.2798Z" fill="white"/>
<path d="M44.1513 68.8398H6.75261C6.47647 68.8398 6.25262 69.0637 6.25262 69.3398V76.6498C6.25262 76.926 6.47647 77.1498 6.75261 77.1498H44.1513C44.4274 77.1498 44.6513 76.926 44.6513 76.6498V69.3398C44.6513 69.0637 44.4274 68.8398 44.1513 68.8398Z" fill="white"/>
<path d="M44.1513 78.3901H6.75261C6.47647 78.3901 6.25262 78.614 6.25262 78.8901V94.6001C6.25262 94.8763 6.47647 95.1001 6.75261 95.1001H44.1513C44.4274 95.1001 44.6513 94.8763 44.6513 94.6001V78.8901C44.6513 78.614 44.4274 78.3901 44.1513 78.3901Z" fill="white"/>
<path d="M29.9218 61.2002H20.4821C19.9353 61.2002 19.4921 61.6434 19.4921 62.1902C19.4921 62.737 19.9353 63.1802 20.4821 63.1802H29.9218C30.4685 63.1802 30.9117 62.737 30.9117 62.1902C30.9117 61.6434 30.4685 61.2002 29.9218 61.2002Z" fill="#B2AEA6"/>
<path d="M29.9218 70.98H20.4821C19.9353 70.98 19.4921 71.4232 19.4921 71.97C19.4921 72.5167 19.9353 72.96 20.4821 72.96H29.9218C30.4685 72.96 30.9117 72.5167 30.9117 71.97C30.9117 71.4232 30.4685 70.98 29.9218 70.98Z" fill="#B2AEA6"/>
<path d="M29.9218 80.8599H20.4821C19.9353 80.8599 19.4921 81.3031 19.4921 81.8499C19.4921 82.3966 19.9353 82.8399 20.4821 82.8399H29.9218C30.4685 82.8399 30.9117 82.3966 30.9117 81.8499C30.9117 81.3031 30.4685 80.8599 29.9218 80.8599Z" fill="#B2AEA6"/>
<path d="M46.5312 56.9401L42.3913 53.3701H7.58256L4.36267 56.9401C4.36267 56.9401 46.6512 57.0601 46.5312 56.9401Z" fill="#C1BFBC"/>
<path d="M110.089 8.85986H95.3295V22.0699C95.3295 24.6599 97.4294 26.7599 100.019 26.7599H101.509C102.239 26.7599 102.829 27.3499 102.829 28.0799V29.3799C102.889 30.4499 104.199 31.7599 105.539 31.4099C106.879 31.0699 109.189 29.9799 109.789 28.7999L110.089 8.86986V8.85986Z" fill="#FADDDC"/>
<path d="M95.9695 22.2998L95.1095 22.0598C94.3395 21.8398 93.8896 21.0398 94.1095 20.2698L95.2895 16.0698C95.3795 15.7498 95.7095 15.5598 96.0295 15.6498C96.3495 15.7398 96.5395 16.0698 96.4495 16.3898L95.4295 20.0298C95.3095 20.4698 95.5595 20.9198 95.9995 21.0398L96.2995 21.1198C96.6195 21.2098 96.8095 21.5398 96.7195 21.8598C96.6295 22.1798 96.2995 22.3698 95.9795 22.2798L95.9695 22.2998Z" fill="#E0B1BB"/>
<path opacity="0.5" d="M100.349 19.2399L98.6694 19.0599C97.5994 18.9499 96.8194 17.9799 96.9394 16.9199C97.0494 15.8499 98.0194 15.0699 99.0794 15.1899L100.759 15.3699C101.829 15.4799 102.609 16.4499 102.489 17.5099C102.379 18.5799 101.409 19.3599 100.349 19.2399Z" fill="white"/>
<path d="M103.029 18.0102L103.119 17.1302C103.239 15.9802 102.399 14.9502 101.249 14.8302L98.6893 14.5602C97.5393 14.4402 96.5094 15.2802 96.3894 16.4302L96.2994 17.3102C96.1794 18.4602 97.0194 19.4902 98.1593 19.6102L100.719 19.8802C101.869 20.0002 102.899 19.1602 103.019 18.0202L103.029 18.0102ZM101.129 16.0002C101.629 16.0502 101.999 16.5102 101.949 17.0102L101.859 17.8902C101.809 18.3902 101.349 18.7602 100.849 18.7102L98.2893 18.4402C97.7893 18.3902 97.4193 17.9302 97.4693 17.4302L97.5593 16.5502C97.6093 16.0502 98.0693 15.6802 98.5693 15.7302L101.129 16.0002Z" fill="#9A9A99"/>
<path opacity="0.5" d="M93.7396 18.5502L93.4096 18.5202C92.7496 18.4502 92.2996 17.5202 92.4096 16.4602C92.5196 15.3902 93.1596 14.5802 93.8196 14.6502L94.1496 14.6802C94.8095 14.7502 95.2595 15.6802 95.1495 16.7402C95.0395 17.8102 94.3995 18.6202 93.7396 18.5502Z" fill="white"/>
<path d="M95.4694 17.2102L95.5594 16.3302C95.6794 15.1802 95.1995 14.1802 94.4795 14.1102L93.5995 14.0202C92.8895 13.9402 92.2096 14.8202 92.0796 15.9702L91.9896 16.8502C91.8696 18.0002 92.3496 19.0002 93.0695 19.0702L93.9495 19.1602C94.6595 19.2402 95.3395 18.3602 95.4694 17.2102ZM94.3595 15.2802C94.6695 15.3102 94.8795 15.7502 94.8295 16.2502L94.7395 17.1302C94.6895 17.6302 94.3895 18.0202 94.0795 17.9802L93.1995 17.8902C92.8895 17.8602 92.6695 17.4202 92.7295 16.9202L92.8195 16.0402C92.8695 15.5402 93.1695 15.1502 93.4795 15.1902L94.3595 15.2802Z" fill="#9A9A99"/>
<path d="M95.1267 15.4354L95.0032 16.6089L97.2009 16.8403L97.3245 15.6668L95.1267 15.4354Z" fill="#9A9A99"/>
<path d="M93.8295 8.45L93.7695 9.03C93.6295 10.36 94.5995 11.55 95.9295 11.69L103.219 12.62C103.899 12.69 104.809 13.29 104.739 13.97L104.679 14.65C104.599 15.4 105.419 16.03 105.859 16.21C106.359 16.41 106.599 16.99 106.409 17.49C106.149 18.19 105.789 19.52 106.019 20.91C106.289 22.4 110.299 22.68 109.999 22.32C109.719 21.97 109.279 21.66 109.419 21.05C109.569 21.46 111.389 21.87 111.439 21.44C111.349 21.46 110.019 19.79 110.669 19.17C111.119 18.74 111.919 18.82 112.059 17.44C112.249 15.61 111.359 15.63 112.329 14.84C113.289 14.07 113.249 12.85 112.839 12.25C112.419 11.64 111.519 9.54 111.519 9.54C111.489 9.42 111.459 9.31 111.409 9.21C112.039 9.16 112.479 8.56 112.479 8.56C111.649 8.87 110.799 7.9 110.799 7.9H110.779C109.619 6.22 107.549 5.74 105.609 5.47C103.659 5.19 102.099 5.73 101.119 5.99C100.019 5.8 99.1794 5.01 98.8594 4C97.9894 4.11 97.2794 4.75 97.0694 5.61C95.4095 5.57 93.9895 6.77 93.8095 8.45H93.8295Z" fill="#3E2967"/>
<path d="M74.5102 26.8398H62.8206V31.0098H74.5102V26.8398Z" fill="#2F3C43"/>
<path d="M78.4101 30.9702H58.9208V32.0702H78.4101V30.9702Z" fill="#455767"/>
<path d="M89.0897 0.310059H48.2511C47.0914 0.310059 46.1512 1.25026 46.1512 2.41006V25.8701C46.1512 27.0299 47.0914 27.9701 48.2511 27.9701H89.0897C90.2494 27.9701 91.1896 27.0299 91.1896 25.8701V2.41006C91.1896 1.25026 90.2494 0.310059 89.0897 0.310059Z" fill="#455767"/>
<path d="M89.1797 2.33008H48.1611V25.0801H89.1797V2.33008Z" fill="#3888BA"/>
<path d="M88.3797 25.8501H84.6298C84.3482 25.8501 84.1199 26.0784 84.1199 26.3601V26.3701C84.1199 26.6518 84.3482 26.8801 84.6298 26.8801H88.3797C88.6614 26.8801 88.8897 26.6518 88.8897 26.3701V26.3601C88.8897 26.0784 88.6614 25.8501 88.3797 25.8501Z" fill="#2F3C43"/>
<path d="M82.8599 25.8501H82.6499C82.3682 25.8501 82.1399 26.0784 82.1399 26.3601V26.3701C82.1399 26.6518 82.3682 26.8801 82.6499 26.8801H82.8599C83.1415 26.8801 83.3699 26.6518 83.3699 26.3701V26.3601C83.3699 26.0784 83.1415 25.8501 82.8599 25.8501Z" fill="#2F3C43"/>
<path d="M62.4206 4.83008H51.381V6.01008H62.4206V4.83008Z" fill="#A0D1EA"/>
<path d="M67.2804 4.83008H63.2206V6.01008H67.2804V4.83008Z" fill="#A0D16A"/>
<path d="M76.9301 8.97021H66.5405V10.1502H76.9301V8.97021Z" fill="#EFBA7F"/>
<path d="M57.6508 16.4399H51.631V17.6199H57.6508V16.4399Z" fill="#EFBA7F"/>
<path d="M65.7605 8.95996H54.7209V10.14H65.7605V8.95996Z" fill="#A0D1EA"/>
<path d="M62.7406 12.79H51.701V13.97H62.7406V12.79Z" fill="#A0D1EA"/>
<path d="M74.4402 12.79H63.4006V13.97H74.4402V12.79Z" fill="#A0D1EA"/>
<path d="M69.5403 16.4902H58.5007V17.6702H69.5403V16.4902Z" fill="#A0D1EA"/>
<path d="M91.3196 29.2998H52.811C51.8556 29.2998 51.0811 30.0744 51.0811 31.0298V40.1698C51.0811 41.1253 51.8556 41.8998 52.811 41.8998H91.3196C92.275 41.8998 93.0496 41.1253 93.0496 40.1698V31.0298C93.0496 30.0744 92.275 29.2998 91.3196 29.2998Z" fill="#455767"/>
<path d="M55.3308 30.4199H52.351V32.1099H55.3308V30.4199Z" fill="#65747F"/>
<path d="M58.2508 30.4199H55.6808V32.1099H58.2508V30.4199Z" fill="#65747F"/>
<path d="M61.2207 30.4199H58.6508V32.1099H61.2207V30.4199Z" fill="#65747F"/>
<path d="M64.3206 30.4199H61.7507V32.1099H64.3206V30.4199Z" fill="#65747F"/>
<path d="M67.4104 30.4199H64.8405V32.1099H67.4104V30.4199Z" fill="#65747F"/>
<path d="M70.5103 30.4199H67.9404V32.1099H70.5103V30.4199Z" fill="#65747F"/>
<path d="M73.6002 30.4199H71.0303V32.1099H73.6002V30.4199Z" fill="#65747F"/>
<path d="M76.6901 30.4199H74.1202V32.1099H76.6901V30.4199Z" fill="#65747F"/>
<path d="M79.79 30.4199H77.2201V32.1099H79.79V30.4199Z" fill="#65747F"/>
<path d="M82.8799 30.4199H80.31V32.1099H82.8799V30.4199Z" fill="#65747F"/>
<path d="M85.9798 30.4199H83.4099V32.1099H85.9798V30.4199Z" fill="#65747F"/>
<path d="M88.9497 30.4199H86.3798V32.1099H88.9497V30.4199Z" fill="#65747F"/>
<path d="M91.8095 30.4199H89.2396V32.1099H91.8095V30.4199Z" fill="#65747F"/>
<path d="M57.3108 32.4902H52.391V34.1802H57.3108V32.4902Z" fill="#65747F"/>
<path d="M60.2307 32.4902H57.6608V34.1802H60.2307V32.4902Z" fill="#65747F"/>
<path d="M63.2106 32.4902H60.6407V34.1802H63.2106V32.4902Z" fill="#65747F"/>
<path d="M66.3005 32.4902H63.7306V34.1802H66.3005V32.4902Z" fill="#65747F"/>
<path d="M69.4004 32.4902H66.8304V34.1802H69.4004V32.4902Z" fill="#65747F"/>
<path d="M72.4903 32.4902H69.9203V34.1802H72.4903V32.4902Z" fill="#65747F"/>
<path d="M75.5802 32.4902H73.0103V34.1802H75.5802V32.4902Z" fill="#65747F"/>
<path d="M78.68 32.4902H76.1101V34.1802H78.68V32.4902Z" fill="#65747F"/>
<path d="M81.7699 32.4902H79.2V34.1802H81.7699V32.4902Z" fill="#65747F"/>
<path d="M84.8698 32.4902H82.2999V34.1802H84.8698V32.4902Z" fill="#65747F"/>
<path d="M87.9597 32.4902H85.3898V34.1802H87.9597V32.4902Z" fill="#65747F"/>
<path d="M91.7596 32.4902H88.3097V34.1802H91.7596V32.4902Z" fill="#65747F"/>
<path d="M59.0107 34.5898H52.351V36.2798H59.0107V34.5898Z" fill="#65747F"/>
<path d="M61.9306 34.5898H59.3607V36.2798H61.9306V34.5898Z" fill="#65747F"/>
<path d="M64.9105 34.5898H62.3406V36.2798H64.9105V34.5898Z" fill="#65747F"/>
<path d="M68.0005 34.5898H65.4305V36.2798H68.0005V34.5898Z" fill="#65747F"/>
<path d="M71.1003 34.5898H68.5304V36.2798H71.1003V34.5898Z" fill="#65747F"/>
<path d="M74.1902 34.5898H71.6203V36.2798H74.1902V34.5898Z" fill="#65747F"/>
<path d="M77.2901 34.5898H74.7202V36.2798H77.2901V34.5898Z" fill="#65747F"/>
<path d="M80.38 34.5898H77.8101V36.2798H80.38V34.5898Z" fill="#65747F"/>
<path d="M83.4699 34.5898H80.9V36.2798H83.4699V34.5898Z" fill="#65747F"/>
<path d="M86.5698 34.5898H83.9999V36.2798H86.5698V34.5898Z" fill="#65747F"/>
<path d="M91.7396 34.5898H87.0897V36.2798H91.7396V34.5898Z" fill="#65747F"/>
<path d="M59.9707 36.8101H52.361V38.5001H59.9707V36.8101Z" fill="#65747F"/>
<path d="M55.9408 38.9902H52.361V40.6802H55.9408V38.9902Z" fill="#65747F"/>
<path d="M59.9307 38.9902H56.3508V40.6802H59.9307V38.9902Z" fill="#65747F"/>
<path d="M63.9306 38.9902H60.3507V40.6802H63.9306V38.9902Z" fill="#65747F"/>
<path d="M91.7796 38.9902H64.2706V40.6802H91.7796V38.9902Z" fill="#65747F"/>
<path d="M62.8906 36.8101H60.3207V38.5001H62.8906V36.8101Z" fill="#65747F"/>
<path d="M65.8705 36.8101H63.3006V38.5001H65.8705V36.8101Z" fill="#65747F"/>
<path d="M68.9704 36.8101H66.4005V38.5001H68.9704V36.8101Z" fill="#65747F"/>
<path d="M72.0603 36.8101H69.4904V38.5001H72.0603V36.8101Z" fill="#65747F"/>
<path d="M75.1502 36.8101H72.5803V38.5001H75.1502V36.8101Z" fill="#65747F"/>
<path d="M78.2501 36.8101H75.6802V38.5001H78.2501V36.8101Z" fill="#65747F"/>
<path d="M81.3399 36.8101H78.77V38.5001H81.3399V36.8101Z" fill="#65747F"/>
<path d="M84.4398 36.8101H81.8699V38.5001H84.4398V36.8101Z" fill="#65747F"/>
<path d="M87.5297 36.8101H84.9598V38.5001H87.5297V36.8101Z" fill="#65747F"/>
<path d="M91.7495 36.8101H88.0497V38.5001H91.7495V36.8101Z" fill="#65747F"/>
<path d="M101.549 29.54H109.529C111.169 29.54 112.499 30.87 112.499 32.51C112.499 33.36 111.809 34.05 110.959 34.05H100.129C99.2793 34.05 98.5894 33.36 98.5894 32.51C98.5894 30.87 99.9193 29.54 101.559 29.54H101.549Z" fill="white"/>
<path d="M94.2996 76.5101L96.4295 88.6501C96.7295 90.3501 98.2094 91.5901 99.9294 91.5901C101.829 91.5901 103.389 90.1001 103.479 88.2101L104.089 75.5801L94.2996 76.5101Z" fill="#3E2967"/>
<path d="M110.309 76.1999L109.939 88.3699C109.889 90.1599 111.269 91.6599 113.059 91.7499C114.629 91.8299 116.029 90.7999 116.419 89.2799L119.949 75.4199L110.309 76.1999Z" fill="#3E2967"/>
<path d="M124.088 88.02L111.989 85.4L119.219 84.18L117.859 82.82L108.499 84.08V77H105.409V84.11L95.7094 82.76L93.9495 83.91L101.959 85.48L89.1396 88.11L88.9996 89.73L105.329 87.7L105.899 93.17L107.749 93.2L107.969 87.77L124.298 89.67L124.088 88.02Z" fill="#8C8C8C"/>
<path d="M90.3596 92.2999C91.2929 92.2999 92.0496 91.5433 92.0496 90.6099C92.0496 89.6766 91.2929 88.9199 90.3596 88.9199C89.4263 88.9199 88.6697 89.6766 88.6697 90.6099C88.6697 91.5433 89.4263 92.2999 90.3596 92.2999Z" fill="#8C8C8C"/>
<path d="M106.749 96.3702C107.682 96.3702 108.439 95.6136 108.439 94.6802C108.439 93.7469 107.682 92.9902 106.749 92.9902C105.816 92.9902 105.059 93.7469 105.059 94.6802C105.059 95.6136 105.816 96.3702 106.749 96.3702Z" fill="#8C8C8C"/>
<path d="M123.548 92.8502C124.482 92.8502 125.238 92.0936 125.238 91.1602C125.238 90.2269 124.482 89.4702 123.548 89.4702C122.615 89.4702 121.859 90.2269 121.859 91.1602C121.859 92.0936 122.615 92.8502 123.548 92.8502Z" fill="#8C8C8C"/>
<path d="M117.859 87.2198C118.792 87.2198 119.549 86.4632 119.549 85.5298C119.549 84.5965 118.792 83.8398 117.859 83.8398C116.925 83.8398 116.169 84.5965 116.169 85.5298C116.169 86.4632 116.925 87.2198 117.859 87.2198Z" fill="#8C8C8C"/>
<path d="M94.9695 87.09C95.9028 87.09 96.6594 86.3333 96.6594 85.4C96.6594 84.4666 95.9028 83.71 94.9695 83.71C94.0362 83.71 93.2795 84.4666 93.2795 85.4C93.2795 86.3333 94.0362 87.09 94.9695 87.09Z" fill="#8C8C8C"/>
<path d="M83.9399 31.92C83.6399 29.77 81.65 28.26 79.5 28.56C77.7301 28.81 76.4002 30.19 76.1502 31.87C76.1002 32.23 76.0902 32.61 76.1502 33C76.2802 33.93 76.4402 34.85 76.6201 35.74L84.1799 33.35C84.0899 32.88 84.0099 32.4 83.9499 31.92H83.9399Z" fill="#FADDDC"/>
<path d="M110.359 68.0001C111.239 66.0201 110.339 63.6901 108.359 62.8101C108.149 62.7201 87.8297 53.4301 84.1698 33.3501L76.6101 35.7401C81.4299 59.2801 104.169 69.5701 105.179 70.0101C107.169 70.8901 109.479 69.9901 110.359 68.0001Z" fill="#FADDDC"/>
<path d="M117.179 29.5498H95.9794C93.2795 29.5498 85.4898 30.4898 82.2699 34.1998C79.47 37.4298 79.07 42.3098 79.45 53.9898C79.55 57.1098 82.1199 59.5998 85.2398 59.5898C97.9293 59.5598 127.848 59.4798 127.848 59.4598C131.288 47.8498 131.228 43.4298 129.308 37.5198C127.168 30.9498 118.619 29.5498 117.179 29.5498Z" fill="#EA5041"/>
<path d="M121.949 78.0498H91.4796C87.7297 78.0498 84.5498 75.0998 84.0499 71.1398L80.79 45.3698C80.18 40.5898 83.6799 36.3398 88.2197 36.3398H124.558C129.018 36.3398 132.488 40.4498 132.008 45.1598L129.398 70.9298C128.988 74.9798 125.778 78.0498 121.949 78.0498Z" fill="#E5E5E5"/>
<path d="M124.558 43.7001C124.618 43.7001 124.818 43.7001 124.988 43.9101C125.158 44.1201 125.138 44.3201 125.138 44.3901L122.528 70.1601C122.498 70.4801 122.249 70.7101 121.949 70.7101H91.4796C91.1896 70.7101 90.9396 70.4801 90.8996 70.1701L87.6397 44.4001C87.6397 44.3301 87.5997 44.1201 87.7797 43.9101C87.9497 43.7001 88.1497 43.7001 88.2197 43.7001H124.558ZM124.558 36.3501H88.2197C83.6799 36.3501 80.18 40.6001 80.79 45.3801L84.0499 71.1501C84.5498 75.1001 87.7297 78.0601 91.4796 78.0601H121.949C125.778 78.0601 128.988 74.9901 129.398 70.9401L132.008 45.1701C132.488 40.4601 129.008 36.3501 124.558 36.3501Z" fill="#F7F7F7"/>
<path d="M90.1597 63.4102H123.548L122.809 70.6602L91.1896 70.6702L90.1597 63.4102Z" fill="#B2AEA6"/>
<path d="M101.369 29.3799H110.759" stroke="#FFD415" stroke-width="2.00013" stroke-miterlimit="10"/>
</g>
<rect x="120" y="4" width="36" height="16" rx="4" fill="#1C1C1C"/>
<path d="M124.46 9.85742V8.92969H129.938V9.85742H127.741V16H126.667V9.85742H124.46ZM129.978 14.5059C129.973 13.2949 131.003 12.9824 131.96 12.9141C132.312 12.8945 133.107 12.8506 133.352 12.8408L133.347 12.416C133.352 11.8154 132.98 11.4688 132.272 11.4688C131.657 11.4688 131.286 11.752 131.179 12.1426H130.144C130.236 11.2637 131.057 10.6289 132.312 10.6289C133.156 10.6289 134.387 10.9365 134.392 12.4746V16H133.376V15.2773H133.337C133.132 15.6729 132.644 16.1172 131.765 16.1172C130.759 16.1172 129.973 15.541 129.978 14.5059ZM130.993 14.5156C130.993 15.0234 131.413 15.2822 131.999 15.2871C132.849 15.2822 133.356 14.7158 133.356 14.0859L133.352 13.6025C133.112 13.6172 132.355 13.6709 132.106 13.6855C131.423 13.7344 130.993 13.9932 130.993 14.5156ZM136.101 17.9922C135.886 17.9873 135.676 17.9824 135.544 17.9629V17.0938C135.661 17.1035 135.866 17.1084 136.013 17.1133C136.335 17.1084 136.604 17.0889 136.853 16.4199L136.979 16.0684L135.036 10.6973H136.149L137.487 14.8086H137.546L138.884 10.6973H140.007L137.819 16.7031C137.512 17.543 136.975 17.9873 136.101 17.9922ZM141.901 8.92969V16H140.856V8.92969H141.901ZM145.417 16.1074C143.913 16.1074 142.932 15.0137 142.937 13.373C142.932 11.7227 143.913 10.6289 145.417 10.6289C146.911 10.6289 147.888 11.7227 147.888 13.373C147.888 15.0137 146.911 16.1074 145.417 16.1074ZM143.981 13.373C143.981 14.3838 144.445 15.2383 145.417 15.2383C146.374 15.2383 146.833 14.3838 146.833 13.373C146.833 12.3574 146.374 11.4932 145.417 11.4883C144.445 11.4932 143.981 12.3574 143.981 13.373ZM148.913 16V10.6973H149.919V11.5371H149.978C150.173 10.9707 150.705 10.6143 151.325 10.6191C151.452 10.6143 151.657 10.6289 151.765 10.6387V11.6348C151.677 11.6152 151.433 11.5713 151.218 11.5762C150.495 11.5713 149.958 12.0742 149.958 12.7676V16H148.913Z" fill="white"/>
</g>
<defs>
<clipPath id="clip0_1233_3125">
<rect width="160" height="100" fill="white"/>
</clipPath>
<clipPath id="clip1_1233_3125">
<rect width="160" height="100" fill="white"/>
</clipPath>
</defs>
</svg>
