<svg width="160" height="100" viewBox="0 0 160 100" fill="none" xmlns="http://www.w3.org/2000/svg">
<g clip-path="url(#clip0_14_1593)">
<g clip-path="url(#clip1_14_1593)">
<path d="M159.25 0.610107H0.619995V99.3801H159.25V0.610107Z" fill="#FFE45F"/>
<path d="M159.86 100H0V0H159.86V100ZM1.24 98.78H158.63V1.22H1.24V98.77V98.78Z" fill="#EFD9B4"/>
<path d="M159.39 82.55H0.76001V99.39H159.39V82.55Z" fill="white"/>
<path d="M160 99.9999H0.140015V81.9399H160V99.9999ZM1.37001 98.7799H158.76V83.1699H1.37001V98.7799Z" fill="white"/>
<path d="M93 43.81C92.66 43.21 92.17 42.75 91.61 42.43C89.83 40.76 87.43 39.74 84.79 39.74H63.5999C60.8999 39.74 58.4299 40.69 56.4999 42.26C55.7999 42.57 55.1899 43.1 54.7799 43.81C54.7299 43.9 54.5799 44.17 54.3499 44.6C53.6999 45.55 53.1999 46.61 52.8699 47.75C49.8399 54.85 45.0099 70.44 52.3399 86.04L59.5099 83.59C59.2199 83 58.9499 82.4 58.6999 81.81H89.08C88.83 82.41 88.5599 83 88.2699 83.59L95.44 86.04C105.14 65.39 93.52 44.72 93 43.82V43.81Z" fill="#5280DD"/>
<path d="M95.9901 84.97C96.9901 83.16 96.3201 80.9 94.4901 79.91C92.9901 79.1 91.1801 79.4 90.0301 80.54C89.7801 80.79 89.5601 81.07 89.3801 81.4C88.9501 82.18 88.5501 82.97 88.1801 83.75L95.3501 86.2C95.5501 85.79 95.7601 85.38 95.9901 84.98V84.97Z" fill="#FADDDC"/>
<path d="M77.57 39.8101H85.83V35.0401H77.57V39.8101Z" fill="#3E2967"/>
<path d="M71.66 19.1499H86.12V32.6199C86.12 35.1599 84.06 37.2099 81.53 37.2099H80.07C79.36 37.2099 78.78 37.7899 78.78 38.4999V40.2299C78.78 42.1799 77.2 43.7599 75.25 43.7599C73.3 43.7599 71.72 42.1799 71.72 40.2399L71.67 19.1499H71.66Z" fill="#FADDDC"/>
<path d="M81.44 33.04H82.31C83.09 33.04 83.73 32.41 83.73 31.62V27.35C83.73 27.02 83.47 26.76 83.14 26.76C82.81 26.76 82.55 27.02 82.55 27.35V31.05C82.55 31.49 82.19 31.85 81.75 31.85H81.45C81.12 31.85 80.86 32.11 80.86 32.44C80.86 32.77 81.12 33.03 81.45 33.03L81.44 33.04Z" fill="#E0B1BB"/>
<path d="M80.05 27.5299C80.05 27.9999 79.67 28.3799 79.2 28.3799C78.73 28.3799 78.35 27.9999 78.35 27.5299C78.35 27.0599 78.73 26.6799 79.2 26.6799C79.67 26.6799 80.05 27.0599 80.05 27.5299Z" fill="#757570"/>
<path d="M77.13 22.81C76.34 24 75.19 25.79 74.74 28.39C73.69 34.36 77.49 36.02 77.49 36.02L72.74 36.4L73.13 47.73C70.16 47.73 60.88 50.43 66.6 30.74L68.91 21.18C69.82 17.41 73.19 14.76 77.07 14.76H81.29C82.27 14.76 83.12 15.46 83.3 16.42C85.45 16.42 87.08 18.14 87.47 20.2C88.49 25.53 87.78 32.82 87.78 32.82C87.58 36.11 89.02 36.14 89.02 36.14C89.02 36.14 87.06 36.22 86.55 36.22H84.57C84.57 36.22 86.03 34.84 86.05 32.85C86.06 31.85 86.06 29.39 86.05 27.2C86.05 24.67 84.78 20.84 82.68 19.43C82.68 19.43 79.39 19.38 77.11 22.82L77.13 22.81Z" fill="#3E2967"/>
<path d="M78.47 66.42C78.15 65.56 77.39 64.91 76.42 64.91H75.34V61.67C75.34 61.02 74.91 60.59 74.26 60.59H67.78V58.43H69.94C70.59 58.43 71.02 58 71.02 57.35V55.19H73.18C74.37 55.19 75.34 54.22 75.34 53.03V52.6C78.47 53.9 80.74 57.03 80.74 60.6C80.74 62.87 79.88 64.92 78.47 66.44M71.02 69.12C66.81 68.58 63.46 64.91 63.46 60.58C63.46 59.93 63.57 59.28 63.68 58.63L68.87 63.82V64.9C68.87 66.09 69.84 67.06 71.03 67.06M72.1 49.78C66.16 49.78 61.29 54.64 61.29 60.59C61.29 66.54 66.15 71.4 72.1 71.4C78.05 71.4 82.91 66.54 82.91 60.59C82.91 54.64 78.05 49.78 72.1 49.78Z" fill="white"/>
<path d="M120.74 87.06L76.71 87L76.73 87.76L84.44 90.76L119.34 90.81C120.11 90.81 120.74 90.19 120.74 89.41V87.05V87.06Z" fill="#2C3B41"/>
<path d="M118.88 64.1899H85.02C83.9817 64.1899 83.14 65.0316 83.14 66.0699V88.9299C83.14 89.9682 83.9817 90.8099 85.02 90.8099H118.88C119.918 90.8099 120.76 89.9682 120.76 88.9299V66.0699C120.76 65.0316 119.918 64.1899 118.88 64.1899Z" fill="#455767"/>
<path d="M101.97 80.43C103.55 80.43 104.83 79.1495 104.83 77.57C104.83 75.9904 103.55 74.71 101.97 74.71C100.39 74.71 99.11 75.9904 99.11 77.57C99.11 79.1495 100.39 80.43 101.97 80.43Z" fill="#DCE6F1"/>
<path d="M36.25 83.0601H63.85C63.94 83.0601 64.04 83.0801 64.12 83.1201L71.75 86.5801C72.4 86.8701 72.19 87.8401 71.48 87.8401H42.09C41.97 87.8401 41.86 87.8101 41.75 87.7501L35.91 84.2901C35.33 83.9501 35.57 83.0601 36.25 83.0601Z" fill="#506575"/>
<path d="M54.62 75.8H58.0601C59.3401 75.8 60.37 76.84 60.37 78.11V86.2H52.3V78.11C52.3 76.83 53.3401 75.8 54.6101 75.8H54.62Z" fill="#FADDDC"/>
<path d="M55.26 71.3201H57.08V77.7301C57.08 78.2301 56.67 78.6401 56.17 78.6401C55.67 78.6401 55.26 78.2301 55.26 77.7301V71.3201Z" fill="#506575"/>
<path d="M136.13 58.3399C135 54.3199 133.26 53.0199 133.24 53.0099L133.82 52.1899C133.9 52.2499 135.85 53.6599 137.09 58.0699L136.13 58.3399Z" fill="#50D866"/>
<path d="M139.95 58.0101L138.99 57.7401C140.23 53.3401 142.18 51.9201 142.26 51.8601L142.84 52.6801C142.84 52.6801 141.09 53.9901 139.95 58.0101Z" fill="#50D866"/>
<path d="M138.41 57.79L137.45 57.52C138.62 53.37 138.21 46.3299 138.2 46.2599L139.2 46.2C139.22 46.49 139.63 53.47 138.41 57.79Z" fill="#50D866"/>
<path d="M137.46 57.1599C132.17 42.2999 134.85 36.8799 134.96 36.6599L135.85 37.1199C135.82 37.1699 133.3 42.4699 138.4 56.8299L137.46 57.1599Z" fill="#50D866"/>
<path d="M138.53 57.14C137.86 48.18 144.38 43.18 144.66 42.97L145.26 43.77C145.2 43.82 138.9 48.67 139.53 57.06L138.53 57.14Z" fill="#50D866"/>
<path d="M132.7 52.9101C134.103 52.9101 135.24 51.7729 135.24 50.3701C135.24 48.9673 134.103 47.8301 132.7 47.8301C131.297 47.8301 130.16 48.9673 130.16 50.3701C130.16 51.7729 131.297 52.9101 132.7 52.9101Z" fill="#FF6075"/>
<path d="M145.71 43.83C147.113 43.83 148.25 42.6928 148.25 41.29C148.25 39.8872 147.113 38.75 145.71 38.75C144.307 38.75 143.17 39.8872 143.17 41.29C143.17 42.6928 144.307 43.83 145.71 43.83Z" fill="#FF8645"/>
<path d="M138.25 46.4501C139.653 46.4501 140.79 45.3129 140.79 43.9101C140.79 42.5073 139.653 41.3701 138.25 41.3701C136.847 41.3701 135.71 42.5073 135.71 43.9101C135.71 45.3129 136.847 46.4501 138.25 46.4501Z" fill="#FFACFF"/>
<path d="M134.94 38.6C136.343 38.6 137.48 37.4628 137.48 36.06C137.48 34.6572 136.343 33.52 134.94 33.52C133.537 33.52 132.4 34.6572 132.4 36.06C132.4 37.4628 133.537 38.6 134.94 38.6Z" fill="#FF6075"/>
<path d="M142.84 53.2099C144.243 53.2099 145.38 52.0727 145.38 50.6699C145.38 49.2671 144.243 48.1299 142.84 48.1299C141.437 48.1299 140.3 49.2671 140.3 50.6699C140.3 52.0727 141.437 53.2099 142.84 53.2099Z" fill="#FF8645"/>
<path d="M138.84 88.72C133.94 88.74 130.45 86.73 130.85 84.64C130.85 84.64 130.76 81.1 138.38 80.56C146 80.02 145.82 84.73 145.82 84.73C146.22 86.82 143.73 88.7 138.83 88.72H138.84Z" fill="#F4EFEF"/>
<path d="M142.08 86.9601H135.95C133.82 86.9601 132.22 85.0201 132.62 82.9301L135.02 70.4101C135.53 67.7401 135.51 65.0001 134.96 62.3401L133.81 56.8101H144.2L143.05 62.3401C142.5 65.0001 142.48 67.7401 142.99 70.4101L145.39 82.9301C145.79 85.0201 144.19 86.9601 142.06 86.9601H142.08Z" fill="white"/>
</g>
<rect x="124.615" y="4.19507" width="31" height="16" rx="4" fill="#1C1C1C"/>
<path d="M128.997 9.12476H130.218L132.054 12.3279H132.132L133.978 9.12476H135.198L132.63 13.4216V16.1951H131.556V13.4216L128.997 9.12476ZM137.376 16.3025C135.872 16.3025 134.891 15.2087 134.896 13.5681C134.891 11.9177 135.872 10.824 137.376 10.824C138.87 10.824 139.847 11.9177 139.847 13.5681C139.847 15.2087 138.87 16.3025 137.376 16.3025ZM135.94 13.5681C135.94 14.5789 136.404 15.4333 137.376 15.4333C138.333 15.4333 138.792 14.5789 138.792 13.5681C138.792 12.5525 138.333 11.6882 137.376 11.6833C136.404 11.6882 135.94 12.5525 135.94 13.5681ZM141.917 13.0505V16.1951H140.872V9.12476H141.897V11.7615H141.966C142.215 11.1853 142.713 10.824 143.538 10.824C144.627 10.824 145.354 11.4978 145.354 12.8259V16.1951H144.31V12.9529C144.31 12.1716 143.89 11.7224 143.187 11.7224C142.449 11.7224 141.917 12.2058 141.917 13.0505ZM146.37 14.7009C146.365 13.49 147.396 13.1775 148.353 13.1091C148.704 13.0896 149.5 13.0457 149.744 13.0359L149.739 12.6111C149.744 12.0105 149.373 11.6638 148.665 11.6638C148.05 11.6638 147.679 11.947 147.571 12.3376H146.536C146.629 11.4587 147.449 10.824 148.704 10.824C149.549 10.824 150.779 11.1316 150.784 12.6697V16.1951H149.769V15.4724H149.729C149.524 15.8679 149.036 16.3123 148.157 16.3123C147.151 16.3123 146.365 15.7361 146.37 14.7009ZM147.386 14.7107C147.386 15.2185 147.806 15.4773 148.392 15.4822C149.241 15.4773 149.749 14.9109 149.749 14.281L149.744 13.7976C149.505 13.8123 148.748 13.866 148.499 13.8806C147.815 13.9294 147.386 14.1882 147.386 14.7107Z" fill="white"/>
</g>
<defs>
<clipPath id="clip0_14_1593">
<rect width="160" height="100" fill="white"/>
</clipPath>
<clipPath id="clip1_14_1593">
<rect width="160" height="100" fill="white"/>
</clipPath>
</defs>
</svg>
