<svg width="160" height="100" viewBox="0 0 160 100" fill="none" xmlns="http://www.w3.org/2000/svg">
<g clip-path="url(#clip0_14_1613)">
<g clip-path="url(#clip1_14_1613)">
<path d="M159.38 0.610107H0.619995V99.3801H159.38V0.610107Z" fill="#FFE45F"/>
<path d="M160 100H0V0H160V100ZM1.24 98.78H158.76V1.22H1.24V98.77V98.78Z" fill="#EFD9B4"/>
<path d="M85.79 78.91L87.92 91.05C88.22 92.75 89.7 93.99 91.42 93.99C93.32 93.99 94.88 92.5 94.97 90.61L95.58 77.98L85.79 78.91Z" fill="#3E2967"/>
<path d="M101.81 78.6001L101.44 90.7701C101.39 92.5601 102.77 94.0601 104.56 94.1501C106.13 94.2301 107.53 93.2001 107.92 91.6801L111.45 77.8201L101.81 78.6001Z" fill="#3E2967"/>
<path d="M115.58 90.4099L103.49 87.7999L110.72 86.5699L109.36 85.2199L100 86.4799V79.3899H96.91V86.4999L87.21 85.1499L85.45 86.2999L93.46 87.8799L80.64 90.4999L80.5 92.1299L96.83 90.0999L97.39 95.5699L99.24 95.5999L99.47 90.1699L115.8 92.0599L115.58 90.4099Z" fill="#8C8C8C"/>
<path d="M81.86 94.7001C82.7934 94.7001 83.55 93.9434 83.55 93.0101C83.55 92.0767 82.7934 91.3201 81.86 91.3201C80.9267 91.3201 80.17 92.0767 80.17 93.0101C80.17 93.9434 80.9267 94.7001 81.86 94.7001Z" fill="#8C8C8C"/>
<path d="M98.2501 98.7599C99.1834 98.7599 99.9401 98.0032 99.9401 97.0699C99.9401 96.1365 99.1834 95.3799 98.2501 95.3799C97.3167 95.3799 96.5601 96.1365 96.5601 97.0699C96.5601 98.0032 97.3167 98.7599 98.2501 98.7599Z" fill="#8C8C8C"/>
<path d="M115.05 95.2401C115.983 95.2401 116.74 94.4835 116.74 93.5501C116.74 92.6167 115.983 91.8601 115.05 91.8601C114.117 91.8601 113.36 92.6167 113.36 93.5501C113.36 94.4835 114.117 95.2401 115.05 95.2401Z" fill="#8C8C8C"/>
<path d="M109.36 89.62C110.293 89.62 111.05 88.8634 111.05 87.93C111.05 86.9966 110.293 86.24 109.36 86.24C108.427 86.24 107.67 86.9966 107.67 87.93C107.67 88.8634 108.427 89.62 109.36 89.62Z" fill="#8C8C8C"/>
<path d="M86.46 89.4801C87.3934 89.4801 88.15 88.7235 88.15 87.7901C88.15 86.8567 87.3934 86.1001 86.46 86.1001C85.5267 86.1001 84.77 86.8567 84.77 87.7901C84.77 88.7235 85.5267 89.4801 86.46 89.4801Z" fill="#8C8C8C"/>
<path d="M1.23999 41.35H158.76V1.21997H1.23999V41.35Z" fill="white"/>
<path d="M160 0H0V42.57H160V0Z" fill="white"/>
<path d="M160 48.3301H0V42.55H160V48.3301Z" fill="#B2AEA6"/>
<path d="M114.99 29.0901H139.59C140.46 29.0901 140.9 29.8401 140.28 30.2801L132.39 35.8901C132.21 36.0201 131.96 36.0901 131.7 36.0901H106.8C105.92 36.0901 105.48 35.3301 106.12 34.9001C108.64 33.1701 113.15 30.0901 114.32 29.2801C114.5 29.1501 114.74 29.0901 115 29.0901H114.99Z" fill="#455767"/>
<path d="M77.15 23.98V5.13002C77.15 3.41002 75.74 2.02002 74.01 2.02002H43.42C41.69 2.02002 40.28 3.41002 40.28 5.13002V23.76C40.28 24.67 40.66 25.53 41.32 26.15L50.53 34.76C51.28 35.46 52.26 35.85 53.28 35.85H86.9C88.04 35.85 88.54 34.42 87.66 33.71L78.09 25.95C77.5 25.47 77.16 24.75 77.16 23.99L77.15 23.98Z" fill="#455767"/>
<path d="M73.78 5.19995H43.16V22.87H73.78V5.19995Z" fill="#3888BA"/>
<path d="M76.48 28.6901H50.99L49.45 27.55H74.94L76.48 28.6901Z" fill="#506575"/>
<path d="M79.68 32.2899H54.19L52.65 31.1599H78.14L79.68 32.2899Z" fill="#506575"/>
<path d="M115.63 30.36C115.88 30.36 137.38 30.28 137.38 30.28L130.87 34.32L110.03 34.24L115.63 30.37V30.36Z" fill="#506575"/>
<path d="M75.43 34.3101C75.13 32.1601 73.14 30.6501 70.99 30.9501C69.22 31.2001 67.89 32.5801 67.64 34.2601C67.59 34.6201 67.58 35.0001 67.64 35.3901C67.77 36.3201 67.93 37.2401 68.11 38.1301L75.67 35.7401C75.58 35.2701 75.5 34.7901 75.44 34.3101H75.43Z" fill="#FADDDC"/>
<path d="M101.86 70.4C102.74 68.42 101.84 66.09 99.86 65.21C99.65 65.12 79.33 55.83 75.67 35.75L68.11 38.14C72.93 61.68 95.67 71.97 96.68 72.41C98.67 73.29 100.98 72.39 101.86 70.4Z" fill="#FADDDC"/>
<path d="M90.6 68.5101C89.72 66.5301 90.62 64.2001 92.6 63.3201C92.81 63.2301 113.13 53.9401 116.79 33.8601L124.35 36.2501C119.53 59.7901 96.79 70.0801 95.78 70.5201C93.79 71.4001 91.48 70.5001 90.6 68.5101Z" fill="#FADDDC"/>
<path d="M95.0701 27.3301H86.8101V32.1001H95.0701V27.3301Z" fill="#3E2967"/>
<path d="M100.98 11.4399H86.52V24.9099C86.52 27.4499 88.58 29.4999 91.11 29.4999H92.57C93.28 29.4999 93.86 30.0799 93.86 30.7899V32.5199C93.86 34.4699 95.44 36.0499 97.39 36.0499C99.34 36.0499 100.92 34.4699 100.92 32.5299L100.97 11.4399H100.98Z" fill="#FADDDC"/>
<path d="M108.67 31.95H87.47C84.77 31.95 76.9801 32.8899 73.7601 36.5999C70.9601 39.8299 70.5601 44.7099 70.9401 56.3899C71.0401 59.5099 73.6101 62 76.7301 61.99C89.4201 61.96 119.34 61.88 119.34 61.86C122.78 50.25 122.72 45.8299 120.8 39.9199C118.66 33.3499 110.11 31.95 108.67 31.95Z" fill="#5280DD"/>
<path d="M92.25 16.1101C93.04 17.3001 94.43 19.6701 94.89 22.2601C95.94 28.2301 92.8 28.5201 92.8 28.5201L96.6 28.7001L96.21 40.0301C99.18 40.0301 111.77 42.7301 106.05 23.0401L103.74 13.4801C102.83 9.71006 99.46 7.06006 95.58 7.06006H91.36C90.38 7.06006 89.53 7.76006 89.35 8.72006C87.2 8.72006 86.3 10.4401 85.91 12.5001C84.89 17.8301 85.6 25.1201 85.6 25.1201C85.8 28.4101 84.36 28.4401 84.36 28.4401C84.36 28.4401 85.58 28.5201 86.1 28.5201H88.08C88.08 28.5201 86.62 27.1401 86.6 25.1501C86.59 24.1501 86.59 21.6901 86.6 19.5001C86.6 16.9701 86.66 13.5801 88.77 12.1601C88.77 12.1601 90 12.6801 92.29 16.1101H92.25Z" fill="#3E2967"/>
<path d="M113.45 80.45H82.98C79.23 80.45 76.05 77.5 75.55 73.54L72.29 47.77C71.68 42.99 75.18 38.74 79.72 38.74H116.06C120.52 38.74 123.99 42.85 123.51 47.56L120.9 73.33C120.49 77.38 117.28 80.45 113.45 80.45Z" fill="#E5E5E5"/>
<path d="M116.06 46.1C116.12 46.1 116.32 46.1 116.49 46.31C116.66 46.52 116.64 46.72 116.64 46.79L114.03 72.56C114 72.88 113.75 73.11 113.45 73.11H82.98C82.69 73.11 82.44 72.88 82.4 72.57L79.14 46.8C79.14 46.73 79.1 46.52 79.28 46.31C79.45 46.1 79.65 46.1 79.72 46.1H116.06ZM116.06 38.75H79.72C75.18 38.75 71.68 43 72.29 47.78L75.55 73.55C76.05 77.5 79.23 80.46 82.98 80.46H113.45C117.28 80.46 120.49 77.39 120.9 73.34L123.51 47.57C123.99 42.86 120.51 38.75 116.06 38.75Z" fill="#F7F7F7"/>
<path d="M88.11 25.5901L87.25 25.4601C86.48 25.3401 85.94 24.6201 86.06 23.8501L86.69 19.6201C86.74 19.3001 87.04 19.0701 87.36 19.1201C87.68 19.1701 87.91 19.4701 87.86 19.7901L87.31 23.4501C87.24 23.8901 87.55 24.3001 87.99 24.3601L88.29 24.4001C88.61 24.4501 88.84 24.7501 88.79 25.0701C88.74 25.3901 88.44 25.6201 88.12 25.5701L88.11 25.5901Z" fill="#E0B1BB"/>
<path d="M124.4 36.35L116.79 33.95L117.12 29.29C117.12 28.01 118.16 26.98 119.43 26.98H122.08C123.36 26.98 124.39 28.02 124.39 29.29V36.35H124.4Z" fill="#FADDDC"/>
<path d="M89.42 19.9501C89.42 20.4201 89.8 20.8001 90.27 20.8001C90.74 20.8001 91.12 20.4201 91.12 19.9501C91.12 19.4801 90.74 19.1001 90.27 19.1001C89.8 19.1001 89.42 19.4801 89.42 19.9501Z" fill="#4C4C48"/>
<path d="M72.33 61.3401H78.08V69.9101H72.33C71.02 69.9101 69.95 68.8401 69.95 67.5301V63.7201C69.95 62.4101 71.02 61.3401 72.33 61.3401Z" fill="#F7F7F7"/>
<path d="M120.44 61.3401H123.19C124.85 61.3401 126.2 62.6901 126.2 64.3501V66.3101C126.2 68.3001 124.58 69.9201 122.59 69.9201H120.45C119.14 69.9201 118.07 68.8501 118.07 67.5401V63.7301C118.07 62.4201 119.14 61.3501 120.45 61.3501L120.44 61.3401Z" fill="#F7F7F7"/>
<path d="M81.37 65.3H114.77L114.03 72.55L82.4 72.56L81.37 65.3Z" fill="#B2AEA6"/>
<path d="M45.8599 56.45H3.68994C3.4138 56.45 3.18994 56.6738 3.18994 56.95V96.4C3.18994 96.6761 3.4138 96.9 3.68994 96.9H45.8599C46.1361 96.9 46.3599 96.6761 46.3599 96.4V56.95C46.3599 56.6738 46.1361 56.45 45.8599 56.45Z" fill="#E2E2E2"/>
<path d="M43.4699 58.78H6.06995C5.7938 58.78 5.56995 59.0039 5.56995 59.28V66.59C5.56995 66.8662 5.7938 67.09 6.06995 67.09H43.4699C43.7461 67.09 43.9699 66.8662 43.9699 66.59V59.28C43.9699 59.0039 43.7461 58.78 43.4699 58.78Z" fill="white"/>
<path d="M43.4699 68.3401H6.06995C5.7938 68.3401 5.56995 68.5639 5.56995 68.8401V76.1501C5.56995 76.4262 5.7938 76.6501 6.06995 76.6501H43.4699C43.7461 76.6501 43.9699 76.4262 43.9699 76.1501V68.8401C43.9699 68.5639 43.7461 68.3401 43.4699 68.3401Z" fill="white"/>
<path d="M43.4699 77.8999H6.06995C5.7938 77.8999 5.56995 78.1238 5.56995 78.3999V94.1099C5.56995 94.386 5.7938 94.6099 6.06995 94.6099H43.4699C43.7461 94.6099 43.9699 94.386 43.9699 94.1099V78.3999C43.9699 78.1238 43.7461 77.8999 43.4699 77.8999Z" fill="white"/>
<path d="M29.2499 60.71H19.8099C19.2632 60.71 18.8199 61.1532 18.8199 61.7C18.8199 62.2467 19.2632 62.69 19.8099 62.69H29.2499C29.7967 62.69 30.2399 62.2467 30.2399 61.7C30.2399 61.1532 29.7967 60.71 29.2499 60.71Z" fill="#B2AEA6"/>
<path d="M29.2499 70.48H19.8099C19.2632 70.48 18.8199 70.9232 18.8199 71.47C18.8199 72.0167 19.2632 72.46 19.8099 72.46H29.2499C29.7967 72.46 30.2399 72.0167 30.2399 71.47C30.2399 70.9232 29.7967 70.48 29.2499 70.48Z" fill="#B2AEA6"/>
<path d="M29.2499 80.3701H19.8099C19.2632 80.3701 18.8199 80.8134 18.8199 81.3601C18.8199 81.9069 19.2632 82.3501 19.8099 82.3501H29.2499C29.7967 82.3501 30.2399 81.9069 30.2399 81.3601C30.2399 80.8134 29.7967 80.3701 29.2499 80.3701Z" fill="#B2AEA6"/>
<path d="M45.8601 56.4501L41.5001 52.8601H6.68005L3.68005 56.4501C3.68005 56.4501 45.9701 56.5701 45.8501 56.4501H45.8601Z" fill="#C1BFBC"/>
<path d="M56.97 19.7899C58.8754 19.7899 60.42 18.2453 60.42 16.3399C60.42 14.4345 58.8754 12.8899 56.97 12.8899C55.0646 12.8899 53.52 14.4345 53.52 16.3399C53.52 18.2453 55.0646 19.7899 56.97 19.7899Z" fill="#FFEC00"/>
<path d="M60.09 15.0899C61.9954 15.0899 63.54 13.5453 63.54 11.6399C63.54 9.73456 61.9954 8.18994 60.09 8.18994C58.1846 8.18994 56.64 9.73456 56.64 11.6399C56.64 13.5453 58.1846 15.0899 60.09 15.0899Z" fill="#FF5C00"/>
<path d="M63.17 19.92C65.0753 19.92 66.62 18.3754 66.62 16.47C66.62 14.5646 65.0753 13.02 63.17 13.02C61.2646 13.02 59.72 14.5646 59.72 16.47C59.72 18.3754 61.2646 19.92 63.17 19.92Z" fill="#FF5CF0"/>
<path d="M68.96 19.8301V20.8301H67.96" stroke="#A0EAE4" stroke-miterlimit="10"/>
<path d="M66.0399 20.8301H51.6899" stroke="#A0EAE4" stroke-miterlimit="10" stroke-dasharray="1.91 1.91"/>
<path d="M50.73 20.8301H49.73V19.8301" stroke="#A0EAE4" stroke-miterlimit="10"/>
<path d="M49.73 18.1401V8.83008" stroke="#A0EAE4" stroke-miterlimit="10" stroke-dasharray="1.69 1.69"/>
<path d="M49.73 7.98999V6.98999H50.73" stroke="#A0EAE4" stroke-miterlimit="10"/>
<path d="M52.65 6.98999H67" stroke="#A0EAE4" stroke-miterlimit="10" stroke-dasharray="1.91 1.91"/>
<path d="M67.96 6.98999H68.96V7.98999" stroke="#A0EAE4" stroke-miterlimit="10"/>
<path d="M68.96 9.67993V18.9799" stroke="#A0EAE4" stroke-miterlimit="10" stroke-dasharray="1.69 1.69"/>
<path d="M119.2 21.2H121.02V27.61C121.02 28.11 120.61 28.52 120.11 28.52C119.61 28.52 119.2 28.11 119.2 27.61V21.2Z" fill="#506575"/>
</g>
<rect x="124.615" y="4.19507" width="31" height="16" rx="4" fill="#1C1C1C"/>
<path d="M128.997 9.12476H130.218L132.054 12.3279H132.132L133.978 9.12476H135.198L132.63 13.4216V16.1951H131.556V13.4216L128.997 9.12476ZM137.376 16.3025C135.872 16.3025 134.891 15.2087 134.896 13.5681C134.891 11.9177 135.872 10.824 137.376 10.824C138.87 10.824 139.847 11.9177 139.847 13.5681C139.847 15.2087 138.87 16.3025 137.376 16.3025ZM135.94 13.5681C135.94 14.5789 136.404 15.4333 137.376 15.4333C138.333 15.4333 138.792 14.5789 138.792 13.5681C138.792 12.5525 138.333 11.6882 137.376 11.6833C136.404 11.6882 135.94 12.5525 135.94 13.5681ZM141.917 13.0505V16.1951H140.872V9.12476H141.897V11.7615H141.966C142.215 11.1853 142.713 10.824 143.538 10.824C144.627 10.824 145.354 11.4978 145.354 12.8259V16.1951H144.31V12.9529C144.31 12.1716 143.89 11.7224 143.187 11.7224C142.449 11.7224 141.917 12.2058 141.917 13.0505ZM146.37 14.7009C146.365 13.49 147.396 13.1775 148.353 13.1091C148.704 13.0896 149.5 13.0457 149.744 13.0359L149.739 12.6111C149.744 12.0105 149.373 11.6638 148.665 11.6638C148.05 11.6638 147.679 11.947 147.571 12.3376H146.536C146.629 11.4587 147.449 10.824 148.704 10.824C149.549 10.824 150.779 11.1316 150.784 12.6697V16.1951H149.769V15.4724H149.729C149.524 15.8679 149.036 16.3123 148.157 16.3123C147.151 16.3123 146.365 15.7361 146.37 14.7009ZM147.386 14.7107C147.386 15.2185 147.806 15.4773 148.392 15.4822C149.241 15.4773 149.749 14.9109 149.749 14.281L149.744 13.7976C149.505 13.8123 148.748 13.866 148.499 13.8806C147.815 13.9294 147.386 14.1882 147.386 14.7107Z" fill="white"/>
</g>
<defs>
<clipPath id="clip0_14_1613">
<rect width="160" height="100" fill="white"/>
</clipPath>
<clipPath id="clip1_14_1613">
<rect width="160" height="100" fill="white"/>
</clipPath>
</defs>
</svg>
