<svg width="160" height="100" viewBox="0 0 160 100" fill="none" xmlns="http://www.w3.org/2000/svg">
<g clip-path="url(#clip0_14_1593)">
<path d="M159.25 0.610107H0.619995V99.3801H159.25V0.610107Z" fill="#FFDB92"/>
<path d="M159.86 100H0V0H159.86V100ZM1.24 98.78H158.63V1.22H1.24V98.77V98.78Z" fill="#EFD9B4"/>
<path d="M159.39 82.55H0.76001V99.39H159.39V82.55Z" fill="white"/>
<path d="M160 99.9999H0.140015V81.9399H160V99.9999ZM1.37001 98.7799H158.76V83.1699H1.37001V98.7799Z" fill="white"/>
<path d="M72.65 43.8901C72.31 43.2901 71.82 42.8301 71.26 42.5101C69.48 40.8401 67.08 39.8201 64.44 39.8201H43.25C40.55 39.8201 38.08 40.7701 36.15 42.3401C35.45 42.6501 34.84 43.1801 34.43 43.8901C34.38 43.9801 34.23 44.2501 34 44.6801C33.35 45.6301 32.85 46.6901 32.52 47.8301C29.49 54.9301 24.66 70.5201 31.99 86.1201L39.16 83.6701C38.87 83.0801 38.6 82.4801 38.35 81.8901H68.73C68.48 82.4901 68.21 83.0801 67.92 83.6701L75.09 86.1201C84.79 65.4701 73.17 44.8001 72.65 43.9001V43.8901Z" fill="#5280DD"/>
<path d="M31.45 84.9C30.45 83.09 31.12 80.83 32.95 79.84C34.45 79.03 36.26 79.33 37.41 80.47C37.66 80.72 37.88 81 38.06 81.33C38.49 82.11 38.89 82.9 39.26 83.68L32.09 86.13C31.89 85.72 31.68 85.31 31.45 84.91V84.9Z" fill="#FADDDC"/>
<path d="M75.6401 85.0501C76.6401 83.2401 75.9701 80.9801 74.1401 79.9901C72.6401 79.1801 70.8301 79.4801 69.6801 80.6201C69.4301 80.8701 69.2101 81.1501 69.0301 81.4801C68.6001 82.2601 68.2001 83.0501 67.8301 83.8301L75.0001 86.2801C75.2001 85.8701 75.4101 85.4601 75.6401 85.0601V85.0501Z" fill="#FADDDC"/>
<path d="M49.72 35.1201H41.46V39.8901H49.72V35.1201Z" fill="#3E2967"/>
<path d="M55.6299 19.23H41.1699V32.7C41.1699 35.24 43.2299 37.29 45.7599 37.29H47.2199C47.9299 37.29 48.5099 37.87 48.5099 38.58V40.31C48.5099 42.26 50.0899 43.84 52.0399 43.84C53.9899 43.84 55.5699 42.26 55.5699 40.32L55.6199 19.23H55.6299Z" fill="#FADDDC"/>
<path d="M45.8501 33.1201H44.9801C44.2001 33.1201 43.5601 32.4901 43.5601 31.7001V27.4301C43.5601 27.1001 43.8201 26.8401 44.1501 26.8401C44.4801 26.8401 44.7401 27.1001 44.7401 27.4301V31.1301C44.7401 31.5701 45.1001 31.9301 45.5401 31.9301H45.8401C46.1701 31.9301 46.4301 32.1901 46.4301 32.5201C46.4301 32.8501 46.1701 33.1101 45.8401 33.1101L45.8501 33.1201Z" fill="#E0B1BB"/>
<path d="M47.24 27.61C47.24 28.08 47.62 28.46 48.09 28.46C48.56 28.46 48.94 28.08 48.94 27.61C48.94 27.14 48.56 26.76 48.09 26.76C47.62 26.76 47.24 27.14 47.24 27.61Z" fill="#757570"/>
<path d="M50.17 22.8901C50.96 24.0801 52.11 25.8701 52.56 28.4701C53.61 34.4401 49.81 36.1001 49.81 36.1001L54.56 36.4801L54.17 47.8101C57.14 47.8101 66.42 50.5101 60.7 30.8201L58.39 21.2601C57.48 17.4901 54.11 14.8401 50.23 14.8401H46.01C45.03 14.8401 44.18 15.5401 44 16.5001C41.85 16.5001 40.22 18.2201 39.83 20.2801C38.81 25.6101 39.52 32.9001 39.52 32.9001C39.72 36.1901 38.28 36.2201 38.28 36.2201C38.28 36.2201 40.24 36.3001 40.75 36.3001H42.73C42.73 36.3001 41.27 34.9201 41.25 32.9301C41.24 31.9301 41.24 29.4701 41.25 27.2801C41.25 24.7501 42.52 20.9201 44.62 19.5101C44.62 19.5101 47.91 19.4601 50.19 22.9001L50.17 22.8901Z" fill="#3E2967"/>
<path d="M58.1199 66.5001C57.7999 65.6401 57.0399 64.9901 56.0699 64.9901H54.9899V61.7501C54.9899 61.1001 54.5599 60.6701 53.9099 60.6701H47.4299V58.5101H49.5899C50.2399 58.5101 50.6699 58.0801 50.6699 57.4301V55.2701H52.8299C54.0199 55.2701 54.9899 54.3001 54.9899 53.1101V52.6801C58.1199 53.9801 60.3899 57.1101 60.3899 60.6801C60.3899 62.9501 59.5299 65.0001 58.1199 66.5201M50.6599 69.2201C46.4499 68.6801 43.0999 65.0101 43.0999 60.6801C43.0999 60.0301 43.2099 59.3801 43.3199 58.7301L48.5099 63.9201V65.0001C48.5099 66.1901 49.4799 67.1601 50.6699 67.1601M51.7499 49.8701C45.8099 49.8701 40.9399 54.7301 40.9399 60.6801C40.9399 66.6301 45.7999 71.4901 51.7499 71.4901C57.6999 71.4901 62.5599 66.6301 62.5599 60.6801C62.5599 54.7301 57.6999 49.8701 51.7499 49.8701Z" fill="white"/>
<path d="M39.4299 63.21H67.6699C68.9099 63.21 69.9199 64.22 69.9199 65.46V86.45H37.1699V65.46C37.1699 64.22 38.1799 63.21 39.4199 63.21H39.4299Z" fill="#F7F7F7"/>
<path d="M53.8101 78.0399C55.3123 78.0399 56.5301 76.8356 56.5301 75.3499C56.5301 73.8643 55.3123 72.6599 53.8101 72.6599C52.3079 72.6599 51.0901 73.8643 51.0901 75.3499C51.0901 76.8356 52.3079 78.0399 53.8101 78.0399Z" fill="#CED5D8"/>
<path d="M147.53 57.17L132.04 38.54C131.78 39.16 131.34 39.69 130.78 40.05L145.86 58.2C146.29 57.71 146.87 57.35 147.52 57.18L147.53 57.17Z" fill="#455767"/>
<path d="M125.69 37.3001C125.69 37.2201 125.69 37.1401 125.7 37.0601L109.85 44.1801L109.3 43.6401C109.1 43.4401 108.81 43.3601 108.54 43.4401L98.66 46.0601C98.07 46.2201 97.88 46.9401 98.31 47.3701L108.17 57.1401C108.6 57.5701 109.33 57.3701 109.49 56.7901L112.14 47.0001C112.21 46.7301 112.14 46.4401 111.94 46.2401L111.33 45.6401L126.17 38.9801C125.88 38.4901 125.71 37.9201 125.71 37.3201L125.69 37.3001Z" fill="#455767"/>
<path d="M147.29 63.4199L143.77 88.1799L145.69 88.4499L149.24 63.4699C148.96 63.5499 148.66 63.5999 148.35 63.5999C147.98 63.5999 147.62 63.5399 147.29 63.4199Z" fill="#455767"/>
<path d="M131.12 37.2999C131.12 36.1299 130.16 35.1899 128.99 35.1899C128.11 35.1899 127.36 35.7199 127.03 36.4599C126.92 36.7199 126.85 36.9999 126.85 37.2999C126.85 37.7399 126.99 38.1499 127.22 38.4799C127.6 39.0399 128.25 39.4099 128.99 39.4099C129.37 39.4099 129.73 39.3099 130.04 39.1399C130.66 38.7999 131.08 38.1599 131.12 37.4199C131.12 37.3799 131.12 37.3399 131.12 37.2999Z" fill="#455767"/>
<path d="M148.4 58.21C148.4 58.21 148.37 58.21 148.35 58.21C147.64 58.21 147.01 58.56 146.62 59.09C146.37 59.44 146.22 59.86 146.22 60.32C146.22 61.17 146.73 61.9 147.46 62.24C147.73 62.36 148.03 62.44 148.35 62.44C148.74 62.44 149.11 62.33 149.43 62.15C150.06 61.78 150.48 61.11 150.48 60.33C150.48 59.18 149.55 58.25 148.4 58.22V58.21Z" fill="#455767"/>
<path style="mix-blend-mode:darken" d="M97.4499 91.7001L108.16 57.1301L98.2999 47.3601L27.8199 93.0301L97.4499 91.7001Z" fill="url(#paint0_linear_14_1593)"/>
<path d="M145.09 92.36C149.453 92.36 152.99 90.7796 152.99 88.83C152.99 86.8805 149.453 85.3 145.09 85.3C140.727 85.3 137.19 86.8805 137.19 88.83C137.19 90.7796 140.727 92.36 145.09 92.36Z" fill="#455767"/>
<rect x="124.615" y="4.19507" width="31" height="16" rx="4" fill="#1C1C1C"/>
<path d="M128.997 9.12476H130.218L132.054 12.3279H132.132L133.978 9.12476H135.198L132.63 13.4216V16.1951H131.556V13.4216L128.997 9.12476ZM137.376 16.3025C135.872 16.3025 134.891 15.2087 134.896 13.5681C134.891 11.9177 135.872 10.824 137.376 10.824C138.87 10.824 139.847 11.9177 139.847 13.5681C139.847 15.2087 138.87 16.3025 137.376 16.3025ZM135.94 13.5681C135.94 14.5789 136.404 15.4333 137.376 15.4333C138.333 15.4333 138.792 14.5789 138.792 13.5681C138.792 12.5525 138.333 11.6882 137.376 11.6833C136.404 11.6882 135.94 12.5525 135.94 13.5681ZM141.917 13.0505V16.1951H140.872V9.12476H141.897V11.7615H141.966C142.215 11.1853 142.713 10.824 143.538 10.824C144.627 10.824 145.354 11.4978 145.354 12.8259V16.1951H144.31V12.9529C144.31 12.1716 143.89 11.7224 143.187 11.7224C142.449 11.7224 141.917 12.2058 141.917 13.0505ZM146.37 14.7009C146.365 13.49 147.396 13.1775 148.353 13.1091C148.704 13.0896 149.5 13.0457 149.744 13.0359L149.739 12.6111C149.744 12.0105 149.373 11.6638 148.665 11.6638C148.05 11.6638 147.679 11.947 147.571 12.3376H146.536C146.629 11.4587 147.449 10.824 148.704 10.824C149.549 10.824 150.779 11.1316 150.784 12.6697V16.1951H149.769V15.4724H149.729C149.524 15.8679 149.036 16.3123 148.157 16.3123C147.151 16.3123 146.365 15.7361 146.37 14.7009ZM147.386 14.7107C147.386 15.2185 147.806 15.4773 148.392 15.4822C149.241 15.4773 149.749 14.9109 149.749 14.281L149.744 13.7976C149.505 13.8123 148.748 13.866 148.499 13.8806C147.815 13.9294 147.386 14.1882 147.386 14.7107Z" fill="white"/>
</g>
<defs>
<linearGradient id="paint0_linear_14_1593" x1="71.9899" y1="76.1901" x2="89.4999" y2="45.9301" gradientUnits="userSpaceOnUse">
<stop stop-color="white"/>
<stop offset="1" stop-color="#FFC552"/>
</linearGradient>
<clipPath id="clip0_14_1593">
<rect width="160" height="100" fill="white"/>
</clipPath>
</defs>
</svg>
