<svg width="382" height="488" viewBox="0 0 382 488" fill="none" xmlns="http://www.w3.org/2000/svg">
<rect width="382" height="488" rx="24" fill="white"/>
<path d="M179.809 69.9609V71.7422H160.66V69.9609H179.809ZM162.723 63.8906C162.711 61.2539 165.652 59.6836 170.223 59.6953C174.77 59.6836 177.711 61.2539 177.723 63.8906C177.711 66.5391 174.77 68.1445 170.223 68.1562C165.652 68.1445 162.711 66.5391 162.723 63.8906ZM163.074 79.5469V73.4531H165.324V77.7422H177.652V79.5469H163.074ZM165.02 63.8906C165.008 65.4492 167 66.3281 170.223 66.3281C173.434 66.3281 175.438 65.4492 175.426 63.8906C175.438 62.3906 173.434 61.4766 170.223 61.4766C167 61.4766 165.008 62.3906 165.02 63.8906ZM198.418 65.7656V67.5469H183.793V60H198.207V61.8047H186.02V65.7656H198.418ZM181.402 71.4141V69.6094H200.574V71.4141H192.348V75.375H190.121V71.4141H181.402ZM183.793 79.5469V73.5469H186.02V77.7422H198.559V79.5469H183.793ZM209.457 65.1797C209.445 68.4961 211.637 72.1992 214.824 73.7109L213.559 75.4453C211.203 74.3203 209.328 71.9531 208.379 69.2109C207.418 72.1992 205.449 74.7891 203.059 75.9844L201.746 74.2266C204.934 72.6914 207.242 68.7305 207.254 65.1797V62.9531H202.52V61.1016H214.027V62.9531H209.457V65.1797ZM216.277 79.9922V58.9922H218.504V67.3125H221.879V69.1875H218.504V79.9922H216.277Z" fill="black"/>
<g clip-path="url(#clip0_1237_5920)">
<rect x="141" y="111" width="100" height="100" rx="50" fill="#37404F"/>
<g clip-path="url(#clip1_1237_5920)">
<path d="M240.845 168.609L220.755 144.436C220.418 145.245 219.845 145.918 219.118 146.391L238.691 169.936C239.255 169.3 240 168.827 240.845 168.609Z" fill="#5D63D2"/>
<path d="M212.509 142.836C212.509 142.727 212.509 142.627 212.527 142.518L191.964 151.754L191.255 151.054C190.991 150.8 190.618 150.7 190.264 150.791L177.436 154.191C176.673 154.391 176.418 155.336 176.973 155.891L189.764 168.564C190.318 169.118 191.273 168.864 191.482 168.109L194.918 155.409C195.009 155.054 194.918 154.682 194.655 154.427L193.864 153.645L213.109 145C212.727 144.364 212.509 143.627 212.509 142.845V142.836Z" fill="#5D63D2"/>
<path d="M219.555 142.836C219.555 141.327 218.309 140.091 216.791 140.091C215.655 140.091 214.682 140.773 214.255 141.745C214.109 142.082 214.027 142.445 214.027 142.836C214.027 143.409 214.2 143.936 214.5 144.373C215 145.1 215.836 145.582 216.791 145.582C217.282 145.582 217.746 145.455 218.146 145.227C218.946 144.782 219.491 143.955 219.546 142.991C219.546 142.936 219.546 142.891 219.546 142.836H219.555Z" fill="#5D63D2"/>
<path d="M175.882 213.409L189.773 168.555L176.982 155.891L85.5454 215.127L175.882 213.409Z" fill="url(#paint0_linear_1237_5920)"/>
</g>
</g>
<path d="M82.4199 275.602V276.727H68.1816V275.602H74.6152V273.703H69.9922V268.43H80.6621V269.572H71.3633V272.561H80.8027V273.703H75.9863V275.602H82.4199ZM69.7637 279.381V278.256H80.6797V283.547H79.3086V279.381H69.7637ZM96.6406 267.814V276.393H95.2695V267.814H96.6406ZM84.5293 269.713V268.57H91.666V272.789H85.9004V274.916C88.6953 274.898 90.7783 274.837 93.3184 274.424L93.4766 275.566C90.8486 275.979 88.7129 276.059 85.8301 276.076H84.5645V271.699H90.2949V269.713H84.5293ZM86.4805 283.213V277.184H87.8691V279.047H95.2695V277.184H96.6406V283.213H86.4805ZM87.8691 282.088H95.2695V280.154H87.8691V282.088ZM104.727 270.68C104.727 272.71 106.291 274.652 108.576 275.443L107.855 276.533C106.098 275.9 104.735 274.591 104.067 272.982C103.391 274.775 101.94 276.217 100.086 276.902L99.3652 275.812C101.668 274.986 103.338 272.903 103.338 270.697V270.012H99.8047V268.887H108.225V270.012H104.727V270.68ZM101.738 279.135V277.992H112.25V283.424H110.861V279.135H101.738ZM107.732 273.053V271.893H110.861V267.797H112.25V277.166H110.861V273.053H107.732ZM127.736 267.797V283.459H126.348V267.797H127.736ZM115.432 274.459C115.44 271.137 117.093 269.019 119.422 269.01C121.742 269.019 123.421 271.137 123.412 274.459C123.421 277.79 121.742 279.899 119.422 279.891C117.093 279.899 115.44 277.79 115.432 274.459ZM116.768 274.459C116.768 276.999 117.857 278.669 119.422 278.66C120.995 278.669 122.076 276.999 122.076 274.459C122.076 271.919 120.995 270.249 119.422 270.24C117.857 270.249 116.768 271.919 116.768 274.459ZM142.941 269.379V270.943C142.924 272.859 142.924 275.004 142.361 278.15L140.955 277.992C141.544 275.004 141.544 272.815 141.553 270.943V270.521H131.92V269.379H142.941ZM130.408 281.209V280.066H135.998V274.477H137.352V280.066H144.646V281.209H130.408ZM157.689 277.623C160.897 277.623 162.84 278.678 162.84 280.506C162.84 282.352 160.897 283.406 157.689 283.424C154.473 283.406 152.513 282.352 152.504 280.506C152.513 278.678 154.473 277.623 157.689 277.623ZM151.15 275.988V268.781H152.504V271.172H157.057V268.781H158.428V275.988H151.15ZM152.504 274.863H157.057V272.262H152.504V274.863ZM153.893 280.506C153.875 281.631 155.334 282.299 157.689 282.299C160.054 282.299 161.495 281.631 161.504 280.506C161.495 279.39 160.054 278.73 157.689 278.713C155.334 278.73 153.875 279.39 153.893 280.506ZM161.328 277.201V267.797H162.699V271.734H165.055V272.912H162.699V277.201H161.328ZM173.844 270.504V271.629H166.004V270.504H169.256V268.271H170.627V270.504H173.844ZM166.566 276.234C166.566 274.16 167.981 272.692 169.924 272.684C171.893 272.692 173.299 274.16 173.316 276.234C173.299 278.335 171.893 279.812 169.924 279.82C167.981 279.812 166.566 278.335 166.566 276.234ZM167.797 276.234C167.797 277.623 168.685 278.616 169.924 278.607C171.172 278.616 172.086 277.623 172.086 276.234C172.086 274.863 171.172 273.861 169.924 273.844C168.685 273.861 167.797 274.863 167.797 276.234ZM174.652 282.65V268.184H175.953V274.389H178.027V267.797H179.346V283.424H178.027V275.531H175.953V282.65H174.652ZM193.812 267.797V271.576H196.168V272.736H193.812V276.938H192.441V267.797H193.812ZM182.264 275.953V268.693H183.617V271.084H188.17V268.693H189.541V275.953H182.264ZM183.617 274.846H188.17V272.191H183.617V274.846ZM184.004 283.213V277.816H193.936V278.924H185.375V282.088H194.234V283.213H184.004ZM202.742 272.596C202.751 275.25 204.676 277.948 206.979 278.941L206.205 280.031C204.377 279.205 202.804 277.403 202.074 275.241C201.345 277.535 199.763 279.521 197.979 280.418L197.152 279.328C199.394 278.256 201.345 275.303 201.354 272.596V270.557H197.662V269.414H206.469V270.557H202.742V272.596ZM208.648 283.424V267.797H210.037V283.424H208.648ZM221.586 268.693C223.924 268.702 225.646 270.188 225.646 272.297C225.646 274.433 223.924 275.909 221.586 275.918C219.257 275.909 217.517 274.433 217.525 272.297C217.517 270.188 219.257 268.702 221.586 268.693ZM218.879 272.297C218.87 273.729 220.048 274.775 221.586 274.775C223.133 274.775 224.302 273.729 224.293 272.297C224.302 270.891 223.133 269.854 221.586 269.854C220.048 269.854 218.87 270.891 218.879 272.297ZM218.896 283.002V277.307H220.232V281.868C221.138 281.833 222.342 281.701 223.449 281.332L223.66 282.439C222.14 282.94 220.654 283.011 219.635 283.002H218.896ZM223.115 278.449V277.377H226.402V275.988H227.756V277.377H231.008V278.449H223.115ZM224.152 281.191C224.144 279.838 225.33 278.977 227.053 278.977C228.767 278.977 229.971 279.838 229.988 281.191C229.971 282.545 228.767 283.389 227.053 283.389C225.33 283.389 224.144 282.545 224.152 281.191ZM225.383 281.191C225.383 281.93 226.077 282.396 227.053 282.404C228.028 282.396 228.723 281.93 228.723 281.191C228.723 280.471 228.028 279.987 227.053 279.979C226.077 279.987 225.383 280.471 225.383 281.191ZM228.072 275.619V267.797H229.443V271.33H231.799V272.473H229.443V275.619H228.072ZM245.422 272.543V273.65H234.717V268.377H236.088V272.543H245.422ZM232.766 276.902V275.777H247.074V276.902H232.766ZM234.629 283.037V278.502H236V281.895H245.51V283.037H234.629ZM267.096 277.025V278.15H252.857V277.025H259.291V275.769C256.487 275.672 254.896 274.837 254.896 273.404C254.896 271.857 256.751 271.04 259.977 271.031C263.176 271.04 265.039 271.857 265.039 273.404C265.039 274.837 263.439 275.663 260.662 275.769V277.025H267.096ZM253.596 270.346V269.256H259.291V267.621H260.662V269.256H266.27V270.346H253.596ZM254.703 283.09V279.152H256.092V281.947H265.514V283.09H254.703ZM256.303 273.404C256.285 274.283 257.604 274.767 259.977 274.758C262.314 274.767 263.65 274.283 263.65 273.404C263.65 272.525 262.314 272.042 259.977 272.051C257.604 272.042 256.285 272.525 256.303 273.404ZM273.705 272.596C273.688 275.101 275.498 277.86 277.766 278.941L276.975 280.031C275.217 279.17 273.731 277.324 273.028 275.206C272.308 277.5 270.743 279.521 268.994 280.418L268.15 279.328C270.4 278.229 272.334 275.259 272.352 272.596V270.557H268.713V269.414H277.221V270.557H273.705V272.596ZM279.137 283.424V267.797H280.508V274.125H283.127V275.303H280.508V283.424H279.137ZM291.863 269.221V276.41H284.639V269.221H291.863ZM285.992 275.303H290.527V270.346H285.992V275.303ZM286.414 283.09V278.168H287.768V281.93H296.908V283.09H286.414ZM294.816 279.258V267.797H296.188V272.561H298.543V273.721H296.188V279.258H294.816ZM304.643 268.939C307.095 268.948 308.835 270.442 308.844 272.613C308.835 274.793 307.095 276.278 304.643 276.287C302.173 276.278 300.415 274.793 300.424 272.613C300.415 270.442 302.173 268.948 304.643 268.939ZM299.615 278.836C302.498 278.845 306.479 278.818 309.934 278.309L310.039 279.328C306.462 279.996 302.621 280.014 299.809 280.014L299.615 278.836ZM301.777 272.613C301.769 274.072 302.973 275.074 304.643 275.074C306.295 275.074 307.499 274.072 307.49 272.613C307.499 271.163 306.295 270.152 304.643 270.152C302.973 270.152 301.769 271.163 301.777 272.613ZM310.971 283.459V267.797H312.342V283.459H310.971ZM72.9805 303.676C76.3291 303.676 78.4561 304.73 78.4648 306.541C78.4561 308.334 76.3291 309.389 72.9805 309.389C69.6318 309.389 67.5049 308.334 67.5137 306.541C67.5049 304.73 69.6318 303.676 72.9805 303.676ZM65.9316 302.217V301.092H71.8203V298.068H73.1738V301.092H80.1523V302.217H65.9316ZM67.6191 295.73V294.605H78.3418V295.924C78.333 297.189 78.333 298.455 77.9023 300.072L76.5488 299.914C76.9707 298.306 76.9707 297.146 76.9707 295.924V295.73H67.6191ZM68.8848 306.541C68.876 307.631 70.4932 308.299 72.9805 308.299C75.4766 308.299 77.0762 307.631 77.0938 306.541C77.0762 305.425 75.4766 304.739 72.9805 304.73C70.4932 304.739 68.876 305.425 68.8848 306.541ZM93.6875 293.797V298.561H96.043V299.721H93.6875V305.24H92.2988V293.797H93.6875ZM81.4883 302.322C85.2412 301.153 87.6758 298.93 87.9658 296.17H82.1387V295.01H89.4688C89.4688 299.035 86.5947 302.023 82.0859 303.43L81.4883 302.322ZM83.8965 309.09V304.08H85.2676V307.93H94.4082V309.09H83.8965ZM110.422 293.797V309.424H109.086V293.797H110.422ZM97.2207 300.547C97.2295 297.225 98.5479 295.124 100.578 295.115C102.477 295.124 103.76 296.952 103.936 299.896H105.957V294.131H107.275V308.633H105.957V301.039H103.944C103.812 304.08 102.503 305.987 100.578 305.979C98.5479 305.987 97.2295 303.869 97.2207 300.547ZM98.5215 300.547C98.5039 303.078 99.3125 304.678 100.578 304.66C101.853 304.678 102.661 303.078 102.652 300.547C102.661 298.007 101.853 296.416 100.578 296.416C99.3125 296.416 98.5039 298.007 98.5215 300.547ZM121.461 294.693C123.799 294.702 125.521 296.188 125.521 298.314C125.521 300.45 123.799 301.918 121.461 301.936C119.132 301.918 117.392 300.45 117.4 298.314C117.392 296.188 119.132 294.702 121.461 294.693ZM118.754 298.314C118.745 299.747 119.923 300.793 121.461 300.793C123.008 300.793 124.177 299.747 124.168 298.314C124.177 296.891 123.008 295.854 121.461 295.854C119.923 295.854 118.745 296.891 118.754 298.314ZM118.771 308.879V303.377H120.107V307.71C121.083 307.666 122.322 307.499 123.148 307.033L123.553 308.123L123.395 308.202C125.152 307.49 126.128 305.987 126.119 304.52V304.186H123.553V303.061H130.004V304.186H127.438V304.52C127.429 306.102 128.492 307.666 130.461 308.299L129.775 309.354C128.299 308.844 127.297 307.833 126.778 306.611C126.26 307.824 125.258 308.826 123.799 309.354L123.14 308.316C121.953 308.791 120.573 308.87 119.51 308.879H118.771ZM127.947 302.252V293.797H129.318V297.541H131.674V298.684H129.318V302.252H127.947ZM146.035 293.797V309.424H144.717V293.797H146.035ZM132.676 305.047C136.068 303.034 137.773 300.213 138.037 296.943H133.344V295.801H139.408C139.408 297.339 139.162 298.824 138.626 300.213H141.43V294.219H142.748V308.633H141.43V301.338H138.116C137.176 303.157 135.664 304.766 133.484 306.049L132.676 305.047ZM162.049 300.547V301.689H158.621V304.766C160.15 304.704 161.688 304.599 163.139 304.432L163.244 305.469C159.781 305.97 156.002 306.04 153.014 306.031L152.82 304.871C154.183 304.871 155.694 304.862 157.25 304.818V301.689H154.016V295.291H161.979V296.416H155.369V300.547H162.049ZM164.176 309.459V293.797H165.547V309.459H164.176ZM173.668 304.273C173.659 305.68 174.406 307.147 175.892 308.009C177.395 307.068 178.159 305.478 178.168 304.273V303.324H179.521V304.273C179.513 305.891 180.682 307.517 182.721 308.193L182 309.23C180.444 308.659 179.354 307.569 178.827 306.251C178.335 307.525 177.377 308.738 175.918 309.354C174.424 308.773 173.457 307.622 172.982 306.304C172.42 307.561 171.348 308.659 169.854 309.23L169.168 308.193C171.146 307.481 172.332 305.785 172.35 304.273V303.324H173.668V304.273ZM168.553 298.35C168.553 296.205 170.258 294.685 172.596 294.693C174.652 294.685 176.261 295.924 176.568 297.734H179.855V293.797H181.244V302.727H179.855V298.877H176.577C176.313 300.74 174.688 302.006 172.596 302.006C170.258 302.006 168.553 300.503 168.553 298.35ZM169.889 298.35C169.871 299.8 171.022 300.854 172.596 300.863C174.134 300.854 175.285 299.8 175.285 298.35C175.285 296.899 174.134 295.854 172.596 295.871C171.022 295.854 169.871 296.899 169.889 298.35ZM187.027 303.184V305.012H194.832V303.184H196.221V309.213H185.656V303.184H187.027ZM183.846 302.076V300.934H198.084V302.076H183.846ZM184.654 298.719C187.44 298.341 190.262 296.697 190.262 294.711V293.973H191.686V294.711C191.677 296.636 194.524 298.367 197.275 298.719L196.766 299.826C194.349 299.466 191.967 298.235 190.974 296.486C189.98 298.244 187.59 299.466 185.182 299.826L184.654 298.719ZM187.027 308.105H194.832V306.102H187.027V308.105ZM212.287 293.797V309.424H210.916V293.797H212.287ZM200.422 305.398V295.344H201.775V304.203C204.166 304.186 206.627 304.001 209.246 303.447L209.439 304.625C206.662 305.205 204.192 305.398 201.688 305.398H200.422ZM227.053 293.797V299.984H229.672V301.145H227.053V309.459H225.682V293.797H227.053ZM215.645 305.539V295.326H222.939V296.469H217.016V304.379C219.846 304.37 221.841 304.247 224.17 303.816L224.346 305.012C221.894 305.451 219.846 305.539 216.875 305.539H215.645ZM232.168 308.105C231.553 308.097 231.025 307.587 231.043 306.963C231.025 306.348 231.553 305.838 232.168 305.838C232.792 305.838 233.302 306.348 233.293 306.963C233.302 307.587 232.792 308.097 232.168 308.105ZM252.453 293.797V309.459H251.064V293.797H252.453ZM240.148 300.459C240.157 297.137 241.81 295.019 244.139 295.01C246.459 295.019 248.138 297.137 248.129 300.459C248.138 303.79 246.459 305.899 244.139 305.891C241.81 305.899 240.157 303.79 240.148 300.459ZM241.484 300.459C241.484 302.999 242.574 304.669 244.139 304.66C245.712 304.669 246.793 302.999 246.793 300.459C246.793 297.919 245.712 296.249 244.139 296.24C242.574 296.249 241.484 297.919 241.484 300.459ZM267.553 294.57V295.66C267.544 296.847 267.544 298.218 267.131 300.072L265.777 299.914C266.182 298.104 266.182 296.82 266.182 295.678H256.83V294.57H267.553ZM255.143 302.252V301.145H261.031V297.98H262.385V301.145H269.363V302.252H255.143ZM256.162 308.281C258.992 307.859 261.479 306.295 261.488 304.221V303.5H262.877V304.221C262.886 306.295 265.373 307.859 268.221 308.281L267.693 309.354C265.312 308.967 263.132 307.842 262.183 306.137C261.233 307.842 259.054 308.967 256.672 309.354L256.162 308.281ZM284.076 293.797V309.424H282.74V293.797H284.076ZM270.875 300.547C270.884 297.225 272.202 295.124 274.232 295.115C276.131 295.124 277.414 296.952 277.59 299.896H279.611V294.131H280.93V308.633H279.611V301.039H277.599C277.467 304.08 276.157 305.987 274.232 305.979C272.202 305.987 270.884 303.869 270.875 300.547ZM272.176 300.547C272.158 303.078 272.967 304.678 274.232 304.66C275.507 304.678 276.315 303.078 276.307 300.547C276.315 298.007 275.507 296.416 274.232 296.416C272.967 296.416 272.158 298.007 272.176 300.547ZM291.74 297.998C291.731 300.828 293.551 303.676 295.818 304.713L294.992 305.838C293.217 304.924 291.749 303.061 291.055 300.837C290.36 303.175 288.893 305.179 287.117 306.119L286.221 305.012C288.515 303.887 290.325 300.881 290.334 297.998V295.15H291.74V297.998ZM294.113 300.266V299.141H297.822V293.797H299.193V309.459H297.822V300.266H294.113ZM314.434 298.543V299.65H303.729V294.377H305.1V298.543H314.434ZM301.777 302.902V301.777H316.086V302.902H301.777ZM303.641 309.037V304.502H305.012V307.895H314.521V309.037H303.641ZM84.0371 325.07V326.213H73.2617V320.605H74.6328V325.07H84.0371ZM71.416 329.729V328.568H85.7246V329.729H79.1855V335.424H77.8145V329.729H71.416ZM99.3301 320.816V322.188C99.3301 323.664 99.3301 325.29 98.8818 327.531H101.211V328.674H94.7598V335.459H93.3711V328.674H86.9727V327.531H97.4844C97.959 325.281 97.959 323.646 97.959 322.188V321.959H88.7656V320.816H99.3301ZM115.15 327.127V328.252H110.316V332.295H116.838V333.455H102.529V332.295H108.963V328.252H104.357V321.08H114.992V322.205H105.746V327.127H115.15ZM134.838 319.797V323.875H137.176V325.035H134.838V329.131H133.449V319.797H134.838ZM123.324 327.848V320.992H130.268V322.135H124.678V326.723C127.842 326.705 129.661 326.608 131.762 326.178L131.902 327.32C129.714 327.76 127.842 327.848 124.537 327.848H123.324ZM124.625 332.4C124.634 330.528 126.62 329.438 129.811 329.43C133.001 329.438 134.961 330.528 134.961 332.4C134.961 334.299 133.001 335.389 129.811 335.389C126.62 335.389 124.634 334.299 124.625 332.4ZM125.979 332.4C125.987 333.561 127.455 334.272 129.811 334.281C132.148 334.272 133.634 333.561 133.625 332.4C133.634 331.249 132.148 330.555 129.811 330.572C127.455 330.555 125.987 331.249 125.979 332.4ZM151.062 319.814V331.275H149.691V319.814H151.062ZM138.318 327.936C140.683 327.013 142.291 324.728 142.291 322.258V320.693H143.697V322.258C143.68 324.64 145.306 326.775 147.635 327.619L146.914 328.727C145.104 328.032 143.697 326.626 143.003 324.824C142.326 326.74 140.902 328.278 139.074 329.008L138.318 327.936ZM140.973 335.09V330.221H142.344V333.93H151.555V335.09H140.973ZM160.836 320.078C164.308 320.078 166.347 321.036 166.355 322.768C166.347 324.543 164.308 325.501 160.836 325.51C157.347 325.501 155.299 324.543 155.299 322.768C155.299 321.036 157.347 320.078 160.836 320.078ZM153.717 327.689V326.564H167.955V327.689H153.717ZM155.439 330.098V329.043H166.127V332.541H156.846V334.158H166.602V335.248H155.475V331.521H164.773V330.098H155.439ZM156.74 322.768C156.723 323.857 158.243 324.455 160.836 324.455C163.429 324.455 164.94 323.857 164.949 322.768C164.94 321.739 163.429 321.124 160.836 321.115C158.243 321.124 156.723 321.739 156.74 322.768ZM180.998 329.623C184.206 329.623 186.148 330.678 186.148 332.506C186.148 334.352 184.206 335.406 180.998 335.424C177.781 335.406 175.821 334.352 175.812 332.506C175.821 330.678 177.781 329.623 180.998 329.623ZM174.459 327.988V320.781H175.812V323.172H180.365V320.781H181.736V327.988H174.459ZM175.812 326.863H180.365V324.262H175.812V326.863ZM177.201 332.506C177.184 333.631 178.643 334.299 180.998 334.299C183.362 334.299 184.804 333.631 184.812 332.506C184.804 331.39 183.362 330.73 180.998 330.713C178.643 330.73 177.184 331.39 177.201 332.506ZM184.637 329.201V319.797H186.008V323.734H188.363V324.912H186.008V329.201H184.637ZM197.152 322.504V323.629H189.312V322.504H192.564V320.271H193.936V322.504H197.152ZM189.875 328.234C189.875 326.16 191.29 324.692 193.232 324.684C195.201 324.692 196.607 326.16 196.625 328.234C196.607 330.335 195.201 331.812 193.232 331.82C191.29 331.812 189.875 330.335 189.875 328.234ZM191.105 328.234C191.105 329.623 191.993 330.616 193.232 330.607C194.48 330.616 195.395 329.623 195.395 328.234C195.395 326.863 194.48 325.861 193.232 325.844C191.993 325.861 191.105 326.863 191.105 328.234ZM197.961 334.65V320.184H199.262V326.389H201.336V319.797H202.654V335.424H201.336V327.531H199.262V334.65H197.961ZM217.121 319.744V323.541H219.494V324.684H217.121V328.393H215.75V319.744H217.121ZM204.939 322.328V321.221H208.912V319.639H210.283V321.221H214.256V322.328H204.939ZM205.836 325.598C205.827 324.016 207.321 323.04 209.598 323.031C211.865 323.04 213.342 324.016 213.359 325.598C213.342 327.188 211.865 328.155 209.598 328.164C207.321 328.155 205.827 327.188 205.836 325.598ZM207.154 330.238V329.201H217.121V332.664H208.543V334.193H217.701V335.248H207.189V331.645H215.75V330.238H207.154ZM207.154 325.598C207.146 326.538 208.112 327.127 209.598 327.127C211.074 327.127 212.041 326.538 212.059 325.598C212.041 324.666 211.074 324.06 209.598 324.051C208.112 324.06 207.146 324.666 207.154 325.598ZM232.818 321.256C232.827 323.462 235.692 325.36 238.514 325.756L237.951 326.881C235.525 326.477 233.117 325.132 232.115 323.216C231.113 325.149 228.714 326.477 226.279 326.881L225.717 325.756C228.538 325.36 231.395 323.497 231.395 321.256V320.359H232.818V321.256ZM224.979 329.764V328.604H239.217V329.764H232.748V335.424H231.395V329.764H224.979ZM248.164 328.973V330.924H251.012V328.973H252.295V335.213H246.863V328.973H248.164ZM245.299 324.086C245.29 321.95 246.978 320.5 249.359 320.5C251.46 320.5 253.051 321.687 253.35 323.488H256.619V319.797H258.008V328.076H256.619V324.631H253.358C253.086 326.477 251.478 327.689 249.359 327.689C246.978 327.689 245.29 326.23 245.299 324.086ZM246.617 324.086C246.617 325.519 247.751 326.538 249.359 326.547C250.933 326.538 252.066 325.519 252.066 324.086C252.066 322.662 250.933 321.66 249.359 321.66C247.751 321.66 246.617 322.662 246.617 324.086ZM248.164 334.123H251.012V331.979H248.164V334.123ZM252.506 334.281C254.387 333.499 255.38 331.785 255.389 330.203V328.867H256.76V330.203C256.742 331.847 257.735 333.578 259.643 334.281L258.922 335.336C257.48 334.765 256.54 333.657 256.057 332.365C255.564 333.64 254.606 334.747 253.227 335.336L252.506 334.281ZM263.791 329.184V331.012H271.596V329.184H272.984V335.213H262.42V329.184H263.791ZM260.609 328.076V326.934H274.848V328.076H260.609ZM261.418 324.719C264.204 324.341 267.025 322.697 267.025 320.711V319.973H268.449V320.711C268.44 322.636 271.288 324.367 274.039 324.719L273.529 325.826C271.112 325.466 268.73 324.235 267.737 322.486C266.744 324.244 264.354 325.466 261.945 325.826L261.418 324.719ZM263.791 334.105H271.596V332.102H263.791V334.105ZM289.051 319.797V335.424H287.68V319.797H289.051ZM277.186 331.398V321.344H278.539V330.203C280.93 330.186 283.391 330.001 286.01 329.447L286.203 330.625C283.426 331.205 280.956 331.398 278.451 331.398H277.186ZM303.816 319.797V325.984H306.436V327.145H303.816V335.459H302.445V319.797H303.816ZM292.408 331.539V321.326H299.703V322.469H293.779V330.379C296.609 330.37 298.604 330.247 300.934 329.816L301.109 331.012C298.657 331.451 296.609 331.539 293.639 331.539H292.408ZM308.932 334.105C308.316 334.097 307.789 333.587 307.807 332.963C307.789 332.348 308.316 331.838 308.932 331.838C309.556 331.838 310.065 332.348 310.057 332.963C310.065 333.587 309.556 334.097 308.932 334.105Z" fill="black"/>
<rect x="49" y="393" width="284" height="54" rx="27" stroke="black" stroke-width="2"/>
<path d="M187.914 411.18V416.375H190.414V417.898H187.914V422.957H186.059V411.18H187.914ZM174.027 421.004C175.385 421.004 176.957 421.004 178.598 420.965V419.783C176.605 419.559 175.336 418.621 175.355 417.215C175.336 415.613 177.006 414.617 179.516 414.637C182.025 414.617 183.666 415.613 183.676 417.215C183.666 418.611 182.426 419.549 180.453 419.783V420.896C182.016 420.818 183.598 420.691 185.062 420.477L185.219 421.805C181.459 422.459 177.309 422.488 174.223 422.488L174.027 421.004ZM174.477 414.051V412.664H178.598V411.023H180.453V412.664H184.574V414.051H174.477ZM176.215 425.223V423.777H187.914V428.66H186.059V425.223H176.215ZM177.113 417.215C177.113 418.035 178.021 418.572 179.516 418.562C180.99 418.572 181.908 418.035 181.898 417.215C181.908 416.375 180.99 415.887 179.516 415.906C178.021 415.887 177.113 416.375 177.113 417.215ZM205.941 411.18V423.895H204.086V411.18H205.941ZM191.781 416.688C191.791 414.158 193.803 412.361 196.449 412.352C199.086 412.361 201.098 414.158 201.098 416.688C201.098 419.256 199.086 421.043 196.449 421.043C193.803 421.043 191.791 419.256 191.781 416.688ZM193.598 416.688C193.588 418.338 194.818 419.422 196.449 419.422C198.051 419.422 199.281 418.338 199.281 416.688C199.281 415.076 198.051 413.973 196.449 413.973C194.818 413.973 193.588 415.076 193.598 416.688ZM194.496 428.289V422.605H196.371V426.785H206.469V428.289H194.496Z" fill="black"/>
<defs>
<linearGradient id="paint0_linear_1237_5920" x1="142.854" y1="193.282" x2="165.564" y2="154.018" gradientUnits="userSpaceOnUse">
<stop stop-color="white"/>
<stop offset="1" stop-color="#FFC552"/>
</linearGradient>
<clipPath id="clip0_1237_5920">
<rect x="141" y="111" width="100" height="100" rx="50" fill="white"/>
</clipPath>
<clipPath id="clip1_1237_5920">
<rect width="155.3" height="75.0364" fill="white" transform="translate(85.5454 140.091)"/>
</clipPath>
</defs>
</svg>
