<svg width="382" height="436" viewBox="0 0 382 436" fill="none" xmlns="http://www.w3.org/2000/svg">
<g clip-path="url(#clip0_14_155)">
<rect width="382" height="436" rx="20" fill="#EEEEEE"/>
<rect width="382" height="64" fill="#455767"/>
<path d="M179.422 32.9609V34.7422H160.273V32.9609H179.422ZM162.336 26.8906C162.324 24.2539 165.266 22.6836 169.836 22.6953C174.383 22.6836 177.324 24.2539 177.336 26.8906C177.324 29.5391 174.383 31.1445 169.836 31.1562C165.266 31.1445 162.324 29.5391 162.336 26.8906ZM162.688 42.5469V36.4531H164.938V40.7422H177.266V42.5469H162.688ZM164.633 26.8906C164.621 28.4492 166.613 29.3281 169.836 29.3281C173.047 29.3281 175.051 28.4492 175.039 26.8906C175.051 25.3906 173.047 24.4766 169.836 24.4766C166.613 24.4766 164.621 25.3906 164.633 26.8906ZM198.031 28.7656V30.5469H183.406V23H197.82V24.8047H185.633V28.7656H198.031ZM181.016 34.4141V32.6094H200.188V34.4141H191.961V38.375H189.734V34.4141H181.016ZM183.406 42.5469V36.5469H185.633V40.7422H198.172V42.5469H183.406ZM209.07 28.1797C209.059 31.4961 211.25 35.1992 214.438 36.7109L213.172 38.4453C210.816 37.3203 208.941 34.9531 207.992 32.2109C207.031 35.1992 205.062 37.7891 202.672 38.9844L201.359 37.2266C204.547 35.6914 206.855 31.7305 206.867 28.1797V25.9531H202.133V24.1016H213.641V25.9531H209.07V28.1797ZM215.891 42.9922V21.9922H218.117V30.3125H221.492V32.1875H218.117V42.9922H215.891Z" fill="white"/>
<g clip-path="url(#clip1_14_155)">
<rect x="136" y="104" width="110" height="110" rx="55" fill="#37404F"/>
<g clip-path="url(#clip2_14_155)">
<path d="M245.83 167.37L223.73 140.78C223.36 141.67 222.73 142.41 221.93 142.93L243.46 168.83C244.08 168.13 244.9 167.61 245.83 167.37Z" fill="#5D63D2"/>
<path d="M214.66 139.02C214.66 138.9 214.66 138.79 214.68 138.67L192.06 148.83L191.28 148.06C190.99 147.78 190.58 147.67 190.19 147.77L176.08 151.51C175.24 151.73 174.96 152.77 175.57 153.38L189.64 167.32C190.25 167.93 191.3 167.65 191.53 166.82L195.31 152.85C195.41 152.46 195.31 152.05 195.02 151.77L194.15 150.91L215.32 141.4C214.9 140.7 214.66 139.89 214.66 139.03V139.02Z" fill="#5D63D2"/>
<path d="M222.41 139.02C222.41 137.36 221.04 136 219.37 136C218.12 136 217.05 136.75 216.58 137.82C216.42 138.19 216.33 138.59 216.33 139.02C216.33 139.65 216.52 140.23 216.85 140.71C217.4 141.51 218.32 142.04 219.37 142.04C219.91 142.04 220.42 141.9 220.86 141.65C221.74 141.16 222.34 140.25 222.4 139.19C222.4 139.13 222.4 139.08 222.4 139.02H222.41Z" fill="#5D63D2"/>
<path d="M174.37 216.65L189.65 167.31L175.58 153.38L75 218.54L174.37 216.65Z" fill="url(#paint0_linear_14_155)"/>
</g>
</g>
<path d="M57.1426 266.514V267.867H42.7812V266.514H49.127V264.791H44.5742V259.377H55.3848V260.713H46.2441V263.42H55.543V264.791H50.7969V266.514H57.1426ZM44.3809 270.609V269.256H55.4023V274.582H53.75V270.609H44.3809ZM71.3984 258.762V267.445H69.7285V258.762H71.3984ZM59.1289 260.854V259.5H66.3711V263.895H60.7988V265.758C63.5586 265.749 65.5713 265.679 67.9707 265.283L68.1816 266.637C65.6064 267.059 63.4619 267.129 60.4824 267.146H59.1641V262.594H64.7188V260.854H59.1289ZM61.0625 274.301V268.184H62.7324V269.889H69.7461V268.184H71.3984V274.301H61.0625ZM62.7324 272.947H69.7461V271.207H62.7324V272.947ZM79.5371 261.539C79.5283 263.525 80.9521 265.468 83.334 266.285L82.4727 267.586C80.7061 266.979 79.3965 265.714 78.7109 264.158C78.0254 265.89 76.6455 267.278 74.7734 267.938L73.9121 266.619C76.3291 265.793 77.8408 263.692 77.832 261.557V261.117H74.4219V259.764H82.9121V261.117H79.5371V261.539ZM76.3555 270.311V268.957H87.0254V274.494H85.3555V270.311H76.3555ZM82.4375 264.123V262.752H85.3555V258.744H87.0254V268.166H85.3555V264.123H82.4375ZM102.494 258.744V274.529H100.824V258.744H102.494ZM89.9961 265.441C89.9961 262.075 91.6924 259.931 94.0742 259.922C96.4121 259.931 98.1348 262.075 98.1348 265.441C98.1348 268.843 96.4121 270.987 94.0742 270.979C91.6924 270.987 89.9961 268.843 89.9961 265.441ZM91.6133 265.441C91.6045 267.946 92.6064 269.484 94.0742 269.484C95.5156 269.484 96.5176 267.946 96.5176 265.441C96.5176 262.972 95.5156 261.425 94.0742 261.416C92.6064 261.425 91.6045 262.972 91.6133 265.441ZM117.752 260.256V261.803C117.743 263.745 117.743 265.925 117.154 269.15L115.467 268.975C116.073 265.925 116.073 263.692 116.082 261.803V261.609H106.52V260.256H117.752ZM105.008 272.367V270.979H110.475V265.424H112.127V270.979H119.369V272.367H105.008ZM132.254 268.553C135.497 268.553 137.475 269.643 137.475 271.506C137.475 273.396 135.497 274.485 132.254 274.494C128.976 274.485 126.963 273.396 126.963 271.506C126.963 269.643 128.976 268.553 132.254 268.553ZM125.574 267.041V259.729H127.209V261.996H131.34V259.729H132.992V267.041H125.574ZM127.209 265.705H131.34V263.314H127.209V265.705ZM128.633 271.506C128.624 272.561 129.978 273.158 132.254 273.158C134.513 273.158 135.849 272.561 135.84 271.506C135.849 270.46 134.513 269.871 132.254 269.871C129.978 269.871 128.624 270.46 128.633 271.506ZM135.664 268.148V258.744H137.334V262.594H139.619V264.018H137.334V268.148H135.664ZM148.303 261.346V262.699H140.48V261.346H143.574V259.201H145.227V261.346H148.303ZM140.99 267.27C140.981 265.151 142.423 263.648 144.4 263.648C146.396 263.648 147.819 265.151 147.828 267.27C147.819 269.423 146.396 270.935 144.4 270.926C142.423 270.935 140.981 269.423 140.99 267.27ZM142.467 267.27C142.458 268.605 143.267 269.502 144.4 269.502C145.534 269.502 146.352 268.605 146.352 267.27C146.352 265.96 145.534 265.046 144.4 265.037C143.267 265.046 142.458 265.96 142.467 267.27ZM149.023 273.756V259.096H150.605V265.301H152.416V258.744H153.998V274.494H152.416V266.672H150.605V273.756H149.023ZM168.447 258.744V262.471H170.732V263.859H168.447V267.938H166.777V258.744H168.447ZM156.688 267.023V259.641H158.322V261.926H162.453V259.641H164.105V267.023H156.688ZM158.322 265.705H162.453V263.244H158.322V265.705ZM158.41 274.266V268.764H168.57V270.1H160.08V272.947H168.852V274.266H158.41ZM177.43 263.385C177.421 266.021 179.152 268.746 181.578 269.783L180.664 271.084C178.81 270.267 177.333 268.526 176.604 266.426C175.874 268.676 174.397 270.592 172.561 271.488L171.594 270.17C173.967 269.054 175.725 266.101 175.742 263.385V261.715H172.139V260.326H181.016V261.715H177.43V263.385ZM183.002 274.494V258.744H184.672V274.494H183.002ZM195.957 259.588C198.339 259.597 200.088 261.108 200.088 263.244C200.088 265.389 198.339 266.892 195.957 266.9C193.584 266.892 191.809 265.389 191.826 263.244C191.809 261.108 193.584 259.597 195.957 259.588ZM193.162 274.072V268.219H194.797V272.701C195.72 272.657 196.783 272.525 197.785 272.191L198.031 273.51C196.563 274.011 195.148 274.072 193.971 274.072H193.162ZM193.443 263.244C193.435 264.589 194.533 265.529 195.957 265.529C197.39 265.529 198.471 264.589 198.471 263.244C198.471 261.908 197.39 260.977 195.957 260.977C194.533 260.977 193.435 261.908 193.443 263.244ZM197.486 269.555V268.271H200.668V266.988H202.303V268.271H205.432V269.555H197.486ZM198.488 272.262C198.471 270.891 199.684 270.021 201.459 270.012C203.199 270.021 204.43 270.891 204.43 272.262C204.43 273.615 203.199 274.468 201.459 274.459C199.684 274.468 198.471 273.615 198.488 272.262ZM199.965 272.262C199.965 272.903 200.589 273.299 201.459 273.299C202.312 273.299 202.927 272.903 202.936 272.262C202.927 271.62 202.312 271.207 201.459 271.207C200.589 271.207 199.965 271.62 199.965 272.262ZM202.285 266.584V258.744H203.955V262.189H206.24V263.578H203.955V266.584H202.285ZM219.881 263.35V264.686H209.035V259.307H210.688V263.35H219.881ZM207.119 268.008V266.672H221.533V268.008H207.119ZM208.912 274.125V269.502H210.582V272.754H219.986V274.125H208.912ZM241.449 267.973V269.291H227.088V267.973H233.434V266.83C230.656 266.707 229.083 265.872 229.092 264.439C229.083 262.875 230.973 262.049 234.26 262.049C237.538 262.049 239.437 262.875 239.428 264.439C239.437 265.863 237.863 266.698 235.104 266.83V267.973H241.449ZM227.826 261.434V260.15H233.434V258.586H235.104V260.15H240.641V261.434H227.826ZM228.898 274.16V270.223H230.586V272.824H239.832V274.16H228.898ZM230.779 264.439C230.771 265.23 231.966 265.635 234.26 265.635C236.536 265.635 237.74 265.23 237.74 264.439C237.74 263.648 236.536 263.244 234.26 263.244C231.966 263.244 230.771 263.648 230.779 264.439ZM248.129 263.385C248.12 265.872 249.764 268.649 252.154 269.783L251.205 271.084C249.438 270.24 248.032 268.465 247.32 266.408C246.6 268.649 245.123 270.592 243.33 271.488L242.346 270.17C244.736 269.019 246.468 266.048 246.477 263.385V261.715H242.926V260.326H251.557V261.715H248.129V263.385ZM253.244 274.494V258.744H254.914V264.984H257.445V266.391H254.914V274.494H253.244ZM266.182 260.133V267.48H258.816V260.133H266.182ZM260.451 266.162H264.547V261.486H260.451V266.162ZM260.592 274.16V269.168H262.262V272.807H271.244V274.16H260.592ZM268.906 270.275V258.727H270.576V263.438H272.861V264.844H270.576V270.275H268.906ZM278.891 259.869C281.378 259.86 283.171 261.398 283.18 263.613C283.171 265.828 281.378 267.366 278.891 267.375C276.412 267.366 274.593 265.828 274.602 263.613C274.593 261.398 276.412 259.86 278.891 259.869ZM273.846 269.748C276.711 269.748 280.684 269.722 284.129 269.221L284.252 270.434C280.692 271.119 276.869 271.137 274.057 271.137L273.846 269.748ZM276.254 263.613C276.236 265.011 277.361 265.916 278.891 265.916C280.42 265.916 281.545 265.011 281.545 263.613C281.545 262.233 280.42 261.311 278.891 261.311C277.361 261.311 276.236 262.233 276.254 263.613ZM285.113 274.529V258.744H286.783V274.529H285.113ZM300.811 268.641C304.221 268.641 306.374 269.722 306.383 271.559C306.374 273.387 304.221 274.468 300.811 274.459C297.436 274.468 295.273 273.387 295.273 271.559C295.273 269.722 297.436 268.641 300.811 268.641ZM293.727 267.34V265.986H299.475V263.033H301.109V265.986H308.053V267.34H293.727ZM295.396 260.854V259.518H306.26V260.836C306.269 262.093 306.269 263.394 305.82 265.02L304.186 264.844C304.607 263.235 304.607 262.075 304.607 260.854H295.396ZM296.943 271.559C296.926 272.578 298.429 273.167 300.811 273.176C303.219 273.167 304.713 272.578 304.73 271.559C304.713 270.521 303.219 269.915 300.811 269.906C298.429 269.915 296.926 270.521 296.943 271.559ZM321.641 258.744V263.402H323.926V264.791H321.641V270.188H319.953V258.744H321.641ZM309.248 267.129C312.939 266.021 315.225 263.921 315.55 261.328H309.916V259.939H317.369C317.369 264.07 314.557 267.067 309.951 268.465L309.248 267.129ZM311.639 274.16V269.01H313.326V272.807H322.291V274.16H311.639ZM338.375 258.744V274.494H336.775V258.744H338.375ZM324.998 265.547C324.998 262.137 326.334 260.001 328.391 260.01C330.307 260.001 331.599 261.82 331.792 264.773H333.576V259.043H335.176V273.721H333.576V266.127H331.801C331.651 269.203 330.342 271.11 328.391 271.102C326.334 271.11 324.998 268.966 324.998 265.547ZM326.545 265.547C326.545 268.052 327.257 269.528 328.391 269.52C329.551 269.528 330.271 268.052 330.271 265.547C330.271 263.033 329.551 261.565 328.391 261.574C327.257 261.565 326.545 263.033 326.545 265.547ZM52.6689 285.588C55.0508 285.597 56.7998 287.108 56.7998 289.262C56.7998 291.415 55.0508 292.909 52.6689 292.918C50.2959 292.909 48.5205 291.415 48.5381 289.262C48.5205 287.108 50.2959 285.597 52.6689 285.588ZM49.874 299.967V294.307H51.5088V298.569C52.458 298.508 53.5479 298.341 54.3389 297.928L54.7168 299C56.3955 298.297 57.2568 296.899 57.2568 295.52V295.291H54.7607V293.955H61.335V295.291H58.8564V295.52C58.8389 297.058 59.8232 298.552 61.8271 299.158L61.0361 300.424C59.5684 299.94 58.584 299.009 58.0479 297.849C57.5117 298.991 56.5273 299.932 55.0771 300.424L54.4443 299.387C53.2227 299.87 51.834 299.958 50.6826 299.967H49.874ZM50.1553 289.262C50.1465 290.606 51.2451 291.547 52.6689 291.547C54.1016 291.547 55.1826 290.606 55.1826 289.262C55.1826 287.908 54.1016 286.977 52.6689 286.977C51.2451 286.977 50.1465 287.908 50.1553 289.262ZM58.9971 293.199V284.744H60.667V288.348H62.9521V289.736H60.667V293.199H58.9971ZM77.3838 284.744V300.494H75.8018V284.744H77.3838ZM63.7959 295.941C67.1357 293.955 68.7354 291.31 69.0254 288.066H64.5342V286.695H70.6865C70.6777 288.233 70.4668 289.701 69.9834 291.072H72.4795V285.148H74.0615V299.721H72.4795V292.408H69.4033C68.4717 294.236 66.9688 295.836 64.7451 297.137L63.7959 295.941ZM93.1865 291.406V292.777H89.8643V295.695C91.3232 295.634 92.791 295.537 94.1709 295.379L94.2939 296.609C90.8223 297.128 87.0957 297.181 84.0986 297.189L83.8877 295.801C85.2148 295.801 86.6826 295.792 88.1943 295.757V292.777H85.0303V286.203H93.1162V287.557H86.6826V291.406H93.1865ZM95.1553 300.529V284.744H96.8252V300.529H95.1553ZM104.946 295.133C104.946 296.495 105.623 297.928 107.047 298.798C108.488 297.857 109.174 296.328 109.183 295.133V294.289H110.817V295.133C110.817 296.759 111.89 298.376 113.981 299.035L113.12 300.283C111.573 299.729 110.519 298.675 109.974 297.374C109.473 298.64 108.532 299.817 107.073 300.424C105.579 299.853 104.621 298.736 104.129 297.444C103.566 298.684 102.521 299.729 101.044 300.283L100.235 299.035C102.248 298.332 103.329 296.662 103.347 295.133V294.289H104.946V295.133ZM99.6025 289.332C99.5938 287.152 101.343 285.605 103.716 285.605C105.755 285.605 107.372 286.81 107.732 288.594H110.817V284.744H112.487V293.674H110.817V289.965H107.759C107.434 291.793 105.799 293.041 103.716 293.041C101.343 293.041 99.5938 291.503 99.6025 289.332ZM101.202 289.332C101.193 290.694 102.257 291.652 103.716 291.652C105.14 291.652 106.203 290.694 106.212 289.332C106.203 287.943 105.14 287.003 103.716 287.012C102.257 287.003 101.193 287.943 101.202 289.332ZM118.341 294.184V295.854H125.741V294.184H127.411V300.301H116.688V294.184H118.341ZM114.913 293.199V291.811H129.274V293.199H114.913ZM115.687 289.525C118.736 289.13 121.232 287.451 121.241 285.588V284.92H122.946V285.588C122.955 287.398 125.469 289.156 128.483 289.525L127.886 290.844C125.337 290.492 123.113 289.279 122.103 287.601C121.083 289.288 118.851 290.492 116.319 290.844L115.687 289.525ZM118.341 298.965H125.741V297.154H118.341V298.965ZM143.548 284.744V300.494H141.878V284.744H143.548ZM131.437 296.486V286.273H133.089V295.045C135.392 295.036 137.809 294.834 140.331 294.324L140.56 295.73C137.773 296.302 135.242 296.495 132.755 296.486H131.437ZM158.296 284.744V290.844H160.827V292.215H158.296V300.529H156.626V284.744H158.296ZM146.694 296.609V286.256H154.06V287.609H148.364V295.221C151.01 295.212 152.987 295.098 155.237 294.693L155.448 296.1C152.979 296.539 150.887 296.618 147.96 296.609H146.694ZM163.376 299.123C162.69 299.114 162.119 298.561 162.128 297.875C162.119 297.189 162.69 296.627 163.376 296.627C164.053 296.627 164.615 297.189 164.624 297.875C164.615 298.561 164.053 299.114 163.376 299.123ZM183.556 284.744V300.529H181.886V284.744H183.556ZM171.058 291.441C171.058 288.075 172.754 285.931 175.136 285.922C177.474 285.931 179.196 288.075 179.196 291.441C179.196 294.843 177.474 296.987 175.136 296.979C172.754 296.987 171.058 294.843 171.058 291.441ZM172.675 291.441C172.666 293.946 173.668 295.484 175.136 295.484C176.577 295.484 177.579 293.946 177.579 291.441C177.579 288.972 176.577 287.425 175.136 287.416C173.668 287.425 172.666 288.972 172.675 291.441ZM198.62 285.5V286.643C198.629 287.847 198.629 289.209 198.233 291.037L196.581 290.861C196.95 289.156 196.968 287.935 196.968 286.818H187.757V285.5H198.62ZM186.087 293.375V292.039H191.835V288.945H193.47V292.039H200.413V293.375H186.087ZM187.071 299.123C190.121 298.71 192.336 297.11 192.345 295.168V294.535H194.032V295.168C194.023 297.11 196.238 298.71 199.341 299.123L198.708 300.424C196.221 300.046 194.155 298.947 193.188 297.33C192.213 298.947 190.147 300.046 187.669 300.424L187.071 299.123ZM215.179 284.744V300.494H213.579V284.744H215.179ZM201.802 291.547C201.802 288.137 203.138 286.001 205.194 286.01C207.11 286.001 208.402 287.82 208.596 290.773H210.38V285.043H211.979V299.721H210.38V292.127H208.604C208.455 295.203 207.146 297.11 205.194 297.102C203.138 297.11 201.802 294.966 201.802 291.547ZM203.349 291.547C203.349 294.052 204.061 295.528 205.194 295.52C206.354 295.528 207.075 294.052 207.075 291.547C207.075 289.033 206.354 287.565 205.194 287.574C204.061 287.565 203.349 289.033 203.349 291.547ZM222.86 288.752C222.86 291.635 224.478 294.509 226.886 295.59L225.866 296.926C224.082 296.029 222.729 294.254 222.034 292.101C221.34 294.368 219.969 296.284 218.149 297.225L217.095 295.871C219.538 294.702 221.164 291.67 221.173 288.752V286.062H222.86V288.752ZM225.146 291.336V289.982H228.661V284.744H230.313V300.529H228.661V291.336H225.146ZM245.483 289.35V290.686H234.638V285.307H236.29V289.35H245.483ZM232.722 294.008V292.672H247.136V294.008H232.722ZM234.515 300.125V295.502H236.185V298.754H245.589V300.125H234.515ZM265.47 289.93V291.283H254.519V285.518H256.188V289.93H265.47ZM252.69 294.834V293.463H267.104V294.834H260.653V300.494H259.001V294.834H252.69ZM280.78 285.729V287.117C280.78 288.611 280.78 290.237 280.341 292.479H282.608V293.85H276.228V300.512H274.54V293.85H268.247V292.479H278.653C279.119 290.229 279.119 288.585 279.128 287.117V287.1H270.005V285.729H280.78ZM296.565 292.004V293.34H291.802V297.189H298.218V298.561H283.804V297.189H290.149V293.34H285.597V285.957H296.425V287.311H287.267V292.004H296.565ZM316.147 284.744V288.734H318.415V290.105H316.147V294.043H314.46V284.744H316.147ZM304.423 292.9V285.904H311.454V287.258H306.075V291.547C309.178 291.529 310.927 291.441 312.913 291.037L313.071 292.391C310.962 292.821 309.081 292.9 305.671 292.9H304.423ZM305.759 297.4C305.759 295.476 307.798 294.351 311.05 294.342C314.267 294.351 316.271 295.476 316.271 297.4C316.271 299.343 314.267 300.468 311.05 300.459C307.798 300.468 305.759 299.343 305.759 297.4ZM307.411 297.4C307.402 298.49 308.773 299.132 311.05 299.123C313.282 299.132 314.662 298.49 314.671 297.4C314.662 296.311 313.282 295.687 311.05 295.695C308.773 295.687 307.402 296.311 307.411 297.4ZM332.372 284.762V296.293H330.702V284.762H332.372ZM319.399 292.742C321.869 291.828 323.328 289.561 323.337 287.188V285.623H325.042V287.188C325.033 289.49 326.492 291.6 328.927 292.443L328.065 293.779C326.246 293.103 324.901 291.767 324.198 290.062C323.504 291.89 322.142 293.349 320.296 294.061L319.399 292.742ZM322.071 300.16V295.203H323.759V298.807H332.847V300.16H322.071ZM94.25 311.008C97.8008 310.999 99.8662 311.957 99.875 313.715C99.8662 315.481 97.8008 316.439 94.25 316.439C90.6992 316.439 88.6162 315.481 88.625 313.715C88.6162 311.957 90.6992 310.999 94.25 311.008ZM87.0781 318.742V317.406H101.439V318.742H87.0781ZM88.8008 321.203V319.955H99.6289V323.646H90.4531V325.053H100.068V326.336H88.8184V322.434H97.9766V321.203H88.8008ZM90.3652 313.715C90.3564 314.69 91.7451 315.191 94.25 315.191C96.7725 315.191 98.1611 314.69 98.1523 313.715C98.1611 312.783 96.7725 312.238 94.25 312.238C91.7451 312.238 90.3564 312.783 90.3652 313.715ZM119.422 310.744V314.734H121.689V316.105H119.422V320.043H117.734V310.744H119.422ZM107.697 318.9V311.904H114.729V313.258H109.35V317.547C112.452 317.529 114.201 317.441 116.188 317.037L116.346 318.391C114.236 318.821 112.355 318.9 108.945 318.9H107.697ZM109.033 323.4C109.033 321.476 111.072 320.351 114.324 320.342C117.541 320.351 119.545 321.476 119.545 323.4C119.545 325.343 117.541 326.468 114.324 326.459C111.072 326.468 109.033 325.343 109.033 323.4ZM110.686 323.4C110.677 324.49 112.048 325.132 114.324 325.123C116.557 325.132 117.937 324.49 117.945 323.4C117.937 322.311 116.557 321.687 114.324 321.695C112.048 321.687 110.677 322.311 110.686 323.4ZM135.646 310.762V322.293H133.977V310.762H135.646ZM122.674 318.742C125.144 317.828 126.603 315.561 126.611 313.188V311.623H128.316V313.188C128.308 315.49 129.767 317.6 132.201 318.443L131.34 319.779C129.521 319.103 128.176 317.767 127.473 316.062C126.778 317.89 125.416 319.349 123.57 320.061L122.674 318.742ZM125.346 326.16V321.203H127.033V324.807H136.121V326.16H125.346ZM145.314 311.008C148.865 310.999 150.931 311.957 150.939 313.715C150.931 315.481 148.865 316.439 145.314 316.439C141.764 316.439 139.681 315.481 139.689 313.715C139.681 311.957 141.764 310.999 145.314 311.008ZM138.143 318.742V317.406H152.504V318.742H138.143ZM139.865 321.203V319.955H150.693V323.646H141.518V325.053H151.133V326.336H139.883V322.434H149.041V321.203H139.865ZM141.43 313.715C141.421 314.69 142.81 315.191 145.314 315.191C147.837 315.191 149.226 314.69 149.217 313.715C149.226 312.783 147.837 312.238 145.314 312.238C142.81 312.238 141.421 312.783 141.43 313.715ZM165.389 320.553C168.632 320.553 170.609 321.643 170.609 323.506C170.609 325.396 168.632 326.485 165.389 326.494C162.11 326.485 160.098 325.396 160.098 323.506C160.098 321.643 162.11 320.553 165.389 320.553ZM158.709 319.041V311.729H160.344V313.996H164.475V311.729H166.127V319.041H158.709ZM160.344 317.705H164.475V315.314H160.344V317.705ZM161.768 323.506C161.759 324.561 163.112 325.158 165.389 325.158C167.647 325.158 168.983 324.561 168.975 323.506C168.983 322.46 167.647 321.871 165.389 321.871C163.112 321.871 161.759 322.46 161.768 323.506ZM168.799 320.148V310.744H170.469V314.594H172.754V316.018H170.469V320.148H168.799ZM181.438 313.346V314.699H173.615V313.346H176.709V311.201H178.361V313.346H181.438ZM174.125 319.27C174.116 317.151 175.558 315.648 177.535 315.648C179.53 315.648 180.954 317.151 180.963 319.27C180.954 321.423 179.53 322.935 177.535 322.926C175.558 322.935 174.116 321.423 174.125 319.27ZM175.602 319.27C175.593 320.605 176.401 321.502 177.535 321.502C178.669 321.502 179.486 320.605 179.486 319.27C179.486 317.96 178.669 317.046 177.535 317.037C176.401 317.046 175.593 317.96 175.602 319.27ZM182.158 325.756V311.096H183.74V317.301H185.551V310.744H187.133V326.494H185.551V318.672H183.74V325.756H182.158ZM201.582 310.691V314.383H203.885V315.754H201.582V319.357H199.912V310.691H201.582ZM189.225 313.398V312.08H193.092V310.604H194.762V312.08H198.611V313.398H189.225ZM190.086 316.58C190.077 314.989 191.606 313.996 193.918 313.996C196.229 313.996 197.732 314.989 197.732 316.58C197.732 318.18 196.229 319.155 193.918 319.146C191.606 319.155 190.077 318.18 190.086 316.58ZM191.404 321.344V320.096H201.582V323.752H193.074V325.07H202.127V326.336H191.439V322.574H199.93V321.344H191.404ZM191.703 316.58C191.686 317.433 192.556 317.934 193.918 317.934C195.271 317.934 196.15 317.433 196.168 316.58C196.15 315.728 195.271 315.2 193.918 315.191C192.556 315.2 191.686 315.728 191.703 316.58ZM217.227 312.133C217.218 314.225 219.775 316.185 222.869 316.598L222.219 317.969C219.644 317.556 217.385 316.22 216.356 314.365C215.328 316.22 213.069 317.556 210.512 317.969L209.844 316.598C212.929 316.185 215.478 314.251 215.486 312.133V311.271H217.227V312.133ZM209.158 320.887V319.516H223.52V320.887H217.121V326.494H215.486V320.887H209.158ZM232.467 319.973V321.801H234.928V319.973H236.475V326.301H230.902V319.973H232.467ZM229.338 315.051C229.329 312.897 231.061 311.412 233.469 311.412C235.543 311.412 237.151 312.581 237.494 314.348H240.57V310.744H242.24V319.094H240.57V315.719H237.503C237.178 317.521 235.561 318.716 233.469 318.707C231.061 318.716 229.329 317.222 229.338 315.051ZM230.938 315.051C230.929 316.413 231.983 317.345 233.469 317.354C234.928 317.345 235.965 316.413 235.965 315.051C235.965 313.706 234.928 312.792 233.469 312.801C231.983 312.792 230.929 313.706 230.938 315.051ZM232.467 325H234.928V323.066H232.467V325ZM236.562 325.158C238.461 324.376 239.393 322.724 239.393 321.15V319.867H241.045V321.15C241.036 322.803 241.968 324.473 243.91 325.158L243.049 326.424C241.625 325.879 240.702 324.851 240.201 323.603C239.683 324.815 238.76 325.861 237.406 326.424L236.562 325.158ZM248.094 320.184V321.854H255.494V320.184H257.164V326.301H246.441V320.184H248.094ZM244.666 319.199V317.811H259.027V319.199H244.666ZM245.439 315.525C248.489 315.13 250.985 313.451 250.994 311.588V310.92H252.699V311.588C252.708 313.398 255.222 315.156 258.236 315.525L257.639 316.844C255.09 316.492 252.866 315.279 251.855 313.601C250.836 315.288 248.604 316.492 246.072 316.844L245.439 315.525ZM248.094 324.965H255.494V323.154H248.094V324.965ZM273.301 310.744V326.494H271.631V310.744H273.301ZM261.189 322.486V312.273H262.842V321.045C265.145 321.036 267.562 320.834 270.084 320.324L270.312 321.73C267.526 322.302 264.995 322.495 262.508 322.486H261.189ZM288.049 310.744V316.844H290.58V318.215H288.049V326.529H286.379V310.744H288.049ZM276.447 322.609V312.256H283.812V313.609H278.117V321.221C280.763 321.212 282.74 321.098 284.99 320.693L285.201 322.1C282.731 322.539 280.64 322.618 277.713 322.609H276.447ZM293.129 325.123C292.443 325.114 291.872 324.561 291.881 323.875C291.872 323.189 292.443 322.627 293.129 322.627C293.806 322.627 294.368 323.189 294.377 323.875C294.368 324.561 293.806 325.114 293.129 325.123Z" fill="black"/>
<rect width="382" height="64" transform="translate(0 372)" fill="#455767"/>
<path d="M187.297 394.016V400.25H190.297V402.078H187.297V408.148H185.07V394.016H187.297ZM170.633 405.805C172.262 405.805 174.148 405.805 176.117 405.758V404.34C173.727 404.07 172.203 402.945 172.227 401.258C172.203 399.336 174.207 398.141 177.219 398.164C180.23 398.141 182.199 399.336 182.211 401.258C182.199 402.934 180.711 404.059 178.344 404.34V405.676C180.219 405.582 182.117 405.43 183.875 405.172L184.062 406.766C179.551 407.551 174.57 407.586 170.867 407.586L170.633 405.805ZM171.172 397.461V395.797H176.117V393.828H178.344V395.797H183.289V397.461H171.172ZM173.258 410.867V409.133H187.297V414.992H185.07V410.867H173.258ZM174.336 401.258C174.336 402.242 175.426 402.887 177.219 402.875C178.988 402.887 180.09 402.242 180.078 401.258C180.09 400.25 178.988 399.664 177.219 399.688C175.426 399.664 174.336 400.25 174.336 401.258ZM208.93 394.016V409.273H206.703V394.016H208.93ZM191.938 400.625C191.949 397.59 194.363 395.434 197.539 395.422C200.703 395.434 203.117 397.59 203.117 400.625C203.117 403.707 200.703 405.852 197.539 405.852C194.363 405.852 191.949 403.707 191.938 400.625ZM194.117 400.625C194.105 402.605 195.582 403.906 197.539 403.906C199.461 403.906 200.938 402.605 200.938 400.625C200.938 398.691 199.461 397.367 197.539 397.367C195.582 397.367 194.105 398.691 194.117 400.625ZM195.195 414.547V407.727H197.445V412.742H209.562V414.547H195.195Z" fill="white"/>
</g>
<defs>
<linearGradient id="paint0_linear_14_155" x1="138.04" y1="194.51" x2="163.02" y2="151.32" gradientUnits="userSpaceOnUse">
<stop stop-color="white"/>
<stop offset="1" stop-color="#FFC552"/>
</linearGradient>
<clipPath id="clip0_14_155">
<rect width="382" height="436" rx="20" fill="white"/>
</clipPath>
<clipPath id="clip1_14_155">
<rect x="136" y="104" width="110" height="110" rx="55" fill="white"/>
</clipPath>
<clipPath id="clip2_14_155">
<rect width="170.83" height="82.54" fill="white" transform="translate(75 136)"/>
</clipPath>
</defs>
</svg>
