<svg width="382" height="488" viewBox="0 0 382 488" fill="none" xmlns="http://www.w3.org/2000/svg">
<rect width="382" height="488" rx="24" fill="white"/>
<path d="M156.793 60.5625C159.934 60.5742 162.172 63.4336 162.184 67.9219C162.172 72.457 159.934 75.3164 156.793 75.3047C153.652 75.3164 151.414 72.457 151.426 67.9219C151.414 63.4336 153.652 60.5742 156.793 60.5625ZM153.559 67.9219C153.547 71.2617 154.883 73.3125 156.793 73.3125C158.738 73.3125 160.051 71.2617 160.051 67.9219C160.051 64.6289 158.738 62.5664 156.793 62.5547C154.883 62.5664 153.547 64.6289 153.559 67.9219ZM165.301 79.9922V58.9922H167.527V67.2188H170.902V69.0938H167.527V79.9922H165.301ZM174.301 78.1641C173.387 78.1523 172.625 77.4141 172.637 76.5C172.625 75.5859 173.387 74.8359 174.301 74.8359C175.203 74.8359 175.953 75.5859 175.965 76.5C175.953 77.4141 175.203 78.1523 174.301 78.1641ZM180.629 78.1641C179.715 78.1523 178.953 77.4141 178.965 76.5C178.953 75.5859 179.715 74.8359 180.629 74.8359C181.531 74.8359 182.281 75.5859 182.293 76.5C182.281 77.4141 181.531 78.1523 180.629 78.1641ZM186.957 78.1641C186.043 78.1523 185.281 77.4141 185.293 76.5C185.281 75.5859 186.043 74.8359 186.957 74.8359C187.859 74.8359 188.609 75.5859 188.621 76.5C188.609 77.4141 187.859 78.1523 186.957 78.1641ZM208.285 58.9922V80.0391H206.059V58.9922H208.285ZM191.621 67.9219C191.621 63.4336 193.883 60.5742 197.059 60.5625C200.176 60.5742 202.473 63.4336 202.473 67.9219C202.473 72.457 200.176 75.3164 197.059 75.3047C193.883 75.3164 191.621 72.457 191.621 67.9219ZM193.777 67.9219C193.766 71.2617 195.102 73.3125 197.059 73.3125C198.98 73.3125 200.316 71.2617 200.316 67.9219C200.316 64.6289 198.98 62.5664 197.059 62.5547C195.102 62.5664 193.766 64.6289 193.777 67.9219ZM221.879 60.4453V66.7734H214.707V69.7969C218.422 69.7852 220.801 69.668 223.52 69.2109L223.73 71.0391C220.777 71.5195 218.246 71.6016 214.145 71.6016H212.48V65.0156H219.676V62.2266H212.434V60.4453H221.879ZM215.363 79.5469V73.2422H217.59V77.7422H229.754V79.5469H215.363ZM223.145 66.2344V64.3359H226.918V59.0156H229.145V74.4375H226.918V66.2344H223.145Z" fill="black"/>
<path d="M184.993 160L163.787 209.611C163.264 210.837 162.817 212.091 162.521 213.393C162.397 213.934 162.294 214.475 162.219 215.023C160.333 228.532 170.874 241 185 241C199.126 241 209.667 228.532 207.781 215.023C207.706 214.475 207.603 213.927 207.479 213.393C207.183 212.098 206.736 210.837 206.213 209.611L184.993 160Z" fill="#41C1FF"/>
<path d="M229.636 133L213.371 170.971C212.97 171.909 212.627 172.869 212.4 173.865C212.305 174.279 212.226 174.693 212.168 175.113C210.722 185.452 218.806 194.995 229.641 194.995C240.475 194.995 248.56 185.452 247.114 175.113C247.056 174.693 246.977 174.274 246.882 173.865C246.655 172.874 246.312 171.909 245.911 170.971L229.636 133Z" fill="#41C1FF" fill-opacity="0.5"/>
<path d="M143.997 137L134.777 159.049C134.55 159.594 134.355 160.152 134.227 160.73C134.173 160.971 134.128 161.211 134.095 161.455C133.275 167.459 137.858 173 144 173C150.142 173 154.725 167.459 153.905 161.455C153.872 161.211 153.827 160.968 153.773 160.73C153.645 160.155 153.45 159.594 153.223 159.049L143.997 137Z" fill="#41C1FF" fill-opacity="0.2"/>
<path d="M190.498 106L183.583 122.537C183.412 122.946 183.266 123.364 183.17 123.798C183.13 123.978 183.096 124.158 183.071 124.341C182.457 128.844 185.894 133 190.5 133C195.106 133 198.543 128.844 197.929 124.341C197.904 124.158 197.87 123.976 197.83 123.798C197.734 123.366 197.588 122.946 197.417 122.537L190.498 106Z" fill="#41C1FF" fill-opacity="0.1"/>
<path d="M111.248 302.406V303.531H104.797V305.078H109.42V308.576H100.139V310.158H109.895V311.248H98.7676V307.539H108.066V306.15H98.7324V305.078H103.426V303.531H97.0098V302.406H111.248ZM98.8555 301.088V296.324H109.402V301.088H98.8555ZM100.227 299.98H108.031V297.432H100.227V299.98ZM117.682 296.939C120.134 296.948 121.874 298.442 121.883 300.613C121.874 302.793 120.134 304.278 117.682 304.287C115.212 304.278 113.454 302.793 113.463 300.613C113.454 298.442 115.212 296.948 117.682 296.939ZM112.654 306.836C115.537 306.845 119.519 306.818 122.973 306.309L123.078 307.328C119.501 307.996 115.66 308.014 112.848 308.014L112.654 306.836ZM114.816 300.613C114.808 302.072 116.012 303.074 117.682 303.074C119.334 303.074 120.538 302.072 120.529 300.613C120.538 299.163 119.334 298.152 117.682 298.152C116.012 298.152 114.808 299.163 114.816 300.613ZM124.01 311.459V295.797H125.381V311.459H124.01ZM145.543 295.797V303.795H144.172V295.797H145.543ZM132.904 302.969C136.824 302.099 139.109 300.227 139.355 297.713H133.695V296.57H140.867C140.858 300.561 138.037 303.048 133.414 304.129L132.904 302.969ZM135.383 305.641V304.533H145.543V308.312H136.789V310.176H146.105V311.283H135.418V307.258H144.172V305.641H135.383ZM161.592 295.797V311.424H160.256V295.797H161.592ZM148.391 302.547C148.399 299.225 149.718 297.124 151.748 297.115C153.646 297.124 154.93 298.952 155.105 301.896H157.127V296.131H158.445V310.633H157.127V303.039H155.114C154.982 306.08 153.673 307.987 151.748 307.979C149.718 307.987 148.399 305.869 148.391 302.547ZM149.691 302.547C149.674 305.078 150.482 306.678 151.748 306.66C153.022 306.678 153.831 305.078 153.822 302.547C153.831 300.007 153.022 298.416 151.748 298.416C150.482 298.416 149.674 300.007 149.691 302.547ZM172.631 296.693C174.969 296.702 176.691 298.188 176.691 300.314C176.691 302.45 174.969 303.918 172.631 303.936C170.302 303.918 168.562 302.45 168.57 300.314C168.562 298.188 170.302 296.702 172.631 296.693ZM169.924 300.314C169.915 301.747 171.093 302.793 172.631 302.793C174.178 302.793 175.347 301.747 175.338 300.314C175.347 298.891 174.178 297.854 172.631 297.854C171.093 297.854 169.915 298.891 169.924 300.314ZM169.941 310.879V305.377H171.277V309.71C172.253 309.666 173.492 309.499 174.318 309.033L174.723 310.123L174.564 310.202C176.322 309.49 177.298 307.987 177.289 306.52V306.186H174.723V305.061H181.174V306.186H178.607V306.52C178.599 308.102 179.662 309.666 181.631 310.299L180.945 311.354C179.469 310.844 178.467 309.833 177.948 308.611C177.43 309.824 176.428 310.826 174.969 311.354L174.31 310.316C173.123 310.791 171.743 310.87 170.68 310.879H169.941ZM179.117 304.252V295.797H180.488V299.541H182.844V300.684H180.488V304.252H179.117ZM197.205 295.797V311.424H195.887V295.797H197.205ZM183.846 307.047C187.238 305.034 188.943 302.213 189.207 298.943H184.514V297.801H190.578C190.578 299.339 190.332 300.824 189.796 302.213H192.6V296.219H193.918V310.633H192.6V303.338H189.286C188.346 305.157 186.834 306.766 184.654 308.049L183.846 307.047ZM213.219 302.547V303.689H209.791V306.766C211.32 306.704 212.858 306.599 214.309 306.432L214.414 307.469C210.951 307.97 207.172 308.04 204.184 308.031L203.99 306.871C205.353 306.871 206.864 306.862 208.42 306.818V303.689H205.186V297.291H213.148V298.416H206.539V302.547H213.219ZM215.346 311.459V295.797H216.717V311.459H215.346ZM224.838 306.273C224.829 307.68 225.576 309.147 227.062 310.009C228.564 309.068 229.329 307.478 229.338 306.273V305.324H230.691V306.273C230.683 307.891 231.852 309.517 233.891 310.193L233.17 311.23C231.614 310.659 230.524 309.569 229.997 308.251C229.505 309.525 228.547 310.738 227.088 311.354C225.594 310.773 224.627 309.622 224.152 308.304C223.59 309.561 222.518 310.659 221.023 311.23L220.338 310.193C222.315 309.481 223.502 307.785 223.52 306.273V305.324H224.838V306.273ZM219.723 300.35C219.723 298.205 221.428 296.685 223.766 296.693C225.822 296.685 227.431 297.924 227.738 299.734H231.025V295.797H232.414V304.727H231.025V300.877H227.747C227.483 302.74 225.857 304.006 223.766 304.006C221.428 304.006 219.723 302.503 219.723 300.35ZM221.059 300.35C221.041 301.8 222.192 302.854 223.766 302.863C225.304 302.854 226.455 301.8 226.455 300.35C226.455 298.899 225.304 297.854 223.766 297.871C222.192 297.854 221.041 298.899 221.059 300.35ZM238.197 305.184V307.012H246.002V305.184H247.391V311.213H236.826V305.184H238.197ZM235.016 304.076V302.934H249.254V304.076H235.016ZM235.824 300.719C238.61 300.341 241.432 298.697 241.432 296.711V295.973H242.855V296.711C242.847 298.636 245.694 300.367 248.445 300.719L247.936 301.826C245.519 301.466 243.137 300.235 242.144 298.486C241.15 300.244 238.76 301.466 236.352 301.826L235.824 300.719ZM238.197 310.105H246.002V308.102H238.197V310.105ZM263.457 295.797V311.424H262.086V295.797H263.457ZM251.592 307.398V297.344H252.945V306.203C255.336 306.186 257.797 306.001 260.416 305.447L260.609 306.625C257.832 307.205 255.362 307.398 252.857 307.398H251.592ZM278.223 295.797V301.984H280.842V303.145H278.223V311.459H276.852V295.797H278.223ZM266.814 307.539V297.326H274.109V298.469H268.186V306.379C271.016 306.37 273.011 306.247 275.34 305.816L275.516 307.012C273.063 307.451 271.016 307.539 268.045 307.539H266.814ZM283.338 310.105C282.723 310.097 282.195 309.587 282.213 308.963C282.195 308.348 282.723 307.838 283.338 307.838C283.962 307.838 284.472 308.348 284.463 308.963C284.472 309.587 283.962 310.097 283.338 310.105ZM86.7441 324.768C86.7529 326.815 88.2822 328.644 90.5762 329.391L89.9258 330.48C88.124 329.883 86.7617 328.644 86.085 327.07C85.417 328.863 83.9756 330.261 82.1035 330.938L81.4004 329.83C83.7383 329.039 85.373 327.026 85.3906 324.768V324.1H81.8223V322.957H90.2598V324.1H86.7441V324.768ZM83.4746 334.506C83.4834 332.704 85.4434 331.658 88.6602 331.658C91.8682 331.658 93.8105 332.704 93.8105 334.506C93.8105 336.334 91.8682 337.389 88.6602 337.389C85.4434 337.389 83.4834 336.334 83.4746 334.506ZM84.8633 334.506C84.8457 335.631 86.3047 336.29 88.6602 336.281C91.0244 336.29 92.4658 335.631 92.4746 334.506C92.4658 333.416 91.0244 332.766 88.6602 332.766C86.3047 332.766 84.8457 333.416 84.8633 334.506ZM92.2988 331.236V321.797H93.6699V325.787H96.0254V326.947H93.6699V331.236H92.2988ZM104.867 323.379V333.451H97.6602V323.379H104.867ZM98.9961 332.326H103.496V324.486H98.9961V332.326ZM107.732 337.424V321.797H109.104V328.037H111.723V329.232H109.104V337.424H107.732ZM117.893 324.873C117.901 326.604 119.65 328.09 121.971 328.635L121.338 329.689C119.466 329.232 117.963 328.187 117.251 326.78C116.557 328.318 115.045 329.479 113.146 330.006L112.514 328.934C114.834 328.31 116.53 326.728 116.539 324.873V324.504H113.006V323.379H116.539V321.727H117.928V323.379H121.426V324.504H117.893V324.873ZM115.379 331.852V330.762H125.504V334.453H116.785V336.141H126.102V337.248H115.414V333.398H124.133V331.852H115.379ZM120.951 326.824V325.699H124.133V321.797H125.504V330.006H124.133V326.824H120.951ZM146.879 328.406V329.531H140.428V331.078H145.051V334.576H135.77V336.158H145.525V337.248H134.398V333.539H143.697V332.15H134.363V331.078H139.057V329.531H132.641V328.406H146.879ZM134.486 327.088V322.324H145.033V327.088H134.486ZM135.857 325.98H143.662V323.432H135.857V325.98ZM153.312 322.939C155.765 322.948 157.505 324.442 157.514 326.613C157.505 328.793 155.765 330.278 153.312 330.287C150.843 330.278 149.085 328.793 149.094 326.613C149.085 324.442 150.843 322.948 153.312 322.939ZM148.285 332.836C151.168 332.845 155.149 332.818 158.604 332.309L158.709 333.328C155.132 333.996 151.291 334.014 148.479 334.014L148.285 332.836ZM150.447 326.613C150.438 328.072 151.643 329.074 153.312 329.074C154.965 329.074 156.169 328.072 156.16 326.613C156.169 325.163 154.965 324.152 153.312 324.152C151.643 324.152 150.438 325.163 150.447 326.613ZM159.641 337.459V321.797H161.012V337.459H159.641ZM170.434 322.693V325.189H174.793V322.693H176.146V325.77H179.838V321.797H181.227V330.867H179.838V326.93H176.146V329.988H169.062V322.693H170.434ZM170.434 328.863H174.793V326.297H170.434V328.863ZM171.014 337.213V331.641H181.227V337.213H171.014ZM172.385 336.088H179.873V332.748H172.385V336.088ZM196.045 321.814V325.822H198.418V327H196.045V331.131H194.674V321.814H196.045ZM184.496 323.801V322.658H191.58V326.93H185.885V329.145C188.662 329.153 190.675 329.065 193.109 328.67L193.25 329.777C190.745 330.217 188.653 330.305 185.744 330.305H184.531V325.857H190.227V323.801H184.496ZM186.148 337.213V331.904H196.045V337.213H186.148ZM187.502 336.088H194.709V332.977H187.502V336.088ZM212.779 321.797V337.424H211.443V321.797H212.779ZM199.578 328.547C199.587 325.225 200.905 323.124 202.936 323.115C204.834 323.124 206.117 324.952 206.293 327.896H208.314V322.131H209.633V336.633H208.314V329.039H206.302C206.17 332.08 204.86 333.987 202.936 333.979C200.905 333.987 199.587 331.869 199.578 328.547ZM200.879 328.547C200.861 331.078 201.67 332.678 202.936 332.66C204.21 332.678 205.019 331.078 205.01 328.547C205.019 326.007 204.21 324.416 202.936 324.416C201.67 324.416 200.861 326.007 200.879 328.547ZM233.75 330.709V331.852H229.971V337.424H228.582V331.852H224.574V337.424H223.15V331.852H219.441V330.709H233.75ZM221.059 325.84C221.067 323.757 223.273 322.438 226.561 322.43C229.839 322.438 232.062 323.757 232.062 325.84C232.062 327.923 229.839 329.224 226.561 329.215C223.273 329.224 221.067 327.923 221.059 325.84ZM222.482 325.84C222.465 327.22 224.126 328.107 226.561 328.107C228.995 328.107 230.647 327.22 230.656 325.84C230.647 324.451 228.995 323.555 226.561 323.555C224.126 323.555 222.465 324.451 222.482 325.84ZM240.131 322.939C242.583 322.948 244.323 324.442 244.332 326.613C244.323 328.793 242.583 330.278 240.131 330.287C237.661 330.278 235.903 328.793 235.912 326.613C235.903 324.442 237.661 322.948 240.131 322.939ZM235.104 332.836C237.986 332.845 241.968 332.818 245.422 332.309L245.527 333.328C241.95 333.996 238.109 334.014 235.297 334.014L235.104 332.836ZM237.266 326.613C237.257 328.072 238.461 329.074 240.131 329.074C241.783 329.074 242.987 328.072 242.979 326.613C242.987 325.163 241.783 324.152 240.131 324.152C238.461 324.152 237.257 325.163 237.266 326.613ZM246.459 337.459V321.797H247.83V337.459H246.459ZM262.666 321.797V328.248H265.285V329.391H262.666V337.424H261.295V321.797H262.666ZM250.484 325.453V324.311H254.51V321.99H255.881V324.311H259.783V325.453H250.484ZM251.381 330.34C251.372 328.23 252.989 326.754 255.213 326.754C257.419 326.754 259.027 328.23 259.045 330.34C259.027 332.458 257.419 333.926 255.213 333.926C252.989 333.926 251.372 332.458 251.381 330.34ZM252.699 330.34C252.69 331.764 253.754 332.766 255.213 332.748C256.654 332.766 257.709 331.764 257.727 330.34C257.709 328.925 256.654 327.905 255.213 327.914C253.754 327.905 252.69 328.925 252.699 330.34ZM270.77 326.244C270.77 328.731 271.982 331.412 274.057 332.643L273.266 333.715C271.754 332.801 270.673 331.131 270.128 329.224C269.557 331.307 268.396 333.1 266.832 334.049L265.953 333.012C268.115 331.746 269.434 328.978 269.434 326.297V323.273H270.77V326.244ZM272.334 328.582V327.404H274.988V322.131H276.289V336.633H274.988V328.582H272.334ZM278.188 337.424V321.797H279.523V337.424H278.188ZM295.994 334.26V335.42H281.686V334.26H285.236V330.05C283.9 329.355 283.092 328.23 283.092 326.807C283.092 324.39 285.465 322.799 288.805 322.781C292.145 322.799 294.518 324.39 294.518 326.807C294.518 328.204 293.735 329.312 292.443 330.006V334.26H295.994ZM284.428 326.807C284.419 328.556 286.238 329.725 288.805 329.725C291.345 329.725 293.182 328.556 293.182 326.807C293.182 325.058 291.345 323.906 288.805 323.924C286.238 323.906 284.419 325.058 284.428 326.807ZM286.59 334.26H291.055V330.542C290.378 330.718 289.622 330.814 288.805 330.814C288.005 330.814 287.258 330.727 286.59 330.551V334.26ZM298.895 336.105C298.279 336.097 297.752 335.587 297.77 334.963C297.752 334.348 298.279 333.838 298.895 333.838C299.519 333.838 300.028 334.348 300.02 334.963C300.028 335.587 299.519 336.097 298.895 336.105Z" fill="black"/>
<rect x="49" y="393" width="284" height="54" rx="27" stroke="black" stroke-width="2"/>
<path d="M187.914 411.18V416.375H190.414V417.898H187.914V422.957H186.059V411.18H187.914ZM174.027 421.004C175.385 421.004 176.957 421.004 178.598 420.965V419.783C176.605 419.559 175.336 418.621 175.355 417.215C175.336 415.613 177.006 414.617 179.516 414.637C182.025 414.617 183.666 415.613 183.676 417.215C183.666 418.611 182.426 419.549 180.453 419.783V420.896C182.016 420.818 183.598 420.691 185.062 420.477L185.219 421.805C181.459 422.459 177.309 422.488 174.223 422.488L174.027 421.004ZM174.477 414.051V412.664H178.598V411.023H180.453V412.664H184.574V414.051H174.477ZM176.215 425.223V423.777H187.914V428.66H186.059V425.223H176.215ZM177.113 417.215C177.113 418.035 178.021 418.572 179.516 418.562C180.99 418.572 181.908 418.035 181.898 417.215C181.908 416.375 180.99 415.887 179.516 415.906C178.021 415.887 177.113 416.375 177.113 417.215ZM205.941 411.18V423.895H204.086V411.18H205.941ZM191.781 416.688C191.791 414.158 193.803 412.361 196.449 412.352C199.086 412.361 201.098 414.158 201.098 416.688C201.098 419.256 199.086 421.043 196.449 421.043C193.803 421.043 191.791 419.256 191.781 416.688ZM193.598 416.688C193.588 418.338 194.818 419.422 196.449 419.422C198.051 419.422 199.281 418.338 199.281 416.688C199.281 415.076 198.051 413.973 196.449 413.973C194.818 413.973 193.588 415.076 193.598 416.688ZM194.496 428.289V422.605H196.371V426.785H206.469V428.289H194.496Z" fill="black"/>
</svg>
