<svg width="382" height="488" viewBox="0 0 382 488" fill="none" xmlns="http://www.w3.org/2000/svg">
<rect width="382" height="488" rx="24" fill="white"/>
<path d="M165.406 58.9922V79.9922H163.297V58.9922H165.406ZM147.242 73.9219C151.707 71.2734 153.84 67.7461 154.227 63.4219H148.273V61.5938H156.43C156.43 62.6719 156.348 63.7148 156.184 64.7344H159.008V59.5312H161.117V78.9609H159.008V71.8125H155.422V69.9844H159.008V66.5625H155.773C154.754 70.0898 152.516 73.1602 148.555 75.5156L147.242 73.9219ZM175.555 62.1562C175.555 64.5352 177.477 66.9141 180.594 67.8516L179.539 69.6094C177.148 68.8711 175.379 67.3242 174.465 65.3906C173.516 67.5234 171.664 69.293 169.203 70.1016L168.102 68.3438C171.277 67.2891 173.328 64.6992 173.328 62.1328V61.8047H168.758V60H180.078V61.8047H175.555V62.1562ZM171.852 72.5391V70.7578H185.586V76.0078H174.125V78H186.336V79.7578H171.898V74.3203H183.383V72.5391H171.852ZM179.469 65.3672V63.5625H183.383V58.9922H185.586V69.7969H183.383V65.3672H179.469ZM195.688 60.4922C199.004 60.4805 201.395 62.5312 201.406 65.4844C201.395 68.4375 199.004 70.4883 195.688 70.5C192.383 70.4883 189.957 68.4375 189.969 65.4844C189.957 62.5312 192.383 60.4805 195.688 60.4922ZM188.961 73.6641C192.781 73.6641 198.078 73.6289 202.672 72.9609L202.836 74.5781C198.09 75.4922 192.992 75.5156 189.242 75.5156L188.961 73.6641ZM192.172 65.4844C192.148 67.3477 193.648 68.5547 195.688 68.5547C197.727 68.5547 199.227 67.3477 199.227 65.4844C199.227 63.6445 197.727 62.4141 195.688 62.4141C193.648 62.4141 192.148 63.6445 192.172 65.4844ZM203.984 80.0391V58.9922H206.211V80.0391H203.984ZM222.805 63.4922C222.805 65.9297 224.703 68.1914 227.914 69.0938L226.883 70.8516C224.469 70.1484 222.676 68.6602 221.75 66.75C220.824 68.9062 218.996 70.582 216.523 71.3906L215.422 69.6328C218.633 68.6836 220.602 66.2109 220.602 63.4922V63.2344H216.031V61.4297H220.602V58.8984H222.828V61.4297H227.375V63.2344H222.805V63.4922ZM218.117 76.125C218.117 73.6641 220.777 72.2695 225.172 72.2812C229.52 72.2695 232.133 73.6641 232.133 76.125C232.133 78.5391 229.52 79.9336 225.172 79.9453C220.777 79.9336 218.117 78.5391 218.117 76.125ZM220.344 76.125C220.332 77.4727 222.113 78.2227 225.172 78.2344C228.184 78.2227 229.965 77.4727 229.953 76.125C229.965 74.7422 228.184 74.0156 225.172 74.0156C222.113 74.0156 220.332 74.7422 220.344 76.125ZM229.719 71.7891V58.9922H231.945V64.2891H234.992V66.1172H231.945V71.7891H229.719Z" fill="black"/>
<path d="M197.633 111.5C190.988 111.5 186.33 116.064 185.633 121.5C184.428 130.916 184.649 129.007 184.133 135C183.621 140.963 180.667 143.444 181.293 152.565C181.92 161.692 186.222 161.112 186.173 167.707C186.116 175.508 181.973 171.884 180.958 182.015C179.917 192.457 181.637 198.793 197.994 198.964C204.423 199.03 208.273 194.1 209.133 184C210.192 171.588 215.374 174.245 216.133 165C216.588 159.485 221.056 151.091 215.633 141C210.974 132.326 203.593 135.131 206.633 123.5C209.347 113.141 201.203 111.5 197.633 111.5Z" fill="url(#paint0_linear_1237_5811)"/>
<path d="M198.868 219.621V162.113L206.289 156.04C206.841 155.588 206.92 154.777 206.466 154.228C206.011 153.684 205.199 153.605 204.652 154.053L198.872 158.774V141.408C198.872 139.71 197.535 138.258 195.832 138.222C194.093 138.192 192.673 139.583 192.673 141.303V219.244C192.673 219.244 191.746 222.938 188 223.837C188 223.837 192.262 223.065 192.907 222.811C193.551 222.556 194.521 224.996 194.521 224.996L196.331 222.876L200.593 224.737L199.56 222.683L204.533 223.069C204.533 223.069 199.243 222.591 198.872 219.612L198.868 219.621Z" fill="#B28E8E"/>
<path d="M166.133 136C160.133 143 155.581 150.975 156.133 159C156.684 167.025 159.177 169.204 159.133 175C159.08 181.862 157.024 179.093 156.133 188C155.215 197.183 159.749 205.851 174.133 206C179.785 206.057 188.6 201.68 189.359 192.8C190.29 181.883 187.962 178.626 188.633 170.5C189.03 165.652 190.817 151.819 188.633 142C187.133 126.5 171.633 131.5 166.133 136Z" fill="url(#paint1_linear_1237_5811)"/>
<path d="M225.028 163.956C219.684 168.748 215.629 174.207 216.12 179.7C216.612 185.193 218.832 186.685 218.793 190.652C218.746 195.35 216.914 193.454 216.121 199.551C215.303 205.837 219.341 211.77 232.154 211.872C237.189 211.911 245.041 208.915 245.717 202.836C246.547 195.364 244.473 193.134 245.071 187.572C245.424 184.253 247.016 174.785 245.071 168.063C243.735 157.453 229.928 160.876 225.028 163.956Z" fill="url(#paint2_linear_1237_5811)"/>
<path d="M146.633 167.5C141.823 170.976 135.668 187.547 136.11 191.532C136.553 195.517 138.551 196.599 138.516 199.478C138.473 202.885 136.825 201.51 136.111 205.934C135.375 210.494 139.009 214.798 150.541 214.873C155.072 214.901 162.139 212.727 162.748 208.317C163.494 202.896 161.628 201.278 162.166 197.243C162.484 194.835 163.917 187.966 162.166 183.09C160.963 175.392 151.042 165.265 146.633 167.5Z" fill="url(#paint3_linear_1237_5811)"/>
<path d="M175.597 220.143V169.58L182.123 164.241C182.608 163.842 182.679 163.131 182.277 162.648C181.88 162.17 181.165 162.1 180.68 162.495L175.597 166.645V151.376C175.597 149.885 174.423 148.603 172.923 148.577C171.396 148.551 170.148 149.775 170.148 151.289V219.823C170.148 219.823 169.331 223.069 166.04 223.859C166.04 223.859 169.786 223.184 170.355 222.955C170.924 222.732 171.776 224.873 171.776 224.873L173.364 223.008L177.11 224.645L176.201 222.837L180.574 223.175C180.574 223.175 175.923 222.754 175.597 220.139V220.143Z" fill="#B28E8E"/>
<path d="M233.709 221.649V187.188L239.642 183.549C240.083 183.277 240.148 182.792 239.783 182.463C239.421 182.137 238.772 182.089 238.33 182.359L233.709 185.187V174.781C233.709 173.764 232.642 172.891 231.278 172.873C229.89 172.855 228.754 173.689 228.754 174.721V221.431C228.754 221.431 228.012 223.644 225.02 224.182C225.02 224.182 228.425 223.721 228.943 223.566C229.46 223.413 230.235 224.873 230.235 224.873L231.679 223.602L235.085 224.717L234.258 223.485L238.234 223.715C238.234 223.715 234.006 223.428 233.709 221.646V221.649Z" fill="#B28E8E"/>
<path d="M152.13 222.517V197.334L157.667 194.674C158.079 194.476 158.139 194.122 157.798 193.881C157.461 193.643 156.855 193.608 156.443 193.805L152.13 195.872V188.267C152.13 187.524 151.134 186.886 149.861 186.873C148.565 186.86 147.506 187.47 147.506 188.223V222.358C147.506 222.358 146.813 223.975 144.02 224.368C144.02 224.368 147.199 224.031 147.682 223.918C148.165 223.806 148.887 224.873 148.887 224.873L150.235 223.944L153.414 224.759L152.643 223.859L156.353 224.027C156.353 224.027 152.407 223.817 152.13 222.515V222.517Z" fill="#B28E8E"/>
<path d="M248.934 133.2C248.934 131.1 250.137 130.5 253.747 129C254.248 130.3 255.071 133.26 254.349 134.7C253.627 136.14 250.237 137.5 248.633 138C248.733 137.1 248.934 134.88 248.934 133.2Z" fill="url(#paint4_linear_1237_5811)"/>
<path d="M261.934 184.2C261.934 182.1 263.137 181.5 266.747 180C267.248 181.3 268.071 184.26 267.349 185.7C266.627 187.14 263.237 188.5 261.633 189C261.733 188.1 261.934 185.88 261.934 184.2Z" fill="url(#paint5_linear_1237_5811)"/>
<path d="M227.968 125.129C227.049 127.161 225.626 127.216 221.487 127.092C221.572 125.616 222.074 122.394 223.4 121.316C224.727 120.238 228.591 120.401 230.358 120.618C229.867 121.444 228.703 123.504 227.968 125.129Z" fill="url(#paint6_linear_1237_5811)"/>
<path d="M115.636 157.964C115.157 155.787 116.265 154.891 119.655 152.515C120.47 153.749 121.995 156.631 121.577 158.288C121.159 159.945 117.965 162.126 116.42 163.01C116.318 162.054 116.019 159.706 115.636 157.964Z" fill="url(#paint7_linear_1237_5811)"/>
<path d="M151.653 154.411C149.463 153.998 149.072 152.628 148.215 148.578C149.67 148.311 152.919 148.038 154.28 149.072C155.64 150.106 156.395 153.9 156.602 155.667C155.683 155.386 153.406 154.741 151.653 154.411Z" fill="url(#paint8_linear_1237_5811)"/>
<path d="M84.3975 261.814V271.201H83.0088V269.092H78.8604V267.949H83.0088V265.84H79.0186C77.9902 268.354 75.582 270.173 72.2334 271.166L71.6533 270.076C75.4238 268.96 77.7881 266.842 78.0605 264.135H72.4443V262.975H79.5635C79.5635 263.59 79.4932 264.179 79.3613 264.732H83.0088V261.814H84.3975ZM74.0615 274.348C74.0527 272.484 76.083 271.359 79.2822 271.359C82.4463 271.359 84.4854 272.484 84.4854 274.348C84.4854 276.22 82.4463 277.354 79.2822 277.354C76.083 277.354 74.0527 276.22 74.0615 274.348ZM75.415 274.348C75.4238 275.525 76.9268 276.237 79.2822 276.229C81.6025 276.237 83.1055 275.525 83.1143 274.348C83.1055 273.17 81.6025 272.458 79.2822 272.467C76.9268 272.458 75.4238 273.17 75.415 274.348ZM99.8838 261.797V277.459H98.4951V261.797H99.8838ZM87.5791 268.459C87.5879 265.137 89.2402 263.019 91.5693 263.01C93.8896 263.019 95.5684 265.137 95.5596 268.459C95.5684 271.79 93.8896 273.899 91.5693 273.891C89.2402 273.899 87.5879 271.79 87.5791 268.459ZM88.915 268.459C88.915 270.999 90.0049 272.669 91.5693 272.66C93.1426 272.669 94.2236 270.999 94.2236 268.459C94.2236 265.919 93.1426 264.249 91.5693 264.24C90.0049 264.249 88.915 265.919 88.915 268.459ZM116.864 274.33V275.49H102.556V274.33H108.989V271.377H104.349V266.561H113.7V264.1H104.313V262.957H115.054V267.686H105.72V270.234H115.423V271.377H110.343V274.33H116.864ZM132.403 269.742V270.885H126.058V274.084H124.669V270.885H118.095V269.742H132.403ZM119.712 265.348C119.703 263.405 121.892 262.21 125.231 262.201C128.571 262.21 130.733 263.405 130.733 265.348C130.733 267.272 128.571 268.468 125.231 268.459C121.892 268.468 119.703 267.272 119.712 265.348ZM119.94 277.09V272.52H121.329V275.912H130.804V277.09H119.94ZM121.188 265.348C121.171 266.561 122.797 267.334 125.231 267.334C127.657 267.334 129.274 266.561 129.274 265.348C129.274 264.1 127.657 263.335 125.231 263.326C122.797 263.335 121.171 264.1 121.188 265.348ZM151.563 261.797V277.424H150.245V261.797H151.563ZM138.169 273.047C141.57 271.034 143.275 268.213 143.548 264.943H138.872V263.801H144.919C144.919 264.601 144.849 265.392 144.708 266.156H147.081V262.219H148.399V276.633H147.081V271.219H144.181V270.076H147.081V267.299H144.436C143.68 269.944 141.966 272.282 139.013 274.049L138.169 273.047ZM159.157 264.223C159.148 266.077 160.73 267.879 162.989 268.6L162.304 269.689C160.528 269.109 159.148 267.896 158.472 266.376C157.777 268.055 156.327 269.426 154.499 270.059L153.813 268.969C156.09 268.178 157.769 266.227 157.769 264.205V263.766H154.235V262.623H162.655V263.766H159.157V264.223ZM156.556 271.781V270.656H166.681V274.4H157.962V276.141H167.278V277.248H156.591V273.346H165.31V271.781H156.556ZM162.163 266.438V265.295H165.31V261.797H166.681V269.883H165.31V266.438H162.163ZM174.415 262.939C176.867 262.948 178.607 264.442 178.616 266.613C178.607 268.793 176.867 270.278 174.415 270.287C171.945 270.278 170.188 268.793 170.196 266.613C170.188 264.442 171.945 262.948 174.415 262.939ZM169.388 272.836C172.271 272.845 176.252 272.818 179.706 272.309L179.812 273.328C176.234 273.996 172.394 274.014 169.581 274.014L169.388 272.836ZM171.55 266.613C171.541 268.072 172.745 269.074 174.415 269.074C176.067 269.074 177.271 268.072 177.263 266.613C177.271 265.163 176.067 264.152 174.415 264.152C172.745 264.152 171.541 265.163 171.55 266.613ZM180.743 277.459V261.797H182.114V277.459H180.743ZM202.329 261.814V273.381H200.94V269.18H197.249V270.709H190.165V262.852H191.536V265.629H195.896V262.852H197.249V264.68H200.94V261.814H202.329ZM191.536 269.566H195.896V266.719H191.536V269.566ZM192.222 277.09V272.238H193.61V275.93H202.681V277.09H192.222ZM197.249 268.037H200.94V265.84H197.249V268.037ZM217.06 261.797V268.459H219.556V269.619H217.06V277.424H215.671V261.797H217.06ZM204.737 273.258C206.012 273.258 207.497 273.249 209.044 273.205V271.482C207.225 271.271 206.038 270.199 206.056 268.652C206.038 266.886 207.532 265.743 209.747 265.752C211.927 265.743 213.447 266.886 213.456 268.652C213.447 270.208 212.243 271.271 210.433 271.482V273.152C211.883 273.082 213.359 272.959 214.722 272.766L214.81 273.82C211.399 274.4 207.708 274.436 204.966 274.436L204.737 273.258ZM205.019 264.838V263.713H209.044V261.832H210.433V263.713H214.44V264.838H205.019ZM207.339 268.652C207.348 269.733 208.297 270.445 209.747 270.428C211.171 270.445 212.129 269.733 212.138 268.652C212.129 267.562 211.171 266.824 209.747 266.824C208.297 266.824 207.348 267.562 207.339 268.652ZM234.778 269.057V270.146H220.47V269.057H234.778ZM222.192 272.432V271.395H232.985V274.717H223.599V276.211H233.495V277.213H222.21V273.768H231.614V272.432H222.192ZM222.28 263.273V262.271H232.933V265.506H223.704V266.877H233.214V267.879H222.333V264.557H231.544V263.273H222.28ZM252.778 261.797V265.629H255.134V266.771H252.778V270.674H251.407V261.797H252.778ZM240.544 269.725C244.385 268.688 246.731 266.604 247.021 263.959H241.247V262.816H248.507C248.489 266.754 245.738 269.575 241.106 270.832L240.544 269.725ZM242.882 277.213V271.395H252.778V277.213H242.882ZM244.253 276.088H251.407V272.537H244.253V276.088ZM261.339 264.328C261.339 266.455 262.956 268.406 265.224 269.18L264.468 270.27C262.745 269.637 261.383 268.345 260.697 266.71C260.029 268.564 258.632 269.997 256.804 270.709L256.065 269.602C258.403 268.731 259.977 266.64 259.985 264.223V262.605H261.339V264.328ZM258.14 274.541C258.148 272.757 260.108 271.711 263.325 271.711C266.533 271.711 268.476 272.757 268.476 274.541C268.476 276.36 266.533 277.389 263.325 277.389C260.108 277.389 258.148 276.36 258.14 274.541ZM259.528 274.541C259.511 275.648 260.97 276.29 263.325 276.299C265.689 276.29 267.131 275.648 267.14 274.541C267.131 273.478 265.689 272.818 263.325 272.818C260.97 272.818 259.511 273.478 259.528 274.541ZM266.964 271.307V261.797H268.335V265.875H270.69V267.035H268.335V271.307H266.964ZM283.892 261.744V265.541H286.265V266.684H283.892V270.393H282.521V261.744H283.892ZM271.71 264.328V263.221H275.683V261.639H277.054V263.221H281.026V264.328H271.71ZM272.606 267.598C272.598 266.016 274.092 265.04 276.368 265.031C278.636 265.04 280.112 266.016 280.13 267.598C280.112 269.188 278.636 270.155 276.368 270.164C274.092 270.155 272.598 269.188 272.606 267.598ZM273.925 272.238V271.201H283.892V274.664H275.313V276.193H284.472V277.248H273.96V273.645H282.521V272.238H273.925ZM273.925 267.598C273.916 268.538 274.883 269.127 276.368 269.127C277.845 269.127 278.812 268.538 278.829 267.598C278.812 266.666 277.845 266.06 276.368 266.051C274.883 266.06 273.916 266.666 273.925 267.598ZM299.589 263.256C299.598 265.462 302.463 267.36 305.284 267.756L304.722 268.881C302.296 268.477 299.888 267.132 298.886 265.216C297.884 267.149 295.484 268.477 293.05 268.881L292.487 267.756C295.309 267.36 298.165 265.497 298.165 263.256V262.359H299.589V263.256ZM291.749 271.764V270.604H305.987V271.764H299.519V277.424H298.165V271.764H291.749ZM102.327 298.291C102.318 299.671 103.065 301.139 104.551 301.982C106.045 301.06 106.836 299.495 106.827 298.291V297.43H108.181V298.291C108.172 299.899 109.358 301.499 111.362 302.193L110.677 303.213C109.112 302.659 108.022 301.569 107.478 300.26C106.994 301.525 106.036 302.729 104.595 303.336C103.074 302.756 102.107 301.613 101.642 300.304C101.079 301.561 100.007 302.65 98.5127 303.213L97.8096 302.193C99.7871 301.455 100.974 299.785 100.991 298.291V297.43H102.327V298.291ZM97.4053 292.385C97.3965 290.205 99.1279 288.72 101.501 288.729C103.874 288.72 105.588 290.205 105.597 292.385C105.588 294.529 103.874 296.006 101.501 296.006C99.1279 296.006 97.3965 294.529 97.4053 292.385ZM98.7588 292.385C98.7412 293.835 99.8926 294.854 101.501 294.863C103.092 294.854 104.243 293.835 104.243 292.385C104.243 290.926 103.092 289.889 101.501 289.906C99.8926 289.889 98.7412 290.926 98.7588 292.385ZM108.567 296.744V287.814H109.938V296.744H108.567ZM125.231 292.543V293.65H114.526V288.377H115.897V292.543H125.231ZM112.575 296.902V295.777H126.884V296.902H112.575ZM114.438 303.037V298.502H115.81V301.895H125.319V303.037H114.438ZM137.993 291.172C138.002 293.088 139.566 294.802 141.878 295.479L141.228 296.586C139.435 296.032 138.037 294.863 137.343 293.36C136.675 295.057 135.233 296.357 133.388 296.99L132.685 295.9C135.014 295.18 136.631 293.308 136.64 291.172V290.855H133.106V289.713H136.64V287.727H138.028V289.713H141.526V290.855H137.993V291.172ZM134.688 300.576C134.697 298.792 136.648 297.772 139.874 297.781C143.1 297.772 145.024 298.792 145.024 300.576C145.024 302.36 143.1 303.38 139.874 303.371C136.648 303.38 134.697 302.36 134.688 300.576ZM136.077 300.576C136.06 301.666 137.501 302.299 139.874 302.299C142.238 302.299 143.68 301.666 143.688 300.576C143.68 299.486 142.238 298.871 139.874 298.871C137.501 298.871 136.06 299.486 136.077 300.576ZM143.513 297.395V287.797H144.884V291.875H147.239V293.018H144.884V297.395H143.513ZM160.44 287.797V291.734H162.796V292.912H160.44V296.99H159.069V287.797H160.44ZM148.892 295.988V288.729H150.245V291.137H154.798V288.729H156.169V295.988H148.892ZM149.858 298.871V297.746H154.833V303.424H153.479V298.871H149.858ZM150.245 294.863H154.798V292.227H150.245V294.863ZM155.589 298.871V297.746H160.44V303.424H159.069V298.871H155.589ZM182.536 295.426V296.551H176.085V298.071C179.038 298.194 180.778 299.117 180.796 300.734C180.778 302.448 178.774 303.389 175.417 303.389C172.024 303.389 170.029 302.448 170.021 300.734C170.029 299.126 171.761 298.194 174.731 298.08V296.551H168.298V295.426H182.536ZM169.634 289.537V288.395H181.183V289.537H178.774V292.824H181.13V293.967H169.687V292.824H172.042V289.537H169.634ZM171.427 300.734C171.418 301.754 172.912 302.334 175.417 302.316C177.896 302.334 179.39 301.754 179.39 300.734C179.39 299.715 177.896 299.126 175.417 299.135C172.912 299.126 171.418 299.715 171.427 300.734ZM173.413 292.824H177.403V289.537H173.413V292.824ZM196.81 287.814V297.201H195.421V295.092H191.272V293.949H195.421V291.84H191.431C190.402 294.354 187.994 296.173 184.646 297.166L184.065 296.076C187.836 294.96 190.2 292.842 190.473 290.135H184.856V288.975H191.976C191.976 289.59 191.905 290.179 191.773 290.732H195.421V287.814H196.81ZM186.474 300.348C186.465 298.484 188.495 297.359 191.694 297.359C194.858 297.359 196.897 298.484 196.897 300.348C196.897 302.22 194.858 303.354 191.694 303.354C188.495 303.354 186.465 302.22 186.474 300.348ZM187.827 300.348C187.836 301.525 189.339 302.237 191.694 302.229C194.015 302.237 195.518 301.525 195.526 300.348C195.518 299.17 194.015 298.458 191.694 298.467C189.339 298.458 187.836 299.17 187.827 300.348ZM212.296 287.797V303.459H210.907V287.797H212.296ZM199.991 294.459C200 291.137 201.652 289.019 203.981 289.01C206.302 289.019 207.98 291.137 207.972 294.459C207.98 297.79 206.302 299.899 203.981 299.891C201.652 299.899 200 297.79 199.991 294.459ZM201.327 294.459C201.327 296.999 202.417 298.669 203.981 298.66C205.555 298.669 206.636 296.999 206.636 294.459C206.636 291.919 205.555 290.249 203.981 290.24C202.417 290.249 201.327 291.919 201.327 294.459ZM223.669 289.01C225.972 289.019 227.606 291.137 227.624 294.459C227.606 297.79 225.972 299.899 223.669 299.891C221.349 299.899 219.723 297.79 219.731 294.459C219.723 291.137 221.349 289.019 223.669 289.01ZM221.032 294.459C221.041 296.999 222.122 298.669 223.669 298.66C225.233 298.669 226.288 296.999 226.288 294.459C226.288 291.919 225.233 290.249 223.669 290.24C222.122 290.249 221.041 291.919 221.032 294.459ZM230.208 303.424V287.797H231.579V294.037H234.198V295.232H231.579V303.424H230.208ZM249.333 295.865V297.008H235.024V295.865H249.333ZM236.835 289.291V288.184H247.487V291.875H238.259V293.439H247.821V294.512H236.888V290.838H246.099V289.291H236.835ZM236.976 303.213V298.432H247.487V303.213H236.976ZM238.329 302.088H246.134V299.557H238.329V302.088ZM262.692 287.797V293.984H265.312V295.145H262.692V303.459H261.321V287.797H262.692ZM251.284 299.539V289.326H258.579V290.469H252.655V298.379C255.485 298.37 257.48 298.247 259.81 297.816L259.985 299.012C257.533 299.451 255.485 299.539 252.515 299.539H251.284ZM280.446 295.742V296.885H274.101V300.084H272.712V296.885H266.138V295.742H280.446ZM267.755 291.348C267.746 289.405 269.935 288.21 273.274 288.201C276.614 288.21 278.776 289.405 278.776 291.348C278.776 293.272 276.614 294.468 273.274 294.459C269.935 294.468 267.746 293.272 267.755 291.348ZM267.983 303.09V298.52H269.372V301.912H278.847V303.09H267.983ZM269.231 291.348C269.214 292.561 270.84 293.334 273.274 293.334C275.7 293.334 277.317 292.561 277.317 291.348C277.317 290.1 275.7 289.335 273.274 289.326C270.84 289.335 269.214 290.1 269.231 291.348ZM110.097 318.596C110.079 321.101 111.89 323.86 114.157 324.941L113.366 326.031C111.608 325.17 110.123 323.324 109.42 321.206C108.699 323.5 107.135 325.521 105.386 326.418L104.542 325.328C106.792 324.229 108.726 321.259 108.743 318.596V316.557H105.104V315.414H113.612V316.557H110.097V318.596ZM115.528 329.424V313.797H116.899V320.125H119.519V321.303H116.899V329.424H115.528ZM133.265 313.797V329.459H131.894V313.797H133.265ZM121.241 316.398V315.256H128.519V320.811H122.683V324.502C125.275 324.511 127.587 324.388 130.382 323.939L130.522 325.1C127.648 325.548 125.275 325.662 122.577 325.662H121.276V319.686H127.13V316.398H121.241ZM149.313 313.797V329.424H147.978V313.797H149.313ZM136.112 320.547C136.121 317.225 137.439 315.124 139.47 315.115C141.368 315.124 142.651 316.952 142.827 319.896H144.849V314.131H146.167V328.633H144.849V321.039H142.836C142.704 324.08 141.395 325.987 139.47 325.979C137.439 325.987 136.121 323.869 136.112 320.547ZM137.413 320.547C137.396 323.078 138.204 324.678 139.47 324.66C140.744 324.678 141.553 323.078 141.544 320.547C141.553 318.007 140.744 316.416 139.47 316.416C138.204 316.416 137.396 318.007 137.413 320.547ZM160.353 314.693C162.69 314.702 164.413 316.188 164.413 318.314C164.413 320.45 162.69 321.918 160.353 321.936C158.023 321.918 156.283 320.45 156.292 318.314C156.283 316.188 158.023 314.702 160.353 314.693ZM157.646 318.314C157.637 319.747 158.814 320.793 160.353 320.793C161.899 320.793 163.068 319.747 163.06 318.314C163.068 316.891 161.899 315.854 160.353 315.854C158.814 315.854 157.637 316.891 157.646 318.314ZM157.663 328.879V323.377H158.999V327.71C159.975 327.666 161.214 327.499 162.04 327.033L162.444 328.123L162.286 328.202C164.044 327.49 165.02 325.987 165.011 324.52V324.186H162.444V323.061H168.896V324.186H166.329V324.52C166.32 326.102 167.384 327.666 169.353 328.299L168.667 329.354C167.19 328.844 166.188 327.833 165.67 326.611C165.151 327.824 164.149 328.826 162.69 329.354L162.031 328.316C160.845 328.791 159.465 328.87 158.401 328.879H157.663ZM166.839 322.252V313.797H168.21V317.541H170.565V318.684H168.21V322.252H166.839ZM184.927 313.797V329.424H183.608V313.797H184.927ZM171.567 325.047C174.96 323.034 176.665 320.213 176.929 316.943H172.235V315.801H178.3C178.3 317.339 178.054 318.824 177.518 320.213H180.321V314.219H181.64V328.633H180.321V321.338H177.008C176.067 323.157 174.556 324.766 172.376 326.049L171.567 325.047ZM200.94 320.547V321.689H197.513V324.766C199.042 324.704 200.58 324.599 202.03 324.432L202.136 325.469C198.673 325.97 194.894 326.04 191.905 326.031L191.712 324.871C193.074 324.871 194.586 324.862 196.142 324.818V321.689H192.907V315.291H200.87V316.416H194.261V320.547H200.94ZM203.067 329.459V313.797H204.438V329.459H203.067ZM212.56 324.273C212.551 325.68 213.298 327.147 214.783 328.009C216.286 327.068 217.051 325.478 217.06 324.273V323.324H218.413V324.273C218.404 325.891 219.573 327.517 221.612 328.193L220.892 329.23C219.336 328.659 218.246 327.569 217.719 326.251C217.227 327.525 216.269 328.738 214.81 329.354C213.315 328.773 212.349 327.622 211.874 326.304C211.312 327.561 210.239 328.659 208.745 329.23L208.06 328.193C210.037 327.481 211.224 325.785 211.241 324.273V323.324H212.56V324.273ZM207.444 318.35C207.444 316.205 209.149 314.685 211.487 314.693C213.544 314.685 215.152 315.924 215.46 317.734H218.747V313.797H220.136V322.727H218.747V318.877H215.469C215.205 320.74 213.579 322.006 211.487 322.006C209.149 322.006 207.444 320.503 207.444 318.35ZM208.78 318.35C208.763 319.8 209.914 320.854 211.487 320.863C213.025 320.854 214.177 319.8 214.177 318.35C214.177 316.899 213.025 315.854 211.487 315.871C209.914 315.854 208.763 316.899 208.78 318.35ZM225.919 323.184V325.012H233.724V323.184H235.112V329.213H224.548V323.184H225.919ZM222.737 322.076V320.934H236.976V322.076H222.737ZM223.546 318.719C226.332 318.341 229.153 316.697 229.153 314.711V313.973H230.577V314.711C230.568 316.636 233.416 318.367 236.167 318.719L235.657 319.826C233.24 319.466 230.858 318.235 229.865 316.486C228.872 318.244 226.481 319.466 224.073 319.826L223.546 318.719ZM225.919 328.105H233.724V326.102H225.919V328.105ZM251.179 313.797V329.424H249.808V313.797H251.179ZM239.313 325.398V315.344H240.667V324.203C243.058 324.186 245.519 324.001 248.138 323.447L248.331 324.625C245.554 325.205 243.084 325.398 240.579 325.398H239.313ZM265.944 313.797V319.984H268.563V321.145H265.944V329.459H264.573V313.797H265.944ZM254.536 325.539V315.326H261.831V316.469H255.907V324.379C258.737 324.37 260.732 324.247 263.062 323.816L263.237 325.012C260.785 325.451 258.737 325.539 255.767 325.539H254.536ZM271.06 328.105C270.444 328.097 269.917 327.587 269.935 326.963C269.917 326.348 270.444 325.838 271.06 325.838C271.684 325.838 272.193 326.348 272.185 326.963C272.193 327.587 271.684 328.097 271.06 328.105ZM85.0127 344.596C85.0215 347.25 86.9463 349.948 89.249 350.941L88.4756 352.031C86.6475 351.205 85.0742 349.403 84.3447 347.241C83.6152 349.535 82.0332 351.521 80.249 352.418L79.4229 351.328C81.6641 350.256 83.6152 347.303 83.624 344.596V342.557H79.9326V341.414H88.7393V342.557H85.0127V344.596ZM90.9189 355.424V339.797H92.3076V355.424H90.9189ZM107.407 340.641V341.801C107.407 343.014 107.407 344.438 106.994 346.389H109.288V347.531H94.9795V346.389H105.605C106.045 344.42 106.045 343.014 106.036 341.801V341.783H96.79V340.641H107.407ZM96.7373 355.213V349.693H107.478V355.213H96.7373ZM98.1084 354.088H106.106V350.783H98.1084V354.088ZM120.38 343.172C120.389 345.088 121.953 346.802 124.265 347.479L123.614 348.586C121.821 348.032 120.424 346.863 119.729 345.36C119.062 347.057 117.62 348.357 115.774 348.99L115.071 347.9C117.4 347.18 119.018 345.308 119.026 343.172V342.855H115.493V341.713H119.026V339.727H120.415V341.713H123.913V342.855H120.38V343.172ZM117.075 352.576C117.084 350.792 119.035 349.772 122.261 349.781C125.486 349.772 127.411 350.792 127.411 352.576C127.411 354.36 125.486 355.38 122.261 355.371C119.035 355.38 117.084 354.36 117.075 352.576ZM118.464 352.576C118.446 353.666 119.888 354.299 122.261 354.299C124.625 354.299 126.066 353.666 126.075 352.576C126.066 351.486 124.625 350.871 122.261 350.871C119.888 350.871 118.446 351.486 118.464 352.576ZM125.899 349.395V339.797H127.271V343.875H129.626V345.018H127.271V349.395H125.899ZM142.827 339.797V343.734H145.183V344.912H142.827V348.99H141.456V339.797H142.827ZM131.278 347.988V340.729H132.632V343.137H137.185V340.729H138.556V347.988H131.278ZM132.245 350.871V349.746H137.22V355.424H135.866V350.871H132.245ZM132.632 346.863H137.185V344.227H132.632V346.863ZM137.976 350.871V349.746H142.827V355.424H141.456V350.871H137.976ZM159.562 339.797V355.424H158.226V339.797H159.562ZM146.36 346.547C146.369 343.225 147.688 341.124 149.718 341.115C151.616 341.124 152.899 342.952 153.075 345.896H155.097V340.131H156.415V354.633H155.097V347.039H153.084C152.952 350.08 151.643 351.987 149.718 351.979C147.688 351.987 146.369 349.869 146.36 346.547ZM147.661 346.547C147.644 349.078 148.452 350.678 149.718 350.66C150.992 350.678 151.801 349.078 151.792 346.547C151.801 344.007 150.992 342.416 149.718 342.416C148.452 342.416 147.644 344.007 147.661 346.547ZM174.362 344.543V345.65H163.657V340.377H165.028V344.543H174.362ZM161.706 348.902V347.777H176.015V348.902H161.706ZM163.569 355.037V350.502H164.94V353.895H174.45V355.037H163.569ZM196.089 348.885V350.027H189.567V355.424H188.214V350.027H181.78V348.885H196.089ZM183.626 346.758V340.676H194.226V346.758H183.626ZM184.979 345.668H192.854V341.801H184.979V345.668ZM210.31 339.797V350.537H208.921V345.229H205.66C205.361 347.127 203.762 348.419 201.661 348.41C199.323 348.419 197.592 346.854 197.601 344.631C197.592 342.398 199.323 340.869 201.661 340.869C203.788 340.869 205.405 342.161 205.669 344.104H208.921V339.797H210.31ZM198.919 344.631C198.919 346.16 200.062 347.241 201.661 347.232C203.199 347.241 204.368 346.16 204.368 344.631C204.368 343.146 203.199 342.038 201.661 342.047C200.062 342.038 198.919 343.146 198.919 344.631ZM199.253 354.229C201.978 353.78 204.544 352.049 204.562 349.904V349.289H205.968V349.904C205.959 352.11 208.49 353.789 211.294 354.229L210.714 355.336C208.35 354.914 206.179 353.684 205.247 351.864C204.307 353.666 202.127 354.914 199.763 355.336L199.253 354.229ZM225.796 339.797V355.459H224.407V339.797H225.796ZM213.491 346.459C213.5 343.137 215.152 341.019 217.481 341.01C219.802 341.019 221.48 343.137 221.472 346.459C221.48 349.79 219.802 351.899 217.481 351.891C215.152 351.899 213.5 349.79 213.491 346.459ZM214.827 346.459C214.827 348.999 215.917 350.669 217.481 350.66C219.055 350.669 220.136 348.999 220.136 346.459C220.136 343.919 219.055 342.249 217.481 342.24C215.917 342.249 214.827 343.919 214.827 346.459ZM247.294 352.277V353.42H232.985V352.277H239.419V348.902H234.673V340.904H236.062V343.734H244.183V340.904H245.536V348.902H240.772V352.277H247.294ZM236.062 347.777H244.183V344.859H236.062V347.777ZM261.427 339.797V355.459H260.038V339.797H261.427ZM249.122 346.459C249.131 343.137 250.783 341.019 253.112 341.01C255.433 341.019 257.111 343.137 257.103 346.459C257.111 349.79 255.433 351.899 253.112 351.891C250.783 351.899 249.131 349.79 249.122 346.459ZM250.458 346.459C250.458 348.999 251.548 350.669 253.112 350.66C254.686 350.669 255.767 348.999 255.767 346.459C255.767 343.919 254.686 342.249 253.112 342.24C251.548 342.249 250.458 343.919 250.458 346.459ZM278.724 346.037V347.197H276.192V355.424H274.821V339.797H276.192V346.037H278.724ZM264.749 351.451V341.344H266.12V350.291C268.405 350.291 270.734 350.115 273.31 349.57L273.485 350.748C270.787 351.293 268.361 351.451 265.997 351.451H264.749ZM293.964 352.26V353.42H279.655V352.26H283.206V348.05C281.87 347.355 281.062 346.23 281.062 344.807C281.062 342.39 283.435 340.799 286.774 340.781C290.114 340.799 292.487 342.39 292.487 344.807C292.487 346.204 291.705 347.312 290.413 348.006V352.26H293.964ZM282.397 344.807C282.389 346.556 284.208 347.725 286.774 347.725C289.314 347.725 291.151 346.556 291.151 344.807C291.151 343.058 289.314 341.906 286.774 341.924C284.208 341.906 282.389 343.058 282.397 344.807ZM284.56 352.26H289.024V348.542C288.348 348.718 287.592 348.814 286.774 348.814C285.975 348.814 285.228 348.727 284.56 348.551V352.26ZM297.708 350.326C297.726 347.971 298.446 347.25 299.659 346.512C300.389 346.072 300.942 345.369 300.942 344.385C300.942 343.189 300.011 342.425 298.851 342.434C297.849 342.425 296.838 343.022 296.741 344.473H295.142C295.229 342.337 296.838 341.098 298.851 341.098C301.057 341.098 302.489 342.513 302.489 344.455C302.489 345.835 301.839 346.793 300.749 347.461C299.65 348.129 299.255 348.806 299.22 350.326V350.414H297.708V350.326ZM297.392 352.963C297.374 352.348 297.901 351.838 298.517 351.838C299.141 351.838 299.65 352.348 299.642 352.963C299.65 353.587 299.141 354.097 298.517 354.105C297.901 354.097 297.374 353.587 297.392 352.963Z" fill="black"/>
<rect x="49" y="393" width="284" height="54" rx="27" stroke="black" stroke-width="2"/>
<path d="M187.914 411.18V416.375H190.414V417.898H187.914V422.957H186.059V411.18H187.914ZM174.027 421.004C175.385 421.004 176.957 421.004 178.598 420.965V419.783C176.605 419.559 175.336 418.621 175.355 417.215C175.336 415.613 177.006 414.617 179.516 414.637C182.025 414.617 183.666 415.613 183.676 417.215C183.666 418.611 182.426 419.549 180.453 419.783V420.896C182.016 420.818 183.598 420.691 185.062 420.477L185.219 421.805C181.459 422.459 177.309 422.488 174.223 422.488L174.027 421.004ZM174.477 414.051V412.664H178.598V411.023H180.453V412.664H184.574V414.051H174.477ZM176.215 425.223V423.777H187.914V428.66H186.059V425.223H176.215ZM177.113 417.215C177.113 418.035 178.021 418.572 179.516 418.562C180.99 418.572 181.908 418.035 181.898 417.215C181.908 416.375 180.99 415.887 179.516 415.906C178.021 415.887 177.113 416.375 177.113 417.215ZM205.941 411.18V423.895H204.086V411.18H205.941ZM191.781 416.688C191.791 414.158 193.803 412.361 196.449 412.352C199.086 412.361 201.098 414.158 201.098 416.688C201.098 419.256 199.086 421.043 196.449 421.043C193.803 421.043 191.791 419.256 191.781 416.688ZM193.598 416.688C193.588 418.338 194.818 419.422 196.449 419.422C198.051 419.422 199.281 418.338 199.281 416.688C199.281 415.076 198.051 413.973 196.449 413.973C194.818 413.973 193.588 415.076 193.598 416.688ZM194.496 428.289V422.605H196.371V426.785H206.469V428.289H194.496Z" fill="black"/>
<defs>
<linearGradient id="paint0_linear_1237_5811" x1="197.672" y1="200.925" x2="197.672" y2="119.088" gradientUnits="userSpaceOnUse">
<stop stop-color="#F49C24"/>
<stop offset="0.37" stop-color="#F6A723"/>
<stop offset="1" stop-color="#FCC31E"/>
</linearGradient>
<linearGradient id="paint1_linear_1237_5811" x1="174.547" y1="144.488" x2="174.547" y2="193.278" gradientUnits="userSpaceOnUse">
<stop stop-color="#F8D1DD"/>
<stop offset="1" stop-color="#EB7B99"/>
</linearGradient>
<linearGradient id="paint2_linear_1237_5811" x1="232.523" y1="169.766" x2="232.523" y2="203.164" gradientUnits="userSpaceOnUse">
<stop stop-color="#F8D1DD"/>
<stop offset="1" stop-color="#EBDA7B"/>
</linearGradient>
<linearGradient id="paint3_linear_1237_5811" x1="150.873" y1="184.325" x2="150.873" y2="208.555" gradientUnits="userSpaceOnUse">
<stop stop-color="#F8D1DD"/>
<stop offset="1" stop-color="#EBDA7B"/>
</linearGradient>
<linearGradient id="paint4_linear_1237_5811" x1="251.34" y1="138.202" x2="251.34" y2="129.781" gradientUnits="userSpaceOnUse">
<stop stop-color="#F49C24"/>
<stop offset="0.37" stop-color="#F6A723"/>
<stop offset="1" stop-color="#FCC31E"/>
</linearGradient>
<linearGradient id="paint5_linear_1237_5811" x1="264.34" y1="189.202" x2="264.34" y2="180.781" gradientUnits="userSpaceOnUse">
<stop stop-color="#F49C24"/>
<stop offset="0.37" stop-color="#F6A723"/>
<stop offset="1" stop-color="#FCC31E"/>
</linearGradient>
<linearGradient id="paint6_linear_1237_5811" x1="223.923" y1="126.365" x2="226.501" y2="120.664" gradientUnits="userSpaceOnUse">
<stop stop-color="#F8D1DD"/>
<stop offset="1" stop-color="#EB7B99"/>
</linearGradient>
<linearGradient id="paint7_linear_1237_5811" x1="118.138" y1="154.555" x2="119.482" y2="160.665" gradientUnits="userSpaceOnUse">
<stop stop-color="#F8D1DD"/>
<stop offset="1" stop-color="#EBDA7B"/>
</linearGradient>
<linearGradient id="paint8_linear_1237_5811" x1="157.343" y1="152.89" x2="148.558" y2="151.235" gradientUnits="userSpaceOnUse">
<stop stop-color="#F49C24"/>
<stop offset="0.37" stop-color="#F6A723"/>
<stop offset="1" stop-color="#FCC31E"/>
</linearGradient>
</defs>
</svg>
