<svg width="382" height="436" viewBox="0 0 382 436" fill="none" xmlns="http://www.w3.org/2000/svg">
<g clip-path="url(#clip0_14_233)">
<rect width="382" height="436" rx="20" fill="#EEEEEE"/>
<rect width="382" height="64" fill="#455767"/>
<path d="M165.32 21.9922V42.9922H163.211V21.9922H165.32ZM147.156 36.9219C151.621 34.2734 153.754 30.7461 154.141 26.4219H148.188V24.5938H156.344C156.344 25.6719 156.262 26.7148 156.098 27.7344H158.922V22.5312H161.031V41.9609H158.922V34.8125H155.336V32.9844H158.922V29.5625H155.688C154.668 33.0898 152.43 36.1602 148.469 38.5156L147.156 36.9219ZM175.469 25.1562C175.469 27.5352 177.391 29.9141 180.508 30.8516L179.453 32.6094C177.062 31.8711 175.293 30.3242 174.379 28.3906C173.43 30.5234 171.578 32.293 169.117 33.1016L168.016 31.3438C171.191 30.2891 173.242 27.6992 173.242 25.1328V24.8047H168.672V23H179.992V24.8047H175.469V25.1562ZM171.766 35.5391V33.7578H185.5V39.0078H174.039V41H186.25V42.7578H171.812V37.3203H183.297V35.5391H171.766ZM179.383 28.3672V26.5625H183.297V21.9922H185.5V32.7969H183.297V28.3672H179.383ZM195.602 23.4922C198.918 23.4805 201.309 25.5312 201.32 28.4844C201.309 31.4375 198.918 33.4883 195.602 33.5C192.297 33.4883 189.871 31.4375 189.883 28.4844C189.871 25.5312 192.297 23.4805 195.602 23.4922ZM188.875 36.6641C192.695 36.6641 197.992 36.6289 202.586 35.9609L202.75 37.5781C198.004 38.4922 192.906 38.5156 189.156 38.5156L188.875 36.6641ZM192.086 28.4844C192.062 30.3477 193.562 31.5547 195.602 31.5547C197.641 31.5547 199.141 30.3477 199.141 28.4844C199.141 26.6445 197.641 25.4141 195.602 25.4141C193.562 25.4141 192.062 26.6445 192.086 28.4844ZM203.898 43.0391V21.9922H206.125V43.0391H203.898ZM222.719 26.4922C222.719 28.9297 224.617 31.1914 227.828 32.0938L226.797 33.8516C224.383 33.1484 222.59 31.6602 221.664 29.75C220.738 31.9062 218.91 33.582 216.438 34.3906L215.336 32.6328C218.547 31.6836 220.516 29.2109 220.516 26.4922V26.2344H215.945V24.4297H220.516V21.8984H222.742V24.4297H227.289V26.2344H222.719V26.4922ZM218.031 39.125C218.031 36.6641 220.691 35.2695 225.086 35.2812C229.434 35.2695 232.047 36.6641 232.047 39.125C232.047 41.5391 229.434 42.9336 225.086 42.9453C220.691 42.9336 218.031 41.5391 218.031 39.125ZM220.258 39.125C220.246 40.4727 222.027 41.2227 225.086 41.2344C228.098 41.2227 229.879 40.4727 229.867 39.125C229.879 37.7422 228.098 37.0156 225.086 37.0156C222.027 37.0156 220.246 37.7422 220.258 39.125ZM229.633 34.7891V21.9922H231.859V27.2891H234.906V29.1172H231.859V34.7891H229.633Z" fill="white"/>
<g clip-path="url(#clip1_14_233)">
<rect x="136" y="104" width="110" height="110" rx="55" fill="#73BF91"/>
<g clip-path="url(#clip2_14_233)">
<path d="M196.091 104C189.446 104 187.492 109.52 186.795 114.956C185.59 124.372 189.204 126.083 188.687 132.076C188.176 138.039 182.034 141.444 182.66 150.565C183.287 159.692 187.589 159.112 187.54 165.707C187.483 173.508 183.34 169.884 182.325 180.015C181.284 190.457 183.004 196.793 199.361 196.964C205.79 197.03 215.029 196.622 215.89 186.522C216.949 174.109 209.964 174.706 210.723 165.461C211.177 159.946 217.522 147.472 212.099 137.381C207.44 128.706 202 128.465 205.04 116.834C207.753 106.475 199.661 104 196.091 104Z" fill="url(#paint0_linear_14_233)"/>
<path d="M200.235 217.621V160.113L207.656 154.04C208.208 153.588 208.287 152.777 207.833 152.228C207.378 151.684 206.566 151.605 206.019 152.053L200.239 156.774V139.408C200.239 137.71 198.902 136.258 197.199 136.222C195.46 136.192 194.04 137.583 194.04 139.303V217.244C194.04 217.244 193.113 220.938 189.367 221.837C189.367 221.837 193.629 221.065 194.273 220.811C194.918 220.556 195.888 222.996 195.888 222.996L197.697 220.876L201.96 222.737L200.927 220.683L205.9 221.069C205.9 221.069 200.61 220.591 200.239 217.612L200.235 217.621Z" fill="white"/>
<path d="M197.693 184.144H200.235V185.605H197.693C197.3 185.605 196.978 185.284 196.978 184.894V184.854C196.978 184.464 197.3 184.144 197.693 184.144Z" fill="#9A9A99"/>
<path d="M195.937 181.546H200.235V183.007H195.937C195.544 183.007 195.222 182.687 195.222 182.296V182.257C195.222 181.866 195.544 181.546 195.937 181.546Z" fill="#9A9A99"/>
<path d="M195.937 164.22H200.235V165.681H195.937C195.544 165.681 195.222 165.36 195.222 164.97V164.93C195.222 164.54 195.544 164.22 195.937 164.22Z" fill="#9A9A99"/>
<path d="M195.95 195.45H194.031V193.989H195.95C196.343 193.989 196.665 194.31 196.665 194.7V194.74C196.665 195.13 196.343 195.45 195.95 195.45Z" fill="#9A9A99"/>
<path d="M197.839 175.329H194.031V173.868H197.839C198.231 173.868 198.553 174.188 198.553 174.579V174.618C198.553 175.009 198.231 175.329 197.839 175.329Z" fill="#9A9A99"/>
<path d="M195.95 178.532H194.031V177.071H195.95C196.343 177.071 196.665 177.391 196.665 177.782V177.821C196.665 178.212 196.343 178.532 195.95 178.532Z" fill="#9A9A99"/>
<path d="M195.95 161.899H194.031V160.437H195.95C196.343 160.437 196.665 160.758 196.665 161.148V161.188C196.665 161.578 196.343 161.899 195.95 161.899Z" fill="#9A9A99"/>
<path d="M200.296 192.261L194.026 192.204V190.743L200.296 190.8V192.261Z" fill="#9A9A99"/>
<path d="M200.296 170.309L194.026 170.252V168.791L200.296 168.848V170.309Z" fill="#9A9A99"/>
<path d="M195.95 145.248H200.248V146.709H195.95C195.557 146.709 195.235 146.388 195.235 145.998V145.958C195.235 145.568 195.557 145.248 195.95 145.248Z" fill="#9A9A99"/>
<path d="M197.83 156.348H194.022V154.887H197.83C198.223 154.887 198.545 155.207 198.545 155.598V155.637C198.545 156.028 198.223 156.348 197.83 156.348Z" fill="#9A9A99"/>
<path d="M195.959 142.747H194.04V141.286H195.959C196.352 141.286 196.674 141.606 196.674 141.996V142.036C196.674 142.426 196.352 142.747 195.959 142.747Z" fill="#9A9A99"/>
<path d="M200.31 151.46L194.044 151.408V149.947L200.31 149.999V151.46Z" fill="#9A9A99"/>
<path d="M166.807 142.927C166.357 148.17 160.956 151.162 161.507 159.187C162.059 167.212 165.84 166.703 165.796 172.499C165.743 179.361 162.103 176.171 161.212 185.078C160.294 194.261 161.808 199.834 176.192 199.983C181.844 200.04 189.967 199.68 190.726 190.8C191.657 179.883 185.515 180.41 186.186 172.284C186.583 167.436 189.579 157.414 187.395 147.595C180.979 118.716 167.23 137.977 166.807 142.927Z" fill="url(#paint1_linear_14_233)"/>
<path d="M176.964 218.143V167.58L183.49 162.241C183.975 161.841 184.046 161.131 183.644 160.648C183.247 160.17 182.532 160.1 182.047 160.494L176.964 164.645V149.376C176.964 147.885 175.79 146.603 174.29 146.577C172.763 146.551 171.515 147.775 171.515 149.289V217.823C171.515 217.823 170.698 221.069 167.407 221.859C167.407 221.859 171.153 221.184 171.722 220.955C172.291 220.732 173.143 222.873 173.143 222.873L174.731 221.008L178.477 222.645L177.568 220.837L181.941 221.175C181.941 221.175 177.29 220.754 176.964 218.139V218.143Z" fill="white"/>
<path d="M174.745 188.707H176.964V189.992H174.745C174.387 189.992 174.1 189.703 174.1 189.352C174.1 188.996 174.392 188.711 174.745 188.711V188.707Z" fill="#9A9A99"/>
<path d="M173.2 186.425H176.964V187.711H173.2C172.843 187.711 172.556 187.421 172.556 187.07C172.556 186.715 172.847 186.429 173.2 186.429V186.425Z" fill="#9A9A99"/>
<path d="M173.2 171.191H176.964V172.477H173.2C172.843 172.477 172.556 172.187 172.556 171.836C172.556 171.481 172.847 171.196 173.2 171.196V171.191Z" fill="#9A9A99"/>
<path d="M173.174 198.653H171.501V197.368H173.174C173.531 197.368 173.818 197.657 173.818 198.008C173.818 198.364 173.527 198.649 173.174 198.649V198.653Z" fill="#9A9A99"/>
<path d="M174.837 180.954H171.506V179.668H174.837C175.195 179.668 175.481 179.958 175.481 180.309C175.481 180.664 175.19 180.949 174.837 180.949V180.954Z" fill="#9A9A99"/>
<path d="M173.174 183.771H171.501V182.485H173.174C173.531 182.485 173.818 182.775 173.818 183.126C173.818 183.481 173.527 183.766 173.174 183.766V183.771Z" fill="#9A9A99"/>
<path d="M173.174 169.142H171.501V167.857H173.174C173.531 167.857 173.818 168.146 173.818 168.497C173.818 168.853 173.527 169.138 173.174 169.138V169.142Z" fill="#9A9A99"/>
<path d="M177.017 195.845L171.506 195.797V194.511L177.017 194.56V195.845Z" fill="#9A9A99"/>
<path d="M177.017 176.54L171.506 176.496V175.21L177.017 175.259V176.54Z" fill="#9A9A99"/>
<path d="M173.213 154.505H176.977V155.791H173.213C172.856 155.791 172.569 155.501 172.569 155.15C172.569 154.795 172.86 154.51 173.213 154.51V154.505Z" fill="#9A9A99"/>
<path d="M174.828 164.268H171.497V162.982H174.828C175.186 162.982 175.472 163.272 175.472 163.623C175.472 163.978 175.181 164.263 174.828 164.263V164.268Z" fill="#9A9A99"/>
<path d="M173.187 152.307H171.515V151.022H173.187C173.544 151.022 173.831 151.311 173.831 151.662C173.831 152.018 173.54 152.303 173.187 152.303V152.307Z" fill="#9A9A99"/>
<path d="M177.03 159.968L171.519 159.924V158.639L177.03 158.687V159.968Z" fill="#9A9A99"/>
</g>
</g>
<path d="M85.7109 260.344V268.625H84.2266V266.922H80.6953V265.703H84.2266V264H80.8438C79.9375 266.25 77.8359 267.836 74.8047 268.703L74.2109 267.547C77.5234 266.602 79.4609 264.82 79.7266 262.562H74.9297V261.344H81.3359C81.3359 261.859 81.2812 262.359 81.1875 262.828H84.2266V260.344H85.7109ZM76.3828 271.516C76.3828 269.82 78.2266 268.789 81.1016 268.781C83.9375 268.789 85.7969 269.82 85.8047 271.516C85.7969 273.219 83.9375 274.266 81.1016 274.266C78.2266 274.266 76.3828 273.219 76.3828 271.516ZM77.8516 271.516C77.8516 272.5 79.1016 273.07 81.1016 273.078C83.0625 273.07 84.3125 272.5 84.3203 271.516C84.3125 270.516 83.0625 269.945 81.1016 269.953C79.1016 269.945 77.8516 270.516 77.8516 271.516ZM99.4609 260.328V274.359H97.9766V260.328H99.4609ZM88.3516 266.281C88.3516 263.289 89.8594 261.383 91.9766 261.375C94.0547 261.383 95.5859 263.289 95.5859 266.281C95.5859 269.305 94.0547 271.211 91.9766 271.203C89.8594 271.211 88.3516 269.305 88.3516 266.281ZM89.7891 266.281C89.7812 268.508 90.6719 269.875 91.9766 269.875C93.2578 269.875 94.1484 268.508 94.1484 266.281C94.1484 264.086 93.2578 262.711 91.9766 262.703C90.6719 262.711 89.7812 264.086 89.7891 266.281ZM114.508 271.406V272.656H101.695V271.406H107.336V268.953H103.258V264.5H111.477V262.531H103.227V261.312H112.945V265.688H104.727V267.734H113.273V268.953H108.805V271.406H114.508ZM128.32 267.344V268.547H122.773V271.266H121.273V268.547H115.508V267.344H128.32ZM116.914 263.5C116.906 261.75 118.891 260.664 121.898 260.656C124.906 260.664 126.875 261.75 126.867 263.5C126.875 265.242 124.906 266.328 121.898 266.328C118.891 266.328 116.906 265.242 116.914 263.5ZM117.117 274.031V269.922H118.602V272.812H126.898V274.031H117.117ZM118.508 263.5C118.492 264.508 119.852 265.125 121.898 265.125C123.953 265.125 125.297 264.508 125.305 263.5C125.297 262.461 123.953 261.852 121.898 261.844C119.852 261.852 118.492 262.461 118.508 263.5ZM145.289 260.328V274.328H143.883V260.328H145.289ZM133.18 270.281C136.156 268.516 137.578 266.164 137.836 263.281H133.867V262.062H139.305C139.305 262.781 139.25 263.477 139.141 264.156H141.023V260.688H142.43V273.641H141.023V268.875H138.633V267.656H141.023V265.375H138.867C138.188 267.727 136.695 269.773 134.055 271.344L133.18 270.281ZM152.055 262.438C152.055 264.023 153.336 265.609 155.414 266.234L154.711 267.406C153.117 266.914 151.938 265.883 151.328 264.594C150.695 266.016 149.461 267.195 147.82 267.734L147.086 266.562C149.203 265.859 150.57 264.133 150.57 262.422V262.203H147.523V261H155.07V262.203H152.055V262.438ZM149.586 269.359V268.172H158.742V271.672H151.102V273H159.242V274.172H149.617V270.547H157.273V269.359H149.586ZM154.664 264.578V263.375H157.273V260.328H158.742V267.531H157.273V264.578H154.664ZM176.492 260.344V270.688H175.008V267.047H171.945V268.359H165.492V261.266H166.977V263.641H170.477V261.266H171.945V262.828H175.008V260.344H176.492ZM166.977 267.156H170.477V264.781H166.977V267.156ZM167.352 274.031V269.672H168.852V272.828H176.805V274.031H167.352ZM171.945 265.844H175.008V264.047H171.945V265.844ZM189.617 260.328V266.188H191.727V267.438H189.617V274.328H188.133V260.328H189.617ZM178.477 270.516C179.578 270.516 180.859 270.516 182.195 270.477V269.055C180.617 268.82 179.586 267.867 179.602 266.516C179.586 264.938 180.953 263.898 182.945 263.891C184.93 263.898 186.312 264.938 186.32 266.516C186.312 267.867 185.266 268.828 183.68 269.055V270.422C184.922 270.359 186.172 270.258 187.336 270.094L187.43 271.188C184.398 271.727 181.125 271.758 178.711 271.75L178.477 270.516ZM178.742 263.172V261.984H182.195V260.359H183.68V261.984H187.133V263.172H178.742ZM180.992 266.516C180.992 267.406 181.773 267.961 182.945 267.953C184.117 267.961 184.891 267.406 184.898 266.516C184.891 265.617 184.117 265.047 182.945 265.047C181.773 265.047 180.992 265.617 180.992 266.516ZM205.273 266.75V267.891H192.461V266.75H205.273ZM193.977 269.938V268.875H203.695V271.953H195.477V273.109H204.133V274.156H193.992V270.969H202.227V269.938H193.977ZM194.07 261.734V260.688H203.664V263.719H195.57V264.781H203.898V265.828H194.102V262.734H202.18V261.734H194.07ZM221.211 260.328V263.625H223.242V264.859H221.211V268.234H219.727V260.328H221.211ZM210.148 267.25C213.5 266.367 215.469 264.609 215.742 262.422H210.805V261.203H217.352C217.344 264.789 214.914 267.312 210.742 268.438L210.148 267.25ZM212.242 274.141V268.828H221.211V274.141H212.242ZM213.727 272.953H219.742V270.062H213.727V272.953ZM228.867 262.562C228.859 264.398 230.156 266.109 232.242 266.797L231.445 267.969C229.914 267.43 228.766 266.336 228.156 264.953C227.547 266.523 226.359 267.758 224.727 268.359L223.93 267.172C226.117 266.398 227.383 264.531 227.398 262.438V261.062H228.867V262.562ZM225.82 271.703C225.82 270.062 227.609 269.102 230.523 269.109C233.398 269.102 235.164 270.062 235.164 271.703C235.164 273.359 233.398 274.305 230.523 274.297C227.609 274.305 225.82 273.359 225.82 271.703ZM227.305 271.703C227.297 272.625 228.5 273.125 230.523 273.141C232.531 273.125 233.719 272.625 233.711 271.703C233.719 270.812 232.531 270.281 230.523 270.281C228.5 270.281 227.297 270.812 227.305 271.703ZM233.555 268.781V260.328H235.039V263.844H237.07V265.094H235.039V268.781H233.555ZM248.867 260.281V263.562H250.914V264.781H248.867V267.984H247.383V260.281H248.867ZM237.883 262.688V261.516H241.32V260.203H242.805V261.516H246.227V262.688H237.883ZM238.648 265.516C238.641 264.102 240 263.219 242.055 263.219C244.109 263.219 245.445 264.102 245.445 265.516C245.445 266.938 244.109 267.805 242.055 267.797C240 267.805 238.641 266.938 238.648 265.516ZM239.82 269.75V268.641H248.867V271.891H241.305V273.062H249.352V274.188H239.852V270.844H247.398V269.75H239.82ZM240.086 265.516C240.07 266.273 240.844 266.719 242.055 266.719C243.258 266.719 244.039 266.273 244.055 265.516C244.039 264.758 243.258 264.289 242.055 264.281C240.844 264.289 240.07 264.758 240.086 265.516ZM262.773 261.562C262.766 263.422 265.039 265.164 267.789 265.531L267.211 266.75C264.922 266.383 262.914 265.195 262 263.547C261.086 265.195 259.078 266.383 256.805 266.75L256.211 265.531C258.953 265.164 261.219 263.445 261.227 261.562V260.797H262.773V261.562ZM255.602 269.344V268.125H268.367V269.344H262.68V274.328H261.227V269.344H255.602ZM278.195 269.578C278.195 270.781 278.789 272.055 280.062 272.812C281.344 271.992 281.977 270.656 281.977 269.578V268.906H283.43V269.578C283.422 271.031 284.383 272.438 286.211 273.031L285.477 274.125C284.094 273.648 283.148 272.711 282.664 271.57C282.219 272.695 281.383 273.719 280.102 274.25C278.758 273.742 277.906 272.75 277.477 271.609C276.969 272.711 276.047 273.641 274.727 274.125L273.977 273.031C275.773 272.391 276.75 270.93 276.758 269.578V268.906H278.195V269.578ZM273.617 264.422C273.625 262.461 275.203 261.117 277.352 261.109C279.492 261.117 281.07 262.461 281.07 264.422C281.07 266.359 279.492 267.703 277.352 267.703C275.203 267.703 273.625 266.359 273.617 264.422ZM275.07 264.422C275.062 265.641 276.023 266.469 277.352 266.469C278.664 266.469 279.617 265.641 279.617 264.422C279.617 263.195 278.664 262.367 277.352 262.375C276.023 262.367 275.062 263.195 275.07 264.422ZM283.461 268.312V260.344H284.945V268.312H283.461ZM298.492 264.422V265.609H288.852V260.828H290.32V264.422H298.492ZM287.148 268.562V267.375H299.961V268.562H287.148ZM288.742 274V269.891H290.227V272.781H298.586V274H288.742ZM303.508 271.922L302.258 276.234H300.93L301.758 271.922H303.508ZM53.2734 289.328C53.2734 290.953 54.5391 292.461 56.6797 293.062L55.9922 294.234C54.3828 293.766 53.1875 292.773 52.5703 291.5C51.9531 292.938 50.7344 294.055 49.0859 294.594L48.3516 293.422C50.4922 292.789 51.8047 291.141 51.8047 289.328V289.156H48.7578V287.953H51.8047V286.266H53.2891V287.953H56.3203V289.156H53.2734V289.328ZM50.1484 297.75C50.1484 296.109 51.9219 295.18 54.8516 295.188C57.75 295.18 59.4922 296.109 59.4922 297.75C59.4922 299.359 57.75 300.289 54.8516 300.297C51.9219 300.289 50.1484 299.359 50.1484 297.75ZM51.6328 297.75C51.625 298.648 52.8125 299.148 54.8516 299.156C56.8594 299.148 58.0469 298.648 58.0391 297.75C58.0469 296.828 56.8594 296.344 54.8516 296.344C52.8125 296.344 51.625 296.828 51.6328 297.75ZM57.8828 294.859V286.328H59.3672V289.859H61.3984V291.078H59.3672V294.859H57.8828ZM73.1953 286.328V289.75H75.2266V291H73.1953V294.531H71.7109V286.328H73.1953ZM62.7422 293.719V287.172H64.1953V289.188H67.8672V287.172H69.3359V293.719H62.7422ZM63.6172 296.391V295.188H68.1484V300.312H66.6797V296.391H63.6172ZM64.1953 292.531H67.8672V290.359H64.1953V292.531ZM68.8047 296.391V295.188H73.1953V300.312H71.7266V296.391H68.8047ZM92.6953 293.078V294.281H87.0391V295.5C89.6172 295.633 91.1328 296.469 91.1484 297.891C91.1328 299.453 89.3281 300.305 86.3047 300.297C83.2578 300.305 81.4531 299.453 81.4609 297.891C81.4531 296.469 82.9688 295.633 85.5703 295.5V294.281H79.9297V293.078H92.6953ZM81.1016 288.047V286.828H91.4922V288.047H89.4609V290.719H91.4297V291.922H81.1641V290.719H83.1484V288.047H81.1016ZM82.9453 297.891C82.9453 298.734 84.1641 299.188 86.3047 299.172C88.4141 299.188 89.6328 298.734 89.6328 297.891C89.6328 297.07 88.4141 296.609 86.3047 296.609C84.1641 296.609 82.9453 297.07 82.9453 297.891ZM84.6172 290.719H87.9766V288.047H84.6172V290.719ZM105.43 286.344V294.625H103.945V292.922H100.414V291.703H103.945V290H100.562C99.6562 292.25 97.5547 293.836 94.5234 294.703L93.9297 293.547C97.2422 292.602 99.1797 290.82 99.4453 288.562H94.6484V287.344H101.055C101.055 287.859 101 288.359 100.906 288.828H103.945V286.344H105.43ZM96.1016 297.516C96.1016 295.82 97.9453 294.789 100.82 294.781C103.656 294.789 105.516 295.82 105.523 297.516C105.516 299.219 103.656 300.266 100.82 300.266C97.9453 300.266 96.1016 299.219 96.1016 297.516ZM97.5703 297.516C97.5703 298.5 98.8203 299.07 100.82 299.078C102.781 299.07 104.031 298.5 104.039 297.516C104.031 296.516 102.781 295.945 100.82 295.953C98.8203 295.945 97.5703 296.516 97.5703 297.516ZM119.18 286.328V300.359H117.695V286.328H119.18ZM108.07 292.281C108.07 289.289 109.578 287.383 111.695 287.375C113.773 287.383 115.305 289.289 115.305 292.281C115.305 295.305 113.773 297.211 111.695 297.203C109.578 297.211 108.07 295.305 108.07 292.281ZM109.508 292.281C109.5 294.508 110.391 295.875 111.695 295.875C112.977 295.875 113.867 294.508 113.867 292.281C113.867 290.086 112.977 288.711 111.695 288.703C110.391 288.711 109.5 290.086 109.508 292.281ZM129.07 287.375C131.164 287.383 132.656 289.289 132.664 292.281C132.656 295.305 131.164 297.211 129.07 297.203C126.977 297.211 125.484 295.305 125.492 292.281C125.484 289.289 126.977 287.383 129.07 287.375ZM126.914 292.281C126.906 294.508 127.797 295.875 129.07 295.875C130.367 295.875 131.242 294.508 131.242 292.281C131.242 290.086 130.367 288.711 129.07 288.703C127.797 288.711 126.906 290.086 126.914 292.281ZM134.742 300.328V286.328H136.227V291.812H138.477V293.062H136.227V300.328H134.742ZM151.945 293.5V294.688H139.133V293.5H151.945ZM140.742 287.812V286.641H150.336V290.094H142.242V291.297H150.617V292.438H140.773V289H148.852V287.812H140.742ZM140.836 300.156V295.828H150.352V300.156H140.836ZM142.305 298.953H148.883V297.016H142.305V298.953ZM163.883 286.328V291.75H166.133V292.969H163.883V300.359H162.398V286.328H163.883ZM153.57 296.875V287.672H160.117V288.875H155.055V295.641C157.406 295.633 159.164 295.531 161.164 295.172L161.352 296.422C159.156 296.812 157.297 296.883 154.695 296.875H153.57ZM179.602 293.344V294.547H174.055V297.266H172.555V294.547H166.789V293.344H179.602ZM168.195 289.5C168.188 287.75 170.172 286.664 173.18 286.656C176.188 286.664 178.156 287.75 178.148 289.5C178.156 291.242 176.188 292.328 173.18 292.328C170.172 292.328 168.188 291.242 168.195 289.5ZM168.398 300.031V295.922H169.883V298.812H178.18V300.031H168.398ZM169.789 289.5C169.773 290.508 171.133 291.125 173.18 291.125C175.234 291.125 176.578 290.508 176.586 289.5C176.578 288.461 175.234 287.852 173.18 287.844C171.133 287.852 169.773 288.461 169.789 289.5ZM189.414 290.453C189.406 292.664 190.867 295.133 192.992 296.141L192.148 297.297C190.578 296.547 189.328 294.969 188.695 293.141C188.055 295.133 186.742 296.859 185.148 297.656L184.273 296.484C186.398 295.461 187.938 292.82 187.945 290.453V288.969H184.789V287.734H192.461V288.969H189.414V290.453ZM193.961 300.328V286.328H195.445V291.875H197.695V293.125H195.445V300.328H193.961ZM209.992 286.328V300.359H208.508V286.328H209.992ZM199.148 288.797V287.594H205.711V292.703H200.68V295.766C202.953 295.758 204.93 295.648 207.273 295.266L207.414 296.484C204.938 296.898 202.828 296.992 200.352 297H199.164V291.516H204.195V288.797H199.148ZM224.242 286.328V300.328H222.82V286.328H224.242ZM212.352 292.375C212.352 289.344 213.539 287.445 215.367 287.453C217.07 287.445 218.219 289.062 218.391 291.688H219.977V286.594H221.398V299.641H219.977V292.891H218.398C218.266 295.625 217.102 297.32 215.367 297.312C213.539 297.32 212.352 295.414 212.352 292.375ZM213.727 292.375C213.727 294.602 214.359 295.914 215.367 295.906C216.398 295.914 217.039 294.602 217.039 292.375C217.039 290.141 216.398 288.836 215.367 288.844C214.359 288.836 213.727 290.141 213.727 292.375ZM233.82 287.078C235.938 287.086 237.492 288.43 237.492 290.344C237.492 292.258 235.938 293.586 233.82 293.594C231.711 293.586 230.133 292.258 230.148 290.344C230.133 288.43 231.711 287.086 233.82 287.078ZM231.336 299.859V294.828H232.789V298.617C233.633 298.562 234.602 298.414 235.305 298.047L235.641 299C237.133 298.375 237.898 297.133 237.898 295.906V295.703H235.68V294.516H241.523V295.703H239.32V295.906C239.305 297.273 240.18 298.602 241.961 299.141L241.258 300.266C239.953 299.836 239.078 299.008 238.602 297.977C238.125 298.992 237.25 299.828 235.961 300.266L235.398 299.344C234.312 299.773 233.078 299.852 232.055 299.859H231.336ZM231.586 290.344C231.578 291.539 232.555 292.375 233.82 292.375C235.094 292.375 236.055 291.539 236.055 290.344C236.055 289.141 235.094 288.312 233.82 288.312C232.555 288.312 231.578 289.141 231.586 290.344ZM239.445 293.844V286.328H240.93V289.531H242.961V290.766H240.93V293.844H239.445ZM255.789 286.328V300.328H254.383V286.328H255.789ZM243.711 296.281C246.68 294.516 248.102 292.164 248.359 289.281H244.367V288.062H249.836C249.828 289.43 249.641 290.734 249.211 291.953H251.43V286.688H252.836V299.641H251.43V293.141H248.695C247.867 294.766 246.531 296.188 244.555 297.344L243.711 296.281ZM269.836 292.25V293.469H266.883V296.062C268.18 296.008 269.484 295.922 270.711 295.781L270.82 296.875C267.734 297.336 264.422 297.383 261.758 297.391L261.57 296.156C262.75 296.156 264.055 296.148 265.398 296.117V293.469H262.586V287.625H269.773V288.828H264.055V292.25H269.836ZM271.586 300.359V286.328H273.07V300.359H271.586ZM280.289 295.562C280.289 296.773 280.891 298.047 282.156 298.82C283.438 297.984 284.047 296.625 284.055 295.562V294.812H285.508V295.562C285.508 297.008 286.461 298.445 288.32 299.031L287.555 300.141C286.18 299.648 285.242 298.711 284.758 297.555C284.312 298.68 283.477 299.727 282.18 300.266C280.852 299.758 280 298.766 279.562 297.617C279.062 298.719 278.133 299.648 276.82 300.141L276.102 299.031C277.891 298.406 278.852 296.922 278.867 295.562V294.812H280.289V295.562ZM275.539 290.406C275.531 288.469 277.086 287.094 279.195 287.094C281.008 287.094 282.445 288.164 282.766 289.75H285.508V286.328H286.992V294.266H285.508V290.969H282.789C282.5 292.594 281.047 293.703 279.195 293.703C277.086 293.703 275.531 292.336 275.539 290.406ZM276.961 290.406C276.953 291.617 277.898 292.469 279.195 292.469C280.461 292.469 281.406 291.617 281.414 290.406C281.406 289.172 280.461 288.336 279.195 288.344C277.898 288.336 276.953 289.172 276.961 290.406ZM292.195 294.719V296.203H298.773V294.719H300.258V300.156H290.727V294.719H292.195ZM289.148 293.844V292.609H301.914V293.844H289.148ZM289.836 290.578C292.547 290.227 294.766 288.734 294.773 287.078V286.484H296.289V287.078C296.297 288.688 298.531 290.25 301.211 290.578L300.68 291.75C298.414 291.438 296.438 290.359 295.539 288.867C294.633 290.367 292.648 291.438 290.398 291.75L289.836 290.578ZM292.195 298.969H298.773V297.359H292.195V298.969ZM314.602 286.328V300.328H313.117V286.328H314.602ZM303.836 296.766V287.688H305.305V295.484C307.352 295.477 309.5 295.297 311.742 294.844L311.945 296.094C309.469 296.602 307.219 296.773 305.008 296.766H303.836ZM327.711 286.328V291.75H329.961V292.969H327.711V300.359H326.227V286.328H327.711ZM317.398 296.875V287.672H323.945V288.875H318.883V295.641C321.234 295.633 322.992 295.531 324.992 295.172L325.18 296.422C322.984 296.812 321.125 296.883 318.523 296.875H317.398ZM332.227 299.109C331.617 299.102 331.109 298.609 331.117 298C331.109 297.391 331.617 296.891 332.227 296.891C332.828 296.891 333.328 297.391 333.336 298C333.328 298.609 332.828 299.102 332.227 299.109ZM96.9375 316.453C96.9297 318.797 98.4688 321.219 100.625 322.141L99.8125 323.297C98.1641 322.57 96.8516 321.023 96.2031 319.156C95.5547 321.156 94.2422 322.859 92.6094 323.656L91.75 322.484C93.8594 321.492 95.4219 318.867 95.4375 316.453V314.969H92.2344V313.734H100.125V314.969H96.9375V316.453ZM101.891 326.328V312.328H103.375V326.328H101.891ZM116.797 313.031V314.094C116.805 315.188 116.805 316.453 116.438 318.141H118.422V319.359H105.609V318.141H114.938C115.312 316.508 115.328 315.312 115.328 314.25H107.219V313.031H116.797ZM107.172 326.156V321.141H116.812V326.156H107.172ZM108.625 324.953H115.344V322.312H108.625V324.953ZM128.25 315.328C128.25 316.953 129.516 318.461 131.656 319.062L130.969 320.234C129.359 319.766 128.164 318.773 127.547 317.5C126.93 318.938 125.711 320.055 124.062 320.594L123.328 319.422C125.469 318.789 126.781 317.141 126.781 315.328V315.156H123.734V313.953H126.781V312.266H128.266V313.953H131.297V315.156H128.25V315.328ZM125.125 323.75C125.125 322.109 126.898 321.18 129.828 321.188C132.727 321.18 134.469 322.109 134.469 323.75C134.469 325.359 132.727 326.289 129.828 326.297C126.898 326.289 125.125 325.359 125.125 323.75ZM126.609 323.75C126.602 324.648 127.789 325.148 129.828 325.156C131.836 325.148 133.023 324.648 133.016 323.75C133.023 322.828 131.836 322.344 129.828 322.344C127.789 322.344 126.602 322.828 126.609 323.75ZM132.859 320.859V312.328H134.344V315.859H136.375V317.078H134.344V320.859H132.859ZM148.172 312.328V315.75H150.203V317H148.172V320.531H146.688V312.328H148.172ZM137.719 319.719V313.172H139.172V315.188H142.844V313.172H144.312V319.719H137.719ZM138.594 322.391V321.188H143.125V326.312H141.656V322.391H138.594ZM139.172 318.531H142.844V316.359H139.172V318.531ZM143.781 322.391V321.188H148.172V326.312H146.703V322.391H143.781ZM163.047 312.328V326.328H161.625V312.328H163.047ZM151.156 318.375C151.156 315.344 152.344 313.445 154.172 313.453C155.875 313.445 157.023 315.062 157.195 317.688H158.781V312.594H160.203V325.641H158.781V318.891H157.203C157.07 321.625 155.906 323.32 154.172 323.312C152.344 323.32 151.156 321.414 151.156 318.375ZM152.531 318.375C152.531 320.602 153.164 321.914 154.172 321.906C155.203 321.914 155.844 320.602 155.844 318.375C155.844 316.141 155.203 314.836 154.172 314.844C153.164 314.836 152.531 316.141 152.531 318.375ZM176.156 316.422V317.609H166.516V312.828H167.984V316.422H176.156ZM164.812 320.562V319.375H177.625V320.562H164.812ZM166.406 326V321.891H167.891V324.781H176.25V326H166.406ZM195.359 320.359V321.562H189.641V326.312H188.188V321.562H182.547V320.359H195.359ZM184.156 318.578V313.078H193.75V318.578H184.156ZM185.609 317.422H192.266V314.266H185.609V317.422ZM208.062 312.328V321.875H206.578V317.297H203.852C203.547 318.945 202.117 320.078 200.266 320.062C198.156 320.078 196.586 318.648 196.594 316.656C196.586 314.648 198.156 313.258 200.266 313.266C202.141 313.258 203.594 314.391 203.859 316.094H206.578V312.328H208.062ZM198.016 316.656C198.008 317.938 198.953 318.805 200.266 318.797C201.523 318.805 202.484 317.938 202.484 316.656C202.484 315.406 201.523 314.516 200.266 314.516C198.953 314.516 198.008 315.406 198.016 316.656ZM198.062 325.078C200.664 324.656 202.711 323.078 202.719 321.344V320.844H204.234V321.344C204.227 323.148 206.234 324.672 208.906 325.078L208.312 326.25C206.125 325.883 204.305 324.805 203.469 323.273C202.609 324.781 200.789 325.883 198.594 326.25L198.062 325.078ZM221.812 312.328V326.359H220.328V312.328H221.812ZM210.703 318.281C210.703 315.289 212.211 313.383 214.328 313.375C216.406 313.383 217.938 315.289 217.938 318.281C217.938 321.305 216.406 323.211 214.328 323.203C212.211 323.211 210.703 321.305 210.703 318.281ZM212.141 318.281C212.133 320.508 213.023 321.875 214.328 321.875C215.609 321.875 216.5 320.508 216.5 318.281C216.5 316.086 215.609 314.711 214.328 314.703C213.023 314.711 212.133 316.086 212.141 318.281ZM240.766 323.359V324.594H227.953V323.359H233.594V320.484H229.422V313.281H230.906V315.688H237.781V313.281H239.25V320.484H235.062V323.359H240.766ZM230.906 319.281H237.781V316.891H230.906V319.281ZM253.375 312.328V326.359H251.891V312.328H253.375ZM242.266 318.281C242.266 315.289 243.773 313.383 245.891 313.375C247.969 313.383 249.5 315.289 249.5 318.281C249.5 321.305 247.969 323.211 245.891 323.203C243.773 323.211 242.266 321.305 242.266 318.281ZM243.703 318.281C243.695 320.508 244.586 321.875 245.891 321.875C247.172 321.875 248.062 320.508 248.062 318.281C248.062 316.086 247.172 314.711 245.891 314.703C244.586 314.711 243.695 316.086 243.703 318.281ZM268.688 317.828V319.047H266.516V326.312H265.031V312.328H266.516V317.828H268.688ZM256.141 322.797V313.688H257.609V321.562C259.562 321.555 261.602 321.391 263.828 320.938L264 322.188C261.602 322.664 259.398 322.805 257.297 322.797H256.141ZM282.25 323.344V324.578H269.438V323.344H272.5V319.688C271.352 319.055 270.648 318.055 270.656 316.797C270.648 314.594 272.812 313.148 275.812 313.141C278.82 313.148 280.984 314.594 280.984 316.797C280.984 318.031 280.312 319.023 279.188 319.656V323.344H282.25ZM272.094 316.797C272.094 318.297 273.617 319.273 275.812 319.281C277.992 319.273 279.539 318.297 279.547 316.797C279.539 315.289 277.992 314.328 275.812 314.328C273.617 314.328 272.094 315.289 272.094 316.797ZM273.969 323.344H277.688V320.234C277.117 320.367 276.484 320.438 275.812 320.438C275.156 320.438 274.531 320.367 273.969 320.234V323.344ZM285.562 321.641C285.586 319.594 286.188 318.969 287.219 318.328C287.875 317.93 288.375 317.352 288.375 316.531C288.375 315.555 287.625 314.938 286.688 314.938C285.844 314.938 285.023 315.453 284.953 316.609H283.266C283.328 314.617 284.828 313.531 286.688 313.531C288.719 313.531 290.078 314.75 290.078 316.531C290.078 317.789 289.477 318.625 288.484 319.234C287.547 319.805 287.18 320.367 287.156 321.641V321.734H285.562V321.641ZM285.312 324C285.305 323.391 285.812 322.891 286.422 322.891C287.023 322.891 287.523 323.391 287.531 324C287.523 324.609 287.023 325.102 286.422 325.109C285.812 325.102 285.305 324.609 285.312 324Z" fill="black"/>
<rect width="382" height="64" transform="translate(0 372)" fill="#455767"/>
<path d="M187.297 394.016V400.25H190.297V402.078H187.297V408.148H185.07V394.016H187.297ZM170.633 405.805C172.262 405.805 174.148 405.805 176.117 405.758V404.34C173.727 404.07 172.203 402.945 172.227 401.258C172.203 399.336 174.207 398.141 177.219 398.164C180.23 398.141 182.199 399.336 182.211 401.258C182.199 402.934 180.711 404.059 178.344 404.34V405.676C180.219 405.582 182.117 405.43 183.875 405.172L184.062 406.766C179.551 407.551 174.57 407.586 170.867 407.586L170.633 405.805ZM171.172 397.461V395.797H176.117V393.828H178.344V395.797H183.289V397.461H171.172ZM173.258 410.867V409.133H187.297V414.992H185.07V410.867H173.258ZM174.336 401.258C174.336 402.242 175.426 402.887 177.219 402.875C178.988 402.887 180.09 402.242 180.078 401.258C180.09 400.25 178.988 399.664 177.219 399.688C175.426 399.664 174.336 400.25 174.336 401.258ZM208.93 394.016V409.273H206.703V394.016H208.93ZM191.938 400.625C191.949 397.59 194.363 395.434 197.539 395.422C200.703 395.434 203.117 397.59 203.117 400.625C203.117 403.707 200.703 405.852 197.539 405.852C194.363 405.852 191.949 403.707 191.938 400.625ZM194.117 400.625C194.105 402.605 195.582 403.906 197.539 403.906C199.461 403.906 200.938 402.605 200.938 400.625C200.938 398.691 199.461 397.367 197.539 397.367C195.582 397.367 194.105 398.691 194.117 400.625ZM195.195 414.547V407.727H197.445V412.742H209.562V414.547H195.195Z" fill="white"/>
</g>
<defs>
<linearGradient id="paint0_linear_14_233" x1="199.039" y1="198.925" x2="199.039" y2="117.088" gradientUnits="userSpaceOnUse">
<stop stop-color="#F49C24"/>
<stop offset="0.37" stop-color="#F6A723"/>
<stop offset="1" stop-color="#FCC31E"/>
</linearGradient>
<linearGradient id="paint1_linear_14_233" x1="175.914" y1="142.488" x2="175.914" y2="191.278" gradientUnits="userSpaceOnUse">
<stop stop-color="#F8D1DD"/>
<stop offset="1" stop-color="#F4B2C4"/>
</linearGradient>
<clipPath id="clip0_14_233">
<rect width="382" height="436" rx="20" fill="white"/>
</clipPath>
<clipPath id="clip1_14_233">
<rect x="136" y="104" width="110" height="110" rx="55" fill="white"/>
</clipPath>
<clipPath id="clip2_14_233">
<rect width="55" height="119" fill="white" transform="translate(161 104)"/>
</clipPath>
</defs>
</svg>
