<svg width="382" height="488" viewBox="0 0 382 488" fill="none" xmlns="http://www.w3.org/2000/svg">
<rect width="382" height="488" rx="24" fill="white"/>
<path d="M135.395 69.9609V71.7422H116.246V69.9609H135.395ZM118.309 63.8906C118.297 61.2539 121.238 59.6836 125.809 59.6953C130.355 59.6836 133.297 61.2539 133.309 63.8906C133.297 66.5391 130.355 68.1445 125.809 68.1562C121.238 68.1445 118.297 66.5391 118.309 63.8906ZM118.66 79.5469V73.4531H120.91V77.7422H133.238V79.5469H118.66ZM120.605 63.8906C120.594 65.4492 122.586 66.3281 125.809 66.3281C129.02 66.3281 131.023 65.4492 131.012 63.8906C131.023 62.3906 129.02 61.4766 125.809 61.4766C122.586 61.4766 120.594 62.3906 120.605 63.8906ZM154.004 65.7656V67.5469H139.379V60H153.793V61.8047H141.605V65.7656H154.004ZM136.988 71.4141V69.6094H156.16V71.4141H147.934V75.375H145.707V71.4141H136.988ZM139.379 79.5469V73.5469H141.605V77.7422H154.145V79.5469H139.379ZM164.574 60.4922C167.891 60.4805 170.281 62.5312 170.293 65.4844C170.281 68.4375 167.891 70.4883 164.574 70.5C161.27 70.4883 158.844 68.4375 158.855 65.4844C158.844 62.5312 161.27 60.4805 164.574 60.4922ZM157.848 73.6641C161.668 73.6641 166.965 73.6289 171.559 72.9609L171.723 74.5781C166.977 75.4922 161.879 75.5156 158.129 75.5156L157.848 73.6641ZM161.059 65.4844C161.035 67.3477 162.535 68.5547 164.574 68.5547C166.613 68.5547 168.113 67.3477 168.113 65.4844C168.113 63.6445 166.613 62.4141 164.574 62.4141C162.535 62.4141 161.035 63.6445 161.059 65.4844ZM172.871 80.0391V58.9922H175.098V80.0391H172.871ZM191.973 62.0156C191.961 64.9219 193.93 67.582 197.176 68.6484L196.051 70.4062C193.613 69.5625 191.797 67.8516 190.848 65.6602C189.91 68.0039 188.059 69.8672 185.574 70.7578L184.449 69.0234C187.719 67.8633 189.688 65.0156 189.699 62.0156V60H191.973V62.0156ZM187.52 74.4141V72.6094H201.746V79.9922H199.52V74.4141H187.52ZM199.52 71.6016V58.9922H201.746V71.6016H199.52ZM224.223 67.6875V69.4688H215.738V71.2969H221.809V76.2188H209.574V78.0703H222.395V79.7812H207.395V74.6016H219.605V73.0078H207.371V71.2969H213.512V69.4688H205.074V67.6875H224.223ZM207.535 66.1406V59.6719H221.762V66.1406H207.535ZM209.715 64.3828H219.535V61.4297H209.715V64.3828ZM233.598 62.3438C233.598 64.957 235.637 67.3711 238.871 68.3203L237.746 70.0547C235.297 69.3047 233.445 67.7109 232.484 65.6484C231.547 67.8633 229.672 69.5977 227.152 70.4297L226.027 68.6719C229.297 67.6758 231.336 65.0977 231.348 62.3438V62.1094H226.637V60.3047H238.215V62.1094H233.598V62.3438ZM229.496 79.7344V71.3438H231.676V73.6875H241.027V71.3438H243.23V79.7344H229.496ZM231.676 77.9297H241.027V75.4453H231.676V77.9297ZM241.004 70.3594V58.9922H243.23V70.3594H241.004ZM253.848 64.3359C253.824 68.0508 255.992 71.8594 259.121 73.3828L257.738 75.1641C255.453 73.9688 253.684 71.625 252.758 68.8242C251.82 71.8008 249.98 74.3203 247.59 75.5625L246.207 73.7578C249.43 72.2109 251.609 68.1797 251.621 64.3359V60.75H253.848V64.3359ZM260.691 79.9922V58.9922H262.918V67.3594H266.293V69.2578H262.918V79.9922H260.691Z" fill="black"/>
<g clip-path="url(#clip0_1237_6001)">
<rect x="141" y="111" width="100" height="100" rx="50" fill="#37404F"/>
<g clip-path="url(#clip1_1237_6001)">
<path d="M214.68 210.43H216.17L216.75 210.44C216.66 209.37 216.46 208.33 216.19 207.32L216.42 172.06C218.89 171.75 220.82 169.68 220.84 167.12C220.86 164.34 218.62 162.07 215.84 162.05C213.06 162.03 210.79 164.27 210.77 167.05C210.75 169.54 212.56 171.61 214.94 172.03L214.74 203.71" fill="#FFE000"/>
<path d="M213.681 105.429C213.629 105.277 213.589 105.133 213.546 104.978L189.118 128.064L187.772 127.421C187.278 127.19 186.7 127.232 186.246 127.539L169.859 138.623C168.881 139.281 168.986 140.738 170.04 141.239L194.26 152.809C195.314 153.31 196.533 152.494 196.454 151.325L195.062 131.754C195.023 131.217 194.707 130.735 194.204 130.507L192.705 129.79L215.571 108.18C214.724 107.48 214.05 106.55 213.662 105.435L213.681 105.429Z" fill="#5D63D2"/>
<path d="M199 222.5L191.937 151.277L174.066 142.739L84.9999 207L199 222.5Z" fill="url(#paint0_linear_1237_6001)"/>
<path d="M199.32 194.76C196.48 197.13 194.69 200.2 194.09 203.23V189.76C197.98 191.04 202.97 190 206.96 186.67C210.99 183.31 212.92 178.54 212.31 174.45C208.4 173.11 203.36 174.14 199.32 177.5C196.48 179.87 194.69 182.94 194.09 185.97V177.02C195.98 177.59 198.36 177.08 200.27 175.48C202.24 173.84 203.19 171.5 202.89 169.5C200.98 168.84 198.51 169.35 196.53 170.99C194.78 172.44 193.85 174.44 193.86 176.26C193.83 174.47 192.89 172.54 191.19 171.13C189.22 169.49 186.75 168.98 184.83 169.64C184.53 171.64 185.47 173.98 187.45 175.62C189.09 176.99 191.07 177.55 192.79 177.33V183.54C191.88 181.44 190.4 179.43 188.41 177.77C184.38 174.41 179.33 173.38 175.42 174.72C174.81 178.81 176.74 183.58 180.77 186.94C184.48 190.03 189.04 191.15 192.79 190.26V200.79C191.88 198.69 190.4 196.68 188.41 195.02C184.38 191.66 179.33 190.63 175.42 191.97C174.81 196.06 176.74 200.83 180.77 204.19C184.48 207.28 189.04 208.4 192.79 207.51V216.8H194.08V206.99C197.97 208.27 202.96 207.23 206.95 203.9C210.98 200.54 212.91 195.77 212.3 191.68C208.39 190.34 203.35 191.37 199.31 194.73L199.32 194.76Z" fill="#48B070"/>
</g>
</g>
<path d="M82.4199 262.602V263.727H68.1816V262.602H74.6152V260.703H69.9922V255.43H80.6621V256.572H71.3633V259.561H80.8027V260.703H75.9863V262.602H82.4199ZM69.7637 266.381V265.256H80.6797V270.547H79.3086V266.381H69.7637ZM96.6406 254.814V263.393H95.2695V254.814H96.6406ZM84.5293 256.713V255.57H91.666V259.789H85.9004V261.916C88.6953 261.898 90.7783 261.837 93.3184 261.424L93.4766 262.566C90.8486 262.979 88.7129 263.059 85.8301 263.076H84.5645V258.699H90.2949V256.713H84.5293ZM86.4805 270.213V264.184H87.8691V266.047H95.2695V264.184H96.6406V270.213H86.4805ZM87.8691 269.088H95.2695V267.154H87.8691V269.088ZM104.727 257.68C104.727 259.71 106.291 261.652 108.576 262.443L107.855 263.533C106.098 262.9 104.735 261.591 104.067 259.982C103.391 261.775 101.94 263.217 100.086 263.902L99.3652 262.812C101.668 261.986 103.338 259.903 103.338 257.697V257.012H99.8047V255.887H108.225V257.012H104.727V257.68ZM101.738 266.135V264.992H112.25V270.424H110.861V266.135H101.738ZM107.732 260.053V258.893H110.861V254.797H112.25V264.166H110.861V260.053H107.732ZM127.736 254.797V270.459H126.348V254.797H127.736ZM115.432 261.459C115.44 258.137 117.093 256.019 119.422 256.01C121.742 256.019 123.421 258.137 123.412 261.459C123.421 264.79 121.742 266.899 119.422 266.891C117.093 266.899 115.44 264.79 115.432 261.459ZM116.768 261.459C116.768 263.999 117.857 265.669 119.422 265.66C120.995 265.669 122.076 263.999 122.076 261.459C122.076 258.919 120.995 257.249 119.422 257.24C117.857 257.249 116.768 258.919 116.768 261.459ZM142.941 256.379V257.943C142.924 259.859 142.924 262.004 142.361 265.15L140.955 264.992C141.544 262.004 141.544 259.815 141.553 257.943V257.521H131.92V256.379H142.941ZM130.408 268.209V267.066H135.998V261.477H137.352V267.066H144.646V268.209H130.408ZM157.689 264.623C160.897 264.623 162.84 265.678 162.84 267.506C162.84 269.352 160.897 270.406 157.689 270.424C154.473 270.406 152.513 269.352 152.504 267.506C152.513 265.678 154.473 264.623 157.689 264.623ZM151.15 262.988V255.781H152.504V258.172H157.057V255.781H158.428V262.988H151.15ZM152.504 261.863H157.057V259.262H152.504V261.863ZM153.893 267.506C153.875 268.631 155.334 269.299 157.689 269.299C160.054 269.299 161.495 268.631 161.504 267.506C161.495 266.39 160.054 265.73 157.689 265.713C155.334 265.73 153.875 266.39 153.893 267.506ZM161.328 264.201V254.797H162.699V258.734H165.055V259.912H162.699V264.201H161.328ZM173.844 257.504V258.629H166.004V257.504H169.256V255.271H170.627V257.504H173.844ZM166.566 263.234C166.566 261.16 167.981 259.692 169.924 259.684C171.893 259.692 173.299 261.16 173.316 263.234C173.299 265.335 171.893 266.812 169.924 266.82C167.981 266.812 166.566 265.335 166.566 263.234ZM167.797 263.234C167.797 264.623 168.685 265.616 169.924 265.607C171.172 265.616 172.086 264.623 172.086 263.234C172.086 261.863 171.172 260.861 169.924 260.844C168.685 260.861 167.797 261.863 167.797 263.234ZM174.652 269.65V255.184H175.953V261.389H178.027V254.797H179.346V270.424H178.027V262.531H175.953V269.65H174.652ZM193.812 254.797V258.576H196.168V259.736H193.812V263.938H192.441V254.797H193.812ZM182.264 262.953V255.693H183.617V258.084H188.17V255.693H189.541V262.953H182.264ZM183.617 261.846H188.17V259.191H183.617V261.846ZM184.004 270.213V264.816H193.936V265.924H185.375V269.088H194.234V270.213H184.004ZM202.742 259.596C202.751 262.25 204.676 264.948 206.979 265.941L206.205 267.031C204.377 266.205 202.804 264.403 202.074 262.241C201.345 264.535 199.763 266.521 197.979 267.418L197.152 266.328C199.394 265.256 201.345 262.303 201.354 259.596V257.557H197.662V256.414H206.469V257.557H202.742V259.596ZM208.648 270.424V254.797H210.037V270.424H208.648ZM221.586 255.693C223.924 255.702 225.646 257.188 225.646 259.297C225.646 261.433 223.924 262.909 221.586 262.918C219.257 262.909 217.517 261.433 217.525 259.297C217.517 257.188 219.257 255.702 221.586 255.693ZM218.879 259.297C218.87 260.729 220.048 261.775 221.586 261.775C223.133 261.775 224.302 260.729 224.293 259.297C224.302 257.891 223.133 256.854 221.586 256.854C220.048 256.854 218.87 257.891 218.879 259.297ZM218.896 270.002V264.307H220.232V268.868C221.138 268.833 222.342 268.701 223.449 268.332L223.66 269.439C222.14 269.94 220.654 270.011 219.635 270.002H218.896ZM223.115 265.449V264.377H226.402V262.988H227.756V264.377H231.008V265.449H223.115ZM224.152 268.191C224.144 266.838 225.33 265.977 227.053 265.977C228.767 265.977 229.971 266.838 229.988 268.191C229.971 269.545 228.767 270.389 227.053 270.389C225.33 270.389 224.144 269.545 224.152 268.191ZM225.383 268.191C225.383 268.93 226.077 269.396 227.053 269.404C228.028 269.396 228.723 268.93 228.723 268.191C228.723 267.471 228.028 266.987 227.053 266.979C226.077 266.987 225.383 267.471 225.383 268.191ZM228.072 262.619V254.797H229.443V258.33H231.799V259.473H229.443V262.619H228.072ZM245.422 259.543V260.65H234.717V255.377H236.088V259.543H245.422ZM232.766 263.902V262.777H247.074V263.902H232.766ZM234.629 270.037V265.502H236V268.895H245.51V270.037H234.629ZM267.096 264.025V265.15H252.857V264.025H259.291V262.769C256.487 262.672 254.896 261.837 254.896 260.404C254.896 258.857 256.751 258.04 259.977 258.031C263.176 258.04 265.039 258.857 265.039 260.404C265.039 261.837 263.439 262.663 260.662 262.769V264.025H267.096ZM253.596 257.346V256.256H259.291V254.621H260.662V256.256H266.27V257.346H253.596ZM254.703 270.09V266.152H256.092V268.947H265.514V270.09H254.703ZM256.303 260.404C256.285 261.283 257.604 261.767 259.977 261.758C262.314 261.767 263.65 261.283 263.65 260.404C263.65 259.525 262.314 259.042 259.977 259.051C257.604 259.042 256.285 259.525 256.303 260.404ZM273.705 259.596C273.688 262.101 275.498 264.86 277.766 265.941L276.975 267.031C275.217 266.17 273.731 264.324 273.028 262.206C272.308 264.5 270.743 266.521 268.994 267.418L268.15 266.328C270.4 265.229 272.334 262.259 272.352 259.596V257.557H268.713V256.414H277.221V257.557H273.705V259.596ZM279.137 270.424V254.797H280.508V261.125H283.127V262.303H280.508V270.424H279.137ZM291.863 256.221V263.41H284.639V256.221H291.863ZM285.992 262.303H290.527V257.346H285.992V262.303ZM286.414 270.09V265.168H287.768V268.93H296.908V270.09H286.414ZM294.816 266.258V254.797H296.188V259.561H298.543V260.721H296.188V266.258H294.816ZM304.643 255.939C307.095 255.948 308.835 257.442 308.844 259.613C308.835 261.793 307.095 263.278 304.643 263.287C302.173 263.278 300.415 261.793 300.424 259.613C300.415 257.442 302.173 255.948 304.643 255.939ZM299.615 265.836C302.498 265.845 306.479 265.818 309.934 265.309L310.039 266.328C306.462 266.996 302.621 267.014 299.809 267.014L299.615 265.836ZM301.777 259.613C301.769 261.072 302.973 262.074 304.643 262.074C306.295 262.074 307.499 261.072 307.49 259.613C307.499 258.163 306.295 257.152 304.643 257.152C302.973 257.152 301.769 258.163 301.777 259.613ZM310.971 270.459V254.797H312.342V270.459H310.971ZM78.5 290.676C81.8486 290.676 83.9756 291.73 83.9844 293.541C83.9756 295.334 81.8486 296.389 78.5 296.389C75.1514 296.389 73.0244 295.334 73.0332 293.541C73.0244 291.73 75.1514 290.676 78.5 290.676ZM71.4512 289.217V288.092H77.3398V285.068H78.6934V288.092H85.6719V289.217H71.4512ZM73.1387 282.73V281.605H83.8613V282.924C83.8525 284.189 83.8525 285.455 83.4219 287.072L82.0684 286.914C82.4902 285.306 82.4902 284.146 82.4902 282.924V282.73H73.1387ZM74.4043 293.541C74.3955 294.631 76.0127 295.299 78.5 295.299C80.9961 295.299 82.5957 294.631 82.6133 293.541C82.5957 292.425 80.9961 291.739 78.5 291.73C76.0127 291.739 74.3955 292.425 74.4043 293.541ZM99.207 280.797V285.561H101.562V286.721H99.207V292.24H97.8184V280.797H99.207ZM87.0078 289.322C90.7607 288.153 93.1953 285.93 93.4854 283.17H87.6582V282.01H94.9883C94.9883 286.035 92.1143 289.023 87.6055 290.43L87.0078 289.322ZM89.416 296.09V291.08H90.7871V294.93H99.9277V296.09H89.416ZM115.941 280.797V296.424H114.605V280.797H115.941ZM102.74 287.547C102.749 284.225 104.067 282.124 106.098 282.115C107.996 282.124 109.279 283.952 109.455 286.896H111.477V281.131H112.795V295.633H111.477V288.039H109.464C109.332 291.08 108.022 292.987 106.098 292.979C104.067 292.987 102.749 290.869 102.74 287.547ZM104.041 287.547C104.023 290.078 104.832 291.678 106.098 291.66C107.372 291.678 108.181 290.078 108.172 287.547C108.181 285.007 107.372 283.416 106.098 283.416C104.832 283.416 104.023 285.007 104.041 287.547ZM126.98 281.693C129.318 281.702 131.041 283.188 131.041 285.314C131.041 287.45 129.318 288.918 126.98 288.936C124.651 288.918 122.911 287.45 122.92 285.314C122.911 283.188 124.651 281.702 126.98 281.693ZM124.273 285.314C124.265 286.747 125.442 287.793 126.98 287.793C128.527 287.793 129.696 286.747 129.688 285.314C129.696 283.891 128.527 282.854 126.98 282.854C125.442 282.854 124.265 283.891 124.273 285.314ZM124.291 295.879V290.377H125.627V294.71C126.603 294.666 127.842 294.499 128.668 294.033L129.072 295.123L128.914 295.202C130.672 294.49 131.647 292.987 131.639 291.52V291.186H129.072V290.061H135.523V291.186H132.957V291.52C132.948 293.102 134.012 294.666 135.98 295.299L135.295 296.354C133.818 295.844 132.816 294.833 132.298 293.611C131.779 294.824 130.777 295.826 129.318 296.354L128.659 295.316C127.473 295.791 126.093 295.87 125.029 295.879H124.291ZM133.467 289.252V280.797H134.838V284.541H137.193V285.684H134.838V289.252H133.467ZM151.555 280.797V296.424H150.236V280.797H151.555ZM138.195 292.047C141.588 290.034 143.293 287.213 143.557 283.943H138.863V282.801H144.928C144.928 284.339 144.682 285.824 144.146 287.213H146.949V281.219H148.268V295.633H146.949V288.338H143.636C142.695 290.157 141.184 291.766 139.004 293.049L138.195 292.047ZM167.568 287.547V288.689H164.141V291.766C165.67 291.704 167.208 291.599 168.658 291.432L168.764 292.469C165.301 292.97 161.521 293.04 158.533 293.031L158.34 291.871C159.702 291.871 161.214 291.862 162.77 291.818V288.689H159.535V282.291H167.498V283.416H160.889V287.547H167.568ZM169.695 296.459V280.797H171.066V296.459H169.695ZM179.188 291.273C179.179 292.68 179.926 294.147 181.411 295.009C182.914 294.068 183.679 292.478 183.688 291.273V290.324H185.041V291.273C185.032 292.891 186.201 294.517 188.24 295.193L187.52 296.23C185.964 295.659 184.874 294.569 184.347 293.251C183.854 294.525 182.896 295.738 181.438 296.354C179.943 295.773 178.977 294.622 178.502 293.304C177.939 294.561 176.867 295.659 175.373 296.23L174.688 295.193C176.665 294.481 177.852 292.785 177.869 291.273V290.324H179.188V291.273ZM174.072 285.35C174.072 283.205 175.777 281.685 178.115 281.693C180.172 281.685 181.78 282.924 182.088 284.734H185.375V280.797H186.764V289.727H185.375V285.877H182.097C181.833 287.74 180.207 289.006 178.115 289.006C175.777 289.006 174.072 287.503 174.072 285.35ZM175.408 285.35C175.391 286.8 176.542 287.854 178.115 287.863C179.653 287.854 180.805 286.8 180.805 285.35C180.805 283.899 179.653 282.854 178.115 282.871C176.542 282.854 175.391 283.899 175.408 285.35ZM192.547 290.184V292.012H200.352V290.184H201.74V296.213H191.176V290.184H192.547ZM189.365 289.076V287.934H203.604V289.076H189.365ZM190.174 285.719C192.96 285.341 195.781 283.697 195.781 281.711V280.973H197.205V281.711C197.196 283.636 200.044 285.367 202.795 285.719L202.285 286.826C199.868 286.466 197.486 285.235 196.493 283.486C195.5 285.244 193.109 286.466 190.701 286.826L190.174 285.719ZM192.547 295.105H200.352V293.102H192.547V295.105ZM217.807 280.797V296.424H216.436V280.797H217.807ZM205.941 292.398V282.344H207.295V291.203C209.686 291.186 212.146 291.001 214.766 290.447L214.959 291.625C212.182 292.205 209.712 292.398 207.207 292.398H205.941ZM232.572 280.797V286.984H235.191V288.145H232.572V296.459H231.201V280.797H232.572ZM221.164 292.539V282.326H228.459V283.469H222.535V291.379C225.365 291.37 227.36 291.247 229.689 290.816L229.865 292.012C227.413 292.451 225.365 292.539 222.395 292.539H221.164ZM237.688 295.105C237.072 295.097 236.545 294.587 236.562 293.963C236.545 293.348 237.072 292.838 237.688 292.838C238.312 292.838 238.821 293.348 238.812 293.963C238.821 294.587 238.312 295.097 237.688 295.105ZM257.973 280.797V296.459H256.584V280.797H257.973ZM245.668 287.459C245.677 284.137 247.329 282.019 249.658 282.01C251.979 282.019 253.657 284.137 253.648 287.459C253.657 290.79 251.979 292.899 249.658 292.891C247.329 292.899 245.677 290.79 245.668 287.459ZM247.004 287.459C247.004 289.999 248.094 291.669 249.658 291.66C251.231 291.669 252.312 289.999 252.312 287.459C252.312 284.919 251.231 283.249 249.658 283.24C248.094 283.249 247.004 284.919 247.004 287.459ZM270.453 285.596C270.436 288.101 272.246 290.86 274.514 291.941L273.723 293.031C271.965 292.17 270.479 290.324 269.776 288.206C269.056 290.5 267.491 292.521 265.742 293.418L264.898 292.328C267.148 291.229 269.082 288.259 269.1 285.596V283.557H265.461V282.414H273.969V283.557H270.453V285.596ZM275.885 296.424V280.797H277.256V287.125H279.875V288.303H277.256V296.424H275.885ZM293.621 280.797V296.459H292.25V280.797H293.621ZM281.598 283.398V282.256H288.875V287.811H283.039V291.502C285.632 291.511 287.943 291.388 290.738 290.939L290.879 292.1C288.005 292.548 285.632 292.662 282.934 292.662H281.633V286.686H287.486V283.398H281.598ZM309.67 280.797V296.424H308.334V280.797H309.67ZM296.469 287.547C296.478 284.225 297.796 282.124 299.826 282.115C301.725 282.124 303.008 283.952 303.184 286.896H305.205V281.131H306.523V295.633H305.205V288.039H303.192C303.061 291.08 301.751 292.987 299.826 292.979C297.796 292.987 296.478 290.869 296.469 287.547ZM297.77 287.547C297.752 290.078 298.561 291.678 299.826 291.66C301.101 291.678 301.909 290.078 301.9 287.547C301.909 285.007 301.101 283.416 299.826 283.416C298.561 283.416 297.752 285.007 297.77 287.547ZM75.8018 307.693C78.1396 307.702 79.8623 309.188 79.8623 311.314C79.8623 313.45 78.1396 314.918 75.8018 314.936C73.4727 314.918 71.7324 313.45 71.7412 311.314C71.7324 309.188 73.4727 307.702 75.8018 307.693ZM73.0947 311.314C73.0859 312.747 74.2637 313.793 75.8018 313.793C77.3486 313.793 78.5176 312.747 78.5088 311.314C78.5176 309.891 77.3486 308.854 75.8018 308.854C74.2637 308.854 73.0859 309.891 73.0947 311.314ZM73.1123 321.879V316.377H74.4482V320.71C75.4238 320.666 76.6631 320.499 77.4893 320.033L77.8936 321.123L77.7354 321.202C79.4932 320.49 80.4688 318.987 80.46 317.52V317.186H77.8936V316.061H84.3447V317.186H81.7783V317.52C81.7695 319.102 82.833 320.666 84.8018 321.299L84.1162 322.354C82.6396 321.844 81.6377 320.833 81.1191 319.611C80.6006 320.824 79.5986 321.826 78.1396 322.354L77.4805 321.316C76.2939 321.791 74.9141 321.87 73.8506 321.879H73.1123ZM82.2881 315.252V306.797H83.6592V310.541H86.0146V311.684H83.6592V315.252H82.2881ZM101.237 315.041V316.166H86.999V315.041H101.237ZM88.5811 310.453C88.5811 308.493 90.7256 307.342 94.1182 307.359C97.4756 307.342 99.6289 308.493 99.6377 310.453C99.6289 312.396 97.4756 313.564 94.1182 313.564C90.7256 313.564 88.5811 312.396 88.5811 310.453ZM88.8447 322.09V317.537H90.2334V320.93H99.6553V322.09H88.8447ZM90.0049 310.453C89.9961 311.692 91.5957 312.439 94.1182 312.439C96.623 312.439 98.2227 311.692 98.2314 310.453C98.2227 309.231 96.623 308.467 94.1182 308.467C91.5957 308.467 89.9961 309.231 90.0049 310.453ZM112.312 310.998C112.312 313.749 114.131 316.588 116.354 317.678L115.511 318.785C113.788 317.889 112.347 316.034 111.652 313.863C110.958 316.166 109.481 318.144 107.724 319.084L106.845 317.977C109.13 316.852 110.94 313.854 110.958 310.998V308.15H112.312V310.998ZM117.796 322.424V306.797H119.167V313.143H121.786V314.338H119.167V322.424H117.796ZM134.847 306.814V310.822H137.22V312H134.847V316.131H133.476V306.814H134.847ZM123.298 308.801V307.658H130.382V311.93H124.687V314.145C127.464 314.153 129.477 314.065 131.911 313.67L132.052 314.777C129.547 315.217 127.455 315.305 124.546 315.305H123.333V310.857H129.028V308.801H123.298ZM124.95 322.213V316.904H134.847V322.213H124.95ZM126.304 321.088H133.511V317.977H126.304V321.088ZM152.425 315.041V316.166H138.187V315.041H152.425ZM139.769 310.453C139.769 308.493 141.913 307.342 145.306 307.359C148.663 307.342 150.816 308.493 150.825 310.453C150.816 312.396 148.663 313.564 145.306 313.564C141.913 313.564 139.769 312.396 139.769 310.453ZM140.032 322.09V317.537H141.421V320.93H150.843V322.09H140.032ZM141.192 310.453C141.184 311.692 142.783 312.439 145.306 312.439C147.811 312.439 149.41 311.692 149.419 310.453C149.41 309.231 147.811 308.467 145.306 308.467C142.783 308.467 141.184 309.231 141.192 310.453ZM171.216 306.797V315.604H169.827V313.705H165.705C164.984 314.487 163.868 314.944 162.567 314.953C160.186 314.944 158.498 313.494 158.507 311.35C158.498 309.188 160.186 307.702 162.567 307.711C163.877 307.702 164.993 308.177 165.714 308.977H169.827V306.797H171.216ZM159.825 311.35C159.825 312.8 160.968 313.802 162.567 313.811C164.114 313.802 165.274 312.8 165.274 311.35C165.274 309.891 164.114 308.854 162.567 308.871C160.968 308.854 159.825 309.891 159.825 311.35ZM160.616 322.178V321.053H163.042V317.484H160.774V316.359H171.339V317.484H169.089V321.053H171.532V322.178H160.616ZM164.396 321.053H167.718V317.484H164.396V321.053ZM166.399 310.119C166.531 310.497 166.61 310.91 166.61 311.35C166.61 311.78 166.54 312.176 166.408 312.545H169.827V310.119H166.399ZM178.933 307.939C181.385 307.948 183.125 309.442 183.134 311.613C183.125 313.793 181.385 315.278 178.933 315.287C176.463 315.278 174.705 313.793 174.714 311.613C174.705 309.442 176.463 307.948 178.933 307.939ZM173.905 317.836C176.788 317.845 180.77 317.818 184.224 317.309L184.329 318.328C180.752 318.996 176.911 319.014 174.099 319.014L173.905 317.836ZM176.067 311.613C176.059 313.072 177.263 314.074 178.933 314.074C180.585 314.074 181.789 313.072 181.78 311.613C181.789 310.163 180.585 309.152 178.933 309.152C177.263 309.152 176.059 310.163 176.067 311.613ZM185.261 322.459V306.797H186.632V322.459H185.261ZM199.429 309.064C199.411 311.341 201.063 313.371 203.384 314.18L202.681 315.27C200.87 314.602 199.438 313.257 198.734 311.525C198.049 313.38 196.607 314.839 194.771 315.551L194.05 314.461C196.388 313.591 198.022 311.429 198.022 309.064V307.57H199.429V309.064ZM196.282 318.135V316.992H206.794V322.424H205.423V318.135H196.282ZM205.423 316.219V306.797H206.794V316.219H205.423ZM223.687 313.406V314.531H217.235V316.078H221.858V319.576H212.577V321.158H222.333V322.248H211.206V318.539H220.505V317.15H211.171V316.078H215.864V314.531H209.448V313.406H223.687ZM211.294 312.088V307.324H221.841V312.088H211.294ZM212.665 310.98H220.47V308.432H212.665V310.98ZM238.399 306.797V322.424H237.063V306.797H238.399ZM225.198 313.547C225.207 310.225 226.525 308.124 228.556 308.115C230.454 308.124 231.737 309.952 231.913 312.896H233.935V307.131H235.253V321.633H233.935V314.039H231.922C231.79 317.08 230.48 318.987 228.556 318.979C226.525 318.987 225.207 316.869 225.198 313.547ZM226.499 313.547C226.481 316.078 227.29 317.678 228.556 317.66C229.83 317.678 230.639 316.078 230.63 313.547C230.639 311.007 229.83 309.416 228.556 309.416C227.29 309.416 226.481 311.007 226.499 313.547ZM259.317 313.406V314.531H252.866V316.078H257.489V319.576H248.208V321.158H257.964V322.248H246.837V318.539H256.136V317.15H246.802V316.078H251.495V314.531H245.079V313.406H259.317ZM246.925 312.088V307.324H257.472V312.088H246.925ZM248.296 310.98H256.101V308.432H248.296V310.98ZM267.755 307.078C271.227 307.078 273.266 308.036 273.274 309.768C273.266 311.543 271.227 312.501 267.755 312.51C264.266 312.501 262.218 311.543 262.218 309.768C262.218 308.036 264.266 307.078 267.755 307.078ZM260.636 314.689V313.564H274.874V314.689H260.636ZM262.358 317.098V316.043H273.046V319.541H263.765V321.158H273.521V322.248H262.394V318.521H271.692V317.098H262.358ZM263.659 309.768C263.642 310.857 265.162 311.455 267.755 311.455C270.348 311.455 271.859 310.857 271.868 309.768C271.859 308.739 270.348 308.124 267.755 308.115C265.162 308.124 263.642 308.739 263.659 309.768ZM288.603 309.012C288.594 311.104 291.38 312.879 294.104 313.283L293.595 314.373C291.16 313.96 288.778 312.659 287.829 310.778C286.88 312.659 284.498 313.96 282.099 314.373L281.554 313.283C284.27 312.879 287.047 311.104 287.056 309.012V308.906H282.046V307.781H293.595V308.906H288.603V309.012ZM280.71 316.852V315.709H294.948V316.852H288.479V322.424H287.126V316.852H280.71ZM308.905 311.543V312.65H298.2V307.377H299.571V311.543H308.905ZM296.249 315.902V314.777H310.558V315.902H296.249ZM298.112 322.037V317.502H299.483V320.895H308.993V322.037H298.112ZM127.227 336.189C127.227 338.035 128.457 339.837 130.443 340.566L129.775 341.639C128.255 341.032 127.165 339.863 126.611 338.457C126.066 339.986 124.968 341.252 123.412 341.92L122.727 340.883C124.722 340.065 125.908 338.176 125.926 336.189V335.996H123.043V334.871H125.926V332.99H127.227V334.871H130.057V335.996H127.227V336.189ZM125.346 344.346V343.221H135.875V348.424H134.521V344.346H125.346ZM131.182 342.307V333.096H132.518V336.998H134.557V332.814H135.875V342.377H134.557V338.141H132.518V342.307H131.182ZM151.062 332.814V341.744H149.691V332.814H151.062ZM138.529 337.297C138.521 335.117 140.252 333.641 142.625 333.641C144.998 333.641 146.712 335.117 146.721 337.297C146.712 339.441 144.998 340.936 142.625 340.936C140.252 340.936 138.521 339.441 138.529 337.297ZM139.883 337.297C139.865 338.747 141.017 339.767 142.625 339.758C144.216 339.767 145.367 338.747 145.367 337.297C145.367 335.838 144.216 334.81 142.625 334.818C141.017 334.81 139.865 335.838 139.883 337.297ZM140.902 348.213V342.588H151.062V348.213H140.902ZM142.256 347.088H149.709V343.713H142.256V347.088ZM160.836 333.078C164.308 333.078 166.347 334.036 166.355 335.768C166.347 337.543 164.308 338.501 160.836 338.51C157.347 338.501 155.299 337.543 155.299 335.768C155.299 334.036 157.347 333.078 160.836 333.078ZM153.717 340.689V339.564H167.955V340.689H153.717ZM155.439 343.098V342.043H166.127V345.541H156.846V347.158H166.602V348.248H155.475V344.521H164.773V343.098H155.439ZM156.74 335.768C156.723 336.857 158.243 337.455 160.836 337.455C163.429 337.455 164.94 336.857 164.949 335.768C164.94 334.739 163.429 334.124 160.836 334.115C158.243 334.124 156.723 334.739 156.74 335.768ZM181.684 333.887V340.355H174.459V333.887H181.684ZM175.812 339.248H180.348V335.029H175.812V339.248ZM176.164 348.213V342.078H186.096V343.115H177.518V344.609H185.92V345.611H177.518V347.193H186.447V348.213H176.164ZM184.637 341.217V332.797H186.008V336.418H188.363V337.578H186.008V341.217H184.637ZM202.725 332.797V348.424H201.406V332.797H202.725ZM189.365 344.047C192.758 342.034 194.463 339.213 194.727 335.943H190.033V334.801H196.098C196.098 336.339 195.852 337.824 195.315 339.213H198.119V333.219H199.438V347.633H198.119V340.338H194.806C193.865 342.157 192.354 343.766 190.174 345.049L189.365 344.047ZM222.324 332.814V341.797H220.936V332.814H222.324ZM209.475 340.268C210.802 340.268 212.349 340.268 213.957 340.215V338.527H210.898V333.588H218.316V334.73H212.287V337.42H218.457V338.527H215.346V340.153C216.796 340.083 218.264 339.969 219.635 339.775L219.723 340.777C216.295 341.357 212.507 341.41 209.686 341.41L209.475 340.268ZM212.023 348.213V342.5H213.395V344.17H220.971V342.5H222.324V348.213H212.023ZM213.395 347.088H220.971V345.242H213.395V347.088ZM237.863 332.797V348.424H236.492V332.797H237.863ZM225.998 344.398V334.344H227.352V343.203C229.742 343.186 232.203 343.001 234.822 342.447L235.016 343.625C232.238 344.205 229.769 344.398 227.264 344.398H225.998ZM252.629 332.797V338.984H255.248V340.145H252.629V348.459H251.258V332.797H252.629ZM241.221 344.539V334.326H248.516V335.469H242.592V343.379C245.422 343.37 247.417 343.247 249.746 342.816L249.922 344.012C247.47 344.451 245.422 344.539 242.451 344.539H241.221ZM257.744 347.105C257.129 347.097 256.602 346.587 256.619 345.963C256.602 345.348 257.129 344.838 257.744 344.838C258.368 344.838 258.878 345.348 258.869 345.963C258.878 346.587 258.368 347.097 257.744 347.105Z" fill="black"/>
<rect x="49" y="393" width="284" height="54" rx="27" stroke="black" stroke-width="2"/>
<path d="M187.914 411.18V416.375H190.414V417.898H187.914V422.957H186.059V411.18H187.914ZM174.027 421.004C175.385 421.004 176.957 421.004 178.598 420.965V419.783C176.605 419.559 175.336 418.621 175.355 417.215C175.336 415.613 177.006 414.617 179.516 414.637C182.025 414.617 183.666 415.613 183.676 417.215C183.666 418.611 182.426 419.549 180.453 419.783V420.896C182.016 420.818 183.598 420.691 185.062 420.477L185.219 421.805C181.459 422.459 177.309 422.488 174.223 422.488L174.027 421.004ZM174.477 414.051V412.664H178.598V411.023H180.453V412.664H184.574V414.051H174.477ZM176.215 425.223V423.777H187.914V428.66H186.059V425.223H176.215ZM177.113 417.215C177.113 418.035 178.021 418.572 179.516 418.562C180.99 418.572 181.908 418.035 181.898 417.215C181.908 416.375 180.99 415.887 179.516 415.906C178.021 415.887 177.113 416.375 177.113 417.215ZM205.941 411.18V423.895H204.086V411.18H205.941ZM191.781 416.688C191.791 414.158 193.803 412.361 196.449 412.352C199.086 412.361 201.098 414.158 201.098 416.688C201.098 419.256 199.086 421.043 196.449 421.043C193.803 421.043 191.791 419.256 191.781 416.688ZM193.598 416.688C193.588 418.338 194.818 419.422 196.449 419.422C198.051 419.422 199.281 418.338 199.281 416.688C199.281 415.076 198.051 413.973 196.449 413.973C194.818 413.973 193.588 415.076 193.598 416.688ZM194.496 428.289V422.605H196.371V426.785H206.469V428.289H194.496Z" fill="black"/>
<defs>
<linearGradient id="paint0_linear_1237_6001" x1="152.141" y1="193.935" x2="161.531" y2="144.933" gradientUnits="userSpaceOnUse">
<stop stop-color="white"/>
<stop offset="1" stop-color="#FFC552"/>
</linearGradient>
<clipPath id="clip0_1237_6001">
<rect x="141" y="111" width="100" height="100" rx="50" fill="white"/>
</clipPath>
<clipPath id="clip1_1237_6001">
<rect width="148.192" height="139.887" fill="white" transform="translate(79.0791 98.1135)"/>
</clipPath>
</defs>
</svg>
