<svg width="382" height="436" viewBox="0 0 382 436" fill="none" xmlns="http://www.w3.org/2000/svg">
<g clip-path="url(#clip0_13_299)">
<rect width="382" height="436" rx="20" fill="#EEEEEE"/>
<rect width="382" height="64" fill="#455767"/>
<path d="M134.922 32.9609V34.7422H115.773V32.9609H134.922ZM117.836 26.8906C117.824 24.2539 120.766 22.6836 125.336 22.6953C129.883 22.6836 132.824 24.2539 132.836 26.8906C132.824 29.5391 129.883 31.1445 125.336 31.1562C120.766 31.1445 117.824 29.5391 117.836 26.8906ZM118.188 42.5469V36.4531H120.438V40.7422H132.766V42.5469H118.188ZM120.133 26.8906C120.121 28.4492 122.113 29.3281 125.336 29.3281C128.547 29.3281 130.551 28.4492 130.539 26.8906C130.551 25.3906 128.547 24.4766 125.336 24.4766C122.113 24.4766 120.121 25.3906 120.133 26.8906ZM153.531 28.7656V30.5469H138.906V23H153.32V24.8047H141.133V28.7656H153.531ZM136.516 34.4141V32.6094H155.688V34.4141H147.461V38.375H145.234V34.4141H136.516ZM138.906 42.5469V36.5469H141.133V40.7422H153.672V42.5469H138.906ZM164.102 23.4922C167.418 23.4805 169.809 25.5312 169.82 28.4844C169.809 31.4375 167.418 33.4883 164.102 33.5C160.797 33.4883 158.371 31.4375 158.383 28.4844C158.371 25.5312 160.797 23.4805 164.102 23.4922ZM157.375 36.6641C161.195 36.6641 166.492 36.6289 171.086 35.9609L171.25 37.5781C166.504 38.4922 161.406 38.5156 157.656 38.5156L157.375 36.6641ZM160.586 28.4844C160.562 30.3477 162.062 31.5547 164.102 31.5547C166.141 31.5547 167.641 30.3477 167.641 28.4844C167.641 26.6445 166.141 25.4141 164.102 25.4141C162.062 25.4141 160.562 26.6445 160.586 28.4844ZM172.398 43.0391V21.9922H174.625V43.0391H172.398ZM191.5 25.0156C191.488 27.9219 193.457 30.582 196.703 31.6484L195.578 33.4062C193.141 32.5625 191.324 30.8516 190.375 28.6602C189.438 31.0039 187.586 32.8672 185.102 33.7578L183.977 32.0234C187.246 30.8633 189.215 28.0156 189.227 25.0156V23H191.5V25.0156ZM187.047 37.4141V35.6094H201.273V42.9922H199.047V37.4141H187.047ZM199.047 34.6016V21.9922H201.273V34.6016H199.047ZM223.75 30.6875V32.4688H215.266V34.2969H221.336V39.2188H209.102V41.0703H221.922V42.7812H206.922V37.6016H219.133V36.0078H206.898V34.2969H213.039V32.4688H204.602V30.6875H223.75ZM207.062 29.1406V22.6719H221.289V29.1406H207.062ZM209.242 27.3828H219.062V24.4297H209.242V27.3828ZM233.125 25.3438C233.125 27.957 235.164 30.3711 238.398 31.3203L237.273 33.0547C234.824 32.3047 232.973 30.7109 232.012 28.6484C231.074 30.8633 229.199 32.5977 226.68 33.4297L225.555 31.6719C228.824 30.6758 230.863 28.0977 230.875 25.3438V25.1094H226.164V23.3047H237.742V25.1094H233.125V25.3438ZM229.023 42.7344V34.3438H231.203V36.6875H240.555V34.3438H242.758V42.7344H229.023ZM231.203 40.9297H240.555V38.4453H231.203V40.9297ZM240.531 33.3594V21.9922H242.758V33.3594H240.531ZM253.375 27.3359C253.352 31.0508 255.52 34.8594 258.648 36.3828L257.266 38.1641C254.98 36.9688 253.211 34.625 252.285 31.8242C251.348 34.8008 249.508 37.3203 247.117 38.5625L245.734 36.7578C248.957 35.2109 251.137 31.1797 251.148 27.3359V23.75H253.375V27.3359ZM260.219 42.9922V21.9922H262.445V30.3594H265.82V32.2578H262.445V42.9922H260.219Z" fill="white"/>
<g clip-path="url(#clip1_13_299)">
<rect x="136" y="104" width="110" height="110" rx="55" fill="#37404F"/>
<g clip-path="url(#clip2_13_299)">
<path d="M229.68 206.43H231.17L231.75 206.44C231.66 205.37 231.46 204.33 231.19 203.32L231.42 168.06C233.89 167.75 235.82 165.68 235.84 163.12C235.86 160.34 233.62 158.07 230.84 158.05C228.06 158.03 225.79 160.27 225.77 163.05C225.75 165.54 227.56 167.61 229.94 168.03L229.74 199.71" fill="#FFE000"/>
<path d="M226.26 133.09C226.26 132.93 226.27 132.78 226.28 132.62L195.62 146.39L194.56 145.34C194.17 144.96 193.61 144.81 193.08 144.95L173.96 150.03C172.82 150.33 172.44 151.74 173.27 152.56L192.34 171.45C193.17 172.27 194.59 171.9 194.9 170.77L200.02 151.83C200.16 151.31 200.02 150.75 199.62 150.37L198.44 149.2L227.14 136.31C226.57 135.37 226.24 134.27 226.24 133.09H226.26Z" fill="#5D63D2"/>
<path d="M236.76 133.09C236.76 130.84 234.91 129 232.63 129C230.94 129 229.48 130.02 228.84 131.46C228.62 131.96 228.5 132.51 228.5 133.08C228.5 133.93 228.76 134.72 229.21 135.37C229.95 136.45 231.21 137.17 232.63 137.17C233.37 137.17 234.06 136.98 234.65 136.64C235.84 135.97 236.66 134.74 236.74 133.31C236.74 133.23 236.75 133.16 236.75 133.08L236.76 133.09Z" fill="#5D63D2"/>
<path d="M175.37 218.58L190.65 169.24L176.58 155.3L76 220.47L175.37 218.58Z" fill="url(#paint0_linear_13_299)"/>
<path d="M214.32 197.76C211.48 200.13 209.69 203.2 209.09 206.23V192.76C212.98 194.04 217.97 193 221.96 189.67C225.99 186.31 227.92 181.54 227.31 177.45C223.4 176.11 218.36 177.14 214.32 180.5C211.48 182.87 209.69 185.94 209.09 188.97V180.02C210.98 180.59 213.36 180.08 215.27 178.48C217.24 176.84 218.19 174.5 217.89 172.5C215.98 171.84 213.51 172.35 211.53 173.99C209.78 175.44 208.85 177.44 208.86 179.26C208.83 177.47 207.89 175.54 206.19 174.13C204.22 172.49 201.75 171.98 199.83 172.64C199.53 174.64 200.47 176.98 202.45 178.62C204.09 179.99 206.07 180.55 207.79 180.33V186.54C206.88 184.44 205.4 182.43 203.41 180.77C199.38 177.41 194.33 176.38 190.42 177.72C189.81 181.81 191.74 186.58 195.77 189.94C199.48 193.03 204.04 194.15 207.79 193.26V203.79C206.88 201.69 205.4 199.68 203.41 198.02C199.38 194.66 194.33 193.63 190.42 194.97C189.81 199.06 191.74 203.83 195.77 207.19C199.48 210.28 204.04 211.4 207.79 210.51V219.8H209.08V209.99C212.97 211.27 217.96 210.23 221.95 206.9C225.98 203.54 227.91 198.77 227.3 194.68C223.39 193.34 218.35 194.37 214.31 197.73L214.32 197.76Z" fill="#48B070"/>
</g>
</g>
<path d="M57.1426 266.514V267.867H42.7812V266.514H49.127V264.791H44.5742V259.377H55.3848V260.713H46.2441V263.42H55.543V264.791H50.7969V266.514H57.1426ZM44.3809 270.609V269.256H55.4023V274.582H53.75V270.609H44.3809ZM71.3984 258.762V267.445H69.7285V258.762H71.3984ZM59.1289 260.854V259.5H66.3711V263.895H60.7988V265.758C63.5586 265.749 65.5713 265.679 67.9707 265.283L68.1816 266.637C65.6064 267.059 63.4619 267.129 60.4824 267.146H59.1641V262.594H64.7188V260.854H59.1289ZM61.0625 274.301V268.184H62.7324V269.889H69.7461V268.184H71.3984V274.301H61.0625ZM62.7324 272.947H69.7461V271.207H62.7324V272.947ZM79.5371 261.539C79.5283 263.525 80.9521 265.468 83.334 266.285L82.4727 267.586C80.7061 266.979 79.3965 265.714 78.7109 264.158C78.0254 265.89 76.6455 267.278 74.7734 267.938L73.9121 266.619C76.3291 265.793 77.8408 263.692 77.832 261.557V261.117H74.4219V259.764H82.9121V261.117H79.5371V261.539ZM76.3555 270.311V268.957H87.0254V274.494H85.3555V270.311H76.3555ZM82.4375 264.123V262.752H85.3555V258.744H87.0254V268.166H85.3555V264.123H82.4375ZM102.494 258.744V274.529H100.824V258.744H102.494ZM89.9961 265.441C89.9961 262.075 91.6924 259.931 94.0742 259.922C96.4121 259.931 98.1348 262.075 98.1348 265.441C98.1348 268.843 96.4121 270.987 94.0742 270.979C91.6924 270.987 89.9961 268.843 89.9961 265.441ZM91.6133 265.441C91.6045 267.946 92.6064 269.484 94.0742 269.484C95.5156 269.484 96.5176 267.946 96.5176 265.441C96.5176 262.972 95.5156 261.425 94.0742 261.416C92.6064 261.425 91.6045 262.972 91.6133 265.441ZM117.752 260.256V261.803C117.743 263.745 117.743 265.925 117.154 269.15L115.467 268.975C116.073 265.925 116.073 263.692 116.082 261.803V261.609H106.52V260.256H117.752ZM105.008 272.367V270.979H110.475V265.424H112.127V270.979H119.369V272.367H105.008ZM132.254 268.553C135.497 268.553 137.475 269.643 137.475 271.506C137.475 273.396 135.497 274.485 132.254 274.494C128.976 274.485 126.963 273.396 126.963 271.506C126.963 269.643 128.976 268.553 132.254 268.553ZM125.574 267.041V259.729H127.209V261.996H131.34V259.729H132.992V267.041H125.574ZM127.209 265.705H131.34V263.314H127.209V265.705ZM128.633 271.506C128.624 272.561 129.978 273.158 132.254 273.158C134.513 273.158 135.849 272.561 135.84 271.506C135.849 270.46 134.513 269.871 132.254 269.871C129.978 269.871 128.624 270.46 128.633 271.506ZM135.664 268.148V258.744H137.334V262.594H139.619V264.018H137.334V268.148H135.664ZM148.303 261.346V262.699H140.48V261.346H143.574V259.201H145.227V261.346H148.303ZM140.99 267.27C140.981 265.151 142.423 263.648 144.4 263.648C146.396 263.648 147.819 265.151 147.828 267.27C147.819 269.423 146.396 270.935 144.4 270.926C142.423 270.935 140.981 269.423 140.99 267.27ZM142.467 267.27C142.458 268.605 143.267 269.502 144.4 269.502C145.534 269.502 146.352 268.605 146.352 267.27C146.352 265.96 145.534 265.046 144.4 265.037C143.267 265.046 142.458 265.96 142.467 267.27ZM149.023 273.756V259.096H150.605V265.301H152.416V258.744H153.998V274.494H152.416V266.672H150.605V273.756H149.023ZM168.447 258.744V262.471H170.732V263.859H168.447V267.938H166.777V258.744H168.447ZM156.688 267.023V259.641H158.322V261.926H162.453V259.641H164.105V267.023H156.688ZM158.322 265.705H162.453V263.244H158.322V265.705ZM158.41 274.266V268.764H168.57V270.1H160.08V272.947H168.852V274.266H158.41ZM177.43 263.385C177.421 266.021 179.152 268.746 181.578 269.783L180.664 271.084C178.81 270.267 177.333 268.526 176.604 266.426C175.874 268.676 174.397 270.592 172.561 271.488L171.594 270.17C173.967 269.054 175.725 266.101 175.742 263.385V261.715H172.139V260.326H181.016V261.715H177.43V263.385ZM183.002 274.494V258.744H184.672V274.494H183.002ZM195.957 259.588C198.339 259.597 200.088 261.108 200.088 263.244C200.088 265.389 198.339 266.892 195.957 266.9C193.584 266.892 191.809 265.389 191.826 263.244C191.809 261.108 193.584 259.597 195.957 259.588ZM193.162 274.072V268.219H194.797V272.701C195.72 272.657 196.783 272.525 197.785 272.191L198.031 273.51C196.563 274.011 195.148 274.072 193.971 274.072H193.162ZM193.443 263.244C193.435 264.589 194.533 265.529 195.957 265.529C197.39 265.529 198.471 264.589 198.471 263.244C198.471 261.908 197.39 260.977 195.957 260.977C194.533 260.977 193.435 261.908 193.443 263.244ZM197.486 269.555V268.271H200.668V266.988H202.303V268.271H205.432V269.555H197.486ZM198.488 272.262C198.471 270.891 199.684 270.021 201.459 270.012C203.199 270.021 204.43 270.891 204.43 272.262C204.43 273.615 203.199 274.468 201.459 274.459C199.684 274.468 198.471 273.615 198.488 272.262ZM199.965 272.262C199.965 272.903 200.589 273.299 201.459 273.299C202.312 273.299 202.927 272.903 202.936 272.262C202.927 271.62 202.312 271.207 201.459 271.207C200.589 271.207 199.965 271.62 199.965 272.262ZM202.285 266.584V258.744H203.955V262.189H206.24V263.578H203.955V266.584H202.285ZM219.881 263.35V264.686H209.035V259.307H210.688V263.35H219.881ZM207.119 268.008V266.672H221.533V268.008H207.119ZM208.912 274.125V269.502H210.582V272.754H219.986V274.125H208.912ZM241.449 267.973V269.291H227.088V267.973H233.434V266.83C230.656 266.707 229.083 265.872 229.092 264.439C229.083 262.875 230.973 262.049 234.26 262.049C237.538 262.049 239.437 262.875 239.428 264.439C239.437 265.863 237.863 266.698 235.104 266.83V267.973H241.449ZM227.826 261.434V260.15H233.434V258.586H235.104V260.15H240.641V261.434H227.826ZM228.898 274.16V270.223H230.586V272.824H239.832V274.16H228.898ZM230.779 264.439C230.771 265.23 231.966 265.635 234.26 265.635C236.536 265.635 237.74 265.23 237.74 264.439C237.74 263.648 236.536 263.244 234.26 263.244C231.966 263.244 230.771 263.648 230.779 264.439ZM248.129 263.385C248.12 265.872 249.764 268.649 252.154 269.783L251.205 271.084C249.438 270.24 248.032 268.465 247.32 266.408C246.6 268.649 245.123 270.592 243.33 271.488L242.346 270.17C244.736 269.019 246.468 266.048 246.477 263.385V261.715H242.926V260.326H251.557V261.715H248.129V263.385ZM253.244 274.494V258.744H254.914V264.984H257.445V266.391H254.914V274.494H253.244ZM266.182 260.133V267.48H258.816V260.133H266.182ZM260.451 266.162H264.547V261.486H260.451V266.162ZM260.592 274.16V269.168H262.262V272.807H271.244V274.16H260.592ZM268.906 270.275V258.727H270.576V263.438H272.861V264.844H270.576V270.275H268.906ZM278.891 259.869C281.378 259.86 283.171 261.398 283.18 263.613C283.171 265.828 281.378 267.366 278.891 267.375C276.412 267.366 274.593 265.828 274.602 263.613C274.593 261.398 276.412 259.86 278.891 259.869ZM273.846 269.748C276.711 269.748 280.684 269.722 284.129 269.221L284.252 270.434C280.692 271.119 276.869 271.137 274.057 271.137L273.846 269.748ZM276.254 263.613C276.236 265.011 277.361 265.916 278.891 265.916C280.42 265.916 281.545 265.011 281.545 263.613C281.545 262.233 280.42 261.311 278.891 261.311C277.361 261.311 276.236 262.233 276.254 263.613ZM285.113 274.529V258.744H286.783V274.529H285.113ZM300.811 268.641C304.221 268.641 306.374 269.722 306.383 271.559C306.374 273.387 304.221 274.468 300.811 274.459C297.436 274.468 295.273 273.387 295.273 271.559C295.273 269.722 297.436 268.641 300.811 268.641ZM293.727 267.34V265.986H299.475V263.033H301.109V265.986H308.053V267.34H293.727ZM295.396 260.854V259.518H306.26V260.836C306.269 262.093 306.269 263.394 305.82 265.02L304.186 264.844C304.607 263.235 304.607 262.075 304.607 260.854H295.396ZM296.943 271.559C296.926 272.578 298.429 273.167 300.811 273.176C303.219 273.167 304.713 272.578 304.73 271.559C304.713 270.521 303.219 269.915 300.811 269.906C298.429 269.915 296.926 270.521 296.943 271.559ZM321.641 258.744V263.402H323.926V264.791H321.641V270.188H319.953V258.744H321.641ZM309.248 267.129C312.939 266.021 315.225 263.921 315.55 261.328H309.916V259.939H317.369C317.369 264.07 314.557 267.067 309.951 268.465L309.248 267.129ZM311.639 274.16V269.01H313.326V272.807H322.291V274.16H311.639ZM338.375 258.744V274.494H336.775V258.744H338.375ZM324.998 265.547C324.998 262.137 326.334 260.001 328.391 260.01C330.307 260.001 331.599 261.82 331.792 264.773H333.576V259.043H335.176V273.721H333.576V266.127H331.801C331.651 269.203 330.342 271.11 328.391 271.102C326.334 271.11 324.998 268.966 324.998 265.547ZM326.545 265.547C326.545 268.052 327.257 269.528 328.391 269.52C329.551 269.528 330.271 268.052 330.271 265.547C330.271 263.033 329.551 261.565 328.391 261.574C327.257 261.565 326.545 263.033 326.545 265.547ZM48.2744 285.588C50.6562 285.597 52.4053 287.108 52.4053 289.262C52.4053 291.415 50.6562 292.909 48.2744 292.918C45.9014 292.909 44.126 291.415 44.1436 289.262C44.126 287.108 45.9014 285.597 48.2744 285.588ZM45.4795 299.967V294.307H47.1143V298.569C48.0635 298.508 49.1533 298.341 49.9443 297.928L50.3223 299C52.001 298.297 52.8623 296.899 52.8623 295.52V295.291H50.3662V293.955H56.9404V295.291H54.4619V295.52C54.4443 297.058 55.4287 298.552 57.4326 299.158L56.6416 300.424C55.1738 299.94 54.1895 299.009 53.6533 297.849C53.1172 298.991 52.1328 299.932 50.6826 300.424L50.0498 299.387C48.8281 299.87 47.4395 299.958 46.2881 299.967H45.4795ZM45.7607 289.262C45.752 290.606 46.8506 291.547 48.2744 291.547C49.707 291.547 50.7881 290.606 50.7881 289.262C50.7881 287.908 49.707 286.977 48.2744 286.977C46.8506 286.977 45.752 287.908 45.7607 289.262ZM54.6025 293.199V284.744H56.2725V288.348H58.5576V289.736H56.2725V293.199H54.6025ZM72.9893 284.744V300.494H71.4072V284.744H72.9893ZM59.4014 295.941C62.7412 293.955 64.3408 291.31 64.6309 288.066H60.1396V286.695H66.292C66.2832 288.233 66.0723 289.701 65.5889 291.072H68.085V285.148H69.667V299.721H68.085V292.408H65.0088C64.0771 294.236 62.5742 295.836 60.3506 297.137L59.4014 295.941ZM88.792 291.406V292.777H85.4697V295.695C86.9287 295.634 88.3965 295.537 89.7764 295.379L89.8994 296.609C86.4277 297.128 82.7012 297.181 79.7041 297.189L79.4932 295.801C80.8203 295.801 82.2881 295.792 83.7998 295.757V292.777H80.6357V286.203H88.7217V287.557H82.2881V291.406H88.792ZM90.7607 300.529V284.744H92.4307V300.529H90.7607ZM100.552 295.133C100.552 296.495 101.229 297.928 102.652 298.798C104.094 297.857 104.779 296.328 104.788 295.133V294.289H106.423V295.133C106.423 296.759 107.495 298.376 109.587 299.035L108.726 300.283C107.179 299.729 106.124 298.675 105.579 297.374C105.078 298.64 104.138 299.817 102.679 300.424C101.185 299.853 100.227 298.736 99.7344 297.444C99.1719 298.684 98.126 299.729 96.6494 300.283L95.8408 299.035C97.8535 298.332 98.9346 296.662 98.9521 295.133V294.289H100.552V295.133ZM95.208 289.332C95.1992 287.152 96.9482 285.605 99.3213 285.605C101.36 285.605 102.978 286.81 103.338 288.594H106.423V284.744H108.093V293.674H106.423V289.965H103.364C103.039 291.793 101.404 293.041 99.3213 293.041C96.9482 293.041 95.1992 291.503 95.208 289.332ZM96.8076 289.332C96.7988 290.694 97.8623 291.652 99.3213 291.652C100.745 291.652 101.809 290.694 101.817 289.332C101.809 287.943 100.745 287.003 99.3213 287.012C97.8623 287.003 96.7988 287.943 96.8076 289.332ZM113.946 294.184V295.854H121.347V294.184H123.017V300.301H112.294V294.184H113.946ZM110.519 293.199V291.811H124.88V293.199H110.519ZM111.292 289.525C114.342 289.13 116.838 287.451 116.847 285.588V284.92H118.552V285.588C118.561 287.398 121.074 289.156 124.089 289.525L123.491 290.844C120.942 290.492 118.719 289.279 117.708 287.601C116.688 289.288 114.456 290.492 111.925 290.844L111.292 289.525ZM113.946 298.965H121.347V297.154H113.946V298.965ZM139.153 284.744V300.494H137.483V284.744H139.153ZM127.042 296.486V286.273H128.694V295.045C130.997 295.036 133.414 294.834 135.937 294.324L136.165 295.73C133.379 296.302 130.848 296.495 128.36 296.486H127.042ZM153.901 284.744V290.844H156.433V292.215H153.901V300.529H152.231V284.744H153.901ZM142.3 296.609V286.256H149.665V287.609H143.97V295.221C146.615 295.212 148.593 295.098 150.843 294.693L151.054 296.1C148.584 296.539 146.492 296.618 143.565 296.609H142.3ZM158.981 299.123C158.296 299.114 157.725 298.561 157.733 297.875C157.725 297.189 158.296 296.627 158.981 296.627C159.658 296.627 160.221 297.189 160.229 297.875C160.221 298.561 159.658 299.114 158.981 299.123ZM179.161 284.744V300.529H177.491V284.744H179.161ZM166.663 291.441C166.663 288.075 168.359 285.931 170.741 285.922C173.079 285.931 174.802 288.075 174.802 291.441C174.802 294.843 173.079 296.987 170.741 296.979C168.359 296.987 166.663 294.843 166.663 291.441ZM168.28 291.441C168.271 293.946 169.273 295.484 170.741 295.484C172.183 295.484 173.185 293.946 173.185 291.441C173.185 288.972 172.183 287.425 170.741 287.416C169.273 287.425 168.271 288.972 168.28 291.441ZM191.554 289.385C191.545 291.872 193.188 294.649 195.579 295.783L194.63 297.084C192.863 296.24 191.457 294.465 190.745 292.408C190.024 294.649 188.548 296.592 186.755 297.488L185.771 296.17C188.161 295.019 189.893 292.048 189.901 289.385V287.715H186.351V286.326H194.981V287.715H191.554V289.385ZM196.669 300.494V284.744H198.339V290.984H200.87V292.391H198.339V300.494H196.669ZM214.704 284.744V300.529H213.034V284.744H214.704ZM202.505 287.521V286.168H209.888V291.916H204.228V295.361C206.785 295.353 209.009 295.229 211.646 294.799L211.804 296.17C209.018 296.636 206.645 296.741 203.858 296.75H202.522V290.58H208.183V287.521H202.505ZM230.735 284.744V300.494H229.136V284.744H230.735ZM217.358 291.547C217.358 288.137 218.694 286.001 220.751 286.01C222.667 286.001 223.959 287.82 224.152 290.773H225.937V285.043H227.536V299.721H225.937V292.127H224.161C224.012 295.203 222.702 297.11 220.751 297.102C218.694 297.11 217.358 294.966 217.358 291.547ZM218.905 291.547C218.905 294.052 219.617 295.528 220.751 295.52C221.911 295.528 222.632 294.052 222.632 291.547C222.632 289.033 221.911 287.565 220.751 287.574C219.617 287.565 218.905 289.033 218.905 291.547ZM241.511 285.588C243.893 285.597 245.642 287.108 245.642 289.262C245.642 291.415 243.893 292.909 241.511 292.918C239.138 292.909 237.362 291.415 237.38 289.262C237.362 287.108 239.138 285.597 241.511 285.588ZM238.716 299.967V294.307H240.351V298.569C241.3 298.508 242.39 298.341 243.181 297.928L243.559 299C245.237 298.297 246.099 296.899 246.099 295.52V295.291H243.603V293.955H250.177V295.291H247.698V295.52C247.681 297.058 248.665 298.552 250.669 299.158L249.878 300.424C248.41 299.94 247.426 299.009 246.89 297.849C246.354 298.991 245.369 299.932 243.919 300.424L243.286 299.387C242.064 299.87 240.676 299.958 239.524 299.967H238.716ZM238.997 289.262C238.988 290.606 240.087 291.547 241.511 291.547C242.943 291.547 244.024 290.606 244.024 289.262C244.024 287.908 242.943 286.977 241.511 286.977C240.087 286.977 238.988 287.908 238.997 289.262ZM247.839 293.199V284.744H249.509V288.348H251.794V289.736H249.509V293.199H247.839ZM267.052 292.971V294.307H252.69V292.971H267.052ZM254.237 288.418C254.229 286.44 256.435 285.263 259.862 285.271C263.272 285.263 265.479 286.44 265.487 288.418C265.479 290.404 263.272 291.608 259.862 291.617C256.435 291.608 254.229 290.404 254.237 288.418ZM254.501 300.16V295.59H256.188V298.807H265.435V300.16H254.501ZM255.96 288.418C255.951 289.587 257.445 290.246 259.862 290.246C262.271 290.246 263.773 289.587 263.765 288.418C263.773 287.293 262.271 286.607 259.862 286.607C257.445 286.607 255.951 287.293 255.96 288.418ZM278.108 288.752C278.091 291.538 279.717 294.395 282.063 295.537L281.026 296.873C279.312 295.977 277.985 294.219 277.291 292.118C276.588 294.351 275.208 296.24 273.415 297.172L272.378 295.818C274.795 294.658 276.43 291.635 276.438 288.752V286.062H278.108V288.752ZM283.241 300.494V284.744H284.911V291.02H287.442V292.443H284.911V300.494H283.241ZM300.573 284.762V288.682H302.876V290.088H300.573V294.131H298.903V284.762H300.573ZM288.831 286.924V285.588H296.003V290.035H290.519V292.004C293.252 291.995 295.186 291.916 297.479 291.529L297.655 292.865C295.221 293.305 293.138 293.393 290.114 293.393H288.849V288.77H294.368V286.924H288.831ZM290.483 300.301V294.869H300.573V300.301H290.483ZM292.118 298.947H298.956V296.17H292.118V298.947ZM318.116 292.971V294.307H303.755V292.971H318.116ZM305.302 288.418C305.293 286.44 307.499 285.263 310.927 285.271C314.337 285.263 316.543 286.44 316.552 288.418C316.543 290.404 314.337 291.608 310.927 291.617C307.499 291.608 305.293 290.404 305.302 288.418ZM305.565 300.16V295.59H307.253V298.807H316.499V300.16H305.565ZM307.024 288.418C307.016 289.587 308.51 290.246 310.927 290.246C313.335 290.246 314.838 289.587 314.829 288.418C314.838 287.293 313.335 286.607 310.927 286.607C308.51 286.607 307.016 287.293 307.024 288.418ZM336.837 284.744V293.568H335.167V291.775H331.186C330.447 292.531 329.34 292.979 328.065 292.971C325.657 292.979 323.926 291.494 323.935 289.314C323.926 287.144 325.657 285.623 328.065 285.623C329.349 285.623 330.456 286.08 331.194 286.854H335.167V284.744H336.837ZM325.534 289.314C325.525 290.694 326.589 291.6 328.065 291.6C329.498 291.6 330.562 290.694 330.562 289.314C330.562 287.935 329.498 287.003 328.065 287.012C326.589 287.003 325.525 287.935 325.534 289.314ZM326.062 300.248V298.895H328.417V295.625H326.22V294.271H336.96V295.625H334.78V298.895H337.153V300.248H326.062ZM330.052 298.895H333.128V295.625H330.052V298.895ZM331.985 288.189C332.1 288.541 332.161 288.919 332.161 289.314C332.161 289.701 332.1 290.062 332.003 290.404H335.167V288.189H331.985ZM56.7031 311.869C59.1904 311.86 60.9834 313.398 60.9922 315.613C60.9834 317.828 59.1904 319.366 56.7031 319.375C54.2246 319.366 52.4053 317.828 52.4141 315.613C52.4053 313.398 54.2246 311.86 56.7031 311.869ZM51.6582 321.748C54.5234 321.748 58.4961 321.722 61.9414 321.221L62.0645 322.434C58.5049 323.119 54.6816 323.137 51.8691 323.137L51.6582 321.748ZM54.0664 315.613C54.0488 317.011 55.1738 317.916 56.7031 317.916C58.2324 317.916 59.3574 317.011 59.3574 315.613C59.3574 314.233 58.2324 313.311 56.7031 313.311C55.1738 313.311 54.0488 314.233 54.0664 315.613ZM62.9258 326.529V310.744H64.5957V326.529H62.9258ZM77.252 313.012C77.2432 315.191 78.7197 317.187 81.1543 317.986L80.3105 319.305C78.4824 318.672 77.1201 317.389 76.4082 315.745C75.7051 317.503 74.3164 318.9 72.4531 319.568L71.6094 318.268C74.0615 317.397 75.5381 315.262 75.5469 313.012V311.5H77.252V313.012ZM73.9121 322.311V320.957H84.582V326.494H82.9121V322.311H73.9121ZM82.9121 320.201V310.744H84.582V320.201H82.9121ZM101.439 317.266V318.602H95.0762V319.973H99.6289V323.664H90.4531V325.053H100.068V326.336H88.8184V322.451H97.9766V321.256H88.8008V319.973H93.4062V318.602H87.0781V317.266H101.439ZM88.9238 316.105V311.254H99.5938V316.105H88.9238ZM90.5586 314.787H97.9238V312.572H90.5586V314.787ZM116.188 310.744V326.494H114.588V310.744H116.188ZM102.811 317.547C102.811 314.137 104.146 312.001 106.203 312.01C108.119 312.001 109.411 313.82 109.604 316.773H111.389V311.043H112.988V325.721H111.389V318.127H109.613C109.464 321.203 108.154 323.11 106.203 323.102C104.146 323.11 102.811 320.966 102.811 317.547ZM104.357 317.547C104.357 320.052 105.069 321.528 106.203 321.52C107.363 321.528 108.084 320.052 108.084 317.547C108.084 315.033 107.363 313.565 106.203 313.574C105.069 313.565 104.357 315.033 104.357 317.547ZM136.947 317.266V318.602H130.584V319.973H135.137V323.664H125.961V325.053H135.576V326.336H124.326V322.451H133.484V321.256H124.309V319.973H128.914V318.602H122.586V317.266H136.947ZM124.432 316.105V311.254H135.102V316.105H124.432ZM126.066 314.787H133.432V312.572H126.066V314.787ZM145.314 311.008C148.865 310.999 150.931 311.957 150.939 313.715C150.931 315.481 148.865 316.439 145.314 316.439C141.764 316.439 139.681 315.481 139.689 313.715C139.681 311.957 141.764 310.999 145.314 311.008ZM138.143 318.742V317.406H152.504V318.742H138.143ZM139.865 321.203V319.955H150.693V323.646H141.518V325.053H151.133V326.336H139.883V322.434H149.041V321.203H139.865ZM141.43 313.715C141.421 314.69 142.81 315.191 145.314 315.191C147.837 315.191 149.226 314.69 149.217 313.715C149.226 312.783 147.837 312.238 145.314 312.238C142.81 312.238 141.421 312.783 141.43 313.715ZM172.455 319.621V320.975H166.057V326.477H164.422V320.975H158.094V319.621H172.455ZM158.902 317.107C161.838 316.703 164.281 314.954 164.334 313.012H159.43V311.676H171.102V313.012H166.232C166.259 314.954 168.685 316.703 171.664 317.107L171.049 318.426C168.465 318.021 166.232 316.747 165.274 314.954C164.308 316.747 162.084 318.021 159.535 318.426L158.902 317.107ZM186.395 315.35V316.686H175.549V311.307H177.201V315.35H186.395ZM173.633 320.008V318.672H188.047V320.008H173.633ZM175.426 326.125V321.502H177.096V324.754H186.5V326.125H175.426ZM198.365 314.207C198.365 315.982 199.49 317.714 201.494 318.426L200.703 319.691C199.218 319.12 198.181 318.039 197.618 316.721C197.064 318.153 196.01 319.331 194.48 319.955L193.689 318.725C195.685 317.916 196.774 316.114 196.783 314.207V314.066H194.041V312.73H196.783V310.92H198.365V312.73H201.072V314.066H198.365V314.207ZM196.326 322.539V321.186H207.031V326.494H205.379V322.539H196.326ZM202.057 320.324V311.025H203.656V314.875H205.449V310.762H207.031V320.395H205.449V316.246H203.656V320.324H202.057ZM222.219 310.762V319.727H220.549V310.762H222.219ZM209.475 315.279C209.483 313.056 211.259 311.544 213.676 311.553C216.084 311.544 217.859 313.056 217.859 315.279C217.859 317.441 216.084 318.971 213.676 318.971C211.259 318.971 209.483 317.441 209.475 315.279ZM211.109 315.279C211.101 316.633 212.182 317.564 213.676 317.564C215.152 317.564 216.225 316.633 216.225 315.279C216.225 313.882 215.152 312.95 213.676 312.959C212.182 312.95 211.101 313.882 211.109 315.279ZM211.865 326.301V320.518H222.219V326.301H211.865ZM213.518 324.947H220.584V321.854H213.518V324.947ZM231.887 311.008C235.438 310.999 237.503 311.957 237.512 313.715C237.503 315.481 235.438 316.439 231.887 316.439C228.336 316.439 226.253 315.481 226.262 313.715C226.253 311.957 228.336 310.999 231.887 311.008ZM224.715 318.742V317.406H239.076V318.742H224.715ZM226.438 321.203V319.955H237.266V323.646H228.09V325.053H237.705V326.336H226.455V322.434H235.613V321.203H226.438ZM228.002 313.715C227.993 314.69 229.382 315.191 231.887 315.191C234.409 315.191 235.798 314.69 235.789 313.715C235.798 312.783 234.409 312.238 231.887 312.238C229.382 312.238 227.993 312.783 228.002 313.715ZM252.646 311.816V318.391H245.281V311.816H252.646ZM246.916 317.072H251.012V313.188H246.916V317.072ZM247.004 326.301V319.99H257.129V321.221H248.639V322.504H256.971V323.699H248.639V325.07H257.463V326.301H247.004ZM255.371 319.199V310.744H257.041V314.277H259.326V315.648H257.041V319.199H255.371ZM273.758 310.744V326.494H272.176V310.744H273.758ZM260.17 321.941C263.51 319.955 265.109 317.31 265.399 314.066H260.908V312.695H267.061C267.052 314.233 266.841 315.701 266.357 317.072H268.854V311.148H270.436V325.721H268.854V318.408H265.777C264.846 320.236 263.343 321.836 261.119 323.137L260.17 321.941ZM293.27 310.762V319.832H291.582V310.762H293.27ZM280.209 318.162C281.519 318.162 283.03 318.153 284.604 318.109V316.562H281.615V311.5H289.139V312.871H283.285V315.244H289.279V316.562H286.256V318.039C287.653 317.969 289.068 317.863 290.387 317.688L290.475 318.865C287.064 319.445 283.276 319.498 280.455 319.516L280.209 318.162ZM282.758 326.301V320.518H284.428V322.029H291.617V320.518H293.27V326.301H282.758ZM284.428 324.947H291.617V323.312H284.428V324.947ZM308.809 310.744V326.494H307.139V310.744H308.809ZM296.697 322.486V312.273H298.35V321.045C300.652 321.036 303.069 320.834 305.592 320.324L305.82 321.73C303.034 322.302 300.503 322.495 298.016 322.486H296.697ZM323.557 310.744V316.844H326.088V318.215H323.557V326.529H321.887V310.744H323.557ZM311.955 322.609V312.256H319.32V313.609H313.625V321.221C316.271 321.212 318.248 321.098 320.498 320.693L320.709 322.1C318.239 322.539 316.147 322.618 313.221 322.609H311.955ZM328.637 325.123C327.951 325.114 327.38 324.561 327.389 323.875C327.38 323.189 327.951 322.627 328.637 322.627C329.313 322.627 329.876 323.189 329.885 323.875C329.876 324.561 329.313 325.114 328.637 325.123Z" fill="black"/>
<rect width="382" height="64" transform="translate(0 372)" fill="#455767"/>
<path d="M187.297 394.016V400.25H190.297V402.078H187.297V408.148H185.07V394.016H187.297ZM170.633 405.805C172.262 405.805 174.148 405.805 176.117 405.758V404.34C173.727 404.07 172.203 402.945 172.227 401.258C172.203 399.336 174.207 398.141 177.219 398.164C180.23 398.141 182.199 399.336 182.211 401.258C182.199 402.934 180.711 404.059 178.344 404.34V405.676C180.219 405.582 182.117 405.43 183.875 405.172L184.062 406.766C179.551 407.551 174.57 407.586 170.867 407.586L170.633 405.805ZM171.172 397.461V395.797H176.117V393.828H178.344V395.797H183.289V397.461H171.172ZM173.258 410.867V409.133H187.297V414.992H185.07V410.867H173.258ZM174.336 401.258C174.336 402.242 175.426 402.887 177.219 402.875C178.988 402.887 180.09 402.242 180.078 401.258C180.09 400.25 178.988 399.664 177.219 399.688C175.426 399.664 174.336 400.25 174.336 401.258ZM208.93 394.016V409.273H206.703V394.016H208.93ZM191.938 400.625C191.949 397.59 194.363 395.434 197.539 395.422C200.703 395.434 203.117 397.59 203.117 400.625C203.117 403.707 200.703 405.852 197.539 405.852C194.363 405.852 191.949 403.707 191.938 400.625ZM194.117 400.625C194.105 402.605 195.582 403.906 197.539 403.906C199.461 403.906 200.938 402.605 200.938 400.625C200.938 398.691 199.461 397.367 197.539 397.367C195.582 397.367 194.105 398.691 194.117 400.625ZM195.195 414.547V407.727H197.445V412.742H209.562V414.547H195.195Z" fill="white"/>
</g>
<defs>
<linearGradient id="paint0_linear_13_299" x1="139.04" y1="196.44" x2="164.02" y2="153.25" gradientUnits="userSpaceOnUse">
<stop stop-color="white"/>
<stop offset="1" stop-color="#FFC552"/>
</linearGradient>
<clipPath id="clip0_13_299">
<rect width="382" height="436" rx="20" fill="white"/>
</clipPath>
<clipPath id="clip1_13_299">
<rect x="136" y="104" width="110" height="110" rx="55" fill="white"/>
</clipPath>
<clipPath id="clip2_13_299">
<rect width="160.76" height="91.47" fill="white" transform="translate(76 129)"/>
</clipPath>
</defs>
</svg>
