<svg width="382" height="488" viewBox="0 0 382 488" fill="none" xmlns="http://www.w3.org/2000/svg">
<rect width="382" height="488" rx="24" fill="white"/>
<path d="M146.199 61.3359V63.1172H139.918V66.8672H145.848V68.625H139.918V73.0547C142.766 73.0312 144.641 72.9375 146.855 72.5625L147.043 74.3906C144.582 74.8359 142.543 74.9297 139.191 74.9297H137.785V61.3359H146.199ZM148.262 78.9609V59.3906H150.395V67.3359H152.926V58.9922H155.059V79.9922H152.926V69.1406H150.395V78.9609H148.262ZM177.207 61.9688V63.7969H174.23V66.4688H177.207V68.3203H174.23V71.3906H172.004V58.9922H174.23V61.9688H177.207ZM158.059 65.2031C158.035 62.25 160.426 60.2109 163.637 60.2109C166.859 60.2109 169.215 62.25 169.238 65.2031C169.215 68.1328 166.859 70.1836 163.637 70.1953C160.426 70.1836 158.035 68.1328 158.059 65.2031ZM160.238 65.2031C160.215 67.0664 161.668 68.2969 163.637 68.3203C165.605 68.2969 167.047 67.0664 167.059 65.2031C167.047 63.3516 165.605 62.0742 163.637 62.0859C161.668 62.0742 160.215 63.3516 160.238 65.2031ZM160.402 75.9609C160.402 73.4414 163.121 71.9648 167.457 71.9531C171.746 71.9648 174.418 73.4414 174.418 75.9609C174.418 78.4688 171.746 79.957 167.457 79.9453C163.121 79.957 160.402 78.4688 160.402 75.9609ZM162.629 75.9609C162.617 77.3906 164.422 78.1758 167.457 78.1641C170.469 78.1758 172.25 77.3906 172.238 75.9609C172.25 74.5547 170.469 73.7461 167.457 73.7578C164.422 73.7461 162.617 74.5547 162.629 75.9609ZM185.316 60.4922C188.633 60.4805 191.023 62.5312 191.035 65.4844C191.023 68.4375 188.633 70.4883 185.316 70.5C182.012 70.4883 179.586 68.4375 179.598 65.4844C179.586 62.5312 182.012 60.4805 185.316 60.4922ZM178.59 73.6641C182.41 73.6641 187.707 73.6289 192.301 72.9609L192.465 74.5781C187.719 75.4922 182.621 75.5156 178.871 75.5156L178.59 73.6641ZM181.801 65.4844C181.777 67.3477 183.277 68.5547 185.316 68.5547C187.355 68.5547 188.855 67.3477 188.855 65.4844C188.855 63.6445 187.355 62.4141 185.316 62.4141C183.277 62.4141 181.777 63.6445 181.801 65.4844ZM193.613 80.0391V58.9922H195.84V80.0391H193.613ZM224.223 69.4922V71.2734H215.738V73.4766H221.879V79.9453H219.629V75.2812H207.207V73.4766H213.535V71.2734H205.074V69.4922H224.223ZM206.105 66.7734C210.277 66.3867 213.16 64.8633 213.406 62.7656H206.996V61.0078H213.535V58.9219H215.738V61.0078H222.301V62.7656H215.867C216.09 64.8633 218.961 66.3867 223.168 66.7734L222.465 68.4375C218.844 68.1094 215.926 66.9023 214.637 64.9219C213.336 66.9023 210.406 68.1094 206.809 68.4375L206.105 66.7734ZM244.965 69.7031V71.5078H225.816V69.7031H234.277V67.4297H228.324V59.4844H230.527V61.7578H240.254V59.4844H242.48V67.4297H236.48V69.7031H244.965ZM227.949 75.1641V73.3828H242.621V79.9922H240.371V75.1641H227.949ZM230.527 65.6484H240.254V63.4219H230.527V65.6484Z" fill="black"/>
<rect x="157" y="124.461" width="65" height="66" rx="12" fill="#FF5500" fill-opacity="0.75"/>
<rect x="191" y="111" width="65.3797" height="65.3797" rx="12" transform="rotate(45 191 111)" fill="#FF5500" fill-opacity="0.73"/>
<path d="M70.3613 237.275V240.861H72.7344V242.021H70.3613V246.1H68.9902V237.275H70.3613ZM58.9004 244.904V238.066H60.2891V243.744C62.5215 243.735 64.8154 243.56 67.3379 243.041L67.5137 244.201C64.8594 244.737 62.4951 244.895 60.1484 244.904H58.9004ZM60.4648 252.674V246.961H70.3613V252.674H60.4648ZM61.8184 251.549H69.0254V248.051H61.8184V251.549ZM79.2031 241.459C79.1943 244.289 81.0137 247.137 83.2812 248.174L82.4551 249.299C80.6797 248.385 79.2119 246.521 78.5176 244.298C77.8232 246.636 76.3555 248.64 74.5801 249.58L73.6836 248.473C75.9775 247.348 77.7881 244.342 77.7969 241.459V238.611H79.2031V241.459ZM81.5762 243.727V242.602H85.2852V237.258H86.6562V252.92H85.2852V243.727H81.5762ZM94.0215 239.262C94.0215 240.114 94.8916 241.362 96.377 242.021C97.8447 241.389 98.7061 240.176 98.7148 239.262V238.98H96.6758V237.838H102.564V238.98H100.086V239.332C100.086 240.519 101.158 241.89 103.039 242.426L102.406 243.445C100.859 242.971 99.8223 241.96 99.3389 240.817C98.8291 241.837 97.8359 242.786 96.377 243.234C94.8916 242.76 93.8896 241.784 93.3887 240.773C92.9053 241.89 91.8682 242.944 90.3301 243.445L89.7148 242.426C91.543 241.837 92.6504 240.369 92.6504 239.332V238.98H90.1719V237.838H96.0605V238.98H94.0215V239.262ZM89.2578 246.135V245.01H95.6914V243.41H97.0449V245.01H103.549V246.135H89.2578ZM90.8047 248.93V247.805H101.703V252.885H100.314V248.93H90.8047ZM114.623 242.057C114.605 244.561 116.416 247.321 118.684 248.402L117.893 249.492C116.135 248.631 114.649 246.785 113.946 244.667C113.226 246.961 111.661 248.982 109.912 249.879L109.068 248.789C111.318 247.69 113.252 244.72 113.27 242.057V240.018H109.631V238.875H118.139V240.018H114.623V242.057ZM120.055 252.885V237.258H121.426V243.586H124.045V244.764H121.426V252.885H120.055ZM137.791 237.258V252.92H136.42V237.258H137.791ZM125.768 239.859V238.717H133.045V244.271H127.209V247.963C129.802 247.972 132.113 247.849 134.908 247.4L135.049 248.561C132.175 249.009 129.802 249.123 127.104 249.123H125.803V243.146H131.656V239.859H125.768ZM153.84 237.258V252.885H152.504V237.258H153.84ZM140.639 244.008C140.647 240.686 141.966 238.585 143.996 238.576C145.895 238.585 147.178 240.413 147.354 243.357H149.375V237.592H150.693V252.094H149.375V244.5H147.362C147.23 247.541 145.921 249.448 143.996 249.439C141.966 249.448 140.647 247.33 140.639 244.008ZM141.939 244.008C141.922 246.539 142.73 248.139 143.996 248.121C145.271 248.139 146.079 246.539 146.07 244.008C146.079 241.468 145.271 239.877 143.996 239.877C142.73 239.877 141.922 241.468 141.939 244.008ZM164.879 238.154C167.217 238.163 168.939 239.648 168.939 241.775C168.939 243.911 167.217 245.379 164.879 245.396C162.55 245.379 160.81 243.911 160.818 241.775C160.81 239.648 162.55 238.163 164.879 238.154ZM162.172 241.775C162.163 243.208 163.341 244.254 164.879 244.254C166.426 244.254 167.595 243.208 167.586 241.775C167.595 240.352 166.426 239.314 164.879 239.314C163.341 239.314 162.163 240.352 162.172 241.775ZM162.189 252.34V246.838H163.525V251.171C164.501 251.127 165.74 250.96 166.566 250.494L166.971 251.584L166.812 251.663C168.57 250.951 169.546 249.448 169.537 247.98V247.646H166.971V246.521H173.422V247.646H170.855V247.98C170.847 249.562 171.91 251.127 173.879 251.76L173.193 252.814C171.717 252.305 170.715 251.294 170.196 250.072C169.678 251.285 168.676 252.287 167.217 252.814L166.558 251.777C165.371 252.252 163.991 252.331 162.928 252.34H162.189ZM171.365 245.713V237.258H172.736V241.002H175.092V242.145H172.736V245.713H171.365ZM180.26 238.471C182.562 238.479 184.197 240.598 184.215 243.92C184.197 247.251 182.562 249.36 180.26 249.352C177.939 249.36 176.313 247.251 176.322 243.92C176.313 240.598 177.939 238.479 180.26 238.471ZM177.623 243.92C177.632 246.46 178.713 248.13 180.26 248.121C181.824 248.13 182.879 246.46 182.879 243.92C182.879 241.38 181.824 239.71 180.26 239.701C178.713 239.71 177.632 241.38 177.623 243.92ZM186.799 252.885V237.258H188.17V243.498H190.789V244.693H188.17V252.885H186.799ZM203.27 238.277C206.592 238.295 208.982 239.912 208.982 242.373C208.982 244.702 206.908 246.24 203.938 246.442V249.721H210.459V250.881H196.15V249.721H202.584V246.442C199.631 246.231 197.557 244.693 197.557 242.373C197.557 239.912 199.956 238.295 203.27 238.277ZM198.893 242.373C198.884 244.175 200.738 245.344 203.27 245.361C205.801 245.344 207.646 244.175 207.646 242.373C207.646 240.606 205.801 239.411 203.27 239.42C200.738 239.411 198.884 240.606 198.893 242.373ZM224.662 237.275V248.736H223.273V242.742H220.057V241.6H223.273V237.275H224.662ZM211.777 245.607C214.08 244.799 215.75 242.733 215.75 240.492V239.684H212.217V238.541H220.637V239.684H217.139V240.492C217.139 242.514 218.703 244.474 220.988 245.256L220.268 246.363C218.51 245.722 217.147 244.412 216.471 242.795C215.794 244.605 214.353 246.038 212.498 246.732L211.777 245.607ZM214.625 252.551V247.699H216.014V251.391H225.102V252.551H214.625ZM241.555 246.539V247.664H235.033V252.885H233.68V247.664H227.246V246.539H241.555ZM229.074 244.641V237.908H230.445V240.07H238.32V237.908H239.709V244.641H229.074ZM230.445 243.516H238.32V241.195H230.445V243.516ZM255.775 237.258V252.92H254.404V244.307H251.1V243.164H254.404V237.258H255.775ZM243.541 249.141V238.699H250.836V239.842H244.93V243.094H250.15V244.219H244.93V247.998C247.795 247.989 249.641 247.91 251.785 247.523L251.943 248.666C249.667 249.035 247.76 249.141 244.736 249.141H243.541ZM270.014 238.277C273.336 238.295 275.727 239.912 275.727 242.373C275.727 244.702 273.652 246.24 270.682 246.442V249.721H277.203V250.881H262.895V249.721H269.328V246.442C266.375 246.231 264.301 244.693 264.301 242.373C264.301 239.912 266.7 238.295 270.014 238.277ZM265.637 242.373C265.628 244.175 267.482 245.344 270.014 245.361C272.545 245.344 274.391 244.175 274.391 242.373C274.391 240.606 272.545 239.411 270.014 239.42C267.482 239.411 265.628 240.606 265.637 242.373ZM291.863 239.051V240.193H279.189V239.051H284.885V237.17H286.238V239.051H291.863ZM278.451 248.525V247.383H292.76V248.525H286.238V252.92H284.885V248.525H278.451ZM280.473 243.709C280.455 242.021 282.371 241.09 285.57 241.09C288.743 241.09 290.659 242.021 290.668 243.709C290.659 245.361 288.743 246.293 285.57 246.311C282.371 246.293 280.455 245.361 280.473 243.709ZM281.896 243.709C281.879 244.676 283.241 245.247 285.57 245.238C287.873 245.247 289.227 244.676 289.244 243.709C289.227 242.725 287.873 242.153 285.57 242.145C283.241 242.153 281.879 242.725 281.896 243.709ZM306.383 237.258V243.709H308.756V244.869H306.383V252.885H304.994V237.258H306.383ZM293.955 248.561C296.311 246.144 297.269 243.234 297.444 240.123H294.447V238.963H298.754C298.736 242.681 297.901 246.354 295.062 249.352L293.955 248.561ZM298.438 249.615C300.881 246.855 301.61 243.384 301.742 240.123H299.246V238.963H303.043C303.034 242.672 302.489 246.987 299.562 250.389L298.438 249.615ZM315.154 242.057C315.163 244.711 317.088 247.409 319.391 248.402L318.617 249.492C316.789 248.666 315.216 246.864 314.486 244.702C313.757 246.996 312.175 248.982 310.391 249.879L309.564 248.789C311.806 247.717 313.757 244.764 313.766 242.057V240.018H310.074V238.875H318.881V240.018H315.154V242.057ZM321.061 252.885V237.258H322.449V252.885H321.061ZM62.6973 265.068V266.193H57.8281V269.199H62.4688V270.307H57.8281V273.84C60.1484 273.831 61.5898 273.761 63.2949 273.453L63.418 274.596C61.5811 274.947 60.0781 275.026 57.5117 275.018H56.5098V265.068H62.6973ZM64.4551 278.094V263.592H65.791V269.551H67.9355V263.258H69.2715V278.885H67.9355V270.693H65.791V278.094H64.4551ZM85.9707 265.631V266.773H83.6504V268.953H85.9707V270.113H83.6504V272.539H82.2793V263.258H83.6504V265.631H85.9707ZM71.7324 267.881C71.7236 265.701 73.4639 264.198 75.8281 264.207C78.21 264.198 79.9238 265.701 79.9414 267.881C79.9238 270.052 78.21 271.546 75.8281 271.555C73.4639 271.546 71.7236 270.052 71.7324 267.881ZM73.0859 267.881C73.0771 269.357 74.2461 270.377 75.8281 270.395C77.4277 270.377 78.5791 269.357 78.5879 267.881C78.5791 266.413 77.4277 265.367 75.8281 265.385C74.2461 265.367 73.0771 266.413 73.0859 267.881ZM73.4551 275.949C73.4639 274.095 75.4502 273.022 78.6406 273.014C81.8311 273.022 83.791 274.095 83.791 275.949C83.791 277.769 81.8311 278.85 78.6406 278.85C75.4502 278.85 73.4639 277.769 73.4551 275.949ZM74.8438 275.949C74.8262 277.074 76.2852 277.733 78.6406 277.742C81.0049 277.733 82.4463 277.074 82.4551 275.949C82.4463 274.815 81.0049 274.139 78.6406 274.139C76.2852 274.139 74.8262 274.815 74.8438 275.949ZM92.1055 264.4C94.5576 264.409 96.2979 265.903 96.3066 268.074C96.2979 270.254 94.5576 271.739 92.1055 271.748C89.6357 271.739 87.8779 270.254 87.8867 268.074C87.8779 265.903 89.6357 264.409 92.1055 264.4ZM87.0781 274.297C89.9609 274.306 93.9424 274.279 97.3965 273.77L97.502 274.789C93.9248 275.457 90.084 275.475 87.2715 275.475L87.0781 274.297ZM89.2402 268.074C89.2314 269.533 90.4355 270.535 92.1055 270.535C93.7578 270.535 94.9619 269.533 94.9531 268.074C94.9619 266.624 93.7578 265.613 92.1055 265.613C90.4355 265.613 89.2314 266.624 89.2402 268.074ZM98.4336 278.92V263.258H99.8047V278.92H98.4336ZM121.303 271.133V272.258H114.852V274.051H119.545V278.832H118.156V275.176H108.646V274.051H113.498V272.258H107.064V271.133H121.303ZM107.908 269.199C110.835 268.909 113.313 267.696 113.428 265.912H108.541V264.805H113.498V263.187H114.852V264.805H119.861V265.912H114.939C115.036 267.696 117.506 268.909 120.459 269.199L120.002 270.254C117.427 269.981 115.124 269.041 114.184 267.45C113.226 269.041 110.923 269.981 108.365 270.254L107.908 269.199ZM136.859 271.344V272.486H122.621V271.344H129.055V269.463H124.52V263.627H125.891V265.437H133.625V263.627H134.996V269.463H130.426V271.344H136.859ZM124.203 275.141V274.033H135.102V278.885H133.713V275.141H124.203ZM125.891 268.355H133.625V266.492H125.891V268.355ZM145.297 263.539C148.769 263.539 150.808 264.497 150.816 266.228C150.808 268.004 148.769 268.962 145.297 268.971C141.808 268.962 139.76 268.004 139.76 266.228C139.76 264.497 141.808 263.539 145.297 263.539ZM138.178 271.15V270.025H152.416V271.15H138.178ZM139.9 273.559V272.504H150.588V276.002H141.307V277.619H151.062V278.709H139.936V274.982H149.234V273.559H139.9ZM141.201 266.228C141.184 267.318 142.704 267.916 145.297 267.916C147.89 267.916 149.401 267.318 149.41 266.228C149.401 265.2 147.89 264.585 145.297 264.576C142.704 264.585 141.184 265.2 141.201 266.228ZM170.469 263.258V267.037H172.824V268.197H170.469V272.398H169.098V263.258H170.469ZM158.92 271.414V264.154H160.273V266.545H164.826V264.154H166.197V271.414H158.92ZM160.273 270.307H164.826V267.652H160.273V270.307ZM160.66 278.674V273.277H170.592V274.385H162.031V277.549H170.891V278.674H160.66ZM176.99 272.645V274.473H184.795V272.645H186.184V278.674H175.619V272.645H176.99ZM173.809 271.537V270.395H188.047V271.537H173.809ZM174.617 268.18C177.403 267.802 180.225 266.158 180.225 264.172V263.434H181.648V264.172C181.64 266.097 184.487 267.828 187.238 268.18L186.729 269.287C184.312 268.927 181.93 267.696 180.937 265.947C179.943 267.705 177.553 268.927 175.145 269.287L174.617 268.18ZM176.99 277.566H184.795V275.562H176.99V277.566ZM202.25 263.258V278.885H200.879V263.258H202.25ZM190.385 274.859V264.805H191.738V273.664C194.129 273.646 196.59 273.462 199.209 272.908L199.402 274.086C196.625 274.666 194.155 274.859 191.65 274.859H190.385ZM217.016 263.258V269.445H219.635V270.605H217.016V278.92H215.645V263.258H217.016ZM205.607 275V264.787H212.902V265.93H206.979V273.84C209.809 273.831 211.804 273.708 214.133 273.277L214.309 274.473C211.856 274.912 209.809 275 206.838 275H205.607ZM222.131 277.566C221.516 277.558 220.988 277.048 221.006 276.424C220.988 275.809 221.516 275.299 222.131 275.299C222.755 275.299 223.265 275.809 223.256 276.424C223.265 277.048 222.755 277.558 222.131 277.566ZM241.625 263.258V269.709H244.244V270.852H241.625V278.885H240.254V263.258H241.625ZM229.443 266.914V265.771H233.469V263.451H234.84V265.771H238.742V266.914H229.443ZM230.34 271.801C230.331 269.691 231.948 268.215 234.172 268.215C236.378 268.215 237.986 269.691 238.004 271.801C237.986 273.919 236.378 275.387 234.172 275.387C231.948 275.387 230.331 273.919 230.34 271.801ZM231.658 271.801C231.649 273.225 232.713 274.227 234.172 274.209C235.613 274.227 236.668 273.225 236.686 271.801C236.668 270.386 235.613 269.366 234.172 269.375C232.713 269.366 231.649 270.386 231.658 271.801ZM250.678 268.057C250.687 270.711 252.611 273.409 254.914 274.402L254.141 275.492C252.312 274.666 250.739 272.864 250.01 270.702C249.28 272.996 247.698 274.982 245.914 275.879L245.088 274.789C247.329 273.717 249.28 270.764 249.289 268.057V266.018H245.598V264.875H254.404V266.018H250.678V268.057ZM256.584 278.885V263.258H257.973V278.885H256.584ZM268.537 264.682V271.871H261.312V264.682H268.537ZM262.666 270.764H267.201V265.807H262.666V270.764ZM263.088 278.551V273.629H264.441V277.391H273.582V278.551H263.088ZM271.49 274.719V263.258H272.861V268.021H275.217V269.182H272.861V274.719H271.49ZM293.076 263.24V269.41H295.361V270.588H293.076V278.885H291.705V263.24H293.076ZM281.193 274.789V264.91H285.166V266.053H282.564V273.62C283.338 273.594 284.287 273.523 285.324 273.295L285.465 274.455C283.988 274.763 282.811 274.789 281.879 274.789H281.193ZM286.062 274.789V264.91H290.229V266.053H287.434V273.629C288.655 273.611 289.631 273.541 290.738 273.26L290.879 274.42C289.508 274.754 288.4 274.789 286.818 274.789H286.062ZM304.062 265.561C304.071 268.241 307.13 270.623 309.846 271.133L309.213 272.293C306.849 271.748 304.37 270.069 303.359 267.775C302.34 270.069 299.87 271.739 297.506 272.293L296.873 271.133C299.58 270.614 302.612 268.25 302.621 265.561V264.365H304.062V265.561ZM296.275 276.758V275.615H310.584V276.758H296.275ZM324.049 263.275V268.426H326.404V269.586H324.049V274.982H322.678V263.275H324.049ZM311.867 266.316V265.191H315.84V263.275H317.211V265.191H321.184V266.316H311.867ZM312.764 270.096C312.755 268.32 314.267 267.178 316.525 267.178C318.758 267.178 320.27 268.32 320.287 270.096C320.27 271.853 318.758 272.987 316.525 272.978C314.267 272.987 312.755 271.853 312.764 270.096ZM314.082 270.096C314.073 271.194 315.049 271.906 316.525 271.889C317.984 271.906 318.969 271.194 318.986 270.096C318.969 268.979 317.984 268.259 316.525 268.268C315.049 268.259 314.073 268.979 314.082 270.096ZM314.275 278.551V274.051H315.629V277.391H324.77V278.551H314.275ZM73.6748 289.275V300.209H72.3564V294.812H70.3174V298.943H68.999V289.539H70.3174V293.67H72.3564V289.275H73.6748ZM60.3154 292.334V291.227H63.6553V289.398H65.0264V291.227H68.3311V292.334H60.3154ZM61.001 295.92C60.9922 294.259 62.3721 293.178 64.3408 293.178C66.3184 293.178 67.6895 294.259 67.6982 295.92C67.6895 297.59 66.3184 298.688 64.3408 298.68C62.3721 298.688 60.9922 297.59 61.001 295.92ZM62.2314 295.92C62.2314 296.957 63.0928 297.634 64.3408 297.625C65.5889 297.634 66.4502 296.957 66.4502 295.92C66.4502 294.909 65.5889 294.224 64.3408 294.232C63.0928 294.224 62.2314 294.909 62.2314 295.92ZM62.3369 303.76C65.1055 303.408 67.751 301.879 67.7686 299.98V299.576H69.1396V299.98C69.1396 301.879 71.8027 303.408 74.5889 303.76L74.0615 304.814C71.6885 304.489 69.4121 303.399 68.4541 301.747C67.4873 303.399 65.2021 304.489 62.8115 304.814L62.3369 303.76ZM81.1982 291.051C81.1982 293.151 82.7979 294.979 85.083 295.709L84.3447 296.781C82.5957 296.175 81.2334 294.971 80.5566 293.397C79.8887 295.208 78.4473 296.579 76.5752 297.256L75.8721 296.148C78.2363 295.34 79.8359 293.389 79.8447 291.051V289.803H81.1982V291.051ZM78.21 299.242V298.135H88.1768V301.861H79.5986V303.584H88.7568V304.709H78.2451V300.807H86.8057V299.242H78.21ZM86.8057 297.432V289.258H88.1768V292.686H90.5322V293.846H88.1768V297.432H86.8057ZM104.911 289.258V304.885H103.575V289.258H104.911ZM91.71 296.008C91.7188 292.686 93.0371 290.585 95.0674 290.576C96.9658 290.585 98.249 292.413 98.4248 295.357H100.446V289.592H101.765V304.094H100.446V296.5H98.4336C98.3018 299.541 96.9922 301.448 95.0674 301.439C93.0371 301.448 91.7188 299.33 91.71 296.008ZM93.0107 296.008C92.9932 298.539 93.8018 300.139 95.0674 300.121C96.3418 300.139 97.1504 298.539 97.1416 296.008C97.1504 293.468 96.3418 291.877 95.0674 291.877C93.8018 291.877 92.9932 293.468 93.0107 296.008ZM126.216 295.498V296.658H123.685V304.885H122.313V289.258H123.685V295.498H126.216ZM112.241 300.912V290.805H113.612V299.752C115.897 299.752 118.227 299.576 120.802 299.031L120.978 300.209C118.279 300.754 115.854 300.912 113.489 300.912H112.241ZM141.438 297.924V299.066H127.13V297.924H141.438ZM128.94 290.91V289.803H139.593V293.652H130.364V295.393H139.927V296.482H128.993V292.615H138.204V290.91H128.94ZM129.028 304.551V300.297H130.417V303.391H139.927V304.551H129.028ZM150.509 291.965V293.09H142.669V291.965H145.921V289.732H147.292V291.965H150.509ZM143.231 297.695C143.231 295.621 144.646 294.153 146.589 294.145C148.558 294.153 149.964 295.621 149.981 297.695C149.964 299.796 148.558 301.272 146.589 301.281C144.646 301.272 143.231 299.796 143.231 297.695ZM144.462 297.695C144.462 299.084 145.35 300.077 146.589 300.068C147.837 300.077 148.751 299.084 148.751 297.695C148.751 296.324 147.837 295.322 146.589 295.305C145.35 295.322 144.462 296.324 144.462 297.695ZM151.317 304.111V289.645H152.618V295.85H154.692V289.258H156.011V304.885H154.692V296.992H152.618V304.111H151.317ZM163.851 294.057C163.859 296.711 165.784 299.409 168.087 300.402L167.313 301.492C165.485 300.666 163.912 298.864 163.183 296.702C162.453 298.996 160.871 300.982 159.087 301.879L158.261 300.789C160.502 299.717 162.453 296.764 162.462 294.057V292.018H158.771V290.875H167.577V292.018H163.851V294.057ZM169.757 304.885V289.258H171.146V304.885H169.757ZM186.737 289.258V304.885H185.349V289.258H186.737ZM174.011 300.824C178.238 298.82 180.4 295.823 180.708 292.088H174.731V290.963H182.114C182.097 295.454 180.005 299.436 174.767 301.949L174.011 300.824ZM199.728 290.91C199.719 292.721 201.318 294.215 203.665 294.777L203.015 295.885C201.16 295.393 199.736 294.364 199.042 292.949C198.348 294.522 196.871 295.7 194.999 296.254L194.296 295.164C196.678 294.522 198.321 292.861 198.321 290.91V289.943H199.728V290.91ZM193.856 297.643C196.818 297.651 200.809 297.616 204.28 297.133L204.368 298.135C202.874 298.407 201.327 298.565 199.815 298.671V304.41H198.444V298.741C196.862 298.811 195.359 298.82 194.05 298.82L193.856 297.643ZM205.423 304.902V289.275H206.776V304.902H205.423ZM223.739 298.223V299.383H217.218V304.885H215.864V299.383H209.431V298.223H223.739ZM211.048 293.336C211.057 291.218 213.263 289.899 216.55 289.891C219.828 289.899 222.052 291.218 222.052 293.336C222.052 295.419 219.828 296.737 216.55 296.728C213.263 296.737 211.057 295.419 211.048 293.336ZM212.472 293.336C212.454 294.725 214.115 295.621 216.55 295.621C218.984 295.621 220.637 294.725 220.646 293.336C220.637 291.921 218.984 291.016 216.55 291.016C214.115 291.016 212.454 291.921 212.472 293.336ZM237.89 289.258V304.885H236.519V289.258H237.89ZM226.024 300.859V290.805H227.378V299.664C229.769 299.646 232.229 299.462 234.849 298.908L235.042 300.086C232.265 300.666 229.795 300.859 227.29 300.859H226.024ZM259.37 298.17V299.312H255.591V304.885H254.202V299.312H250.194V304.885H248.771V299.312H245.062V298.17H259.37ZM246.679 293.301C246.688 291.218 248.894 289.899 252.181 289.891C255.459 289.899 257.683 291.218 257.683 293.301C257.683 295.384 255.459 296.685 252.181 296.676C248.894 296.685 246.688 295.384 246.679 293.301ZM248.103 293.301C248.085 294.681 249.746 295.568 252.181 295.568C254.615 295.568 256.268 294.681 256.276 293.301C256.268 291.912 254.615 291.016 252.181 291.016C249.746 291.016 248.085 291.912 248.103 293.301ZM265.751 290.4C268.203 290.409 269.943 291.903 269.952 294.074C269.943 296.254 268.203 297.739 265.751 297.748C263.281 297.739 261.523 296.254 261.532 294.074C261.523 291.903 263.281 290.409 265.751 290.4ZM260.724 300.297C263.606 300.306 267.588 300.279 271.042 299.77L271.147 300.789C267.57 301.457 263.729 301.475 260.917 301.475L260.724 300.297ZM262.886 294.074C262.877 295.533 264.081 296.535 265.751 296.535C267.403 296.535 268.607 295.533 268.599 294.074C268.607 292.624 267.403 291.613 265.751 291.613C264.081 291.613 262.877 292.624 262.886 294.074ZM272.079 304.92V289.258H273.45V304.92H272.079ZM288.286 289.258V295.709H290.905V296.852H288.286V304.885H286.915V289.258H288.286ZM276.104 292.914V291.771H280.13V289.451H281.501V291.771H285.403V292.914H276.104ZM277.001 297.801C276.992 295.691 278.609 294.215 280.833 294.215C283.039 294.215 284.647 295.691 284.665 297.801C284.647 299.919 283.039 301.387 280.833 301.387C278.609 301.387 276.992 299.919 277.001 297.801ZM278.319 297.801C278.311 299.225 279.374 300.227 280.833 300.209C282.274 300.227 283.329 299.225 283.347 297.801C283.329 296.386 282.274 295.366 280.833 295.375C279.374 295.366 278.311 296.386 278.319 297.801ZM297.304 293.459C297.295 296.315 299.237 299.181 301.54 300.227L300.696 301.316C298.912 300.455 297.374 298.601 296.627 296.377C295.906 298.732 294.368 300.71 292.54 301.633L291.661 300.473C293.99 299.409 295.915 296.421 295.933 293.459V290.611H297.304V293.459ZM303.245 304.92V289.258H304.634V304.92H303.245ZM320.208 289.258V297.256H318.837V289.258H320.208ZM307.569 296.43C311.489 295.56 313.774 293.687 314.021 291.174H308.36V290.031H315.532C315.523 294.021 312.702 296.509 308.079 297.59L307.569 296.43ZM310.048 299.102V297.994H320.208V301.773H311.454V303.637H320.771V304.744H310.083V300.719H318.837V299.102H310.048ZM67.9707 315.258V321.41H70.5898V322.605H67.9707V330.885H66.5996V315.258H67.9707ZM56.5273 327.141V316.594H57.8984V320.725H62.4688V316.594H63.8398V327.141H56.5273ZM57.8984 325.98H62.4688V321.832H57.8984V325.98ZM83.6504 315.275V319.037H86.0234V320.215H83.6504V323.889H82.2793V315.275H83.6504ZM72.1016 317.191V316.049H79.1855V320.215H73.4902V322.377C76.2676 322.359 78.2803 322.28 80.7148 321.832L80.8555 322.992C78.3506 323.423 76.2588 323.52 73.3496 323.537H72.1367V319.125H77.832V317.191H72.1016ZM73.7715 330.674V324.592H75.1426V326.508H82.2793V324.592H83.6504V330.674H73.7715ZM75.1426 329.549H82.2793V327.615H75.1426V329.549ZM99.875 315.258V330.885H98.5039V315.258H99.875ZM88.0098 326.859V316.805H89.3633V325.664C91.7539 325.646 94.2148 325.462 96.834 324.908L97.0273 326.086C94.25 326.666 91.7803 326.859 89.2754 326.859H88.0098ZM114.641 315.258V321.445H117.26V322.605H114.641V330.92H113.27V315.258H114.641ZM103.232 327V316.787H110.527V317.93H104.604V325.84C107.434 325.831 109.429 325.708 111.758 325.277L111.934 326.473C109.481 326.912 107.434 327 104.463 327H103.232ZM119.756 329.566C119.141 329.558 118.613 329.048 118.631 328.424C118.613 327.809 119.141 327.299 119.756 327.299C120.38 327.299 120.89 327.809 120.881 328.424C120.89 329.048 120.38 329.558 119.756 329.566ZM139.373 315.275V318.861H141.746V320.021H139.373V324.1H138.002V315.275H139.373ZM127.912 322.904V316.066H129.301V321.744C131.533 321.735 133.827 321.56 136.35 321.041L136.525 322.201C133.871 322.737 131.507 322.895 129.16 322.904H127.912ZM129.477 330.674V324.961H139.373V330.674H129.477ZM130.83 329.549H138.037V326.051H130.83V329.549ZM148.215 319.459C148.206 322.289 150.025 325.137 152.293 326.174L151.467 327.299C149.691 326.385 148.224 324.521 147.529 322.298C146.835 324.636 145.367 326.64 143.592 327.58L142.695 326.473C144.989 325.348 146.8 322.342 146.809 319.459V316.611H148.215V319.459ZM150.588 321.727V320.602H154.297V315.258H155.668V330.92H154.297V321.727H150.588ZM163.033 317.262C163.033 318.114 163.903 319.362 165.389 320.021C166.856 319.389 167.718 318.176 167.727 317.262V316.98H165.688V315.838H171.576V316.98H169.098V317.332C169.098 318.519 170.17 319.89 172.051 320.426L171.418 321.445C169.871 320.971 168.834 319.96 168.351 318.817C167.841 319.837 166.848 320.786 165.389 321.234C163.903 320.76 162.901 319.784 162.4 318.773C161.917 319.89 160.88 320.944 159.342 321.445L158.727 320.426C160.555 319.837 161.662 318.369 161.662 317.332V316.98H159.184V315.838H165.072V316.98H163.033V317.262ZM158.27 324.135V323.01H164.703V321.41H166.057V323.01H172.561V324.135H158.27ZM159.816 326.93V325.805H170.715V330.885H169.326V326.93H159.816ZM187.221 315.258V330.885H185.885V315.258H187.221ZM174.02 322.008C174.028 318.686 175.347 316.585 177.377 316.576C179.275 316.585 180.559 318.413 180.734 321.357H182.756V315.592H184.074V330.094H182.756V322.5H180.743C180.611 325.541 179.302 327.448 177.377 327.439C175.347 327.448 174.028 325.33 174.02 322.008ZM175.32 322.008C175.303 324.539 176.111 326.139 177.377 326.121C178.651 326.139 179.46 324.539 179.451 322.008C179.46 319.468 178.651 317.877 177.377 317.877C176.111 317.877 175.303 319.468 175.32 322.008ZM198.26 316.154C200.598 316.163 202.32 317.648 202.32 319.775C202.32 321.911 200.598 323.379 198.26 323.396C195.931 323.379 194.19 321.911 194.199 319.775C194.19 317.648 195.931 316.163 198.26 316.154ZM195.553 319.775C195.544 321.208 196.722 322.254 198.26 322.254C199.807 322.254 200.976 321.208 200.967 319.775C200.976 318.352 199.807 317.314 198.26 317.314C196.722 317.314 195.544 318.352 195.553 319.775ZM195.57 330.34V324.838H196.906V329.171C197.882 329.127 199.121 328.96 199.947 328.494L200.352 329.584L200.193 329.663C201.951 328.951 202.927 327.448 202.918 325.98V325.646H200.352V324.521H206.803V325.646H204.236V325.98C204.228 327.562 205.291 329.127 207.26 329.76L206.574 330.814C205.098 330.305 204.096 329.294 203.577 328.072C203.059 329.285 202.057 330.287 200.598 330.814L199.938 329.777C198.752 330.252 197.372 330.331 196.309 330.34H195.57ZM204.746 323.713V315.258H206.117V319.002H208.473V320.145H206.117V323.713H204.746ZM222.096 320.004V321.111H211.391V315.838H212.762V320.004H222.096ZM209.439 324.363V323.238H223.748V324.363H209.439ZM211.303 330.498V325.963H212.674V329.355H222.184V330.498H211.303ZM234.77 319.459C234.77 322.21 236.589 325.049 238.812 326.139L237.969 327.246C236.246 326.35 234.805 324.495 234.11 322.324C233.416 324.627 231.939 326.604 230.182 327.545L229.303 326.437C231.588 325.312 233.398 322.315 233.416 319.459V316.611H234.77V319.459ZM240.254 330.885V315.258H241.625V321.603H244.244V322.799H241.625V330.885H240.254ZM257.305 315.275V319.283H259.678V320.461H257.305V324.592H255.934V315.275H257.305ZM245.756 317.262V316.119H252.84V320.391H247.145V322.605C249.922 322.614 251.935 322.526 254.369 322.131L254.51 323.238C252.005 323.678 249.913 323.766 247.004 323.766H245.791V319.318H251.486V317.262H245.756ZM247.408 330.674V325.365H257.305V330.674H247.408ZM248.762 329.549H255.969V326.437H248.762V329.549ZM274.039 315.258V330.885H272.703V315.258H274.039ZM260.838 322.008C260.847 318.686 262.165 316.585 264.195 316.576C266.094 316.585 267.377 318.413 267.553 321.357H269.574V315.592H270.893V330.094H269.574V322.5H267.562C267.43 325.541 266.12 327.448 264.195 327.439C262.165 327.448 260.847 325.33 260.838 322.008ZM262.139 322.008C262.121 324.539 262.93 326.139 264.195 326.121C265.47 326.139 266.278 324.539 266.27 322.008C266.278 319.468 265.47 317.877 264.195 317.877C262.93 317.877 262.121 319.468 262.139 322.008ZM289.578 315.258V330.885H288.26V315.258H289.578ZM276.219 326.508C279.611 324.495 281.316 321.674 281.58 318.404H276.887V317.262H282.951C282.951 318.8 282.705 320.285 282.169 321.674H284.973V315.68H286.291V330.094H284.973V322.799H281.659C280.719 324.618 279.207 326.227 277.027 327.51L276.219 326.508ZM304.396 320.004V321.111H293.691V315.838H295.062V320.004H304.396ZM291.74 324.363V323.238H306.049V324.363H291.74ZM293.604 330.498V325.963H294.975V329.355H304.484V330.498H293.604ZM326.07 323.537V324.645H311.814V323.537H326.07ZM313.414 327.281V326.174H324.225V330.885H322.818V327.281H313.414ZM313.713 322.025V315.68H324.295V316.787H315.102V318.281H323.873V319.353H315.102V320.953H324.383V322.025H313.713ZM71.4775 342.717C71.4863 344.923 74.3516 346.821 77.1729 347.217L76.6104 348.342C74.1846 347.937 71.7764 346.593 70.7744 344.677C69.7725 346.61 67.373 347.937 64.9385 348.342L64.376 347.217C67.1973 346.821 70.0537 344.958 70.0537 342.717V341.82H71.4775V342.717ZM63.6377 351.225V350.064H77.876V351.225H71.4072V356.885H70.0537V351.225H63.6377ZM97.0713 341.258V356.885H95.7529V341.258H97.0713ZM83.5186 352.719C85.6982 351.418 86.9727 348.561 86.9639 345.723V344.246H83.958V343.103H91.165V344.246H88.2998V345.723C88.2998 348.421 89.5215 351.119 91.6748 352.367L90.8311 353.387C89.293 352.464 88.2031 350.776 87.6582 348.79C87.0957 350.943 85.9619 352.78 84.3975 353.756L83.5186 352.719ZM89.9697 348.025V346.9H92.6064V341.645H93.9072V356.076H92.6064V348.025H89.9697ZM104.56 344.158C104.568 346.241 106.098 348.14 108.409 348.939L107.706 350.012C105.922 349.379 104.56 348.104 103.892 346.487C103.224 348.263 101.791 349.643 99.9541 350.311L99.2158 349.238C101.554 348.412 103.188 346.399 103.206 344.158V343.49H99.6377V342.365H108.075V343.49H104.56V344.158ZM101.255 352.631V351.506H111.485V356.885H110.114V352.631H101.255ZM110.114 350.68V341.258H111.485V345.389H113.841V346.566H111.485V350.68H110.114ZM122.612 341.539V343.051H130.347V341.539H131.718V346.689H121.241V341.539H122.612ZM119.343 349.15V348.043H133.581V349.15H119.343ZM121.065 351.646V350.592H131.753V354.055H122.472V355.619H132.228V356.709H121.101V353.035H130.399V351.646H121.065ZM122.612 345.635H130.347V344.105H122.612V345.635ZM146.993 341.258V347.48H149.612V348.641H146.993V356.92H145.622V341.258H146.993ZM135.515 343.859V342.717H142.616V348.307H136.921V351.963C139.821 351.972 141.852 351.857 144.216 351.418L144.356 352.561C141.896 353.009 139.812 353.123 136.798 353.141H135.55V347.164H141.245V343.859H135.515ZM163.358 341.275V352.701H161.987V341.275H163.358ZM150.825 346.197C150.816 343.947 152.583 342.374 154.921 342.365C157.259 342.374 159.008 343.947 159.017 346.197C159.008 348.474 157.259 350.056 154.921 350.047C152.583 350.056 150.816 348.474 150.825 346.197ZM152.179 346.197C152.161 347.753 153.339 348.834 154.921 348.834C156.477 348.834 157.663 347.753 157.663 346.197C157.663 344.668 156.477 343.578 154.921 343.578C153.339 343.578 152.161 344.668 152.179 346.197ZM153.269 356.551V351.541H154.64V355.391H163.851V356.551H153.269ZM178.634 348.781V349.924H167.841V342.717H178.476V343.859H169.212V348.781H178.634ZM166.013 354.758V353.598H180.321V354.758H166.013ZM193.294 351.084C196.502 351.084 198.444 352.139 198.444 353.967C198.444 355.812 196.502 356.867 193.294 356.885C190.077 356.867 188.117 355.812 188.108 353.967C188.117 352.139 190.077 351.084 193.294 351.084ZM186.755 349.449V342.242H188.108V344.633H192.661V342.242H194.032V349.449H186.755ZM188.108 348.324H192.661V345.723H188.108V348.324ZM189.497 353.967C189.479 355.092 190.938 355.76 193.294 355.76C195.658 355.76 197.1 355.092 197.108 353.967C197.1 352.851 195.658 352.191 193.294 352.174C190.938 352.191 189.479 352.851 189.497 353.967ZM196.933 350.662V341.258H198.304V345.195H200.659V346.373H198.304V350.662H196.933ZM215.038 341.258V356.885H213.702V348.728H211.575V356.076H210.257V341.609H211.575V347.568H213.702V341.258H215.038ZM201.468 351.84C201.969 351.84 202.549 351.84 203.173 351.831V344.387H201.802V343.244H209.097V344.387H207.743V351.646C208.332 351.594 208.895 351.541 209.413 351.471L209.483 352.49C207.005 352.947 203.7 353.026 201.644 353.018L201.468 351.84ZM204.456 351.805C205.115 351.787 205.792 351.761 206.46 351.726V344.387H204.456V351.805ZM231.491 348.518V349.607H217.183V348.518H231.491ZM218.905 351.893V350.855H229.698V354.178H220.312V355.672H230.208V356.674H218.923V353.228H228.327V351.893H218.905ZM218.993 342.734V341.732H229.646V344.967H220.417V346.338H229.927V347.34H219.046V344.018H228.257V342.734H218.993ZM250.634 341.258V356.885H249.315V341.258H250.634ZM237.081 352.719C239.261 351.418 240.535 348.561 240.526 345.723V344.246H237.521V343.103H244.728V344.246H241.862V345.723C241.862 348.421 243.084 351.119 245.237 352.367L244.394 353.387C242.855 352.464 241.766 350.776 241.221 348.79C240.658 350.943 239.524 352.78 237.96 353.756L237.081 352.719ZM243.532 348.025V346.9H246.169V341.645H247.47V356.076H246.169V348.025H243.532ZM259.897 351.137C263.246 351.137 265.373 352.191 265.382 354.002C265.373 355.795 263.246 356.85 259.897 356.85C256.549 356.85 254.422 355.795 254.431 354.002C254.422 352.191 256.549 351.137 259.897 351.137ZM252.849 349.678V348.553H258.737V345.529H260.091V348.553H267.069V349.678H252.849ZM254.536 343.191V342.066H265.259V343.385C265.25 344.65 265.25 345.916 264.819 347.533L263.466 347.375C263.888 345.767 263.888 344.606 263.888 343.385V343.191H254.536ZM255.802 354.002C255.793 355.092 257.41 355.76 259.897 355.76C262.394 355.76 263.993 355.092 264.011 354.002C263.993 352.886 262.394 352.2 259.897 352.191C257.41 352.2 255.793 352.886 255.802 354.002ZM280.604 341.258V345.266H282.96V346.443H280.604V350.346H279.233V341.258H280.604ZM268.423 344.018V342.875H272.396V341.117H273.767V342.875H277.739V344.018H268.423ZM269.319 347.48C269.311 345.811 270.813 344.747 273.081 344.738C275.322 344.747 276.825 345.811 276.843 347.48C276.825 349.15 275.322 350.231 273.081 350.223C270.813 350.231 269.311 349.15 269.319 347.48ZM270.638 347.48C270.629 348.5 271.604 349.168 273.081 349.168C274.54 349.168 275.524 348.5 275.542 347.48C275.524 346.47 274.54 345.793 273.081 345.811C271.604 345.793 270.629 346.47 270.638 347.48ZM270.726 356.674V351.031H272.097V352.701H279.233V351.031H280.604V356.674H270.726ZM272.097 355.566H279.233V353.791H272.097V355.566ZM296.829 341.258V356.885H295.458V341.258H296.829ZM284.964 352.859V342.805H286.317V351.664C288.708 351.646 291.169 351.462 293.788 350.908L293.981 352.086C291.204 352.666 288.734 352.859 286.229 352.859H284.964ZM311.595 341.258V347.445H314.214V348.605H311.595V356.92H310.224V341.258H311.595ZM300.187 353V342.787H307.481V343.93H301.558V351.84C304.388 351.831 306.383 351.708 308.712 351.277L308.888 352.473C306.436 352.912 304.388 353 301.417 353H300.187ZM316.71 355.566C316.095 355.558 315.567 355.048 315.585 354.424C315.567 353.809 316.095 353.299 316.71 353.299C317.334 353.299 317.844 353.809 317.835 354.424C317.844 355.048 317.334 355.558 316.71 355.566Z" fill="black"/>
<rect x="49" y="392.461" width="284" height="54" rx="27" stroke="black" stroke-width="2"/>
<path d="M187.914 410.641V415.836H190.414V417.359H187.914V422.418H186.059V410.641H187.914ZM174.027 420.465C175.385 420.465 176.957 420.465 178.598 420.426V419.244C176.605 419.02 175.336 418.082 175.355 416.676C175.336 415.074 177.006 414.078 179.516 414.098C182.025 414.078 183.666 415.074 183.676 416.676C183.666 418.072 182.426 419.01 180.453 419.244V420.357C182.016 420.279 183.598 420.152 185.062 419.937L185.219 421.266C181.459 421.92 177.309 421.949 174.223 421.949L174.027 420.465ZM174.477 413.512V412.125H178.598V410.484H180.453V412.125H184.574V413.512H174.477ZM176.215 424.684V423.238H187.914V428.121H186.059V424.684H176.215ZM177.113 416.676C177.113 417.496 178.021 418.033 179.516 418.023C180.99 418.033 181.908 417.496 181.898 416.676C181.908 415.836 180.99 415.348 179.516 415.367C178.021 415.348 177.113 415.836 177.113 416.676ZM205.941 410.641V423.355H204.086V410.641H205.941ZM191.781 416.148C191.791 413.619 193.803 411.822 196.449 411.812C199.086 411.822 201.098 413.619 201.098 416.148C201.098 418.717 199.086 420.504 196.449 420.504C193.803 420.504 191.791 418.717 191.781 416.148ZM193.598 416.148C193.588 417.799 194.818 418.883 196.449 418.883C198.051 418.883 199.281 417.799 199.281 416.148C199.281 414.537 198.051 413.434 196.449 413.434C194.818 413.434 193.588 414.537 193.598 416.148ZM194.496 427.75V422.066H196.371V426.246H206.469V427.75H194.496Z" fill="black"/>
</svg>
