<svg width="45" height="106" viewBox="0 0 45 106" fill="none" xmlns="http://www.w3.org/2000/svg">
<g clip-path="url(#clip0_134_1128)">
<path d="M19.5299 17.26H24.1399V13.91H19.5299V17.26Z" fill="#FADDDC"/>
<path d="M16.6299 10.26H17.1899V7.70996C17.1899 7.29996 16.8599 6.95996 16.4399 6.95996H16.1399C15.7299 6.95996 15.3899 7.28996 15.3899 7.70996L15.7399 9.37996C15.7399 9.86996 16.1299 10.26 16.6199 10.26H16.6299Z" fill="#FADDDC"/>
<path d="M27.7499 10.26H27.1899V7.70996C27.1899 7.29996 27.5199 6.95996 27.9399 6.95996H28.2399C28.6499 6.95996 28.9899 7.28996 28.9899 7.70996L28.6399 9.37996C28.6399 9.86996 28.2499 10.26 27.7599 10.26H27.7499Z" fill="#FADDDC"/>
<path d="M20.8301 0.209996C22.2101 -0.0600036 24.3301 -0.360004 25.8501 1.25C27.3701 2.86 28.1101 3.91 28.1101 5.36C28.1101 6.81 28.0101 8.04 27.7601 9.02C27.5101 10 26.4601 13.28 24.4301 14.59C23.4601 15.22 20.8701 15.6 19.5701 14.59C18.2701 13.58 17.1401 12.26 16.8201 10.18C16.5001 8.1 16.4801 7.72 16.1301 6.74C15.7801 5.76 16.3501 3.62 16.4801 3.08C16.6101 2.54 18.2101 0.709996 20.8301 0.209996Z" fill="#3E2967"/>
<path d="M37.81 52.4101C37.49 54.0601 38.56 55.6601 40.2 55.9801C41.55 56.2501 42.87 55.5701 43.48 54.4101C43.61 54.1601 43.71 53.8801 43.77 53.5901C43.91 52.8801 44.02 52.1701 44.12 51.4701L38 51.3101C37.94 51.6801 37.88 52.0501 37.81 52.4201V52.4101Z" fill="#FADDDC"/>
<path d="M27.62 19.4C26.48 20.63 26.55 22.55 27.77 23.69C27.9 23.81 40.4 35.71 38.01 51.3L44.13 51.46C46.54 33.06 32.54 19.81 31.92 19.24C30.69 18.1 28.77 18.17 27.63 19.4H27.62Z" fill="white"/>
<path d="M5.81006 48.92C5.92006 50.49 4.74006 51.85 3.18006 51.96C3.11006 51.96 3.04006 51.96 2.97006 51.96C1.49006 51.96 0.240059 50.82 0.140059 49.32C0.100059 48.83 0.0800586 48.34 0.0600586 47.86H5.76006C5.78006 48.21 5.79006 48.55 5.81006 48.91V48.92Z" fill="#FADDDC"/>
<path d="M12.4899 18.31C13.8599 17.55 15.5699 18.04 16.3399 19.4C17.1099 20.76 16.6199 22.49 15.2599 23.27C14.7399 23.57 4.77988 28.16 5.74988 47.87H0.0598827C-0.970117 24.7 11.8399 18.67 12.4899 18.31Z" fill="white"/>
<path d="M7.81005 51.41H35.32L35.3101 26.41C35.3101 21.27 31.14 17.1 26 17.1H17.11C11.97 17.1 7.80005 21.27 7.80005 26.41L7.82005 51.41H7.81005Z" fill="white"/>
<path d="M7.81006 51.41H20.3801H35.3201C35.3201 51.41 27.0701 98.47 28.4401 97.9C29.0901 97.63 29.5001 97.5 30.0401 97.99C30.6801 98.57 30.1901 100.27 29.6201 101.18L23.7901 105.82C21.4901 105.29 21.8001 103.49 22.2501 102.11C22.5501 101.2 22.7301 100.24 22.7701 99.27C22.9601 93.17 23.9101 65.93 24.0701 61.4C24.1101 60.36 23.2301 59.24 22.3601 59.24H20.7801C19.9101 59.24 19.1601 59.99 19.0101 61.01C18.3201 65.66 19.2301 69.16 19.4801 83.27C19.4801 83.27 19.3301 87.45 19.0801 88.45C18.7201 89.87 17.2701 89.66 16.7701 88.61C16.3401 87.7 15.9001 83.99 15.8201 83.27H14.3801L7.81006 51.42V51.41Z" fill="#3E2967"/>
<path d="M25.28 16.35H18.51V17.38H25.28V16.35Z" fill="#E5E1DC"/>
</g>
<defs>
<clipPath id="clip0_134_1128">
<rect width="44.4" height="105.82" fill="white"/>
</clipPath>
</defs>
</svg>
