<svg width="110" height="110" viewBox="0 0 110 110" fill="none" xmlns="http://www.w3.org/2000/svg">
<g clip-path="url(#clip0_1208_1612)">
<path d="M53.19 54.14L68.76 54.51L65.96 103.23L63.64 103.98C63.63 104.57 63.64 105.56 63.89 106.1C64.25 106.9 64.6 108.16 63.4 108.58L57.31 109.03C56.55 108.88 56.41 107.52 57.11 107.05C57.57 106.74 58.84 106.19 59.32 105.91C60.3 105.32 60.26 104.25 60.07 102.87C58.69 92.9 53.2 54.13 53.2 54.13L53.19 54.14Z" fill="#291B4C"/>
<path d="M48.73 56.09L64.75 55.07L53.25 76.12L57.99 97.08L55.64 97.82V99.86C55.82 101.29 55.82 102.22 54.3 103.05L50.39 104.05C49.62 104.11 49.26 103.16 49.86 102.51C50.26 102.08 51.1 101.78 51.46 101.3C53.03 99.18 52.21 98.68 51.91 97.34C50.12 89.33 43.7 75.81 43.7 75.81L48.74 56.08L48.73 56.09Z" fill="#3F3072"/>
<path d="M72.0601 55.69C72.1701 57.33 73.5901 58.57 75.2301 58.46C76.5801 58.37 77.6501 57.4 77.9301 56.14C77.9901 55.87 78.0101 55.58 77.9901 55.29C77.9401 54.58 77.8701 53.88 77.7801 53.2L71.9601 54.6C72.0001 54.96 72.0301 55.32 72.0601 55.69Z" fill="#FADDDC"/>
<path d="M54.06 27.07C53.29 28.52 53.84 30.32 55.29 31.09C55.44 31.17 70.27 39.26 71.96 54.6L77.78 53.2C75.4 35.19 58.81 26.22 58.07 25.83C56.62 25.06 54.83 25.62 54.06 27.07Z" fill="#E5E1DC"/>
<path d="M45.3199 57.97H69.9299C70.6199 53.62 69.6399 25.39 57.1499 19.04H52.7999C51.2999 19.04 49.8799 19.8 49.0999 21.08C43.4299 30.34 45.3199 57.97 45.3199 57.97Z" fill="white"/>
<path d="M58.8401 19.32C58.2301 19.01 57.5401 18.91 56.7401 19.05L51.8301 19.14C51.8301 19.14 51.2401 19.16 50.0401 19.99C49.8401 20.13 49.8501 20.87 49.9001 21.58C49.9401 22.14 50.6101 22.41 51.0301 22.03L52.6301 20.6L53.2201 22.55C53.3601 23.01 53.9101 23.18 54.2901 22.89L58.8401 19.31V19.32Z" fill="#E5E1DC"/>
<path d="M56.95 4.71002H46.56V14.01C46.56 15.83 48.04 17.31 49.86 17.31H50.91C51.42 17.31 51.84 17.72 51.84 18.24V19.15C51.84 20.31 53.08 21.04 54.1 20.49L56.75 19.05L56.96 4.71002H56.95Z" fill="#FADDDC"/>
<path d="M47.2501 14.44L46.6501 14.27C46.1101 14.12 45.7901 13.55 45.9401 13.01L46.7701 10.05C46.8301 9.81998 47.0701 9.68998 47.2901 9.75998C47.5101 9.82998 47.6501 10.06 47.5801 10.28L46.8601 12.84C46.7701 13.15 46.9501 13.47 47.2601 13.55L47.4701 13.61C47.7001 13.67 47.8301 13.91 47.7601 14.13C47.6901 14.35 47.4601 14.49 47.2401 14.42L47.2501 14.44Z" fill="#E0B1BB"/>
<path d="M48.7101 10.01C48.7101 10.32 48.9601 10.57 49.2701 10.57C49.5801 10.57 49.8301 10.32 49.8301 10.01C49.8301 9.70001 49.5801 9.45001 49.2701 9.45001C48.9601 9.45001 48.7101 9.70001 48.7101 10.01Z" fill="#757570"/>
<path d="M60.1799 7.06002C59.8299 4.93002 57.8199 4.09002 56.7399 3.05002C55.3699 1.73002 54.3199 0.86002 51.3399 1.02002C50.3199 1.07002 49.8299 1.76002 49.7099 1.76002C46.3499 1.76002 45.1199 4.47002 45.1399 6.10002C45.1599 8.33002 46.3199 8.94002 46.3199 8.94002C46.3199 8.94002 46.3699 8.94002 46.3799 8.94002C47.3699 8.94002 46.7799 4.98002 47.3999 4.98002C48.0199 4.98002 47.6999 9.00002 52.4299 9.00002C52.7899 9.00002 53.0699 9.29002 53.0699 9.64002V10.79C53.0699 11 53.2399 11.17 53.4599 11.17C53.6799 11.17 53.8499 11 53.8499 10.79C53.8499 10.58 55.1899 12.94 56.2899 14.95C56.4699 15.28 56.7799 15.22 56.7799 15.22C57.1199 14.7 58.0599 12.65 58.9899 10.36C59.4299 9.29002 60.4299 8.57002 60.1799 7.06002Z" fill="#3E2967"/>
<path d="M53.84 10.13C53.84 9.59979 54.2698 9.16998 54.8 9.16998C55.3302 9.16998 55.76 9.59979 55.76 10.13V12.22C55.76 12.7502 55.3302 13.18 54.8 13.18C54.2698 13.18 53.84 12.7502 53.84 12.22V10.13Z" fill="#FADDDC"/>
<path d="M54.1199 37.95L56.3899 38.06C57.2799 38.1 58.0499 37.24 58.1099 36.14L58.4399 30.04L52.9399 29.77L52.6099 35.87C52.5499 36.98 53.2199 37.91 54.1199 37.95Z" fill="#E5E1DC"/>
<path d="M49.8799 51.56L50.3799 51.54C49.5099 32.2 51.2499 25.24 52.3699 22.82C52.4599 22.63 52.5499 22.43 52.3499 22.3L52.2099 22.51L51.9699 22.48C51.9699 22.48 51.9399 22.55 51.9099 22.62C50.7699 25.08 48.9999 32.12 49.8699 51.57L49.8799 51.56Z" fill="#E5E1DC"/>
<path d="M45.3399 55.87C44.0499 56.89 43.8299 58.76 44.8399 60.05C45.6799 61.11 47.0899 61.45 48.2799 60.97C48.5399 60.87 48.7899 60.72 49.0199 60.54C49.5799 60.1 50.1099 59.65 50.6299 59.19L46.1899 55.17C45.9099 55.41 45.6299 55.64 45.3399 55.87Z" fill="#FADDDC"/>
<path d="M59.34 25.1C57.71 25.28 56.54 26.75 56.72 28.39C56.74 28.56 62.61 47.96 50.91 58.02L54.37 57.98C65.74 47.76 62.58 30.13 62.49 29.31C62.3 27.68 60.98 24.92 59.35 25.11L59.34 25.1Z" fill="#E5E1DC"/>
<path d="M58.8 24.85C57.17 25.03 56 26.5 56.18 28.14C56.2 28.31 57.9 45.12 46.2 55.17L50.64 59.19C64.16 47.05 62.19 28.29 62.09 27.47C61.9 25.84 60.43 24.67 58.8 24.86V24.85Z" fill="white"/>
</g>
<defs>
<clipPath id="clip0_1208_1612">
<rect width="34.3" height="108.04" fill="white" transform="matrix(-1 0 0 1 78 1)"/>
</clipPath>
</defs>
</svg>
