<svg width="110" height="110" viewBox="0 0 110 110" fill="none" xmlns="http://www.w3.org/2000/svg">
<g clip-path="url(#clip0_1207_1206)">
<path d="M54.6399 57.92H68.9499L70.3699 102.74L67.8399 102.92C67.8399 103.6 68.2399 104.88 68.6999 105.24C69.2399 105.67 70.6699 106.15 71.1899 106.62C71.7999 107.18 71.4799 108.4 70.7199 108.4H67.6399H66.8499C66.1499 108.4 65.5399 107.8 65.3699 106.94L65.2999 103.16L63.7699 103.12C62.5799 96.85 61.3699 86.88 60.3199 80.49C59.5799 76.01 58.9699 70.15 58.3099 65.69C58.1599 64.71 57.4499 64 56.6199 64H55.1099C54.2699 64 53.5599 64.71 53.4199 65.69C52.7599 70.15 50.1599 94.83 48.7599 101.93C48.6799 102.33 47.0699 101.8 46.9899 102.21C46.7399 103.49 47.1699 104.81 48.0499 105.53C48.4799 105.88 48.8899 106.24 49.2999 106.62C49.9199 107.18 49.5999 108.41 48.8399 108.41H45.7599L43.7599 107.64C41.7799 106.16 44.2499 105 43.3199 102.2L41.6699 101.65L42.6099 65.39V57.9H54.6499L54.6399 57.92Z" fill="#3E2967"/>
<path d="M87.9099 6.25995C88.5999 4.80995 90.3299 4.18995 91.7799 4.87995C92.9699 5.43995 93.5999 6.71995 93.4099 7.95995C93.3699 8.22995 93.2899 8.49995 93.1599 8.74995C92.8599 9.37995 92.5499 9.98995 92.2199 10.5699L87.4299 7.20995C87.5999 6.89995 87.7599 6.57995 87.9099 6.24995V6.25995Z" fill="#FADDDC"/>
<path d="M61.3001 25.82C61.1201 24.23 62.2701 22.79 63.8601 22.61C64.0301 22.59 80.4001 20.56 87.4301 7.22998L92.2201 10.59C83.6001 26.1 65.3001 28.3 64.5001 28.39C62.9101 28.57 61.4801 27.42 61.3001 25.83V25.82Z" fill="white"/>
<path d="M41.03 58.23H70.5L70.48 28.55C70.48 23.63 66.49 19.65 61.58 19.65H49.91C44.99 19.65 41.01 23.64 41.01 28.55L41.03 58.23Z" fill="white"/>
<path d="M36.9301 54.48C37.0401 56.08 35.8401 57.47 34.2401 57.59C34.1701 57.59 34.1001 57.59 34.0301 57.59C32.5201 57.59 31.2401 56.42 31.1401 54.89C31.1001 54.39 31.0801 53.89 31.0601 53.4H36.8801C36.9001 53.76 36.9101 54.11 36.9401 54.47L36.9301 54.48Z" fill="#FADDDC"/>
<path d="M45.8999 20.6C47.2999 19.82 49.0499 20.33 49.8399 21.72C50.6199 23.11 50.1299 24.88 48.7399 25.67C48.2099 25.97 35.8799 33.26 36.8799 53.4H31.0499C29.9999 29.72 45.2399 20.97 45.8999 20.6Z" fill="white"/>
<path d="M53.53 22.72L56.6 19.65H51.79V22C51.79 22.91 52.89 23.37 53.53 22.72Z" fill="#E5E1DC"/>
<path d="M59.77 22.72L56.7 19.65H61.51V22C61.51 22.91 60.41 23.37 59.77 22.72Z" fill="#E5E1DC"/>
<path d="M56.67 21.3199H56.29V51.6799H56.67V21.3199Z" fill="#E5E1DC"/>
<path d="M46.53 28.61H52.67V34.1C52.67 35.09 51.86 35.9 50.87 35.9H48.34C47.35 35.9 46.54 35.09 46.54 34.1V28.61H46.53Z" fill="#E5E1DC"/>
<path d="M60.1201 28.61H66.2601V34.1C66.2601 35.09 65.4501 35.9 64.4601 35.9H61.9301C60.9401 35.9 60.1301 35.09 60.1301 34.1V28.61H60.1201Z" fill="#E5E1DC"/>
<path d="M54.1899 5.42003H61.7899C62.8499 5.42003 63.7099 6.28003 63.7099 7.34003V14.82C63.7099 16.49 62.3599 17.84 60.6899 17.84H59.7299C59.2599 17.84 58.8799 18.22 58.8799 18.69V19.67H54.2299L54.1899 5.41003V5.42003Z" fill="#FADDDC"/>
<path d="M60.63 15.1H61.2C61.72 15.1 62.13 14.68 62.13 14.17V11.36C62.13 11.14 61.96 10.97 61.74 10.97C61.52 10.97 61.35 11.14 61.35 11.36V13.8C61.35 14.09 61.11 14.33 60.82 14.33H60.62C60.4 14.33 60.23 14.5 60.23 14.72C60.23 14.94 60.4 15.11 60.62 15.11L60.63 15.1Z" fill="#E0B1BB"/>
<path d="M53.19 12.7H54.77V9.34995H53.19V12.7Z" fill="#FADDDC"/>
<path d="M65.14 6.76994C65.14 5.11994 64.13 2.13994 60.26 2.13994C60.14 2.13994 60.03 2.15994 59.91 2.13994C55.55 1.44994 53.03 3.30994 51.92 6.00994C51.36 6.38994 51 7.02994 51 7.74994C51 8.46994 51.39 9.14994 51.98 9.51994C52.34 10.4499 52.53 11.3799 53.05 12.1899C53.05 12.1899 53.07 13.0699 53.07 13.6699C53.07 14.5799 54.22 14.5799 54.22 14.5799V12.5399C53.54 12.2899 53.37 11.7099 53.37 10.8099C53.37 9.90994 54.17 9.90994 54.17 9.90994V10.9799C54.17 11.2999 54.43 11.5599 54.75 11.5599C55.07 11.5599 55.33 11.2999 55.33 10.9799V10.0499C55.33 9.88994 55.48 9.87994 55.63 9.87994C61.49 9.87994 60.9 5.86994 61.53 5.86994C62.16 5.86994 62.01 8.75994 63.69 8.75994C63.71 8.75994 63.72 9.64994 63.72 9.64994C63.72 9.64994 65.14 9.10994 65.14 6.76994Z" fill="#3E2967"/>
<path d="M57.91 11.24C57.92 11.55 58.18 11.79 58.49 11.78C58.8 11.77 59.04 11.51 59.03 11.2C59.02 10.89 58.76 10.65 58.45 10.66C58.14 10.67 57.9 10.93 57.91 11.24Z" fill="#757570"/>
</g>
<defs>
<clipPath id="clip0_1207_1206">
<rect width="62.44" height="106.42" fill="white" transform="translate(31 2)"/>
</clipPath>
</defs>
</svg>
