<svg width="110" height="110" viewBox="0 0 110 110" fill="none" xmlns="http://www.w3.org/2000/svg">
<g clip-path="url(#clip0_1207_1250)">
<path d="M58.8499 57.48L46.8799 57.01L40.2899 79.43L27.7699 97.39L30.0999 99.28C29.8199 99.79 29.3299 100.62 28.8599 100.94C28.1699 101.41 27.2699 102.28 28.0799 103.33L33.0399 107.23C33.7599 107.54 34.5299 106.47 34.1699 105.66C33.9299 105.13 33.1099 103.93 32.8399 103.41C32.2899 102.35 32.9499 101.54 33.6699 100.39C37.9999 93.51 48.1099 82.97 48.1099 82.97L58.8499 57.47V57.48Z" fill="#291B4C"/>
<path d="M61.7801 55.92L42.1201 56.73L63.5801 81.83L70.9601 104.51L73.7401 104.11L74.6401 105.91C75.5701 107.93 75.6901 108.79 77.2301 108L81.0601 106.48C81.7601 106.13 81.6501 105.1 80.8301 104.85C80.2901 104.68 79.4601 104.66 78.9001 104.63C76.8201 104.53 77.1001 103.06 76.7701 101.72C74.7701 93.73 73.8701 87.31 71.6001 79.24C70.3101 74.62 61.7601 55.93 61.7601 55.93L61.7801 55.92Z" fill="#3F3072"/>
<path d="M82.9201 42.29C84.5301 42.64 85.5401 44.22 85.2001 45.83C84.9101 47.15 83.7901 48.07 82.5101 48.17C82.2301 48.19 81.9501 48.17 81.6601 48.11C80.9601 47.96 80.2901 47.79 79.6201 47.6L81.8501 42.04C82.2001 42.13 82.5601 42.22 82.9201 42.3V42.29Z" fill="#FADDDC"/>
<path d="M57.2299 20.31C58.7799 19.76 60.4799 20.57 61.0299 22.11C61.0899 22.27 66.9199 38.12 81.8499 42.03L79.6199 47.59C62.1499 42.6 55.6999 24.87 55.4299 24.09C54.8799 22.54 55.6899 20.85 57.2399 20.3L57.2299 20.31Z" fill="#E5E1DC"/>
<path d="M64.25 57.78H39.64C39.1 54.38 38.51 34.2701 45.24 23.51C47.12 20.51 49.74 20.53 52.88 19.05H57.23C58.73 19.05 60.15 19.81 60.93 21.09C66.6 30.35 64.25 57.78 64.25 57.78Z" fill="white"/>
<path d="M29.8799 48.85C29.5299 50.46 27.9499 51.47 26.3399 51.13C25.0199 50.84 24.0999 49.72 23.9999 48.44C23.9799 48.16 23.9999 47.88 24.0599 47.59C24.2099 46.89 24.3799 46.22 24.5699 45.55L30.1299 47.78C30.0399 48.13 29.9499 48.49 29.8699 48.85H29.8799Z" fill="#FADDDC"/>
<path d="M51.8601 23.1599C52.4101 24.7099 51.6001 26.4099 50.0601 26.9599C49.9001 27.0199 34.0501 32.8499 30.1401 47.7799L24.5801 45.5499C29.5601 28.0799 47.2901 21.6299 48.0701 21.3499C49.6201 20.7999 51.3101 21.6099 51.8601 23.1599Z" fill="white"/>
<path d="M51.1899 19.3201C51.7999 19.0101 52.4899 18.9101 53.2899 19.0501L58.1999 19.1401C58.1999 19.1401 58.7899 19.1601 59.9899 19.9901C60.1899 20.1301 60.1799 20.8701 60.1299 21.5801C60.0899 22.1401 59.4199 22.4101 58.9999 22.0301L57.3999 20.6001L56.8099 22.5501C56.6699 23.0101 56.1199 23.1801 55.7399 22.8901L51.1899 19.3101V19.3201Z" fill="#E5E1DC"/>
<path d="M53.0801 4.70996H63.4701V14.01C63.4701 15.83 61.9901 17.31 60.1701 17.31H59.1201C58.6101 17.31 58.1901 17.72 58.1901 18.24V19.15C58.1901 20.31 56.9501 21.04 55.9301 20.49L53.2801 19.05L53.0701 4.70996H53.0801Z" fill="#FADDDC"/>
<path d="M62.7799 14.44L63.3799 14.27C63.9199 14.12 64.2399 13.55 64.0899 13.01L63.2599 10.05C63.1999 9.82004 62.9599 9.69004 62.7399 9.76004C62.5199 9.83004 62.3799 10.06 62.4499 10.28L63.1699 12.84C63.2599 13.15 63.0799 13.47 62.7699 13.55L62.5599 13.61C62.3299 13.67 62.1999 13.91 62.2699 14.13C62.3399 14.35 62.5699 14.49 62.7899 14.42L62.7799 14.44Z" fill="#E0B1BB"/>
<path d="M61.32 10.01C61.32 10.32 61.0699 10.57 60.7599 10.57C60.4499 10.57 60.2 10.32 60.2 10.01C60.2 9.69995 60.4499 9.44995 60.7599 9.44995C61.0699 9.44995 61.32 9.69995 61.32 10.01Z" fill="#757570"/>
<path d="M49.8501 7.06002C50.2001 4.93002 52.2101 4.09002 53.2901 3.05002C54.6601 1.73002 55.7101 0.86002 58.6901 1.02002C59.7101 1.07002 60.2001 1.76002 60.3201 1.76002C63.6801 1.76002 64.9101 4.47002 64.8901 6.10002C64.8701 8.33002 63.7101 8.94002 63.7101 8.94002C63.7101 8.94002 63.6601 8.94002 63.6501 8.94002C62.6601 8.94002 63.2501 4.98002 62.6301 4.98002C62.0101 4.98002 62.3301 9.00002 57.6001 9.00002C57.2401 9.00002 56.9601 9.29002 56.9601 9.64002V10.79C56.9601 11 56.7901 11.17 56.5701 11.17C56.3501 11.17 56.1801 11 56.1801 10.79C56.1801 10.58 54.8401 12.94 53.7401 14.95C53.5601 15.28 53.2501 15.22 53.2501 15.22C52.9101 14.7 51.9701 12.65 51.0401 10.36C50.6001 9.29002 49.6001 8.57002 49.8501 7.06002Z" fill="#3E2967"/>
<path d="M56.19 10.13C56.19 9.59985 55.7602 9.17004 55.23 9.17004C54.6998 9.17004 54.27 9.59985 54.27 10.13V12.22C54.27 12.7502 54.6998 13.18 55.23 13.18C55.7602 13.18 56.19 12.7502 56.19 12.22V10.13Z" fill="#FADDDC"/>
<path d="M55.9101 37.95L53.6401 38.06C52.7501 38.1 51.9801 37.24 51.9201 36.14L51.5901 30.04L57.0901 29.77L57.4201 35.87C57.4801 36.98 56.8101 37.91 55.9101 37.95Z" fill="#E5E1DC"/>
<path d="M60.1501 51.5601L59.6501 51.5401C60.5201 32.2001 58.7801 25.24 57.6601 22.82C57.5701 22.63 57.4801 22.43 57.6801 22.3L57.8201 22.51L58.0601 22.48C58.0601 22.48 58.0901 22.5501 58.1201 22.6201C59.2601 25.0801 61.0301 32.12 60.1601 51.57L60.1501 51.5601Z" fill="#E5E1DC"/>
</g>
<defs>
<clipPath id="clip0_1207_1250">
<rect width="61.26" height="107.28" fill="white" transform="translate(24 1)"/>
</clipPath>
</defs>
</svg>
