<svg width="50" height="104" viewBox="0 0 50 104" fill="none" xmlns="http://www.w3.org/2000/svg">
<g clip-path="url(#clip0_134_1100)">
<path d="M19.35 48.8101L33.68 49.2101L22.08 70.9701L26.82 91.9301L24.47 92.6701V94.7101C24.65 96.1401 24.65 97.0701 23.13 97.9001L19.22 98.9001C18.45 98.9601 18.09 98.0101 18.69 97.3601C19.09 96.9301 19.93 96.6301 20.29 96.1501C21.86 94.0301 21.04 93.5301 20.74 92.1901C18.95 84.1801 12.53 70.6601 12.53 70.6601L19.35 48.8101Z" fill="#291B4C"/>
<path d="M22.02 49L37.59 49.37L34.79 98.09L32.47 98.84C32.46 99.43 32.47 100.42 32.72 100.96C33.08 101.76 33.43 103.02 32.23 103.44L26.14 103.89C25.38 103.74 25.24 102.38 25.94 101.91C26.4 101.6 27.67 101.05 28.15 100.77C29.13 100.18 29.09 99.11 28.9 97.73C27.52 87.76 22.03 48.99 22.03 48.99L22.02 49Z" fill="#3E2C6D"/>
<path d="M43.8299 50.62C44.0699 52.24 45.5899 53.36 47.2099 53.12C48.5399 52.92 49.5399 51.86 49.7199 50.59C49.7599 50.31 49.7599 50.03 49.7199 49.74C49.6099 49.04 49.4899 48.35 49.3399 47.67L43.6499 49.53C43.7199 49.89 43.7799 50.25 43.8399 50.61L43.8299 50.62Z" fill="#FADDDC"/>
<path d="M23.5699 23.5599C22.9199 25.0699 23.6199 26.8199 25.1199 27.4699C25.2799 27.5399 40.7199 34.4 43.6399 49.5499L49.3299 47.6899C45.4899 29.9299 28.2199 22.3399 27.4599 22.0099C25.9499 21.3599 24.2099 22.0599 23.5599 23.5699L23.5699 23.5599Z" fill="#E5E1DC"/>
<path d="M15.7799 53.57H40.3899C41.0799 49.22 40.0999 24.38 27.6099 18.04H23.2599C21.7599 18.04 20.3399 18.8 19.5599 20.08C13.8899 29.34 15.7799 53.57 15.7799 53.57Z" fill="white"/>
<path d="M29.3101 18.3201C28.7001 18.0101 28.0101 17.9101 27.2101 18.0501L22.3001 18.1401C22.3001 18.1401 21.7101 18.1601 20.5101 18.9901C20.3101 19.1301 20.3201 19.8701 20.3701 20.5801C20.4101 21.1401 21.0801 21.4101 21.5001 21.0301L23.1001 19.6001L23.6901 21.5501C23.8301 22.0101 24.3801 22.1801 24.7601 21.8901L29.3101 18.3101V18.3201Z" fill="#E5E1DC"/>
<path d="M27.42 3.70996H17.03V13.01C17.03 14.83 18.51 16.31 20.33 16.31H21.38C21.89 16.31 22.31 16.72 22.31 17.24V18.15C22.31 19.31 23.55 20.04 24.57 19.49L27.22 18.05L27.43 3.70996H27.42Z" fill="#FADDDC"/>
<path d="M17.71 13.44L17.11 13.27C16.57 13.12 16.25 12.55 16.4 12.01L17.23 9.05004C17.29 8.82004 17.53 8.69004 17.75 8.76004C17.97 8.83004 18.11 9.06004 18.04 9.28004L17.32 11.84C17.23 12.15 17.41 12.47 17.72 12.55L17.93 12.61C18.16 12.67 18.29 12.91 18.22 13.13C18.15 13.35 17.92 13.49 17.7 13.42L17.71 13.44Z" fill="#E0B1BB"/>
<path d="M19.1699 9.00995C19.1699 9.31995 19.4199 9.56995 19.7299 9.56995C20.0399 9.56995 20.2899 9.31995 20.2899 9.00995C20.2899 8.69995 20.0399 8.44995 19.7299 8.44995C19.4199 8.44995 19.1699 8.69995 19.1699 9.00995Z" fill="#757570"/>
<path d="M30.6501 6.06002C30.3001 3.93002 28.2901 3.09002 27.2101 2.05002C25.8301 0.73002 24.7801 -0.139979 21.8001 0.0200205C20.7801 0.0700205 20.2901 0.76002 20.1701 0.76002C16.8101 0.76002 15.5801 3.47002 15.6001 5.10002C15.6201 7.33002 16.7801 7.94002 16.7801 7.94002C16.7801 7.94002 16.8301 7.94002 16.8401 7.94002C17.8301 7.94002 17.2401 3.98002 17.8601 3.98002C18.4801 3.98002 18.1601 8.00002 22.8901 8.00002C23.2501 8.00002 23.5301 8.29002 23.5301 8.64002V9.79002C23.5301 10 23.7001 10.17 23.9201 10.17C24.1401 10.17 24.3101 10 24.3101 9.79002C24.3101 9.58002 25.6501 11.94 26.7501 13.95C26.9301 14.28 27.2401 14.22 27.2401 14.22C27.5801 13.7 28.5201 11.65 29.4501 9.36002C29.8901 8.29002 30.8901 7.57002 30.6401 6.06002H30.6501Z" fill="#3E2967"/>
<path d="M24.3 11.21C24.3 11.7402 24.7298 12.17 25.26 12.17C25.7902 12.17 26.22 11.7402 26.22 11.21V9.12004C26.22 8.58985 25.7902 8.16004 25.26 8.16004C24.7298 8.16004 24.3 8.58985 24.3 9.12004V11.21Z" fill="#FADDDC"/>
<path d="M24.5899 36.95L26.8599 37.06C27.7499 37.1 28.5199 36.24 28.5799 35.14L28.9099 29.04L23.4099 28.77L23.0799 34.87C23.0199 35.98 23.6899 36.91 24.5899 36.95Z" fill="#E5E1DC"/>
<path d="M20.3399 50.5601L20.8399 50.5401C19.9699 31.2001 21.7099 24.24 22.8299 21.82C22.9199 21.63 23.0099 21.43 22.8099 21.3L22.6699 21.51L22.4299 21.48C22.4299 21.48 22.3999 21.5501 22.3699 21.6201C21.2299 24.0801 19.4599 31.12 20.3299 50.57L20.3399 50.5601Z" fill="#E5E1DC"/>
<path d="M2.84007 42.99C1.20007 43.06 -0.0699255 44.45 7.45251e-05 46.09C0.0600745 47.44 1.01007 48.54 2.26007 48.85C2.53007 48.92 2.82007 48.95 3.11007 48.93C3.82007 48.9 4.52007 48.84 5.21007 48.77L3.95007 42.92C3.59007 42.95 3.22007 42.98 2.85007 42.99H2.84007Z" fill="#FADDDC"/>
<path d="M32.16 26.16C30.73 25.36 28.92 25.87 28.11 27.3C28.02 27.45 19.61 42.09 4.22998 43.44L15.1 45.77C28.21 41.13 32.9 30.93 33.3 30.21C34.1 28.78 33.59 26.97 32.15 26.17L32.16 26.16Z" fill="#E5E1DC"/>
<path d="M31.8599 25.65C30.4299 24.85 28.6199 25.36 27.8099 26.79C27.7199 26.94 19.3099 41.58 3.92993 42.93L5.18993 48.78C23.2499 46.81 32.5899 30.42 32.9899 29.69C33.7899 28.26 33.2799 26.45 31.8399 25.65H31.8599Z" fill="white"/>
</g>
<defs>
<clipPath id="clip0_134_1100">
<rect width="49.75" height="103.89" fill="white"/>
</clipPath>
</defs>
</svg>
