<svg width="110" height="110" viewBox="0 0 110 110" fill="none" xmlns="http://www.w3.org/2000/svg">
<g clip-path="url(#clip0_1208_1592)">
<path d="M47.5599 58.41L63.8899 58.51L46.3299 82.02L38.9499 104.7L36.1699 104.3L35.2699 106.1C34.3399 108.12 34.2199 108.98 32.6799 108.19L28.8499 106.67C28.1499 106.32 28.2599 105.29 29.0799 105.04C29.6199 104.87 30.4499 104.85 31.0099 104.82C33.0899 104.72 32.8099 103.25 33.1399 101.91C35.1399 93.92 36.0399 87.5 38.3099 79.43C39.5999 74.81 47.5799 58.41 47.5799 58.41H47.5599Z" fill="#291B4C"/>
<path d="M50.13 58.62L67.66 58.67L69.63 79.63L82.15 97.59L79.82 99.48C80.1 99.99 80.59 100.82 81.06 101.14C81.75 101.61 82.65 102.48 81.84 103.53L76.88 107.43C76.16 107.74 75.39 106.67 75.75 105.86C75.99 105.33 76.81 104.13 77.08 103.61C77.63 102.55 76.97 101.74 76.25 100.59C71.92 93.71 61.81 83.17 61.81 83.17L50.13 58.61V58.62Z" fill="#3F3072"/>
<path d="M78.8501 46.41C79.5701 47.89 81.3501 48.5 82.8301 47.78C84.0401 47.19 84.6701 45.88 84.4601 44.61C84.4101 44.34 84.3301 44.06 84.2001 43.8C83.8901 43.16 83.5601 42.54 83.2201 41.94L78.3501 45.43C78.5201 45.75 78.6901 46.07 78.8501 46.41Z" fill="#FADDDC"/>
<path d="M51.39 26.68C51.22 28.31 52.41 29.77 54.04 29.94C54.21 29.96 71 31.86 78.34 45.43L83.21 41.94C74.22 26.16 55.46 24.1 54.64 24.02C53.01 23.86 51.55 25.05 51.39 26.68Z" fill="#E5E1DC"/>
<path d="M45.2 57.97H69.81C70.5 53.62 69.52 25.39 57.03 19.04H52.68C51.18 19.04 49.76 19.8 48.98 21.08C43.31 30.34 45.2 57.97 45.2 57.97Z" fill="white"/>
<path d="M58.73 19.32C58.12 19.01 57.43 18.91 56.63 19.05L51.72 19.14C51.72 19.14 51.13 19.16 49.93 19.99C49.73 20.13 49.74 20.87 49.79 21.58C49.83 22.14 50.5 22.41 50.92 22.03L52.52 20.6L53.11 22.55C53.25 23.01 53.8 23.18 54.18 22.89L58.73 19.31V19.32Z" fill="#E5E1DC"/>
<path d="M56.8401 4.71002H46.4501V14.01C46.4501 15.83 47.9301 17.31 49.7501 17.31H50.8001C51.3101 17.31 51.7301 17.72 51.7301 18.24V19.15C51.7301 20.31 52.9701 21.04 53.9901 20.49L56.6401 19.05L56.8501 4.71002H56.8401Z" fill="#FADDDC"/>
<path d="M47.13 14.44L46.53 14.27C45.99 14.12 45.67 13.55 45.82 13.01L46.65 10.05C46.71 9.81998 46.95 9.68998 47.17 9.75998C47.39 9.82998 47.53 10.06 47.46 10.28L46.74 12.84C46.65 13.15 46.83 13.47 47.14 13.55L47.35 13.61C47.58 13.67 47.71 13.91 47.64 14.13C47.57 14.35 47.34 14.49 47.12 14.42L47.13 14.44Z" fill="#E0B1BB"/>
<path d="M48.59 10.01C48.59 10.32 48.84 10.57 49.15 10.57C49.46 10.57 49.71 10.32 49.71 10.01C49.71 9.70001 49.46 9.45001 49.15 9.45001C48.84 9.45001 48.59 9.70001 48.59 10.01Z" fill="#757570"/>
<path d="M60.0701 7.06002C59.7201 4.93002 57.7101 4.09002 56.6301 3.05002C55.2601 1.73002 54.2001 0.86002 51.2201 1.02002C50.2001 1.07002 49.7101 1.76002 49.5901 1.76002C46.2301 1.76002 45.0001 4.47002 45.0201 6.10002C45.0401 8.33002 46.2001 8.94002 46.2001 8.94002C46.2001 8.94002 46.2501 8.94002 46.2601 8.94002C47.2501 8.94002 46.6601 4.98002 47.2801 4.98002C47.9001 4.98002 47.5801 9.00002 52.3101 9.00002C52.6701 9.00002 52.9501 9.29002 52.9501 9.64002V10.79C52.9501 11 53.1201 11.17 53.3401 11.17C53.5601 11.17 53.7301 11 53.7301 10.79C53.7301 10.58 55.0701 12.94 56.1701 14.95C56.3501 15.28 56.6601 15.22 56.6601 15.22C57.0001 14.7 57.9401 12.65 58.8701 10.36C59.3101 9.29002 60.3101 8.57002 60.0601 7.06002H60.0701Z" fill="#3E2967"/>
<path d="M53.7199 10.13C53.7199 9.59979 54.1497 9.16998 54.6799 9.16998C55.2101 9.16998 55.6399 9.59979 55.6399 10.13V12.22C55.6399 12.7502 55.2101 13.18 54.6799 13.18C54.1497 13.18 53.7199 12.7502 53.7199 12.22V10.13Z" fill="#FADDDC"/>
<path d="M54.0101 37.95L56.2801 38.06C57.1701 38.1 57.9401 37.24 58.0001 36.14L58.3301 30.04L52.8301 29.77L52.5001 35.87C52.4401 36.98 53.1101 37.91 54.0101 37.95Z" fill="#E5E1DC"/>
<path d="M49.7601 51.56L50.2601 51.54C49.3901 32.2 51.1301 25.24 52.2501 22.82C52.3401 22.63 52.4301 22.43 52.2301 22.3L52.0901 22.51L51.8501 22.48C51.8501 22.48 51.8201 22.55 51.7901 22.62C50.6501 25.08 48.8801 32.12 49.7501 51.57L49.7601 51.56Z" fill="#E5E1DC"/>
<path d="M32.2599 43.99C30.6199 44.06 29.3499 45.45 29.4199 47.09C29.4799 48.44 30.4299 49.54 31.6799 49.85C31.9499 49.92 32.2399 49.95 32.5299 49.93C33.2399 49.9 33.9399 49.84 34.6299 49.77L33.3699 43.92C33.0099 43.95 32.6399 43.98 32.2699 43.99H32.2599Z" fill="#FADDDC"/>
<path d="M61.5799 27.16C60.1499 26.36 58.3399 26.87 57.5299 28.3C57.4399 28.45 49.0299 43.09 33.6499 44.44L44.5199 46.77C57.6299 42.13 62.3199 31.93 62.7199 31.21C63.5199 29.78 63.0099 27.97 61.5699 27.17L61.5799 27.16Z" fill="#E5E1DC"/>
<path d="M61.2801 26.65C59.8501 25.85 58.0401 26.36 57.2301 27.79C57.1401 27.94 48.7301 42.58 33.3501 43.93L34.6101 49.78C52.6701 47.81 62.0101 31.42 62.4101 30.69C63.2101 29.26 62.7001 27.45 61.2601 26.65H61.2801Z" fill="white"/>
</g>
<defs>
<clipPath id="clip0_1208_1592">
<rect width="56.12" height="107.48" fill="white" transform="matrix(-1 0 0 1 84.5 1)"/>
</clipPath>
</defs>
</svg>
