<svg width="110" height="110" viewBox="0 0 110 110" fill="none" xmlns="http://www.w3.org/2000/svg">
<g clip-path="url(#clip0_1208_1219)">
<g clip-path="url(#clip1_1208_1219)">
<path d="M70.2701 57.33L45.6101 57.44L50.8301 99.87C50.8301 99.87 53.4201 101.58 53.4301 101.64C53.6401 103 53.4301 104.15 51.4201 102.88C50.8401 102.51 50.3801 102.49 49.8501 102.97C49.2201 103.54 49.7001 105.2 50.2601 106.09L55.2101 110.03C55.8001 110.5 56.6701 110.55 57.2201 110.03C58.0701 109.25 57.8301 108 57.4701 106.99C56.1001 103.07 56.5201 102.62 56.5201 102.62L57.2901 102.88C57.7901 103.05 58.2901 102.66 58.2501 102.14C57.8501 96.99 56.8301 70.55 56.6501 65.8C56.6301 65.4 56.9501 65.06 57.3501 65.05L58.4101 65.03C58.7301 65.03 59.0401 65.25 59.0401 65.57C59.0701 71.93 59.1501 81.9 59.2401 81.9C59.2401 81.9 59.7101 86.15 59.9601 87.12C60.3101 88.5 61.7301 88.31 62.2201 87.28C62.6401 86.39 62.7601 83.67 62.8401 82.96H65.0201L70.2701 57.32V57.33Z" fill="#3E2967"/>
<path d="M55.12 17.26H59.73V13.91H55.12V17.26Z" fill="#FADDDC"/>
<path d="M52.21 10.26H52.77V7.71002C52.77 7.30002 52.44 6.96002 52.02 6.96002H51.72C51.31 6.96002 50.97 7.29002 50.97 7.71002L51.32 9.38002C51.32 9.87002 51.71 10.26 52.2 10.26H52.21Z" fill="#FADDDC"/>
<path d="M63.33 10.26H62.77V7.71002C62.77 7.30002 63.1 6.96002 63.52 6.96002H63.82C64.23 6.96002 64.57 7.29002 64.57 7.71002L64.22 9.38002C64.22 9.87002 63.83 10.26 63.34 10.26H63.33Z" fill="#FADDDC"/>
<path d="M56.4101 0.209996C57.7901 -0.0600036 59.9101 -0.360004 61.4301 1.25C62.9501 2.86 63.6901 3.91 63.6901 5.36C63.6901 6.81 63.9401 9.14 63.6901 10.12C63.4401 11.1 62.0401 13.29 60.0101 14.59C59.0401 15.22 56.4501 15.6 55.1501 14.59C53.8601 13.58 51.9701 12.7 51.6601 10.61C51.3401 8.53 52.0601 7.71 51.7201 6.73C51.3801 5.75 51.9401 3.61 52.0701 3.07C52.2001 2.53 53.8001 0.699996 56.4201 0.199996L56.4101 0.209996Z" fill="#3E2967"/>
<path d="M73.9099 57.51C73.5099 59.41 74.6899 61.23 76.5399 61.57C78.0599 61.85 79.5499 61.05 80.2599 59.7C80.4099 59.41 80.5299 59.09 80.5999 58.75C80.7699 57.93 80.9099 57.11 81.0299 56.31L74.1499 56.24C74.0799 56.66 73.9999 57.09 73.9099 57.52V57.51Z" fill="#FADDDC"/>
<path d="M63.0501 19.72C61.7401 21.15 61.7801 23.36 63.1401 24.66C63.2801 24.8 77.1201 38.26 74.1501 56.24L81.0301 56.31C84.0801 35.09 68.5701 20.11 67.8801 19.46C66.5201 18.17 64.3601 18.29 63.0501 19.72Z" fill="white"/>
<path d="M41.6701 42.81C41.7801 44.07 40.6301 45.16 39.1001 45.25C39.0301 45.25 38.9701 45.25 38.9001 45.25C37.4601 45.25 36.2401 44.33 36.1401 43.13C36.1101 42.74 36.0801 42.35 36.0601 41.96H41.6201C41.6401 42.24 41.6501 42.52 41.6701 42.8V42.81Z" fill="#FADDDC"/>
<path d="M48.1799 18.24C49.5099 17.63 51.1899 18.02 51.9399 19.12C52.6899 20.21 52.2199 21.6 50.8899 22.22C50.3799 22.46 40.6799 26.15 41.6199 41.96H36.0599C35.0599 23.36 47.5399 18.53 48.1799 18.24Z" fill="white"/>
<path d="M43.4199 57.56L71.8099 57.34L70.8899 26.42C70.8899 21.28 66.7199 17.11 61.5799 17.11H52.6899C47.5499 17.11 43.3799 21.28 43.3799 26.42L43.4299 57.56H43.4199Z" fill="white"/>
<path d="M60.8601 16.35H54.0901V17.38H60.8601V16.35Z" fill="#E5E1DC"/>
</g>
</g>
<defs>
<clipPath id="clip0_1208_1219">
<rect width="110" height="110" fill="white"/>
</clipPath>
<clipPath id="clip1_1208_1219">
<rect width="45.42" height="110.41" fill="white" transform="translate(36)"/>
</clipPath>
</defs>
</svg>
