<svg width="50" height="104" viewBox="0 0 50 104" fill="none" xmlns="http://www.w3.org/2000/svg">
<g clip-path="url(#clip0_134_1061)">
<path d="M30.4001 48.8101L16.0701 49.2101L27.6701 70.9701L22.9301 91.9301L25.2801 92.6701V94.7101C25.1001 96.1401 25.1001 97.0701 26.6201 97.9001L30.5301 98.9001C31.3001 98.9601 31.6601 98.0101 31.0601 97.3601C30.6601 96.9301 29.8201 96.6301 29.4601 96.1501C27.8901 94.0301 28.7101 93.5301 29.0101 92.1901C30.8001 84.1801 37.2201 70.6601 37.2201 70.6601L30.4001 48.8101Z" fill="#291B4C"/>
<path d="M27.7299 49L12.1599 49.37L14.9599 98.09L17.2799 98.84C17.2899 99.43 17.2799 100.42 17.0299 100.96C16.6699 101.76 16.3199 103.02 17.5199 103.44L23.6099 103.89C24.3699 103.74 24.5099 102.38 23.8099 101.91C23.3499 101.6 22.0799 101.05 21.5999 100.77C20.6199 100.18 20.6599 99.11 20.8499 97.73C22.2299 87.76 27.7199 48.99 27.7199 48.99L27.7299 49Z" fill="#3E2C6D"/>
<path d="M5.92 50.62C5.68 52.24 4.16 53.36 2.54 53.12C1.21 52.92 0.21 51.86 0.03 50.59C-0.01 50.31 -0.01 50.03 0.03 49.74C0.14 49.04 0.26 48.35 0.41 47.67L6.1 49.53C6.03 49.89 5.97 50.25 5.91 50.61L5.92 50.62Z" fill="#FADDDC"/>
<path d="M26.1799 23.5599C26.8299 25.0699 26.1299 26.8199 24.6299 27.4699C24.4699 27.5399 9.02992 34.4 6.10992 49.5499L0.419922 47.6899C4.25992 29.9299 21.5299 22.3399 22.2899 22.0099C23.7999 21.3599 25.5399 22.0599 26.1899 23.5699L26.1799 23.5599Z" fill="#E5E1DC"/>
<path d="M33.9699 53.57H9.35988C8.66988 49.22 9.64989 24.38 22.1399 18.04H26.4899C27.9899 18.04 29.4099 18.8 30.1899 20.08C35.8599 29.34 33.9699 53.57 33.9699 53.57Z" fill="white"/>
<path d="M20.4399 18.3201C21.0499 18.0101 21.7399 17.9101 22.5399 18.0501L27.4499 18.1401C27.4499 18.1401 28.0399 18.1601 29.2399 18.9901C29.4399 19.1301 29.4299 19.8701 29.3799 20.5801C29.3399 21.1401 28.6699 21.4101 28.2499 21.0301L26.6499 19.6001L26.0599 21.5501C25.9199 22.0101 25.3699 22.1801 24.9899 21.8901L20.4399 18.3101V18.3201Z" fill="#E5E1DC"/>
<path d="M22.3401 3.70996H32.7301V13.01C32.7301 14.83 31.2501 16.31 29.4301 16.31H28.3801C27.8701 16.31 27.4501 16.72 27.4501 17.24V18.15C27.4501 19.31 26.2101 20.04 25.1901 19.49L22.5401 18.05L22.3301 3.70996H22.3401Z" fill="#FADDDC"/>
<path d="M32.0399 13.44L32.6399 13.27C33.1799 13.12 33.4999 12.55 33.3499 12.01L32.5199 9.05004C32.4599 8.82004 32.2199 8.69004 31.9999 8.76004C31.7799 8.83004 31.6399 9.06004 31.7099 9.28004L32.4299 11.84C32.5199 12.15 32.3399 12.47 32.0299 12.55L31.8199 12.61C31.5899 12.67 31.4599 12.91 31.5299 13.13C31.5999 13.35 31.8299 13.49 32.0499 13.42L32.0399 13.44Z" fill="#E0B1BB"/>
<path d="M30.58 9.00995C30.58 9.31995 30.33 9.56995 30.02 9.56995C29.71 9.56995 29.46 9.31995 29.46 9.00995C29.46 8.69995 29.71 8.44995 30.02 8.44995C30.33 8.44995 30.58 8.69995 30.58 9.00995Z" fill="#757570"/>
<path d="M19.1001 6.06002C19.4501 3.93002 21.4601 3.09002 22.5401 2.05002C23.9201 0.73002 24.9701 -0.139979 27.9501 0.0200205C28.9701 0.0700205 29.4601 0.76002 29.5801 0.76002C32.9401 0.76002 34.1701 3.47002 34.1501 5.10002C34.1301 7.33002 32.9701 7.94002 32.9701 7.94002C32.9701 7.94002 32.9201 7.94002 32.9101 7.94002C31.9201 7.94002 32.5101 3.98002 31.8901 3.98002C31.2701 3.98002 31.5901 8.00002 26.8601 8.00002C26.5001 8.00002 26.2201 8.29002 26.2201 8.64002V9.79002C26.2201 10 26.0501 10.17 25.8301 10.17C25.6101 10.17 25.4401 10 25.4401 9.79002C25.4401 9.58002 24.1001 11.94 23.0001 13.95C22.8201 14.28 22.5101 14.22 22.5101 14.22C22.1701 13.7 21.2301 11.65 20.3001 9.36002C19.8601 8.29002 18.8601 7.57002 19.1101 6.06002H19.1001Z" fill="#3E2967"/>
<path d="M25.45 9.13004C25.45 8.59985 25.0202 8.17004 24.49 8.17004C23.9598 8.17004 23.53 8.59985 23.53 9.13004V11.22C23.53 11.7502 23.9598 12.18 24.49 12.18C25.0202 12.18 25.45 11.7502 25.45 11.22V9.13004Z" fill="#FADDDC"/>
<path d="M25.1601 36.95L22.8901 37.06C22.0001 37.1 21.2301 36.24 21.1701 35.14L20.8401 29.04L26.3401 28.77L26.6701 34.87C26.7301 35.98 26.0601 36.91 25.1601 36.95Z" fill="#E5E1DC"/>
<path d="M29.4101 50.5601L28.9101 50.5401C29.7801 31.2001 28.0401 24.24 26.9201 21.82C26.8301 21.63 26.7401 21.43 26.9401 21.3L27.0801 21.51L27.3201 21.48C27.3201 21.48 27.3501 21.5501 27.3801 21.6201C28.5201 24.0801 30.2901 31.12 29.4201 50.57L29.4101 50.5601Z" fill="#E5E1DC"/>
<path d="M46.91 42.99C48.55 43.06 49.82 44.45 49.75 46.09C49.69 47.44 48.74 48.54 47.49 48.85C47.22 48.92 46.93 48.95 46.64 48.93C45.93 48.9 45.23 48.84 44.54 48.77L45.8 42.92C46.16 42.95 46.53 42.98 46.9 42.99H46.91Z" fill="#FADDDC"/>
<path d="M17.6001 26.16C19.0301 25.36 20.8401 25.87 21.6501 27.3C21.7401 27.45 30.1501 42.09 45.5301 43.44L34.6601 45.77C21.5501 41.13 16.8601 30.93 16.4601 30.21C15.6601 28.78 16.1701 26.97 17.6101 26.17L17.6001 26.16Z" fill="#E5E1DC"/>
<path d="M17.8901 25.65C19.3201 24.85 21.1301 25.36 21.9401 26.79C22.0301 26.94 30.4401 41.58 45.8201 42.93L44.5601 48.78C26.5001 46.81 17.1601 30.42 16.7601 29.69C15.9601 28.26 16.4701 26.45 17.9101 25.65H17.8901Z" fill="white"/>
</g>
<defs>
<clipPath id="clip0_134_1061">
<rect width="49.75" height="103.89" fill="white"/>
</clipPath>
</defs>
</svg>
