<svg width="110" height="110" viewBox="0 0 110 110" fill="none" xmlns="http://www.w3.org/2000/svg">
<g clip-path="url(#clip0_1207_1543)">
<path d="M54.51 57.92H68.82L70.24 102.74L67.71 102.92C67.71 103.6 68.11 104.88 68.57 105.24C69.11 105.67 70.54 106.15 71.06 106.62C71.67 107.18 71.35 108.4 70.59 108.4H67.51H66.72C66.02 108.4 65.41 107.8 65.24 106.94L65.17 103.16L63.64 103.12C62.45 96.85 61.24 86.88 60.19 80.49C59.45 76.01 58.84 70.15 58.18 65.69C58.03 64.71 57.32 64 56.49 64H54.98C54.14 64 53.43 64.71 53.29 65.69C52.63 70.15 50.03 94.83 48.63 101.93C48.55 102.33 46.94 101.8 46.86 102.21C46.61 103.49 47.04 104.81 47.92 105.53C48.35 105.88 48.76 106.24 49.17 106.62C49.79 107.18 49.47 108.41 48.71 108.41H45.63L43.63 107.64C41.65 106.16 44.12 105 43.19 102.2L41.54 101.65L42.48 65.39V57.9H54.52L54.51 57.92Z" fill="#3E2967"/>
<path d="M94.2399 31.1099C95.8099 30.7899 97.3499 31.7999 97.6699 33.3699C97.9399 34.6599 97.2999 35.9299 96.1999 36.5199C95.9599 36.6499 95.6999 36.7399 95.4199 36.7999C94.7399 36.9399 94.0599 37.0499 93.3999 37.1499L93.1899 31.2999C93.5399 31.2399 93.8899 31.1799 94.2499 31.1099H94.2399Z" fill="#FADDDC"/>
<path d="M62.6001 21.65C63.7601 20.55 65.6001 20.6 66.7101 21.76C66.8301 21.88 78.3101 33.73 93.1901 31.31L93.4001 37.16C75.8301 39.62 63.0501 26.35 62.4901 25.76C61.3901 24.6 61.4401 22.76 62.6001 21.66V21.65Z" fill="white"/>
<path d="M40.9099 58.23H70.3799L70.3599 28.55C70.3599 23.63 66.3699 19.65 61.4599 19.65H49.7899C44.8699 19.65 40.8899 23.64 40.8899 28.55L40.9099 58.23Z" fill="white"/>
<path d="M32.8099 53.0999C32.7299 54.6999 31.3699 55.9399 29.7599 55.8599C29.6899 55.8599 29.6199 55.8599 29.5499 55.8399C28.0499 55.6599 26.9299 54.3399 26.9999 52.8099C27.0299 52.3099 27.0599 51.8099 27.0999 51.3199L32.8799 52.0299C32.8499 52.3899 32.8199 52.7399 32.8099 53.0999Z" fill="#FADDDC"/>
<path d="M45.8201 20.56C47.3001 19.96 48.9801 20.67 49.5901 22.15C50.2001 23.63 49.4901 25.32 48.0201 25.94C47.4501 26.18 34.3401 31.92 32.8801 52.03L27.1001 51.32C28.9301 27.69 45.1201 20.84 45.8201 20.56Z" fill="white"/>
<path d="M53.3999 22.73L56.4699 19.66H51.6599V22.01C51.6599 22.92 52.7599 23.38 53.3999 22.73Z" fill="#E5E1DC"/>
<path d="M59.6401 22.73L56.5701 19.66H61.3801V22.01C61.3801 22.92 60.2801 23.38 59.6401 22.73Z" fill="#E5E1DC"/>
<path d="M56.5399 21.3199H56.1599V51.6799H56.5399V21.3199Z" fill="#E5E1DC"/>
<path d="M46.4099 28.61H52.5499V34.1C52.5499 35.09 51.7399 35.9 50.7499 35.9H48.2199C47.2299 35.9 46.4199 35.09 46.4199 34.1V28.61H46.4099Z" fill="#E5E1DC"/>
<path d="M60 28.61H66.14V34.1C66.14 35.09 65.33 35.9 64.34 35.9H61.81C60.82 35.9 60.01 35.09 60.01 34.1V28.61H60Z" fill="#E5E1DC"/>
<path d="M53.8701 5.56997L61.4701 5.29997C62.5301 5.25997 63.4201 6.08997 63.4601 7.14997L63.7301 14.63C63.7901 16.3 62.4801 17.7 60.8101 17.76L59.8501 17.79C59.3801 17.81 59.0201 18.2 59.0301 18.67L59.0601 19.65L54.4101 19.81L53.8701 5.55997V5.56997Z" fill="#FADDDC"/>
<path d="M60.65 15.01L61.22 14.99C61.74 14.97 62.14 14.54 62.12 14.02L62.02 11.21C62.02 10.99 61.83 10.83 61.62 10.83C61.41 10.83 61.24 11.02 61.24 11.23L61.33 13.67C61.34 13.96 61.11 14.21 60.82 14.22H60.62C60.41 14.23 60.24 14.41 60.24 14.63C60.24 14.85 60.43 15.01 60.64 15.01H60.65Z" fill="#E0B1BB"/>
<path d="M53.1417 12.8848L54.7207 12.8289L54.602 9.48096L53.023 9.53693L53.1417 12.8848Z" fill="#FADDDC"/>
<path d="M64.8701 6.53005C64.8101 4.89005 63.6901 1.94005 59.8301 2.08005C59.7101 2.08005 59.6001 2.11005 59.4801 2.10005C55.0901 1.57005 52.6401 3.51005 51.6301 6.25005C51.0901 6.65005 50.7401 7.30005 50.7701 8.02005C50.8001 8.74005 51.2101 9.41005 51.8101 9.76005C52.2101 10.6701 52.4301 11.6001 52.9801 12.3901C52.9801 12.3901 53.0301 13.2701 53.0501 13.8701C53.0801 14.7801 54.2301 14.7401 54.2301 14.7401L54.1501 12.7001C53.4601 12.4801 53.2801 11.9001 53.2501 11.0001C53.2201 10.1001 54.0201 10.0701 54.0201 10.0701L54.0601 11.1401C54.0701 11.4601 54.3401 11.7101 54.6601 11.7001C54.9801 11.6901 55.2301 11.4201 55.2201 11.1001L55.1901 10.1801C55.1901 10.0201 55.3301 10.0001 55.4901 10.0001C61.3401 9.79005 60.6101 5.80005 61.2401 5.78005C61.8701 5.76005 61.8201 8.65005 63.5101 8.59005C63.5301 8.59005 63.5701 9.47005 63.5701 9.47005C63.5701 9.47005 64.9701 8.88005 64.8901 6.54005L64.8701 6.53005Z" fill="#3E2967"/>
<path d="M57.8 11.25C57.82 11.56 58.09 11.79 58.4 11.77C58.71 11.75 58.94 11.48 58.92 11.17C58.9 10.86 58.63 10.63 58.32 10.65C58.01 10.67 57.78 10.94 57.8 11.25Z" fill="#757570"/>
</g>
<defs>
<clipPath id="clip0_1207_1543">
<rect width="70.73" height="106.43" fill="white" transform="translate(27 2)"/>
</clipPath>
</defs>
</svg>
