<svg width="110" height="110" viewBox="0 0 110 110" fill="none" xmlns="http://www.w3.org/2000/svg">
<g clip-path="url(#clip0_1207_1614)">
<path d="M39.8301 56.34H66.5601L61.5301 102.8L58.2001 102.33C58.1101 103.2 58.3501 104.51 59.3001 105.28C59.8301 105.71 60.3901 106.1 60.9201 106.53C61.5401 107.04 61.2201 108.17 60.4501 108.17L55.4601 107.15C53.2201 106.68 53.5301 105.1 53.9701 103.88C54.2601 103.07 54.7301 101.67 54.7301 101.67L53.6801 101.37L53.9601 63.94H52.4301C52.4301 63.94 49.6001 84.45 49.3501 85.32C49.0001 86.57 47.5901 86.39 47.1001 85.46C46.6801 84.66 46.2601 81.39 46.1801 80.75L44.4801 80.4C42.9101 80.08 41.7301 78.76 41.6001 77.16L39.8201 56.34H39.8301Z" fill="#3E2967"/>
<path d="M50.28 4.41997H57.88C58.94 4.41997 59.8 5.27997 59.8 6.33997V13.82C59.8 15.49 58.45 16.84 56.78 16.84H55.82C55.35 16.84 54.97 17.22 54.97 17.69V18.67H50.32L50.28 4.40997V4.41997Z" fill="#FADDDC"/>
<path d="M56.7201 14.1H57.2901C57.8101 14.1 58.2201 13.68 58.2201 13.17V10.36C58.2201 10.14 58.0501 9.96997 57.8301 9.96997C57.6101 9.96997 57.4401 10.14 57.4401 10.36V12.8C57.4401 13.09 57.2001 13.33 56.9101 13.33H56.7101C56.4901 13.33 56.3201 13.5 56.3201 13.72C56.3201 13.94 56.4901 14.11 56.7101 14.11L56.7201 14.1Z" fill="#E0B1BB"/>
<path d="M49.2899 11.7H50.8699V8.35001H49.2899V11.7Z" fill="#FADDDC"/>
<path d="M61.2298 5.77C61.2298 4.12 60.2198 1.14 56.3498 1.14C56.2298 1.14 56.1198 1.16 55.9998 1.14C51.6398 0.450004 49.1198 2.31 48.0098 5.01C47.4498 5.39 47.0898 6.03 47.0898 6.75C47.0898 7.47 47.4798 8.15 48.0698 8.52C48.4298 9.45 48.6198 10.38 49.1398 11.19C49.1398 11.19 49.1598 12.07 49.1598 12.67C49.1598 13.58 50.3098 13.58 50.3098 13.58V11.54C49.6298 11.29 49.4598 10.71 49.4598 9.81C49.4598 8.91 50.2598 8.91 50.2598 8.91V9.98C50.2598 10.3 50.5198 10.56 50.8398 10.56C51.1598 10.56 51.4198 10.3 51.4198 9.98V9.05C51.4198 8.89 51.5698 8.88 51.7198 8.88C57.5798 8.88 56.9898 4.87 57.6198 4.87C58.2498 4.87 58.0998 7.76 59.7798 7.76C59.7998 7.76 59.8098 8.65 59.8098 8.65C59.8098 8.65 61.2298 8.11 61.2298 5.77Z" fill="#3E2967"/>
<path d="M54.0001 10.24C54.0101 10.55 54.2701 10.79 54.5801 10.78C54.8901 10.77 55.1301 10.51 55.1201 10.2C55.1101 9.88997 54.8501 9.64997 54.5401 9.65997C54.2301 9.66997 53.9901 9.92997 54.0001 10.24Z" fill="#757570"/>
<path d="M68.0598 57.48H38.5898L38.5998 27.55C38.5998 22.63 42.5898 18.65 47.4998 18.65H59.1698C64.0898 18.65 68.0698 22.64 68.0698 27.55L68.0498 57.48H68.0598Z" fill="white"/>
<path d="M69.6 59.5C69.22 61.23 70.33 62.95 72.06 63.32C72.14 63.34 72.21 63.35 72.29 63.36C73.94 63.6 75.52 62.52 75.88 60.86C76 60.32 76.1 59.78 76.2 59.25L69.82 58.34C69.74 58.73 69.68 59.11 69.59 59.51L69.6 59.5Z" fill="#FADDDC"/>
<path d="M65.0801 21C63.6701 19.93 61.6701 20.21 60.6001 21.61C59.5201 23.01 59.7901 25.03 61.1801 26.11C61.7201 26.53 74.0701 36.44 69.8301 58.33L76.2101 59.24C81.0701 33.47 65.7501 21.5 65.0801 21Z" fill="white"/>
<path d="M37.28 50.33C37.49 51.73 36.53 53.03 35.13 53.24C35.07 53.24 35.01 53.26 34.95 53.26C33.62 53.37 32.42 52.43 32.22 51.09C32.15 50.65 32.1 50.22 32.04 49.79L37.15 49.38C37.19 49.69 37.23 50 37.27 50.32L37.28 50.33Z" fill="#FADDDC"/>
<path d="M42.79 19.98C43.96 19.2 45.54 19.52 46.32 20.69C47.11 21.86 46.79 23.44 45.63 24.24C45.18 24.54 34.88 31.8 37.15 49.4L32.04 49.81C29.47 29.1 42.24 20.36 42.79 19.99V19.98Z" fill="white"/>
<path d="M55.55 21.72L52.48 18.65H57.29V21C57.29 21.91 56.19 22.37 55.55 21.72Z" fill="#E5E1DC"/>
<path d="M49.3101 21.72L52.3801 18.65H47.5701V21C47.5701 21.91 48.6701 22.37 49.3101 21.72Z" fill="#E5E1DC"/>
<path d="M52.41 50.67H52.79L52.79 20.31H52.41L52.41 50.67Z" fill="#E5E1DC"/>
<path d="M60.74 34.89H58.21C57.22 34.89 56.41 34.08 56.41 33.09V27.6H62.55V33.09C62.55 34.08 61.74 34.89 60.75 34.89H60.74Z" fill="#E5E1DC"/>
<path d="M47.16 34.89H44.63C43.64 34.89 42.83 34.08 42.83 33.09V27.6H48.97V33.09C48.97 34.08 48.16 34.89 47.17 34.89H47.16Z" fill="#E5E1DC"/>
</g>
<defs>
<clipPath id="clip0_1207_1614">
<rect width="45.45" height="107.17" fill="white" transform="translate(31.7 1)"/>
</clipPath>
</defs>
</svg>
