<svg width="110" height="110" viewBox="0 0 110 110" fill="none" xmlns="http://www.w3.org/2000/svg">
<g clip-path="url(#clip0_1208_1325)">
<path d="M62.8601 56.09L46.8401 55.07L58.3401 76.12L53.6001 97.08L55.9501 97.82V99.86C55.7701 101.29 55.7701 102.22 57.2901 103.05L61.2001 104.05C61.9701 104.11 62.3301 103.16 61.7301 102.51C61.3301 102.08 60.4901 101.78 60.1301 101.3C58.5601 99.18 59.3801 98.68 59.6801 97.34C61.4701 89.33 67.8901 75.81 67.8901 75.81L62.8501 56.08L62.8601 56.09Z" fill="#291B4C"/>
<path d="M58.4101 54.14L42.8401 54.51L45.6401 103.23L47.9601 103.98C47.9701 104.57 47.9601 105.56 47.7101 106.1C47.3501 106.9 47.0001 108.16 48.2001 108.58L54.2901 109.03C55.0501 108.88 55.1901 107.52 54.4901 107.05C54.0301 106.74 52.7601 106.19 52.2801 105.91C51.3001 105.32 51.3401 104.25 51.5301 102.87C52.9101 92.9 58.4001 54.13 58.4001 54.13L58.4101 54.14Z" fill="#3E2C6D"/>
<path d="M37.9399 55.69C37.8299 57.33 36.4099 58.57 34.7699 58.46C33.4199 58.37 32.3499 57.4 32.0699 56.14C32.0099 55.87 31.9899 55.58 32.0099 55.29C32.0599 54.58 32.1299 53.88 32.2199 53.2L38.0399 54.6C37.9999 54.96 37.9699 55.32 37.9399 55.69Z" fill="#FADDDC"/>
<path d="M55.94 27.07C56.71 28.52 56.16 30.32 54.71 31.09C54.56 31.17 39.73 39.26 38.04 54.6L32.22 53.2C34.6 35.19 51.19 26.22 51.93 25.83C53.38 25.06 55.17 25.62 55.94 27.07Z" fill="#E5E1DC"/>
<path d="M64.6801 57.97H40.0701C39.3801 53.62 40.3601 25.39 52.8501 19.04H57.2001C58.7001 19.04 60.1201 19.8 60.9001 21.08C66.5701 30.34 64.6801 57.97 64.6801 57.97Z" fill="white"/>
<path d="M51.1599 19.3201C51.7699 19.0101 52.4599 18.9101 53.2599 19.0501L58.1699 19.1401C58.1699 19.1401 58.7599 19.1601 59.9599 19.9901C60.1599 20.1301 60.1499 20.8701 60.0999 21.5801C60.0599 22.1401 59.3899 22.4101 58.9699 22.0301L57.3699 20.6001L56.7799 22.5501C56.6399 23.0101 56.0899 23.1801 55.7099 22.8901L51.1599 19.3101V19.3201Z" fill="#E5E1DC"/>
<path d="M53.05 4.70996H63.44V14.01C63.44 15.83 61.96 17.31 60.14 17.31H59.09C58.58 17.31 58.16 17.72 58.16 18.24V19.15C58.16 20.31 56.92 21.04 55.9 20.49L53.25 19.05L53.04 4.70996H53.05Z" fill="#FADDDC"/>
<path d="M62.7499 14.44L63.3499 14.27C63.8899 14.12 64.2099 13.55 64.0599 13.01L63.2299 10.05C63.1699 9.82004 62.9299 9.69004 62.7099 9.76004C62.4899 9.83004 62.3499 10.06 62.4199 10.28L63.1399 12.84C63.2299 13.15 63.0499 13.47 62.7399 13.55L62.5299 13.61C62.2999 13.67 62.1699 13.91 62.2399 14.13C62.3099 14.35 62.5399 14.49 62.7599 14.42L62.7499 14.44Z" fill="#E0B1BB"/>
<path d="M61.2899 10.01C61.2899 10.32 61.0399 10.57 60.7299 10.57C60.4199 10.57 60.1699 10.32 60.1699 10.01C60.1699 9.69995 60.4199 9.44995 60.7299 9.44995C61.0399 9.44995 61.2899 9.69995 61.2899 10.01Z" fill="#757570"/>
<path d="M49.8201 7.06002C50.1701 4.93002 52.1801 4.09002 53.2601 3.05002C54.6301 1.73002 55.6801 0.86002 58.6601 1.02002C59.6801 1.07002 60.1701 1.76002 60.2901 1.76002C63.6501 1.76002 64.8801 4.47002 64.8601 6.10002C64.8401 8.33002 63.6801 8.94002 63.6801 8.94002C63.6801 8.94002 63.6301 8.94002 63.6201 8.94002C62.6301 8.94002 63.2201 4.98002 62.6001 4.98002C61.9801 4.98002 62.3001 9.00002 57.5701 9.00002C57.2101 9.00002 56.9301 9.29002 56.9301 9.64002V10.79C56.9301 11 56.7601 11.17 56.5401 11.17C56.3201 11.17 56.1501 11 56.1501 10.79C56.1501 10.58 54.8101 12.94 53.7101 14.95C53.5301 15.28 53.2201 15.22 53.2201 15.22C52.8801 14.7 51.9401 12.65 51.0101 10.36C50.5701 9.29002 49.5701 8.57002 49.8201 7.06002Z" fill="#3E2967"/>
<path d="M56.16 10.13C56.16 9.59985 55.7302 9.17004 55.2 9.17004C54.6698 9.17004 54.24 9.59985 54.24 10.13V12.22C54.24 12.7502 54.6698 13.18 55.2 13.18C55.7302 13.18 56.16 12.7502 56.16 12.22V10.13Z" fill="#FADDDC"/>
<path d="M55.8801 37.95L53.6101 38.06C52.7201 38.1 51.9501 37.24 51.8901 36.14L51.5601 30.04L57.0601 29.77L57.3901 35.87C57.4501 36.98 56.7801 37.91 55.8801 37.95Z" fill="#E5E1DC"/>
<path d="M60.1201 51.5601L59.6201 51.5401C60.4901 32.2001 58.7501 25.24 57.6301 22.82C57.5401 22.63 57.4501 22.43 57.6501 22.3L57.7901 22.51L58.0301 22.48C58.0301 22.48 58.0601 22.5501 58.0901 22.6201C59.2301 25.0801 61.0001 32.12 60.1301 51.57L60.1201 51.5601Z" fill="#E5E1DC"/>
<path d="M64.6601 55.87C65.9501 56.89 66.1701 58.76 65.1601 60.05C64.3201 61.11 62.9101 61.45 61.7201 60.97C61.4601 60.87 61.2101 60.72 60.9801 60.54C60.4201 60.1 59.8901 59.65 59.3701 59.19L63.8101 55.17C64.0901 55.41 64.3701 55.64 64.6601 55.87Z" fill="#FADDDC"/>
<path d="M50.66 25.1C52.29 25.28 53.46 26.75 53.28 28.39C53.26 28.56 47.39 47.96 59.09 58.02L55.63 57.98C44.26 47.76 47.42 30.13 47.51 29.31C47.7 27.68 49.02 24.92 50.65 25.11L50.66 25.1Z" fill="#E5E1DC"/>
<path d="M51.2 24.8499C52.83 25.0299 54 26.4999 53.82 28.1399C53.8 28.3099 52.1 45.1199 63.8 55.1699L59.36 59.1899C45.84 47.0499 47.81 28.2899 47.91 27.4699C48.1 25.8399 49.57 24.6699 51.2 24.8599V24.8499Z" fill="white"/>
</g>
<defs>
<clipPath id="clip0_1208_1325">
<rect width="35.9" height="108.04" fill="white" transform="translate(32 1)"/>
</clipPath>
</defs>
</svg>
