<svg width="110" height="110" viewBox="0 0 110 110" fill="none" xmlns="http://www.w3.org/2000/svg">
<g clip-path="url(#clip0_1207_1436)">
<g clip-path="url(#clip1_1207_1436)">
<path d="M44.9199 57.33L69.5799 57.44L64.3599 99.87C64.3599 99.87 61.7699 101.58 61.7599 101.64C61.5499 103 61.7599 104.15 63.7699 102.88C64.3499 102.51 64.8099 102.49 65.3399 102.97C65.9699 103.54 65.4899 105.2 64.9299 106.09L59.9799 110.03C59.3899 110.5 58.5199 110.55 57.9699 110.03C57.1199 109.25 57.3599 108 57.7199 106.99C59.0899 103.07 58.6699 102.62 58.6699 102.62L57.8999 102.88C57.3999 103.05 56.8999 102.66 56.9399 102.14C57.3399 96.99 58.3599 70.55 58.5399 65.8C58.5599 65.4 58.2399 65.06 57.8399 65.05L56.7799 65.03C56.4599 65.03 56.1499 65.25 56.1499 65.57C56.1199 71.93 56.0399 81.9 55.9499 81.9C55.9499 81.9 55.4799 86.15 55.2299 87.12C54.8799 88.5 53.4599 88.31 52.9699 87.28C52.5499 86.39 52.4299 83.67 52.3499 82.96H50.1699L44.9199 57.32V57.33Z" fill="#3E2967"/>
<path d="M59.7899 13.9H55.1799V17.25H59.7899V13.9Z" fill="#FADDDC"/>
<path d="M62.6801 10.26H62.1201V7.71002C62.1201 7.30002 62.4501 6.96002 62.8701 6.96002H63.1701C63.5801 6.96002 63.9201 7.29002 63.9201 7.71002L63.5701 9.38002C63.5701 9.87002 63.1801 10.26 62.6901 10.26H62.6801Z" fill="#FADDDC"/>
<path d="M51.5601 10.26H52.1201V7.71002C52.1201 7.30002 51.7901 6.96002 51.3701 6.96002H51.0701C50.6601 6.96002 50.3201 7.29002 50.3201 7.71002L50.6701 9.38002C50.6701 9.87002 51.0601 10.26 51.5501 10.26H51.5601Z" fill="#FADDDC"/>
<path d="M58.49 0.209996C57.11 -0.0600036 54.99 -0.360004 53.47 1.25C51.96 2.86 51.21 3.91 51.21 5.36C51.21 6.81 51.31 8.04 51.56 9.02C51.81 10 52.86 13.28 54.89 14.59C55.86 15.22 58.45 15.6 59.75 14.59C61.05 13.58 62.65 12.45 62.97 10.37C63.29 8.29 62.84 7.72 63.19 6.74C63.54 5.76 62.97 3.62 62.84 3.08C62.71 2.54 61.11 0.709996 58.49 0.209996Z" fill="#3E2967"/>
<path d="M38.5799 57.17C38.8999 59.01 37.5799 60.85 35.6299 61.28C34.0299 61.63 32.4999 60.92 31.8299 59.63C31.6799 59.35 31.5799 59.04 31.5199 58.72C31.3799 57.92 31.2699 57.13 31.1899 56.35L38.3999 55.94C38.4499 56.35 38.5099 56.76 38.5799 57.18V57.17Z" fill="#FADDDC"/>
<path d="M51.7901 19.62C53.0901 20.96 52.9401 23.13 51.4601 24.46C51.3001 24.6 36.1601 38.46 38.4001 55.93L31.1901 56.34C29.0201 35.7 45.9901 20.27 46.7401 19.6C48.2301 18.27 50.4801 18.28 51.7801 19.62H51.7901Z" fill="white"/>
<path d="M73.6401 43.41C73.5301 44.7 74.7201 45.82 76.3101 45.91C76.3801 45.91 76.4501 45.91 76.5201 45.91C78.0201 45.91 79.2801 44.97 79.3901 43.74C79.4301 43.34 79.4501 42.94 79.4701 42.54H73.7001C73.6801 42.83 73.6701 43.11 73.6501 43.4L73.6401 43.41Z" fill="#FADDDC"/>
<path d="M66.88 18.24C65.5 17.62 63.76 18.02 62.98 19.14C62.2 20.26 62.69 21.68 64.07 22.32C64.6 22.57 74.68 26.34 73.7 42.54H79.47C80.51 23.49 67.54 18.54 66.88 18.24Z" fill="white"/>
<path d="M70.74 57.33H43.23L44.01 26.41C44.01 21.27 48.18 17.1 53.32 17.1H62.21C67.35 17.1 71.52 21.27 71.52 26.41L70.74 57.33Z" fill="white"/>
<path d="M61.1201 16.27H54.3501V17.3H61.1201V16.27Z" fill="#E5E1DC"/>
</g>
</g>
<defs>
<clipPath id="clip0_1207_1436">
<rect width="110" height="110" fill="white"/>
</clipPath>
<clipPath id="clip1_1207_1436">
<rect width="48.53" height="110.41" fill="white" transform="translate(31)"/>
</clipPath>
</defs>
</svg>
