<svg width="110" height="110" viewBox="0 0 110 110" fill="none" xmlns="http://www.w3.org/2000/svg">
<g clip-path="url(#clip0_1208_1553)">
<path d="M51.1501 57.48L63.1201 57.01L69.7101 79.43L82.2301 97.39L79.9001 99.28C80.1801 99.79 80.6701 100.62 81.1401 100.94C81.8301 101.41 82.7301 102.28 81.9201 103.33L76.9601 107.23C76.2401 107.54 75.4701 106.47 75.8301 105.66C76.0701 105.13 76.8901 103.93 77.1601 103.41C77.7101 102.35 77.0501 101.54 76.3301 100.39C72.0001 93.51 61.8901 82.97 61.8901 82.97L51.1501 57.47V57.48Z" fill="#291B4C"/>
<path d="M48.2199 55.92L67.8799 56.73L46.4199 81.83L39.0399 104.51L36.2599 104.11L35.3599 105.91C34.4299 107.93 34.3099 108.79 32.7699 108L28.9399 106.48C28.2399 106.13 28.3499 105.1 29.1699 104.85C29.7099 104.68 30.5399 104.66 31.0999 104.63C33.1799 104.53 32.8999 103.06 33.2299 101.72C35.2299 93.73 36.1299 87.31 38.3999 79.24C39.6899 74.62 48.2399 55.93 48.2399 55.93L48.2199 55.92Z" fill="#3F3072"/>
<path d="M27.0799 42.29C25.4699 42.64 24.4599 44.22 24.7999 45.83C25.0899 47.15 26.2099 48.07 27.4899 48.17C27.7699 48.19 28.0499 48.17 28.3399 48.11C29.0399 47.96 29.7099 47.79 30.3799 47.6L28.1499 42.04C27.7999 42.13 27.4399 42.22 27.0799 42.3V42.29Z" fill="#FADDDC"/>
<path d="M52.7701 20.31C51.2201 19.76 49.5201 20.57 48.9701 22.11C48.9101 22.27 43.0801 38.12 28.1501 42.03L30.3801 47.59C47.8501 42.6 54.3001 24.87 54.5701 24.09C55.1201 22.54 54.3101 20.85 52.7601 20.3L52.7701 20.31Z" fill="#E5E1DC"/>
<path d="M45.75 57.78H70.36C70.9 54.38 71.49 34.27 64.76 23.51C62.88 20.51 60.26 20.53 57.12 19.05H52.77C51.27 19.05 49.85 19.81 49.07 21.09C43.4 30.35 45.75 57.78 45.75 57.78Z" fill="white"/>
<path d="M80.1201 48.85C80.4701 50.46 82.0501 51.47 83.6601 51.13C84.9801 50.84 85.9001 49.72 86.0001 48.44C86.0201 48.16 86.0001 47.88 85.9401 47.59C85.7901 46.89 85.6201 46.22 85.4301 45.55L79.8701 47.78C79.9601 48.13 80.0501 48.49 80.1301 48.85H80.1201Z" fill="#FADDDC"/>
<path d="M58.1399 23.16C57.5899 24.71 58.3999 26.41 59.9399 26.96C60.0999 27.02 75.9499 32.85 79.8599 47.78L85.4199 45.55C80.4399 28.08 62.7099 21.63 61.9299 21.35C60.3799 20.8 58.6899 21.61 58.1399 23.16Z" fill="white"/>
<path d="M58.8101 19.32C58.2001 19.01 57.5101 18.91 56.7101 19.05L51.8001 19.14C51.8001 19.14 51.2101 19.16 50.0101 19.99C49.8101 20.13 49.8201 20.87 49.8701 21.58C49.9101 22.14 50.5801 22.41 51.0001 22.03L52.6001 20.6L53.1901 22.55C53.3301 23.01 53.8801 23.18 54.2601 22.89L58.8101 19.31V19.32Z" fill="#E5E1DC"/>
<path d="M56.9199 4.71002H46.5299V14.01C46.5299 15.83 48.0099 17.31 49.8299 17.31H50.8799C51.3899 17.31 51.8099 17.72 51.8099 18.24V19.15C51.8099 20.31 53.0499 21.04 54.0699 20.49L56.7199 19.05L56.9299 4.71002H56.9199Z" fill="#FADDDC"/>
<path d="M47.2201 14.44L46.6201 14.27C46.0801 14.12 45.7601 13.55 45.9101 13.01L46.7401 10.05C46.8001 9.81998 47.0401 9.68998 47.2601 9.75998C47.4801 9.82998 47.6201 10.06 47.5501 10.28L46.8301 12.84C46.7401 13.15 46.9201 13.47 47.2301 13.55L47.4401 13.61C47.6701 13.67 47.8001 13.91 47.7301 14.13C47.6601 14.35 47.4301 14.49 47.2101 14.42L47.2201 14.44Z" fill="#E0B1BB"/>
<path d="M48.68 10.01C48.68 10.32 48.9301 10.57 49.2401 10.57C49.5501 10.57 49.8 10.32 49.8 10.01C49.8 9.70001 49.5501 9.45001 49.2401 9.45001C48.9301 9.45001 48.68 9.70001 48.68 10.01Z" fill="#757570"/>
<path d="M60.1499 7.06002C59.7999 4.93002 57.7899 4.09002 56.7099 3.05002C55.3399 1.73002 54.2899 0.86002 51.3099 1.02002C50.2899 1.07002 49.7999 1.76002 49.6799 1.76002C46.3199 1.76002 45.0899 4.47002 45.1099 6.10002C45.1299 8.33002 46.2899 8.94002 46.2899 8.94002C46.2899 8.94002 46.3399 8.94002 46.3499 8.94002C47.3399 8.94002 46.7499 4.98002 47.3699 4.98002C47.9899 4.98002 47.6699 9.00002 52.3999 9.00002C52.7599 9.00002 53.0399 9.29002 53.0399 9.64002V10.79C53.0399 11 53.2099 11.17 53.4299 11.17C53.6499 11.17 53.8199 11 53.8199 10.79C53.8199 10.58 55.1599 12.94 56.2599 14.95C56.4399 15.28 56.7499 15.22 56.7499 15.22C57.0899 14.7 58.0299 12.65 58.9599 10.36C59.3999 9.29002 60.3999 8.57002 60.1499 7.06002Z" fill="#3E2967"/>
<path d="M53.81 10.13C53.81 9.59979 54.2398 9.16998 54.77 9.16998C55.3002 9.16998 55.73 9.59979 55.73 10.13V12.22C55.73 12.7502 55.3002 13.18 54.77 13.18C54.2398 13.18 53.81 12.7502 53.81 12.22V10.13Z" fill="#FADDDC"/>
<path d="M54.0899 37.95L56.3599 38.06C57.2499 38.1 58.0199 37.24 58.0799 36.14L58.4099 30.04L52.9099 29.77L52.5799 35.87C52.5199 36.98 53.1899 37.91 54.0899 37.95Z" fill="#E5E1DC"/>
<path d="M49.8499 51.56L50.3499 51.54C49.4799 32.2 51.2199 25.24 52.3399 22.82C52.4299 22.63 52.5199 22.43 52.3199 22.3L52.1799 22.51L51.9399 22.48C51.9399 22.48 51.9099 22.55 51.8799 22.62C50.7399 25.08 48.9699 32.12 49.8399 51.57L49.8499 51.56Z" fill="#E5E1DC"/>
</g>
<defs>
<clipPath id="clip0_1208_1553">
<rect width="61.26" height="107.28" fill="white" transform="matrix(-1 0 0 1 86 1)"/>
</clipPath>
</defs>
</svg>
