<svg width="110" height="110" viewBox="0 0 110 110" fill="none" xmlns="http://www.w3.org/2000/svg">
<g clip-path="url(#clip0_1208_1401)">
<path d="M62.4401 58.41L46.1101 58.51L63.6701 82.02L71.0501 104.7L73.8301 104.3L74.7301 106.1C75.6601 108.12 75.7801 108.98 77.3201 108.19L81.1501 106.67C81.8501 106.32 81.7401 105.29 80.9201 105.04C80.3801 104.87 79.5501 104.85 78.9901 104.82C76.9101 104.72 77.1901 103.25 76.8601 101.91C74.8601 93.92 73.9601 87.5 71.6901 79.43C70.4001 74.81 62.4201 58.41 62.4201 58.41H62.4401Z" fill="#291B4C"/>
<path d="M59.87 58.62L42.34 58.67L40.37 79.63L27.85 97.59L30.18 99.48C29.9 99.99 29.41 100.82 28.94 101.14C28.25 101.61 27.35 102.48 28.16 103.53L33.12 107.43C33.84 107.74 34.61 106.67 34.25 105.86C34.01 105.33 33.19 104.13 32.92 103.61C32.37 102.55 33.03 101.74 33.75 100.59C38.08 93.71 48.19 83.17 48.19 83.17L59.87 58.61V58.62Z" fill="#3F3072"/>
<path d="M31.1499 46.4099C30.4299 47.8899 28.6499 48.4999 27.1699 47.7799C25.9599 47.1899 25.3299 45.8799 25.5399 44.6099C25.5899 44.3399 25.6699 44.0599 25.7999 43.7999C26.1099 43.1599 26.4399 42.5399 26.7799 41.9399L31.6499 45.4299C31.4799 45.7499 31.3099 46.0699 31.1499 46.4099Z" fill="#FADDDC"/>
<path d="M58.61 26.68C58.78 28.31 57.59 29.77 55.96 29.94C55.79 29.96 39 31.86 31.66 45.43L26.79 41.94C35.78 26.16 54.54 24.1 55.36 24.02C56.99 23.86 58.45 25.05 58.61 26.68Z" fill="#E5E1DC"/>
<path d="M64.8 57.97H40.19C39.5 53.62 40.48 25.39 52.97 19.04H57.32C58.82 19.04 60.24 19.8 61.02 21.08C66.69 30.34 64.8 57.97 64.8 57.97Z" fill="white"/>
<path d="M51.27 19.3201C51.88 19.0101 52.57 18.9101 53.37 19.0501L58.28 19.1401C58.28 19.1401 58.87 19.1601 60.07 19.9901C60.27 20.1301 60.26 20.8701 60.21 21.5801C60.17 22.1401 59.5 22.4101 59.08 22.0301L57.48 20.6001L56.89 22.5501C56.75 23.0101 56.2 23.1801 55.82 22.8901L51.27 19.3101V19.3201Z" fill="#E5E1DC"/>
<path d="M53.1599 4.70996H63.5499V14.01C63.5499 15.83 62.0699 17.31 60.2499 17.31H59.1999C58.6899 17.31 58.2699 17.72 58.2699 18.24V19.15C58.2699 20.31 57.0299 21.04 56.0099 20.49L53.3599 19.05L53.1499 4.70996H53.1599Z" fill="#FADDDC"/>
<path d="M62.87 14.44L63.47 14.27C64.01 14.12 64.33 13.55 64.18 13.01L63.35 10.05C63.29 9.82004 63.05 9.69004 62.83 9.76004C62.61 9.83004 62.47 10.06 62.54 10.28L63.26 12.84C63.35 13.15 63.17 13.47 62.86 13.55L62.65 13.61C62.42 13.67 62.29 13.91 62.36 14.13C62.43 14.35 62.66 14.49 62.88 14.42L62.87 14.44Z" fill="#E0B1BB"/>
<path d="M61.41 10.01C61.41 10.32 61.16 10.57 60.85 10.57C60.54 10.57 60.29 10.32 60.29 10.01C60.29 9.69995 60.54 9.44995 60.85 9.44995C61.16 9.44995 61.41 9.69995 61.41 10.01Z" fill="#757570"/>
<path d="M49.9299 7.06002C50.2799 4.93002 52.2899 4.09002 53.3699 3.05002C54.7399 1.73002 55.7999 0.86002 58.7799 1.02002C59.7999 1.07002 60.2899 1.76002 60.4099 1.76002C63.7699 1.76002 64.9999 4.47002 64.9799 6.10002C64.9599 8.33002 63.7999 8.94002 63.7999 8.94002C63.7999 8.94002 63.7499 8.94002 63.7399 8.94002C62.7499 8.94002 63.3399 4.98002 62.7199 4.98002C62.0999 4.98002 62.4199 9.00002 57.6899 9.00002C57.3299 9.00002 57.0499 9.29002 57.0499 9.64002V10.79C57.0499 11 56.8799 11.17 56.6599 11.17C56.4399 11.17 56.2699 11 56.2699 10.79C56.2699 10.58 54.9299 12.94 53.8299 14.95C53.6499 15.28 53.3399 15.22 53.3399 15.22C52.9999 14.7 52.0599 12.65 51.1299 10.36C50.6899 9.29002 49.6899 8.57002 49.9399 7.06002H49.9299Z" fill="#3E2967"/>
<path d="M56.2801 10.13C56.2801 9.59985 55.8503 9.17004 55.3201 9.17004C54.7899 9.17004 54.3601 9.59985 54.3601 10.13V12.22C54.3601 12.7502 54.7899 13.18 55.3201 13.18C55.8503 13.18 56.2801 12.7502 56.2801 12.22V10.13Z" fill="#FADDDC"/>
<path d="M55.9899 37.95L53.7199 38.06C52.8299 38.1 52.0599 37.24 51.9999 36.14L51.6699 30.04L57.1699 29.77L57.4999 35.87C57.5599 36.98 56.8899 37.91 55.9899 37.95Z" fill="#E5E1DC"/>
<path d="M60.2399 51.5601L59.7399 51.5401C60.6099 32.2001 58.8699 25.24 57.7499 22.82C57.6599 22.63 57.5699 22.43 57.7699 22.3L57.9099 22.51L58.1499 22.48C58.1499 22.48 58.1799 22.5501 58.2099 22.6201C59.3499 25.0801 61.1199 32.12 60.2499 51.57L60.2399 51.5601Z" fill="#E5E1DC"/>
<path d="M77.7401 43.99C79.3801 44.06 80.6501 45.45 80.5801 47.09C80.5201 48.44 79.5701 49.54 78.3201 49.85C78.0501 49.92 77.7601 49.95 77.4701 49.93C76.7601 49.9 76.0601 49.84 75.3701 49.77L76.6301 43.92C76.9901 43.95 77.3601 43.98 77.7301 43.99H77.7401Z" fill="#FADDDC"/>
<path d="M48.4201 27.16C49.8501 26.36 51.6601 26.87 52.4701 28.3C52.5601 28.45 60.9701 43.09 76.3501 44.44L65.4801 46.77C52.3701 42.13 47.6801 31.93 47.2801 31.21C46.4801 29.78 46.9901 27.97 48.4301 27.17L48.4201 27.16Z" fill="#E5E1DC"/>
<path d="M48.7199 26.65C50.1499 25.85 51.9599 26.36 52.7699 27.79C52.8599 27.94 61.2699 42.58 76.6499 43.93L75.3899 49.78C57.3299 47.81 47.9899 31.42 47.5899 30.69C46.7899 29.26 47.2999 27.45 48.7399 26.65H48.7199Z" fill="white"/>
</g>
<defs>
<clipPath id="clip0_1208_1401">
<rect width="56.12" height="107.48" fill="white" transform="translate(25.5 1)"/>
</clipPath>
</defs>
</svg>
