<svg width="110" height="110" viewBox="0 0 110 110" fill="none" xmlns="http://www.w3.org/2000/svg">
<g clip-path="url(#clip0_1207_1465)">
<path d="M65.1699 56.34H38.4399L43.4699 102.8L46.7999 102.33C46.8899 103.2 46.6499 104.51 45.6999 105.28C45.1699 105.71 44.6099 106.1 44.0799 106.53C43.4599 107.04 43.7799 108.17 44.5499 108.17L49.5399 107.15C51.7799 106.68 51.4699 105.1 51.0299 103.88C50.7399 103.07 50.2699 101.67 50.2699 101.67L51.3199 101.37L51.0399 63.94H52.5699C52.5699 63.94 55.3999 84.45 55.6499 85.32C55.9999 86.57 57.4099 86.39 57.8999 85.46C58.3199 84.66 58.7399 81.39 58.8199 80.75L60.5199 80.4C62.0899 80.08 63.2699 78.76 63.3999 77.16L65.1799 56.34H65.1699Z" fill="#3E2967"/>
<path d="M37.1001 57.23H66.5701L66.5601 27.55C66.5601 22.63 62.5701 18.65 57.6601 18.65H45.9901C41.0701 18.65 37.0901 22.64 37.0901 27.55L37.1101 57.23H37.1001Z" fill="white"/>
<path d="M35.56 59.5C35.94 61.23 34.83 62.95 33.1 63.32C33.02 63.34 32.95 63.35 32.87 63.36C31.22 63.6 29.64 62.52 29.28 60.86C29.16 60.32 29.06 59.78 28.96 59.25L35.34 58.34C35.42 58.73 35.48 59.11 35.57 59.51L35.56 59.5Z" fill="#FADDDC"/>
<path d="M40.08 21C41.49 19.93 43.49 20.21 44.56 21.61C45.64 23.01 45.37 25.03 43.98 26.11C43.44 26.53 31.09 36.44 35.33 58.33L28.95 59.24C24.09 33.48 39.41 21.51 40.08 21Z" fill="white"/>
<path d="M80.8399 43.58C82.1499 44.12 82.7699 45.62 82.2299 46.92C82.2099 46.98 82.1799 47.03 82.1499 47.09C81.5599 48.28 80.1299 48.82 78.8899 48.31C78.4799 48.14 78.0799 47.97 77.6899 47.79L79.9799 43.2C80.2699 43.33 80.5499 43.46 80.8499 43.58H80.8399Z" fill="#FADDDC"/>
<path d="M57.6899 23.19C57.6299 21.78 58.7099 20.6 60.1199 20.53C61.5199 20.46 62.7199 21.55 62.7999 22.95C62.8299 23.49 63.7299 36.06 79.9799 43.2L77.6899 47.79C58.6199 39.3 57.7199 23.86 57.6899 23.19Z" fill="white"/>
<path d="M49.6001 21.72L52.6701 18.65H47.8601V21C47.8601 21.91 48.9601 22.37 49.6001 21.72Z" fill="#E5E1DC"/>
<path d="M55.84 21.72L52.77 18.65H57.58V21C57.58 21.91 56.48 22.37 55.84 21.72Z" fill="#E5E1DC"/>
<path d="M52.7401 20.32H52.3601V50.68H52.7401V20.32Z" fill="#E5E1DC"/>
<path d="M42.6101 27.61H48.7501V33.1C48.7501 34.09 47.9401 34.9 46.9501 34.9H44.4201C43.4301 34.9 42.6201 34.09 42.6201 33.1V27.61H42.6101Z" fill="#E5E1DC"/>
<path d="M56.2 27.61H62.34V33.1C62.34 34.09 61.53 34.9 60.54 34.9H58.01C57.02 34.9 56.2099 34.09 56.2099 33.1V27.61H56.2Z" fill="#E5E1DC"/>
<path d="M50.26 4.41997H57.86C58.92 4.41997 59.78 5.27997 59.78 6.33997V13.82C59.78 15.49 58.43 16.84 56.76 16.84H55.8C55.33 16.84 54.95 17.22 54.95 17.69V18.67H50.3L50.26 4.40997V4.41997Z" fill="#FADDDC"/>
<path d="M56.7001 14.1H57.2701C57.7901 14.1 58.2001 13.68 58.2001 13.17V10.36C58.2001 10.14 58.03 9.96997 57.81 9.96997C57.59 9.96997 57.42 10.14 57.42 10.36V12.8C57.42 13.09 57.18 13.33 56.89 13.33H56.6901C56.4701 13.33 56.3 13.5 56.3 13.72C56.3 13.94 56.4701 14.11 56.6901 14.11L56.7001 14.1Z" fill="#E0B1BB"/>
<path d="M49.2701 11.7H50.8501V8.35001H49.2701V11.7Z" fill="#FADDDC"/>
<path d="M61.2101 5.77C61.2101 4.12 60.2001 1.14 56.3301 1.14C56.2101 1.14 56.1001 1.16 55.9801 1.14C51.6201 0.450004 49.1001 2.31 47.9901 5.01C47.4301 5.39 47.0701 6.03 47.0701 6.75C47.0701 7.47 47.4601 8.15 48.0501 8.52C48.4101 9.45 48.6001 10.38 49.1201 11.19C49.1201 11.19 49.1401 12.07 49.1401 12.67C49.1401 13.58 50.2901 13.58 50.2901 13.58V11.54C49.6101 11.29 49.4401 10.71 49.4401 9.81C49.4401 8.91 50.2401 8.91 50.2401 8.91V9.98C50.2401 10.3 50.5001 10.56 50.8201 10.56C51.1401 10.56 51.4001 10.3 51.4001 9.98V9.05C51.4001 8.89 51.5501 8.88 51.7001 8.88C57.5601 8.88 56.9701 4.87 57.6001 4.87C58.2301 4.87 58.0801 7.76 59.7601 7.76C59.7801 7.76 59.7901 8.65 59.7901 8.65C59.7901 8.65 61.2101 8.11 61.2101 5.77Z" fill="#3E2967"/>
<path d="M53.99 10.24C54 10.55 54.26 10.79 54.57 10.78C54.88 10.77 55.12 10.51 55.11 10.2C55.1 9.88997 54.84 9.64997 54.53 9.65997C54.22 9.66997 53.98 9.92997 53.99 10.24Z" fill="#757570"/>
</g>
<defs>
<clipPath id="clip0_1207_1465">
<rect width="54.43" height="107.17" fill="white" transform="translate(28 1)"/>
</clipPath>
</defs>
</svg>
