<svg width="110" height="110" viewBox="0 0 110 110" fill="none" xmlns="http://www.w3.org/2000/svg">
<g clip-path="url(#clip0_1215_3432)">
<path d="M67.06 19.34C65.87 18.68 64.38 19.11 63.71 20.29C63.04 21.48 63.46 22.98 64.65 23.66C65.11 23.92 73.77 27.92 72.92 45.07C72.91 45.37 72.9 45.67 72.87 45.98C72.77 47.34 73.8 48.53 75.16 48.63C75.22 48.63 75.28 48.63 75.34 48.63C76.63 48.63 77.71 47.63 77.81 46.33C77.84 45.9 77.86 45.48 77.88 45.06C78.77 24.89 67.62 19.64 67.06 19.33V19.34Z" fill="#FADDDC"/>
<path d="M45.48 56.16L70.14 56.27L64.92 98.7C64.92 98.7 62.33 100.41 62.32 100.47C62.11 101.83 62.32 102.98 64.33 101.71C64.91 101.34 65.37 101.32 65.9 101.8C66.53 102.37 66.05 104.03 65.49 104.92L60.54 108.86C59.95 109.33 59.08 109.38 58.53 108.86C57.68 108.08 57.92 106.83 58.28 105.82C59.65 101.9 59.23 101.45 59.23 101.45L58.46 101.71C57.96 101.88 57.46 101.49 57.5 100.97C57.9 95.82 58.92 69.38 59.1 64.63C59.12 64.23 58.8 63.89 58.4 63.88L57.34 63.86C57.02 63.86 56.71 64.08 56.71 64.4C56.68 70.76 56.6 80.73 56.51 80.73C56.51 80.73 56.04 84.98 55.79 85.95C55.44 87.33 54.02 87.14 53.53 86.11C53.11 85.22 52.99 82.5 52.91 81.79H50.73L45.48 56.15V56.16Z" fill="#3E2C6D"/>
<path d="M64.13 18.32C64.13 18.32 70.8 18.89 75.75 28.5L69.65 33.73C69.65 33.73 65.42 29.43 64.06 25.12C62.7 20.81 64.13 18.31 64.13 18.31V18.32Z" fill="#65CEAE"/>
<path d="M59.66 14.27H55.05V17.62H59.66V14.27Z" fill="#FADDDC"/>
<path d="M62.55 10.62H61.99V8.07001C61.99 7.66001 62.32 7.32001 62.74 7.32001H63.04C63.45 7.32001 63.79 7.65001 63.79 8.07001L63.44 9.74001C63.44 10.23 63.05 10.62 62.56 10.62H62.55Z" fill="#FADDDC"/>
<path d="M51.44 10.62H52V8.07001C52 7.66001 51.67 7.32001 51.25 7.32001H50.95C50.54 7.32001 50.2 7.65001 50.2 8.07001L50.5499 9.74001C50.5499 10.23 50.94 10.62 51.43 10.62H51.44Z" fill="#FADDDC"/>
<path d="M71.3701 56.69H43.8701L43.8801 26.78C43.8801 21.64 48.0501 17.47 53.1901 17.47H62.0801C67.2201 17.47 71.3901 21.64 71.3901 26.78L71.3701 56.69Z" fill="#74E0C1"/>
<path d="M63.7301 2.68C63.5301 1.82 63.0101 1.04 62.2801 0.530001C61.4501 -0.0499994 60.4601 -0.0799994 59.5001 0.0900006C58.6401 0.240001 57.7901 0.500001 56.9501 0.710001C56.1601 0.910001 55.3501 1.08 54.5701 1.32C53.7601 1.57 52.9501 1.94 52.3501 2.56C51.7401 3.18 51.4201 3.96 51.2901 4.8C51.1701 5.06 51.1001 5.35 51.1001 5.74C51.1001 7.19 51.2001 8.42 51.4501 9.4C51.7001 10.38 52.7501 13.66 54.7801 14.97C55.7501 15.6 58.3401 15.98 59.6401 14.97C60.9301 13.96 62.0701 12.64 62.3901 10.56C62.7101 8.48 62.7301 8.1 63.0801 7.12C63.1701 6.87 63.2001 6.54 63.1901 6.18C63.7301 5.1 64.0401 3.94 63.7501 2.7L63.7301 2.68Z" fill="#3E2967"/>
<path d="M46.47 23.14C45.11 21.99 43.07 22.15 41.91 23.52C41.33 24.21 28.19 40 33.08 59.16C33.27 59.89 33.47 60.62 33.71 61.36C33.81 61.66 33.95 61.94 34.12 62.19C34.91 63.34 36.39 63.89 37.79 63.44C39.49 62.89 40.42 61.06 39.87 59.36C39.75 58.98 39.63 58.6 39.53 58.21C35.02 42.03 46.73 27.85 46.85 27.7C48 26.33 47.83 24.29 46.46 23.14H46.47Z" fill="#FADDDC"/>
<path d="M50.9501 17.79C50.9501 17.79 40.9501 18.76 35.3501 30.73L44.4701 37.54L47.3001 31.62C49.4201 28.9 50.6401 25.58 50.7801 22.14L50.9501 17.79Z" fill="#74E0C1"/>
</g>
<defs>
<clipPath id="clip0_1215_3432">
<rect width="45.93" height="109.23" fill="white" transform="translate(32)"/>
</clipPath>
</defs>
</svg>
