<svg width="110" height="110" viewBox="0 0 110 110" fill="none" xmlns="http://www.w3.org/2000/svg">
<g clip-path="url(#clip0_1216_1554)">
<path d="M47.5899 56.41L63.9199 56.52L46.3599 80.92L38.9799 104.46L36.1999 104.05L35.2999 105.91C34.3699 108 34.2499 108.9 32.7099 108.08L28.8799 106.5C28.1799 106.13 28.2899 105.07 29.1099 104.81C29.6499 104.64 30.4799 104.61 31.0399 104.58C33.1199 104.48 32.8399 102.95 33.1699 101.56C35.1699 93.27 36.0699 86.61 38.3399 78.23C39.6299 73.43 47.6099 56.41 47.6099 56.41H47.5899Z" fill="#291B4C"/>
<path d="M50.1501 56.62L67.6801 56.67L69.6501 78.43L82.1701 97.07L79.8401 99.03C80.1201 99.56 80.6101 100.42 81.0801 100.75C81.7701 101.24 82.6701 102.14 81.8601 103.23L76.9001 107.28C76.1801 107.6 75.4101 106.49 75.7701 105.65C76.0101 105.09 76.8301 103.86 77.1001 103.32C77.6501 102.22 76.9901 101.38 76.2701 100.19C71.9401 93.04 61.8301 82.1 61.8301 82.1L50.1501 56.61V56.62Z" fill="#3E2C6D"/>
<path d="M79.6899 49.14C80.1799 50.71 81.8499 51.58 83.4199 51.09C84.6999 50.69 85.5199 49.49 85.4999 48.21C85.4999 47.93 85.4499 47.65 85.3599 47.37C85.1499 46.69 84.9099 46.03 84.6699 45.39L79.3299 48.11C79.4499 48.45 79.5699 48.8 79.6799 49.15L79.6899 49.14Z" fill="#FADDDC"/>
<path d="M55.4899 25.53C55.0799 27.12 56.0399 28.74 57.6299 29.15C57.7999 29.19 74.1099 33.58 79.3399 48.1L84.6799 45.38C78.1499 28.43 59.9099 23.59 59.1099 23.39C57.5199 22.98 55.9099 23.94 55.4999 25.53H55.4899Z" fill="#FADDDC"/>
<path d="M56.0901 28.47L67.8201 35.37L73.3601 29.15C67.4101 24.62 62.3401 22.47 57.8001 21.78L56.0901 28.48V28.47Z" fill="#65CEAE"/>
<path d="M45.3999 57.2L69.9399 57.12L67.4899 34.56C67.4899 30.4 62.3899 19.06 58.8599 19.06H54.5099C53.0099 19.06 51.5899 19.82 50.8099 21.1C45.1399 30.36 45.3899 57.2 45.3899 57.2H45.3999Z" fill="#74E0C1"/>
<path d="M52.3801 36.9L54.7501 36.74L54.7901 35.66L53.3501 35.76L54.8501 29.93L54.2601 29.6L52.3801 36.9Z" fill="white"/>
<path d="M57.8099 33.49L58.4599 33.43C58.4899 32.33 58.2599 30.27 57.1399 30.29C57.1199 30.29 57.1099 30.29 57.0899 30.29C55.9499 30.37 55.4599 32.09 55.3499 33L55.9799 33.09C55.9999 32.92 56.2199 31.36 57.0699 31.37C57.8599 31.35 57.8099 33.47 57.8099 33.49Z" fill="white"/>
<path d="M52.12 32.94L52.77 32.88C52.8 31.78 52.57 29.72 51.45 29.74C50.3 29.77 49.77 31.53 49.67 32.45L50.3 32.54C50.32 32.37 50.51 30.82 51.39 30.82C52.18 30.8 52.13 32.92 52.13 32.94H52.12Z" fill="white"/>
<path d="M53.3501 41.3C56.5701 41.09 57.0601 36.55 57.0601 36.5L56.4201 36.44C56.4001 36.59 56.0201 40.05 53.3901 40.22C51.0201 40.38 51.1001 36.3 51.1001 36.13L50.4501 36.19C50.4001 38.03 50.9301 41.46 53.3401 41.3H53.3501Z" fill="white"/>
<path d="M63.1599 26.56C63.1599 26.56 62.5699 31.18 59.5299 35.41C56.3599 39.81 52.3199 43.38 51.9899 42.95L49.8999 41.08L45.9999 43.39C45.9999 43.39 46.8899 35.37 46.5999 34.49C46.5099 34.21 56.5899 23.42 56.5899 23.42C56.5899 23.42 62.1099 23.92 63.1599 26.56Z" fill="#65CEAE"/>
<path d="M26.2901 40.53C24.6601 40.32 23.1701 41.48 22.9601 43.11C22.7901 44.45 23.5401 45.69 24.7101 46.21C24.9701 46.32 25.2401 46.4 25.5301 46.44C26.2401 46.53 26.9301 46.59 27.6201 46.64L27.3701 40.66C27.0101 40.63 26.6401 40.59 26.2801 40.55L26.2901 40.53Z" fill="#FADDDC"/>
<path d="M57.8401 28.37C56.5701 27.34 54.6901 27.53 53.6601 28.8C53.5501 28.93 42.7601 41.93 27.3901 40.64L27.6401 46.62C45.7701 47.75 57.7701 33.18 58.2901 32.54C59.3201 31.26 59.1201 29.4 57.8501 28.36L57.8401 28.37Z" fill="#FADDDC"/>
<path d="M62.9401 25.68C62.9401 25.68 63.1201 30.97 59.3101 34.53C55.5001 38.08 51.6101 40.98 51.6101 40.98C51.6101 40.98 45.6101 33.28 45.6001 32.99C45.5901 32.7 56.3701 22.55 56.3701 22.55C56.3701 22.55 61.8901 23.05 62.9401 25.69V25.68Z" fill="#74E0C1"/>
<path d="M59.77 19.11C59.77 19.11 58.28 22.07 55.22 21.85C53.64 21.74 53.32 20.64 53.14 20.16C52.96 19.68 53.11 19.28 53.11 19.28L53.89 19.09H58.79L59.76 19.11H59.77Z" fill="#65CEAE"/>
<path d="M59.04 5.25H48.65V14.55C48.65 16.37 50.13 17.85 51.95 17.85H53C53.51 17.85 53.93 18.26 53.93 18.78V19.69C53.97 20.44 54.9 21.36 55.84 21.12C56.78 20.88 58.41 20.12 58.83 19.28L59.04 5.25Z" fill="#FADDDC"/>
<path d="M48.9601 14.71L48.3601 14.54C47.8201 14.39 47.5001 13.82 47.6501 13.28L48.4801 10.32C48.5401 10.09 48.7801 9.96 49.0001 10.03C49.2201 10.1 49.3601 10.33 49.2901 10.55L48.5701 13.11C48.4801 13.42 48.6601 13.74 48.9701 13.82L49.1801 13.88C49.4101 13.94 49.5401 14.18 49.4701 14.4C49.4001 14.62 49.1701 14.76 48.9501 14.69L48.9601 14.71Z" fill="#E0B1BB"/>
<path d="M50.42 10.29C50.42 10.6 50.67 10.85 50.98 10.85C51.29 10.85 51.54 10.6 51.54 10.29C51.54 9.98 51.29 9.73 50.98 9.73C50.67 9.73 50.42 9.98 50.42 10.29Z" fill="#757570"/>
<path d="M55.4101 2.56C56.9701 3.18 59.4801 4.49 59.9701 7.61C60.2201 9.2 59.1301 13.88 59.1301 13.88C58.9801 14.38 58.6201 15.23 58.5101 15.27L58.3401 15.12L57.7801 12.89C57.4001 12.89 55.9801 10.73 55.9801 11.11V11.69V11.67L55.9701 12.15C55.9701 12.35 55.8101 12.51 55.6101 12.51C55.4101 12.51 55.2501 12.35 55.2501 12.15V10.59C55.2501 9.98 55.3601 9.23 55.0301 8.73C54.7401 8.29 54.3201 7.69 53.4801 7.49C52.6401 7.29 50.8901 7.45 49.8801 7.21C48.3501 6.85 47.9201 4.77 48.3001 3.3C48.6201 2.03 52.7501 1.51 55.4101 2.56Z" fill="#3E2967"/>
<path d="M48.8101 3.14C48.7301 3.17 47.8201 3.5 47.8001 4.67C47.7701 5.85 48.6801 9 48.6801 9C48.6801 9 48.5401 5.96 49.5001 5.85C50.4601 5.74 48.8201 3.14 48.8201 3.14H48.8101Z" fill="#3E2967"/>
<path d="M55.9301 10.55C55.9301 10.0198 56.3599 9.59 56.8901 9.59C57.4203 9.59 57.8501 10.0198 57.8501 10.55V12.64C57.8501 13.1702 57.4203 13.6 56.8901 13.6C56.3599 13.6 55.9301 13.1702 55.9301 12.64V10.55Z" fill="#FADDDC"/>
</g>
<defs>
<clipPath id="clip0_1216_1554">
<rect width="62.56" height="106.38" fill="white" transform="matrix(-1 0 0 1 85.5 2)"/>
</clipPath>
</defs>
</svg>
