<svg width="110" height="110" viewBox="0 0 110 110" fill="none" xmlns="http://www.w3.org/2000/svg">
<g clip-path="url(#clip0_1215_3180)">
<path d="M27.2699 54.76C27.3599 55.52 27.4699 56.28 27.6099 57.05C27.6699 57.37 27.7599 57.66 27.8899 57.94C28.4799 59.2 29.7799 59.93 31.0999 59.64C32.7099 59.29 33.7599 57.56 33.4399 55.79C33.3699 55.39 33.3099 54.99 33.2499 54.6C32.2899 47.73 33.4099 40.98 35.4999 36.03L30.8199 32.88C28.2199 38.7 26.2599 46.22 27.2699 54.76Z" fill="#FADDDC"/>
<path d="M90.8801 14.49C90.6001 14.73 90.3201 14.97 90.0401 15.2C83.9201 20.15 76.7101 21.35 71.0901 21.34L71.7201 27.33C78.1001 27.26 86.1001 25.78 93.2001 20.29C93.7501 19.87 94.2901 19.42 94.8201 18.95C95.0401 18.76 95.2201 18.54 95.3701 18.3C96.0501 17.21 95.9701 15.76 95.0801 14.75C93.9901 13.52 92.1101 13.4 90.8801 14.49Z" fill="#FADDDC"/>
<path d="M66.9 56.71H36.21L38.1 27.01C38.1 22.85 37.75 19.47 45.64 19.47H57.48C61.64 19.47 65.02 22.85 65.02 27.01L66.89 56.71H66.9Z" fill="#74E0C1"/>
<path d="M43.42 21.33C42.3 20.13 40.43 20.06 39.22 21.17C38.87 21.49 33.47 25.32 30.02 32.34L36.14 36.39C39.16 29.89 43.2 25.6 43.27 25.53C44.47 24.41 44.54 22.53 43.42 21.33Z" fill="#74E0C1"/>
<path d="M58.4999 19.54C56.7699 19.45 56.1299 20.84 55.7699 22.23C55.3599 23.82 58.3099 27.54 59.8199 28.18C60.6599 28.53 65.2799 28.47 71.8199 28.41L71.0399 21.07C65.6299 21.06 61.2899 19.69 58.4999 19.54Z" fill="#74E0C1"/>
<path d="M47.74 19.5H54.94V19.65C54.94 21.64 53.33 23.25 51.34 23.25C49.35 23.25 47.74 21.64 47.74 19.65V19.5Z" fill="#65CEAE"/>
<path d="M54.0499 37H50.3999V36.01H52.6299L50.6699 30.73L51.5999 30.38L54.0499 37Z" fill="white"/>
<path d="M45.8899 34.19L44.8999 34.17C44.9199 33.16 45.4099 31.24 47.1399 31.2C47.1599 31.2 47.1899 31.2 47.2099 31.2C48.9599 31.2 49.6199 32.76 49.7199 33.59L48.7399 33.71C48.7199 33.55 48.4799 32.13 47.1699 32.19C45.9599 32.22 45.8999 34.17 45.8999 34.19H45.8899Z" fill="white"/>
<path d="M54.69 33.34L53.7 33.32C53.72 32.31 54.21 30.39 55.94 30.35C57.7 30.31 58.42 31.9 58.52 32.74L57.54 32.86C57.52 32.7 57.3299 31.29 55.9699 31.34C54.7599 31.37 54.7 33.32 54.7 33.34H54.69Z" fill="white"/>
<path d="M52.2801 41.12C47.3201 41.12 46.8601 36.97 46.8601 36.92L47.8501 36.82C47.8601 36.95 48.2501 40.12 52.2901 40.12C55.9401 40.12 56.0701 36.36 56.0701 36.2L57.0601 36.22C57.0301 37.91 55.9901 41.11 52.2901 41.11L52.2801 41.12Z" fill="white"/>
<path d="M48.8701 6.60999H59.1101V14.61C59.1101 16.41 57.6501 17.86 55.8601 17.86H54.8301C54.3301 17.86 53.9201 18.75 53.9201 19.26V19.57C53.9201 20.95 52.8001 22.07 51.4201 22.07C50.0401 22.07 48.9201 20.95 48.9201 19.57L48.8901 6.60999H48.8701Z" fill="#FADDDC"/>
<path d="M55.8199 14.9H56.4399C56.9899 14.9 57.4399 14.45 57.4399 13.9V10.87C57.4399 10.64 57.2499 10.45 57.0199 10.45C56.7899 10.45 56.5999 10.64 56.5999 10.87V13.49C56.5999 13.8 56.3499 14.06 56.0299 14.06H55.8099C55.5799 14.06 55.3899 14.25 55.3899 14.48C55.3899 14.71 55.5799 14.9 55.8099 14.9H55.8199Z" fill="#E0B1BB"/>
<path d="M53.51 10.97C53.51 11.28 53.76 11.53 54.07 11.53C54.38 11.53 54.63 11.28 54.63 10.97C54.63 10.66 54.38 10.41 54.07 10.41C53.76 10.41 53.51 10.66 53.51 10.97Z" fill="#757570"/>
<path d="M51.9801 2.56C50.4201 3.18 47.9101 4.49 47.4201 7.61C47.1701 9.2 48.2601 13.88 48.2601 13.88C48.4101 14.38 48.7801 14.35 48.8901 14.38L48.8701 11.22V11.1C48.8701 11.04 48.8801 10.98 48.9001 10.92C48.9801 10.63 49.2401 10.41 49.5601 10.41H49.6401C50.0201 10.41 50.3201 10.72 50.3201 11.09V11.67V11.65L50.3301 12.13C50.3301 12.33 50.4901 12.49 50.6901 12.49C50.8901 12.49 51.0501 12.33 51.0501 12.13V10.57C51.0501 9.96 51.2001 9.36 51.5401 8.86C51.8301 8.42 52.3701 7.67 53.2001 7.48C54.0301 7.29 56.4801 7.44 57.5001 7.2C59.0301 6.84 59.4601 4.76 59.0801 3.29C58.7601 2.02 54.6301 1.5 51.9701 2.55L51.9801 2.56Z" fill="#3E2967"/>
<path d="M58.9499 3.85999C59.0299 3.88999 59.9399 4.21999 59.9599 5.38999C59.9799 6.55999 59.0799 9.71999 59.0799 9.71999C59.0799 9.71999 59.2199 6.67999 58.2599 6.56999C57.2999 6.45999 58.9399 3.85999 58.9399 3.85999H58.9499Z" fill="#3E2967"/>
<path d="M50.7 56.68H65.01L66.43 101.5L63.9 101.68C63.9 102.36 64.3 103.64 64.76 104C65.3 104.43 66.73 104.91 67.25 105.38C67.86 105.94 67.54 107.16 66.78 107.16H63.7H62.91C62.21 107.16 61.6 106.56 61.43 105.7L61.36 101.92L59.83 101.88C58.64 95.61 57.43 85.64 56.38 79.25C55.64 74.77 55.03 68.91 54.37 64.45C54.22 63.47 53.51 62.76 52.68 62.76H51.17C50.33 62.76 49.62 63.47 49.48 64.45C48.82 68.91 46.22 93.59 44.82 100.69C44.74 101.09 43.13 100.56 43.05 100.97C42.8 102.25 43.23 103.57 44.11 104.29C44.54 104.64 44.95 105 45.36 105.38C45.98 105.94 45.66 107.17 44.9 107.17H41.82L39.82 106.4C37.84 104.92 40.31 103.76 39.38 100.96L37.73 100.41L38.67 64.15V56.66H50.71L50.7 56.68Z" fill="#3E2C6D"/>
</g>
<defs>
<clipPath id="clip0_1215_3180">
<rect width="68.82" height="105.19" fill="white" transform="translate(27 2)"/>
</clipPath>
</defs>
</svg>
