<svg width="110" height="110" viewBox="0 0 110 110" fill="none" xmlns="http://www.w3.org/2000/svg">
<g clip-path="url(#clip0_1215_3678)">
<path d="M43.73 56.07H70.46L65.43 102.53L62.1 102.06C62.01 102.93 62.25 104.24 63.2 105.01C63.73 105.44 64.29 105.83 64.82 106.26C65.44 106.77 65.12 107.9 64.35 107.9L59.36 106.88C57.12 106.41 57.43 104.83 57.87 103.61C58.16 102.8 58.63 101.4 58.63 101.4L57.58 101.1L57.86 63.67H56.33C56.33 63.67 53.5 84.18 53.25 85.05C52.9 86.3 51.49 86.12 51 85.19C50.58 84.39 50.16 81.12 50.08 80.48L48.38 80.13C46.81 79.81 45.63 78.49 45.5 76.89L43.72 56.07H43.73Z" fill="#3E2C6D"/>
<path d="M81.2199 53.97C80.9399 53.72 80.6799 53.47 80.4199 53.22C74.7699 47.75 72.7099 40.73 72.0399 35.15L66.1699 36.5C67.0099 42.83 69.4399 50.59 75.7499 56.97C76.2399 57.46 76.7399 57.95 77.2699 58.42C77.4899 58.61 77.7299 58.77 77.9799 58.89C79.1399 59.44 80.5699 59.18 81.4699 58.17C82.5599 56.94 82.4499 55.06 81.2199 53.97Z" fill="#FADDDC"/>
<path d="M70.8399 25.54C70.5699 23.83 67.5099 20.63 66.0899 20.44C64.4599 20.22 64.3399 23.22 63.8899 24.8C63.6399 25.67 64.2599 30.25 65.1099 36.74L72.2999 35.08C71.6599 29.71 71.2999 28.41 70.8499 25.54H70.8399Z" fill="#74E0C1"/>
<path d="M72.4 56.71H41.71L43.6 27.01C43.6 22.85 43.25 19.47 51.14 19.47H62.98C67.14 19.47 70.52 22.85 70.52 27.01L72.39 56.71H72.4Z" fill="#74E0C1"/>
<path d="M32.7699 54.76C32.8599 55.52 32.9699 56.28 33.1099 57.05C33.1699 57.37 33.2599 57.66 33.3899 57.94C33.9799 59.2 35.2799 59.93 36.5999 59.64C38.2099 59.29 39.2599 57.56 38.9399 55.79C38.8699 55.39 38.8099 54.99 38.7499 54.6C37.7899 47.73 38.9099 40.98 40.9999 36.03L36.3199 32.88C33.7199 38.7 31.7599 46.22 32.7699 54.76Z" fill="#FADDDC"/>
<path d="M48.92 21.33C47.8 20.13 45.93 20.06 44.72 21.17C44.37 21.49 38.97 25.32 35.52 32.34L41.64 36.39C44.66 29.89 48.7 25.6 48.77 25.53C49.97 24.41 50.04 22.53 48.92 21.33Z" fill="#74E0C1"/>
<path d="M53.24 19.5H60.44V19.65C60.44 21.64 58.83 23.25 56.84 23.25C54.85 23.25 53.24 21.64 53.24 19.65V19.5Z" fill="#65CEAE"/>
<path d="M59.5499 37H55.8999V36.01H58.1299L56.1699 30.73L57.0999 30.38L59.5499 37Z" fill="white"/>
<path d="M51.3899 34.19L50.3999 34.17C50.4199 33.16 50.9099 31.24 52.6399 31.2C52.6599 31.2 52.6899 31.2 52.7099 31.2C54.4599 31.2 55.1199 32.76 55.2199 33.59L54.2399 33.71C54.2199 33.55 53.9799 32.13 52.6699 32.19C51.4599 32.22 51.3999 34.17 51.3999 34.19H51.3899Z" fill="white"/>
<path d="M60.19 33.34L59.2 33.32C59.22 32.31 59.71 30.39 61.44 30.35C63.2 30.31 63.92 31.9 64.02 32.74L63.04 32.86C63.02 32.7 62.8299 31.29 61.4699 31.34C60.2599 31.37 60.2 33.32 60.2 33.34H60.19Z" fill="white"/>
<path d="M57.7801 41.12C52.8201 41.12 52.3601 36.97 52.3601 36.92L53.3501 36.82C53.3601 36.95 53.7501 40.12 57.7901 40.12C61.4401 40.12 61.5701 36.36 61.5701 36.2L62.5601 36.22C62.5301 37.91 61.4901 41.11 57.7901 41.11L57.7801 41.12Z" fill="white"/>
<path d="M54.3701 6.61H64.6101V14.61C64.6101 16.41 63.1501 17.86 61.3601 17.86H60.3301C59.8301 17.86 59.4201 18.75 59.4201 19.26V19.57C59.4201 20.95 58.3001 22.07 56.9201 22.07C55.5401 22.07 54.4201 20.95 54.4201 19.57L54.3901 6.61H54.3701Z" fill="#FADDDC"/>
<path d="M61.3199 14.9H61.9399C62.4899 14.9 62.9399 14.45 62.9399 13.9V10.87C62.9399 10.64 62.7499 10.45 62.5199 10.45C62.2899 10.45 62.0999 10.64 62.0999 10.87V13.49C62.0999 13.8 61.8499 14.06 61.5299 14.06H61.3099C61.0799 14.06 60.8899 14.25 60.8899 14.48C60.8899 14.71 61.0799 14.9 61.3099 14.9H61.3199Z" fill="#E0B1BB"/>
<path d="M59.01 10.97C59.01 11.28 59.26 11.53 59.57 11.53C59.88 11.53 60.13 11.28 60.13 10.97C60.13 10.66 59.88 10.41 59.57 10.41C59.26 10.41 59.01 10.66 59.01 10.97Z" fill="#757570"/>
<path d="M57.4801 2.56C55.9201 3.18 53.4101 4.49 52.9201 7.61C52.6701 9.2 53.7601 13.88 53.7601 13.88C53.9101 14.38 54.2801 14.35 54.3901 14.38L54.3701 11.22V11.1C54.3701 11.04 54.3801 10.98 54.4001 10.92C54.4801 10.63 54.7401 10.41 55.0601 10.41H55.1401C55.5201 10.41 55.8201 10.72 55.8201 11.09V11.67V11.65L55.8301 12.13C55.8301 12.33 55.9901 12.49 56.1901 12.49C56.3901 12.49 56.5501 12.33 56.5501 12.13V10.57C56.5501 9.96 56.7001 9.36 57.0401 8.86C57.3301 8.42 57.8701 7.67 58.7001 7.48C59.5301 7.29 61.9801 7.44 63.0001 7.2C64.5301 6.84 64.9601 4.76 64.5801 3.29C64.2601 2.02 60.1301 1.5 57.4701 2.55L57.4801 2.56Z" fill="#3E2967"/>
<path d="M64.4499 3.86C64.5299 3.89 65.4399 4.22 65.4599 5.39C65.4899 6.57 64.5799 9.72 64.5799 9.72C64.5799 9.72 64.7199 6.68 63.7599 6.57C62.7999 6.46 64.4399 3.86 64.4399 3.86H64.4499Z" fill="#3E2967"/>
</g>
<defs>
<clipPath id="clip0_1215_3678">
<rect width="49.71" height="105.9" fill="white" transform="translate(32.5 2)"/>
</clipPath>
</defs>
</svg>
