<svg width="110" height="110" viewBox="0 0 110 110" fill="none" xmlns="http://www.w3.org/2000/svg">
<g clip-path="url(#clip0_1215_3600)">
<path d="M50.77 56.5H65.0801L66.5 101.32L63.9701 101.5C63.9701 102.18 64.3701 103.46 64.8301 103.82C65.3701 104.25 66.8 104.73 67.32 105.2C67.93 105.76 67.61 106.98 66.85 106.98H63.7701H62.98C62.28 106.98 61.67 106.38 61.5 105.52L61.43 101.74L59.9001 101.7C58.7101 95.43 57.5001 85.46 56.4501 79.07C55.7101 74.59 55.1 68.73 54.44 64.27C54.29 63.29 53.58 62.58 52.75 62.58H51.24C50.4 62.58 49.69 63.29 49.55 64.27C48.89 68.73 46.29 93.41 44.89 100.51C44.81 100.91 43.2 100.38 43.12 100.79C42.87 102.07 43.3 103.39 44.18 104.11C44.61 104.46 45.02 104.82 45.43 105.2C46.05 105.76 45.73 106.99 44.97 106.99H41.89L39.89 106.22C37.91 104.74 40.38 103.58 39.45 100.78L37.8 100.23L38.74 63.97V56.48H50.78L50.77 56.5Z" fill="#3E2C6D"/>
<path d="M83.7601 45.81C83.4201 45.67 83.0801 45.53 82.7501 45.38C75.5601 42.19 71.2001 36.32 68.6501 31.31L63.6101 34.6C66.5801 40.25 71.5401 46.7 79.6601 50.51C80.2801 50.8 80.9301 51.08 81.5901 51.34C81.8601 51.45 82.1401 51.51 82.4201 51.54C83.7001 51.65 84.9501 50.92 85.4501 49.67C86.0501 48.14 85.3001 46.41 83.7701 45.81H83.7601Z" fill="#FADDDC"/>
<path d="M64.2 22.7C63.36 21.19 59.38 19.24 57.98 19.55C56.38 19.91 57.3 22.76 57.42 24.4C57.49 25.3 59.64 29.39 62.69 35.18L68.86 31.14C66.41 26.32 65.62 25.22 64.2 22.69V22.7Z" fill="#74E0C1"/>
<path d="M27.2699 54.76C27.3599 55.52 27.4699 56.28 27.6099 57.05C27.6699 57.37 27.7599 57.66 27.8899 57.94C28.4799 59.2 29.7799 59.93 31.0999 59.64C32.7099 59.29 33.7599 57.56 33.4399 55.79C33.3699 55.39 33.3099 54.99 33.2499 54.6C32.2899 47.73 33.4099 40.98 35.4999 36.03L30.8199 32.88C28.2199 38.7 26.2599 46.22 27.2699 54.76Z" fill="#FADDDC"/>
<path d="M66.9 56.71H36.21L38.1 27.01C38.1 22.85 37.75 19.47 45.64 19.47H57.48C61.64 19.47 65.02 22.85 65.02 27.01L66.89 56.71H66.9Z" fill="#74E0C1"/>
<path d="M43.42 21.33C42.3 20.13 40.43 20.06 39.22 21.17C38.87 21.49 33.47 25.32 30.02 32.34L36.14 36.39C39.16 29.89 43.2 25.6 43.27 25.53C44.47 24.41 44.54 22.53 43.42 21.33Z" fill="#74E0C1"/>
<path d="M47.74 19.5H54.94V19.65C54.94 21.64 53.33 23.25 51.34 23.25C49.35 23.25 47.74 21.64 47.74 19.65V19.5Z" fill="#65CEAE"/>
<path d="M54.0499 37H50.3999V36.01H52.6299L50.6699 30.73L51.5999 30.38L54.0499 37Z" fill="white"/>
<path d="M45.8899 34.19L44.8999 34.17C44.9199 33.16 45.4099 31.24 47.1399 31.2C47.1599 31.2 47.1899 31.2 47.2099 31.2C48.9599 31.2 49.6199 32.76 49.7199 33.59L48.7399 33.71C48.7199 33.55 48.4799 32.13 47.1699 32.19C45.9599 32.22 45.8999 34.17 45.8999 34.19H45.8899Z" fill="white"/>
<path d="M54.69 33.34L53.7 33.32C53.72 32.31 54.21 30.39 55.94 30.35C57.7 30.31 58.42 31.9 58.52 32.74L57.54 32.86C57.52 32.7 57.3299 31.29 55.9699 31.34C54.7599 31.37 54.7 33.32 54.7 33.34H54.69Z" fill="white"/>
<path d="M52.2801 41.12C47.3201 41.12 46.8601 36.97 46.8601 36.92L47.8501 36.82C47.8601 36.95 48.2501 40.12 52.2901 40.12C55.9401 40.12 56.0701 36.36 56.0701 36.2L57.0601 36.22C57.0301 37.91 55.9901 41.11 52.2901 41.11L52.2801 41.12Z" fill="white"/>
<path d="M48.8701 6.60999H59.1101V14.61C59.1101 16.41 57.6501 17.86 55.8601 17.86H54.8301C54.3301 17.86 53.9201 18.75 53.9201 19.26V19.57C53.9201 20.95 52.8001 22.07 51.4201 22.07C50.0401 22.07 48.9201 20.95 48.9201 19.57L48.8901 6.60999H48.8701Z" fill="#FADDDC"/>
<path d="M55.8199 14.9H56.4399C56.9899 14.9 57.4399 14.45 57.4399 13.9V10.87C57.4399 10.64 57.2499 10.45 57.0199 10.45C56.7899 10.45 56.5999 10.64 56.5999 10.87V13.49C56.5999 13.8 56.3499 14.06 56.0299 14.06H55.8099C55.5799 14.06 55.3899 14.25 55.3899 14.48C55.3899 14.71 55.5799 14.9 55.8099 14.9H55.8199Z" fill="#E0B1BB"/>
<path d="M53.51 10.97C53.51 11.28 53.76 11.53 54.07 11.53C54.38 11.53 54.63 11.28 54.63 10.97C54.63 10.66 54.38 10.41 54.07 10.41C53.76 10.41 53.51 10.66 53.51 10.97Z" fill="#757570"/>
<path d="M51.9801 2.56C50.4201 3.18 47.9101 4.49 47.4201 7.61C47.1701 9.2 48.2601 13.88 48.2601 13.88C48.4101 14.38 48.7801 14.35 48.8901 14.38L48.8701 11.22V11.1C48.8701 11.04 48.8801 10.98 48.9001 10.92C48.9801 10.63 49.2401 10.41 49.5601 10.41H49.6401C50.0201 10.41 50.3201 10.72 50.3201 11.09V11.67V11.65L50.3301 12.13C50.3301 12.33 50.4901 12.49 50.6901 12.49C50.8901 12.49 51.0501 12.33 51.0501 12.13V10.57C51.0501 9.96 51.2001 9.36 51.5401 8.86C51.8301 8.42 52.3701 7.67 53.2001 7.48C54.0301 7.29 56.4801 7.44 57.5001 7.2C59.0301 6.84 59.4601 4.76 59.0801 3.29C58.7601 2.02 54.6301 1.5 51.9701 2.55L51.9801 2.56Z" fill="#3E2967"/>
<path d="M58.9499 3.85999C59.0299 3.88999 59.9399 4.21999 59.9599 5.38999C59.9899 6.56999 59.0799 9.71999 59.0799 9.71999C59.0799 9.71999 59.2199 6.67999 58.2599 6.56999C57.2999 6.45999 58.9399 3.85999 58.9399 3.85999H58.9499Z" fill="#3E2967"/>
</g>
<defs>
<clipPath id="clip0_1215_3600">
<rect width="58.65" height="105.01" fill="white" transform="translate(27 2)"/>
</clipPath>
</defs>
</svg>
