<svg width="53" height="108" viewBox="0 0 53 108" fill="none" xmlns="http://www.w3.org/2000/svg">
<g clip-path="url(#clip0_134_1344)">
<path d="M31.05 54.9599L15.03 53.9399L26.53 74.9899L21.79 95.9499L24.14 96.6899V98.7299C23.96 100.16 23.96 101.09 25.48 101.92L29.39 102.92C30.16 102.98 30.52 102.03 29.92 101.38C29.52 100.95 28.68 100.65 28.32 100.17C26.75 98.0499 27.57 97.5499 27.87 96.2099C29.66 88.1999 36.08 74.6799 36.08 74.6799L31.04 54.9499L31.05 54.9599Z" fill="#291B4C"/>
<path d="M26.6 53.02L11.03 53.39L13.83 102.11L16.15 102.86C16.16 103.45 16.15 104.44 15.9 104.98C15.54 105.78 15.19 107.04 16.39 107.46L22.48 107.91C23.24 107.76 23.38 106.4 22.68 105.93C22.22 105.62 20.95 105.07 20.47 104.79C19.49 104.2 19.53 103.13 19.72 101.75C21.1 91.78 26.59 53.01 26.59 53.01L26.6 53.02Z" fill="#3E2C6D"/>
<path d="M50.74 42.04C52.33 42.45 53.29 44.07 52.88 45.66C52.54 46.97 51.39 47.85 50.11 47.89C49.83 47.89 49.55 47.87 49.26 47.8C48.57 47.62 47.9 47.42 47.24 47.21L49.68 41.74C50.03 41.85 50.38 41.95 50.74 42.04Z" fill="#FADDDC"/>
<path d="M25.9199 19.09C27.4899 18.6 29.1499 19.47 29.6499 21.04C29.6999 21.21 34.9299 37.27 49.6999 41.74L47.2599 47.21C29.9899 41.56 24.2199 23.6 23.9799 22.81C23.4899 21.24 24.3699 19.58 25.9299 19.09H25.9199Z" fill="#FADDDC"/>
<path d="M28.88 19.91L36.38 31.27L29.53 38.64L26.22 26.41L28.88 19.91Z" fill="#65CEAE"/>
<path d="M32.42 57.19L9.03003 56.95L12.21 33.38C12.21 29.22 17.31 17.88 20.84 17.88H25.19C26.69 17.88 28.11 18.64 28.89 19.92C34.56 29.18 32.43 57.2 32.43 57.2L32.42 57.19Z" fill="#74E0C1"/>
<path d="M6.18007 54.23C6.40007 55.86 5.25007 57.35 3.62007 57.57C2.28007 57.75 1.03007 57.01 0.510068 55.83C0.400068 55.58 0.320068 55.3 0.280068 55.01C0.190068 54.3 0.120068 53.61 0.0700684 52.92L6.05007 53.14C6.08007 53.5 6.12007 53.87 6.17007 54.23H6.18007Z" fill="#FADDDC"/>
<path d="M18.1699 22.62C19.2099 23.89 19.0199 25.76 17.7599 26.8C17.6299 26.91 4.67992 37.76 6.05992 53.13L0.0799221 52.91C-1.14008 34.79 13.3599 22.72 13.9999 22.19C15.2699 21.15 17.1399 21.34 18.1799 22.61L18.1699 22.62Z" fill="#FADDDC"/>
<path d="M20.8301 17.8799C20.8301 17.8799 15.5301 17.7299 12.0001 21.5599C8.47009 25.3899 5.59009 29.2899 5.59009 29.2899C5.59009 29.2899 13.3201 35.2499 13.6201 35.2499C13.9201 35.2499 24.0001 24.4299 24.0001 24.4299C24.0001 24.4299 23.4701 18.9099 20.8301 17.8799Z" fill="#74E0C1"/>
<path d="M27.3201 35.35L24.9501 35.19L24.9101 34.11L26.3501 34.21L24.8501 28.38L25.4401 28.04L27.3201 35.35Z" fill="white"/>
<path d="M21.89 31.94L21.24 31.88C21.21 30.78 21.44 28.72 22.56 28.74C22.58 28.74 22.59 28.74 22.61 28.74C23.75 28.82 24.24 30.54 24.35 31.45L23.72 31.54C23.7 31.37 23.48 29.81 22.63 29.82C21.84 29.8 21.89 31.92 21.89 31.94Z" fill="white"/>
<path d="M27.58 31.39L26.93 31.33C26.9 30.23 27.13 28.17 28.25 28.19C29.4 28.22 29.93 29.98 30.03 30.9L29.4 30.99C29.38 30.82 29.19 29.27 28.31 29.27C27.52 29.25 27.57 31.37 27.57 31.39H27.58Z" fill="white"/>
<path d="M26.3499 39.7399C23.1299 39.5299 22.6399 34.9899 22.6399 34.9399L23.2799 34.8799C23.2999 35.0299 23.6799 38.4899 26.3099 38.6599C28.6799 38.8199 28.5999 34.7399 28.5999 34.5699L29.2499 34.6299C29.2999 36.4699 28.7699 39.8999 26.3599 39.7399H26.3499Z" fill="white"/>
<path d="M19.9299 17.92C19.9299 17.92 22.3699 20.78 24.4799 20.66C26.0599 20.57 26.3799 19.45 26.5599 18.97C26.7399 18.49 26.5899 18.09 26.5899 18.09L25.8099 17.9H20.9099L19.9399 17.92H19.9299Z" fill="#65CEAE"/>
<path d="M20.6599 3.80005H31.0499V13.1C31.0499 14.92 29.5699 16.4 27.7499 16.4H26.6999C26.1899 16.4 25.7699 16.81 25.7699 17.33V18.24C25.7699 19.4 24.5299 20.13 23.5099 19.58L20.8599 18.14L20.6499 3.80005H20.6599Z" fill="#FADDDC"/>
<path d="M30.7301 13.27L31.3301 13.1C31.8701 12.95 32.1901 12.38 32.0401 11.84L31.2101 8.87999C31.1501 8.64999 30.9101 8.51999 30.6901 8.58999C30.4701 8.65999 30.3301 8.88999 30.4001 9.10999L31.1201 11.67C31.2101 11.98 31.0301 12.3 30.7201 12.38L30.5101 12.44C30.2801 12.5 30.1501 12.74 30.2201 12.96C30.2901 13.18 30.5201 13.32 30.7401 13.25L30.7301 13.27Z" fill="#E0B1BB"/>
<path d="M29.2799 8.84003C29.2799 9.15003 29.0299 9.40003 28.7199 9.40003C28.4099 9.40003 28.1599 9.15003 28.1599 8.84003C28.1599 8.53003 28.4099 8.28003 28.7199 8.28003C29.0299 8.28003 29.2799 8.53003 29.2799 8.84003Z" fill="#757570"/>
<path d="M24.2899 0.560039C22.7299 1.18004 20.2199 2.49004 19.7299 5.61004C19.4799 7.20004 20.5699 11.88 20.5699 11.88C20.7199 12.38 21.0799 13.23 21.1899 13.27L21.3599 13.12L21.9199 10.89C22.2999 10.89 23.7199 8.73004 23.7199 9.11004V9.69004V9.67004L23.7299 10.15C23.7299 10.35 23.8899 10.51 24.0899 10.51C24.2899 10.51 24.4499 10.35 24.4499 10.15V8.59004C24.4499 7.98004 24.3399 7.23004 24.6699 6.73004C24.9599 6.29004 25.3799 5.69004 26.2199 5.49004C27.0599 5.29004 28.8099 5.45004 29.8199 5.21004C31.3499 4.85004 31.7799 2.77004 31.3999 1.30004C31.0799 0.0300393 26.9499 -0.489961 24.2899 0.560039Z" fill="#3E2967"/>
<path d="M31.26 1.85999C31.34 1.88999 32.25 2.21999 32.27 3.38999C32.29 4.55999 31.39 7.71999 31.39 7.71999C31.39 7.71999 31.53 4.67999 30.57 4.56999C29.61 4.45999 31.25 1.85999 31.25 1.85999H31.26Z" fill="#3E2967"/>
<path d="M23.7701 8.54997C23.7701 8.01977 23.3403 7.58997 22.8101 7.58997C22.2799 7.58997 21.8501 8.01977 21.8501 8.54997V10.64C21.8501 11.1702 22.2799 11.6 22.8101 11.6C23.3403 11.6 23.7701 11.1702 23.7701 10.64V8.54997Z" fill="#FADDDC"/>
</g>
<defs>
<clipPath id="clip0_134_1344">
<rect width="52.98" height="107.91" fill="white"/>
</clipPath>
</defs>
</svg>
