<svg width="110" height="110" viewBox="0 0 110 110" fill="none" xmlns="http://www.w3.org/2000/svg">
<g clip-path="url(#clip0_1215_3454)">
<path d="M51.7201 20.17C51.0501 18.98 49.5601 18.56 48.3701 19.22C47.8101 19.53 36.6601 24.78 37.5501 44.95C37.5701 45.37 37.5901 45.79 37.6201 46.22C37.7101 47.52 38.8001 48.52 40.0901 48.52C40.1501 48.52 40.2101 48.52 40.2701 48.52C41.6301 48.42 42.6601 47.24 42.5601 45.87C42.5401 45.56 42.5301 45.26 42.5101 44.96C41.6701 27.8 50.3301 23.81 50.7801 23.55C51.9601 22.88 52.3801 21.37 51.7201 20.18V20.17Z" fill="#FADDDC"/>
<path d="M51.2999 18.2C51.2999 18.2 44.6299 18.77 39.6799 28.38L45.7799 33.61C45.7799 33.61 50.0099 29.31 51.3699 25C52.7299 20.69 51.2999 18.19 51.2999 18.19V18.2Z" fill="#65CEAE"/>
<path d="M70.62 56.06L45.96 56.17L51.18 98.6C51.18 98.6 53.77 100.31 53.78 100.37C53.99 101.73 53.78 102.88 51.77 101.61C51.19 101.24 50.73 101.22 50.2 101.7C49.57 102.27 50.05 103.93 50.61 104.82L55.56 108.76C56.15 109.23 57.02 109.28 57.57 108.76C58.42 107.98 58.18 106.73 57.82 105.72C56.45 101.8 56.87 101.35 56.87 101.35L57.64 101.61C58.14 101.78 58.64 101.39 58.6 100.87C58.2 95.72 57.18 69.28 57 64.53C56.98 64.13 57.3 63.79 57.7 63.78L58.76 63.76C59.08 63.76 59.39 63.98 59.39 64.3C59.42 70.66 59.5 80.63 59.59 80.63C59.59 80.63 60.06 84.88 60.31 85.85C60.66 87.23 62.08 87.04 62.57 86.01C62.99 85.12 63.11 82.4 63.19 81.69H65.37L70.62 56.05V56.06Z" fill="#3E2C6D"/>
<path d="M59.86 14.14H55.25V17.49H59.86V14.14Z" fill="#FADDDC"/>
<path d="M62.76 10.5H62.2V7.95C62.2 7.54 62.53 7.2 62.95 7.2H63.25C63.66 7.2 64 7.53 64 7.95L63.65 9.62C63.65 10.11 63.26 10.5 62.77 10.5H62.76Z" fill="#FADDDC"/>
<path d="M51.6399 10.5H52.1999V7.95C52.1999 7.54 51.8699 7.2 51.4499 7.2H51.1499C50.7399 7.2 50.3999 7.53 50.3999 7.95L50.7499 9.62C50.7499 10.11 51.1399 10.5 51.6299 10.5H51.6399Z" fill="#FADDDC"/>
<path d="M63.56 3.05C63.36 2.19 63.02 1.47 62.3 0.960002C61.47 0.380002 60.41 -0.139998 59.44 0.0300022C58.58 0.180002 58 0.370002 57.15 0.580002C56.36 0.780002 55.55 0.950002 54.77 1.19C53.96 1.44 53.15 1.81 52.55 2.43C51.94 3.05 51.62 3.83 51.49 4.67C51.37 4.93 51.3 5.22 51.3 5.61C51.3 7.06 51.4 8.29 51.65 9.27C51.9 10.25 52.95 13.53 54.98 14.84C55.95 15.47 58.54 15.85 59.84 14.84C61.13 13.83 62.27 12.51 62.59 10.43C62.91 8.35 62.93 7.97 63.28 6.99C63.37 6.74 63.4 6.41 63.39 6.05C63.68 4.82 63.87 4.3 63.58 3.07L63.56 3.05Z" fill="#3E2967"/>
<path d="M43.8501 56.76L71.7001 56.6L71.5501 26.67C71.5501 21.53 67.3801 17.36 62.2401 17.36H53.3501C48.2101 17.36 44.0401 21.53 44.0401 26.67L43.8501 56.77V56.76Z" fill="#74E0C1"/>
<path d="M73.51 23.39C72.35 22.03 70.32 21.86 68.95 23.01C67.58 24.16 67.41 26.2 68.56 27.57C68.68 27.71 80.39 41.89 75.88 58.08C75.77 58.46 75.66 58.84 75.54 59.23C74.99 60.93 75.92 62.76 77.62 63.31C79.02 63.76 80.5 63.22 81.29 62.06C81.46 61.81 81.6 61.53 81.7 61.23C81.94 60.49 82.15 59.76 82.33 59.03C87.22 39.87 74.09 24.08 73.5 23.39H73.51Z" fill="#FADDDC"/>
<path d="M64.48 17.67C64.48 17.67 74.48 18.64 80.08 30.61L70.96 37.42L68.13 31.5C66.01 28.78 64.79 25.46 64.65 22.02L64.48 17.67Z" fill="#74E0C1"/>
</g>
<defs>
<clipPath id="clip0_1215_3454">
<rect width="45.93" height="109.13" fill="white" transform="translate(37.5)"/>
</clipPath>
</defs>
</svg>
