<svg width="110" height="110" viewBox="0 0 110 110" fill="none" xmlns="http://www.w3.org/2000/svg">
<g clip-path="url(#clip0_1215_3476)">
<path d="M70.6001 56.24H43.8701L48.9001 102.7L52.2301 102.23C52.3201 103.1 52.0801 104.41 51.1301 105.18C50.6001 105.61 50.0401 106 49.5101 106.43C48.8901 106.94 49.2101 108.07 49.9801 108.07L54.9701 107.05C57.2101 106.58 56.9001 105 56.4601 103.78C56.1701 102.97 55.7001 101.57 55.7001 101.57L56.7501 101.27L56.4701 63.84H58.0001C58.0001 63.84 60.8301 84.35 61.0801 85.22C61.4301 86.47 62.8401 86.29 63.3301 85.36C63.7501 84.56 64.1701 81.29 64.2501 80.65L65.9501 80.3C67.5201 79.98 68.7001 78.66 68.8301 77.06L70.6101 56.24H70.6001Z" fill="#3E2C6D"/>
<path d="M90.9701 43.25C90.6101 43.16 90.2601 43.06 89.9101 42.95C82.3801 40.66 77.3501 35.36 74.2101 30.69L69.6001 34.57C73.2301 39.82 78.9401 45.61 87.4601 48.42C88.1201 48.64 88.7901 48.84 89.4801 49.01C89.7601 49.08 90.0501 49.11 90.3301 49.1C91.6101 49.06 92.7701 48.18 93.1101 46.87C93.5201 45.28 92.5701 43.66 90.9801 43.25H90.9701Z" fill="#FADDDC"/>
<path d="M68.7601 22.68C67.7401 21.28 63.5601 19.83 62.2001 20.31C60.6501 20.86 61.9101 23.58 62.2301 25.19C62.4101 26.08 65.0401 29.87 68.7701 35.26L74.4101 30.5C71.3901 26.01 70.4701 25.02 68.7601 22.68Z" fill="#74E0C1"/>
<path d="M72.3699 56.71H41.6799L43.5699 27.01C43.5699 22.85 43.2199 19.47 51.1099 19.47H62.9499C67.1099 19.47 70.4899 22.85 70.4899 27.01L72.3599 56.71H72.3699Z" fill="#74E0C1"/>
<path d="M38.98 57.11C39.22 57.83 39.48 58.56 39.77 59.29C39.89 59.59 40.04 59.86 40.22 60.1C41.05 61.21 42.46 61.67 43.7 61.13C45.21 60.47 45.89 58.57 45.23 56.89C45.08 56.51 44.94 56.13 44.81 55.76C42.51 49.22 42.26 42.38 43.32 37.11L38.1 34.95C36.7 41.19 36.28 48.94 38.97 57.12L38.98 57.11Z" fill="#FADDDC"/>
<path d="M48.15 21.13C46.82 20.18 44.96 20.48 44.01 21.81C43.74 22.19 39.2 27.02 37.21 34.58L44.02 37.34C45.69 30.37 48.79 25.36 48.85 25.27C49.8 23.93 49.49 22.08 48.16 21.12L48.15 21.13Z" fill="#74E0C1"/>
<path d="M53.21 19.5H60.41V19.65C60.41 21.64 58.8 23.25 56.81 23.25C54.82 23.25 53.21 21.64 53.21 19.65V19.5Z" fill="#65CEAE"/>
<path d="M59.5201 37H55.8701V36.01H58.0901L56.1401 30.73L57.0701 30.38L59.5201 37Z" fill="white"/>
<path d="M51.3501 34.19L50.3601 34.17C50.3801 33.16 50.8701 31.24 52.6001 31.2C52.6201 31.2 52.6501 31.2 52.6701 31.2C54.4201 31.2 55.0801 32.76 55.1801 33.59L54.2001 33.71C54.1801 33.55 53.9401 32.13 52.6301 32.19C51.4201 32.22 51.3601 34.17 51.3601 34.19H51.3501Z" fill="white"/>
<path d="M60.1599 33.34L59.1699 33.32C59.1899 32.31 59.6799 30.39 61.4099 30.35C63.1699 30.31 63.8899 31.9 63.9899 32.74L63.0099 32.86C62.9899 32.7 62.7999 31.29 61.4399 31.34C60.2299 31.37 60.1699 33.32 60.1699 33.34H60.1599Z" fill="white"/>
<path d="M57.7501 41.12C52.7901 41.12 52.3301 36.97 52.3301 36.92L53.3201 36.82C53.3301 36.95 53.7201 40.12 57.7601 40.12C61.4101 40.12 61.5401 36.36 61.5401 36.2L62.5301 36.22C62.5001 37.91 61.4601 41.11 57.7601 41.11L57.7501 41.12Z" fill="white"/>
<path d="M54.3401 6.61H64.5801V14.61C64.5801 16.41 63.1201 17.86 61.3301 17.86H60.3001C59.8001 17.86 59.3901 18.75 59.3901 19.26V19.57C59.3901 20.95 58.2701 22.07 56.8901 22.07C55.5101 22.07 54.3901 20.95 54.3901 19.57L54.3601 6.61H54.3401Z" fill="#FADDDC"/>
<path d="M61.2901 14.9H61.9101C62.4601 14.9 62.9101 14.45 62.9101 13.9V10.87C62.9101 10.64 62.7201 10.45 62.4901 10.45C62.2601 10.45 62.0701 10.64 62.0701 10.87V13.49C62.0701 13.8 61.8201 14.06 61.5001 14.06H61.2801C61.0501 14.06 60.8601 14.25 60.8601 14.48C60.8601 14.71 61.0501 14.9 61.2801 14.9H61.2901Z" fill="#E0B1BB"/>
<path d="M58.98 10.97C58.98 11.28 59.23 11.53 59.54 11.53C59.85 11.53 60.1 11.28 60.1 10.97C60.1 10.66 59.85 10.41 59.54 10.41C59.23 10.41 58.98 10.66 58.98 10.97Z" fill="#757570"/>
<path d="M57.45 2.56C55.89 3.18 53.38 4.49 52.89 7.61C52.64 9.2 53.73 13.88 53.73 13.88C53.88 14.38 54.25 14.35 54.36 14.38L54.34 11.22V11.1C54.34 11.04 54.35 10.98 54.37 10.92C54.45 10.63 54.71 10.41 55.03 10.41H55.11C55.49 10.41 55.79 10.72 55.79 11.09V11.67V11.65L55.8 12.13C55.8 12.33 55.96 12.49 56.16 12.49C56.36 12.49 56.52 12.33 56.52 12.13V10.57C56.52 9.96 56.67 9.36 57.01 8.86C57.3 8.42 57.84 7.67 58.67 7.48C59.5 7.29 61.95 7.44 62.97 7.2C64.5 6.84 64.93 4.76 64.55 3.29C64.23 2.02 60.1 1.5 57.44 2.55L57.45 2.56Z" fill="#3E2967"/>
<path d="M64.4199 3.86C64.4999 3.89 65.4099 4.22 65.4299 5.39C65.4599 6.57 64.5499 9.72 64.5499 9.72C64.5499 9.72 64.6899 6.68 63.7299 6.57C62.7699 6.46 64.4099 3.86 64.4099 3.86H64.4199Z" fill="#3E2967"/>
</g>
<defs>
<clipPath id="clip0_1215_3476">
<rect width="56.2" height="106.07" fill="white" transform="translate(37 2)"/>
</clipPath>
</defs>
</svg>
