<svg width="45" height="107" viewBox="0 0 45 107" fill="none" xmlns="http://www.w3.org/2000/svg">
<g clip-path="url(#clip0_134_1769)">
<path d="M19.5299 18.33H24.1399V14.98H19.5299V18.33Z" fill="#FADDDC"/>
<path d="M16.6299 11.34H17.1899V8.79004C17.1899 8.38004 16.8599 8.04004 16.4399 8.04004H16.1399C15.7299 8.04004 15.3899 8.37004 15.3899 8.79004L15.7399 10.46C15.7399 10.95 16.1299 11.34 16.6199 11.34H16.6299Z" fill="#FADDDC"/>
<path d="M27.7499 11.34H27.1899V8.79004C27.1899 8.38004 27.5199 8.04004 27.9399 8.04004H28.2399C28.6499 8.04004 28.9899 8.37004 28.9899 8.79004L28.6399 10.46C28.6399 10.95 28.2499 11.34 27.7599 11.34H27.7499Z" fill="#FADDDC"/>
<path d="M20.8301 1.28995C22.2101 1.01995 24.3301 0.719952 25.8501 2.32995C27.3701 3.93995 28.1101 4.98995 28.1101 6.43995C28.1101 7.88995 28.0101 9.11995 27.7601 10.1C27.5101 11.08 26.4601 14.36 24.4301 15.67C23.4601 16.3 20.8701 16.68 19.5701 15.67C18.2701 14.66 17.1401 13.34 16.8201 11.26C16.5001 9.17995 16.4801 8.79995 16.1301 7.81995C15.7801 6.83995 16.3501 4.69995 16.4801 4.15995C16.6101 3.61995 18.2101 1.78995 20.8301 1.28995Z" fill="#3E2967"/>
<path d="M37.81 53.48C37.49 55.13 38.56 56.73 40.2 57.05C41.55 57.32 42.87 56.64 43.48 55.48C43.61 55.23 43.71 54.95 43.77 54.66C43.91 53.95 44.02 53.24 44.12 52.54L38 52.38C37.94 52.75 37.88 53.12 37.81 53.49V53.48Z" fill="#FADDDC"/>
<path d="M27.62 20.47C26.48 21.7 26.55 23.62 27.77 24.76C27.9 24.88 40.4 36.78 38.01 52.37L44.13 52.53C46.54 34.13 32.54 20.88 31.92 20.31C30.69 19.17 28.77 19.24 27.63 20.47H27.62Z" fill="#FADDDC"/>
<path d="M5.81006 49.9999C5.92006 51.5699 4.74006 52.9299 3.18006 53.0399C3.11006 53.0399 3.04006 53.0399 2.97006 53.0399C1.49006 53.0399 0.240059 51.8999 0.140059 50.3999C0.100059 49.9099 0.0800586 49.4199 0.0600586 48.9399H5.76006C5.78006 49.2899 5.79006 49.6299 5.81006 49.9899V49.9999Z" fill="#FADDDC"/>
<path d="M12.4899 19.38C13.8599 18.62 15.5699 19.11 16.3399 20.47C17.1099 21.83 16.6199 23.56 15.2599 24.34C14.7399 24.64 4.77988 29.23 5.74988 48.94H0.0598827C-0.970117 25.77 11.8399 19.74 12.4899 19.38Z" fill="#FADDDC"/>
<path d="M7.81005 52.4901H35.32L35.3101 27.4901C35.3101 22.3501 31.14 18.1801 26 18.1801H17.11C11.97 18.1801 7.80005 22.3501 7.80005 27.4901L7.82005 52.4901H7.81005Z" fill="#74E0C1"/>
<path d="M7.81006 52.49H20.3801H35.3201C35.3201 52.49 27.0701 99.55 28.4401 98.98C29.0901 98.71 29.5001 98.58 30.0401 99.07C30.6801 99.65 30.1901 101.35 29.6201 102.26L23.7901 106.9C21.4901 106.37 21.8001 104.57 22.2501 103.19C22.5501 102.28 22.7301 101.32 22.7701 100.35C22.9601 94.25 23.9101 67.01 24.0701 62.48C24.1101 61.44 23.2301 60.32 22.3601 60.32H20.7801C19.9101 60.32 19.1601 61.07 19.0101 62.09C18.3201 66.74 19.2301 70.24 19.4801 84.35C19.4801 84.35 19.3301 88.53 19.0801 89.53C18.7201 90.95 17.2701 90.74 16.7701 89.69C16.3401 88.78 15.9001 85.07 15.8201 84.35H14.3801L7.81006 52.5V52.49Z" fill="#3E2C6D"/>
<path d="M21.1801 7.06C23.5935 7.06 25.5501 5.47957 25.5501 3.53C25.5501 1.58043 23.5935 0 21.1801 0C18.7666 0 16.8101 1.58043 16.8101 3.53C16.8101 5.47957 18.7666 7.06 21.1801 7.06Z" fill="#3E2967"/>
<path d="M28.71 18.46C28.71 18.46 36.66 19.44 42.65 32.6L33.52 37.41L28.71 18.46Z" fill="#74E0C1"/>
<path d="M14.3799 18.85C14.3799 18.85 6.42994 19.83 0.439941 32.99L9.56994 37.8L14.3799 18.85Z" fill="#74E0C1"/>
</g>
<defs>
<clipPath id="clip0_134_1769">
<rect width="44.4" height="106.9" fill="white"/>
</clipPath>
</defs>
</svg>
