<svg width="110" height="110" viewBox="0 0 110 110" fill="none" xmlns="http://www.w3.org/2000/svg">
<g clip-path="url(#clip0_1216_1318)">
<path d="M62.4101 56.41L46.0801 56.52L63.6401 80.92L71.0201 104.46L73.8001 104.05L74.7001 105.91C75.6301 108 75.7501 108.9 77.2901 108.08L81.1201 106.5C81.8201 106.13 81.7101 105.07 80.8901 104.81C80.3501 104.64 79.5201 104.61 78.9601 104.58C76.8801 104.48 77.1601 102.95 76.8301 101.56C74.8301 93.27 73.9301 86.61 71.6601 78.23C70.3701 73.43 62.3901 56.41 62.3901 56.41H62.4101Z" fill="#291B4C"/>
<path d="M59.8499 56.62L42.3199 56.67L40.3499 78.43L27.8299 97.07L30.1599 99.03C29.8799 99.56 29.3899 100.42 28.9199 100.75C28.2299 101.24 27.3299 102.14 28.1399 103.23L33.0999 107.28C33.8199 107.6 34.5899 106.49 34.2299 105.65C33.9899 105.09 33.1699 103.86 32.8999 103.32C32.3499 102.22 33.0099 101.38 33.7299 100.19C38.0599 93.04 48.1699 82.1 48.1699 82.1L59.8499 56.61V56.62Z" fill="#3E2C6D"/>
<path d="M30.3101 49.14C29.8201 50.71 28.1501 51.58 26.5801 51.09C25.3001 50.69 24.4801 49.49 24.5001 48.21C24.5001 47.93 24.5501 47.65 24.6401 47.37C24.8501 46.69 25.0901 46.03 25.3301 45.39L30.6701 48.11C30.5501 48.45 30.4301 48.8 30.3201 49.15L30.3101 49.14Z" fill="#FADDDC"/>
<path d="M54.5101 25.53C54.9201 27.12 53.9601 28.74 52.3701 29.15C52.2001 29.19 35.8901 33.58 30.6601 48.1L25.3201 45.38C31.8501 28.43 50.0901 23.59 50.8901 23.39C52.4801 22.98 54.0901 23.94 54.5001 25.53H54.5101Z" fill="#FADDDC"/>
<path d="M53.9099 28.47L42.1799 35.37L36.6399 29.15C42.5899 24.62 47.6599 22.47 52.1999 21.78L53.9099 28.48V28.47Z" fill="#65CEAE"/>
<path d="M64.6001 57.2L40.0601 57.12L42.5101 34.56C42.5101 30.4 47.6101 19.06 51.1401 19.06H55.4901C56.9901 19.06 58.4101 19.82 59.1901 21.1C64.8601 30.36 64.6101 57.2 64.6101 57.2H64.6001Z" fill="#74E0C1"/>
<path d="M57.6199 36.9L55.2499 36.74L55.2099 35.66L56.6499 35.76L55.1499 29.93L55.7399 29.6L57.6199 36.9Z" fill="white"/>
<path d="M52.1901 33.49L51.5401 33.43C51.5101 32.33 51.7401 30.27 52.8601 30.29C52.8801 30.29 52.8901 30.29 52.9101 30.29C54.0501 30.37 54.5401 32.09 54.6501 33L54.0201 33.09C54.0001 32.92 53.7801 31.36 52.9301 31.37C52.1401 31.35 52.1901 33.47 52.1901 33.49Z" fill="white"/>
<path d="M57.88 32.94L57.23 32.88C57.2 31.78 57.43 29.72 58.55 29.74C59.7 29.77 60.23 31.53 60.33 32.45L59.7 32.54C59.68 32.37 59.49 30.82 58.61 30.82C57.82 30.8 57.87 32.92 57.87 32.94H57.88Z" fill="white"/>
<path d="M56.6499 41.3C53.4299 41.09 52.9399 36.55 52.9399 36.5L53.5799 36.44C53.5999 36.59 53.9799 40.05 56.6099 40.22C58.9799 40.38 58.8999 36.3 58.8999 36.13L59.5499 36.19C59.5999 38.03 59.0699 41.46 56.6599 41.3H56.6499Z" fill="white"/>
<path d="M46.8401 26.56C46.8401 26.56 47.4301 31.18 50.4701 35.41C53.6401 39.81 57.6801 43.38 58.0101 42.95L60.1001 41.08L64.0001 43.39C64.0001 43.39 63.1101 35.37 63.4001 34.49C63.4901 34.21 53.4101 23.42 53.4101 23.42C53.4101 23.42 47.8901 23.92 46.8401 26.56Z" fill="#65CEAE"/>
<path d="M83.7099 40.53C85.3399 40.32 86.8299 41.48 87.0399 43.11C87.2099 44.45 86.4599 45.69 85.2899 46.21C85.0299 46.32 84.7599 46.4 84.4699 46.44C83.7599 46.53 83.0699 46.59 82.3799 46.64L82.6299 40.66C82.9899 40.63 83.3599 40.59 83.7199 40.55L83.7099 40.53Z" fill="#FADDDC"/>
<path d="M52.1599 28.37C53.4299 27.34 55.3099 27.53 56.3399 28.8C56.4499 28.93 67.2399 41.93 82.6099 40.64L82.3599 46.62C64.2299 47.75 52.2299 33.18 51.7099 32.54C50.6799 31.26 50.8799 29.4 52.1499 28.36L52.1599 28.37Z" fill="#FADDDC"/>
<path d="M47.0599 25.68C47.0599 25.68 46.8799 30.97 50.6899 34.53C54.4999 38.08 58.3899 40.98 58.3899 40.98C58.3899 40.98 64.3899 33.28 64.3999 32.99C64.4099 32.7 53.6299 22.55 53.6299 22.55C53.6299 22.55 48.1099 23.05 47.0599 25.69V25.68Z" fill="#74E0C1"/>
<path d="M50.23 19.11C50.23 19.11 51.72 22.07 54.78 21.85C56.36 21.74 56.68 20.64 56.86 20.16C57.04 19.68 56.89 19.28 56.89 19.28L56.11 19.09H51.21L50.24 19.11H50.23Z" fill="#65CEAE"/>
<path d="M50.96 5.25H61.35V14.55C61.35 16.37 59.87 17.85 58.05 17.85H57C56.49 17.85 56.07 18.26 56.07 18.78V19.69C56.03 20.44 55.1 21.36 54.16 21.12C53.22 20.88 51.59 20.12 51.17 19.28L50.96 5.25Z" fill="#FADDDC"/>
<path d="M61.0399 14.71L61.6399 14.54C62.1799 14.39 62.4999 13.82 62.3499 13.28L61.5199 10.32C61.4599 10.09 61.2199 9.96 60.9999 10.03C60.7799 10.1 60.6399 10.33 60.7099 10.55L61.4299 13.11C61.5199 13.42 61.3399 13.74 61.0299 13.82L60.8199 13.88C60.5899 13.94 60.4599 14.18 60.5299 14.4C60.5999 14.62 60.8299 14.76 61.0499 14.69L61.0399 14.71Z" fill="#E0B1BB"/>
<path d="M59.58 10.29C59.58 10.6 59.33 10.85 59.02 10.85C58.71 10.85 58.46 10.6 58.46 10.29C58.46 9.98 58.71 9.73 59.02 9.73C59.33 9.73 59.58 9.98 59.58 10.29Z" fill="#757570"/>
<path d="M54.5899 2.55999C53.0299 3.17999 50.5199 4.48999 50.0299 7.60999C49.7799 9.19999 50.8699 13.88 50.8699 13.88C51.0199 14.38 51.3799 15.23 51.4899 15.27L51.6599 15.12L52.2199 12.89C52.5999 12.89 54.0199 10.73 54.0199 11.11V11.69V11.67L54.0299 12.15C54.0299 12.35 54.1899 12.51 54.3899 12.51C54.5899 12.51 54.7499 12.35 54.7499 12.15V10.59C54.7499 9.97999 54.6399 9.22999 54.9699 8.72999C55.2599 8.28999 55.6799 7.68999 56.5199 7.48999C57.3599 7.28999 59.1099 7.44999 60.1199 7.20999C61.6499 6.84999 62.0799 4.76999 61.6999 3.29999C61.3799 2.02999 57.2499 1.50999 54.5899 2.55999Z" fill="#3E2967"/>
<path d="M61.1899 3.14C61.2699 3.17 62.1799 3.5 62.1999 4.67C62.2299 5.85 61.3199 9 61.3199 9C61.3199 9 61.4599 5.96 60.4999 5.85C59.5399 5.74 61.1799 3.14 61.1799 3.14H61.1899Z" fill="#3E2967"/>
<path d="M54.0699 10.55C54.0699 10.0198 53.6401 9.59 53.1099 9.59C52.5797 9.59 52.1499 10.0198 52.1499 10.55V12.64C52.1499 13.1702 52.5797 13.6 53.1099 13.6C53.6401 13.6 54.0699 13.1702 54.0699 12.64V10.55Z" fill="#FADDDC"/>
</g>
<defs>
<clipPath id="clip0_1216_1318">
<rect width="62.56" height="106.38" fill="white" transform="translate(24.5 2)"/>
</clipPath>
</defs>
</svg>
