<svg width="110" height="110" viewBox="0 0 110 110" fill="none" xmlns="http://www.w3.org/2000/svg">
<g clip-path="url(#clip0_1216_1224)">
<path d="M62.3301 55.75L46.3101 54.73L57.8101 75.78L53.0701 96.74L55.4201 97.48V99.52C55.2401 100.95 55.2401 101.88 56.7601 102.71L60.6701 103.71C61.4401 103.77 61.8001 102.82 61.2001 102.17C60.8001 101.74 59.9601 101.44 59.6001 100.96C58.0301 98.84 58.8501 98.34 59.1501 97C60.9401 88.99 67.3601 75.47 67.3601 75.47L62.3201 55.74L62.3301 55.75Z" fill="#291B4C"/>
<path d="M57.8801 53.81L42.3101 54.18L45.1101 102.9L47.4301 103.65C47.4401 104.24 47.4301 105.23 47.1801 105.77C46.8201 106.57 46.4701 107.83 47.6701 108.25L53.7601 108.7C54.5201 108.55 54.6601 107.19 53.9601 106.72C53.5001 106.41 52.2301 105.86 51.7501 105.58C50.7701 104.99 50.8101 103.92 51.0001 102.54C52.3801 92.57 57.8701 53.8 57.8701 53.8L57.8801 53.81Z" fill="#3E2C6D"/>
<path d="M41.7101 53.12C41.9401 54.75 40.8101 56.25 39.1801 56.48C37.8401 56.67 36.5901 55.94 36.0601 54.77C35.9401 54.52 35.8601 54.24 35.8201 53.95C35.7201 53.24 35.6501 52.55 35.5901 51.86L41.5801 52.02C41.6201 52.38 41.6601 52.74 41.7101 53.11V53.12Z" fill="#FADDDC"/>
<path d="M53.41 21.4C54.46 22.66 54.29 24.53 53.04 25.59C52.91 25.7 40.07 36.68 41.59 52.03L35.6 51.87C34.21 33.76 48.59 21.55 49.23 21.02C50.49 19.97 52.36 20.14 53.41 21.4Z" fill="#FADDDC"/>
<path d="M54.1301 24.31L46.5001 35.58L38.8201 32.34C42.2401 25.7 45.9001 21.57 49.7001 18.99L54.1301 24.3V24.31Z" fill="#65CEAE"/>
<path d="M64.58 57.2L40.04 57.12L42.49 34.56C42.49 30.4 47.59 19.06 51.12 19.06H55.47C56.97 19.06 58.39 19.82 59.17 21.1C64.84 30.36 64.59 57.2 64.59 57.2H64.58Z" fill="#74E0C1"/>
<path d="M56.3099 58.07C57.3399 59.35 57.1399 61.22 55.8599 62.25C54.8099 63.1 53.3599 63.11 52.2999 62.38C52.0699 62.22 51.8599 62.03 51.6799 61.8C51.2299 61.25 50.8099 60.69 50.4199 60.12L55.6499 57.19C55.8699 57.48 56.0899 57.77 56.3199 58.06L56.3099 58.07Z" fill="#FADDDC"/>
<path d="M50.11 24.83C51.66 25.37 52.47 27.07 51.94 28.62C51.88 28.78 46.48 44.79 55.65 57.2L50.42 60.13C39.95 45.29 46.05 27.43 46.33 26.65C46.88 25.1 48.57 24.29 50.12 24.83H50.11Z" fill="#FADDDC"/>
<path d="M57.6099 36.9L55.2299 36.74L55.1899 35.66L56.6399 35.76L55.1399 29.93L55.7299 29.6L57.6099 36.9Z" fill="white"/>
<path d="M52.1801 33.49L51.5301 33.43C51.5001 32.33 51.7301 30.27 52.8501 30.29C52.8701 30.29 52.8801 30.29 52.9001 30.29C54.0401 30.37 54.5301 32.09 54.6401 33L54.0101 33.09C53.9901 32.92 53.7701 31.36 52.9201 31.37C52.1301 31.35 52.1801 33.47 52.1801 33.49Z" fill="white"/>
<path d="M57.86 32.94L57.21 32.88C57.18 31.78 57.41 29.72 58.53 29.74C59.68 29.77 60.21 31.53 60.31 32.45L59.68 32.54C59.66 32.37 59.47 30.82 58.59 30.82C57.8 30.8 57.85 32.92 57.85 32.94H57.86Z" fill="white"/>
<path d="M56.6299 41.3C53.4099 41.09 52.9199 36.55 52.9199 36.5L53.5599 36.44C53.5799 36.59 53.9599 40.05 56.5899 40.22C58.9599 40.38 58.8799 36.3 58.8799 36.13L59.5299 36.19C59.5799 38.03 59.0499 41.46 56.6399 41.3H56.6299Z" fill="white"/>
<path d="M49.7199 19.08C49.7199 19.08 45.1199 21.71 44.0899 26.82C43.0599 31.93 42.6399 36.75 42.6399 36.75C42.6399 36.75 52.3399 37.82 52.5999 37.67C52.8599 37.52 55.8299 23.03 55.8299 23.03C55.8299 23.03 52.5099 18.59 49.7099 19.09L49.7199 19.08Z" fill="#74E0C1"/>
<path d="M50.21 19.11C50.21 19.11 51.7 22.07 54.76 21.85C56.34 21.74 56.66 20.64 56.84 20.16C57.02 19.68 56.87 19.28 56.87 19.28L56.09 19.09H51.19L50.22 19.11H50.21Z" fill="#65CEAE"/>
<path d="M50.9399 5.25H61.3299V14.55C61.3299 16.37 59.8499 17.85 58.0299 17.85H56.9799C56.4699 17.85 56.0499 18.26 56.0499 18.78V19.69C56.0099 20.44 55.0799 21.36 54.1399 21.12C53.1999 20.88 51.5699 20.12 51.1499 19.28L50.9399 5.25Z" fill="#FADDDC"/>
<path d="M61.0199 14.71L61.6199 14.54C62.1599 14.39 62.4799 13.82 62.3299 13.28L61.4999 10.32C61.4399 10.09 61.1999 9.96 60.9799 10.03C60.7599 10.1 60.6199 10.33 60.6899 10.55L61.4099 13.11C61.4999 13.42 61.3199 13.74 61.0099 13.82L60.7999 13.88C60.5699 13.94 60.4399 14.18 60.5099 14.4C60.5799 14.62 60.8099 14.76 61.0299 14.69L61.0199 14.71Z" fill="#E0B1BB"/>
<path d="M59.5599 10.29C59.5599 10.6 59.3099 10.85 58.9999 10.85C58.6899 10.85 58.4399 10.6 58.4399 10.29C58.4399 9.98 58.6899 9.73 58.9999 9.73C59.3099 9.73 59.5599 9.98 59.5599 10.29Z" fill="#757570"/>
<path d="M54.5699 2.55999C53.0099 3.17999 50.4999 4.48999 50.0099 7.60999C49.7599 9.19999 50.8499 13.88 50.8499 13.88C50.9999 14.38 51.3599 15.23 51.4699 15.27L51.6399 15.12L52.1999 12.89C52.5799 12.89 53.9999 10.73 53.9999 11.11V11.69V11.67L54.0099 12.15C54.0099 12.35 54.1699 12.51 54.3699 12.51C54.5699 12.51 54.7299 12.35 54.7299 12.15V10.59C54.7299 9.97999 54.6199 9.22999 54.9499 8.72999C55.2399 8.28999 55.6599 7.68999 56.4999 7.48999C57.3399 7.28999 59.0899 7.44999 60.0999 7.20999C61.6299 6.84999 62.0599 4.76999 61.6799 3.29999C61.3599 2.02999 57.2299 1.50999 54.5699 2.55999Z" fill="#3E2967"/>
<path d="M61.1699 3.14C61.2499 3.17 62.1599 3.5 62.1799 4.67C62.2099 5.85 61.2999 9 61.2999 9C61.2999 9 61.4399 5.96 60.4799 5.85C59.5199 5.74 61.1599 3.14 61.1599 3.14H61.1699Z" fill="#3E2967"/>
<path d="M54.0599 10.55C54.0599 10.0198 53.6301 9.59 53.0999 9.59C52.5697 9.59 52.1399 10.0198 52.1399 10.55V12.64C52.1399 13.1702 52.5697 13.6 53.0999 13.6C53.6301 13.6 54.0599 13.1702 54.0599 12.64V10.55Z" fill="#FADDDC"/>
</g>
<defs>
<clipPath id="clip0_1216_1224">
<rect width="31.87" height="106.71" fill="white" transform="translate(35.5 2)"/>
</clipPath>
</defs>
</svg>
