
    <svg
        width="59"
        height="104"
        viewBox="0 0 59 104"
        fill="none"
        xmlns="http://www.w3.org/2000/svg"
    >
        <g clip-path="url(#clip0_9_851)">
            <path
                d="M56.7601 43.8101C56.4201 43.6701 56.0801 43.5301 55.7501 43.3801C48.5601 40.1901 44.2001 34.3201 41.6501 29.3101L36.6101 32.6001C39.5801 38.2501 44.5401 44.7001 52.6601 48.5101C53.2801 48.8001 53.9301 49.0801 54.5901 49.3401C54.8601 49.4501 55.1401 49.5101 55.4201 49.5401C56.7001 49.6501 57.9501 48.9201 58.4501 47.6701C59.0501 46.1401 58.3001 44.4101 56.7701 43.8101H56.7601Z"
                fill="#FADDDC"
            />
            <path
                d="M37.2 20.6999C36.36 19.1899 32.38 17.2399 30.98 17.5499C29.38 17.9099 30.3 20.7599 30.42 22.3999C30.49 23.2999 32.64 27.3899 35.69 33.1799L41.86 29.1399C39.41 24.3199 38.62 23.2199 37.2 20.6899V20.6999Z"
                fill="#74E0C1"
            />
            <path
                d="M23.4001 51.02H38.0201V96.92V96.94V96.97V98.33C38.0201 99.01 38.2901 99.65 38.7601 100.01C39.3201 100.44 39.8601 100.9 40.3901 101.38C41.0201 101.94 40.6901 103.17 39.9101 103.17H35.9501C35.2301 103.17 34.6101 102.57 34.4401 101.71L32.6401 92.73C31.4301 86.44 30.2801 80.1 29.2001 73.69C28.4401 69.2 27.7301 64.71 27.0601 60.24C26.9101 59.26 26.1801 58.54 25.3301 58.54H23.7901C22.9401 58.54 22.2101 59.26 22.0601 60.24C21.3801 64.71 20.6701 69.2 19.9201 73.69C18.6001 81.54 17.1801 89.3 15.6601 96.97C15.4101 98.25 15.8501 99.58 16.7401 100.3C17.1701 100.65 17.6001 101.01 18.0201 101.39C18.6501 101.96 18.3201 103.19 17.5501 103.19H14.2101C12.5001 103.19 11.1101 101.47 11.1101 99.35V51.01H23.4101L23.4001 51.02Z"
                fill="#3E2967"
            />
            <path
                d="M0.269894 52.7599C0.359894 53.5199 0.469894 54.2799 0.609894 55.0499C0.669894 55.3699 0.759894 55.6599 0.889894 55.9399C1.47989 57.1999 2.77989 57.9299 4.09989 57.6399C5.70989 57.2899 6.75989 55.5599 6.43989 53.7899C6.36989 53.3899 6.30989 52.9899 6.24989 52.5999C5.28989 45.7299 6.40989 38.9799 8.49989 34.0299L3.81989 30.8799C1.21989 36.6999 -0.740106 44.2199 0.269894 52.7599Z"
                fill="#FADDDC"
            />
            <path
                d="M39.9 54.71H9.20996L11.1 25.01C11.1 20.85 10.75 17.47 18.64 17.47H30.48C34.64 17.47 38.02 20.85 38.02 25.01L39.89 54.71H39.9Z"
                fill="#74E0C1"
            />
            <path
                d="M16.42 19.33C15.3 18.13 13.43 18.06 12.22 19.17C11.87 19.49 6.47002 23.32 3.02002 30.34L9.14002 34.39C12.16 27.89 16.2 23.6 16.27 23.53C17.47 22.41 17.54 20.53 16.42 19.33Z"
                fill="#74E0C1"
            />
            <path
                d="M20.74 17.5H27.94V17.65C27.94 19.64 26.33 21.25 24.34 21.25C22.35 21.25 20.74 19.64 20.74 17.65V17.5Z"
                fill="#65CEAE"
            />
            <path
                d="M27.0499 34.9999H23.3999V34.0099H25.6299L23.6699 28.7299L24.5999 28.3799L27.0499 34.9999Z"
                fill="white"
            />
            <path
                d="M18.8899 32.1899L17.8999 32.1699C17.9199 31.1599 18.4099 29.24 20.1399 29.2C20.1599 29.2 20.1899 29.2 20.2099 29.2C21.9599 29.2 22.6199 30.76 22.7199 31.59L21.7399 31.7099C21.7199 31.5499 21.4799 30.13 20.1699 30.19C18.9599 30.22 18.8999 32.1699 18.8999 32.1899H18.8899Z"
                fill="white"
            />
            <path
                d="M27.69 31.3401L26.7 31.3201C26.72 30.3101 27.21 28.3901 28.94 28.3501C30.7 28.3101 31.42 29.9001 31.52 30.7401L30.54 30.8601C30.52 30.7001 30.3299 29.2901 28.9699 29.3401C27.7599 29.3701 27.7 31.3201 27.7 31.3401H27.69Z"
                fill="white"
            />
            <path
                d="M25.2801 39.1199C20.3201 39.1199 19.8601 34.9699 19.8601 34.9199L20.8501 34.82C20.8601 34.95 21.2501 38.1199 25.2901 38.1199C28.9401 38.1199 29.0701 34.36 29.0701 34.2L30.0601 34.22C30.0301 35.91 28.9901 39.11 25.2901 39.11L25.2801 39.1199Z"
                fill="white"
            />
            <path
                d="M21.8701 4.61011H32.1101V12.6101C32.1101 14.4101 30.6501 15.8601 28.8601 15.8601H27.8301C27.3301 15.8601 26.9201 16.7501 26.9201 17.2601V17.5701C26.9201 18.9501 25.8001 20.0701 24.4201 20.0701C23.0401 20.0701 21.9201 18.9501 21.9201 17.5701L21.8901 4.61011H21.8701Z"
                fill="#FADDDC"
            />
            <path
                d="M28.8199 12.9H29.4399C29.9899 12.9 30.4399 12.45 30.4399 11.9V8.86995C30.4399 8.63995 30.2499 8.44995 30.0199 8.44995C29.7899 8.44995 29.5999 8.63995 29.5999 8.86995V11.49C29.5999 11.8 29.3499 12.06 29.0299 12.06H28.8099C28.5799 12.06 28.3899 12.25 28.3899 12.48C28.3899 12.71 28.5799 12.9 28.8099 12.9H28.8199Z"
                fill="#E0B1BB"
            />
            <path
                d="M26.51 8.96991C26.51 9.27991 26.76 9.52991 27.07 9.52991C27.38 9.52991 27.63 9.27991 27.63 8.96991C27.63 8.65991 27.38 8.40991 27.07 8.40991C26.76 8.40991 26.51 8.65991 26.51 8.96991Z"
                fill="#757570"
            />
            <path
                d="M24.9801 0.56003C23.4201 1.18003 20.9101 2.49003 20.4201 5.61003C20.1701 7.20003 21.2601 11.88 21.2601 11.88C21.4101 12.38 21.7801 12.35 21.8901 12.38L21.8701 9.22003V9.10003C21.8701 9.04003 21.8801 8.98003 21.9001 8.92003C21.9801 8.63003 22.2401 8.41003 22.5601 8.41003H22.6401C23.0201 8.41003 23.3201 8.72003 23.3201 9.09003V9.67003V9.65003L23.3301 10.13C23.3301 10.33 23.4901 10.49 23.6901 10.49C23.8901 10.49 24.0501 10.33 24.0501 10.13V8.57003C24.0501 7.96003 24.2001 7.36003 24.5401 6.86003C24.8301 6.42003 25.3701 5.67003 26.2001 5.48003C27.0301 5.29003 29.4801 5.44003 30.5001 5.20003C32.0301 4.84003 32.4601 2.76003 32.0801 1.29003C31.7601 0.0200295 27.6301 -0.49997 24.9701 0.55003L24.9801 0.56003Z"
                fill="#3E2967"
            />
            <path
                d="M31.9499 1.86011C32.0299 1.89011 32.9399 2.22011 32.9599 3.39011C32.9799 4.56011 32.0799 7.72011 32.0799 7.72011C32.0799 7.72011 32.2199 4.68011 31.2599 4.57011C30.2999 4.46011 31.9399 1.86011 31.9399 1.86011H31.9499Z"
                fill="#3E2967"
            />
        </g>
        <defs>
            <clipPath id="clip0_9_851">
                <rect width="58.65" height="103.19" fill="white" />
            </clipPath>
        </defs>
    </svg>
