<svg width="110" height="110" viewBox="0 0 110 110" fill="none" xmlns="http://www.w3.org/2000/svg">
<g clip-path="url(#clip0_1215_3236)">
<path d="M59.45 57.9L47.48 57.43L40.89 79.85L28.36 97.81L30.69 99.7C30.41 100.21 29.92 101.04 29.45 101.36C28.76 101.83 27.86 102.7 28.67 103.75L33.63 107.65C34.35 107.96 35.12 106.89 34.76 106.08C34.52 105.55 33.7 104.35 33.43 103.83C32.88 102.77 33.54 101.96 34.26 100.81C38.59 93.93 48.7 83.39 48.7 83.39L59.44 57.89L59.45 57.9Z" fill="#291B4C"/>
<path d="M62.38 56.34L42.72 57.15L64.18 82.25L71.56 104.93L74.34 104.53L75.24 106.33C76.17 108.35 76.29 109.21 77.83 108.42L81.66 106.9C82.36 106.55 82.25 105.52 81.43 105.27C80.89 105.1 80.06 105.08 79.5 105.05C77.42 104.95 77.7 103.48 77.37 102.14C75.37 94.15 74.47 87.73 72.2 79.66C70.91 75.04 62.36 56.35 62.36 56.35L62.38 56.34Z" fill="#3E2C6D"/>
<path d="M81.04 43.6C82.63 44.01 83.59 45.63 83.18 47.22C82.84 48.53 81.69 49.41 80.41 49.45C80.13 49.45 79.85 49.43 79.56 49.36C78.87 49.18 78.2 48.98 77.54 48.77L79.98 43.3C80.33 43.41 80.68 43.51 81.04 43.6Z" fill="#FADDDC"/>
<path d="M56.21 20.65C57.78 20.16 59.44 21.03 59.94 22.6C59.99 22.77 65.22 38.83 79.99 43.3L77.55 48.77C60.28 43.12 54.51 25.16 54.27 24.37C53.78 22.8 54.66 21.14 56.22 20.65H56.21Z" fill="#FADDDC"/>
<path d="M59.17 21.1L66.67 32.46L59.82 39.82L56.51 27.6L59.17 21.1Z" fill="#65CEAE"/>
<path d="M64.59 57.2L40.05 57.12L42.5 34.56C42.5 30.4 47.6 19.06 51.13 19.06H55.48C56.98 19.06 58.4 19.82 59.18 21.1C64.85 30.36 64.6 57.2 64.6 57.2H64.59Z" fill="#74E0C1"/>
<path d="M32.95 53.86C32.97 55.5 31.65 56.85 30.01 56.86C28.66 56.87 27.51 55.99 27.14 54.76C27.06 54.49 27.01 54.21 27.01 53.92C27.01 53.21 27.02 52.51 27.06 51.82L32.97 52.76C32.96 53.12 32.95 53.49 32.95 53.86Z" fill="#FADDDC"/>
<path d="M48.6901 23.93C49.57 25.32 49.16 27.15 47.7701 28.03C47.6201 28.12 33.46 37.33 32.96 52.75L27.05 51.81C28.04 33.67 43.89 23.45 44.59 23.01C45.98 22.13 47.8101 22.55 48.6901 23.93Z" fill="#FADDDC"/>
<path d="M51.9499 19.18C51.9499 19.18 46.7099 18.39 42.7399 21.76C38.7699 25.13 35.4399 28.66 35.4399 28.66C35.4399 28.66 42.3899 35.52 42.6799 35.55C42.9699 35.58 54.2999 26.07 54.2999 26.07C54.2999 26.07 54.4499 20.53 51.9499 19.18Z" fill="#74E0C1"/>
<path d="M57.6099 36.9L55.2399 36.74L55.1999 35.66L56.6399 35.76L55.1399 29.93L55.7299 29.6L57.6099 36.9Z" fill="white"/>
<path d="M52.1801 33.49L51.5301 33.43C51.5001 32.33 51.7301 30.27 52.8501 30.29C52.8701 30.29 52.8801 30.29 52.9001 30.29C54.0401 30.37 54.5301 32.09 54.6401 33L54.0101 33.09C53.9901 32.92 53.7701 31.36 52.9201 31.37C52.1301 31.35 52.1801 33.47 52.1801 33.49Z" fill="white"/>
<path d="M57.87 32.94L57.22 32.88C57.19 31.78 57.42 29.72 58.54 29.74C59.69 29.77 60.22 31.53 60.32 32.45L59.69 32.54C59.67 32.37 59.48 30.82 58.6 30.82C57.81 30.8 57.86 32.92 57.86 32.94H57.87Z" fill="white"/>
<path d="M56.6399 41.3C53.4199 41.09 52.9299 36.55 52.9299 36.5L53.5699 36.44C53.5899 36.59 53.9699 40.05 56.5999 40.22C58.9699 40.38 58.8899 36.3 58.8899 36.13L59.5399 36.19C59.5899 38.03 59.0599 41.46 56.6499 41.3H56.6399Z" fill="white"/>
<path d="M50.22 19.11C50.22 19.11 51.71 22.07 54.77 21.85C56.35 21.74 56.67 20.64 56.85 20.16C57.03 19.68 56.88 19.28 56.88 19.28L56.1 19.09H51.2L50.23 19.11H50.22Z" fill="#65CEAE"/>
<path d="M50.95 5.25H61.34V14.55C61.34 16.37 59.86 17.85 58.04 17.85H56.99C56.4799 17.85 56.0599 18.26 56.0599 18.78V19.69C56.0199 20.44 55.09 21.36 54.15 21.12C53.2099 20.88 51.58 20.12 51.16 19.28L50.95 5.25Z" fill="#FADDDC"/>
<path d="M61.0299 14.71L61.6299 14.54C62.1699 14.39 62.4899 13.82 62.3399 13.28L61.5099 10.32C61.4499 10.09 61.2099 9.96 60.9899 10.03C60.7699 10.1 60.6299 10.33 60.6999 10.55L61.4199 13.11C61.5099 13.42 61.3299 13.74 61.0199 13.82L60.8099 13.88C60.5799 13.94 60.4499 14.18 60.5199 14.4C60.5899 14.62 60.8199 14.76 61.0399 14.69L61.0299 14.71Z" fill="#E0B1BB"/>
<path d="M59.57 10.29C59.57 10.6 59.3199 10.85 59.0099 10.85C58.6999 10.85 58.45 10.6 58.45 10.29C58.45 9.98 58.6999 9.73 59.0099 9.73C59.3199 9.73 59.57 9.98 59.57 10.29Z" fill="#757570"/>
<path d="M54.5799 2.55999C53.0199 3.17999 50.5099 4.48999 50.0199 7.60999C49.7699 9.19999 50.8599 13.88 50.8599 13.88C51.0099 14.38 51.3699 15.23 51.4799 15.27L51.6499 15.12L52.2099 12.89C52.5899 12.89 54.0099 10.73 54.0099 11.11V11.69V11.67L54.0199 12.15C54.0199 12.35 54.1799 12.51 54.3799 12.51C54.5799 12.51 54.7399 12.35 54.7399 12.15V10.59C54.7399 9.97999 54.6299 9.22999 54.9599 8.72999C55.2499 8.28999 55.6699 7.68999 56.5099 7.48999C57.3499 7.28999 59.0999 7.44999 60.1099 7.20999C61.6399 6.84999 62.0699 4.76999 61.6899 3.29999C61.3699 2.02999 57.2399 1.50999 54.5799 2.55999Z" fill="#3E2967"/>
<path d="M61.1799 3.14C61.2599 3.17 62.1699 3.5 62.1899 4.67C62.2199 5.85 61.3099 9 61.3099 9C61.3099 9 61.4499 5.96 60.4899 5.85C59.5299 5.74 61.1699 3.14 61.1699 3.14H61.1799Z" fill="#3E2967"/>
<path d="M54.0599 10.55C54.0599 10.0198 53.6301 9.59 53.0999 9.59C52.5697 9.59 52.1399 10.0198 52.1399 10.55V12.64C52.1399 13.1702 52.5697 13.6 53.0999 13.6C53.6301 13.6 54.0599 13.1702 54.0599 12.64V10.55Z" fill="#FADDDC"/>
</g>
<defs>
<clipPath id="clip0_1215_3236">
<rect width="56.27" height="106.7" fill="white" transform="translate(27 2)"/>
</clipPath>
</defs>
</svg>
