<svg width="110" height="110" viewBox="0 0 110 110" fill="none" xmlns="http://www.w3.org/2000/svg">
<g clip-path="url(#clip0_1216_1530)">
<path d="M47.6699 55.75L63.6899 54.73L52.1899 75.78L56.9299 96.74L54.5799 97.48V99.52C54.7599 100.95 54.7599 101.88 53.2399 102.71L49.3299 103.71C48.5599 103.77 48.1999 102.82 48.7999 102.17C49.1999 101.74 50.0399 101.44 50.3999 100.96C51.9699 98.84 51.1499 98.34 50.8499 97C49.0599 88.99 42.6399 75.47 42.6399 75.47L47.6799 55.74L47.6699 55.75Z" fill="#291B4C"/>
<path d="M52.1199 53.81L67.6899 54.18L64.8899 102.9L62.5699 103.65C62.5599 104.24 62.5699 105.23 62.8199 105.77C63.1799 106.57 63.5299 107.83 62.3299 108.25L56.2399 108.7C55.4799 108.55 55.3399 107.19 56.0399 106.72C56.4999 106.41 57.7699 105.86 58.2499 105.58C59.2299 104.99 59.1899 103.92 58.9999 102.54C57.6199 92.57 52.1299 53.8 52.1299 53.8L52.1199 53.81Z" fill="#3E2C6D"/>
<path d="M68.2899 53.12C68.0599 54.75 69.1899 56.25 70.8199 56.48C72.1599 56.67 73.4099 55.94 73.9399 54.77C74.0599 54.52 74.1399 54.24 74.1799 53.95C74.2799 53.24 74.3499 52.55 74.4099 51.86L68.4199 52.02C68.3799 52.38 68.3399 52.74 68.2899 53.11V53.12Z" fill="#FADDDC"/>
<path d="M56.59 21.4C55.54 22.66 55.71 24.53 56.96 25.59C57.09 25.7 69.93 36.68 68.41 52.03L74.4 51.87C75.79 33.76 61.41 21.55 60.77 21.02C59.51 19.97 57.64 20.14 56.59 21.4Z" fill="#FADDDC"/>
<path d="M55.8699 24.31L63.4999 35.58L71.1799 32.34C67.7599 25.7 64.0999 21.57 60.2999 18.99L55.8699 24.3V24.31Z" fill="#65CEAE"/>
<path d="M45.42 57.2L69.96 57.12L67.51 34.56C67.51 30.4 62.41 19.06 58.88 19.06H54.53C53.03 19.06 51.61 19.82 50.83 21.1C45.16 30.36 45.41 57.2 45.41 57.2H45.42Z" fill="#74E0C1"/>
<path d="M53.6901 58.07C52.6601 59.35 52.8601 61.22 54.1401 62.25C55.1901 63.1 56.6401 63.11 57.7001 62.38C57.9301 62.22 58.1401 62.03 58.3201 61.8C58.7701 61.25 59.1901 60.69 59.5801 60.12L54.3501 57.19C54.1301 57.48 53.9101 57.77 53.6801 58.06L53.6901 58.07Z" fill="#FADDDC"/>
<path d="M59.89 24.83C58.34 25.37 57.53 27.07 58.06 28.62C58.12 28.78 63.52 44.79 54.35 57.2L59.58 60.13C70.05 45.29 63.95 27.43 63.67 26.65C63.12 25.1 61.43 24.29 59.88 24.83H59.89Z" fill="#FADDDC"/>
<path d="M52.3901 36.9L54.7701 36.74L54.8101 35.66L53.3601 35.76L54.8601 29.93L54.2701 29.6L52.3901 36.9Z" fill="white"/>
<path d="M57.8199 33.49L58.4699 33.43C58.4999 32.33 58.2699 30.27 57.1499 30.29C57.1299 30.29 57.1199 30.29 57.0999 30.29C55.9599 30.37 55.4699 32.09 55.3599 33L55.9899 33.09C56.0099 32.92 56.2299 31.36 57.0799 31.37C57.8699 31.35 57.8199 33.47 57.8199 33.49Z" fill="white"/>
<path d="M52.14 32.94L52.79 32.88C52.82 31.78 52.59 29.72 51.47 29.74C50.32 29.77 49.79 31.53 49.69 32.45L50.32 32.54C50.34 32.37 50.53 30.82 51.41 30.82C52.2 30.8 52.15 32.92 52.15 32.94H52.14Z" fill="white"/>
<path d="M53.3701 41.3C56.5901 41.09 57.0801 36.55 57.0801 36.5L56.4401 36.44C56.4201 36.59 56.0401 40.05 53.4101 40.22C51.0401 40.38 51.1201 36.3 51.1201 36.13L50.4701 36.19C50.4201 38.03 50.9501 41.46 53.3601 41.3H53.3701Z" fill="white"/>
<path d="M60.2801 19.08C60.2801 19.08 64.8801 21.71 65.9101 26.82C66.9401 31.93 67.3601 36.75 67.3601 36.75C67.3601 36.75 57.6601 37.82 57.4001 37.67C57.1401 37.52 54.1701 23.03 54.1701 23.03C54.1701 23.03 57.4901 18.59 60.2901 19.09L60.2801 19.08Z" fill="#74E0C1"/>
<path d="M59.79 19.11C59.79 19.11 58.3 22.07 55.24 21.85C53.66 21.74 53.34 20.64 53.16 20.16C52.98 19.68 53.13 19.28 53.13 19.28L53.91 19.09H58.81L59.78 19.11H59.79Z" fill="#65CEAE"/>
<path d="M59.0601 5.25H48.6701V14.55C48.6701 16.37 50.1501 17.85 51.9701 17.85H53.0201C53.5301 17.85 53.9501 18.26 53.9501 18.78V19.69C53.9901 20.44 54.9201 21.36 55.8601 21.12C56.8001 20.88 58.4301 20.12 58.8501 19.28L59.0601 5.25Z" fill="#FADDDC"/>
<path d="M48.9801 14.71L48.3801 14.54C47.8401 14.39 47.5201 13.82 47.6701 13.28L48.5001 10.32C48.5601 10.09 48.8001 9.96 49.0201 10.03C49.2401 10.1 49.3801 10.33 49.3101 10.55L48.5901 13.11C48.5001 13.42 48.6801 13.74 48.9901 13.82L49.2001 13.88C49.4301 13.94 49.5601 14.18 49.4901 14.4C49.4201 14.62 49.1901 14.76 48.9701 14.69L48.9801 14.71Z" fill="#E0B1BB"/>
<path d="M50.4401 10.29C50.4401 10.6 50.6901 10.85 51.0001 10.85C51.3101 10.85 51.5601 10.6 51.5601 10.29C51.5601 9.98 51.3101 9.73 51.0001 9.73C50.6901 9.73 50.4401 9.98 50.4401 10.29Z" fill="#757570"/>
<path d="M55.4301 2.56C56.9901 3.18 59.5001 4.49 59.9901 7.61C60.2401 9.2 59.1501 13.88 59.1501 13.88C59.0001 14.38 58.6401 15.23 58.5301 15.27L58.3601 15.12L57.8001 12.89C57.4201 12.89 56.0001 10.73 56.0001 11.11V11.69V11.67L55.9901 12.15C55.9901 12.35 55.8301 12.51 55.6301 12.51C55.4301 12.51 55.2701 12.35 55.2701 12.15V10.59C55.2701 9.98 55.3801 9.23 55.0501 8.73C54.7601 8.29 54.3401 7.69 53.5001 7.49C52.6601 7.29 50.9101 7.45 49.9001 7.21C48.3701 6.85 47.9401 4.77 48.3201 3.3C48.6401 2.03 52.7701 1.51 55.4301 2.56Z" fill="#3E2967"/>
<path d="M48.8301 3.14C48.7501 3.17 47.8401 3.5 47.8201 4.67C47.7901 5.85 48.7001 9 48.7001 9C48.7001 9 48.5601 5.96 49.5201 5.85C50.4801 5.74 48.8401 3.14 48.8401 3.14H48.8301Z" fill="#3E2967"/>
<path d="M55.9401 10.55C55.9401 10.0198 56.3699 9.59 56.9001 9.59C57.4303 9.59 57.8601 10.0198 57.8601 10.55V12.64C57.8601 13.1702 57.4303 13.6 56.9001 13.6C56.3699 13.6 55.9401 13.1702 55.9401 12.64V10.55Z" fill="#FADDDC"/>
</g>
<defs>
<clipPath id="clip0_1216_1530">
<rect width="31.87" height="106.71" fill="white" transform="matrix(-1 0 0 1 74.5 2)"/>
</clipPath>
</defs>
</svg>
