<svg width="57" height="106" viewBox="0 0 57 106" fill="none" xmlns="http://www.w3.org/2000/svg">
<g clip-path="url(#clip0_134_1300)">
<path d="M33.3799 53.9399H6.6499L14.3899 100.22C14.4799 101.09 14.8599 102.11 13.9099 102.88C13.3799 103.31 12.8199 103.7 12.2899 104.13C11.6699 104.64 11.9899 105.77 12.7599 105.77L17.7499 104.75C19.9899 104.28 19.6799 102.7 19.2399 101.48C18.9499 100.67 18.7699 99.8299 18.7399 98.9699C18.5699 94.0899 19.1199 67.2999 19.2299 62.3299C19.2299 61.8899 19.5999 61.5399 20.0499 61.5399C20.4699 61.5399 20.8199 61.8499 20.8599 62.2699C21.3599 66.9399 24.1299 92.5299 24.3499 93.3299C24.6999 94.5799 26.1099 94.3999 26.5999 93.4699C27.0199 92.6699 27.4399 89.3999 27.5199 88.7599H28.9199L33.3899 53.9399H33.3799Z" fill="#3E2967"/>
<path d="M53.9701 41.2499C53.6101 41.1599 53.2601 41.0599 52.9101 40.9499C45.3801 38.6599 40.3501 33.3599 37.2101 28.6899L32.6001 32.5699C36.2301 37.8199 41.9401 43.6099 50.4601 46.4199C51.1201 46.6399 51.7901 46.8399 52.4801 47.0099C52.7601 47.0799 53.0501 47.1099 53.3301 47.0999C54.6101 47.0599 55.7701 46.1799 56.1101 44.8699C56.5201 43.2799 55.5701 41.6599 53.9801 41.2499H53.9701Z" fill="#FADDDC"/>
<path d="M31.7601 20.6799C30.7401 19.2799 26.5601 17.8299 25.2001 18.3099C23.6501 18.8599 24.9101 21.5799 25.2301 23.1899C25.4101 24.0799 28.0401 27.8699 31.7701 33.2599L37.4101 28.4999C34.3901 24.0099 33.4701 23.0199 31.7601 20.6799Z" fill="#74E0C1"/>
<path d="M35.3699 54.71H4.67993L6.56993 25.01C6.56993 20.85 6.21993 17.47 14.1099 17.47H25.9499C30.1099 17.47 33.4899 20.85 33.4899 25.01L35.3599 54.71H35.3699Z" fill="#74E0C1"/>
<path d="M1.98002 55.11C2.22002 55.83 2.48002 56.56 2.77002 57.29C2.89002 57.59 3.04002 57.8599 3.22002 58.0999C4.05002 59.2099 5.46002 59.67 6.70002 59.13C8.21002 58.47 8.89002 56.57 8.23002 54.8899C8.08002 54.51 7.94002 54.1299 7.81002 53.7599C5.51002 47.2199 5.26002 40.38 6.32002 35.11L1.10002 32.95C-0.299981 39.19 -0.719981 46.9399 1.97002 55.1199L1.98002 55.11Z" fill="#FADDDC"/>
<path d="M11.15 19.13C9.81996 18.18 7.95996 18.48 7.00996 19.81C6.73996 20.19 2.19996 25.02 0.209961 32.58L7.01996 35.34C8.68996 28.37 11.79 23.36 11.85 23.27C12.8 21.93 12.49 20.08 11.16 19.12L11.15 19.13Z" fill="#74E0C1"/>
<path d="M16.21 17.5H23.41V17.65C23.41 19.64 21.8 21.25 19.81 21.25C17.82 21.25 16.21 19.64 16.21 17.65V17.5Z" fill="#65CEAE"/>
<path d="M22.5201 35H18.8701V34.01H21.0901L19.1401 28.73L20.0701 28.38L22.5201 35Z" fill="white"/>
<path d="M14.3501 32.1899L13.3601 32.1699C13.3801 31.1599 13.8701 29.24 15.6001 29.2C15.6201 29.2 15.6501 29.2 15.6701 29.2C17.4201 29.2 18.0801 30.76 18.1801 31.59L17.2001 31.7099C17.1801 31.5499 16.9401 30.13 15.6301 30.19C14.4201 30.22 14.3601 32.1699 14.3601 32.1899H14.3501Z" fill="white"/>
<path d="M23.1599 31.34L22.1699 31.32C22.1899 30.31 22.6799 28.39 24.4099 28.35C26.1699 28.31 26.8899 29.9 26.9899 30.74L26.0099 30.86C25.9899 30.7 25.7999 29.29 24.4399 29.34C23.2299 29.37 23.1699 31.32 23.1699 31.34H23.1599Z" fill="white"/>
<path d="M20.7501 39.1199C15.7901 39.1199 15.3301 34.9699 15.3301 34.9199L16.3201 34.82C16.3301 34.95 16.7201 38.1199 20.7601 38.1199C24.4101 38.1199 24.5401 34.36 24.5401 34.2L25.5301 34.22C25.5001 35.91 24.4601 39.11 20.7601 39.11L20.7501 39.1199Z" fill="white"/>
<path d="M17.3401 4.60999H27.5801V12.61C27.5801 14.41 26.1201 15.86 24.3301 15.86H23.3001C22.8001 15.86 22.3901 16.75 22.3901 17.26V17.57C22.3901 18.95 21.2701 20.07 19.8901 20.07C18.5101 20.07 17.3901 18.95 17.3901 17.57L17.3601 4.60999H17.3401Z" fill="#FADDDC"/>
<path d="M24.2901 12.9H24.9101C25.4601 12.9 25.9101 12.45 25.9101 11.9V8.86995C25.9101 8.63995 25.7201 8.44995 25.4901 8.44995C25.2601 8.44995 25.0701 8.63995 25.0701 8.86995V11.49C25.0701 11.8 24.8201 12.06 24.5001 12.06H24.2801C24.0501 12.06 23.8601 12.25 23.8601 12.48C23.8601 12.71 24.0501 12.9 24.2801 12.9H24.2901Z" fill="#E0B1BB"/>
<path d="M21.98 8.97003C21.98 9.28003 22.23 9.53003 22.54 9.53003C22.85 9.53003 23.1 9.28003 23.1 8.97003C23.1 8.66003 22.85 8.41003 22.54 8.41003C22.23 8.41003 21.98 8.66003 21.98 8.97003Z" fill="#757570"/>
<path d="M20.45 0.56003C18.89 1.18003 16.38 2.49003 15.89 5.61003C15.64 7.20003 16.73 11.88 16.73 11.88C16.88 12.38 17.25 12.35 17.36 12.38L17.34 9.22003V9.10003C17.34 9.04003 17.35 8.98003 17.37 8.92003C17.45 8.63003 17.71 8.41003 18.03 8.41003H18.11C18.49 8.41003 18.79 8.72003 18.79 9.09003V9.67003V9.65003L18.8 10.13C18.8 10.33 18.96 10.49 19.16 10.49C19.36 10.49 19.52 10.33 19.52 10.13V8.57003C19.52 7.96003 19.67 7.36003 20.01 6.86003C20.3 6.42003 20.84 5.67003 21.67 5.48003C22.5 5.29003 24.95 5.44003 25.97 5.20003C27.5 4.84003 27.93 2.76003 27.55 1.29003C27.23 0.0200295 23.1 -0.49997 20.44 0.55003L20.45 0.56003Z" fill="#3E2967"/>
<path d="M27.4199 1.85999C27.4999 1.88999 28.4099 2.21999 28.4299 3.38999C28.4499 4.55999 27.5499 7.71999 27.5499 7.71999C27.5499 7.71999 27.6899 4.67999 26.7299 4.56999C25.7699 4.45999 27.4099 1.85999 27.4099 1.85999H27.4199Z" fill="#3E2967"/>
</g>
<defs>
<clipPath id="clip0_134_1300">
<rect width="56.2" height="105.77" fill="white"/>
</clipPath>
</defs>
</svg>
