<svg width="110" height="110" viewBox="0 0 110 110" fill="none" xmlns="http://www.w3.org/2000/svg">
<g clip-path="url(#clip0_1216_1506)">
<path d="M50.55 57.9L62.52 57.43L69.11 79.85L81.64 97.81L79.31 99.7C79.59 100.21 80.08 101.04 80.55 101.36C81.24 101.83 82.14 102.7 81.33 103.75L76.37 107.65C75.65 107.96 74.88 106.89 75.24 106.08C75.48 105.55 76.3 104.35 76.57 103.83C77.12 102.77 76.46 101.96 75.74 100.81C71.41 93.93 61.3 83.39 61.3 83.39L50.56 57.89L50.55 57.9Z" fill="#291B4C"/>
<path d="M47.62 56.34L67.28 57.15L45.82 82.25L38.44 104.93L35.66 104.53L34.76 106.33C33.83 108.35 33.71 109.21 32.17 108.42L28.34 106.9C27.64 106.55 27.75 105.52 28.57 105.27C29.11 105.1 29.94 105.08 30.5 105.05C32.58 104.95 32.3 103.48 32.63 102.14C34.63 94.15 35.53 87.73 37.8 79.66C39.09 75.04 47.64 56.35 47.64 56.35L47.62 56.34Z" fill="#3E2C6D"/>
<path d="M28.96 43.6C27.37 44.01 26.41 45.63 26.82 47.22C27.16 48.53 28.31 49.41 29.59 49.45C29.87 49.45 30.15 49.43 30.44 49.36C31.13 49.18 31.8 48.98 32.46 48.77L30.02 43.3C29.67 43.41 29.32 43.51 28.96 43.6Z" fill="#FADDDC"/>
<path d="M53.79 20.65C52.22 20.16 50.56 21.03 50.06 22.6C50.01 22.77 44.78 38.83 30.01 43.3L32.45 48.77C49.72 43.12 55.49 25.16 55.73 24.37C56.22 22.8 55.34 21.14 53.78 20.65H53.79Z" fill="#FADDDC"/>
<path d="M50.83 21.1L43.33 32.46L50.18 39.82L53.49 27.6L50.83 21.1Z" fill="#65CEAE"/>
<path d="M45.41 57.2L69.95 57.12L67.5 34.56C67.5 30.4 62.4 19.06 58.87 19.06H54.52C53.02 19.06 51.6 19.82 50.82 21.1C45.15 30.36 45.4 57.2 45.4 57.2H45.41Z" fill="#74E0C1"/>
<path d="M77.05 53.86C77.03 55.5 78.35 56.85 79.99 56.86C81.34 56.87 82.49 55.99 82.86 54.76C82.94 54.49 82.99 54.21 82.99 53.92C82.99 53.21 82.98 52.51 82.94 51.82L77.03 52.76C77.04 53.12 77.05 53.49 77.05 53.86Z" fill="#FADDDC"/>
<path d="M61.3099 23.93C60.4299 25.32 60.8399 27.15 62.2299 28.03C62.3799 28.12 76.54 37.33 77.04 52.75L82.95 51.81C81.96 33.67 66.11 23.45 65.41 23.01C64.02 22.13 62.1899 22.55 61.3099 23.93Z" fill="#FADDDC"/>
<path d="M58.0501 19.18C58.0501 19.18 63.2901 18.39 67.2601 21.76C71.2301 25.13 74.5601 28.66 74.5601 28.66C74.5601 28.66 67.6101 35.52 67.3201 35.55C67.0301 35.58 55.7001 26.07 55.7001 26.07C55.7001 26.07 55.5501 20.53 58.0501 19.18Z" fill="#74E0C1"/>
<path d="M52.3901 36.9L54.7601 36.74L54.8001 35.66L53.3601 35.76L54.8601 29.93L54.2701 29.6L52.3901 36.9Z" fill="white"/>
<path d="M57.8199 33.49L58.4699 33.43C58.4999 32.33 58.2699 30.27 57.1499 30.29C57.1299 30.29 57.1199 30.29 57.0999 30.29C55.9599 30.37 55.4699 32.09 55.3599 33L55.9899 33.09C56.0099 32.92 56.2299 31.36 57.0799 31.37C57.8699 31.35 57.8199 33.47 57.8199 33.49Z" fill="white"/>
<path d="M52.13 32.94L52.78 32.88C52.81 31.78 52.58 29.72 51.46 29.74C50.31 29.77 49.78 31.53 49.68 32.45L50.31 32.54C50.33 32.37 50.52 30.82 51.4 30.82C52.19 30.8 52.14 32.92 52.14 32.94H52.13Z" fill="white"/>
<path d="M53.3601 41.3C56.5801 41.09 57.0701 36.55 57.0701 36.5L56.4301 36.44C56.4101 36.59 56.0301 40.05 53.4001 40.22C51.0301 40.38 51.1101 36.3 51.1101 36.13L50.4601 36.19C50.4101 38.03 50.9401 41.46 53.3501 41.3H53.3601Z" fill="white"/>
<path d="M59.78 19.11C59.78 19.11 58.29 22.07 55.23 21.85C53.65 21.74 53.33 20.64 53.15 20.16C52.97 19.68 53.12 19.28 53.12 19.28L53.9 19.09H58.8L59.77 19.11H59.78Z" fill="#65CEAE"/>
<path d="M59.05 5.25H48.66V14.55C48.66 16.37 50.14 17.85 51.96 17.85H53.01C53.52 17.85 53.9401 18.26 53.9401 18.78V19.69C53.9801 20.44 54.91 21.36 55.85 21.12C56.79 20.88 58.42 20.12 58.84 19.28L59.05 5.25Z" fill="#FADDDC"/>
<path d="M48.9701 14.71L48.3701 14.54C47.8301 14.39 47.5101 13.82 47.6601 13.28L48.4901 10.32C48.5501 10.09 48.7901 9.96 49.0101 10.03C49.2301 10.1 49.3701 10.33 49.3001 10.55L48.5801 13.11C48.4901 13.42 48.6701 13.74 48.9801 13.82L49.1901 13.88C49.4201 13.94 49.5501 14.18 49.4801 14.4C49.4101 14.62 49.1801 14.76 48.9601 14.69L48.9701 14.71Z" fill="#E0B1BB"/>
<path d="M50.43 10.29C50.43 10.6 50.6801 10.85 50.9901 10.85C51.3001 10.85 51.55 10.6 51.55 10.29C51.55 9.98 51.3001 9.73 50.9901 9.73C50.6801 9.73 50.43 9.98 50.43 10.29Z" fill="#757570"/>
<path d="M55.4201 2.56C56.9801 3.18 59.4901 4.49 59.9801 7.61C60.2301 9.2 59.1401 13.88 59.1401 13.88C58.9901 14.38 58.6301 15.23 58.5201 15.27L58.3501 15.12L57.7901 12.89C57.4101 12.89 55.9901 10.73 55.9901 11.11V11.69V11.67L55.9801 12.15C55.9801 12.35 55.8201 12.51 55.6201 12.51C55.4201 12.51 55.2601 12.35 55.2601 12.15V10.59C55.2601 9.98 55.3701 9.23 55.0401 8.73C54.7501 8.29 54.3301 7.69 53.4901 7.49C52.6501 7.29 50.9001 7.45 49.8901 7.21C48.3601 6.85 47.9301 4.77 48.3101 3.3C48.6301 2.03 52.7601 1.51 55.4201 2.56Z" fill="#3E2967"/>
<path d="M48.8201 3.14C48.7401 3.17 47.8301 3.5 47.8101 4.67C47.7801 5.85 48.6901 9 48.6901 9C48.6901 9 48.5501 5.96 49.5101 5.85C50.4701 5.74 48.8301 3.14 48.8301 3.14H48.8201Z" fill="#3E2967"/>
<path d="M55.9401 10.55C55.9401 10.0198 56.3699 9.59 56.9001 9.59C57.4303 9.59 57.8601 10.0198 57.8601 10.55V12.64C57.8601 13.1702 57.4303 13.6 56.9001 13.6C56.3699 13.6 55.9401 13.1702 55.9401 12.64V10.55Z" fill="#FADDDC"/>
</g>
<defs>
<clipPath id="clip0_1216_1506">
<rect width="56.27" height="106.7" fill="white" transform="matrix(-1 0 0 1 83 2)"/>
</clipPath>
</defs>
</svg>
