
    <svg
        width="53"
        height="103"
        viewBox="0 0 53 103"
        fill="none"
        xmlns="http://www.w3.org/2000/svg"
    >
        <g clip-path="url(#clip0_9_770)">
            <path
                d="M50.71 43.38C52.26 43.92 53.08 45.62 52.54 47.17C52.1 48.44 50.87 49.22 49.59 49.16C49.31 49.15 49.03 49.09 48.75 49C48.08 48.77 47.43 48.51 46.79 48.24L49.68 42.99C50.02 43.12 50.36 43.25 50.71 43.38Z"
                fill="#FADDDC"
            />
            <path
                d="M27.8901 18.43C29.4901 18.07 31.0801 19.08 31.4401 20.68C31.4801 20.85 35.3401 37.29 49.6801 42.99L46.7901 48.24C30.0601 41.17 25.8101 22.79 25.6301 21.98C25.2801 20.38 26.2901 18.8 27.8901 18.44V18.43Z"
                fill="#3E2967"
            />
            <path
                d="M29.32 51.9499H17.34L12.07 73.7399L0.539968 91.4799L2.21997 92.6099C1.95997 93.1099 1.50997 93.9099 1.04997 94.2299C0.369968 94.6999 -0.490032 95.5599 0.359968 96.5199L5.46997 100.03C6.19997 100.3 6.92997 99.2499 6.52997 98.4999C6.26997 97.9999 5.39997 96.8999 5.11997 96.4199C4.52997 95.4299 5.14997 94.6499 5.82997 93.5299C9.88997 86.8499 19.58 76.4899 19.58 76.4899L29.32 51.9399V51.9499Z"
                fill="#56564C"
            />
            <path
                d="M33.4399 51.95H18.45L33.4799 76.2399L38.72 98.6299L40.7099 98.5199L41.4399 100.3C42.1699 102.29 42.2099 103.11 43.82 102.52L47.7799 101.45C48.5099 101.18 48.5 100.2 47.7099 99.8899C47.1899 99.68 46.36 99.58 45.81 99.5C43.75 99.2099 44.17 97.85 43.97 96.55C42.75 88.83 42.47 82.69 40.99 74.87C40.15 70.39 33.45 51.9599 33.45 51.9599L33.4399 51.95Z"
                fill="#757570"
            />
            <path
                d="M35.95 51.95H17.48C16.52 51.95 15.76 51.12 15.85 50.16L18.18 25.95C18.18 21.79 20.59 18.41 24.12 18.41H28.47C29.97 18.41 31.39 19.17 32.17 20.45C37.84 29.71 35.95 51.96 35.95 51.96V51.95Z"
                fill="#502489"
            />
            <path
                d="M13.2301 51.52C13.4501 53.15 12.3001 54.64 10.6701 54.86C9.33012 55.04 8.08012 54.3 7.56012 53.12C7.45012 52.87 7.37012 52.59 7.33012 52.3C7.24012 51.59 7.17012 50.9 7.12012 50.21L13.1001 50.43C13.1301 50.79 13.1701 51.16 13.2201 51.52H13.2301Z"
                fill="#FADDDC"
            />
            <path
                d="M25.23 19.91C26.27 21.18 26.08 23.05 24.82 24.09C24.69 24.2 11.74 35.05 13.12 50.42L7.13998 50.2C5.91998 32.08 20.42 20.01 21.06 19.48C22.33 18.44 24.2 18.63 25.24 19.9L25.23 19.91Z"
                fill="#502489"
            />
            <path
                d="M24.3201 4.06995H34.7101V13.3699C34.7101 15.1899 33.2301 16.6699 31.4101 16.6699H30.3601C29.8501 16.6699 29.4301 17.0799 29.4301 17.5999V18.5099C29.4301 19.6699 28.1901 20.3999 27.1701 19.8499L24.5201 18.4099L24.3101 4.06995H24.3201Z"
                fill="#FADDDC"
            />
            <path
                d="M34.0199 13.8L34.6199 13.63C35.1599 13.48 35.4799 12.91 35.3299 12.37L34.4999 9.41002C34.4399 9.18002 34.1999 9.05002 33.9799 9.12002C33.7599 9.19002 33.6199 9.42002 33.6899 9.64002L34.4099 12.2C34.4999 12.51 34.3199 12.83 34.0099 12.91L33.7999 12.97C33.5699 13.03 33.4399 13.27 33.5099 13.49C33.5799 13.71 33.8099 13.85 34.0299 13.78L34.0199 13.8Z"
                fill="#E0B1BB"
            />
            <path
                d="M23.3101 8.72002V4.81002C23.3101 3.95002 24.0001 3.26002 24.8601 3.26002H25.8001V1.60002H30.0301C30.5601 0.430024 31.8701 -0.299976 33.3001 0.120024C34.1601 0.370024 34.8501 1.07002 35.0901 1.93002C35.5701 3.66002 34.3701 5.22002 32.7601 5.38002V5.41002H31.0701H29.4501C28.7901 5.41002 28.2601 5.94002 28.2601 6.60002V8.40002C28.2601 9.17002 27.6401 9.79002 26.8701 9.79002L25.5601 9.89002L25.7001 9.79002L25.5501 13.79L25.0001 13.77C24.0601 13.73 23.3101 12.95 23.3101 12.01V8.73002V8.72002Z"
                fill="#3E2967"
            />
            <path
                d="M33.94 13.77L34.5 13.65C34.81 13.99 34.82 14.1 34.82 14.68L34.46 14.57C34.26 14.5 34.04 14.5 33.84 14.55L32.24 14.98L32.53 14.49C32.93 14.01 33.36 13.77 33.94 13.77Z"
                fill="#3E2967"
            />
            <path
                d="M33.1699 16.08C33.3399 16.04 33.6499 15.77 33.6499 15.77C34.0099 16.11 33.7099 16.93 32.7399 17.32C32.7399 17.32 31.3999 17.24 31.3999 16.67L32.2199 16.29L33.1599 16.09L33.1699 16.08Z"
                fill="#3E2967"
            />
            <path
                d="M32.5599 9.37006C32.5599 9.68006 32.3099 9.93006 31.9999 9.93006C31.6899 9.93006 31.4399 9.68006 31.4399 9.37006C31.4399 9.06006 31.6899 8.81006 31.9999 8.81006C32.3099 8.81006 32.5599 9.06006 32.5599 9.37006Z"
                fill="#757570"
            />
            <path
                d="M26.7199 31.11V31.2C26.6499 31.59 26.6399 31.89 26.6899 32.09C26.6999 32.15 26.7399 32.21 26.7899 32.26C26.7599 32.28 26.7099 32.31 26.6199 32.37C26.5799 32.4 26.5399 32.41 26.4999 32.42C26.4199 32.42 26.3599 32.38 26.3299 32.27C26.2799 32.05 26.2999 31.7 26.3999 31.22L26.4299 31.09H26.3399C26.1399 31.12 25.9999 31.17 25.9099 31.26C25.9099 30.98 26.0199 30.84 26.2699 30.81H26.4999L26.5299 30.7C26.6299 30.3 26.7899 29.77 27.0299 29.1C27.1099 28.87 27.1699 28.73 27.2299 28.67C27.2799 28.61 27.3999 28.55 27.5699 28.49C27.5999 28.78 27.6499 29.05 27.7099 29.3C27.8699 29.96 28.0899 30.62 28.3599 31.29C28.5099 31.66 28.6699 31.89 28.8199 31.98C28.7399 32.14 28.6599 32.22 28.5799 32.23C28.3899 32.25 28.1399 31.83 27.8299 30.96C27.6399 31.01 27.4399 31.04 27.2399 31.06L26.7499 31.09L26.7199 31.11ZM26.7799 30.82L27.1499 30.8C27.3999 30.78 27.5899 30.75 27.7099 30.72C27.5199 30.16 27.3799 29.7 27.2899 29.33L27.2499 29.15C27.2299 29.22 27.1699 29.37 27.0899 29.61C26.9399 30.04 26.8399 30.41 26.7999 30.73L26.7799 30.83V30.82Z"
                fill="#F1F0EC"
            />
            <path
                d="M30.8501 29.96C30.7501 30.61 30.6201 31.13 30.4601 31.51C30.3001 31.89 30.1201 32.0901 29.9201 32.1101C29.7801 32.1201 29.6501 32.06 29.5301 31.92C29.4101 31.78 29.3201 31.6001 29.2601 31.3601C29.2301 31.2301 29.2001 31.04 29.1801 30.8L28.9601 28.3601C28.9601 28.3601 28.8801 28.38 28.8401 28.39C28.5601 28.41 28.3901 28.27 28.3101 27.96V27.9C28.4701 28 28.6401 28.0401 28.8201 28.0201C29.0001 28.0001 29.1501 27.93 29.2501 27.8L29.5301 30.73C29.5501 30.99 29.5801 31.1701 29.6001 31.2701C29.6701 31.5401 29.7701 31.67 29.9201 31.66C30.0701 31.65 30.1801 31.53 30.2801 31.3C30.3701 31.07 30.5001 30.59 30.6601 29.85L30.8401 29.97L30.8501 29.96Z"
                fill="#F1F0EC"
            />
            <path
                d="M32.3 30.12C32.34 30.2 32.36 30.28 32.38 30.36C32.48 30.76 32.46 31.12 32.32 31.44C32.18 31.76 31.97 31.93 31.68 31.95C31.47 31.97 31.28 31.9 31.11 31.74C30.94 31.58 30.82 31.38 30.76 31.11C30.71 30.92 30.68 30.64 30.64 30.28L30.45 28.21C30.39 28.23 30.34 28.24 30.3 28.25C30.04 28.27 29.87 28.1 29.78 27.74C29.88 27.83 30.02 27.87 30.19 27.86C30.34 27.85 30.53 27.78 30.75 27.65L31.01 30.54C31.03 30.74 31.06 30.91 31.09 31.05C31.14 31.25 31.21 31.4 31.32 31.52C31.43 31.64 31.54 31.69 31.67 31.68C31.86 31.66 31.99 31.54 32.07 31.29C32.15 31.05 32.15 30.77 32.07 30.44C32.03 30.28 31.97 30.12 31.9 29.98C31.73 29.93 31.59 29.85 31.47 29.75C31.35 29.65 31.27 29.55 31.25 29.45C31.24 29.39 31.24 29.32 31.25 29.23C31.58 29.23 31.87 29.4 32.13 29.73C32.31 29.82 32.49 29.85 32.66 29.84C32.83 29.83 33 29.74 33.15 29.58L33.29 29.77C33.13 30 32.92 30.13 32.66 30.15C32.54 30.16 32.42 30.15 32.31 30.12H32.3Z"
                fill="#F1F0EC"
            />
            <path
                d="M33.37 30.72C33.48 31.19 33.69 31.41 33.99 31.38C34.25 31.36 34.49 31.17 34.73 30.81C34.96 30.45 35.14 30 35.26 29.44L35.44 29.54C35.35 30.15 35.16 30.66 34.87 31.08C34.59 31.5 34.27 31.72 33.94 31.75C33.72 31.77 33.53 31.69 33.36 31.52C33.19 31.35 33.07 31.1 32.99 30.77C32.88 30.31 32.9 29.9 33.04 29.55C33.19 29.2 33.42 29.01 33.74 28.98C33.89 28.97 34.03 29.01 34.15 29.1C34.27 29.2 34.35 29.33 34.39 29.51C34.46 29.8 34.39 30.06 34.18 30.31C33.97 30.56 33.7 30.69 33.37 30.72ZM33.33 30.49C33.58 30.45 33.77 30.34 33.91 30.15C34.05 29.96 34.09 29.75 34.03 29.52C33.98 29.32 33.89 29.22 33.75 29.23C33.59 29.24 33.46 29.37 33.38 29.62C33.3 29.87 33.28 30.16 33.33 30.49Z"
                fill="#F1F0EC"
            />
        </g>
        <defs>
            <clipPath id="clip0_9_770">
                <rect width="52.71" height="102.7" fill="white" />
            </clipPath>
        </defs>
    </svg>
