<svg width="110" height="110" viewBox="0 0 110 110" fill="none" xmlns="http://www.w3.org/2000/svg">
<g clip-path="url(#clip0_1208_2401)">
<path d="M57.42 54.21L41.85 54.58L44.65 103.3L46.97 104.05C46.98 104.64 46.97 105.63 46.72 106.17C46.36 106.97 46.01 108.23 47.21 108.65L53.3 109.1C54.06 108.95 54.2 107.59 53.5 107.12C53.04 106.81 51.77 106.26 51.29 105.98C50.31 105.39 50.35 104.32 50.54 102.94C51.92 92.97 57.41 54.2 57.41 54.2L57.42 54.21Z" fill="#364936"/>
<path d="M61.88 56.15L45.86 55.13L57.36 76.18L52.62 97.14L54.97 97.88V99.92C54.79 101.35 54.79 102.28 56.31 103.11L60.22 104.11C60.99 104.17 61.35 103.22 60.75 102.57C60.35 102.14 59.51 101.84 59.15 101.36C57.58 99.24 58.4 98.74 58.7 97.4C60.49 89.39 66.91 75.87 66.91 75.87L61.87 56.14L61.88 56.15Z" fill="#5B6D5B"/>
<path d="M41.4499 51.71C41.4099 53.35 40.0399 54.65 38.3999 54.6C37.0499 54.56 35.9399 53.63 35.6099 52.39C35.5399 52.12 35.4999 51.84 35.5099 51.54C35.5299 50.83 35.5699 50.13 35.6399 49.44L41.5199 50.6C41.4899 50.96 41.4699 51.33 41.4599 51.7L41.4499 51.71Z" fill="#FADDDC"/>
<path d="M58.29 22.39C59.12 23.81 58.64 25.63 57.22 26.46C57.07 26.55 42.58 35.22 41.5 50.61L35.62 49.45C37.28 31.36 53.51 21.73 54.22 21.32C55.64 20.5 57.45 20.98 58.28 22.4L58.29 22.39Z" fill="#3C1F68"/>
<path d="M65.2101 59.13L42.1401 58.97C41.1801 58.97 40.4201 58.14 40.5101 57.18C40.5101 57.18 41.1801 35.81 42.6601 27.5C43.5701 22.39 43.6801 20.74 51.4501 18.42H55.8001C57.3001 18.42 58.7201 19.18 59.5001 20.46C65.1701 29.72 65.2101 59.15 65.2101 59.15V59.13Z" fill="#633CA0"/>
<path d="M51.65 4.07001H62.04V13.37C62.04 15.19 60.56 16.67 58.74 16.67H57.69C57.18 16.67 56.76 17.08 56.76 17.6V18.51C56.76 19.67 55.52 20.4 54.5 19.85L51.85 18.41L51.64 4.07001H51.65Z" fill="#FADDDC"/>
<path d="M61.35 13.8L61.95 13.63C62.49 13.48 62.81 12.91 62.66 12.37L61.83 9.40999C61.77 9.17999 61.53 9.04999 61.31 9.11999C61.09 9.18999 60.95 9.41999 61.02 9.63999L61.74 12.2C61.83 12.51 61.65 12.83 61.34 12.91L61.13 12.97C60.9 13.03 60.77 13.27 60.84 13.49C60.91 13.71 61.14 13.85 61.36 13.78L61.35 13.8Z" fill="#E0B1BB"/>
<path d="M50.65 8.71999V4.80999C50.65 3.94999 51.34 3.25999 52.2 3.25999H53.14V1.59999H57.37C57.9 0.429994 59.21 -0.300006 60.64 0.119994C61.5 0.369994 62.19 1.06999 62.43 1.92999C62.91 3.65999 61.71 5.21999 60.1 5.37999V5.40999H58.41H56.79C56.13 5.40999 55.6 5.93999 55.6 6.59999V8.39999C55.6 9.16999 54.98 9.78999 54.21 9.78999L52.9 9.88999L53.04 9.78999L52.89 13.79L52.34 13.77C51.4 13.73 50.65 12.95 50.65 12.01V8.72999V8.71999Z" fill="#3E2967"/>
<path d="M61.2699 13.77L61.8299 13.65C62.1399 13.99 62.1499 14.1 62.1499 14.68L61.7899 14.57C61.5899 14.5 61.3699 14.5 61.1699 14.55L59.5699 14.98L59.8599 14.49C60.2599 14.01 60.6899 13.77 61.2699 13.77Z" fill="#3E2967"/>
<path d="M60.51 16.08C60.68 16.04 60.99 15.77 60.99 15.77C61.35 16.11 61.05 16.93 60.08 17.32C60.08 17.32 58.74 17.24 58.74 16.67L59.56 16.29L60.5 16.09L60.51 16.08Z" fill="#3E2967"/>
<path d="M59.9 9.37C59.9 9.68 59.65 9.93 59.34 9.93C59.03 9.93 58.78 9.68 58.78 9.37C58.78 9.06 59.03 8.81 59.34 8.81C59.65 8.81 59.9 9.06 59.9 9.37Z" fill="#757570"/>
<path d="M54.06 31.11V31.2C53.99 31.59 53.98 31.89 54.03 32.09C54.04 32.15 54.08 32.21 54.13 32.26C54.1 32.28 54.05 32.31 53.96 32.37C53.92 32.4 53.88 32.41 53.84 32.42C53.76 32.42 53.7 32.38 53.67 32.27C53.62 32.05 53.64 31.7 53.74 31.22L53.77 31.09H53.68C53.48 31.12 53.34 31.17 53.25 31.26C53.25 30.98 53.36 30.84 53.61 30.81H53.84L53.87 30.7C53.97 30.3 54.13 29.77 54.37 29.1C54.45 28.87 54.51 28.73 54.57 28.67C54.62 28.61 54.74 28.55 54.91 28.49C54.94 28.78 54.99 29.05 55.05 29.3C55.21 29.96 55.43 30.62 55.7 31.29C55.85 31.66 56.01 31.89 56.16 31.98C56.08 32.14 56 32.22 55.92 32.23C55.73 32.25 55.48 31.83 55.17 30.96C54.98 31.01 54.78 31.04 54.58 31.06L54.09 31.09L54.06 31.11ZM54.12 30.82L54.49 30.8C54.74 30.78 54.93 30.75 55.05 30.72C54.86 30.16 54.72 29.7 54.63 29.33L54.59 29.15C54.57 29.22 54.51 29.37 54.43 29.61C54.28 30.04 54.18 30.41 54.14 30.73L54.12 30.83V30.82Z" fill="#F1F0EC"/>
<path d="M58.18 29.96C58.08 30.61 57.95 31.13 57.79 31.51C57.63 31.89 57.45 32.09 57.25 32.11C57.11 32.12 56.98 32.06 56.86 31.92C56.74 31.78 56.65 31.6 56.59 31.36C56.56 31.23 56.53 31.04 56.51 30.8L56.29 28.36C56.29 28.36 56.21 28.38 56.17 28.39C55.89 28.41 55.72 28.27 55.64 27.96V27.9C55.8 28 55.97 28.04 56.15 28.02C56.33 28 56.48 27.93 56.58 27.8L56.86 30.73C56.88 30.99 56.91 31.17 56.93 31.27C57 31.54 57.1 31.67 57.25 31.66C57.4 31.65 57.51 31.53 57.61 31.3C57.7 31.07 57.83 30.59 57.99 29.85L58.17 29.97L58.18 29.96Z" fill="#F1F0EC"/>
<path d="M59.64 30.12C59.68 30.2 59.7 30.28 59.72 30.36C59.82 30.76 59.8 31.12 59.66 31.44C59.52 31.76 59.31 31.93 59.02 31.95C58.81 31.97 58.62 31.9 58.45 31.74C58.28 31.58 58.16 31.38 58.1 31.11C58.05 30.92 58.02 30.64 57.98 30.28L57.79 28.21C57.73 28.23 57.68 28.24 57.64 28.25C57.38 28.27 57.21 28.1 57.12 27.74C57.22 27.83 57.36 27.87 57.53 27.86C57.68 27.85 57.87 27.78 58.09 27.65L58.35 30.54C58.37 30.74 58.4 30.91 58.43 31.05C58.48 31.25 58.55 31.4 58.66 31.52C58.77 31.64 58.88 31.69 59.01 31.68C59.2 31.66 59.33 31.54 59.41 31.29C59.49 31.05 59.49 30.77 59.41 30.44C59.37 30.28 59.31 30.12 59.24 29.98C59.07 29.93 58.93 29.85 58.81 29.75C58.69 29.65 58.61 29.55 58.59 29.45C58.58 29.39 58.58 29.32 58.59 29.23C58.92 29.23 59.21 29.4 59.47 29.73C59.65 29.82 59.83 29.85 60 29.84C60.17 29.83 60.34 29.74 60.49 29.58L60.63 29.77C60.47 30 60.26 30.13 60 30.15C59.88 30.16 59.76 30.15 59.65 30.12H59.64Z" fill="#F1F0EC"/>
<path d="M60.7 30.72C60.81 31.19 61.02 31.41 61.32 31.38C61.58 31.36 61.82 31.17 62.06 30.81C62.29 30.45 62.47 30 62.59 29.44L62.77 29.54C62.68 30.15 62.49 30.66 62.2 31.08C61.92 31.5 61.6 31.72 61.27 31.75C61.05 31.77 60.86 31.69 60.69 31.52C60.52 31.35 60.4 31.1 60.32 30.77C60.21 30.31 60.23 29.9 60.37 29.55C60.52 29.2 60.75 29.01 61.07 28.98C61.22 28.97 61.36 29.01 61.48 29.1C61.6 29.2 61.68 29.33 61.72 29.51C61.79 29.8 61.72 30.06 61.51 30.31C61.3 30.56 61.03 30.69 60.7 30.72ZM60.66 30.49C60.91 30.45 61.1 30.34 61.24 30.15C61.38 29.96 61.42 29.75 61.36 29.52C61.31 29.32 61.22 29.22 61.08 29.23C60.92 29.24 60.79 29.37 60.71 29.62C60.63 29.87 60.61 30.16 60.66 30.49Z" fill="#F1F0EC"/>
<path d="M66.19 50.53C67.67 51.25 68.28 53.03 67.56 54.51C66.97 55.72 65.66 56.35 64.39 56.14C64.12 56.09 63.84 56.01 63.58 55.88C62.94 55.57 62.32 55.24 61.72 54.89L65.21 50.03C65.53 50.2 65.85 50.37 66.19 50.54V50.53Z" fill="#FADDDC"/>
<path d="M45.2899 24.73C46.9199 24.56 48.3799 25.76 48.5499 27.39C48.5699 27.56 50.4499 44.35 64.0099 51.71L61.8199 54.99C43.8099 48 44.2299 28.9 44.1499 28.07C43.9899 26.44 43.6599 24.89 45.2899 24.73Z" fill="#3C1F68"/>
<path d="M46.51 23.03C48.14 22.86 49.6 24.06 49.77 25.69C49.79 25.86 51.67 42.65 65.23 50.01L61.74 54.87C45.97 45.86 43.94 27.1 43.86 26.28C43.7 24.65 44.89 23.2 46.52 23.03H46.51Z" fill="#633CA0"/>
</g>
<defs>
<clipPath id="clip0_1208_2401">
<rect width="32.36" height="109.11" fill="white" transform="translate(35.5)"/>
</clipPath>
</defs>
</svg>
