<svg width="110" height="110" viewBox="0 0 110 110" fill="none" xmlns="http://www.w3.org/2000/svg">
<g clip-path="url(#clip0_1208_2104)">
<path d="M42.5799 57.65H69.3099L64.2799 104.11L60.9499 103.64C60.8599 104.51 61.0999 105.82 62.0499 106.59C62.5799 107.02 63.1399 107.41 63.6699 107.84C64.2899 108.35 63.9699 109.48 63.1999 109.48L58.2099 108.46C55.9699 107.99 56.2799 106.41 56.7199 105.19C57.0099 104.38 57.4799 102.98 57.4799 102.98L56.4299 102.68L56.7099 65.25H55.1799C55.1799 65.25 52.3499 85.76 52.0999 86.63C51.7499 87.88 50.3399 87.7 49.8499 86.77C49.4299 85.97 49.0099 82.7 48.9299 82.06L47.2299 81.71C45.6599 81.39 44.4799 80.07 44.3499 78.47L42.5699 57.65H42.5799Z" fill="#5B6D5B"/>
<path d="M41.09 49.25C41.36 50.62 40.47 51.95 39.1 52.22C37.97 52.44 36.87 51.88 36.37 50.92C36.26 50.71 36.18 50.48 36.13 50.24C36.01 49.65 35.92 49.06 35.84 48.48L40.93 48.34C40.98 48.65 41.03 48.95 41.09 49.26V49.25Z" fill="#FADDDC"/>
<path d="M49.53 21.75C50.48 22.77 50.43 24.37 49.41 25.32C49.3 25.42 38.92 35.35 40.93 48.32L35.84 48.46C33.81 33.14 45.45 22.1 45.96 21.62C46.98 20.67 48.58 20.73 49.53 21.75Z" fill="#502489"/>
<path d="M40.77 59.9L70.65 60.01L70.21 34.85C70.21 30.69 74 19 61.85 19.64H51.19C47.03 19.64 42.31 23.19 42.31 31.22L40.77 59.89V59.9Z" fill="#633CA0"/>
<path d="M49.86 32.78L49.82 32.86C49.64 33.19 49.55 33.44 49.55 33.63C49.55 33.68 49.57 33.74 49.61 33.79C49.58 33.8 49.5 33.83 49.38 33.87C49.33 33.89 49.27 33.9 49.22 33.9C49.12 33.9 49.07 33.85 49.07 33.76C49.07 33.57 49.19 33.27 49.43 32.87L49.5 32.76H49.39C49.16 32.76 48.98 32.8 48.86 32.87C48.93 32.63 49.1 32.51 49.39 32.51H49.65L49.71 32.43C49.93 32.1 50.27 31.65 50.72 31.09C50.87 30.9 50.99 30.78 51.06 30.74C51.14 30.69 51.28 30.65 51.5 30.61C51.46 30.86 51.44 31.1 51.44 31.31C51.44 31.89 51.51 32.47 51.64 33.06C51.71 33.38 51.82 33.59 51.97 33.69C51.84 33.82 51.73 33.89 51.63 33.89C51.41 33.89 51.24 33.51 51.12 32.75C50.89 32.78 50.66 32.79 50.42 32.79H49.85L49.86 32.78ZM50.02 32.53H50.44C50.73 32.54 50.95 32.53 51.11 32.51C51.05 32.02 51.01 31.61 51.01 31.29V31.13C50.97 31.19 50.86 31.32 50.7 31.51C50.41 31.87 50.19 32.18 50.06 32.45L50.02 32.53Z" fill="#F1F0EC"/>
<path d="M54.9 32.1C54.61 32.65 54.32 33.08 54.03 33.4C53.74 33.71 53.48 33.87 53.25 33.87C53.09 33.87 52.95 33.81 52.85 33.68C52.75 33.55 52.7 33.39 52.7 33.18C52.7 33.07 52.72 32.9 52.76 32.69L53.18 30.58C53.13 30.58 53.08 30.59 53.04 30.59C52.72 30.59 52.56 30.46 52.56 30.19V30.14C52.73 30.24 52.92 30.28 53.13 30.28C53.34 30.28 53.53 30.23 53.69 30.12L53.2 32.65C53.16 32.88 53.14 33.03 53.14 33.12C53.14 33.36 53.23 33.47 53.4 33.47C53.57 33.47 53.74 33.37 53.91 33.19C54.08 33 54.36 32.59 54.75 31.98L54.92 32.1H54.9Z" fill="#F1F0EC"/>
<path d="M56.51 32.35C56.53 32.42 56.54 32.49 56.54 32.56C56.54 32.91 56.42 33.22 56.17 33.48C55.92 33.74 55.63 33.87 55.3 33.87C55.06 33.87 54.86 33.8 54.7 33.65C54.55 33.5 54.47 33.32 54.47 33.09C54.47 32.92 54.5 32.68 54.56 32.37L54.91 30.59C54.84 30.6 54.78 30.61 54.73 30.61C54.43 30.61 54.28 30.45 54.28 30.14C54.37 30.23 54.52 30.27 54.72 30.27C54.9 30.27 55.13 30.22 55.42 30.13L54.92 32.62C54.89 32.79 54.87 32.94 54.87 33.07C54.87 33.24 54.92 33.38 55.01 33.49C55.1 33.6 55.22 33.65 55.37 33.65C55.59 33.65 55.78 33.55 55.93 33.35C56.08 33.15 56.16 32.91 56.16 32.63C56.16 32.49 56.14 32.35 56.09 32.22C55.91 32.16 55.77 32.09 55.66 31.99C55.55 31.9 55.49 31.8 55.49 31.71C55.49 31.66 55.51 31.6 55.55 31.52C55.93 31.55 56.22 31.71 56.41 32.01C56.59 32.1 56.78 32.14 56.99 32.14C57.2 32.14 57.41 32.08 57.62 31.95L57.73 32.12C57.49 32.3 57.21 32.4 56.91 32.4C56.77 32.4 56.64 32.38 56.51 32.35Z" fill="#F1F0EC"/>
<path d="M57.57 32.94C57.57 33.35 57.74 33.55 58.09 33.55C58.39 33.55 58.72 33.41 59.09 33.12C59.45 32.83 59.78 32.46 60.07 31.99L60.25 32.09C59.98 32.6 59.62 33.03 59.18 33.36C58.74 33.7 58.32 33.86 57.93 33.86C57.68 33.86 57.48 33.78 57.33 33.62C57.18 33.46 57.11 33.24 57.11 32.95C57.11 32.54 57.24 32.2 57.51 31.91C57.78 31.62 58.1 31.48 58.47 31.48C58.65 31.48 58.8 31.53 58.9 31.62C59.01 31.71 59.06 31.83 59.06 31.99C59.06 32.24 58.91 32.46 58.61 32.66C58.31 32.86 57.96 32.95 57.57 32.95V32.94ZM57.59 32.74C57.88 32.72 58.13 32.64 58.34 32.49C58.55 32.34 58.65 32.16 58.65 31.96C58.65 31.78 58.57 31.69 58.41 31.69C58.22 31.69 58.04 31.79 57.88 32C57.72 32.2 57.62 32.45 57.58 32.74H57.59Z" fill="#F1F0EC"/>
<path d="M60.18 33.8C60.08 33.85 60.01 33.87 59.95 33.87C59.81 33.87 59.73 33.81 59.73 33.68C59.73 33.62 59.76 33.46 59.81 33.2L59.92 32.68C59.98 32.37 60.02 32.14 60.02 31.99C60.02 31.91 60 31.84 59.95 31.79C60.1 31.74 60.22 31.71 60.31 31.71C60.41 31.71 60.46 31.77 60.46 31.9C60.46 31.98 60.43 32.18 60.36 32.51L60.24 33.12C60.5 32.61 60.77 32.21 61.04 31.92C61.31 31.63 61.55 31.49 61.77 31.49C61.85 31.49 61.91 31.51 61.97 31.56C62.03 31.6 62.05 31.66 62.05 31.72C62.05 31.82 61.94 31.95 61.73 32.11C61.68 32 61.6 31.94 61.5 31.94C61.32 31.94 61.1 32.13 60.82 32.51C60.65 32.75 60.5 32.99 60.37 33.24C60.24 33.49 60.18 33.67 60.18 33.77V33.81V33.8Z" fill="#F1F0EC"/>
<path d="M63.59 32.98C63.63 33.05 63.65 33.11 63.65 33.16C63.65 33.3 63.53 33.45 63.3 33.62C63.07 33.79 62.86 33.87 62.67 33.87C62.5 33.87 62.36 33.8 62.26 33.64C62.15 33.49 62.1 33.3 62.1 33.06C62.1 32.8 62.1699 32.42 62.3099 31.93L62.41 31.58H62.05C61.9 31.58 61.78 31.6 61.7 31.64C61.78 31.49 61.85 31.4 61.9 31.36C61.95 31.32 62.04 31.3 62.17 31.3H62.49L62.53 31.15C62.59 30.93 62.67 30.78 62.76 30.7C62.85 30.62 62.98 30.58 63.16 30.58C63.18 30.58 63.21 30.58 63.26 30.58C63.15 30.72 63.04 30.96 62.92 31.29H64.03C64.22 31.29 64.3699 31.26 64.4799 31.21C64.4499 31.35 64.4 31.45 64.34 31.49C64.28 31.53 64.17 31.56 64.02 31.56H62.84C62.84 31.56 62.8199 31.64 62.8099 31.66C62.6399 32.24 62.5599 32.67 62.5599 32.97C62.5599 33.29 62.68 33.46 62.91 33.46C63.03 33.46 63.16 33.41 63.3 33.31C63.44 33.21 63.54 33.09 63.6 32.96L63.59 32.98Z" fill="#F1F0EC"/>
<path d="M52.42 5.65001L62.73 4.38L63.86 13.61C64.08 15.42 62.8 17.07 60.99 17.29L59.95 17.42C59.44 17.48 59.08 17.94 59.14 18.45L59.25 19.38C59.42 20.77 58.43 22.04 57.04 22.21C55.65 22.38 54.39 21.39 54.21 20.01L52.41 5.65001H52.42Z" fill="#FADDDC"/>
<path d="M60.57 14.33L61.19 14.25C61.75 14.18 62.15 13.67 62.08 13.11L61.71 10.06C61.68 9.83001 61.47 9.66001 61.24 9.69001C61.01 9.72001 60.84 9.93001 60.87 10.16L61.19 12.8C61.23 13.12 61 13.4 60.69 13.44L60.47 13.47C60.24 13.5 60.07 13.71 60.1 13.94C60.13 14.17 60.34 14.34 60.57 14.31V14.33Z" fill="#E0B1BB"/>
<path d="M51.99 10.4L51.51 6.52C51.41 5.67 52.01 4.89 52.86 4.79L53.79 4.68L53.59 3.03L57.79 2.51C58.15 1.34 59.28 0.480002 60.66 0.620002C61.69 0.720002 62.61 1.45 62.93 2.44C63.46 4.03 62.47 5.6 60.96 5.94V5.97L59.29 6.18L55.18 6.68C54.53 6.76 54.07 7.35 54.15 8L54.37 9.79C54.46 10.55 53.92 11.25 53.16 11.34H53.15C53.15 11.34 53.15 11.34 53.14 11.34L53.38 13.3L52.36 13.42L51.99 10.4Z" fill="#3E2967"/>
<path d="M60.22 14.37L61.55 14.21C62.13 14.14 62.66 14.55 62.73 15.13L62.75 15.3L61.48 15.04C61.27 15 61.06 15.02 60.86 15.1L59.32 15.73L59.3 15.56C59.23 14.98 59.64 14.45 60.22 14.38V14.37Z" fill="#3E2967"/>
<path d="M61.09 16.7C61.25 16.64 61.43 16.63 61.6 16.67L62.19 16.81L62.21 16.98C62.28 17.56 61.87 18.09 61.29 18.16H61.2C60.62 18.24 60.09 17.83 60.02 17.25L60 17.08L61.09 16.7Z" fill="#3E2967"/>
<path d="M58.36 10.43C58.4 10.74 58.18 11.01 57.87 11.05C57.56 11.09 57.29 10.87 57.25 10.56C57.21 10.25 57.43 9.98 57.74 9.94C58.05 9.9 58.32 10.12 58.36 10.43Z" fill="#757570"/>
<path d="M71.1572 59.1445C70.5948 60.9264 71.5723 62.8319 73.3631 63.4062C74.8312 63.8689 76.3798 63.294 77.1968 62.0801C77.3734 61.8202 77.5235 61.5245 77.6232 61.2107C77.8652 60.4411 78.0863 59.6684 78.2749 58.9014L71.5159 57.947C71.4037 58.3438 71.2901 58.7509 71.1676 59.146L71.1572 59.1445Z" fill="#FADDDC"/>
<path d="M64.0065 21.2722C62.5845 22.4914 62.4143 24.6286 63.6335 26.0506C63.7601 26.1967 76.1132 40.9711 71.5054 57.9455L78.2644 58.8999C83.2529 38.8019 69.3989 22.3621 68.7849 21.6452C67.5658 20.2231 65.4373 20.0649 64.0153 21.2841L64.0065 21.2722Z" fill="#633CA0"/>
</g>
<defs>
<clipPath id="clip0_1208_2104">
<rect width="45.61" height="108.88" fill="white" transform="translate(35.6 0.600006)"/>
</clipPath>
</defs>
</svg>
