<svg width="59" height="103" viewBox="0 0 59 103" fill="none" xmlns="http://www.w3.org/2000/svg">
<g clip-path="url(#clip0_134_1191)">
<path d="M56.19 43.38C57.74 43.92 58.56 45.62 58.02 47.17C57.58 48.44 56.35 49.22 55.07 49.16C54.79 49.15 54.51 49.09 54.23 49C53.56 48.77 52.91 48.51 52.27 48.24L55.16 42.99C55.5 43.12 55.84 43.25 56.19 43.38Z" fill="#FADDDC"/>
<path d="M33.3601 18.43C34.9601 18.07 36.5501 19.08 36.9101 20.68C36.9501 20.85 40.8101 37.29 55.1501 42.99L52.2601 48.24C35.5301 41.17 31.2801 22.79 31.1001 21.98C30.7501 20.38 31.7601 18.8 33.3601 18.44V18.43Z" fill="#3E2967"/>
<path d="M35.8601 52.6301L23.9901 51.05L14.9001 73.7901L1.10012 89.85L2.61012 91.1901C2.29012 91.6501 1.73012 92.3801 1.23012 92.64C0.500119 93.0201 -0.469881 93.76 0.250119 94.82L4.85012 98.9701C5.54012 99.3301 6.40012 98.39 6.11012 97.6C5.91012 97.07 5.21012 95.87 4.98012 95.3601C4.52012 94.3 5.25012 93.61 6.07012 92.59C10.9801 86.51 21.9601 77.52 21.9601 77.52L35.8501 52.62L35.8601 52.6301Z" fill="#56564C"/>
<path d="M38.9199 51.95H23.9299L38.9599 76.2399L44.1999 98.6299L46.1899 98.5199L46.9199 100.3C47.6499 102.29 47.6899 103.11 49.2999 102.52L53.2599 101.45C53.9899 101.18 53.9799 100.2 53.1899 99.8899C52.6699 99.68 51.8399 99.58 51.2899 99.5C49.2299 99.2099 49.6499 97.85 49.4499 96.55C48.2299 88.83 47.9499 82.69 46.4699 74.87C45.6299 70.39 38.9299 51.9599 38.9299 51.9599L38.9199 51.95Z" fill="#757570"/>
<path d="M41.42 51.95H22.95C21.99 51.95 21.23 51.12 21.32 50.16L23.65 25.95C23.65 21.79 26.06 18.41 29.59 18.41H33.94C35.44 18.41 36.86 19.17 37.64 20.45C43.31 29.71 41.42 51.96 41.42 51.96V51.95Z" fill="#502489"/>
<path d="M18.7001 51.52C18.9201 53.15 17.7701 54.64 16.1401 54.86C14.8001 55.04 13.5501 54.3 13.0301 53.12C12.9201 52.87 12.8401 52.59 12.8001 52.3C12.7101 51.59 12.6401 50.9 12.5901 50.21L18.5701 50.43C18.6001 50.79 18.6401 51.16 18.6901 51.52H18.7001Z" fill="#FADDDC"/>
<path d="M30.7 19.91C31.74 21.18 31.55 23.05 30.29 24.09C30.16 24.2 17.21 35.05 18.59 50.42L12.61 50.2C11.39 32.08 25.89 20.01 26.53 19.48C27.8 18.44 29.67 18.63 30.71 19.9L30.7 19.91Z" fill="#502489"/>
<path d="M29.79 4.06995H40.18V13.3699C40.18 15.1899 38.7 16.6699 36.88 16.6699H35.83C35.32 16.6699 34.9 17.0799 34.9 17.5999V18.5099C34.9 19.6699 33.66 20.3999 32.64 19.8499L29.99 18.4099L29.78 4.06995H29.79Z" fill="#FADDDC"/>
<path d="M39.4899 13.8L40.0899 13.63C40.6299 13.48 40.9499 12.91 40.7999 12.37L39.9699 9.41002C39.9099 9.18002 39.6699 9.05002 39.4499 9.12002C39.2299 9.19002 39.0899 9.42002 39.1599 9.64002L39.8799 12.2C39.9699 12.51 39.7899 12.83 39.4799 12.91L39.2699 12.97C39.0399 13.03 38.9099 13.27 38.9799 13.49C39.0499 13.71 39.2799 13.85 39.4999 13.78L39.4899 13.8Z" fill="#E0B1BB"/>
<path d="M28.79 8.72002V4.81002C28.79 3.95002 29.48 3.26002 30.34 3.26002H31.28V1.60002H35.51C36.04 0.430024 37.35 -0.299976 38.78 0.120024C39.64 0.370024 40.33 1.07002 40.57 1.93002C41.05 3.66002 39.85 5.22002 38.24 5.38002V5.41002H36.55H34.93C34.27 5.41002 33.74 5.94002 33.74 6.60002V8.40002C33.74 9.17002 33.12 9.79002 32.35 9.79002L31.04 9.89002L31.18 9.79002L31.03 13.79L30.48 13.77C29.54 13.73 28.79 12.95 28.79 12.01V8.73002V8.72002Z" fill="#3E2967"/>
<path d="M39.41 13.77L39.97 13.65C40.28 13.99 40.29 14.1 40.29 14.68L39.93 14.57C39.73 14.5 39.51 14.5 39.31 14.55L37.71 14.98L38 14.49C38.4 14.01 38.83 13.77 39.41 13.77Z" fill="#3E2967"/>
<path d="M38.6401 16.08C38.8101 16.04 39.1201 15.77 39.1201 15.77C39.4801 16.11 39.1801 16.93 38.2101 17.32C38.2101 17.32 36.8701 17.24 36.8701 16.67L37.6901 16.29L38.6301 16.09L38.6401 16.08Z" fill="#3E2967"/>
<path d="M38.0399 9.37006C38.0399 9.68006 37.7899 9.93006 37.4799 9.93006C37.1699 9.93006 36.9199 9.68006 36.9199 9.37006C36.9199 9.06006 37.1699 8.81006 37.4799 8.81006C37.7899 8.81006 38.0399 9.06006 38.0399 9.37006Z" fill="#757570"/>
<path d="M32.1999 31.11V31.2C32.1299 31.59 32.1199 31.89 32.1699 32.09C32.1799 32.15 32.2199 32.21 32.2699 32.26C32.2399 32.28 32.1899 32.31 32.0999 32.37C32.0599 32.4 32.0199 32.41 31.9799 32.42C31.8999 32.42 31.8399 32.38 31.8099 32.27C31.7599 32.05 31.7799 31.7 31.8799 31.22L31.9099 31.09H31.8199C31.6199 31.12 31.4799 31.17 31.3899 31.26C31.3899 30.98 31.4999 30.84 31.7499 30.81H31.9799L32.0099 30.7C32.1099 30.3 32.2699 29.77 32.5099 29.1C32.5899 28.87 32.6499 28.73 32.7099 28.67C32.7599 28.61 32.8799 28.55 33.0499 28.49C33.0799 28.78 33.1299 29.05 33.1899 29.3C33.3499 29.96 33.5699 30.62 33.8399 31.29C33.9899 31.66 34.1499 31.89 34.2999 31.98C34.2199 32.14 34.1399 32.22 34.0599 32.23C33.8699 32.25 33.6199 31.83 33.3099 30.96C33.1199 31.01 32.9199 31.04 32.7199 31.06L32.2299 31.09L32.1999 31.11ZM32.2599 30.82L32.6299 30.8C32.8799 30.78 33.0699 30.75 33.1899 30.72C32.9999 30.16 32.8599 29.7 32.7699 29.33L32.7299 29.15C32.7099 29.22 32.6499 29.37 32.5699 29.61C32.4199 30.04 32.3199 30.41 32.2799 30.73L32.2599 30.83V30.82Z" fill="#F1F0EC"/>
<path d="M36.32 29.96C36.22 30.61 36.09 31.13 35.93 31.51C35.77 31.89 35.59 32.0901 35.39 32.1101C35.25 32.1201 35.12 32.06 35 31.92C34.88 31.78 34.79 31.6001 34.73 31.3601C34.7 31.2301 34.67 31.04 34.65 30.8L34.43 28.3601C34.43 28.3601 34.35 28.38 34.31 28.39C34.03 28.41 33.86 28.27 33.78 27.96V27.9C33.94 28 34.11 28.0401 34.29 28.0201C34.47 28.0001 34.62 27.93 34.72 27.8L35 30.73C35.02 30.99 35.05 31.1701 35.07 31.2701C35.14 31.5401 35.24 31.67 35.39 31.66C35.54 31.65 35.65 31.53 35.75 31.3C35.84 31.07 35.97 30.59 36.13 29.85L36.31 29.97L36.32 29.96Z" fill="#F1F0EC"/>
<path d="M37.78 30.12C37.82 30.2 37.84 30.28 37.86 30.36C37.96 30.76 37.94 31.12 37.8 31.44C37.66 31.76 37.45 31.93 37.16 31.95C36.95 31.97 36.76 31.9 36.59 31.74C36.42 31.58 36.3 31.38 36.24 31.11C36.19 30.92 36.16 30.64 36.12 30.28L35.93 28.21C35.87 28.23 35.82 28.24 35.78 28.25C35.52 28.27 35.35 28.1 35.26 27.74C35.36 27.83 35.5 27.87 35.67 27.86C35.82 27.85 36.01 27.78 36.23 27.65L36.49 30.54C36.51 30.74 36.54 30.91 36.57 31.05C36.62 31.25 36.69 31.4 36.8 31.52C36.91 31.64 37.02 31.69 37.15 31.68C37.34 31.66 37.47 31.54 37.55 31.29C37.63 31.05 37.63 30.77 37.55 30.44C37.51 30.28 37.45 30.12 37.38 29.98C37.21 29.93 37.07 29.85 36.95 29.75C36.83 29.65 36.75 29.55 36.73 29.45C36.72 29.39 36.72 29.32 36.73 29.23C37.06 29.23 37.35 29.4 37.61 29.73C37.79 29.82 37.97 29.85 38.14 29.84C38.31 29.83 38.48 29.74 38.63 29.58L38.77 29.77C38.61 30 38.4 30.13 38.14 30.15C38.02 30.16 37.9 30.15 37.79 30.12H37.78Z" fill="#F1F0EC"/>
<path d="M38.84 30.72C38.95 31.19 39.16 31.41 39.46 31.38C39.72 31.36 39.96 31.17 40.2 30.81C40.43 30.45 40.61 30 40.73 29.44L40.91 29.54C40.82 30.15 40.63 30.66 40.34 31.08C40.06 31.5 39.74 31.72 39.41 31.75C39.19 31.77 39 31.69 38.83 31.52C38.66 31.35 38.54 31.1 38.46 30.77C38.35 30.31 38.37 29.9 38.51 29.55C38.66 29.2 38.89 29.01 39.21 28.98C39.36 28.97 39.5 29.01 39.62 29.1C39.74 29.2 39.82 29.33 39.86 29.51C39.93 29.8 39.86 30.06 39.65 30.31C39.44 30.56 39.17 30.69 38.84 30.72ZM38.8 30.49C39.05 30.45 39.24 30.34 39.38 30.15C39.52 29.96 39.56 29.75 39.5 29.52C39.45 29.32 39.36 29.22 39.22 29.23C39.06 29.24 38.93 29.37 38.85 29.62C38.77 29.87 38.75 30.16 38.8 30.49Z" fill="#F1F0EC"/>
</g>
<defs>
<clipPath id="clip0_134_1191">
<rect width="58.18" height="102.7" fill="white"/>
</clipPath>
</defs>
</svg>
