<svg width="110" height="110" viewBox="0 0 110 110" fill="none" xmlns="http://www.w3.org/2000/svg">
<g clip-path="url(#clip0_1208_1916)">
<path d="M70.88 57.22H44.15L49.18 103.68L52.51 103.21C52.6 104.08 52.36 105.39 51.41 106.16C50.88 106.59 50.32 106.98 49.79 107.41C49.17 107.92 49.49 109.05 50.26 109.05L55.25 108.03C57.49 107.56 57.18 105.98 56.74 104.76C56.45 103.95 55.98 102.55 55.98 102.55L57.03 102.25L56.75 64.82H58.28C58.28 64.82 61.11 85.33 61.36 86.2C61.71 87.45 63.12 87.27 63.61 86.34C64.03 85.54 64.45 82.27 64.53 81.63L66.23 81.28C67.8 80.96 68.98 79.64 69.11 78.04L70.89 57.22H70.88Z" fill="#5B6D5B"/>
<path d="M72.12 49.31C71.85 50.68 72.74 52.01 74.11 52.28C75.24 52.5 76.34 51.94 76.84 50.98C76.95 50.77 77.03 50.54 77.08 50.3C77.2 49.71 77.29 49.12 77.37 48.54L72.28 48.4C72.23 48.71 72.18 49.01 72.12 49.32V49.31Z" fill="#FADDDC"/>
<path d="M63.68 21.82C62.73 22.84 62.78 24.44 63.8 25.39C63.91 25.49 74.29 35.42 72.28 48.39L77.37 48.53C79.4 33.21 67.76 22.17 67.25 21.69C66.23 20.74 64.63 20.8 63.68 21.82Z" fill="#502489"/>
<path d="M72.44 59.97L42.56 60.08L43 34.92C43 30.76 41.5 20 51.36 19.71H62.02C66.18 19.71 70.9 23.26 70.9 31.29L72.44 59.96V59.97Z" fill="#633CA0"/>
<path d="M50.88 32.84L50.84 32.92C50.66 33.25 50.57 33.5 50.57 33.69C50.57 33.74 50.59 33.8 50.63 33.85C50.6 33.86 50.52 33.89 50.4 33.93C50.35 33.95 50.29 33.96 50.24 33.96C50.14 33.96 50.09 33.91 50.09 33.82C50.09 33.63 50.21 33.33 50.45 32.93L50.52 32.82H50.41C50.18 32.82 50 32.86 49.88 32.93C49.95 32.69 50.12 32.57 50.41 32.57H50.67L50.73 32.49C50.95 32.16 51.29 31.71 51.74 31.15C51.89 30.96 52.01 30.84 52.08 30.8C52.16 30.75 52.3 30.71 52.52 30.67C52.48 30.92 52.46 31.16 52.46 31.37C52.46 31.95 52.53 32.53 52.66 33.12C52.73 33.44 52.84 33.65 52.99 33.75C52.86 33.88 52.75 33.95 52.65 33.95C52.43 33.95 52.26 33.57 52.14 32.81C51.91 32.84 51.68 32.85 51.44 32.85H50.87L50.88 32.84ZM51.03 32.6H51.45C51.74 32.61 51.96 32.6 52.12 32.58C52.06 32.09 52.02 31.68 52.02 31.36V31.2C51.98 31.26 51.87 31.39 51.71 31.58C51.42 31.94 51.2 32.25 51.07 32.52L51.03 32.6Z" fill="#F1F0EC"/>
<path d="M55.91 32.16C55.62 32.71 55.33 33.14 55.04 33.46C54.75 33.77 54.49 33.93 54.26 33.93C54.1 33.93 53.96 33.87 53.86 33.74C53.76 33.61 53.71 33.45 53.71 33.24C53.71 33.13 53.73 32.96 53.77 32.75L54.19 30.64C54.14 30.64 54.09 30.65 54.05 30.65C53.73 30.65 53.57 30.52 53.57 30.25V30.2C53.74 30.3 53.93 30.34 54.14 30.34C54.35 30.34 54.54 30.29 54.7 30.18L54.21 32.71C54.17 32.94 54.15 33.09 54.15 33.18C54.15 33.42 54.24 33.53 54.41 33.53C54.58 33.53 54.75 33.43 54.92 33.25C55.09 33.06 55.37 32.65 55.76 32.04L55.93 32.16H55.91Z" fill="#F1F0EC"/>
<path d="M57.53 32.41C57.55 32.48 57.56 32.55 57.56 32.62C57.56 32.97 57.44 33.28 57.19 33.54C56.94 33.8 56.65 33.93 56.32 33.93C56.08 33.93 55.88 33.86 55.72 33.71C55.57 33.56 55.49 33.38 55.49 33.15C55.49 32.98 55.52 32.74 55.58 32.43L55.93 30.65C55.86 30.66 55.8 30.67 55.75 30.67C55.45 30.67 55.3 30.51 55.3 30.2C55.39 30.29 55.54 30.33 55.74 30.33C55.92 30.33 56.15 30.28 56.44 30.19L55.94 32.68C55.91 32.85 55.89 33 55.89 33.13C55.89 33.3 55.94 33.44 56.03 33.55C56.12 33.66 56.24 33.71 56.39 33.71C56.61 33.71 56.8 33.61 56.95 33.41C57.1 33.21 57.18 32.97 57.18 32.69C57.18 32.55 57.16 32.41 57.11 32.28C56.93 32.22 56.79 32.15 56.68 32.05C56.57 31.96 56.51 31.86 56.51 31.77C56.51 31.72 56.53 31.66 56.57 31.58C56.95 31.61 57.24 31.77 57.43 32.07C57.61 32.16 57.8 32.2 58.01 32.2C58.22 32.2 58.43 32.14 58.64 32.01L58.75 32.18C58.51 32.36 58.23 32.46 57.93 32.46C57.79 32.46 57.66 32.44 57.53 32.41Z" fill="#F1F0EC"/>
<path d="M58.58 33C58.58 33.41 58.75 33.61 59.1 33.61C59.4 33.61 59.73 33.47 60.1 33.18C60.46 32.89 60.79 32.52 61.08 32.05L61.26 32.15C60.99 32.66 60.63 33.09 60.19 33.42C59.75 33.76 59.33 33.92 58.94 33.92C58.69 33.92 58.49 33.84 58.34 33.68C58.19 33.52 58.12 33.3 58.12 33.01C58.12 32.6 58.25 32.26 58.52 31.97C58.79 31.68 59.11 31.54 59.48 31.54C59.66 31.54 59.81 31.59 59.91 31.68C60.02 31.77 60.07 31.89 60.07 32.05C60.07 32.3 59.92 32.52 59.62 32.72C59.32 32.92 58.97 33.01 58.58 33.01V33ZM58.6 32.8C58.89 32.78 59.14 32.7 59.35 32.55C59.56 32.4 59.66 32.22 59.66 32.02C59.66 31.84 59.58 31.75 59.42 31.75C59.23 31.75 59.05 31.85 58.89 32.06C58.73 32.26 58.63 32.51 58.59 32.8H58.6Z" fill="#F1F0EC"/>
<path d="M61.19 33.86C61.09 33.91 61.02 33.93 60.96 33.93C60.82 33.93 60.74 33.87 60.74 33.74C60.74 33.68 60.77 33.52 60.82 33.26L60.93 32.74C60.99 32.43 61.03 32.2 61.03 32.05C61.03 31.97 61.01 31.9 60.96 31.85C61.11 31.8 61.23 31.77 61.32 31.77C61.42 31.77 61.47 31.83 61.47 31.96C61.47 32.04 61.44 32.24 61.37 32.57L61.25 33.18C61.51 32.67 61.78 32.27 62.05 31.98C62.32 31.69 62.56 31.55 62.78 31.55C62.86 31.55 62.92 31.57 62.98 31.62C63.04 31.66 63.06 31.72 63.06 31.78C63.06 31.88 62.95 32.01 62.74 32.17C62.69 32.06 62.61 32 62.51 32C62.33 32 62.11 32.19 61.83 32.57C61.66 32.81 61.51 33.05 61.38 33.3C61.25 33.55 61.19 33.73 61.19 33.83V33.87V33.86Z" fill="#F1F0EC"/>
<path d="M64.6 33.05C64.64 33.12 64.66 33.18 64.66 33.23C64.66 33.37 64.54 33.52 64.31 33.69C64.08 33.86 63.87 33.94 63.68 33.94C63.51 33.94 63.37 33.87 63.27 33.71C63.16 33.56 63.11 33.37 63.11 33.13C63.11 32.87 63.18 32.49 63.32 32L63.42 31.65H63.06C62.91 31.65 62.79 31.67 62.71 31.71C62.79 31.56 62.86 31.47 62.91 31.43C62.96 31.39 63.05 31.37 63.18 31.37H63.5L63.54 31.22C63.6 31 63.68 30.85 63.77 30.77C63.86 30.69 63.99 30.65 64.17 30.65C64.19 30.65 64.22 30.65 64.27 30.65C64.16 30.79 64.05 31.03 63.93 31.36H65.04C65.23 31.36 65.38 31.33 65.49 31.28C65.46 31.42 65.41 31.52 65.35 31.56C65.29 31.6 65.18 31.63 65.03 31.63H63.85C63.85 31.63 63.83 31.71 63.82 31.73C63.65 32.31 63.57 32.74 63.57 33.04C63.57 33.36 63.69 33.53 63.92 33.53C64.04 33.53 64.17 33.48 64.31 33.38C64.45 33.28 64.55 33.16 64.61 33.03L64.6 33.05Z" fill="#F1F0EC"/>
<path d="M54.19 5.07001H64.58V14.37C64.58 16.19 63.1 17.67 61.28 17.67H60.23C59.72 17.67 59.3 18.08 59.3 18.6V19.54C59.3 20.94 58.16 22.08 56.76 22.08C55.36 22.08 54.22 20.95 54.22 19.55L54.18 5.08001L54.19 5.07001Z" fill="#FADDDC"/>
<path d="M61.22 14.67H61.85C62.41 14.67 62.87 14.21 62.87 13.65V10.58C62.87 10.35 62.68 10.16 62.45 10.16C62.22 10.16 62.03 10.35 62.03 10.58V13.24C62.03 13.56 61.77 13.82 61.45 13.82H61.23C61 13.82 60.81 14.01 60.81 14.24C60.81 14.47 61 14.66 61.23 14.66L61.22 14.67Z" fill="#E0B1BB"/>
<path d="M53.18 9.71999V5.80999C53.18 4.94999 53.87 4.25999 54.73 4.25999H55.67V2.59999H59.9C60.4 1.48999 61.63 0.769994 62.98 1.06999C63.99 1.28999 64.81 2.12999 65.01 3.14999C65.34 4.79999 64.17 6.22999 62.63 6.37999V6.40999H60.94H56.8C56.14 6.40999 55.61 6.93999 55.61 7.59999V9.39999C55.61 10.17 54.99 10.79 54.22 10.79H54.21C54.21 10.79 54.21 10.79 54.2 10.79V12.77H53.18V9.72999V9.71999Z" fill="#3E2967"/>
<path d="M60.86 14.67H62.2C62.78 14.67 63.26 15.14 63.26 15.73V15.9L62.03 15.48C61.83 15.41 61.61 15.41 61.41 15.46L59.81 15.89V15.72C59.81 15.14 60.28 14.66 60.87 14.66L60.86 14.67Z" fill="#3E2967"/>
<path d="M61.44 17.08C61.61 17.04 61.78 17.06 61.95 17.11L62.52 17.32V17.49C62.52 18.07 62.05 18.55 61.46 18.55H61.37C60.79 18.55 60.31 18.08 60.31 17.49V17.32L61.44 17.08Z" fill="#3E2967"/>
<path d="M59.5 10.53C59.5 10.84 59.25 11.09 58.94 11.09C58.63 11.09 58.38 10.84 58.38 10.53C58.38 10.22 58.63 9.97 58.94 9.97C59.25 9.97 59.5 10.22 59.5 10.53Z" fill="#5B6D5B"/>
<path d="M44.4717 58.8945C45.1238 60.6277 44.2 62.5445 42.3855 63.1825C40.8976 63.6974 39.2836 63.1932 38.3939 62.0299C38.2017 61.7809 38.0353 61.4956 37.9197 61.1905C37.6391 60.4419 37.3796 59.6894 37.1539 58.9412L44.0532 57.729C44.185 58.1154 44.3188 58.512 44.4611 58.8964L44.4717 58.8945Z" fill="#FADDDC"/>
<path d="M50.2262 21.2899C51.7372 22.434 52.0014 24.5331 50.8093 25.9833C50.6854 26.1323 38.6218 41.1868 44.0638 57.7271L37.1645 58.9393C31.1987 39.3264 44.7335 22.5705 45.3338 21.8394C46.526 20.3892 48.7045 20.1477 50.2156 21.2918L50.2262 21.2899Z" fill="#633CA0"/>
</g>
<defs>
<clipPath id="clip0_1208_1916">
<rect width="45.61" height="108.05" fill="white" transform="translate(32 1)"/>
</clipPath>
</defs>
</svg>
