<svg width="110" height="110" viewBox="0 0 110 110" fill="none" xmlns="http://www.w3.org/2000/svg">
<g clip-path="url(#clip0_1208_1886)">
<path d="M38.53 57.79C38.87 59.63 37.59 61.46 35.68 61.87C34.11 62.21 32.59 61.48 31.91 60.19C31.76 59.91 31.65 59.6 31.59 59.27C31.44 58.47 31.33 57.68 31.24 56.9L38.34 56.55C38.4 56.96 38.46 57.37 38.54 57.79H38.53Z" fill="#FADDDC"/>
<path d="M44.68 56.6L69.34 56.71L64.12 99.14C64.12 99.14 61.53 100.85 61.52 100.91C61.31 102.27 61.52 103.42 63.53 102.15C64.11 101.78 64.57 101.76 65.1 102.24C65.73 102.81 65.25 104.47 64.69 105.36L59.74 109.3C59.15 109.77 58.28 109.82 57.73 109.3C56.88 108.52 57.12 107.27 57.48 106.26C58.85 102.34 58.43 101.89 58.43 101.89L57.66 102.15C57.16 102.32 56.66 101.93 56.7 101.41C57.1 96.26 58.12 69.82 58.3 65.07C58.32 64.67 58 64.33 57.6 64.32L56.54 64.3C56.22 64.3 55.91 64.52 55.91 64.84C55.88 71.2 55.8 81.17 55.71 81.17C55.71 81.17 55.24 85.42 54.99 86.39C54.64 87.77 53.22 87.58 52.73 86.55C52.31 85.66 52.19 82.94 52.11 82.23H49.93L44.68 56.59V56.6Z" fill="#5B6D5B"/>
<path d="M59.12 14.67H54.51V18.02H59.12V14.67Z" fill="#FADDDC"/>
<path d="M62.02 11.03H61.46V8.48C61.46 8.07 61.79 7.73 62.21 7.73H62.51C62.92 7.73 63.26 8.06 63.26 8.48L62.91 10.15C62.91 10.64 62.52 11.03 62.03 11.03H62.02Z" fill="#FADDDC"/>
<path d="M50.9 11.03H51.46V8.48C51.46 8.07 51.13 7.73 50.71 7.73H50.41C50 7.73 49.66 8.06 49.66 8.48L50.01 10.15C50.01 10.64 50.4 11.03 50.89 11.03H50.9Z" fill="#FADDDC"/>
<path d="M58.47 1.77999C57.09 1.50999 55.23 1.47999 53.2 2.76999C51.34 3.94999 50.62 5.76999 50.62 7.21999C50.62 8.66999 50.65 8.81999 50.9 9.79999C51.15 10.78 52.2 14.06 54.23 15.37C55.2 16 57.79 16.38 59.09 15.37C60.39 14.36 61.52 13.04 61.84 10.96C62.16 8.87999 62.18 8.49999 62.53 7.51999C62.88 6.53999 62.56 5.12999 62.43 4.58999C62.3 4.04999 61.09 2.28999 58.48 1.78999L58.47 1.77999Z" fill="#3E2967"/>
<path d="M51.08 20.38C52.38 21.73 52.26 23.89 50.81 25.21C50.66 25.35 35.9 39.09 38.33 56.55L31.23 56.9C28.85 36.27 45.38 20.98 46.11 20.32C47.56 19 49.78 19.03 51.08 20.38Z" fill="#633CA0"/>
<path d="M72.72 43C72.61 44.23 73.78 45.29 75.32 45.38C75.39 45.38 75.46 45.38 75.52 45.38C76.98 45.38 78.22 44.48 78.32 43.31C78.35 42.92 78.38 42.55 78.4 42.17H72.76C72.74 42.44 72.73 42.71 72.71 42.99L72.72 43Z" fill="#FADDDC"/>
<path d="M66.12 19C64.77 18.4 63.07 18.79 62.31 19.86C61.55 20.93 62.03 22.29 63.37 22.89C63.89 23.12 73.73 26.73 72.77 42.18H78.41C79.42 24.01 66.76 19.28 66.12 19Z" fill="#3C1F68"/>
<path d="M70.84 57.09H43.33L43.34 27.19C43.34 22.05 47.51 17.88 52.65 17.88H61.54C66.68 17.88 70.85 22.05 70.85 27.19L70.83 57.09H70.84Z" fill="#633CA0"/>
<path d="M62.26 6.89C62.26 6.89 64.13 5.24 63.41 3.65C62.69 2.06 60.17 0.68 58.8 1.07C57.43 1.46 55.72 0.91 54.57 1.45C53.42 1.99 52.04 2.6 52.21 3.81C52.38 5.02 54.19 8.42 55.07 8.7C55.95 8.98 62.27 6.89 62.27 6.89H62.26Z" fill="#3E2967"/>
</g>
<defs>
<clipPath id="clip0_1208_1886">
<rect width="47.46" height="108.67" fill="white" transform="translate(31 1)"/>
</clipPath>
</defs>
</svg>
