<svg width="110" height="110" viewBox="0 0 110 110" fill="none" xmlns="http://www.w3.org/2000/svg">
<g clip-path="url(#clip0_1208_2528)">
<path d="M47.2 58.04L63.53 58.14L45.97 81.65L38.59 104.33L35.81 103.93L34.91 105.73C33.98 107.75 33.86 108.61 32.32 107.82L28.49 106.3C27.79 105.95 27.9 104.92 28.72 104.67C29.26 104.5 30.09 104.48 30.65 104.45C32.73 104.35 32.45 102.88 32.78 101.54C34.78 93.55 35.68 87.13 37.95 79.06C39.24 74.44 47.22 58.04 47.22 58.04H47.2Z" fill="#364936"/>
<path d="M49.76 58.25L67.29 58.3L69.26 79.26L81.78 97.22L79.45 99.11C79.73 99.62 80.22 100.45 80.69 100.77C81.38 101.24 82.28 102.11 81.47 103.16L76.51 107.06C75.79 107.37 75.02 106.3 75.38 105.49C75.62 104.96 76.44 103.76 76.71 103.24C77.26 102.18 76.6 101.37 75.88 100.22C71.55 93.34 61.44 82.8 61.44 82.8L49.76 58.24V58.25Z" fill="#5B6D5B"/>
<path d="M79.3815 49.741C79.6208 51.367 81.1376 52.4902 82.7636 52.2509C84.0966 52.0483 85.0931 50.9972 85.2738 49.7268C85.3153 49.4533 85.3102 49.1618 85.2698 48.8781C85.1672 48.1736 85.0351 47.4898 84.89 46.8118L79.1949 48.6716C79.2602 49.0293 79.3255 49.387 79.3872 49.754L79.3815 49.741Z" fill="#FADDDC"/>
<path d="M59.1412 22.6605C58.4933 24.1683 59.189 25.9173 60.6932 26.5745C60.8517 26.6358 76.2814 33.508 79.1985 48.6623L84.8936 46.8024C81.0651 29.0436 63.8054 21.4418 63.0422 21.1143C61.5344 20.4664 59.7948 21.1657 59.1376 22.6698L59.1412 22.6605Z" fill="#3C1F68"/>
<path d="M44.81 59.13L67.88 58.97C68.84 58.97 69.6 58.14 69.51 57.18C69.51 57.18 68.84 35.81 67.36 27.5C66.45 22.39 66.34 20.74 58.57 18.42H54.22C52.72 18.42 51.3 19.18 50.52 20.46C44.85 29.72 44.81 59.15 44.81 59.15V59.13Z" fill="#633CA0"/>
<path d="M58.37 4.07H47.98V13.37C47.98 15.19 49.46 16.67 51.28 16.67H52.33C52.84 16.67 53.26 17.08 53.26 17.6V18.51C53.26 19.67 54.5 20.4 55.52 19.85L58.17 18.41L58.38 4.07H58.37Z" fill="#FADDDC"/>
<path d="M48.66 13.8L48.06 13.63C47.52 13.48 47.2 12.91 47.35 12.37L48.18 9.41C48.24 9.18 48.48 9.05 48.7 9.12C48.92 9.19 49.06 9.42 48.99 9.64L48.27 12.2C48.18 12.51 48.36 12.83 48.67 12.91L48.88 12.97C49.11 13.03 49.24 13.27 49.17 13.49C49.1 13.71 48.87 13.85 48.65 13.78L48.66 13.8Z" fill="#E0B1BB"/>
<path d="M59.37 8.72V4.81C59.37 3.95 58.68 3.26 57.82 3.26H56.88V1.6H52.65C52.12 0.43 50.81 -0.3 49.38 0.12C48.52 0.37 47.83 1.07 47.59 1.93C47.11 3.66 48.31 5.22 49.92 5.38V5.41H51.61H53.23C53.89 5.41 54.42 5.94 54.42 6.6V8.4C54.42 9.17 55.04 9.79 55.81 9.79L57.12 9.89L56.98 9.79L57.13 13.79L57.68 13.77C58.62 13.73 59.37 12.95 59.37 12.01V8.73V8.72Z" fill="#3E2967"/>
<path d="M48.75 13.77L48.19 13.65C47.88 13.99 47.87 14.1 47.87 14.68L48.23 14.57C48.43 14.5 48.65 14.5 48.85 14.55L50.45 14.98L50.16 14.49C49.76 14.01 49.33 13.77 48.75 13.77Z" fill="#3E2967"/>
<path d="M49.51 16.08C49.34 16.04 49.03 15.77 49.03 15.77C48.67 16.11 48.97 16.93 49.94 17.32C49.94 17.32 51.28 17.24 51.28 16.67L50.46 16.29L49.52 16.09L49.51 16.08Z" fill="#3E2967"/>
<path d="M50.12 9.37C50.12 9.68 50.37 9.93 50.68 9.93C50.99 9.93 51.24 9.68 51.24 9.37C51.24 9.06 50.99 8.81 50.68 8.81C50.37 8.81 50.12 9.06 50.12 9.37Z" fill="#757570"/>
<path d="M55.96 31.11V31.2C56.03 31.59 56.04 31.89 55.99 32.09C55.98 32.15 55.94 32.21 55.89 32.26C55.92 32.28 55.97 32.31 56.06 32.37C56.1 32.4 56.14 32.41 56.18 32.42C56.26 32.42 56.32 32.38 56.35 32.27C56.4 32.05 56.38 31.7 56.28 31.22L56.25 31.09H56.34C56.54 31.12 56.68 31.17 56.77 31.26C56.77 30.98 56.66 30.84 56.41 30.81H56.18L56.15 30.7C56.05 30.3 55.89 29.77 55.65 29.1C55.57 28.87 55.51 28.73 55.45 28.67C55.4 28.61 55.28 28.55 55.11 28.49C55.08 28.78 55.03 29.05 54.97 29.3C54.81 29.96 54.59 30.62 54.32 31.29C54.17 31.66 54.01 31.89 53.86 31.98C53.94 32.14 54.02 32.22 54.1 32.23C54.29 32.25 54.54 31.83 54.85 30.96C55.04 31.01 55.24 31.04 55.44 31.06L55.93 31.09L55.96 31.11ZM55.9 30.82L55.53 30.8C55.28 30.78 55.09 30.75 54.97 30.72C55.16 30.16 55.3 29.7 55.39 29.33L55.43 29.15C55.45 29.22 55.51 29.37 55.59 29.61C55.74 30.04 55.84 30.41 55.88 30.73L55.9 30.83V30.82Z" fill="#F1F0EC"/>
<path d="M51.83 29.96C51.93 30.61 52.06 31.13 52.22 31.51C52.38 31.89 52.56 32.09 52.76 32.11C52.9 32.12 53.03 32.06 53.15 31.92C53.27 31.78 53.36 31.6 53.42 31.36C53.45 31.23 53.48 31.04 53.5 30.8L53.72 28.36C53.72 28.36 53.8 28.38 53.84 28.39C54.12 28.41 54.29 28.27 54.37 27.96V27.9C54.21 28 54.04 28.04 53.86 28.02C53.68 28 53.53 27.93 53.43 27.8L53.15 30.73C53.13 30.99 53.1 31.17 53.08 31.27C53.01 31.54 52.91 31.67 52.76 31.66C52.61 31.65 52.5 31.53 52.4 31.3C52.31 31.07 52.18 30.59 52.02 29.85L51.84 29.97L51.83 29.96Z" fill="#F1F0EC"/>
<path d="M50.38 30.12C50.34 30.2 50.32 30.28 50.3 30.36C50.2 30.76 50.22 31.12 50.36 31.44C50.5 31.76 50.71 31.93 51 31.95C51.21 31.97 51.4 31.9 51.57 31.74C51.74 31.58 51.86 31.38 51.92 31.11C51.97 30.92 52 30.64 52.04 30.28L52.23 28.21C52.29 28.23 52.34 28.24 52.38 28.25C52.64 28.27 52.81 28.1 52.9 27.74C52.8 27.83 52.66 27.87 52.49 27.86C52.34 27.85 52.15 27.78 51.93 27.65L51.67 30.54C51.65 30.74 51.62 30.91 51.59 31.05C51.54 31.25 51.47 31.4 51.36 31.52C51.25 31.64 51.14 31.69 51.01 31.68C50.82 31.66 50.69 31.54 50.61 31.29C50.53 31.05 50.53 30.77 50.61 30.44C50.65 30.28 50.71 30.12 50.78 29.98C50.95 29.93 51.09 29.85 51.21 29.75C51.33 29.65 51.41 29.55 51.43 29.45C51.44 29.39 51.44 29.32 51.43 29.23C51.1 29.23 50.81 29.4 50.55 29.73C50.37 29.82 50.19 29.85 50.02 29.84C49.85 29.83 49.68 29.74 49.53 29.58L49.39 29.77C49.55 30 49.76 30.13 50.02 30.15C50.14 30.16 50.26 30.15 50.37 30.12H50.38Z" fill="#F1F0EC"/>
<path d="M49.31 30.72C49.2 31.19 48.99 31.41 48.69 31.38C48.43 31.36 48.19 31.17 47.95 30.81C47.72 30.45 47.54 30 47.42 29.44L47.24 29.54C47.33 30.15 47.52 30.66 47.81 31.08C48.09 31.5 48.41 31.72 48.74 31.75C48.96 31.77 49.15 31.69 49.32 31.52C49.49 31.35 49.61 31.1 49.69 30.77C49.8 30.31 49.78 29.9 49.64 29.55C49.49 29.2 49.26 29.01 48.94 28.98C48.79 28.97 48.65 29.01 48.53 29.1C48.41 29.2 48.33 29.33 48.29 29.51C48.22 29.8 48.29 30.06 48.5 30.31C48.71 30.56 48.98 30.69 49.31 30.72ZM49.35 30.49C49.1 30.45 48.91 30.34 48.77 30.15C48.63 29.96 48.59 29.75 48.65 29.52C48.7 29.32 48.79 29.22 48.93 29.23C49.09 29.24 49.22 29.37 49.3 29.62C49.38 29.87 49.4 30.16 49.35 30.49Z" fill="#F1F0EC"/>
<path d="M32.16 41.47C30.52 41.45 29.17 42.77 29.16 44.42C29.15 45.77 30.04 46.92 31.26 47.29C31.53 47.37 31.81 47.42 32.1 47.42C32.81 47.42 33.51 47.41 34.2 47.37L33.25 41.46C32.89 41.47 32.52 41.48 32.15 41.48L32.16 41.47Z" fill="#FADDDC"/>
<path d="M62.4 27.75C61.01 26.87 59.18 27.29 58.3 28.67C58.21 28.82 52.52 41.66 45.27 43.43L45.31 46.35C58.62 40.83 61.49 31.94 61.93 31.24C62.8 29.85 63.79 28.62 62.4 27.74V27.75Z" fill="#3C1F68"/>
<path d="M62.07 25.68C60.68 24.8 58.85 25.22 57.97 26.6C57.88 26.75 48.68 40.91 33.26 41.43L34.21 47.34C52.35 46.34 62.56 30.48 63 29.78C63.87 28.39 63.46 26.56 62.07 25.68Z" fill="#633CA0"/>
</g>
<defs>
<clipPath id="clip0_1208_2528">
<rect width="59.48" height="108.11" fill="white" transform="matrix(-1 0 0 1 87.5 0)"/>
</clipPath>
</defs>
</svg>
