<svg width="110" height="110" viewBox="0 0 110 110" fill="none" xmlns="http://www.w3.org/2000/svg">
<g clip-path="url(#clip0_1208_1676)">
<path d="M60.19 58.63L48.22 58.16L41.63 80.58L29.11 98.54L31.44 100.43C31.16 100.94 30.67 101.77 30.2 102.09C29.51 102.56 28.61 103.43 29.42 104.48L34.38 108.38C35.1 108.69 35.87 107.62 35.51 106.81C35.27 106.28 34.45 105.08 34.18 104.56C33.63 103.5 34.29 102.69 35.01 101.54C39.34 94.66 49.45 84.12 49.45 84.12L60.19 58.62V58.63Z" fill="#364936"/>
<path d="M63.12 57.06L43.46 57.87L64.92 82.97L72.3 105.65L75.08 105.25L75.98 107.05C76.91 109.07 77.03 109.93 78.57 109.14L82.4 107.62C83.1 107.27 82.99 106.24 82.17 105.99C81.63 105.82 80.8 105.8 80.24 105.77C78.16 105.67 78.44 104.2 78.11 102.86C76.11 94.87 75.21 88.45 72.94 80.38C71.65 75.76 63.1 57.07 63.1 57.07L63.12 57.06Z" fill="#5B6D5B"/>
<path d="M83.43 41.69C85.05 41.94 86.17 43.46 85.91 45.08C85.7 46.41 84.64 47.4 83.37 47.57C83.09 47.61 82.81 47.61 82.52 47.57C81.82 47.46 81.13 47.33 80.45 47.18L82.34 41.5C82.7 41.57 83.06 41.64 83.42 41.69H83.43Z" fill="#FADDDC"/>
<path d="M56.46 21.29C57.97 20.65 59.71 21.35 60.36 22.86C60.43 23.02 67.21 38.49 82.34 41.49L80.45 47.17C62.71 43.25 55.21 25.94 54.88 25.18C54.24 23.67 54.95 21.93 56.46 21.29Z" fill="#3C1F68"/>
<path d="M65.21 59.13L42.14 58.97C41.18 58.97 40.42 58.14 40.51 57.18C40.51 57.18 41.06 36.2 43.78 28.21C46.5 20.22 43.67 20.74 51.44 18.41H55.79C57.29 18.41 58.71 19.17 59.49 20.45C65.16 29.71 65.2 59.14 65.2 59.14L65.21 59.13Z" fill="#633CA0"/>
<path d="M51.65 4.07001H62.04V13.37C62.04 15.19 60.56 16.67 58.74 16.67H57.69C57.18 16.67 56.76 17.08 56.76 17.6V18.51C56.76 19.67 55.52 20.4 54.5 19.85L51.85 18.41L51.64 4.07001H51.65Z" fill="#FADDDC"/>
<path d="M61.35 13.8L61.95 13.63C62.49 13.48 62.81 12.91 62.66 12.37L61.83 9.40999C61.77 9.17999 61.53 9.04999 61.31 9.11999C61.09 9.18999 60.95 9.41999 61.02 9.63999L61.74 12.2C61.83 12.51 61.65 12.83 61.34 12.91L61.13 12.97C60.9 13.03 60.77 13.27 60.84 13.49C60.91 13.71 61.14 13.85 61.36 13.78L61.35 13.8Z" fill="#E0B1BB"/>
<path d="M50.65 8.71999V4.80999C50.65 3.94999 51.34 3.25999 52.2 3.25999H53.14V1.59999H57.37C57.9 0.429994 59.21 -0.300006 60.64 0.119994C61.5 0.369994 62.19 1.06999 62.43 1.92999C62.91 3.65999 61.71 5.21999 60.1 5.37999V5.40999H58.41H56.79C56.13 5.40999 55.6 5.93999 55.6 6.59999V8.39999C55.6 9.16999 54.98 9.78999 54.21 9.78999L52.9 9.88999L53.04 9.78999L52.89 13.79L52.34 13.77C51.4 13.73 50.65 12.95 50.65 12.01V8.72999V8.71999Z" fill="#3E2967"/>
<path d="M61.27 13.77L61.83 13.65C62.14 13.99 62.15 14.1 62.15 14.68L61.79 14.57C61.59 14.5 61.37 14.5 61.17 14.55L59.57 14.98L59.86 14.49C60.26 14.01 60.69 13.77 61.27 13.77Z" fill="#3E2967"/>
<path d="M60.5 16.08C60.67 16.04 60.98 15.77 60.98 15.77C61.34 16.11 61.04 16.93 60.07 17.32C60.07 17.32 58.73 17.24 58.73 16.67L59.55 16.29L60.49 16.09L60.5 16.08Z" fill="#3E2967"/>
<path d="M59.89 9.37C59.89 9.68 59.64 9.93 59.33 9.93C59.02 9.93 58.77 9.68 58.77 9.37C58.77 9.06 59.02 8.81 59.33 8.81C59.64 8.81 59.89 9.06 59.89 9.37Z" fill="#757570"/>
<path d="M54.06 31.11V31.2C53.99 31.59 53.98 31.89 54.03 32.09C54.04 32.15 54.08 32.21 54.13 32.26C54.1 32.28 54.05 32.31 53.96 32.37C53.92 32.4 53.88 32.41 53.84 32.42C53.76 32.42 53.7 32.38 53.67 32.27C53.62 32.05 53.64 31.7 53.74 31.22L53.77 31.09H53.68C53.48 31.12 53.34 31.17 53.25 31.26C53.25 30.98 53.36 30.84 53.61 30.81H53.84L53.87 30.7C53.97 30.3 54.13 29.77 54.37 29.1C54.45 28.87 54.51 28.73 54.57 28.67C54.62 28.61 54.74 28.55 54.91 28.49C54.94 28.78 54.99 29.05 55.05 29.3C55.21 29.96 55.43 30.62 55.7 31.29C55.85 31.66 56.01 31.89 56.16 31.98C56.08 32.14 56 32.22 55.92 32.23C55.73 32.25 55.48 31.83 55.17 30.96C54.98 31.01 54.78 31.04 54.58 31.06L54.09 31.09L54.06 31.11ZM54.12 30.82L54.49 30.8C54.74 30.78 54.93 30.75 55.05 30.72C54.86 30.16 54.72 29.7 54.63 29.33L54.59 29.15C54.57 29.22 54.51 29.37 54.43 29.61C54.28 30.04 54.18 30.41 54.14 30.73L54.12 30.83V30.82Z" fill="#F1F0EC"/>
<path d="M58.18 29.96C58.08 30.61 57.95 31.13 57.79 31.51C57.63 31.89 57.45 32.09 57.25 32.11C57.11 32.12 56.98 32.06 56.86 31.92C56.74 31.78 56.65 31.6 56.59 31.36C56.56 31.23 56.53 31.04 56.51 30.8L56.29 28.36C56.29 28.36 56.21 28.38 56.17 28.39C55.89 28.41 55.72 28.27 55.64 27.96V27.9C55.8 28 55.97 28.04 56.15 28.02C56.33 28 56.48 27.93 56.58 27.8L56.86 30.73C56.88 30.99 56.91 31.17 56.93 31.27C57 31.54 57.1 31.67 57.25 31.66C57.4 31.65 57.51 31.53 57.61 31.3C57.7 31.07 57.83 30.59 57.99 29.85L58.17 29.97L58.18 29.96Z" fill="#F1F0EC"/>
<path d="M59.64 30.12C59.68 30.2 59.7 30.28 59.72 30.36C59.82 30.76 59.8 31.12 59.66 31.44C59.52 31.76 59.31 31.93 59.02 31.95C58.81 31.97 58.62 31.9 58.45 31.74C58.28 31.58 58.16 31.38 58.1 31.11C58.05 30.92 58.02 30.64 57.98 30.28L57.79 28.21C57.73 28.23 57.68 28.24 57.64 28.25C57.38 28.27 57.21 28.1 57.12 27.74C57.22 27.83 57.36 27.87 57.53 27.86C57.68 27.85 57.87 27.78 58.09 27.65L58.35 30.54C58.37 30.74 58.4 30.91 58.43 31.05C58.48 31.25 58.55 31.4 58.66 31.52C58.77 31.64 58.88 31.69 59.01 31.68C59.2 31.66 59.33 31.54 59.41 31.29C59.49 31.05 59.49 30.77 59.41 30.44C59.37 30.28 59.31 30.12 59.24 29.98C59.07 29.93 58.93 29.85 58.81 29.75C58.69 29.65 58.61 29.55 58.59 29.45C58.58 29.39 58.58 29.32 58.59 29.23C58.92 29.23 59.21 29.4 59.47 29.73C59.65 29.82 59.83 29.85 60 29.84C60.17 29.83 60.34 29.74 60.49 29.58L60.63 29.77C60.47 30 60.26 30.13 60 30.15C59.88 30.16 59.76 30.15 59.65 30.12H59.64Z" fill="#F1F0EC"/>
<path d="M60.7 30.72C60.81 31.19 61.02 31.41 61.32 31.38C61.58 31.36 61.82 31.17 62.06 30.81C62.29 30.45 62.47 30 62.59 29.44L62.77 29.54C62.68 30.15 62.49 30.66 62.2 31.08C61.92 31.5 61.6 31.72 61.27 31.75C61.05 31.77 60.86 31.69 60.69 31.52C60.52 31.35 60.4 31.1 60.32 30.77C60.21 30.31 60.23 29.9 60.37 29.55C60.52 29.2 60.75 29.01 61.07 28.98C61.22 28.97 61.36 29.01 61.48 29.1C61.6 29.2 61.68 29.33 61.72 29.51C61.79 29.8 61.72 30.06 61.51 30.31C61.3 30.56 61.03 30.69 60.7 30.72ZM60.66 30.49C60.91 30.45 61.1 30.34 61.24 30.15C61.38 29.96 61.42 29.75 61.36 29.52C61.31 29.32 61.22 29.22 61.08 29.23C60.92 29.24 60.79 29.37 60.71 29.62C60.63 29.87 60.61 30.16 60.66 30.49Z" fill="#F1F0EC"/>
<path d="M29.91 48.49C29.64 50.11 28.11 51.21 26.49 50.94C25.16 50.72 24.18 49.65 24.02 48.38C23.99 48.1 23.99 47.82 24.04 47.53C24.16 46.83 24.29 46.14 24.45 45.47L30.11 47.41C30.04 47.77 29.97 48.12 29.91 48.49Z" fill="#FADDDC"/>
<path d="M50.58 21.73C51.21 23.25 50.49 24.98 48.97 25.61C48.81 25.68 33.28 32.31 30.14 47.42L24.48 45.48C28.57 27.78 45.94 20.43 46.71 20.12C48.23 19.5 49.96 20.22 50.59 21.73H50.58Z" fill="#633CA0"/>
</g>
<defs>
<clipPath id="clip0_1208_1676">
<rect width="61.95" height="109.43" fill="white" transform="translate(24)"/>
</clipPath>
</defs>
</svg>
