<svg width="110" height="110" viewBox="0 0 110 110" fill="none" xmlns="http://www.w3.org/2000/svg">
<g clip-path="url(#clip0_1208_2021)">
<path d="M50.27 58.07H64.58L66 102.89L63.47 103.07C63.47 103.75 63.87 105.03 64.33 105.39C64.87 105.82 66.3 106.3 66.82 106.77C67.43 107.33 67.11 108.55 66.35 108.55H63.27H62.48C61.78 108.55 61.17 107.95 61 107.09L60.93 103.31L59.4 103.27C58.21 97 57 87.03 55.95 80.64C55.21 76.16 54.6 70.3 53.94 65.84C53.79 64.86 53.08 64.15 52.25 64.15H50.74C49.9 64.15 49.19 64.86 49.05 65.84C48.39 70.3 45.79 94.98 44.39 102.08C44.31 102.48 42.7 101.95 42.62 102.36C42.37 103.64 42.8 104.96 43.68 105.68C44.11 106.03 44.52 106.39 44.93 106.77C45.55 107.33 45.23 108.56 44.47 108.56H41.39L39.39 107.79C37.41 106.31 39.88 105.15 38.95 102.35L37.3 101.8L38.24 65.54V58.05H50.28L50.27 58.07Z" fill="#5B6D5B"/>
<path d="M27.95 52.66C27.95 54.3 26.63 55.64 24.99 55.65C23.64 55.65 22.5 54.76 22.13 53.53C22.05 53.26 22.01 52.98 22 52.69C22 51.98 22.02 51.28 22.06 50.59L27.97 51.56C27.96 51.92 27.95 52.29 27.95 52.66Z" fill="#FADDDC"/>
<path d="M43.83 22.81C44.7 24.2 44.28 26.03 42.89 26.91C42.74 27 28.54 36.14 27.97 51.56L22.06 50.59C23.13 32.46 39.03 22.31 39.74 21.87C41.13 21 42.96 21.42 43.83 22.81Z" fill="#633CA0"/>
<path d="M83.41 2.82999C84.04 1.30999 85.78 0.599988 87.3 1.22999C88.55 1.74999 89.25 3.01999 89.12 4.28999C89.09 4.56999 89.02 4.83999 88.91 5.10999C88.64 5.76999 88.34 6.39999 88.04 7.01999L82.97 3.82999C83.12 3.49999 83.27 3.16999 83.42 2.82999H83.41Z" fill="#FADDDC"/>
<path d="M57.17 24.15C56.91 22.53 58.01 21 59.63 20.74C59.8 20.71 76.44 17.82 82.97 3.84L88.04 7.03C80 23.32 61.4 26.48 60.58 26.61C58.96 26.87 57.44 25.77 57.18 24.15H57.17Z" fill="#3C1F68"/>
<path d="M67.73 59.69L35.1 59.47L36.81 32.94C36.81 28.78 37.82 19.6 45.3 19.6H57.56C61.87 19.6 65.46 24.75 65.46 32.78L67.73 59.69Z" fill="#633CA0"/>
<path d="M45.19 32.78L45.15 32.86C44.97 33.19 44.88 33.44 44.88 33.63C44.88 33.68 44.9 33.74 44.94 33.79C44.91 33.8 44.83 33.83 44.71 33.87C44.66 33.89 44.6 33.9 44.55 33.9C44.45 33.9 44.4 33.85 44.4 33.76C44.4 33.57 44.52 33.27 44.76 32.87L44.83 32.76H44.72C44.49 32.76 44.31 32.8 44.19 32.87C44.26 32.63 44.43 32.51 44.72 32.51H44.98L45.04 32.43C45.26 32.1 45.6 31.65 46.05 31.09C46.2 30.9 46.32 30.78 46.39 30.74C46.47 30.69 46.61 30.65 46.83 30.61C46.79 30.86 46.77 31.1 46.77 31.31C46.77 31.89 46.84 32.47 46.97 33.06C47.04 33.38 47.15 33.59 47.3 33.69C47.17 33.82 47.06 33.89 46.96 33.89C46.74 33.89 46.57 33.51 46.45 32.75C46.22 32.78 45.99 32.79 45.75 32.79H45.18L45.19 32.78ZM45.34 32.54H45.76C46.05 32.55 46.27 32.54 46.43 32.52C46.37 32.03 46.33 31.62 46.33 31.3V31.14C46.29 31.2 46.18 31.33 46.02 31.52C45.73 31.88 45.51 32.19 45.38 32.46L45.34 32.54Z" fill="#F1F0EC"/>
<path d="M50.22 32.11C49.93 32.66 49.64 33.09 49.35 33.41C49.06 33.72 48.8 33.88 48.57 33.88C48.41 33.88 48.27 33.82 48.17 33.69C48.07 33.56 48.02 33.4 48.02 33.19C48.02 33.08 48.04 32.91 48.08 32.7L48.5 30.59C48.45 30.59 48.4 30.6 48.36 30.6C48.04 30.6 47.88 30.47 47.88 30.2V30.15C48.05 30.25 48.24 30.29 48.45 30.29C48.66 30.29 48.85 30.24 49.01 30.13L48.52 32.66C48.48 32.89 48.46 33.04 48.46 33.13C48.46 33.37 48.55 33.48 48.72 33.48C48.89 33.48 49.06 33.38 49.23 33.2C49.4 33.01 49.68 32.6 50.07 31.99L50.24 32.11H50.22Z" fill="#F1F0EC"/>
<path d="M51.84 32.35C51.86 32.42 51.87 32.49 51.87 32.56C51.87 32.91 51.75 33.22 51.5 33.48C51.25 33.74 50.96 33.87 50.63 33.87C50.39 33.87 50.19 33.8 50.03 33.65C49.88 33.5 49.8 33.32 49.8 33.09C49.8 32.92 49.83 32.68 49.89 32.37L50.24 30.59C50.17 30.6 50.11 30.61 50.06 30.61C49.76 30.61 49.61 30.45 49.61 30.14C49.7 30.23 49.85 30.27 50.05 30.27C50.23 30.27 50.46 30.22 50.75 30.13L50.25 32.62C50.22 32.79 50.2 32.94 50.2 33.07C50.2 33.24 50.25 33.38 50.34 33.49C50.43 33.6 50.55 33.65 50.7 33.65C50.92 33.65 51.11 33.55 51.26 33.35C51.41 33.15 51.49 32.91 51.49 32.63C51.49 32.49 51.47 32.35 51.42 32.22C51.24 32.16 51.1 32.09 50.99 31.99C50.88 31.9 50.82 31.8 50.82 31.71C50.82 31.66 50.84 31.6 50.88 31.52C51.26 31.55 51.55 31.71 51.74 32.01C51.92 32.1 52.11 32.14 52.32 32.14C52.53 32.14 52.74 32.08 52.95 31.95L53.06 32.12C52.82 32.3 52.54 32.4 52.24 32.4C52.1 32.4 51.97 32.38 51.84 32.35Z" fill="#F1F0EC"/>
<path d="M52.9 32.94C52.9 33.35 53.07 33.55 53.42 33.55C53.72 33.55 54.05 33.41 54.42 33.12C54.78 32.83 55.11 32.46 55.4 31.99L55.58 32.09C55.31 32.6 54.95 33.03 54.51 33.36C54.07 33.7 53.65 33.86 53.26 33.86C53.01 33.86 52.81 33.78 52.66 33.62C52.51 33.46 52.44 33.24 52.44 32.95C52.44 32.54 52.57 32.2 52.84 31.91C53.11 31.62 53.43 31.48 53.8 31.48C53.98 31.48 54.13 31.53 54.23 31.62C54.34 31.71 54.39 31.83 54.39 31.99C54.39 32.24 54.24 32.46 53.94 32.66C53.64 32.86 53.29 32.95 52.9 32.95V32.94ZM52.91 32.74C53.2 32.72 53.45 32.64 53.66 32.49C53.87 32.34 53.97 32.16 53.97 31.96C53.97 31.78 53.89 31.69 53.73 31.69C53.54 31.69 53.36 31.79 53.2 32C53.04 32.2 52.94 32.45 52.9 32.74H52.91Z" fill="#F1F0EC"/>
<path d="M55.5 33.8C55.4 33.85 55.33 33.87 55.27 33.87C55.13 33.87 55.05 33.81 55.05 33.68C55.05 33.62 55.08 33.46 55.13 33.2L55.24 32.68C55.3 32.37 55.34 32.14 55.34 31.99C55.34 31.91 55.32 31.84 55.27 31.79C55.42 31.74 55.54 31.71 55.63 31.71C55.73 31.71 55.78 31.77 55.78 31.9C55.78 31.98 55.75 32.18 55.68 32.51L55.56 33.12C55.82 32.61 56.09 32.21 56.36 31.92C56.63 31.63 56.87 31.49 57.09 31.49C57.17 31.49 57.23 31.51 57.29 31.56C57.35 31.6 57.37 31.66 57.37 31.72C57.37 31.82 57.26 31.95 57.05 32.11C57 32 56.92 31.94 56.82 31.94C56.64 31.94 56.42 32.13 56.14 32.51C55.97 32.75 55.82 32.99 55.69 33.24C55.56 33.49 55.5 33.67 55.5 33.77V33.81V33.8Z" fill="#F1F0EC"/>
<path d="M58.92 32.99C58.96 33.06 58.98 33.12 58.98 33.17C58.98 33.31 58.86 33.46 58.63 33.63C58.4 33.8 58.19 33.88 58 33.88C57.83 33.88 57.69 33.81 57.59 33.65C57.48 33.5 57.43 33.31 57.43 33.07C57.43 32.81 57.5 32.43 57.64 31.94L57.74 31.59H57.38C57.23 31.59 57.11 31.61 57.03 31.65C57.11 31.5 57.18 31.41 57.23 31.37C57.28 31.33 57.37 31.31 57.5 31.31H57.82L57.86 31.16C57.92 30.94 58 30.79 58.09 30.71C58.18 30.63 58.31 30.59 58.49 30.59C58.51 30.59 58.54 30.59 58.59 30.59C58.48 30.73 58.37 30.97 58.25 31.3H59.36C59.55 31.3 59.7 31.27 59.81 31.22C59.78 31.36 59.73 31.46 59.67 31.5C59.61 31.54 59.5 31.57 59.35 31.57H58.17C58.17 31.57 58.15 31.65 58.14 31.67C57.97 32.25 57.89 32.68 57.89 32.98C57.89 33.3 58.01 33.47 58.24 33.47C58.36 33.47 58.49 33.42 58.63 33.32C58.77 33.22 58.87 33.1 58.93 32.97L58.92 32.99Z" fill="#F1F0EC"/>
<path d="M49.71 4.89L60.07 5.64L59.4 14.91C59.27 16.73 57.69 18.1 55.87 17.96L54.82 17.88C54.31 17.84 53.87 18.23 53.83 18.74L53.76 19.68C53.66 21.08 52.44 22.13 51.04 22.03C49.64 21.93 48.59 20.72 48.69 19.32L49.7 4.88L49.71 4.89Z" fill="#FADDDC"/>
<path d="M56.03 14.97L56.66 15.02C57.22 15.06 57.71 14.64 57.75 14.08L57.97 11.02C57.99 10.79 57.81 10.58 57.58 10.57C57.35 10.56 57.14 10.73 57.13 10.96L56.94 13.62C56.92 13.94 56.64 14.18 56.32 14.15L56.1 14.13C55.87 14.11 55.66 14.29 55.65 14.52C55.64 14.75 55.81 14.96 56.04 14.97H56.03Z" fill="#E0B1BB"/>
<path d="M48.37 9.45999L48.65 5.55999C48.71 4.70999 49.46 4.05999 50.31 4.11999L51.25 4.18999L51.37 2.52999L55.59 2.83999C56.17 1.76999 57.44 1.13999 58.77 1.53999C59.76 1.83999 60.52 2.72999 60.65 3.75999C60.86 5.41999 59.59 6.76999 58.04 6.80999V6.83999L56.35 6.71999L52.22 6.41999C51.57 6.36999 51 6.85999 50.95 7.51999L50.82 9.31999C50.76 10.09 50.1 10.67 49.33 10.61H49.32C49.32 10.61 49.32 10.61 49.31 10.61L49.17 12.58L48.15 12.51L48.37 9.46999V9.45999Z" fill="#3E2967"/>
<path d="M55.67 14.94L57.01 15.04C57.59 15.08 58.03 15.59 57.99 16.17V16.34L56.78 15.84C56.59 15.76 56.37 15.74 56.16 15.78L54.53 16.1V15.93C54.58 15.35 55.09 14.91 55.67 14.95V14.94Z" fill="#3E2967"/>
<path d="M56.08 17.39C56.25 17.37 56.43 17.39 56.58 17.46L57.13 17.71V17.88C57.08 18.46 56.57 18.9 55.99 18.86H55.9C55.32 18.81 54.88 18.31 54.92 17.72V17.55L56.07 17.39H56.08Z" fill="#3E2967"/>
<path d="M54.61 10.72C54.59 11.03 54.32 11.26 54.01 11.24C53.7 11.22 53.47 10.95 53.49 10.64C53.51 10.33 53.78 10.1 54.09 10.12C54.4 10.14 54.63 10.41 54.61 10.72Z" fill="#5B6D5B"/>
</g>
<defs>
<clipPath id="clip0_1208_2021">
<rect width="67.13" height="107.58" fill="white" transform="translate(22 1)"/>
</clipPath>
</defs>
</svg>
