<svg width="110" height="110" viewBox="0 0 110 110" fill="none" xmlns="http://www.w3.org/2000/svg">
<g clip-path="url(#clip0_1208_1634)">
<path d="M50.27 58.13H64.58L66 102.95L63.47 103.13C63.47 103.81 63.87 105.09 64.33 105.45C64.87 105.88 66.3 106.36 66.82 106.83C67.43 107.39 67.11 108.61 66.35 108.61H63.27H62.48C61.78 108.61 61.17 108.01 61 107.15L60.93 103.37L59.4 103.33C58.21 97.06 57 87.09 55.95 80.7C55.21 76.22 54.6 70.36 53.94 65.9C53.79 64.92 53.08 64.21 52.25 64.21H50.74C49.9 64.21 49.19 64.92 49.05 65.9C48.39 70.36 45.79 95.04 44.39 102.14C44.31 102.54 42.7 102.01 42.62 102.42C42.37 103.7 42.8 105.02 43.68 105.74C44.11 106.09 44.52 106.45 44.93 106.83C45.55 107.39 45.23 108.62 44.47 108.62H41.39L39.39 107.85C37.41 106.37 39.88 105.21 38.95 102.41L37.3 101.86L38.24 65.6V58.11H50.28L50.27 58.13Z" fill="#5B6D5B"/>
<path d="M27.95 52.72C27.95 54.36 26.63 55.7 24.99 55.71C23.64 55.71 22.5 54.82 22.13 53.59C22.05 53.32 22.01 53.04 22 52.75C22 52.04 22.02 51.34 22.06 50.65L27.97 51.62C27.96 51.98 27.95 52.35 27.95 52.72Z" fill="#FADDDC"/>
<path d="M43.83 22.87C44.7 24.26 44.28 26.09 42.89 26.97C42.74 27.06 28.54 36.2 27.97 51.62L22.06 50.65C23.13 32.52 39.03 22.37 39.74 21.93C41.13 21.06 42.96 21.48 43.83 22.87Z" fill="#633CA0"/>
<path d="M86.59 7.45999C87.47 6.06999 89.3 5.64999 90.69 6.52999C91.83 7.24999 92.32 8.61999 91.97 9.84999C91.89 10.12 91.78 10.38 91.62 10.63C91.24 11.23 90.85 11.81 90.44 12.37L85.98 8.36999C86.19 8.06999 86.39 7.76999 86.59 7.44999V7.45999Z" fill="#FADDDC"/>
<path d="M57.15 24.09C57.16 22.45 58.5 21.13 60.14 21.14C60.31 21.14 77.2 21.07 85.98 8.38L90.44 12.38C79.79 27.09 60.92 27.1 60.09 27.09C58.45 27.07 57.13 25.74 57.15 24.09Z" fill="#3C1F68"/>
<path d="M67.73 59.75L35.1 59.53L36.81 33C36.81 28.84 37.82 19.66 45.3 19.66H57.56C61.87 19.66 65.46 24.81 65.46 32.84L67.73 59.75Z" fill="#633CA0"/>
<path d="M45.19 32.84L45.15 32.92C44.97 33.25 44.88 33.5 44.88 33.69C44.88 33.74 44.9 33.8 44.94 33.85C44.91 33.86 44.83 33.89 44.71 33.93C44.66 33.95 44.6 33.96 44.55 33.96C44.45 33.96 44.4 33.91 44.4 33.82C44.4 33.63 44.52 33.33 44.76 32.93L44.83 32.82H44.72C44.49 32.82 44.31 32.86 44.19 32.93C44.26 32.69 44.43 32.57 44.72 32.57H44.98L45.04 32.49C45.26 32.16 45.6 31.71 46.05 31.15C46.2 30.96 46.32 30.84 46.39 30.8C46.47 30.75 46.61 30.71 46.83 30.67C46.79 30.92 46.77 31.16 46.77 31.37C46.77 31.95 46.84 32.53 46.97 33.12C47.04 33.44 47.15 33.65 47.3 33.75C47.17 33.88 47.06 33.95 46.96 33.95C46.74 33.95 46.57 33.57 46.45 32.81C46.22 32.84 45.99 32.85 45.75 32.85H45.18L45.19 32.84ZM45.34 32.6H45.76C46.05 32.61 46.27 32.6 46.43 32.58C46.37 32.09 46.33 31.68 46.33 31.36V31.2C46.29 31.26 46.18 31.39 46.02 31.58C45.73 31.94 45.51 32.25 45.38 32.52L45.34 32.6Z" fill="#F1F0EC"/>
<path d="M50.22 32.16C49.93 32.71 49.64 33.14 49.35 33.46C49.06 33.77 48.8 33.93 48.57 33.93C48.41 33.93 48.27 33.87 48.17 33.74C48.07 33.61 48.02 33.45 48.02 33.24C48.02 33.13 48.04 32.96 48.08 32.75L48.5 30.64C48.45 30.64 48.4 30.65 48.36 30.65C48.04 30.65 47.88 30.52 47.88 30.25V30.2C48.05 30.3 48.24 30.34 48.45 30.34C48.66 30.34 48.85 30.29 49.01 30.18L48.52 32.71C48.48 32.94 48.46 33.09 48.46 33.18C48.46 33.42 48.55 33.53 48.72 33.53C48.89 33.53 49.06 33.43 49.23 33.25C49.4 33.06 49.68 32.65 50.07 32.04L50.24 32.16H50.22Z" fill="#F1F0EC"/>
<path d="M51.84 32.41C51.86 32.48 51.87 32.55 51.87 32.62C51.87 32.97 51.75 33.28 51.5 33.54C51.25 33.8 50.96 33.93 50.63 33.93C50.39 33.93 50.19 33.86 50.03 33.71C49.88 33.56 49.8 33.38 49.8 33.15C49.8 32.98 49.83 32.74 49.89 32.43L50.24 30.65C50.17 30.66 50.11 30.67 50.06 30.67C49.76 30.67 49.61 30.51 49.61 30.2C49.7 30.29 49.85 30.33 50.05 30.33C50.23 30.33 50.46 30.28 50.75 30.19L50.25 32.68C50.22 32.85 50.2 33 50.2 33.13C50.2 33.3 50.25 33.44 50.34 33.55C50.43 33.66 50.55 33.71 50.7 33.71C50.92 33.71 51.11 33.61 51.26 33.41C51.41 33.21 51.49 32.97 51.49 32.69C51.49 32.55 51.47 32.41 51.42 32.28C51.24 32.22 51.1 32.15 50.99 32.05C50.88 31.96 50.82 31.86 50.82 31.77C50.82 31.72 50.84 31.66 50.88 31.58C51.26 31.61 51.55 31.77 51.74 32.07C51.92 32.16 52.11 32.2 52.32 32.2C52.53 32.2 52.74 32.14 52.95 32.01L53.06 32.18C52.82 32.36 52.54 32.46 52.24 32.46C52.1 32.46 51.97 32.44 51.84 32.41Z" fill="#F1F0EC"/>
<path d="M52.9 33C52.9 33.41 53.07 33.61 53.42 33.61C53.72 33.61 54.05 33.47 54.42 33.18C54.78 32.89 55.11 32.52 55.4 32.05L55.58 32.15C55.31 32.66 54.95 33.09 54.51 33.42C54.07 33.76 53.65 33.92 53.26 33.92C53.01 33.92 52.81 33.84 52.66 33.68C52.51 33.52 52.44 33.3 52.44 33.01C52.44 32.6 52.57 32.26 52.84 31.97C53.11 31.68 53.43 31.54 53.8 31.54C53.98 31.54 54.13 31.59 54.23 31.68C54.34 31.77 54.39 31.89 54.39 32.05C54.39 32.3 54.24 32.52 53.94 32.72C53.64 32.92 53.29 33.01 52.9 33.01V33ZM52.91 32.8C53.2 32.78 53.45 32.7 53.66 32.55C53.87 32.4 53.97 32.22 53.97 32.02C53.97 31.84 53.89 31.75 53.73 31.75C53.54 31.75 53.36 31.85 53.2 32.06C53.04 32.26 52.94 32.51 52.9 32.8H52.91Z" fill="#F1F0EC"/>
<path d="M55.5 33.86C55.4 33.91 55.33 33.93 55.27 33.93C55.13 33.93 55.05 33.87 55.05 33.74C55.05 33.68 55.08 33.52 55.13 33.26L55.24 32.74C55.3 32.43 55.34 32.2 55.34 32.05C55.34 31.97 55.32 31.9 55.27 31.85C55.42 31.8 55.54 31.77 55.63 31.77C55.73 31.77 55.78 31.83 55.78 31.96C55.78 32.04 55.75 32.24 55.68 32.57L55.56 33.18C55.82 32.67 56.09 32.27 56.36 31.98C56.63 31.69 56.87 31.55 57.09 31.55C57.17 31.55 57.23 31.57 57.29 31.62C57.35 31.66 57.37 31.72 57.37 31.78C57.37 31.88 57.26 32.01 57.05 32.17C57 32.06 56.92 32 56.82 32C56.64 32 56.42 32.19 56.14 32.57C55.97 32.81 55.82 33.05 55.69 33.3C55.56 33.55 55.5 33.73 55.5 33.83V33.87V33.86Z" fill="#F1F0EC"/>
<path d="M58.92 33.05C58.96 33.12 58.98 33.18 58.98 33.23C58.98 33.37 58.86 33.52 58.63 33.69C58.4 33.86 58.19 33.94 58 33.94C57.83 33.94 57.69 33.87 57.59 33.71C57.48 33.56 57.43 33.37 57.43 33.13C57.43 32.87 57.5 32.49 57.64 32L57.74 31.65H57.38C57.23 31.65 57.11 31.67 57.03 31.71C57.11 31.56 57.18 31.47 57.23 31.43C57.28 31.39 57.37 31.37 57.5 31.37H57.82L57.86 31.22C57.92 31 58 30.85 58.09 30.77C58.18 30.69 58.31 30.65 58.49 30.65C58.51 30.65 58.54 30.65 58.59 30.65C58.48 30.79 58.37 31.03 58.25 31.36H59.36C59.55 31.36 59.7 31.33 59.81 31.28C59.78 31.42 59.73 31.52 59.67 31.56C59.61 31.6 59.5 31.63 59.35 31.63H58.17C58.17 31.63 58.15 31.71 58.14 31.73C57.97 32.31 57.89 32.74 57.89 33.04C57.89 33.36 58.01 33.53 58.24 33.53C58.36 33.53 58.49 33.48 58.63 33.38C58.77 33.28 58.87 33.16 58.93 33.03L58.92 33.05Z" fill="#F1F0EC"/>
<path d="M48.5 5.07001H58.89V14.37C58.89 16.19 57.41 17.67 55.59 17.67H54.54C54.03 17.67 53.61 18.08 53.61 18.6V19.54C53.61 20.94 52.47 22.08 51.07 22.08C49.67 22.08 48.53 20.95 48.53 19.55L48.49 5.08001L48.5 5.07001Z" fill="#FADDDC"/>
<path d="M55.53 14.67H56.16C56.72 14.67 57.18 14.21 57.18 13.65V10.58C57.18 10.35 56.99 10.16 56.76 10.16C56.53 10.16 56.34 10.35 56.34 10.58V13.24C56.34 13.56 56.08 13.82 55.76 13.82H55.54C55.31 13.82 55.12 14.01 55.12 14.24C55.12 14.47 55.31 14.66 55.54 14.66L55.53 14.67Z" fill="#E0B1BB"/>
<path d="M47.5 9.72001V5.81001C47.5 4.95001 48.19 4.26001 49.05 4.26001H49.99V2.60001H54.22C54.72 1.49001 55.95 0.770009 57.3 1.07001C58.31 1.29001 59.13 2.13001 59.33 3.15001C59.66 4.80001 58.49 6.23001 56.95 6.38001V6.41001H55.26H51.12C50.46 6.41001 49.93 6.94001 49.93 7.60001V9.40001C49.93 10.17 49.31 10.79 48.54 10.79H48.53C48.53 10.79 48.53 10.79 48.52 10.79V12.77H47.5V9.73001V9.72001Z" fill="#3E2967"/>
<path d="M55.18 14.67H56.52C57.1 14.67 57.58 15.14 57.58 15.73V15.9L56.35 15.48C56.15 15.41 55.93 15.41 55.73 15.46L54.13 15.89V15.72C54.13 15.14 54.6 14.66 55.19 14.66L55.18 14.67Z" fill="#3E2967"/>
<path d="M55.75 17.08C55.92 17.04 56.09 17.06 56.26 17.11L56.83 17.32V17.49C56.83 18.07 56.36 18.55 55.77 18.55H55.68C55.1 18.55 54.62 18.08 54.62 17.49V17.32L55.75 17.08Z" fill="#3E2967"/>
<path d="M53.81 10.53C53.81 10.84 53.56 11.09 53.25 11.09C52.94 11.09 52.69 10.84 52.69 10.53C52.69 10.22 52.94 9.97 53.25 9.97C53.56 9.97 53.81 10.22 53.81 10.53Z" fill="#5B6D5B"/>
</g>
<defs>
<clipPath id="clip0_1208_1634">
<rect width="70.08" height="107.64" fill="white" transform="translate(22 1)"/>
</clipPath>
</defs>
</svg>
