<svg width="25" height="102" viewBox="0 0 25 102" fill="none" xmlns="http://www.w3.org/2000/svg">
<g clip-path="url(#clip0_134_1252)">
<path d="M6.82 46.53L17.71 47.83L9.55 68.68L14.29 89.64L11.94 90.38V92.42C12.12 93.85 12.12 94.78 10.6 95.61L6.69 96.61C5.92 96.67 5.56 95.72 6.16 95.07C6.56 94.64 7.4 94.34 7.76 93.86C9.33 91.74 8.51 91.24 8.21 89.9C6.42 81.89 0 68.37 0 68.37L6.82 46.52V46.53Z" fill="#56564C"/>
<path d="M10.76 46.7099L23.88 47.08L22.26 95.8L19.94 96.55C19.93 97.14 19.94 98.1299 20.19 98.6699C20.55 99.4699 20.9 100.73 19.7 101.15L13.61 101.6C12.85 101.45 12.71 100.09 13.41 99.62C13.87 99.31 15.14 98.76 15.62 98.48C16.6 97.89 16.56 96.82 16.37 95.44C14.99 85.47 10.77 46.7 10.77 46.7L10.76 46.7099Z" fill="#757570"/>
<path d="M4.4899 51.95H22.9599C23.9199 51.95 24.6799 51.12 24.5899 50.16L22.2599 25.95C22.2599 21.79 19.8499 18.41 16.3199 18.41H11.9699C10.4699 18.41 9.0499 19.17 8.2699 20.45C2.5999 29.71 4.4899 51.96 4.4899 51.96V51.95Z" fill="#502489"/>
<path d="M16.13 4.06995H5.73999V13.3699C5.73999 15.1899 7.21999 16.6699 9.03999 16.6699H10.09C10.6 16.6699 11.02 17.0799 11.02 17.5999V18.5099C11.02 19.6699 12.26 20.3999 13.28 19.8499L15.93 18.4099L16.14 4.06995H16.13Z" fill="#FADDDC"/>
<path d="M6.41999 13.8L5.81999 13.63C5.27999 13.48 4.95999 12.91 5.10999 12.37L5.93999 9.41002C5.99999 9.18002 6.23999 9.05002 6.45999 9.12002C6.67999 9.19002 6.81999 9.42002 6.74999 9.64002L6.02999 12.2C5.93999 12.51 6.11999 12.83 6.42999 12.91L6.63999 12.97C6.86999 13.03 6.99999 13.27 6.92999 13.49C6.85999 13.71 6.62999 13.85 6.40999 13.78L6.41999 13.8Z" fill="#E0B1BB"/>
<path d="M17.1301 8.72002V4.81002C17.1301 3.95002 16.4401 3.26002 15.5801 3.26002H14.6401V1.60002H10.4101C9.88006 0.430024 8.57006 -0.299976 7.14006 0.120024C6.28006 0.370024 5.59006 1.07002 5.35006 1.93002C4.87006 3.66002 6.07006 5.22002 7.68006 5.38002V5.41002H9.37006H10.9901C11.6501 5.41002 12.1801 5.94002 12.1801 6.60002V8.40002C12.1801 9.17002 12.8001 9.79002 13.5701 9.79002L14.8801 9.89002L14.7401 9.79002L14.8901 13.79L15.4401 13.77C16.3801 13.73 17.1301 12.95 17.1301 12.01V8.73002V8.72002Z" fill="#3E2967"/>
<path d="M6.50988 13.77L5.94988 13.65C5.63988 13.99 5.62988 14.1 5.62988 14.68L5.98988 14.57C6.18988 14.5 6.40988 14.5 6.60988 14.55L8.20988 14.98L7.91988 14.49C7.51988 14.01 7.08988 13.77 6.50988 13.77Z" fill="#3E2967"/>
<path d="M7.26989 16.08C7.09989 16.04 6.78989 15.77 6.78989 15.77C6.42989 16.11 6.72989 16.93 7.69989 17.32C7.69989 17.32 9.03989 17.24 9.03989 16.67L8.21989 16.29L7.27989 16.09L7.26989 16.08Z" fill="#3E2967"/>
<path d="M7.87988 9.37006C7.87988 9.68006 8.12988 9.93006 8.43988 9.93006C8.74988 9.93006 8.99988 9.68006 8.99988 9.37006C8.99988 9.06006 8.74988 8.81006 8.43988 8.81006C8.12988 8.81006 7.87988 9.06006 7.87988 9.37006Z" fill="#757570"/>
<path d="M13.2199 31.08C13.0199 31.06 12.8199 31.03 12.6299 30.98C12.3199 31.84 12.0699 32.26 11.8799 32.25C11.7999 32.25 11.7199 32.16 11.6399 32C11.7899 31.9 11.9499 31.67 12.0999 31.31C12.3799 30.64 12.5899 29.98 12.7499 29.32C12.8099 29.07 12.8599 28.8 12.8899 28.51C13.0699 28.57 13.1799 28.63 13.2299 28.69C13.2799 28.75 13.3499 28.89 13.4299 29.12C13.6599 29.79 13.8299 30.33 13.9299 30.72L13.9599 30.82H14.1899C14.4399 30.85 14.5599 31 14.5499 31.28C14.4599 31.19 14.3199 31.13 14.1199 31.12H14.0299L14.0599 31.24C14.1599 31.71 14.1799 32.06 14.1299 32.29C14.0999 32.4 14.0499 32.45 13.9599 32.44C13.9199 32.44 13.8799 32.42 13.8399 32.39C13.7499 32.33 13.6899 32.29 13.6699 32.28C13.7199 32.23 13.7499 32.17 13.7699 32.11C13.8199 31.9 13.8099 31.61 13.7499 31.22V31.13L13.2399 31.1L13.2199 31.08ZM13.6399 30.72C13.5999 30.41 13.4999 30.03 13.3499 29.6C13.2699 29.36 13.2099 29.21 13.1899 29.14L13.1499 29.32C13.0599 29.69 12.9199 30.15 12.7299 30.71C12.8599 30.74 13.0499 30.77 13.2899 30.79L13.6599 30.81L13.6399 30.71V30.72Z" fill="#F1F0EC"/>
<path d="M9.77009 29.84C9.93009 30.58 10.0601 31.06 10.1501 31.29C10.2401 31.52 10.3601 31.64 10.5101 31.65C10.6601 31.66 10.7701 31.53 10.8301 31.26C10.8501 31.16 10.8801 30.98 10.9001 30.72L11.1801 27.79C11.2901 27.92 11.4301 28 11.6101 28.01C11.7901 28.02 11.9701 27.99 12.1401 27.89V27.95C12.0501 28.26 11.8801 28.4 11.6001 28.38C11.5601 28.38 11.5301 28.37 11.4801 28.35L11.2601 30.79C11.2401 31.03 11.2101 31.22 11.1801 31.35C11.1201 31.58 11.0301 31.77 10.9101 31.91C10.7901 32.05 10.6601 32.11 10.5201 32.1C10.3301 32.08 10.1501 31.89 9.98009 31.5C9.81009 31.12 9.68009 30.6 9.59009 29.95L9.77009 29.83V29.84Z" fill="#F1F0EC"/>
<path d="M7.78991 30.15C7.52991 30.13 7.31991 30 7.15991 29.77L7.29991 29.58C7.44991 29.74 7.60991 29.83 7.78991 29.84C7.96991 29.85 8.13991 29.82 8.31991 29.73C8.56991 29.4 8.85991 29.24 9.19991 29.23C9.20991 29.32 9.20991 29.39 9.19991 29.45C9.16991 29.55 9.09991 29.66 8.97991 29.75C8.85991 29.85 8.70991 29.93 8.54991 29.98C8.46991 30.13 8.41991 30.28 8.37991 30.44C8.29991 30.76 8.29991 31.05 8.37991 31.29C8.45991 31.53 8.58991 31.66 8.77991 31.68C8.89991 31.69 9.01991 31.64 9.12991 31.52C9.23991 31.4 9.30991 31.25 9.35991 31.05C9.39991 30.9 9.41991 30.73 9.43991 30.54L9.69991 27.65C9.91991 27.78 10.1099 27.84 10.2599 27.86C10.4299 27.87 10.5699 27.84 10.6699 27.74C10.5799 28.1 10.4099 28.27 10.1499 28.25C10.1099 28.25 10.0599 28.23 9.99991 28.21L9.80991 30.28C9.77991 30.64 9.73991 30.92 9.68991 31.11C9.62991 31.37 9.50991 31.58 9.33991 31.74C9.16991 31.9 8.97991 31.96 8.76991 31.95C8.47991 31.93 8.26991 31.75 8.12991 31.44C7.98991 31.13 7.96991 30.76 8.06991 30.36C8.08991 30.28 8.11991 30.2 8.14991 30.12C8.02991 30.15 7.91991 30.16 7.79991 30.15H7.78991Z" fill="#F1F0EC"/>
<path d="M6.26 30.31C6.05 30.07 5.99 29.8 6.05 29.51C6.09 29.34 6.17 29.2 6.29 29.1C6.41 29 6.54 28.96 6.7 28.98C7.02 29.01 7.25 29.2 7.4 29.55C7.55 29.9 7.57 30.31 7.45 30.77C7.37 31.09 7.25 31.34 7.08 31.52C6.91 31.7 6.72 31.77 6.5 31.75C6.16 31.72 5.85 31.5 5.57 31.08C5.29 30.66 5.1 30.15 5 29.54L5.18 29.44C5.3 30 5.48 30.45 5.71 30.81C5.94 31.17 6.19 31.35 6.45 31.38C6.75 31.41 6.95 31.18 7.07 30.72C6.73 30.69 6.46 30.55 6.26 30.31ZM7.06 29.62C6.98 29.37 6.86 29.24 6.69 29.23C6.55 29.22 6.46 29.31 6.41 29.52C6.35 29.75 6.4 29.96 6.53 30.15C6.67 30.34 6.86 30.46 7.11 30.49C7.16 30.15 7.14 29.86 7.06 29.62Z" fill="#F1F0EC"/>
<path d="M1.62993 50.73C0.219927 51.57 -0.250073 53.39 0.589927 54.8C1.27993 55.96 2.62993 56.48 3.87993 56.17C4.14993 56.1 4.41993 55.99 4.66993 55.84C5.27993 55.48 5.86993 55.1 6.43993 54.71L2.56993 50.14C2.26993 50.34 1.95993 50.53 1.63993 50.72L1.62993 50.73Z" fill="#FADDDC"/>
<path d="M19.4899 22.84C17.8499 22.81 17.1599 24.21 17.1199 25.85C17.1199 26.02 16.5799 42.9 3.63989 51.32L9.66989 52.04C22.9199 43.6 22.0199 26.26 22.0399 25.44C22.0699 23.8 21.1299 22.87 19.4899 22.84Z" fill="#3E2967"/>
<path d="M19.07 21.77C17.43 21.74 16.07 23.04 16.03 24.68C16.03 24.85 15.49 41.73 2.55005 50.15L6.42005 54.72C21.43 44.48 21.96 25.62 21.98 24.8C22.01 23.16 20.71 21.81 19.07 21.77Z" fill="#502489"/>
</g>
<defs>
<clipPath id="clip0_134_1252">
<rect width="24.6" height="101.61" fill="white"/>
</clipPath>
</defs>
</svg>
