<svg width="110" height="110" viewBox="0 0 110 110" fill="none" xmlns="http://www.w3.org/2000/svg">
<g clip-path="url(#clip0_1208_2317)">
<path d="M62.8 58.04L46.47 58.14L64.03 81.65L71.41 104.33L74.19 103.93L75.09 105.73C76.02 107.75 76.14 108.61 77.68 107.82L81.51 106.3C82.21 105.95 82.1 104.92 81.28 104.67C80.74 104.5 79.91 104.48 79.35 104.45C77.27 104.35 77.55 102.88 77.22 101.54C75.22 93.55 74.32 87.13 72.05 79.06C70.76 74.44 62.78 58.04 62.78 58.04H62.8Z" fill="#364936"/>
<path d="M60.24 58.25L42.71 58.3L40.74 79.26L28.22 97.22L30.55 99.11C30.27 99.62 29.78 100.45 29.31 100.77C28.62 101.24 27.72 102.11 28.53 103.16L33.49 107.06C34.21 107.37 34.98 106.3 34.62 105.49C34.38 104.96 33.56 103.76 33.29 103.24C32.74 102.18 33.4 101.37 34.12 100.22C38.45 93.34 48.56 82.8 48.56 82.8L60.24 58.24V58.25Z" fill="#5B6D5B"/>
<path d="M29.1978 47.3597C28.7749 48.9478 27.14 49.8909 25.5518 49.468C24.2506 49.115 23.3802 47.9572 23.3454 46.6744C23.3353 46.398 23.3736 46.109 23.446 45.8318C23.6282 45.1435 23.8373 44.4792 24.0586 43.8221L29.5049 46.3184C29.3993 46.6663 29.2937 47.0143 29.1906 47.3719L29.1978 47.3597Z" fill="#FADDDC"/>
<path d="M52.3903 22.7602C52.8623 24.332 51.972 25.9904 50.4027 26.472C50.2382 26.5149 34.1263 31.5852 29.5024 46.3087L24.0561 43.8124C29.8821 26.6051 47.8952 21.0183 48.6907 20.7798C50.2625 20.3078 51.9112 21.2006 52.3928 22.7699L52.3903 22.7602Z" fill="#3C1F68"/>
<path d="M65.19 59.13L42.12 58.97C41.16 58.97 40.4 58.14 40.49 57.18C40.49 57.18 41.16 35.81 42.64 27.5C43.55 22.39 43.66 20.74 51.43 18.42H55.78C57.28 18.42 58.7 19.18 59.48 20.46C65.15 29.72 65.19 59.15 65.19 59.15V59.13Z" fill="#633CA0"/>
<path d="M51.63 4.07001H62.02V13.37C62.02 15.19 60.54 16.67 58.72 16.67H57.67C57.16 16.67 56.74 17.08 56.74 17.6V18.51C56.74 19.67 55.5 20.4 54.48 19.85L51.83 18.41L51.62 4.07001H51.63Z" fill="#FADDDC"/>
<path d="M61.34 13.8L61.94 13.63C62.48 13.48 62.8 12.91 62.65 12.37L61.82 9.40999C61.76 9.17999 61.52 9.04999 61.3 9.11999C61.08 9.18999 60.94 9.41999 61.01 9.63999L61.73 12.2C61.82 12.51 61.64 12.83 61.33 12.91L61.12 12.97C60.89 13.03 60.76 13.27 60.83 13.49C60.9 13.71 61.13 13.85 61.35 13.78L61.34 13.8Z" fill="#E0B1BB"/>
<path d="M50.63 8.71999V4.80999C50.63 3.94999 51.32 3.25999 52.18 3.25999H53.12V1.59999H57.35C57.88 0.429994 59.19 -0.300006 60.62 0.119994C61.48 0.369994 62.17 1.06999 62.41 1.92999C62.89 3.65999 61.69 5.21999 60.08 5.37999V5.40999H58.39H56.77C56.11 5.40999 55.58 5.93999 55.58 6.59999V8.39999C55.58 9.16999 54.96 9.78999 54.19 9.78999L52.88 9.88999L53.02 9.78999L52.87 13.79L52.32 13.77C51.38 13.73 50.63 12.95 50.63 12.01V8.72999V8.71999Z" fill="#3E2967"/>
<path d="M61.25 13.77L61.81 13.65C62.12 13.99 62.13 14.1 62.13 14.68L61.77 14.57C61.57 14.5 61.35 14.5 61.15 14.55L59.55 14.98L59.84 14.49C60.24 14.01 60.67 13.77 61.25 13.77Z" fill="#3E2967"/>
<path d="M60.49 16.08C60.66 16.04 60.97 15.77 60.97 15.77C61.33 16.11 61.03 16.93 60.06 17.32C60.06 17.32 58.72 17.24 58.72 16.67L59.54 16.29L60.48 16.09L60.49 16.08Z" fill="#3E2967"/>
<path d="M59.88 9.37C59.88 9.68 59.63 9.93 59.32 9.93C59.01 9.93 58.76 9.68 58.76 9.37C58.76 9.06 59.01 8.81 59.32 8.81C59.63 8.81 59.88 9.06 59.88 9.37Z" fill="#757570"/>
<path d="M54.04 31.11V31.2C53.97 31.59 53.96 31.89 54.01 32.09C54.02 32.15 54.06 32.21 54.11 32.26C54.08 32.28 54.03 32.31 53.94 32.37C53.9 32.4 53.86 32.41 53.82 32.42C53.74 32.42 53.68 32.38 53.65 32.27C53.6 32.05 53.62 31.7 53.72 31.22L53.75 31.09H53.66C53.46 31.12 53.32 31.17 53.23 31.26C53.23 30.98 53.34 30.84 53.59 30.81H53.82L53.85 30.7C53.95 30.3 54.11 29.77 54.35 29.1C54.43 28.87 54.49 28.73 54.55 28.67C54.6 28.61 54.72 28.55 54.89 28.49C54.92 28.78 54.97 29.05 55.03 29.3C55.19 29.96 55.41 30.62 55.68 31.29C55.83 31.66 55.99 31.89 56.14 31.98C56.06 32.14 55.98 32.22 55.9 32.23C55.71 32.25 55.46 31.83 55.15 30.96C54.96 31.01 54.76 31.04 54.56 31.06L54.07 31.09L54.04 31.11ZM54.1 30.82L54.47 30.8C54.72 30.78 54.91 30.75 55.03 30.72C54.84 30.16 54.7 29.7 54.61 29.33L54.57 29.15C54.55 29.22 54.49 29.37 54.41 29.61C54.26 30.04 54.16 30.41 54.12 30.73L54.1 30.83V30.82Z" fill="#F1F0EC"/>
<path d="M58.17 29.96C58.07 30.61 57.94 31.13 57.78 31.51C57.62 31.89 57.44 32.09 57.24 32.11C57.1 32.12 56.97 32.06 56.85 31.92C56.73 31.78 56.64 31.6 56.58 31.36C56.55 31.23 56.52 31.04 56.5 30.8L56.28 28.36C56.28 28.36 56.2 28.38 56.16 28.39C55.88 28.41 55.71 28.27 55.63 27.96V27.9C55.79 28 55.96 28.04 56.14 28.02C56.32 28 56.47 27.93 56.57 27.8L56.85 30.73C56.87 30.99 56.9 31.17 56.92 31.27C56.99 31.54 57.09 31.67 57.24 31.66C57.39 31.65 57.5 31.53 57.6 31.3C57.69 31.07 57.82 30.59 57.98 29.85L58.16 29.97L58.17 29.96Z" fill="#F1F0EC"/>
<path d="M59.62 30.12C59.66 30.2 59.68 30.28 59.7 30.36C59.8 30.76 59.78 31.12 59.64 31.44C59.5 31.76 59.29 31.93 59 31.95C58.79 31.97 58.6 31.9 58.43 31.74C58.26 31.58 58.14 31.38 58.08 31.11C58.03 30.92 58 30.64 57.96 30.28L57.77 28.21C57.71 28.23 57.66 28.24 57.62 28.25C57.36 28.27 57.19 28.1 57.1 27.74C57.2 27.83 57.34 27.87 57.51 27.86C57.66 27.85 57.85 27.78 58.07 27.65L58.33 30.54C58.35 30.74 58.38 30.91 58.41 31.05C58.46 31.25 58.53 31.4 58.64 31.52C58.75 31.64 58.86 31.69 58.99 31.68C59.18 31.66 59.31 31.54 59.39 31.29C59.47 31.05 59.47 30.77 59.39 30.44C59.35 30.28 59.29 30.12 59.22 29.98C59.05 29.93 58.91 29.85 58.79 29.75C58.67 29.65 58.59 29.55 58.57 29.45C58.56 29.39 58.56 29.32 58.57 29.23C58.9 29.23 59.19 29.4 59.45 29.73C59.63 29.82 59.81 29.85 59.98 29.84C60.15 29.83 60.32 29.74 60.47 29.58L60.61 29.77C60.45 30 60.24 30.13 59.98 30.15C59.86 30.16 59.74 30.15 59.63 30.12H59.62Z" fill="#F1F0EC"/>
<path d="M60.69 30.72C60.8 31.19 61.01 31.41 61.31 31.38C61.57 31.36 61.81 31.17 62.05 30.81C62.28 30.45 62.46 30 62.58 29.44L62.76 29.54C62.67 30.15 62.48 30.66 62.19 31.08C61.91 31.5 61.59 31.72 61.26 31.75C61.04 31.77 60.85 31.69 60.68 31.52C60.51 31.35 60.39 31.1 60.31 30.77C60.2 30.31 60.22 29.9 60.36 29.55C60.51 29.2 60.74 29.01 61.06 28.98C61.21 28.97 61.35 29.01 61.47 29.1C61.59 29.2 61.67 29.33 61.71 29.51C61.78 29.8 61.71 30.06 61.5 30.31C61.29 30.56 61.02 30.69 60.69 30.72ZM60.65 30.49C60.9 30.45 61.09 30.34 61.23 30.15C61.37 29.96 61.41 29.75 61.35 29.52C61.3 29.32 61.21 29.22 61.07 29.23C60.91 29.24 60.78 29.37 60.7 29.62C60.62 29.87 60.6 30.16 60.65 30.49Z" fill="#F1F0EC"/>
<path d="M77.84 41.47C79.48 41.45 80.83 42.77 80.84 44.42C80.85 45.77 79.96 46.92 78.74 47.29C78.47 47.37 78.19 47.42 77.9 47.42C77.19 47.42 76.49 47.41 75.8 47.37L76.75 41.46C77.11 41.47 77.48 41.48 77.85 41.48L77.84 41.47Z" fill="#FADDDC"/>
<path d="M47.6 27.75C48.99 26.87 50.82 27.29 51.7 28.67C51.79 28.82 57.48 41.66 64.73 43.43L64.69 46.35C51.38 40.83 48.51 31.94 48.07 31.24C47.2 29.85 46.21 28.62 47.6 27.74V27.75Z" fill="#3C1F68"/>
<path d="M47.93 25.68C49.32 24.8 51.15 25.22 52.03 26.6C52.12 26.75 61.32 40.91 76.74 41.43L75.79 47.34C57.65 46.34 47.44 30.48 47 29.78C46.13 28.39 46.54 26.56 47.93 25.68Z" fill="#633CA0"/>
</g>
<defs>
<clipPath id="clip0_1208_2317">
<rect width="59.48" height="108.11" fill="white" transform="translate(22.5)"/>
</clipPath>
</defs>
</svg>
