<svg width="110" height="110" viewBox="0 0 110 110" fill="none" xmlns="http://www.w3.org/2000/svg">
<g clip-path="url(#clip0_1208_2627)">
<path d="M74.93 57.79C74.59 59.63 75.87 61.46 77.78 61.87C79.35 62.21 80.87 61.48 81.55 60.19C81.7 59.91 81.81 59.6 81.87 59.27C82.02 58.47 82.13 57.68 82.22 56.9L75.12 56.55C75.06 56.96 75 57.37 74.92 57.79H74.93Z" fill="#FADDDC"/>
<path d="M68.78 56.6L44.12 56.71L49.34 99.14C49.34 99.14 51.93 100.85 51.94 100.91C52.15 102.27 51.94 103.42 49.93 102.15C49.35 101.78 48.89 101.76 48.36 102.24C47.73 102.81 48.21 104.47 48.77 105.36L53.72 109.3C54.31 109.77 55.18 109.82 55.73 109.3C56.58 108.52 56.34 107.27 55.98 106.26C54.61 102.34 55.03 101.89 55.03 101.89L55.8 102.15C56.3 102.32 56.8 101.93 56.76 101.41C56.36 96.26 55.34 69.82 55.16 65.07C55.14 64.67 55.46 64.33 55.86 64.32L56.92 64.3C57.24 64.3 57.55 64.52 57.55 64.84C57.58 71.2 57.66 81.17 57.75 81.17C57.75 81.17 58.22 85.42 58.47 86.39C58.82 87.77 60.24 87.58 60.73 86.55C61.15 85.66 61.27 82.94 61.35 82.23H63.53L68.78 56.59V56.6Z" fill="#5B6D5B"/>
<path d="M59.1479 18.3107L54.5422 18.111L54.6874 14.7641L59.293 14.9638L59.1479 18.3107Z" fill="#FADDDC"/>
<path d="M62.3484 11.4429L61.789 11.4186L61.8994 8.871C61.9172 8.46138 62.2616 8.136 62.6812 8.15419L62.9809 8.16719C63.3905 8.18495 63.7159 8.52937 63.6977 8.94897L63.2757 10.6022C63.2545 11.0918 62.848 11.4645 62.3584 11.4433L62.3484 11.4429Z" fill="#FADDDC"/>
<path d="M51.2389 10.9612L51.7983 10.9854L51.9088 8.43782C51.9266 8.0282 51.6116 7.67423 51.192 7.65603L50.8923 7.64304C50.4827 7.62528 50.1287 7.94024 50.1105 8.35985L50.3878 10.0434C50.3666 10.533 50.7393 10.9395 51.2289 10.9607L51.2389 10.9612Z" fill="#FADDDC"/>
<path d="M59.2024 2.04777C57.8354 1.71824 55.9784 1.6077 53.8945 2.80855C51.9851 3.90687 51.1869 5.69397 51.1241 7.14261C51.0613 8.59125 51.0848 8.74241 51.2921 9.73232C51.4994 10.7222 52.4063 14.0446 54.3777 15.4413C55.3195 16.1128 57.8906 16.6046 59.2331 15.6519C60.5757 14.6991 61.7618 13.4293 62.1716 11.3651C62.5814 9.30095 62.6178 8.92217 63.0099 7.95825C63.4021 6.99433 63.1434 5.57179 63.037 5.02667C62.9305 4.48154 61.7978 2.67078 59.212 2.05819L59.2024 2.04777Z" fill="#3E2967"/>
<path d="M62.3799 20.38C61.0799 21.73 61.1999 23.89 62.6499 25.21C62.7999 25.35 77.5599 39.09 75.1299 56.55L82.2299 56.9C84.6199 36.27 68.0899 20.97 67.3499 20.31C65.8999 18.99 63.6799 19.02 62.3799 20.37V20.38Z" fill="#633CA0"/>
<path d="M40.7499 43C40.8599 44.23 39.6899 45.29 38.1499 45.38C38.0799 45.38 38.0099 45.38 37.9499 45.38C36.4899 45.38 35.2499 44.48 35.1499 43.31C35.1199 42.92 35.0899 42.55 35.0699 42.17H40.7099C40.7299 42.44 40.7399 42.71 40.7599 42.99L40.7499 43Z" fill="#FADDDC"/>
<path d="M47.35 19C48.7 18.4 50.4 18.79 51.16 19.86C51.92 20.93 51.44 22.29 50.1 22.89C49.58 23.12 39.74 26.73 40.7 42.18H35.06C34.04 24.01 46.71 19.28 47.35 19Z" fill="#3C1F68"/>
<path d="M42.62 57.09H70.13L70.12 27.19C70.12 22.05 65.95 17.88 60.81 17.88H51.92C46.78 17.88 42.61 22.05 42.61 27.19L42.63 57.09H42.62Z" fill="#633CA0"/>
<path d="M62.7676 7.31715C62.7676 7.31715 64.7073 5.74971 64.0568 4.13001C63.4064 2.51031 60.9485 1.02245 59.5629 1.35273C58.1773 1.68302 56.4928 1.05946 55.3204 1.54914C54.1481 2.03882 52.743 2.58847 52.8604 3.8047C52.9778 5.02092 54.6389 8.49614 55.5059 8.81399C56.373 9.13185 62.7776 7.31758 62.7776 7.31758L62.7676 7.31715Z" fill="#3E2967"/>
</g>
<defs>
<clipPath id="clip0_1208_2627">
<rect width="47.46" height="108.67" fill="white" transform="translate(35 1)"/>
</clipPath>
</defs>
</svg>
