<svg width="110" height="110" viewBox="0 0 110 110" fill="none" xmlns="http://www.w3.org/2000/svg">
<g clip-path="url(#clip0_1208_2485)">
<path d="M49.81 58.63L61.78 58.16L68.37 80.58L80.89 98.54L78.56 100.43C78.84 100.94 79.33 101.77 79.8 102.09C80.49 102.56 81.39 103.43 80.58 104.48L75.62 108.38C74.9 108.69 74.13 107.62 74.49 106.81C74.73 106.28 75.55 105.08 75.82 104.56C76.37 103.5 75.71 102.69 74.99 101.54C70.66 94.66 60.55 84.12 60.55 84.12L49.81 58.62V58.63Z" fill="#364936"/>
<path d="M46.88 57.06L66.54 57.87L45.08 82.97L37.7 105.65L34.92 105.25L34.02 107.05C33.09 109.07 32.97 109.93 31.43 109.14L27.6 107.62C26.9 107.27 27.01 106.24 27.83 105.99C28.37 105.82 29.2 105.8 29.76 105.77C31.84 105.67 31.56 104.2 31.89 102.86C33.89 94.87 34.79 88.45 37.06 80.38C38.35 75.76 46.9 57.07 46.9 57.07L46.88 57.06Z" fill="#5B6D5B"/>
<path d="M26.57 41.69C24.95 41.94 23.83 43.46 24.09 45.08C24.3 46.41 25.36 47.4 26.63 47.57C26.91 47.61 27.19 47.61 27.48 47.57C28.18 47.46 28.87 47.33 29.55 47.18L27.66 41.5C27.3 41.57 26.94 41.64 26.58 41.69H26.57Z" fill="#FADDDC"/>
<path d="M53.54 21.29C52.03 20.65 50.29 21.35 49.64 22.86C49.57 23.02 42.79 38.49 27.66 41.49L29.55 47.17C47.29 43.25 54.79 25.94 55.12 25.18C55.76 23.67 55.05 21.93 53.54 21.29Z" fill="#3C1F68"/>
<path d="M44.79 59.13L67.86 58.97C68.82 58.97 69.58 58.14 69.49 57.18C69.49 57.18 68.94 36.2 66.22 28.21C63.5 20.22 66.33 20.74 58.56 18.41H54.21C52.71 18.41 51.29 19.17 50.51 20.45C44.84 29.71 44.8 59.14 44.8 59.14L44.79 59.13Z" fill="#633CA0"/>
<path d="M58.35 4.07H47.96V13.37C47.96 15.19 49.44 16.67 51.26 16.67H52.31C52.82 16.67 53.24 17.08 53.24 17.6V18.51C53.24 19.67 54.48 20.4 55.5 19.85L58.15 18.41L58.36 4.07H58.35Z" fill="#FADDDC"/>
<path d="M48.65 13.8L48.05 13.63C47.51 13.48 47.19 12.91 47.34 12.37L48.17 9.41C48.23 9.18 48.47 9.05 48.69 9.12C48.91 9.19 49.05 9.42 48.98 9.64L48.26 12.2C48.17 12.51 48.35 12.83 48.66 12.91L48.87 12.97C49.1 13.03 49.23 13.27 49.16 13.49C49.09 13.71 48.86 13.85 48.64 13.78L48.65 13.8Z" fill="#E0B1BB"/>
<path d="M59.35 8.72V4.81C59.35 3.95 58.66 3.26 57.8 3.26H56.86V1.6H52.63C52.1 0.43 50.79 -0.3 49.36 0.12C48.5 0.37 47.81 1.07 47.57 1.93C47.09 3.66 48.29 5.22 49.9 5.38V5.41H51.59H53.21C53.87 5.41 54.4 5.94 54.4 6.6V8.4C54.4 9.17 55.02 9.79 55.79 9.79L57.1 9.89L56.96 9.79L57.11 13.79L57.66 13.77C58.6 13.73 59.35 12.95 59.35 12.01V8.73V8.72Z" fill="#3E2967"/>
<path d="M48.73 13.77L48.17 13.65C47.86 13.99 47.85 14.1 47.85 14.68L48.21 14.57C48.41 14.5 48.63 14.5 48.83 14.55L50.43 14.98L50.14 14.49C49.74 14.01 49.31 13.77 48.73 13.77Z" fill="#3E2967"/>
<path d="M49.5 16.08C49.33 16.04 49.02 15.77 49.02 15.77C48.66 16.11 48.96 16.93 49.93 17.32C49.93 17.32 51.27 17.24 51.27 16.67L50.45 16.29L49.51 16.09L49.5 16.08Z" fill="#3E2967"/>
<path d="M50.11 9.37C50.11 9.68 50.36 9.93 50.67 9.93C50.98 9.93 51.23 9.68 51.23 9.37C51.23 9.06 50.98 8.81 50.67 8.81C50.36 8.81 50.11 9.06 50.11 9.37Z" fill="#757570"/>
<path d="M55.94 31.11V31.2C56.01 31.59 56.02 31.89 55.97 32.09C55.96 32.15 55.92 32.21 55.87 32.26C55.9 32.28 55.95 32.31 56.04 32.37C56.08 32.4 56.12 32.41 56.16 32.42C56.24 32.42 56.3 32.38 56.33 32.27C56.38 32.05 56.36 31.7 56.26 31.22L56.23 31.09H56.32C56.52 31.12 56.66 31.17 56.75 31.26C56.75 30.98 56.64 30.84 56.39 30.81H56.16L56.13 30.7C56.03 30.3 55.87 29.77 55.63 29.1C55.55 28.87 55.49 28.73 55.43 28.67C55.38 28.61 55.26 28.55 55.09 28.49C55.06 28.78 55.01 29.05 54.95 29.3C54.79 29.96 54.57 30.62 54.3 31.29C54.15 31.66 53.99 31.89 53.84 31.98C53.92 32.14 54 32.22 54.08 32.23C54.27 32.25 54.52 31.83 54.83 30.96C55.02 31.01 55.22 31.04 55.42 31.06L55.91 31.09L55.94 31.11ZM55.88 30.82L55.51 30.8C55.26 30.78 55.07 30.75 54.95 30.72C55.14 30.16 55.28 29.7 55.37 29.33L55.41 29.15C55.43 29.22 55.49 29.37 55.57 29.61C55.72 30.04 55.82 30.41 55.86 30.73L55.88 30.83V30.82Z" fill="#F1F0EC"/>
<path d="M51.82 29.96C51.92 30.61 52.05 31.13 52.21 31.51C52.37 31.89 52.55 32.09 52.75 32.11C52.89 32.12 53.02 32.06 53.14 31.92C53.26 31.78 53.35 31.6 53.41 31.36C53.44 31.23 53.47 31.04 53.49 30.8L53.71 28.36C53.71 28.36 53.79 28.38 53.83 28.39C54.11 28.41 54.28 28.27 54.36 27.96V27.9C54.2 28 54.03 28.04 53.85 28.02C53.67 28 53.52 27.93 53.42 27.8L53.14 30.73C53.12 30.99 53.09 31.17 53.07 31.27C53 31.54 52.9 31.67 52.75 31.66C52.6 31.65 52.49 31.53 52.39 31.3C52.3 31.07 52.17 30.59 52.01 29.85L51.83 29.97L51.82 29.96Z" fill="#F1F0EC"/>
<path d="M50.36 30.12C50.32 30.2 50.3 30.28 50.28 30.36C50.18 30.76 50.2 31.12 50.34 31.44C50.48 31.76 50.69 31.93 50.98 31.95C51.19 31.97 51.38 31.9 51.55 31.74C51.72 31.58 51.84 31.38 51.9 31.11C51.95 30.92 51.98 30.64 52.02 30.28L52.21 28.21C52.27 28.23 52.32 28.24 52.36 28.25C52.62 28.27 52.79 28.1 52.88 27.74C52.78 27.83 52.64 27.87 52.47 27.86C52.32 27.85 52.13 27.78 51.91 27.65L51.65 30.54C51.63 30.74 51.6 30.91 51.57 31.05C51.52 31.25 51.45 31.4 51.34 31.52C51.23 31.64 51.12 31.69 50.99 31.68C50.8 31.66 50.67 31.54 50.59 31.29C50.51 31.05 50.51 30.77 50.59 30.44C50.63 30.28 50.69 30.12 50.76 29.98C50.93 29.93 51.07 29.85 51.19 29.75C51.31 29.65 51.39 29.55 51.41 29.45C51.42 29.39 51.42 29.32 51.41 29.23C51.08 29.23 50.79 29.4 50.53 29.73C50.35 29.82 50.17 29.85 50 29.84C49.83 29.83 49.66 29.74 49.51 29.58L49.37 29.77C49.53 30 49.74 30.13 50 30.15C50.12 30.16 50.24 30.15 50.35 30.12H50.36Z" fill="#F1F0EC"/>
<path d="M49.3 30.72C49.19 31.19 48.98 31.41 48.68 31.38C48.42 31.36 48.18 31.17 47.94 30.81C47.71 30.45 47.53 30 47.41 29.44L47.23 29.54C47.32 30.15 47.51 30.66 47.8 31.08C48.08 31.5 48.4 31.72 48.73 31.75C48.95 31.77 49.14 31.69 49.31 31.52C49.48 31.35 49.6 31.1 49.68 30.77C49.79 30.31 49.77 29.9 49.63 29.55C49.48 29.2 49.25 29.01 48.93 28.98C48.78 28.97 48.64 29.01 48.52 29.1C48.4 29.2 48.32 29.33 48.28 29.51C48.21 29.8 48.28 30.06 48.49 30.31C48.7 30.56 48.97 30.69 49.3 30.72ZM49.34 30.49C49.09 30.45 48.9 30.34 48.76 30.15C48.62 29.96 48.58 29.75 48.64 29.52C48.69 29.32 48.78 29.22 48.92 29.23C49.08 29.24 49.21 29.37 49.29 29.62C49.37 29.87 49.39 30.16 49.34 30.49Z" fill="#F1F0EC"/>
<path d="M80.09 48.49C80.36 50.11 81.89 51.21 83.51 50.94C84.84 50.72 85.82 49.65 85.98 48.38C86.01 48.1 86.01 47.82 85.96 47.53C85.84 46.83 85.71 46.14 85.55 45.47L79.89 47.41C79.96 47.77 80.03 48.12 80.09 48.49Z" fill="#FADDDC"/>
<path d="M59.42 21.73C58.79 23.25 59.51 24.98 61.03 25.61C61.19 25.68 76.72 32.31 79.86 47.42L85.52 45.48C81.43 27.78 64.06 20.43 63.29 20.12C61.77 19.5 60.04 20.22 59.41 21.73H59.42Z" fill="#633CA0"/>
</g>
<defs>
<clipPath id="clip0_1208_2485">
<rect width="61.95" height="109.43" fill="white" transform="matrix(-1 0 0 1 86 0)"/>
</clipPath>
</defs>
</svg>
