<svg width="110" height="110" viewBox="0 0 110 110" fill="none" xmlns="http://www.w3.org/2000/svg">
<g clip-path="url(#clip0_1204_6515)">
<path d="M68.6 53.26L43.94 53.37L49.16 95.8C49.16 95.8 51.75 97.51 51.76 97.57C51.97 98.93 51.76 100.08 49.75 98.81C49.17 98.44 48.71 98.42 48.18 98.9C47.55 99.47 48.03 101.13 48.59 102.02L53.54 105.96C54.13 106.43 55 106.48 55.55 105.96C56.4 105.18 56.16 103.93 55.8 102.92C54.43 99 54.85 98.55 54.85 98.55L55.62 98.81C56.12 98.98 56.62 98.59 56.58 98.07C56.18 92.92 55.16 66.48 54.98 61.73C54.96 61.33 55.28 60.99 55.68 60.98L56.74 60.96C57.06 60.96 57.37 61.18 57.37 61.5C57.4 67.86 57.48 77.83 57.57 77.83C57.57 77.83 58.04 82.08 58.29 83.05C58.64 84.43 60.06 84.24 60.55 83.21C60.97 82.32 61.09 79.6 61.17 78.89H63.35L68.6 53.25V53.26Z" fill="#3E2967"/>
<path d="M58.46 16.61H53.95V19.89H58.46V16.61Z" fill="#FADDDC"/>
<path d="M61.3 13.04H60.75V10.55C60.75 10.15 61.08 9.82001 61.48 9.82001H61.77C62.17 9.82001 62.5 10.15 62.5 10.55L62.16 12.18C62.16 12.66 61.77 13.04 61.3 13.04Z" fill="#FADDDC"/>
<path d="M50.42 13.04H50.97V10.55C50.97 10.15 50.64 9.82001 50.24 9.82001H49.95C49.55 9.82001 49.22 10.15 49.22 10.55L49.56 12.18C49.56 12.66 49.95 13.04 50.42 13.04Z" fill="#FADDDC"/>
<path d="M57.19 3.20999C55.84 2.94999 53.76 2.64999 52.28 4.22999C50.8 5.80999 50.07 6.84 50.07 8.25999C50.07 9.67999 50.17 10.89 50.41 11.84C50.65 12.79 51.69 16.01 53.67 17.29C54.62 17.9 57.16 18.28 58.42 17.29C59.68 16.3 60.8 15.01 61.11 12.97C61.42 10.93 61.45 10.56 61.79 9.59999C62.13 8.63999 61.57 6.53999 61.45 6.01999C61.33 5.49999 59.75 3.69999 57.19 3.20999Z" fill="#3E2967"/>
<path d="M39.33 58.99C39.69 60.82 38.5 62.6 36.67 62.96C35.16 63.26 33.7 62.5 33.02 61.21C32.87 60.93 32.76 60.62 32.7 60.3C32.54 59.51 32.42 58.72 32.32 57.94L39.13 57.76C39.19 58.17 39.26 58.58 39.34 58.99H39.33Z" fill="#FADDDC"/>
<path d="M50.67 22.26C51.94 23.62 51.87 25.76 50.5 27.04C50.36 27.17 36.45 40.42 39.11 57.76L32.3 57.94C29.63 37.46 45.21 22.72 45.9 22.08C47.27 20.81 49.4 20.89 50.67 22.26Z" fill="#A4B2D3"/>
<path d="M72.77 45.98C72.84 47.35 74.02 48.39 75.42 48.32C75.48 48.32 75.54 48.32 75.6 48.3C76.9 48.14 77.88 47.01 77.81 45.71C77.79 45.28 77.76 44.86 77.73 44.44L72.71 45.06C72.73 45.36 72.76 45.66 72.77 45.97V45.98Z" fill="#FADDDC"/>
<path d="M63.6 20.24C62.31 19.73 60.85 20.35 60.32 21.61C59.79 22.87 60.4 24.32 61.68 24.84C62.17 25.04 71.44 27.92 72.69 45.07L77.71 44.45C76.13 24.3 64.2 20.49 63.59 20.25L63.6 20.24Z" fill="#A4B2D3"/>
<path d="M69.93 56.19H43.01L43.02 28.85C43.02 23.82 47.1 19.74 52.13 19.74H60.83C65.86 19.74 69.94 23.82 69.94 28.85L69.92 56.19H69.93Z" fill="#A4B2D3"/>
<path d="M56.52 29.09C52.89 29.31 50.15 26.18 50.32 22.05V21.38C50.32 20.25 51.24 19.33 52.37 19.33H60.19C61.32 19.33 62.24 20.25 62.24 21.38V22.05C62.39 26.29 60.14 28.87 56.51 29.09H56.52Z" fill="#879CC6"/>
<path d="M52.3 18.66H60.12C61.25 18.66 62.17 19.58 62.17 20.71V21.38C62.17 24.67 59.5 27.34 56.21 27.34C52.92 27.34 50.25 24.67 50.25 21.38V20.71C50.25 19.58 51.17 18.66 52.3 18.66Z" fill="#A4B2D3"/>
</g>
<defs>
<clipPath id="clip0_1204_6515">
<rect width="45.81" height="103.33" fill="white" transform="translate(32 3)"/>
</clipPath>
</defs>
</svg>
