
    <svg
        width="53"
        height="106"
        viewBox="0 0 53 106"
        fill="none"
        xmlns="http://www.w3.org/2000/svg"
    >
        <g clip-path="url(#clip0_9_334)">
            <path
                d="M2.00002 42.3099C0.45002 42.8499 -0.36998 44.5499 0.17002 46.0999C0.61002 47.3699 1.84002 48.1499 3.12002 48.0899C3.40002 48.0799 3.68002 48.0199 3.96002 47.9299C4.63002 47.6999 5.28002 47.4399 5.92002 47.1699L3.03002 41.9199C2.69002 42.0499 2.35002 42.1799 2.00002 42.3099Z"
                fill="#FADDDC"
            />
            <path
                d="M24.82 17.3599C23.22 16.9999 21.63 18.0099 21.27 19.6099C21.23 19.7799 17.37 36.2199 3.03003 41.9199L5.92003 47.1699C22.65 40.0999 26.9 21.7199 27.08 20.9099C27.43 19.3099 26.42 17.7299 24.82 17.3699V17.3599Z"
                fill="#8FA0C1"
            />
            <path
                d="M23 52.8101H34.98L40.69 75.17L52.51 93.35L50.11 95.1201C50.37 95.6401 50.82 96.4701 51.28 96.8001C51.96 97.2901 52.82 98.1901 51.97 99.1901L46.86 102.84C46.13 103.12 45.4 102.03 45.8 101.25C46.06 100.73 46.93 99.59 47.21 99.09C47.8 98.06 47.18 97.25 46.5 96.0801C42.44 89.1301 32.75 78.34 32.75 78.34L23.01 52.8L23 52.8101Z"
                fill="#291B4C"
            />
            <path
                d="M19.47 52.8101H34.46L20.17 78.4101L15.01 101.38L12.21 101.26L11.48 103.11C10.75 105.18 10.71 106.04 9.10001 105.42L5.14001 104.3C4.41001 104.02 4.42001 103 5.21001 102.68C5.73001 102.46 6.56001 102.36 7.11001 102.28C9.17001 101.98 8.75001 100.56 8.95001 99.2101C10.17 91.1701 10.45 84.7901 11.93 76.6501C12.77 71.9901 19.47 52.8101 19.47 52.8101Z"
                fill="#3E2C6D"
            />
            <path
                d="M16.76 52.8601H35.23C38.96 52.8601 38.77 49.5601 38.68 48.6001L34.53 24.8701C34.53 20.7101 32.12 17.3301 28.59 17.3301H24.24C22.74 17.3301 21.32 18.0901 20.54 19.3701C14.87 28.6301 16.76 52.8601 16.76 52.8601Z"
                fill="#A4B2D3"
            />
            <path
                d="M39.48 50.4499C39.26 52.0799 40.41 53.5699 42.04 53.7899C43.38 53.9699 44.63 53.2299 45.15 52.0499C45.26 51.7999 45.34 51.5199 45.38 51.2299C45.47 50.5199 45.54 49.8299 45.59 49.1399L39.61 49.3599C39.58 49.7199 39.54 50.0899 39.49 50.4499H39.48Z"
                fill="#FADDDC"
            />
            <path
                d="M27.48 18.8401C26.44 20.1101 26.63 21.9801 27.89 23.0201C28.02 23.1301 40.97 33.9801 39.59 49.3501L45.57 49.1301C46.79 31.0101 32.29 18.9401 31.65 18.4101C30.38 17.3701 28.51 17.5601 27.47 18.8301L27.48 18.8401Z"
                fill="#A4B2D3"
            />
            <path
                d="M28.29 12.81C28.51 12.81 31.31 11.95 34.08 16.03C35.8 18.55 35.45 20.3 32.73 20.3C30.01 20.3 27.85 19.86 26.52 20.23L21.66 20.79L23.23 19.37L28.18 17.35L28.29 12.82V12.81Z"
                fill="#A4B2D3"
            />
            <path
                d="M28.2899 12.8101C28.6599 12.8101 31.0899 13.0301 30.4999 14.2801C29.9099 15.5301 28.1899 17.3401 28.1899 17.3401L28.2999 12.8101H28.2899Z"
                fill="#3E2967"
            />
            <path
                d="M25.33 20.62C25.5675 20.62 25.76 20.4275 25.76 20.19C25.76 19.9525 25.5675 19.76 25.33 19.76C25.0925 19.76 24.9 19.9525 24.9 20.19C24.9 20.4275 25.0925 20.62 25.33 20.62Z"
                fill="#5B6882"
            />
            <path
                d="M23.3199 33.28C23.4699 33.3 23.6099 33.2 23.6399 33.05L25.5899 20.24C25.6099 20.09 25.5099 19.95 25.3599 19.92C25.2099 19.89 25.0699 20 25.0399 20.15L23.0899 32.96C23.0699 33.11 23.1699 33.25 23.3199 33.28Z"
                fill="white"
            />
            <path
                d="M22.16 20.1701C22.3975 20.1701 22.59 19.9775 22.59 19.7401C22.59 19.5026 22.3975 19.3101 22.16 19.3101C21.9225 19.3101 21.73 19.5026 21.73 19.7401C21.73 19.9775 21.9225 20.1701 22.16 20.1701Z"
                fill="#5B6882"
            />
            <path
                d="M20.14 32.8401C20.29 32.8601 20.43 32.7601 20.46 32.6101L22.41 19.8C22.43 19.65 22.33 19.51 22.18 19.48C22.03 19.45 21.89 19.56 21.86 19.71L19.91 32.5201C19.89 32.6701 19.99 32.8101 20.14 32.8401Z"
                fill="white"
            />
            <path
                d="M23.2301 19.37C23.0701 19.33 22.2301 17.9 21.9901 17.58C21.7501 17.26 20.8501 16.02 21.4601 15.2C22.0701 14.38 23.4201 14.01 23.7301 14.38C24.0401 14.75 23.2301 19.37 23.2301 19.37Z"
                fill="#A4B2D3"
            />
            <path
                d="M28.39 3H18.71V12.3C18.71 14.12 20.09 15.6 21.79 15.6H22.77C23.25 15.6 23.63 16.01 23.63 16.53V20.01L28.2 17.35L28.39 3.01V3Z"
                fill="#FADDDC"
            />
            <path
                d="M19.46 12.73L18.86 12.56C18.32 12.41 18 11.84 18.15 11.3L18.98 8.33996C19.04 8.10996 19.28 7.97996 19.5 8.04996C19.72 8.11996 19.86 8.34995 19.79 8.56995L19.07 11.13C18.98 11.44 19.16 11.76 19.47 11.84L19.68 11.9C19.91 11.96 20.04 12.2 19.97 12.42C19.9 12.64 19.67 12.78 19.45 12.71L19.46 12.73Z"
                fill="#E0B1BB"
            />
            <path
                opacity="0.5"
                d="M22.03 10.1401H21.03C20.4 10.1401 19.88 9.56008 19.88 8.86008C19.88 8.15008 20.4 7.58008 21.03 7.58008H22.03C22.66 7.58008 23.18 8.16008 23.18 8.86008C23.18 9.57008 22.66 10.1401 22.03 10.1401Z"
                fill="white"
            />
            <path
                opacity="0.5"
                d="M17.55 10.1401H18.07C17.44 10.1401 16.92 9.56008 16.92 8.86008C16.92 8.15008 17.44 7.58008 18.07 7.58008H17.55C18.18 7.58008 18.7 8.16008 18.7 8.86008C18.7 9.57008 18.18 10.1401 17.55 10.1401Z"
                fill="white"
            />
            <path
                d="M22.27 7.07007H20.75C20.25 7.07007 19.81 7.41007 19.62 7.89007H18.91C18.72 7.41007 18.29 7.07007 17.78 7.07007C17.1 7.07007 16.54 7.69007 16.54 8.45007V9.03007C16.54 9.79007 17.09 10.4101 17.78 10.4101C18.46 10.4101 19.02 9.79007 19.02 9.03007V8.67007H19.51V9.03007C19.51 9.79007 20.06 10.4101 20.75 10.4101H22.27C22.95 10.4101 23.51 9.79007 23.51 9.03007V8.45007C23.51 7.69007 22.96 7.07007 22.27 7.07007ZM18.33 9.03007C18.33 9.36007 18.09 9.64007 17.79 9.64007C17.49 9.64007 17.25 9.37007 17.25 9.03007V8.45007C17.25 8.12007 17.49 7.84007 17.79 7.84007C18.09 7.84007 18.33 8.11007 18.33 8.45007V9.03007ZM22.81 9.03007C22.81 9.36007 22.57 9.64007 22.27 9.64007H20.75C20.45 9.64007 20.21 9.37007 20.21 9.03007V8.45007C20.21 8.12007 20.45 7.84007 20.75 7.84007H22.27C22.57 7.84007 22.81 8.11007 22.81 8.45007V9.03007Z"
                fill="#9C9E9F"
            />
            <path
                d="M30.02 5.71012C30.17 4.23012 29.66 2.74012 28.58 1.70012C27.21 0.38012 25.12 -0.31988 22.17 0.14012C22.06 0.16012 21.94 0.14012 21.83 0.14012C18.47 0.14012 17.24 2.85012 17.26 4.48012C17.28 6.71012 18.44 7.32012 18.44 7.32012C18.44 7.32012 18.49 7.32012 18.5 7.32012C19.49 7.32012 18.9 3.36012 19.52 3.36012C20.14 3.36012 19.82 7.38012 24.55 7.38012C24.91 7.38012 25.19 7.67012 25.19 8.02012V9.17012C25.19 9.38012 25.36 9.55012 25.58 9.55012C25.8 9.55012 25.97 9.38012 25.97 9.17012C25.97 8.96012 26.89 11.0601 27.54 11.9201C27.77 12.2201 28.4 11.7801 28.4 11.7801C28.8 11.1701 29.76 8.27012 30.03 5.73012L30.02 5.71012Z"
                fill="#3E2967"
            />
            <path
                d="M25.95 10.6001C25.95 11.1303 26.3798 11.5601 26.91 11.5601C27.4402 11.5601 27.87 11.1303 27.87 10.6001V8.51006C27.87 7.97987 27.4402 7.55006 26.91 7.55006C26.3798 7.55006 25.95 7.97987 25.95 8.51006V10.6001Z"
                fill="#FADDDC"
            />
        </g>
        <defs>
            <clipPath id="clip0_9_334">
                <rect width="52.51" height="105.62" fill="white" />
            </clipPath>
        </defs>
    </svg>
