<svg width="110" height="110" viewBox="0 0 110 110" fill="none" xmlns="http://www.w3.org/2000/svg">
<g clip-path="url(#clip0_1204_6421)">
<path d="M57 55.87H42.69L41.27 100.69L43.8 100.87C43.8 101.55 43.4 102.83 42.94 103.19C42.4 103.62 40.97 104.1 40.45 104.57C39.84 105.13 40.16 106.35 40.92 106.35H44H44.79C45.49 106.35 46.1 105.75 46.27 104.89L46.34 101.11L47.87 101.07C49.06 94.8 50.27 84.83 51.32 78.44C52.06 73.96 52.76 69.49 53.42 65.04C53.57 64.06 54.28 63.35 55.11 63.35H56.62C57.46 63.35 58.17 64.06 58.31 65.04C58.97 69.5 61.48 92.78 62.89 99.88C62.97 100.28 64.58 99.75 64.66 100.16C64.91 101.44 64.48 102.76 63.6 103.48C63.17 103.83 62.76 104.19 62.35 104.57C61.73 105.13 62.05 106.36 62.81 106.36H65.89L67.89 105.59C69.87 104.11 67.4 102.95 68.33 100.15L69.98 99.6L69.04 63.34V55.85H57V55.87Z" fill="#3E2967"/>
<path d="M21.38 10.88C20.44 9.54 18.6 9.22 17.26 10.15C16.16 10.92 15.75 12.3 16.15 13.52C16.24 13.78 16.36 14.04 16.53 14.28C16.94 14.86 17.36 15.42 17.78 15.95L22.02 11.77C21.8 11.48 21.58 11.19 21.37 10.89L21.38 10.88Z" fill="#FADDDC"/>
<path d="M51.4 25.99C51.31 24.36 49.92 23.11 48.29 23.2C48.12 23.2 31.34 23.95 22.03 11.76L17.79 15.94C29.07 30.04 47.8 29.15 48.62 29.1C50.25 29.01 51.49 27.61 51.4 25.99Z" fill="#A4B2D3"/>
<path d="M42.69 55.9H69.15C70.17 55.9 70.97 55.04 70.9 54.02L69.39 26.22C69.39 24.92 65.81 21.66 61.4 21.66H50.93C44.63 21.66 42.94 25.56 42.94 30.37L40.94 53.98C40.84 55.01 41.65 55.9 42.69 55.9Z" fill="#A4B2D3"/>
<path d="M77.63 52.06C77.64 53.44 78.78 54.55 80.16 54.54C80.22 54.54 80.28 54.54 80.34 54.54C81.64 54.43 82.65 53.34 82.64 52.02C82.64 51.59 82.62 51.16 82.61 50.74L77.61 51.15C77.61 51.46 77.63 51.76 77.64 52.08L77.63 52.06Z" fill="#FADDDC"/>
<path d="M67.55 23.59C66.3 23.02 64.82 23.58 64.25 24.83C63.67 26.08 64.22 27.56 65.47 28.15C65.95 28.37 77.04 33.77 77.6 51.14L82.6 50.73C81.84 30.32 68.14 23.86 67.55 23.59Z" fill="#A4B2D3"/>
<path d="M61.5919 17.6215L52.0385 17.2662C50.8132 17.2206 49.7831 18.1769 49.7375 19.4021L49.736 19.4421C49.6904 20.6673 50.6467 21.6975 51.872 21.7431L61.4254 22.0984C62.6506 22.144 63.6808 21.1877 63.7263 19.9624L63.7278 19.9225C63.7734 18.6972 62.8171 17.6671 61.5919 17.6215Z" fill="#A4B2D3"/>
<path d="M56.66 21.73L60.61 19.69C61.16 19.41 61.51 18.85 61.54 18.23C61.55 17.89 61.29 17.61 60.95 17.59L52.68 17.28C52.34 17.27 52.06 17.53 52.05 17.87C52.03 18.49 52.34 19.07 52.87 19.39L56.67 21.72L56.66 21.73Z" fill="#3E2967"/>
<path d="M59.04 20.55L59.57 6.12L52.2 5.85C50.83 5.8 49.68 6.87 49.63 8.23L49.45 14.21C49.37 16.43 51.1 18.29 53.31 18.37H53.42C53.9 18.39 54.28 18.8 54.27 19.28L54.23 20.32L56.63 21.79L59.04 20.54V20.55Z" fill="#FADDDC"/>
<path d="M52.44 15.77L51.85 15.75C51.32 15.73 50.9 15.28 50.92 14.75L51.03 11.84C51.03 11.62 51.23 11.44 51.45 11.45C51.67 11.46 51.85 11.65 51.84 11.87L51.75 14.39C51.74 14.69 51.97 14.95 52.28 14.96H52.49C52.71 14.98 52.89 15.16 52.88 15.39C52.87 15.62 52.68 15.79 52.46 15.78L52.44 15.77Z" fill="#E0B1BB"/>
<path d="M53.79 22.2C54.0275 22.2 54.22 22.0075 54.22 21.77C54.22 21.5325 54.0275 21.34 53.79 21.34C53.5525 21.34 53.36 21.5325 53.36 21.77C53.36 22.0075 53.5525 22.2 53.79 22.2Z" fill="#F1EFEA"/>
<path d="M53.3 34.99C53.15 34.99 53.03 34.85 53.03 34.7L53.51 21.76C53.51 21.61 53.65 21.49 53.8 21.49C53.95 21.49 54.07 21.63 54.07 21.78L53.59 34.72C53.59 34.87 53.45 34.99 53.3 34.99Z" fill="white"/>
<path d="M58.71 22.38C58.9475 22.38 59.14 22.1875 59.14 21.95C59.14 21.7125 58.9475 21.52 58.71 21.52C58.4725 21.52 58.28 21.7125 58.28 21.95C58.28 22.1875 58.4725 22.38 58.71 22.38Z" fill="#F1EFEA"/>
<path d="M58.22 35.18C58.07 35.18 57.95 35.04 57.95 34.89L58.43 21.95C58.43 21.8 58.57 21.68 58.72 21.68C58.87 21.68 58.99 21.82 58.99 21.97L58.51 34.91C58.51 35.06 58.37 35.18 58.22 35.18Z" fill="white"/>
<path opacity="0.5" d="M54.48 13.65H53.36C52.65 13.65 52.08 13.07 52.08 12.37C52.08 11.66 52.66 11.09 53.36 11.09H54.48C55.19 11.09 55.76 11.67 55.76 12.37C55.76 13.08 55.18 13.65 54.48 13.65Z" fill="white"/>
<path opacity="0.5" d="M49.47 13.65H49.12C48.41 13.65 47.84 13.07 47.84 12.37C47.84 11.66 48.42 11.09 49.12 11.09H49.47C50.18 11.09 50.75 11.67 50.75 12.37C50.75 13.08 50.17 13.65 49.47 13.65Z" fill="white"/>
<path d="M54.77 10.31H53.07C52.51 10.31 52.02 10.65 51.81 11.13H51.02C50.81 10.65 50.32 10.31 49.76 10.31H48.83C48.07 10.31 47.45 10.93 47.45 11.69V12.27C47.45 13.03 48.07 13.65 48.83 13.65H49.76C50.52 13.65 51.14 13.03 51.14 12.27V11.91H51.69V12.27C51.69 13.03 52.31 13.65 53.07 13.65H54.77C55.53 13.65 56.15 13.03 56.15 12.27V11.69C56.15 10.93 55.53 10.31 54.77 10.31ZM50.36 12.27C50.36 12.6 50.09 12.88 49.75 12.88H48.82C48.49 12.88 48.21 12.61 48.21 12.27V11.69C48.21 11.36 48.48 11.08 48.82 11.08H49.75C50.08 11.08 50.36 11.35 50.36 11.69V12.27ZM55.37 12.27C55.37 12.6 55.1 12.88 54.76 12.88H53.06C52.73 12.88 52.45 12.61 52.45 12.27V11.69C52.45 11.36 52.72 11.08 53.06 11.08H54.76C55.09 11.08 55.37 11.35 55.37 11.69V12.27Z" fill="#9C9E9F"/>
<path d="M60.97 8.71C61.12 7.23 60.62 5.74 59.57 4.7C58.23 3.38 56.2 2.68 53.33 3.14C53.22 3.16 53.11 3.14 53 3.14C49.73 3.14 48.53 5.85 48.55 7.48C48.57 9.71 49.7 10.32 49.7 10.32C49.7 10.32 49.75 10.32 49.76 10.32C51.55 10.32 51.24 6.36 51.84 6.36C52.44 6.36 51.5 10.14 56.86 10.38C57.21 10.4 57.48 10.67 57.48 11.02V12.17C57.48 12.38 57.65 12.55 57.86 12.55C58.07 12.55 58.24 12.38 58.24 12.17V10.96C58.24 10.66 58.46 10.39 58.76 10.37C59.08 10.35 59.34 10.61 59.34 10.92L59.24 14.91V14.93C59.63 14.32 60.71 11.26 60.97 8.72V8.71Z" fill="#3E2967"/>
</g>
<defs>
<clipPath id="clip0_1204_6421">
<rect width="66.64" height="103.37" fill="white" transform="translate(16 3)"/>
</clipPath>
</defs>
</svg>
