<svg width="110" height="110" viewBox="0 0 110 110" fill="none" xmlns="http://www.w3.org/2000/svg">
<g clip-path="url(#clip0_1206_1817)">
<path d="M43.21 53.26L67.87 53.37L62.65 95.8C62.65 95.8 60.06 97.51 60.05 97.57C59.84 98.93 60.05 100.08 62.06 98.81C62.64 98.44 63.1 98.42 63.63 98.9C64.26 99.47 63.78 101.13 63.22 102.02L58.27 105.96C57.68 106.43 56.81 106.48 56.26 105.96C55.41 105.18 55.65 103.93 56.01 102.92C57.38 99 56.96 98.55 56.96 98.55L56.19 98.81C55.69 98.98 55.19 98.59 55.23 98.07C55.63 92.92 56.65 66.48 56.83 61.73C56.85 61.33 56.53 60.99 56.13 60.98L55.07 60.96C54.75 60.96 54.44 61.18 54.44 61.5C54.41 67.86 54.33 77.83 54.24 77.83C54.24 77.83 53.77 82.08 53.52 83.05C53.17 84.43 51.75 84.24 51.26 83.21C50.84 82.32 50.72 79.6 50.64 78.89H48.46L43.21 53.25V53.26Z" fill="#3E2967"/>
<path d="M53.35 19.88H57.86V16.6H53.35V19.88Z" fill="#FADDDC"/>
<path d="M50.5101 13.04H51.0601V10.55C51.0601 10.15 50.7301 9.82001 50.3301 9.82001H50.0401C49.6401 9.82001 49.3101 10.15 49.3101 10.55L49.6501 12.18C49.6501 12.66 50.0401 13.04 50.5101 13.04Z" fill="#FADDDC"/>
<path d="M61.39 13.04H60.84V10.55C60.84 10.15 61.17 9.82001 61.57 9.82001H61.86C62.26 9.82001 62.59 10.15 62.59 10.55L62.25 12.18C62.25 12.66 61.86 13.04 61.39 13.04Z" fill="#FADDDC"/>
<path d="M54.62 3.20999C55.97 2.94999 58.05 2.64999 59.53 4.22999C61.01 5.80999 61.74 6.84 61.74 8.25999C61.74 9.67999 61.64 10.89 61.4 11.84C61.16 12.79 60.1199 16.01 58.1399 17.29C57.1899 17.9 54.65 18.28 53.39 17.29C52.13 16.3 51.01 15.01 50.7 12.97C50.39 10.93 50.36 10.56 50.02 9.59999C49.68 8.63999 50.24 6.53999 50.36 6.01999C50.48 5.49999 52.06 3.69999 54.62 3.20999Z" fill="#3E2967"/>
<path d="M72.48 58.99C72.12 60.82 73.31 62.6 75.14 62.96C76.65 63.26 78.11 62.5 78.79 61.21C78.94 60.93 79.05 60.62 79.11 60.3C79.27 59.51 79.39 58.72 79.49 57.94L72.68 57.76C72.62 58.17 72.55 58.58 72.47 58.99H72.48Z" fill="#FADDDC"/>
<path d="M61.14 22.26C59.87 23.62 59.94 25.76 61.31 27.04C61.45 27.17 75.36 40.42 72.7 57.76L79.51 57.94C82.2 37.46 66.61 22.72 65.92 22.08C64.55 20.81 62.42 20.89 61.15 22.26H61.14Z" fill="#A4B2D3"/>
<path d="M39.04 45.98C38.97 47.35 37.79 48.39 36.39 48.32C36.33 48.32 36.27 48.32 36.21 48.3C34.91 48.14 33.93 47.01 34 45.71C34.02 45.28 34.05 44.86 34.08 44.44L39.1 45.06C39.08 45.36 39.05 45.66 39.04 45.97V45.98Z" fill="#FADDDC"/>
<path d="M48.21 20.24C49.5 19.73 50.96 20.35 51.49 21.61C52.02 22.87 51.41 24.32 50.13 24.84C49.64 25.04 40.37 27.92 39.12 45.07L34.1 44.45C35.68 24.3 47.61 20.49 48.22 20.25L48.21 20.24Z" fill="#A4B2D3"/>
<path d="M41.88 56.19H68.8L68.79 28.85C68.79 23.82 64.71 19.74 59.68 19.74H50.98C45.95 19.74 41.87 23.82 41.87 28.85L41.89 56.19H41.88Z" fill="#A4B2D3"/>
<path d="M55.2901 29.09C58.9201 29.31 61.6601 26.18 61.4901 22.05V21.38C61.4901 20.25 60.5701 19.33 59.4401 19.33H51.6201C50.4901 19.33 49.5701 20.25 49.5701 21.38V22.05C49.4201 26.29 51.6701 28.87 55.3001 29.09H55.2901Z" fill="#879CC6"/>
<path d="M55.6099 27.34C52.3199 27.34 49.6499 24.67 49.6499 21.38V20.71C49.6499 19.58 50.5699 18.66 51.6999 18.66H59.5199C60.6499 18.66 61.5699 19.58 61.5699 20.71V21.38C61.5699 24.67 58.8999 27.34 55.6099 27.34Z" fill="#A4B2D3"/>
</g>
<defs>
<clipPath id="clip0_1206_1817">
<rect width="45.81" height="103.33" fill="white" transform="translate(34 3)"/>
</clipPath>
</defs>
</svg>
