<svg width="110" height="110" viewBox="0 0 110 110" fill="none" xmlns="http://www.w3.org/2000/svg">
<g clip-path="url(#clip0_1206_1625)">
<path d="M48.4423 54.7944L62.7352 54.1725L50.3669 74.443L56.131 94.2721L53.8351 94.9842V96.93C54.011 98.2941 54.011 99.1867 52.526 99.9791L48.7061 100.932C47.9538 100.992 47.6021 100.079 48.1883 99.4676C48.5791 99.0563 49.3997 98.7655 49.7514 98.3141C51.2852 96.2881 50.4841 95.8167 50.191 94.5329C48.7842 88.3745 44.4367 78.806 42.7955 75.3156C42.3949 74.453 42.3363 73.4701 42.6294 72.5573L48.4325 54.7944H48.4423Z" fill="#291B4C"/>
<path d="M49.3313 54.6038L61.4456 54.2227L61.7973 101.453L59.5308 102.176C59.521 102.747 59.5308 103.69 59.775 104.202C60.1267 104.964 60.4686 106.168 59.2963 106.569L53.3466 107C52.6041 106.86 52.4673 105.566 53.1512 105.114C53.6006 104.813 54.8413 104.292 55.3103 104.021C56.2677 103.459 56.2286 102.436 56.043 101.122C54.6948 91.6041 49.3313 54.6038 49.3313 54.6038Z" fill="#3E2C6D"/>
<path d="M44.0459 56.018H62.0903C65.7442 56.018 65.5586 52.7182 65.4609 51.7553L61.4065 27.9544C61.4065 23.782 59.052 20.3918 55.6033 20.3918H51.3535C49.8881 20.3918 48.5008 21.1541 47.7388 22.4379C42.1994 31.7256 44.0459 56.0281 44.0459 56.0281V56.018Z" fill="#A4B2D3"/>
<path d="M56.9223 25.0156C55.3689 24.6245 53.796 25.6074 53.415 27.2021C53.3759 27.3727 50.4939 43.6412 43.6845 46.61L43.8408 52.5076C56.1309 43.4706 58.8762 29.4188 59.0618 28.6063C59.4331 27.0116 58.4854 25.3968 56.9223 25.0156Z" fill="#8FA0C1"/>
<path d="M34.0027 49.0974C32.4787 49.6089 31.6483 51.2939 32.1465 52.8586C32.5568 54.1424 33.739 54.9549 34.9895 54.9147C35.263 54.9147 35.5366 54.8546 35.8101 54.7643C36.4745 54.5436 37.1095 54.3029 37.7347 54.0421L35.009 48.7263C34.6769 48.8567 34.3447 48.977 33.993 49.0974H34.0027Z" fill="#FADDDC"/>
<path d="M56.766 24.5241C55.2126 24.133 53.6397 25.1159 53.2587 26.7107C53.2196 26.8812 49.1359 43.2901 35.0188 48.7263L37.7445 54.0421C54.2161 47.282 58.7101 28.9273 58.8957 28.1249C59.267 26.5301 58.3193 24.9153 56.7562 24.5342L56.766 24.5241Z" fill="#A4B2D3"/>
<path d="M55.3103 15.8483C55.5252 15.8483 58.2607 14.9857 60.9669 19.0779C62.6473 21.6054 62.3053 23.3607 59.648 23.3607C56.9907 23.3607 54.8804 22.9194 53.5811 23.2905L48.833 23.8521L50.3669 22.4279L55.2028 20.4019L55.3103 15.8583V15.8483Z" fill="#A4B2D3"/>
<path d="M55.3103 15.8483C55.6718 15.8483 58.0458 16.069 57.4694 17.3227C56.893 18.5764 55.2126 20.3918 55.2126 20.3918L55.3201 15.8483H55.3103Z" fill="#3E2967"/>
<path d="M52.4185 23.6816C52.1865 23.6816 51.9984 23.4885 51.9984 23.2503C51.9984 23.0122 52.1865 22.8191 52.4185 22.8191C52.6505 22.8191 52.8386 23.0122 52.8386 23.2503C52.8386 23.4885 52.6505 23.6816 52.4185 23.6816Z" fill="#5B6882"/>
<path d="M50.4548 36.3795C50.6013 36.3995 50.7381 36.2992 50.7674 36.1488L52.6725 23.3005C52.692 23.1501 52.5943 23.0096 52.4478 22.9795C52.3013 22.9495 52.1645 23.0598 52.1352 23.2102L50.2301 36.0585C50.2106 36.209 50.3083 36.3494 50.4548 36.3795Z" fill="white"/>
<path d="M49.3215 23.2303C49.0895 23.2303 48.9015 23.0372 48.9015 22.799C48.9015 22.5608 49.0895 22.3677 49.3215 22.3677C49.5536 22.3677 49.7416 22.5608 49.7416 22.799C49.7416 23.0372 49.5536 23.2303 49.3215 23.2303Z" fill="#5B6882"/>
<path d="M47.3481 35.9382C47.4946 35.9582 47.6314 35.8579 47.6607 35.7075L49.5658 22.8592C49.5853 22.7087 49.4876 22.5683 49.3411 22.5382C49.1945 22.5081 49.0577 22.6185 49.0284 22.7689L47.1234 35.6172C47.1038 35.7677 47.2015 35.9081 47.3481 35.9382Z" fill="white"/>
<path d="M50.3669 22.4279C50.2106 22.3878 49.3899 20.9535 49.1555 20.6325C48.921 20.3116 48.0417 19.0679 48.6377 18.2454C49.2336 17.423 50.5525 17.0519 50.8554 17.423C51.1582 17.7941 50.3669 22.4279 50.3669 22.4279Z" fill="#A4B2D3"/>
<path d="M55.408 6.00897H45.951V15.3368C45.951 17.1622 47.2992 18.6466 48.9601 18.6466H49.9175C50.3864 18.6466 50.7577 19.0579 50.7577 19.5794V23.0698L55.2224 20.4019L55.408 6.019V6.00897Z" fill="#FADDDC"/>
<path d="M46.6837 15.7681L46.0976 15.5975C45.57 15.4471 45.2574 14.8754 45.4039 14.3338L46.2148 11.3649C46.2734 11.1342 46.5079 11.0039 46.7228 11.0741C46.9377 11.1443 47.0745 11.375 47.0061 11.5956L46.3027 14.1633C46.2148 14.4742 46.3906 14.7952 46.6935 14.8754L46.8987 14.9356C47.1234 14.9957 47.2504 15.2365 47.182 15.4571C47.1136 15.6778 46.8889 15.8182 46.674 15.748L46.6837 15.7681Z" fill="#E0B1BB"/>
<path opacity="0.5" d="M49.1945 13.1703H48.2175C47.602 13.1703 47.094 12.5886 47.094 11.8865C47.094 11.1744 47.602 10.6027 48.2175 10.6027H49.1945C49.81 10.6027 50.318 11.1844 50.318 11.8865C50.318 12.5986 49.81 13.1703 49.1945 13.1703Z" fill="white"/>
<path opacity="0.5" d="M44.8177 13.1703H45.3257C44.7103 13.1703 44.2022 12.5886 44.2022 11.8865C44.2022 11.1744 44.7103 10.6027 45.3257 10.6027H44.8177C45.4332 10.6027 45.9412 11.1844 45.9412 11.8865C45.9412 12.5986 45.4332 13.1703 44.8177 13.1703Z" fill="white"/>
<path d="M50.6307 11.4753V12.057C50.6307 12.8193 50.0933 13.4411 49.4192 13.4411H47.9343C47.2699 13.4411 46.7228 12.8193 46.7228 12.057V11.6959H46.2441V12.057C46.2441 12.8193 45.7068 13.4411 45.0327 13.4411C44.3684 13.4411 43.8213 12.8193 43.8213 12.057V11.4753C43.8213 10.713 44.3586 10.0911 45.0327 10.0911C45.5212 10.0911 45.951 10.4321 46.1367 10.9136H46.8303C47.0159 10.4321 47.436 10.0911 47.9343 10.0911H49.4192C50.0836 10.0911 50.6307 10.713 50.6307 11.4753ZM45.5798 11.4753C45.5798 11.1443 45.3453 10.8634 45.0522 10.8634C44.7591 10.8634 44.5247 11.1342 44.5247 11.4753V12.057C44.5247 12.388 44.7591 12.6688 45.0522 12.6688C45.3453 12.6688 45.5798 12.398 45.5798 12.057V11.4753ZM49.9566 11.4753C49.9566 11.1443 49.7221 10.8634 49.429 10.8634H47.944C47.6509 10.8634 47.4165 11.1342 47.4165 11.4753V12.057C47.4165 12.388 47.6509 12.6688 47.944 12.6688H49.429C49.7221 12.6688 49.9566 12.398 49.9566 12.057V11.4753Z" fill="#9C9E9F"/>
<path d="M57.0005 8.72704C57.147 7.24262 56.6488 5.74816 55.5936 4.70505C54.2454 3.38111 52.2036 2.67902 49.3215 3.14039C49.2141 3.16045 49.0968 3.14039 48.9894 3.14039C45.7068 3.14039 44.5051 5.85849 44.5247 7.49337C44.5442 9.73003 45.6775 10.3419 45.6775 10.3419C45.6775 10.3419 45.7263 10.3419 45.7361 10.3419C46.7033 10.3419 46.1269 6.37002 46.7326 6.37002C47.3383 6.37002 47.0257 10.402 51.6467 10.402C51.9984 10.402 52.272 10.6929 52.272 11.0439V12.1974C52.272 12.408 52.4381 12.5785 52.653 12.5785C52.8679 12.5785 53.034 12.408 53.034 12.1974C53.034 11.9868 53.9328 14.093 54.5678 14.9556C54.7925 15.2565 55.408 14.8152 55.408 14.8152C55.7988 14.2034 56.7367 11.2947 57.0005 8.7471V8.72704Z" fill="#3E2967"/>
<path d="M53.0242 11.5254C53.0242 10.9936 53.4441 10.5625 53.9621 10.5625C54.4801 10.5625 54.9 10.9936 54.9 11.5254V13.6216C54.9 14.1534 54.4801 14.5845 53.9621 14.5845C53.4441 14.5845 53.0242 14.1534 53.0242 13.6216V11.5254Z" fill="#FADDDC"/>
</g>
<defs>
<clipPath id="clip0_1206_1625">
<rect width="33.5" height="104" fill="white" transform="matrix(-1 0 0 1 65.5 3)"/>
</clipPath>
</defs>
</svg>
