<svg width="110" height="110" viewBox="0 0 110 110" fill="none" xmlns="http://www.w3.org/2000/svg">
<g clip-path="url(#clip0_1206_1497)">
<path d="M71.8548 54.1123C73.054 55.2056 73.1612 57.0912 72.0888 58.3249C71.2113 59.3379 69.8171 59.5887 68.6861 59.037C68.4424 58.9167 68.2084 58.7562 67.9939 58.5656C67.4772 58.0942 66.9799 57.6028 66.512 57.1113L71.0748 53.3601C71.3283 53.6109 71.5915 53.8616 71.8548 54.1123Z" fill="#FADDDC"/>
<path d="M60.5841 22.2474C62.1636 22.5282 63.2166 24.0728 62.9436 25.6977C62.9143 25.8682 60.2722 42.588 71.0748 53.3701L66.5119 57.1213C54.0714 44.1527 57.0938 25.487 57.2303 24.6746C57.5033 23.0498 59.0047 21.9766 60.5841 22.2574V22.2474Z" fill="#8FA0C1"/>
<path d="M60.1356 54.6038L48.0461 54.2227L47.6951 101.453L49.957 102.176C49.9667 102.747 49.957 103.69 49.7132 104.202C49.3623 104.964 49.021 106.168 50.191 106.569L56.1285 107C56.8695 106.86 57.006 105.566 56.3235 105.114C55.875 104.813 54.6368 104.292 54.1688 104.021C53.2134 103.459 53.2524 102.436 53.4376 101.122C54.7831 91.6041 60.1356 54.6038 60.1356 54.6038Z" fill="#291B4C"/>
<path d="M65.4103 56.018H47.4027C43.7563 56.018 43.9416 52.7182 44.0391 51.7553L48.0852 27.9544C48.0852 23.7819 50.4348 20.3918 53.8765 20.3918H58.1176C59.58 20.3918 60.9645 21.1541 61.7249 22.4379C67.253 31.7256 65.4103 56.0281 65.4103 56.0281V56.018Z" fill="#A4B2D3"/>
<path d="M54.1689 15.8483C53.9544 15.8483 51.2245 14.9857 48.5239 19.0779C46.8469 21.6055 47.1882 23.3607 49.8401 23.3607C52.492 23.3607 54.5979 22.9194 55.8946 23.2905L60.6329 23.8522L59.1023 22.4279L54.2762 20.4019L54.1689 15.8583V15.8483Z" fill="#A4B2D3"/>
<path d="M54.1689 15.8483C53.8082 15.8483 51.439 16.069 52.0143 17.3227C52.5895 18.5764 54.2664 20.3918 54.2664 20.3918L54.1592 15.8483H54.1689Z" fill="#3E2967"/>
<path d="M57.0549 23.6816C57.2864 23.6816 57.4741 23.4886 57.4741 23.2504C57.4741 23.0122 57.2864 22.8191 57.0549 22.8191C56.8233 22.8191 56.6356 23.0122 56.6356 23.2504C56.6356 23.4886 56.8233 23.6816 57.0549 23.6816Z" fill="#5B6882"/>
<path d="M59.0145 36.3795C58.8682 36.3996 58.7317 36.2993 58.7025 36.1488L56.8013 23.3005C56.7818 23.1501 56.8793 23.0097 57.0255 22.9796C57.1718 22.9495 57.3083 23.0598 57.3375 23.2102L59.2387 36.0585C59.2582 36.209 59.1607 36.3494 59.0145 36.3795Z" fill="white"/>
<path d="M60.1454 23.2303C60.377 23.2303 60.5647 23.0372 60.5647 22.799C60.5647 22.5608 60.377 22.3677 60.1454 22.3677C59.9139 22.3677 59.7262 22.5608 59.7262 22.799C59.7262 23.0372 59.9139 23.2303 60.1454 23.2303Z" fill="#5B6882"/>
<path d="M62.1148 35.9382C61.9686 35.9582 61.8321 35.8579 61.8028 35.7075L59.9016 22.8592C59.8821 22.7087 59.9796 22.5683 60.1259 22.5382C60.2721 22.5081 60.4086 22.6185 60.4379 22.7689L62.3391 35.6172C62.3586 35.7677 62.2611 35.9081 62.1148 35.9382Z" fill="white"/>
<path d="M59.1022 22.4279C59.2582 22.3878 60.0771 20.9535 60.3111 20.6326C60.5451 20.3116 61.4226 19.0679 60.8279 18.2454C60.2331 17.423 58.9169 17.0519 58.6147 17.423C58.3125 17.7941 59.1022 22.4279 59.1022 22.4279Z" fill="#A4B2D3"/>
<path d="M54.0714 6.00897H63.5091V15.3368C63.5091 17.1622 62.1636 18.6466 60.5062 18.6466H59.5507C59.0827 18.6466 58.7122 19.0579 58.7122 19.5794V23.0698L54.2567 20.4019L54.0714 6.019V6.00897Z" fill="#FADDDC"/>
<path d="M62.7778 15.7681L63.3628 15.5975C63.8893 15.4471 64.2012 14.8754 64.055 14.3338L63.2458 11.3649C63.1873 11.1342 62.9533 11.0039 62.7388 11.0741C62.5243 11.1443 62.3878 11.375 62.4561 11.5956L63.158 14.1633C63.2458 14.4742 63.0703 14.7952 62.768 14.8754L62.5633 14.9356C62.3391 14.9957 62.2123 15.2365 62.2806 15.4571C62.3488 15.6778 62.5731 15.8182 62.7875 15.748L62.7778 15.7681Z" fill="#E0B1BB"/>
<path opacity="0.5" d="M60.2722 13.1703H61.2472C61.8614 13.1703 62.3684 12.5886 62.3684 11.8865C62.3684 11.1744 61.8614 10.6027 61.2472 10.6027H60.2722C59.658 10.6027 59.151 11.1844 59.151 11.8865C59.151 12.5986 59.658 13.1703 60.2722 13.1703Z" fill="white"/>
<path opacity="0.5" d="M64.64 13.1703H64.133C64.7473 13.1703 65.2542 12.5886 65.2542 11.8865C65.2542 11.1744 64.7473 10.6027 64.133 10.6027H64.64C64.0258 10.6027 63.5188 11.1844 63.5188 11.8865C63.5188 12.5986 64.0258 13.1703 64.64 13.1703Z" fill="white"/>
<path d="M58.839 11.4753V12.057C58.839 12.8193 59.3752 13.4411 60.0479 13.4411H61.5299C62.1929 13.4411 62.7389 12.8193 62.7389 12.057V11.6959H63.2166V12.057C63.2166 12.8193 63.7528 13.4411 64.4255 13.4411C65.0885 13.4411 65.6345 12.8193 65.6345 12.057V11.4753C65.6345 10.713 65.0983 10.0911 64.4255 10.0911C63.9381 10.0911 63.5091 10.4322 63.3238 10.9136H62.6316C62.4464 10.4322 62.0271 10.0911 61.5299 10.0911H60.0479C59.385 10.0911 58.839 10.713 58.839 11.4753ZM63.8796 11.4753C63.8796 11.1443 64.1136 10.8634 64.406 10.8634C64.6985 10.8634 64.9325 11.1342 64.9325 11.4753V12.057C64.9325 12.388 64.6985 12.6688 64.406 12.6688C64.1136 12.6688 63.8796 12.398 63.8796 12.057V11.4753ZM59.5117 11.4753C59.5117 11.1443 59.7457 10.8634 60.0382 10.8634H61.5201C61.8126 10.8634 62.0466 11.1342 62.0466 11.4753V12.057C62.0466 12.388 61.8126 12.6688 61.5201 12.6688H60.0382C59.7457 12.6688 59.5117 12.398 59.5117 12.057V11.4753Z" fill="#9C9E9F"/>
<path d="M52.4822 8.72707C52.336 7.24265 52.8332 5.74819 53.8862 4.70508C55.2316 3.38114 57.2693 2.67905 60.1454 3.14042C60.2527 3.16048 60.3697 3.14042 60.4769 3.14042C63.7528 3.14042 64.952 5.85852 64.9325 7.4934C64.913 9.73006 63.7821 10.3419 63.7821 10.3419C63.7821 10.3419 63.7333 10.3419 63.7236 10.3419C62.7584 10.3419 63.3336 6.37005 62.7291 6.37005C62.1246 6.37005 62.4366 10.4021 57.825 10.4021C57.474 10.4021 57.201 10.6929 57.201 11.044V12.1974C57.201 12.408 57.0353 12.5786 56.8208 12.5786C56.6063 12.5786 56.4406 12.408 56.4406 12.1974C56.4406 11.9868 55.5436 14.0931 54.9099 14.9556C54.6856 15.2565 54.0714 14.8152 54.0714 14.8152C53.6814 14.2034 52.7455 11.2947 52.4822 8.74713V8.72707Z" fill="#3E2967"/>
<path d="M56.4503 11.5254C56.4503 10.9936 56.0313 10.5625 55.5143 10.5625C54.9974 10.5625 54.5784 10.9936 54.5784 11.5254V13.6217C54.5784 14.1534 54.9974 14.5845 55.5143 14.5845C56.0313 14.5845 56.4503 14.1534 56.4503 13.6217V11.5254Z" fill="#FADDDC"/>
<path d="M61.0229 54.7944L46.7592 54.1725L59.1022 74.443L53.3499 94.2721L55.6411 94.9842V96.93C55.4656 98.294 55.4656 99.1867 56.9476 99.9791L60.7597 100.932C61.5104 100.992 61.8614 100.079 61.2764 99.4675C60.8864 99.0563 60.0674 98.7654 59.7165 98.3141C58.1858 96.2881 58.9852 95.8167 59.2777 94.5328C60.6232 88.6252 64.679 79.5582 66.4437 75.7569C66.98 74.6034 67.058 73.2795 66.6582 72.0659L61.0229 54.7944Z" fill="#3E2C6D"/>
<path d="M52.1702 24.0427C53.5936 24.7849 54.1591 26.5803 53.4376 28.0547C53.3596 28.2152 50.2592 48.8366 53.5351 55.657L49.255 55.2156C45.6866 40.1407 48.0266 29.0677 48.397 28.3355C49.1283 26.8712 50.7467 23.3005 52.1702 24.0528V24.0427Z" fill="#8FA0C1"/>
<path d="M54.2468 57.6429C55.0756 59.0571 54.6368 60.8825 53.2719 61.7351C52.1507 62.4372 50.737 62.2566 49.8205 61.384C49.6157 61.1935 49.4403 60.9728 49.294 60.7221C48.9333 60.1102 48.6018 59.4984 48.2898 58.8866L53.7204 56.68C53.8861 57.001 54.0616 57.3219 54.2566 57.6328L54.2468 57.6429Z" fill="#FADDDC"/>
<path d="M52.5992 23.7719C54.0226 24.5141 54.5881 26.3095 53.8666 27.7839C53.7886 27.9444 46.4764 43.1196 53.7106 56.69L48.2801 58.8966C40.1001 42.7385 48.3288 25.808 48.6993 25.0758C49.4305 23.6114 51.166 23.0297 52.5992 23.7819V23.7719Z" fill="#A4B2D3"/>
</g>
<defs>
<clipPath id="clip0_1206_1497">
<rect width="28.82" height="104" fill="white" transform="translate(44 3)"/>
</clipPath>
</defs>
</svg>
