<svg width="110" height="110" viewBox="0 0 110 110" fill="none" xmlns="http://www.w3.org/2000/svg">
<g clip-path="url(#clip0_1204_6733)">
<path d="M56.9946 55.783H42.7461L41.3322 100.529L43.8513 100.709C43.8513 101.388 43.4531 102.666 42.995 103.025C42.4574 103.455 41.0335 103.934 40.5157 104.403C39.9084 104.962 40.227 106.18 40.9837 106.18H44.0505H44.8371C45.5341 106.18 46.1415 105.581 46.3107 104.722L46.3804 100.949L47.9038 100.909C49.0887 94.649 50.2935 84.6954 51.339 78.3159C52.0758 73.8433 52.7728 69.3806 53.43 64.938C53.5794 63.9596 54.2863 63.2507 55.1127 63.2507H56.6162C57.4526 63.2507 58.1596 63.9596 58.299 64.938C58.9561 69.3906 61.4554 92.6323 62.8593 99.7207C62.939 100.12 64.542 99.5909 64.6217 100C64.8706 101.278 64.4425 102.596 63.5662 103.315C63.1381 103.664 62.7299 104.024 62.3216 104.403C61.7043 104.962 62.0229 106.19 62.7796 106.19H65.8464L67.8378 105.421C69.8093 103.944 67.3499 102.786 68.2759 99.9902L69.9188 99.4411L68.9829 63.2408V55.7631H56.9946V55.783Z" fill="#3E2967"/>
<path d="M23.1308 47.9659C21.5675 48.4152 20.6615 50.0525 21.1195 51.6199C21.4879 52.9078 22.6529 53.7464 23.9274 53.7564C24.2062 53.7564 24.4849 53.7165 24.7637 53.6366C25.4408 53.4369 26.098 53.2273 26.7452 52.9976L24.1763 47.6365C23.8377 47.7463 23.4892 47.8561 23.1408 47.9659H23.1308Z" fill="#FADDDC"/>
<path d="M47.0575 24.5146C45.4943 24.0753 43.8713 24.9838 43.4232 26.5512C43.3734 26.7209 38.6538 42.7944 24.1663 47.6465L26.7352 53.0076C43.6622 46.9276 48.8697 28.9373 49.0887 28.1486C49.5269 26.5812 48.6208 24.9538 47.0575 24.5146Z" fill="#A4B2D3"/>
<path d="M42.7362 55.813H69.0824C70.0981 55.813 70.8946 54.9544 70.8249 53.9361L69.3214 26.1818C69.3214 24.8839 65.7568 21.6293 61.3657 21.6293H50.9407C44.6678 21.6293 42.9851 25.5229 42.9851 30.325L40.9937 53.8962C40.8941 54.9245 41.7006 55.813 42.7362 55.813Z" fill="#A4B2D3"/>
<path d="M73.822 51.9494C73.7225 53.3271 74.758 54.5251 76.1321 54.625C76.1918 54.625 76.2515 54.625 76.3113 54.625C77.6057 54.625 78.701 53.6166 78.7906 52.2988C78.8205 51.8695 78.8404 51.4402 78.8603 51.0209H73.8619C73.8419 51.3304 73.832 51.6299 73.8121 51.9394L73.822 51.9494Z" fill="#FADDDC"/>
<path d="M66.1252 22.8074C64.9304 22.1385 63.4169 22.5678 62.7498 23.7658C62.0727 24.9638 62.5009 26.4813 63.6957 27.1702C64.1537 27.4298 74.7281 33.6994 73.8718 51.0309H78.8702C79.7663 30.6544 66.6928 23.1268 66.1252 22.8074Z" fill="#A4B2D3"/>
<path d="M61.5502 17.5968L52.0378 17.2421C50.8179 17.1966 49.7921 18.1513 49.7468 19.3745L49.7453 19.4144C49.6999 20.6376 50.6521 21.6661 51.8721 21.7116L61.3844 22.0664C62.6044 22.1118 63.6301 21.1571 63.6755 19.9339L63.677 19.894C63.7223 18.6708 62.7701 17.6423 61.5502 17.5968Z" fill="#A4B2D3"/>
<path d="M56.6461 21.6992L60.5792 19.6625C61.1268 19.383 61.4753 18.8239 61.5052 18.2049C61.5151 17.8655 61.2563 17.586 60.9177 17.566L52.6833 17.2565C52.3447 17.2465 52.0659 17.5061 52.056 17.8455C52.036 18.4645 52.3447 19.0436 52.8724 19.363L56.6561 21.6892L56.6461 21.6992Z" fill="#3E2967"/>
<path d="M59.0159 20.5211L59.5436 6.11487L52.2053 5.84531C50.8412 5.79539 49.6961 6.86363 49.6464 8.2214L49.4671 14.1916C49.3875 16.4079 51.11 18.2649 53.3105 18.3447H53.4201C53.898 18.3647 54.2764 18.774 54.2664 19.2532L54.2266 20.2915L56.6163 21.7591L59.0159 20.5112V20.5211Z" fill="#FADDDC"/>
<path d="M52.4432 15.749L51.8562 15.729C51.3288 15.7091 50.9109 15.2598 50.9308 14.7307L51.0402 11.8255C51.0402 11.6058 51.2393 11.4261 51.4582 11.4361C51.6771 11.4461 51.8562 11.6358 51.8462 11.8554L51.7567 14.3713C51.7467 14.6708 51.9756 14.9303 52.284 14.9403H52.493C52.7119 14.9603 52.891 15.14 52.881 15.3696C52.8711 15.5992 52.682 15.769 52.4631 15.759L52.4432 15.749Z" fill="#E0B1BB"/>
<path d="M53.7891 22.1684C54.0259 22.1684 54.2178 21.9762 54.2178 21.7391C54.2178 21.502 54.0259 21.3098 53.7891 21.3098C53.5523 21.3098 53.3604 21.502 53.3604 21.7391C53.3604 21.9762 53.5523 22.1684 53.7891 22.1684Z" fill="#F1EFEA"/>
<path d="M53.3009 34.9374C53.1514 34.9374 53.0317 34.7976 53.0317 34.6479L53.5103 21.7291C53.5103 21.5794 53.6499 21.4596 53.7995 21.4596C53.9491 21.4596 54.0687 21.5994 54.0687 21.7491L53.5901 34.6678C53.5901 34.8176 53.4505 34.9374 53.3009 34.9374Z" fill="white"/>
<path d="M58.6879 22.3481C58.9247 22.3481 59.1166 22.1559 59.1166 21.9188C59.1166 21.6817 58.9247 21.4895 58.6879 21.4895C58.4511 21.4895 58.2592 21.6817 58.2592 21.9188C58.2592 22.1559 58.4511 22.3481 58.6879 22.3481Z" fill="#F1EFEA"/>
<path d="M58.1998 35.1271C58.0503 35.1271 57.9306 34.9873 57.9306 34.8376L58.4092 21.9188C58.4092 21.7691 58.5488 21.6493 58.6984 21.6493C58.8479 21.6493 58.9676 21.789 58.9676 21.9388L58.489 34.8575C58.489 35.0073 58.3494 35.1271 58.1998 35.1271Z" fill="white"/>
<path opacity="0.5" d="M54.4755 13.6325H53.3603C52.6534 13.6325 52.0858 13.0534 52.0858 12.3546C52.0858 11.6458 52.6633 11.0767 53.3603 11.0767H54.4755C55.1824 11.0767 55.75 11.6557 55.75 12.3546C55.75 13.0634 55.1725 13.6325 54.4755 13.6325Z" fill="white"/>
<path opacity="0.5" d="M49.4871 13.6325H49.1386C48.4316 13.6325 47.8641 13.0534 47.8641 12.3546C47.8641 11.6458 48.4416 11.0767 49.1386 11.0767H49.4871C50.194 11.0767 50.7616 11.6557 50.7616 12.3546C50.7616 13.0634 50.1841 13.6325 49.4871 13.6325Z" fill="white"/>
<path d="M54.7642 10.298H53.0716C52.514 10.298 52.0261 10.6374 51.817 11.1166H51.0304C50.8213 10.6374 50.3334 10.298 49.7758 10.298H48.8498C48.093 10.298 47.4757 10.917 47.4757 11.6757V12.2548C47.4757 13.0135 48.093 13.6325 48.8498 13.6325H49.7758C50.5325 13.6325 51.1498 13.0135 51.1498 12.2548V11.8953H51.6975V12.2548C51.6975 13.0135 52.3148 13.6325 53.0716 13.6325H54.7642C55.521 13.6325 56.1383 13.0135 56.1383 12.2548V11.6757C56.1383 10.917 55.521 10.298 54.7642 10.298ZM50.3832 12.2548C50.3832 12.5842 50.1143 12.8638 49.7758 12.8638H48.8498C48.5212 12.8638 48.2424 12.5942 48.2424 12.2548V11.6757C48.2424 11.3463 48.5112 11.0667 48.8498 11.0667H49.7758C50.1044 11.0667 50.3832 11.3363 50.3832 11.6757V12.2548ZM55.3716 12.2548C55.3716 12.5842 55.1028 12.8638 54.7642 12.8638H53.0716C52.743 12.8638 52.4642 12.5942 52.4642 12.2548V11.6757C52.4642 11.3463 52.733 11.0667 53.0716 11.0667H54.7642C55.0928 11.0667 55.3716 11.3363 55.3716 11.6757V12.2548Z" fill="#9C9E9F"/>
<path d="M60.9376 8.70061C61.087 7.22305 60.5891 5.7355 59.5436 4.69721C58.2094 3.37938 56.1881 2.68053 53.3304 3.13977C53.2209 3.15974 53.1114 3.13977 53.0019 3.13977C49.7459 3.13977 48.5511 5.84531 48.571 7.47263C48.5909 9.69897 49.716 10.308 49.716 10.308C49.716 10.308 49.7658 10.308 49.7758 10.308C51.5581 10.308 51.2494 6.35448 51.8468 6.35448C52.4443 6.35448 51.5083 10.1283 56.8453 10.3679C57.1938 10.3878 57.4626 10.6574 57.4626 11.0068V12.1549C57.4626 12.3646 57.6319 12.5343 57.841 12.5343C58.0501 12.5343 58.2193 12.3646 58.2193 12.1549V10.9469C58.2193 10.6474 58.4384 10.3778 58.7371 10.3579C59.0557 10.3379 59.3146 10.5975 59.3146 10.907L59.215 14.8904V14.9104C59.6034 14.3014 60.6787 11.2464 60.9376 8.71059V8.70061Z" fill="#3E2967"/>
</g>
<defs>
<clipPath id="clip0_1204_6733">
<rect width="57.92" height="103.2" fill="white" transform="translate(21 3)"/>
</clipPath>
</defs>
</svg>
