<svg width="110" height="110" viewBox="0 0 110 110" fill="none" xmlns="http://www.w3.org/2000/svg">
<g clip-path="url(#clip0_1206_1746)">
<path d="M91.42 48.04C92.99 48.49 93.9 50.13 93.44 51.7C93.07 52.99 91.9 53.83 90.62 53.84C90.34 53.84 90.06 53.8 89.78 53.72C89.1 53.52 88.44 53.31 87.79 53.08L90.37 47.71C90.71 47.82 91.06 47.93 91.41 48.04H91.42Z" fill="#FADDDC"/>
<path d="M67.39 24.55C68.96 24.11 70.59 25.02 71.04 26.59C71.09 26.76 75.83 42.86 90.38 47.72L87.8 53.09C70.8 47 65.57 28.98 65.35 28.19C64.91 26.62 65.82 24.99 67.39 24.55Z" fill="#A4B2D3"/>
<path d="M46.11 55.73L57.59 55.57L70.72 55.52L66.38 101.03L63.41 100.81C63.32 101.66 63.55 103.14 64.51 103.89C65.04 104.31 65.61 104.69 66.14 105.11C66.77 105.61 66.44 106.71 65.66 106.71L60.63 105.71C58.38 105.25 58.68 103.71 59.13 102.52C59.42 101.73 59.6 100.91 59.63 100.07C59.82 94.82 59.7 68.9 59.85 65C59.89 64.11 59.9 62.75 58.64 62.69L57.48 62.71C56.63 62.71 56.36 63.45 56.33 64.34C56.22 68.24 55.93 75.51 55.99 80.12C55.99 80.12 55.84 83.72 55.6 84.57C55.25 85.79 53.83 85.61 53.34 84.71C52.92 83.93 52.49 80.74 52.41 80.12L50.52 79.82C49.22 79.61 48.21 78.59 48 77.3L46.09 55.75L46.11 55.73Z" fill="#3E2967"/>
<path d="M71.73 55.9H45.28C44.26 55.9 43.46 55.04 43.53 54.02L45.04 26.22C45.04 24.92 48.62 21.66 53.03 21.66H63.5C69.8 21.66 71.49 25.56 71.49 30.37L73.49 53.98C73.59 55.01 72.78 55.9 71.74 55.9H71.73Z" fill="#A4B2D3"/>
<path d="M40.51 52.03C40.61 53.41 39.57 54.61 38.19 54.71C38.13 54.71 38.07 54.71 38.01 54.71C36.71 54.71 35.61 53.7 35.52 52.38C35.49 51.95 35.47 51.52 35.45 51.1H40.47C40.49 51.41 40.5 51.71 40.52 52.02L40.51 52.03Z" fill="#FADDDC"/>
<path d="M48.24 22.84C49.44 22.17 50.96 22.6 51.63 23.8C52.31 25 51.88 26.52 50.68 27.21C50.22 27.47 39.6 33.75 40.46 51.11H35.44C34.54 30.7 47.67 23.16 48.24 22.84Z" fill="#A4B2D3"/>
<path d="M62.7745 17.6143L53.2211 17.259C51.9959 17.2134 50.9657 18.1697 50.9201 19.3949L50.9186 19.4349C50.8731 20.6601 51.8294 21.6903 53.0546 21.7359L62.608 22.0912C63.8332 22.1368 64.8634 21.1805 64.909 19.9553L64.9104 19.9153C64.956 18.6901 63.9997 17.6599 62.7745 17.6143Z" fill="#A4B2D3"/>
<path d="M57.84 21.73L61.79 19.69C62.34 19.41 62.69 18.85 62.72 18.23C62.73 17.89 62.47 17.61 62.13 17.59L53.86 17.28C53.52 17.27 53.24 17.53 53.23 17.87C53.21 18.49 53.52 19.07 54.05 19.39L57.85 21.72L57.84 21.73Z" fill="#3E2967"/>
<path d="M60.22 20.55L60.75 6.12001L53.38 5.85001C52.01 5.80001 50.86 6.87001 50.81 8.23001L50.63 14.21C50.55 16.43 52.28 18.29 54.49 18.37H54.6C55.08 18.39 55.46 18.8 55.45 19.28L55.41 20.32L57.81 21.79L60.22 20.54V20.55Z" fill="#FADDDC"/>
<path d="M53.62 15.77L53.03 15.75C52.5 15.73 52.0801 15.28 52.1001 14.75L52.21 11.84C52.21 11.62 52.41 11.44 52.63 11.45C52.85 11.46 53.0301 11.65 53.0201 11.87L52.9301 14.39C52.9201 14.69 53.15 14.95 53.46 14.96H53.6701C53.8901 14.98 54.0701 15.16 54.0601 15.39C54.0501 15.62 53.86 15.79 53.64 15.78L53.62 15.77Z" fill="#E0B1BB"/>
<path d="M54.97 22.2C55.2075 22.2 55.4 22.0075 55.4 21.77C55.4 21.5325 55.2075 21.34 54.97 21.34C54.7326 21.34 54.54 21.5325 54.54 21.77C54.54 22.0075 54.7326 22.2 54.97 22.2Z" fill="#F1EFEA"/>
<path d="M54.48 34.99C54.33 34.99 54.21 34.85 54.21 34.7L54.69 21.76C54.69 21.61 54.83 21.49 54.98 21.49C55.13 21.49 55.25 21.63 55.25 21.78L54.77 34.72C54.77 34.87 54.63 34.99 54.48 34.99Z" fill="white"/>
<path d="M59.89 22.38C60.1275 22.38 60.32 22.1875 60.32 21.95C60.32 21.7125 60.1275 21.52 59.89 21.52C59.6525 21.52 59.46 21.7125 59.46 21.95C59.46 22.1875 59.6525 22.38 59.89 22.38Z" fill="#F1EFEA"/>
<path d="M59.4 35.18C59.25 35.18 59.13 35.04 59.13 34.89L59.61 21.95C59.61 21.8 59.75 21.68 59.9 21.68C60.05 21.68 60.17 21.82 60.17 21.97L59.69 34.91C59.69 35.06 59.55 35.18 59.4 35.18Z" fill="white"/>
<path opacity="0.5" d="M55.66 13.65H54.54C53.83 13.65 53.26 13.07 53.26 12.37C53.26 11.66 53.84 11.09 54.54 11.09H55.66C56.37 11.09 56.94 11.67 56.94 12.37C56.94 13.08 56.36 13.65 55.66 13.65Z" fill="white"/>
<path opacity="0.5" d="M50.65 13.65H50.3C49.59 13.65 49.02 13.07 49.02 12.37C49.02 11.66 49.6 11.09 50.3 11.09H50.65C51.36 11.09 51.93 11.67 51.93 12.37C51.93 13.08 51.35 13.65 50.65 13.65Z" fill="white"/>
<path d="M55.95 10.31H54.25C53.69 10.31 53.2 10.65 52.99 11.13H52.2C51.99 10.65 51.5 10.31 50.94 10.31H50.01C49.25 10.31 48.63 10.93 48.63 11.69V12.27C48.63 13.03 49.25 13.65 50.01 13.65H50.94C51.7 13.65 52.32 13.03 52.32 12.27V11.91H52.87V12.27C52.87 13.03 53.49 13.65 54.25 13.65H55.95C56.71 13.65 57.33 13.03 57.33 12.27V11.69C57.33 10.93 56.71 10.31 55.95 10.31ZM51.55 12.27C51.55 12.6 51.28 12.88 50.94 12.88H50.01C49.68 12.88 49.4 12.61 49.4 12.27V11.69C49.4 11.36 49.67 11.08 50.01 11.08H50.94C51.27 11.08 51.55 11.35 51.55 11.69V12.27ZM56.56 12.27C56.56 12.6 56.29 12.88 55.95 12.88H54.25C53.92 12.88 53.64 12.61 53.64 12.27V11.69C53.64 11.36 53.91 11.08 54.25 11.08H55.95C56.28 11.08 56.56 11.35 56.56 11.69V12.27Z" fill="#9C9E9F"/>
<path d="M62.15 8.71C62.3 7.23 61.8 5.74 60.75 4.7C59.41 3.38 57.38 2.68 54.51 3.14C54.4 3.16 54.29 3.14 54.18 3.14C50.91 3.14 49.71 5.85 49.73 7.48C49.75 9.71 50.88 10.32 50.88 10.32C50.88 10.32 50.93 10.32 50.94 10.32C52.73 10.32 52.42 6.36 53.02 6.36C53.62 6.36 52.68 10.14 58.04 10.38C58.39 10.4 58.66 10.67 58.66 11.02V12.17C58.66 12.38 58.83 12.55 59.04 12.55C59.25 12.55 59.42 12.38 59.42 12.17V10.96C59.42 10.66 59.64 10.39 59.94 10.37C60.26 10.35 60.52 10.61 60.52 10.92L60.42 14.91V14.93C60.81 14.32 61.89 11.26 62.15 8.72V8.71Z" fill="#3E2967"/>
</g>
<defs>
<clipPath id="clip0_1206_1746">
<rect width="58.17" height="103.7" fill="white" transform="translate(35.4 3)"/>
</clipPath>
</defs>
</svg>
