<svg width="110" height="110" viewBox="0 0 110 110" fill="none" xmlns="http://www.w3.org/2000/svg">
<g clip-path="url(#clip0_1206_1650)">
<path d="M69.0936 54.01C69.0836 55.65 70.4063 57 72.0497 57.01C73.4025 57.02 74.5549 56.13 74.9257 54.9C75.0059 54.63 75.056 54.35 75.056 54.06C75.056 53.35 75.0459 52.65 75.0059 51.96L69.0836 52.91C69.0936 53.27 69.1036 53.64 69.1036 54.01H69.0936Z" fill="#FADDDC"/>
<path d="M53.2808 24.11C52.3989 25.5 52.8198 27.33 54.2027 28.21C54.353 28.3 68.5525 37.49 69.0736 52.91L74.9958 51.96C73.9837 33.82 58.0807 23.62 57.3793 23.18C55.9864 22.31 54.1526 22.72 53.2707 24.11H53.2808Z" fill="#8FA0C1"/>
<path d="M45.1439 55.8L58.0206 55.88L45.0537 79.53L38.7005 102.76L34.9127 102.04L34.0108 103.81C33.0788 105.8 32.9586 106.65 31.4154 105.88L27.5774 104.38C26.876 104.03 26.9862 103.02 27.8079 102.77C28.349 102.61 29.1808 102.58 29.7419 102.55C31.8262 102.45 31.5457 101 31.8764 99.68C33.8805 91.8 34.7824 85.47 37.0571 77.52C38.3498 72.96 45.1539 55.8 45.1539 55.8H45.1439Z" fill="#291B4C"/>
<path d="M46.7973 55.88L62.4799 55.47L68.5926 77.06L81.8 94.52L78.6635 97.28C78.9441 97.78 79.4351 98.6 79.9061 98.92C80.5975 99.38 81.4994 100.25 80.6877 101.28L75.7174 105.13C74.9959 105.44 74.2243 104.38 74.585 103.58C74.8255 103.05 75.6472 101.87 75.9178 101.37C76.4689 100.32 75.8075 99.53 75.086 98.39C70.747 91.6 60.616 81.21 60.616 81.21L46.8073 55.88H46.7973Z" fill="#3F3072"/>
<path d="M43.1297 55.86H61.6381C65.3759 55.86 65.1855 52.56 65.0953 51.6L60.9366 27.87C60.9366 23.71 58.5216 20.33 54.9843 20.33H50.6252C49.1221 20.33 47.6992 21.09 46.9175 22.37C41.2357 31.63 43.1297 55.86 43.1297 55.86Z" fill="#A4B2D3"/>
<path d="M54.6837 15.81C54.9041 15.81 57.7099 14.95 60.4857 19.03C62.2093 21.55 61.8586 23.3 59.1329 23.3C56.4072 23.3 54.2427 22.86 52.91 23.23L48.0399 23.79L49.6131 22.37L54.5734 20.35L54.6837 15.82V15.81Z" fill="#A4B2D3"/>
<path d="M54.6845 15.81C55.0551 15.81 57.4893 16.03 56.8983 17.28C56.3073 18.53 54.5843 20.34 54.5843 20.34L54.6945 15.81H54.6845Z" fill="#3E2967"/>
<path d="M51.7277 23.62C51.4898 23.62 51.297 23.4275 51.297 23.19C51.297 22.9525 51.4898 22.76 51.7277 22.76C51.9656 22.76 52.1584 22.9525 52.1584 23.19C52.1584 23.4275 51.9656 23.62 51.7277 23.62Z" fill="#5B6882"/>
<path d="M49.7041 36.28C49.8544 36.3 49.9946 36.2 50.0247 36.05L51.978 23.24C51.9981 23.09 51.8979 22.95 51.7476 22.92C51.5974 22.89 51.4571 23 51.4271 23.15L49.4737 35.96C49.4537 36.11 49.5539 36.25 49.7041 36.28Z" fill="white"/>
<path d="M48.5511 23.17C48.3132 23.17 48.1204 22.9775 48.1204 22.74C48.1204 22.5025 48.3132 22.31 48.5511 22.31C48.789 22.31 48.9819 22.5025 48.9819 22.74C48.9819 22.9775 48.789 23.17 48.5511 23.17Z" fill="#5B6882"/>
<path d="M46.5275 35.84C46.6778 35.86 46.818 35.76 46.8481 35.61L48.8015 22.8C48.8215 22.65 48.7213 22.51 48.5711 22.48C48.4208 22.45 48.2806 22.56 48.2505 22.71L46.2971 35.52C46.2771 35.67 46.3773 35.81 46.5275 35.84Z" fill="white"/>
<path d="M49.6234 22.37C49.4631 22.33 48.6217 20.9 48.3812 20.58C48.1408 20.26 47.2393 19.02 47.8503 18.2C48.4614 17.38 49.8137 17.01 50.1243 17.38C50.4348 17.75 49.6234 22.37 49.6234 22.37Z" fill="#A4B2D3"/>
<path d="M54.7939 6H45.0938V15.3C45.0938 17.12 46.4767 18.6 48.1802 18.6H49.1623C49.6433 18.6 50.024 19.01 50.024 19.53V23.01L54.6036 20.35L54.7939 6.01V6Z" fill="#FADDDC"/>
<path d="M45.8455 15.73L45.2445 15.56C44.7035 15.41 44.383 14.84 44.5332 14.3L45.3647 11.34C45.4248 11.11 45.6652 10.98 45.8856 11.05C46.1059 11.12 46.2462 11.35 46.1761 11.57L45.4548 14.13C45.3647 14.44 45.545 14.76 45.8555 14.84L46.0659 14.9C46.2963 14.96 46.4265 15.2 46.3564 15.42C46.2863 15.64 46.0559 15.78 45.8355 15.71L45.8455 15.73Z" fill="#E0B1BB"/>
<path opacity="0.5" d="M48.4107 13.14H47.4086C46.7773 13.14 46.2562 12.56 46.2562 11.86C46.2562 11.15 46.7773 10.58 47.4086 10.58H48.4107C49.042 10.58 49.563 11.16 49.563 11.86C49.563 12.57 49.042 13.14 48.4107 13.14Z" fill="white"/>
<path opacity="0.5" d="M43.9217 13.14H44.4426C43.8115 13.14 43.2906 12.56 43.2906 11.86C43.2906 11.15 43.8115 10.58 44.4426 10.58H43.9217C44.5528 10.58 45.0737 11.16 45.0737 11.86C45.0737 12.57 44.5528 13.14 43.9217 13.14Z" fill="white"/>
<path d="M49.8937 11.45V12.03C49.8937 12.79 49.3426 13.41 48.6512 13.41H47.128C46.4466 13.41 45.8854 12.79 45.8854 12.03V11.67H45.3944V12.03C45.3944 12.79 44.8433 13.41 44.1518 13.41C43.4704 13.41 42.9092 12.79 42.9092 12.03V11.45C42.9092 10.69 43.4604 10.07 44.1518 10.07C44.6529 10.07 45.0938 10.41 45.2842 10.89H45.9956C46.186 10.41 46.6169 10.07 47.128 10.07H48.6512C49.3326 10.07 49.8937 10.69 49.8937 11.45ZM44.703 11.45C44.703 11.12 44.4625 10.84 44.1618 10.84C43.8612 10.84 43.6207 11.11 43.6207 11.45V12.03C43.6207 12.36 43.8612 12.64 44.1618 12.64C44.4625 12.64 44.703 12.37 44.703 12.03V11.45ZM49.1923 11.45C49.1923 11.12 48.9518 10.84 48.6512 10.84H47.128C46.8274 10.84 46.5869 11.11 46.5869 11.45V12.03C46.5869 12.36 46.8274 12.64 47.128 12.64H48.6512C48.9518 12.64 49.1923 12.37 49.1923 12.03V11.45Z" fill="#9C9E9F"/>
<path d="M56.4173 8.71C56.5676 7.23 56.0565 5.74 54.9743 4.7C53.6015 3.38 51.5071 2.68 48.551 3.14C48.4407 3.16 48.3205 3.14 48.2103 3.14C44.8433 3.14 43.6107 5.85 43.6308 7.48C43.6508 9.71 44.8132 10.32 44.8132 10.32C44.8132 10.32 44.8633 10.32 44.8733 10.32C45.8654 10.32 45.2742 6.36 45.8955 6.36C46.5167 6.36 46.1961 10.38 50.9359 10.38C51.2967 10.38 51.5773 10.67 51.5773 11.02V12.17C51.5773 12.38 51.7476 12.55 51.9681 12.55C52.1885 12.55 52.3589 12.38 52.3589 12.17C52.3589 11.96 53.2808 14.06 53.9321 14.92C54.1626 15.22 54.7939 14.78 54.7939 14.78C55.1948 14.17 56.1568 11.27 56.4273 8.73L56.4173 8.71Z" fill="#3E2967"/>
<path d="M52.3495 11.5C52.3495 10.9698 52.7801 10.54 53.3112 10.54C53.8423 10.54 54.2728 10.9698 54.2728 11.5V13.59C54.2728 14.1202 53.8423 14.55 53.3112 14.55C52.7801 14.55 52.3495 14.1202 52.3495 13.59V11.5Z" fill="#FADDDC"/>
<path d="M52.9401 25.36C51.2967 25.46 51.6674 27.96 51.0562 29.49C50.996 29.65 47.7493 40.09 42.6888 42.18L42.799 46.19C53.5313 36.36 57.3893 25.1 52.9401 25.36Z" fill="#8FA0C1"/>
<path d="M26.445 45.83C24.8217 46.12 23.7494 47.67 24.0501 49.29C24.2906 50.62 25.3828 51.58 26.6655 51.72C26.9461 51.75 27.2267 51.74 27.5173 51.69C28.2187 51.56 28.9001 51.41 29.5715 51.25L27.5273 45.62C27.1766 45.7 26.8158 45.78 26.445 45.84V45.83Z" fill="#FADDDC"/>
<path d="M52.92 24.73C51.3868 24.13 49.6632 24.88 49.052 26.4C48.9918 26.56 42.6086 42.21 27.5273 45.61L29.5715 51.24C47.2382 46.85 54.2929 29.35 54.6035 28.58C55.2047 27.05 54.4532 25.33 52.92 24.73Z" fill="#A4B2D3"/>
</g>
<defs>
<clipPath id="clip0_1206_1650">
<rect width="57.8" height="103.16" fill="white" transform="matrix(-1 0 0 1 81.8 3)"/>
</clipPath>
</defs>
</svg>
