<svg width="110" height="110" viewBox="0 0 110 110" fill="none" xmlns="http://www.w3.org/2000/svg">
<g clip-path="url(#clip0_1206_1293)">
<path d="M61.0577 54.7944L46.7648 54.1725L59.1331 74.443L53.369 94.2721L55.6649 94.9842V96.93C55.489 98.294 55.489 99.1867 56.974 99.9791L60.7939 100.932C61.5462 100.992 61.8979 100.079 61.3117 99.4675C60.9209 99.0563 60.1003 98.7654 59.7486 98.3141C58.2148 96.2881 59.0159 95.8167 59.309 94.5328C60.7158 88.3745 65.0633 78.806 66.7045 75.3156C67.1051 74.453 67.1637 73.4701 66.8706 72.5573L61.0675 54.7944H61.0577Z" fill="#291B4C"/>
<path d="M60.1687 54.6038L48.0544 54.2227L47.7027 101.453L49.9692 102.176C49.979 102.747 49.9692 103.69 49.725 104.202C49.3733 104.964 49.0314 106.168 50.2037 106.569L56.1534 107C56.8959 106.86 57.0327 105.566 56.3488 105.114C55.8994 104.813 54.6587 104.292 54.1897 104.021C53.2323 103.459 53.2714 102.436 53.457 101.122C54.8052 91.6041 60.1687 54.6038 60.1687 54.6038Z" fill="#3E2C6D"/>
<path d="M65.4541 56.018H47.4097C43.7558 56.018 43.9414 52.7182 44.0391 51.7553L48.0935 27.9544C48.0935 23.782 50.448 20.3918 53.8967 20.3918H58.1465C59.6119 20.3918 60.9992 21.1541 61.7612 22.4379C67.3006 31.7256 65.4541 56.0281 65.4541 56.0281V56.018Z" fill="#A4B2D3"/>
<path d="M52.5777 25.0156C54.1311 24.6245 55.704 25.6074 56.085 27.2021C56.1241 27.3726 59.0061 43.6411 65.8155 46.61L65.6592 52.5076C53.3691 43.4706 50.6238 29.4187 50.4382 28.6063C50.0669 27.0116 51.0146 25.3968 52.5777 25.0156Z" fill="#8FA0C1"/>
<path d="M75.4973 49.0974C77.0213 49.6089 77.8517 51.294 77.3535 52.8586C76.9432 54.1424 75.761 54.9549 74.5105 54.9147C74.237 54.9147 73.9634 54.8546 73.6899 54.7643C73.0255 54.5436 72.3905 54.3029 71.7653 54.0421L74.491 48.7263C74.8231 48.8567 75.1553 48.977 75.507 49.0974H75.4973Z" fill="#FADDDC"/>
<path d="M52.734 24.5242C54.2874 24.133 55.8603 25.1159 56.2413 26.7107C56.2804 26.8812 60.3641 43.2901 74.4812 48.7263L71.7555 54.0422C55.2839 47.282 50.7899 28.9273 50.6043 28.1249C50.233 26.5301 51.1807 24.9153 52.7438 24.5342L52.734 24.5242Z" fill="#A4B2D3"/>
<path d="M54.1897 15.8483C53.9748 15.8483 51.2393 14.9857 48.5331 19.0779C46.8527 21.6055 47.1947 23.3607 49.852 23.3607C52.5093 23.3607 54.6196 22.9194 55.9189 23.2905L60.667 23.8522L59.1331 22.4279L54.2972 20.4019L54.1897 15.8583V15.8483Z" fill="#A4B2D3"/>
<path d="M54.1897 15.8483C53.8282 15.8483 51.4542 16.069 52.0306 17.3227C52.607 18.5764 54.2874 20.3918 54.2874 20.3918L54.1799 15.8483H54.1897Z" fill="#3E2967"/>
<path d="M57.0815 23.6816C57.3135 23.6816 57.5016 23.4886 57.5016 23.2504C57.5016 23.0122 57.3135 22.8191 57.0815 22.8191C56.8495 22.8191 56.6614 23.0122 56.6614 23.2504C56.6614 23.4886 56.8495 23.6816 57.0815 23.6816Z" fill="#5B6882"/>
<path d="M59.0452 36.3795C58.8987 36.3995 58.7619 36.2992 58.7326 36.1488L56.8275 23.3005C56.808 23.1501 56.9057 23.0096 57.0522 22.9795C57.1987 22.9495 57.3355 23.0598 57.3648 23.2102L59.2699 36.0585C59.2894 36.209 59.1917 36.3494 59.0452 36.3795Z" fill="white"/>
<path d="M60.1785 23.2303C60.4105 23.2303 60.5985 23.0372 60.5985 22.799C60.5985 22.5608 60.4105 22.3677 60.1785 22.3677C59.9464 22.3677 59.7584 22.5608 59.7584 22.799C59.7584 23.0372 59.9464 23.2303 60.1785 23.2303Z" fill="#5B6882"/>
<path d="M62.1519 35.9382C62.0054 35.9582 61.8686 35.8579 61.8393 35.7075L59.9342 22.8592C59.9147 22.7087 60.0124 22.5683 60.1589 22.5382C60.3055 22.5081 60.4423 22.6185 60.4716 22.7689L62.3766 35.6172C62.3962 35.7677 62.2985 35.9081 62.1519 35.9382Z" fill="white"/>
<path d="M59.1331 22.4279C59.2894 22.3878 60.1101 20.9535 60.3445 20.6326C60.579 20.3116 61.4583 19.0679 60.8623 18.2454C60.2664 17.423 58.9475 17.0519 58.6446 17.423C58.3418 17.7941 59.1331 22.4279 59.1331 22.4279Z" fill="#A4B2D3"/>
<path d="M54.092 6.00897H63.549V15.3368C63.549 17.1622 62.2008 18.6466 60.5399 18.6466H59.5825C59.1136 18.6466 58.7423 19.0579 58.7423 19.5794V23.0698L54.2776 20.4019L54.092 6.019V6.00897Z" fill="#FADDDC"/>
<path d="M62.8163 15.7681L63.4024 15.5975C63.93 15.4471 64.2426 14.8754 64.0961 14.3338L63.2852 11.3649C63.2266 11.1342 62.9921 11.0039 62.7772 11.0741C62.5623 11.1443 62.4255 11.375 62.4939 11.5956L63.1973 14.1633C63.2852 14.4742 63.1094 14.7952 62.8065 14.8754L62.6013 14.9356C62.3766 14.9957 62.2496 15.2365 62.318 15.4571C62.3864 15.6778 62.6111 15.8182 62.826 15.748L62.8163 15.7681Z" fill="#E0B1BB"/>
<path opacity="0.5" d="M60.3055 13.1703H61.2825C61.898 13.1703 62.406 12.5886 62.406 11.8865C62.406 11.1744 61.898 10.6027 61.2825 10.6027H60.3055C59.69 10.6027 59.182 11.1844 59.182 11.8865C59.182 12.5986 59.69 13.1703 60.3055 13.1703Z" fill="white"/>
<path opacity="0.5" d="M64.6823 13.1703H64.1743C64.7897 13.1703 65.2978 12.5886 65.2978 11.8865C65.2978 11.1744 64.7897 10.6027 64.1743 10.6027H64.6823C64.0668 10.6027 63.5588 11.1844 63.5588 11.8865C63.5588 12.5986 64.0668 13.1703 64.6823 13.1703Z" fill="white"/>
<path d="M58.8693 11.4753V12.057C58.8693 12.8193 59.4067 13.4411 60.0808 13.4411H61.5657C62.2301 13.4411 62.7772 12.8193 62.7772 12.057V11.6959H63.2559V12.057C63.2559 12.8193 63.7932 13.4411 64.4673 13.4411C65.1316 13.4411 65.6787 12.8193 65.6787 12.057V11.4753C65.6787 10.713 65.1414 10.0911 64.4673 10.0911C63.9788 10.0911 63.549 10.4322 63.3633 10.9136H62.6697C62.4841 10.4322 62.064 10.0911 61.5657 10.0911H60.0808C59.4164 10.0911 58.8693 10.713 58.8693 11.4753ZM63.9202 11.4753C63.9202 11.1443 64.1547 10.8634 64.4478 10.8634C64.7409 10.8634 64.9753 11.1342 64.9753 11.4753V12.057C64.9753 12.388 64.7409 12.6688 64.4478 12.6688C64.1547 12.6688 63.9202 12.398 63.9202 12.057V11.4753ZM59.5434 11.4753C59.5434 11.1443 59.7779 10.8634 60.071 10.8634H61.556C61.8491 10.8634 62.0835 11.1342 62.0835 11.4753V12.057C62.0835 12.388 61.8491 12.6688 61.556 12.6688H60.071C59.7779 12.6688 59.5434 12.398 59.5434 12.057V11.4753Z" fill="#9C9E9F"/>
<path d="M52.4995 8.72706C52.353 7.24263 52.8512 5.74818 53.9064 4.70507C55.2546 3.38112 57.2964 2.67903 60.1785 3.14041C60.2859 3.16047 60.4032 3.14041 60.5106 3.14041C63.7932 3.14041 64.9949 5.85851 64.9753 7.49338C64.9558 9.73005 63.8225 10.3419 63.8225 10.3419C63.8225 10.3419 63.7737 10.3419 63.7639 10.3419C62.7967 10.3419 63.3731 6.37003 62.7674 6.37003C62.1617 6.37003 62.4743 10.4021 57.8533 10.4021C57.5016 10.4021 57.228 10.6929 57.228 11.044V12.1974C57.228 12.408 57.0619 12.5785 56.847 12.5785C56.6321 12.5785 56.466 12.408 56.466 12.1974C56.466 11.9868 55.5672 14.0931 54.9322 14.9556C54.7075 15.2565 54.092 14.8152 54.092 14.8152C53.7012 14.2034 52.7633 11.2947 52.4995 8.74712V8.72706Z" fill="#3E2967"/>
<path d="M56.4758 11.5254C56.4758 10.9936 56.0559 10.5625 55.5379 10.5625C55.0199 10.5625 54.6 10.9936 54.6 11.5254V13.6217C54.6 14.1534 55.0199 14.5845 55.5379 14.5845C56.0559 14.5845 56.4758 14.1534 56.4758 13.6217V11.5254Z" fill="#FADDDC"/>
</g>
<defs>
<clipPath id="clip0_1206_1293">
<rect width="33.5" height="104" fill="white" transform="translate(44 3)"/>
</clipPath>
</defs>
</svg>
