<svg width="46" height="107" viewBox="0 0 46 107" fill="none" xmlns="http://www.w3.org/2000/svg">
<g clip-path="url(#clip0_109_859)">
<path d="M28.3199 51.67L13.6899 51.02L26.3499 72.26L20.4499 93.03L22.7999 93.77V95.81C22.6199 97.24 22.6199 98.17 24.1399 99L28.0499 100C28.8199 100.06 29.1799 99.11 28.5799 98.46C28.1799 98.03 27.3399 97.73 26.9799 97.25C25.4099 95.13 26.2299 94.63 26.5299 93.29C28.3199 85.28 34.7399 71.76 34.7399 71.76L28.3199 51.66V51.67Z" fill="#291B4C"/>
<path d="M27.41 51.4699L15.01 51.0699L14.65 100.56L16.97 101.31C16.98 101.9 16.97 102.89 16.72 103.43C16.36 104.23 16.01 105.49 17.21 105.91L23.3 106.36C24.06 106.21 24.2 104.85 23.5 104.38C23.04 104.07 21.77 103.52 21.29 103.24C20.31 102.65 20.35 101.58 20.54 100.2C21.92 90.2299 27.41 51.4599 27.41 51.4599V51.4699Z" fill="#3E2C6D"/>
<path d="M5.95004 49.0199C5.89004 50.6599 4.51004 51.9399 2.86004 51.8799C1.51004 51.8299 0.410044 50.8899 0.0900439 49.6399C0.0200439 49.3699 -0.00995605 49.0899 4.39452e-05 48.7899C0.0300439 48.0799 0.0800439 47.3799 0.150044 46.6899L6.01004 47.9199C5.98004 48.2799 5.96004 48.6499 5.94004 49.0199H5.95004Z" fill="#FADDDC"/>
<path d="M23.11 19.89C23.92 21.32 23.42 23.13 22 23.94C21.85 24.03 7.26002 32.54 6.01002 47.92L0.150024 46.69C2.01002 28.62 18.34 19.18 19.06 18.77C20.49 17.96 22.3 18.46 23.11 19.89Z" fill="#8FA0C1"/>
<path d="M32.82 52.86H14.35C10.62 52.86 10.81 49.56 10.9 48.6L15.05 24.87C15.05 20.71 17.46 17.33 20.99 17.33H25.34C26.84 17.33 28.26 18.09 29.04 19.37C34.71 28.63 32.82 52.86 32.82 52.86Z" fill="#A4B2D3"/>
<path d="M43.11 45.96C44.67 46.47 45.52 48.15 45.01 49.71C44.59 50.99 43.38 51.8 42.1 51.76C41.82 51.76 41.54 51.7 41.26 51.61C40.58 51.39 39.93 51.15 39.29 50.89L42.08 45.59C42.42 45.72 42.76 45.84 43.12 45.96H43.11Z" fill="#FADDDC"/>
<path d="M19.8099 21.46C21.3999 21.07 23.0099 22.05 23.3999 23.64C23.4399 23.81 27.6199 40.17 42.0699 45.59L39.2799 50.89C22.4099 44.14 17.8099 25.85 17.6199 25.04C17.2399 23.45 18.2099 21.84 19.8099 21.46Z" fill="#A4B2D3"/>
<path d="M21.29 12.81C21.07 12.81 18.27 11.95 15.5 16.03C13.78 18.55 14.13 20.3 16.85 20.3C19.57 20.3 21.73 19.86 23.06 20.23L27.92 20.79L26.35 19.37L21.4 17.35L21.29 12.82V12.81Z" fill="#A4B2D3"/>
<path d="M21.29 12.8101C20.92 12.8101 18.49 13.0301 19.08 14.2801C19.67 15.5301 21.39 17.3401 21.39 17.3401L21.28 12.8101H21.29Z" fill="#3E2967"/>
<path d="M24.2499 20.62C24.4874 20.62 24.6799 20.4275 24.6799 20.19C24.6799 19.9525 24.4874 19.76 24.2499 19.76C24.0125 19.76 23.8199 19.9525 23.8199 20.19C23.8199 20.4275 24.0125 20.62 24.2499 20.62Z" fill="#5B6882"/>
<path d="M26.27 33.28C26.12 33.3 25.98 33.2 25.95 33.05L24 20.24C23.98 20.09 24.08 19.95 24.23 19.92C24.38 19.89 24.52 20 24.55 20.15L26.5 32.96C26.52 33.11 26.42 33.25 26.27 33.28Z" fill="white"/>
<path d="M27.42 20.1701C27.6575 20.1701 27.85 19.9775 27.85 19.7401C27.85 19.5026 27.6575 19.3101 27.42 19.3101C27.1825 19.3101 26.99 19.5026 26.99 19.7401C26.99 19.9775 27.1825 20.1701 27.42 20.1701Z" fill="#5B6882"/>
<path d="M29.44 32.8401C29.29 32.8601 29.15 32.7601 29.12 32.6101L27.17 19.8C27.15 19.65 27.25 19.51 27.4 19.48C27.55 19.45 27.69 19.56 27.72 19.71L29.67 32.5201C29.69 32.6701 29.59 32.8101 29.44 32.8401Z" fill="white"/>
<path d="M26.35 19.37C26.51 19.33 27.35 17.9 27.59 17.58C27.83 17.26 28.73 16.02 28.12 15.2C27.51 14.38 26.16 14.01 25.85 14.38C25.54 14.75 26.35 19.37 26.35 19.37Z" fill="#A4B2D3"/>
<path d="M21.1899 3H30.8699V12.3C30.8699 14.12 29.4899 15.6 27.7899 15.6H26.8099C26.3299 15.6 25.9499 16.01 25.9499 16.53V20.01L21.3799 17.35L21.1899 3.01V3Z" fill="#FADDDC"/>
<path d="M30.12 12.73L30.72 12.56C31.26 12.41 31.58 11.84 31.43 11.3L30.6 8.33996C30.54 8.10996 30.3 7.97996 30.08 8.04996C29.86 8.11996 29.72 8.34995 29.79 8.56995L30.51 11.13C30.6 11.44 30.42 11.76 30.11 11.84L29.9 11.9C29.67 11.96 29.54 12.2 29.61 12.42C29.68 12.64 29.91 12.78 30.13 12.71L30.12 12.73Z" fill="#E0B1BB"/>
<path opacity="0.5" d="M27.56 10.14H28.56C29.19 10.14 29.71 9.55996 29.71 8.85996C29.71 8.14996 29.19 7.57996 28.56 7.57996H27.56C26.93 7.57996 26.41 8.15996 26.41 8.85996C26.41 9.56996 26.93 10.14 27.56 10.14Z" fill="white"/>
<path opacity="0.5" d="M32.04 10.14H31.52C32.15 10.14 32.67 9.55996 32.67 8.85996C32.67 8.14996 32.15 7.57996 31.52 7.57996H32.04C31.41 7.57996 30.89 8.15996 30.89 8.85996C30.89 9.56996 31.41 10.14 32.04 10.14Z" fill="white"/>
<path d="M26.08 8.44995V9.02995C26.08 9.78995 26.63 10.4099 27.32 10.4099H28.84C29.52 10.4099 30.08 9.78995 30.08 9.02995V8.66995H30.57V9.02995C30.57 9.78995 31.12 10.4099 31.81 10.4099C32.49 10.4099 33.05 9.78995 33.05 9.02995V8.44995C33.05 7.68995 32.5 7.06995 31.81 7.06995C31.31 7.06995 30.87 7.40995 30.68 7.88995H29.97C29.78 7.40995 29.35 7.06995 28.84 7.06995H27.32C26.64 7.06995 26.08 7.68995 26.08 8.44995ZM31.25 8.44995C31.25 8.11995 31.49 7.83995 31.79 7.83995C32.09 7.83995 32.33 8.10995 32.33 8.44995V9.02995C32.33 9.35995 32.09 9.63995 31.79 9.63995C31.49 9.63995 31.25 9.36995 31.25 9.02995V8.44995ZM26.77 8.44995C26.77 8.11995 27.01 7.83995 27.31 7.83995H28.83C29.13 7.83995 29.37 8.10995 29.37 8.44995V9.02995C29.37 9.35995 29.13 9.63995 28.83 9.63995H27.31C27.01 9.63995 26.77 9.36995 26.77 9.02995V8.44995Z" fill="#9C9E9F"/>
<path d="M19.57 5.71C19.42 4.23 19.93 2.74 21.01 1.7C22.38 0.379998 24.47 -0.320002 27.42 0.139998C27.53 0.159998 27.65 0.139998 27.76 0.139998C31.12 0.139998 32.35 2.85 32.33 4.48C32.31 6.71 31.15 7.32 31.15 7.32C31.15 7.32 31.1 7.32 31.09 7.32C30.1 7.32 30.69 3.36 30.07 3.36C29.45 3.36 29.77 7.38 25.04 7.38C24.68 7.38 24.4 7.67 24.4 8.02V9.17C24.4 9.38 24.23 9.55 24.01 9.55C23.79 9.55 23.62 9.38 23.62 9.17C23.62 8.96 22.7 11.06 22.05 11.92C21.82 12.22 21.19 11.78 21.19 11.78C20.79 11.17 19.83 8.27 19.56 5.73L19.57 5.71Z" fill="#3E2967"/>
<path d="M23.63 8.50004C23.63 7.96985 23.2002 7.54004 22.67 7.54004C22.1398 7.54004 21.71 7.96985 21.71 8.50004V10.59C21.71 11.1202 22.1398 11.55 22.67 11.55C23.2002 11.55 23.63 11.1202 23.63 10.59V8.50004Z" fill="#FADDDC"/>
</g>
<defs>
<clipPath id="clip0_109_859">
<rect width="45.16" height="106.37" fill="white"/>
</clipPath>
</defs>
</svg>
