<svg width="110" height="110" viewBox="0 0 110 110" fill="none" xmlns="http://www.w3.org/2000/svg">
<g clip-path="url(#clip0_1206_1599)">
<path d="M29 45.31C27.45 45.85 26.63 47.55 27.17 49.1C27.61 50.37 28.84 51.15 30.12 51.09C30.4 51.08 30.68 51.02 30.96 50.93C31.63 50.7 32.28 50.44 32.92 50.17L30.03 44.92C29.69 45.05 29.35 45.18 29 45.31Z" fill="#FADDDC"/>
<path d="M51.82 20.36C50.22 20 48.63 21.01 48.27 22.61C48.23 22.78 44.37 39.22 30.03 44.92L32.92 50.17C49.65 43.1 53.9 24.72 54.08 23.91C54.43 22.31 53.42 20.73 51.82 20.37V20.36Z" fill="#8FA0C1"/>
<path d="M50.46 56.07L62.43 55.61L69.02 77.72L82.43 94.85L79.22 97.28C79.5 97.78 79.99 98.6 80.46 98.92C81.15 99.38 82.05 100.25 81.24 101.28L76.28 105.13C75.56 105.44 74.79 104.38 75.15 103.58C75.39 103.05 76.21 101.87 76.48 101.37C77.03 100.32 76.37 99.53 75.65 98.39C71.32 91.6 61.21 81.21 61.21 81.21L50.47 56.07H50.46Z" fill="#291B4C"/>
<path d="M47.53 54.53L62.45 55.99L45.73 80.07L39.43 102.59L35.57 102.03L34.67 103.8C33.74 105.79 33.62 106.64 32.08 105.87L28.25 104.37C27.55 104.02 27.66 103.01 28.48 102.76C29.02 102.6 29.85 102.57 30.41 102.54C32.49 102.44 32.21 100.99 32.54 99.67C34.54 91.79 35.44 85.46 37.71 77.51C39 72.95 47.55 54.52 47.55 54.52L47.53 54.53Z" fill="#3F3072"/>
<path d="M43.76 55.86H62.23C65.96 55.86 65.77 52.56 65.68 51.6L61.53 27.87C61.53 23.71 59.12 20.33 55.59 20.33H51.24C49.74 20.33 48.32 21.09 47.54 22.37C41.87 31.63 43.76 55.86 43.76 55.86Z" fill="#A4B2D3"/>
<path d="M66.48 53.45C66.26 55.08 67.41 56.57 69.04 56.79C70.38 56.97 71.63 56.23 72.15 55.05C72.26 54.8 72.34 54.52 72.38 54.23C72.47 53.52 72.54 52.83 72.59 52.14L66.61 52.36C66.58 52.72 66.54 53.09 66.49 53.45H66.48Z" fill="#FADDDC"/>
<path d="M54.48 21.84C53.44 23.11 53.63 24.98 54.89 26.02C55.02 26.13 67.97 36.98 66.59 52.35L72.57 52.13C73.79 34.01 59.29 21.94 58.65 21.41C57.38 20.37 55.51 20.56 54.47 21.83L54.48 21.84Z" fill="#A4B2D3"/>
<path d="M55.29 15.81C55.51 15.81 58.31 14.95 61.08 19.03C62.8 21.55 62.45 23.3 59.73 23.3C57.01 23.3 54.85 22.86 53.52 23.23L48.66 23.79L50.23 22.37L55.18 20.35L55.29 15.82V15.81Z" fill="#A4B2D3"/>
<path d="M55.29 15.81C55.66 15.81 58.09 16.03 57.5 17.28C56.91 18.53 55.19 20.34 55.19 20.34L55.3 15.81H55.29Z" fill="#3E2967"/>
<path d="M52.33 23.62C52.0925 23.62 51.9 23.4275 51.9 23.19C51.9 22.9525 52.0925 22.76 52.33 22.76C52.5675 22.76 52.76 22.9525 52.76 23.19C52.76 23.4275 52.5675 23.62 52.33 23.62Z" fill="#5B6882"/>
<path d="M50.32 36.28C50.47 36.3 50.61 36.2 50.64 36.05L52.59 23.24C52.61 23.09 52.51 22.95 52.36 22.92C52.21 22.89 52.07 23 52.04 23.15L50.09 35.96C50.07 36.11 50.17 36.25 50.32 36.28Z" fill="white"/>
<path d="M49.16 23.17C48.9225 23.17 48.73 22.9775 48.73 22.74C48.73 22.5025 48.9225 22.31 49.16 22.31C49.3974 22.31 49.59 22.5025 49.59 22.74C49.59 22.9775 49.3974 23.17 49.16 23.17Z" fill="#5B6882"/>
<path d="M47.15 35.84C47.3 35.86 47.44 35.76 47.47 35.61L49.42 22.8C49.44 22.65 49.34 22.51 49.19 22.48C49.04 22.45 48.9 22.56 48.87 22.71L46.92 35.52C46.9 35.67 47 35.81 47.15 35.84Z" fill="white"/>
<path d="M50.24 22.37C50.08 22.33 49.24 20.9 49 20.58C48.76 20.26 47.86 19.02 48.47 18.2C49.08 17.38 50.43 17.01 50.74 17.38C51.05 17.75 50.24 22.37 50.24 22.37Z" fill="#A4B2D3"/>
<path d="M55.4 6H45.72V15.3C45.72 17.12 47.1 18.6 48.8 18.6H49.78C50.26 18.6 50.64 19.01 50.64 19.53V23.01L55.21 20.35L55.4 6.01V6Z" fill="#FADDDC"/>
<path d="M46.47 15.73L45.87 15.56C45.33 15.41 45.01 14.84 45.16 14.3L45.99 11.34C46.05 11.11 46.29 10.98 46.51 11.05C46.73 11.12 46.87 11.35 46.8 11.57L46.08 14.13C45.99 14.44 46.17 14.76 46.48 14.84L46.69 14.9C46.92 14.96 47.05 15.2 46.98 15.42C46.91 15.64 46.68 15.78 46.46 15.71L46.47 15.73Z" fill="#E0B1BB"/>
<path opacity="0.5" d="M49.03 13.14H48.03C47.4 13.14 46.88 12.56 46.88 11.86C46.88 11.15 47.4 10.58 48.03 10.58H49.03C49.66 10.58 50.18 11.16 50.18 11.86C50.18 12.57 49.66 13.14 49.03 13.14Z" fill="white"/>
<path opacity="0.5" d="M44.55 13.14H45.07C44.44 13.14 43.92 12.56 43.92 11.86C43.92 11.15 44.44 10.58 45.07 10.58H44.55C45.18 10.58 45.7 11.16 45.7 11.86C45.7 12.57 45.18 13.14 44.55 13.14Z" fill="white"/>
<path d="M50.5 11.45V12.03C50.5 12.79 49.95 13.41 49.26 13.41H47.74C47.06 13.41 46.5 12.79 46.5 12.03V11.67H46.01V12.03C46.01 12.79 45.46 13.41 44.77 13.41C44.09 13.41 43.53 12.79 43.53 12.03V11.45C43.53 10.69 44.08 10.07 44.77 10.07C45.27 10.07 45.71 10.41 45.9 10.89H46.61C46.8 10.41 47.23 10.07 47.74 10.07H49.26C49.94 10.07 50.5 10.69 50.5 11.45ZM45.33 11.45C45.33 11.12 45.09 10.84 44.79 10.84C44.49 10.84 44.25 11.11 44.25 11.45V12.03C44.25 12.36 44.49 12.64 44.79 12.64C45.09 12.64 45.33 12.37 45.33 12.03V11.45ZM49.81 11.45C49.81 11.12 49.57 10.84 49.27 10.84H47.75C47.45 10.84 47.21 11.11 47.21 11.45V12.03C47.21 12.36 47.45 12.64 47.75 12.64H49.27C49.57 12.64 49.81 12.37 49.81 12.03V11.45Z" fill="#9C9E9F"/>
<path d="M57.02 8.71C57.17 7.23 56.66 5.74 55.58 4.7C54.21 3.38 52.12 2.68 49.17 3.14C49.06 3.16 48.94 3.14 48.83 3.14C45.47 3.14 44.24 5.85 44.26 7.48C44.28 9.71 45.44 10.32 45.44 10.32C45.44 10.32 45.49 10.32 45.5 10.32C46.49 10.32 45.9 6.36 46.52 6.36C47.14 6.36 46.82 10.38 51.55 10.38C51.91 10.38 52.19 10.67 52.19 11.02V12.17C52.19 12.38 52.36 12.55 52.58 12.55C52.8 12.55 52.97 12.38 52.97 12.17C52.97 11.96 53.89 14.06 54.54 14.92C54.77 15.22 55.4 14.78 55.4 14.78C55.8 14.17 56.76 11.27 57.03 8.73L57.02 8.71Z" fill="#3E2967"/>
<path d="M52.95 11.5C52.95 10.9698 53.3798 10.54 53.91 10.54C54.4402 10.54 54.87 10.9698 54.87 11.5V13.59C54.87 14.1202 54.4402 14.55 53.91 14.55C53.3798 14.55 52.95 14.1202 52.95 13.59V11.5Z" fill="#FADDDC"/>
</g>
<defs>
<clipPath id="clip0_1206_1599">
<rect width="55.43" height="103.16" fill="white" transform="matrix(-1 0 0 1 82.43 3)"/>
</clipPath>
</defs>
</svg>
