<svg width="110" height="110" viewBox="0 0 110 110" fill="none" xmlns="http://www.w3.org/2000/svg">
<g clip-path="url(#clip0_1204_6437)">
<path d="M80.43 45.31C81.98 45.85 82.8 47.55 82.26 49.1C81.82 50.37 80.59 51.15 79.31 51.09C79.03 51.08 78.75 51.02 78.47 50.93C77.8 50.7 77.15 50.44 76.51 50.17L79.4 44.92C79.74 45.05 80.08 45.18 80.43 45.31Z" fill="#FADDDC"/>
<path d="M57.61 20.36C59.21 20 60.8 21.01 61.16 22.61C61.2 22.78 65.06 39.22 79.4 44.92L76.51 50.17C59.78 43.1 55.53 24.72 55.35 23.91C55 22.31 56.01 20.73 57.61 20.37V20.36Z" fill="#8FA0C1"/>
<path d="M58.97 56.07L47 55.61L40.41 77.72L27 94.85L30.21 97.28C29.93 97.78 29.44 98.6 28.97 98.92C28.28 99.38 27.38 100.25 28.19 101.28L33.15 105.13C33.87 105.44 34.64 104.38 34.28 103.58C34.04 103.05 33.22 101.87 32.95 101.37C32.4 100.32 33.06 99.53 33.78 98.39C38.11 91.6 48.22 81.21 48.22 81.21L58.96 56.07H58.97Z" fill="#291B4C"/>
<path d="M61.9 54.53L46.98 55.99L63.7 80.07L70 102.59L73.86 102.03L74.76 103.8C75.69 105.79 75.81 106.64 77.35 105.87L81.18 104.37C81.88 104.02 81.77 103.01 80.95 102.76C80.41 102.6 79.58 102.57 79.02 102.54C76.94 102.44 77.22 100.99 76.89 99.67C74.89 91.79 73.99 85.46 71.72 77.51C70.43 72.95 61.88 54.52 61.88 54.52L61.9 54.53Z" fill="#3F3072"/>
<path d="M65.67 55.86H47.2C43.47 55.86 43.66 52.56 43.75 51.6L47.9 27.87C47.9 23.71 50.31 20.33 53.84 20.33H58.19C59.69 20.33 61.11 21.09 61.89 22.37C67.56 31.63 65.67 55.86 65.67 55.86Z" fill="#A4B2D3"/>
<path d="M42.95 53.45C43.17 55.08 42.02 56.57 40.39 56.79C39.05 56.97 37.8 56.23 37.28 55.05C37.17 54.8 37.09 54.52 37.05 54.23C36.96 53.52 36.89 52.83 36.84 52.14L42.82 52.36C42.85 52.72 42.89 53.09 42.94 53.45H42.95Z" fill="#FADDDC"/>
<path d="M54.95 21.84C55.99 23.11 55.8 24.98 54.54 26.02C54.41 26.13 41.46 36.98 42.84 52.35L36.86 52.13C35.64 34.01 50.14 21.94 50.78 21.41C52.05 20.37 53.92 20.56 54.96 21.83L54.95 21.84Z" fill="#A4B2D3"/>
<path d="M54.14 15.81C53.92 15.81 51.12 14.95 48.35 19.03C46.63 21.55 46.98 23.3 49.7 23.3C52.42 23.3 54.58 22.86 55.91 23.23L60.77 23.79L59.2 22.37L54.25 20.35L54.14 15.82V15.81Z" fill="#A4B2D3"/>
<path d="M54.14 15.81C53.77 15.81 51.34 16.03 51.93 17.28C52.52 18.53 54.24 20.34 54.24 20.34L54.13 15.81H54.14Z" fill="#3E2967"/>
<path d="M57.1 23.62C57.3375 23.62 57.53 23.4275 57.53 23.19C57.53 22.9525 57.3375 22.76 57.1 22.76C56.8625 22.76 56.67 22.9525 56.67 23.19C56.67 23.4275 56.8625 23.62 57.1 23.62Z" fill="#5B6882"/>
<path d="M59.11 36.28C58.96 36.3 58.82 36.2 58.79 36.05L56.84 23.24C56.82 23.09 56.92 22.95 57.07 22.92C57.22 22.89 57.36 23 57.39 23.15L59.34 35.96C59.36 36.11 59.26 36.25 59.11 36.28Z" fill="white"/>
<path d="M60.27 23.17C60.5075 23.17 60.7 22.9775 60.7 22.74C60.7 22.5025 60.5075 22.31 60.27 22.31C60.0325 22.31 59.84 22.5025 59.84 22.74C59.84 22.9775 60.0325 23.17 60.27 23.17Z" fill="#5B6882"/>
<path d="M62.28 35.84C62.13 35.86 61.99 35.76 61.96 35.61L60.01 22.8C59.99 22.65 60.09 22.51 60.24 22.48C60.39 22.45 60.53 22.56 60.56 22.71L62.51 35.52C62.53 35.67 62.43 35.81 62.28 35.84Z" fill="white"/>
<path d="M59.19 22.37C59.35 22.33 60.19 20.9 60.43 20.58C60.67 20.26 61.57 19.02 60.96 18.2C60.35 17.38 59 17.01 58.69 17.38C58.38 17.75 59.19 22.37 59.19 22.37Z" fill="#A4B2D3"/>
<path d="M54.03 6H63.71V15.3C63.71 17.12 62.33 18.6 60.63 18.6H59.65C59.17 18.6 58.79 19.01 58.79 19.53V23.01L54.22 20.35L54.03 6.01V6Z" fill="#FADDDC"/>
<path d="M62.96 15.73L63.56 15.56C64.1 15.41 64.42 14.84 64.27 14.3L63.44 11.34C63.38 11.11 63.14 10.98 62.92 11.05C62.7 11.12 62.56 11.35 62.63 11.57L63.35 14.13C63.44 14.44 63.26 14.76 62.95 14.84L62.74 14.9C62.51 14.96 62.38 15.2 62.45 15.42C62.52 15.64 62.75 15.78 62.97 15.71L62.96 15.73Z" fill="#E0B1BB"/>
<path opacity="0.5" d="M60.4 13.14H61.4C62.03 13.14 62.55 12.56 62.55 11.86C62.55 11.15 62.03 10.58 61.4 10.58H60.4C59.77 10.58 59.25 11.16 59.25 11.86C59.25 12.57 59.77 13.14 60.4 13.14Z" fill="white"/>
<path opacity="0.5" d="M64.88 13.14H64.36C64.99 13.14 65.51 12.56 65.51 11.86C65.51 11.15 64.99 10.58 64.36 10.58H64.88C64.25 10.58 63.73 11.16 63.73 11.86C63.73 12.57 64.25 13.14 64.88 13.14Z" fill="white"/>
<path d="M58.93 11.45V12.03C58.93 12.79 59.48 13.41 60.17 13.41H61.69C62.37 13.41 62.93 12.79 62.93 12.03V11.67H63.42V12.03C63.42 12.79 63.97 13.41 64.66 13.41C65.34 13.41 65.9 12.79 65.9 12.03V11.45C65.9 10.69 65.35 10.07 64.66 10.07C64.16 10.07 63.72 10.41 63.53 10.89H62.82C62.63 10.41 62.2 10.07 61.69 10.07H60.17C59.49 10.07 58.93 10.69 58.93 11.45ZM64.1 11.45C64.1 11.12 64.34 10.84 64.64 10.84C64.94 10.84 65.18 11.11 65.18 11.45V12.03C65.18 12.36 64.94 12.64 64.64 12.64C64.34 12.64 64.1 12.37 64.1 12.03V11.45ZM59.62 11.45C59.62 11.12 59.86 10.84 60.16 10.84H61.68C61.98 10.84 62.22 11.11 62.22 11.45V12.03C62.22 12.36 61.98 12.64 61.68 12.64H60.16C59.86 12.64 59.62 12.37 59.62 12.03V11.45Z" fill="#9C9E9F"/>
<path d="M52.41 8.71C52.26 7.23 52.77 5.74 53.85 4.7C55.22 3.38 57.31 2.68 60.26 3.14C60.37 3.16 60.49 3.14 60.6 3.14C63.96 3.14 65.19 5.85 65.17 7.48C65.15 9.71 63.99 10.32 63.99 10.32C63.99 10.32 63.94 10.32 63.93 10.32C62.94 10.32 63.53 6.36 62.91 6.36C62.29 6.36 62.61 10.38 57.88 10.38C57.52 10.38 57.24 10.67 57.24 11.02V12.17C57.24 12.38 57.07 12.55 56.85 12.55C56.63 12.55 56.46 12.38 56.46 12.17C56.46 11.96 55.54 14.06 54.89 14.92C54.66 15.22 54.03 14.78 54.03 14.78C53.63 14.17 52.67 11.27 52.4 8.73L52.41 8.71Z" fill="#3E2967"/>
<path d="M56.48 11.5C56.48 10.9698 56.0502 10.54 55.52 10.54C54.9898 10.54 54.56 10.9698 54.56 11.5V13.59C54.56 14.1202 54.9898 14.55 55.52 14.55C56.0502 14.55 56.48 14.1202 56.48 13.59V11.5Z" fill="#FADDDC"/>
</g>
<defs>
<clipPath id="clip0_1204_6437">
<rect width="55.43" height="103.16" fill="white" transform="translate(27 3)"/>
</clipPath>
</defs>
</svg>
