<svg width="110" height="110" viewBox="0 0 110 110" fill="none" xmlns="http://www.w3.org/2000/svg">
<g clip-path="url(#clip0_1206_1677)">
<path d="M44.9652 54.1123C43.766 55.2056 43.6587 57.0912 44.7312 58.3249C45.6086 59.3379 47.0028 59.5887 48.1338 59.037C48.3776 58.9167 48.6115 58.7562 48.826 58.5656C49.3428 58.0942 49.84 57.6028 50.308 57.1113L45.7451 53.3601C45.4917 53.6109 45.2284 53.8616 44.9652 54.1123Z" fill="#FADDDC"/>
<path d="M56.2358 22.2474C54.6564 22.5282 53.6034 24.0728 53.8764 25.6976C53.9056 25.8682 56.5478 42.588 45.7452 53.3701L50.308 57.1213C62.7486 44.1527 59.7262 25.487 59.5897 24.6746C59.3167 23.0498 57.8152 21.9766 56.2358 22.2574V22.2474Z" fill="#8FA0C1"/>
<path d="M56.6843 54.6038L68.7739 54.2227L69.1249 101.453L66.863 102.176C66.8532 102.747 66.863 103.69 67.1067 104.202C67.4577 104.964 67.7989 106.168 66.629 106.569L60.6914 107C59.9504 106.86 59.814 105.566 60.4964 105.114C60.9449 104.813 62.1831 104.292 62.6511 104.021C63.6066 103.459 63.5676 102.436 63.3823 101.122C62.0369 91.6041 56.6843 54.6038 56.6843 54.6038Z" fill="#291B4C"/>
<path d="M51.4096 56.018H69.4173C73.0636 56.018 72.8784 52.7182 72.7809 51.7553L68.7348 27.9544C68.7348 23.7819 66.3851 20.3918 62.9435 20.3918H58.7024C57.2399 20.3918 55.8555 21.1541 55.095 22.4379C49.5669 31.7256 51.4096 56.0281 51.4096 56.0281V56.018Z" fill="#A4B2D3"/>
<path d="M62.651 15.8483C62.8655 15.8483 65.5954 14.9857 68.2961 19.0779C69.973 21.6054 69.6318 23.3607 66.9799 23.3607C64.328 23.3607 62.222 22.9194 60.9253 23.2905L56.187 23.8521L57.7177 22.4279L62.5438 20.4019L62.651 15.8583V15.8483Z" fill="#A4B2D3"/>
<path d="M62.651 15.8483C63.0117 15.8483 65.3809 16.069 64.8057 17.3227C64.2304 18.5764 62.5535 20.3918 62.5535 20.3918L62.6608 15.8483H62.651Z" fill="#3E2967"/>
<path d="M59.7651 23.6817C59.5336 23.6817 59.3459 23.4886 59.3459 23.2504C59.3459 23.0122 59.5336 22.8191 59.7651 22.8191C59.9966 22.8191 60.1843 23.0122 60.1843 23.2504C60.1843 23.4886 59.9966 23.6817 59.7651 23.6817Z" fill="#5B6882"/>
<path d="M57.8055 36.3795C57.9517 36.3995 58.0882 36.2992 58.1175 36.1488L60.0186 23.3005C60.0381 23.1501 59.9406 23.0096 59.7944 22.9795C59.6482 22.9495 59.5117 23.0598 59.4824 23.2102L57.5812 36.0585C57.5617 36.209 57.6592 36.3494 57.8055 36.3795Z" fill="white"/>
<path d="M56.6745 23.2303C56.443 23.2303 56.2553 23.0372 56.2553 22.799C56.2553 22.5608 56.443 22.3677 56.6745 22.3677C56.9061 22.3677 57.0938 22.5608 57.0938 22.799C57.0938 23.0372 56.9061 23.2303 56.6745 23.2303Z" fill="#5B6882"/>
<path d="M54.7051 35.9382C54.8514 35.9582 54.9879 35.8579 55.0171 35.7075L56.9183 22.8592C56.9378 22.7087 56.8403 22.5683 56.6941 22.5382C56.5478 22.5081 56.4113 22.6185 56.3821 22.7689L54.4809 35.6172C54.4614 35.7677 54.5589 35.9081 54.7051 35.9382Z" fill="white"/>
<path d="M57.7178 22.4279C57.5618 22.3878 56.7428 20.9535 56.5088 20.6325C56.2748 20.3116 55.3973 19.0679 55.9921 18.2454C56.5868 17.423 57.903 17.0519 58.2052 17.423C58.5075 17.7941 57.7178 22.4279 57.7178 22.4279Z" fill="#A4B2D3"/>
<path d="M62.7485 6.00897H53.3109V15.3368C53.3109 17.1622 54.6563 18.6466 56.3138 18.6466H57.2692C57.7372 18.6466 58.1077 19.0579 58.1077 19.5794V23.0698L62.5633 20.4019L62.7485 6.019V6.00897Z" fill="#FADDDC"/>
<path d="M54.0422 15.7681L53.4572 15.5975C52.9307 15.4471 52.6187 14.8754 52.7649 14.3338L53.5742 11.3649C53.6327 11.1342 53.8667 11.0039 54.0812 11.0741C54.2956 11.1443 54.4321 11.375 54.3639 11.5956L53.6619 14.1633C53.5742 14.4742 53.7497 14.7952 54.0519 14.8754L54.2566 14.9356C54.4809 14.9957 54.6076 15.2365 54.5394 15.4571C54.4711 15.6778 54.2469 15.8182 54.0324 15.748L54.0422 15.7681Z" fill="#E0B1BB"/>
<path opacity="0.5" d="M56.5477 13.1703H55.5728C54.9585 13.1703 54.4516 12.5886 54.4516 11.8865C54.4516 11.1744 54.9585 10.6027 55.5728 10.6027H56.5477C57.162 10.6027 57.6689 11.1844 57.6689 11.8865C57.6689 12.5986 57.162 13.1703 56.5477 13.1703Z" fill="white"/>
<path opacity="0.5" d="M52.1799 13.1703H52.6869C52.0727 13.1703 51.5657 12.5886 51.5657 11.8865C51.5657 11.1744 52.0727 10.6027 52.6869 10.6027H52.1799C52.7942 10.6027 53.3011 11.1844 53.3011 11.8865C53.3011 12.5986 52.7942 13.1703 52.1799 13.1703Z" fill="white"/>
<path d="M57.981 11.4753V12.057C57.981 12.8193 57.4447 13.4411 56.772 13.4411H55.2901C54.6271 13.4411 54.0811 12.8193 54.0811 12.057V11.6959H53.6034V12.057C53.6034 12.8193 53.0671 13.4411 52.3944 13.4411C51.7314 13.4411 51.1854 12.8193 51.1854 12.057V11.4753C51.1854 10.713 51.7217 10.0911 52.3944 10.0911C52.8819 10.0911 53.3109 10.4321 53.4961 10.9136H54.1883C54.3736 10.4321 54.7928 10.0911 55.2901 10.0911H56.772C57.435 10.0911 57.981 10.713 57.981 11.4753ZM52.9404 11.4753C52.9404 11.1443 52.7064 10.8634 52.4139 10.8634C52.1214 10.8634 51.8874 11.1342 51.8874 11.4753V12.057C51.8874 12.388 52.1214 12.6688 52.4139 12.6688C52.7064 12.6688 52.9404 12.398 52.9404 12.057V11.4753ZM57.3082 11.4753C57.3082 11.1443 57.0742 10.8634 56.7817 10.8634H55.2998C55.0073 10.8634 54.7733 11.1342 54.7733 11.4753V12.057C54.7733 12.388 55.0073 12.6688 55.2998 12.6688H56.7817C57.0742 12.6688 57.3082 12.398 57.3082 12.057V11.4753Z" fill="#9C9E9F"/>
<path d="M64.3377 8.72707C64.484 7.24265 63.9867 5.74819 62.9338 4.70508C61.5883 3.38114 59.5507 2.67905 56.6745 3.14042C56.5673 3.16048 56.4503 3.14042 56.343 3.14042C53.0671 3.14042 51.8679 5.85852 51.8874 7.4934C51.9069 9.73006 53.0379 10.3419 53.0379 10.3419C53.0379 10.3419 53.0866 10.3419 53.0964 10.3419C54.0616 10.3419 53.4864 6.37005 54.0908 6.37005C54.6953 6.37005 54.3833 10.4021 58.9949 10.4021C59.3459 10.4021 59.6189 10.6929 59.6189 11.044V12.1974C59.6189 12.408 59.7846 12.5786 59.9991 12.5786C60.2136 12.5786 60.3794 12.408 60.3794 12.1974C60.3794 11.9868 61.2763 14.0931 61.9101 14.9556C62.1343 15.2565 62.7485 14.8152 62.7485 14.8152C63.1385 14.2034 64.0745 11.2947 64.3377 8.74713V8.72707Z" fill="#3E2967"/>
<path d="M60.3696 11.5254C60.3696 10.9936 60.7887 10.5625 61.3056 10.5625C61.8225 10.5625 62.2416 10.9936 62.2416 11.5254V13.6216C62.2416 14.1534 61.8225 14.5845 61.3056 14.5845C60.7887 14.5845 60.3696 14.1534 60.3696 13.6216V11.5254Z" fill="#FADDDC"/>
<path d="M55.797 54.7944L70.0608 54.1725L57.7177 74.443L63.47 94.2721L61.1788 94.9842V96.93C61.3543 98.2941 61.3543 99.1867 59.8724 99.9791L56.0603 100.932C55.3096 100.992 54.9586 100.079 55.5435 99.4676C55.9335 99.0563 56.7525 98.7655 57.1035 98.3141C58.6342 96.2881 57.8347 95.8167 57.5422 94.5329C56.1968 88.6252 52.1409 79.5582 50.3762 75.7569C49.84 74.6034 49.762 73.2795 50.1617 72.0659L55.797 54.7944Z" fill="#3E2C6D"/>
<path d="M64.6498 24.0427C63.2263 24.7849 62.6608 26.5803 63.3823 28.0547C63.4603 28.2152 66.5607 48.8366 63.2848 55.6569L67.5649 55.2156C71.1333 40.1407 68.7934 29.0677 68.4229 28.3355C67.6917 26.8711 66.0732 23.3005 64.6498 24.0527V24.0427Z" fill="#8FA0C1"/>
<path d="M62.5731 57.6429C61.7444 59.0571 62.1831 60.8825 63.5481 61.7351C64.6693 62.4372 66.083 62.2566 66.9995 61.384C67.2042 61.1934 67.3797 60.9728 67.5259 60.722C67.8867 60.1102 68.2182 59.4984 68.5302 58.8866L63.0996 56.68C62.9338 57.0009 62.7584 57.3219 62.5634 57.6328L62.5731 57.6429Z" fill="#FADDDC"/>
<path d="M64.2208 23.7719C62.7973 24.5141 62.2318 26.3095 62.9533 27.7839C63.0313 27.9444 70.3436 43.1196 63.1093 56.69L68.5399 58.8966C76.7198 42.7385 68.4911 25.808 68.1206 25.0758C67.3894 23.6114 65.654 23.0297 64.2208 23.7819V23.7719Z" fill="#A4B2D3"/>
</g>
<defs>
<clipPath id="clip0_1206_1677">
<rect width="28.82" height="104" fill="white" transform="matrix(-1 0 0 1 72.8199 3)"/>
</clipPath>
</defs>
</svg>
