<svg width="55" height="104" viewBox="0 0 55 104" fill="none" xmlns="http://www.w3.org/2000/svg">
<g clip-path="url(#clip0_109_885)">
<path d="M2.00002 42.31C0.45002 42.85 -0.36998 44.55 0.17002 46.1C0.61002 47.37 1.84002 48.15 3.12002 48.09C3.40002 48.08 3.68002 48.02 3.96002 47.93C4.63002 47.7 5.28002 47.44 5.92002 47.17L3.03002 41.92C2.69002 42.05 2.35002 42.18 2.00002 42.31Z" fill="#FADDDC"/>
<path d="M24.82 17.3601C23.22 17.0001 21.63 18.0101 21.27 19.6101C21.23 19.7801 17.37 36.2201 3.03003 41.9201L5.92003 47.1701C22.65 40.1001 26.9 21.7201 27.08 20.9101C27.43 19.3101 26.42 17.7301 24.82 17.3701V17.3601Z" fill="#8FA0C1"/>
<path d="M23.46 53.07L35.43 52.61L42.02 74.72L54.54 92.42L52.21 94.28C52.49 94.78 52.98 95.6 53.45 95.92C54.14 96.38 55.04 97.25 54.23 98.28L49.27 102.13C48.55 102.44 47.78 101.38 48.14 100.58C48.38 100.05 49.2 98.87 49.47 98.37C50.02 97.32 49.36 96.53 48.64 95.39C44.31 88.6 34.2 78.21 34.2 78.21L23.46 53.07Z" fill="#291B4C"/>
<path d="M20.53 51.53L35.45 52.99L18.73 77.07L11.35 99.43L8.56995 99.04L7.66995 100.81C6.73995 102.8 6.61995 103.65 5.07995 102.88L1.24995 101.38C0.549954 101.03 0.659954 100.02 1.47995 99.77C2.01995 99.61 2.84995 99.58 3.40995 99.55C5.48995 99.45 5.20995 98 5.53995 96.68C7.53995 88.8 8.43995 82.47 10.71 74.52C12 69.96 20.55 51.53 20.55 51.53H20.53Z" fill="#3F3072"/>
<path d="M16.76 52.86H35.23C38.96 52.86 38.77 49.56 38.68 48.6L34.53 24.87C34.53 20.71 32.12 17.33 28.59 17.33H24.24C22.74 17.33 21.32 18.09 20.54 19.37C14.87 28.63 16.76 52.86 16.76 52.86Z" fill="#A4B2D3"/>
<path d="M39.48 50.45C39.26 52.08 40.41 53.57 42.04 53.79C43.38 53.97 44.63 53.23 45.15 52.05C45.26 51.8 45.34 51.52 45.38 51.23C45.47 50.52 45.54 49.83 45.59 49.14L39.61 49.36C39.58 49.72 39.54 50.09 39.49 50.45H39.48Z" fill="#FADDDC"/>
<path d="M27.48 18.84C26.44 20.11 26.63 21.98 27.89 23.02C28.02 23.13 40.97 33.98 39.59 49.35L45.57 49.13C46.79 31.01 32.29 18.94 31.65 18.41C30.38 17.37 28.51 17.56 27.47 18.83L27.48 18.84Z" fill="#A4B2D3"/>
<path d="M28.29 12.81C28.51 12.81 31.31 11.95 34.08 16.03C35.8 18.55 35.45 20.3 32.73 20.3C30.01 20.3 27.85 19.86 26.52 20.23L21.66 20.79L23.23 19.37L28.18 17.35L28.29 12.82V12.81Z" fill="#A4B2D3"/>
<path d="M28.2899 12.8101C28.6599 12.8101 31.0899 13.0301 30.4999 14.2801C29.9099 15.5301 28.1899 17.3401 28.1899 17.3401L28.2999 12.8101H28.2899Z" fill="#3E2967"/>
<path d="M25.33 20.62C25.5675 20.62 25.76 20.4275 25.76 20.19C25.76 19.9525 25.5675 19.76 25.33 19.76C25.0925 19.76 24.9 19.9525 24.9 20.19C24.9 20.4275 25.0925 20.62 25.33 20.62Z" fill="#5B6882"/>
<path d="M23.3199 33.28C23.4699 33.3 23.6099 33.2 23.6399 33.05L25.5899 20.24C25.6099 20.09 25.5099 19.95 25.3599 19.92C25.2099 19.89 25.0699 20 25.0399 20.15L23.0899 32.96C23.0699 33.11 23.1699 33.25 23.3199 33.28Z" fill="white"/>
<path d="M22.16 20.1701C22.3975 20.1701 22.59 19.9775 22.59 19.7401C22.59 19.5026 22.3975 19.3101 22.16 19.3101C21.9225 19.3101 21.73 19.5026 21.73 19.7401C21.73 19.9775 21.9225 20.1701 22.16 20.1701Z" fill="#5B6882"/>
<path d="M20.14 32.8401C20.29 32.8601 20.43 32.7601 20.46 32.6101L22.41 19.8C22.43 19.65 22.33 19.51 22.18 19.48C22.03 19.45 21.89 19.56 21.86 19.71L19.91 32.5201C19.89 32.6701 19.99 32.8101 20.14 32.8401Z" fill="white"/>
<path d="M23.2301 19.37C23.0701 19.33 22.2301 17.9 21.9901 17.58C21.7501 17.26 20.8501 16.02 21.4601 15.2C22.0701 14.38 23.4201 14.01 23.7301 14.38C24.0401 14.75 23.2301 19.37 23.2301 19.37Z" fill="#A4B2D3"/>
<path d="M28.39 3H18.71V12.3C18.71 14.12 20.09 15.6 21.79 15.6H22.77C23.25 15.6 23.63 16.01 23.63 16.53V20.01L28.2 17.35L28.39 3.01V3Z" fill="#FADDDC"/>
<path d="M19.46 12.73L18.86 12.56C18.32 12.41 18 11.84 18.15 11.3L18.98 8.33996C19.04 8.10996 19.28 7.97996 19.5 8.04996C19.72 8.11996 19.86 8.34995 19.79 8.56995L19.07 11.13C18.98 11.44 19.16 11.76 19.47 11.84L19.68 11.9C19.91 11.96 20.04 12.2 19.97 12.42C19.9 12.64 19.67 12.78 19.45 12.71L19.46 12.73Z" fill="#E0B1BB"/>
<path opacity="0.5" d="M22.03 10.14H21.03C20.4 10.14 19.88 9.55996 19.88 8.85996C19.88 8.14996 20.4 7.57996 21.03 7.57996H22.03C22.66 7.57996 23.18 8.15996 23.18 8.85996C23.18 9.56996 22.66 10.14 22.03 10.14Z" fill="white"/>
<path opacity="0.5" d="M17.55 10.14H18.07C17.44 10.14 16.92 9.55996 16.92 8.85996C16.92 8.14996 17.44 7.57996 18.07 7.57996H17.55C18.18 7.57996 18.7 8.15996 18.7 8.85996C18.7 9.56996 18.18 10.14 17.55 10.14Z" fill="white"/>
<path d="M22.27 7.06995H20.75C20.25 7.06995 19.81 7.40995 19.62 7.88995H18.91C18.72 7.40995 18.29 7.06995 17.78 7.06995C17.1 7.06995 16.54 7.68995 16.54 8.44995V9.02995C16.54 9.78995 17.09 10.4099 17.78 10.4099C18.46 10.4099 19.02 9.78995 19.02 9.02995V8.66995H19.51V9.02995C19.51 9.78995 20.06 10.4099 20.75 10.4099H22.27C22.95 10.4099 23.51 9.78995 23.51 9.02995V8.44995C23.51 7.68995 22.96 7.06995 22.27 7.06995ZM18.33 9.02995C18.33 9.35995 18.09 9.63995 17.79 9.63995C17.49 9.63995 17.25 9.36995 17.25 9.02995V8.44995C17.25 8.11995 17.49 7.83995 17.79 7.83995C18.09 7.83995 18.33 8.10995 18.33 8.44995V9.02995ZM22.81 9.02995C22.81 9.35995 22.57 9.63995 22.27 9.63995H20.75C20.45 9.63995 20.21 9.36995 20.21 9.02995V8.44995C20.21 8.11995 20.45 7.83995 20.75 7.83995H22.27C22.57 7.83995 22.81 8.10995 22.81 8.44995V9.02995Z" fill="#9C9E9F"/>
<path d="M30.02 5.71C30.17 4.23 29.66 2.74 28.58 1.7C27.21 0.379998 25.12 -0.320002 22.17 0.139998C22.06 0.159998 21.94 0.139998 21.83 0.139998C18.47 0.139998 17.24 2.85 17.26 4.48C17.28 6.71 18.44 7.32 18.44 7.32C18.44 7.32 18.49 7.32 18.5 7.32C19.49 7.32 18.9 3.36 19.52 3.36C20.14 3.36 19.82 7.38 24.55 7.38C24.91 7.38 25.19 7.67 25.19 8.02V9.17C25.19 9.38 25.36 9.55 25.58 9.55C25.8 9.55 25.97 9.38 25.97 9.17C25.97 8.96 26.89 11.06 27.54 11.92C27.77 12.22 28.4 11.78 28.4 11.78C28.8 11.17 29.76 8.27 30.03 5.73L30.02 5.71Z" fill="#3E2967"/>
<path d="M25.95 10.6001C25.95 11.1303 26.3798 11.5601 26.91 11.5601C27.4402 11.5601 27.87 11.1303 27.87 10.6001V8.51006C27.87 7.97987 27.4402 7.55006 26.91 7.55006C26.3798 7.55006 25.95 7.97987 25.95 8.51006V10.6001Z" fill="#FADDDC"/>
</g>
<defs>
<clipPath id="clip0_109_885">
<rect width="54.55" height="103.16" fill="white"/>
</clipPath>
</defs>
</svg>
