<svg width="110" height="110" viewBox="0 0 110 110" fill="none" xmlns="http://www.w3.org/2000/svg">
<g clip-path="url(#clip0_1206_1395)">
<path d="M39.7064 54.01C39.7164 55.65 38.3937 57 36.7503 57.01C35.3975 57.02 34.2451 56.13 33.8743 54.9C33.7941 54.63 33.744 54.35 33.744 54.06C33.744 53.35 33.754 52.65 33.7941 51.96L39.7164 52.91C39.7064 53.27 39.6964 53.64 39.6964 54.01H39.7064Z" fill="#FADDDC"/>
<path d="M55.5192 24.11C56.4011 25.5 55.9802 27.33 54.5973 28.21C54.447 28.3 40.2475 37.49 39.7264 52.91L33.8041 51.96C34.8162 33.82 50.7193 23.62 51.4207 23.18C52.8136 22.31 54.6474 22.72 55.5292 24.11H55.5192Z" fill="#8FA0C1"/>
<path d="M63.6561 55.8L50.7794 55.88L63.7463 79.53L70.0995 102.76L73.8873 102.04L74.7892 103.81C75.7211 105.8 75.8414 106.65 77.3846 105.88L81.2226 104.38C81.924 104.03 81.8138 103.02 80.9921 102.77C80.451 102.61 79.6192 102.58 79.0581 102.55C76.9737 102.45 77.2543 101 76.9236 99.68C74.9195 91.8 74.0176 85.47 71.7429 77.52C70.4502 72.96 63.6461 55.8 63.6461 55.8H63.6561Z" fill="#291B4C"/>
<path d="M62.0027 55.88L46.3201 55.47L40.2074 77.06L27 94.52L30.1365 97.28C29.8559 97.78 29.3649 98.6 28.8939 98.92C28.2025 99.38 27.3006 100.25 28.1123 101.28L33.0826 105.13C33.8041 105.44 34.5757 104.38 34.215 103.58C33.9745 103.05 33.1528 101.87 32.8822 101.37C32.3311 100.32 32.9924 99.53 33.7139 98.39C38.0529 91.6 48.184 81.21 48.184 81.21L61.9926 55.88H62.0027Z" fill="#3F3072"/>
<path d="M65.6703 55.86H47.1619C43.4241 55.86 43.6145 52.56 43.7047 51.6L47.8633 27.87C47.8633 23.71 50.2784 20.33 53.8157 20.33H58.1748C59.6779 20.33 61.1008 21.09 61.8824 22.37C67.5642 31.63 65.6703 55.86 65.6703 55.86Z" fill="#A4B2D3"/>
<path d="M54.1163 15.81C53.8959 15.81 51.09 14.95 48.3143 19.03C46.5907 21.55 46.9414 23.3 49.6671 23.3C52.3927 23.3 54.5572 22.86 55.89 23.23L60.7601 23.79L59.1868 22.37L54.2266 20.35L54.1163 15.82V15.81Z" fill="#A4B2D3"/>
<path d="M54.1155 15.81C53.7449 15.81 51.3107 16.03 51.9017 17.28C52.4927 18.53 54.2157 20.34 54.2157 20.34L54.1055 15.81H54.1155Z" fill="#3E2967"/>
<path d="M57.0723 23.62C57.3102 23.62 57.503 23.4275 57.503 23.19C57.503 22.9525 57.3102 22.76 57.0723 22.76C56.8344 22.76 56.6415 22.9525 56.6415 23.19C56.6415 23.4275 56.8344 23.62 57.0723 23.62Z" fill="#5B6882"/>
<path d="M59.0958 36.28C58.9456 36.3 58.8053 36.2 58.7753 36.05L56.8219 23.24C56.8018 23.09 56.902 22.95 57.0523 22.92C57.2025 22.89 57.3428 23 57.3728 23.15L59.3262 35.96C59.3462 36.11 59.2461 36.25 59.0958 36.28Z" fill="white"/>
<path d="M60.2489 23.17C60.4868 23.17 60.6796 22.9775 60.6796 22.74C60.6796 22.5025 60.4868 22.31 60.2489 22.31C60.011 22.31 59.8181 22.5025 59.8181 22.74C59.8181 22.9775 60.011 23.17 60.2489 23.17Z" fill="#5B6882"/>
<path d="M62.2725 35.84C62.1222 35.86 61.982 35.76 61.9519 35.61L59.9985 22.8C59.9785 22.65 60.0787 22.51 60.2289 22.48C60.3792 22.45 60.5194 22.56 60.5495 22.71L62.5029 35.52C62.5229 35.67 62.4227 35.81 62.2725 35.84Z" fill="white"/>
<path d="M59.1766 22.37C59.3369 22.33 60.1783 20.9 60.4187 20.58C60.6592 20.26 61.5607 19.02 60.9497 18.2C60.3386 17.38 58.9863 17.01 58.6757 17.38C58.3652 17.75 59.1766 22.37 59.1766 22.37Z" fill="#A4B2D3"/>
<path d="M54.006 6H63.7062V15.3C63.7062 17.12 62.3233 18.6 60.6198 18.6H59.6377C59.1567 18.6 58.7759 19.01 58.7759 19.53V23.01L54.1964 20.35L54.006 6.01V6Z" fill="#FADDDC"/>
<path d="M62.9545 15.73L63.5555 15.56C64.0965 15.41 64.417 14.84 64.2668 14.3L63.4353 11.34C63.3752 11.11 63.1348 10.98 62.9144 11.05C62.694 11.12 62.5538 11.35 62.6239 11.57L63.3452 14.13C63.4353 14.44 63.255 14.76 62.9445 14.84L62.7341 14.9C62.5037 14.96 62.3735 15.2 62.4436 15.42C62.5137 15.64 62.7441 15.78 62.9645 15.71L62.9545 15.73Z" fill="#E0B1BB"/>
<path opacity="0.5" d="M60.3893 13.14H61.3914C62.0227 13.14 62.5438 12.56 62.5438 11.86C62.5438 11.15 62.0227 10.58 61.3914 10.58H60.3893C59.758 10.58 59.2369 11.16 59.2369 11.86C59.2369 12.57 59.758 13.14 60.3893 13.14Z" fill="white"/>
<path opacity="0.5" d="M64.8782 13.14H64.3573C64.9884 13.14 65.5093 12.56 65.5093 11.86C65.5093 11.15 64.9884 10.58 64.3573 10.58H64.8782C64.2472 10.58 63.7263 11.16 63.7263 11.86C63.7263 12.57 64.2472 13.14 64.8782 13.14Z" fill="white"/>
<path d="M58.9062 11.45V12.03C58.9062 12.79 59.4574 13.41 60.1488 13.41H61.672C62.3534 13.41 62.9146 12.79 62.9146 12.03V11.67H63.4056V12.03C63.4056 12.79 63.9567 13.41 64.6482 13.41C65.3296 13.41 65.8908 12.79 65.8908 12.03V11.45C65.8908 10.69 65.3396 10.07 64.6482 10.07C64.1471 10.07 63.7062 10.41 63.5158 10.89H62.8043C62.6139 10.41 62.1831 10.07 61.672 10.07H60.1488C59.4674 10.07 58.9062 10.69 58.9062 11.45ZM64.097 11.45C64.097 11.12 64.3375 10.84 64.6382 10.84C64.9388 10.84 65.1793 11.11 65.1793 11.45V12.03C65.1793 12.36 64.9388 12.64 64.6382 12.64C64.3375 12.64 64.097 12.37 64.097 12.03V11.45ZM59.6077 11.45C59.6077 11.12 59.8482 10.84 60.1488 10.84H61.672C61.9726 10.84 62.2131 11.11 62.2131 11.45V12.03C62.2131 12.36 61.9726 12.64 61.672 12.64H60.1488C59.8482 12.64 59.6077 12.37 59.6077 12.03V11.45Z" fill="#9C9E9F"/>
<path d="M52.3827 8.71C52.2324 7.23 52.7434 5.74 53.8257 4.7C55.1985 3.38 57.2929 2.68 60.249 3.14C60.3592 3.16 60.4795 3.14 60.5897 3.14C63.9567 3.14 65.1893 5.85 65.1692 7.48C65.1492 9.71 63.9868 10.32 63.9868 10.32C63.9868 10.32 63.9367 10.32 63.9267 10.32C62.9346 10.32 63.5258 6.36 62.9045 6.36C62.2832 6.36 62.6039 10.38 57.8641 10.38C57.5033 10.38 57.2227 10.67 57.2227 11.02V12.17C57.2227 12.38 57.0524 12.55 56.8319 12.55C56.6115 12.55 56.4411 12.38 56.4411 12.17C56.4411 11.96 55.5192 14.06 54.8678 14.92C54.6374 15.22 54.0061 14.78 54.0061 14.78C53.6052 14.17 52.6432 11.27 52.3727 8.73L52.3827 8.71Z" fill="#3E2967"/>
<path d="M56.4505 11.5C56.4505 10.9698 56.0199 10.54 55.4888 10.54C54.9577 10.54 54.5272 10.9698 54.5272 11.5V13.59C54.5272 14.1202 54.9577 14.55 55.4888 14.55C56.0199 14.55 56.4505 14.1202 56.4505 13.59V11.5Z" fill="#FADDDC"/>
<path d="M55.8599 25.36C57.5033 25.46 57.1326 27.96 57.7438 29.49C57.804 29.65 61.0507 40.09 66.1112 42.18L66.001 46.19C55.2687 36.36 51.4107 25.1 55.8599 25.36Z" fill="#8FA0C1"/>
<path d="M82.3549 45.83C83.9783 46.12 85.0505 47.67 84.7499 49.29C84.5094 50.62 83.4172 51.58 82.1345 51.72C81.8539 51.75 81.5733 51.74 81.2827 51.69C80.5813 51.56 79.8998 51.41 79.2285 51.25L81.2727 45.62C81.6234 45.7 81.9842 45.78 82.3549 45.84V45.83Z" fill="#FADDDC"/>
<path d="M55.88 24.73C57.4132 24.13 59.1367 24.88 59.748 26.4C59.8081 26.56 66.1914 42.21 81.2727 45.61L79.2285 51.24C61.5618 46.85 54.5071 29.35 54.1965 28.58C53.5952 27.05 54.3468 25.33 55.88 24.73Z" fill="#A4B2D3"/>
</g>
<defs>
<clipPath id="clip0_1206_1395">
<rect width="57.8" height="103.16" fill="white" transform="translate(27 3)"/>
</clipPath>
</defs>
</svg>
