<svg width="110" height="110" viewBox="0 0 110 110" fill="none" xmlns="http://www.w3.org/2000/svg">
<g clip-path="url(#clip0_1204_6547)">
<path d="M24.14 48.04C22.57 48.49 21.66 50.13 22.12 51.7C22.49 52.99 23.66 53.83 24.94 53.84C25.22 53.84 25.5 53.8 25.78 53.72C26.46 53.52 27.12 53.31 27.77 53.08L25.19 47.71C24.85 47.82 24.5 47.93 24.15 48.04H24.14Z" fill="#FADDDC"/>
<path d="M48.17 24.55C46.6 24.11 44.97 25.02 44.52 26.59C44.47 26.76 39.73 42.86 25.18 47.72L27.76 53.09C44.76 47 49.99 28.98 50.21 28.19C50.65 26.62 49.74 24.99 48.17 24.55Z" fill="#A4B2D3"/>
<path d="M69.45 55.73L57.97 55.57L44.84 55.52L49.18 101.03L52.15 100.81C52.24 101.66 52.01 103.14 51.05 103.89C50.52 104.31 49.95 104.69 49.42 105.11C48.79 105.61 49.12 106.71 49.9 106.71L54.93 105.71C57.18 105.25 56.88 103.71 56.43 102.52C56.14 101.73 55.96 100.91 55.93 100.07C55.74 94.82 55.99 69.1 55.84 65.19C55.8 64.3 55.79 62.94 57.05 62.88L58.21 62.9C59.06 62.9 59.33 63.64 59.36 64.53C59.47 68.43 59.63 75.51 59.57 80.11C59.57 80.11 59.72 83.71 59.96 84.56C60.31 85.78 61.73 85.6 62.22 84.7C62.64 83.92 63.07 80.73 63.15 80.11L65.04 79.81C66.34 79.6 67.35 78.58 67.56 77.29L69.47 55.74L69.45 55.73Z" fill="#3E2967"/>
<path d="M43.83 55.9H70.29C71.31 55.9 72.11 55.04 72.04 54.02L70.53 26.22C70.53 24.92 66.95 21.66 62.54 21.66H52.07C45.77 21.66 44.08 25.56 44.08 30.37L42.08 53.98C41.98 55.01 42.79 55.9 43.83 55.9Z" fill="#A4B2D3"/>
<path d="M75.05 52.03C74.95 53.41 75.99 54.61 77.37 54.71C77.43 54.71 77.49 54.71 77.55 54.71C78.85 54.71 79.95 53.7 80.04 52.38C80.07 51.95 80.09 51.52 80.11 51.1H75.09C75.07 51.41 75.06 51.71 75.04 52.02L75.05 52.03Z" fill="#FADDDC"/>
<path d="M67.32 22.84C66.12 22.17 64.6 22.6 63.93 23.8C63.25 25 63.68 26.52 64.88 27.21C65.34 27.47 75.96 33.75 75.1 51.11H80.12C81.02 30.7 67.89 23.16 67.32 22.84Z" fill="#A4B2D3"/>
<path d="M62.7252 17.6209L53.1718 17.2656C51.9466 17.22 50.9164 18.1763 50.8709 19.4015L50.8694 19.4415C50.8238 20.6667 51.7801 21.6969 53.0053 21.7425L62.5587 22.0978C63.7839 22.1433 64.8141 21.187 64.8597 19.9618L64.8612 19.9218C64.9068 18.6966 63.9505 17.6664 62.7252 17.6209Z" fill="#A4B2D3"/>
<path d="M57.8 21.73L61.75 19.69C62.3 19.41 62.65 18.85 62.68 18.23C62.69 17.89 62.43 17.61 62.09 17.59L53.82 17.28C53.48 17.27 53.2 17.53 53.19 17.87C53.17 18.49 53.48 19.07 54.01 19.39L57.81 21.72L57.8 21.73Z" fill="#3E2967"/>
<path d="M60.18 20.55L60.71 6.12001L53.34 5.85001C51.97 5.80001 50.82 6.87001 50.77 8.23001L50.59 14.21C50.51 16.43 52.24 18.29 54.45 18.37H54.56C55.04 18.39 55.42 18.8 55.41 19.28L55.37 20.32L57.77 21.79L60.18 20.54V20.55Z" fill="#FADDDC"/>
<path d="M53.58 15.77L52.99 15.75C52.46 15.73 52.04 15.28 52.06 14.75L52.17 11.84C52.17 11.62 52.37 11.44 52.59 11.45C52.81 11.46 52.99 11.65 52.98 11.87L52.89 14.39C52.88 14.69 53.11 14.95 53.42 14.96H53.63C53.85 14.98 54.03 15.16 54.02 15.39C54.01 15.62 53.82 15.79 53.6 15.78L53.58 15.77Z" fill="#E0B1BB"/>
<path d="M54.93 22.2C55.1675 22.2 55.36 22.0075 55.36 21.77C55.36 21.5325 55.1675 21.34 54.93 21.34C54.6925 21.34 54.5 21.5325 54.5 21.77C54.5 22.0075 54.6925 22.2 54.93 22.2Z" fill="#F1EFEA"/>
<path d="M54.44 34.99C54.29 34.99 54.17 34.85 54.17 34.7L54.65 21.76C54.65 21.61 54.79 21.49 54.94 21.49C55.09 21.49 55.21 21.63 55.21 21.78L54.73 34.72C54.73 34.87 54.59 34.99 54.44 34.99Z" fill="white"/>
<path d="M59.85 22.38C60.0875 22.38 60.28 22.1875 60.28 21.95C60.28 21.7125 60.0875 21.52 59.85 21.52C59.6125 21.52 59.42 21.7125 59.42 21.95C59.42 22.1875 59.6125 22.38 59.85 22.38Z" fill="#F1EFEA"/>
<path d="M59.36 35.18C59.21 35.18 59.09 35.04 59.09 34.89L59.57 21.95C59.57 21.8 59.71 21.68 59.86 21.68C60.01 21.68 60.13 21.82 60.13 21.97L59.65 34.91C59.65 35.06 59.51 35.18 59.36 35.18Z" fill="white"/>
<path opacity="0.5" d="M55.62 13.65H54.5C53.79 13.65 53.22 13.07 53.22 12.37C53.22 11.66 53.8 11.09 54.5 11.09H55.62C56.33 11.09 56.9 11.67 56.9 12.37C56.9 13.08 56.32 13.65 55.62 13.65Z" fill="white"/>
<path opacity="0.5" d="M50.61 13.65H50.26C49.55 13.65 48.98 13.07 48.98 12.37C48.98 11.66 49.56 11.09 50.26 11.09H50.61C51.32 11.09 51.89 11.67 51.89 12.37C51.89 13.08 51.31 13.65 50.61 13.65Z" fill="white"/>
<path d="M55.91 10.31H54.21C53.65 10.31 53.16 10.65 52.95 11.13H52.16C51.95 10.65 51.46 10.31 50.9 10.31H49.97C49.21 10.31 48.59 10.93 48.59 11.69V12.27C48.59 13.03 49.21 13.65 49.97 13.65H50.9C51.66 13.65 52.28 13.03 52.28 12.27V11.91H52.83V12.27C52.83 13.03 53.45 13.65 54.21 13.65H55.91C56.67 13.65 57.29 13.03 57.29 12.27V11.69C57.29 10.93 56.67 10.31 55.91 10.31ZM51.51 12.27C51.51 12.6 51.24 12.88 50.9 12.88H49.97C49.64 12.88 49.36 12.61 49.36 12.27V11.69C49.36 11.36 49.63 11.08 49.97 11.08H50.9C51.23 11.08 51.51 11.35 51.51 11.69V12.27ZM56.52 12.27C56.52 12.6 56.25 12.88 55.91 12.88H54.21C53.88 12.88 53.6 12.61 53.6 12.27V11.69C53.6 11.36 53.87 11.08 54.21 11.08H55.91C56.24 11.08 56.52 11.35 56.52 11.69V12.27Z" fill="#9C9E9F"/>
<path d="M62.11 8.71C62.26 7.23 61.76 5.74 60.71 4.7C59.37 3.38 57.34 2.68 54.47 3.14C54.36 3.16 54.25 3.14 54.14 3.14C50.87 3.14 49.67 5.85 49.69 7.48C49.71 9.71 50.84 10.32 50.84 10.32C50.84 10.32 50.89 10.32 50.9 10.32C52.69 10.32 52.38 6.36 52.98 6.36C53.58 6.36 52.64 10.14 58 10.38C58.35 10.4 58.62 10.67 58.62 11.02V12.17C58.62 12.38 58.79 12.55 59 12.55C59.21 12.55 59.38 12.38 59.38 12.17V10.96C59.38 10.66 59.6 10.39 59.9 10.37C60.22 10.35 60.48 10.61 60.48 10.92L60.38 14.91V14.93C60.77 14.32 61.85 11.26 62.11 8.72V8.71Z" fill="#3E2967"/>
</g>
<defs>
<clipPath id="clip0_1204_6547">
<rect width="58.17" height="103.7" fill="white" transform="translate(22 3)"/>
</clipPath>
</defs>
</svg>
