<svg width="110" height="110" viewBox="0 0 110 110" fill="none" xmlns="http://www.w3.org/2000/svg">
<g clip-path="url(#clip0_1206_2820)">
<path d="M89.9201 24.18C91.3901 23.54 93.1001 24.22 93.7401 25.69C94.2601 26.9 93.9001 28.27 92.9401 29.07C92.7301 29.24 92.4901 29.39 92.2301 29.51C91.5901 29.79 90.9501 30.03 90.3201 30.26L88.9301 24.58C89.2601 24.45 89.5901 24.32 89.9201 24.18Z" fill="#F4D3D3"/>
<path d="M57.01 21.34C57.92 20.02 59.73 19.7 61.05 20.61C61.19 20.71 74.84 29.97 88.92 24.58L90.31 30.26C73.6 36.24 58.39 25.84 57.73 25.38C56.42 24.46 56.1 22.66 57.01 21.34Z" fill="#2E423A"/>
<path d="M49.75 57.57H64.06L65.48 102.39L62.95 102.57C62.95 103.25 63.35 104.53 63.81 104.89C64.35 105.32 65.78 105.8 66.3 106.27C66.91 106.83 66.59 108.05 65.83 108.05H62.75H61.96C61.26 108.05 60.65 107.45 60.48 106.59L60.41 102.81L58.88 102.77C57.69 96.5 56.48 86.53 55.43 80.14C54.69 75.66 54.08 69.8 53.42 65.34C53.27 64.36 52.56 63.65 51.73 63.65H50.22C49.38 63.65 48.67 64.36 48.53 65.34C47.87 69.8 45.27 94.48 43.87 101.58C43.79 101.98 42.18 101.45 42.1 101.86C41.85 103.14 42.28 104.46 43.16 105.18C43.59 105.53 44 105.89 44.41 106.27C45.03 106.83 44.71 108.06 43.95 108.06H40.87L38.87 107.29C36.89 105.81 39.36 104.65 38.43 101.85L36.78 101.3L37.72 65.04V57.55H49.76L49.75 57.57Z" fill="#3E2967"/>
<path d="M36.05 58.98H65.52L65.51 28.11C65.51 23.19 61.52 19.21 56.61 19.21H44.94C40.02 19.21 36.04 23.2 36.04 28.11L36.06 58.98H36.05Z" fill="#4D6059"/>
<path d="M26.29 51.01C26.08 52.6 24.62 53.72 23.03 53.51C22.96 53.51 22.89 53.49 22.82 53.48C21.34 53.18 20.32 51.78 20.52 50.26C20.59 49.76 20.66 49.27 20.74 48.79L26.45 49.96C26.4 50.31 26.34 50.66 26.29 51.02V51.01Z" fill="#F4D3D3"/>
<path d="M41.86 19.62C43.38 19.14 45 19.98 45.49 21.5C45.98 23.02 45.14 24.65 43.62 25.15C43.04 25.34 29.51 30.02 26.45 49.95L20.74 48.78C24.45 25.37 41.13 19.84 41.86 19.61V19.62Z" fill="#4D6059"/>
<path d="M53.17 23.83H52.79V58.86H53.17V23.83Z" fill="#2E423A"/>
<path d="M56.4301 30.32H62.5701V35.81C62.5701 36.8 61.7601 37.61 60.7701 37.61H58.2401C57.2501 37.61 56.4401 36.8 56.4401 35.81V30.32H56.4301Z" fill="#2E423A"/>
<path d="M54.5601 19.2L52.5801 24.8L48.3101 19.2H54.5601Z" fill="#F4D3D3"/>
<path d="M48.3101 19.2L52.5801 24.8L48.3501 26.01L48.3101 19.2Z" fill="#2E423A"/>
<path d="M54.59 19.18L57.02 25.67L52.58 24.8L54.59 19.18Z" fill="#2E423A"/>
<path d="M47.91 6.79L58.09 5.72L58.92 13.67C59.11 15.46 57.81 17.06 56.02 17.24L54.99 17.35C54.49 17.4 54.18 18.33 54.23 18.83L54.26 19.13C54.4 20.5 53.41 21.74 52.03 21.88C50.66 22.02 49.43 21.03 49.28 19.66L47.89 6.78L47.91 6.79Z" fill="#F4D3D3"/>
<path d="M55.69 14.32L56.3 14.26C56.85 14.2 57.25 13.71 57.19 13.16L56.87 10.15C56.85 9.92 56.64 9.75 56.41 9.78C56.18 9.81 56.01 10.01 56.04 10.24L56.31 12.85C56.34 13.16 56.12 13.44 55.8 13.48L55.59 13.5C55.36 13.52 55.19 13.73 55.22 13.96C55.25 14.19 55.45 14.36 55.68 14.33L55.69 14.32Z" fill="#E0B1BB"/>
<path d="M52.9901 10.65C53.0201 10.96 53.3001 11.18 53.6001 11.15C53.9001 11.12 54.1301 10.84 54.1001 10.54C54.0701 10.24 53.7901 10.01 53.4901 10.04C53.1901 10.07 52.9601 10.35 52.9901 10.65Z" fill="#757570"/>
<path d="M52.36 7.61C52.36 7.61 52.27 7.63 52.12 7.66C52.2 7.64 52.27 7.62 52.36 7.61Z" fill="#3E2967"/>
<path d="M48.39 11.09C48.44 10.79 48.68 10.55 48.99 10.52H49.07C49.45 10.47 49.78 10.74 49.82 11.12L49.88 11.69V11.67L49.94 12.15C49.96 12.35 50.14 12.49 50.34 12.47C50.54 12.45 50.68 12.27 50.66 12.07L50.5 10.52C50.44 9.92 50.53 9.3 50.81 8.77C51.05 8.3 51.44 7.84 52.07 7.66C51.15 7.86 48.37 8.69 48.39 11.08V11.09Z" fill="#674E99"/>
<path d="M50.72 2.14C49.14 2.45 47.9 3.59 47.75 5.14C47.75 5.14 45.79 6.12 46.01 8.23C46.18 9.83 46.66 10.74 47.46 11.03L48.48 14.04C48.49 14.18 48.59 14.26 48.7 14.28L48.4 11.39V11.27C48.38 11.21 48.39 11.15 48.4 11.09C48.38 8.69 51.18 7.87 52.09 7.66L52.18 7.64C52.18 7.64 54.78 7.57 57.14 7.62C57.97 7.44 58.75 7.1 59.12 6.08C59.59 5.31 59.03 0.479999 50.73 2.13L50.72 2.14Z" fill="#3E2967"/>
</g>
<defs>
<clipPath id="clip0_1206_2820">
<rect width="73.48" height="106.27" fill="white" transform="translate(20.5 1.8)"/>
</clipPath>
</defs>
</svg>
