<svg width="110" height="110" viewBox="0 0 110 110" fill="none" xmlns="http://www.w3.org/2000/svg">
<g clip-path="url(#clip0_1206_2099)">
<path d="M44.6801 56.17L69.3401 56.28L64.1201 98.71C64.1201 98.71 61.5301 100.42 61.5201 100.48C61.3101 101.84 61.5201 102.99 63.5301 101.72C64.1101 101.35 64.5701 101.33 65.1001 101.81C65.7301 102.38 65.2501 104.04 64.6901 104.93L59.7401 108.87C59.1501 109.34 58.2801 109.39 57.7301 108.87C56.8801 108.09 57.1201 106.84 57.4801 105.83C58.8501 101.91 58.4301 101.46 58.4301 101.46L57.6601 101.72C57.1601 101.89 56.6601 101.5 56.7001 100.98C57.1001 95.83 58.1201 69.39 58.3001 64.64C58.3201 64.24 58.0001 63.9 57.6001 63.89L56.5401 63.87C56.2201 63.87 55.9101 64.09 55.9101 64.41C55.8801 70.77 55.8001 80.74 55.7101 80.74C55.7101 80.74 55.2401 84.99 54.9901 85.96C54.6401 87.34 53.2201 87.15 52.7301 86.12C52.3101 85.23 52.1901 82.51 52.1101 81.8H49.9301L44.6801 56.16V56.17Z" fill="#3E2967"/>
<path d="M59.12 14.9H54.51V18.25H59.12V14.9Z" fill="#FADDDC"/>
<path d="M62.02 11.26H61.46V8.70999C61.46 8.29999 61.79 7.95999 62.21 7.95999H62.51C62.92 7.95999 63.26 8.28999 63.26 8.70999L62.91 10.38C62.91 10.87 62.52 11.26 62.03 11.26H62.02Z" fill="#FADDDC"/>
<path d="M50.9 11.26H51.46V8.70999C51.46 8.29999 51.13 7.95999 50.71 7.95999H50.41C50 7.95999 49.66 8.28999 49.66 8.70999L50.01 10.38C50.01 10.87 50.4 11.26 50.89 11.26H50.9Z" fill="#FADDDC"/>
<path d="M57.82 1.21C56.44 0.939996 54.32 0.639996 52.8 2.25C51.28 3.86 50.54 4.91 50.54 6.36C50.54 7.81 50.64 9.04 50.89 10.02C51.14 11 52.19 14.28 54.22 15.59C55.19 16.22 57.78 16.6 59.08 15.59C60.38 14.58 61.51 13.26 61.83 11.18C62.15 9.1 62.17 8.72 62.52 7.74C62.87 6.76 62.3 4.62 62.17 4.08C62.04 3.54 60.44 1.71 57.82 1.21Z" fill="#3E2967"/>
<path d="M38.53 58.02C38.87 59.86 37.59 61.69 35.68 62.1C34.11 62.44 32.59 61.71 31.91 60.42C31.76 60.14 31.65 59.83 31.59 59.5C31.44 58.7 31.33 57.91 31.24 57.13L38.34 56.78C38.4 57.19 38.46 57.6 38.54 58.02H38.53Z" fill="#FADDDC"/>
<path d="M51.08 20.61C52.38 21.96 52.26 24.12 50.81 25.44C50.66 25.58 35.9 39.32 38.33 56.78L31.23 57.13C28.85 36.5 45.38 21.21 46.11 20.55C47.56 19.23 49.78 19.26 51.08 20.61Z" fill="#4D6059"/>
<path d="M72.72 43.23C72.61 44.46 73.78 45.52 75.32 45.61C75.39 45.61 75.46 45.61 75.52 45.61C76.98 45.61 78.22 44.71 78.32 43.54C78.35 43.15 78.38 42.78 78.4 42.4H72.76C72.74 42.67 72.73 42.94 72.71 43.22L72.72 43.23Z" fill="#FADDDC"/>
<path d="M66.12 19.23C64.77 18.63 63.07 19.02 62.31 20.09C61.55 21.16 62.03 22.52 63.37 23.12C63.89 23.35 73.73 26.96 72.77 42.41H78.41C79.42 24.24 66.76 19.51 66.12 19.23Z" fill="#4D6059"/>
<path d="M70.84 57.32H43.33L43.34 27.42C43.34 22.28 47.51 18.11 52.65 18.11H61.54C66.68 18.11 70.85 22.28 70.85 27.42L70.83 57.32H70.84Z" fill="#4D6059"/>
<path d="M60.4599 17.27H53.6899V18.3H60.4599V17.27Z" fill="#2E423A"/>
</g>
<defs>
<clipPath id="clip0_1206_2099">
<rect width="47.46" height="108.24" fill="white" transform="translate(31 1)"/>
</clipPath>
</defs>
</svg>
