<svg width="58" height="107" viewBox="0 0 58 107" fill="none" xmlns="http://www.w3.org/2000/svg">
<g clip-path="url(#clip0_134_721)">
<path d="M5.77002 55.0601H32.5L24.76 101.34C24.67 102.21 24.29 103.23 25.24 104C25.77 104.43 26.33 104.82 26.86 105.25C27.48 105.76 27.16 106.89 26.39 106.89L21.4 105.87C19.16 105.4 19.47 103.82 19.91 102.6C20.2 101.79 20.38 100.95 20.41 100.09C20.6 94.7101 19.91 62.6601 19.91 62.6601H18.38C18.38 62.6601 15.06 93.5701 14.81 94.4501C14.46 95.7001 13.05 95.5201 12.56 94.5901C12.14 93.7901 11.72 90.5201 11.64 89.8801H10.24L5.77002 55.0601Z" fill="#3E2967"/>
<path d="M55.1901 40.42C56.7801 40.65 57.8701 42.13 57.6401 43.72C57.4501 45.02 56.4201 46 55.1701 46.17C54.9001 46.21 54.6201 46.21 54.3401 46.17C53.6501 46.07 52.9801 45.94 52.3201 45.8L54.1301 40.24C54.4801 40.31 54.8301 40.37 55.1901 40.42Z" fill="#F4D3D3"/>
<path d="M28.71 20.68C30.18 20.04 31.89 20.72 32.53 22.19C32.6 22.35 39.32 37.41 54.13 40.24L52.32 45.8C34.97 42.08 27.52 25.23 27.2 24.49C26.57 23.02 27.24 21.31 28.72 20.68H28.71Z" fill="#2E423A"/>
<path d="M4.76 55.14H34.23L34.22 26.17C34.22 21.25 30.23 17.27 25.32 17.27H13.65C8.73 17.27 4.75 21.26 4.75 26.17L4.77 55.14H4.76Z" fill="#4D6059"/>
<path d="M8.75006 55.1301C9.34006 56.6201 8.61006 58.3101 7.11006 58.9001C7.04006 58.9301 6.98006 58.9501 6.91006 58.9701C5.47006 59.4201 3.90006 58.6901 3.34006 57.2601C3.15006 56.7901 2.98006 56.3301 2.81006 55.8701L8.37006 54.1201C8.49006 54.4501 8.61006 54.7901 8.74006 55.1301H8.75006Z" fill="#F4D3D3"/>
<path d="M7.14005 20.12C8.24005 18.96 10.06 18.91 11.23 20.01C12.4 21.1 12.45 22.94 11.37 24.11C10.95 24.56 1.38005 35.21 8.37005 54.12L2.81005 55.87C-5.28995 33.6 6.62005 20.67 7.14005 20.12Z" fill="#4D6059"/>
<path d="M21.88 21.88H21.5V52.24H21.88V21.88Z" fill="#2E423A"/>
<path d="M25.13 28.37H31.27V33.86C31.27 34.85 30.46 35.66 29.47 35.66H26.94C25.95 35.66 25.14 34.85 25.14 33.86V28.37H25.13Z" fill="#2E423A"/>
<path d="M23.27 17.26L21.28 22.85L17.01 17.26H23.27Z" fill="#F4D3D3"/>
<path d="M17.01 17.26L21.28 22.85L17.06 24.06L17.01 17.26Z" fill="#2E423A"/>
<path d="M23.29 17.23L25.72 23.72L21.28 22.85L23.29 17.23Z" fill="#2E423A"/>
<path d="M17.6801 4.42004H27.9201V12.42C27.9201 14.22 26.4601 15.67 24.6701 15.67H23.6401C23.1401 15.67 22.7301 16.56 22.7301 17.07V17.38C22.7301 18.76 21.6101 19.88 20.2301 19.88C18.8501 19.88 17.7301 18.76 17.7301 17.38L17.7001 4.42004H17.6801Z" fill="#F4D3D3"/>
<path d="M24.6299 12.71H25.25C25.8 12.71 26.25 12.26 26.25 11.71V8.68001C26.25 8.45001 26.06 8.26001 25.83 8.26001C25.6 8.26001 25.41 8.45001 25.41 8.68001V11.3C25.41 11.61 25.16 11.87 24.84 11.87H24.62C24.39 11.87 24.2 12.06 24.2 12.29C24.2 12.52 24.39 12.71 24.62 12.71H24.6299Z" fill="#E0B1BB"/>
<path d="M22.3199 8.77997C22.3199 9.08997 22.5699 9.33997 22.8799 9.33997C23.1899 9.33997 23.4399 9.08997 23.4399 8.77997C23.4399 8.46997 23.1899 8.21997 22.8799 8.21997C22.5699 8.21997 22.3199 8.46997 22.3199 8.77997Z" fill="#757570"/>
<path d="M22.02 5.68994C22.02 5.68994 21.93 5.68994 21.78 5.70994C21.86 5.69994 21.94 5.68994 22.02 5.68994Z" fill="#3E2967"/>
<path d="M17.6999 8.73996C17.7799 8.44996 18.0399 8.22996 18.3599 8.22996H18.4399C18.8199 8.22996 19.1199 8.53996 19.1199 8.90996V9.48996V9.46996L19.1299 9.94996C19.1299 10.15 19.2899 10.31 19.4899 10.31C19.6899 10.31 19.8499 10.15 19.8499 9.94996V8.38996C19.8499 7.77996 19.9999 7.17996 20.3399 6.67996C20.6299 6.23996 21.0699 5.81996 21.7099 5.70996C20.7799 5.81996 17.9199 6.34996 17.6899 8.72996L17.6999 8.73996Z" fill="#674E99"/>
<path d="M20.95 0.0799528C19.34 0.229953 17.99 1.22995 17.68 2.74995C17.68 2.74995 15.63 3.51995 15.63 5.63995C15.63 7.24995 16.02 8.20995 16.78 8.57995L17.48 11.68C17.48 11.82 17.57 11.91 17.67 11.94V8.90995C17.67 8.84995 17.68 8.78995 17.7 8.72995C17.93 6.33995 20.8 5.80995 21.72 5.70995H21.82C21.82 5.70995 24.41 5.90995 26.75 6.19995C27.59 6.10995 28.4 5.84995 28.88 4.87995C29.43 4.15995 29.38 -0.700047 20.95 0.0799528Z" fill="#3E2967"/>
</g>
<defs>
<clipPath id="clip0_134_721">
<rect width="57.67" height="106.89" fill="white"/>
</clipPath>
</defs>
</svg>
