<svg width="110" height="110" viewBox="0 0 110 110" fill="none" xmlns="http://www.w3.org/2000/svg">
<g clip-path="url(#clip0_1206_1889)">
<path d="M57.1 57.64L45.13 57.17L38.54 79.59L26.01 97.55L28.34 99.44C28.06 99.95 27.57 100.78 27.1 101.1C26.41 101.57 25.51 102.44 26.32 103.49L31.28 107.39C32 107.7 32.77 106.63 32.41 105.82C32.17 105.29 31.35 104.09 31.08 103.57C30.53 102.51 31.19 101.7 31.91 100.55C36.24 93.67 46.35 83.13 46.35 83.13L57.09 57.63L57.1 57.64Z" fill="#291B4C"/>
<path d="M60.03 56.08L40.37 56.89L61.83 81.99L69.21 104.67L71.99 104.27L72.89 106.07C73.82 108.09 73.94 108.95 75.48 108.16L79.31 106.64C80.01 106.29 79.9 105.26 79.08 105.01C78.54 104.84 77.71 104.82 77.15 104.79C75.07 104.69 75.35 103.22 75.02 101.88C73.02 93.89 72.12 87.47 69.85 79.4C68.56 74.78 60.01 56.09 60.01 56.09L60.03 56.08Z" fill="#3F3072"/>
<path d="M81.01 43.8C82.6 44.21 83.56 45.83 83.15 47.42C82.81 48.73 81.66 49.61 80.38 49.65C80.1 49.65 79.82 49.63 79.53 49.56C78.84 49.38 78.17 49.18 77.51 48.97L79.95 43.5C80.3 43.61 80.65 43.71 81.01 43.8Z" fill="#FADDDC"/>
<path d="M56.1899 20.85C57.7599 20.36 59.4199 21.23 59.9199 22.8C59.9699 22.97 65.1999 39.03 79.9699 43.5L77.5299 48.97C60.2599 43.32 54.4899 25.36 54.2499 24.57C53.7599 23 54.6399 21.34 56.1999 20.85H56.1899Z" fill="#2E423A"/>
<path d="M62.69 58.94L39.3 58.7L41.8 33.6C41.8 29.44 39.08 25.35 51.1 19.63H55.4501C56.5001 19.63 57.27 19.91 58.17 20.62C59.07 21.33 59.73 22.24 60.26 23.24C67.42 36.85 62.7001 58.94 62.7001 58.94H62.69Z" fill="#4D6059"/>
<path d="M36.45 55.98C36.67 57.61 35.52 59.1 33.89 59.32C32.55 59.5 31.3 58.76 30.78 57.58C30.67 57.33 30.59 57.05 30.55 56.76C30.46 56.05 30.39 55.36 30.34 54.67L36.32 54.89C36.35 55.25 36.39 55.62 36.44 55.98H36.45Z" fill="#FADDDC"/>
<path d="M48.4399 24.37C49.4799 25.64 49.2899 27.51 48.0299 28.55C47.8999 28.66 34.9499 39.51 36.3299 54.88L30.3499 54.66C29.1299 36.54 43.6299 24.47 44.2699 23.94C45.5399 22.9 47.4099 23.09 48.4499 24.36L48.4399 24.37Z" fill="#4D6059"/>
<path d="M50.93 5.56H61.32V14.86C61.32 16.68 59.84 18.16 58.02 18.16H56.97C56.46 18.16 56.04 18.57 56.04 19.09V22.57L51.13 19.91L50.92 5.57L50.93 5.56Z" fill="#FADDDC"/>
<path d="M61 15.02L61.6 14.85C62.14 14.7 62.46 14.13 62.31 13.59L61.48 10.63C61.42 10.4 61.18 10.27 60.96 10.34C60.74 10.41 60.6 10.64 60.67 10.86L61.39 13.42C61.48 13.73 61.3 14.05 60.99 14.13L60.78 14.19C60.55 14.25 60.42 14.49 60.49 14.71C60.56 14.93 60.79 15.07 61.01 15L61 15.02Z" fill="#E0B1BB"/>
<path d="M59.5501 10.6C59.5501 10.91 59.3001 11.16 58.9901 11.16C58.6801 11.16 58.4301 10.91 58.4301 10.6C58.4301 10.29 58.6801 10.04 58.9901 10.04C59.3001 10.04 59.5501 10.29 59.5501 10.6Z" fill="#757570"/>
<path d="M61.4901 36.03L61.1901 36.16C60.4201 36.51 59.7801 36.04 59.7601 35.11L59.3101 30.5L62.4001 29.12L62.8501 33.73C62.8701 34.65 62.2601 35.68 61.4901 36.03Z" fill="#2E423A"/>
<path d="M50.45 18.93L56.04 22.27L52.4 24.91L48.65 20.58L50.45 18.93Z" fill="#2E423A"/>
<path d="M56.04 22.27L58.41 23.8L56.56 19.44L56.05 19.2L56.04 22.27Z" fill="#2E423A"/>
<path d="M57.19 58.3L56.8 58.22C60.77 39.83 55.9 22.5 55.85 22.32L56.23 22.21C56.28 22.38 61.17 39.81 57.18 58.3H57.19Z" fill="#2E423A"/>
<path d="M51.2799 15.25C51.2799 15.25 52.0699 13.45 52.0699 13.4V10.97C52.0699 10.44 52.4999 10.01 53.0299 10.01C53.5599 10.01 53.9899 10.44 53.9899 10.97V12.13V12.61C53.9899 12.81 54.1499 12.97 54.3499 12.97C54.5499 12.97 54.7099 12.81 54.7099 12.61V11.05C54.7099 10.44 54.5999 9.69 54.9299 9.19C55.2199 8.75 55.6399 8.15 56.4799 7.95C56.4999 7.95 56.5299 7.95 56.5499 7.94C54.5999 7.99 52.9299 9.1 52.0499 10.72C52.0499 10.72 51.7699 11.56 50.5699 12.2C50.7299 12.98 51.0099 15.36 51.1099 15.39L51.2799 15.24V15.25Z" fill="#674E99"/>
<path d="M62.78 6.88C62.31 7.85 61.5 8.11 60.66 8.2C59.54 8.07 58.39 7.94 57.47 7.86C57.12 7.87 56.81 7.9 56.56 7.95C54.61 8 52.94 9.11 52.06 10.72C52.06 10.72 51.77 11.56 50.58 12.2C50.56 12.13 50.55 12.07 50.54 12.03C50.54 12.03 49.37 11.52 49.26 10.3C49.15 9.08 49.54 8.71 49.54 7.64C49.54 5.52 51.59 4.75 51.59 4.75C51.89 3.22 53.25 2.22 54.85 2.08C63.28 1.3 63.34 6.16 62.78 6.88Z" fill="#3E2967"/>
</g>
<defs>
<clipPath id="clip0_1206_1889">
<rect width="57.25" height="106.44" fill="white" transform="translate(26 2)"/>
</clipPath>
</defs>
</svg>
