<svg width="110" height="110" viewBox="0 0 110 110" fill="none" xmlns="http://www.w3.org/2000/svg">
<g clip-path="url(#clip0_1206_2451)">
<path d="M60.83 58.37L44.5 58.47L62.06 81.98L69.44 104.66L72.22 104.26L73.12 106.06C74.05 108.08 74.17 108.94 75.71 108.15L79.54 106.63C80.24 106.28 80.13 105.25 79.31 105C78.77 104.83 77.94 104.81 77.38 104.78C75.3 104.68 75.58 103.21 75.25 101.87C73.25 93.88 72.35 87.46 70.08 79.39C68.79 74.77 60.81 58.37 60.81 58.37H60.83Z" fill="#291B4C"/>
<path d="M58.27 58.58L40.74 58.63L38.77 79.59L26.25 97.55L28.58 99.44C28.3 99.95 27.81 100.78 27.34 101.1C26.65 101.57 25.75 102.44 26.56 103.49L31.52 107.39C32.24 107.7 33.01 106.63 32.65 105.82C32.41 105.29 31.59 104.09 31.32 103.57C30.77 102.51 31.43 101.7 32.15 100.55C36.48 93.67 46.59 83.13 46.59 83.13L58.27 58.57V58.58Z" fill="#3F3072"/>
<path d="M31.8001 50.46C31.5001 52.07 29.9501 53.14 28.3301 52.84C27.0001 52.59 26.0501 51.5 25.9201 50.22C25.8901 49.94 25.9001 49.66 25.9601 49.37C26.0901 48.67 26.2401 47.99 26.4101 47.32L32.0301 49.39C31.9501 49.74 31.8701 50.1 31.8001 50.46Z" fill="#FADDDC"/>
<path d="M53.02 24.13C53.62 25.66 52.86 27.38 51.33 27.98C51.17 28.04 35.5 34.34 32.03 49.38L26.41 47.31C30.88 29.7 48.41 22.73 49.18 22.43C50.71 21.84 52.43 22.6 53.02 24.13Z" fill="#2E423A"/>
<path d="M62.93 58.94L39.54 58.7L42.04 33.6C42.04 29.44 39.32 25.35 51.34 19.63H55.69C56.74 19.63 57.51 19.91 58.41 20.62C59.31 21.33 59.97 22.24 60.5 23.24C67.66 36.85 62.94 58.94 62.94 58.94H62.93Z" fill="#4D6059"/>
<path d="M51.16 5.56H61.55V14.86C61.55 16.68 60.07 18.16 58.25 18.16H57.2C56.69 18.16 56.27 18.57 56.27 19.09V22.57L51.36 19.91L51.15 5.57L51.16 5.56Z" fill="#FADDDC"/>
<path d="M61.24 15.02L61.84 14.85C62.38 14.7 62.7 14.13 62.55 13.59L61.72 10.63C61.66 10.4 61.42 10.27 61.2 10.34C60.98 10.41 60.84 10.64 60.91 10.86L61.63 13.42C61.72 13.73 61.54 14.05 61.23 14.13L61.02 14.19C60.79 14.25 60.66 14.49 60.73 14.71C60.8 14.93 61.03 15.07 61.25 15L61.24 15.02Z" fill="#E0B1BB"/>
<path d="M59.78 10.6C59.78 10.91 59.53 11.16 59.22 11.16C58.91 11.16 58.66 10.91 58.66 10.6C58.66 10.29 58.91 10.04 59.22 10.04C59.53 10.04 59.78 10.29 59.78 10.6Z" fill="#757570"/>
<path d="M61.73 36.03L61.43 36.16C60.66 36.51 60.02 36.04 60 35.11L59.55 30.5L62.64 29.12L63.09 33.73C63.11 34.65 62.5 35.68 61.73 36.03Z" fill="#2E423A"/>
<path d="M50.69 18.93L56.28 22.27L52.64 24.91L48.89 20.58L50.69 18.93Z" fill="#2E423A"/>
<path d="M56.28 22.27L58.64 23.8L56.79 19.44L56.28 19.2V22.27Z" fill="#2E423A"/>
<path d="M57.4201 58.3L57.0301 58.22C61.0001 39.83 56.1301 22.5 56.0801 22.32L56.4601 22.21C56.5101 22.38 61.4001 39.81 57.4101 58.3H57.4201Z" fill="#2E423A"/>
<path d="M51.51 15.25C51.51 15.25 52.3 13.45 52.3 13.4V10.97C52.3 10.44 52.73 10.01 53.26 10.01C53.79 10.01 54.22 10.44 54.22 10.97V12.13V12.61C54.22 12.81 54.38 12.97 54.58 12.97C54.78 12.97 54.9401 12.81 54.9401 12.61V11.05C54.9401 10.44 54.83 9.69 55.16 9.19C55.45 8.75 55.87 8.15 56.71 7.95C56.73 7.95 56.76 7.95 56.78 7.94C54.83 7.99 53.16 9.1 52.28 10.72C52.28 10.72 52 11.56 50.8 12.2C50.96 12.98 51.24 15.36 51.34 15.39L51.51 15.24V15.25Z" fill="#674E99"/>
<path d="M63.01 6.88C62.54 7.85 61.73 8.11 60.89 8.2C59.77 8.07 58.62 7.94 57.7 7.86C57.35 7.87 57.04 7.9 56.79 7.95C54.84 8 53.17 9.11 52.29 10.72C52.29 10.72 52 11.56 50.81 12.2C50.79 12.13 50.78 12.07 50.77 12.03C50.77 12.03 49.6 11.52 49.49 10.3C49.38 9.08 49.77 8.71 49.77 7.64C49.77 5.52 51.82 4.75 51.82 4.75C52.12 3.22 53.48 2.22 55.08 2.08C63.51 1.3 63.57 6.16 63.01 6.88Z" fill="#3E2967"/>
<path d="M45.44 31.95C45.13 32.3 53.78 48.91 74.9 48.01Z" fill="#2E423A"/>
<path d="M76.61 42C78.25 41.89 79.67 43.13 79.77 44.77C79.86 46.12 79.04 47.31 77.83 47.76C77.57 47.86 77.29 47.92 77 47.94C76.29 47.99 75.59 48.01 74.9 48.01L75.51 42.05C75.87 42.05 76.24 42.03 76.61 42Z" fill="#FADDDC"/>
<path d="M45.8601 27.95C47.1901 27 49.0501 27.3 50.0101 28.64C50.1101 28.78 60.0901 42.41 75.5101 42.06L74.9001 48.02C56.7301 48.04 45.6501 32.78 45.1701 32.1C44.2201 30.76 44.5301 28.91 45.8601 27.96V27.95Z" fill="#4D6059"/>
</g>
<defs>
<clipPath id="clip0_1206_2451">
<rect width="54.12" height="106.44" fill="white" transform="translate(25.9 2)"/>
</clipPath>
</defs>
</svg>
