<svg width="45" height="106" viewBox="0 0 45 106" fill="none" xmlns="http://www.w3.org/2000/svg">
<g clip-path="url(#clip0_134_817)">
<path d="M24.87 13.9H20.26V17.25H24.87V13.9Z" fill="#FADDDC"/>
<path d="M27.77 10.26H27.21V7.70996C27.21 7.29996 27.54 6.95996 27.96 6.95996H28.26C28.67 6.95996 29.01 7.28996 29.01 7.70996L28.66 9.37996C28.66 9.86996 28.27 10.26 27.78 10.26H27.77Z" fill="#FADDDC"/>
<path d="M16.6499 10.26H17.2099V7.70996C17.2099 7.29996 16.8799 6.95996 16.4599 6.95996H16.1599C15.7499 6.95996 15.4099 7.28996 15.4099 7.70996L15.7599 9.37996C15.7599 9.86996 16.1499 10.26 16.6399 10.26H16.6499Z" fill="#FADDDC"/>
<path d="M23.57 0.209996C22.19 -0.0600036 20.07 -0.360004 18.55 1.25C17.03 2.86 16.29 3.91 16.29 5.36C16.29 6.81 16.39 8.04 16.64 9.02C16.89 10 17.94 13.28 19.97 14.59C20.94 15.22 23.53 15.6 24.83 14.59C26.13 13.58 27.26 12.26 27.58 10.18C27.9 8.1 27.92 7.72 28.27 6.74C28.62 5.76 28.05 3.62 27.92 3.08C27.79 2.54 26.19 0.709996 23.57 0.209996Z" fill="#3E2967"/>
<path d="M6.59003 52.4101C6.91003 54.0601 5.84003 55.6601 4.20003 55.9801C2.85003 56.2501 1.53003 55.5701 0.920029 54.4101C0.790029 54.1601 0.690029 53.8801 0.630029 53.5901C0.490029 52.8801 0.380029 52.1701 0.280029 51.4701L6.40003 51.3101C6.46003 51.6801 6.52003 52.0501 6.59003 52.4201V52.4101Z" fill="#FADDDC"/>
<path d="M16.7801 19.4C17.9201 20.63 17.8501 22.55 16.6301 23.69C16.5001 23.81 4.00007 35.71 6.39007 51.3L0.270069 51.46C-2.13993 33.06 11.8601 19.81 12.4801 19.24C13.7101 18.1 15.6301 18.17 16.7701 19.4H16.7801Z" fill="#4D6059"/>
<path d="M38.5901 48.9201C38.4801 50.4901 39.6601 51.8501 41.2201 51.9601C41.2901 51.9601 41.3601 51.9601 41.4301 51.9601C42.9101 51.9601 44.1601 50.8201 44.2601 49.3201C44.3001 48.8301 44.3201 48.3401 44.3401 47.8601H38.6401C38.6201 48.2101 38.6101 48.5501 38.5901 48.9101V48.9201Z" fill="#FADDDC"/>
<path d="M31.91 18.31C30.54 17.55 28.83 18.04 28.06 19.4C27.29 20.76 27.78 22.49 29.14 23.27C29.66 23.57 39.62 28.16 38.65 47.87H44.35C45.38 24.69 32.57 18.66 31.92 18.3L31.91 18.31Z" fill="#4D6059"/>
<path d="M36.5901 51.41H9.08008L9.09008 26.41C9.09008 21.27 13.2601 17.1 18.4001 17.1H27.2901C32.4301 17.1 36.6001 21.27 36.6001 26.41L36.5801 51.41H36.5901Z" fill="#4D6059"/>
<path d="M36.5901 51.4099H9.08008C9.08008 51.4099 17.3301 98.4699 15.9601 97.8999C15.3101 97.6299 14.9001 97.4999 14.3601 97.9899C13.7201 98.5699 14.2101 100.27 14.7801 101.18L20.6101 105.82C22.9101 105.29 22.6001 103.49 22.1501 102.11C21.8501 101.2 21.6701 100.24 21.6301 99.2699C21.4401 93.1699 20.4901 65.9299 20.3301 61.3999C20.2901 60.3599 21.1701 59.2399 22.0401 59.2399H23.6201C24.4901 59.2399 25.2401 59.9899 25.3901 61.0099C26.0801 65.6599 25.1701 69.1599 24.9201 83.2699C24.9201 83.2699 25.0701 87.4499 25.3201 88.4499C25.6801 89.8699 27.1301 89.6599 27.6301 88.6099C28.0601 87.6999 28.5001 83.9899 28.5801 83.2699H30.0201L36.5901 51.4199V51.4099Z" fill="#3E2967"/>
<path d="M26.2099 16.27H19.4399V17.3H26.2099V16.27Z" fill="#2E423A"/>
</g>
<defs>
<clipPath id="clip0_134_817">
<rect width="44.4" height="105.82" fill="white"/>
</clipPath>
</defs>
</svg>
