<svg width="110" height="110" viewBox="0 0 110 110" fill="none" xmlns="http://www.w3.org/2000/svg">
<g clip-path="url(#clip0_1206_2234)">
<path d="M40.09 57.11H66.82L61.79 103.57L58.46 103.1C58.37 103.97 58.61 105.28 59.56 106.05C60.09 106.48 60.65 106.87 61.18 107.3C61.8 107.81 61.48 108.94 60.71 108.94L55.72 107.92C53.48 107.45 53.79 105.87 54.23 104.65C54.52 103.84 54.99 102.44 54.99 102.44L53.94 102.14L54.22 64.71H52.69C52.69 64.71 49.86 85.22 49.61 86.09C49.26 87.34 47.85 87.16 47.36 86.23C46.94 85.43 46.52 82.16 46.44 81.52L44.74 81.17C43.17 80.85 41.99 79.53 41.86 77.93L40.08 57.11H40.09Z" fill="#3E2967"/>
<path d="M73.98 57.02C75.05 58.21 74.95 60.05 73.76 61.12C72.78 62 71.36 62.09 70.3 61.43C70.07 61.29 69.85 61.11 69.66 60.9C69.19 60.38 68.76 59.86 68.34 59.33L73.28 56.2C73.51 56.47 73.74 56.75 73.98 57.01V57.02Z" fill="#F4D3D3"/>
<path d="M66.2 24.92C67.74 25.37 68.62 26.98 68.18 28.52C68.13 28.68 63.69 44.57 73.28 56.2L68.34 59.33C57.35 45.4 62.38 27.66 62.61 26.89C63.06 25.35 64.67 24.47 66.21 24.92H66.2Z" fill="#2E423A"/>
<path d="M39.0799 58.77H68.5499L68.5399 28.22C68.5399 23.3 64.5499 19.32 59.6399 19.32H47.9699C43.0499 19.32 39.0699 23.31 39.0699 28.22L39.0899 58.77H39.0799Z" fill="#4D6059"/>
<path d="M38.6401 58.62C39.0201 60.32 37.9001 62 36.1301 62.39C36.0501 62.41 35.9801 62.42 35.9001 62.43C34.2201 62.67 32.6201 61.63 32.2601 60C32.1401 59.47 32.0401 58.94 31.9301 58.42L38.4001 57.48C38.4801 57.86 38.5401 58.23 38.6301 58.62H38.6401Z" fill="#F4D3D3"/>
<path d="M43.32 20.83C44.75 19.77 46.78 20.03 47.87 21.39C48.96 22.76 48.68 24.73 47.27 25.81C46.72 26.22 34.17 36.03 38.42 57.48L31.95 58.42C27.08 33.18 42.64 21.33 43.32 20.83Z" fill="#4D6059"/>
<path d="M56.1999 23.94H55.8199V54.3H56.1999V23.94Z" fill="#2E423A"/>
<path d="M59.45 30.43H65.59V35.92C65.59 36.91 64.78 37.72 63.79 37.72H61.26C60.27 37.72 59.4599 36.91 59.4599 35.92V30.43H59.45Z" fill="#2E423A"/>
<path d="M57.59 19.31L55.6 24.91L51.33 19.31H57.59Z" fill="#F4D3D3"/>
<path d="M51.33 19.31L55.6 24.91L51.38 26.12L51.33 19.31Z" fill="#2E423A"/>
<path d="M57.61 19.29L60.04 25.78L55.6 24.91L57.61 19.29Z" fill="#2E423A"/>
<path d="M50.78 6.99999L60.96 5.92999L61.8 13.88C61.99 15.67 60.69 17.27 58.91 17.46L57.88 17.57C57.38 17.62 57.07 18.55 57.12 19.06L57.15 19.36C57.3 20.73 56.3 21.97 54.92 22.11C53.55 22.25 52.32 21.26 52.17 19.89L50.78 7.00999V6.99999Z" fill="#F4D3D3"/>
<path d="M58.57 14.52L59.18 14.46C59.73 14.4 60.13 13.91 60.07 13.36L59.75 10.35C59.73 10.12 59.52 9.95 59.29 9.98C59.06 10.01 58.89 10.21 58.92 10.44L59.2 13.05C59.23 13.36 59.01 13.64 58.69 13.68L58.48 13.7C58.25 13.72 58.08 13.93 58.11 14.16C58.14 14.39 58.34 14.56 58.57 14.53V14.52Z" fill="#E0B1BB"/>
<path d="M55.8601 10.85C55.8901 11.16 56.1701 11.38 56.4701 11.35C56.7701 11.32 57.0001 11.04 56.9701 10.74C56.9401 10.44 56.6601 10.21 56.3601 10.24C56.0601 10.27 55.8301 10.55 55.8601 10.85Z" fill="#757570"/>
<path d="M55.23 7.81C55.23 7.81 55.14 7.83 54.99 7.86C55.07 7.84 55.14 7.82 55.23 7.81Z" fill="#3E2967"/>
<path d="M51.26 11.29C51.31 10.99 51.55 10.75 51.86 10.72H51.94C52.32 10.67 52.65 10.94 52.69 11.32L52.75 11.89V11.87L52.81 12.35C52.83 12.55 53.01 12.69 53.21 12.67C53.41 12.65 53.55 12.47 53.53 12.27L53.37 10.72C53.31 10.12 53.4 9.50001 53.67 8.96001C53.91 8.49001 54.3 8.03001 54.93 7.85001C54.01 8.05001 51.23 8.88001 51.25 11.28L51.26 11.29Z" fill="#674E99"/>
<path d="M53.59 2.33999C52.01 2.65999 50.77 3.78999 50.62 5.33999C50.62 5.33999 48.66 6.31999 48.88 8.42999C49.05 10.03 49.53 10.94 50.33 11.23L51.35 14.24C51.36 14.38 51.46 14.46 51.57 14.48L51.26 11.59V11.47C51.24 11.41 51.25 11.35 51.26 11.29C51.24 8.88999 54.03 8.05999 54.94 7.85999L55.03 7.83999C55.03 7.83999 57.63 7.76999 59.99 7.81999C60.82 7.63999 61.59 7.29999 61.97 6.27999C62.44 5.50999 61.88 0.679993 53.58 2.33999H53.59Z" fill="#3E2967"/>
</g>
<defs>
<clipPath id="clip0_1206_2234">
<rect width="43.72" height="106.95" fill="white" transform="translate(31 2)"/>
</clipPath>
</defs>
</svg>
