<svg width="110" height="110" viewBox="0 0 110 110" fill="none" xmlns="http://www.w3.org/2000/svg">
<g clip-path="url(#clip0_1206_1847)">
<path d="M86.93 10.1C87.97 8.88 89.8 8.72 91.02 9.76C92.03 10.61 92.31 12 91.8 13.15C91.69 13.4 91.54 13.64 91.36 13.86C90.91 14.39 90.45 14.9 89.98 15.38L86.21 10.91C86.45 10.65 86.69 10.38 86.92 10.11L86.93 10.1Z" fill="#F4D3D3"/>
<path d="M56.1901 22.16C56.4201 20.57 57.9001 19.48 59.4901 19.71C59.6601 19.73 76.0001 21.97 86.2201 10.89L89.9901 15.36C77.6801 28.14 59.4301 25.57 58.6301 25.45C57.0501 25.21 55.9601 23.74 56.1901 22.15V22.16Z" fill="#2E423A"/>
<path d="M49.72 57.62H64.03L65.45 102.44L62.92 102.62C62.92 103.3 63.32 104.58 63.78 104.94C64.32 105.37 65.75 105.85 66.27 106.32C66.88 106.88 66.56 108.1 65.8 108.1H62.72H61.93C61.23 108.1 60.62 107.5 60.45 106.64L60.38 102.86L58.85 102.82C57.66 96.55 56.45 86.58 55.4 80.19C54.66 75.71 54.05 69.85 53.39 65.39C53.24 64.41 52.53 63.7 51.7 63.7H50.19C49.35 63.7 48.64 64.41 48.5 65.39C47.84 69.85 45.24 94.53 43.84 101.63C43.76 102.03 42.15 101.5 42.07 101.91C41.82 103.19 42.25 104.51 43.13 105.23C43.56 105.58 43.97 105.94 44.38 106.32C45 106.88 44.68 108.11 43.92 108.11H40.84L38.84 107.34C36.86 105.86 39.33 104.7 38.4 101.9L36.75 101.35L37.69 65.09V57.6H49.73L49.72 57.62Z" fill="#3E2967"/>
<path d="M36.02 59.04H65.49L65.48 28.17C65.48 23.25 61.49 19.27 56.58 19.27H44.91C39.99 19.27 36.01 23.26 36.01 28.17L36.03 59.04H36.02Z" fill="#4D6059"/>
<path d="M31.9301 54.1C32.0401 55.7 30.8401 57.09 29.2401 57.21C29.1701 57.21 29.1001 57.21 29.0301 57.21C27.5201 57.21 26.2401 56.04 26.1401 54.51C26.1001 54.01 26.0801 53.51 26.0601 53.02H31.8801C31.9001 53.38 31.9101 53.73 31.9401 54.09L31.9301 54.1Z" fill="#F4D3D3"/>
<path d="M40.9 20.22C42.3 19.44 44.05 19.95 44.84 21.34C45.62 22.73 45.13 24.5 43.74 25.29C43.21 25.59 30.88 32.88 31.88 53.02H26.05C25 29.34 40.24 20.59 40.9 20.22Z" fill="#4D6059"/>
<path d="M53.14 23.88H52.76V58.91H53.14V23.88Z" fill="#2E423A"/>
<path d="M56.4 30.37H62.54V35.86C62.54 36.85 61.73 37.66 60.74 37.66H58.21C57.22 37.66 56.41 36.85 56.41 35.86V30.37H56.4Z" fill="#2E423A"/>
<path d="M54.53 19.26L52.54 24.85L48.27 19.26H54.53Z" fill="#F4D3D3"/>
<path d="M48.27 19.26L52.54 24.85L48.32 26.06L48.27 19.26Z" fill="#2E423A"/>
<path d="M54.56 19.23L56.99 25.72L52.54 24.85L54.56 19.23Z" fill="#2E423A"/>
<path d="M48.9399 6.42H59.1799V14.42C59.1799 16.22 57.7199 17.67 55.9299 17.67H54.8999C54.3999 17.67 53.9899 18.56 53.9899 19.07V19.38C53.9899 20.76 52.8699 21.88 51.4899 21.88C50.1099 21.88 48.9899 20.76 48.9899 19.38L48.9599 6.42H48.9399Z" fill="#F4D3D3"/>
<path d="M55.89 14.71H56.51C57.06 14.71 57.51 14.26 57.51 13.71V10.68C57.51 10.45 57.32 10.26 57.09 10.26C56.86 10.26 56.67 10.45 56.67 10.68V13.3C56.67 13.61 56.42 13.87 56.1 13.87H55.88C55.65 13.87 55.46 14.06 55.46 14.29C55.46 14.52 55.65 14.71 55.88 14.71H55.89Z" fill="#E0B1BB"/>
<path d="M53.58 10.78C53.58 11.09 53.83 11.34 54.14 11.34C54.45 11.34 54.7 11.09 54.7 10.78C54.7 10.47 54.45 10.22 54.14 10.22C53.83 10.22 53.58 10.47 53.58 10.78Z" fill="#757570"/>
<path d="M53.28 7.69C53.28 7.69 53.19 7.69 53.04 7.71C53.12 7.7 53.2 7.69 53.28 7.69Z" fill="#3E2967"/>
<path d="M48.97 10.74C49.05 10.45 49.31 10.23 49.63 10.23H49.71C50.09 10.23 50.39 10.54 50.39 10.91V11.49V11.47L50.4 11.95C50.4 12.15 50.56 12.31 50.76 12.31C50.96 12.31 51.12 12.15 51.12 11.95V10.39C51.12 9.78 51.27 9.18 51.61 8.68C51.9 8.24 52.34 7.82 52.98 7.71C52.05 7.82 49.19 8.35 48.96 10.73L48.97 10.74Z" fill="#674E99"/>
<path d="M52.22 2.08C50.61 2.23 49.26 3.23 48.95 4.75C48.95 4.75 46.9 5.52 46.9 7.64C46.9 9.25 47.29 10.21 48.05 10.58L48.75 13.68C48.75 13.82 48.84 13.91 48.94 13.94V10.91C48.94 10.85 48.95 10.79 48.97 10.73C49.2 8.34 52.07 7.81 52.99 7.71H53.09C53.09 7.71 55.68 7.91 58.02 8.2C58.86 8.11 59.67 7.85 60.15 6.88C60.7 6.16 60.65 1.3 52.22 2.08Z" fill="#3E2967"/>
</g>
<defs>
<clipPath id="clip0_1206_1847">
<rect width="66.05" height="106.13" fill="white" transform="translate(26 2)"/>
</clipPath>
</defs>
</svg>
