<svg width="110" height="110" viewBox="0 0 110 110" fill="none" xmlns="http://www.w3.org/2000/svg">
<g clip-path="url(#clip0_1206_2129)">
<path d="M66.6601 57.06H39.9301L44.9601 103.52L48.2901 103.05C48.3801 103.92 48.1401 105.23 47.1901 106C46.6601 106.43 46.1001 106.82 45.5701 107.25C44.9501 107.76 45.2701 108.89 46.0401 108.89L51.0301 107.87C53.2701 107.4 52.9601 105.82 52.5201 104.6C52.2301 103.79 51.7601 102.39 51.7601 102.39L52.8101 102.09L52.5301 64.66H54.0601C54.0601 64.66 56.8901 85.17 57.1401 86.04C57.4901 87.29 58.9001 87.11 59.3901 86.18C59.8101 85.38 60.2301 82.11 60.3101 81.47L62.0101 81.12C63.5801 80.8 64.7601 79.48 64.8901 77.88L66.6701 57.06H66.6601Z" fill="#3E2967"/>
<path d="M85.71 47.42C87.21 48 87.96 49.68 87.38 51.17C86.91 52.4 85.69 53.12 84.44 53.02C84.17 53 83.9 52.94 83.63 52.83C82.98 52.58 82.35 52.31 81.74 52.03L84.72 47C85.05 47.14 85.37 47.28 85.71 47.41V47.42Z" fill="#F4D3D3"/>
<path d="M64.2 22.37C65.77 22.07 67.29 23.1 67.6 24.68C67.63 24.85 70.9 41.02 84.73 47.02L81.75 52.05C65.63 44.63 62.05 26.55 61.9 25.76C61.6 24.19 62.64 22.67 64.21 22.37H64.2Z" fill="#2E423A"/>
<path d="M38.92 58.72H68.39L68.38 28.17C68.38 23.25 64.39 19.27 59.48 19.27H47.81C42.89 19.27 38.91 23.26 38.91 28.17L38.93 58.72H38.92Z" fill="#4D6059"/>
<path d="M28.79 51.76C28.59 53.35 27.14 54.48 25.55 54.28C25.48 54.28 25.41 54.26 25.34 54.25C23.86 53.96 22.83 52.56 23.02 51.04C23.08 50.54 23.15 50.05 23.23 49.57L28.94 50.7C28.89 51.05 28.83 51.4 28.79 51.76Z" fill="#F4D3D3"/>
<path d="M44.16 20.27C45.68 19.78 47.3 20.61 47.8 22.13C48.3 23.65 47.47 25.29 45.96 25.79C45.38 25.99 31.88 30.75 28.94 50.7L23.23 49.57C26.79 26.14 43.44 20.5 44.16 20.27Z" fill="#4D6059"/>
<path d="M56.04 23.88H55.66V54.24H56.04V23.88Z" fill="#2E423A"/>
<path d="M59.29 30.37H65.43V35.86C65.43 36.85 64.62 37.66 63.63 37.66H61.1C60.11 37.66 59.3 36.85 59.3 35.86V30.37H59.29Z" fill="#2E423A"/>
<path d="M57.43 19.26L55.44 24.85L51.17 19.26H57.43Z" fill="#F4D3D3"/>
<path d="M51.17 19.26L55.44 24.85L51.22 26.06L51.17 19.26Z" fill="#2E423A"/>
<path d="M57.4499 19.23L59.8799 25.72L55.4399 24.85L57.4499 19.23Z" fill="#2E423A"/>
<path d="M51.84 6.42001H62.08V14.42C62.08 16.22 60.62 17.67 58.83 17.67H57.8C57.3 17.67 56.89 18.56 56.89 19.07V19.38C56.89 20.76 55.77 21.88 54.39 21.88C53.01 21.88 51.89 20.76 51.89 19.38L51.86 6.42001H51.84Z" fill="#F4D3D3"/>
<path d="M58.79 14.71H59.41C59.96 14.71 60.41 14.26 60.41 13.71V10.68C60.41 10.45 60.22 10.26 59.99 10.26C59.76 10.26 59.57 10.45 59.57 10.68V13.3C59.57 13.61 59.32 13.87 59 13.87H58.78C58.55 13.87 58.36 14.06 58.36 14.29C58.36 14.52 58.55 14.71 58.78 14.71H58.79Z" fill="#E0B1BB"/>
<path d="M56.48 10.78C56.48 11.09 56.73 11.34 57.04 11.34C57.35 11.34 57.6 11.09 57.6 10.78C57.6 10.47 57.35 10.22 57.04 10.22C56.73 10.22 56.48 10.47 56.48 10.78Z" fill="#757570"/>
<path d="M56.1799 7.69C56.1799 7.69 56.0899 7.69 55.9399 7.71C56.0199 7.7 56.0999 7.69 56.1799 7.69Z" fill="#3E2967"/>
<path d="M51.86 10.74C51.94 10.45 52.2 10.23 52.52 10.23H52.6C52.98 10.23 53.28 10.54 53.28 10.91V11.49V11.47L53.29 11.95C53.29 12.15 53.45 12.31 53.65 12.31C53.85 12.31 54.01 12.15 54.01 11.95V10.39C54.01 9.77999 54.16 9.17999 54.5 8.67999C54.79 8.23999 55.23 7.81999 55.87 7.70999C54.94 7.81999 52.08 8.34999 51.85 10.73L51.86 10.74Z" fill="#674E99"/>
<path d="M55.11 2.08001C53.5 2.23001 52.15 3.23001 51.84 4.75001C51.84 4.75001 49.79 5.52001 49.79 7.64001C49.79 9.25001 50.18 10.21 50.94 10.58L51.64 13.68C51.64 13.82 51.73 13.91 51.83 13.94V10.91C51.83 10.85 51.84 10.79 51.86 10.73C52.09 8.34001 54.96 7.81001 55.88 7.71001H55.98C55.98 7.71001 58.57 7.91001 60.91 8.20001C61.75 8.11001 62.56 7.85001 63.04 6.88001C63.59 6.16001 63.54 1.30001 55.11 2.08001Z" fill="#3E2967"/>
</g>
<defs>
<clipPath id="clip0_1206_2129">
<rect width="64.58" height="106.89" fill="white" transform="translate(23 2)"/>
</clipPath>
</defs>
</svg>
