<svg width="110" height="110" viewBox="0 0 110 110" fill="none" xmlns="http://www.w3.org/2000/svg">
<g clip-path="url(#clip0_1206_2603)">
<path d="M52.9 57.64L64.87 57.17L71.46 79.59L83.99 97.55L81.66 99.44C81.94 99.95 82.43 100.78 82.9 101.1C83.59 101.57 84.49 102.44 83.68 103.49L78.72 107.39C78 107.7 77.23 106.63 77.59 105.82C77.83 105.29 78.65 104.09 78.92 103.57C79.47 102.51 78.81 101.7 78.09 100.55C73.76 93.67 63.65 83.13 63.65 83.13L52.91 57.63L52.9 57.64Z" fill="#291B4C"/>
<path d="M49.97 56.08L69.63 56.89L48.17 81.99L40.79 104.67L38.01 104.27L37.11 106.07C36.18 108.09 36.06 108.95 34.52 108.16L30.69 106.64C29.99 106.29 30.1 105.26 30.92 105.01C31.46 104.84 32.29 104.82 32.85 104.79C34.93 104.69 34.65 103.22 34.98 101.88C36.98 93.89 37.88 87.47 40.15 79.4C41.44 74.78 49.99 56.09 49.99 56.09L49.97 56.08Z" fill="#3F3072"/>
<path d="M28.99 43.8C27.4 44.21 26.44 45.83 26.85 47.42C27.19 48.73 28.34 49.61 29.62 49.65C29.9 49.65 30.18 49.63 30.47 49.56C31.16 49.38 31.83 49.18 32.49 48.97L30.05 43.5C29.7 43.61 29.35 43.71 28.99 43.8Z" fill="#FADDDC"/>
<path d="M53.8101 20.85C52.2401 20.36 50.5801 21.23 50.0801 22.8C50.0301 22.97 44.8001 39.03 30.0301 43.5L32.4701 48.97C49.7401 43.32 55.5101 25.36 55.7501 24.57C56.2401 23 55.3601 21.34 53.8001 20.85H53.8101Z" fill="#2E423A"/>
<path d="M47.31 58.94L70.7 58.7L68.2 33.6C68.2 29.44 70.92 25.35 58.9 19.63H54.5499C53.4999 19.63 52.73 19.91 51.83 20.62C50.93 21.33 50.27 22.24 49.74 23.24C42.58 36.85 47.2999 58.94 47.2999 58.94H47.31Z" fill="#4D6059"/>
<path d="M73.55 55.98C73.33 57.61 74.48 59.1 76.11 59.32C77.45 59.5 78.7 58.76 79.22 57.58C79.33 57.33 79.41 57.05 79.45 56.76C79.54 56.05 79.61 55.36 79.66 54.67L73.68 54.89C73.65 55.25 73.61 55.62 73.56 55.98H73.55Z" fill="#FADDDC"/>
<path d="M61.5601 24.37C60.5201 25.64 60.7101 27.51 61.9701 28.55C62.1001 28.66 75.0501 39.51 73.6701 54.88L79.6501 54.66C80.8701 36.54 66.3701 24.47 65.7301 23.94C64.4601 22.9 62.5901 23.09 61.5501 24.36L61.5601 24.37Z" fill="#4D6059"/>
<path d="M59.07 5.56H48.68V14.86C48.68 16.68 50.16 18.16 51.98 18.16H53.03C53.54 18.16 53.96 18.57 53.96 19.09V22.57L58.87 19.91L59.08 5.57L59.07 5.56Z" fill="#FADDDC"/>
<path d="M49 15.02L48.4 14.85C47.86 14.7 47.54 14.13 47.69 13.59L48.52 10.63C48.58 10.4 48.82 10.27 49.04 10.34C49.26 10.41 49.4 10.64 49.33 10.86L48.61 13.42C48.52 13.73 48.7 14.05 49.01 14.13L49.22 14.19C49.45 14.25 49.58 14.49 49.51 14.71C49.44 14.93 49.21 15.07 48.99 15L49 15.02Z" fill="#E0B1BB"/>
<path d="M50.4499 10.6C50.4499 10.91 50.6999 11.16 51.0099 11.16C51.3199 11.16 51.5699 10.91 51.5699 10.6C51.5699 10.29 51.3199 10.04 51.0099 10.04C50.6999 10.04 50.4499 10.29 50.4499 10.6Z" fill="#757570"/>
<path d="M48.5099 36.03L48.8099 36.16C49.5799 36.51 50.2199 36.04 50.2399 35.11L50.6899 30.5L47.5999 29.12L47.1499 33.73C47.1299 34.65 47.7399 35.68 48.5099 36.03Z" fill="#2E423A"/>
<path d="M59.55 18.93L53.96 22.27L57.6 24.91L61.35 20.58L59.55 18.93Z" fill="#2E423A"/>
<path d="M53.96 22.27L51.59 23.8L53.44 19.44L53.95 19.2L53.96 22.27Z" fill="#2E423A"/>
<path d="M52.81 58.3L53.2 58.22C49.23 39.83 54.1 22.5 54.15 22.32L53.77 22.21C53.72 22.38 48.83 39.81 52.82 58.3H52.81Z" fill="#2E423A"/>
<path d="M58.7201 15.25C58.7201 15.25 57.9301 13.45 57.9301 13.4V10.97C57.9301 10.44 57.5001 10.01 56.9701 10.01C56.4401 10.01 56.0101 10.44 56.0101 10.97V12.13V12.61C56.0101 12.81 55.8501 12.97 55.6501 12.97C55.4501 12.97 55.2901 12.81 55.2901 12.61V11.05C55.2901 10.44 55.4001 9.69 55.0701 9.19C54.7801 8.75 54.3601 8.15 53.5201 7.95C53.5001 7.95 53.4701 7.95 53.4501 7.94C55.4001 7.99 57.0701 9.1 57.9501 10.72C57.9501 10.72 58.2301 11.56 59.4301 12.2C59.2701 12.98 58.9901 15.36 58.8901 15.39L58.7201 15.24V15.25Z" fill="#674E99"/>
<path d="M47.22 6.88001C47.69 7.85001 48.5 8.11001 49.34 8.20001C50.46 8.07001 51.61 7.94001 52.53 7.86001C52.88 7.87001 53.19 7.90001 53.44 7.95001C55.39 8.00001 57.06 9.11001 57.94 10.72C57.94 10.72 58.23 11.56 59.42 12.2C59.44 12.13 59.45 12.07 59.46 12.03C59.46 12.03 60.63 11.52 60.74 10.3C60.85 9.08001 60.46 8.71001 60.46 7.64001C60.46 5.52001 58.41 4.75001 58.41 4.75001C58.11 3.22001 56.75 2.22001 55.15 2.08001C46.72 1.30001 46.66 6.16001 47.22 6.88001Z" fill="#3E2967"/>
</g>
<defs>
<clipPath id="clip0_1206_2603">
<rect width="57.25" height="106.44" fill="white" transform="matrix(-1 0 0 1 84 2)"/>
</clipPath>
</defs>
</svg>
