<svg width="32" height="107" viewBox="0 0 32 107" fill="none" xmlns="http://www.w3.org/2000/svg">
<g clip-path="url(#clip0_134_762)">
<path d="M21.78 53.8999L5.76001 52.8799L17.26 73.9299L12.52 94.8899L14.87 95.6299V97.6699C14.69 99.0999 14.69 100.03 16.21 100.86L20.12 101.86C20.89 101.92 21.25 100.97 20.65 100.32C20.25 99.8899 19.41 99.5899 19.05 99.1099C17.48 96.9899 18.3 96.4899 18.6 95.1499C20.39 87.1399 26.81 73.6199 26.81 73.6199L21.77 53.8899L21.78 53.8999Z" fill="#291B4C"/>
<path d="M17.32 51.9599L1.75 52.33L4.55 101.05L6.87 101.8C6.88 102.39 6.87 103.38 6.62 103.92C6.26 104.72 5.91 105.98 7.11 106.4L13.2 106.85C13.96 106.7 14.1 105.34 13.4 104.87C12.94 104.56 11.67 104.01 11.19 103.73C10.21 103.14 10.25 102.07 10.44 100.69C11.82 90.72 17.31 51.95 17.31 51.95L17.32 51.9599Z" fill="#3E2C6D"/>
<path d="M23.94 57.66L0.550027 57.42C0.550027 57.42 -3.87997 24.04 12.36 18.35H16.71C17.76 18.35 18.53 18.63 19.43 19.34C20.33 20.05 20.99 20.96 21.52 21.96C28.68 35.57 23.96 57.66 23.96 57.66H23.94Z" fill="#4D6059"/>
<path d="M12.18 4.27002H22.57V13.57C22.57 15.39 21.09 16.87 19.27 16.87H18.22C17.71 16.87 17.29 17.28 17.29 17.8V21.28L12.38 18.62L12.17 4.28002L12.18 4.27002Z" fill="#FADDDC"/>
<path d="M22.26 13.74L22.86 13.57C23.4 13.42 23.72 12.85 23.57 12.31L22.74 9.34997C22.68 9.11997 22.44 8.98997 22.22 9.05997C22 9.12997 21.86 9.35996 21.93 9.57996L22.65 12.14C22.74 12.45 22.56 12.77 22.25 12.85L22.04 12.91C21.81 12.97 21.68 13.21 21.75 13.43C21.82 13.65 22.05 13.79 22.27 13.72L22.26 13.74Z" fill="#E0B1BB"/>
<path d="M20.8001 9.31C20.8001 9.62 20.5501 9.87 20.2401 9.87C19.9301 9.87 19.6801 9.62 19.6801 9.31C19.6801 9 19.9301 8.75 20.2401 8.75C20.5501 8.75 20.8001 9 20.8001 9.31Z" fill="#757570"/>
<path d="M22.7499 34.74L22.4499 34.87C21.6799 35.22 21.0399 34.75 21.0199 33.82L20.5699 29.21L23.6599 27.83L24.1099 32.44C24.1299 33.36 23.5199 34.39 22.7499 34.74Z" fill="#2E423A"/>
<path d="M11.7 17.64L17.3 20.98L13.66 23.63L9.90002 19.3L11.7 17.64Z" fill="#2E423A"/>
<path d="M17.3 20.98L19.66 22.52L17.81 18.15L17.3 17.92V20.98Z" fill="#2E423A"/>
<path d="M18.44 57.0201L18.05 56.9401C22.02 38.5501 17.15 21.2201 17.1 21.0401L17.48 20.9301C17.53 21.1001 22.42 38.5301 18.43 57.0201H18.44Z" fill="#2E423A"/>
<path d="M13.3001 8.73001C14.1801 7.12001 15.8501 6.01001 17.8001 5.95001C18.6601 5.78001 20.3401 5.92001 21.3301 5.68001C22.8601 5.32001 23.2901 3.24001 22.9101 1.77001C22.5901 0.50001 18.4601 -0.01999 15.8001 1.03001C14.2401 1.65001 11.7301 2.96001 11.2401 6.08001C10.9901 7.67001 11.7801 10.03 11.7801 10.03C11.7901 10.07 11.8101 10.13 11.8201 10.2C13.0201 9.56001 13.3001 8.72001 13.3001 8.72001V8.73001Z" fill="#3E2967"/>
<path d="M12.5299 13.2499C12.5299 13.2499 13.3199 11.4499 13.3199 11.3999V8.96994C13.3199 8.43994 13.7499 8.00994 14.2799 8.00994C14.8099 8.00994 15.2399 8.43994 15.2399 8.96994V10.1299V10.6099C15.2399 10.8099 15.3999 10.9699 15.5999 10.9699C15.7999 10.9699 15.9599 10.8099 15.9599 10.6099V9.04994C15.9599 8.43994 15.8499 7.68994 16.1799 7.18994C16.4699 6.74994 16.8899 6.14994 17.7299 5.94994C17.7499 5.94994 17.7799 5.94994 17.7999 5.93994C15.8499 5.98994 14.1799 7.09994 13.2999 8.71994C13.2999 8.71994 13.0199 9.55994 11.8199 10.1999C11.9799 10.9799 12.2599 13.3599 12.3599 13.3899L12.5299 13.2399V13.2499Z" fill="#674E99"/>
<path d="M16.1 0.0799625C14.49 0.229963 13.14 1.22996 12.83 2.74996C12.83 2.74996 10.78 3.51996 10.78 5.63996C10.78 7.24996 11.17 8.20996 11.93 8.57996L12.82 9.03996V8.91996C12.82 8.85996 12.83 8.79996 12.85 8.73996C13.08 6.34996 15.95 5.81996 16.87 5.71996H16.97C16.97 5.71996 19.56 5.91996 21.9 6.20996C22.74 6.11996 23.55 5.85996 24.03 4.88996C24.58 4.16996 24.53 -0.690037 16.1 0.0899625V0.0799625Z" fill="#3E2967"/>
<path d="M8.55995 27.79C8.11995 27.94 7.15995 46.64 25.8299 56.56L8.55995 27.79Z" fill="#2E423A"/>
<path d="M30.3499 52.25C31.8199 52.99 32.4099 54.78 31.6699 56.24C31.0599 57.45 29.7499 58.06 28.4799 57.83C28.2099 57.78 27.9299 57.69 27.6699 57.56C27.0299 57.24 26.4199 56.9 25.8199 56.55L29.3699 51.72C29.6899 51.9 30.0099 52.07 30.3399 52.24L30.3499 52.25Z" fill="#FADDDC"/>
<path d="M10.95 24.55C12.58 24.4 14.03 25.61 14.18 27.24C14.2 27.41 15.9 44.22 29.38 51.72L25.83 56.55C10.16 47.37 8.32999 28.59 8.24999 27.77C8.10999 26.14 9.30999 24.7 10.95 24.55Z" fill="#4D6059"/>
</g>
<defs>
<clipPath id="clip0_134_762">
<rect width="31.99" height="106.85" fill="white"/>
</clipPath>
</defs>
</svg>
