<svg width="32" height="107" viewBox="0 0 32 107" fill="none" xmlns="http://www.w3.org/2000/svg">
<g clip-path="url(#clip0_134_803)">
<path d="M10.2101 53.8999L26.2301 52.8799L14.7301 73.9299L19.4701 94.8899L17.1201 95.6299V97.6699C17.3001 99.0999 17.3001 100.03 15.7801 100.86L11.8701 101.86C11.1001 101.92 10.7401 100.97 11.3401 100.32C11.7401 99.8899 12.5801 99.5899 12.9401 99.1099C14.5101 96.9899 13.6901 96.4899 13.3901 95.1499C11.6001 87.1399 5.18005 73.6199 5.18005 73.6199L10.2201 53.8899L10.2101 53.8999Z" fill="#291B4C"/>
<path d="M14.67 51.9599L30.24 52.33L27.44 101.05L25.12 101.8C25.11 102.39 25.12 103.38 25.37 103.92C25.73 104.72 26.08 105.98 24.88 106.4L18.79 106.85C18.03 106.7 17.89 105.34 18.59 104.87C19.05 104.56 20.32 104.01 20.8 103.73C21.78 103.14 21.74 102.07 21.55 100.69C20.17 90.72 14.68 51.95 14.68 51.95L14.67 51.9599Z" fill="#3E2C6D"/>
<path d="M8.04996 57.66L31.44 57.42C31.44 57.42 35.87 24.04 19.64 18.35H15.29C14.24 18.35 13.47 18.63 12.57 19.34C11.67 20.05 11.01 20.96 10.48 21.96C3.31995 35.57 8.03996 57.66 8.03996 57.66H8.04996Z" fill="#4D6059"/>
<path d="M19.81 4.27002H9.42004V13.57C9.42004 15.39 10.9 16.87 12.72 16.87H13.77C14.28 16.87 14.7 17.28 14.7 17.8V21.28L19.61 18.62L19.82 4.28002L19.81 4.27002Z" fill="#FADDDC"/>
<path d="M9.73005 13.74L9.13005 13.57C8.59005 13.42 8.27005 12.85 8.42005 12.31L9.25005 9.34997C9.31005 9.11997 9.55005 8.98997 9.77005 9.05997C9.99005 9.12997 10.13 9.35996 10.06 9.57996L9.34005 12.14C9.25005 12.45 9.43005 12.77 9.74005 12.85L9.95005 12.91C10.18 12.97 10.31 13.21 10.24 13.43C10.17 13.65 9.94005 13.79 9.72005 13.72L9.73005 13.74Z" fill="#E0B1BB"/>
<path d="M11.1899 9.31C11.1899 9.62 11.4399 9.87 11.7499 9.87C12.0599 9.87 12.3099 9.62 12.3099 9.31C12.3099 9 12.0599 8.75 11.7499 8.75C11.4399 8.75 11.1899 9 11.1899 9.31Z" fill="#757570"/>
<path d="M9.23999 34.74L9.53999 34.87C10.31 35.22 10.95 34.75 10.97 33.82L11.42 29.21L8.32999 27.83L7.87999 32.44C7.85999 33.36 8.46999 34.39 9.23999 34.74Z" fill="#2E423A"/>
<path d="M20.2899 17.64L14.6899 20.98L18.3299 23.63L22.0799 19.3L20.2899 17.64Z" fill="#2E423A"/>
<path d="M14.69 20.98L12.33 22.52L14.18 18.15L14.69 17.92V20.98Z" fill="#2E423A"/>
<path d="M13.55 57.0201L13.94 56.9401C9.97001 38.5501 14.84 21.2201 14.89 21.0401L14.51 20.9301C14.46 21.1001 9.57001 38.5301 13.56 57.0201H13.55Z" fill="#2E423A"/>
<path d="M18.69 8.73001C17.81 7.12001 16.14 6.01001 14.19 5.95001C13.33 5.78001 11.65 5.92001 10.66 5.68001C9.13001 5.32001 8.70001 3.24001 9.08001 1.77001C9.40001 0.50001 13.53 -0.01999 16.19 1.03001C17.75 1.65001 20.26 2.96001 20.75 6.08001C21 7.67001 20.21 10.03 20.21 10.03C20.2 10.07 20.18 10.13 20.17 10.2C18.97 9.56001 18.69 8.72001 18.69 8.72001V8.73001Z" fill="#3E2967"/>
<path d="M19.4599 13.2499C19.4599 13.2499 18.6699 11.4499 18.6699 11.3999V8.96994C18.6699 8.43994 18.2399 8.00994 17.7099 8.00994C17.1799 8.00994 16.7499 8.43994 16.7499 8.96994V10.1299V10.6099C16.7499 10.8099 16.5899 10.9699 16.3899 10.9699C16.1899 10.9699 16.0299 10.8099 16.0299 10.6099V9.04994C16.0299 8.43994 16.1399 7.68994 15.8099 7.18994C15.5199 6.74994 15.0999 6.14994 14.2599 5.94994C14.2399 5.94994 14.2099 5.94994 14.1899 5.93994C16.1399 5.98994 17.8099 7.09994 18.6899 8.71994C18.6899 8.71994 18.9699 9.55994 20.1699 10.1999C20.0099 10.9799 19.7299 13.3599 19.6299 13.3899L19.4599 13.2399V13.2499Z" fill="#674E99"/>
<path d="M15.89 0.0799625C17.5 0.229963 18.85 1.22996 19.16 2.74996C19.16 2.74996 21.21 3.51996 21.21 5.63996C21.21 7.24996 20.82 8.20996 20.06 8.57996L19.17 9.03996V8.91996C19.17 8.85996 19.16 8.79996 19.14 8.73996C18.91 6.34996 16.04 5.81996 15.12 5.71996H15.02C15.02 5.71996 12.43 5.91996 10.09 6.20996C9.25004 6.11996 8.44004 5.85996 7.96004 4.88996C7.41004 4.16996 7.46004 -0.690037 15.89 0.0899625V0.0799625Z" fill="#3E2967"/>
<path d="M23.43 27.79C23.87 27.94 24.83 46.64 6.16003 56.56L23.43 27.79Z" fill="#2E423A"/>
<path d="M1.63997 52.25C0.169974 52.99 -0.420026 54.78 0.319974 56.24C0.929974 57.45 2.23997 58.06 3.50997 57.83C3.77997 57.78 4.05997 57.69 4.31997 57.56C4.95997 57.24 5.56997 56.9 6.16997 56.55L2.61997 51.72C2.29997 51.9 1.97997 52.07 1.64997 52.24L1.63997 52.25Z" fill="#FADDDC"/>
<path d="M21.04 24.55C19.41 24.4 17.96 25.61 17.81 27.24C17.79 27.41 16.09 44.22 2.60999 51.72L6.15999 56.55C21.83 47.37 23.66 28.59 23.74 27.77C23.88 26.14 22.68 24.7 21.04 24.55Z" fill="#4D6059"/>
</g>
<defs>
<clipPath id="clip0_134_803">
<rect width="31.99" height="106.85" fill="white"/>
</clipPath>
</defs>
</svg>
