<svg width="110" height="110" viewBox="0 0 110 110" fill="none" xmlns="http://www.w3.org/2000/svg">
<g clip-path="url(#clip0_1206_2375)">
<path d="M60.78 55.73L44.76 54.71L56.26 75.76L51.52 96.72L53.87 97.46V99.5C53.69 100.93 53.69 101.86 55.21 102.69L59.12 103.69C59.89 103.75 60.25 102.8 59.65 102.15C59.25 101.72 58.41 101.42 58.05 100.94C56.48 98.82 57.3 98.32 57.6 96.98C59.39 88.97 65.81 75.45 65.81 75.45L60.77 55.72L60.78 55.73Z" fill="#291B4C"/>
<path d="M56.32 53.78L40.75 54.15L43.55 102.87L45.87 103.62C45.88 104.21 45.87 105.2 45.62 105.74C45.26 106.54 44.91 107.8 46.11 108.22L52.2 108.67C52.96 108.52 53.1 107.16 52.4 106.69C51.94 106.38 50.67 105.83 50.19 105.55C49.21 104.96 49.25 103.89 49.44 102.51C50.82 92.54 56.31 53.77 56.31 53.77L56.32 53.78Z" fill="#3E2C6D"/>
<path d="M62.94 59.48L39.55 59.24C39.55 59.24 35.12 25.86 51.36 20.17H55.71C56.76 20.17 57.53 20.45 58.43 21.16C59.33 21.87 59.99 22.78 60.52 23.78C67.68 37.39 62.96 59.48 62.96 59.48H62.94Z" fill="#4D6059"/>
<path d="M61.7499 36.57L61.4499 36.7C60.6799 37.05 60.0399 36.58 60.0199 35.65L59.5699 31.04L62.6599 29.66L63.1099 34.27C63.1299 35.19 62.5199 36.22 61.7499 36.57Z" fill="#2E423A"/>
<path d="M50.7 19.47L56.3 22.81L52.66 25.45L48.9 21.12L50.7 19.47Z" fill="#2E423A"/>
<path d="M56.3 22.81L58.66 24.35L56.81 19.98L56.3 19.74V22.81Z" fill="#2E423A"/>
<path d="M57.44 58.85L57.05 58.77C61.02 40.38 56.15 23.05 56.1 22.87L56.48 22.76C56.53 22.93 61.42 40.36 57.43 58.85H57.44Z" fill="#2E423A"/>
<path d="M47.5599 29.62C47.1199 29.77 46.1599 48.47 64.8299 58.39Z" fill="#2E423A"/>
<path d="M69.3499 54.07C70.8199 54.81 71.4099 56.6 70.6699 58.06C70.0599 59.27 68.7499 59.88 67.4799 59.65C67.2099 59.6 66.9299 59.51 66.6699 59.38C66.0299 59.06 65.4199 58.72 64.8199 58.37L68.3699 53.54C68.6899 53.72 69.0099 53.89 69.3399 54.06L69.3499 54.07Z" fill="#FADDDC"/>
<path d="M49.95 26.38C51.58 26.23 53.03 27.44 53.18 29.07C53.2 29.24 54.9 46.05 68.38 53.55L64.83 58.38C49.16 49.2 47.33 30.42 47.25 29.6C47.11 27.97 48.31 26.53 49.95 26.38Z" fill="#4D6059"/>
<path d="M51.12 5.56H61.51V14.86C61.51 16.68 60.03 18.16 58.21 18.16H57.16C56.65 18.16 56.23 18.57 56.23 19.09V22.57L51.32 19.91L51.11 5.57L51.12 5.56Z" fill="#FADDDC"/>
<path d="M61.2 15.02L61.8 14.85C62.34 14.7 62.66 14.13 62.51 13.59L61.68 10.63C61.62 10.4 61.38 10.27 61.16 10.34C60.94 10.41 60.8 10.64 60.87 10.86L61.59 13.42C61.68 13.73 61.5 14.05 61.19 14.13L60.98 14.19C60.75 14.25 60.62 14.49 60.69 14.71C60.76 14.93 60.99 15.07 61.21 15L61.2 15.02Z" fill="#E0B1BB"/>
<path d="M59.74 10.6C59.74 10.91 59.49 11.16 59.18 11.16C58.87 11.16 58.62 10.91 58.62 10.6C58.62 10.29 58.87 10.04 59.18 10.04C59.49 10.04 59.74 10.29 59.74 10.6Z" fill="#757570"/>
<path d="M51.47 15.25C51.47 15.25 52.26 13.45 52.26 13.4V10.97C52.26 10.44 52.69 10.01 53.22 10.01C53.75 10.01 54.18 10.44 54.18 10.97V12.13V12.61C54.18 12.81 54.34 12.97 54.54 12.97C54.74 12.97 54.9 12.81 54.9 12.61V11.05C54.9 10.44 54.79 9.69 55.12 9.19C55.41 8.75 55.83 8.15 56.67 7.95C56.69 7.95 56.72 7.95 56.74 7.94C54.79 7.99 53.12 9.1 52.24 10.72C52.24 10.72 51.96 11.56 50.76 12.2C50.92 12.98 51.2 15.36 51.3 15.39L51.47 15.24V15.25Z" fill="#674E99"/>
<path d="M62.97 6.88C62.5 7.85 61.69 8.11 60.85 8.2C59.73 8.07 58.58 7.94 57.66 7.86C57.31 7.87 57 7.9 56.75 7.95C54.8 8 53.13 9.11 52.25 10.72C52.25 10.72 51.96 11.56 50.77 12.2C50.75 12.13 50.74 12.07 50.73 12.03C50.73 12.03 49.56 11.52 49.45 10.3C49.34 9.08 49.73 8.71 49.73 7.64C49.73 5.52 51.78 4.75 51.78 4.75C52.08 3.22 53.44 2.22 55.04 2.08C63.47 1.3 63.53 6.16 62.97 6.88Z" fill="#3E2967"/>
</g>
<defs>
<clipPath id="clip0_1206_2375">
<rect width="31.99" height="106.68" fill="white" transform="translate(39 2)"/>
</clipPath>
</defs>
</svg>
