<svg width="110" height="110" viewBox="0 0 110 110" fill="none" xmlns="http://www.w3.org/2000/svg">
<g clip-path="url(#clip0_1206_2663)">
<path d="M53.68 53.78L69.25 54.15L66.45 102.87L64.13 103.62C64.12 104.21 64.13 105.2 64.38 105.74C64.74 106.54 65.09 107.8 63.89 108.22L57.8 108.67C57.04 108.52 56.9 107.16 57.6 106.69C58.06 106.38 59.33 105.83 59.81 105.55C60.79 104.96 60.75 103.89 60.56 102.51C59.18 92.54 53.69 53.77 53.69 53.77L53.68 53.78Z" fill="#291B4C"/>
<path d="M49.22 55.73L65.24 54.71L53.74 75.76L58.48 96.72L56.13 97.46V99.5C56.31 100.93 56.31 101.86 54.79 102.69L50.88 103.69C50.11 103.75 49.75 102.8 50.35 102.15C50.75 101.72 51.59 101.42 51.95 100.94C53.52 98.82 52.7 98.32 52.4 96.98C50.61 88.97 44.19 75.45 44.19 75.45L49.23 55.72L49.22 55.73Z" fill="#3F3072"/>
<path d="M47.06 59.48L70.45 59.24C70.45 59.24 74.88 25.86 58.64 20.17H54.29C53.24 20.17 52.47 20.45 51.57 21.16C50.67 21.87 50.01 22.78 49.48 23.78C42.32 37.39 47.04 59.48 47.04 59.48H47.06Z" fill="#4D6059"/>
<path d="M48.2501 36.57L48.5501 36.7C49.3201 37.05 49.9601 36.58 49.9801 35.65L50.4301 31.04L47.3401 29.66L46.8901 34.27C46.8701 35.19 47.4801 36.22 48.2501 36.57Z" fill="#2E423A"/>
<path d="M59.3 19.47L53.7 22.81L57.34 25.45L61.1 21.12L59.3 19.47Z" fill="#2E423A"/>
<path d="M53.7 22.81L51.34 24.35L53.19 19.98L53.7 19.74V22.81Z" fill="#2E423A"/>
<path d="M52.56 58.85L52.95 58.77C48.98 40.38 53.85 23.05 53.9 22.87L53.52 22.76C53.47 22.93 48.58 40.36 52.57 58.85H52.56Z" fill="#2E423A"/>
<path d="M62.4401 29.62C62.8801 29.77 63.8401 48.47 45.1701 58.39Z" fill="#2E423A"/>
<path d="M40.6501 54.07C39.1801 54.81 38.5901 56.6 39.3301 58.06C39.9401 59.27 41.2501 59.88 42.5201 59.65C42.7901 59.6 43.0701 59.51 43.3301 59.38C43.9701 59.06 44.5801 58.72 45.1801 58.37L41.6301 53.54C41.3101 53.72 40.9901 53.89 40.6601 54.06L40.6501 54.07Z" fill="#FADDDC"/>
<path d="M60.05 26.38C58.42 26.23 56.97 27.44 56.82 29.07C56.8 29.24 55.1 46.05 41.62 53.55L45.17 58.38C60.84 49.2 62.67 30.42 62.75 29.6C62.89 27.97 61.69 26.53 60.05 26.38Z" fill="#4D6059"/>
<path d="M58.77 5.56H48.38V14.86C48.38 16.68 49.86 18.16 51.68 18.16H52.73C53.24 18.16 53.66 18.57 53.66 19.09V22.57L58.57 19.91L58.78 5.57L58.77 5.56Z" fill="#FADDDC"/>
<path d="M48.7001 15.02L48.1001 14.85C47.5601 14.7 47.2401 14.13 47.3901 13.59L48.2201 10.63C48.2801 10.4 48.5201 10.27 48.7401 10.34C48.9601 10.41 49.1001 10.64 49.0301 10.86L48.3101 13.42C48.2201 13.73 48.4001 14.05 48.7101 14.13L48.9201 14.19C49.1501 14.25 49.2801 14.49 49.2101 14.71C49.1401 14.93 48.9101 15.07 48.6901 15L48.7001 15.02Z" fill="#E0B1BB"/>
<path d="M50.15 10.6C50.15 10.91 50.4 11.16 50.71 11.16C51.02 11.16 51.27 10.91 51.27 10.6C51.27 10.29 51.02 10.04 50.71 10.04C50.4 10.04 50.15 10.29 50.15 10.6Z" fill="#757570"/>
<path d="M58.42 15.25C58.42 15.25 57.63 13.45 57.63 13.4V10.97C57.63 10.44 57.2 10.01 56.67 10.01C56.14 10.01 55.71 10.44 55.71 10.97V12.13V12.61C55.71 12.81 55.55 12.97 55.35 12.97C55.15 12.97 54.99 12.81 54.99 12.61V11.05C54.99 10.44 55.1 9.69 54.77 9.19C54.48 8.75 54.06 8.15 53.22 7.95C53.2 7.95 53.17 7.95 53.15 7.94C55.1 7.99 56.77 9.1 57.65 10.72C57.65 10.72 57.93 11.56 59.13 12.2C58.97 12.98 58.69 15.36 58.59 15.39L58.42 15.24V15.25Z" fill="#674E99"/>
<path d="M46.9301 6.88001C47.4001 7.85001 48.2101 8.11001 49.0501 8.20001C50.1701 8.07001 51.3201 7.94001 52.2401 7.86001C52.5901 7.87001 52.9001 7.90001 53.1501 7.95001C55.1001 8.00001 56.7701 9.11001 57.6501 10.72C57.6501 10.72 57.9401 11.56 59.1301 12.2C59.1501 12.13 59.1601 12.07 59.1701 12.03C59.1701 12.03 60.3401 11.52 60.4501 10.3C60.5601 9.08001 60.1701 8.71001 60.1701 7.64001C60.1701 5.52001 58.1201 4.75001 58.1201 4.75001C57.8201 3.22001 56.4601 2.22001 54.8601 2.08001C46.4301 1.30001 46.3701 6.16001 46.9301 6.88001Z" fill="#3E2967"/>
</g>
<defs>
<clipPath id="clip0_1206_2663">
<rect width="31.99" height="106.68" fill="white" transform="matrix(-1 0 0 1 71 2)"/>
</clipPath>
</defs>
</svg>
