<svg width="110" height="110" viewBox="0 0 110 110" fill="none" xmlns="http://www.w3.org/2000/svg">
<g clip-path="url(#clip0_1206_2642)">
<path d="M49.17 58.37L65.5 58.47L47.94 81.98L40.56 104.66L37.78 104.26L36.88 106.06C35.95 108.08 35.83 108.94 34.29 108.15L30.46 106.63C29.76 106.28 29.87 105.25 30.69 105C31.23 104.83 32.06 104.81 32.62 104.78C34.7 104.68 34.42 103.21 34.75 101.87C36.75 93.88 37.65 87.46 39.92 79.39C41.21 74.77 49.19 58.37 49.19 58.37H49.17Z" fill="#291B4C"/>
<path d="M51.73 58.58L69.26 58.63L71.23 79.59L83.75 97.55L81.42 99.44C81.7 99.95 82.19 100.78 82.66 101.1C83.35 101.57 84.25 102.44 83.44 103.49L78.48 107.39C77.76 107.7 76.99 106.63 77.35 105.82C77.59 105.29 78.41 104.09 78.68 103.57C79.23 102.51 78.57 101.7 77.85 100.55C73.52 93.67 63.41 83.13 63.41 83.13L51.73 58.57V58.58Z" fill="#3F3072"/>
<path d="M78.1999 50.46C78.4999 52.07 80.0499 53.14 81.6699 52.84C82.9999 52.59 83.9499 51.5 84.0799 50.22C84.1099 49.94 84.0999 49.66 84.0399 49.37C83.9099 48.67 83.7599 47.99 83.5899 47.32L77.9699 49.39C78.0499 49.74 78.1299 50.1 78.1999 50.46Z" fill="#FADDDC"/>
<path d="M56.98 24.13C56.38 25.66 57.14 27.38 58.67 27.98C58.83 28.04 74.5 34.34 77.97 49.38L83.59 47.31C79.12 29.7 61.59 22.73 60.82 22.43C59.29 21.84 57.57 22.6 56.98 24.13Z" fill="#2E423A"/>
<path d="M47.07 58.94L70.46 58.7L67.96 33.6C67.96 29.44 70.68 25.35 58.66 19.63H54.31C53.26 19.63 52.49 19.91 51.59 20.62C50.69 21.33 50.03 22.24 49.5 23.24C42.34 36.85 47.06 58.94 47.06 58.94H47.07Z" fill="#4D6059"/>
<path d="M58.84 5.56H48.45V14.86C48.45 16.68 49.93 18.16 51.75 18.16H52.8C53.31 18.16 53.73 18.57 53.73 19.09V22.57L58.64 19.91L58.85 5.57L58.84 5.56Z" fill="#FADDDC"/>
<path d="M48.76 15.02L48.16 14.85C47.62 14.7 47.3 14.13 47.45 13.59L48.28 10.63C48.34 10.4 48.58 10.27 48.8 10.34C49.02 10.41 49.16 10.64 49.09 10.86L48.37 13.42C48.28 13.73 48.46 14.05 48.77 14.13L48.98 14.19C49.21 14.25 49.34 14.49 49.27 14.71C49.2 14.93 48.97 15.07 48.75 15L48.76 15.02Z" fill="#E0B1BB"/>
<path d="M50.22 10.6C50.22 10.91 50.47 11.16 50.78 11.16C51.09 11.16 51.34 10.91 51.34 10.6C51.34 10.29 51.09 10.04 50.78 10.04C50.47 10.04 50.22 10.29 50.22 10.6Z" fill="#757570"/>
<path d="M48.27 36.03L48.57 36.16C49.34 36.51 49.98 36.04 50 35.11L50.45 30.5L47.36 29.12L46.91 33.73C46.89 34.65 47.5 35.68 48.27 36.03Z" fill="#2E423A"/>
<path d="M59.31 18.93L53.72 22.27L57.36 24.91L61.11 20.58L59.31 18.93Z" fill="#2E423A"/>
<path d="M53.72 22.27L51.36 23.8L53.21 19.44L53.72 19.2V22.27Z" fill="#2E423A"/>
<path d="M52.5799 58.3L52.9699 58.22C48.9999 39.83 53.8699 22.5 53.9199 22.32L53.5399 22.21C53.4899 22.38 48.5999 39.81 52.5899 58.3H52.5799Z" fill="#2E423A"/>
<path d="M58.49 15.25C58.49 15.25 57.7 13.45 57.7 13.4V10.97C57.7 10.44 57.27 10.01 56.74 10.01C56.21 10.01 55.78 10.44 55.78 10.97V12.13V12.61C55.78 12.81 55.62 12.97 55.42 12.97C55.22 12.97 55.0599 12.81 55.0599 12.61V11.05C55.0599 10.44 55.17 9.69 54.84 9.19C54.55 8.75 54.13 8.15 53.29 7.95C53.27 7.95 53.24 7.95 53.22 7.94C55.17 7.99 56.84 9.1 57.72 10.72C57.72 10.72 58 11.56 59.2 12.2C59.04 12.98 58.76 15.36 58.66 15.39L58.49 15.24V15.25Z" fill="#674E99"/>
<path d="M46.99 6.88001C47.46 7.85001 48.27 8.11001 49.11 8.20001C50.23 8.07001 51.38 7.94001 52.3 7.86001C52.65 7.87001 52.96 7.90001 53.21 7.95001C55.16 8.00001 56.83 9.11001 57.71 10.72C57.71 10.72 58 11.56 59.19 12.2C59.21 12.13 59.22 12.07 59.23 12.03C59.23 12.03 60.4 11.52 60.51 10.3C60.62 9.08001 60.23 8.71001 60.23 7.64001C60.23 5.52001 58.18 4.75001 58.18 4.75001C57.88 3.22001 56.52 2.22001 54.92 2.08001C46.49 1.30001 46.43 6.16001 46.99 6.88001Z" fill="#3E2967"/>
<path d="M64.56 31.95C64.87 32.3 56.22 48.91 35.1 48.01Z" fill="#2E423A"/>
<path d="M33.39 42C31.75 41.89 30.33 43.13 30.23 44.77C30.14 46.12 30.96 47.31 32.17 47.76C32.43 47.86 32.71 47.92 33 47.94C33.71 47.99 34.41 48.01 35.1 48.01L34.49 42.05C34.13 42.05 33.76 42.03 33.39 42Z" fill="#FADDDC"/>
<path d="M64.1399 27.95C62.8099 27 60.9499 27.3 59.9899 28.64C59.8899 28.78 49.9099 42.41 34.4899 42.06L35.0999 48.02C53.2699 48.04 64.3499 32.78 64.8299 32.1C65.7799 30.76 65.4699 28.91 64.1399 27.96V27.95Z" fill="#4D6059"/>
</g>
<defs>
<clipPath id="clip0_1206_2642">
<rect width="54.12" height="106.44" fill="white" transform="matrix(-1 0 0 1 84.1 2)"/>
</clipPath>
</defs>
</svg>
