<svg width="110" height="110" viewBox="0 0 110 110" fill="none" xmlns="http://www.w3.org/2000/svg">
<g clip-path="url(#clip0_1206_2710)">
<path d="M68.78 56.17L44.12 56.28L49.34 98.71C49.34 98.71 51.93 100.42 51.94 100.48C52.15 101.84 51.94 102.99 49.93 101.72C49.35 101.35 48.89 101.33 48.36 101.81C47.73 102.38 48.21 104.04 48.77 104.93L53.72 108.87C54.31 109.34 55.18 109.39 55.73 108.87C56.58 108.09 56.34 106.84 55.98 105.83C54.61 101.91 55.03 101.46 55.03 101.46L55.8 101.72C56.3 101.89 56.8 101.5 56.76 100.98C56.36 95.83 55.34 69.39 55.16 64.64C55.14 64.24 55.46 63.9 55.86 63.89L56.92 63.87C57.24 63.87 57.55 64.09 57.55 64.41C57.58 70.77 57.66 80.74 57.75 80.74C57.75 80.74 58.22 84.99 58.47 85.96C58.82 87.34 60.24 87.15 60.73 86.12C61.15 85.23 61.27 82.51 61.35 81.8H63.53L68.78 56.16V56.17Z" fill="#3E2967"/>
<path d="M54.34 18.26H58.95V14.91H54.34V18.26Z" fill="#FADDDC"/>
<path d="M51.44 11.26H52V8.70999C52 8.29999 51.67 7.95999 51.25 7.95999H50.95C50.54 7.95999 50.2 8.28999 50.2 8.70999L50.55 10.38C50.55 10.87 50.94 11.26 51.43 11.26H51.44Z" fill="#FADDDC"/>
<path d="M62.56 11.26H62V8.70999C62 8.29999 62.33 7.95999 62.75 7.95999H63.05C63.46 7.95999 63.8 8.28999 63.8 8.70999L63.45 10.38C63.45 10.87 63.06 11.26 62.57 11.26H62.56Z" fill="#FADDDC"/>
<path d="M55.64 1.21C57.02 0.939996 59.14 0.639996 60.66 2.25C62.18 3.86 62.92 4.91 62.92 6.36C62.92 7.81 62.82 9.04 62.57 10.02C62.32 11 61.27 14.28 59.24 15.59C58.27 16.22 55.68 16.6 54.38 15.59C53.08 14.58 51.95 13.26 51.63 11.18C51.31 9.1 51.29 8.72 50.94 7.74C50.59 6.76 51.16 4.62 51.29 4.08C51.42 3.54 53.02 1.71 55.64 1.21Z" fill="#3E2967"/>
<path d="M74.93 58.02C74.59 59.86 75.87 61.69 77.78 62.1C79.35 62.44 80.87 61.71 81.55 60.42C81.7 60.14 81.81 59.83 81.87 59.5C82.02 58.7 82.13 57.91 82.22 57.13L75.12 56.78C75.06 57.19 75 57.6 74.92 58.02H74.93Z" fill="#FADDDC"/>
<path d="M62.3799 20.61C61.0799 21.96 61.1999 24.12 62.6499 25.44C62.7999 25.58 77.5599 39.32 75.1299 56.78L82.2299 57.13C84.6199 36.5 68.0899 21.2 67.3499 20.54C65.8999 19.22 63.6799 19.25 62.3799 20.6V20.61Z" fill="#4D6059"/>
<path d="M40.7499 43.23C40.8599 44.46 39.6899 45.52 38.1499 45.61C38.0799 45.61 38.0099 45.61 37.9499 45.61C36.4899 45.61 35.2499 44.71 35.1499 43.54C35.1199 43.15 35.0899 42.78 35.0699 42.4H40.7099C40.7299 42.67 40.7399 42.94 40.7599 43.22L40.7499 43.23Z" fill="#FADDDC"/>
<path d="M47.35 19.23C48.7 18.63 50.4 19.02 51.16 20.09C51.92 21.16 51.44 22.52 50.1 23.12C49.58 23.35 39.74 26.96 40.7 42.41H35.06C34.04 24.24 46.71 19.51 47.35 19.23Z" fill="#4D6059"/>
<path d="M42.62 57.32H70.13L70.12 27.42C70.12 22.28 65.95 18.11 60.81 18.11H51.92C46.78 18.11 42.61 22.28 42.61 27.42L42.63 57.32H42.62Z" fill="#4D6059"/>
<path d="M53 18.3H59.77V17.27H53V18.3Z" fill="#2E423A"/>
</g>
<defs>
<clipPath id="clip0_1206_2710">
<rect width="47.46" height="108.24" fill="white" transform="translate(35 1)"/>
</clipPath>
</defs>
</svg>
