<svg width="110" height="110" viewBox="0 0 110 110" fill="none" xmlns="http://www.w3.org/2000/svg">
<g clip-path="url(#clip0_1206_2623)">
<path d="M49.22 55.73L65.24 54.71L53.74 75.76L58.48 96.72L56.13 97.46V99.5C56.31 100.93 56.31 101.86 54.79 102.69L50.88 103.69C50.11 103.75 49.75 102.8 50.35 102.15C50.75 101.72 51.59 101.42 51.95 100.94C53.52 98.82 52.7 98.32 52.4 96.98C50.61 88.97 44.19 75.45 44.19 75.45L49.23 55.72L49.22 55.73Z" fill="#291B4C"/>
<path d="M53.68 53.78L69.25 54.15L66.45 102.87L64.13 103.62C64.12 104.21 64.13 105.2 64.38 105.74C64.74 106.54 65.09 107.8 63.89 108.22L57.8 108.67C57.04 108.52 56.9 107.16 57.6 106.69C58.06 106.38 59.33 105.83 59.81 105.55C60.79 104.96 60.75 103.89 60.56 102.51C59.18 92.54 53.69 53.77 53.69 53.77L53.68 53.78Z" fill="#3E2C6D"/>
<path d="M47.06 59.48L70.45 59.24C70.45 59.24 74.88 25.86 58.64 20.17H54.29C53.24 20.17 52.47 20.45 51.57 21.16C50.67 21.87 50.01 22.78 49.48 23.78C42.32 37.39 47.04 59.48 47.04 59.48H47.06Z" fill="#4D6059"/>
<path d="M48.2501 36.57L48.5501 36.7C49.3201 37.05 49.9601 36.58 49.9801 35.65L50.4301 31.04L47.3401 29.66L46.8901 34.27C46.8701 35.19 47.4801 36.22 48.2501 36.57Z" fill="#2E423A"/>
<path d="M59.3 19.47L53.7 22.81L57.34 25.45L61.1 21.12L59.3 19.47Z" fill="#2E423A"/>
<path d="M53.7 22.81L51.34 24.35L53.19 19.98L53.7 19.74V22.81Z" fill="#2E423A"/>
<path d="M52.56 58.85L52.95 58.77C48.98 40.38 53.85 23.05 53.9 22.87L53.52 22.76C53.47 22.93 48.58 40.36 52.57 58.85H52.56Z" fill="#2E423A"/>
<path d="M62.4401 29.62C62.8801 29.77 63.8401 48.47 45.1701 58.39Z" fill="#2E423A"/>
<path d="M40.6501 54.07C39.1801 54.81 38.5901 56.6 39.3301 58.06C39.9401 59.27 41.2501 59.88 42.5201 59.65C42.7901 59.6 43.0701 59.51 43.3301 59.38C43.9701 59.06 44.5801 58.72 45.1801 58.37L41.6301 53.54C41.3101 53.72 40.9901 53.89 40.6601 54.06L40.6501 54.07Z" fill="#FADDDC"/>
<path d="M60.05 26.38C58.42 26.23 56.97 27.44 56.82 29.07C56.8 29.24 55.1 46.05 41.62 53.55L45.17 58.38C60.84 49.2 62.67 30.42 62.75 29.6C62.89 27.97 61.69 26.53 60.05 26.38Z" fill="#4D6059"/>
<path d="M58.88 5.56H48.49V14.86C48.49 16.68 49.97 18.16 51.79 18.16H52.84C53.35 18.16 53.77 18.57 53.77 19.09V22.57L58.68 19.91L58.89 5.57L58.88 5.56Z" fill="#FADDDC"/>
<path d="M48.8 15.02L48.2 14.85C47.66 14.7 47.34 14.13 47.49 13.59L48.32 10.63C48.38 10.4 48.62 10.27 48.84 10.34C49.06 10.41 49.2 10.64 49.13 10.86L48.41 13.42C48.32 13.73 48.5 14.05 48.81 14.13L49.02 14.19C49.25 14.25 49.38 14.49 49.31 14.71C49.24 14.93 49.01 15.07 48.79 15L48.8 15.02Z" fill="#E0B1BB"/>
<path d="M50.26 10.6C50.26 10.91 50.51 11.16 50.82 11.16C51.13 11.16 51.38 10.91 51.38 10.6C51.38 10.29 51.13 10.04 50.82 10.04C50.51 10.04 50.26 10.29 50.26 10.6Z" fill="#757570"/>
<path d="M58.53 15.25C58.53 15.25 57.74 13.45 57.74 13.4V10.97C57.74 10.44 57.31 10.01 56.78 10.01C56.25 10.01 55.82 10.44 55.82 10.97V12.13V12.61C55.82 12.81 55.66 12.97 55.46 12.97C55.26 12.97 55.1 12.81 55.1 12.61V11.05C55.1 10.44 55.21 9.69 54.88 9.19C54.59 8.75 54.17 8.15 53.33 7.95C53.31 7.95 53.28 7.95 53.26 7.94C55.21 7.99 56.88 9.1 57.76 10.72C57.76 10.72 58.04 11.56 59.24 12.2C59.08 12.98 58.8 15.36 58.7 15.39L58.53 15.24V15.25Z" fill="#674E99"/>
<path d="M47.03 6.88001C47.5 7.85001 48.31 8.11001 49.15 8.20001C50.27 8.07001 51.42 7.94001 52.34 7.86001C52.69 7.87001 53 7.90001 53.25 7.95001C55.2 8.00001 56.87 9.11001 57.75 10.72C57.75 10.72 58.04 11.56 59.23 12.2C59.25 12.13 59.26 12.07 59.27 12.03C59.27 12.03 60.44 11.52 60.55 10.3C60.66 9.08001 60.27 8.71001 60.27 7.64001C60.27 5.52001 58.22 4.75001 58.22 4.75001C57.92 3.22001 56.56 2.22001 54.96 2.08001C46.53 1.30001 46.47 6.16001 47.03 6.88001Z" fill="#3E2967"/>
</g>
<defs>
<clipPath id="clip0_1206_2623">
<rect width="31.99" height="106.68" fill="white" transform="matrix(-1 0 0 1 71 2)"/>
</clipPath>
</defs>
</svg>
