<svg width="58" height="107" viewBox="0 0 58 107" fill="none" xmlns="http://www.w3.org/2000/svg">
<g clip-path="url(#clip0_134_742)">
<path d="M31.1 56.3399L19.13 55.8799L12.54 77.9899L0.00999512 95.6899L2.34 97.5499C2.06 98.0499 1.57 98.8699 1.1 99.1899C0.409995 99.6499 -0.490005 100.52 0.319995 101.55L5.28 105.4C6 105.71 6.77 104.65 6.41 103.85C6.17 103.32 5.35 102.14 5.08 101.64C4.52999 100.59 5.18999 99.7999 5.91 98.6599C10.24 91.8699 20.35 81.4799 20.35 81.4799L31.09 56.3399H31.1Z" fill="#291B4C"/>
<path d="M34.03 54.8L14.37 55.6L35.83 80.35L43.21 102.71L45.99 102.32L46.89 104.09C47.82 106.08 47.94 106.93 49.48 106.16L53.31 104.66C54.01 104.31 53.9 103.3 53.08 103.05C52.54 102.89 51.71 102.86 51.15 102.83C49.07 102.73 49.35 101.28 49.02 99.96C47.02 92.08 46.12 85.7501 43.85 77.8001C42.56 73.2401 34.01 54.8101 34.01 54.8101L34.03 54.8Z" fill="#3F3072"/>
<path d="M55.01 42.51C56.6 42.92 57.56 44.54 57.15 46.13C56.81 47.44 55.66 48.32 54.38 48.36C54.1 48.36 53.82 48.34 53.53 48.27C52.84 48.09 52.17 47.89 51.51 47.68L53.95 42.21C54.3 42.32 54.65 42.42 55.01 42.51Z" fill="#FADDDC"/>
<path d="M30.1899 19.56C31.7599 19.07 33.4199 19.94 33.9199 21.51C33.9699 21.68 39.1999 37.74 53.9699 42.21L51.5299 47.68C34.2599 42.03 28.4899 24.07 28.2499 23.28C27.7599 21.71 28.6399 20.05 30.1999 19.56H30.1899Z" fill="#2E423A"/>
<path d="M36.69 57.66L13.3 57.42L15.8 32.32C15.8 28.16 13.08 24.07 25.1 18.35H29.4501C30.5 18.35 31.27 18.63 32.17 19.34C33.07 20.05 33.73 20.96 34.26 21.96C41.42 35.57 36.7001 57.66 36.7001 57.66H36.69Z" fill="#4D6059"/>
<path d="M10.45 54.6999C10.67 56.3299 9.51997 57.8199 7.88997 58.0399C6.54997 58.2199 5.29997 57.4799 4.77997 56.2999C4.66997 56.0499 4.58997 55.7699 4.54997 55.4799C4.45997 54.7699 4.38997 54.0799 4.33997 53.3899L10.32 53.6099C10.35 53.9699 10.39 54.3399 10.44 54.6999H10.45Z" fill="#FADDDC"/>
<path d="M22.4399 23.09C23.4799 24.36 23.2899 26.23 22.0299 27.27C21.8999 27.38 8.94994 38.23 10.3299 53.6L4.34994 53.38C3.12994 35.26 17.6299 23.19 18.2699 22.66C19.5399 21.62 21.4099 21.81 22.4499 23.08L22.4399 23.09Z" fill="#4D6059"/>
<path d="M24.93 4.27002H35.32V13.57C35.32 15.39 33.84 16.87 32.02 16.87H30.97C30.46 16.87 30.04 17.28 30.04 17.8V21.28L25.13 18.62L24.92 4.28002L24.93 4.27002Z" fill="#FADDDC"/>
<path d="M35 13.74L35.6 13.57C36.14 13.42 36.46 12.85 36.31 12.31L35.48 9.34997C35.42 9.11997 35.18 8.98997 34.96 9.05997C34.74 9.12997 34.6 9.35996 34.67 9.57996L35.39 12.14C35.48 12.45 35.3 12.77 34.99 12.85L34.78 12.91C34.55 12.97 34.42 13.21 34.49 13.43C34.56 13.65 34.79 13.79 35.01 13.72L35 13.74Z" fill="#E0B1BB"/>
<path d="M33.5501 9.31C33.5501 9.62 33.3001 9.87 32.9901 9.87C32.6801 9.87 32.4301 9.62 32.4301 9.31C32.4301 9 32.6801 8.75 32.9901 8.75C33.3001 8.75 33.5501 9 33.5501 9.31Z" fill="#757570"/>
<path d="M35.4901 34.74L35.1901 34.87C34.4201 35.22 33.7801 34.75 33.7601 33.82L33.3101 29.21L36.4001 27.83L36.8501 32.44C36.8701 33.36 36.2601 34.39 35.4901 34.74Z" fill="#2E423A"/>
<path d="M24.45 17.64L30.04 20.98L26.4 23.63L22.65 19.3L24.45 17.64Z" fill="#2E423A"/>
<path d="M30.04 20.98L32.41 22.52L30.56 18.15L30.05 17.92L30.04 20.98Z" fill="#2E423A"/>
<path d="M31.19 57.0201L30.8 56.9401C34.77 38.5501 29.9 21.2201 29.85 21.0401L30.23 20.9301C30.28 21.1001 35.17 38.5301 31.18 57.0201H31.19Z" fill="#2E423A"/>
<path d="M26.0501 8.73001C26.9301 7.12001 28.6001 6.01001 30.5501 5.95001C31.4101 5.78001 33.0901 5.92001 34.0801 5.68001C35.6101 5.32001 36.0401 3.24001 35.6601 1.77001C35.3401 0.50001 31.2101 -0.01999 28.5501 1.03001C26.9901 1.65001 24.4801 2.96001 23.9901 6.08001C23.7401 7.67001 24.5301 10.03 24.5301 10.03C24.5401 10.07 24.5601 10.13 24.5701 10.2C25.7701 9.56001 26.0501 8.72001 26.0501 8.72001V8.73001Z" fill="#3E2967"/>
<path d="M25.2799 13.2499C25.2799 13.2499 26.0699 11.4499 26.0699 11.3999V8.96994C26.0699 8.43994 26.4999 8.00994 27.0299 8.00994C27.5599 8.00994 27.9899 8.43994 27.9899 8.96994V10.1299V10.6099C27.9899 10.8099 28.1499 10.9699 28.3499 10.9699C28.5499 10.9699 28.7099 10.8099 28.7099 10.6099V9.04994C28.7099 8.43994 28.5999 7.68994 28.9299 7.18994C29.2199 6.74994 29.6399 6.14994 30.4799 5.94994C30.4999 5.94994 30.5299 5.94994 30.5499 5.93994C28.5999 5.98994 26.9299 7.09994 26.0499 8.71994C26.0499 8.71994 25.7699 9.55994 24.5699 10.1999C24.7299 10.9799 25.0099 13.3599 25.1099 13.3899L25.2799 13.2399V13.2499Z" fill="#674E99"/>
<path d="M28.85 0.0799625C27.24 0.229963 25.89 1.22996 25.58 2.74996C25.58 2.74996 23.53 3.51996 23.53 5.63996C23.53 7.24996 23.92 8.20996 24.68 8.57996L25.57 9.03996V8.91996C25.57 8.85996 25.58 8.79996 25.6 8.73996C25.83 6.34996 28.7 5.81996 29.62 5.71996H29.72C29.72 5.71996 32.31 5.91996 34.65 6.20996C35.49 6.11996 36.3 5.85996 36.78 4.88996C37.33 4.16996 37.28 -0.690037 28.85 0.0899625V0.0799625Z" fill="#3E2967"/>
</g>
<defs>
<clipPath id="clip0_134_742">
<rect width="57.25" height="106.42" fill="white"/>
</clipPath>
</defs>
</svg>
