<svg width="58" height="107" viewBox="0 0 58 107" fill="none" xmlns="http://www.w3.org/2000/svg">
<g clip-path="url(#clip0_134_783)">
<path d="M26.15 56.3399L38.12 55.8799L44.71 77.9899L57.23 95.6899L54.9 97.5499C55.18 98.0499 55.67 98.8699 56.14 99.1899C56.83 99.6499 57.73 100.52 56.92 101.55L51.96 105.4C51.24 105.71 50.47 104.65 50.83 103.85C51.07 103.32 51.89 102.14 52.16 101.64C52.71 100.59 52.05 99.7999 51.33 98.6599C47 91.8699 36.89 81.4799 36.89 81.4799L26.15 56.3399Z" fill="#291B4C"/>
<path d="M23.22 54.8L42.88 55.6L21.42 80.35L14.04 102.71L11.26 102.32L10.36 104.09C9.43002 106.08 9.31002 106.93 7.77002 106.16L3.94002 104.66C3.24002 104.31 3.35002 103.3 4.17002 103.05C4.71002 102.89 5.54002 102.86 6.10002 102.83C8.18002 102.73 7.90002 101.28 8.23002 99.96C10.23 92.08 11.13 85.7501 13.4 77.8001C14.69 73.2401 23.24 54.8101 23.24 54.8101L23.22 54.8Z" fill="#3F3072"/>
<path d="M2.23003 42.51C0.64003 42.92 -0.31997 44.54 0.0900299 46.13C0.43003 47.44 1.58003 48.32 2.86003 48.36C3.14003 48.36 3.42003 48.34 3.71003 48.27C4.40003 48.09 5.07003 47.89 5.73003 47.68L3.29003 42.21C2.94003 42.32 2.59003 42.42 2.23003 42.51Z" fill="#FADDDC"/>
<path d="M27.06 19.56C25.49 19.07 23.83 19.94 23.33 21.51C23.28 21.68 18.05 37.74 3.28003 42.21L5.72003 47.68C22.99 42.03 28.76 24.07 29 23.28C29.49 21.71 28.61 20.05 27.05 19.56H27.06Z" fill="#2E423A"/>
<path d="M20.56 57.66L43.95 57.42L41.45 32.32C41.45 28.16 44.17 24.07 32.15 18.35H27.8C26.75 18.35 25.98 18.63 25.08 19.34C24.18 20.05 23.52 20.96 22.99 21.96C15.83 35.57 20.55 57.66 20.55 57.66H20.56Z" fill="#4D6059"/>
<path d="M46.8 54.6999C46.58 56.3299 47.73 57.8199 49.36 58.0399C50.7 58.2199 51.95 57.4799 52.47 56.2999C52.58 56.0499 52.66 55.7699 52.7 55.4799C52.79 54.7699 52.86 54.0799 52.91 53.3899L46.93 53.6099C46.9 53.9699 46.86 54.3399 46.81 54.6999H46.8Z" fill="#FADDDC"/>
<path d="M34.8001 23.09C33.7601 24.36 33.9501 26.23 35.2101 27.27C35.3401 27.38 48.2901 38.23 46.9101 53.6L52.8901 53.38C54.1101 35.26 39.6101 23.19 38.9701 22.66C37.7001 21.62 35.8301 21.81 34.7901 23.08L34.8001 23.09Z" fill="#4D6059"/>
<path d="M32.3201 4.27002H21.9301V13.57C21.9301 15.39 23.4101 16.87 25.2301 16.87H26.2801C26.7901 16.87 27.2101 17.28 27.2101 17.8V21.28L32.1201 18.62L32.3301 4.28002L32.3201 4.27002Z" fill="#FADDDC"/>
<path d="M22.2401 13.74L21.6401 13.57C21.1001 13.42 20.7801 12.85 20.9301 12.31L21.7601 9.34997C21.8201 9.11997 22.0601 8.98997 22.2801 9.05997C22.5001 9.12997 22.6401 9.35996 22.5701 9.57996L21.8501 12.14C21.7601 12.45 21.9401 12.77 22.2501 12.85L22.4601 12.91C22.6901 12.97 22.8201 13.21 22.7501 13.43C22.6801 13.65 22.4501 13.79 22.2301 13.72L22.2401 13.74Z" fill="#E0B1BB"/>
<path d="M23.7 9.31C23.7 9.62 23.95 9.87 24.26 9.87C24.57 9.87 24.82 9.62 24.82 9.31C24.82 9 24.57 8.75 24.26 8.75C23.95 8.75 23.7 9 23.7 9.31Z" fill="#757570"/>
<path d="M21.75 34.74L22.05 34.87C22.82 35.22 23.46 34.75 23.48 33.82L23.93 29.21L20.84 27.83L20.39 32.44C20.37 33.36 20.98 34.39 21.75 34.74Z" fill="#2E423A"/>
<path d="M32.7999 17.64L27.2 20.98L30.84 23.63L34.5999 19.3L32.7999 17.64Z" fill="#2E423A"/>
<path d="M27.2 20.98L24.84 22.52L26.69 18.15L27.2 17.92V20.98Z" fill="#2E423A"/>
<path d="M26.06 57.0201L26.45 56.9401C22.48 38.5501 27.35 21.2201 27.4 21.0401L27.02 20.9301C26.97 21.1001 22.08 38.5301 26.07 57.0201H26.06Z" fill="#2E423A"/>
<path d="M31.2 8.73001C30.32 7.12001 28.65 6.01001 26.7 5.95001C25.84 5.78001 24.16 5.92001 23.17 5.68001C21.64 5.32001 21.21 3.24001 21.59 1.77001C21.91 0.50001 26.04 -0.01999 28.7 1.03001C30.26 1.65001 32.77 2.96001 33.26 6.08001C33.51 7.67001 32.72 10.03 32.72 10.03C32.71 10.07 32.69 10.13 32.68 10.2C31.48 9.56001 31.2 8.72001 31.2 8.72001V8.73001Z" fill="#3E2967"/>
<path d="M31.9699 13.2499C31.9699 13.2499 31.18 11.4499 31.18 11.3999V8.96994C31.18 8.43994 30.7499 8.00994 30.2199 8.00994C29.6899 8.00994 29.26 8.43994 29.26 8.96994V10.1299V10.6099C29.26 10.8099 29.1 10.9699 28.9 10.9699C28.6999 10.9699 28.54 10.8099 28.54 10.6099V9.04994C28.54 8.43994 28.65 7.68994 28.32 7.18994C28.03 6.74994 27.61 6.14994 26.77 5.94994C26.75 5.94994 26.72 5.94994 26.7 5.93994C28.65 5.98994 30.32 7.09994 31.2 8.71994C31.2 8.71994 31.48 9.55994 32.68 10.1999C32.52 10.9799 32.2399 13.3599 32.1399 13.3899L31.9699 13.2399V13.2499Z" fill="#674E99"/>
<path d="M28.4001 0.0799625C30.0101 0.229963 31.3601 1.22996 31.6701 2.74996C31.6701 2.74996 33.7201 3.51996 33.7201 5.63996C33.7201 7.24996 33.3301 8.20996 32.5701 8.57996L31.6801 9.03996V8.91996C31.6801 8.85996 31.6701 8.79996 31.6501 8.73996C31.4201 6.34996 28.5501 5.81996 27.6301 5.71996H27.5301C27.5301 5.71996 24.9401 5.91996 22.6001 6.20996C21.7601 6.11996 20.9501 5.85996 20.4701 4.88996C19.9201 4.16996 19.9701 -0.690037 28.4001 0.0899625V0.0799625Z" fill="#3E2967"/>
</g>
<defs>
<clipPath id="clip0_134_783">
<rect width="57.25" height="106.42" fill="white"/>
</clipPath>
</defs>
</svg>
