<svg width="36" height="106" viewBox="0 0 36 106" fill="none" xmlns="http://www.w3.org/2000/svg">
<g clip-path="url(#clip0_133_785)">
<path d="M23.79 52.5799H9.79004L19.27 72.6099L14.53 93.5699L16.88 94.3099V96.3499C16.7 97.7799 16.7 98.7099 18.22 99.5399L22.13 100.54C22.9 100.6 23.26 99.6499 22.66 98.9999C22.26 98.5699 21.42 98.2699 21.06 97.7899C19.49 95.6699 20.31 95.1699 20.61 93.8299C22.4 85.8199 28.82 72.2999 28.82 72.2999L23.78 52.5699L23.79 52.5799Z" fill="#291B4C"/>
<path d="M19.34 50.64L5.77002 51.03L6.57002 99.73L8.89002 100.48C8.90002 101.07 8.89002 102.06 8.64002 102.6C8.28002 103.4 7.93002 104.66 9.13002 105.08L15.22 105.53C15.98 105.38 16.12 104.02 15.42 103.55C14.96 103.24 13.69 102.69 13.21 102.41C12.23 101.82 12.27 100.75 12.46 99.37C13.84 89.4 19.33 50.63 19.33 50.63L19.34 50.64Z" fill="#3E2C6D"/>
<path d="M34.34 50.44C35.63 51.46 35.8501 53.33 34.8301 54.62C33.9901 55.68 32.58 56.02 31.39 55.54C31.13 55.44 30.88 55.29 30.65 55.11C30.09 54.67 29.56 54.21 29.05 53.75L33.5 49.74C33.78 49.98 34.06 50.21 34.35 50.44H34.34Z" fill="#FADDDC"/>
<path d="M20.94 19.4C22.57 19.59 23.74 21.06 23.56 22.69C23.54 22.86 21.81 39.66 33.5 49.74L29.05 53.75C15.55 41.59 17.55 22.83 17.65 22.01C17.84 20.38 19.31 19.22 20.94 19.4Z" fill="#5DC9A8"/>
<path d="M27.46 54.0401L2.73999 53.8001L5.20999 33.6801C1.19999 32.9101 3.80999 19.3301 15.17 18.1801H19.52C21.02 18.1801 22.44 18.9401 23.22 20.2201C28.89 29.4801 27.46 54.0401 27.46 54.0401Z" fill="#74E0C1"/>
<path d="M8.55999 56.02C9.26999 57.5 8.64999 59.28 7.16999 59.99C5.94999 60.57 4.53999 60.26 3.67999 59.3C3.48999 59.09 3.32999 58.86 3.20999 58.59C2.89999 57.95 2.61999 57.31 2.35999 56.67L8.11999 55.02C8.25999 55.35 8.40999 55.69 8.56999 56.02H8.55999Z" fill="#FADDDC"/>
<path d="M10.13 22.2499C11.51 23.1299 11.92 24.9699 11.04 26.3499C10.95 26.4999 2.02996 40.8399 8.10996 55.0199L2.34996 56.6699C-4.45004 39.8199 5.57996 23.8399 6.01996 23.1499C6.89996 21.7699 8.73996 21.3699 10.12 22.2499H10.13Z" fill="#74E0C1"/>
<path d="M13.88 18.34C16.01 17.84 18.38 17.8 21.06 18.34L20.36 36.58L13.88 18.34Z" fill="white"/>
<path d="M14.99 4.10999H25.38V7.59999V13.41C25.38 15.23 23.9 16.71 22.08 16.71H21.03C20.52 16.71 20.1 17.12 20.1 17.64C20.1 19.21 18.42 20.21 17.04 19.46L15.19 18.46L14.98 4.11999L14.99 4.10999Z" fill="#FADDDC"/>
<path d="M25.07 13.5801L25.67 13.4101C26.21 13.2601 26.53 12.6901 26.38 12.1501L25.55 9.19005C25.49 8.96005 25.25 8.83005 25.03 8.90005C24.81 8.97005 24.67 9.20005 24.74 9.42005L25.46 11.9801C25.55 12.2901 25.37 12.6101 25.06 12.6901L24.85 12.7501C24.62 12.8101 24.49 13.0501 24.56 13.2701C24.63 13.4901 24.86 13.6301 25.08 13.5601L25.07 13.5801Z" fill="#E0B1BB"/>
<path d="M23.61 9.14997C23.61 9.45997 23.36 9.70997 23.05 9.70997C22.74 9.70997 22.49 9.45997 22.49 9.14997C22.49 8.83997 22.74 8.58997 23.05 8.58997C23.36 8.58997 23.61 8.83997 23.61 9.14997Z" fill="#757570"/>
<path d="M18.1001 8.86002C18.1001 8.32983 17.6702 7.90002 17.1401 7.90002C16.6099 7.90002 16.1801 8.32983 16.1801 8.86002V10.95C16.1801 11.4802 16.6099 11.91 17.1401 11.91C17.6702 11.91 18.1001 11.4802 18.1001 10.95V8.86002Z" fill="#FADDDC"/>
<path d="M15.67 2.39C15.8 1.78 16.34 1.32 16.99 1.32C17.13 1.32 17.26 1.35 17.39 1.39C17.57 0.85 18.07 0.46 18.66 0.46C19.05 0.46 19.4 0.63 19.64 0.89C20.09 0.35 20.75 0 21.5 0C22.37 0 23.13 0.47 23.55 1.17C23.78 1.04 24.03 0.97 24.31 0.97C25.13 0.97 25.8 1.61 25.87 2.41C26.84 2.52 27.58 3.38 27.48 4.4C27.38 5.35 26.51 6.04 25.56 6.04H19.42C18.83 6.04 18.35 6.52 18.35 7.11V7.53C18.35 8.54 17.53 9.42 16.53 9.35C14.54 9.22 15.61 11.72 15.16 12.58C15.01 12.87 14.7 12.66 14.7 12.58L13.79 6.28C13.16 4.52 14.79 2.43 15.67 2.39Z" fill="#3E2967"/>
<path d="M15.67 38.51H8.05005V40.28H15.67V38.51Z" fill="#5DC9A8"/>
<path d="M15.89 40.74H11.29V42.51H15.89V40.74Z" fill="#5DC9A8"/>
<path d="M25.21 39.2H20.61V40.97H25.21V39.2Z" fill="#5DC9A8"/>
<path d="M26.26 46.96H21.66V48.73H26.26V46.96Z" fill="#5DC9A8"/>
<path d="M12.05 49.86H7.44995V51.63H12.05V49.86Z" fill="#5DC9A8"/>
<path d="M16.2801 46.66H11.6801V48.43H16.2801V46.66Z" fill="#5DC9A8"/>
<path d="M15.1001 26.83H9.93005V28.6H15.1001V26.83Z" fill="#5DC9A8"/>
<path d="M12.91 34.15H9.70996V35.92H12.91V34.15Z" fill="#5DC9A8"/>
<path d="M26.75 32.09H23.55V33.86H26.75V32.09Z" fill="#5DC9A8"/>
<path d="M16.09 29.2H12.89V30.9699H16.09V29.2Z" fill="#5DC9A8"/>
<path d="M26.0499 43.83H14.6899V45.6H26.0499V43.83Z" fill="#5DC9A8"/>
</g>
<defs>
<clipPath id="clip0_133_785">
<rect width="35.47" height="105.53" fill="white"/>
</clipPath>
</defs>
</svg>
