<svg width="110" height="110" viewBox="0 0 110 110" fill="none" xmlns="http://www.w3.org/2000/svg">
<g clip-path="url(#clip0_1203_2574)">
<path d="M48.02 56.02L65.63 56.82L57.71 65.95L44.19 79.44L40.47 102.8L37.69 102.41L36.79 104.18C35.86 106.17 35.74 107.02 34.2 106.25L30.37 104.75C29.67 104.4 29.78 103.39 30.6 103.14C31.14 102.98 31.97 102.95 32.53 102.92C34.61 102.82 34.63 101.41 34.66 100.05C34.97 89.11 35.85 80.54 36.62 77.57C37.81 72.99 48.03 56.03 48.03 56.03L48.02 56.02Z" fill="#291B4C"/>
<path d="M51.34 57.02L67.93 56.86L67.47 79.21L79.99 96.91L77.66 98.77C77.94 99.27 78.43 100.09 78.9 100.41C79.59 100.87 80.49 101.74 79.68 102.77L74.72 106.62C74 106.93 73.23 105.87 73.59 105.07C73.83 104.54 74.65 103.36 74.92 102.86C75.47 101.81 74.81 101.02 74.09 99.88C69.76 93.09 59.65 82.7 59.65 82.7L51.34 57.02Z" fill="#3F3072"/>
<path d="M46.01 57.04L68.4 56.82C69.64 56.81 70.6 55.72 70.45 54.48L68.26 36.68C67.16 30.32 67.6 22.08 58.3 21.18H53.95C52.46 21.18 51.05 21.92 50.26 23.19C44.57 32.44 46 57.03 46 57.03L46.01 57.04Z" fill="#74E0C1"/>
<path d="M59.59 21.34C57.46 20.84 55.09 20.8 52.41 21.34L53.11 39.58L59.59 21.34Z" fill="white"/>
<path d="M58.47 7.10999H48.08V10.6V16.41C48.08 18.23 49.56 19.71 51.38 19.71H52.43C52.94 19.71 53.36 20.12 53.36 20.64C53.36 22.21 55.04 23.21 56.42 22.46L58.27 21.46L58.48 7.11999L58.47 7.10999Z" fill="#FADDDC"/>
<path d="M48.4 16.58L47.8 16.41C47.26 16.26 46.94 15.69 47.09 15.15L47.92 12.19C47.98 11.96 48.22 11.83 48.44 11.9C48.66 11.97 48.8 12.2 48.73 12.42L48.01 14.98C47.92 15.29 48.1 15.61 48.41 15.69L48.62 15.75C48.85 15.81 48.98 16.05 48.91 16.27C48.84 16.49 48.61 16.63 48.39 16.56L48.4 16.58Z" fill="#E0B1BB"/>
<path d="M49.86 12.15C49.86 12.46 50.11 12.71 50.42 12.71C50.73 12.71 50.98 12.46 50.98 12.15C50.98 11.84 50.73 11.59 50.42 11.59C50.11 11.59 49.86 11.84 49.86 12.15Z" fill="#757570"/>
<path d="M55.36 11.86C55.36 11.3298 55.7898 10.9 56.32 10.9C56.8502 10.9 57.28 11.3298 57.28 11.86V13.95C57.28 14.4802 56.8502 14.91 56.32 14.91C55.7898 14.91 55.36 14.4802 55.36 13.95V11.86Z" fill="#FADDDC"/>
<path d="M57.79 5.39C57.66 4.78 57.12 4.32 56.47 4.32C56.33 4.32 56.2 4.35 56.07 4.39C55.89 3.85 55.39 3.46 54.8 3.46C54.41 3.46 54.06 3.63 53.82 3.89C53.38 3.35 52.71 3 51.96 3C51.09 3 50.33 3.47 49.91 4.17C49.68 4.04 49.43 3.97 49.15 3.97C48.33 3.97 47.66 4.61 47.59 5.41C46.62 5.52 45.88 6.38 45.98 7.4C46.08 8.35 46.95 9.04 47.9 9.04H54.04C54.63 9.04 55.11 9.52 55.11 10.11V10.53C55.11 11.54 55.93 12.42 56.93 12.35C58.92 12.22 57.85 14.72 58.3 15.58C58.45 15.87 58.76 15.66 58.76 15.58L59.67 9.28C60.3 7.52 58.67 5.43 57.79 5.39Z" fill="#3E2967"/>
<path d="M57.8 41.51H65.42V43.28H57.8V41.51Z" fill="#5DC9A8"/>
<path d="M57.5801 43.74H62.1801V45.51H57.5801V43.74Z" fill="#5DC9A8"/>
<path d="M48.25 42.2H52.85V43.97H48.25V42.2Z" fill="#5DC9A8"/>
<path d="M47.2001 49.96H51.8V51.73H47.2001V49.96Z" fill="#5DC9A8"/>
<path d="M57.18 49.66H61.78V51.43H57.18V49.66Z" fill="#5DC9A8"/>
<path d="M58.36 29.83H63.53V31.6H58.36V29.83Z" fill="#5DC9A8"/>
<path d="M60.56 37.15H63.76V38.92H60.56V37.15Z" fill="#5DC9A8"/>
<path d="M46.72 35.09H49.92V36.86H46.72V35.09Z" fill="#5DC9A8"/>
<path d="M57.3699 32.2H60.5699V33.97H57.3699V32.2Z" fill="#5DC9A8"/>
<path d="M47.42 46.83H58.78V48.6H47.42V46.83Z" fill="#5DC9A8"/>
<path d="M43.07 52.24C41.57 52.9 40.89 54.66 41.55 56.16C42.09 57.39 43.38 58.07 44.65 57.91C44.93 57.87 45.2 57.8 45.47 57.68C46.12 57.39 46.75 57.09 47.36 56.77L44.06 51.77C43.73 51.93 43.4 52.09 43.07 52.24Z" fill="#FADDDC"/>
<path d="M64.6499 26.37C63.0299 26.14 61.5199 27.27 61.2899 28.9C61.2699 29.07 58.7299 45.77 44.8899 52.59L48.4199 56.02C65.0099 50.03 65.9899 30.81 65.8899 29.99C65.6699 28.18 66.2699 26.6 64.6499 26.37Z" fill="#5DC9A8"/>
<path d="M63.83 25.55C62.21 25.32 60.7 26.45 60.47 28.08C60.45 28.25 57.91 44.95 44.07 51.77L47.37 56.77C63.48 48.38 66.25 29.72 66.36 28.9C66.59 27.28 65.45 25.78 63.83 25.55Z" fill="#74E0C1"/>
</g>
<defs>
<clipPath id="clip0_1203_2574">
<rect width="50.1" height="103.66" fill="white" transform="matrix(-1 0 0 1 80 3)"/>
</clipPath>
</defs>
</svg>
