<svg width="110" height="110" viewBox="0 0 110 110" fill="none" xmlns="http://www.w3.org/2000/svg">
<g clip-path="url(#clip0_1203_2201)">
<path d="M61.98 56.02L44.37 56.82L52.29 65.95L65.81 79.44L69.53 102.8L72.31 102.41L73.21 104.18C74.14 106.17 74.26 107.02 75.8 106.25L79.63 104.75C80.33 104.4 80.22 103.39 79.4 103.14C78.86 102.98 78.03 102.95 77.47 102.92C75.39 102.82 75.37 101.41 75.34 100.05C75.03 89.11 74.15 80.54 73.38 77.57C72.19 72.99 61.97 56.03 61.97 56.03L61.98 56.02Z" fill="#291B4C"/>
<path d="M58.66 57.02L42.07 56.86L42.53 79.21L30.01 96.91L32.34 98.77C32.06 99.27 31.57 100.09 31.1 100.41C30.41 100.87 29.51 101.74 30.32 102.77L35.28 106.62C36 106.93 36.77 105.87 36.41 105.07C36.17 104.54 35.35 103.36 35.08 102.86C34.53 101.81 35.19 101.02 35.91 99.88C40.24 93.09 50.35 82.7 50.35 82.7L58.66 57.02Z" fill="#3F3072"/>
<path d="M63.99 57.04L41.6 56.82C40.36 56.81 39.4 55.72 39.55 54.48L41.74 36.68C42.84 30.32 42.4 22.08 51.7 21.18H56.05C57.54 21.18 58.95 21.92 59.74 23.19C65.43 32.44 64 57.03 64 57.03L63.99 57.04Z" fill="#74E0C1"/>
<path d="M50.41 21.34C52.54 20.84 54.91 20.8 57.59 21.34L56.89 39.58L50.41 21.34Z" fill="white"/>
<path d="M51.53 7.10999H61.92V10.6V16.41C61.92 18.23 60.44 19.71 58.62 19.71H57.57C57.06 19.71 56.64 20.12 56.64 20.64C56.64 22.21 54.96 23.21 53.58 22.46L51.73 21.46L51.52 7.11999L51.53 7.10999Z" fill="#FADDDC"/>
<path d="M61.6 16.58L62.2 16.41C62.74 16.26 63.06 15.69 62.91 15.15L62.08 12.19C62.02 11.96 61.78 11.83 61.56 11.9C61.34 11.97 61.2 12.2 61.27 12.42L61.99 14.98C62.08 15.29 61.9 15.61 61.59 15.69L61.38 15.75C61.15 15.81 61.02 16.05 61.09 16.27C61.16 16.49 61.39 16.63 61.61 16.56L61.6 16.58Z" fill="#E0B1BB"/>
<path d="M60.14 12.15C60.14 12.46 59.89 12.71 59.58 12.71C59.27 12.71 59.02 12.46 59.02 12.15C59.02 11.84 59.27 11.59 59.58 11.59C59.89 11.59 60.14 11.84 60.14 12.15Z" fill="#757570"/>
<path d="M54.64 11.86C54.64 11.3298 54.2102 10.9 53.68 10.9C53.1498 10.9 52.72 11.3298 52.72 11.86V13.95C52.72 14.4802 53.1498 14.91 53.68 14.91C54.2102 14.91 54.64 14.4802 54.64 13.95V11.86Z" fill="#FADDDC"/>
<path d="M52.21 5.39C52.34 4.78 52.88 4.32 53.53 4.32C53.67 4.32 53.8 4.35 53.93 4.39C54.11 3.85 54.61 3.46 55.2 3.46C55.59 3.46 55.94 3.63 56.18 3.89C56.62 3.35 57.29 3 58.04 3C58.91 3 59.67 3.47 60.09 4.17C60.32 4.04 60.57 3.97 60.85 3.97C61.67 3.97 62.34 4.61 62.41 5.41C63.38 5.52 64.12 6.38 64.02 7.4C63.92 8.35 63.05 9.04 62.1 9.04H55.96C55.37 9.04 54.89 9.52 54.89 10.11V10.53C54.89 11.54 54.07 12.42 53.07 12.35C51.08 12.22 52.15 14.72 51.7 15.58C51.55 15.87 51.24 15.66 51.24 15.58L50.33 9.28C49.7 7.52 51.33 5.43 52.21 5.39Z" fill="#3E2967"/>
<path d="M52.2 41.51H44.58V43.28H52.2V41.51Z" fill="#5DC9A8"/>
<path d="M52.4199 43.74H47.8199V45.51H52.4199V43.74Z" fill="#5DC9A8"/>
<path d="M61.75 42.2H57.15V43.97H61.75V42.2Z" fill="#5DC9A8"/>
<path d="M62.7999 49.96H58.2V51.73H62.7999V49.96Z" fill="#5DC9A8"/>
<path d="M52.82 49.66H48.22V51.43H52.82V49.66Z" fill="#5DC9A8"/>
<path d="M51.64 29.83H46.47V31.6H51.64V29.83Z" fill="#5DC9A8"/>
<path d="M49.44 37.15H46.24V38.92H49.44V37.15Z" fill="#5DC9A8"/>
<path d="M63.28 35.09H60.08V36.86H63.28V35.09Z" fill="#5DC9A8"/>
<path d="M52.6301 32.2H49.4301V33.97H52.6301V32.2Z" fill="#5DC9A8"/>
<path d="M62.58 46.83H51.22V48.6H62.58V46.83Z" fill="#5DC9A8"/>
<path d="M66.93 52.24C68.43 52.9 69.11 54.66 68.45 56.16C67.91 57.39 66.62 58.07 65.35 57.91C65.07 57.87 64.8 57.8 64.53 57.68C63.88 57.39 63.25 57.09 62.64 56.77L65.94 51.77C66.27 51.93 66.6 52.09 66.93 52.24Z" fill="#FADDDC"/>
<path d="M45.3501 26.37C46.9701 26.14 48.4801 27.27 48.7101 28.9C48.7301 29.07 51.2701 45.77 65.1101 52.59L61.5801 56.02C44.9901 50.03 44.0101 30.81 44.1101 29.99C44.3301 28.18 43.7301 26.6 45.3501 26.37Z" fill="#5DC9A8"/>
<path d="M46.17 25.55C47.79 25.32 49.3 26.45 49.53 28.08C49.55 28.25 52.09 44.95 65.93 51.77L62.63 56.77C46.52 48.38 43.75 29.72 43.64 28.9C43.41 27.28 44.55 25.78 46.17 25.55Z" fill="#74E0C1"/>
</g>
<defs>
<clipPath id="clip0_1203_2201">
<rect width="50.1" height="103.66" fill="white" transform="translate(30 3)"/>
</clipPath>
</defs>
</svg>
