<svg width="57" height="105" viewBox="0 0 57 105" fill="none" xmlns="http://www.w3.org/2000/svg">
<g clip-path="url(#clip0_133_757)">
<path d="M31.1 53.97L19.13 53.51L12.54 75.62L0.00999512 93.32L2.34 95.18C2.06 95.68 1.57 96.5 1.1 96.82C0.409995 97.28 -0.490005 98.15 0.319995 99.18L5.28 103.03C6 103.34 6.77 102.28 6.41 101.48C6.17 100.95 5.35 99.77 5.08 99.27C4.52999 98.22 5.18999 97.43 5.91 96.29C10.24 89.5 20.35 79.11 20.35 79.11L31.09 53.97H31.1Z" fill="#291B4C"/>
<path d="M34.03 52.4301L14.37 53.2301L35.83 77.9801L43.21 100.34L45.99 99.9501L46.89 101.72C47.82 103.71 47.94 104.56 49.48 103.79L53.31 102.29C54.01 101.94 53.9 100.93 53.08 100.68C52.54 100.52 51.71 100.49 51.15 100.46C49.07 100.36 49.35 98.91 49.02 97.59C47.02 89.71 46.12 83.3801 43.85 75.4301C42.56 70.8701 34.01 52.4401 34.01 52.4401L34.03 52.4301Z" fill="#3F3072"/>
<path d="M54.5 42.35C56.09 42.76 57.05 44.3801 56.64 45.9701C56.3 47.2801 55.15 48.1601 53.87 48.2001C53.59 48.2001 53.31 48.1801 53.02 48.1101C52.33 47.9301 51.66 47.7301 51 47.5201L53.44 42.05C53.79 42.16 54.14 42.26 54.5 42.35Z" fill="#FADDDC"/>
<path d="M29.67 19.4C31.24 18.91 32.9 19.78 33.4 21.35C33.45 21.52 38.68 37.58 53.45 42.05L51.01 47.52C33.74 41.87 27.97 23.91 27.73 23.12C27.24 21.55 28.12 19.89 29.68 19.4H29.67Z" fill="#5DC9A8"/>
<path d="M36.88 54.0401L12.16 53.8001L14.63 33.6801C10.62 32.9101 13.23 19.3301 24.59 18.1801H28.94C30.44 18.1801 31.86 18.9401 32.64 20.2201C38.31 29.4801 36.88 54.0401 36.88 54.0401Z" fill="#74E0C1"/>
<path d="M9.24 53.54C9.46 55.17 8.31 56.66 6.68 56.88C5.34 57.06 4.09 56.32 3.57 55.14C3.46 54.89 3.38 54.61 3.34 54.32C3.25 53.61 3.18 52.92 3.13 52.23L9.11 52.45C9.14 52.81 9.18 53.18 9.23 53.54H9.24Z" fill="#FADDDC"/>
<path d="M21.23 21.93C22.27 23.2 22.08 25.07 20.82 26.11C20.69 26.22 7.73998 37.07 9.11998 52.44L3.13998 52.22C1.91998 34.1 16.42 22.03 17.06 21.5C18.33 20.46 20.2 20.65 21.24 21.92L21.23 21.93Z" fill="#74E0C1"/>
<path d="M23.3101 18.34C25.4401 17.84 27.8101 17.8 30.4901 18.34L29.7901 36.58L23.3101 18.34Z" fill="white"/>
<path d="M24.42 4.10999H34.81V7.59999V13.41C34.81 15.23 33.33 16.71 31.51 16.71H30.46C29.95 16.71 29.53 17.12 29.53 17.64C29.53 19.21 27.85 20.21 26.47 19.46L24.62 18.46L24.41 4.11999L24.42 4.10999Z" fill="#FADDDC"/>
<path d="M34.49 13.5801L35.09 13.4101C35.63 13.2601 35.95 12.6901 35.8 12.1501L34.97 9.19005C34.91 8.96005 34.67 8.83005 34.45 8.90005C34.23 8.97005 34.09 9.20005 34.16 9.42005L34.88 11.9801C34.97 12.2901 34.79 12.6101 34.48 12.6901L34.27 12.7501C34.04 12.8101 33.91 13.0501 33.98 13.2701C34.05 13.4901 34.28 13.6301 34.5 13.5601L34.49 13.5801Z" fill="#E0B1BB"/>
<path d="M33.04 9.14997C33.04 9.45997 32.79 9.70997 32.48 9.70997C32.17 9.70997 31.92 9.45997 31.92 9.14997C31.92 8.83997 32.17 8.58997 32.48 8.58997C32.79 8.58997 33.04 8.83997 33.04 9.14997Z" fill="#757570"/>
<path d="M27.53 8.86002C27.53 8.32983 27.1002 7.90002 26.57 7.90002C26.0398 7.90002 25.61 8.32983 25.61 8.86002V10.95C25.61 11.4802 26.0398 11.91 26.57 11.91C27.1002 11.91 27.53 11.4802 27.53 10.95V8.86002Z" fill="#FADDDC"/>
<path d="M25.1 2.39C25.23 1.78 25.77 1.32 26.42 1.32C26.56 1.32 26.69 1.35 26.82 1.39C27 0.85 27.5 0.46 28.09 0.46C28.48 0.46 28.83 0.63 29.07 0.89C29.52 0.35 30.18 0 30.93 0C31.8 0 32.56 0.47 32.98 1.17C33.21 1.04 33.46 0.97 33.74 0.97C34.56 0.97 35.23 1.61 35.3 2.41C36.27 2.52 37.01 3.38 36.91 4.4C36.81 5.35 35.94 6.04 34.99 6.04H28.85C28.26 6.04 27.78 6.52 27.78 7.11V7.53C27.78 8.54 26.96 9.42 25.96 9.35C23.97 9.22 25.04 11.72 24.59 12.58C24.44 12.87 24.13 12.66 24.13 12.58L23.22 6.28C22.59 4.52 24.22 2.43 25.1 2.39Z" fill="#3E2967"/>
<path d="M25.1 38.51H17.48V40.28H25.1V38.51Z" fill="#5DC9A8"/>
<path d="M25.31 40.74H20.71V42.51H25.31V40.74Z" fill="#5DC9A8"/>
<path d="M34.64 39.2H30.04V40.97H34.64V39.2Z" fill="#5DC9A8"/>
<path d="M35.69 46.96H31.09V48.73H35.69V46.96Z" fill="#5DC9A8"/>
<path d="M21.48 49.86H16.88V51.63H21.48V49.86Z" fill="#5DC9A8"/>
<path d="M25.71 46.66H21.11V48.43H25.71V46.66Z" fill="#5DC9A8"/>
<path d="M24.53 26.83H19.36V28.6H24.53V26.83Z" fill="#5DC9A8"/>
<path d="M22.33 34.15H19.13V35.92H22.33V34.15Z" fill="#5DC9A8"/>
<path d="M36.18 32.09H32.98V33.86H36.18V32.09Z" fill="#5DC9A8"/>
<path d="M25.5199 29.2H22.3199V30.9699H25.5199V29.2Z" fill="#5DC9A8"/>
<path d="M35.48 43.83H24.12V45.6H35.48V43.83Z" fill="#5DC9A8"/>
</g>
<defs>
<clipPath id="clip0_133_757">
<rect width="56.74" height="104.06" fill="white"/>
</clipPath>
</defs>
</svg>
