<svg width="110" height="110" viewBox="0 0 110 110" fill="none" xmlns="http://www.w3.org/2000/svg">
<g clip-path="url(#clip0_1203_2287)">
<path d="M52.5299 21.95H57.1399V17.54H52.5299V21.95Z" fill="#FADDDC"/>
<path d="M49.6299 13.9H50.1899V11.35C50.1899 10.94 49.8599 10.6 49.4399 10.6H49.1399C48.7299 10.6 48.3899 10.93 48.3899 11.35L48.7399 13.02C48.7399 13.51 49.1299 13.9 49.6199 13.9H49.6299Z" fill="#FADDDC"/>
<path d="M60.7499 13.9H60.1899V11.35C60.1899 10.94 60.5199 10.6 60.9399 10.6H61.2399C61.6499 10.6 61.9899 10.93 61.9899 11.35L61.6399 13.02C61.6399 13.51 61.2499 13.9 60.7599 13.9H60.7499Z" fill="#FADDDC"/>
<path d="M70.81 57.05C70.49 58.7 71.56 60.3 73.2 60.62C74.55 60.89 75.87 60.21 76.48 59.05C76.61 58.8 76.71 58.52 76.77 58.23C76.91 57.52 77.02 56.81 77.12 56.11L71 55.95C70.94 56.32 70.88 56.69 70.81 57.06V57.05Z" fill="#FADDDC"/>
<path d="M60.62 24.04C59.48 25.27 59.55 27.19 60.77 28.33C60.9 28.45 73.4 40.35 71.01 55.94L77.13 56.1C79.54 37.7 65.54 24.45 64.92 23.88C63.69 22.74 61.77 22.81 60.63 24.04H60.62Z" fill="#74E0C1"/>
<path d="M38.8101 53.56C38.9201 55.13 37.7401 56.49 36.1801 56.6C36.1101 56.6 36.0401 56.6 35.9701 56.6C34.4901 56.6 33.2401 55.46 33.1401 53.96C33.1001 53.47 33.0801 52.98 33.0601 52.5H38.7601C38.7801 52.85 38.7901 53.19 38.8101 53.55V53.56Z" fill="#FADDDC"/>
<path d="M45.4899 22.95C46.8599 22.19 48.5699 22.68 49.3399 24.04C50.1099 25.4 49.6199 27.13 48.2599 27.91C47.7399 28.21 37.7799 32.8 38.7499 52.51H33.0599C32.0299 29.33 44.8399 23.31 45.4899 22.95Z" fill="#74E0C1"/>
<path d="M40.81 56.05H68.32C68.32 56.05 57.64 102.44 59.01 101.86C59.66 101.59 60.44 100.38 60.99 100.87C61.63 101.45 61.79 102.57 61.22 103.48L56.55 107.19C55.27 108.21 53.33 107.17 53.56 105.55C53.61 105.16 53.77 104.78 53.84 104.41C54.46 101.37 53.44 102.23 53.47 101.26C53.66 95.16 56.02 70.26 56.18 65.72C56.22 64.68 56.22 63.86 55.35 63.86H53.77C52.9 63.86 52.15 64.61 52 65.63C51.31 70.28 52.3 73.29 52.55 87.4C52.55 87.4 52.4 91.58 52.15 92.58C51.79 94 50.34 93.79 49.84 92.74C49.41 91.83 48.97 88.12 48.89 87.4H47.45L40.8 56.04L40.81 56.05Z" fill="#3E2967"/>
<path d="M40.81 57.76H68.32L68.3101 31.05C68.3101 25.91 64.14 21.74 59 21.74H50.11C44.97 21.74 40.8 25.91 40.8 31.05L40.82 57.76H40.81Z" fill="#74E0C1"/>
<path d="M49.4301 6.91001C49.4101 6.82001 49.3701 6.73001 49.3701 6.63001C49.3701 6.27001 49.5201 5.95001 49.7501 5.71001C49.7501 5.70001 49.7501 5.69001 49.7501 5.67001C49.7501 4.94001 50.3401 4.35001 51.0701 4.35001C51.2901 3.93001 51.7201 3.64001 52.2301 3.64001C52.3601 3.64001 52.4801 3.68001 52.6001 3.71001C52.8401 3.38001 53.2101 3.15001 53.6601 3.15001C53.9301 3.15001 54.1601 3.25001 54.3701 3.39001C54.6101 3.15001 54.9401 3.01001 55.3001 3.01001C55.6601 3.01001 55.9701 3.15001 56.2101 3.38001C56.4001 3.28001 56.6001 3.21001 56.8301 3.21001C57.4001 3.21001 57.8801 3.57001 58.0601 4.08001C58.0801 4.08001 58.0901 4.08001 58.1001 4.08001C58.6701 4.08001 59.1501 4.44001 59.3301 4.95001C59.3501 4.95001 59.3601 4.95001 59.3701 4.95001C60.1001 4.95001 60.7001 5.54001 60.7001 6.28001C60.7001 6.53001 60.6101 6.75001 60.4901 6.95001C60.9001 7.63001 61.1201 8.28001 61.1201 9.05001C61.1201 10.5 61.0201 11.73 60.7701 12.71C60.5201 13.69 59.5001 17.5 57.4701 18.81C56.5001 19.44 53.9101 19.82 52.6101 18.81C51.3101 17.8 50.1501 15.95 49.8301 13.86C49.5101 11.78 49.4901 11.4 49.1401 10.42C48.8201 9.53001 49.2601 7.68001 49.4401 6.95001L49.4301 6.91001Z" fill="#3E2967"/>
</g>
<defs>
<clipPath id="clip0_1203_2287">
<rect width="44.4" height="104.6" fill="white" transform="translate(33 3)"/>
</clipPath>
</defs>
</svg>
