<svg width="53" height="103" viewBox="0 0 53 103" fill="none" xmlns="http://www.w3.org/2000/svg">
<g clip-path="url(#clip0_133_729)">
<path d="M45.48 57.49C45.14 59.34 46.37 61.13 48.22 61.47C49.74 61.75 51.22 60.97 51.88 59.66C52.02 59.37 52.13 59.06 52.19 58.73C52.34 57.93 52.45 57.13 52.55 56.34L45.67 56.25C45.61 56.66 45.55 57.08 45.47 57.5L45.48 57.49Z" fill="#FADDDC"/>
<path d="M33.55 20.55C32.28 21.94 32.39 24.1 33.78 25.37C33.93 25.5 48.14 38.7 45.68 56.24L52.56 56.33C55.01 35.62 39.07 20.94 38.37 20.3C36.97 19.04 34.82 19.15 33.55 20.54V20.55Z" fill="#74E0C1"/>
<path d="M6.07006 54.01C6.19006 55.65 4.95006 57.07 3.32006 57.19C3.25006 57.19 3.18006 57.19 3.11006 57.19C1.56006 57.19 0.260059 55.99 0.150059 54.43C0.110059 53.92 0.0900586 53.41 0.0600586 52.91H6.02006C6.04006 53.28 6.05006 53.63 6.08006 54.01H6.07006Z" fill="#FADDDC"/>
<path d="M13.7 20.35C15.12 19.14 16.9599 18.41 18.9799 18.41H32.81C33.53 18.41 34.2099 18.55 34.8899 18.68C40.7199 19.77 40.9799 26.13 41 26.62L42.3499 51.82C42.3899 52.56 41.7999 53.19 41.0499 53.19H10.72C9.96995 53.19 9.36995 52.55 9.42995 51.8L10.81 32.17C7.98995 36.67 5.53995 43.39 6.00995 52.92H0.0499501C-0.84005 32.9 9.63995 23.31 13.7 20.36V20.35Z" fill="#74E0C1"/>
<path d="M25.8999 35.29L20.9399 18.41H31.1799L25.8999 35.29Z" fill="white"/>
<path d="M20 31.03H12.38V32.8H20V31.03Z" fill="#5DC9A8"/>
<path d="M20.22 33.26H15.62V35.03H20.22V33.26Z" fill="#5DC9A8"/>
<path d="M37.23 39.25H25.87V41.02H37.23V39.25Z" fill="#5DC9A8"/>
<path d="M39.3199 30.86H30.1899V32.63H39.3199V30.86Z" fill="#5DC9A8"/>
<path d="M39.32 28.16H34.15V29.93H39.32V28.16Z" fill="#5DC9A8"/>
<path d="M37.29 25.45H32.12V27.2199H37.29V25.45Z" fill="#5DC9A8"/>
<path d="M20.93 24.23H15.76V26H20.93V24.23Z" fill="#5DC9A8"/>
<path d="M17.24 26.67H14.04V28.44H17.24V26.67Z" fill="#5DC9A8"/>
<path d="M34.57 19.76H31.37V21.53H34.57V19.76Z" fill="#5DC9A8"/>
<path d="M20.22 48.58H15.62V50.35H20.22V48.58Z" fill="#5DC9A8"/>
<path d="M28.43 41.58H21.14V43.35H28.43V41.58Z" fill="#5DC9A8"/>
<path d="M38.7801 46.95H34.1801V48.72H38.7801V46.95Z" fill="#5DC9A8"/>
<path d="M17.89 46.35H13.29V48.12H17.89V46.35Z" fill="#5DC9A8"/>
<path d="M28.4501 5.06006H18.0601V13.1701C18.0601 14.9901 19.5401 16.4701 21.3601 16.4701H22.4101C22.9201 16.4701 23.3401 16.8801 23.3401 17.4001V18.4801C23.3401 19.8801 24.4801 21.0201 25.8801 21.0201C27.2801 21.0201 28.4201 19.8901 28.4201 18.4901L28.4601 5.06006H28.4501Z" fill="#FADDDC"/>
<path d="M21.43 13.47H20.8C20.24 13.47 19.78 13.01 19.78 12.45V9.37996C19.78 9.14996 19.97 8.95996 20.2 8.95996C20.43 8.95996 20.62 9.14996 20.62 9.37996V12.04C20.62 12.36 20.88 12.62 21.2 12.62H21.42C21.65 12.62 21.84 12.81 21.84 13.04C21.84 13.27 21.65 13.46 21.42 13.46L21.43 13.47Z" fill="#E0B1BB"/>
<path d="M27.99 2.39C27.86 1.78 27.32 1.32 26.67 1.32C26.53 1.32 26.4 1.35 26.27 1.39C26.09 0.85 25.59 0.46 25 0.46C24.61 0.46 24.26 0.63 24.02 0.89C23.57 0.35 22.91 0 22.16 0C21.29 0 20.53 0.47 20.11 1.17C19.88 1.04 19.63 0.97 19.35 0.97C18.53 0.97 17.86 1.61 17.79 2.41C16.82 2.52 16.08 3.38 16.18 4.4C16.28 5.35 17.15 6.04 18.1 6.04H25.53C26.12 6.04 26.6 6.52 26.6 7.11V7.53C26.6 8.54 27.42 9.35 28.42 9.35C28.72 9.35 28.98 9.12 29.01 8.82L29.48 4.1C29.57 3.21 28.89 2.44 28 2.4L27.99 2.39Z" fill="#3E2967"/>
<path d="M22.48 9.50995C22.48 9.81995 22.73 10.07 23.04 10.07C23.35 10.07 23.6 9.81995 23.6 9.50995C23.6 9.19995 23.35 8.94995 23.04 8.94995C22.73 8.94995 22.48 9.19995 22.48 9.50995Z" fill="#757570"/>
<path d="M12.1899 53.36H39.7399L31.7599 97.05C31.6599 97.87 31.2799 98.83 32.2499 99.56C32.7999 99.96 33.3799 100.33 33.9199 100.74C34.5599 101.23 34.2299 102.29 33.4299 102.29L28.2899 101.33C25.9899 100.89 26.2999 99.39 26.7499 98.24C27.0499 97.48 27.2299 96.68 27.2699 95.87C27.4599 90.79 26.7499 60.54 26.7499 60.54H25.1699C25.1699 60.54 21.7399 89.72 21.4899 90.54C21.1299 91.72 19.6699 91.55 19.1799 90.67C18.7499 89.92 18.3099 86.83 18.2299 86.23H16.7899L12.1899 53.36Z" fill="#3E2967"/>
</g>
<defs>
<clipPath id="clip0_133_729">
<rect width="52.81" height="102.28" fill="white"/>
</clipPath>
</defs>
</svg>
