<svg width="110" height="110" viewBox="0 0 110 110" fill="none" xmlns="http://www.w3.org/2000/svg">
<g clip-path="url(#clip0_1203_2748)">
<path d="M20.3399 10.16C19.3399 8.86001 17.4699 8.61001 16.1699 9.61001C15.0999 10.43 14.7399 11.84 15.1999 13.04C15.2999 13.3 15.4399 13.55 15.6199 13.78C16.0499 14.35 16.4999 14.89 16.9499 15.41L21.0299 11.02C20.7999 10.74 20.5699 10.46 20.3399 10.16Z" fill="#FADDDC"/>
<path d="M77.0701 56.01C76.9501 57.65 78.1901 59.07 79.8201 59.19C79.8901 59.19 79.9601 59.19 80.0301 59.19C81.5801 59.19 82.8801 57.99 82.9901 56.43C83.0301 55.92 83.0501 55.41 83.0801 54.91H77.1201C77.1001 55.28 77.0901 55.63 77.0601 56.01H77.0701Z" fill="#FADDDC"/>
<path d="M69.4399 22.35C68.0199 21.14 66.18 20.41 64.16 20.41H50.33C49.61 20.41 48.92 20.5 48.25 20.68C46.43 21.16 44.57 21.46 42.69 21.3C36.89 20.81 27.48 18.75 21.02 11.02L16.95 15.4C24.78 24.37 35.56 26.73 42.28 27.26C42.21 27.69 42.16 28.13 42.15 28.62L40.7999 53.82C40.7599 54.56 41.35 55.19 42.1 55.19H72.43C73.18 55.19 73.78 54.55 73.72 53.8L72.34 34.17C75.16 38.67 77.6099 45.39 77.1399 54.92H83.1C83.99 34.9 73.51 25.31 69.45 22.36L69.4399 22.35Z" fill="#74E0C1"/>
<path d="M57.25 37.29L62.21 20.41H51.97L57.25 37.29Z" fill="white"/>
<path d="M51.4501 33.03H43.8301V34.8H51.4501V33.03Z" fill="#5DC9A8"/>
<path d="M51.6601 35.26H47.0601V37.03H51.6601V35.26Z" fill="#5DC9A8"/>
<path d="M68.6701 41.25H57.3101V43.02H68.6701V41.25Z" fill="#5DC9A8"/>
<path d="M70.7699 32.86H61.6399V34.63H70.7699V32.86Z" fill="#5DC9A8"/>
<path d="M70.7701 30.16H65.6001V31.93H70.7701V30.16Z" fill="#5DC9A8"/>
<path d="M68.7401 27.45H63.5701V29.22H68.7401V27.45Z" fill="#5DC9A8"/>
<path d="M52.3699 26.23H47.2V28H52.3699V26.23Z" fill="#5DC9A8"/>
<path d="M48.68 28.67H45.48V30.44H48.68V28.67Z" fill="#5DC9A8"/>
<path d="M66.0101 21.76H62.8101V23.53H66.0101V21.76Z" fill="#5DC9A8"/>
<path d="M51.6601 50.58H47.0601V52.35H51.6601V50.58Z" fill="#5DC9A8"/>
<path d="M59.8801 43.58H52.5901V45.35H59.8801V43.58Z" fill="#5DC9A8"/>
<path d="M70.2299 48.95H65.6299V50.72H70.2299V48.95Z" fill="#5DC9A8"/>
<path d="M49.33 48.35H44.73V50.12H49.33V48.35Z" fill="#5DC9A8"/>
<path d="M59.2501 7.06H48.8601V15.17C48.8601 16.99 50.3401 18.47 52.1601 18.47H53.2101C53.7201 18.47 54.1401 18.88 54.1401 19.4V20.48C54.1401 21.88 55.2801 23.02 56.6801 23.02C58.0801 23.02 59.2201 21.89 59.2201 20.49L59.2601 7.06H59.2501Z" fill="#FADDDC"/>
<path d="M52.2301 15.47H51.6001C51.0401 15.47 50.5801 15.01 50.5801 14.45V11.38C50.5801 11.15 50.7701 10.96 51.0001 10.96C51.2301 10.96 51.4201 11.15 51.4201 11.38V14.04C51.4201 14.36 51.6801 14.62 52.0001 14.62H52.2201C52.4501 14.62 52.6401 14.81 52.6401 15.04C52.6401 15.27 52.4501 15.46 52.2201 15.46L52.2301 15.47Z" fill="#E0B1BB"/>
<path d="M58.79 4.39C58.66 3.78 58.12 3.32 57.47 3.32C57.33 3.32 57.2 3.35 57.07 3.39C56.89 2.85 56.39 2.46 55.8 2.46C55.41 2.46 55.06 2.63 54.82 2.89C54.38 2.35 53.72 2 52.96 2C52.09 2 51.33 2.47 50.91 3.17C50.68 3.04 50.43 2.97 50.15 2.97C49.33 2.97 48.66 3.61 48.59 4.41C47.62 4.52 46.88 5.38 46.98 6.4C47.08 7.35 47.95 8.04 48.9 8.04H56.33C56.92 8.04 57.4 8.52 57.4 9.11V9.53C57.4 10.54 58.22 11.35 59.22 11.35C59.52 11.35 59.78 11.12 59.81 10.82L60.28 6.1C60.37 5.21 59.69 4.44 58.8 4.4L58.79 4.39Z" fill="#3E2967"/>
<path d="M53.28 11.51C53.28 11.82 53.53 12.07 53.84 12.07C54.15 12.07 54.4 11.82 54.4 11.51C54.4 11.2 54.15 10.95 53.84 10.95C53.53 10.95 53.28 11.2 53.28 11.51Z" fill="#757570"/>
<path d="M58.54 55.12H42.54V62.29V98.92V98.94V98.97V100.27C42.54 100.92 42.24 101.53 41.73 101.88C41.12 102.3 40.53 102.73 39.94 103.18C39.25 103.72 39.61 104.89 40.46 104.89H43.91H44.79C45.57 104.89 46.25 104.32 46.44 103.5L48.41 94.93C49.74 88.93 50.99 82.87 52.17 76.76C53 72.47 53.78 68.19 54.52 63.92C54.68 62.98 55.48 62.3 56.41 62.3H58.1C59.03 62.3 59.83 62.98 59.99 63.92C60.73 68.19 61.51 72.47 62.34 76.76C63.78 84.25 65.34 91.66 67 98.98C67.28 100.21 66.8 101.47 65.82 102.16C65.34 102.49 64.88 102.84 64.42 103.2C63.73 103.74 64.09 104.92 64.94 104.92H68.38H68.59C70.47 104.92 71.99 103.28 71.99 101.26V62.3V55.13H58.53L58.54 55.12Z" fill="#3E2967"/>
</g>
<defs>
<clipPath id="clip0_1203_2748">
<rect width="68.15" height="102.91" fill="white" transform="translate(15 2)"/>
</clipPath>
</defs>
</svg>
