<svg width="110" height="110" viewBox="0 0 110 110" fill="none" xmlns="http://www.w3.org/2000/svg">
<g clip-path="url(#clip0_1203_2871)">
<path d="M42.1899 56.38H69.7399L61.2199 101.94C61.1199 102.76 60.7399 103.72 61.7099 104.45C62.2599 104.85 62.8399 105.22 63.3799 105.63C64.0199 106.12 63.6899 107.18 62.8899 107.18L57.7499 106.22C55.4499 105.78 55.7599 104.28 56.2099 103.13C56.5099 102.37 56.6899 101.57 56.7299 100.76C56.9199 95.68 56.7599 63.56 56.7599 63.56H55.1799C55.1799 63.56 51.7499 92.74 51.4999 93.56C51.1399 94.74 49.6799 94.57 49.1899 93.69C48.7599 92.94 48.3199 89.85 48.2399 89.25H46.7999L42.1999 56.38H42.1899Z" fill="#3E2967"/>
<path d="M76.36 60.63C76.02 62.48 77.25 64.27 79.1 64.61C80.62 64.89 82.1 64.11 82.76 62.8C82.9 62.51 83.01 62.2 83.07 61.87C83.22 61.07 83.33 60.27 83.43 59.48L76.55 59.39C76.49 59.8 76.43 60.22 76.35 60.64L76.36 60.63Z" fill="#FADDDC"/>
<path d="M64.5299 24.02C63.2599 25.41 63.3699 27.57 64.7599 28.84C64.9099 28.97 79.1199 42.17 76.6599 59.71L83.5399 59.8C85.9899 39.09 70.0499 24.41 69.3499 23.77C67.9499 22.51 65.7999 22.62 64.5299 24.01V24.02Z" fill="#74E0C1"/>
<path d="M36.0701 57.04C36.1901 58.68 34.9501 60.1 33.3201 60.22C33.2501 60.22 33.1801 60.22 33.1101 60.22C31.5601 60.22 30.2601 59.02 30.1501 57.46C30.1101 56.95 30.0901 56.44 30.0601 55.94H36.0201C36.0401 56.31 36.0501 56.66 36.0801 57.04H36.0701Z" fill="#FADDDC"/>
<path d="M43.7 23.38C45.12 22.17 46.9599 21.44 48.9799 21.44H62.81C63.53 21.44 64.2099 21.58 64.8899 21.71C70.7199 22.8 70.98 29.16 71 29.65L72.2299 56.19C72.2699 56.93 71.68 57.56 70.93 57.56H40.61C39.86 57.56 39.26 56.92 39.32 56.17L40.82 35.19C38 39.69 35.5499 46.41 36.0199 55.94H30.05C29.16 35.92 39.64 26.33 43.7 23.38Z" fill="#74E0C1"/>
<path d="M55.8999 38.31L50.9399 21.44H61.1799L55.8999 38.31Z" fill="white"/>
<path d="M61.7001 35.82H69.3201V34.05H61.7001V35.82Z" fill="#5DC9A8"/>
<path d="M61.4801 38.05H66.0801V36.28H61.4801V38.05Z" fill="#5DC9A8"/>
<path d="M44.4801 44.04H55.8401V42.27H44.4801V44.04Z" fill="#5DC9A8"/>
<path d="M42.38 35.65H51.51V33.88H42.38V35.65Z" fill="#5DC9A8"/>
<path d="M42.38 32.95H47.55V31.18H42.38V32.95Z" fill="#5DC9A8"/>
<path d="M44.4101 30.24H49.5801V28.47H44.4101V30.24Z" fill="#5DC9A8"/>
<path d="M60.7699 29.03H65.9399V27.26H60.7699V29.03Z" fill="#5DC9A8"/>
<path d="M64.4599 31.47H67.6599V29.7H64.4599V31.47Z" fill="#5DC9A8"/>
<path d="M47.1401 24.56H50.3401V22.79H47.1401V24.56Z" fill="#5DC9A8"/>
<path d="M61.4801 53.38H66.0801V51.61H61.4801V53.38Z" fill="#5DC9A8"/>
<path d="M53.2701 46.37H60.5601V44.6H53.2701V46.37Z" fill="#5DC9A8"/>
<path d="M42.92 51.75H47.52V49.98H42.92V51.75Z" fill="#5DC9A8"/>
<path d="M63.8099 51.14H68.4099V49.37H63.8099V51.14Z" fill="#5DC9A8"/>
<path d="M60.0401 8.61998L49.6901 7.66998L48.9501 15.75C48.7801 17.57 50.1201 19.17 51.9301 19.34L52.9801 19.44C53.4901 19.49 53.8601 19.94 53.8201 20.45L53.7201 21.53C53.5901 22.93 54.6201 24.16 56.0201 24.29C57.4101 24.42 58.6501 23.39 58.7801 22L60.0501 8.62998L60.0401 8.61998Z" fill="#FADDDC"/>
<path d="M52.27 16.36L51.65 16.3C51.09 16.25 50.68 15.75 50.73 15.19L51.01 12.13C51.03 11.9 51.24 11.72 51.47 11.75C51.7 11.78 51.88 11.98 51.85 12.21L51.61 14.86C51.58 15.18 51.81 15.46 52.13 15.49L52.35 15.51C52.58 15.53 52.76 15.74 52.73 15.97C52.7 16.2 52.5 16.38 52.27 16.35V16.36Z" fill="#E0B1BB"/>
<path d="M59.8201 5.93002C59.7501 5.31002 59.2501 4.80002 58.6101 4.74002C58.4701 4.73002 58.3301 4.74002 58.2001 4.77002C58.0701 4.22002 57.6101 3.78002 57.0201 3.73002C56.6301 3.69002 56.2701 3.83002 56.0001 4.07002C55.6101 3.49002 54.9801 3.08002 54.2301 3.01002C53.3601 2.93002 52.5601 3.33002 52.0801 3.98002C51.8701 3.83002 51.6201 3.73002 51.3401 3.71002C50.5201 3.63002 49.8001 4.21002 49.6601 5.00002C48.6801 5.02002 47.8701 5.81002 47.8701 6.84002C47.8701 7.80002 48.6801 8.56002 49.6301 8.65002L57.0201 9.33002C57.6101 9.38002 58.0401 9.91002 57.9901 10.5L57.9501 10.92C57.8601 11.92 58.5901 12.81 59.6001 12.9C59.9001 12.93 60.1701 12.72 60.2301 12.43L61.1301 7.77002C61.3001 6.89002 60.6901 6.06002 59.8101 5.94002L59.8201 5.93002Z" fill="#3E2967"/>
<path d="M53.6799 12.51C53.6499 12.82 53.8799 13.09 54.1799 13.12C54.4799 13.15 54.7599 12.92 54.7899 12.62C54.8199 12.32 54.5899 12.04 54.2899 12.01C53.9899 11.98 53.7099 12.21 53.6799 12.51Z" fill="#757570"/>
</g>
<defs>
<clipPath id="clip0_1203_2871">
<rect width="53.79" height="104.18" fill="white" transform="translate(30 3)"/>
</clipPath>
</defs>
</svg>
