<svg width="110" height="110" viewBox="0 0 110 110" fill="none" xmlns="http://www.w3.org/2000/svg">
<g clip-path="url(#clip0_1203_2233)">
<path d="M57.8301 52.84L45.3301 53.2L46.0701 102.33L48.2101 103.03C48.2201 103.58 48.2101 104.49 47.9801 104.99C47.6401 105.73 47.3301 106.89 48.4301 107.27L54.0401 107.69C54.7401 107.55 54.8701 106.3 54.2201 105.87C53.7901 105.58 52.6201 105.08 52.1801 104.82C51.2801 104.28 51.3101 103.29 51.4901 102.02C52.7601 92.83 57.8201 52.86 57.8201 52.86L57.8301 52.84Z" fill="#291B4C"/>
<path d="M59.4701 53.29L45.0801 54.83L57.7701 77.35L53.4001 96.67L55.5601 97.35V99.23C55.3901 100.55 55.3901 101.41 56.8001 102.17L60.4101 103.09C61.1201 103.15 61.4501 102.27 60.8901 101.67C60.5201 101.27 59.7401 100.99 59.4201 100.55C57.9701 98.59 58.7301 98.14 59.0001 96.9C60.2501 91.29 63.9701 82.75 65.6801 78.97C66.2501 77.72 66.3401 76.32 65.9501 75L59.4601 53.28L59.4701 53.29Z" fill="#3E2C6D"/>
<path d="M70.81 53.44C72.1 54.46 72.32 56.33 71.3 57.62C70.46 58.68 69.05 59.02 67.86 58.54C67.6 58.44 67.35 58.29 67.12 58.11C66.56 57.67 66.03 57.21 65.52 56.75L69.97 52.74C70.25 52.98 70.53 53.21 70.82 53.44H70.81Z" fill="#FADDDC"/>
<path d="M48.52 52.86H43.92V54.63H48.52V52.86Z" fill="#5DC9A8"/>
<path d="M57.41 22.4C59.04 22.59 60.21 24.06 60.03 25.69C60.01 25.86 58.28 42.66 69.97 52.74L65.52 56.75C52.02 44.59 54.02 25.83 54.12 25.01C54.31 23.38 55.78 22.22 57.41 22.4Z" fill="#5DC9A8"/>
<path d="M63.9301 57.04L39.2101 56.8L41.6801 36.68C37.6701 35.91 40.2801 22.33 51.6401 21.18H55.9901C57.4901 21.18 58.9101 21.94 59.6901 23.22C65.3601 32.48 63.9301 57.04 63.9301 57.04Z" fill="#74E0C1"/>
<path d="M44.74 58.5C45.42 59.99 44.76 61.76 43.27 62.44C42.04 63 40.63 62.66 39.79 61.69C39.61 61.48 39.45 61.24 39.33 60.97C39.03 60.32 38.77 59.68 38.52 59.03L44.31 57.49C44.45 57.83 44.59 58.16 44.74 58.5Z" fill="#FADDDC"/>
<path d="M46.94 25.87C48.31 26.78 48.5 26.64 47.6 28.01C47.5 28.15 39.76 42.55 45.57 56.85L42.55 56.69C36.08 39.71 43.93 26.27 44.39 25.59C45.3 24.23 45.58 24.97 46.95 25.88L46.94 25.87Z" fill="#5DC9A8"/>
<path d="M46.9701 24.76C48.3401 25.67 48.7101 27.51 47.8001 28.88C47.7001 29.02 38.5001 43.19 44.3101 57.49L38.5201 59.03C32.0501 42.05 42.3901 26.27 42.8501 25.58C43.7601 24.22 45.6001 23.85 46.9701 24.76Z" fill="#74E0C1"/>
<path d="M50.35 21.34C52.48 20.84 54.85 20.8 57.53 21.34L56.83 39.58L50.35 21.34Z" fill="white"/>
<path d="M51.4601 7.10999H61.8501V10.6V16.41C61.8501 18.23 60.3701 19.71 58.5501 19.71H57.5001C56.9901 19.71 56.5701 20.12 56.5701 20.64C56.5701 22.21 54.8901 23.21 53.5101 22.46L51.6601 21.46L51.4501 7.11999L51.4601 7.10999Z" fill="#FADDDC"/>
<path d="M61.5401 16.58L62.1401 16.41C62.6801 16.26 63.0001 15.69 62.8501 15.15L62.0201 12.19C61.9601 11.96 61.7201 11.83 61.5001 11.9C61.2801 11.97 61.1401 12.2 61.2101 12.42L61.9301 14.98C62.0201 15.29 61.8401 15.61 61.5301 15.69L61.3201 15.75C61.0901 15.81 60.9601 16.05 61.0301 16.27C61.1001 16.49 61.3301 16.63 61.5501 16.56L61.5401 16.58Z" fill="#E0B1BB"/>
<path d="M60.0801 12.15C60.0801 12.46 59.8301 12.71 59.5201 12.71C59.2101 12.71 58.9601 12.46 58.9601 12.15C58.9601 11.84 59.2101 11.59 59.5201 11.59C59.8301 11.59 60.0801 11.84 60.0801 12.15Z" fill="#757570"/>
<path d="M54.57 11.86C54.57 11.3298 54.1402 10.9 53.61 10.9C53.0798 10.9 52.65 11.3298 52.65 11.86V13.95C52.65 14.4802 53.0798 14.91 53.61 14.91C54.1402 14.91 54.57 14.4802 54.57 13.95V11.86Z" fill="#FADDDC"/>
<path d="M52.14 5.39C52.27 4.78 52.81 4.32 53.46 4.32C53.6 4.32 53.73 4.35 53.86 4.39C54.04 3.85 54.54 3.46 55.13 3.46C55.52 3.46 55.87 3.63 56.11 3.89C56.56 3.35 57.22 3 57.97 3C58.84 3 59.6 3.47 60.02 4.17C60.25 4.04 60.5 3.97 60.78 3.97C61.6 3.97 62.27 4.61 62.34 5.41C63.31 5.52 64.05 6.38 63.95 7.4C63.85 8.35 62.98 9.04 62.03 9.04H55.89C55.3 9.04 54.82 9.52 54.82 10.11V10.53C54.82 11.54 54 12.42 53 12.35C51.01 12.22 52.08 14.72 51.63 15.58C51.48 15.87 51.17 15.66 51.17 15.58L50.26 9.28C49.63 7.52 51.26 5.43 52.14 5.39Z" fill="#3E2967"/>
<path d="M52.14 41.51H44.52V43.28H52.14V41.51Z" fill="#5DC9A8"/>
<path d="M52.36 43.74H47.76V45.51H52.36V43.74Z" fill="#5DC9A8"/>
<path d="M61.6801 42.2H57.0801V43.97H61.6801V42.2Z" fill="#5DC9A8"/>
<path d="M62.73 49.96H58.13V51.73H62.73V49.96Z" fill="#5DC9A8"/>
<path d="M52.75 49.66H48.15V51.43H52.75V49.66Z" fill="#5DC9A8"/>
<path d="M51.57 29.83H46.4V31.6H51.57V29.83Z" fill="#5DC9A8"/>
<path d="M49.3801 37.15H46.1801V38.92H49.3801V37.15Z" fill="#5DC9A8"/>
<path d="M63.22 35.09H60.02V36.86H63.22V35.09Z" fill="#5DC9A8"/>
<path d="M52.56 32.2H49.36V33.97H52.56V32.2Z" fill="#5DC9A8"/>
<path d="M62.52 46.83H51.16V48.6H62.52V46.83Z" fill="#5DC9A8"/>
</g>
<defs>
<clipPath id="clip0_1203_2233">
<rect width="35.54" height="104.68" fill="white" transform="translate(36.4 3)"/>
</clipPath>
</defs>
</svg>
