<svg width="45" height="107" viewBox="0 0 45 107" fill="none" xmlns="http://www.w3.org/2000/svg">
<g clip-path="url(#clip0_133_854)">
<path d="M24.87 14.54H20.26V17.89H24.87V14.54Z" fill="#FADDDC"/>
<path d="M27.77 10.9H27.21V8.34998C27.21 7.93998 27.54 7.59998 27.96 7.59998H28.26C28.67 7.59998 29.01 7.92998 29.01 8.34998L28.66 10.02C28.66 10.51 28.27 10.9 27.78 10.9H27.77Z" fill="#FADDDC"/>
<path d="M16.6499 10.9H17.2099V8.34998C17.2099 7.93998 16.8799 7.59998 16.4599 7.59998H16.1599C15.7499 7.59998 15.4099 7.92998 15.4099 8.34998L15.7599 10.02C15.7599 10.51 16.1499 10.9 16.6399 10.9H16.6499Z" fill="#FADDDC"/>
<path d="M6.59003 53.0499C6.91003 54.6999 5.84003 56.2999 4.20003 56.6199C2.85003 56.8899 1.53003 56.2099 0.920029 55.0499C0.790029 54.7999 0.690029 54.5199 0.630029 54.2299C0.490029 53.5199 0.380029 52.81 0.280029 52.11L6.40003 51.95C6.46003 52.32 6.52003 52.69 6.59003 53.06V53.0499Z" fill="#FADDDC"/>
<path d="M16.7801 20.0401C17.9201 21.2701 17.8501 23.1901 16.6301 24.3301C16.5001 24.4501 4.00007 36.3501 6.39007 51.9401L0.270069 52.1001C-2.13993 33.7001 11.8601 20.4501 12.4801 19.8801C13.7101 18.7401 15.6301 18.8101 16.7701 20.0401H16.7801Z" fill="#74E0C1"/>
<path d="M38.5901 49.56C38.4801 51.13 39.6601 52.49 41.2201 52.6C41.2901 52.6 41.3601 52.6 41.4301 52.6C42.9101 52.6 44.1601 51.46 44.2601 49.96C44.3001 49.47 44.3201 48.98 44.3401 48.5H38.6401C38.6201 48.85 38.6101 49.19 38.5901 49.55V49.56Z" fill="#FADDDC"/>
<path d="M31.91 18.95C30.54 18.19 28.83 18.68 28.06 20.04C27.29 21.4 27.78 23.13 29.14 23.91C29.66 24.21 39.62 28.8 38.65 48.51H44.35C45.38 25.33 32.57 19.3 31.92 18.94L31.91 18.95Z" fill="#74E0C1"/>
<path d="M36.5901 52.05H9.08008L9.09008 27.05C9.09008 21.91 13.2601 17.74 18.4001 17.74H27.2901C32.4301 17.74 36.6001 21.91 36.6001 27.05L36.5801 52.05H36.5901Z" fill="#74E0C1"/>
<path d="M36.5901 52.05H9.08008C9.08008 52.05 17.3301 99.1101 15.9601 98.5401C15.3101 98.2701 14.9001 98.14 14.3601 98.63C13.7201 99.21 14.2101 100.91 14.7801 101.82L20.6101 106.46C22.9101 105.93 22.6001 104.13 22.1501 102.75C21.8501 101.84 21.6701 100.88 21.6301 99.9101C21.4401 93.8101 20.4901 66.5701 20.3301 62.0401C20.2901 61.0001 21.1701 59.8801 22.0401 59.8801H23.6201C24.4901 59.8801 25.2401 60.6301 25.3901 61.6501C26.0801 66.3001 25.1701 69.8001 24.9201 83.9101C24.9201 83.9101 25.0701 88.09 25.3201 89.09C25.6801 90.51 27.1301 90.3 27.6301 89.25C28.0601 88.34 28.5001 84.6301 28.5801 83.9101H30.0201L36.5901 52.0601V52.05Z" fill="#3E2967"/>
<path d="M27.97 3.91001C27.99 3.82001 28.03 3.73001 28.03 3.63001C28.03 3.27001 27.88 2.95001 27.65 2.71001C27.65 2.70001 27.65 2.69001 27.65 2.67001C27.65 1.94001 27.06 1.35001 26.33 1.35001C26.11 0.93001 25.68 0.64001 25.17 0.64001C25.04 0.64001 24.92 0.68001 24.8 0.71001C24.56 0.38001 24.19 0.15001 23.74 0.15001C23.47 0.15001 23.24 0.25001 23.03 0.39001C22.79 0.15001 22.46 0.0100098 22.1 0.0100098C21.74 0.0100098 21.43 0.15001 21.19 0.38001C21 0.28001 20.8 0.21001 20.57 0.21001C20 0.21001 19.52 0.57001 19.34 1.08001C19.32 1.08001 19.31 1.08001 19.3 1.08001C18.73 1.08001 18.25 1.44001 18.07 1.95001C18.05 1.95001 18.04 1.95001 18.03 1.95001C17.3 1.95001 16.7 2.54001 16.7 3.28001C16.7 3.53001 16.79 3.75001 16.91 3.95001C16.5 4.63001 16.28 5.28001 16.28 6.05001C16.28 7.50001 16.38 8.73001 16.63 9.71001C16.88 10.69 17.93 13.97 19.96 15.28C20.93 15.91 23.52 16.29 24.82 15.28C26.12 14.27 27.25 12.95 27.57 10.87C27.89 8.79001 27.91 8.41001 28.26 7.43001C28.58 6.54001 28.14 4.69001 27.96 3.96001L27.97 3.91001Z" fill="#3E2967"/>
</g>
<defs>
<clipPath id="clip0_133_854">
<rect width="44.4" height="106.46" fill="white"/>
</clipPath>
</defs>
</svg>
