<svg width="110" height="110" viewBox="0 0 110 110" fill="none" xmlns="http://www.w3.org/2000/svg">
<g clip-path="url(#clip0_1203_2193)">
<path d="M57.7999 56.97L45.8299 56.51L39.2399 78.62L26.7099 96.32L29.0399 98.18C28.7599 98.68 28.2699 99.5 27.7999 99.82C27.1099 100.28 26.2099 101.15 27.0199 102.18L31.9799 106.03C32.6999 106.34 33.4699 105.28 33.1099 104.48C32.8699 103.95 32.0499 102.77 31.7799 102.27C31.2299 101.22 31.8899 100.43 32.6099 99.29C36.9399 92.5 47.0499 82.11 47.0499 82.11L57.7899 56.97H57.7999Z" fill="#291B4C"/>
<path d="M60.7299 55.43L41.0699 56.23L62.5299 80.98L69.9099 103.34L72.6899 102.95L73.5899 104.72C74.5199 106.71 74.6399 107.56 76.1799 106.79L80.0099 105.29C80.7099 104.94 80.5999 103.93 79.7799 103.68C79.2399 103.52 78.4099 103.49 77.8499 103.46C75.7699 103.36 76.0499 101.91 75.7199 100.59C73.7199 92.71 72.8199 86.38 70.5499 78.43C69.2599 73.87 60.7099 55.44 60.7099 55.44L60.7299 55.43Z" fill="#3F3072"/>
<path d="M81.86 47.22C83.45 47.63 84.41 49.25 84 50.84C83.66 52.15 82.51 53.03 81.23 53.07C80.95 53.07 80.67 53.05 80.38 52.98C79.69 52.8 79.02 52.6 78.36 52.39L80.8 46.92C81.15 47.03 81.5 47.13 81.86 47.22Z" fill="#FADDDC"/>
<path d="M57.0299 24.27C58.5999 23.78 60.2599 24.65 60.7599 26.22C60.8099 26.39 66.0399 42.45 80.8099 46.92L78.3699 52.39C61.0999 46.74 55.3299 28.78 55.0899 27.99C54.5999 26.42 55.4799 24.76 57.0399 24.27H57.0299Z" fill="#5DC9A8"/>
<path d="M63.58 57.04L41.21 56.82C39.95 56.81 38.99 55.71 39.14 54.46L41.33 36.68C37.32 35.91 39.93 22.33 51.29 21.18H55.64C57.13 21.18 58.54 21.92 59.33 23.19C65.02 32.44 63.59 57.03 63.59 57.03L63.58 57.04Z" fill="#74E0C1"/>
<path d="M34.62 57.97C34.84 59.6 33.69 61.09 32.06 61.31C30.72 61.49 29.47 60.75 28.95 59.57C28.84 59.32 28.76 59.04 28.72 58.75C28.63 58.04 28.56 57.35 28.51 56.66L34.49 56.88C34.52 57.24 34.56 57.61 34.61 57.97H34.62Z" fill="#FADDDC"/>
<path d="M46.62 26.36C47.66 27.63 47.47 29.5 46.21 30.54C46.08 30.65 33.13 41.5 34.51 56.87L28.53 56.65C27.31 38.53 41.81 26.46 42.45 25.93C43.72 24.89 45.59 25.08 46.63 26.35L46.62 26.36Z" fill="#74E0C1"/>
<path d="M50.01 21.34C52.14 20.84 54.51 20.8 57.19 21.34L56.49 39.58L50.01 21.34Z" fill="white"/>
<path d="M51.12 7.10999H61.51V10.6V16.41C61.51 18.23 60.03 19.71 58.21 19.71H57.16C56.65 19.71 56.23 20.12 56.23 20.64C56.23 22.21 54.55 23.21 53.17 22.46L51.32 21.46L51.11 7.11999L51.12 7.10999Z" fill="#FADDDC"/>
<path d="M61.19 16.58L61.79 16.41C62.33 16.26 62.65 15.69 62.5 15.15L61.67 12.19C61.61 11.96 61.37 11.83 61.15 11.9C60.93 11.97 60.79 12.2 60.86 12.42L61.58 14.98C61.67 15.29 61.49 15.61 61.18 15.69L60.97 15.75C60.74 15.81 60.61 16.05 60.68 16.27C60.75 16.49 60.98 16.63 61.2 16.56L61.19 16.58Z" fill="#E0B1BB"/>
<path d="M59.74 12.15C59.74 12.46 59.49 12.71 59.18 12.71C58.87 12.71 58.62 12.46 58.62 12.15C58.62 11.84 58.87 11.59 59.18 11.59C59.49 11.59 59.74 11.84 59.74 12.15Z" fill="#757570"/>
<path d="M54.2299 11.86C54.2299 11.3298 53.8001 10.9 53.2699 10.9C52.7397 10.9 52.3099 11.3298 52.3099 11.86V13.95C52.3099 14.4802 52.7397 14.91 53.2699 14.91C53.8001 14.91 54.2299 14.4802 54.2299 13.95V11.86Z" fill="#FADDDC"/>
<path d="M51.8 5.39C51.93 4.78 52.47 4.32 53.12 4.32C53.26 4.32 53.39 4.35 53.52 4.39C53.7 3.85 54.2 3.46 54.79 3.46C55.18 3.46 55.53 3.63 55.77 3.89C56.22 3.35 56.88 3 57.63 3C58.5 3 59.26 3.47 59.68 4.17C59.91 4.04 60.16 3.97 60.44 3.97C61.26 3.97 61.93 4.61 62 5.41C62.97 5.52 63.71 6.38 63.61 7.4C63.51 8.35 62.64 9.04 61.69 9.04H55.55C54.96 9.04 54.48 9.52 54.48 10.11V10.53C54.48 11.54 53.66 12.42 52.66 12.35C50.67 12.22 51.74 14.72 51.29 15.58C51.14 15.87 50.83 15.66 50.83 15.58L49.92 9.28C49.29 7.52 50.92 5.43 51.8 5.39Z" fill="#3E2967"/>
<path d="M51.7999 41.51H44.1799V43.28H51.7999V41.51Z" fill="#5DC9A8"/>
<path d="M52.0099 43.74H47.4099V45.51H52.0099V43.74Z" fill="#5DC9A8"/>
<path d="M61.34 42.2H56.74V43.97H61.34V42.2Z" fill="#5DC9A8"/>
<path d="M62.3899 49.96H57.7899V51.73H62.3899V49.96Z" fill="#5DC9A8"/>
<path d="M48.18 52.86H43.58V54.63H48.18V52.86Z" fill="#5DC9A8"/>
<path d="M52.4099 49.66H47.8099V51.43H52.4099V49.66Z" fill="#5DC9A8"/>
<path d="M51.2299 29.83H46.0599V31.6H51.2299V29.83Z" fill="#5DC9A8"/>
<path d="M49.03 37.15H45.83V38.92H49.03V37.15Z" fill="#5DC9A8"/>
<path d="M62.8799 35.09H59.6799V36.86H62.8799V35.09Z" fill="#5DC9A8"/>
<path d="M52.2199 32.2H49.0199V33.97H52.2199V32.2Z" fill="#5DC9A8"/>
<path d="M62.1799 46.83H50.8199V48.6H62.1799V46.83Z" fill="#5DC9A8"/>
</g>
<defs>
<clipPath id="clip0_1203_2193">
<rect width="57.4" height="104.06" fill="white" transform="translate(26.7 3)"/>
</clipPath>
</defs>
</svg>
