<svg width="110" height="110" viewBox="0 0 110 110" fill="none" xmlns="http://www.w3.org/2000/svg">
<g clip-path="url(#clip0_1203_2160)">
<path d="M21.92 44.06C20.32 44.42 19.31 46.01 19.67 47.62C19.97 48.94 21.09 49.85 22.38 49.93C22.66 49.95 22.94 49.93 23.23 49.86C23.92 49.7 24.6 49.52 25.26 49.33L22.98 43.79C22.63 43.88 22.28 43.98 21.91 44.06H21.92Z" fill="#FADDDC"/>
<path d="M47.43 21.86C45.88 21.32 44.19 22.15 43.65 23.69C43.59 23.85 37.89 39.75 22.99 43.78L25.27 49.32C42.7 44.19 49 26.41 49.27 25.63C49.8 24.08 48.98 22.39 47.43 21.85V21.86Z" fill="#74E0C1"/>
<path d="M77.05 56.01C76.93 57.65 78.17 59.07 79.8 59.19C79.87 59.19 79.94 59.19 80.01 59.19C81.56 59.19 82.86 57.99 82.97 56.43C83.01 55.92 83.03 55.41 83.06 54.91H77.1C77.08 55.28 77.07 55.63 77.04 56.01H77.05Z" fill="#FADDDC"/>
<path d="M69.42 22.35C68 21.14 66.16 20.41 64.14 20.41H50.31C49.59 20.41 48.91 20.55 48.23 20.68C42.4 21.77 42.14 28.13 42.12 28.62L40.77 53.82C40.73 54.56 41.32 55.19 42.07 55.19H72.4C73.15 55.19 73.75 54.55 73.69 53.8L72.31 34.17C75.13 38.67 77.58 45.39 77.11 54.92H83.07C83.96 34.9 73.48 25.31 69.42 22.36V22.35Z" fill="#74E0C1"/>
<path d="M57.2302 37.29L62.1902 20.41H51.9402L57.2302 37.29Z" fill="white"/>
<path d="M51.42 33.03H43.8V34.8H51.42V33.03Z" fill="#5DC9A8"/>
<path d="M51.64 35.26H47.04V37.03H51.64V35.26Z" fill="#5DC9A8"/>
<path d="M68.64 41.25H57.28V43.02H68.64V41.25Z" fill="#5DC9A8"/>
<path d="M70.7401 32.86H61.6101V34.63H70.7401V32.86Z" fill="#5DC9A8"/>
<path d="M70.7401 30.16H65.5701V31.93H70.7401V30.16Z" fill="#5DC9A8"/>
<path d="M68.71 27.45H63.54V29.22H68.71V27.45Z" fill="#5DC9A8"/>
<path d="M52.3502 26.23H47.1802V28H52.3502V26.23Z" fill="#5DC9A8"/>
<path d="M48.6602 28.67H45.4602V30.44H48.6602V28.67Z" fill="#5DC9A8"/>
<path d="M65.99 21.76H62.79V23.53H65.99V21.76Z" fill="#5DC9A8"/>
<path d="M51.64 50.58H47.04V52.35H51.64V50.58Z" fill="#5DC9A8"/>
<path d="M59.8501 43.58H52.5601V45.35H59.8501V43.58Z" fill="#5DC9A8"/>
<path d="M70.2001 48.95H65.6001V50.72H70.2001V48.95Z" fill="#5DC9A8"/>
<path d="M49.3102 48.35H44.7102V50.12H49.3102V48.35Z" fill="#5DC9A8"/>
<path d="M59.2301 7.06H48.8401V15.17C48.8401 16.99 50.3201 18.47 52.1401 18.47H53.1901C53.7001 18.47 54.1201 18.88 54.1201 19.4V20.48C54.1201 21.88 55.2601 23.02 56.6601 23.02C58.0601 23.02 59.2001 21.89 59.2001 20.49L59.2401 7.06H59.2301Z" fill="#FADDDC"/>
<path d="M52.2 15.47H51.57C51.01 15.47 50.55 15.01 50.55 14.45V11.38C50.55 11.15 50.74 10.96 50.97 10.96C51.2 10.96 51.39 11.15 51.39 11.38V14.04C51.39 14.36 51.65 14.62 51.97 14.62H52.19C52.42 14.62 52.61 14.81 52.61 15.04C52.61 15.27 52.42 15.46 52.19 15.46L52.2 15.47Z" fill="#E0B1BB"/>
<path d="M58.76 4.39C58.63 3.78 58.09 3.32 57.44 3.32C57.3 3.32 57.17 3.35 57.04 3.39C56.86 2.85 56.36 2.46 55.77 2.46C55.38 2.46 55.03 2.63 54.79 2.89C54.35 2.35 53.69 2 52.93 2C52.06 2 51.3 2.47 50.88 3.17C50.65 3.04 50.4 2.97 50.12 2.97C49.3 2.97 48.63 3.61 48.56 4.41C47.59 4.52 46.85 5.38 46.95 6.4C47.05 7.35 47.92 8.04 48.87 8.04H56.3C56.89 8.04 57.37 8.52 57.37 9.11V9.53C57.37 10.54 58.19 11.35 59.19 11.35C59.49 11.35 59.75 11.12 59.78 10.82L60.25 6.1C60.34 5.21 59.66 4.44 58.77 4.4L58.76 4.39Z" fill="#3E2967"/>
<path d="M53.25 11.51C53.25 11.82 53.5 12.07 53.81 12.07C54.12 12.07 54.37 11.82 54.37 11.51C54.37 11.2 54.12 10.95 53.81 10.95C53.5 10.95 53.25 11.2 53.25 11.51Z" fill="#757570"/>
<path d="M58.52 55.12H42.52V62.29V98.92V98.94V98.97V100.27C42.52 100.92 42.22 101.53 41.71 101.88C41.1 102.3 40.51 102.73 39.92 103.18C39.23 103.72 39.59 104.89 40.44 104.89H43.89H44.77C45.55 104.89 46.23 104.32 46.42 103.5L48.39 94.93C49.72 88.93 50.97 82.87 52.15 76.76C52.98 72.47 53.76 68.19 54.5 63.92C54.66 62.98 55.46 62.3 56.39 62.3H58.08C59.01 62.3 59.81 62.98 59.97 63.92C60.71 68.19 61.49 72.47 62.32 76.76C63.76 84.25 65.32 91.66 66.98 98.98C67.26 100.21 66.78 101.47 65.8 102.16C65.32 102.49 64.86 102.84 64.4 103.2C63.71 103.74 64.07 104.92 64.92 104.92H68.36H68.57C70.45 104.92 71.97 103.28 71.97 101.26V62.3V55.13H58.51L58.52 55.12Z" fill="#3E2967"/>
</g>
<defs>
<clipPath id="clip0_1203_2160">
<rect width="63.52" height="102.91" fill="white" transform="translate(19.6001 2)"/>
</clipPath>
</defs>
</svg>
