<svg width="110" height="110" viewBox="0 0 110 110" fill="none" xmlns="http://www.w3.org/2000/svg">
<g clip-path="url(#clip0_1203_2517)">
<path d="M52.2001 56.97L64.1701 56.51L70.7601 78.62L83.2901 96.32L80.9601 98.18C81.2401 98.68 81.7301 99.5 82.2001 99.82C82.8901 100.28 83.7901 101.15 82.9801 102.18L78.0201 106.03C77.3001 106.34 76.5301 105.28 76.8901 104.48C77.1301 103.95 77.9501 102.77 78.2201 102.27C78.7701 101.22 78.1101 100.43 77.3901 99.29C73.0601 92.5 62.9501 82.11 62.9501 82.11L52.2101 56.97H52.2001Z" fill="#291B4C"/>
<path d="M49.2701 55.43L68.9301 56.23L47.4701 80.98L40.0901 103.34L37.3101 102.95L36.4101 104.72C35.4801 106.71 35.3601 107.56 33.8201 106.79L29.9901 105.29C29.2901 104.94 29.4001 103.93 30.2201 103.68C30.7601 103.52 31.5901 103.49 32.1501 103.46C34.2301 103.36 33.9501 101.91 34.2801 100.59C36.2801 92.71 37.1801 86.38 39.4501 78.43C40.7401 73.87 49.2901 55.44 49.2901 55.44L49.2701 55.43Z" fill="#3F3072"/>
<path d="M28.14 47.22C26.55 47.63 25.59 49.25 26 50.84C26.34 52.15 27.49 53.03 28.77 53.07C29.05 53.07 29.33 53.05 29.62 52.98C30.31 52.8 30.98 52.6 31.64 52.39L29.2 46.92C28.85 47.03 28.5 47.13 28.14 47.22Z" fill="#FADDDC"/>
<path d="M52.9701 24.27C51.4001 23.78 49.7401 24.65 49.2401 26.22C49.1901 26.39 43.9601 42.45 29.1901 46.92L31.6301 52.39C48.9001 46.74 54.6701 28.78 54.9101 27.99C55.4001 26.42 54.5201 24.76 52.9601 24.27H52.9701Z" fill="#5DC9A8"/>
<path d="M46.42 57.04L68.79 56.82C70.05 56.81 71.01 55.71 70.86 54.46L68.67 36.68C72.68 35.91 70.07 22.33 58.71 21.18H54.36C52.87 21.18 51.46 21.92 50.67 23.19C44.98 32.44 46.41 57.03 46.41 57.03L46.42 57.04Z" fill="#74E0C1"/>
<path d="M75.38 57.97C75.16 59.6 76.31 61.09 77.94 61.31C79.28 61.49 80.53 60.75 81.05 59.57C81.16 59.32 81.24 59.04 81.28 58.75C81.37 58.04 81.44 57.35 81.49 56.66L75.51 56.88C75.48 57.24 75.44 57.61 75.39 57.97H75.38Z" fill="#FADDDC"/>
<path d="M63.38 26.36C62.34 27.63 62.53 29.5 63.79 30.54C63.92 30.65 76.87 41.5 75.49 56.87L81.47 56.65C82.69 38.53 68.19 26.46 67.55 25.93C66.28 24.89 64.41 25.08 63.37 26.35L63.38 26.36Z" fill="#74E0C1"/>
<path d="M59.99 21.34C57.86 20.84 55.49 20.8 52.81 21.34L53.51 39.58L59.99 21.34Z" fill="white"/>
<path d="M58.88 7.10999H48.49V10.6V16.41C48.49 18.23 49.97 19.71 51.79 19.71H52.84C53.35 19.71 53.77 20.12 53.77 20.64C53.77 22.21 55.45 23.21 56.83 22.46L58.68 21.46L58.89 7.11999L58.88 7.10999Z" fill="#FADDDC"/>
<path d="M48.81 16.58L48.21 16.41C47.67 16.26 47.35 15.69 47.5 15.15L48.33 12.19C48.39 11.96 48.63 11.83 48.85 11.9C49.07 11.97 49.21 12.2 49.14 12.42L48.42 14.98C48.33 15.29 48.51 15.61 48.82 15.69L49.03 15.75C49.26 15.81 49.39 16.05 49.32 16.27C49.25 16.49 49.02 16.63 48.8 16.56L48.81 16.58Z" fill="#E0B1BB"/>
<path d="M50.26 12.15C50.26 12.46 50.51 12.71 50.82 12.71C51.13 12.71 51.38 12.46 51.38 12.15C51.38 11.84 51.13 11.59 50.82 11.59C50.51 11.59 50.26 11.84 50.26 12.15Z" fill="#757570"/>
<path d="M55.7701 11.86C55.7701 11.3298 56.1999 10.9 56.7301 10.9C57.2603 10.9 57.6901 11.3298 57.6901 11.86V13.95C57.6901 14.4802 57.2603 14.91 56.7301 14.91C56.1999 14.91 55.7701 14.4802 55.7701 13.95V11.86Z" fill="#FADDDC"/>
<path d="M58.2 5.39C58.07 4.78 57.53 4.32 56.88 4.32C56.74 4.32 56.61 4.35 56.48 4.39C56.3 3.85 55.8 3.46 55.21 3.46C54.82 3.46 54.47 3.63 54.23 3.89C53.78 3.35 53.12 3 52.37 3C51.5 3 50.74 3.47 50.32 4.17C50.09 4.04 49.84 3.97 49.56 3.97C48.74 3.97 48.07 4.61 48 5.41C47.03 5.52 46.29 6.38 46.39 7.4C46.49 8.35 47.36 9.04 48.31 9.04H54.45C55.04 9.04 55.52 9.52 55.52 10.11V10.53C55.52 11.54 56.34 12.42 57.34 12.35C59.33 12.22 58.26 14.72 58.71 15.58C58.86 15.87 59.17 15.66 59.17 15.58L60.08 9.28C60.71 7.52 59.08 5.43 58.2 5.39Z" fill="#3E2967"/>
<path d="M58.2001 41.51H65.8201V43.28H58.2001V41.51Z" fill="#5DC9A8"/>
<path d="M57.9901 43.74H62.5901V45.51H57.9901V43.74Z" fill="#5DC9A8"/>
<path d="M48.66 42.2H53.26V43.97H48.66V42.2Z" fill="#5DC9A8"/>
<path d="M47.6101 49.96H52.2101V51.73H47.6101V49.96Z" fill="#5DC9A8"/>
<path d="M61.82 52.86H66.42V54.63H61.82V52.86Z" fill="#5DC9A8"/>
<path d="M57.5901 49.66H62.1901V51.43H57.5901V49.66Z" fill="#5DC9A8"/>
<path d="M58.7701 29.83H63.9401V31.6H58.7701V29.83Z" fill="#5DC9A8"/>
<path d="M60.97 37.15H64.17V38.92H60.97V37.15Z" fill="#5DC9A8"/>
<path d="M47.1201 35.09H50.3201V36.86H47.1201V35.09Z" fill="#5DC9A8"/>
<path d="M57.7801 32.2H60.9801V33.97H57.7801V32.2Z" fill="#5DC9A8"/>
<path d="M47.8201 46.83H59.1801V48.6H47.8201V46.83Z" fill="#5DC9A8"/>
</g>
<defs>
<clipPath id="clip0_1203_2517">
<rect width="57.4" height="104.06" fill="white" transform="matrix(-1 0 0 1 83.3 3)"/>
</clipPath>
</defs>
</svg>
