<svg width="110" height="110" viewBox="0 0 110 110" fill="none" xmlns="http://www.w3.org/2000/svg">
<g clip-path="url(#clip0_1203_2320)">
<path d="M69.6 56.36H42.05L50.57 101.92C50.67 102.74 51.05 103.7 50.08 104.43C49.53 104.83 48.95 105.2 48.41 105.61C47.77 106.1 48.1 107.16 48.9 107.16L54.04 106.2C56.34 105.76 56.03 104.26 55.58 103.11C55.28 102.35 55.1 101.55 55.06 100.74C54.87 95.66 55.03 63.54 55.03 63.54H56.61C56.61 63.54 60.0401 92.72 60.2901 93.54C60.6501 94.72 62.11 94.55 62.6 93.67C63.03 92.92 63.47 89.83 63.55 89.23H64.9901L69.59 56.36H69.6Z" fill="#3E2967"/>
<path d="M35.4401 60.6C35.7801 62.45 34.5501 64.24 32.7001 64.58C31.1801 64.86 29.7001 64.08 29.0401 62.77C28.9001 62.48 28.7901 62.17 28.7301 61.84C28.5801 61.04 28.4701 60.24 28.3701 59.45L35.2501 59.36C35.3101 59.77 35.3701 60.19 35.4501 60.61L35.4401 60.6Z" fill="#FADDDC"/>
<path d="M47.26 23.99C48.53 25.38 48.42 27.54 47.03 28.81C46.88 28.94 32.67 42.14 35.13 59.68L28.25 59.77C25.81 39.07 41.74 24.39 42.45 23.75C43.85 22.49 46 22.6 47.27 23.99H47.26Z" fill="#74E0C1"/>
<path d="M75.72 57.01C75.6 58.65 76.84 60.07 78.47 60.19C78.54 60.19 78.61 60.19 78.68 60.19C80.23 60.19 81.53 58.99 81.64 57.43C81.68 56.92 81.7 56.41 81.73 55.91H75.77C75.75 56.28 75.74 56.63 75.71 57.01H75.72Z" fill="#FADDDC"/>
<path d="M68.09 23.35C66.67 22.14 64.83 21.41 62.81 21.41H48.98C48.26 21.41 47.58 21.55 46.9 21.68C41.07 22.77 40.81 29.13 40.79 29.62L39.56 56.16C39.52 56.9 40.11 57.53 40.86 57.53H71.19C71.94 57.53 72.54 56.89 72.48 56.14L70.98 35.16C73.8 39.66 76.25 46.38 75.78 55.91H81.74C82.63 35.89 72.15 26.3 68.09 23.35Z" fill="#74E0C1"/>
<path d="M55.9001 38.29L60.8601 21.41H50.6101L55.9001 38.29Z" fill="white"/>
<path d="M50.09 34.03H42.47V35.8H50.09V34.03Z" fill="#5DC9A8"/>
<path d="M50.31 36.26H45.71V38.03H50.31V36.26Z" fill="#5DC9A8"/>
<path d="M67.32 42.25H55.96V44.02H67.32V42.25Z" fill="#5DC9A8"/>
<path d="M69.41 33.86H60.28V35.63H69.41V33.86Z" fill="#5DC9A8"/>
<path d="M69.41 31.16H64.24V32.93H69.41V31.16Z" fill="#5DC9A8"/>
<path d="M67.38 28.45H62.21V30.22H67.38V28.45Z" fill="#5DC9A8"/>
<path d="M51.0201 27.23H45.8501V29H51.0201V27.23Z" fill="#5DC9A8"/>
<path d="M47.3299 29.67H44.1299V31.44H47.3299V29.67Z" fill="#5DC9A8"/>
<path d="M64.66 22.76H61.46V24.53H64.66V22.76Z" fill="#5DC9A8"/>
<path d="M50.31 51.58H45.71V53.35H50.31V51.58Z" fill="#5DC9A8"/>
<path d="M58.52 44.58H51.23V46.35H58.52V44.58Z" fill="#5DC9A8"/>
<path d="M68.87 49.95H64.27V51.72H68.87V49.95Z" fill="#5DC9A8"/>
<path d="M47.9799 49.35H43.3799V51.12H47.9799V49.35Z" fill="#5DC9A8"/>
<path d="M57.9 8.06H47.51V16.17C47.51 17.99 48.99 19.47 50.81 19.47H51.86C52.37 19.47 52.79 19.88 52.79 20.4V21.48C52.79 22.88 53.93 24.02 55.33 24.02C56.73 24.02 57.87 22.89 57.87 21.49L57.91 8.06H57.9Z" fill="#FADDDC"/>
<path d="M50.87 16.47H50.24C49.68 16.47 49.22 16.01 49.22 15.45V12.38C49.22 12.15 49.41 11.96 49.64 11.96C49.87 11.96 50.06 12.15 50.06 12.38V15.04C50.06 15.36 50.32 15.62 50.64 15.62H50.86C51.09 15.62 51.28 15.81 51.28 16.04C51.28 16.27 51.09 16.46 50.86 16.46L50.87 16.47Z" fill="#E0B1BB"/>
<path d="M57.4299 5.39C57.2999 4.78 56.7599 4.32 56.1099 4.32C55.9699 4.32 55.8399 4.35 55.7099 4.39C55.5299 3.85 55.0299 3.46 54.4399 3.46C54.0499 3.46 53.6999 3.63 53.4599 3.89C53.0199 3.35 52.3599 3 51.5999 3C50.7299 3 49.9699 3.47 49.5499 4.17C49.3199 4.04 49.0699 3.97 48.7899 3.97C47.9699 3.97 47.2999 4.61 47.2299 5.41C46.2599 5.52 45.5199 6.38 45.6199 7.4C45.7199 8.35 46.5899 9.04 47.5399 9.04H54.9699C55.5599 9.04 56.0399 9.52 56.0399 10.11V10.53C56.0399 11.54 56.8599 12.35 57.8599 12.35C58.1599 12.35 58.4199 12.12 58.4499 11.82L58.9199 7.1C59.0099 6.21 58.3299 5.44 57.4399 5.4L57.4299 5.39Z" fill="#3E2967"/>
<path d="M51.9299 12.51C51.9299 12.82 52.1799 13.07 52.4899 13.07C52.7999 13.07 53.0499 12.82 53.0499 12.51C53.0499 12.2 52.7999 11.95 52.4899 11.95C52.1799 11.95 51.9299 12.2 51.9299 12.51Z" fill="#757570"/>
</g>
<defs>
<clipPath id="clip0_1203_2320">
<rect width="53.79" height="104.16" fill="white" transform="translate(28 3)"/>
</clipPath>
</defs>
</svg>
