
    <svg
        width="53"
        height="103"
        viewBox="0 0 53 103"
        fill="none"
        xmlns="http://www.w3.org/2000/svg"
    >
        <g clip-path="url(#clip0_8_260)">
            <path
                d="M6.45003 54.2C6.77003 55.81 5.72003 57.38 4.11003 57.69C2.79003 57.95 1.49003 57.29 0.900029 56.15C0.770029 55.9 0.670029 55.63 0.620029 55.35C0.480029 54.65 0.370029 53.96 0.280029 53.28L6.27003 53.12C6.33003 53.48 6.39003 53.84 6.46003 54.2H6.45003Z"
                fill="#FADDDC"
            />
            <path
                d="M16.42 21.9C17.54 23.1 17.47 24.98 16.27 26.1C16.14 26.22 3.91001 37.87 6.25001 53.12L0.260011 53.28C-2.09999 35.27 11.61 22.31 12.21 21.74C13.41 20.62 15.29 20.7 16.41 21.9H16.42Z"
                fill="#74E0C1"
            />
            <path
                d="M46.1 54.01C45.98 55.65 47.22 57.07 48.85 57.19C48.92 57.19 48.99 57.19 49.06 57.19C50.61 57.19 51.91 55.99 52.02 54.43C52.06 53.92 52.08 53.41 52.11 52.91H46.15C46.13 53.28 46.12 53.63 46.09 54.01H46.1Z"
                fill="#FADDDC"
            />
            <path
                d="M38.46 20.35C37.04 19.14 35.2 18.41 33.18 18.41H19.35C18.63 18.41 17.95 18.55 17.27 18.68C11.44 19.77 11.18 26.13 11.16 26.62L9.81003 51.82C9.77003 52.56 10.36 53.19 11.11 53.19H41.44C42.19 53.19 42.79 52.55 42.73 51.8L41.35 32.17C44.17 36.67 46.62 43.39 46.15 52.92H52.11C53 32.9 42.52 23.31 38.46 20.36V20.35Z"
                fill="#74E0C1"
            />
            <path d="M26.27 35.29L31.23 18.41H20.99L26.27 35.29Z" fill="white" />
            <path d="M20.47 31.03H12.85V32.8H20.47V31.03Z" fill="#5DC9A8" />
            <path d="M20.68 33.26H16.08V35.03H20.68V33.26Z" fill="#5DC9A8" />
            <path d="M37.69 39.25H26.33V41.02H37.69V39.25Z" fill="#5DC9A8" />
            <path d="M39.79 30.86H30.66V32.63H39.79V30.86Z" fill="#5DC9A8" />
            <path d="M39.79 28.16H34.62V29.93H39.79V28.16Z" fill="#5DC9A8" />
            <path d="M37.76 25.45H32.59V27.2199H37.76V25.45Z" fill="#5DC9A8" />
            <path d="M21.39 24.23H16.22V26H21.39V24.23Z" fill="#5DC9A8" />
            <path d="M17.7 26.67H14.5V28.44H17.7V26.67Z" fill="#5DC9A8" />
            <path d="M35.03 19.76H31.83V21.53H35.03V19.76Z" fill="#5DC9A8" />
            <path d="M20.68 48.58H16.08V50.35H20.68V48.58Z" fill="#5DC9A8" />
            <path d="M28.9 41.58H21.61V43.35H28.9V41.58Z" fill="#5DC9A8" />
            <path d="M39.25 46.95H34.65V48.72H39.25V46.95Z" fill="#5DC9A8" />
            <path d="M18.35 46.35H13.75V48.12H18.35V46.35Z" fill="#5DC9A8" />
            <path
                d="M28.27 5.06006H17.88V13.1701C17.88 14.9901 19.36 16.4701 21.18 16.4701H22.23C22.74 16.4701 23.16 16.8801 23.16 17.4001V18.4801C23.16 19.8801 24.3 21.0201 25.7 21.0201C27.1 21.0201 28.24 19.8901 28.24 18.4901L28.28 5.06006H28.27Z"
                fill="#FADDDC"
            />
            <path
                d="M21.25 13.47H20.62C20.06 13.47 19.6 13.01 19.6 12.45V9.37996C19.6 9.14996 19.79 8.95996 20.02 8.95996C20.25 8.95996 20.44 9.14996 20.44 9.37996V12.04C20.44 12.36 20.7 12.62 21.02 12.62H21.24C21.47 12.62 21.66 12.81 21.66 13.04C21.66 13.27 21.47 13.46 21.24 13.46L21.25 13.47Z"
                fill="#E0B1BB"
            />
            <path
                d="M27.81 2.39C27.68 1.78 27.14 1.32 26.49 1.32C26.35 1.32 26.22 1.35 26.09 1.39C25.91 0.85 25.41 0.46 24.82 0.46C24.43 0.46 24.08 0.63 23.84 0.89C23.4 0.35 22.74 0 21.98 0C21.11 0 20.35 0.47 19.93 1.17C19.7 1.04 19.45 0.97 19.17 0.97C18.35 0.97 17.68 1.61 17.61 2.41C16.64 2.52 15.9 3.38 16 4.4C16.1 5.35 16.97 6.04 17.92 6.04H25.35C25.94 6.04 26.42 6.52 26.42 7.11V7.53C26.42 8.54 27.24 9.35 28.24 9.35C28.54 9.35 28.8 9.12 28.83 8.82L29.3 4.1C29.39 3.21 28.71 2.44 27.82 2.4L27.81 2.39Z"
                fill="#3E2967"
            />
            <path
                d="M22.3 9.50995C22.3 9.81995 22.5501 10.07 22.8601 10.07C23.1701 10.07 23.42 9.81995 23.42 9.50995C23.42 9.19995 23.1701 8.94995 22.8601 8.94995C22.5501 8.94995 22.3 9.19995 22.3 9.50995Z"
                fill="#757570"
            />
            <path
                d="M27.56 53.12H11.5601V60.29V96.92V96.94V96.97V98.27C11.5601 98.92 11.26 99.53 10.75 99.88C10.14 100.3 9.55005 100.73 8.96005 101.18C8.27005 101.72 8.63005 102.89 9.48005 102.89H12.93H13.8101C14.59 102.89 15.27 102.32 15.46 101.5L17.43 92.93C18.76 86.93 20.01 80.87 21.1901 74.76C22.0201 70.47 22.8001 66.19 23.5401 61.92C23.7001 60.98 24.5 60.3 25.43 60.3H27.1201C28.0501 60.3 28.85 60.98 29.01 61.92C29.75 66.19 30.5301 70.47 31.3601 74.76C32.8001 82.25 34.3601 89.66 36.0201 96.98C36.3001 98.21 35.82 99.47 34.84 100.16C34.3601 100.49 33.9 100.84 33.44 101.2C32.75 101.74 33.11 102.92 33.96 102.92H37.4001H37.6101C39.49 102.92 41.01 101.28 41.01 99.26V60.3V53.13H27.55L27.56 53.12Z"
                fill="#3E2967"
            />
        </g>
        <defs>
            <clipPath id="clip0_8_260">
                <rect width="52.17" height="102.91" fill="white" />
            </clipPath>
        </defs>
    </svg>
