<svg width="110" height="110" viewBox="0 0 110 110" fill="none" xmlns="http://www.w3.org/2000/svg">
<g clip-path="url(#clip0_1203_2271)">
<path d="M57.87 17.54H53.26V21.95H57.87V17.54Z" fill="#FADDDC"/>
<path d="M60.77 13.9H60.21V11.35C60.21 10.94 60.54 10.6 60.96 10.6H61.26C61.67 10.6 62.01 10.93 62.01 11.35L61.66 13.02C61.66 13.51 61.27 13.9 60.78 13.9H60.77Z" fill="#FADDDC"/>
<path d="M49.6499 13.9H50.2099V11.35C50.2099 10.94 49.8799 10.6 49.4599 10.6H49.1599C48.7499 10.6 48.4099 10.93 48.4099 11.35L48.7599 13.02C48.7599 13.51 49.1499 13.9 49.6399 13.9H49.6499Z" fill="#FADDDC"/>
<path d="M39.59 57.05C39.91 58.7 38.84 60.3 37.2 60.62C35.85 60.89 34.53 60.21 33.92 59.05C33.79 58.8 33.69 58.52 33.63 58.23C33.49 57.52 33.38 56.81 33.28 56.11L39.4 55.95C39.46 56.32 39.52 56.69 39.59 57.06V57.05Z" fill="#FADDDC"/>
<path d="M49.7801 24.04C50.9201 25.27 50.8501 27.19 49.6301 28.33C49.5001 28.45 37.0001 40.35 39.3901 55.94L33.2701 56.1C30.8601 37.7 44.8601 24.45 45.4801 23.88C46.7101 22.74 48.6301 22.81 49.7701 24.04H49.7801Z" fill="#74E0C1"/>
<path d="M71.5901 53.56C71.4801 55.13 72.6601 56.49 74.2201 56.6C74.2901 56.6 74.3601 56.6 74.4301 56.6C75.9101 56.6 77.1601 55.46 77.2601 53.96C77.3001 53.47 77.3201 52.98 77.3401 52.5H71.6401C71.6201 52.85 71.6101 53.19 71.5901 53.55V53.56Z" fill="#FADDDC"/>
<path d="M64.91 22.95C63.54 22.19 61.83 22.68 61.06 24.04C60.29 25.4 60.78 27.13 62.14 27.91C62.66 28.21 72.62 32.8 71.65 52.51H77.35C78.38 29.33 65.57 23.3 64.92 22.94L64.91 22.95Z" fill="#74E0C1"/>
<path d="M69.5901 56.05H42.0801C42.0801 56.05 52.7601 102.44 51.3901 101.86C50.7401 101.59 49.9601 100.38 49.4101 100.87C48.7701 101.45 48.6101 102.57 49.1801 103.48L53.8501 107.19C55.1301 108.21 57.0701 107.17 56.8401 105.55C56.7901 105.16 56.6301 104.78 56.5601 104.41C55.9401 101.37 56.9601 102.23 56.9301 101.26C56.7401 95.16 54.3801 70.26 54.2201 65.72C54.1801 64.68 54.1801 63.86 55.0501 63.86H56.6301C57.5001 63.86 58.2501 64.61 58.4001 65.63C59.0901 70.28 58.1001 73.29 57.8501 87.4C57.8501 87.4 58.0001 91.58 58.2501 92.58C58.6101 94 60.0601 93.79 60.5601 92.74C60.9901 91.83 61.4301 88.12 61.5101 87.4H62.9501L69.6001 56.04L69.5901 56.05Z" fill="#3E2967"/>
<path d="M69.5901 57.76H42.0801L42.0901 31.05C42.0901 25.91 46.2601 21.74 51.4001 21.74H60.2901C65.4301 21.74 69.6001 25.91 69.6001 31.05L69.5801 57.76H69.5901Z" fill="#74E0C1"/>
<path d="M60.97 6.91001C60.99 6.82001 61.03 6.73001 61.03 6.63001C61.03 6.27001 60.88 5.95001 60.65 5.71001C60.65 5.70001 60.65 5.69001 60.65 5.67001C60.65 4.94001 60.06 4.35001 59.33 4.35001C59.11 3.93001 58.68 3.64001 58.17 3.64001C58.04 3.64001 57.92 3.68001 57.8 3.71001C57.56 3.38001 57.19 3.15001 56.74 3.15001C56.47 3.15001 56.24 3.25001 56.03 3.39001C55.79 3.15001 55.46 3.01001 55.1 3.01001C54.74 3.01001 54.43 3.15001 54.19 3.38001C54 3.28001 53.8 3.21001 53.57 3.21001C53 3.21001 52.52 3.57001 52.34 4.08001C52.32 4.08001 52.31 4.08001 52.3 4.08001C51.73 4.08001 51.25 4.44001 51.07 4.95001C51.05 4.95001 51.04 4.95001 51.03 4.95001C50.3 4.95001 49.7 5.54001 49.7 6.28001C49.7 6.53001 49.79 6.75001 49.91 6.95001C49.5 7.63001 49.28 8.28001 49.28 9.05001C49.28 10.5 49.38 11.73 49.63 12.71C49.88 13.69 50.9 17.5 52.93 18.81C53.9 19.44 56.49 19.82 57.79 18.81C59.09 17.8 60.25 15.95 60.57 13.86C60.89 11.78 60.91 11.4 61.26 10.42C61.58 9.53001 61.14 7.68001 60.96 6.95001L60.97 6.91001Z" fill="#3E2967"/>
</g>
<defs>
<clipPath id="clip0_1203_2271">
<rect width="44.4" height="104.6" fill="white" transform="translate(33 3)"/>
</clipPath>
</defs>
</svg>
