<svg width="110" height="110" viewBox="0 0 110 110" fill="none" xmlns="http://www.w3.org/2000/svg">
<g clip-path="url(#clip0_1203_2600)">
<path d="M52.1699 52.84L64.6699 53.2L63.9299 102.33L61.7899 103.03C61.7799 103.58 61.7899 104.49 62.0199 104.99C62.3599 105.73 62.6699 106.89 61.5699 107.27L55.9599 107.69C55.2599 107.55 55.1299 106.3 55.7799 105.87C56.2099 105.58 57.3799 105.08 57.8199 104.82C58.7199 104.28 58.6899 103.29 58.5099 102.02C57.2399 92.83 52.1799 52.86 52.1799 52.86L52.1699 52.84Z" fill="#291B4C"/>
<path d="M50.5299 53.29L64.9199 54.83L52.2299 77.35L56.5999 96.67L54.4399 97.35V99.23C54.6099 100.55 54.6099 101.41 53.1999 102.17L49.5899 103.09C48.8799 103.15 48.5499 102.27 49.1099 101.67C49.4799 101.27 50.2599 100.99 50.5799 100.55C52.0299 98.59 51.2699 98.14 50.9999 96.9C49.7499 91.29 46.0299 82.75 44.3199 78.97C43.7499 77.72 43.6599 76.32 44.0499 75L50.5399 53.28L50.5299 53.29Z" fill="#3E2C6D"/>
<path d="M39.19 53.44C37.9 54.46 37.68 56.33 38.7 57.62C39.54 58.68 40.95 59.02 42.14 58.54C42.4 58.44 42.65 58.29 42.88 58.11C43.44 57.67 43.97 57.21 44.48 56.75L40.03 52.74C39.75 52.98 39.47 53.21 39.18 53.44H39.19Z" fill="#FADDDC"/>
<path d="M61.48 52.86H66.08V54.63H61.48V52.86Z" fill="#5DC9A8"/>
<path d="M52.59 22.4C50.96 22.59 49.79 24.06 49.97 25.69C49.99 25.86 51.72 42.66 40.03 52.74L44.48 56.75C57.98 44.59 55.98 25.83 55.88 25.01C55.69 23.38 54.22 22.22 52.59 22.4Z" fill="#5DC9A8"/>
<path d="M46.0699 57.04L70.7899 56.8L68.3199 36.68C72.3299 35.91 69.7199 22.33 58.3599 21.18H54.0099C52.5099 21.18 51.0899 21.94 50.3099 23.22C44.6399 32.48 46.0699 57.04 46.0699 57.04Z" fill="#74E0C1"/>
<path d="M65.26 58.5C64.58 59.99 65.24 61.76 66.73 62.44C67.96 63 69.37 62.66 70.21 61.69C70.39 61.48 70.55 61.24 70.67 60.97C70.97 60.32 71.23 59.68 71.48 59.03L65.69 57.49C65.55 57.83 65.41 58.16 65.26 58.5Z" fill="#FADDDC"/>
<path d="M63.06 25.87C61.69 26.78 61.5 26.64 62.4 28.01C62.5 28.15 70.24 42.55 64.43 56.85L67.45 56.69C73.92 39.71 66.07 26.27 65.61 25.59C64.7 24.23 64.42 24.97 63.05 25.88L63.06 25.87Z" fill="#5DC9A8"/>
<path d="M63.0299 24.76C61.6599 25.67 61.2899 27.51 62.1999 28.88C62.2999 29.02 71.4999 43.19 65.6899 57.49L71.4799 59.03C77.9499 42.05 67.6099 26.27 67.1499 25.58C66.2399 24.22 64.3999 23.85 63.0299 24.76Z" fill="#74E0C1"/>
<path d="M59.65 21.34C57.52 20.84 55.15 20.8 52.47 21.34L53.17 39.58L59.65 21.34Z" fill="white"/>
<path d="M58.5399 7.10999H48.1499V10.6V16.41C48.1499 18.23 49.6299 19.71 51.4499 19.71H52.4999C53.0099 19.71 53.4299 20.12 53.4299 20.64C53.4299 22.21 55.1099 23.21 56.4899 22.46L58.3399 21.46L58.5499 7.11999L58.5399 7.10999Z" fill="#FADDDC"/>
<path d="M48.4599 16.58L47.8599 16.41C47.3199 16.26 46.9999 15.69 47.1499 15.15L47.9799 12.19C48.0399 11.96 48.2799 11.83 48.4999 11.9C48.7199 11.97 48.8599 12.2 48.7899 12.42L48.0699 14.98C47.9799 15.29 48.1599 15.61 48.4699 15.69L48.6799 15.75C48.9099 15.81 49.0399 16.05 48.9699 16.27C48.8999 16.49 48.6699 16.63 48.4499 16.56L48.4599 16.58Z" fill="#E0B1BB"/>
<path d="M49.9199 12.15C49.9199 12.46 50.1699 12.71 50.4799 12.71C50.7899 12.71 51.0399 12.46 51.0399 12.15C51.0399 11.84 50.7899 11.59 50.4799 11.59C50.1699 11.59 49.9199 11.84 49.9199 12.15Z" fill="#757570"/>
<path d="M55.43 11.86C55.43 11.3298 55.8598 10.9 56.39 10.9C56.9202 10.9 57.35 11.3298 57.35 11.86V13.95C57.35 14.4802 56.9202 14.91 56.39 14.91C55.8598 14.91 55.43 14.4802 55.43 13.95V11.86Z" fill="#FADDDC"/>
<path d="M57.86 5.39C57.73 4.78 57.19 4.32 56.54 4.32C56.4 4.32 56.27 4.35 56.14 4.39C55.96 3.85 55.46 3.46 54.87 3.46C54.48 3.46 54.13 3.63 53.89 3.89C53.44 3.35 52.78 3 52.03 3C51.16 3 50.4 3.47 49.98 4.17C49.75 4.04 49.5 3.97 49.22 3.97C48.4 3.97 47.73 4.61 47.66 5.41C46.69 5.52 45.95 6.38 46.05 7.4C46.15 8.35 47.02 9.04 47.97 9.04H54.11C54.7 9.04 55.18 9.52 55.18 10.11V10.53C55.18 11.54 56 12.42 57 12.35C58.99 12.22 57.92 14.72 58.37 15.58C58.52 15.87 58.83 15.66 58.83 15.58L59.74 9.28C60.37 7.52 58.74 5.43 57.86 5.39Z" fill="#3E2967"/>
<path d="M57.86 41.51H65.48V43.28H57.86V41.51Z" fill="#5DC9A8"/>
<path d="M57.64 43.74H62.24V45.51H57.64V43.74Z" fill="#5DC9A8"/>
<path d="M48.3199 42.2H52.9199V43.97H48.3199V42.2Z" fill="#5DC9A8"/>
<path d="M47.27 49.96H51.87V51.73H47.27V49.96Z" fill="#5DC9A8"/>
<path d="M57.25 49.66H61.85V51.43H57.25V49.66Z" fill="#5DC9A8"/>
<path d="M58.43 29.83H63.6V31.6H58.43V29.83Z" fill="#5DC9A8"/>
<path d="M60.6199 37.15H63.8199V38.92H60.6199V37.15Z" fill="#5DC9A8"/>
<path d="M46.78 35.09H49.98V36.86H46.78V35.09Z" fill="#5DC9A8"/>
<path d="M57.44 32.2H60.64V33.97H57.44V32.2Z" fill="#5DC9A8"/>
<path d="M47.48 46.83H58.84V48.6H47.48V46.83Z" fill="#5DC9A8"/>
</g>
<defs>
<clipPath id="clip0_1203_2600">
<rect width="35.54" height="104.68" fill="white" transform="matrix(-1 0 0 1 73.6 3)"/>
</clipPath>
</defs>
</svg>
