<svg width="110" height="110" viewBox="0 0 110 110" fill="none" xmlns="http://www.w3.org/2000/svg">
<g clip-path="url(#clip0_1204_5835)">
<path d="M61.7099 56.78L45.6899 55.76L56.5999 78.46L53.2999 96.7L55.4999 97.25L54.7899 100.57C54.6099 102 54.6099 102.93 56.1399 103.76L60.0499 104.76C60.8199 104.82 61.1799 103.87 60.5799 103.22C60.1799 102.79 59.3399 102.49 58.9799 102.01C57.4099 99.89 58.5299 98.05 58.5299 98.05L62.6399 98.79L66.8099 77.7L61.6999 56.8L61.7099 56.78Z" fill="#494946"/>
<path d="M57.2499 54.84L41.6799 55.21L43.6399 79.77L41.8799 102.07L46.6599 102.74C46.6699 103.33 46.7999 106.26 46.5599 106.8C46.1999 107.6 45.8499 108.86 47.0499 109.28L53.1399 109.73C53.8999 109.58 54.0399 108.22 53.3399 107.75C52.8799 107.44 51.6099 106.89 51.1299 106.61C50.1499 106.02 49.9199 102.8 49.9199 102.8L51.5399 102.84L57.2499 54.84Z" fill="#757570"/>
<path d="M61.26 23.43L63.87 36.78L54.74 40.99L56.32 28.43L61.26 23.43Z" fill="black"/>
<path d="M64.73 60.04H39.3L43.75 36C45.34 23.31 49.61 20.73 53.14 20.73H57.49C58.99 20.73 60.41 21.49 61.19 22.77C66.86 32.03 64.73 60.05 64.73 60.05V60.04Z" fill="#1A181E"/>
<path d="M65.7602 57.31C67.2602 57.99 67.9202 59.75 67.2402 61.25C66.6802 62.48 65.3902 63.15 64.1202 62.97C63.8402 62.93 63.5702 62.85 63.3002 62.73C62.6502 62.44 62.0302 62.12 61.4202 61.8L64.7702 56.84C65.0902 57 65.4202 57.16 65.7602 57.32V57.31Z" fill="#FADDDC"/>
<path d="M45.2801 30.41C46.9101 30.2 48.4001 31.35 48.6101 32.97C48.6301 33.14 51.0001 49.87 64.7701 56.83L61.4201 61.79C45.4001 53.24 42.8201 34.55 42.7201 33.73C42.5101 32.1 43.6601 30.62 45.2901 30.41H45.2801Z" fill="#FADDDC"/>
<path d="M49.75 21.21C49.75 21.21 44.88 23.3 43.29 28.26C41.7 33.22 40.73 37.97 40.73 37.97C40.73 37.97 50.25 40.13 50.52 40.01C50.79 39.89 55.39 25.83 55.39 25.83C55.39 25.83 52.59 21.05 49.76 21.22L49.75 21.21Z" fill="#1A181E"/>
<path d="M49.8501 21.27C49.8501 21.27 50.0501 24.18 53.6901 24.18C57.3301 24.18 56.9201 20.74 56.9201 20.74C56.9201 20.74 52.7001 20.33 49.8501 21.27Z" fill="#3C3B42"/>
<path d="M50.0801 6.64997L60.4601 6.15997L60.6201 9.64997L60.8901 15.45C60.9801 17.27 59.5701 18.82 57.7501 18.9L56.7001 18.95C56.1901 18.97 56.0601 19.39 56.0901 19.9V21.13C56.0101 23.92 51.7901 23.94 50.9601 21.74L50.0701 6.65997L50.0801 6.64997Z" fill="#FADDDC"/>
<path d="M60.59 15.63L61.19 15.43C61.72 15.25 62.01 14.68 61.84 14.14L60.87 11.23C60.8 11.01 60.56 10.89 60.33 10.96C60.1 11.03 59.99 11.27 60.06 11.5L60.9 14.03C61 14.33 60.84 14.66 60.53 14.76L60.32 14.83C60.1 14.9 59.98 15.14 60.05 15.37C60.12 15.6 60.36 15.71 60.59 15.64V15.63Z" fill="#E0B1BB"/>
<path d="M58.9201 11.28C58.9301 11.59 58.7001 11.85 58.3901 11.86C58.0801 11.87 57.8201 11.64 57.8101 11.33C57.8001 11.02 58.0301 10.76 58.3401 10.75C58.6501 10.74 58.9101 10.97 58.9201 11.28Z" fill="#757570"/>
<path d="M52.3109 11.372C52.2858 10.8424 51.8362 10.4334 51.3066 10.4585C50.777 10.4835 50.368 10.9332 50.393 11.4628L50.4919 13.5504C50.5169 14.08 50.9666 14.489 51.4962 14.464C52.0258 14.4389 52.4348 13.9893 52.4097 13.4597L52.3109 11.372Z" fill="#FADDDC"/>
<path d="M55.0101 3.52997C55.8301 3.48997 56.5901 3.13997 57.2501 2.64997C57.7501 2.26997 58.3601 2.03997 59.0301 2.00997C60.1001 1.95997 61.0701 2.43997 61.7001 3.21997C62.1101 3.73997 62.3801 4.37997 62.4201 5.08997C62.4801 6.32997 61.8201 7.41997 60.8301 8.00997C60.7201 8.06997 60.6201 8.12997 60.5001 8.18997C59.8401 8.49997 59.0601 8.69997 58.2101 8.73997C57.1801 8.78997 56.1101 8.72997 55.2901 8.46997C53.8601 8.00997 52.9701 9.30997 53.0301 9.96997L53.1501 11.97C52.9301 13.01 52.5501 13.55 52.0401 13.64C51.3901 13.76 50.4801 13.31 50.5101 13.97L50.6201 16.59C49.9901 16.62 49.1201 13.34 49.0901 12.7L48.4801 9.42997V8.27997C48.3901 6.38997 50.0501 3.86997 51.9401 3.77997L55.0201 3.55997L55.0101 3.52997Z" fill="#3E2967"/>
<path d="M60.6199 30.2H60.6899V30.86C60.6899 31.12 60.6199 31.2 60.5199 31.2C60.4899 31.2 60.4599 31.19 60.4399 31.18V31.08C60.4399 31.08 60.4899 31.1 60.5099 31.1C60.5699 31.1 60.6099 31.05 60.6099 30.86V30.21L60.6199 30.2Z" fill="white"/>
<path d="M60.84 30.85C60.84 31.02 60.9 31.09 60.97 31.09C61.02 31.09 61.05 31.07 61.08 31.05V31.14C61.08 31.14 61.02 31.19 60.96 31.19C60.84 31.19 60.77 31.05 60.77 30.83C60.77 30.61 60.84 30.45 60.95 30.45C61.08 30.45 61.11 30.65 61.11 30.78C61.11 30.81 61.11 30.83 61.11 30.84H60.84V30.85ZM61.05 30.76C61.05 30.68 61.03 30.55 60.95 30.55C60.88 30.55 60.85 30.67 60.84 30.76H61.05Z" fill="white"/>
<path d="M61.21 30.66C61.21 30.59 61.21 30.53 61.21 30.47H61.27V30.59C61.29 30.52 61.33 30.46 61.4 30.46C61.45 30.46 61.54 30.52 61.54 30.76V31.18H61.47V30.77C61.47 30.66 61.45 30.56 61.38 30.56C61.33 30.56 61.3 30.62 61.28 30.69C61.28 30.71 61.28 30.73 61.28 30.75V31.18H61.21V30.67V30.66Z" fill="white"/>
<path d="M61.6602 30.66C61.6602 30.59 61.6602 30.53 61.6602 30.47H61.7202V30.59C61.7402 30.52 61.7802 30.46 61.8502 30.46C61.9002 30.46 61.9902 30.52 61.9902 30.76V31.18H61.9202V30.77C61.9202 30.66 61.9002 30.56 61.8302 30.56C61.7802 30.56 61.7502 30.62 61.7302 30.69C61.7302 30.71 61.7302 30.73 61.7302 30.75V31.18H61.6602V30.67V30.66Z" fill="white"/>
<path d="M62.1401 30.35C62.1401 30.35 62.1001 30.31 62.1001 30.27C62.1001 30.22 62.1201 30.19 62.1401 30.19C62.1601 30.19 62.1801 30.22 62.1801 30.27C62.1801 30.31 62.1601 30.35 62.1401 30.35ZM62.1101 31.18V30.47H62.1801V31.18H62.1101Z" fill="white"/>
<path d="M62.3 31.18V30.57H62.25V30.47H62.3V30.44C62.3 30.34 62.31 30.25 62.35 30.19C62.38 30.14 62.41 30.12 62.44 30.12C62.47 30.12 62.49 30.13 62.5 30.14V30.24C62.5 30.24 62.47 30.22 62.44 30.22C62.38 30.22 62.36 30.32 62.36 30.42V30.46H62.45V30.56H62.36V31.17H62.29L62.3 31.18Z" fill="white"/>
<path d="M62.56 30.85C62.56 31.02 62.62 31.09 62.69 31.09C62.74 31.09 62.77 31.07 62.8 31.05V31.14C62.8 31.14 62.74 31.19 62.68 31.19C62.56 31.19 62.49 31.05 62.49 30.83C62.49 30.61 62.56 30.45 62.67 30.45C62.8 30.45 62.83 30.65 62.83 30.78C62.83 30.81 62.83 30.83 62.83 30.84H62.56V30.85ZM62.77 30.76C62.77 30.68 62.75 30.55 62.67 30.55C62.6 30.55 62.57 30.67 62.56 30.76H62.77Z" fill="white"/>
<path d="M62.9299 30.69C62.9299 30.61 62.9299 30.54 62.9299 30.47H62.9899V30.61C63.0099 30.52 63.0499 30.46 63.0999 30.46C63.0999 30.46 63.1099 30.46 63.1199 30.46V30.58C63.1199 30.58 63.1099 30.58 63.0999 30.58C63.0499 30.58 63.0099 30.65 62.9999 30.74C62.9999 30.76 62.9999 30.78 62.9999 30.8V31.18H62.9299V30.69Z" fill="white"/>
<path d="M52.45 12.09C52.45 11.5598 52.0202 11.13 51.49 11.13C50.9598 11.13 50.53 11.5598 50.53 12.09V14.18C50.53 14.7102 50.9598 15.14 51.49 15.14C52.0202 15.14 52.45 14.7102 52.45 14.18V12.09Z" fill="#FADDDC"/>
<path d="M57.3301 101.81C57.3301 101.81 57.2901 101.77 57.2801 101.74C57.2401 101.64 57.2801 101.52 57.3901 101.48L58.4301 101.04C58.5301 101 58.6501 101.04 58.6901 101.15C58.7301 101.25 58.6901 101.37 58.5801 101.41L57.5401 101.85C57.4701 101.88 57.3901 101.87 57.3301 101.82V101.81Z" fill="white"/>
<path d="M57.7901 102.51C57.7901 102.51 57.7501 102.47 57.7401 102.44C57.6901 102.34 57.7401 102.22 57.8401 102.18L58.8301 101.73C58.9301 101.68 59.0501 101.73 59.0901 101.83C59.1401 101.93 59.0901 102.05 58.9901 102.09L58.0001 102.54C57.9301 102.57 57.8401 102.56 57.7901 102.51Z" fill="white"/>
<path d="M58.42 103.13C58.42 103.13 58.38 103.09 58.37 103.06C58.32 102.96 58.37 102.84 58.47 102.8L59.46 102.35C59.56 102.3 59.68 102.35 59.72 102.45C59.77 102.55 59.72 102.67 59.62 102.71L58.63 103.16C58.56 103.19 58.47 103.18 58.42 103.13Z" fill="white"/>
<path d="M50.15 107.28C50.15 107.28 50.1 107.25 50.08 107.23C50.01 107.15 50.02 107.02 50.1 106.95L50.96 106.21C51.04 106.14 51.17 106.15 51.24 106.23C51.31 106.31 51.3 106.44 51.22 106.51L50.36 107.25C50.3 107.3 50.22 107.31 50.15 107.28Z" fill="white"/>
<path d="M50.82 107.8C50.82 107.8 50.77 107.77 50.75 107.75C50.68 107.67 50.68 107.54 50.76 107.47L51.56 106.74C51.64 106.67 51.77 106.67 51.84 106.75C51.91 106.83 51.91 106.96 51.83 107.03L51.03 107.76C50.97 107.81 50.89 107.83 50.82 107.8Z" fill="white"/>
<path d="M51.6001 108.2C51.6001 108.2 51.5501 108.17 51.5301 108.15C51.4601 108.07 51.4601 107.94 51.5401 107.87L52.3401 107.14C52.4201 107.07 52.5501 107.07 52.6201 107.15C52.6901 107.23 52.6901 107.36 52.6101 107.43L51.8101 108.16C51.7501 108.21 51.6701 108.23 51.6001 108.2Z" fill="white"/>
<path d="M46.6601 102.74L49.9301 102.8L50.1201 104.22L46.6201 104.39L46.6601 102.74Z" fill="white"/>
<path d="M55.4999 97.24L58.5299 98.04L58.1899 99.32L55.1899 98.66L55.4999 97.24Z" fill="white"/>
</g>
<defs>
<clipPath id="clip0_1204_5835">
<rect width="28.21" height="107.73" fill="white" transform="translate(39.3 2)"/>
</clipPath>
</defs>
</svg>
