<svg width="43" height="109" viewBox="0 0 43 109" fill="none" xmlns="http://www.w3.org/2000/svg">
<g clip-path="url(#clip0_109_1064)">
<path d="M30.57 55.19L14.55 54.17L26.05 75.22L21.31 96.18L23.66 96.92V98.96C23.48 100.39 23.48 101.32 25 102.15L28.91 103.15C29.68 103.21 30.04 102.26 29.44 101.61C29.04 101.18 28.2 100.88 27.84 100.4C26.27 98.28 27.09 97.78 27.39 96.44C29.18 88.43 35.6 74.91 35.6 74.91L30.56 55.18L30.57 55.19Z" fill="#291B4C"/>
<path d="M26.11 53.25L10.54 53.62L13.34 102.34L15.66 103.09C15.67 103.68 15.66 104.67 15.41 105.21C15.05 106.01 14.7 107.27 15.9 107.69L21.99 108.14C22.75 107.99 22.89 106.63 22.19 106.16C21.73 105.85 20.46 105.3 19.98 105.02C19 104.43 19.04 103.36 19.23 101.98C20.61 92.01 26.1 53.24 26.1 53.24L26.11 53.25Z" fill="#3E2C6D"/>
<path d="M6.02001 53.61C6.14001 55.25 4.91001 56.68 3.28001 56.8C1.93001 56.9 0.73001 56.09 0.28001 54.89C0.18001 54.63 0.12001 54.35 0.10001 54.06C0.0500098 53.35 0.0200098 52.65 0.0100098 51.96L5.97001 52.52C5.98001 52.88 6.00001 53.25 6.03001 53.62L6.02001 53.61Z" fill="#FADDDC"/>
<path d="M19.7899 22.73C20.7599 24.06 20.4599 25.91 19.1399 26.88C18.9999 26.98 5.45994 37.09 5.95994 52.51L-6.00729e-05 51.96C-0.19006 33.8 14.9699 22.57 15.6399 22.08C16.9699 21.12 18.8199 21.41 19.7899 22.74V22.73Z" fill="#EF9AB4"/>
<path d="M31.71 55.94H8.99998C8.99998 55.94 5.05998 19.32 19.22 18.7L23.56 18.49C25.06 18.42 26.51 19.11 27.35 20.35C33.45 29.34 31.71 55.93 31.71 55.93V55.94Z" fill="#F4B2C4"/>
<path d="M17.9399 18.92C20.0399 18.32 22.4099 18.17 25.1099 18.58L25.2699 36.83L17.9399 18.92Z" fill="white"/>
<path d="M18.38 4.65003L28.76 4.16003L28.92 7.65003L29.19 13.45C29.28 15.27 27.87 16.82 26.05 16.9L25 16.95C24.49 16.97 24.09 17.41 24.12 17.92C24.19 19.49 22.56 20.57 21.15 19.88L19.26 18.97L18.37 4.65003H18.38Z" fill="#FADDDC"/>
<path d="M28.89 13.63L29.49 13.43C30.02 13.25 30.31 12.68 30.14 12.14L29.17 9.23001C29.1 9.01001 28.86 8.89001 28.63 8.96001C28.4 9.03001 28.29 9.27001 28.36 9.50001L29.2 12.03C29.3 12.33 29.14 12.66 28.83 12.76L28.62 12.83C28.4 12.9 28.28 13.14 28.35 13.37C28.42 13.6 28.66 13.71 28.89 13.64V13.63Z" fill="#E0B1BB"/>
<path d="M27.2299 9.27995C27.2399 9.58995 27.0099 9.84995 26.6999 9.85995C26.3899 9.86995 26.1299 9.63995 26.1199 9.32995C26.1099 9.01995 26.3399 8.75995 26.6499 8.74995C26.9599 8.73995 27.2199 8.96995 27.2299 9.27995Z" fill="#757570"/>
<path d="M17.94 18.92L25.28 36.84L16.73 26.02L17.94 18.92Z" fill="#EF9AB4"/>
<path d="M25.11 18.58L25.31 37.38L27.45 24.63L25.11 18.58Z" fill="#EF9AB4"/>
<path d="M25.502 37.369L25.103 37.3975L26.2791 53.8856L26.6781 53.8571L25.502 37.369Z" fill="#EF9AB4"/>
<path d="M20.1633 48.7456L17.5163 48.8709C16.5274 48.9177 15.68 48.1469 15.6332 47.158L15.367 41.5343L21.62 41.2383L21.8862 46.862C21.933 47.8509 21.1622 48.6983 20.1733 48.7451L20.1633 48.7456Z" fill="#EF9AB4"/>
<path d="M31.35 48.5C31.91 48.47 31.98 47.66 31.94 46.67L31.67 41.05L29.2 41.17L29.4699 46.7901C29.5199 47.7801 30.36 48.55 31.35 48.5Z" fill="#EF9AB4"/>
<path d="M20.6223 9.37218C20.5972 8.84258 20.1476 8.43357 19.618 8.45864C19.0884 8.48371 18.6794 8.93335 18.7044 9.46295L18.8033 11.5506C18.8283 12.0802 19.278 12.4892 19.8076 12.4642C20.3372 12.4391 20.7462 11.9894 20.7211 11.4598L20.6223 9.37218Z" fill="#FADDDC"/>
<path d="M23.32 1.53003C24.14 1.49003 24.9 1.14003 25.56 0.650032C26.06 0.270032 26.67 0.040032 27.34 0.010032C28.41 -0.039968 29.38 0.440032 30.01 1.22003C30.42 1.74003 30.69 2.38003 30.73 3.09003C30.79 4.33003 30.13 5.42003 29.14 6.01003C29.03 6.07003 28.93 6.13003 28.81 6.19003C28.15 6.50003 27.37 6.70003 26.52 6.74003C25.49 6.79003 24.42 6.73003 23.6 6.47003C22.17 6.01003 21.1 6.80003 21.15 7.93003L21.02 9.10003C20.8 10.14 20.37 10.46 19.86 10.55C19.21 10.67 18.79 11.3 18.81 11.96L18.92 14.58C18.29 14.61 17.42 11.33 17.39 10.69L16.75 6.12003L16.71 5.29003C16.62 3.40003 18.08 1.79003 19.97 1.70003L23.32 1.54003V1.53003Z" fill="#3E2967"/>
<path d="M40.1399 52.9799C41.7299 53.3699 42.7099 54.99 42.3099 56.58C41.9899 57.89 40.8399 58.78 39.5599 58.84C39.2799 58.85 38.9999 58.8299 38.7099 58.7599C38.0199 58.5899 37.3499 58.3999 36.6899 58.1899L39.0799 52.7C39.4299 52.8 39.7799 52.9 40.1399 52.99V52.9799Z" fill="#FADDDC"/>
<path d="M14.23 27.58C15.79 27.07 17.47 27.93 17.97 29.49C18.02 29.66 23.91 48.93 38.72 53.27L31.82 55.99C17.42 50.6 12.55 32.1 12.3 31.32C11.8 29.76 12.66 28.09 14.22 27.58H14.23Z" fill="#EF9AB4"/>
<path d="M14.27 26.94C15.83 26.43 17.51 27.29 18.01 28.85C18.06 29.02 24.27 48.36 39.08 52.69L36.69 58.18C19.37 52.7 12.61 31.46 12.35 30.67C11.85 29.11 12.71 27.44 14.27 26.93V26.94Z" fill="#F4B2C4"/>
</g>
<defs>
<clipPath id="clip0_109_1064">
<rect width="42.41" height="108.15" fill="white"/>
</clipPath>
</defs>
</svg>
