<svg width="110" height="110" viewBox="0 0 110 110" fill="none" xmlns="http://www.w3.org/2000/svg">
<g clip-path="url(#clip0_1204_6325)">
<path d="M48.65 57.81L62.5 59.12L49.42 81.78L41.21 104.46L35.99 103.35L34.7 106.65C33.77 108.64 33.65 109.49 32.11 108.72L28.28 107.22C27.58 106.87 27.69 105.86 28.51 105.61C29.05 105.45 29.88 105.42 30.44 105.39C32.52 105.29 32.73 102.6 32.73 102.6L31.99 102.44C31.99 102.44 36.04 86.34 37.74 80.36C39.03 75.8 48.65 57.82 48.65 57.82V57.81Z" fill="#494946"/>
<path d="M50.5002 58.9L68.4302 59.28L70.2402 79.38L79.2802 97.77L78.0402 98.66C78.3202 99.16 80.0202 101.43 80.4902 101.75C81.1802 102.21 82.0802 103.08 81.2702 104.11L76.3102 107.96C75.5902 108.27 74.8202 107.21 75.1802 106.41C75.4202 105.88 76.2402 104.7 76.5102 104.2C77.0602 103.15 75.0002 100.34 75.0002 100.34L69.4002 103.39L58.5202 82.79L50.5002 58.91V58.9Z" fill="#757570"/>
<path d="M74.2402 56.46C74.2902 58.1 75.6602 59.39 77.3002 59.34C78.6502 59.3 79.7602 58.36 80.0902 57.12C80.1602 56.85 80.1902 56.57 80.1902 56.27C80.1702 55.56 80.1202 54.86 80.0602 54.17L74.1902 55.35C74.2202 55.71 74.2402 56.08 74.2502 56.45L74.2402 56.46Z" fill="#FADDDC"/>
<path d="M57.29 27.21C56.47 28.63 56.95 30.45 58.37 31.27C58.52 31.36 73.04 39.98 74.17 55.37L80.04 54.19C78.32 36.11 62.06 26.54 61.34 26.12C59.92 25.3 58.11 25.79 57.28 27.21H57.29Z" fill="#FADDDC"/>
<path d="M53.2 26.53L62.64 36.33L70 32.25C66.84 28.09 63.79 24.17 60.14 21.62L53.2 26.53Z" fill="black"/>
<path d="M45.2602 60.04H70.6802L66.2302 36C64.6402 23.31 60.3702 20.73 56.8402 20.73H54.0802C52.7102 20.73 51.4002 21.34 50.5602 22.42C49.7902 23.42 49.2102 24.62 48.7502 25.6C48.1702 26.85 47.7402 28.17 47.4702 29.52C44.3002 44.94 45.2502 60.03 45.2502 60.03L45.2602 60.04Z" fill="#1A181E"/>
<path d="M30.7002 47.84C29.0602 47.95 27.8202 49.36 27.9202 51C28.0102 52.35 28.9802 53.43 30.2302 53.71C30.5002 53.77 30.7902 53.8 31.0802 53.78C31.7902 53.73 32.4902 53.66 33.1702 53.57L31.7902 47.74C31.4302 47.78 31.0702 47.81 30.7002 47.84Z" fill="#FADDDC"/>
<path d="M59.3701 29.91C57.9201 29.14 56.1201 29.68 55.3501 31.13C55.2701 31.28 47.1401 46.09 31.8001 47.74L33.1801 53.57C51.2001 51.23 60.2101 34.66 60.6001 33.93C61.3701 32.48 60.8201 30.69 59.3701 29.91Z" fill="#FADDDC"/>
<path d="M63.5 26.38C63.5 26.38 64.68 31.54 61.61 35.76C58.54 39.98 55.28 43.55 55.28 43.55C55.28 43.55 47.92 37.13 47.87 36.84C47.82 36.55 56.46 24.55 56.46 24.55C56.46 24.55 61.97 23.99 63.5 26.38Z" fill="#1A181E"/>
<path d="M60.03 21.57C60.03 21.57 59.93 24.19 56.29 24.19C52.65 24.19 53.07 20.86 53.07 20.86C53.07 20.86 56.81 19.85 60.03 21.57Z" fill="#3C3B42"/>
<path d="M59.9102 6.64997L49.5302 6.15997L49.3702 9.64997L49.1002 15.45C49.0102 17.27 50.4202 18.82 52.2402 18.9L53.2902 18.95C53.8002 18.97 53.9302 19.39 53.9002 19.9V21.13C53.9802 23.92 58.2002 23.94 59.0302 21.74L59.9202 6.65997L59.9102 6.64997Z" fill="#FADDDC"/>
<path d="M49.4 15.63L48.8 15.43C48.27 15.25 47.98 14.68 48.15 14.14L49.12 11.23C49.19 11.01 49.43 10.89 49.66 10.96C49.89 11.03 50 11.27 49.93 11.5L49.09 14.03C48.99 14.33 49.15 14.66 49.46 14.76L49.67 14.83C49.89 14.9 50.01 15.14 49.94 15.37C49.87 15.6 49.63 15.71 49.4 15.64V15.63Z" fill="#E0B1BB"/>
<path d="M51.0601 11.28C51.0501 11.59 51.2801 11.85 51.5901 11.86C51.9001 11.87 52.1601 11.64 52.1701 11.33C52.1801 11.02 51.9501 10.76 51.6401 10.75C51.3301 10.74 51.0701 10.97 51.0601 11.28Z" fill="#757570"/>
<path d="M57.6715 11.3757C57.6966 10.8461 58.1462 10.437 58.6758 10.4621C59.2054 10.4872 59.6144 10.9368 59.5894 11.4664L59.4906 13.5541C59.4655 14.0837 59.0158 14.4927 58.4862 14.4676C57.9566 14.4426 57.5476 13.9929 57.5727 13.4633L57.6715 11.3757Z" fill="#FADDDC"/>
<path d="M54.9702 3.52997C54.1502 3.48997 53.3902 3.13997 52.7302 2.64997C52.2302 2.26997 51.6202 2.03997 50.9502 2.00997C49.8802 1.95997 48.9102 2.43997 48.2802 3.21997C47.8702 3.73997 47.6002 4.37997 47.5602 5.08997C47.5002 6.32997 48.1602 7.41997 49.1502 8.00997C49.2602 8.06997 49.3602 8.12997 49.4802 8.18997C50.1402 8.49997 50.9202 8.69997 51.7702 8.73997C52.8002 8.78997 53.8702 8.72997 54.6902 8.46997C56.1202 8.00997 57.0102 9.30997 56.9502 9.96997L56.8302 11.97C57.0502 13.01 57.4302 13.55 57.9402 13.64C58.5902 13.76 59.5002 13.31 59.4702 13.97L59.3602 16.59C59.9902 16.62 60.8602 13.34 60.8902 12.7L61.5002 9.42997V8.27997C61.5902 6.38997 59.9302 3.86997 58.0402 3.77997L54.9602 3.55997L54.9702 3.52997Z" fill="#3E2967"/>
<path d="M49.37 30.2H49.3V30.86C49.3 31.12 49.37 31.2 49.47 31.2C49.5 31.2 49.53 31.19 49.55 31.18V31.08C49.55 31.08 49.5 31.1 49.48 31.1C49.42 31.1 49.38 31.05 49.38 30.86V30.21L49.37 30.2Z" fill="white"/>
<path d="M49.1402 30.85C49.1402 31.02 49.0802 31.09 49.0102 31.09C48.9602 31.09 48.9302 31.07 48.9002 31.05V31.14C48.9002 31.14 48.9602 31.19 49.0202 31.19C49.1402 31.19 49.2102 31.05 49.2102 30.83C49.2102 30.61 49.1402 30.45 49.0302 30.45C48.9002 30.45 48.8702 30.65 48.8702 30.78C48.8702 30.81 48.8702 30.83 48.8702 30.84H49.1402V30.85ZM48.9302 30.76C48.9302 30.68 48.9502 30.55 49.0302 30.55C49.1002 30.55 49.1302 30.67 49.1402 30.76H48.9302Z" fill="white"/>
<path d="M48.78 30.66C48.78 30.59 48.78 30.53 48.78 30.47H48.72V30.59C48.7 30.52 48.66 30.46 48.59 30.46C48.54 30.46 48.45 30.52 48.45 30.76V31.18H48.52V30.77C48.52 30.66 48.54 30.56 48.61 30.56C48.66 30.56 48.69 30.62 48.71 30.69C48.71 30.71 48.71 30.73 48.71 30.75V31.18H48.78V30.67V30.66Z" fill="white"/>
<path d="M48.3301 30.66C48.3301 30.59 48.3301 30.53 48.3301 30.47H48.2701V30.59C48.2501 30.52 48.2101 30.46 48.1401 30.46C48.0901 30.46 48.0001 30.52 48.0001 30.76V31.18H48.0701V30.77C48.0701 30.66 48.0901 30.56 48.1601 30.56C48.2101 30.56 48.2401 30.62 48.2601 30.69C48.2601 30.71 48.2601 30.73 48.2601 30.75V31.18H48.3301V30.67V30.66Z" fill="white"/>
<path d="M47.8401 30.35C47.8401 30.35 47.8801 30.31 47.8801 30.27C47.8801 30.22 47.8601 30.19 47.8401 30.19C47.8201 30.19 47.8001 30.22 47.8001 30.27C47.8001 30.31 47.8201 30.35 47.8401 30.35ZM47.8801 31.18V30.47H47.8101V31.18H47.8801Z" fill="white"/>
<path d="M47.68 31.18V30.57H47.73V30.47H47.68V30.44C47.68 30.34 47.67 30.25 47.63 30.19C47.6 30.14 47.57 30.12 47.54 30.12C47.51 30.12 47.49 30.13 47.48 30.14V30.24C47.48 30.24 47.51 30.22 47.54 30.22C47.6 30.22 47.62 30.32 47.62 30.42V30.46H47.53V30.56H47.62V31.17H47.69L47.68 31.18Z" fill="white"/>
<path d="M47.42 30.85C47.42 31.02 47.36 31.09 47.29 31.09C47.24 31.09 47.21 31.07 47.18 31.05V31.14C47.18 31.14 47.24 31.19 47.3 31.19C47.42 31.19 47.49 31.05 47.49 30.83C47.49 30.61 47.42 30.45 47.31 30.45C47.18 30.45 47.15 30.65 47.15 30.78C47.15 30.81 47.15 30.83 47.15 30.84H47.42V30.85ZM47.21 30.76C47.21 30.68 47.23 30.55 47.31 30.55C47.38 30.55 47.41 30.67 47.42 30.76H47.21Z" fill="white"/>
<path d="M47.05 30.69C47.05 30.61 47.05 30.54 47.05 30.47H46.99V30.61C46.97 30.52 46.93 30.46 46.88 30.46C46.88 30.46 46.87 30.46 46.86 30.46V30.58C46.86 30.58 46.87 30.58 46.88 30.58C46.93 30.58 46.97 30.65 46.98 30.74C46.98 30.76 46.98 30.78 46.98 30.8V31.18H47.05V30.69Z" fill="white"/>
<path d="M57.5402 12.09C57.5402 11.5598 57.97 11.13 58.5002 11.13C59.0304 11.13 59.4602 11.5598 59.4602 12.09V14.18C59.4602 14.7102 59.0304 15.14 58.5002 15.14C57.97 15.14 57.5402 14.7102 57.5402 14.18V12.09Z" fill="#FADDDC"/>
<path d="M78.0401 98.66L75.0001 100.33L75.7901 101.57L78.8101 99.73L78.0401 98.66Z" fill="white"/>
<path d="M35.99 103.35L32.62 102.62L32.29 103.77L35.53 104.7L35.99 103.35Z" fill="white"/>
<path d="M31.8302 106.32C31.8302 106.32 31.8902 106.32 31.9202 106.3C32.0202 106.25 32.0602 106.13 32.0102 106.03L31.5002 105.02C31.4502 104.92 31.3302 104.88 31.2302 104.93C31.1302 104.98 31.0902 105.1 31.1402 105.2L31.6502 106.21C31.6902 106.28 31.7602 106.32 31.8302 106.32Z" fill="white"/>
<path d="M31.02 106.55C31.02 106.55 31.08 106.55 31.1 106.53C31.2 106.48 31.24 106.36 31.2 106.26L30.74 105.27C30.69 105.17 30.57 105.13 30.47 105.17C30.37 105.22 30.33 105.34 30.37 105.44L30.83 106.43C30.86 106.5 30.94 106.55 31.01 106.55H31.02Z" fill="white"/>
<path d="M30.1401 106.62C30.1401 106.62 30.2001 106.62 30.2201 106.6C30.3201 106.55 30.3601 106.43 30.3201 106.33L29.8601 105.34C29.8101 105.24 29.6901 105.2 29.5901 105.24C29.4901 105.29 29.4501 105.41 29.4901 105.51L29.9501 106.5C29.9801 106.57 30.0601 106.62 30.1301 106.62H30.1401Z" fill="white"/>
<path d="M77.7801 104.32C77.7801 104.32 77.8101 104.27 77.8201 104.24C77.8401 104.13 77.7701 104.03 77.6601 104L76.5501 103.78C76.4401 103.76 76.3401 103.83 76.3101 103.94C76.2901 104.05 76.3601 104.15 76.4701 104.18L77.5801 104.4C77.6601 104.42 77.7301 104.38 77.7801 104.33V104.32Z" fill="white"/>
<path d="M77.4701 105.1C77.4701 105.1 77.5001 105.05 77.5101 105.02C77.5301 104.91 77.4701 104.81 77.3601 104.78L76.3001 104.54C76.1901 104.51 76.0801 104.58 76.0601 104.69C76.0401 104.8 76.1001 104.9 76.2101 104.93L77.2701 105.17C77.3501 105.19 77.4301 105.16 77.4701 105.1Z" fill="white"/>
<path d="M76.9801 105.84C76.9801 105.84 77.0101 105.79 77.0201 105.76C77.0401 105.65 76.9801 105.55 76.8701 105.52L75.8101 105.28C75.7001 105.25 75.6001 105.32 75.5701 105.43C75.5501 105.54 75.6101 105.64 75.7201 105.67L76.7801 105.91C76.8601 105.93 76.9401 105.9 76.9801 105.84Z" fill="white"/>
</g>
<defs>
<clipPath id="clip0_1204_6325">
<rect width="53.78" height="106.99" fill="white" transform="matrix(-1 0 0 1 81.6001 2)"/>
</clipPath>
</defs>
</svg>
