<svg width="110" height="110" viewBox="0 0 110 110" fill="none" xmlns="http://www.w3.org/2000/svg">
<g clip-path="url(#clip0_1204_5348)">
<path d="M46.2399 104.21L46.1499 104.35C45.6899 105.08 44.3999 105.63 43.5699 105.96L41.9099 106.62C41.5999 106.74 41.3999 107.02 41.3899 107.33C41.3699 107.78 41.7399 108.15 42.2199 108.17L47.1199 108.35C48.4699 108.4 49.6299 107.48 49.7999 106.22L49.9499 105.13C50.0499 104.4 50.1799 103.67 50.3199 102.94L46.8199 102.88C46.6899 103.34 46.5099 103.79 46.2499 104.2L46.2399 104.21Z" fill="#9A9A99"/>
<path d="M46.9901 101.78C46.9801 102.16 46.9101 102.53 46.8201 102.89L50.3201 102.94C50.4201 102.39 50.5301 101.83 50.6601 101.29L51.0201 99.6L47.0801 99.45L46.9901 101.77V101.78Z" fill="white"/>
<path d="M44.1101 106.74C44.0501 106.74 44.0001 106.71 43.9701 106.66L43.5701 106C43.5201 105.92 43.5501 105.82 43.6301 105.77C43.7101 105.72 43.8101 105.75 43.8601 105.83L44.2601 106.49C44.3101 106.57 44.2801 106.67 44.2001 106.72C44.1701 106.74 44.1401 106.75 44.1101 106.74Z" fill="white"/>
<path d="M44.75 106.44C44.69 106.44 44.64 106.41 44.61 106.36L44.21 105.7C44.16 105.62 44.19 105.52 44.27 105.47C44.35 105.42 44.46 105.45 44.5 105.53L44.9 106.19C44.95 106.27 44.92 106.37 44.84 106.42C44.81 106.44 44.78 106.45 44.75 106.44Z" fill="white"/>
<path d="M45.3401 106.19C45.2801 106.19 45.2301 106.16 45.2001 106.11L44.8001 105.45C44.7501 105.37 44.7801 105.27 44.8601 105.22C44.9401 105.17 45.0501 105.2 45.0901 105.28L45.4901 105.94C45.5401 106.02 45.5101 106.12 45.4301 106.17C45.4001 106.19 45.3701 106.2 45.3401 106.19Z" fill="white"/>
<path d="M45.8899 105.8C45.8299 105.8 45.7799 105.77 45.7499 105.72L45.3499 105.06C45.2999 104.98 45.3299 104.88 45.4099 104.83C45.4899 104.78 45.5999 104.81 45.6399 104.89L46.0399 105.55C46.0899 105.63 46.0599 105.73 45.9799 105.78C45.9499 105.8 45.9199 105.81 45.8899 105.8Z" fill="white"/>
<path d="M68.9601 102.62L69.0001 102.86C69.1701 103.79 68.8901 104.74 68.2401 105.44C67.7301 105.99 65.2401 106.52 65.2401 106.52C64.7601 106.58 64.4001 106.95 64.3901 107.4C64.3701 107.91 64.8001 108.34 65.3401 108.36L69.8901 108.53C71.0801 108.57 72.0801 107.69 72.1101 106.57L72.2201 102.67L68.9801 102.62H68.9601Z" fill="#9A9A99"/>
<path d="M66.6001 107.06C66.5401 107.06 66.4901 107.03 66.4601 106.98L66.0601 106.32C66.0101 106.24 66.0401 106.14 66.1201 106.09C66.2001 106.04 66.3001 106.07 66.3501 106.15L66.7501 106.81C66.8001 106.89 66.7701 106.99 66.6901 107.04C66.6601 107.06 66.6301 107.07 66.6001 107.06Z" fill="white"/>
<path d="M67.27 106.83C67.21 106.83 67.16 106.8 67.13 106.75L66.73 106.09C66.68 106.01 66.71 105.91 66.79 105.86C66.87 105.81 66.98 105.84 67.02 105.92L67.42 106.58C67.47 106.66 67.44 106.76 67.36 106.81C67.33 106.83 67.3 106.84 67.27 106.83Z" fill="white"/>
<path d="M67.98 106.61C67.92 106.61 67.87 106.58 67.84 106.53L67.44 105.87C67.39 105.79 67.42 105.69 67.5 105.64C67.58 105.59 67.69 105.62 67.73 105.7L68.13 106.36C68.18 106.44 68.15 106.54 68.07 106.59C68.04 106.61 68.01 106.62 67.98 106.61Z" fill="white"/>
<path d="M68.5901 106.19C68.5301 106.19 68.4801 106.16 68.4501 106.11L68.0501 105.45C68.0001 105.37 68.0301 105.27 68.1101 105.22C68.1901 105.17 68.3001 105.2 68.3401 105.28L68.7401 105.94C68.7901 106.02 68.7601 106.12 68.6801 106.17C68.6501 106.19 68.6201 106.2 68.5901 106.19Z" fill="white"/>
<path d="M72.3899 99.37L68.45 99.36L68.9599 102.6L72.2099 102.65V102.59L72.3899 99.37Z" fill="white"/>
<path d="M59.45 62.73L53.33 101.19H44.47V56.03H74.52V101.19H65.77L59.45 62.73Z" fill="#757570"/>
<path d="M54.8201 20.23L57.1101 39.19L63.0301 20.23H54.8201Z" fill="white"/>
<path d="M83.56 52C83.47 52.68 83.36 53.38 83.22 54.07C83.16 54.36 83.07 54.63 82.94 54.87C82.35 56.01 81.05 56.67 79.73 56.41C78.12 56.09 77.07 54.53 77.39 52.92C77.46 52.56 77.52 52.2 77.58 51.84C78.54 45.61 77.06 39.99 74.97 35.5L80.01 32.15C82.62 37.44 84.58 44.25 83.56 52Z" fill="#FADDDC"/>
<path d="M43.27 59.03H75.96L74.39 28.2C73.6 22.7 73.09 18.76 65.2 18.76H53.36C49.2 18.76 45.82 22.14 45.82 26.3L43.28 59.02L43.27 59.03Z" fill="#18161C"/>
<path d="M67.41 20.62C68.53 19.42 70.4 19.35 71.61 20.46C71.96 20.78 77.36 24.61 80.81 31.63L74.69 35.68C71.67 29.18 67.63 24.89 67.56 24.82C66.36 23.7 66.29 21.82 67.41 20.62Z" fill="#18161C"/>
<path d="M20.3999 39.67C20.7699 39.67 21.1299 39.64 21.4999 39.62C29.3499 39.1 35.4599 35.08 39.5799 31.25L43.1899 36.07C38.4599 40.36 31.5799 44.7 22.6499 45.49C21.9599 45.55 21.2599 45.59 20.5499 45.61C20.2599 45.61 19.9699 45.58 19.6999 45.51C18.4599 45.18 17.5299 44.06 17.4999 42.72C17.4599 41.08 18.7599 39.71 20.3999 39.68V39.67Z" fill="#FADDDC"/>
<path d="M47.5999 21.38C48.8099 20.14 50.2199 20.72 51.4299 21.5C52.8099 22.38 53.1699 27.12 52.4899 28.62C52.1199 29.45 48.6899 32.54 43.8399 36.94L39.4299 31.03C43.3899 27.35 45.6399 23.39 47.5999 21.39V21.38Z" fill="#18161C"/>
<path d="M59.4901 22.54C57.5001 22.54 55.8901 20.93 55.8901 18.94V18.79H63.0901V18.94C63.0901 20.93 61.4801 22.54 59.4901 22.54Z" fill="#3C3B42"/>
<path d="M62.12 5.59003H51.73V13.7C51.73 15.52 53.21 17 55.03 17H56.08C56.59 17 57.01 17.41 57.01 17.93V18.94C57.01 20.34 58.15 21.48 59.55 21.48C60.95 21.48 62.08 20.35 62.09 18.95L62.13 5.59003H62.12Z" fill="#FADDDC"/>
<path d="M55.0899 14H54.4599C53.8999 14 53.4399 13.54 53.4399 12.98V9.90999C53.4399 9.67999 53.6299 9.48999 53.8599 9.48999C54.0899 9.48999 54.2799 9.67999 54.2799 9.90999V12.57C54.2799 12.89 54.5399 13.15 54.8599 13.15H55.0799C55.3099 13.15 55.5099 13.34 55.5099 13.57C55.5099 13.8 55.3199 13.99 55.0799 13.99L55.0899 14Z" fill="#E0B1BB"/>
<path d="M56.1299 10.04C56.1299 10.35 56.3799 10.6 56.6899 10.6C56.9999 10.6 57.2499 10.35 57.2499 10.04C57.2499 9.72998 56.9999 9.47998 56.6899 9.47998C56.3799 9.47998 56.1299 9.72998 56.1299 10.04Z" fill="#3E2967"/>
<path d="M56.8901 2.34C56.0701 2.34 55.2901 2.03 54.6101 1.56C54.1001 1.21 53.4701 1 52.8001 1C51.7301 1 50.7801 1.53 50.1901 2.34C49.8001 2.87 49.5601 3.53 49.5601 4.24C49.5601 5.48 50.2701 6.54 51.2901 7.09C51.4001 7.15 51.5101 7.2 51.6301 7.25C52.3101 7.53 53.1001 7.69 53.9401 7.69C54.9701 7.69 55.9301 7.45 56.6801 7.06C57.2001 6.79 57.7601 6.61 58.3401 6.61C59.4801 6.61 60.4001 7.53 60.4001 8.67V10.7C60.4001 11.62 61.1401 12.36 62.0601 12.36H62.0901C62.7201 12.36 63.2401 11.85 63.2401 11.21V5.78C63.2401 3.89 61.7001 2.35 59.8101 2.35H56.8801L56.8901 2.34Z" fill="#3E2967"/>
<path d="M64.1401 28.92H64.2701V29.58C64.2701 29.84 64.1401 29.92 63.9701 29.92C63.9201 29.92 63.8701 29.91 63.8301 29.9L63.8501 29.8C63.8501 29.8 63.9101 29.82 63.9601 29.82C64.0701 29.82 64.1401 29.77 64.1401 29.58V28.93V28.92Z" fill="white"/>
<path d="M64.5399 29.57C64.5399 29.74 64.6499 29.81 64.7799 29.81C64.8699 29.81 64.9299 29.79 64.9799 29.77L64.9999 29.86C64.9999 29.86 64.8799 29.91 64.7599 29.91C64.5399 29.91 64.4099 29.77 64.4099 29.55C64.4099 29.33 64.5399 29.17 64.7399 29.17C64.9699 29.17 65.0299 29.37 65.0299 29.5C65.0299 29.53 65.0299 29.55 65.0299 29.56H64.5399V29.57ZM64.9199 29.48C64.9199 29.4 64.8899 29.27 64.7399 29.27C64.6099 29.27 64.5499 29.39 64.5399 29.48H64.9099H64.9199Z" fill="white"/>
<path d="M65.2 29.39C65.2 29.32 65.2 29.26 65.2 29.2H65.31V29.32H65.32C65.35 29.25 65.4399 29.19 65.5499 29.19C65.6499 29.19 65.7999 29.25 65.7999 29.49V29.91H65.6699V29.5C65.6699 29.39 65.6299 29.29 65.5099 29.29C65.4299 29.29 65.36 29.35 65.34 29.42C65.34 29.44 65.34 29.46 65.34 29.48V29.91H65.2099V29.4L65.2 29.39Z" fill="white"/>
<path d="M66.01 29.39C66.01 29.32 66.01 29.26 66.01 29.2H66.12V29.32H66.13C66.16 29.25 66.25 29.19 66.36 29.19C66.46 29.19 66.61 29.25 66.61 29.49V29.91H66.48V29.5C66.48 29.39 66.44 29.29 66.32 29.29C66.24 29.29 66.17 29.35 66.15 29.42C66.15 29.44 66.15 29.46 66.15 29.48V29.91H66.02V29.4L66.01 29.39Z" fill="white"/>
<path d="M66.8801 29.08C66.8801 29.08 66.8 29.04 66.8 29C66.8 28.95 66.8301 28.92 66.8801 28.92C66.9301 28.92 66.96 28.95 66.96 29C66.96 29.04 66.9301 29.08 66.8801 29.08ZM66.82 29.9V29.19H66.9501V29.9H66.82Z" fill="white"/>
<path d="M67.1701 29.9V29.29H67.0701V29.19H67.1701V29.16C67.1701 29.06 67.1901 28.97 67.2501 28.91C67.3001 28.86 67.3601 28.84 67.4201 28.84C67.4701 28.84 67.5001 28.85 67.5301 28.86L67.5101 28.96C67.5101 28.96 67.4601 28.94 67.4301 28.94C67.3201 28.94 67.2901 29.04 67.2901 29.14V29.18H67.4601V29.28H67.2901V29.89H67.1601L67.1701 29.9Z" fill="white"/>
<path d="M67.64 29.57C67.64 29.74 67.75 29.81 67.88 29.81C67.97 29.81 68.03 29.79 68.08 29.77L68.1 29.86C68.1 29.86 67.98 29.91 67.86 29.91C67.64 29.91 67.51 29.77 67.51 29.55C67.51 29.33 67.64 29.17 67.84 29.17C68.07 29.17 68.13 29.37 68.13 29.5C68.13 29.53 68.13 29.55 68.13 29.56H67.64V29.57ZM68.01 29.48C68.01 29.4 67.98 29.27 67.83 29.27C67.7 29.27 67.64 29.39 67.63 29.48H68H68.01Z" fill="white"/>
<path d="M68.3 29.42C68.3 29.34 68.3 29.27 68.3 29.2H68.41V29.34H68.42C68.45 29.25 68.53 29.19 68.62 29.19C68.63 29.19 68.6401 29.19 68.6501 29.19V29.31C68.6501 29.31 68.6201 29.31 68.6101 29.31C68.5201 29.31 68.46 29.38 68.44 29.47C68.44 29.49 68.44 29.51 68.44 29.53V29.91H68.3101V29.42H68.3Z" fill="white"/>
</g>
<defs>
<clipPath id="clip0_1204_5348">
<rect width="66.34" height="107.54" fill="white" transform="translate(17.5 1)"/>
</clipPath>
</defs>
</svg>
