<svg width="110" height="110" viewBox="0 0 110 110" fill="none" xmlns="http://www.w3.org/2000/svg">
<g clip-path="url(#clip0_1204_6115)">
<path d="M70 55.18C71.11 56.39 71.02 58.28 69.8 59.38C68.8 60.29 67.35 60.39 66.26 59.73C66.02 59.59 65.8 59.4 65.6 59.19C65.12 58.66 64.67 58.13 64.24 57.59L69.28 54.35C69.51 54.63 69.75 54.91 70 55.18Z" fill="#FADDDC"/>
<path d="M59.0499 23.99C60.6299 24.44 61.5399 26.08 61.0999 27.66C61.0499 27.83 59.3799 42.51 69.2799 54.35L64.2399 57.59C52.8899 43.4 55.1599 26.83 55.3799 26.03C55.8299 24.45 57.4699 23.54 59.0499 23.99Z" fill="#FADDDC"/>
<path d="M57.2299 54.84L43.8299 56.65L43.6099 79.77L41.8499 102.07L46.6299 102.74C46.6399 103.33 46.7699 106.26 46.5299 106.8C46.1699 107.6 45.8199 108.86 47.0199 109.28L53.1099 109.73C53.8699 109.58 54.0099 108.22 53.3099 107.75C52.8499 107.44 51.5799 106.89 51.0999 106.61C50.1199 106.02 49.8899 102.8 49.8899 102.8L51.5099 102.84L57.2199 54.84H57.2299Z" fill="#494946"/>
<path d="M58.83 57.14L43.01 58.79L56.58 78.45L53.28 96.69L55.48 97.24L54.77 100.56C54.59 101.99 54.59 102.92 56.12 103.75L60.03 104.75C60.8 104.81 61.16 103.86 60.56 103.21C60.16 102.78 59.32 102.48 58.96 102C57.39 99.88 58.51 98.04 58.51 98.04L62.62 98.78L66.79 77.69L58.83 57.15V57.14Z" fill="#757570"/>
<path d="M61.24 23.43L63.85 36.78L54.72 40.99L56.3 28.43L61.24 23.43Z" fill="black"/>
<path d="M62.79 60.76L39.28 60.05L43.73 35.99C45.32 23.3 49.59 20.72 53.12 20.72H57.47C58.97 20.72 60.39 21.48 61.17 22.76C66.84 32.02 62.79 60.76 62.79 60.76Z" fill="#1A181E"/>
<path d="M49.5801 60.46C50.5301 61.8 50.2201 63.66 48.8801 64.61C47.7801 65.39 46.3301 65.32 45.3201 64.52C45.1001 64.35 44.9001 64.14 44.7301 63.9C44.3201 63.32 43.9301 62.73 43.5701 62.15L48.9701 59.55C49.1701 59.85 49.3701 60.16 49.5801 60.46Z" fill="#FADDDC"/>
<path d="M45.4399 26.9C46.9499 27.54 47.6599 29.28 47.0299 30.79C46.9599 30.95 40.5799 46.59 48.9699 59.54L43.5699 62.14C34.0299 46.69 41.2199 29.24 41.5499 28.48C42.1899 26.97 43.9299 26.26 45.4399 26.9Z" fill="#FADDDC"/>
<path d="M53.94 21.2C53.94 21.2 48.68 20.55 44.8 24.03C40.92 27.51 37.7 31.13 37.7 31.13C37.7 31.13 44.84 37.79 45.13 37.82C45.42 37.85 56.48 28.02 56.48 28.02C56.48 28.02 56.48 22.48 53.94 21.2Z" fill="#1A181E"/>
<path d="M49.8201 21.27C49.8201 21.27 50.0201 24.18 53.6601 24.18C57.3001 24.18 56.8901 20.74 56.8901 20.74C56.8901 20.74 52.6701 20.33 49.8201 21.27Z" fill="#3C3B42"/>
<path d="M50.05 6.64997L60.43 6.15997L60.59 9.64997L60.86 15.45C60.95 17.27 59.54 18.82 57.72 18.9L56.67 18.95C56.16 18.97 56.03 19.39 56.06 19.9V21.13C55.98 23.92 51.76 23.94 50.93 21.74L50.04 6.65997L50.05 6.64997Z" fill="#FADDDC"/>
<path d="M60.5599 15.63L61.1599 15.43C61.6899 15.25 61.9799 14.68 61.8099 14.14L60.8399 11.23C60.7699 11.01 60.5299 10.89 60.2999 10.96C60.0699 11.03 59.9599 11.27 60.0299 11.5L60.8699 14.03C60.9699 14.33 60.8099 14.66 60.4999 14.76L60.2899 14.83C60.0699 14.9 59.9499 15.14 60.0199 15.37C60.0899 15.6 60.3299 15.71 60.5599 15.64V15.63Z" fill="#E0B1BB"/>
<path d="M58.8999 11.28C58.9099 11.59 58.6799 11.85 58.3699 11.86C58.0599 11.87 57.7999 11.64 57.7899 11.33C57.7799 11.02 58.0099 10.76 58.3199 10.75C58.6299 10.74 58.8899 10.97 58.8999 11.28Z" fill="#757570"/>
<path d="M52.2889 11.3773C52.2639 10.8477 51.8142 10.4387 51.2846 10.4638C50.755 10.4888 50.346 10.9385 50.3711 11.4681L50.4699 13.5557C50.495 14.0853 50.9446 14.4943 51.4742 14.4693C52.0038 14.4442 52.4128 13.9946 52.3877 13.465L52.2889 11.3773Z" fill="#FADDDC"/>
<path d="M54.99 3.52997C55.81 3.48997 56.57 3.13997 57.23 2.64997C57.73 2.26997 58.34 2.03997 59.01 2.00997C60.08 1.95997 61.05 2.43997 61.68 3.21997C62.09 3.73997 62.36 4.37997 62.4 5.08997C62.46 6.32997 61.8 7.41997 60.81 8.00997C60.7 8.06997 60.6 8.12997 60.48 8.18997C59.82 8.49997 59.04 8.69997 58.19 8.73997C57.16 8.78997 56.09 8.72997 55.27 8.46997C53.84 8.00997 52.95 9.30997 53.01 9.96997L53.13 11.97C52.91 13.01 52.53 13.55 52.02 13.64C51.37 13.76 50.46 13.31 50.49 13.97L50.6 16.59C49.97 16.62 49.1 13.34 49.07 12.7L48.46 9.42997V8.27997C48.37 6.38997 50.03 3.86997 51.92 3.77997L55 3.55997L54.99 3.52997Z" fill="#3E2967"/>
<path d="M60.5899 30.2H60.6599V30.86C60.6599 31.12 60.5899 31.2 60.4899 31.2C60.4599 31.2 60.4299 31.19 60.4099 31.18V31.08C60.4099 31.08 60.4599 31.1 60.4799 31.1C60.5399 31.1 60.5799 31.05 60.5799 30.86V30.21L60.5899 30.2Z" fill="white"/>
<path d="M60.82 30.85C60.82 31.02 60.88 31.09 60.95 31.09C61 31.09 61.03 31.07 61.06 31.05V31.14C61.06 31.14 61 31.19 60.94 31.19C60.82 31.19 60.75 31.05 60.75 30.83C60.75 30.61 60.82 30.45 60.93 30.45C61.06 30.45 61.09 30.65 61.09 30.78C61.09 30.81 61.09 30.83 61.09 30.84H60.82V30.85ZM61.03 30.76C61.03 30.68 61.01 30.55 60.93 30.55C60.86 30.55 60.83 30.67 60.82 30.76H61.03Z" fill="white"/>
<path d="M61.1899 30.66C61.1899 30.59 61.1899 30.53 61.1899 30.47H61.2499V30.59C61.2699 30.52 61.3099 30.46 61.3799 30.46C61.4299 30.46 61.5199 30.52 61.5199 30.76V31.18H61.4499V30.77C61.4499 30.66 61.4299 30.56 61.3599 30.56C61.3099 30.56 61.2799 30.62 61.2599 30.69C61.2599 30.71 61.2599 30.73 61.2599 30.75V31.18H61.1899V30.67V30.66Z" fill="white"/>
<path d="M61.6399 30.66C61.6399 30.59 61.6399 30.53 61.6399 30.47H61.6999V30.59C61.7199 30.52 61.7599 30.46 61.8299 30.46C61.8799 30.46 61.9699 30.52 61.9699 30.76V31.18H61.8999V30.77C61.8999 30.66 61.8799 30.56 61.8099 30.56C61.7599 30.56 61.7299 30.62 61.7099 30.69C61.7099 30.71 61.7099 30.73 61.7099 30.75V31.18H61.6399V30.67V30.66Z" fill="white"/>
<path d="M62.1198 30.35C62.1198 30.35 62.0798 30.31 62.0798 30.27C62.0798 30.22 62.0998 30.19 62.1198 30.19C62.1398 30.19 62.1598 30.22 62.1598 30.27C62.1598 30.31 62.1398 30.35 62.1198 30.35ZM62.0898 31.18V30.47H62.1598V31.18H62.0898Z" fill="white"/>
<path d="M62.28 31.18V30.57H62.23V30.47H62.28V30.44C62.28 30.34 62.29 30.25 62.33 30.19C62.36 30.14 62.39 30.12 62.42 30.12C62.45 30.12 62.47 30.13 62.48 30.14V30.24C62.48 30.24 62.45 30.22 62.42 30.22C62.36 30.22 62.34 30.32 62.34 30.42V30.46H62.43V30.56H62.34V31.17H62.27L62.28 31.18Z" fill="white"/>
<path d="M62.54 30.85C62.54 31.02 62.6 31.09 62.67 31.09C62.72 31.09 62.75 31.07 62.78 31.05V31.14C62.78 31.14 62.72 31.19 62.66 31.19C62.54 31.19 62.47 31.05 62.47 30.83C62.47 30.61 62.54 30.45 62.65 30.45C62.78 30.45 62.81 30.65 62.81 30.78C62.81 30.81 62.81 30.83 62.81 30.84H62.54V30.85ZM62.75 30.76C62.75 30.68 62.73 30.55 62.65 30.55C62.58 30.55 62.55 30.67 62.54 30.76H62.75Z" fill="white"/>
<path d="M62.9099 30.69C62.9099 30.61 62.9099 30.54 62.9099 30.47H62.9699V30.61C62.9899 30.52 63.0299 30.46 63.0799 30.46C63.0799 30.46 63.0899 30.46 63.0999 30.46V30.58C63.0999 30.58 63.0899 30.58 63.0799 30.58C63.0299 30.58 62.9899 30.65 62.9799 30.74C62.9799 30.76 62.9799 30.78 62.9799 30.8V31.18H62.9099V30.69Z" fill="white"/>
<path d="M52.42 12.09C52.42 11.5598 51.9902 11.13 51.46 11.13C50.9298 11.13 50.5 11.5598 50.5 12.09V14.18C50.5 14.7102 50.9298 15.14 51.46 15.14C51.9902 15.14 52.42 14.7102 52.42 14.18V12.09Z" fill="#FADDDC"/>
<path d="M57.3 101.81C57.3 101.81 57.26 101.77 57.25 101.74C57.21 101.64 57.25 101.52 57.36 101.48L58.4 101.04C58.5 101 58.62 101.04 58.66 101.15C58.7 101.25 58.66 101.37 58.55 101.41L57.51 101.85C57.44 101.88 57.36 101.87 57.3 101.82V101.81Z" fill="white"/>
<path d="M57.7701 102.51C57.7701 102.51 57.7301 102.47 57.7201 102.44C57.6701 102.34 57.7201 102.22 57.8201 102.18L58.8101 101.73C58.9101 101.68 59.0301 101.73 59.0701 101.83C59.1201 101.93 59.0701 102.05 58.9701 102.09L57.9801 102.54C57.9101 102.57 57.8201 102.56 57.7701 102.51Z" fill="white"/>
<path d="M58.3999 103.13C58.3999 103.13 58.3599 103.09 58.3499 103.06C58.2999 102.96 58.3499 102.84 58.4499 102.8L59.4399 102.35C59.5399 102.3 59.6599 102.35 59.6999 102.45C59.7499 102.55 59.6999 102.67 59.5999 102.71L58.6099 103.16C58.5399 103.19 58.4499 103.18 58.3999 103.13Z" fill="white"/>
<path d="M50.13 107.28C50.13 107.28 50.08 107.25 50.06 107.23C49.99 107.15 50 107.02 50.08 106.95L50.94 106.21C51.02 106.14 51.15 106.15 51.22 106.23C51.29 106.31 51.28 106.44 51.2 106.51L50.34 107.25C50.28 107.3 50.2 107.31 50.13 107.28Z" fill="white"/>
<path d="M50.79 107.8C50.79 107.8 50.74 107.77 50.72 107.75C50.65 107.67 50.65 107.54 50.73 107.47L51.53 106.74C51.61 106.67 51.74 106.67 51.81 106.75C51.88 106.83 51.88 106.96 51.8 107.03L51 107.76C50.94 107.81 50.86 107.83 50.79 107.8Z" fill="white"/>
<path d="M51.5801 108.2C51.5801 108.2 51.5301 108.17 51.5101 108.15C51.4401 108.07 51.4401 107.94 51.5201 107.87L52.3201 107.14C52.4001 107.07 52.5301 107.07 52.6001 107.15C52.6701 107.23 52.6701 107.36 52.5901 107.43L51.7901 108.16C51.7301 108.21 51.6501 108.23 51.5801 108.2Z" fill="white"/>
<path d="M46.6399 102.74L49.9099 102.8L50.0999 104.22L46.5999 104.39L46.6399 102.74Z" fill="white"/>
<path d="M55.4799 97.24L58.5099 98.04L58.1699 99.32L55.1599 98.66L55.4799 97.24Z" fill="white"/>
</g>
<defs>
<clipPath id="clip0_1204_6115">
<rect width="33.07" height="107.73" fill="white" transform="translate(37.7 2)"/>
</clipPath>
</defs>
</svg>
