<svg width="110" height="110" viewBox="0 0 110 110" fill="none" xmlns="http://www.w3.org/2000/svg">
<g clip-path="url(#clip0_1203_5234)">
<path d="M61.8499 83.09C61.7699 83.71 61.3499 86.9 60.9299 87.68C60.4399 88.59 59.0099 88.76 58.6599 87.55C58.5899 87.31 58.3999 85.48 58.1599 82.96L61.8499 83.09Z" fill="#494946"/>
<path d="M69.21 57.44L66.03 83.24L61.85 83.09L58.16 82.96C57.52 76.32 56.52 64.85 56.52 64.85H54.98L55.32 99.88L54.01 100.04C54.01 100.04 53.99 103.21 54.28 104C54.72 105.19 55.54 106.23 53.29 106.69L49.45 108.23C48.67 108.23 47.95 107.4 48.4 106.74C48.9 106.03 49.46 105.57 50 105.15C50.95 104.4 50.15 101.5 50.05 100.65L46.15 101.09L42.29 57.44H69.21Z" fill="#757570"/>
<path d="M50.3201 21.23L52.6101 40.19L58.5301 21.23H50.3201Z" fill="white"/>
<path d="M79.06 53C78.97 53.68 78.86 54.38 78.72 55.07C78.66 55.36 78.57 55.63 78.44 55.87C77.85 57.01 76.55 57.67 75.23 57.41C73.62 57.09 72.57 55.53 72.89 53.92C72.96 53.56 73.02 53.2 73.08 52.84C74.04 46.61 72.56 40.99 70.47 36.5L75.51 33.15C78.12 38.44 80.08 45.25 79.06 53Z" fill="#FADDDC"/>
<path d="M38.77 60.03H71.46L69.89 29.2C69.1 23.7 68.59 19.76 60.7 19.76H48.86C44.7 19.76 41.32 23.14 41.32 27.3L38.78 60.02L38.77 60.03Z" fill="#18161C"/>
<path d="M62.91 21.62C64.03 20.42 65.9 20.35 67.11 21.46C67.46 21.78 72.86 25.61 76.31 32.63L70.19 36.68C67.17 30.18 63.13 25.89 63.06 25.82C61.86 24.7 61.79 22.82 62.91 21.62Z" fill="#18161C"/>
<path d="M15.8999 40.67C16.2699 40.67 16.6299 40.64 16.9999 40.62C24.8499 40.1 30.9599 36.08 35.0799 32.25L38.6899 37.07C33.9599 41.36 27.0799 45.7 18.1499 46.49C17.4599 46.55 16.7599 46.59 16.0499 46.61C15.7599 46.61 15.4699 46.58 15.1999 46.51C13.9599 46.18 13.0299 45.06 12.9999 43.72C12.9599 42.08 14.2599 40.71 15.8999 40.68V40.67Z" fill="#FADDDC"/>
<path d="M43.0999 22.38C44.3099 21.14 45.7199 21.72 46.9299 22.5C48.3099 23.38 48.6699 28.12 47.9899 29.62C47.6199 30.45 44.1899 33.54 39.3399 37.94L34.9299 32.03C38.8899 28.35 41.1399 24.39 43.0999 22.39V22.38Z" fill="#18161C"/>
<path d="M54.9901 23.54C53.0001 23.54 51.3901 21.93 51.3901 19.94V19.79H58.5901V19.94C58.5901 21.93 56.9801 23.54 54.9901 23.54Z" fill="#3C3B42"/>
<path d="M57.62 6.59H47.23V14.7C47.23 16.52 48.71 18 50.53 18H51.58C52.09 18 52.51 18.41 52.51 18.93V19.94C52.51 21.34 53.65 22.48 55.05 22.48C56.45 22.48 57.58 21.35 57.59 19.95L57.63 6.59H57.62Z" fill="#FADDDC"/>
<path d="M50.5899 15H49.9599C49.3999 15 48.9399 14.54 48.9399 13.98V10.91C48.9399 10.68 49.1299 10.49 49.3599 10.49C49.5899 10.49 49.7799 10.68 49.7799 10.91V13.57C49.7799 13.89 50.0399 14.15 50.3599 14.15H50.5799C50.8099 14.15 51.0099 14.34 51.0099 14.57C51.0099 14.8 50.8199 14.99 50.5799 14.99L50.5899 15Z" fill="#E0B1BB"/>
<path d="M51.6299 11.04C51.6299 11.35 51.8799 11.6 52.1899 11.6C52.4999 11.6 52.7499 11.35 52.7499 11.04C52.7499 10.73 52.4999 10.48 52.1899 10.48C51.8799 10.48 51.6299 10.73 51.6299 11.04Z" fill="#3E2967"/>
<path d="M52.3901 3.34C51.5701 3.34 50.7901 3.03 50.1101 2.56C49.6001 2.21 48.9701 2 48.3001 2C47.2301 2 46.2801 2.53 45.6901 3.34C45.3001 3.87 45.0601 4.53 45.0601 5.24C45.0601 6.48 45.7701 7.54 46.7901 8.09C46.9001 8.15 47.0101 8.2 47.1301 8.25C47.8101 8.53 48.6001 8.69 49.4401 8.69C50.4701 8.69 51.4301 8.45 52.1801 8.06C52.7001 7.79 53.2601 7.61 53.8401 7.61C54.9801 7.61 55.9001 8.53 55.9001 9.67V11.7C55.9001 12.62 56.6401 13.36 57.5601 13.36H57.5901C58.2201 13.36 58.7401 12.85 58.7401 12.21V6.78C58.7401 4.89 57.2001 3.35 55.3101 3.35H52.3801L52.3901 3.34Z" fill="#3E2967"/>
<path d="M59.6401 29.92H59.7701V30.58C59.7701 30.84 59.6401 30.92 59.4701 30.92C59.4201 30.92 59.3701 30.91 59.3301 30.9L59.3501 30.8C59.3501 30.8 59.4101 30.82 59.4601 30.82C59.5701 30.82 59.6401 30.77 59.6401 30.58V29.93V29.92Z" fill="white"/>
<path d="M60.0399 30.57C60.0399 30.74 60.1499 30.81 60.2799 30.81C60.3699 30.81 60.4299 30.79 60.4799 30.77L60.4999 30.86C60.4999 30.86 60.3799 30.91 60.2599 30.91C60.0399 30.91 59.9099 30.77 59.9099 30.55C59.9099 30.33 60.0399 30.17 60.2399 30.17C60.4699 30.17 60.5299 30.37 60.5299 30.5C60.5299 30.53 60.5299 30.55 60.5299 30.56H60.0399V30.57ZM60.4199 30.48C60.4199 30.4 60.3899 30.27 60.2399 30.27C60.1099 30.27 60.0499 30.39 60.0399 30.48H60.4099H60.4199Z" fill="white"/>
<path d="M60.7 30.39C60.7 30.32 60.7 30.26 60.7 30.2H60.81V30.32H60.82C60.85 30.25 60.9399 30.19 61.0499 30.19C61.1499 30.19 61.2999 30.25 61.2999 30.49V30.91H61.1699V30.5C61.1699 30.39 61.1299 30.29 61.0099 30.29C60.9299 30.29 60.86 30.35 60.84 30.42C60.84 30.44 60.84 30.46 60.84 30.48V30.91H60.7099V30.4L60.7 30.39Z" fill="white"/>
<path d="M61.51 30.39C61.51 30.32 61.51 30.26 61.51 30.2H61.62V30.32H61.63C61.66 30.25 61.75 30.19 61.86 30.19C61.96 30.19 62.11 30.25 62.11 30.49V30.91H61.98V30.5C61.98 30.39 61.94 30.29 61.82 30.29C61.74 30.29 61.67 30.35 61.65 30.42C61.65 30.44 61.65 30.46 61.65 30.48V30.91H61.52V30.4L61.51 30.39Z" fill="white"/>
<path d="M62.3801 30.08C62.3801 30.08 62.3 30.04 62.3 30C62.3 29.95 62.3301 29.92 62.3801 29.92C62.4301 29.92 62.46 29.95 62.46 30C62.46 30.04 62.4301 30.08 62.3801 30.08ZM62.32 30.9V30.19H62.4501V30.9H62.32Z" fill="white"/>
<path d="M62.6701 30.9V30.29H62.5701V30.19H62.6701V30.16C62.6701 30.06 62.6901 29.97 62.7501 29.91C62.8001 29.86 62.8601 29.84 62.9201 29.84C62.9701 29.84 63.0001 29.85 63.0301 29.86L63.0101 29.96C63.0101 29.96 62.9601 29.94 62.9301 29.94C62.8201 29.94 62.7901 30.04 62.7901 30.14V30.18H62.9601V30.28H62.7901V30.89H62.6601L62.6701 30.9Z" fill="white"/>
<path d="M63.14 30.57C63.14 30.74 63.25 30.81 63.38 30.81C63.47 30.81 63.53 30.79 63.58 30.77L63.6 30.86C63.6 30.86 63.48 30.91 63.36 30.91C63.14 30.91 63.01 30.77 63.01 30.55C63.01 30.33 63.14 30.17 63.34 30.17C63.57 30.17 63.63 30.37 63.63 30.5C63.63 30.53 63.63 30.55 63.63 30.56H63.14V30.57ZM63.51 30.48C63.51 30.4 63.48 30.27 63.33 30.27C63.2 30.27 63.14 30.39 63.13 30.48H63.5H63.51Z" fill="white"/>
<path d="M63.8 30.42C63.8 30.34 63.8 30.27 63.8 30.2H63.91V30.34H63.92C63.95 30.25 64.03 30.19 64.12 30.19C64.13 30.19 64.1401 30.19 64.1501 30.19V30.31C64.1501 30.31 64.1201 30.31 64.1101 30.31C64.0201 30.31 63.96 30.38 63.94 30.47C63.94 30.49 63.94 30.51 63.94 30.53V30.91H63.8101V30.42H63.8Z" fill="white"/>
<path d="M50.05 100.64L54 100.04L54.03 101.55L50.3 102.07L50.05 100.64Z" fill="white"/>
<path d="M50.2901 106.87C50.2901 106.87 50.2601 106.93 50.2401 106.95C50.1601 107.03 50.0301 107.02 49.9601 106.95L49.1801 106.14C49.1001 106.06 49.1001 105.93 49.1801 105.86C49.2601 105.78 49.3901 105.79 49.4601 105.86L50.2401 106.67C50.2901 106.73 50.3101 106.81 50.2801 106.88L50.2901 106.87Z" fill="white"/>
<path d="M50.7801 106.18C50.7801 106.18 50.7601 106.23 50.7301 106.25C50.6501 106.33 50.5301 106.33 50.4501 106.25L49.6701 105.49C49.5901 105.41 49.5901 105.29 49.6701 105.21C49.7501 105.13 49.8701 105.13 49.9501 105.21L50.7301 105.97C50.7901 106.03 50.8001 106.11 50.7801 106.18Z" fill="white"/>
<path d="M51.14 105.37C51.14 105.37 51.12 105.42 51.09 105.44C51.01 105.52 50.89 105.52 50.81 105.44L50.03 104.68C49.95 104.6 49.95 104.48 50.03 104.4C50.11 104.32 50.23 104.32 50.31 104.4L51.09 105.16C51.15 105.22 51.16 105.3 51.14 105.37Z" fill="white"/>
<path d="M60.74 86.12C60.74 86.12 60.76 86.18 60.76 86.21C60.76 86.32 60.67 86.41 60.56 86.41H59.43C59.32 86.4 59.23 86.31 59.23 86.2C59.23 86.09 59.32 86 59.43 86H60.56C60.64 86.01 60.71 86.06 60.74 86.12Z" fill="white"/>
<path d="M60.71 85.29C60.71 85.29 60.73 85.34 60.73 85.37C60.73 85.48 60.64 85.57 60.53 85.57L59.44 85.59C59.33 85.59 59.24 85.5 59.24 85.39C59.24 85.28 59.33 85.19 59.44 85.19L60.53 85.17C60.61 85.17 60.68 85.21 60.71 85.28V85.29Z" fill="white"/>
<path d="M60.71 84.47C60.71 84.47 60.73 84.52 60.73 84.55C60.73 84.66 60.64 84.75 60.53 84.75L59.44 84.77C59.33 84.77 59.24 84.68 59.24 84.57C59.24 84.46 59.33 84.37 59.44 84.37L60.53 84.35C60.61 84.35 60.68 84.39 60.71 84.46V84.47Z" fill="white"/>
</g>
<defs>
<clipPath id="clip0_1203_5234">
<rect width="66.34" height="106.23" fill="white" transform="translate(13 2)"/>
</clipPath>
</defs>
</svg>
