<svg width="110" height="110" viewBox="0 0 110 110" fill="none" xmlns="http://www.w3.org/2000/svg">
<g clip-path="url(#clip0_1204_5587)">
<path d="M70.3801 54.78H42.8701L46.0601 97.84L50.7801 99.1C50.7801 99.1 51.3301 101.49 50.8901 102.12C50.4501 102.75 49.3501 100.8 48.1501 101.36C47.3601 101.72 48.0001 103.64 48.5701 104.55L54.4001 109.19C56.7001 108.66 56.4201 106.85 55.9401 105.48C54.4601 101.25 54.5701 99.27 54.5701 99.27L55.3101 99.33C55.3101 99.33 54.2601 68.72 54.1201 64.77C54.0801 63.73 54.9601 62.61 55.8301 62.61H57.4101C58.2801 62.61 58.7401 63.37 58.7401 64.4C58.7401 69.26 58.7401 78.02 58.7701 81.58C58.7701 81.58 58.9201 85.76 59.1701 86.76C59.5301 88.18 60.9801 87.97 61.4801 86.92C61.9101 86.01 62.3501 82.3 62.4301 81.58L64.7201 81.64L70.3701 54.79L70.3801 54.78Z" fill="#757570"/>
<path d="M62.43 81.57H58.77L58.82 82.73L62.28 83.03L62.43 81.57Z" fill="white"/>
<path d="M50.77 99.1L54.56 99.26L54.84 101.86L51.01 101.32L50.77 99.1Z" fill="white"/>
<path d="M58.66 15.27H54.05V18.62H58.66V15.27Z" fill="#FADDDC"/>
<path d="M61.55 11.62H60.99V9.07001C60.99 8.66001 61.32 8.32001 61.74 8.32001H62.04C62.45 8.32001 62.79 8.65001 62.79 9.07001L62.44 10.74C62.44 11.23 62.05 11.62 61.56 11.62H61.55Z" fill="#FADDDC"/>
<path d="M50.44 11.62H51V9.07001C51 8.66001 50.67 8.32001 50.25 8.32001H49.95C49.54 8.32001 49.2 8.65001 49.2 9.07001L49.5499 10.74C49.5499 11.23 49.94 11.62 50.43 11.62H50.44Z" fill="#FADDDC"/>
<path d="M71.87 46.99C71.77 48.35 72.8 49.54 74.16 49.64C74.22 49.64 74.28 49.64 74.34 49.64C75.63 49.64 76.71 48.64 76.81 47.34C76.84 46.91 76.86 46.49 76.88 46.07H71.92C71.91 46.37 71.9 46.67 71.87 46.98V46.99Z" fill="#FADDDC"/>
<path d="M66.06 20.34C64.87 19.68 63.38 20.11 62.71 21.29C62.04 22.48 62.46 23.98 63.65 24.66C64.11 24.92 72.77 28.92 71.92 46.07H76.88C77.77 25.9 66.62 20.65 66.06 20.34Z" fill="#FADDDC"/>
<path d="M70.3701 57.69H42.8701L42.8801 27.78C42.8801 22.64 47.0501 18.47 52.1901 18.47H61.0801C66.2201 18.47 70.3901 22.64 70.3901 27.78L70.3701 57.69Z" fill="#1A181E"/>
<path d="M62.7301 3.68002C62.5301 2.82002 62.0101 2.04002 61.2801 1.53002C60.4501 0.950016 59.4601 0.920016 58.5001 1.09002C57.6401 1.24002 56.7901 1.50002 55.9501 1.71002C55.1601 1.91002 54.3501 2.08002 53.5701 2.32002C52.7601 2.57002 51.9501 2.94002 51.3501 3.56002C50.7401 4.18002 50.4201 4.96002 50.2901 5.80002C50.1701 6.06002 50.1001 6.35002 50.1001 6.74002C50.1001 8.19002 50.2001 9.42002 50.4501 10.4C50.7001 11.38 51.7501 14.66 53.7801 15.97C54.7501 16.6 57.3401 16.98 58.6401 15.97C59.9301 14.96 61.0701 13.64 61.3901 11.56C61.7101 9.48002 61.7301 9.10002 62.0801 8.12002C62.1701 7.87002 62.2001 7.54002 62.1901 7.18002C62.7301 6.10002 63.0401 4.94002 62.7501 3.70002L62.7301 3.68002Z" fill="#3E2967"/>
<path d="M38.8801 60.35C39.4301 62.05 38.5001 63.88 36.8001 64.43C35.4001 64.88 33.9201 64.34 33.1301 63.18C32.9601 62.93 32.8201 62.65 32.7201 62.35C32.4801 61.61 32.2701 60.88 32.0901 60.15L38.5401 59.2C38.6501 59.58 38.7601 59.96 38.8801 60.35Z" fill="#FADDDC"/>
<path d="M45.4699 24.14C46.8399 25.29 47.0099 27.33 45.8599 28.7C45.7399 28.84 34.0299 43.02 38.5399 59.21L32.0899 60.16C27.1999 40.99 40.3299 25.2 40.9199 24.52C42.0799 23.16 44.1099 22.99 45.4799 24.14H45.4699Z" fill="#FADDDC"/>
<path d="M49.9501 18.79C49.9501 18.79 39.9501 19.76 34.3501 31.73L43.4701 38.54L46.3001 32.62C48.4201 29.9 49.6401 26.58 49.7801 23.14L49.9501 18.79Z" fill="#1A181E"/>
<path d="M63.13 19.32C63.13 19.32 69.8 19.89 74.75 29.5L68.65 34.73C68.65 34.73 64.42 30.43 63.06 26.12C61.7 21.81 63.13 19.31 63.13 19.31V19.32Z" fill="#1A181E"/>
</g>
<defs>
<clipPath id="clip0_1204_5587">
<rect width="45.93" height="108.19" fill="white" transform="translate(31 1)"/>
</clipPath>
</defs>
</svg>
