<svg width="110" height="110" viewBox="0 0 110 110" fill="none" xmlns="http://www.w3.org/2000/svg">
<g clip-path="url(#clip0_1204_6291)">
<path d="M48.2901 56.78L64.3101 55.76L53.4001 78.46L56.7001 96.7L54.5001 97.25L55.2101 100.57C55.3901 102 55.3901 102.93 53.8601 103.76L49.9501 104.76C49.1801 104.82 48.8201 103.87 49.4201 103.22C49.8201 102.79 50.6601 102.49 51.0201 102.01C52.5901 99.89 51.4701 98.05 51.4701 98.05L47.3601 98.79L43.1901 77.7L48.3001 56.8L48.2901 56.78Z" fill="#494946"/>
<path d="M52.7501 54.84L68.3201 55.21L66.3601 79.77L68.1201 102.07L63.3401 102.74C63.3301 103.33 63.2001 106.26 63.4401 106.8C63.8001 107.6 64.1501 108.86 62.9501 109.28L56.8601 109.73C56.1001 109.58 55.9601 108.22 56.6601 107.75C57.1201 107.44 58.3901 106.89 58.8701 106.61C59.8501 106.02 60.0801 102.8 60.0801 102.8L58.4601 102.84L52.7501 54.84Z" fill="#757570"/>
<path d="M48.74 23.43L46.13 36.78L55.26 40.99L53.68 28.43L48.74 23.43Z" fill="black"/>
<path d="M45.27 60.04H70.7L66.25 36C64.66 23.31 60.39 20.73 56.86 20.73H52.51C51.01 20.73 49.59 21.49 48.81 22.77C43.14 32.03 45.27 60.05 45.27 60.05V60.04Z" fill="#1A181E"/>
<path d="M44.2398 57.31C42.7398 57.99 42.0798 59.75 42.7598 61.25C43.3198 62.48 44.6098 63.15 45.8798 62.97C46.1598 62.93 46.4298 62.85 46.6998 62.73C47.3498 62.44 47.9698 62.12 48.5798 61.8L45.2298 56.84C44.9098 57 44.5798 57.16 44.2398 57.32V57.31Z" fill="#FADDDC"/>
<path d="M64.7199 30.41C63.0899 30.2 61.5999 31.35 61.3899 32.97C61.3699 33.14 58.9999 49.87 45.2299 56.83L48.5799 61.79C64.5999 53.24 67.1799 34.55 67.2799 33.73C67.4899 32.1 66.3399 30.62 64.7099 30.41H64.7199Z" fill="#FADDDC"/>
<path d="M60.25 21.21C60.25 21.21 65.12 23.3 66.71 28.26C68.3 33.22 69.27 37.97 69.27 37.97C69.27 37.97 59.75 40.13 59.48 40.01C59.21 39.89 54.61 25.83 54.61 25.83C54.61 25.83 57.41 21.05 60.24 21.22L60.25 21.21Z" fill="#1A181E"/>
<path d="M60.1499 21.27C60.1499 21.27 59.9499 24.18 56.3099 24.18C52.6699 24.18 53.0799 20.74 53.0799 20.74C53.0799 20.74 57.2999 20.33 60.1499 21.27Z" fill="#3C3B42"/>
<path d="M59.9199 6.64997L49.5399 6.15997L49.3799 9.64997L49.1099 15.45C49.0199 17.27 50.4299 18.82 52.2499 18.9L53.2999 18.95C53.8099 18.97 53.9399 19.39 53.9099 19.9V21.13C53.9899 23.92 58.2099 23.94 59.0399 21.74L59.9299 6.65997L59.9199 6.64997Z" fill="#FADDDC"/>
<path d="M49.41 15.63L48.81 15.43C48.28 15.25 47.99 14.68 48.16 14.14L49.13 11.23C49.2 11.01 49.44 10.89 49.67 10.96C49.9 11.03 50.01 11.27 49.94 11.5L49.1 14.03C49 14.33 49.16 14.66 49.47 14.76L49.68 14.83C49.9 14.9 50.02 15.14 49.95 15.37C49.88 15.6 49.64 15.71 49.41 15.64V15.63Z" fill="#E0B1BB"/>
<path d="M51.0799 11.28C51.0699 11.59 51.2999 11.85 51.6099 11.86C51.9199 11.87 52.1799 11.64 52.1899 11.33C52.1999 11.02 51.9699 10.76 51.6599 10.75C51.3499 10.74 51.0899 10.97 51.0799 11.28Z" fill="#757570"/>
<path d="M57.6891 11.372C57.7142 10.8424 58.1638 10.4334 58.6934 10.4585C59.223 10.4835 59.632 10.9332 59.607 11.4628L59.5081 13.5504C59.4831 14.08 59.0334 14.489 58.5038 14.464C57.9742 14.4389 57.5652 13.9893 57.5903 13.4597L57.6891 11.372Z" fill="#FADDDC"/>
<path d="M54.9899 3.52997C54.1699 3.48997 53.4099 3.13997 52.7499 2.64997C52.2499 2.26997 51.6399 2.03997 50.9699 2.00997C49.8999 1.95997 48.9299 2.43997 48.2999 3.21997C47.8899 3.73997 47.6199 4.37997 47.5799 5.08997C47.5199 6.32997 48.1799 7.41997 49.1699 8.00997C49.2799 8.06997 49.3799 8.12997 49.4999 8.18997C50.1599 8.49997 50.9399 8.69997 51.7899 8.73997C52.8199 8.78997 53.8899 8.72997 54.7099 8.46997C56.1399 8.00997 57.0299 9.30997 56.9699 9.96997L56.8499 11.97C57.0699 13.01 57.4499 13.55 57.9599 13.64C58.6099 13.76 59.5199 13.31 59.4899 13.97L59.3799 16.59C60.0099 16.62 60.8799 13.34 60.9099 12.7L61.5199 9.42997V8.27997C61.6099 6.38997 59.9499 3.86997 58.0599 3.77997L54.9799 3.55997L54.9899 3.52997Z" fill="#3E2967"/>
<path d="M49.3801 30.2H49.3101V30.86C49.3101 31.12 49.3801 31.2 49.4801 31.2C49.5101 31.2 49.5401 31.19 49.5601 31.18V31.08C49.5601 31.08 49.5101 31.1 49.4901 31.1C49.4301 31.1 49.3901 31.05 49.3901 30.86V30.21L49.3801 30.2Z" fill="white"/>
<path d="M49.16 30.85C49.16 31.02 49.1 31.09 49.03 31.09C48.98 31.09 48.95 31.07 48.92 31.05V31.14C48.92 31.14 48.98 31.19 49.04 31.19C49.16 31.19 49.23 31.05 49.23 30.83C49.23 30.61 49.16 30.45 49.05 30.45C48.92 30.45 48.89 30.65 48.89 30.78C48.89 30.81 48.89 30.83 48.89 30.84H49.16V30.85ZM48.95 30.76C48.95 30.68 48.97 30.55 49.05 30.55C49.12 30.55 49.15 30.67 49.16 30.76H48.95Z" fill="white"/>
<path d="M48.79 30.66C48.79 30.59 48.79 30.53 48.79 30.47H48.73V30.59C48.71 30.52 48.67 30.46 48.6 30.46C48.55 30.46 48.46 30.52 48.46 30.76V31.18H48.53V30.77C48.53 30.66 48.55 30.56 48.62 30.56C48.67 30.56 48.7 30.62 48.72 30.69C48.72 30.71 48.72 30.73 48.72 30.75V31.18H48.79V30.67V30.66Z" fill="white"/>
<path d="M48.3398 30.66C48.3398 30.59 48.3398 30.53 48.3398 30.47H48.2798V30.59C48.2598 30.52 48.2198 30.46 48.1498 30.46C48.0998 30.46 48.0098 30.52 48.0098 30.76V31.18H48.0798V30.77C48.0798 30.66 48.0998 30.56 48.1698 30.56C48.2198 30.56 48.2498 30.62 48.2698 30.69C48.2698 30.71 48.2698 30.73 48.2698 30.75V31.18H48.3398V30.67V30.66Z" fill="white"/>
<path d="M47.8599 30.35C47.8599 30.35 47.8999 30.31 47.8999 30.27C47.8999 30.22 47.8799 30.19 47.8599 30.19C47.8399 30.19 47.8199 30.22 47.8199 30.27C47.8199 30.31 47.8399 30.35 47.8599 30.35ZM47.8899 31.18V30.47H47.8199V31.18H47.8899Z" fill="white"/>
<path d="M47.7 31.18V30.57H47.75V30.47H47.7V30.44C47.7 30.34 47.69 30.25 47.65 30.19C47.62 30.14 47.59 30.12 47.56 30.12C47.53 30.12 47.51 30.13 47.5 30.14V30.24C47.5 30.24 47.53 30.22 47.56 30.22C47.62 30.22 47.64 30.32 47.64 30.42V30.46H47.55V30.56H47.64V31.17H47.71L47.7 31.18Z" fill="white"/>
<path d="M47.44 30.85C47.44 31.02 47.38 31.09 47.31 31.09C47.26 31.09 47.23 31.07 47.2 31.05V31.14C47.2 31.14 47.26 31.19 47.32 31.19C47.44 31.19 47.51 31.05 47.51 30.83C47.51 30.61 47.44 30.45 47.33 30.45C47.2 30.45 47.17 30.65 47.17 30.78C47.17 30.81 47.17 30.83 47.17 30.84H47.44V30.85ZM47.23 30.76C47.23 30.68 47.25 30.55 47.33 30.55C47.4 30.55 47.43 30.67 47.44 30.76H47.23Z" fill="white"/>
<path d="M47.0701 30.69C47.0701 30.61 47.0701 30.54 47.0701 30.47H47.0101V30.61C46.9901 30.52 46.9501 30.46 46.9001 30.46C46.9001 30.46 46.8901 30.46 46.8801 30.46V30.58C46.8801 30.58 46.8901 30.58 46.9001 30.58C46.9501 30.58 46.9901 30.65 47.0001 30.74C47.0001 30.76 47.0001 30.78 47.0001 30.8V31.18H47.0701V30.69Z" fill="white"/>
<path d="M57.55 12.09C57.55 11.5598 57.9798 11.13 58.51 11.13C59.0402 11.13 59.47 11.5598 59.47 12.09V14.18C59.47 14.7102 59.0402 15.14 58.51 15.14C57.9798 15.14 57.55 14.7102 57.55 14.18V12.09Z" fill="#FADDDC"/>
<path d="M52.6699 101.81C52.6699 101.81 52.7099 101.77 52.7199 101.74C52.7599 101.64 52.7199 101.52 52.6099 101.48L51.5699 101.04C51.4699 101 51.3499 101.04 51.3099 101.15C51.2699 101.25 51.3099 101.37 51.4199 101.41L52.4599 101.85C52.5299 101.88 52.6099 101.87 52.6699 101.82V101.81Z" fill="white"/>
<path d="M52.2099 102.51C52.2099 102.51 52.2499 102.47 52.2599 102.44C52.3099 102.34 52.2599 102.22 52.1599 102.18L51.1699 101.73C51.0699 101.68 50.9499 101.73 50.9099 101.83C50.8599 101.93 50.9099 102.05 51.0099 102.09L51.9999 102.54C52.0699 102.57 52.1599 102.56 52.2099 102.51Z" fill="white"/>
<path d="M51.58 103.13C51.58 103.13 51.62 103.09 51.63 103.06C51.68 102.96 51.63 102.84 51.53 102.8L50.54 102.35C50.44 102.3 50.32 102.35 50.28 102.45C50.23 102.55 50.28 102.67 50.38 102.71L51.37 103.16C51.44 103.19 51.53 103.18 51.58 103.13Z" fill="white"/>
<path d="M59.85 107.28C59.85 107.28 59.9 107.25 59.92 107.23C59.99 107.15 59.98 107.02 59.9 106.95L59.04 106.21C58.96 106.14 58.83 106.15 58.76 106.23C58.69 106.31 58.7 106.44 58.78 106.51L59.64 107.25C59.7 107.3 59.78 107.31 59.85 107.28Z" fill="white"/>
<path d="M59.18 107.8C59.18 107.8 59.23 107.77 59.25 107.75C59.32 107.67 59.32 107.54 59.24 107.47L58.44 106.74C58.36 106.67 58.23 106.67 58.16 106.75C58.09 106.83 58.09 106.96 58.17 107.03L58.97 107.76C59.03 107.81 59.11 107.83 59.18 107.8Z" fill="white"/>
<path d="M58.3999 108.2C58.3999 108.2 58.4499 108.17 58.4699 108.15C58.5399 108.07 58.5399 107.94 58.4599 107.87L57.6599 107.14C57.5799 107.07 57.4499 107.07 57.3799 107.15C57.3099 107.23 57.3099 107.36 57.3899 107.43L58.1899 108.16C58.2499 108.21 58.3299 108.23 58.3999 108.2Z" fill="white"/>
<path d="M63.3399 102.74L60.0699 102.8L59.8799 104.22L63.3799 104.39L63.3399 102.74Z" fill="white"/>
<path d="M54.5001 97.24L51.4701 98.04L51.8101 99.32L54.8101 98.66L54.5001 97.24Z" fill="white"/>
</g>
<defs>
<clipPath id="clip0_1204_6291">
<rect width="28.21" height="107.73" fill="white" transform="matrix(-1 0 0 1 70.7 2)"/>
</clipPath>
</defs>
</svg>
