<svg
    width="61"
    height="109"
    viewBox="0 0 61 109"
    fill="none"
    xmlns="http://www.w3.org/2000/svg"
>
    <g clip-path="url(#clip0_9_240)">
        <path
            d="M13.3799 104.68L13.2899 104.82C12.8299 105.55 11.5399 106.1 10.7099 106.43L9.04995 107.09C8.73995 107.21 8.53995 107.49 8.52995 107.8C8.50995 108.25 8.87995 108.62 9.35995 108.64L14.2599 108.82C15.6099 108.87 16.7699 107.95 16.9399 106.69L17.0899 105.6C17.1899 104.87 17.3199 104.14 17.4599 103.41L13.9599 103.35C13.8299 103.81 13.6499 104.26 13.3899 104.67L13.3799 104.68Z"
            fill="#9A9A99"
        />
        <path
            d="M14.13 102.24C14.12 102.62 14.05 102.99 13.96 103.35L17.46 103.4C17.56 102.85 17.67 102.29 17.8 101.75L18.16 100.06L14.22 99.9099L14.13 102.23V102.24Z"
            fill="white"
        />
        <path
            d="M11.25 107.21C11.19 107.21 11.14 107.18 11.11 107.13L10.71 106.47C10.66 106.39 10.69 106.29 10.77 106.24C10.85 106.19 10.95 106.22 11 106.3L11.4 106.96C11.45 107.04 11.42 107.14 11.34 107.19C11.31 107.21 11.28 107.22 11.25 107.21Z"
            fill="white"
        />
        <path
            d="M11.9 106.91C11.84 106.91 11.79 106.88 11.76 106.83L11.36 106.17C11.31 106.09 11.34 105.99 11.42 105.94C11.5 105.89 11.61 105.92 11.65 106L12.05 106.66C12.1 106.74 12.07 106.84 11.99 106.89C11.96 106.91 11.93 106.92 11.9 106.91Z"
            fill="white"
        />
        <path
            d="M12.48 106.66C12.42 106.66 12.37 106.63 12.34 106.58L11.94 105.92C11.89 105.84 11.92 105.74 12 105.69C12.08 105.64 12.19 105.67 12.23 105.75L12.63 106.41C12.68 106.49 12.65 106.59 12.57 106.64C12.54 106.66 12.51 106.67 12.48 106.66Z"
            fill="white"
        />
        <path
            d="M13.03 106.27C12.97 106.27 12.92 106.24 12.89 106.19L12.49 105.53C12.44 105.45 12.47 105.35 12.55 105.3C12.63 105.25 12.74 105.28 12.78 105.36L13.18 106.02C13.23 106.1 13.2 106.2 13.12 106.25C13.09 106.27 13.06 106.28 13.03 106.27Z"
            fill="white"
        />
        <path
            d="M55.66 97.79L55.82 97.96C56.48 98.63 56.78 99.58 56.63 100.53C56.51 101.27 54.74 103.1 54.74 103.1C54.38 103.41 54.29 103.92 54.52 104.31C54.79 104.74 55.38 104.87 55.84 104.58L59.71 102.18C60.72 101.55 61.06 100.27 60.46 99.32L58.37 96.02L55.65 97.79H55.66Z"
            fill="#9A9A99"
        />
        <path
            d="M56.1801 102.79C56.1801 102.79 56.0701 102.83 56.0201 102.79L55.3201 102.46C55.2401 102.42 55.2001 102.32 55.2401 102.24C55.2801 102.15 55.3801 102.12 55.4601 102.16L56.1601 102.49C56.2401 102.53 56.2801 102.63 56.2401 102.71C56.2301 102.74 56.2001 102.77 56.1801 102.78V102.79Z"
            fill="white"
        />
        <path
            d="M56.61 102.23C56.61 102.23 56.5 102.27 56.45 102.23L55.75 101.9C55.67 101.86 55.63 101.76 55.67 101.68C55.71 101.6 55.81 101.56 55.89 101.6L56.59 101.93C56.67 101.97 56.71 102.07 56.67 102.15C56.66 102.18 56.63 102.21 56.61 102.22V102.23Z"
            fill="white"
        />
        <path
            d="M57.0699 101.65C57.0699 101.65 56.9599 101.69 56.9099 101.65L56.2099 101.32C56.1299 101.28 56.09 101.18 56.13 101.1C56.17 101.01 56.2699 100.98 56.3499 101.02L57.0499 101.35C57.1299 101.39 57.17 101.49 57.13 101.57C57.12 101.6 57.0899 101.63 57.0699 101.64V101.65Z"
            fill="white"
        />
        <path
            d="M57.34 100.96C57.34 100.96 57.23 101 57.18 100.96L56.48 100.63C56.4 100.59 56.36 100.49 56.4 100.41C56.44 100.32 56.54 100.29 56.62 100.33L57.32 100.66C57.4 100.7 57.44 100.8 57.4 100.88C57.39 100.91 57.36 100.94 57.34 100.95V100.96Z"
            fill="white"
        />
        <path
            d="M56.69 93.1799L53.42 95.3599L55.66 97.7699L58.37 96.0099L58.34 95.9499L56.69 93.1799Z"
            fill="white"
        />
        <path
            d="M2.23003 43.01C0.64003 43.42 -0.31997 45.04 0.0900299 46.63C0.43003 47.94 1.58003 48.82 2.86003 48.86C3.14003 48.86 3.42003 48.84 3.71003 48.77C4.40003 48.59 5.07003 48.39 5.73003 48.18L3.29003 42.71C2.94003 42.82 2.59003 42.92 2.23003 43.01Z"
            fill="#FADDDC"
        />
        <path
            d="M27.06 20.0599C25.49 19.5699 23.83 20.4399 23.33 22.0099C23.28 22.1799 18.05 38.2399 3.28003 42.7099L5.72003 48.1799C22.99 42.5299 28.76 24.5699 29 23.7799C29.49 22.2099 28.61 20.5499 27.05 20.0599H27.06Z"
            fill="#EF9AB4"
        />
        <path
            d="M26.55 54.3101H41.39L45.7401 76.9501L58.5401 93.3401L50.9701 97.3301C46.0101 91.1901 37.28 81.1901 37.28 81.1901L26.55 54.3201V54.3101Z"
            fill="#291B4C"
        />
        <path
            d="M22.04 54.1699L38.01 54.3099L25.82 78.9299L20.61 100.58L15.76 100.51C15.76 100.51 11.01 100.21 11.21 98.9299C12.43 91.2699 14 84.8099 15.48 77.0399C16.32 72.5999 22.04 54.1599 22.04 54.1599V54.1699Z"
            fill="#3E2C6D"
        />
        <path
            d="M18.8801 57.0999L47.3701 56.5899C47.3701 56.5899 46.3201 18.7899 32.1401 18.8399H27.7901C26.2901 18.8399 24.8701 19.5999 24.0901 20.8799C18.4201 30.1399 18.8801 57.0999 18.8801 57.0999Z"
            fill="#F4B2C4"
        />
        <path
            d="M53.25 51.5799C53.33 53.2199 54.73 54.4799 56.37 54.3999C57.72 54.3299 58.81 53.3799 59.11 52.1299C59.18 51.8599 59.2 51.5699 59.19 51.2799C59.15 50.5699 59.09 49.8699 59.02 49.1899L53.17 50.4799C53.2 50.8399 53.23 51.2099 53.25 51.5799Z"
            fill="#FADDDC"
        />
        <path
            d="M32.64 21.1999C31.84 22.6399 32.37 24.4399 33.8 25.2399C33.95 25.3199 51.74 35.1199 53.16 50.4799L59.01 49.1899C56.95 31.1399 37.4 20.4299 36.67 20.0299C35.23 19.2399 33.43 19.7599 32.64 21.1999Z"
            fill="#F4B2C4"
        />
        <path d="M33.43 19C31.3 18.5 28.93 18.46 26.25 19L26.95 37.24L33.43 19Z" fill="white" />
        <path
            d="M32.3201 4.77002H21.9301V14.07C21.9301 15.89 23.4101 17.37 25.2301 17.37H26.2801C26.7901 17.37 27.2101 17.78 27.2101 18.3C27.2101 19.87 28.8901 20.87 30.2701 20.12L32.1201 19.12L32.3301 4.78002L32.3201 4.77002Z"
            fill="#FADDDC"
        />
        <path
            d="M22.2401 14.24L21.6401 14.07C21.1001 13.92 20.7801 13.35 20.9301 12.81L21.7601 9.84997C21.8201 9.61997 22.0601 9.48997 22.2801 9.55997C22.5001 9.62997 22.6401 9.85996 22.5701 10.08L21.8501 12.64C21.7601 12.95 21.9401 13.27 22.2501 13.35L22.4601 13.41C22.6901 13.47 22.8201 13.71 22.7501 13.93C22.6801 14.15 22.4501 14.29 22.2301 14.22L22.2401 14.24Z"
            fill="#E0B1BB"
        />
        <path
            d="M23.7 9.81C23.7 10.12 23.95 10.37 24.26 10.37C24.57 10.37 24.82 10.12 24.82 9.81C24.82 9.5 24.57 9.25 24.26 9.25C23.95 9.25 23.7 9.5 23.7 9.81Z"
            fill="#757570"
        />
        <path d="M33.43 19L26.95 37.24L34.9799 26.03L33.43 19Z" fill="#EF9AB4" />
        <path d="M26.25 19L26.95 37.79L24.2 25.16L26.25 19Z" fill="#EF9AB4" />
        <path
            d="M26.7442 37.7762L26.349 54.3015L26.7489 54.3111L27.1441 37.7858L26.7442 37.7762Z"
            fill="#EF9AB4"
        />
        <path
            d="M30.8199 41.46H37.0799V47.09C37.0799 48.08 36.2699 48.89 35.2799 48.89H32.6299C31.6399 48.89 30.8299 48.08 30.8299 47.09V41.46H30.8199Z"
            fill="#EF9AB4"
        />
        <path
            d="M19.64 41.75H23.24V47.38C23.24 48.37 22.43 49.18 21.44 49.18C20.45 49.18 19.64 48.37 19.64 47.38V41.75Z"
            fill="#EF9AB4"
        />
        <path
            d="M30.31 11.6899C30.31 12.2201 30.7398 12.6499 31.27 12.6499C31.8002 12.6499 32.23 12.2201 32.23 11.6899V9.5999C32.23 9.06971 31.8002 8.6399 31.27 8.6399C30.7398 8.6399 30.31 9.06971 30.31 9.5999V11.6899Z"
            fill="#FADDDC"
        />
        <path
            d="M27.24 1.34C26.42 1.34 25.64 1.03 24.96 0.56C24.45 0.21 23.82 0 23.15 0C22.08 0 21.13 0.53 20.54 1.34C20.15 1.87 19.91 2.53 19.91 3.24C19.91 4.48 20.62 5.54 21.64 6.09C21.75 6.15 21.86 6.2 21.98 6.25C22.66 6.53 23.45 6.69 24.29 6.69C25.32 6.69 25.91 6.45 26.67 6.06C27.19 5.79 28.11 5.61 28.69 5.61H28.33C29.47 5.61 29.89 6.53 29.89 7.67V8.79C30.34 10.52 31.3 10.17 32.22 10.17L32.25 14.16C32.88 14.16 33.59 10.84 33.59 10.2L34.02 5.6V4.77C34.02 2.88 32.48 1.34 30.59 1.34H27.24Z"
            fill="#3E2967"
        />
    </g>
    <defs>
        <clipPath id="clip0_9_240">
            <rect width="60.77" height="108.81" fill="white" />
        </clipPath>
    </defs>
</svg>
