<svg
    width="67"
    height="107"
    viewBox="0 0 67 107"
    fill="none"
    xmlns="http://www.w3.org/2000/svg"
>
    <g clip-path="url(#clip0_9_238)">
        <path
            d="M28.39 101.69L28.3 101.83C27.84 102.56 26.55 103.11 25.72 103.44L24.06 104.1C23.75 104.22 23.55 104.5 23.54 104.81C23.52 105.26 23.89 105.63 24.37 105.65L29.27 105.83C30.62 105.88 31.78 104.96 31.95 103.7L32.1 102.61C32.2 101.88 32.33 101.15 32.47 100.42L28.97 100.36C28.84 100.82 28.66 101.27 28.4 101.68L28.39 101.69Z"
            fill="#9A9A99"
        />
        <path
            d="M29.14 99.2499C29.13 99.6299 29.06 99.9999 28.97 100.36L32.47 100.41C32.57 99.8599 32.68 99.2999 32.81 98.7599L33.17 97.0699L29.23 96.9199L29.14 99.2399V99.2499Z"
            fill="white"
        />
        <path
            d="M26.25 104.22C26.19 104.22 26.14 104.19 26.11 104.14L25.71 103.48C25.66 103.4 25.69 103.3 25.77 103.25C25.85 103.2 25.95 103.23 26 103.31L26.4 103.97C26.45 104.05 26.42 104.15 26.34 104.2C26.31 104.22 26.28 104.23 26.25 104.22Z"
            fill="white"
        />
        <path
            d="M26.9 103.92C26.84 103.92 26.79 103.89 26.76 103.84L26.36 103.18C26.31 103.1 26.34 103 26.42 102.95C26.5 102.9 26.61 102.93 26.65 103.01L27.05 103.67C27.1 103.75 27.07 103.85 26.99 103.9C26.96 103.92 26.93 103.93 26.9 103.92Z"
            fill="white"
        />
        <path
            d="M27.48 103.67C27.42 103.67 27.37 103.64 27.34 103.59L26.94 102.93C26.89 102.85 26.92 102.75 27 102.7C27.08 102.65 27.19 102.68 27.23 102.76L27.63 103.42C27.68 103.5 27.65 103.6 27.57 103.65C27.54 103.67 27.51 103.68 27.48 103.67Z"
            fill="white"
        />
        <path
            d="M28.04 103.28C27.98 103.28 27.93 103.25 27.9 103.2L27.5 102.54C27.45 102.46 27.48 102.36 27.56 102.31C27.64 102.26 27.75 102.29 27.79 102.37L28.19 103.03C28.24 103.11 28.21 103.21 28.13 103.26C28.1 103.28 28.07 103.29 28.04 103.28Z"
            fill="white"
        />
        <path
            d="M51.11 100.1L51.15 100.34C51.32 101.27 51.04 102.22 50.39 102.92C49.88 103.47 47.39 104 47.39 104C46.91 104.06 46.55 104.43 46.54 104.88C46.52 105.39 46.95 105.82 47.49 105.84L52.04 106.01C53.23 106.05 54.23 105.17 54.26 104.05L54.37 100.15L51.13 100.1H51.11Z"
            fill="#9A9A99"
        />
        <path
            d="M48.75 104.54C48.69 104.54 48.64 104.51 48.61 104.46L48.21 103.8C48.16 103.72 48.19 103.62 48.27 103.57C48.35 103.52 48.45 103.55 48.5 103.63L48.9 104.29C48.95 104.37 48.92 104.47 48.84 104.52C48.81 104.54 48.78 104.55 48.75 104.54Z"
            fill="white"
        />
        <path
            d="M49.42 104.31C49.36 104.31 49.31 104.28 49.28 104.23L48.88 103.57C48.83 103.49 48.86 103.39 48.94 103.34C49.02 103.29 49.13 103.32 49.17 103.4L49.57 104.06C49.62 104.14 49.59 104.24 49.51 104.29C49.48 104.31 49.45 104.32 49.42 104.31Z"
            fill="white"
        />
        <path
            d="M50.12 104.08C50.06 104.08 50.01 104.05 49.98 104L49.58 103.34C49.53 103.26 49.56 103.16 49.64 103.11C49.72 103.06 49.83 103.09 49.87 103.17L50.27 103.83C50.32 103.91 50.29 104.01 50.21 104.06C50.18 104.08 50.15 104.09 50.12 104.08Z"
            fill="white"
        />
        <path
            d="M50.73 103.66C50.67 103.66 50.62 103.63 50.59 103.58L50.19 102.92C50.14 102.84 50.17 102.74 50.25 102.69C50.33 102.64 50.44 102.67 50.48 102.75L50.88 103.41C50.93 103.49 50.9 103.59 50.82 103.64C50.79 103.66 50.76 103.67 50.73 103.66Z"
            fill="white"
        />
        <path
            d="M54.54 96.8501L50.6 96.8301L51.11 100.08L54.35 100.13L54.36 100.07L54.54 96.8501Z"
            fill="white"
        />
        <path
            d="M41.59 60.21L35.48 98.67H26.62V53.51H56.67V98.67H47.92L41.59 60.21Z"
            fill="#3E2967"
        />
        <path
            d="M5.60997 5.06992C4.86997 3.60992 3.08997 3.01992 1.62997 3.75992C0.429969 4.35992 -0.180031 5.66992 0.0499693 6.92992C0.0999693 7.19992 0.189969 7.46992 0.319969 7.72992C0.639969 8.35992 0.979969 8.96992 1.31997 9.56992L6.11997 6.02992C5.93997 5.70992 5.76997 5.38992 5.59997 5.06992H5.60997Z"
            fill="#F4D3D3"
        />
        <path
            d="M33.2199 24.34C33.3599 22.71 32.1599 21.28 30.5299 21.13C30.3599 21.11 13.6199 19.45 6.11995 6.03003L1.31995 9.57003C10.4899 25.17 29.1999 26.96 30.0199 27.03C31.6499 27.17 33.0799 25.97 33.2199 24.34Z"
            fill="#F4B2C4"
        />
        <path
            d="M56.67 55.14H26.62L26.63 26.8C26.63 21.79 30.69 17.72 35.71 17.72H47.61C52.62 17.72 56.69 21.78 56.69 26.79L56.67 55.14Z"
            fill="#F4B2C4"
        />
        <path
            d="M60.84 53.2299C60.72 54.8599 61.95 56.2799 63.58 56.3999C63.65 56.3999 63.72 56.3999 63.79 56.3999C65.33 56.3999 66.63 55.2099 66.74 53.6499C66.78 53.1399 66.8 52.6299 66.83 52.1299H60.89C60.87 52.4899 60.86 52.8499 60.83 53.2199L60.84 53.2299Z"
            fill="#F4D3D3"
        />
        <path
            d="M51.69 18.6899C50.27 17.8999 48.48 18.4099 47.68 19.8299C46.88 21.2499 47.39 23.0499 48.8 23.8599C49.34 24.1699 61.91 31.5999 60.9 52.1399H66.84C67.91 27.9899 52.37 19.0699 51.7 18.6899H51.69Z"
            fill="#F4B2C4"
        />
        <path d="M39.21 53.3799H39.6V35.9999H39.21V53.3799Z" fill="#EF9AB4" />
        <path
            d="M49.2501 49.24H46.6001C45.6101 49.24 44.8001 48.43 44.8001 47.44V41.81H51.0601V47.44C51.0601 48.43 50.2501 49.24 49.2601 49.24H49.2501Z"
            fill="#EF9AB4"
        />
        <path
            d="M35.34 49.1001H32.69C31.7 49.1001 30.89 48.2901 30.89 47.3001V41.6701H37.15V47.3001C37.15 48.2901 36.34 49.1001 35.35 49.1001H35.34Z"
            fill="#EF9AB4"
        />
        <path d="M36.97 17.71L39.26 36.66L45.18 17.71H36.97Z" fill="white" />
        <path d="M45.18 17.75L39.26 36.66L47.89 23.9L45.18 17.75Z" fill="#EF9AB4" />
        <path d="M36.97 17.74L33.4 23.44L39.26 36.69L36.97 17.74Z" fill="#EF9AB4" />
        <path
            d="M43.51 4.59009H33.12V12.7001C33.12 14.5201 34.6 16.0001 36.42 16.0001H37.47C37.98 16.0001 38.4 16.4101 38.4 16.9301V17.9401C38.4 19.3401 39.54 20.4801 40.94 20.4801C42.34 20.4801 43.47 19.3501 43.48 17.9501L43.52 4.59009H43.51Z"
            fill="#FADDDC"
        />
        <path
            d="M36.48 13H35.85C35.29 13 34.83 12.54 34.83 11.98V8.90999C34.83 8.67999 35.02 8.48999 35.25 8.48999C35.48 8.48999 35.67 8.67999 35.67 8.90999V11.57C35.67 11.89 35.93 12.15 36.25 12.15H36.47C36.7 12.15 36.9 12.34 36.9 12.57C36.9 12.8 36.71 12.99 36.47 12.99L36.48 13Z"
            fill="#E0B1BB"
        />
        <path
            d="M37.52 9.03998C37.52 9.34998 37.77 9.59998 38.08 9.59998C38.39 9.59998 38.64 9.34998 38.64 9.03998C38.64 8.72998 38.39 8.47998 38.08 8.47998C37.77 8.47998 37.52 8.72998 37.52 9.03998Z"
            fill="#757570"
        />
        <path
            d="M38.2799 1.34C37.4599 1.34 36.68 1.03 36 0.56C35.49 0.21 34.8599 0 34.1899 0C33.1199 0 32.17 0.53 31.58 1.34C31.19 1.87 30.95 2.53 30.95 3.24C30.95 4.48 31.66 5.54 32.68 6.09C32.79 6.15 32.9 6.2 33.02 6.25C33.7 6.53 34.49 6.69 35.33 6.69C36.36 6.69 37.32 6.45 38.07 6.06C38.59 5.79 39.15 5.61 39.7299 5.61C40.87 5.61 41.79 6.53 41.79 7.67V9.7C41.79 10.62 42.53 11.36 43.45 11.36H43.4799C44.11 11.36 44.63 10.85 44.63 10.21V4.78C44.63 2.89 43.09 1.35 41.2 1.35H38.27L38.2799 1.34Z"
            fill="#3E2967"
        />
    </g>
    <defs>
        <clipPath id="clip0_9_238">
            <rect width="66.89" height="106.02" fill="white" />
        </clipPath>
    </defs>
</svg>

