<svg width="110" height="110" viewBox="0 0 110 110" fill="none" xmlns="http://www.w3.org/2000/svg">
<g clip-path="url(#clip0_1204_6255)">
<path d="M50.4799 58.9L62.45 58.44L69.04 80.55L79.26 97.78L78.02 98.67C78.3 99.17 80 101.44 80.47 101.76C81.16 102.22 82.06 103.09 81.25 104.12L76.29 107.97C75.57 108.28 74.8 107.22 75.16 106.42C75.4 105.89 76.22 104.71 76.49 104.21C77.04 103.16 74.98 100.35 74.98 100.35L69.38 103.4L58.5 82.8L50.4799 58.92V58.9Z" fill="#494946"/>
<path d="M48.6301 57.81L68.55 58.43L49.41 81.77L41.2001 104.45L35.98 103.34L34.69 106.64C33.76 108.63 33.64 109.48 32.1 108.71L28.2701 107.21C27.5701 106.86 27.68 105.85 28.5 105.6C29.04 105.44 29.87 105.41 30.43 105.38C32.51 105.28 32.7201 102.59 32.7201 102.59L31.98 102.43C31.98 102.43 36.03 86.33 37.73 80.35C39.02 75.79 48.64 57.81 48.64 57.81H48.6301Z" fill="#757570"/>
<path d="M25.6301 41.66C24.0101 41.91 22.8901 43.43 23.1401 45.05C23.3501 46.38 24.4101 47.37 25.6801 47.54C25.9601 47.58 26.2401 47.58 26.5301 47.54C27.2301 47.43 27.9201 47.3 28.6001 47.15L26.7101 41.47C26.3501 41.54 25.9901 41.61 25.6301 41.66Z" fill="#FADDDC"/>
<path d="M52.6 21.26C51.09 20.62 49.35 21.32 48.7 22.83C48.63 22.99 41.85 38.46 26.71 41.46L28.6 47.14C46.34 43.22 53.85 25.91 54.17 25.15C54.81 23.64 54.1 21.9 52.59 21.26H52.6Z" fill="#FADDDC"/>
<path d="M49.5701 21.79L40.9901 32.35L47.0801 40.36L51.5801 28.52L49.5701 21.79Z" fill="black"/>
<path d="M45.2399 60.04H70.6599L66.2099 36C64.6199 23.31 60.3499 20.73 56.8199 20.73H52.4699C50.9699 20.73 49.5499 21.49 48.7699 22.77C43.0999 32.03 45.2299 60.05 45.2299 60.05L45.2399 60.04Z" fill="#1A181E"/>
<path d="M79.06 53.8C79.21 55.44 80.66 56.64 82.3 56.48C83.64 56.35 84.69 55.35 84.94 54.09C84.99 53.82 85.01 53.53 84.98 53.24C84.91 52.53 84.82 51.84 84.71 51.16L78.93 52.71C78.98 53.07 79.02 53.43 79.06 53.8Z" fill="#FADDDC"/>
<path d="M60.3 25.67C59.57 27.14 60.17 28.92 61.64 29.66C61.8 29.74 76.84 37.42 78.93 52.71L84.71 51.16C81.85 33.22 65.02 24.7 64.27 24.33C62.8 23.6 61.02 24.2 60.29 25.67H60.3Z" fill="#FADDDC"/>
<path d="M56.65 21.64C56.65 21.64 61.78 20.31 66.08 23.25C70.38 26.19 74.05 29.35 74.05 29.35C74.05 29.35 67.85 36.89 67.56 36.96C67.27 37.03 55.0201 28.73 55.0201 28.73C55.0201 28.73 54.3 23.24 56.65 21.64Z" fill="#1A181E"/>
<path d="M60.1201 21.27C60.1201 21.27 59.9201 24.18 56.2801 24.18C52.6401 24.18 53.0501 20.74 53.0501 20.74C53.0501 20.74 57.2701 20.33 60.1201 21.27Z" fill="#3C3B42"/>
<path d="M59.8899 6.64997L49.5099 6.15997L49.3499 9.64997L49.0799 15.45C48.9899 17.27 50.3999 18.82 52.2199 18.9L53.2699 18.95C53.7799 18.97 53.9099 19.39 53.8799 19.9V21.13C53.9599 23.92 58.1799 23.94 59.0099 21.74L59.8999 6.65997L59.8899 6.64997Z" fill="#FADDDC"/>
<path d="M49.38 15.63L48.78 15.43C48.25 15.25 47.96 14.68 48.13 14.14L49.1 11.23C49.17 11.01 49.41 10.89 49.64 10.96C49.87 11.03 49.98 11.27 49.91 11.5L49.07 14.03C48.97 14.33 49.13 14.66 49.44 14.76L49.65 14.83C49.87 14.9 49.99 15.14 49.92 15.37C49.85 15.6 49.61 15.71 49.38 15.64V15.63Z" fill="#E0B1BB"/>
<path d="M51.0401 11.28C51.0301 11.59 51.2601 11.85 51.5701 11.86C51.8801 11.87 52.1401 11.64 52.1501 11.33C52.1601 11.02 51.9301 10.76 51.6201 10.75C51.3101 10.74 51.0501 10.97 51.0401 11.28Z" fill="#757570"/>
<path d="M57.6452 11.3739C57.6702 10.8443 58.1199 10.4353 58.6495 10.4604C59.1791 10.4855 59.5881 10.9351 59.563 11.4647L59.4642 13.5524C59.4391 14.082 58.9895 14.491 58.4599 14.4659C57.9303 14.4409 57.5213 13.9912 57.5463 13.4616L57.6452 11.3739Z" fill="#FADDDC"/>
<path d="M54.9499 3.52997C54.1299 3.48997 53.3699 3.13997 52.7099 2.64997C52.2099 2.26997 51.5999 2.03997 50.9299 2.00997C49.8599 1.95997 48.8899 2.43997 48.2599 3.21997C47.8499 3.73997 47.5799 4.37997 47.5399 5.08997C47.4799 6.32997 48.1399 7.41997 49.1299 8.00997C49.2399 8.06997 49.3399 8.12997 49.4599 8.18997C50.1199 8.49997 50.8999 8.69997 51.7499 8.73997C52.7799 8.78997 53.8499 8.72997 54.6699 8.46997C56.0999 8.00997 56.9899 9.30997 56.9299 9.96997L56.8099 11.97C57.0299 13.01 57.4099 13.55 57.9199 13.64C58.5699 13.76 59.4799 13.31 59.4499 13.97L59.3399 16.59C59.9699 16.62 60.8399 13.34 60.8699 12.7L61.4799 9.42997V8.27997C61.5699 6.38997 59.9099 3.86997 58.0199 3.77997L54.9399 3.55997L54.9499 3.52997Z" fill="#3E2967"/>
<path d="M49.35 30.2H49.28V30.86C49.28 31.12 49.35 31.2 49.45 31.2C49.48 31.2 49.51 31.19 49.53 31.18V31.08C49.53 31.08 49.48 31.1 49.46 31.1C49.4 31.1 49.36 31.05 49.36 30.86V30.21L49.35 30.2Z" fill="white"/>
<path d="M49.1199 30.85C49.1199 31.02 49.0599 31.09 48.9899 31.09C48.9399 31.09 48.9099 31.07 48.8799 31.05V31.14C48.8799 31.14 48.9399 31.19 48.9999 31.19C49.1199 31.19 49.1899 31.05 49.1899 30.83C49.1899 30.61 49.1199 30.45 49.0099 30.45C48.8799 30.45 48.8499 30.65 48.8499 30.78C48.8499 30.81 48.8499 30.83 48.8499 30.84H49.1199V30.85ZM48.9099 30.76C48.9099 30.68 48.9299 30.55 49.0099 30.55C49.0799 30.55 49.1099 30.67 49.1199 30.76H48.9099Z" fill="white"/>
<path d="M48.76 30.66C48.76 30.59 48.76 30.53 48.76 30.47H48.7V30.59C48.68 30.52 48.64 30.46 48.57 30.46C48.52 30.46 48.43 30.52 48.43 30.76V31.18H48.5V30.77C48.5 30.66 48.52 30.56 48.59 30.56C48.64 30.56 48.67 30.62 48.69 30.69C48.69 30.71 48.69 30.73 48.69 30.75V31.18H48.76V30.67V30.66Z" fill="white"/>
<path d="M48.3101 30.66C48.3101 30.59 48.3101 30.53 48.3101 30.47H48.2501V30.59C48.2301 30.52 48.1901 30.46 48.1201 30.46C48.0701 30.46 47.9801 30.52 47.9801 30.76V31.18H48.0501V30.77C48.0501 30.66 48.0701 30.56 48.1401 30.56C48.1901 30.56 48.2201 30.62 48.2401 30.69C48.2401 30.71 48.2401 30.73 48.2401 30.75V31.18H48.3101V30.67V30.66Z" fill="white"/>
<path d="M47.8201 30.35C47.8201 30.35 47.8601 30.31 47.8601 30.27C47.8601 30.22 47.8401 30.19 47.8201 30.19C47.8001 30.19 47.7801 30.22 47.7801 30.27C47.7801 30.31 47.8001 30.35 47.8201 30.35ZM47.8601 31.18V30.47H47.7901V31.18H47.8601Z" fill="white"/>
<path d="M47.66 31.18V30.57H47.71V30.47H47.66V30.44C47.66 30.34 47.65 30.25 47.61 30.19C47.58 30.14 47.55 30.12 47.52 30.12C47.49 30.12 47.47 30.13 47.46 30.14V30.24C47.46 30.24 47.49 30.22 47.52 30.22C47.58 30.22 47.6 30.32 47.6 30.42V30.46H47.51V30.56H47.6V31.17H47.67L47.66 31.18Z" fill="white"/>
<path d="M47.4 30.85C47.4 31.02 47.34 31.09 47.27 31.09C47.22 31.09 47.19 31.07 47.16 31.05V31.14C47.16 31.14 47.22 31.19 47.28 31.19C47.4 31.19 47.47 31.05 47.47 30.83C47.47 30.61 47.4 30.45 47.29 30.45C47.16 30.45 47.13 30.65 47.13 30.78C47.13 30.81 47.13 30.83 47.13 30.84H47.4V30.85ZM47.19 30.76C47.19 30.68 47.21 30.55 47.29 30.55C47.36 30.55 47.39 30.67 47.4 30.76H47.19Z" fill="white"/>
<path d="M47.03 30.69C47.03 30.61 47.03 30.54 47.03 30.47H46.97V30.61C46.95 30.52 46.91 30.46 46.86 30.46C46.86 30.46 46.85 30.46 46.84 30.46V30.58C46.84 30.58 46.85 30.58 46.86 30.58C46.91 30.58 46.95 30.65 46.96 30.74C46.96 30.76 46.96 30.78 46.96 30.8V31.18H47.03V30.69Z" fill="white"/>
<path d="M57.5199 12.09C57.5199 11.5598 57.9497 11.13 58.4799 11.13C59.0101 11.13 59.4399 11.5598 59.4399 12.09V14.18C59.4399 14.7102 59.0101 15.14 58.4799 15.14C57.9497 15.14 57.5199 14.7102 57.5199 14.18V12.09Z" fill="#FADDDC"/>
<path d="M78.02 98.66L74.98 100.33L75.77 101.57L78.79 99.73L78.02 98.66Z" fill="white"/>
<path d="M35.97 103.35L32.6 102.62L32.27 103.77L35.51 104.7L35.97 103.35Z" fill="white"/>
<path d="M31.8099 106.32C31.8099 106.32 31.8699 106.32 31.8999 106.3C31.9999 106.25 32.0399 106.13 31.9899 106.03L31.4799 105.02C31.4299 104.92 31.3099 104.88 31.2099 104.93C31.1099 104.98 31.0699 105.1 31.1199 105.2L31.6299 106.21C31.6699 106.28 31.7399 106.32 31.8099 106.32Z" fill="white"/>
<path d="M31 106.55C31 106.55 31.06 106.55 31.08 106.53C31.18 106.48 31.22 106.36 31.18 106.26L30.72 105.27C30.67 105.17 30.55 105.13 30.45 105.17C30.35 105.22 30.31 105.34 30.35 105.44L30.81 106.43C30.84 106.5 30.92 106.55 30.99 106.55H31Z" fill="white"/>
<path d="M30.1101 106.62C30.1101 106.62 30.1701 106.62 30.1901 106.6C30.2901 106.55 30.3301 106.43 30.2901 106.33L29.8301 105.34C29.7801 105.24 29.6601 105.2 29.5601 105.24C29.4601 105.29 29.4201 105.41 29.4601 105.51L29.9201 106.5C29.9501 106.57 30.0301 106.62 30.1001 106.62H30.1101Z" fill="white"/>
<path d="M77.7601 104.32C77.7601 104.32 77.7901 104.27 77.8001 104.24C77.8201 104.13 77.7501 104.03 77.6401 104L76.5301 103.78C76.4201 103.76 76.3201 103.83 76.2901 103.94C76.2701 104.05 76.3401 104.15 76.4501 104.18L77.5601 104.4C77.6401 104.42 77.7101 104.38 77.7601 104.33V104.32Z" fill="white"/>
<path d="M77.4501 105.1C77.4501 105.1 77.4801 105.05 77.4901 105.02C77.5101 104.91 77.4501 104.81 77.3401 104.78L76.2801 104.54C76.1701 104.51 76.0601 104.58 76.0401 104.69C76.0201 104.8 76.0801 104.9 76.1901 104.93L77.2501 105.17C77.3301 105.19 77.4101 105.16 77.4501 105.1Z" fill="white"/>
<path d="M76.9601 105.84C76.9601 105.84 76.9901 105.79 77.0001 105.76C77.0201 105.65 76.9601 105.55 76.8501 105.52L75.7901 105.28C75.6801 105.25 75.5801 105.32 75.5501 105.43C75.5301 105.54 75.5901 105.64 75.7001 105.67L76.7601 105.91C76.8401 105.93 76.9201 105.9 76.9601 105.84Z" fill="white"/>
</g>
<defs>
<clipPath id="clip0_1204_6255">
<rect width="61.89" height="106.99" fill="white" transform="matrix(-1 0 0 1 85 2)"/>
</clipPath>
</defs>
</svg>
