<svg width="110" height="110" viewBox="0 0 110 110" fill="none" xmlns="http://www.w3.org/2000/svg">
<g clip-path="url(#clip0_1204_6361)">
<path d="M40 55.18C38.89 56.39 38.98 58.28 40.2 59.38C41.2 60.29 42.65 60.39 43.74 59.73C43.98 59.59 44.2 59.4 44.4 59.19C44.88 58.66 45.33 58.13 45.76 57.59L40.72 54.35C40.49 54.63 40.25 54.91 40 55.18Z" fill="#FADDDC"/>
<path d="M50.9501 23.99C49.3701 24.44 48.4601 26.08 48.9001 27.66C48.9501 27.83 50.6201 42.51 40.7201 54.35L45.7601 57.59C57.1101 43.4 54.8401 26.83 54.6201 26.03C54.1701 24.45 52.5301 23.54 50.9501 23.99Z" fill="#FADDDC"/>
<path d="M52.7701 54.84L66.1701 56.65L66.3901 79.77L68.1501 102.07L63.3701 102.74C63.3601 103.33 63.2301 106.26 63.4701 106.8C63.8301 107.6 64.1801 108.86 62.9801 109.28L56.8901 109.73C56.1301 109.58 55.9901 108.22 56.6901 107.75C57.1501 107.44 58.4201 106.89 58.9001 106.61C59.8801 106.02 60.1101 102.8 60.1101 102.8L58.4901 102.84L52.7801 54.84H52.7701Z" fill="#494946"/>
<path d="M51.17 57.14L66.99 58.79L53.42 78.45L56.72 96.69L54.52 97.24L55.23 100.56C55.41 101.99 55.41 102.92 53.88 103.75L49.97 104.75C49.2 104.81 48.84 103.86 49.44 103.21C49.84 102.78 50.68 102.48 51.04 102C52.61 99.88 51.49 98.04 51.49 98.04L47.38 98.78L43.21 77.69L51.17 57.15V57.14Z" fill="#757570"/>
<path d="M48.76 23.43L46.15 36.78L55.28 40.99L53.7 28.43L48.76 23.43Z" fill="black"/>
<path d="M47.21 60.76L70.72 60.05L66.27 35.99C64.68 23.3 60.41 20.72 56.88 20.72H52.53C51.03 20.72 49.61 21.48 48.83 22.76C43.16 32.02 47.21 60.76 47.21 60.76Z" fill="#1A181E"/>
<path d="M60.4199 60.46C59.4699 61.8 59.7799 63.66 61.1199 64.61C62.2199 65.39 63.6699 65.32 64.6799 64.52C64.8999 64.35 65.0999 64.14 65.2699 63.9C65.6799 63.32 66.0699 62.73 66.4299 62.15L61.0299 59.55C60.8299 59.85 60.6299 60.16 60.4199 60.46Z" fill="#FADDDC"/>
<path d="M64.5601 26.9C63.0501 27.54 62.3401 29.28 62.9701 30.79C63.0401 30.95 69.4201 46.59 61.0301 59.54L66.4301 62.14C75.9701 46.69 68.7801 29.24 68.4501 28.48C67.8101 26.97 66.0701 26.26 64.5601 26.9Z" fill="#FADDDC"/>
<path d="M56.06 21.2C56.06 21.2 61.32 20.55 65.2 24.03C69.08 27.51 72.3 31.13 72.3 31.13C72.3 31.13 65.16 37.79 64.87 37.82C64.58 37.85 53.52 28.02 53.52 28.02C53.52 28.02 53.52 22.48 56.06 21.2Z" fill="#1A181E"/>
<path d="M60.1799 21.27C60.1799 21.27 59.9799 24.18 56.3399 24.18C52.6999 24.18 53.1099 20.74 53.1099 20.74C53.1099 20.74 57.3299 20.33 60.1799 21.27Z" fill="#3C3B42"/>
<path d="M59.95 6.64997L49.57 6.15997L49.41 9.64997L49.14 15.45C49.05 17.27 50.46 18.82 52.28 18.9L53.33 18.95C53.84 18.97 53.97 19.39 53.94 19.9V21.13C54.02 23.92 58.24 23.94 59.07 21.74L59.96 6.65997L59.95 6.64997Z" fill="#FADDDC"/>
<path d="M49.4401 15.63L48.8401 15.43C48.3101 15.25 48.0201 14.68 48.1901 14.14L49.1601 11.23C49.2301 11.01 49.4701 10.89 49.7001 10.96C49.9301 11.03 50.0401 11.27 49.9701 11.5L49.1301 14.03C49.0301 14.33 49.1901 14.66 49.5001 14.76L49.7101 14.83C49.9301 14.9 50.0501 15.14 49.9801 15.37C49.9101 15.6 49.6701 15.71 49.4401 15.64V15.63Z" fill="#E0B1BB"/>
<path d="M51.1001 11.28C51.0901 11.59 51.3201 11.85 51.6301 11.86C51.9401 11.87 52.2001 11.64 52.2101 11.33C52.2201 11.02 51.9901 10.76 51.6801 10.75C51.3701 10.74 51.1101 10.97 51.1001 11.28Z" fill="#757570"/>
<path d="M57.7111 11.3773C57.7361 10.8477 58.1858 10.4387 58.7154 10.4638C59.245 10.4888 59.654 10.9385 59.6289 11.4681L59.5301 13.5557C59.505 14.0853 59.0554 14.4943 58.5258 14.4693C57.9962 14.4442 57.5872 13.9946 57.6123 13.465L57.7111 11.3773Z" fill="#FADDDC"/>
<path d="M55.01 3.52997C54.19 3.48997 53.43 3.13997 52.77 2.64997C52.27 2.26997 51.66 2.03997 50.99 2.00997C49.92 1.95997 48.95 2.43997 48.32 3.21997C47.91 3.73997 47.64 4.37997 47.6 5.08997C47.54 6.32997 48.2 7.41997 49.19 8.00997C49.3 8.06997 49.4 8.12997 49.52 8.18997C50.18 8.49997 50.96 8.69997 51.81 8.73997C52.84 8.78997 53.91 8.72997 54.73 8.46997C56.16 8.00997 57.05 9.30997 56.99 9.96997L56.87 11.97C57.09 13.01 57.47 13.55 57.98 13.64C58.63 13.76 59.54 13.31 59.51 13.97L59.4 16.59C60.03 16.62 60.9 13.34 60.93 12.7L61.54 9.42997V8.27997C61.63 6.38997 59.97 3.86997 58.08 3.77997L55 3.55997L55.01 3.52997Z" fill="#3E2967"/>
<path d="M49.4101 30.2H49.3401V30.86C49.3401 31.12 49.4101 31.2 49.5101 31.2C49.5401 31.2 49.5701 31.19 49.5901 31.18V31.08C49.5901 31.08 49.5401 31.1 49.5201 31.1C49.4601 31.1 49.4201 31.05 49.4201 30.86V30.21L49.4101 30.2Z" fill="white"/>
<path d="M49.18 30.85C49.18 31.02 49.12 31.09 49.05 31.09C49 31.09 48.97 31.07 48.94 31.05V31.14C48.94 31.14 49 31.19 49.06 31.19C49.18 31.19 49.25 31.05 49.25 30.83C49.25 30.61 49.18 30.45 49.07 30.45C48.94 30.45 48.91 30.65 48.91 30.78C48.91 30.81 48.91 30.83 48.91 30.84H49.18V30.85ZM48.97 30.76C48.97 30.68 48.99 30.55 49.07 30.55C49.14 30.55 49.17 30.67 49.18 30.76H48.97Z" fill="white"/>
<path d="M48.8101 30.66C48.8101 30.59 48.8101 30.53 48.8101 30.47H48.7501V30.59C48.7301 30.52 48.6901 30.46 48.6201 30.46C48.5701 30.46 48.4801 30.52 48.4801 30.76V31.18H48.5501V30.77C48.5501 30.66 48.5701 30.56 48.6401 30.56C48.6901 30.56 48.7201 30.62 48.7401 30.69C48.7401 30.71 48.7401 30.73 48.7401 30.75V31.18H48.8101V30.67V30.66Z" fill="white"/>
<path d="M48.3601 30.66C48.3601 30.59 48.3601 30.53 48.3601 30.47H48.3001V30.59C48.2801 30.52 48.2401 30.46 48.1701 30.46C48.1201 30.46 48.0301 30.52 48.0301 30.76V31.18H48.1001V30.77C48.1001 30.66 48.1201 30.56 48.1901 30.56C48.2401 30.56 48.2701 30.62 48.2901 30.69C48.2901 30.71 48.2901 30.73 48.2901 30.75V31.18H48.3601V30.67V30.66Z" fill="white"/>
<path d="M47.8802 30.35C47.8802 30.35 47.9202 30.31 47.9202 30.27C47.9202 30.22 47.9002 30.19 47.8802 30.19C47.8602 30.19 47.8402 30.22 47.8402 30.27C47.8402 30.31 47.8602 30.35 47.8802 30.35ZM47.9102 31.18V30.47H47.8402V31.18H47.9102Z" fill="white"/>
<path d="M47.72 31.18V30.57H47.77V30.47H47.72V30.44C47.72 30.34 47.71 30.25 47.67 30.19C47.64 30.14 47.61 30.12 47.58 30.12C47.55 30.12 47.53 30.13 47.52 30.14V30.24C47.52 30.24 47.55 30.22 47.58 30.22C47.64 30.22 47.66 30.32 47.66 30.42V30.46H47.57V30.56H47.66V31.17H47.73L47.72 31.18Z" fill="white"/>
<path d="M47.46 30.85C47.46 31.02 47.4 31.09 47.33 31.09C47.28 31.09 47.25 31.07 47.22 31.05V31.14C47.22 31.14 47.28 31.19 47.34 31.19C47.46 31.19 47.53 31.05 47.53 30.83C47.53 30.61 47.46 30.45 47.35 30.45C47.22 30.45 47.19 30.65 47.19 30.78C47.19 30.81 47.19 30.83 47.19 30.84H47.46V30.85ZM47.25 30.76C47.25 30.68 47.27 30.55 47.35 30.55C47.42 30.55 47.45 30.67 47.46 30.76H47.25Z" fill="white"/>
<path d="M47.0901 30.69C47.0901 30.61 47.0901 30.54 47.0901 30.47H47.0301V30.61C47.0101 30.52 46.9701 30.46 46.9201 30.46C46.9201 30.46 46.9101 30.46 46.9001 30.46V30.58C46.9001 30.58 46.9101 30.58 46.9201 30.58C46.9701 30.58 47.0101 30.65 47.0201 30.74C47.0201 30.76 47.0201 30.78 47.0201 30.8V31.18H47.0901V30.69Z" fill="white"/>
<path d="M57.58 12.09C57.58 11.5598 58.0098 11.13 58.54 11.13C59.0702 11.13 59.5 11.5598 59.5 12.09V14.18C59.5 14.7102 59.0702 15.14 58.54 15.14C58.0098 15.14 57.58 14.7102 57.58 14.18V12.09Z" fill="#FADDDC"/>
<path d="M52.7 101.81C52.7 101.81 52.74 101.77 52.75 101.74C52.79 101.64 52.75 101.52 52.64 101.48L51.6 101.04C51.5 101 51.38 101.04 51.34 101.15C51.3 101.25 51.34 101.37 51.45 101.41L52.49 101.85C52.56 101.88 52.64 101.87 52.7 101.82V101.81Z" fill="white"/>
<path d="M52.2299 102.51C52.2299 102.51 52.2699 102.47 52.2799 102.44C52.3299 102.34 52.2799 102.22 52.1799 102.18L51.1899 101.73C51.0899 101.68 50.9699 101.73 50.9299 101.83C50.8799 101.93 50.9299 102.05 51.0299 102.09L52.0199 102.54C52.0899 102.57 52.1799 102.56 52.2299 102.51Z" fill="white"/>
<path d="M51.6001 103.13C51.6001 103.13 51.6401 103.09 51.6501 103.06C51.7001 102.96 51.6501 102.84 51.5501 102.8L50.5601 102.35C50.4601 102.3 50.3401 102.35 50.3001 102.45C50.2501 102.55 50.3001 102.67 50.4001 102.71L51.3901 103.16C51.4601 103.19 51.5501 103.18 51.6001 103.13Z" fill="white"/>
<path d="M59.87 107.28C59.87 107.28 59.92 107.25 59.94 107.23C60.01 107.15 60 107.02 59.92 106.95L59.06 106.21C58.98 106.14 58.85 106.15 58.78 106.23C58.71 106.31 58.72 106.44 58.8 106.51L59.66 107.25C59.72 107.3 59.8 107.31 59.87 107.28Z" fill="white"/>
<path d="M59.21 107.8C59.21 107.8 59.26 107.77 59.28 107.75C59.35 107.67 59.35 107.54 59.27 107.47L58.47 106.74C58.39 106.67 58.26 106.67 58.19 106.75C58.12 106.83 58.12 106.96 58.2 107.03L59 107.76C59.06 107.81 59.14 107.83 59.21 107.8Z" fill="white"/>
<path d="M58.4199 108.2C58.4199 108.2 58.4699 108.17 58.4899 108.15C58.5599 108.07 58.5599 107.94 58.4799 107.87L57.6799 107.14C57.5999 107.07 57.4699 107.07 57.3999 107.15C57.3299 107.23 57.3299 107.36 57.4099 107.43L58.2099 108.16C58.2699 108.21 58.3499 108.23 58.4199 108.2Z" fill="white"/>
<path d="M63.3601 102.74L60.0901 102.8L59.9001 104.22L63.4001 104.39L63.3601 102.74Z" fill="white"/>
<path d="M54.5201 97.24L51.4901 98.04L51.8301 99.32L54.8401 98.66L54.5201 97.24Z" fill="white"/>
</g>
<defs>
<clipPath id="clip0_1204_6361">
<rect width="33.07" height="107.73" fill="white" transform="matrix(-1 0 0 1 72.3 2)"/>
</clipPath>
</defs>
</svg>
