<svg width="110" height="110" viewBox="0 0 110 110" fill="none" xmlns="http://www.w3.org/2000/svg">
<g clip-path="url(#clip0_1204_5476)">
<path d="M47.99 83.09C48.07 83.71 48.49 86.9 48.91 87.68C49.4 88.59 50.83 88.76 51.18 87.55C51.25 87.31 51.44 85.48 51.68 82.96L47.99 83.09Z" fill="#494946"/>
<path d="M40.6299 57.44L43.8099 83.24L47.9899 83.09L51.6799 82.96C52.3199 76.32 53.3199 64.85 53.3199 64.85H54.8599L54.5199 99.88L55.8299 100.04C55.8299 100.04 55.8499 103.21 55.5599 104C55.1199 105.19 54.2999 106.23 56.5499 106.69L60.3899 108.23C61.1699 108.23 61.8899 107.4 61.4399 106.74C60.9399 106.03 60.3799 105.57 59.8399 105.15C58.8899 104.4 59.6899 101.5 59.7899 100.65L63.6899 101.09L67.5499 57.44H40.6299Z" fill="#757570"/>
<path d="M59.5101 21.23L57.2201 40.19L51.3101 21.23H59.5101Z" fill="white"/>
<path d="M30.7699 53C30.8599 53.68 30.9699 54.38 31.1099 55.07C31.1699 55.36 31.2599 55.63 31.3899 55.87C31.9799 57.01 33.2799 57.67 34.5999 57.41C36.2099 57.09 37.2599 55.53 36.9399 53.92C36.8699 53.56 36.8099 53.2 36.7499 52.84C35.7899 46.61 37.2699 40.99 39.3599 36.5L34.3199 33.15C31.7199 38.45 29.7599 45.25 30.7699 53Z" fill="#FADDDC"/>
<path d="M71.0699 60.03H38.3799L39.9499 29.2C40.7399 23.7 41.2499 19.76 49.1399 19.76H60.9799C65.1399 19.76 68.5199 23.14 68.5199 27.3L71.0599 60.02L71.0699 60.03Z" fill="#18161C"/>
<path d="M46.92 21.62C45.8 20.42 43.93 20.35 42.72 21.46C42.37 21.78 36.97 25.61 33.52 32.63L39.64 36.68C42.66 30.18 46.7 25.89 46.77 25.82C47.97 24.7 48.04 22.82 46.92 21.62Z" fill="#18161C"/>
<path d="M93.9299 40.67C93.5599 40.67 93.1999 40.64 92.8299 40.62C84.9799 40.1 78.8699 36.08 74.7499 32.25L71.1399 37.07C75.8699 41.36 82.7499 45.7 91.6799 46.49C92.3699 46.55 93.0699 46.59 93.7799 46.61C94.0699 46.61 94.3599 46.58 94.6299 46.51C95.8699 46.18 96.7999 45.06 96.8299 43.71C96.8699 42.07 95.5699 40.7 93.9299 40.67Z" fill="#FADDDC"/>
<path d="M66.74 22.38C65.53 21.14 64.12 21.72 62.91 22.5C61.53 23.38 61.17 28.12 61.85 29.62C62.22 30.45 65.65 33.54 70.5 37.94L74.91 32.03C70.95 28.35 68.7 24.39 66.74 22.39V22.38Z" fill="#18161C"/>
<path d="M51.24 19.78H58.44V19.93C58.44 21.92 56.83 23.53 54.84 23.53C52.85 23.53 51.24 21.92 51.24 19.93V19.78Z" fill="#3C3B42"/>
<path d="M57.5399 6.59H47.1499V14.7C47.1499 16.52 48.6299 18 50.4499 18H51.4999C52.0099 18 52.4299 18.41 52.4299 18.93V19.94C52.4299 21.34 53.5699 22.48 54.9699 22.48C56.3699 22.48 57.4999 21.35 57.5099 19.95L57.5499 6.59H57.5399Z" fill="#FADDDC"/>
<path d="M50.5101 15H49.8801C49.3201 15 48.8601 14.54 48.8601 13.98V10.91C48.8601 10.68 49.0501 10.49 49.2801 10.49C49.5101 10.49 49.7001 10.68 49.7001 10.91V13.57C49.7001 13.89 49.9601 14.15 50.2801 14.15H50.5001C50.7301 14.15 50.9301 14.34 50.9301 14.57C50.9301 14.8 50.7401 14.99 50.5001 14.99L50.5101 15Z" fill="#E0B1BB"/>
<path d="M51.55 11.04C51.55 11.35 51.8001 11.6 52.1101 11.6C52.4201 11.6 52.67 11.35 52.67 11.04C52.67 10.73 52.4201 10.48 52.1101 10.48C51.8001 10.48 51.55 10.73 51.55 11.04Z" fill="#3E2967"/>
<path d="M52.31 3.34C51.49 3.34 50.71 3.03 50.03 2.56C49.52 2.21 48.89 2 48.22 2C47.15 2 46.2 2.53 45.61 3.34C45.22 3.87 44.98 4.53 44.98 5.24C44.98 6.48 45.69 7.54 46.71 8.09C46.82 8.15 46.93 8.2 47.05 8.25C47.73 8.53 48.52 8.69 49.36 8.69C50.39 8.69 51.35 8.45 52.1 8.06C52.62 7.79 53.18 7.61 53.76 7.61C54.9 7.61 55.82 8.53 55.82 9.67V11.7C55.82 12.62 56.56 13.36 57.48 13.36H57.51C58.14 13.36 58.66 12.85 58.66 12.21V6.78C58.66 4.89 57.12 3.35 55.23 3.35H52.3L52.31 3.34Z" fill="#3E2967"/>
<path d="M59.4101 29.92H59.5401V30.58C59.5401 30.84 59.4101 30.92 59.2401 30.92C59.1901 30.92 59.1401 30.91 59.1001 30.9L59.1201 30.8C59.1201 30.8 59.1801 30.82 59.2301 30.82C59.3401 30.82 59.4101 30.77 59.4101 30.58V29.93V29.92Z" fill="white"/>
<path d="M59.8199 30.57C59.8199 30.74 59.9299 30.81 60.0599 30.81C60.1499 30.81 60.2099 30.79 60.2599 30.77L60.2799 30.86C60.2799 30.86 60.1599 30.91 60.0399 30.91C59.8199 30.91 59.6899 30.77 59.6899 30.55C59.6899 30.33 59.8199 30.17 60.0199 30.17C60.2499 30.17 60.3099 30.37 60.3099 30.5C60.3099 30.53 60.3099 30.55 60.3099 30.56H59.8199V30.57ZM60.1999 30.48C60.1999 30.4 60.1699 30.27 60.0199 30.27C59.8899 30.27 59.8299 30.39 59.8199 30.48H60.1899H60.1999Z" fill="white"/>
<path d="M60.48 30.39C60.48 30.32 60.48 30.26 60.48 30.2H60.59V30.32H60.6C60.63 30.25 60.72 30.19 60.83 30.19C60.93 30.19 61.08 30.25 61.08 30.49V30.91H60.95V30.5C60.95 30.39 60.91 30.29 60.79 30.29C60.71 30.29 60.64 30.35 60.62 30.42C60.62 30.44 60.62 30.46 60.62 30.48V30.91H60.49V30.4L60.48 30.39Z" fill="white"/>
<path d="M61.29 30.39C61.29 30.32 61.29 30.26 61.29 30.2H61.4V30.32H61.41C61.44 30.25 61.53 30.19 61.64 30.19C61.74 30.19 61.89 30.25 61.89 30.49V30.91H61.76V30.5C61.76 30.39 61.72 30.29 61.6 30.29C61.52 30.29 61.45 30.35 61.43 30.42C61.43 30.44 61.43 30.46 61.43 30.48V30.91H61.3V30.4L61.29 30.39Z" fill="white"/>
<path d="M62.1601 30.08C62.1601 30.08 62.0801 30.04 62.0801 30C62.0801 29.95 62.1101 29.92 62.1601 29.92C62.2101 29.92 62.2401 29.95 62.2401 30C62.2401 30.04 62.2101 30.08 62.1601 30.08ZM62.1001 30.9V30.19H62.2301V30.9H62.1001Z" fill="white"/>
<path d="M62.4501 30.9V30.29H62.3501V30.19H62.4501V30.16C62.4501 30.06 62.4701 29.97 62.5301 29.91C62.5801 29.86 62.6401 29.84 62.7001 29.84C62.7501 29.84 62.7801 29.85 62.8101 29.86L62.7901 29.96C62.7901 29.96 62.7401 29.94 62.7101 29.94C62.6001 29.94 62.5701 30.04 62.5701 30.14V30.18H62.7401V30.28H62.5701V30.89H62.4401L62.4501 30.9Z" fill="white"/>
<path d="M62.92 30.57C62.92 30.74 63.03 30.81 63.16 30.81C63.25 30.81 63.31 30.79 63.36 30.77L63.38 30.86C63.38 30.86 63.26 30.91 63.14 30.91C62.92 30.91 62.79 30.77 62.79 30.55C62.79 30.33 62.92 30.17 63.12 30.17C63.35 30.17 63.41 30.37 63.41 30.5C63.41 30.53 63.41 30.55 63.41 30.56H62.92V30.57ZM63.29 30.48C63.29 30.4 63.26 30.27 63.11 30.27C62.98 30.27 62.92 30.39 62.91 30.48H63.28H63.29Z" fill="white"/>
<path d="M63.5701 30.42C63.5701 30.34 63.5701 30.27 63.5701 30.2H63.6801V30.34H63.6901C63.7201 30.25 63.8001 30.19 63.8901 30.19C63.9001 30.19 63.9101 30.19 63.9201 30.19V30.31C63.9201 30.31 63.8901 30.31 63.8801 30.31C63.7901 30.31 63.7301 30.38 63.7101 30.47C63.7101 30.49 63.7101 30.51 63.7101 30.53V30.91H63.5801V30.42H63.5701Z" fill="white"/>
<path d="M59.7901 100.64L55.8301 100.04L55.8101 101.55L59.5401 102.07L59.7901 100.64Z" fill="white"/>
<path d="M59.55 106.87C59.55 106.87 59.58 106.93 59.6 106.95C59.68 107.03 59.81 107.02 59.88 106.95L60.66 106.14C60.74 106.06 60.74 105.93 60.66 105.86C60.58 105.78 60.45 105.79 60.38 105.86L59.6 106.67C59.55 106.73 59.53 106.81 59.56 106.88L59.55 106.87Z" fill="white"/>
<path d="M59.0499 106.18C59.0499 106.18 59.0699 106.23 59.0999 106.25C59.1799 106.33 59.2999 106.33 59.3799 106.25L60.1599 105.49C60.2399 105.41 60.2399 105.29 60.1599 105.21C60.0799 105.13 59.9599 105.13 59.8799 105.21L59.0999 105.97C59.0399 106.03 59.0299 106.11 59.0499 106.18Z" fill="white"/>
<path d="M58.7 105.37C58.7 105.37 58.72 105.42 58.75 105.44C58.83 105.52 58.95 105.52 59.03 105.44L59.81 104.68C59.89 104.6 59.89 104.48 59.81 104.4C59.73 104.32 59.61 104.32 59.53 104.4L58.75 105.16C58.69 105.22 58.68 105.3 58.7 105.37Z" fill="white"/>
<path d="M49.1001 86.12C49.1001 86.12 49.0801 86.18 49.0801 86.21C49.0801 86.32 49.1701 86.41 49.2801 86.41H50.4101C50.5201 86.4 50.6101 86.31 50.6101 86.2C50.6101 86.09 50.5201 86 50.4101 86H49.2801C49.2001 86.01 49.1301 86.06 49.1001 86.12Z" fill="white"/>
<path d="M49.1201 85.29C49.1201 85.29 49.1001 85.34 49.1001 85.37C49.1001 85.48 49.1901 85.57 49.3001 85.57L50.3901 85.59C50.5001 85.59 50.5901 85.5 50.5901 85.39C50.5901 85.28 50.5001 85.19 50.3901 85.19L49.3001 85.17C49.2201 85.17 49.1501 85.21 49.1201 85.28V85.29Z" fill="white"/>
<path d="M49.1201 84.47C49.1201 84.47 49.1001 84.52 49.1001 84.55C49.1001 84.66 49.1901 84.75 49.3001 84.75L50.3901 84.77C50.5001 84.77 50.5901 84.68 50.5901 84.57C50.5901 84.46 50.5001 84.37 50.3901 84.37L49.3001 84.35C49.2201 84.35 49.1501 84.39 49.1201 84.46V84.47Z" fill="white"/>
</g>
<defs>
<clipPath id="clip0_1204_5476">
<rect width="66.34" height="106.23" fill="white" transform="translate(30.5 2)"/>
</clipPath>
</defs>
</svg>
