<svg width="110" height="110" viewBox="0 0 110 110" fill="none" xmlns="http://www.w3.org/2000/svg">
<g clip-path="url(#clip0_1203_5070)">
<path d="M46.2299 104.21L46.1399 104.35C45.6799 105.08 44.3899 105.63 43.5599 105.96L41.8999 106.62C41.5899 106.74 41.3899 107.02 41.3799 107.33C41.3599 107.78 41.7299 108.15 42.2099 108.17L47.1099 108.35C48.4599 108.4 49.6199 107.48 49.7899 106.22L49.9399 105.13C50.0399 104.4 50.1699 103.67 50.3099 102.94L46.8099 102.88C46.6799 103.34 46.4999 103.79 46.2399 104.2L46.2299 104.21Z" fill="#9A9A99"/>
<path d="M46.97 101.78C46.96 102.16 46.89 102.53 46.8 102.89L50.3 102.94C50.4 102.39 50.51 101.83 50.64 101.29L51 99.6L47.0601 99.45L46.97 101.77V101.78Z" fill="white"/>
<path d="M44.0901 106.74C44.0301 106.74 43.9801 106.71 43.9501 106.66L43.5501 106C43.5001 105.92 43.5301 105.82 43.6101 105.77C43.6901 105.72 43.7901 105.75 43.8401 105.83L44.2401 106.49C44.2901 106.57 44.2601 106.67 44.1801 106.72C44.1501 106.74 44.1201 106.75 44.0901 106.74Z" fill="white"/>
<path d="M44.74 106.44C44.68 106.44 44.63 106.41 44.6 106.36L44.2 105.7C44.15 105.62 44.18 105.52 44.26 105.47C44.34 105.42 44.45 105.45 44.49 105.53L44.89 106.19C44.94 106.27 44.91 106.37 44.83 106.42C44.8 106.44 44.77 106.45 44.74 106.44Z" fill="white"/>
<path d="M45.3201 106.19C45.2601 106.19 45.2101 106.16 45.1801 106.11L44.7801 105.45C44.7301 105.37 44.7601 105.27 44.8401 105.22C44.9201 105.17 45.0301 105.2 45.0701 105.28L45.4701 105.94C45.5201 106.02 45.4901 106.12 45.4101 106.17C45.3801 106.19 45.3501 106.2 45.3201 106.19Z" fill="white"/>
<path d="M45.8801 105.8C45.8201 105.8 45.7701 105.77 45.7401 105.72L45.3401 105.06C45.2901 104.98 45.3201 104.88 45.4001 104.83C45.4801 104.78 45.5901 104.81 45.6301 104.89L46.0301 105.55C46.0801 105.63 46.0501 105.73 45.9701 105.78C45.9401 105.8 45.9101 105.81 45.8801 105.8Z" fill="white"/>
<path d="M68.9501 102.62L68.9901 102.86C69.1601 103.79 68.8801 104.74 68.2301 105.44C67.7201 105.99 65.2301 106.52 65.2301 106.52C64.7501 106.58 64.3901 106.95 64.3801 107.4C64.3601 107.91 64.7901 108.34 65.3301 108.36L69.8801 108.53C71.0701 108.57 72.0701 107.69 72.1001 106.57L72.2101 102.67L68.9701 102.62H68.9501Z" fill="#9A9A99"/>
<path d="M66.5901 107.06C66.5301 107.06 66.4801 107.03 66.4501 106.98L66.0501 106.32C66.0001 106.24 66.0301 106.14 66.1101 106.09C66.1901 106.04 66.2901 106.07 66.3401 106.15L66.7401 106.81C66.7901 106.89 66.7601 106.99 66.6801 107.04C66.6501 107.06 66.6201 107.07 66.5901 107.06Z" fill="white"/>
<path d="M67.25 106.83C67.19 106.83 67.14 106.8 67.11 106.75L66.71 106.09C66.66 106.01 66.69 105.91 66.77 105.86C66.85 105.81 66.96 105.84 67 105.92L67.4 106.58C67.45 106.66 67.42 106.76 67.34 106.81C67.31 106.83 67.28 106.84 67.25 106.83Z" fill="white"/>
<path d="M67.96 106.61C67.9 106.61 67.85 106.58 67.82 106.53L67.42 105.87C67.37 105.79 67.4 105.69 67.48 105.64C67.56 105.59 67.67 105.62 67.71 105.7L68.11 106.36C68.16 106.44 68.13 106.54 68.05 106.59C68.02 106.61 67.99 106.62 67.96 106.61Z" fill="white"/>
<path d="M68.5701 106.19C68.5101 106.19 68.4601 106.16 68.4301 106.11L68.0301 105.45C67.9801 105.37 68.0101 105.27 68.0901 105.22C68.1701 105.17 68.2801 105.2 68.3201 105.28L68.7201 105.94C68.7701 106.02 68.7401 106.12 68.6601 106.17C68.6301 106.19 68.6001 106.2 68.5701 106.19Z" fill="white"/>
<path d="M72.3699 99.37L68.4299 99.36L68.9499 102.6L72.1899 102.65V102.59L72.3699 99.37Z" fill="white"/>
<path d="M59.43 62.73L53.31 101.19H44.45V56.03H74.5099V101.19H65.7599L59.43 62.73Z" fill="#757570"/>
<path d="M54.8101 20.23L57.1001 39.19L63.0101 20.23H54.8101Z" fill="white"/>
<path d="M83.55 52C83.46 52.68 83.35 53.38 83.21 54.07C83.15 54.36 83.06 54.63 82.93 54.87C82.34 56.01 81.04 56.67 79.72 56.41C78.11 56.09 77.06 54.53 77.38 52.92C77.45 52.56 77.51 52.2 77.57 51.84C78.53 45.61 77.05 39.99 74.96 35.5L80 32.15C82.61 37.44 84.57 44.25 83.55 52Z" fill="#FADDDC"/>
<path d="M19.94 13.78C20.22 14.02 20.5 14.26 20.78 14.49C26.9 19.44 34.11 20.64 39.73 20.63L39.1 26.62C32.72 26.55 24.72 25.07 17.62 19.58C17.07 19.16 16.53 18.71 16 18.24C15.78 18.05 15.6 17.83 15.45 17.59C14.77 16.5 14.85 15.05 15.74 14.04C16.83 12.81 18.71 12.69 19.94 13.78Z" fill="#FADDDC"/>
<path d="M43.25 59.03H75.94L74.37 28.2C73.58 22.7 73.07 18.76 65.18 18.76H53.34C49.18 18.76 45.8 22.14 45.8 26.3L43.26 59.02L43.25 59.03Z" fill="#18161C"/>
<path d="M67.4 20.62C68.52 19.42 70.39 19.35 71.6 20.46C71.95 20.78 77.35 24.61 80.8 31.63L74.68 35.68C71.66 29.18 67.62 24.89 67.55 24.82C66.35 23.7 66.28 21.82 67.4 20.62Z" fill="#18161C"/>
<path d="M52.32 18.83C54.05 18.74 54.69 20.13 55.05 21.52C55.46 23.11 52.51 26.83 51 27.47C50.16 27.82 45.54 27.76 39 27.7L39.78 20.36C45.19 20.35 49.53 18.98 52.32 18.83Z" fill="#18161C"/>
<path d="M59.4801 22.54C57.4901 22.54 55.8801 20.93 55.8801 18.94V18.79H63.0801V18.94C63.0801 20.93 61.4701 22.54 59.4801 22.54Z" fill="#3C3B42"/>
<path d="M62.1 5.59003H51.71V13.7C51.71 15.52 53.19 17 55.01 17H56.06C56.57 17 56.99 17.41 56.99 17.93V18.94C56.99 20.34 58.13 21.48 59.53 21.48C60.93 21.48 62.06 20.35 62.07 18.95L62.11 5.59003H62.1Z" fill="#FADDDC"/>
<path d="M55.0699 14H54.4399C53.8799 14 53.4199 13.54 53.4199 12.98V9.90999C53.4199 9.67999 53.6099 9.48999 53.8399 9.48999C54.0699 9.48999 54.2599 9.67999 54.2599 9.90999V12.57C54.2599 12.89 54.5199 13.15 54.8399 13.15H55.0599C55.2899 13.15 55.4899 13.34 55.4899 13.57C55.4899 13.8 55.2999 13.99 55.0599 13.99L55.0699 14Z" fill="#E0B1BB"/>
<path d="M56.1101 10.04C56.1101 10.35 56.3601 10.6 56.6701 10.6C56.9801 10.6 57.2301 10.35 57.2301 10.04C57.2301 9.72998 56.9801 9.47998 56.6701 9.47998C56.3601 9.47998 56.1101 9.72998 56.1101 10.04Z" fill="#3E2967"/>
<path d="M56.87 2.34C56.05 2.34 55.27 2.03 54.59 1.56C54.08 1.21 53.45 1 52.78 1C51.71 1 50.76 1.53 50.17 2.34C49.78 2.87 49.54 3.53 49.54 4.24C49.54 5.48 50.25 6.54 51.27 7.09C51.38 7.15 51.49 7.2 51.61 7.25C52.29 7.53 53.08 7.69 53.92 7.69C54.95 7.69 55.91 7.45 56.66 7.06C57.18 6.79 57.74 6.61 58.32 6.61C59.46 6.61 60.38 7.53 60.38 8.67V10.7C60.38 11.62 61.12 12.36 62.04 12.36H62.07C62.7 12.36 63.22 11.85 63.22 11.21V5.78C63.22 3.89 61.68 2.35 59.79 2.35H56.86L56.87 2.34Z" fill="#3E2967"/>
<path d="M64.1201 28.92H64.2501V29.58C64.2501 29.84 64.1201 29.92 63.9501 29.92C63.9001 29.92 63.8501 29.91 63.8101 29.9L63.8301 29.8C63.8301 29.8 63.8901 29.82 63.9401 29.82C64.0501 29.82 64.1201 29.77 64.1201 29.58V28.93V28.92Z" fill="white"/>
<path d="M64.5299 29.57C64.5299 29.74 64.6399 29.81 64.7699 29.81C64.8599 29.81 64.9199 29.79 64.9699 29.77L64.9899 29.86C64.9899 29.86 64.8699 29.91 64.7499 29.91C64.5299 29.91 64.3999 29.77 64.3999 29.55C64.3999 29.33 64.5299 29.17 64.7299 29.17C64.9599 29.17 65.0199 29.37 65.0199 29.5C65.0199 29.53 65.0199 29.55 65.0199 29.56H64.5299V29.57ZM64.8999 29.48C64.8999 29.4 64.8699 29.27 64.7199 29.27C64.5899 29.27 64.5299 29.39 64.5199 29.48H64.8899H64.8999Z" fill="white"/>
<path d="M65.1799 29.39C65.1799 29.32 65.1799 29.26 65.1799 29.2H65.2899V29.32H65.2999C65.3299 29.25 65.4199 29.19 65.5299 29.19C65.6299 29.19 65.7799 29.25 65.7799 29.49V29.91H65.6499V29.5C65.6499 29.39 65.6099 29.29 65.4899 29.29C65.4099 29.29 65.3399 29.35 65.3199 29.42C65.3199 29.44 65.3199 29.46 65.3199 29.48V29.91H65.1899V29.4L65.1799 29.39Z" fill="white"/>
<path d="M65.99 29.39C65.99 29.32 65.99 29.26 65.99 29.2H66.1V29.32H66.11C66.14 29.25 66.23 29.19 66.34 29.19C66.44 29.19 66.59 29.25 66.59 29.49V29.91H66.46V29.5C66.46 29.39 66.42 29.29 66.3 29.29C66.22 29.29 66.15 29.35 66.13 29.42C66.13 29.44 66.13 29.46 66.13 29.48V29.91H66V29.4L65.99 29.39Z" fill="white"/>
<path d="M66.86 29.08C66.86 29.08 66.78 29.04 66.78 29C66.78 28.95 66.81 28.92 66.86 28.92C66.91 28.92 66.94 28.95 66.94 29C66.94 29.04 66.91 29.08 66.86 29.08ZM66.8 29.9V29.19H66.93V29.9H66.8Z" fill="white"/>
<path d="M67.1601 29.9V29.29H67.0601V29.19H67.1601V29.16C67.1601 29.06 67.1801 28.97 67.2401 28.91C67.2901 28.86 67.3501 28.84 67.4101 28.84C67.4601 28.84 67.4901 28.85 67.5201 28.86L67.5001 28.96C67.5001 28.96 67.4501 28.94 67.4201 28.94C67.3101 28.94 67.2801 29.04 67.2801 29.14V29.18H67.4501V29.28H67.2801V29.89H67.1501L67.1601 29.9Z" fill="white"/>
<path d="M67.62 29.57C67.62 29.74 67.73 29.81 67.86 29.81C67.95 29.81 68.01 29.79 68.06 29.77L68.08 29.86C68.08 29.86 67.96 29.91 67.84 29.91C67.62 29.91 67.49 29.77 67.49 29.55C67.49 29.33 67.62 29.17 67.82 29.17C68.05 29.17 68.11 29.37 68.11 29.5C68.11 29.53 68.11 29.55 68.11 29.56H67.62V29.57ZM68 29.48C68 29.4 67.97 29.27 67.82 29.27C67.69 29.27 67.63 29.39 67.62 29.48H67.99H68Z" fill="white"/>
<path d="M68.28 29.42C68.28 29.34 68.28 29.27 68.28 29.2H68.39V29.34H68.4C68.43 29.25 68.51 29.19 68.6 29.19C68.61 29.19 68.62 29.19 68.63 29.19V29.31C68.63 29.31 68.6 29.31 68.59 29.31C68.5 29.31 68.44 29.38 68.42 29.47C68.42 29.49 68.42 29.51 68.42 29.53V29.91H68.29V29.42H68.28Z" fill="white"/>
</g>
<defs>
<clipPath id="clip0_1203_5070">
<rect width="68.82" height="107.54" fill="white" transform="translate(15 1)"/>
</clipPath>
</defs>
</svg>
