<svg width="110" height="110" viewBox="0 0 110 110" fill="none" xmlns="http://www.w3.org/2000/svg">
<g clip-path="url(#clip0_1203_5219)">
<g clip-path="url(#clip1_1203_5219)">
<path d="M42.55 55.78H70.0601L66.87 98.84L62.15 100.1C62.15 100.1 61.6001 102.49 62.0401 103.12C62.4801 103.75 63.58 101.8 64.78 102.36C65.57 102.72 64.9301 104.64 64.3601 105.55L58.53 110.19C56.23 109.66 56.51 107.85 56.99 106.48C58.47 102.25 58.36 100.27 58.36 100.27L57.62 100.33C57.62 100.33 58.67 69.72 58.81 65.77C58.85 64.73 57.97 63.61 57.1 63.61H55.52C54.65 63.61 54.19 64.37 54.19 65.4C54.19 70.26 54.19 79.02 54.16 82.58C54.16 82.58 54.01 86.76 53.76 87.76C53.4 89.18 51.95 88.97 51.45 87.92C51.02 87.01 50.58 83.3 50.5 82.58L48.21 82.64L42.56 55.79L42.55 55.78Z" fill="#757570"/>
<path d="M50.5 82.57H54.16L54.11 83.73L50.65 84.03L50.5 82.57Z" fill="white"/>
<path d="M62.1501 100.1L58.3601 100.26L58.0901 102.86L61.9201 102.32L62.1501 100.1Z" fill="white"/>
<path d="M58.36 15.27H53.75V18.62H58.36V15.27Z" fill="#FADDDC"/>
<path d="M61.26 11.62H60.7V9.07001C60.7 8.66001 61.03 8.32001 61.45 8.32001H61.75C62.16 8.32001 62.5 8.65001 62.5 9.07001L62.15 10.74C62.15 11.23 61.76 11.62 61.27 11.62H61.26Z" fill="#FADDDC"/>
<path d="M50.1399 11.62H50.6999V9.07001C50.6999 8.66001 50.3699 8.32001 49.9499 8.32001H49.6499C49.2399 8.32001 48.8999 8.65001 48.8999 9.07001L49.2499 10.74C49.2499 11.23 49.6399 11.62 50.1299 11.62H50.1399Z" fill="#FADDDC"/>
<path d="M62.43 3.68002C62.23 2.82002 61.71 2.04002 60.98 1.53002C60.15 0.950016 59.16 0.920016 58.2 1.09002C57.34 1.24002 56.49 1.50002 55.65 1.71002C54.86 1.91002 54.05 2.08002 53.27 2.32002C52.46 2.57002 51.65 2.94002 51.05 3.56002C50.44 4.18002 50.12 4.96002 49.99 5.80002C49.87 6.06002 49.8 6.35002 49.8 6.74002C49.8 8.19002 49.9 9.42002 50.15 10.4C50.4 11.38 51.45 14.66 53.48 15.97C54.45 16.6 57.04 16.98 58.34 15.97C59.63 14.96 60.77 13.64 61.09 11.56C61.41 9.48002 61.43 9.10002 61.78 8.12002C61.87 7.87002 61.9 7.54002 61.89 7.18002C62.43 6.10002 62.74 4.94002 62.45 3.70002L62.43 3.68002Z" fill="#3E2967"/>
<path d="M41.06 46.99C41.16 48.35 40.13 49.54 38.77 49.64C38.71 49.64 38.65 49.64 38.59 49.64C37.3 49.64 36.22 48.64 36.12 47.34C36.09 46.91 36.07 46.49 36.05 46.07H41.01C41.02 46.37 41.03 46.67 41.06 46.98V46.99Z" fill="#FADDDC"/>
<path d="M46.8701 20.34C48.0601 19.68 49.5501 20.11 50.2201 21.29C50.8901 22.48 50.4701 23.98 49.2801 24.66C48.8201 24.92 40.1601 28.92 41.0101 46.07H36.0501C35.1601 25.9 46.3101 20.65 46.8701 20.34Z" fill="#FADDDC"/>
<path d="M42.3501 57.88L70.2001 57.72L70.0501 27.79C70.0501 22.65 65.8801 18.48 60.7401 18.48H51.8501C46.7101 18.48 42.5401 22.65 42.5401 27.79L42.3501 57.89V57.88Z" fill="#1A181E"/>
<path d="M74.05 60.35C73.5 62.05 74.43 63.88 76.13 64.43C77.53 64.88 79.01 64.34 79.8 63.18C79.97 62.93 80.11 62.65 80.21 62.35C80.45 61.61 80.66 60.88 80.84 60.15L74.39 59.2C74.28 59.58 74.17 59.96 74.05 60.35Z" fill="#FADDDC"/>
<path d="M67.46 24.14C66.09 25.29 65.92 27.33 67.07 28.7C67.19 28.84 78.9 43.02 74.39 59.21L80.84 60.16C85.73 41 72.6 25.21 72.01 24.52C70.85 23.16 68.82 22.99 67.45 24.14H67.46Z" fill="#FADDDC"/>
<path d="M62.98 18.79C62.98 18.79 72.98 19.76 78.58 31.73L69.46 38.54L66.63 32.62C64.51 29.9 63.29 26.58 63.15 23.14L62.98 18.79Z" fill="#1A181E"/>
<path d="M49.7999 19.32C49.7999 19.32 43.1299 19.89 38.1799 29.5L44.2799 34.73C44.2799 34.73 48.5099 30.43 49.8699 26.12C51.2299 21.81 49.7999 19.31 49.7999 19.31V19.32Z" fill="#1A181E"/>
</g>
</g>
<defs>
<clipPath id="clip0_1203_5219">
<rect width="110" height="110" fill="white"/>
</clipPath>
<clipPath id="clip1_1203_5219">
<rect width="45.93" height="109.19" fill="white" transform="translate(36 1)"/>
</clipPath>
</defs>
</svg>
