
    <svg
        width="62"
        height="107"
        viewBox="0 0 62 107"
        fill="none"
        xmlns="http://www.w3.org/2000/svg"
    >
        <g clip-path="url(#clip0_9_237)">
            <path
                d="M23.3799 101.69L23.2899 101.83C22.8299 102.56 21.5399 103.11 20.7099 103.44L19.0499 104.1C18.7399 104.22 18.5399 104.5 18.5299 104.81C18.5099 105.26 18.8799 105.63 19.3599 105.65L24.2599 105.83C25.6099 105.88 26.7699 104.96 26.9399 103.7L27.0899 102.61C27.1899 101.88 27.3199 101.15 27.4599 100.42L23.9599 100.36C23.8299 100.82 23.6499 101.27 23.3899 101.68L23.3799 101.69Z"
                fill="#9A9A99"
            />
            <path
                d="M24.13 99.2499C24.12 99.6299 24.05 99.9999 23.96 100.36L27.46 100.41C27.56 99.8599 27.67 99.2999 27.8 98.7599L28.16 97.0699L24.22 96.9199L24.13 99.2399V99.2499Z"
                fill="white"
            />
            <path
                d="M21.25 104.22C21.19 104.22 21.14 104.19 21.11 104.14L20.71 103.48C20.66 103.4 20.69 103.3 20.77 103.25C20.85 103.2 20.95 103.23 21 103.31L21.4 103.97C21.45 104.05 21.42 104.15 21.34 104.2C21.31 104.22 21.28 104.23 21.25 104.22Z"
                fill="white"
            />
            <path
                d="M21.9 103.92C21.84 103.92 21.79 103.89 21.76 103.84L21.36 103.18C21.31 103.1 21.34 103 21.42 102.95C21.5 102.9 21.61 102.93 21.65 103.01L22.05 103.67C22.1 103.75 22.07 103.85 21.99 103.9C21.96 103.92 21.93 103.93 21.9 103.92Z"
                fill="white"
            />
            <path
                d="M22.48 103.67C22.42 103.67 22.37 103.64 22.34 103.59L21.94 102.93C21.89 102.85 21.92 102.75 22 102.7C22.08 102.65 22.19 102.68 22.23 102.76L22.63 103.42C22.68 103.5 22.65 103.6 22.57 103.65C22.54 103.67 22.51 103.68 22.48 103.67Z"
                fill="white"
            />
            <path
                d="M23.03 103.28C22.97 103.28 22.92 103.25 22.89 103.2L22.49 102.54C22.44 102.46 22.47 102.36 22.55 102.31C22.63 102.26 22.74 102.29 22.78 102.37L23.18 103.03C23.23 103.11 23.2 103.21 23.12 103.26C23.09 103.28 23.06 103.29 23.03 103.28Z"
                fill="white"
            />
            <path
                d="M46.11 100.1L46.15 100.34C46.32 101.27 46.04 102.22 45.39 102.92C44.88 103.47 42.39 104 42.39 104C41.91 104.06 41.55 104.43 41.54 104.88C41.52 105.39 41.95 105.82 42.49 105.84L47.04 106.01C48.23 106.05 49.23 105.17 49.26 104.05L49.37 100.15L46.13 100.1H46.11Z"
                fill="#9A9A99"
            />
            <path
                d="M43.75 104.54C43.69 104.54 43.64 104.51 43.61 104.46L43.21 103.8C43.16 103.72 43.19 103.62 43.27 103.57C43.35 103.52 43.45 103.55 43.5 103.63L43.9 104.29C43.95 104.37 43.92 104.47 43.84 104.52C43.81 104.54 43.78 104.55 43.75 104.54Z"
                fill="white"
            />
            <path
                d="M44.41 104.31C44.35 104.31 44.3 104.28 44.27 104.23L43.87 103.57C43.82 103.49 43.85 103.39 43.93 103.34C44.01 103.29 44.12 103.32 44.16 103.4L44.56 104.06C44.61 104.14 44.58 104.24 44.5 104.29C44.47 104.31 44.44 104.32 44.41 104.31Z"
                fill="white"
            />
            <path
                d="M45.12 104.08C45.06 104.08 45.01 104.05 44.98 104L44.58 103.34C44.53 103.26 44.56 103.16 44.64 103.11C44.72 103.06 44.83 103.09 44.87 103.17L45.27 103.83C45.32 103.91 45.29 104.01 45.21 104.06C45.18 104.08 45.15 104.09 45.12 104.08Z"
                fill="white"
            />
            <path
                d="M45.73 103.66C45.67 103.66 45.62 103.63 45.59 103.58L45.19 102.92C45.14 102.84 45.17 102.74 45.25 102.69C45.33 102.64 45.44 102.67 45.48 102.75L45.88 103.41C45.93 103.49 45.9 103.59 45.82 103.64C45.79 103.66 45.76 103.67 45.73 103.66Z"
                fill="white"
            />
            <path
                d="M49.53 96.8501L45.59 96.8301L46.11 100.08L49.35 100.13V100.07L49.53 96.8501Z"
                fill="white"
            />
            <path
                d="M36.59 60.21L30.47 98.67H21.61V53.51H51.66V98.67H42.92L36.59 60.21Z"
                fill="#3E2967"
            />
            <path
                d="M2.11996 44.9201C0.549958 45.3801 -0.350042 47.0301 0.119958 48.6001C0.499958 49.8901 1.67996 50.7201 2.95996 50.7201C3.23996 50.7201 3.51996 50.6801 3.79996 50.6001C4.47996 50.4001 5.13996 50.1801 5.78996 49.9401L3.16996 44.5801C2.82996 44.7001 2.47996 44.8101 2.12996 44.9101L2.11996 44.9201Z"
                fill="#F4D3D3"
            />
            <path
                d="M26.04 21.2099C24.46 20.7799 22.84 21.6999 22.4 23.2799C22.35 23.4499 17.71 39.6199 3.17004 44.5899L5.79004 49.9499C22.78 43.7199 27.89 25.6399 28.11 24.8499C28.54 23.2699 27.61 21.6499 26.04 21.2199V21.2099Z"
                fill="#F4B2C4"
            />
            <path
                d="M51.66 55.14H21.61L21.62 26.8C21.62 21.79 25.68 17.72 30.7 17.72H42.6C47.61 17.72 51.68 21.78 51.68 26.79L51.66 55.14Z"
                fill="#F4B2C4"
            />
            <path
                d="M55.84 53.2299C55.72 54.8599 56.95 56.2799 58.58 56.3999C58.65 56.3999 58.72 56.3999 58.79 56.3999C60.33 56.3999 61.63 55.2099 61.74 53.6499C61.78 53.1399 61.8 52.6299 61.83 52.1299H55.89C55.87 52.4899 55.86 52.8499 55.83 53.2199L55.84 53.2299Z"
                fill="#F4D3D3"
            />
            <path
                d="M46.69 18.6899C45.27 17.8999 43.48 18.4099 42.68 19.8299C41.88 21.2499 42.39 23.0499 43.8 23.8599C44.34 24.1699 56.91 31.5999 55.9 52.1399H61.84C62.91 27.9899 47.37 19.0699 46.7 18.6899H46.69Z"
                fill="#F4B2C4"
            />
            <path d="M34.2 53.3799H34.59V35.9999H34.2V53.3799Z" fill="#EF9AB4" />
            <path
                d="M44.24 49.24H41.59C40.6 49.24 39.79 48.43 39.79 47.44V41.81H46.05V47.44C46.05 48.43 45.24 49.24 44.25 49.24H44.24Z"
                fill="#EF9AB4"
            />
            <path
                d="M30.33 49.1001H27.68C26.69 49.1001 25.88 48.2901 25.88 47.3001V41.6701H32.14V47.3001C32.14 48.2901 31.33 49.1001 30.34 49.1001H30.33Z"
                fill="#EF9AB4"
            />
            <path d="M31.97 17.71L34.26 36.66L40.17 17.71H31.97Z" fill="white" />
            <path d="M40.17 17.75L34.26 36.66L42.89 23.9L40.17 17.75Z" fill="#EF9AB4" />
            <path d="M31.97 17.74L28.4 23.44L34.26 36.69L31.97 17.74Z" fill="#EF9AB4" />
            <path
                d="M38.5 4.59009H28.11V12.7001C28.11 14.5201 29.59 16.0001 31.41 16.0001H32.46C32.97 16.0001 33.39 16.4101 33.39 16.9301V17.9401C33.39 19.3401 34.53 20.4801 35.93 20.4801C37.33 20.4801 38.46 19.3501 38.47 17.9501L38.51 4.59009H38.5Z"
                fill="#FADDDC"
            />
            <path
                d="M31.48 13H30.85C30.29 13 29.83 12.54 29.83 11.98V8.90999C29.83 8.67999 30.02 8.48999 30.25 8.48999C30.48 8.48999 30.67 8.67999 30.67 8.90999V11.57C30.67 11.89 30.93 12.15 31.25 12.15H31.47C31.7 12.15 31.9 12.34 31.9 12.57C31.9 12.8 31.71 12.99 31.47 12.99L31.48 13Z"
                fill="#E0B1BB"
            />
            <path
                d="M32.52 9.03998C32.52 9.34998 32.77 9.59998 33.08 9.59998C33.39 9.59998 33.64 9.34998 33.64 9.03998C33.64 8.72998 33.39 8.47998 33.08 8.47998C32.77 8.47998 32.52 8.72998 32.52 9.03998Z"
                fill="#757570"
            />
            <path
                d="M33.2699 1.34C32.4499 1.34 31.6699 1.03 30.9899 0.56C30.4799 0.21 29.8499 0 29.1799 0C28.1099 0 27.1599 0.53 26.5699 1.34C26.1799 1.87 25.9399 2.53 25.9399 3.24C25.9399 4.48 26.6499 5.54 27.6699 6.09C27.7799 6.15 27.8899 6.2 28.0099 6.25C28.6899 6.53 29.4799 6.69 30.3199 6.69C31.3499 6.69 32.3099 6.45 33.0599 6.06C33.5799 5.79 34.1399 5.61 34.7199 5.61C35.8599 5.61 36.7799 6.53 36.7799 7.67V9.7C36.7799 10.62 37.5199 11.36 38.4399 11.36H38.4699C39.0999 11.36 39.6199 10.85 39.6199 10.21V4.78C39.6199 2.89 38.0799 1.35 36.1899 1.35H33.2599L33.2699 1.34Z"
                fill="#3E2967"
            />
        </g>
        <defs>
            <clipPath id="clip0_9_237">
                <rect width="61.88" height="106.02" fill="white" />
            </clipPath>
        </defs>
    </svg>
