<svg width="110" height="110" viewBox="0 0 110 110" fill="none" xmlns="http://www.w3.org/2000/svg">
<g clip-path="url(#clip0_1204_5975)">
<path d="M61.35 57.81L47.5 59.12L60.58 81.78L68.79 104.46L74.01 103.35L75.3 106.65C76.23 108.64 76.35 109.49 77.89 108.72L81.72 107.22C82.42 106.87 82.31 105.86 81.49 105.61C80.95 105.45 80.12 105.42 79.56 105.39C77.48 105.29 77.27 102.6 77.27 102.6L78.01 102.44C78.01 102.44 73.96 86.34 72.26 80.36C70.97 75.8 61.35 57.82 61.35 57.82V57.81Z" fill="#494946"/>
<path d="M59.4998 58.9L41.5698 59.28L39.7598 79.38L30.7198 97.77L31.9598 98.66C31.6798 99.16 29.9798 101.43 29.5098 101.75C28.8198 102.21 27.9198 103.08 28.7298 104.11L33.6898 107.96C34.4098 108.27 35.1798 107.21 34.8198 106.41C34.5798 105.88 33.7598 104.7 33.4898 104.2C32.9398 103.15 34.9998 100.34 34.9998 100.34L40.5998 103.39L51.4798 82.79L59.4998 58.91V58.9Z" fill="#757570"/>
<path d="M35.7598 56.46C35.7098 58.1 34.3398 59.39 32.6998 59.34C31.3498 59.3 30.2398 58.36 29.9098 57.12C29.8398 56.85 29.8098 56.57 29.8098 56.27C29.8298 55.56 29.8798 54.86 29.9398 54.17L35.8098 55.35C35.7798 55.71 35.7598 56.08 35.7498 56.45L35.7598 56.46Z" fill="#FADDDC"/>
<path d="M52.71 27.21C53.53 28.63 53.05 30.45 51.63 31.27C51.48 31.36 36.96 39.98 35.83 55.37L29.96 54.19C31.68 36.11 47.94 26.54 48.66 26.12C50.08 25.3 51.89 25.79 52.72 27.21H52.71Z" fill="#FADDDC"/>
<path d="M56.8 26.53L47.36 36.33L40 32.25C43.16 28.09 46.21 24.17 49.86 21.62L56.8 26.53Z" fill="black"/>
<path d="M64.7398 60.04H39.3198L43.7698 36C45.3598 23.31 49.6298 20.73 53.1598 20.73H55.9198C57.2898 20.73 58.5998 21.34 59.4398 22.42C60.2098 23.42 60.7898 24.62 61.2498 25.6C61.8298 26.85 62.2598 28.17 62.5298 29.52C65.6998 44.94 64.7498 60.03 64.7498 60.03L64.7398 60.04Z" fill="#1A181E"/>
<path d="M79.2998 47.84C80.9398 47.95 82.1798 49.36 82.0798 51C81.9898 52.35 81.0198 53.43 79.7698 53.71C79.4998 53.77 79.2098 53.8 78.9198 53.78C78.2098 53.73 77.5098 53.66 76.8298 53.57L78.2098 47.74C78.5698 47.78 78.9298 47.81 79.2998 47.84Z" fill="#FADDDC"/>
<path d="M50.6299 29.91C52.0799 29.14 53.8799 29.68 54.6499 31.13C54.7299 31.28 62.8599 46.09 78.1999 47.74L76.8199 53.57C58.7999 51.23 49.7899 34.66 49.3999 33.93C48.6299 32.48 49.1799 30.69 50.6299 29.91Z" fill="#FADDDC"/>
<path d="M46.5 26.38C46.5 26.38 45.32 31.54 48.39 35.76C51.46 39.98 54.72 43.55 54.72 43.55C54.72 43.55 62.08 37.13 62.13 36.84C62.18 36.55 53.54 24.55 53.54 24.55C53.54 24.55 48.03 23.99 46.5 26.38Z" fill="#1A181E"/>
<path d="M49.97 21.57C49.97 21.57 50.07 24.19 53.71 24.19C57.35 24.19 56.93 20.86 56.93 20.86C56.93 20.86 53.19 19.85 49.97 21.57Z" fill="#3C3B42"/>
<path d="M50.0898 6.64997L60.4698 6.15997L60.6298 9.64997L60.8998 15.45C60.9898 17.27 59.5798 18.82 57.7598 18.9L56.7098 18.95C56.1998 18.97 56.0698 19.39 56.0998 19.9V21.13C56.0198 23.92 51.7998 23.94 50.9698 21.74L50.0798 6.65997L50.0898 6.64997Z" fill="#FADDDC"/>
<path d="M60.6 15.63L61.2 15.43C61.73 15.25 62.02 14.68 61.85 14.14L60.88 11.23C60.81 11.01 60.57 10.89 60.34 10.96C60.11 11.03 60 11.27 60.07 11.5L60.91 14.03C61.01 14.33 60.85 14.66 60.54 14.76L60.33 14.83C60.11 14.9 59.99 15.14 60.06 15.37C60.13 15.6 60.37 15.71 60.6 15.64V15.63Z" fill="#E0B1BB"/>
<path d="M58.9399 11.28C58.9499 11.59 58.7199 11.85 58.4099 11.86C58.0999 11.87 57.8399 11.64 57.8299 11.33C57.8199 11.02 58.0499 10.76 58.3599 10.75C58.6699 10.74 58.9299 10.97 58.9399 11.28Z" fill="#757570"/>
<path d="M52.3285 11.3757C52.3034 10.8461 51.8538 10.437 51.3242 10.4621C50.7946 10.4872 50.3856 10.9368 50.4106 11.4664L50.5094 13.5541C50.5345 14.0837 50.9842 14.4927 51.5138 14.4676C52.0434 14.4426 52.4524 13.9929 52.4273 13.4633L52.3285 11.3757Z" fill="#FADDDC"/>
<path d="M55.0298 3.52997C55.8498 3.48997 56.6098 3.13997 57.2698 2.64997C57.7698 2.26997 58.3798 2.03997 59.0498 2.00997C60.1198 1.95997 61.0898 2.43997 61.7198 3.21997C62.1298 3.73997 62.3998 4.37997 62.4398 5.08997C62.4998 6.32997 61.8398 7.41997 60.8498 8.00997C60.7398 8.06997 60.6398 8.12997 60.5198 8.18997C59.8598 8.49997 59.0798 8.69997 58.2298 8.73997C57.1998 8.78997 56.1298 8.72997 55.3098 8.46997C53.8798 8.00997 52.9898 9.30997 53.0498 9.96997L53.1698 11.97C52.9498 13.01 52.5698 13.55 52.0598 13.64C51.4098 13.76 50.4998 13.31 50.5298 13.97L50.6398 16.59C50.0098 16.62 49.1398 13.34 49.1098 12.7L48.4998 9.42997V8.27997C48.4098 6.38997 50.0698 3.86997 51.9598 3.77997L55.0398 3.55997L55.0298 3.52997Z" fill="#3E2967"/>
<path d="M60.63 30.2H60.7V30.86C60.7 31.12 60.63 31.2 60.53 31.2C60.5 31.2 60.47 31.19 60.45 31.18V31.08C60.45 31.08 60.5 31.1 60.52 31.1C60.58 31.1 60.62 31.05 60.62 30.86V30.21L60.63 30.2Z" fill="white"/>
<path d="M60.8598 30.85C60.8598 31.02 60.9198 31.09 60.9898 31.09C61.0398 31.09 61.0698 31.07 61.0998 31.05V31.14C61.0998 31.14 61.0398 31.19 60.9798 31.19C60.8598 31.19 60.7898 31.05 60.7898 30.83C60.7898 30.61 60.8598 30.45 60.9698 30.45C61.0998 30.45 61.1298 30.65 61.1298 30.78C61.1298 30.81 61.1298 30.83 61.1298 30.84H60.8598V30.85ZM61.0698 30.76C61.0698 30.68 61.0498 30.55 60.9698 30.55C60.8998 30.55 60.8698 30.67 60.8598 30.76H61.0698Z" fill="white"/>
<path d="M61.22 30.66C61.22 30.59 61.22 30.53 61.22 30.47H61.28V30.59C61.3 30.52 61.34 30.46 61.41 30.46C61.46 30.46 61.55 30.52 61.55 30.76V31.18H61.48V30.77C61.48 30.66 61.46 30.56 61.39 30.56C61.34 30.56 61.31 30.62 61.29 30.69C61.29 30.71 61.29 30.73 61.29 30.75V31.18H61.22V30.67V30.66Z" fill="white"/>
<path d="M61.6699 30.66C61.6699 30.59 61.6699 30.53 61.6699 30.47H61.7299V30.59C61.7499 30.52 61.7899 30.46 61.8599 30.46C61.9099 30.46 61.9999 30.52 61.9999 30.76V31.18H61.9299V30.77C61.9299 30.66 61.9099 30.56 61.8399 30.56C61.7899 30.56 61.7599 30.62 61.7399 30.69C61.7399 30.71 61.7399 30.73 61.7399 30.75V31.18H61.6699V30.67V30.66Z" fill="white"/>
<path d="M62.1599 30.35C62.1599 30.35 62.1199 30.31 62.1199 30.27C62.1199 30.22 62.1399 30.19 62.1599 30.19C62.1799 30.19 62.1999 30.22 62.1999 30.27C62.1999 30.31 62.1799 30.35 62.1599 30.35ZM62.1199 31.18V30.47H62.1899V31.18H62.1199Z" fill="white"/>
<path d="M62.32 31.18V30.57H62.27V30.47H62.32V30.44C62.32 30.34 62.33 30.25 62.37 30.19C62.4 30.14 62.43 30.12 62.46 30.12C62.49 30.12 62.51 30.13 62.52 30.14V30.24C62.52 30.24 62.49 30.22 62.46 30.22C62.4 30.22 62.38 30.32 62.38 30.42V30.46H62.47V30.56H62.38V31.17H62.31L62.32 31.18Z" fill="white"/>
<path d="M62.58 30.85C62.58 31.02 62.64 31.09 62.71 31.09C62.76 31.09 62.79 31.07 62.82 31.05V31.14C62.82 31.14 62.76 31.19 62.7 31.19C62.58 31.19 62.51 31.05 62.51 30.83C62.51 30.61 62.58 30.45 62.69 30.45C62.82 30.45 62.85 30.65 62.85 30.78C62.85 30.81 62.85 30.83 62.85 30.84H62.58V30.85ZM62.79 30.76C62.79 30.68 62.77 30.55 62.69 30.55C62.62 30.55 62.59 30.67 62.58 30.76H62.79Z" fill="white"/>
<path d="M62.95 30.69C62.95 30.61 62.95 30.54 62.95 30.47H63.01V30.61C63.03 30.52 63.07 30.46 63.12 30.46C63.12 30.46 63.13 30.46 63.14 30.46V30.58C63.14 30.58 63.13 30.58 63.12 30.58C63.07 30.58 63.03 30.65 63.02 30.74C63.02 30.76 63.02 30.78 63.02 30.8V31.18H62.95V30.69Z" fill="white"/>
<path d="M52.4598 12.09C52.4598 11.5598 52.03 11.13 51.4998 11.13C50.9696 11.13 50.5398 11.5598 50.5398 12.09V14.18C50.5398 14.7102 50.9696 15.14 51.4998 15.14C52.03 15.14 52.4598 14.7102 52.4598 14.18V12.09Z" fill="#FADDDC"/>
<path d="M31.9599 98.66L34.9999 100.33L34.2099 101.57L31.1899 99.73L31.9599 98.66Z" fill="white"/>
<path d="M74.01 103.35L77.38 102.62L77.71 103.77L74.47 104.7L74.01 103.35Z" fill="white"/>
<path d="M78.1698 106.32C78.1698 106.32 78.1098 106.32 78.0798 106.3C77.9798 106.25 77.9398 106.13 77.9898 106.03L78.4998 105.02C78.5498 104.92 78.6698 104.88 78.7698 104.93C78.8698 104.98 78.9098 105.1 78.8598 105.2L78.3498 106.21C78.3098 106.28 78.2398 106.32 78.1698 106.32Z" fill="white"/>
<path d="M78.98 106.55C78.98 106.55 78.92 106.55 78.9 106.53C78.8 106.48 78.76 106.36 78.8 106.26L79.26 105.27C79.31 105.17 79.43 105.13 79.53 105.17C79.63 105.22 79.67 105.34 79.63 105.44L79.17 106.43C79.14 106.5 79.06 106.55 78.99 106.55H78.98Z" fill="white"/>
<path d="M79.8599 106.62C79.8599 106.62 79.7999 106.62 79.7799 106.6C79.6799 106.55 79.6399 106.43 79.6799 106.33L80.1399 105.34C80.1899 105.24 80.3099 105.2 80.4099 105.24C80.5099 105.29 80.5499 105.41 80.5099 105.51L80.0499 106.5C80.0199 106.57 79.9399 106.62 79.8699 106.62H79.8599Z" fill="white"/>
<path d="M32.2199 104.32C32.2199 104.32 32.1899 104.27 32.1799 104.24C32.1599 104.13 32.2299 104.03 32.3399 104L33.4499 103.78C33.5599 103.76 33.6599 103.83 33.6899 103.94C33.7099 104.05 33.6399 104.15 33.5299 104.18L32.4199 104.4C32.3399 104.42 32.2699 104.38 32.2199 104.33V104.32Z" fill="white"/>
<path d="M32.5299 105.1C32.5299 105.1 32.4999 105.05 32.4899 105.02C32.4699 104.91 32.5299 104.81 32.6399 104.78L33.6999 104.54C33.8099 104.51 33.9199 104.58 33.9399 104.69C33.9599 104.8 33.8999 104.9 33.7899 104.93L32.7299 105.17C32.6499 105.19 32.5699 105.16 32.5299 105.1Z" fill="white"/>
<path d="M33.0199 105.84C33.0199 105.84 32.9899 105.79 32.9799 105.76C32.9599 105.65 33.0199 105.55 33.1299 105.52L34.1899 105.28C34.2999 105.25 34.3999 105.32 34.4299 105.43C34.4499 105.54 34.3899 105.64 34.2799 105.67L33.2199 105.91C33.1399 105.93 33.0599 105.9 33.0199 105.84Z" fill="white"/>
</g>
<defs>
<clipPath id="clip0_1204_5975">
<rect width="53.78" height="106.99" fill="white" transform="translate(28.3999 2)"/>
</clipPath>
</defs>
</svg>
