<svg width="110" height="110" viewBox="0 0 110 110" fill="none" xmlns="http://www.w3.org/2000/svg">
<g clip-path="url(#clip0_1203_5086)">
<path d="M59.5201 58.9L47.55 58.44L40.96 80.55L30.74 97.78L31.98 98.67C31.7 99.17 30 101.44 29.53 101.76C28.84 102.22 27.94 103.09 28.75 104.12L33.71 107.97C34.43 108.28 35.2 107.22 34.84 106.42C34.6 105.89 33.78 104.71 33.51 104.21C32.96 103.16 35.02 100.35 35.02 100.35L40.62 103.4L51.5 82.8L59.5201 58.92V58.9Z" fill="#494946"/>
<path d="M61.3699 57.81L41.45 58.43L60.59 81.77L68.7999 104.45L74.02 103.34L75.31 106.64C76.24 108.63 76.36 109.48 77.9 108.71L81.7299 107.21C82.4299 106.86 82.32 105.85 81.5 105.6C80.96 105.44 80.13 105.41 79.57 105.38C77.49 105.28 77.2799 102.59 77.2799 102.59L78.02 102.43C78.02 102.43 73.97 86.33 72.27 80.35C70.98 75.79 61.36 57.81 61.36 57.81H61.3699Z" fill="#757570"/>
<path d="M84.3699 41.66C85.9899 41.91 87.1099 43.43 86.8599 45.05C86.6499 46.38 85.5899 47.37 84.3199 47.54C84.0399 47.58 83.7599 47.58 83.4699 47.54C82.7699 47.43 82.0799 47.3 81.3999 47.15L83.2899 41.47C83.6499 41.54 84.0099 41.61 84.3699 41.66Z" fill="#FADDDC"/>
<path d="M57.4 21.26C58.91 20.62 60.65 21.32 61.3 22.83C61.37 22.99 68.15 38.46 83.29 41.46L81.4 47.14C63.66 43.22 56.15 25.91 55.83 25.15C55.19 23.64 55.9 21.9 57.41 21.26H57.4Z" fill="#FADDDC"/>
<path d="M60.4299 21.79L69.0099 32.35L62.9199 40.36L58.4199 28.52L60.4299 21.79Z" fill="black"/>
<path d="M64.7601 60.04H39.3401L43.7901 36C45.3801 23.31 49.6501 20.73 53.1801 20.73H57.5301C59.0301 20.73 60.4501 21.49 61.2301 22.77C66.9001 32.03 64.7701 60.05 64.7701 60.05L64.7601 60.04Z" fill="#1A181E"/>
<path d="M30.94 53.8C30.79 55.44 29.34 56.64 27.7 56.48C26.36 56.35 25.31 55.35 25.06 54.09C25.01 53.82 24.99 53.53 25.02 53.24C25.09 52.53 25.18 51.84 25.29 51.16L31.07 52.71C31.02 53.07 30.98 53.43 30.94 53.8Z" fill="#FADDDC"/>
<path d="M49.7 25.67C50.43 27.14 49.83 28.92 48.36 29.66C48.2 29.74 33.16 37.42 31.07 52.71L25.29 51.16C28.15 33.22 44.98 24.7 45.73 24.33C47.2 23.6 48.98 24.2 49.71 25.67H49.7Z" fill="#FADDDC"/>
<path d="M53.35 21.64C53.35 21.64 48.22 20.31 43.92 23.25C39.62 26.19 35.95 29.35 35.95 29.35C35.95 29.35 42.15 36.89 42.44 36.96C42.73 37.03 54.9799 28.73 54.9799 28.73C54.9799 28.73 55.7 23.24 53.35 21.64Z" fill="#1A181E"/>
<path d="M49.8799 21.27C49.8799 21.27 50.0799 24.18 53.7199 24.18C57.3599 24.18 56.9499 20.74 56.9499 20.74C56.9499 20.74 52.7299 20.33 49.8799 21.27Z" fill="#3C3B42"/>
<path d="M50.1101 6.64997L60.4901 6.15997L60.6501 9.64997L60.9201 15.45C61.0101 17.27 59.6001 18.82 57.7801 18.9L56.7301 18.95C56.2201 18.97 56.0901 19.39 56.1201 19.9V21.13C56.0401 23.92 51.8201 23.94 50.9901 21.74L50.1001 6.65997L50.1101 6.64997Z" fill="#FADDDC"/>
<path d="M60.62 15.63L61.22 15.43C61.75 15.25 62.04 14.68 61.87 14.14L60.9 11.23C60.83 11.01 60.59 10.89 60.36 10.96C60.13 11.03 60.02 11.27 60.09 11.5L60.93 14.03C61.03 14.33 60.87 14.66 60.56 14.76L60.35 14.83C60.13 14.9 60.01 15.14 60.08 15.37C60.15 15.6 60.39 15.71 60.62 15.64V15.63Z" fill="#E0B1BB"/>
<path d="M58.9599 11.28C58.9699 11.59 58.7399 11.85 58.4299 11.86C58.1199 11.87 57.8599 11.64 57.8499 11.33C57.8399 11.02 58.0699 10.76 58.3799 10.75C58.6899 10.74 58.9499 10.97 58.9599 11.28Z" fill="#757570"/>
<path d="M52.3548 11.3739C52.3298 10.8443 51.8801 10.4353 51.3505 10.4604C50.8209 10.4855 50.4119 10.9351 50.437 11.4647L50.5358 13.5524C50.5609 14.082 51.0105 14.491 51.5401 14.4659C52.0697 14.4409 52.4787 13.9912 52.4537 13.4616L52.3548 11.3739Z" fill="#FADDDC"/>
<path d="M55.0501 3.52997C55.8701 3.48997 56.6301 3.13997 57.2901 2.64997C57.7901 2.26997 58.4001 2.03997 59.0701 2.00997C60.1401 1.95997 61.1101 2.43997 61.7401 3.21997C62.1501 3.73997 62.4201 4.37997 62.4601 5.08997C62.5201 6.32997 61.8601 7.41997 60.8701 8.00997C60.7601 8.06997 60.6601 8.12997 60.5401 8.18997C59.8801 8.49997 59.1001 8.69997 58.2501 8.73997C57.2201 8.78997 56.1501 8.72997 55.3301 8.46997C53.9001 8.00997 53.0101 9.30997 53.0701 9.96997L53.1901 11.97C52.9701 13.01 52.5901 13.55 52.0801 13.64C51.4301 13.76 50.5201 13.31 50.5501 13.97L50.6601 16.59C50.0301 16.62 49.1601 13.34 49.1301 12.7L48.5201 9.42997V8.27997C48.4301 6.38997 50.0901 3.86997 51.9801 3.77997L55.0601 3.55997L55.0501 3.52997Z" fill="#3E2967"/>
<path d="M60.65 30.2H60.72V30.86C60.72 31.12 60.65 31.2 60.55 31.2C60.52 31.2 60.49 31.19 60.47 31.18V31.08C60.47 31.08 60.52 31.1 60.54 31.1C60.6 31.1 60.64 31.05 60.64 30.86V30.21L60.65 30.2Z" fill="white"/>
<path d="M60.8801 30.85C60.8801 31.02 60.9401 31.09 61.0101 31.09C61.0601 31.09 61.0901 31.07 61.1201 31.05V31.14C61.1201 31.14 61.0601 31.19 61.0001 31.19C60.8801 31.19 60.8101 31.05 60.8101 30.83C60.8101 30.61 60.8801 30.45 60.9901 30.45C61.1201 30.45 61.1501 30.65 61.1501 30.78C61.1501 30.81 61.1501 30.83 61.1501 30.84H60.8801V30.85ZM61.0901 30.76C61.0901 30.68 61.0701 30.55 60.9901 30.55C60.9201 30.55 60.8901 30.67 60.8801 30.76H61.0901Z" fill="white"/>
<path d="M61.24 30.66C61.24 30.59 61.24 30.53 61.24 30.47H61.3V30.59C61.32 30.52 61.36 30.46 61.43 30.46C61.48 30.46 61.57 30.52 61.57 30.76V31.18H61.5V30.77C61.5 30.66 61.48 30.56 61.41 30.56C61.36 30.56 61.33 30.62 61.31 30.69C61.31 30.71 61.31 30.73 61.31 30.75V31.18H61.24V30.67V30.66Z" fill="white"/>
<path d="M61.6899 30.66C61.6899 30.59 61.6899 30.53 61.6899 30.47H61.7499V30.59C61.7699 30.52 61.8099 30.46 61.8799 30.46C61.9299 30.46 62.0199 30.52 62.0199 30.76V31.18H61.9499V30.77C61.9499 30.66 61.9299 30.56 61.8599 30.56C61.8099 30.56 61.7799 30.62 61.7599 30.69C61.7599 30.71 61.7599 30.73 61.7599 30.75V31.18H61.6899V30.67V30.66Z" fill="white"/>
<path d="M62.1799 30.35C62.1799 30.35 62.1399 30.31 62.1399 30.27C62.1399 30.22 62.1599 30.19 62.1799 30.19C62.1999 30.19 62.2199 30.22 62.2199 30.27C62.2199 30.31 62.1999 30.35 62.1799 30.35ZM62.1399 31.18V30.47H62.2099V31.18H62.1399Z" fill="white"/>
<path d="M62.34 31.18V30.57H62.29V30.47H62.34V30.44C62.34 30.34 62.35 30.25 62.39 30.19C62.42 30.14 62.45 30.12 62.48 30.12C62.51 30.12 62.53 30.13 62.54 30.14V30.24C62.54 30.24 62.51 30.22 62.48 30.22C62.42 30.22 62.4 30.32 62.4 30.42V30.46H62.49V30.56H62.4V31.17H62.33L62.34 31.18Z" fill="white"/>
<path d="M62.6 30.85C62.6 31.02 62.66 31.09 62.73 31.09C62.78 31.09 62.81 31.07 62.84 31.05V31.14C62.84 31.14 62.78 31.19 62.72 31.19C62.6 31.19 62.53 31.05 62.53 30.83C62.53 30.61 62.6 30.45 62.71 30.45C62.84 30.45 62.87 30.65 62.87 30.78C62.87 30.81 62.87 30.83 62.87 30.84H62.6V30.85ZM62.81 30.76C62.81 30.68 62.79 30.55 62.71 30.55C62.64 30.55 62.61 30.67 62.6 30.76H62.81Z" fill="white"/>
<path d="M62.97 30.69C62.97 30.61 62.97 30.54 62.97 30.47H63.03V30.61C63.05 30.52 63.09 30.46 63.14 30.46C63.14 30.46 63.15 30.46 63.16 30.46V30.58C63.16 30.58 63.15 30.58 63.14 30.58C63.09 30.58 63.05 30.65 63.04 30.74C63.04 30.76 63.04 30.78 63.04 30.8V31.18H62.97V30.69Z" fill="white"/>
<path d="M52.4801 12.09C52.4801 11.5598 52.0503 11.13 51.5201 11.13C50.9899 11.13 50.5601 11.5598 50.5601 12.09V14.18C50.5601 14.7102 50.9899 15.14 51.5201 15.14C52.0503 15.14 52.4801 14.7102 52.4801 14.18V12.09Z" fill="#FADDDC"/>
<path d="M31.98 98.66L35.02 100.33L34.23 101.57L31.21 99.73L31.98 98.66Z" fill="white"/>
<path d="M74.03 103.35L77.4 102.62L77.73 103.77L74.49 104.7L74.03 103.35Z" fill="white"/>
<path d="M78.1901 106.32C78.1901 106.32 78.1301 106.32 78.1001 106.3C78.0001 106.25 77.9601 106.13 78.0101 106.03L78.5201 105.02C78.5701 104.92 78.6901 104.88 78.7901 104.93C78.8901 104.98 78.9301 105.1 78.8801 105.2L78.3701 106.21C78.3301 106.28 78.2601 106.32 78.1901 106.32Z" fill="white"/>
<path d="M79 106.55C79 106.55 78.94 106.55 78.92 106.53C78.82 106.48 78.78 106.36 78.82 106.26L79.28 105.27C79.33 105.17 79.45 105.13 79.55 105.17C79.65 105.22 79.69 105.34 79.65 105.44L79.19 106.43C79.16 106.5 79.08 106.55 79.01 106.55H79Z" fill="white"/>
<path d="M79.8899 106.62C79.8899 106.62 79.8299 106.62 79.8099 106.6C79.7099 106.55 79.6699 106.43 79.7099 106.33L80.1699 105.34C80.2199 105.24 80.3399 105.2 80.4399 105.24C80.5399 105.29 80.5799 105.41 80.5399 105.51L80.0799 106.5C80.0499 106.57 79.9699 106.62 79.8999 106.62H79.8899Z" fill="white"/>
<path d="M32.2399 104.32C32.2399 104.32 32.2099 104.27 32.1999 104.24C32.1799 104.13 32.2499 104.03 32.3599 104L33.4699 103.78C33.5799 103.76 33.6799 103.83 33.7099 103.94C33.7299 104.05 33.6599 104.15 33.5499 104.18L32.4399 104.4C32.3599 104.42 32.2899 104.38 32.2399 104.33V104.32Z" fill="white"/>
<path d="M32.5499 105.1C32.5499 105.1 32.5199 105.05 32.5099 105.02C32.4899 104.91 32.5499 104.81 32.6599 104.78L33.7199 104.54C33.8299 104.51 33.9399 104.58 33.9599 104.69C33.9799 104.8 33.9199 104.9 33.8099 104.93L32.7499 105.17C32.6699 105.19 32.5899 105.16 32.5499 105.1Z" fill="white"/>
<path d="M33.0399 105.84C33.0399 105.84 33.0099 105.79 32.9999 105.76C32.9799 105.65 33.0399 105.55 33.1499 105.52L34.2099 105.28C34.3199 105.25 34.4199 105.32 34.4499 105.43C34.4699 105.54 34.4099 105.64 34.2999 105.67L33.2399 105.91C33.1599 105.93 33.0799 105.9 33.0399 105.84Z" fill="white"/>
</g>
<defs>
<clipPath id="clip0_1203_5086">
<rect width="61.89" height="106.99" fill="white" transform="translate(25 2)"/>
</clipPath>
</defs>
</svg>
