
    <svg
        width="61"
        height="109"
        viewBox="0 0 61 109"
        fill="none"
        xmlns="http://www.w3.org/2000/svg"
    >
        <g clip-path="url(#clip0_9_239)">
            <path
                d="M47.3901 104.68L47.4801 104.82C47.9401 105.55 49.2301 106.1 50.0601 106.43L51.7201 107.09C52.0301 107.21 52.2301 107.49 52.2401 107.8C52.2601 108.25 51.8901 108.62 51.4101 108.64L46.5101 108.82C45.1601 108.87 44.0001 107.95 43.8301 106.69L43.6801 105.6C43.5801 104.87 43.4501 104.14 43.3101 103.41L46.8101 103.35C46.9401 103.81 47.1201 104.26 47.3801 104.67L47.3901 104.68Z"
                fill="#9A9A99"
            />
            <path
                d="M46.64 102.24C46.65 102.62 46.72 102.99 46.81 103.35L43.31 103.4C43.21 102.85 43.1 102.29 42.97 101.75L42.61 100.06L46.55 99.9099L46.64 102.23V102.24Z"
                fill="white"
            />
            <path
                d="M49.52 107.21C49.58 107.21 49.63 107.18 49.66 107.13L50.06 106.47C50.11 106.39 50.08 106.29 50 106.24C49.92 106.19 49.82 106.22 49.77 106.3L49.37 106.96C49.32 107.04 49.35 107.14 49.43 107.19C49.46 107.21 49.49 107.22 49.52 107.21Z"
                fill="white"
            />
            <path
                d="M48.88 106.91C48.94 106.91 48.99 106.88 49.02 106.83L49.42 106.17C49.47 106.09 49.44 105.99 49.36 105.94C49.28 105.89 49.17 105.92 49.13 106L48.73 106.66C48.68 106.74 48.71 106.84 48.79 106.89C48.82 106.91 48.85 106.92 48.88 106.91Z"
                fill="white"
            />
            <path
                d="M48.29 106.66C48.35 106.66 48.4 106.63 48.43 106.58L48.83 105.92C48.88 105.84 48.85 105.74 48.77 105.69C48.69 105.64 48.58 105.67 48.54 105.75L48.14 106.41C48.09 106.49 48.12 106.59 48.2 106.64C48.23 106.66 48.26 106.67 48.29 106.66Z"
                fill="white"
            />
            <path
                d="M47.74 106.27C47.8 106.27 47.85 106.24 47.88 106.19L48.28 105.53C48.33 105.45 48.3 105.35 48.22 105.3C48.14 105.25 48.03 105.28 47.99 105.36L47.59 106.02C47.54 106.1 47.57 106.2 47.65 106.25C47.68 106.27 47.71 106.28 47.74 106.27Z"
                fill="white"
            />
            <path
                d="M5.10998 97.79L4.94998 97.96C4.28998 98.63 3.98998 99.58 4.13998 100.53C4.25998 101.27 6.02998 103.1 6.02998 103.1C6.38998 103.41 6.47998 103.92 6.24998 104.31C5.97998 104.74 5.38998 104.87 4.92998 104.58L1.05998 102.18C0.0499821 101.55 -0.290018 100.27 0.309982 99.32L2.39998 96.02L5.11998 97.79H5.10998Z"
                fill="#9A9A99"
            />
            <path
                d="M4.58997 102.79C4.58997 102.79 4.69997 102.83 4.74997 102.79L5.44997 102.46C5.52997 102.42 5.56997 102.32 5.52997 102.24C5.48997 102.15 5.38997 102.12 5.30997 102.16L4.60997 102.49C4.52997 102.53 4.48997 102.63 4.52997 102.71C4.53997 102.74 4.56997 102.77 4.58997 102.78V102.79Z"
                fill="white"
            />
            <path
                d="M4.17005 102.23C4.17005 102.23 4.28005 102.27 4.33005 102.23L5.03005 101.9C5.11005 101.86 5.15005 101.76 5.11005 101.68C5.07005 101.6 4.97005 101.56 4.89005 101.6L4.19005 101.93C4.11005 101.97 4.07005 102.07 4.11005 102.15C4.12005 102.18 4.15005 102.21 4.17005 102.22V102.23Z"
                fill="white"
            />
            <path
                d="M3.70997 101.65C3.70997 101.65 3.81997 101.69 3.86997 101.65L4.56997 101.32C4.64997 101.28 4.68997 101.18 4.64997 101.1C4.60997 101.01 4.50997 100.98 4.42997 101.02L3.72997 101.35C3.64997 101.39 3.60997 101.49 3.64997 101.57C3.65997 101.6 3.68997 101.63 3.70997 101.64V101.65Z"
                fill="white"
            />
            <path
                d="M3.42994 100.96C3.42994 100.96 3.53994 101 3.58994 100.96L4.28994 100.63C4.36994 100.59 4.40994 100.49 4.36994 100.41C4.32994 100.32 4.22994 100.29 4.14994 100.33L3.44994 100.66C3.36994 100.7 3.32994 100.8 3.36994 100.88C3.37994 100.91 3.40994 100.94 3.42994 100.95V100.96Z"
                fill="white"
            />
            <path
                d="M4.08002 93.1799L7.36002 95.3599L5.12002 97.7699L2.40002 96.0099L2.43002 95.9499L4.08002 93.1799Z"
                fill="white"
            />
            <path
                d="M58.54 43.01C60.13 43.42 61.09 45.04 60.68 46.63C60.34 47.94 59.19 48.82 57.91 48.86C57.63 48.86 57.35 48.84 57.06 48.77C56.37 48.59 55.7 48.39 55.04 48.18L57.48 42.71C57.83 42.82 58.18 42.92 58.54 43.01Z"
                fill="#FADDDC"
            />
            <path
                d="M33.71 20.0599C35.28 19.5699 36.94 20.4399 37.44 22.0099C37.49 22.1799 42.72 38.2399 57.49 42.7099L55.05 48.1799C37.78 42.5299 32.01 24.5699 31.77 23.7799C31.28 22.2099 32.16 20.5499 33.72 20.0599H33.71Z"
                fill="#EF9AB4"
            />
            <path
                d="M34.22 54.3101H19.38L15.03 76.9501L2.22998 93.3401L9.79998 97.3301C14.76 91.1901 23.49 81.1901 23.49 81.1901L34.22 54.3201V54.3101Z"
                fill="#291B4C"
            />
            <path
                d="M38.73 54.1699L22.76 54.3099L34.95 78.9299L40.16 100.58L45.01 100.51C45.01 100.51 49.76 100.21 49.56 98.9299C48.34 91.2699 46.77 84.8099 45.29 77.0399C44.45 72.5999 38.73 54.1599 38.73 54.1599V54.1699Z"
                fill="#3E2C6D"
            />
            <path
                d="M41.89 57.0999L13.4 56.5899C13.4 56.5899 14.45 18.7899 28.63 18.8399H32.98C34.48 18.8399 35.9 19.5999 36.68 20.8799C42.35 30.1399 41.89 57.0999 41.89 57.0999Z"
                fill="#F4B2C4"
            />
            <path
                d="M7.53006 51.5799C7.45006 53.2199 6.05006 54.4799 4.41006 54.3999C3.06006 54.3299 1.97006 53.3799 1.67006 52.1299C1.60006 51.8599 1.58006 51.5699 1.59006 51.2799C1.63006 50.5699 1.69006 49.8699 1.76006 49.1899L7.61006 50.4799C7.58006 50.8399 7.55006 51.2099 7.53006 51.5799Z"
                fill="#FADDDC"
            />
            <path
                d="M28.13 21.1999C28.93 22.6399 28.4 24.4399 26.97 25.2399C26.82 25.3199 9.03001 35.1199 7.61001 50.4799L1.76001 49.1899C3.82001 31.1399 23.37 20.4299 24.1 20.0299C25.54 19.2399 27.34 19.7599 28.13 21.1999Z"
                fill="#F4B2C4"
            />
            <path
                d="M27.34 19C29.47 18.5 31.84 18.46 34.52 19L33.82 37.24L27.34 19Z"
                fill="white"
            />
            <path
                d="M28.4499 4.77002H38.8399V8.26002V14.07C38.8399 15.89 37.3599 17.37 35.5399 17.37H34.4899C33.9799 17.37 33.5599 17.78 33.5599 18.3C33.5599 19.87 31.8799 20.87 30.4999 20.12L28.6499 19.12L28.4399 4.78002L28.4499 4.77002Z"
                fill="#FADDDC"
            />
            <path
                d="M38.53 14.24L39.13 14.07C39.67 13.92 39.99 13.35 39.84 12.81L39.01 9.84997C38.95 9.61997 38.71 9.48997 38.49 9.55997C38.27 9.62997 38.13 9.85996 38.2 10.08L38.92 12.64C39.01 12.95 38.83 13.27 38.52 13.35L38.31 13.41C38.08 13.47 37.95 13.71 38.02 13.93C38.09 14.15 38.32 14.29 38.54 14.22L38.53 14.24Z"
                fill="#E0B1BB"
            />
            <path
                d="M37.07 9.81C37.07 10.12 36.8199 10.37 36.5099 10.37C36.1999 10.37 35.95 10.12 35.95 9.81C35.95 9.5 36.1999 9.25 36.5099 9.25C36.8199 9.25 37.07 9.5 37.07 9.81Z"
                fill="#757570"
            />
            <path d="M27.34 19L33.82 37.24L25.79 26.03L27.34 19Z" fill="#EF9AB4" />
            <path d="M34.5199 19L33.8199 37.79L36.5699 25.16L34.5199 19Z" fill="#EF9AB4" />
            <path
                d="M34.0238 37.791L33.6239 37.8005L34.0191 54.3258L34.419 54.3162L34.0238 37.791Z"
                fill="#EF9AB4"
            />
            <path
                d="M28.15 48.8899H25.5C24.51 48.8899 23.7 48.0799 23.7 47.0899V41.4599H29.96V47.0899C29.96 48.0799 29.15 48.8899 28.16 48.8899H28.15Z"
                fill="#EF9AB4"
            />
            <path
                d="M39.34 49.1899C38.35 49.1899 37.54 48.3799 37.54 47.3899V41.7599H41.14V47.3899C41.14 48.3799 40.33 49.1899 39.34 49.1899Z"
                fill="#EF9AB4"
            />
            <path
                d="M30.46 9.58988C30.46 9.05969 30.0302 8.62988 29.5 8.62988C28.9698 8.62988 28.54 9.05969 28.54 9.58988V11.6799C28.54 12.2101 28.9698 12.6399 29.5 12.6399C30.0302 12.6399 30.46 12.2101 30.46 11.6799V9.58988Z"
                fill="#FADDDC"
            />
            <path
                d="M33.53 1.34C34.35 1.34 35.13 1.03 35.81 0.56C36.33 0.21 36.95 0 37.62 0C38.69 0 39.64 0.53 40.23 1.34C40.62 1.87 40.86 2.53 40.86 3.24C40.86 4.48 40.15 5.54 39.13 6.09C39.02 6.15 38.91 6.2 38.79 6.25C38.11 6.53 37.32 6.69 36.48 6.69C35.45 6.69 34.86 6.45 34.1 6.06C33.58 5.79 32.66 5.61 32.08 5.61H32.44C31.3 5.61 30.88 6.53 30.88 7.67V8.79C30.43 10.52 29.47 10.17 28.55 10.17L28.52 14.16C27.89 14.16 27.18 10.84 27.18 10.2L26.75 5.6V4.77C26.75 2.88 28.29 1.34 30.18 1.34H33.53Z"
                fill="#3E2967"
            />
        </g>
        <defs>
            <clipPath id="clip0_9_239">
                <rect width="60.77" height="108.81" fill="white" />
            </clipPath>
        </defs>
    </svg>
