<svg width="56" height="102" viewBox="0 0 56 102" fill="none" xmlns="http://www.w3.org/2000/svg">
<g clip-path="url(#clip0_9_400)">
<path d="M2.23003 41.91C0.64003 42.32 -0.31997 43.94 0.0900299 45.53C0.43003 46.84 1.58003 47.72 2.86003 47.76C3.14003 47.76 3.42003 47.74 3.71003 47.67C4.40003 47.49 5.07003 47.29 5.73003 47.08L3.29003 41.61C2.94003 41.72 2.59003 41.82 2.23003 41.91Z" fill="#FADDDC"/>
<path d="M27.06 18.96C25.49 18.47 23.83 19.34 23.33 20.91C23.28 21.08 18.05 37.14 3.28003 41.61L5.72003 47.08C22.99 41.43 28.76 23.47 29 22.68C29.49 21.11 28.61 19.45 27.05 18.96H27.06Z" fill="#9A9A99"/>
<path d="M26.55 53.21H40.69L44.2401 73.65L55.34 90.16L53.66 91.89C53.92 92.36 54.3701 93.13 54.8301 93.43C55.5101 93.88 56.3701 94.7 55.5201 95.61L50.41 98.94C49.68 99.19 48.95 98.2 49.35 97.49C49.61 97.02 50.48 95.97 50.76 95.52C51.35 94.58 50.73 93.84 50.05 92.77C45.99 86.41 36.3 76.56 36.3 76.56L26.56 53.21H26.55Z" fill="#291B4C"/>
<path d="M22.0399 53.0699L38.0099 53.2099L23.7199 76.6099L17.7199 97.4799L15.7499 97.4999L15.0199 99.1899C14.2899 101.08 14.2499 101.86 12.6399 101.3L8.67993 100.28C7.94993 100.02 7.95993 99.09 8.74993 98.7999C9.26993 98.5999 10.0999 98.4999 10.6499 98.4299C12.7099 98.1499 12.2899 96.8599 12.4899 95.6299C13.7099 88.2799 13.9899 82.4499 15.4699 74.9999C16.3099 70.7399 22.0299 53.0699 22.0299 53.0699H22.0399Z" fill="#3E2C6D"/>
<path d="M19.85 53.6L43.24 53.36L40.77 33.24C44.78 32.47 43.44 22.05 32.14 17.74H27.79C26.29 17.74 24.87 18.5 24.09 19.78C18.42 29.04 19.85 53.6 19.85 53.6Z" fill="#9A9A99"/>
<path d="M46.7999 54.1C46.5799 55.73 47.7299 57.22 49.3599 57.44C50.6999 57.62 51.9499 56.88 52.4699 55.7C52.5799 55.45 52.6599 55.17 52.6999 54.88C52.7899 54.17 52.8599 53.48 52.9099 52.79L46.9299 53.01C46.8999 53.37 46.8599 53.74 46.8099 54.1H46.7999Z" fill="#FADDDC"/>
<path d="M34.8001 22.49C33.7601 23.76 33.9501 25.63 35.2101 26.67C35.3401 26.78 48.2901 37.63 46.9101 53L52.8901 52.78C54.1101 34.66 39.6101 22.59 38.9701 22.06C37.7001 21.02 35.8301 21.21 34.7901 22.48L34.8001 22.49Z" fill="#9A9A99"/>
<path d="M32.3199 3.67004H21.9299V7.16004V12.97C21.9299 14.79 23.4099 16.27 25.2299 16.27H26.2799C26.7899 16.27 27.2099 16.68 27.2099 17.2V20.68L32.1199 18.02L32.3299 3.68004L32.3199 3.67004Z" fill="#FADDDC"/>
<path d="M22.2401 13.14L21.6401 12.97C21.1001 12.82 20.7801 12.25 20.9301 11.71L21.7601 8.74999C21.8201 8.51999 22.0601 8.38999 22.2801 8.45999C22.5001 8.52999 22.6401 8.75999 22.5701 8.97999L21.8501 11.54C21.7601 11.85 21.9401 12.17 22.2501 12.25L22.4601 12.31C22.6901 12.37 22.8201 12.61 22.7501 12.83C22.6801 13.05 22.4501 13.19 22.2301 13.12L22.2401 13.14Z" fill="#E0B1BB"/>
<path d="M23.7 8.71002C23.7 9.02002 23.95 9.27003 24.26 9.27003C24.57 9.27003 24.82 9.02002 24.82 8.71002C24.82 8.40002 24.57 8.15002 24.26 8.15002C23.95 8.15002 23.7 8.40002 23.7 8.71002Z" fill="#757570"/>
<path d="M29.2099 10.52C29.2099 11.0502 29.6397 11.48 30.1699 11.48C30.7001 11.48 31.1299 11.0502 31.1299 10.52V8.42998C31.1299 7.89979 30.7001 7.46998 30.1699 7.46998C29.6397 7.46998 29.2099 7.89979 29.2099 8.42998V10.52Z" fill="#FADDDC"/>
<path d="M27.2 20.68L32.3499 17.54L34.1399 18.59L29.34 22.43C28.71 22.93 27.7699 22.64 27.5499 21.87L27.2 20.68Z" fill="white"/>
<path d="M27.2 20.68L25.62 21.34C25.08 21.57 24.56 21 24.82 20.48C24.82 20.48 27.15 17.72 27.18 17.6C27.21 17.48 27.2 20.68 27.2 20.68Z" fill="white"/>
<path d="M26.4299 0.0100583C29.4099 0.200058 31.6399 0.710058 33.0099 2.03006C34.0999 3.07006 34.7199 4.73006 34.8099 6.21006C35.1699 12.2901 32.3499 13.5501 32.1099 13.2501C32.0199 13.1301 32.2999 8.83006 32.2999 8.83006C32.2999 8.30006 31.8699 7.87006 31.3399 7.87006C30.8099 7.87006 30.3799 8.30006 30.3799 8.83006C30.3799 8.83006 30.4499 10.1201 30.3999 10.1001C24.5799 7.56006 23.8499 5.94006 22.2299 3.77006C22.1299 3.63006 22.0799 6.90006 22.0799 6.90006C22.0799 6.90006 20.2199 6.54006 20.5799 4.33006C20.9099 2.37006 23.2099 -0.189942 26.4299 0.0100583Z" fill="#3E2967"/>
<path d="M29.8301 0.469971L34.4301 1.15997L33.2401 2.59997L29.8301 0.469971Z" fill="#3E2967"/>
</g>
<defs>
<clipPath id="clip0_9_400">
<rect width="55.88" height="101.48" fill="white"/>
</clipPath>
</defs>
</svg>
