<svg width="110" height="110" viewBox="0 0 110 110" fill="none" xmlns="http://www.w3.org/2000/svg">
<g clip-path="url(#clip0_1217_2419)">
<path d="M38.79 55.04L50.27 54.88L63.4 54.83L59.06 100.34L56.09 100.12C56 100.97 56.23 102.45 57.19 103.2C57.72 103.62 58.29 104 58.82 104.42C59.45 104.92 59.12 106.02 58.34 106.02L53.31 105.02C51.06 104.56 51.36 103.02 51.81 101.83C52.1 101.04 52.28 100.22 52.31 99.38C52.5 94.13 52.38 68.21 52.53 64.31C52.57 63.42 52.58 62.06 51.32 62L50.16 62.02C49.31 62.02 49.04 62.76 49.01 63.65C48.9 67.55 48.61 74.82 48.67 79.43C48.67 79.43 48.52 83.03 48.28 83.88C47.93 85.1 46.51 84.92 46.02 84.02C45.6 83.24 45.17 80.05 45.09 79.43L43.2 79.13C41.9 78.92 40.89 77.9 40.68 76.61L38.77 55.06L38.79 55.04Z" fill="#3E2967"/>
<path d="M54.65 7.17004H44.26V16.47C44.26 18.29 45.74 19.77 47.56 19.77H48.61C49.12 19.77 49.54 20.18 49.54 20.7V21.77H54.61L54.65 7.18004V7.17004Z" fill="#FADDDC"/>
<path d="M47.62 16.78H46.99C46.43 16.78 45.97 16.32 45.97 15.76V12.69C45.97 12.46 46.16 12.27 46.39 12.27C46.62 12.27 46.82 12.46 46.82 12.69V15.35C46.82 15.67 47.08 15.93 47.4 15.93H47.62C47.85 15.93 48.04 16.12 48.04 16.36C48.04 16.6 47.85 16.78 47.62 16.78Z" fill="#E0B1BB"/>
<path d="M55.3699 5.66L55.5099 4H48.2899C46.2699 4 44.4699 5.29 43.8299 7.21L42.4199 11.41H44.1399C48.4499 10.85 50.4799 7.61 50.4799 7.61C51.2399 11.92 54.6899 13.7 54.6899 13.7C54.6899 13.7 55.7899 11.99 56.3299 10C56.7599 8.41 55.7799 6.43 55.3599 5.68L55.3699 5.66Z" fill="#3E2967"/>
<path d="M49.4299 12.77C49.4299 13.08 49.6799 13.33 49.9899 13.33C50.2999 13.33 50.5499 13.08 50.5499 12.77C50.5499 12.46 50.2999 12.21 49.9899 12.21C49.6799 12.21 49.4299 12.46 49.4299 12.77Z" fill="#757570"/>
<path d="M67.39 47.39C67.19 48.58 68.04 49.74 69.27 49.98C70.29 50.18 71.25 49.69 71.67 48.86C71.76 48.68 71.83 48.48 71.86 48.27C71.94 47.75 72.01 47.25 72.06 46.74L67.5 46.6C67.47 46.86 67.43 47.13 67.39 47.4V47.39Z" fill="#FADDDC"/>
<path d="M58.86 23.52C58.04 24.4 58.15 25.79 59.09 26.62C59.19 26.71 68.83 35.35 67.49 46.59L72.05 46.73C73.33 33.45 62.52 23.84 62.04 23.42C61.09 22.59 59.67 22.64 58.85 23.52H58.86Z" fill="#9A9A99"/>
<path d="M34.26 60.14C34.4 62.04 32.96 63.69 31.06 63.83C30.98 63.83 30.89 63.83 30.81 63.83C29.02 63.83 27.5 62.44 27.37 60.62C27.33 60.02 27.3 59.44 27.27 58.85H34.19C34.21 59.27 34.22 59.69 34.26 60.12V60.14Z" fill="#FADDDC"/>
<path d="M42.3601 22.97C44.0201 22.05 46.1001 22.64 47.0401 24.3C47.9701 25.95 47.3801 28.06 45.7301 29C45.0901 29.36 33.0101 34.94 34.1901 58.87H27.2701C26.0301 30.73 41.5801 23.41 42.3601 22.97Z" fill="#9A9A99"/>
<path d="M65.96 55.29H39.04L39.05 30.83C39.05 25.8 43.13 21.72 48.16 21.72H56.86C61.89 21.72 65.97 25.8 65.97 30.83L65.95 55.29H65.96Z" fill="#9A9A99"/>
<path d="M52.0299 21.6899H46.9099V24.1399C46.9099 25.0899 48.0599 25.5599 48.7299 24.8899L51.9499 21.7699L55.2399 24.9199C55.9099 25.5899 57.0599 25.1199 57.0599 24.1699V21.6899H52.0399H52.0299Z" fill="white"/>
</g>
<defs>
<clipPath id="clip0_1217_2419">
<rect width="44.97" height="102.01" fill="white" transform="translate(27.2 4)"/>
</clipPath>
</defs>
</svg>
