<svg width="56" height="102" viewBox="0 0 56 102" fill="none" xmlns="http://www.w3.org/2000/svg">
<g clip-path="url(#clip0_9_399)">
<path d="M53.6399 41.91C55.2299 42.32 56.1899 43.94 55.7799 45.53C55.4399 46.84 54.2899 47.72 53.0099 47.76C52.7299 47.76 52.4499 47.74 52.1599 47.67C51.4699 47.49 50.7999 47.29 50.1399 47.08L52.5799 41.61C52.9299 41.72 53.2799 41.82 53.6399 41.91Z" fill="#FADDDC"/>
<path d="M28.8101 18.96C30.3801 18.47 32.0401 19.34 32.5401 20.91C32.5901 21.08 37.8201 37.14 52.5901 41.61L50.1501 47.08C32.8801 41.43 27.1101 23.47 26.8701 22.68C26.3801 21.11 27.2601 19.45 28.8201 18.96H28.8101Z" fill="#9A9A99"/>
<path d="M29.32 53.21H15.18L11.63 73.65L0.529958 90.16L2.20996 91.89C1.94996 92.36 1.49996 93.13 1.03996 93.43C0.359958 93.88 -0.500042 94.7 0.349958 95.61L5.45996 98.94C6.18996 99.19 6.91996 98.2 6.51996 97.49C6.25996 97.02 5.38996 95.97 5.10996 95.52C4.51996 94.58 5.13996 93.84 5.81996 92.77C9.87996 86.41 19.57 76.56 19.57 76.56L29.31 53.21H29.32Z" fill="#291B4C"/>
<path d="M33.8401 53.0699L17.8701 53.2099L32.1601 76.6099L38.1601 97.4799L40.1301 97.4999L40.8601 99.1899C41.5901 101.08 41.6301 101.86 43.2401 101.3L47.2001 100.28C47.9301 100.02 47.9201 99.09 47.1301 98.7999C46.6101 98.5999 45.7801 98.4999 45.2301 98.4299C43.1701 98.1499 43.5901 96.8599 43.3901 95.6299C42.1701 88.2799 41.8901 82.4499 40.4101 74.9999C39.5701 70.7399 33.8501 53.0699 33.8501 53.0699H33.8401Z" fill="#3E2C6D"/>
<path d="M36.0199 53.6L12.6299 53.36L15.0999 33.24C11.0899 32.47 12.4299 22.05 23.7299 17.74H28.0799C29.5799 17.74 30.9999 18.5 31.7799 19.78C37.4499 29.04 36.0199 53.6 36.0199 53.6Z" fill="#9A9A99"/>
<path d="M9.06996 54.1C9.28996 55.73 8.13996 57.22 6.50996 57.44C5.16996 57.62 3.91996 56.88 3.39996 55.7C3.28996 55.45 3.20996 55.17 3.16996 54.88C3.07996 54.17 3.00996 53.48 2.95996 52.79L8.93996 53.01C8.96996 53.37 9.00996 53.74 9.05996 54.1H9.06996Z" fill="#FADDDC"/>
<path d="M21.0701 22.49C22.1101 23.76 21.9201 25.63 20.6601 26.67C20.5301 26.78 7.58007 37.63 8.96007 53L2.98007 52.78C1.76007 34.66 16.2601 22.59 16.9001 22.06C18.1701 21.02 20.0401 21.21 21.0801 22.48L21.0701 22.49Z" fill="#9A9A99"/>
<path d="M23.56 3.67004H33.9501V7.16004V12.97C33.9501 14.79 32.47 16.27 30.65 16.27H29.6C29.09 16.27 28.67 16.68 28.67 17.2V20.68L23.76 18.02L23.55 3.68004L23.56 3.67004Z" fill="#FADDDC"/>
<path d="M33.63 13.14L34.23 12.97C34.77 12.82 35.09 12.25 34.94 11.71L34.11 8.74999C34.05 8.51999 33.81 8.38999 33.59 8.45999C33.37 8.52999 33.23 8.75999 33.3 8.97999L34.02 11.54C34.11 11.85 33.93 12.17 33.62 12.25L33.41 12.31C33.18 12.37 33.05 12.61 33.12 12.83C33.19 13.05 33.42 13.19 33.64 13.12L33.63 13.14Z" fill="#E0B1BB"/>
<path d="M32.1801 8.71002C32.1801 9.02002 31.9301 9.27003 31.6201 9.27003C31.3101 9.27003 31.0601 9.02002 31.0601 8.71002C31.0601 8.40002 31.3101 8.15002 31.6201 8.15002C31.9301 8.15002 32.1801 8.40002 32.1801 8.71002Z" fill="#757570"/>
<path d="M26.67 8.41996C26.67 7.88977 26.2402 7.45996 25.71 7.45996C25.1798 7.45996 24.75 7.88977 24.75 8.41996V10.51C24.75 11.0402 25.1798 11.47 25.71 11.47C26.2402 11.47 26.67 11.0402 26.67 10.51V8.41996Z" fill="#FADDDC"/>
<path d="M28.67 20.68L23.52 17.54L21.73 18.59L26.53 22.43C27.16 22.93 28.1 22.64 28.32 21.87L28.67 20.68Z" fill="white"/>
<path d="M28.6701 20.68L30.2501 21.34C30.7901 21.57 31.3101 21 31.0501 20.48C31.0501 20.48 28.7201 17.72 28.6901 17.6C28.6601 17.48 28.6701 20.68 28.6701 20.68Z" fill="white"/>
<path d="M29.44 0.0100583C26.46 0.200058 24.23 0.710058 22.86 2.03006C21.77 3.07006 21.15 4.73006 21.06 6.21006C20.7 12.2901 23.52 13.5501 23.76 13.2501C23.85 13.1301 23.57 8.83006 23.57 8.83006C23.57 8.30006 24 7.87006 24.53 7.87006C25.06 7.87006 25.49 8.30006 25.49 8.83006C25.49 8.83006 25.42 10.1201 25.47 10.1001C31.29 7.56006 32.02 5.94006 33.64 3.77006C33.74 3.63006 33.79 6.90006 33.79 6.90006C33.79 6.90006 35.65 6.54006 35.29 4.33006C34.97 2.37006 32.66 -0.189942 29.44 0.0100583Z" fill="#3E2967"/>
<path d="M26.0499 0.469971L21.45 1.15997L22.6399 2.59997L26.0499 0.469971Z" fill="#3E2967"/>
</g>
<defs>
<clipPath id="clip0_9_399">
<rect width="55.88" height="101.48" fill="white"/>
</clipPath>
</defs>
</svg>
