<svg width="44" height="100" viewBox="0 0 44 100" fill="none" xmlns="http://www.w3.org/2000/svg">
<g clip-path="url(#clip0_99_693)">
<path d="M24.5001 3.16992H14.1101V12.4699C14.1101 14.2899 15.5901 15.7699 17.4101 15.7699H18.4601C18.9701 15.7699 19.3901 16.1799 19.3901 16.6999V17.7699H24.4601L24.5001 3.17992V3.16992Z" fill="#FADDDC"/>
<path d="M17.4801 12.78H16.8501C16.2901 12.78 15.8301 12.32 15.8301 11.76V8.69002C15.8301 8.46002 16.0201 8.27002 16.2501 8.27002C16.4801 8.27002 16.6801 8.46002 16.6801 8.69002V11.35C16.6801 11.67 16.9401 11.93 17.2601 11.93H17.4801C17.7101 11.93 17.9001 12.12 17.9001 12.36C17.9001 12.6 17.7101 12.78 17.4801 12.78Z" fill="#E0B1BB"/>
<path d="M25.22 1.66L25.36 0H18.14C16.12 0 14.32 1.29 13.68 3.21L12.27 7.41H13.99C18.3 6.85 20.33 3.61 20.33 3.61C21.09 7.92 24.54 9.7 24.54 9.7C24.54 9.7 25.64 7.99 26.18 6C26.61 4.41 25.63 2.43 25.21 1.68L25.22 1.66Z" fill="#3E2967"/>
<path d="M19.28 8.76996C19.28 9.07996 19.53 9.32996 19.84 9.32996C20.15 9.32996 20.4 9.07996 20.4 8.76996C20.4 8.45996 20.15 8.20996 19.84 8.20996C19.53 8.20996 19.28 8.45996 19.28 8.76996Z" fill="#757570"/>
<path d="M6.45003 52.2599C6.77003 53.8699 5.72003 55.4399 4.11003 55.7499C2.79003 56.0099 1.49003 55.3499 0.900029 54.2099C0.770029 53.9599 0.670029 53.6899 0.620029 53.4099C0.480029 52.7099 0.370029 52.0199 0.280029 51.3399L6.27003 51.1799C6.33003 51.5399 6.39003 51.8999 6.46003 52.2599H6.45003Z" fill="#FADDDC"/>
<path d="M16.4199 19.9599C17.5399 21.1599 17.4699 23.0399 16.2699 24.1599C16.1399 24.2799 3.90989 35.9299 6.24989 51.1799L0.259889 51.3399C-2.10011 33.3299 11.6099 20.3699 12.2099 19.7999C13.4099 18.6799 15.2899 18.7599 16.4099 19.9599H16.4199Z" fill="#9A9A99"/>
<path d="M37.77 48.8501C37.66 50.3801 38.81 51.7101 40.35 51.8201C40.42 51.8201 40.48 51.8201 40.55 51.8201C42 51.8201 43.22 50.7001 43.32 49.2401C43.35 48.7601 43.38 48.2901 43.4 47.8201H37.82C37.8 48.1601 37.79 48.5001 37.77 48.8501Z" fill="#FADDDC"/>
<path d="M31.2301 18.89C29.8901 18.15 28.2101 18.63 27.4601 19.96C26.7101 21.29 27.1801 22.99 28.5101 23.75C29.0201 24.04 38.7601 28.54 37.8101 47.83H43.3901C44.3901 25.15 31.8601 19.25 31.2201 18.9L31.2301 18.89Z" fill="#9A9A99"/>
<path d="M35.8099 51.29H8.88989L8.89989 26.83C8.89989 21.8 12.9799 17.72 18.0099 17.72H26.7099C31.7399 17.72 35.8199 21.8 35.8199 26.83L35.7999 51.29H35.8099Z" fill="#9A9A99"/>
<path d="M21.88 17.6899H16.76V20.1399C16.76 21.0899 17.91 21.5599 18.58 20.8899L21.8 17.7699L25.09 20.9199C25.76 21.5899 26.91 21.1199 26.91 20.1699V17.6899H21.89H21.88Z" fill="white"/>
<path d="M35.8099 51.29H8.88989L16.7899 93.69C16.8799 94.54 17.2599 95.53 16.3099 96.28C15.7799 96.7 15.2099 97.08 14.6799 97.5C14.0499 98 14.3799 99.1 15.1599 99.1L20.1899 98.1C22.4399 97.64 22.1399 96.1 21.6899 94.91C21.3999 94.12 21.2199 93.3 21.1899 92.46C20.9999 87.21 20.0699 63.77 19.9199 59.87C19.8799 58.98 20.7399 58.01 21.5999 58.01H23.1399C23.9899 58.01 24.7199 58.65 24.8699 59.53C25.5499 63.53 25.8299 74.35 26.4399 85.76C26.4399 85.76 26.5899 89.36 26.8299 90.21C27.1799 91.43 28.5999 91.25 29.0899 90.35C29.5099 89.57 29.9399 86.38 30.0199 85.76H31.4299L35.8299 51.28L35.8099 51.29Z" fill="#3E2967"/>
</g>
<defs>
<clipPath id="clip0_99_693">
<rect width="43.45" height="99.11" fill="white"/>
</clipPath>
</defs>
</svg>
