<svg width="110" height="110" viewBox="0 0 110 110" fill="none" xmlns="http://www.w3.org/2000/svg">
<g clip-path="url(#clip0_1217_2812)">
<path d="M52.02 54.02L64.42 53.64L64.78 100.73L62.46 101.45C62.45 102.02 62.46 102.96 62.71 103.47C63.07 104.23 63.42 105.43 62.22 105.83L56.13 106.26C55.37 106.12 55.23 104.83 55.93 104.38C56.39 104.08 57.66 103.56 58.14 103.29C59.12 102.73 59.08 101.71 58.89 100.4C57.51 90.91 52.02 54.02 52.02 54.02Z" fill="#291B4C"/>
<path d="M49.82 56.33H65.22L53.08 73.79L58.98 93.56L56.63 94.27V96.21C56.81 97.57 56.81 98.46 55.29 99.25L51.38 100.2C50.61 100.26 50.25 99.35 50.85 98.74C51.25 98.33 52.09 98.04 52.45 97.59C54.02 95.57 53.2 95.1 52.9 93.82C51.52 87.93 46.38 78.99 44.57 75.2C44.02 74.05 43.94 72.73 44.35 71.52L49.82 56.33Z" fill="#3E2C6D"/>
<path d="M67.0599 53.51C67.1699 55.15 68.5799 56.39 70.2199 56.28C71.5699 56.19 72.6499 55.22 72.9299 53.97C72.9899 53.7 73.0199 53.41 72.9999 53.12C72.9499 52.41 72.8799 51.71 72.7899 51.03L66.9599 52.41C66.9999 52.77 67.0299 53.13 67.0599 53.5V53.51Z" fill="#FADDDC"/>
<path d="M49.12 24.86C48.35 26.31 48.9 28.11 50.34 28.88C50.49 28.96 65.3 37.08 66.96 52.42L72.79 51.04C70.45 33.03 53.87 24.02 53.14 23.63C51.69 22.86 49.9 23.41 49.12 24.86Z" fill="#777777"/>
<path d="M48 57.16L66.83 56.73C67.56 56.71 68.12 56.07 68.03 55.35L66.32 38.17C66.25 37.51 66.21 36.84 66.2 36.17C66.2 30.21 67.58 25.28 57.31 21.74C57.31 21.74 54.83 21.74 52.96 21.74C51.47 21.74 50.06 22.48 49.28 23.75C44.32 31.81 46.19 51.21 46.75 56.07C46.82 56.71 47.37 57.17 48.01 57.16H48Z" fill="#9A9A99"/>
<path d="M61.1399 26.88C59.5299 27.22 58.7199 31.39 58.4699 33.01C58.1799 34.88 62.4699 46 51.7699 57.12L60.1999 56.82C65.7199 54.76 64.8299 29.98 64.6599 29.17C64.3199 27.57 62.7499 26.54 61.1399 26.88Z" fill="#777777"/>
<path d="M50.8499 58.13C49.6599 59.26 49.6199 61.15 50.7499 62.34C51.6799 63.32 53.1199 63.52 54.2599 62.93C54.5099 62.8 54.7399 62.64 54.9499 62.44C55.4699 61.95 55.9499 61.45 56.4199 60.94L51.6199 57.36C51.3699 57.62 51.1099 57.88 50.8399 58.14L50.8499 58.13Z" fill="#FADDDC"/>
<path d="M61.3099 25.98C59.6999 26.32 58.6799 27.89 59.0099 29.5C59.0499 29.67 62.3299 46.24 51.6299 57.36L56.4299 60.9399C68.7399 47.5799 64.9999 29.09 64.8299 28.28C64.4899 26.68 62.9199 25.65 61.3099 25.99V25.98Z" fill="#9A9A99"/>
<path d="M57.48 7.67004H47.09V11.16V16.97C47.09 18.79 48.57 20.27 50.39 20.27H51.44C51.95 20.27 52.37 20.68 52.37 21.2V24.68L57.28 22.02L57.49 7.68004L57.48 7.67004Z" fill="#FADDDC"/>
<path d="M47.4 17.14L46.8 16.97C46.26 16.82 45.94 16.25 46.09 15.71L46.92 12.75C46.98 12.52 47.22 12.39 47.44 12.46C47.66 12.53 47.8 12.76 47.73 12.98L47.01 15.54C46.92 15.85 47.1 16.17 47.41 16.25L47.62 16.31C47.85 16.37 47.98 16.61 47.91 16.83C47.84 17.05 47.61 17.19 47.39 17.12L47.4 17.14Z" fill="#E0B1BB"/>
<path d="M48.86 12.71C48.86 13.02 49.11 13.27 49.42 13.27C49.73 13.27 49.98 13.02 49.98 12.71C49.98 12.4 49.73 12.15 49.42 12.15C49.11 12.15 48.86 12.4 48.86 12.71Z" fill="#757570"/>
<path d="M54.36 12.42C54.36 11.8898 54.7898 11.46 55.32 11.46C55.8502 11.46 56.28 11.8898 56.28 12.42V14.51C56.28 15.0402 55.8502 15.47 55.32 15.47C54.7898 15.47 54.36 15.0402 54.36 14.51V12.42Z" fill="#FADDDC"/>
<path d="M52.36 24.68L57.51 21.54L59.3 22.59L54.5 26.43C53.87 26.93 52.93 26.64 52.71 25.87L52.36 24.68Z" fill="white"/>
<path d="M52.36 24.68L50.78 25.34C50.24 25.57 49.72 25 49.98 24.48C49.98 24.48 52.31 21.72 52.34 21.6C52.37 21.48 52.36 24.68 52.36 24.68Z" fill="white"/>
<path d="M51.59 4.01006C54.57 4.20006 56.8 4.71006 58.17 6.03006C59.26 7.07006 59.88 8.73006 59.97 10.2101C60.33 16.2901 57.51 17.5501 57.27 17.2501C57.18 17.1301 57.46 12.8301 57.46 12.8301C57.46 12.3001 57.03 11.8701 56.5 11.8701C55.97 11.8701 55.54 12.3001 55.54 12.8301C55.54 12.8301 55.61 14.1201 55.56 14.1001C49.74 11.5601 49.01 9.94006 47.39 7.77006C47.29 7.63006 47.24 10.9001 47.24 10.9001C47.24 10.9001 45.38 10.5401 45.74 8.33006C46.07 6.37006 48.37 3.81006 51.59 4.01006Z" fill="#3E2967"/>
<path d="M54.9901 4.46997L59.5901 5.15997L58.4001 6.59997L54.9901 4.46997Z" fill="#3E2967"/>
</g>
<defs>
<clipPath id="clip0_1217_2812">
<rect width="28.91" height="102.26" fill="white" transform="matrix(-1 0 0 1 73 4)"/>
</clipPath>
</defs>
</svg>
