<svg width="110" height="110" viewBox="0 0 110 110" fill="none" xmlns="http://www.w3.org/2000/svg">
<g clip-path="url(#clip0_1217_2832)">
<path d="M44.0801 55.1L68.7401 55.21L63.5201 95.77C63.5201 95.77 60.9301 97.41 60.9201 97.46C60.7101 98.76 60.9201 99.86 62.9301 98.65C63.5101 98.3 63.9701 98.27 64.5001 98.74C65.1301 99.29 64.6501 100.87 64.0901 101.72L59.1401 105.48C58.5501 105.93 57.6801 105.97 57.1301 105.48C56.2801 104.74 56.5201 103.54 56.8801 102.58C58.2501 98.83 57.8301 98.4 57.8301 98.4L57.0601 98.65C56.5601 98.81 56.0601 98.44 56.1001 97.94C56.5001 93.02 57.5201 67.74 57.7001 63.21C57.7201 62.83 57.4001 62.51 57.0001 62.5L55.9401 62.48C55.6201 62.48 55.3101 62.69 55.3101 63C55.2801 69.08 55.2001 78.61 55.1101 78.61C55.1101 78.61 54.6401 82.67 54.3901 83.6C54.0401 84.92 52.6201 84.73 52.1301 83.75C51.7101 82.9 51.5901 80.3 51.5101 79.62H49.3301L44.0801 55.11V55.1Z" fill="#3E2967"/>
<path d="M39.4801 62.54C39.8501 64.41 38.6301 66.23 36.7601 66.6C35.2201 66.9 33.7201 66.14 33.0301 64.81C32.8801 64.52 32.7701 64.21 32.7001 63.88C32.5401 63.07 32.4101 62.27 32.3101 61.47L39.2601 61.29C39.3201 61.71 39.3901 62.13 39.4801 62.55V62.54Z" fill="#FADDDC"/>
<path d="M51.0598 25.04C52.3598 26.43 52.2798 28.62 50.8898 29.92C50.7398 30.06 36.5498 43.58 39.2598 61.28L32.3098 61.46C29.5798 40.56 45.4898 25.51 46.1898 24.86C47.5898 23.57 49.7598 23.65 51.0598 25.04Z" fill="#9A9A99"/>
<path d="M74.33 46.5601C74.49 47.8401 75.65 48.7401 76.92 48.5901C76.98 48.5901 77.03 48.5701 77.09 48.5601C78.28 48.3301 79.1 47.2101 78.95 45.9901C78.9 45.5901 78.85 45.2001 78.79 44.8101L74.21 45.7101C74.25 45.9901 74.3 46.2701 74.33 46.5601Z" fill="#FADDDC"/>
<path d="M64.1599 23.02C62.9399 22.63 61.6399 23.29 61.2399 24.5C60.8399 25.72 61.4999 27.03 62.7099 27.44C63.1799 27.6 71.8899 29.72 74.2099 45.71L78.7899 44.81C75.9699 26.03 64.7299 23.21 64.1599 23.02Z" fill="#9A9A99"/>
<path d="M67.77 57.01H45.5C44.21 57.01 43.16 55.95 43.17 54.66L43.39 31.59C43.39 26.56 47.47 22.48 52.5 22.48H61.2C66.23 22.48 70.31 26.56 70.31 31.59L70.09 54.71C70.08 55.99 69.04 57.01 67.76 57.01H67.77Z" fill="#9A9A99"/>
<path d="M60.0902 7.67999L49.7302 6.85999L49.2602 11.83C49.1202 13.65 48.5702 16.92 51.2102 18.93L53.0702 19.77C53.5802 19.81 53.9602 20.26 53.9202 20.77L53.8402 21.84L58.9002 22.24L60.0902 7.68999V7.67999Z" fill="#FADDDC"/>
<path d="M60.9201 6.23004L61.1901 4.58004L53.9901 4.01004C51.9801 3.85004 50.0801 5.00004 49.2901 6.86004L47.5601 10.93L49.2801 11.07C53.6201 10.85 55.9001 7.78004 55.9001 7.78004C56.3201 12.14 59.6201 14.18 59.6201 14.18C59.6201 14.18 60.8501 12.56 61.5501 10.62C62.1001 9.07004 61.2801 7.02004 60.9301 6.24004L60.9201 6.23004Z" fill="#3E2967"/>
<path d="M62.1999 12.56C61.8699 16.78 58.7399 19.9699 55.2099 19.6899C51.6799 19.4099 49.0899 15.77 49.4299 11.55C49.7699 7.32995 54.3999 4.69995 57.9299 4.97995C61.4599 5.25995 62.5399 8.33995 62.2099 12.55L62.1999 12.56Z" fill="#3E2967"/>
<path d="M53.8699 21.3499L58.9499 21.3199L60.5699 22.4999C60.5699 22.4999 56.1799 24.6799 52.6099 22.4899L53.8699 21.3499Z" fill="white"/>
</g>
<defs>
<clipPath id="clip0_1217_2832">
<rect width="46.97" height="101.83" fill="white" transform="translate(32 4)"/>
</clipPath>
</defs>
</svg>
