<svg width="45" height="100" viewBox="0 0 45 100" fill="none" xmlns="http://www.w3.org/2000/svg">
<g clip-path="url(#clip0_109_788)">
<path d="M5.93005 49.95C5.76005 51.58 4.29005 52.77 2.66005 52.6C1.32005 52.46 0.280049 51.44 0.0500488 50.18C4.88274e-05 49.91 -0.00995117 49.62 0.0200488 49.33C0.0900488 48.62 0.190049 47.93 0.310049 47.25L6.08005 48.87C6.03005 49.23 5.98005 49.59 5.94005 49.96L5.93005 49.95Z" fill="#FADDDC"/>
<path d="M25.0101 22.04C25.7201 23.52 25.1001 25.29 23.6301 26.01C23.4701 26.09 8.35006 33.6 6.08006 48.87L0.310059 47.25C3.37006 29.34 20.3001 21.01 21.0501 20.65C22.5301 19.94 24.3001 20.56 25.0101 22.04Z" fill="#777777"/>
<path d="M27.83 52.55L13.25 52.84L25.77 68.89L19.87 87.6501L22.22 88.32V90.1601C22.04 91.4501 22.04 92.2901 23.56 93.0401L27.47 93.95C28.24 94 28.6 93.15 28 92.56C27.6 92.17 26.76 91.9001 26.4 91.4701C24.83 89.5501 25.65 89.1 25.95 87.89C27.74 80.66 34.16 68.45 34.16 68.45L27.83 52.55Z" fill="#291B4C"/>
<path d="M23.85 52.11L11.48 51.23L8.69995 94.14L10.98 94.92C10.96 95.46 10.9 96.35 10.63 96.82C10.23 97.52 9.82995 98.65 11.01 99.08L17.08 99.75C17.85 99.65 18.05 98.43 17.37 97.97C16.92 97.67 15.68 97.12 15.22 96.85C14.27 96.28 14.36 95.31 14.62 94.08C16.46 85.15 23.86 52.12 23.86 52.12L23.85 52.11Z" fill="#3E2C6D"/>
<path d="M30.7299 53.6L7.3399 53.36C7.3399 53.36 5.8899 21.53 18.4399 17.74H22.7899C24.2899 17.74 25.7099 18.5 26.4899 19.78C32.1599 29.04 30.7299 53.6 30.7299 53.6Z" fill="#9A9A99"/>
<path d="M18.26 3.67004H28.65V7.16004V12.97C28.65 14.79 27.17 16.27 25.35 16.27H24.3C23.79 16.27 23.37 16.68 23.37 17.2V20.68L18.46 18.02L18.25 3.68004L18.26 3.67004Z" fill="#FADDDC"/>
<path d="M28.34 13.14L28.94 12.97C29.48 12.82 29.8 12.25 29.65 11.71L28.82 8.74999C28.76 8.51999 28.52 8.38999 28.3 8.45999C28.08 8.52999 27.94 8.75999 28.01 8.97999L28.73 11.54C28.82 11.85 28.64 12.17 28.33 12.25L28.12 12.31C27.89 12.37 27.76 12.61 27.83 12.83C27.9 13.05 28.13 13.19 28.35 13.12L28.34 13.14Z" fill="#E0B1BB"/>
<path d="M26.88 8.71002C26.88 9.02002 26.63 9.27003 26.32 9.27003C26.01 9.27003 25.76 9.02002 25.76 8.71002C25.76 8.40002 26.01 8.15002 26.32 8.15002C26.63 8.15002 26.88 8.40002 26.88 8.71002Z" fill="#757570"/>
<path d="M21.38 8.41996C21.38 7.88977 20.9502 7.45996 20.42 7.45996C19.8898 7.45996 19.46 7.88977 19.46 8.41996V10.51C19.46 11.0402 19.8898 11.47 20.42 11.47C20.9502 11.47 21.38 11.0402 21.38 10.51V8.41996Z" fill="#FADDDC"/>
<path d="M23.3799 20.68L18.2299 17.54L16.4399 18.59L21.2399 22.43C21.8699 22.93 22.8099 22.64 23.0299 21.87L23.3799 20.68Z" fill="white"/>
<path d="M23.38 20.68L24.96 21.34C25.5 21.57 26.02 21 25.76 20.48C25.76 20.48 23.43 17.72 23.4 17.6C23.37 17.48 23.38 20.68 23.38 20.68Z" fill="white"/>
<path d="M24.15 0.0100583C21.17 0.200058 18.94 0.710058 17.57 2.03006C16.48 3.07006 15.86 4.73006 15.77 6.21006C15.41 12.2901 18.23 13.5501 18.47 13.2501C18.56 13.1301 18.28 8.83006 18.28 8.83006C18.28 8.30006 18.71 7.87006 19.24 7.87006C19.77 7.87006 20.2 8.30006 20.2 8.83006C20.2 8.83006 20.13 10.1201 20.18 10.1001C26 7.56006 26.73 5.94006 28.35 3.77006C28.45 3.63006 28.5 6.90006 28.5 6.90006C28.5 6.90006 30.36 6.54006 30 4.33006C29.67 2.37006 27.37 -0.189942 24.15 0.0100583Z" fill="#3E2967"/>
<path d="M20.7499 0.469971L16.1499 1.15997L17.3399 2.59997L20.7499 0.469971Z" fill="#3E2967"/>
<path d="M41.7999 44.84C43.4099 45.15 44.4699 46.7 44.1699 48.32C43.9199 49.65 42.8199 50.6 41.5399 50.72C41.2599 50.75 40.9799 50.74 40.6899 50.68C39.9899 50.55 39.3099 50.39 38.6399 50.22L40.7299 44.61C41.0799 44.69 41.4399 44.77 41.7999 44.84Z" fill="#FADDDC"/>
<path d="M15.5599 23.52C17.0899 22.93 18.8099 23.7 19.3999 25.22C19.4599 25.38 25.6999 41.08 40.7299 44.6L38.6399 50.21C21.0499 45.68 14.1399 28.12 13.8499 27.35C13.2599 25.82 14.0299 24.1 15.5599 23.51V23.52Z" fill="#9A9A99"/>
</g>
<defs>
<clipPath id="clip0_109_788">
<rect width="44.22" height="99.75" fill="white"/>
</clipPath>
</defs>
</svg>
