<svg width="110" height="110" viewBox="0 0 110 110" fill="none" xmlns="http://www.w3.org/2000/svg">
<g clip-path="url(#clip0_1217_1958)">
<path d="M59.66 56.3101H44.72L38.41 77.2101L25 94.3401L28.21 96.7701C27.93 97.2701 27.44 98.0901 26.97 98.4101C26.28 98.8701 25.38 99.7401 26.19 100.77L31.15 104.62C31.87 104.93 32.64 103.87 32.28 103.07C32.04 102.54 31.22 101.36 30.95 100.86C30.4 99.8101 31.06 99.0201 31.78 97.8801C36.11 91.0901 46.22 80.7001 46.22 80.7001L59.65 56.3101H59.66Z" fill="#291B4C"/>
<path d="M62.0801 56.75L44.0601 56.53L61.7001 79.56L68.0001 102.08L71.8601 101.52L72.7601 103.29C73.6901 105.28 73.8101 106.13 75.3501 105.36L79.1801 103.86C79.8801 103.51 79.7701 102.5 78.9501 102.25C78.4101 102.09 77.5801 102.06 77.0201 102.03C74.9401 101.93 75.2201 100.48 74.8901 99.16C72.8901 91.28 71.9901 84.95 69.7201 77C68.4301 72.44 62.0601 56.74 62.0601 56.74L62.0801 56.75Z" fill="#3F3072"/>
<path d="M82.6599 45.91C84.2499 46.32 85.2099 47.94 84.7999 49.53C84.4599 50.84 83.3099 51.72 82.0299 51.76C81.7499 51.76 81.4699 51.74 81.1799 51.67C80.4899 51.49 79.8199 51.29 79.1599 51.08L81.5999 45.61C81.9499 45.72 82.2999 45.82 82.6599 45.91Z" fill="#FADDDC"/>
<path d="M57.8301 22.96C59.4001 22.47 61.0601 23.34 61.5601 24.91C61.6101 25.08 66.8401 41.14 81.6101 45.61L79.1701 51.08C61.9001 45.43 56.1301 27.47 55.8901 26.68C55.4001 25.11 56.2801 23.45 57.8401 22.96H57.8301Z" fill="#777777"/>
<path d="M62.05 57.16L43.22 56.73C42.49 56.71 41.93 56.07 42.02 55.35L44.12 37.24C40.11 36.47 41.45 26.05 52.75 21.74H57.1C58.59 21.74 60 22.48 60.78 23.75C65.74 31.81 63.87 51.21 63.31 56.07C63.24 56.71 62.69 57.17 62.05 57.16Z" fill="#9A9A99"/>
<path d="M38.09 58.1C38.31 59.73 37.16 61.22 35.53 61.44C34.19 61.62 32.94 60.88 32.42 59.7C32.31 59.45 32.23 59.17 32.19 58.88C32.1 58.17 32.03 57.48 31.98 56.79L37.96 57.01C37.99 57.37 38.03 57.74 38.08 58.1H38.09Z" fill="#FADDDC"/>
<path d="M50.0901 26.49C51.1301 27.76 50.9401 29.63 49.6801 30.67C49.5501 30.78 36.6001 41.63 37.9801 57L32.0001 56.78C30.7801 38.66 45.2801 26.59 45.9201 26.06C47.1901 25.02 49.0601 25.21 50.1001 26.48L50.0901 26.49Z" fill="#9A9A99"/>
<path d="M52.5801 7.67004H62.9701V11.16V16.97C62.9701 18.79 61.4901 20.27 59.6701 20.27H58.6201C58.1101 20.27 57.6901 20.68 57.6901 21.2V24.68L52.7801 22.02L52.5701 7.68004L52.5801 7.67004Z" fill="#FADDDC"/>
<path d="M62.65 17.14L63.25 16.97C63.79 16.82 64.11 16.25 63.96 15.71L63.13 12.75C63.07 12.52 62.83 12.39 62.61 12.46C62.39 12.53 62.25 12.76 62.32 12.98L63.04 15.54C63.13 15.85 62.95 16.17 62.64 16.25L62.43 16.31C62.2 16.37 62.07 16.61 62.14 16.83C62.21 17.05 62.44 17.19 62.66 17.12L62.65 17.14Z" fill="#E0B1BB"/>
<path d="M61.1901 12.71C61.1901 13.02 60.9401 13.27 60.6301 13.27C60.3201 13.27 60.0701 13.02 60.0701 12.71C60.0701 12.4 60.3201 12.15 60.6301 12.15C60.9401 12.15 61.1901 12.4 61.1901 12.71Z" fill="#757570"/>
<path d="M55.69 12.42C55.69 11.8898 55.2602 11.46 54.73 11.46C54.1998 11.46 53.77 11.8898 53.77 12.42V14.51C53.77 15.0402 54.1998 15.47 54.73 15.47C55.2602 15.47 55.69 15.0402 55.69 14.51V12.42Z" fill="#FADDDC"/>
<path d="M57.69 24.68L52.54 21.54L50.75 22.59L55.55 26.43C56.18 26.93 57.12 26.64 57.34 25.87L57.69 24.68Z" fill="white"/>
<path d="M57.6901 24.68L59.2701 25.34C59.8101 25.57 60.3301 25 60.0701 24.48C60.0701 24.48 57.7401 21.72 57.7101 21.6C57.6801 21.48 57.6901 24.68 57.6901 24.68Z" fill="white"/>
<path d="M58.46 4.01006C55.48 4.20006 53.25 4.71006 51.88 6.03006C50.79 7.07006 50.17 8.73006 50.08 10.2101C49.72 16.2901 52.54 17.5501 52.78 17.2501C52.87 17.1301 52.59 12.8301 52.59 12.8301C52.59 12.3001 53.02 11.8701 53.55 11.8701C54.08 11.8701 54.51 12.3001 54.51 12.8301C54.51 12.8301 54.44 14.1201 54.49 14.1001C60.31 11.5601 61.04 9.94006 62.66 7.77006C62.76 7.63006 62.81 10.9001 62.81 10.9001C62.81 10.9001 64.67 10.5401 64.31 8.33006C63.99 6.37006 61.68 3.81006 58.46 4.01006Z" fill="#3E2967"/>
<path d="M55.07 4.46997L50.47 5.15997L51.65 6.59997L55.07 4.46997Z" fill="#3E2967"/>
</g>
<defs>
<clipPath id="clip0_1217_1958">
<rect width="59.89" height="101.64" fill="white" transform="translate(25 4)"/>
</clipPath>
</defs>
</svg>
