<svg width="110" height="110" viewBox="0 0 110 110" fill="none" xmlns="http://www.w3.org/2000/svg">
<g clip-path="url(#clip0_1217_2276)">
<path d="M64.7999 55.04L53.3199 54.88L40.1899 54.83L44.5299 100.34L47.4999 100.12C47.5899 100.97 47.3599 102.45 46.3999 103.2C45.8699 103.62 45.2999 104 44.7699 104.42C44.1399 104.92 44.4699 106.02 45.2499 106.02L50.2799 105.02C52.5299 104.56 52.2299 103.02 51.7799 101.83C51.4899 101.04 51.3099 100.22 51.2799 99.38C51.0899 94.13 51.3399 68.41 51.1899 64.5C51.1499 63.61 51.1399 62.25 52.3999 62.19L53.5599 62.21C54.4099 62.21 54.6799 62.95 54.7099 63.84C54.8199 67.74 54.9799 74.82 54.9199 79.42C54.9199 79.42 55.0699 83.02 55.3099 83.87C55.6599 85.09 57.0799 84.91 57.5699 84.01C57.9899 83.23 58.4199 80.04 58.4999 79.42L60.3899 79.12C61.6899 78.91 62.6999 77.89 62.9099 76.6L64.8199 55.05L64.7999 55.04Z" fill="#3E2967"/>
<path d="M54.62 7.17004H44.23V16.47C44.23 18.29 45.71 19.77 47.53 19.77H48.58C49.09 19.77 49.51 20.18 49.51 20.7V21.77H54.58L54.62 7.18004V7.17004Z" fill="#FADDDC"/>
<path d="M47.5899 16.78H46.9599C46.3999 16.78 45.9399 16.32 45.9399 15.76V12.69C45.9399 12.46 46.1299 12.27 46.3599 12.27C46.5899 12.27 46.7899 12.46 46.7899 12.69V15.35C46.7899 15.67 47.0499 15.93 47.3699 15.93H47.5899C47.8199 15.93 48.0099 16.12 48.0099 16.36C48.0099 16.6 47.8199 16.78 47.5899 16.78Z" fill="#E0B1BB"/>
<path d="M55.3299 5.66L55.4699 4H48.2499C46.2299 4 44.4299 5.29 43.7899 7.21L42.3799 11.41H44.0999C48.4099 10.85 50.4399 7.61 50.4399 7.61C51.1999 11.92 54.6499 13.7 54.6499 13.7C54.6499 13.7 55.7499 11.99 56.2899 10C56.7199 8.41 55.7399 6.43 55.3199 5.68L55.3299 5.66Z" fill="#3E2967"/>
<path d="M49.3999 12.77C49.3999 13.08 49.6499 13.33 49.9599 13.33C50.2699 13.33 50.5199 13.08 50.5199 12.77C50.5199 12.46 50.2699 12.21 49.9599 12.21C49.6499 12.21 49.3999 12.46 49.3999 12.77Z" fill="#757570"/>
<path d="M36.93 49.5299C37.17 50.7599 36.37 51.96 35.14 52.2C34.13 52.4 33.14 51.89 32.68 51.02C32.58 50.83 32.51 50.62 32.46 50.41C32.35 49.88 32.27 49.35 32.2 48.82L36.78 48.7C36.82 48.97 36.87 49.2499 36.92 49.5299H36.93Z" fill="#FADDDC"/>
<path d="M44.5699 24.81C45.4299 25.73 45.3699 27.17 44.4599 28.03C44.3599 28.12 34.9999 37.04 36.7899 48.71L32.2099 48.83C30.3999 35.05 40.8899 25.13 41.3599 24.7C42.2799 23.85 43.7199 23.9 44.5699 24.82V24.81Z" fill="#9A9A99"/>
<path d="M70.4501 60.16C70.3101 62.06 71.7501 63.72 73.6501 63.85C73.7301 63.85 73.8201 63.85 73.9001 63.85C75.7001 63.85 77.2101 62.46 77.3401 60.64C77.3801 60.04 77.4101 59.46 77.4401 58.87H70.5201C70.5001 59.29 70.4901 59.71 70.4501 60.14V60.16Z" fill="#FADDDC"/>
<path d="M62.3399 22.97C60.6799 22.05 58.5899 22.64 57.6599 24.3C56.7299 25.95 57.3199 28.06 58.9699 29C59.6099 29.36 71.6899 34.94 70.5199 58.88H77.4399C78.6899 30.73 63.1299 23.41 62.3399 22.97Z" fill="#9A9A99"/>
<path d="M65.93 55.29H39L39.01 30.83C39.01 25.8 43.09 21.72 48.12 21.72H56.82C61.85 21.72 65.93 25.8 65.93 30.83L65.91 55.29H65.93Z" fill="#9A9A99"/>
<path d="M51.9999 21.6899H46.8799V24.1399C46.8799 25.0899 48.0299 25.5599 48.6999 24.8899L51.9199 21.7699L55.2099 24.9199C55.8799 25.5899 57.0299 25.1199 57.0299 24.1699V21.6899H52.0099H51.9999Z" fill="white"/>
</g>
<defs>
<clipPath id="clip0_1217_2276">
<rect width="45.51" height="102.01" fill="white" transform="translate(32 4)"/>
</clipPath>
</defs>
</svg>
