<svg width="110" height="110" viewBox="0 0 110 110" fill="none" xmlns="http://www.w3.org/2000/svg">
<g clip-path="url(#clip0_1217_2753)">
<path d="M50.34 56.3101H65.28L71.59 77.2101L85 94.3401L81.79 96.7701C82.07 97.2701 82.56 98.0901 83.03 98.4101C83.72 98.8701 84.62 99.7401 83.81 100.77L78.85 104.62C78.13 104.93 77.36 103.87 77.72 103.07C77.96 102.54 78.78 101.36 79.05 100.86C79.6 99.8101 78.94 99.0201 78.22 97.8801C73.89 91.0901 63.78 80.7001 63.78 80.7001L50.35 56.3101H50.34Z" fill="#291B4C"/>
<path d="M47.9199 56.75L65.9399 56.53L48.2999 79.56L41.9999 102.08L38.1399 101.52L37.2399 103.29C36.3099 105.28 36.1899 106.13 34.6499 105.36L30.8199 103.86C30.1199 103.51 30.2299 102.5 31.0499 102.25C31.5899 102.09 32.4199 102.06 32.9799 102.03C35.0599 101.93 34.7799 100.48 35.1099 99.16C37.1099 91.28 38.0099 84.95 40.2799 77C41.5699 72.44 47.9399 56.74 47.9399 56.74L47.9199 56.75Z" fill="#3F3072"/>
<path d="M27.3398 45.91C25.7498 46.32 24.7898 47.94 25.1998 49.53C25.5398 50.84 26.6898 51.72 27.9698 51.76C28.2498 51.76 28.5298 51.74 28.8198 51.67C29.5098 51.49 30.1798 51.29 30.8398 51.08L28.3998 45.61C28.0498 45.72 27.6998 45.82 27.3398 45.91Z" fill="#FADDDC"/>
<path d="M52.1699 22.96C50.5999 22.47 48.9399 23.34 48.4399 24.91C48.3899 25.08 43.1599 41.14 28.3899 45.61L30.8299 51.08C48.0999 45.43 53.8699 27.47 54.1099 26.68C54.5999 25.11 53.7199 23.45 52.1599 22.96H52.1699Z" fill="#777777"/>
<path d="M47.9502 57.16L66.7802 56.73C67.5102 56.71 68.0702 56.07 67.9802 55.35L65.8802 37.24C69.8902 36.47 68.5502 26.05 57.2502 21.74H52.9002C51.4102 21.74 50.0002 22.48 49.2202 23.75C44.2602 31.81 46.1302 51.21 46.6902 56.07C46.7602 56.71 47.3102 57.17 47.9502 57.16Z" fill="#9A9A99"/>
<path d="M71.91 58.1C71.69 59.73 72.84 61.22 74.47 61.44C75.81 61.62 77.06 60.88 77.58 59.7C77.69 59.45 77.77 59.17 77.81 58.88C77.9 58.17 77.97 57.48 78.02 56.79L72.04 57.01C72.01 57.37 71.97 57.74 71.92 58.1H71.91Z" fill="#FADDDC"/>
<path d="M59.9099 26.49C58.8699 27.76 59.0599 29.63 60.3199 30.67C60.4499 30.78 73.3999 41.63 72.0199 57L77.9999 56.78C79.2199 38.66 64.7199 26.59 64.0799 26.06C62.8099 25.02 60.9399 25.21 59.8999 26.48L59.9099 26.49Z" fill="#9A9A99"/>
<path d="M57.4202 7.67004H47.0302V11.16V16.97C47.0302 18.79 48.5102 20.27 50.3302 20.27H51.3802C51.8902 20.27 52.3102 20.68 52.3102 21.2V24.68L57.2202 22.02L57.4302 7.68004L57.4202 7.67004Z" fill="#FADDDC"/>
<path d="M47.35 17.14L46.75 16.97C46.21 16.82 45.89 16.25 46.04 15.71L46.87 12.75C46.93 12.52 47.17 12.39 47.39 12.46C47.61 12.53 47.75 12.76 47.68 12.98L46.96 15.54C46.87 15.85 47.05 16.17 47.36 16.25L47.57 16.31C47.8 16.37 47.93 16.61 47.86 16.83C47.79 17.05 47.56 17.19 47.34 17.12L47.35 17.14Z" fill="#E0B1BB"/>
<path d="M48.8102 12.71C48.8102 13.02 49.0602 13.27 49.3702 13.27C49.6802 13.27 49.9302 13.02 49.9302 12.71C49.9302 12.4 49.6802 12.15 49.3702 12.15C49.0602 12.15 48.8102 12.4 48.8102 12.71Z" fill="#757570"/>
<path d="M54.31 12.42C54.31 11.8898 54.7398 11.46 55.27 11.46C55.8002 11.46 56.23 11.8898 56.23 12.42V14.51C56.23 15.0402 55.8002 15.47 55.27 15.47C54.7398 15.47 54.31 15.0402 54.31 14.51V12.42Z" fill="#FADDDC"/>
<path d="M52.31 24.68L57.46 21.54L59.25 22.59L54.45 26.43C53.82 26.93 52.88 26.64 52.66 25.87L52.31 24.68Z" fill="white"/>
<path d="M52.3099 24.68L50.7299 25.34C50.1899 25.57 49.6699 25 49.9299 24.48C49.9299 24.48 52.2599 21.72 52.2899 21.6C52.3199 21.48 52.3099 24.68 52.3099 24.68Z" fill="white"/>
<path d="M51.54 4.01006C54.52 4.20006 56.75 4.71006 58.12 6.03006C59.21 7.07006 59.83 8.73006 59.92 10.2101C60.28 16.2901 57.46 17.5501 57.22 17.2501C57.13 17.1301 57.41 12.8301 57.41 12.8301C57.41 12.3001 56.98 11.8701 56.45 11.8701C55.92 11.8701 55.49 12.3001 55.49 12.8301C55.49 12.8301 55.56 14.1201 55.51 14.1001C49.69 11.5601 48.96 9.94006 47.34 7.77006C47.24 7.63006 47.19 10.9001 47.19 10.9001C47.19 10.9001 45.33 10.5401 45.69 8.33006C46.01 6.37006 48.32 3.81006 51.54 4.01006Z" fill="#3E2967"/>
<path d="M54.9298 4.46997L59.5298 5.15997L58.3498 6.59997L54.9298 4.46997Z" fill="#3E2967"/>
</g>
<defs>
<clipPath id="clip0_1217_2753">
<rect width="59.89" height="101.64" fill="white" transform="matrix(-1 0 0 1 85 4)"/>
</clipPath>
</defs>
</svg>
