<svg width="110" height="110" viewBox="0 0 110 110" fill="none" xmlns="http://www.w3.org/2000/svg">
<g clip-path="url(#clip0_1217_2364)">
<path d="M57.24 55.5H42.93L41.51 100.32L44.04 100.5C44.04 101.18 43.64 102.46 43.18 102.82C42.64 103.25 41.21 103.73 40.69 104.2C40.08 104.76 40.4 105.98 41.16 105.98H44.24H45.03C45.73 105.98 46.34 105.38 46.51 104.52L46.58 100.74L48.11 100.7C49.3 94.43 50.51 84.46 51.56 78.07C52.3 73.59 53 69.12 53.66 64.67C53.81 63.69 54.52 62.98 55.35 62.98H56.86C57.7 62.98 58.41 63.69 58.55 64.67C59.21 69.13 61.72 92.41 63.13 99.51C63.21 99.91 64.82 99.38 64.9 99.79C65.15 101.07 64.72 102.39 63.84 103.11C63.41 103.46 63 103.82 62.59 104.2C61.97 104.76 62.29 105.99 63.05 105.99H66.13L68.13 105.22C70.11 103.74 67.64 102.58 68.57 99.78L70.22 99.23L69.28 62.97V55.48H57.24V55.5Z" fill="#3E2967"/>
<path d="M58.51 8.78006L48.16 7.81006L47.29 17.0701C47.12 18.8801 48.45 20.4901 50.27 20.6601L51.31 20.7601C51.82 20.8101 52.19 21.2601 52.15 21.7701L52.05 22.8301L57.1 23.3001L58.5 8.77006L58.51 8.78006Z" fill="#FADDDC"/>
<path d="M50.6201 17.6799L50.0001 17.6199C49.4401 17.5699 49.0301 17.0699 49.0801 16.5099L49.3701 13.4499C49.3901 13.2199 49.6001 13.0399 49.8301 13.0699C50.0601 13.0999 50.2401 13.2999 50.2101 13.5299L49.9601 16.1799C49.9301 16.4999 50.1601 16.7799 50.4801 16.8099L50.7001 16.8299C50.9301 16.8499 51.1101 17.0599 51.0801 17.2899C51.0501 17.5199 50.8501 17.6999 50.6201 17.6699V17.6799Z" fill="#E0B1BB"/>
<path d="M59.3599 7.33992L59.6499 5.69992L52.4699 5.01992C50.4599 4.82992 48.5499 5.94992 47.7299 7.79992L45.9399 11.8499L47.6599 12.0099C51.9999 11.8599 54.3299 8.80992 54.3299 8.80992C54.6799 13.1699 57.9499 15.2599 57.9499 15.2599C57.9499 15.2599 59.1999 13.6599 59.9299 11.7299C60.5099 10.1899 59.7199 8.11992 59.3699 7.33992H59.3599Z" fill="#3E2967"/>
<path d="M52.79 13.8601C52.76 14.1701 52.99 14.4401 53.29 14.4701C53.59 14.5001 53.87 14.2701 53.9 13.9701C53.93 13.6701 53.7 13.3901 53.4 13.3601C53.1 13.3301 52.82 13.5601 52.79 13.8601Z" fill="#757570"/>
<path d="M20.0899 16.21C18.9299 15.04 17.0499 15.03 15.8799 16.19C14.9199 17.14 14.7399 18.58 15.3499 19.71C15.4799 19.96 15.6499 20.19 15.8599 20.39C16.3599 20.9 16.8699 21.38 17.3899 21.83L20.8799 16.96C20.6099 16.71 20.3499 16.46 20.0899 16.2V16.21Z" fill="#FADDDC"/>
<path d="M52.4199 26.08C52.0499 24.48 50.4599 23.48 48.8599 23.84C48.6899 23.88 32.1799 27.46 20.8799 16.96L17.3899 21.83C30.9699 33.9 49.3899 29.83 50.1999 29.64C51.7999 29.27 52.7899 27.68 52.4299 26.08H52.4199Z" fill="#9A9A99"/>
<path d="M67.84 60.07C67.43 61.66 68.39 63.28 69.98 63.69C70.05 63.71 70.12 63.72 70.19 63.74C71.71 64.02 73.21 63.07 73.6 61.55C73.73 61.05 73.85 60.56 73.96 60.07L68.09 59C68.01 59.36 67.93 59.71 67.84 60.07Z" fill="#FADDDC"/>
<path d="M65 24.3101C63.74 23.2701 61.88 23.4601 60.83 24.7201C59.79 25.9801 59.96 27.8501 61.21 28.9001C61.69 29.3101 72.77 38.9001 68.08 59.0101L73.95 60.0801C79.34 36.4201 65.6 24.8101 65 24.3201V24.3101Z" fill="#9A9A99"/>
<path d="M69.1101 56.3801H42.7801C41.8601 56.3801 41.1201 55.6001 41.1701 54.6801L42.4001 31.9201C42.4001 26.8901 46.4801 22.8101 51.5101 22.8101H60.2101C65.2401 22.8101 69.3201 26.8901 69.3201 31.9201L70.7101 54.6701C70.7701 55.6001 70.0301 56.3801 69.1001 56.3801H69.1101Z" fill="#9A9A99"/>
<path d="M55.38 22.77H50.26V25.22C50.26 26.17 51.41 26.64 52.08 25.97L55.3 22.85L58.59 26C59.26 26.67 60.41 26.2 60.41 25.25V22.77H55.39H55.38Z" fill="white"/>
</g>
<defs>
<clipPath id="clip0_1217_2364">
<rect width="60.21" height="101.01" fill="white" transform="translate(15 5)"/>
</clipPath>
</defs>
</svg>
