<svg width="110" height="110" viewBox="0 0 110 110" fill="none" xmlns="http://www.w3.org/2000/svg">
<g clip-path="url(#clip0_1217_2601)">
<path d="M60.9799 55.52L48.1299 55.6L61.0699 79.25L67.4099 102.48L71.1899 101.76L72.0899 103.53C73.0199 105.52 73.1399 106.37 74.6799 105.6L78.5099 104.1C79.2099 103.75 79.0999 102.74 78.2799 102.49C77.7399 102.33 76.9099 102.3 76.3499 102.27C74.2699 102.17 74.5499 100.72 74.2199 99.4C72.2199 91.52 71.3199 85.19 69.0499 77.24C67.7599 72.68 60.9699 55.52 60.9699 55.52H60.9799Z" fill="#291B4C"/>
<path d="M59.3299 55.5999L43.6799 55.1899L37.5799 76.7799L24.3999 94.2399L27.5299 96.9999C27.2499 97.4999 26.7599 98.3199 26.2899 98.6399C25.5999 99.0999 24.6999 99.9699 25.5099 101L30.4699 104.85C31.1899 105.16 31.9599 104.1 31.5999 103.3C31.3599 102.77 30.5399 101.59 30.2699 101.09C29.7199 100.04 30.3799 99.2499 31.0999 98.1099C35.4299 91.3199 45.5399 80.9299 45.5399 80.9299L59.3199 55.5999H59.3299Z" fill="#3F3072"/>
<path d="M35.7998 47.95C35.2198 49.49 33.5098 50.27 31.9698 49.69C30.7098 49.22 29.9598 47.97 30.0498 46.69C30.0698 46.41 30.1298 46.13 30.2298 45.86C30.4798 45.19 30.7498 44.55 31.0298 43.92L36.2098 46.93C36.0698 47.26 35.9298 47.6 35.7998 47.95Z" fill="#FADDDC"/>
<path d="M61.28 25.7199C61.6 27.3299 60.55 28.8899 58.95 29.2199C58.78 29.2499 42.25 32.7299 36.22 46.9399L31.04 43.9299C38.5 27.3699 56.98 23.5499 57.79 23.3899C59.4 23.0699 60.96 24.1199 61.28 25.7299V25.7199Z" fill="#777777"/>
<path d="M62.06 57.16L43.23 56.73C42.5 56.71 41.94 56.07 42.03 55.35L43.74 38.17C43.81 37.51 43.85 36.84 43.86 36.17C43.86 30.21 42.48 25.28 52.75 21.74C52.75 21.74 55.23 21.74 57.1 21.74C58.59 21.74 60 22.48 60.78 23.75C65.74 31.81 63.87 51.21 63.31 56.07C63.24 56.71 62.69 57.17 62.05 57.16H62.06Z" fill="#9A9A99"/>
<path d="M48.9198 26.88C50.5298 27.22 51.3398 31.39 51.5898 33.01C51.8798 34.88 53.2498 34.41 63.9498 45.53L63.7898 48.99C51.5998 40.92 45.2298 29.97 45.3998 29.16C45.7398 27.56 47.3098 26.53 48.9198 26.87V26.88Z" fill="#777777"/>
<path d="M76.02 42.9999C77.66 43.0399 78.96 44.4099 78.91 46.0499C78.87 47.3999 77.94 48.5099 76.7 48.8399C76.43 48.9099 76.15 48.9499 75.85 48.9399C75.14 48.9199 74.44 48.8799 73.75 48.8099L74.91 42.9399C75.27 42.9699 75.64 42.9899 76.01 42.9999H76.02Z" fill="#FADDDC"/>
<path d="M46.7 26.16C48.12 25.33 49.94 25.81 50.77 27.23C50.86 27.38 59.53 41.87 74.92 42.95L73.76 48.82C55.67 47.16 46.05 30.93 45.63 30.22C44.81 28.8 45.29 26.99 46.71 26.16H46.7Z" fill="#9A9A99"/>
<path d="M52.5798 7.67004H62.9698V11.16V16.97C62.9698 18.79 61.4898 20.27 59.6698 20.27H58.6198C58.1098 20.27 57.6898 20.68 57.6898 21.2V24.68L52.7798 22.02L52.5698 7.68004L52.5798 7.67004Z" fill="#FADDDC"/>
<path d="M62.65 17.14L63.25 16.97C63.79 16.82 64.11 16.25 63.96 15.71L63.13 12.75C63.07 12.52 62.83 12.39 62.61 12.46C62.39 12.53 62.25 12.76 62.32 12.98L63.04 15.54C63.13 15.85 62.95 16.17 62.64 16.25L62.43 16.31C62.2 16.37 62.07 16.61 62.14 16.83C62.21 17.05 62.44 17.19 62.66 17.12L62.65 17.14Z" fill="#E0B1BB"/>
<path d="M61.2001 12.71C61.2001 13.02 60.9501 13.27 60.6401 13.27C60.3301 13.27 60.0801 13.02 60.0801 12.71C60.0801 12.4 60.3301 12.15 60.6401 12.15C60.9501 12.15 61.2001 12.4 61.2001 12.71Z" fill="#757570"/>
<path d="M55.69 12.42C55.69 11.8898 55.2602 11.46 54.73 11.46C54.1998 11.46 53.77 11.8898 53.77 12.42V14.51C53.77 15.0402 54.1998 15.47 54.73 15.47C55.2602 15.47 55.69 15.0402 55.69 14.51V12.42Z" fill="#FADDDC"/>
<path d="M57.6998 24.68L52.5498 21.54L50.7598 22.59L55.5598 26.43C56.1898 26.93 57.1298 26.64 57.3498 25.87L57.6998 24.68Z" fill="white"/>
<path d="M57.6998 24.68L59.2798 25.34C59.8198 25.57 60.3398 25 60.0798 24.48C60.0798 24.48 57.7498 21.72 57.7198 21.6C57.6898 21.48 57.6998 24.68 57.6998 24.68Z" fill="white"/>
<path d="M58.4698 4.01006C55.4898 4.20006 53.2598 4.71006 51.8898 6.03006C50.7998 7.07006 50.1798 8.73006 50.0898 10.2101C49.7298 16.2901 52.5498 17.5501 52.7898 17.2501C52.8798 17.1301 52.5998 12.8301 52.5998 12.8301C52.5998 12.3001 53.0298 11.8701 53.5598 11.8701C54.0898 11.8701 54.5198 12.3001 54.5198 12.8301C54.5198 12.8301 54.4498 14.1201 54.4998 14.1001C60.3198 11.5601 61.0498 9.94006 62.6698 7.77006C62.7698 7.63006 62.8198 10.9001 62.8198 10.9001C62.8198 10.9001 64.6798 10.5401 64.3198 8.33006C63.9998 6.37006 61.6898 3.81006 58.4698 4.01006Z" fill="#3E2967"/>
<path d="M55.0697 4.46997L50.4697 5.15997L51.6597 6.59997L55.0697 4.46997Z" fill="#3E2967"/>
</g>
<defs>
<clipPath id="clip0_1217_2601">
<rect width="54.57" height="101.88" fill="white" transform="translate(24.3999 4)"/>
</clipPath>
</defs>
</svg>
