<svg width="44" height="99" viewBox="0 0 44 99" fill="none" xmlns="http://www.w3.org/2000/svg">
<g clip-path="url(#clip0_106_769)">
<path d="M18.95 3.17004H29.34L29.42 8.16004C29.42 9.98004 29.71 13.29 26.92 15.08L25 15.77C24.49 15.77 24.07 16.18 24.07 16.7V17.77H19L18.9599 3.18004L18.95 3.17004Z" fill="#FADDDC"/>
<path d="M18.2401 1.66L18.1001 0H25.3201C27.3401 0 29.1401 1.29 29.7801 3.21L31.1901 7.41H29.4701C25.1601 6.85 23.1301 3.61 23.1301 3.61C22.3701 7.92 18.9201 9.7 18.9201 9.7C18.9201 9.7 17.8201 7.99 17.2801 6C16.8501 4.41 17.8301 2.43 18.2501 1.68L18.2401 1.66Z" fill="#3E2967"/>
<path d="M37.0101 52.2601C36.6901 53.8701 37.7401 55.4401 39.3501 55.7501C40.6701 56.0101 41.9701 55.3501 42.5601 54.2101C42.6901 53.9601 42.7901 53.6901 42.8401 53.4101C42.9801 52.7101 43.0901 52.0201 43.1801 51.3401L37.1901 51.1801C37.1301 51.5401 37.0701 51.9001 37.0001 52.2601H37.0101Z" fill="#FADDDC"/>
<path d="M27.0301 19.96C25.9101 21.16 25.9801 23.04 27.1801 24.16C27.3101 24.28 39.5401 35.93 37.2001 51.18L43.1901 51.34C45.5501 33.33 31.8401 20.37 31.2401 19.8C30.0401 18.68 28.1601 18.76 27.0401 19.96H27.0301Z" fill="#9A9A99"/>
<path d="M5.69006 48.8499C5.80006 50.3799 4.65006 51.7099 3.11006 51.8199C3.04006 51.8199 2.98006 51.8199 2.91006 51.8199C1.46006 51.8199 0.240059 50.6999 0.140059 49.2399C0.110059 48.7599 0.0800586 48.2899 0.0600586 47.8199H5.64006C5.66006 48.1599 5.67006 48.4999 5.69006 48.8499Z" fill="#FADDDC"/>
<path d="M12.2201 18.89C13.5601 18.15 15.2401 18.63 15.9901 19.96C16.7401 21.29 16.2701 22.99 14.9401 23.75C14.4301 24.04 4.69005 28.54 5.64005 47.83H0.0600529C-0.949947 25.14 11.5901 19.24 12.2201 18.89Z" fill="#9A9A99"/>
<path d="M7.64989 51.29H34.5699L34.5599 26.83C34.5599 21.8 30.4799 17.72 25.4499 17.72H16.7499C11.7199 17.72 7.63989 21.8 7.63989 26.83L7.65989 51.29H7.64989Z" fill="#9A9A99"/>
<path d="M7.63989 51.29H19.9399H34.5599C34.5599 51.29 26.4899 91.79 27.8299 91.29C28.4699 91.05 28.8699 90.94 29.3999 91.37C30.0299 91.87 29.5499 93.33 28.9899 94.11L23.2799 98.1C21.0299 97.64 21.3299 96.1 21.7799 94.91C22.0699 94.12 22.2499 93.3 22.2799 92.46C22.4699 87.21 23.3999 63.77 23.5499 59.87C23.5899 58.98 22.7299 58.01 21.8699 58.01H20.3299C19.4799 58.01 18.7499 58.65 18.5999 59.53C17.9199 63.53 18.8099 66.54 19.0599 78.69C19.0599 78.69 18.9099 82.29 18.6699 83.14C18.3199 84.36 16.8999 84.18 16.4099 83.28C15.9899 82.5 15.5599 79.31 15.4799 78.69H14.0699L7.63989 51.28V51.29Z" fill="#3E2967"/>
<path d="M16.46 7.87002C16.46 12.1 19.33 15.53 22.87 15.53C26.41 15.53 29.28 12.1 29.28 7.87002C29.28 3.64002 24.86 0.650024 21.32 0.650024C17.78 0.650024 16.46 3.64002 16.46 7.87002Z" fill="#3E2967"/>
</g>
<defs>
<clipPath id="clip0_106_769">
<rect width="43.45" height="98.11" fill="white"/>
</clipPath>
</defs>
</svg>
