<svg width="110" height="110" viewBox="0 0 110 110" fill="none" xmlns="http://www.w3.org/2000/svg">
<g clip-path="url(#clip0_1217_2772)">
<path d="M50.1102 54.2L64.7402 53.58L52.0802 73.79L57.9802 93.56L55.6302 94.27V96.21C55.8102 97.57 55.8102 98.46 54.2902 99.25L50.3802 100.2C49.6102 100.26 49.2502 99.35 49.8502 98.74C50.2502 98.33 51.0902 98.04 51.4502 97.59C53.0202 95.57 52.2002 95.1 51.9002 93.82C50.4602 87.68 46.0102 78.14 44.3302 74.66C43.9202 73.8 43.8602 72.82 44.1602 71.91L50.1002 54.2H50.1102Z" fill="#291B4C"/>
<path d="M50.1699 55.8701L65.1099 55.4301L63.3499 74.9801L63.7799 100.73L61.4599 101.45C61.4499 102.02 61.4599 102.96 61.7099 103.47C62.0699 104.23 62.4199 105.43 61.2199 105.83L55.1299 106.26C54.3699 106.12 54.2299 104.83 54.9299 104.38C55.3899 104.08 56.6599 103.56 57.1399 103.29C58.1199 102.73 58.0799 101.71 57.8899 100.4C56.5099 90.9101 50.1799 55.8701 50.1799 55.8701H50.1699Z" fill="#3E2C6D"/>
<path d="M67.0602 53.51C67.1702 55.15 68.5802 56.39 70.2202 56.28C71.5702 56.19 72.6502 55.22 72.9302 53.97C72.9902 53.7 73.0202 53.41 73.0002 53.12C72.9502 52.41 72.8802 51.71 72.7902 51.03L66.9602 52.41C67.0002 52.77 67.0302 53.13 67.0602 53.5V53.51Z" fill="#FADDDC"/>
<path d="M49.12 24.86C48.35 26.31 48.9 28.11 50.34 28.88C50.49 28.96 65.3 37.08 66.96 52.42L72.79 51.04C70.45 33.03 53.87 24.02 53.14 23.63C51.69 22.86 49.9 23.41 49.12 24.86Z" fill="#777777"/>
<path d="M48 57.16L66.83 56.73C67.56 56.71 68.12 56.07 68.03 55.35L66.32 38.17C66.25 37.51 66.21 36.84 66.2 36.17C66.2 30.21 67.58 25.28 57.31 21.74C57.31 21.74 54.83 21.74 52.96 21.74C51.47 21.74 50.06 22.48 49.28 23.75C44.32 31.81 46.19 51.21 46.75 56.07C46.82 56.71 47.37 57.17 48.01 57.16H48Z" fill="#9A9A99"/>
<path d="M61.1402 26.88C59.5302 27.22 58.7202 31.39 58.4702 33.01C58.1802 34.88 62.4702 46 51.7702 57.12L60.2002 56.82C65.7202 54.76 64.8302 29.98 64.6602 29.17C64.3202 27.57 62.7502 26.54 61.1402 26.88Z" fill="#777777"/>
<path d="M50.8499 58.13C49.6599 59.26 49.6199 61.15 50.7499 62.34C51.6799 63.32 53.1199 63.52 54.2599 62.93C54.5099 62.8 54.7399 62.64 54.9499 62.44C55.4699 61.95 55.9499 61.45 56.4199 60.94L51.6199 57.36C51.3699 57.62 51.1099 57.88 50.8399 58.14L50.8499 58.13Z" fill="#FADDDC"/>
<path d="M61.3099 25.98C59.6999 26.32 58.6799 27.89 59.0099 29.5C59.0499 29.67 62.3299 46.24 51.6299 57.36L56.4299 60.9399C68.7399 47.5799 64.9999 29.09 64.8299 28.28C64.4899 26.68 62.9199 25.65 61.3099 25.99V25.98Z" fill="#9A9A99"/>
<path d="M57.4802 7.67004H47.0902V11.16V16.97C47.0902 18.79 48.5702 20.27 50.3902 20.27H51.4402C51.9502 20.27 52.3702 20.68 52.3702 21.2V24.68L57.2802 22.02L57.4902 7.68004L57.4802 7.67004Z" fill="#FADDDC"/>
<path d="M47.3998 17.14L46.7998 16.97C46.2598 16.82 45.9398 16.25 46.0898 15.71L46.9198 12.75C46.9798 12.52 47.2198 12.39 47.4398 12.46C47.6598 12.53 47.7998 12.76 47.7298 12.98L47.0098 15.54C46.9198 15.85 47.0998 16.17 47.4098 16.25L47.6198 16.31C47.8498 16.37 47.9798 16.61 47.9098 16.83C47.8398 17.05 47.6098 17.19 47.3898 17.12L47.3998 17.14Z" fill="#E0B1BB"/>
<path d="M48.86 12.71C48.86 13.02 49.11 13.27 49.42 13.27C49.73 13.27 49.98 13.02 49.98 12.71C49.98 12.4 49.73 12.15 49.42 12.15C49.11 12.15 48.86 12.4 48.86 12.71Z" fill="#757570"/>
<path d="M54.3598 12.42C54.3598 11.8898 54.7896 11.46 55.3198 11.46C55.85 11.46 56.2798 11.8898 56.2798 12.42V14.51C56.2798 15.0402 55.85 15.47 55.3198 15.47C54.7896 15.47 54.3598 15.0402 54.3598 14.51V12.42Z" fill="#FADDDC"/>
<path d="M52.3598 24.68L57.5098 21.54L59.2998 22.59L54.4998 26.43C53.8698 26.93 52.9298 26.64 52.7098 25.87L52.3598 24.68Z" fill="white"/>
<path d="M52.3602 24.68L50.7802 25.34C50.2402 25.57 49.7202 25 49.9802 24.48C49.9802 24.48 52.3102 21.72 52.3402 21.6C52.3702 21.48 52.3602 24.68 52.3602 24.68Z" fill="white"/>
<path d="M51.5898 4.01006C54.5698 4.20006 56.7998 4.71006 58.1698 6.03006C59.2598 7.07006 59.8798 8.73006 59.9698 10.2101C60.3298 16.2901 57.5098 17.5501 57.2698 17.2501C57.1798 17.1301 57.4598 12.8301 57.4598 12.8301C57.4598 12.3001 57.0298 11.8701 56.4998 11.8701C55.9698 11.8701 55.5398 12.3001 55.5398 12.8301C55.5398 12.8301 55.6098 14.1201 55.5598 14.1001C49.7398 11.5601 49.0098 9.94006 47.3898 7.77006C47.2898 7.63006 47.2398 10.9001 47.2398 10.9001C47.2398 10.9001 45.3798 10.5401 45.7398 8.33006C46.0698 6.37006 48.3698 3.81006 51.5898 4.01006Z" fill="#3E2967"/>
<path d="M54.9898 4.46997L59.5898 5.15997L58.3998 6.59997L54.9898 4.46997Z" fill="#3E2967"/>
</g>
<defs>
<clipPath id="clip0_1217_2772">
<rect width="29.03" height="102.26" fill="white" transform="matrix(-1 0 0 1 73 4)"/>
</clipPath>
</defs>
</svg>
