<svg width="110" height="110" viewBox="0 0 110 110" fill="none" xmlns="http://www.w3.org/2000/svg">
<g clip-path="url(#clip0_1217_2525)">
<path d="M59.89 54.2L45.26 53.58L57.92 73.79L52.02 93.56L54.37 94.27V96.21C54.19 97.57 54.19 98.46 55.71 99.25L59.62 100.2C60.39 100.26 60.75 99.35 60.15 98.74C59.75 98.33 58.91 98.04 58.55 97.59C56.98 95.57 57.8 95.1 58.1 93.82C59.54 87.68 63.99 78.14 65.67 74.66C66.08 73.8 66.14 72.82 65.84 71.91L59.9 54.2H59.89Z" fill="#291B4C"/>
<path d="M59.8299 55.8701L44.8899 55.4301L46.6499 74.9801L46.2199 100.73L48.5399 101.45C48.5499 102.02 48.5399 102.96 48.2899 103.47C47.9299 104.23 47.5799 105.43 48.7799 105.83L54.8699 106.26C55.6299 106.12 55.7699 104.83 55.0699 104.38C54.6099 104.08 53.3399 103.56 52.8599 103.29C51.8799 102.73 51.9199 101.71 52.1099 100.4C53.4899 90.9101 59.8199 55.8701 59.8199 55.8701H59.8299Z" fill="#3E2C6D"/>
<path d="M42.9401 53.51C42.8301 55.15 41.4201 56.39 39.7801 56.28C38.4301 56.19 37.3501 55.22 37.0701 53.97C37.0101 53.7 36.9801 53.41 37.0001 53.12C37.0501 52.41 37.1201 51.71 37.2101 51.03L43.0401 52.41C43.0001 52.77 42.9701 53.13 42.9401 53.5V53.51Z" fill="#FADDDC"/>
<path d="M60.88 24.86C61.65 26.31 61.1 28.11 59.66 28.88C59.51 28.96 44.7 37.08 43.04 52.42L37.21 51.04C39.55 33.03 56.13 24.02 56.86 23.63C58.31 22.86 60.1 23.41 60.88 24.86Z" fill="#777777"/>
<path d="M62 57.16L43.17 56.73C42.44 56.71 41.88 56.07 41.97 55.35L43.68 38.17C43.75 37.51 43.79 36.84 43.8 36.17C43.8 30.21 42.42 25.28 52.69 21.74C52.69 21.74 55.17 21.74 57.04 21.74C58.53 21.74 59.94 22.48 60.72 23.75C65.68 31.81 63.81 51.21 63.25 56.07C63.18 56.71 62.63 57.17 61.99 57.16H62Z" fill="#9A9A99"/>
<path d="M48.8601 26.88C50.4701 27.22 51.2801 31.39 51.5301 33.01C51.8201 34.88 47.5301 46 58.2301 57.12L49.8001 56.82C44.2801 54.76 45.1701 29.98 45.3401 29.17C45.6801 27.57 47.2501 26.54 48.8601 26.88Z" fill="#777777"/>
<path d="M59.1501 58.13C60.3401 59.26 60.3801 61.15 59.2501 62.34C58.3201 63.32 56.8801 63.52 55.7401 62.93C55.4901 62.8 55.2601 62.64 55.0501 62.44C54.5301 61.95 54.0501 61.45 53.5801 60.94L58.3801 57.36C58.6301 57.62 58.8901 57.88 59.1601 58.14L59.1501 58.13Z" fill="#FADDDC"/>
<path d="M48.6901 25.98C50.3001 26.32 51.3201 27.89 50.9901 29.5C50.9501 29.67 47.6701 46.24 58.3701 57.36L53.5701 60.9399C41.2601 47.5799 45.0001 29.09 45.1701 28.28C45.5101 26.68 47.0801 25.65 48.6901 25.99V25.98Z" fill="#9A9A99"/>
<path d="M52.52 7.67004H62.91V11.16V16.97C62.91 18.79 61.43 20.27 59.61 20.27H58.56C58.05 20.27 57.63 20.68 57.63 21.2V24.68L52.72 22.02L52.51 7.68004L52.52 7.67004Z" fill="#FADDDC"/>
<path d="M62.6 17.14L63.2 16.97C63.74 16.82 64.06 16.25 63.91 15.71L63.08 12.75C63.02 12.52 62.78 12.39 62.56 12.46C62.34 12.53 62.2 12.76 62.27 12.98L62.99 15.54C63.08 15.85 62.9 16.17 62.59 16.25L62.38 16.31C62.15 16.37 62.02 16.61 62.09 16.83C62.16 17.05 62.39 17.19 62.61 17.12L62.6 17.14Z" fill="#E0B1BB"/>
<path d="M61.14 12.71C61.14 13.02 60.89 13.27 60.58 13.27C60.27 13.27 60.02 13.02 60.02 12.71C60.02 12.4 60.27 12.15 60.58 12.15C60.89 12.15 61.14 12.4 61.14 12.71Z" fill="#757570"/>
<path d="M55.64 12.42C55.64 11.8898 55.2102 11.46 54.68 11.46C54.1498 11.46 53.72 11.8898 53.72 12.42V14.51C53.72 15.0402 54.1498 15.47 54.68 15.47C55.2102 15.47 55.64 15.0402 55.64 14.51V12.42Z" fill="#FADDDC"/>
<path d="M57.64 24.68L52.49 21.54L50.7 22.59L55.5 26.43C56.13 26.93 57.07 26.64 57.29 25.87L57.64 24.68Z" fill="white"/>
<path d="M57.64 24.68L59.22 25.34C59.76 25.57 60.28 25 60.02 24.48C60.02 24.48 57.69 21.72 57.66 21.6C57.63 21.48 57.64 24.68 57.64 24.68Z" fill="white"/>
<path d="M58.41 4.01006C55.43 4.20006 53.2 4.71006 51.83 6.03006C50.74 7.07006 50.12 8.73006 50.03 10.2101C49.67 16.2901 52.49 17.5501 52.73 17.2501C52.82 17.1301 52.54 12.8301 52.54 12.8301C52.54 12.3001 52.97 11.8701 53.5 11.8701C54.03 11.8701 54.46 12.3001 54.46 12.8301C54.46 12.8301 54.39 14.1201 54.44 14.1001C60.26 11.5601 60.99 9.94006 62.61 7.77006C62.71 7.63006 62.76 10.9001 62.76 10.9001C62.76 10.9001 64.62 10.5401 64.26 8.33006C63.93 6.37006 61.63 3.81006 58.41 4.01006Z" fill="#3E2967"/>
<path d="M55.0099 4.46997L50.4099 5.15997L51.5999 6.59997L55.0099 4.46997Z" fill="#3E2967"/>
</g>
<defs>
<clipPath id="clip0_1217_2525">
<rect width="29.03" height="102.26" fill="white" transform="translate(37 4)"/>
</clipPath>
</defs>
</svg>
