<svg width="110" height="110" viewBox="0 0 110 110" fill="none" xmlns="http://www.w3.org/2000/svg">
<g clip-path="url(#clip0_1217_2792)">
<path d="M49.0201 55.52L61.8701 55.6L48.9301 79.25L42.5901 102.48L38.8101 101.76L37.9101 103.53C36.9801 105.52 36.8601 106.37 35.3201 105.6L31.4901 104.1C30.7901 103.75 30.9001 102.74 31.7201 102.49C32.2601 102.33 33.0901 102.3 33.6501 102.27C35.7301 102.17 35.4501 100.72 35.7801 99.4C37.7801 91.52 38.6801 85.19 40.9501 77.24C42.2401 72.68 49.0301 55.52 49.0301 55.52H49.0201Z" fill="#291B4C"/>
<path d="M50.6701 55.5999L66.3201 55.1899L72.4201 76.7799L85.6001 94.2399L82.4701 96.9999C82.7501 97.4999 83.2401 98.3199 83.7101 98.6399C84.4001 99.0999 85.3001 99.9699 84.4901 101L79.5301 104.85C78.8101 105.16 78.0401 104.1 78.4001 103.3C78.6401 102.77 79.4601 101.59 79.7301 101.09C80.2801 100.04 79.6201 99.2499 78.9001 98.1099C74.5701 91.3199 64.4601 80.9299 64.4601 80.9299L50.6801 55.5999H50.6701Z" fill="#3F3072"/>
<path d="M74.2 47.95C74.78 49.49 76.49 50.27 78.03 49.69C79.29 49.22 80.04 47.97 79.95 46.69C79.93 46.41 79.87 46.13 79.77 45.86C79.52 45.19 79.25 44.55 78.97 43.92L73.79 46.93C73.93 47.26 74.07 47.6 74.2 47.95Z" fill="#FADDDC"/>
<path d="M48.7202 25.7199C48.4002 27.3299 49.4502 28.8899 51.0502 29.2199C51.2202 29.2499 67.7502 32.7299 73.7802 46.9399L78.9602 43.9299C71.5002 27.3699 53.0202 23.5499 52.2102 23.3899C50.6002 23.0699 49.0402 24.1199 48.7202 25.7299V25.7199Z" fill="#777777"/>
<path d="M47.94 57.16L66.77 56.73C67.5 56.71 68.06 56.07 67.97 55.35L66.26 38.17C66.19 37.51 66.15 36.84 66.14 36.17C66.14 30.21 67.52 25.28 57.25 21.74C57.25 21.74 54.77 21.74 52.9 21.74C51.41 21.74 50 22.48 49.22 23.75C44.26 31.81 46.13 51.21 46.69 56.07C46.76 56.71 47.31 57.17 47.95 57.16H47.94Z" fill="#9A9A99"/>
<path d="M61.0802 26.88C59.4702 27.22 58.6602 31.39 58.4102 33.01C58.1202 34.88 56.7502 34.41 46.0502 45.53L46.2102 48.99C58.4002 40.92 64.7702 29.97 64.6002 29.16C64.2602 27.56 62.6902 26.53 61.0802 26.87V26.88Z" fill="#777777"/>
<path d="M33.98 42.9999C32.34 43.0399 31.04 44.4099 31.09 46.0499C31.13 47.3999 32.06 48.5099 33.3 48.8399C33.57 48.9099 33.85 48.9499 34.15 48.9399C34.86 48.9199 35.56 48.8799 36.25 48.8099L35.09 42.9399C34.73 42.9699 34.36 42.9899 33.99 42.9999H33.98Z" fill="#FADDDC"/>
<path d="M63.3 26.16C61.88 25.33 60.06 25.81 59.23 27.23C59.14 27.38 50.47 41.87 35.08 42.95L36.24 48.82C54.33 47.16 63.95 30.93 64.37 30.22C65.19 28.8 64.71 26.99 63.29 26.16H63.3Z" fill="#9A9A99"/>
<path d="M57.4202 7.67004H47.0302V11.16V16.97C47.0302 18.79 48.5102 20.27 50.3302 20.27H51.3802C51.8902 20.27 52.3102 20.68 52.3102 21.2V24.68L57.2202 22.02L57.4302 7.68004L57.4202 7.67004Z" fill="#FADDDC"/>
<path d="M47.3502 17.14L46.7502 16.97C46.2102 16.82 45.8902 16.25 46.0402 15.71L46.8702 12.75C46.9302 12.52 47.1702 12.39 47.3902 12.46C47.6102 12.53 47.7502 12.76 47.6802 12.98L46.9602 15.54C46.8702 15.85 47.0502 16.17 47.3602 16.25L47.5702 16.31C47.8002 16.37 47.9302 16.61 47.8602 16.83C47.7902 17.05 47.5602 17.19 47.3402 17.12L47.3502 17.14Z" fill="#E0B1BB"/>
<path d="M48.8002 12.71C48.8002 13.02 49.0502 13.27 49.3602 13.27C49.6702 13.27 49.9202 13.02 49.9202 12.71C49.9202 12.4 49.6702 12.15 49.3602 12.15C49.0502 12.15 48.8002 12.4 48.8002 12.71Z" fill="#757570"/>
<path d="M54.31 12.42C54.31 11.8898 54.7398 11.46 55.27 11.46C55.8002 11.46 56.23 11.8898 56.23 12.42V14.51C56.23 15.0402 55.8002 15.47 55.27 15.47C54.7398 15.47 54.31 15.0402 54.31 14.51V12.42Z" fill="#FADDDC"/>
<path d="M52.3 24.68L57.45 21.54L59.24 22.59L54.44 26.43C53.81 26.93 52.87 26.64 52.65 25.87L52.3 24.68Z" fill="white"/>
<path d="M52.3002 24.68L50.7202 25.34C50.1802 25.57 49.6602 25 49.9202 24.48C49.9202 24.48 52.2502 21.72 52.2802 21.6C52.3102 21.48 52.3002 24.68 52.3002 24.68Z" fill="white"/>
<path d="M51.5302 4.01006C54.5102 4.20006 56.7402 4.71006 58.1102 6.03006C59.2002 7.07006 59.8202 8.73006 59.9102 10.2101C60.2702 16.2901 57.4502 17.5501 57.2102 17.2501C57.1202 17.1301 57.4002 12.8301 57.4002 12.8301C57.4002 12.3001 56.9702 11.8701 56.4402 11.8701C55.9102 11.8701 55.4802 12.3001 55.4802 12.8301C55.4802 12.8301 55.5502 14.1201 55.5002 14.1001C49.6802 11.5601 48.9502 9.94006 47.3302 7.77006C47.2302 7.63006 47.1802 10.9001 47.1802 10.9001C47.1802 10.9001 45.3202 10.5401 45.6802 8.33006C46.0002 6.37006 48.3102 3.81006 51.5302 4.01006Z" fill="#3E2967"/>
<path d="M54.93 4.46997L59.53 5.15997L58.34 6.59997L54.93 4.46997Z" fill="#3E2967"/>
</g>
<defs>
<clipPath id="clip0_1217_2792">
<rect width="54.57" height="101.88" fill="white" transform="matrix(-1 0 0 1 85.6001 4)"/>
</clipPath>
</defs>
</svg>
