<svg width="44" height="99" viewBox="0 0 44 99" fill="none" xmlns="http://www.w3.org/2000/svg">
<g clip-path="url(#clip0_106_757)">
<path d="M24.5001 3.17004H14.1101L14.0301 8.16004C14.0301 9.98004 13.7401 13.29 16.5301 15.08L18.4501 15.77C18.9601 15.77 19.3801 16.18 19.3801 16.7V17.77H24.4501L24.4901 3.18004L24.5001 3.17004Z" fill="#FADDDC"/>
<path d="M25.22 1.66L25.36 0H18.14C16.12 0 14.32 1.29 13.68 3.21L12.27 7.41H13.99C18.3 6.85 20.33 3.61 20.33 3.61C21.09 7.92 24.54 9.7 24.54 9.7C24.54 9.7 25.64 7.99 26.18 6C26.61 4.41 25.63 2.43 25.21 1.68L25.22 1.66Z" fill="#3E2967"/>
<path d="M6.45003 52.2601C6.77003 53.8701 5.72003 55.4401 4.11003 55.7501C2.79003 56.0101 1.49003 55.3501 0.900029 54.2101C0.770029 53.9601 0.670029 53.6901 0.620029 53.4101C0.480029 52.7101 0.370029 52.0201 0.280029 51.3401L6.27003 51.1801C6.33003 51.5401 6.39003 51.9001 6.46003 52.2601H6.45003Z" fill="#FADDDC"/>
<path d="M16.4199 19.96C17.5399 21.16 17.4699 23.04 16.2699 24.16C16.1399 24.28 3.90989 35.93 6.24989 51.18L0.259889 51.34C-2.10011 33.33 11.6099 20.37 12.2099 19.8C13.4099 18.68 15.2899 18.76 16.4099 19.96H16.4199Z" fill="#9A9A99"/>
<path d="M37.77 48.8499C37.66 50.3799 38.81 51.7099 40.35 51.8199C40.42 51.8199 40.48 51.8199 40.55 51.8199C42 51.8199 43.22 50.6999 43.32 49.2399C43.35 48.7599 43.38 48.2899 43.4 47.8199H37.82C37.8 48.1599 37.79 48.4999 37.77 48.8499Z" fill="#FADDDC"/>
<path d="M31.2301 18.89C29.8901 18.15 28.2101 18.63 27.4601 19.96C26.7101 21.29 27.1801 22.99 28.5101 23.75C29.0201 24.04 38.7601 28.54 37.8101 47.83H43.3901C44.3901 25.15 31.8601 19.25 31.2201 18.9L31.2301 18.89Z" fill="#9A9A99"/>
<path d="M35.8099 51.29H8.88989L8.89989 26.83C8.89989 21.8 12.9799 17.72 18.0099 17.72H26.7099C31.7399 17.72 35.8199 21.8 35.8199 26.83L35.7999 51.29H35.8099Z" fill="#9A9A99"/>
<path d="M35.8099 51.29H8.88989C8.88989 51.29 16.9599 91.79 15.6199 91.29C14.9799 91.05 14.5799 90.94 14.0499 91.37C13.4199 91.87 13.8999 93.33 14.4599 94.11L20.1699 98.1C22.4199 97.64 22.1199 96.1 21.6699 94.91C21.3799 94.12 21.1999 93.3 21.1699 92.46C20.9799 87.21 20.0499 63.77 19.8999 59.87C19.8599 58.98 20.7199 58.01 21.5799 58.01H23.1199C23.9699 58.01 24.6999 58.65 24.8499 59.53C25.5299 63.53 24.6399 66.54 24.3899 78.69C24.3899 78.69 24.5399 82.29 24.7799 83.14C25.1299 84.36 26.5499 84.18 27.0399 83.28C27.4599 82.5 27.8899 79.31 27.9699 78.69H29.3799L35.8099 51.28V51.29Z" fill="#3E2967"/>
<path d="M26.9899 7.87002C26.9899 12.1 24.1199 15.53 20.5799 15.53C17.0399 15.53 14.1699 12.1 14.1699 7.87002C14.1699 3.64002 18.5999 0.650024 22.1299 0.650024C25.6599 0.650024 26.9899 3.64002 26.9899 7.87002Z" fill="#3E2967"/>
</g>
<defs>
<clipPath id="clip0_106_757">
<rect width="43.45" height="98.11" fill="white"/>
</clipPath>
</defs>
</svg>
