<svg width="110" height="110" viewBox="0 0 110 110" fill="none" xmlns="http://www.w3.org/2000/svg">
<g clip-path="url(#clip0_1217_1890)">
<path d="M57.1699 55.4199H42.8599L41.4399 100.24L43.9699 100.42C43.9699 101.1 43.5699 102.38 43.1099 102.74C42.5699 103.17 41.1399 103.65 40.6199 104.12C40.0099 104.68 40.3299 105.9 41.0899 105.9H44.1699H44.9599C45.6599 105.9 46.2699 105.3 46.4399 104.44L46.5099 100.66L48.0399 100.62C49.2299 94.3499 50.4399 84.3799 51.4899 77.9899C52.2299 73.5099 52.9299 69.0399 53.5899 64.5899C53.7399 63.6099 54.4499 62.8999 55.2799 62.8999H56.7899C57.6299 62.8999 58.3399 63.6099 58.4799 64.5899C59.1399 69.0499 61.6499 92.3299 63.0599 99.4299C63.1399 99.8299 64.7499 99.2999 64.8299 99.7099C65.0799 100.99 64.6499 102.31 63.7699 103.03C63.3399 103.38 62.9299 103.74 62.5199 104.12C61.8999 104.68 62.2199 105.91 62.9799 105.91H66.0599L68.0599 105.14C70.0399 103.66 67.5699 102.5 68.4999 99.6999L70.1499 99.1499L69.2099 62.8899V55.3999H57.1699V55.4199Z" fill="#3E2967"/>
<path d="M57.93 8.16992H47.54V17.4699C47.54 19.2899 49.02 20.7699 50.84 20.7699H51.89C52.4 20.7699 52.82 21.1799 52.82 21.6999V22.7699H57.89L57.93 8.17992V8.16992Z" fill="#FADDDC"/>
<path d="M50.9 17.78H50.27C49.71 17.78 49.25 17.32 49.25 16.76V13.69C49.25 13.46 49.44 13.27 49.67 13.27C49.9 13.27 50.1 13.46 50.1 13.69V16.35C50.1 16.67 50.36 16.93 50.68 16.93H50.9C51.13 16.93 51.32 17.12 51.32 17.36C51.32 17.6 51.13 17.78 50.9 17.78Z" fill="#E0B1BB"/>
<path d="M58.6399 6.66L58.7799 5H51.5599C49.5399 5 47.7399 6.29 47.0999 8.21L45.6899 12.41H47.4099C51.7199 11.85 53.7499 8.61 53.7499 8.61C54.5099 12.92 57.9599 14.7 57.9599 14.7C57.9599 14.7 59.0599 12.99 59.5999 11C60.0299 9.41 59.0499 7.43 58.6299 6.68L58.6399 6.66Z" fill="#3E2967"/>
<path d="M52.71 13.77C52.71 14.08 52.96 14.33 53.27 14.33C53.58 14.33 53.83 14.08 53.83 13.77C53.83 13.46 53.58 13.21 53.27 13.21C52.96 13.21 52.71 13.46 52.71 13.77Z" fill="#757570"/>
<path d="M24.61 8.15999C23.85 6.69999 22.06 6.13999 20.6 6.88999C19.4 7.51999 18.81 8.83999 19.05 10.1C19.1 10.37 19.2 10.64 19.33 10.9C19.66 11.53 20 12.14 20.36 12.73L25.14 9.11999C24.96 8.80999 24.78 8.48999 24.61 8.15999Z" fill="#FADDDC"/>
<path d="M52.5801 27.1699C52.7001 25.5299 51.4801 24.1099 49.8401 23.9799C49.6701 23.9699 32.8401 22.4999 25.1501 9.12988L20.3701 12.7399C29.7701 28.2799 48.5701 29.8499 49.4001 29.9099C51.0401 30.0299 52.4601 28.7999 52.5801 27.1699Z" fill="#9A9A99"/>
<path d="M73.6599 58.5099C73.5399 60.1499 74.7799 61.5699 76.4099 61.6899C76.4799 61.6899 76.5499 61.6899 76.6199 61.6899C78.1699 61.6899 79.4699 60.4899 79.5799 58.9299C79.6199 58.4199 79.6399 57.9099 79.6699 57.4099H73.7099C73.6899 57.7799 73.6799 58.1299 73.6499 58.5099H73.6599Z" fill="#FADDDC"/>
<path d="M64.4701 23.83C63.0401 23.04 61.2401 23.55 60.4401 24.98C59.6401 26.41 60.1401 28.22 61.5701 29.03C62.1201 29.34 74.7301 36.8 73.7201 57.42H79.6801C80.7501 33.18 65.1501 24.21 64.4801 23.84L64.4701 23.83Z" fill="#9A9A99"/>
<path d="M69.03 56.29H42.7C41.78 56.29 41.04 55.51 41.09 54.59L42.32 31.83C42.32 26.8 46.4 22.72 51.43 22.72H60.13C65.16 22.72 69.24 26.8 69.24 31.83L70.63 54.58C70.69 55.51 69.95 56.29 69.02 56.29H69.03Z" fill="#9A9A99"/>
<path d="M55.3099 22.6899H50.1899V25.1399C50.1899 26.0899 51.3399 26.5599 52.0099 25.8899L55.2299 22.7699L58.5199 25.9199C59.1899 26.5899 60.3399 26.1199 60.3399 25.1699V22.6899H55.3199H55.3099Z" fill="white"/>
</g>
<defs>
<clipPath id="clip0_1217_1890">
<rect width="60.73" height="100.92" fill="white" transform="translate(19 5)"/>
</clipPath>
</defs>
</svg>
