<svg width="110" height="110" viewBox="0 0 110 110" fill="none" xmlns="http://www.w3.org/2000/svg">
<g clip-path="url(#clip0_1217_2677)">
<path d="M57.9802 54.02L45.5802 53.64L45.2202 100.73L47.5402 101.45C47.5502 102.02 47.5402 102.96 47.2902 103.47C46.9302 104.23 46.5802 105.43 47.7802 105.83L53.8702 106.26C54.6302 106.12 54.7702 104.83 54.0702 104.38C53.6102 104.08 52.3402 103.56 51.8602 103.29C50.8802 102.73 50.9202 101.71 51.1102 100.4C52.4902 90.91 57.9802 54.02 57.9802 54.02Z" fill="#291B4C"/>
<path d="M60.1798 56.33H44.7798L56.9198 73.79L51.0198 93.56L53.3698 94.27V96.21C53.1898 97.57 53.1898 98.46 54.7098 99.25L58.6198 100.2C59.3898 100.26 59.7498 99.35 59.1498 98.74C58.7498 98.33 57.9098 98.04 57.5498 97.59C55.9798 95.57 56.7998 95.1 57.0998 93.82C58.4798 87.93 63.6198 78.99 65.4298 75.2C65.9798 74.05 66.0598 72.73 65.6498 71.52L60.1798 56.33Z" fill="#3E2C6D"/>
<path d="M42.9398 53.51C42.8298 55.15 41.4198 56.39 39.7798 56.28C38.4298 56.19 37.3498 55.22 37.0698 53.97C37.0098 53.7 36.9798 53.41 36.9998 53.12C37.0498 52.41 37.1198 51.71 37.2098 51.03L43.0398 52.41C42.9998 52.77 42.9698 53.13 42.9398 53.5V53.51Z" fill="#FADDDC"/>
<path d="M60.88 24.86C61.65 26.31 61.1 28.11 59.66 28.88C59.51 28.96 44.7 37.08 43.04 52.42L37.21 51.04C39.55 33.03 56.13 24.02 56.86 23.63C58.31 22.86 60.1 23.41 60.88 24.86Z" fill="#777777"/>
<path d="M62 57.16L43.17 56.73C42.44 56.71 41.88 56.07 41.97 55.35L43.68 38.17C43.75 37.51 43.79 36.84 43.8 36.17C43.8 30.21 42.42 25.28 52.69 21.74C52.69 21.74 55.17 21.74 57.04 21.74C58.53 21.74 59.94 22.48 60.72 23.75C65.68 31.81 63.81 51.21 63.25 56.07C63.18 56.71 62.63 57.17 61.99 57.16H62Z" fill="#9A9A99"/>
<path d="M48.8598 26.88C50.4698 27.22 51.2798 31.39 51.5298 33.01C51.8198 34.88 47.5298 46 58.2298 57.12L49.7998 56.82C44.2798 54.76 45.1698 29.98 45.3398 29.17C45.6798 27.57 47.2498 26.54 48.8598 26.88Z" fill="#777777"/>
<path d="M59.1501 58.13C60.3401 59.26 60.3801 61.15 59.2501 62.34C58.3201 63.32 56.8801 63.52 55.7401 62.93C55.4901 62.8 55.2601 62.64 55.0501 62.44C54.5301 61.95 54.0501 61.45 53.5801 60.94L58.3801 57.36C58.6301 57.62 58.8901 57.88 59.1601 58.14L59.1501 58.13Z" fill="#FADDDC"/>
<path d="M48.6901 25.98C50.3001 26.32 51.3201 27.89 50.9901 29.5C50.9501 29.67 47.6701 46.24 58.3701 57.36L53.5701 60.9399C41.2601 47.5799 45.0001 29.09 45.1701 28.28C45.5101 26.68 47.0801 25.65 48.6901 25.99V25.98Z" fill="#9A9A99"/>
<path d="M52.5198 7.67004H62.9098V11.16V16.97C62.9098 18.79 61.4298 20.27 59.6098 20.27H58.5598C58.0498 20.27 57.6298 20.68 57.6298 21.2V24.68L52.7198 22.02L52.5098 7.68004L52.5198 7.67004Z" fill="#FADDDC"/>
<path d="M62.6002 17.14L63.2002 16.97C63.7402 16.82 64.0602 16.25 63.9102 15.71L63.0802 12.75C63.0202 12.52 62.7802 12.39 62.5602 12.46C62.3402 12.53 62.2002 12.76 62.2702 12.98L62.9902 15.54C63.0802 15.85 62.9002 16.17 62.5902 16.25L62.3802 16.31C62.1502 16.37 62.0202 16.61 62.0902 16.83C62.1602 17.05 62.3902 17.19 62.6102 17.12L62.6002 17.14Z" fill="#E0B1BB"/>
<path d="M61.14 12.71C61.14 13.02 60.89 13.27 60.58 13.27C60.27 13.27 60.02 13.02 60.02 12.71C60.02 12.4 60.27 12.15 60.58 12.15C60.89 12.15 61.14 12.4 61.14 12.71Z" fill="#757570"/>
<path d="M55.6402 12.42C55.6402 11.8898 55.2104 11.46 54.6802 11.46C54.15 11.46 53.7202 11.8898 53.7202 12.42V14.51C53.7202 15.0402 54.15 15.47 54.6802 15.47C55.2104 15.47 55.6402 15.0402 55.6402 14.51V12.42Z" fill="#FADDDC"/>
<path d="M57.6402 24.68L52.4902 21.54L50.7002 22.59L55.5002 26.43C56.1302 26.93 57.0702 26.64 57.2902 25.87L57.6402 24.68Z" fill="white"/>
<path d="M57.6398 24.68L59.2198 25.34C59.7598 25.57 60.2798 25 60.0198 24.48C60.0198 24.48 57.6898 21.72 57.6598 21.6C57.6298 21.48 57.6398 24.68 57.6398 24.68Z" fill="white"/>
<path d="M58.4102 4.01006C55.4302 4.20006 53.2002 4.71006 51.8302 6.03006C50.7402 7.07006 50.1202 8.73006 50.0302 10.2101C49.6702 16.2901 52.4902 17.5501 52.7302 17.2501C52.8202 17.1301 52.5402 12.8301 52.5402 12.8301C52.5402 12.3001 52.9702 11.8701 53.5002 11.8701C54.0302 11.8701 54.4602 12.3001 54.4602 12.8301C54.4602 12.8301 54.3902 14.1201 54.4402 14.1001C60.2602 11.5601 60.9902 9.94006 62.6102 7.77006C62.7102 7.63006 62.7602 10.9001 62.7602 10.9001C62.7602 10.9001 64.6202 10.5401 64.2602 8.33006C63.9302 6.37006 61.6302 3.81006 58.4102 4.01006Z" fill="#3E2967"/>
<path d="M55.0102 4.46997L50.4102 5.15997L51.6002 6.59997L55.0102 4.46997Z" fill="#3E2967"/>
</g>
<defs>
<clipPath id="clip0_1217_2677">
<rect width="28.91" height="102.26" fill="white" transform="translate(37 4)"/>
</clipPath>
</defs>
</svg>
