<svg width="45" height="100" viewBox="0 0 45 100" fill="none" xmlns="http://www.w3.org/2000/svg">
<g clip-path="url(#clip0_109_807)">
<path d="M38.2899 49.95C38.4599 51.58 39.9299 52.77 41.5599 52.6C42.8999 52.46 43.9399 51.44 44.1699 50.18C44.2199 49.91 44.2299 49.62 44.1999 49.33C44.1299 48.62 44.0299 47.93 43.9099 47.25L38.1399 48.87C38.1899 49.23 38.2399 49.59 38.2799 49.96L38.2899 49.95Z" fill="#FADDDC"/>
<path d="M19.2199 22.04C18.5099 23.52 19.1299 25.29 20.5999 26.01C20.7599 26.09 35.8799 33.6 38.1499 48.87L43.9199 47.25C40.8599 29.34 23.9299 21.01 23.1799 20.65C21.6999 19.94 19.9299 20.56 19.2199 22.04Z" fill="#777777"/>
<path d="M16.3901 52.55L30.9701 52.84L18.4501 68.89L24.3501 87.6501L22.0001 88.32V90.1601C22.1801 91.4501 22.1801 92.2901 20.6601 93.0401L16.7501 93.95C15.9801 94 15.6201 93.15 16.2201 92.56C16.6201 92.17 17.4601 91.9001 17.8201 91.4701C19.3901 89.5501 18.5701 89.1 18.2701 87.89C16.4801 80.66 10.0601 68.45 10.0601 68.45L16.3901 52.55Z" fill="#291B4C"/>
<path d="M20.3701 52.11L32.7401 51.23L35.5201 94.14L33.2401 94.92C33.2601 95.46 33.3201 96.35 33.5901 96.82C33.9901 97.52 34.3901 98.65 33.2101 99.08L27.1401 99.75C26.3701 99.65 26.1701 98.43 26.8501 97.97C27.3001 97.67 28.5401 97.12 29.0001 96.85C29.9501 96.28 29.8601 95.31 29.6001 94.08C27.7601 85.15 20.3601 52.12 20.3601 52.12L20.3701 52.11Z" fill="#3E2C6D"/>
<path d="M13.5001 53.6L36.8901 53.36C36.8901 53.36 38.3401 21.53 25.7901 17.74H21.4401C19.9401 17.74 18.5201 18.5 17.7401 19.78C12.0701 29.04 13.5001 53.6 13.5001 53.6Z" fill="#9A9A99"/>
<path d="M25.9601 3.67004H15.5701V7.16004V12.97C15.5701 14.79 17.0501 16.27 18.8701 16.27H19.9201C20.4301 16.27 20.8501 16.68 20.8501 17.2V20.68L25.7601 18.02L25.9701 3.68004L25.9601 3.67004Z" fill="#FADDDC"/>
<path d="M15.89 13.14L15.29 12.97C14.75 12.82 14.43 12.25 14.58 11.71L15.41 8.74999C15.47 8.51999 15.71 8.38999 15.93 8.45999C16.15 8.52999 16.29 8.75999 16.22 8.97999L15.5 11.54C15.41 11.85 15.59 12.17 15.9 12.25L16.11 12.31C16.34 12.37 16.47 12.61 16.4 12.83C16.33 13.05 16.1 13.19 15.88 13.12L15.89 13.14Z" fill="#E0B1BB"/>
<path d="M17.3401 8.71002C17.3401 9.02002 17.5901 9.27003 17.9001 9.27003C18.2101 9.27003 18.4601 9.02002 18.4601 8.71002C18.4601 8.40002 18.2101 8.15002 17.9001 8.15002C17.5901 8.15002 17.3401 8.40002 17.3401 8.71002Z" fill="#757570"/>
<path d="M22.85 10.52C22.85 11.0502 23.2798 11.48 23.81 11.48C24.3402 11.48 24.77 11.0502 24.77 10.52V8.42998C24.77 7.89979 24.3402 7.46998 23.81 7.46998C23.2798 7.46998 22.85 7.89979 22.85 8.42998V10.52Z" fill="#FADDDC"/>
<path d="M20.8501 20.68L26.0001 17.54L27.7901 18.59L22.9901 22.43C22.3601 22.93 21.4201 22.64 21.2001 21.87L20.8501 20.68Z" fill="white"/>
<path d="M20.8499 20.68L19.2699 21.34C18.7299 21.57 18.2099 21 18.4699 20.48C18.4699 20.48 20.7999 17.72 20.8299 17.6C20.8599 17.48 20.8499 20.68 20.8499 20.68Z" fill="white"/>
<path d="M20.0701 0.0100583C23.0501 0.200058 25.2801 0.710058 26.6501 2.03006C27.7401 3.07006 28.3601 4.73006 28.4501 6.21006C28.8101 12.2901 25.9901 13.5501 25.7501 13.2501C25.6601 13.1301 25.9401 8.83006 25.9401 8.83006C25.9401 8.30006 25.5101 7.87006 24.9801 7.87006C24.4501 7.87006 24.0201 8.30006 24.0201 8.83006C24.0201 8.83006 24.0901 10.1201 24.0401 10.1001C18.2201 7.56006 17.4901 5.94006 15.8701 3.77006C15.7701 3.63006 15.7201 6.90006 15.7201 6.90006C15.7201 6.90006 13.8601 6.54006 14.2201 4.33006C14.5501 2.37006 16.8501 -0.189942 20.0701 0.0100583Z" fill="#3E2967"/>
<path d="M23.47 0.469971L28.07 1.15997L26.88 2.59997L23.47 0.469971Z" fill="#3E2967"/>
<path d="M2.42004 44.84C0.810044 45.15 -0.249956 46.7 0.0500441 48.32C0.300044 49.65 1.40004 50.6 2.68004 50.72C2.96004 50.75 3.24004 50.74 3.53004 50.68C4.23004 50.55 4.91004 50.39 5.58004 50.22L3.49004 44.61C3.14004 44.69 2.78004 44.77 2.42004 44.84Z" fill="#FADDDC"/>
<path d="M28.66 23.52C27.13 22.93 25.41 23.7 24.82 25.22C24.76 25.38 18.52 41.08 3.48999 44.6L5.57999 50.21C23.17 45.68 30.08 28.12 30.37 27.35C30.96 25.82 30.19 24.1 28.66 23.51V23.52Z" fill="#9A9A99"/>
</g>
<defs>
<clipPath id="clip0_109_807">
<rect width="44.22" height="99.75" fill="white"/>
</clipPath>
</defs>
</svg>
