<svg width="110" height="110" viewBox="0 0 110 110" fill="none" xmlns="http://www.w3.org/2000/svg">
<g clip-path="url(#clip0_1217_2872)">
<path d="M69.0501 54.9701L44.3901 55.0801L49.6101 95.6401C49.6101 95.6401 52.2001 97.2801 52.2101 97.3301C52.4201 98.6301 52.2101 99.7301 50.2001 98.5201C49.6201 98.1701 49.1601 98.1401 48.6301 98.6101C48.0001 99.1601 48.4801 100.74 49.0401 101.59L53.9901 105.35C54.5801 105.8 55.4501 105.84 56.0001 105.35C56.8501 104.61 56.6101 103.41 56.2501 102.45C54.8801 98.7001 55.3001 98.2701 55.3001 98.2701L56.0701 98.5201C56.5701 98.6801 57.0701 98.3101 57.0301 97.8101C56.6301 92.8901 55.6101 67.6101 55.4301 63.0801C55.4101 62.7001 55.7301 62.3801 56.1301 62.3701L57.1901 62.3501C57.5101 62.3501 57.8201 62.5601 57.8201 62.8701C57.8501 68.9501 57.9301 78.4801 58.0201 78.4801C58.0201 78.4801 58.4901 82.5401 58.7401 83.4701C59.0901 84.7901 60.5101 84.6001 61.0001 83.6201C61.4201 82.7701 61.5401 80.1701 61.6201 79.4901H63.8001L69.0501 54.9801V54.9701Z" fill="#3E2967"/>
<path d="M39.3603 46.0001C39.4003 47.1501 38.5103 48.1101 37.3703 48.1501C36.4303 48.1901 35.6103 47.5901 35.3203 46.7401C35.2603 46.5601 35.2203 46.3601 35.2103 46.1601C35.1903 45.6601 35.1903 45.1801 35.2103 44.6901L39.3503 45.2301C39.3503 45.4801 39.3503 45.7401 39.3603 46.0001Z" fill="#FADDDC"/>
<path d="M49.7502 24.8201C50.3902 25.7701 50.1402 27.0601 49.1902 27.7001C49.0902 27.7701 39.3902 34.4701 39.3502 45.2401L35.2002 44.6901C35.5302 32.0201 46.3902 24.5701 46.8702 24.2501C47.8202 23.6101 49.1102 23.8601 49.7502 24.8101V24.8201Z" fill="#9A9A99"/>
<path d="M73.7703 62.1701C73.6603 64.1701 75.2003 65.8801 77.2003 65.9901C77.2903 65.9901 77.3803 65.9901 77.4603 65.9901C79.3503 65.9601 80.9103 64.4701 81.0203 62.5601C81.0503 61.9301 81.0803 61.3101 81.0903 60.7001L73.8103 60.8301C73.8003 61.2801 73.7903 61.7101 73.7603 62.1701H73.7703Z" fill="#FADDDC"/>
<path d="M64.5602 23.2401C62.8002 22.3001 60.6202 22.9701 59.6702 24.7201C58.7202 26.4801 59.3802 28.6701 61.1302 29.6301C61.8002 30.0001 74.6102 35.6401 73.8202 60.8201L81.1002 60.6901C81.8902 31.0801 65.4102 23.6801 64.5702 23.2301L64.5602 23.2401Z" fill="#9A9A99"/>
<path d="M67.79 57.05H45.52C44.23 57.05 43.18 55.99 43.19 54.7L43.41 31.63C43.41 26.6 47.49 22.52 52.52 22.52H61.22C66.25 22.52 70.33 26.6 70.33 31.63L70.11 54.75C70.1 56.03 69.06 57.05 67.78 57.05H67.79Z" fill="#9A9A99"/>
<path d="M59.0201 7.97009H48.6301L48.5501 12.9601C48.5501 14.7801 48.2601 18.0901 51.0501 19.8801L52.9701 20.5701C53.4801 20.5701 53.9001 20.9801 53.9001 21.5001V22.5701H58.9701L59.0101 7.98009L59.0201 7.97009Z" fill="#FADDDC"/>
<path d="M59.7303 6.46005L59.8703 4.80005H52.6503C50.6303 4.80005 48.8303 6.09005 48.1903 8.01005L46.7803 12.21H48.5003C52.8103 11.65 54.8403 8.41005 54.8403 8.41005C55.6003 12.72 59.0503 14.5 59.0503 14.5C59.0503 14.5 60.1503 12.79 60.6903 10.8C61.1203 9.21005 60.1403 7.23005 59.7203 6.48005L59.7303 6.46005Z" fill="#3E2967"/>
<path d="M61.5104 12.6701C61.5104 16.9001 58.6404 20.3301 55.1004 20.3301C51.5604 20.3301 48.6904 16.9001 48.6904 12.6701C48.6904 8.44007 53.1104 5.45007 56.6504 5.45007C60.1904 5.45007 61.5104 8.44007 61.5104 12.6701Z" fill="#3E2967"/>
<path d="M53.8904 21.3901L58.9704 21.3601L60.5904 22.5401C60.5904 22.5401 56.2004 24.7201 52.6304 22.5301L53.8904 21.3901Z" fill="white"/>
</g>
<defs>
<clipPath id="clip0_1217_2872">
<rect width="45.92" height="100.9" fill="white" transform="translate(35.2002 4.80005)"/>
</clipPath>
</defs>
</svg>
