<svg width="60" height="117" viewBox="0 0 60 117" fill="none" xmlns="http://www.w3.org/2000/svg">
<g clip-path="url(#clip0_134_1424)">
<path d="M1.98997 53.96C0.399966 54.57 -0.410034 56.35 0.199966 57.95C0.699966 59.26 1.98997 60.03 3.31997 59.93C3.60997 59.91 3.89997 59.84 4.17997 59.74C4.86997 59.48 5.53997 59.19 6.18997 58.9L3.03997 53.54C2.68997 53.69 2.33997 53.83 1.97997 53.97L1.98997 53.96Z" fill="#FADDDC"/>
<path d="M24.34 29.59C22.67 29.26 20.88 31.13 20.55 32.8C20.52 32.98 17.78 47.2 3.05005 53.53L6.20005 58.89C23.37 51.07 26.6201 34.05 26.7801 33.21C27.1 31.54 26.01 29.92 24.34 29.6V29.59Z" fill="#3E2967"/>
<path d="M47.95 64.5001H20.68C19.53 64.5001 18.61 63.5301 18.68 62.3701L20.42 34.3501C20.42 29.7901 24.12 26.0801 28.69 26.0801H40.26C44.75 26.0801 48.38 29.7201 48.38 34.2001L49.94 62.3701C50 63.5201 49.09 64.4801 47.94 64.4801L47.95 64.5001Z" fill="#3E2967"/>
<path d="M53.49 63.0101C53.37 64.7101 54.65 66.1901 56.35 66.3101C56.42 66.3101 56.5 66.3101 56.57 66.3101C58.18 66.3101 59.53 65.0701 59.65 63.4401C59.69 62.9101 59.72 62.3801 59.74 61.8601H53.55C53.53 62.2401 53.52 62.6101 53.49 63.0001V63.0101Z" fill="#FADDDC"/>
<path d="M43.9499 27.0001C42.4699 26.1801 40.5999 26.7101 39.7699 28.1901C38.9399 29.6701 39.4599 31.5501 40.9399 32.3901C41.5099 32.7101 54.6099 40.4601 53.5499 61.8701H59.7399C60.8499 36.6901 44.6499 27.3901 43.9499 26.9901V27.0001Z" fill="#3E2967"/>
<path d="M36.6501 12.53H25.8601V20.05C25.8601 22.44 27.8001 24.38 30.1901 24.38H30.3801C30.9101 24.38 31.3401 24.81 31.3401 25.34V26.61C31.3401 28.07 32.5201 29.25 33.9801 29.25C35.4301 29.25 36.6101 28.07 36.6201 26.62L36.6601 12.53H36.6501Z" fill="#FADDDC"/>
<path d="M30.8 3.25994C29.86 3.52994 27.93 4.71994 26.89 5.98994C25.85 7.25994 24.49 9.21994 24.06 9.83994C23.63 10.4599 22.12 12.6899 21.83 13.4299C21.26 14.8599 20.64 17.6699 21.6 20.7699C22.56 23.8799 26.57 26.7699 30.86 26.9199C35.15 27.0699 41.14 26.5599 44.26 23.2899C47.38 20.0199 48.29 17.4499 47.25 14.1699C46.21 10.8899 44.17 9.13994 43.01 8.12994C41.85 7.11994 41.51 5.01994 39.12 4.03994C36.73 3.05994 34.56 2.17994 30.79 3.25994H30.8Z" fill="#FCC31E"/>
<path d="M34.1301 23.67C37.4824 23.67 40.2001 20.9524 40.2001 17.6C40.2001 14.2477 37.4824 11.53 34.1301 11.53C30.7777 11.53 28.0601 14.2477 28.0601 17.6C28.0601 20.9524 30.7777 23.67 34.1301 23.67Z" fill="#FADDDC"/>
<path d="M32.0599 18.6599C32.9822 18.6599 33.7299 17.9123 33.7299 16.9899C33.7299 16.0676 32.9822 15.3199 32.0599 15.3199C31.1376 15.3199 30.3899 16.0676 30.3899 16.9899C30.3899 17.9123 31.1376 18.6599 32.0599 18.6599Z" fill="#F1F0EB"/>
<path d="M37.18 17.73C38.1023 17.73 38.85 16.9823 38.85 16.06C38.85 15.1377 38.1023 14.39 37.18 14.39C36.2577 14.39 35.51 15.1377 35.51 16.06C35.51 16.9823 36.2577 17.73 37.18 17.73Z" fill="#F1F0EB"/>
<path d="M34.31 20.89L34.91 20.78C35.45 20.68 35.8 20.17 35.71 19.63L35.17 16.69C35.13 16.47 34.91 16.32 34.69 16.36C34.47 16.4 34.32 16.62 34.36 16.84L34.83 19.39C34.89 19.7 34.68 19.99 34.38 20.04L34.17 20.08C33.95 20.12 33.8 20.34 33.84 20.56C33.88 20.78 34.1 20.93 34.32 20.89H34.31Z" fill="#E0B1BB"/>
<path d="M29.9501 17.4C30.1601 18.55 31.2701 19.32 32.4301 19.11C33.5901 18.9 34.2601 17.9 34.1501 16.8L35.1301 16.62C35.4001 17.7 36.4601 18.4 37.5701 18.2C38.6801 18 39.4901 16.88 39.2801 15.72C39.0701 14.56 37.9601 13.8 36.8001 14.01C35.8501 14.18 35.1801 14.96 35.0801 15.88L33.9501 16.09C33.5401 15.25 32.6201 14.75 31.6601 14.92C30.5101 15.13 29.7401 16.24 29.9501 17.4ZM35.9101 16.34C35.7801 15.64 36.2501 14.97 36.9501 14.84C37.6501 14.71 38.3201 15.18 38.4501 15.88C38.5801 16.58 38.1101 17.25 37.4101 17.38C36.7101 17.51 36.0401 17.04 35.9101 16.34ZM30.7701 17.24C30.6401 16.54 31.1101 15.87 31.8101 15.74C32.5101 15.61 33.1801 16.08 33.3101 16.78C33.4401 17.48 32.9701 18.15 32.2701 18.28C31.5701 18.41 30.9001 17.94 30.7701 17.24Z" fill="#898989"/>
<path d="M27.7201 9.81005C28.2061 9.81005 28.6001 9.41606 28.6001 8.93005C28.6001 8.44404 28.2061 8.05005 27.7201 8.05005C27.2341 8.05005 26.8401 8.44404 26.8401 8.93005C26.8401 9.41606 27.2341 9.81005 27.7201 9.81005Z" fill="#D6952D"/>
<path d="M41.43 10.53C41.9161 10.53 42.3101 10.136 42.3101 9.65002C42.3101 9.16401 41.9161 8.77002 41.43 8.77002C40.944 8.77002 40.55 9.16401 40.55 9.65002C40.55 10.136 40.944 10.53 41.43 10.53Z" fill="#D6952D"/>
<path d="M29.3599 25.33C29.7575 25.33 30.0799 25.0077 30.0799 24.61C30.0799 24.2124 29.7575 23.89 29.3599 23.89C28.9622 23.89 28.6399 24.2124 28.6399 24.61C28.6399 25.0077 28.9622 25.33 29.3599 25.33Z" fill="#D6952D"/>
<path d="M41.4099 14.05C41.8076 14.05 42.1299 13.7276 42.1299 13.33C42.1299 12.9323 41.8076 12.61 41.4099 12.61C41.0123 12.61 40.6899 12.9323 40.6899 13.33C40.6899 13.7276 41.0123 14.05 41.4099 14.05Z" fill="#D6952D"/>
<path d="M25.05 13.72C25.2377 13.72 25.39 13.5678 25.39 13.38C25.39 13.1923 25.2377 13.04 25.05 13.04C24.8622 13.04 24.71 13.1923 24.71 13.38C24.71 13.5678 24.8622 13.72 25.05 13.72Z" fill="#D6952D"/>
<path d="M42.9899 17.7499C43.1777 17.7499 43.3299 17.5977 43.3299 17.4099C43.3299 17.2222 43.1777 17.0699 42.9899 17.0699C42.8021 17.0699 42.6499 17.2222 42.6499 17.4099C42.6499 17.5977 42.8021 17.7499 42.9899 17.7499Z" fill="#D6952D"/>
<path d="M23.8699 20.02C24.0024 20.02 24.1099 19.9126 24.1099 19.78C24.1099 19.6475 24.0024 19.54 23.8699 19.54C23.7373 19.54 23.6299 19.6475 23.6299 19.78C23.6299 19.9126 23.7373 20.02 23.8699 20.02Z" fill="#D6952D"/>
<path d="M44.6199 14.46C44.7524 14.46 44.8599 14.3525 44.8599 14.22C44.8599 14.0874 44.7524 13.98 44.6199 13.98C44.4873 13.98 44.3799 14.0874 44.3799 14.22C44.3799 14.3525 44.4873 14.46 44.6199 14.46Z" fill="#D6952D"/>
<path d="M23.3599 16.62C23.5974 16.62 23.7899 16.4275 23.7899 16.19C23.7899 15.9525 23.5974 15.76 23.3599 15.76C23.1224 15.76 22.9299 15.9525 22.9299 16.19C22.9299 16.4275 23.1224 16.62 23.3599 16.62Z" fill="#D6952D"/>
<path d="M39.1699 2.06C38.6499 3.11 38.6299 4.27 39.0099 5.23C39.9999 4.95 40.9099 4.23 41.4299 3.17C41.9499 2.11 41.9699 0.96 41.5899 0C40.5999 0.28 39.6899 1 39.1699 2.06Z" fill="#2D963A"/>
<path d="M40.82 2.67004C39.82 3.29004 39.19 4.25004 39 5.27004C39.99 5.56004 41.14 5.43004 42.14 4.81004C43.14 4.19004 43.77 3.23004 43.96 2.21004C42.97 1.92004 41.82 2.05004 40.82 2.67004Z" fill="#3EB750"/>
<path d="M32.9701 39.83C32.2701 40.77 32.0401 41.91 32.2501 42.92C33.2801 42.83 34.3001 42.28 35.0001 41.33C35.7001 40.38 35.9301 39.25 35.7201 38.24C34.6901 38.33 33.6701 38.88 32.9701 39.83Z" fill="#2D963A"/>
<path d="M34.48 40.7399C33.39 41.1699 32.59 41.9999 32.22 42.9699C33.14 43.4399 34.3 43.5099 35.39 43.0899C36.48 42.6699 37.28 41.8299 37.65 40.8599C36.73 40.3899 35.57 40.3199 34.48 40.7399Z" fill="#3EB750"/>
<path d="M48.1099 64.4099H21.3799L29.1199 110.69C29.2099 111.56 29.5899 112.58 28.6399 113.35C28.1099 113.78 27.5499 114.17 27.0199 114.6C26.3999 115.11 26.7199 116.24 27.4899 116.24L32.4799 115.22C34.7199 114.75 34.4099 113.17 33.9699 111.95C33.6799 111.14 33.4999 110.3 33.4699 109.44C33.2999 104.56 33.8499 77.7699 33.9599 72.7999C33.9599 72.3599 34.3299 72.0099 34.7799 72.0099C35.1999 72.0099 35.5499 72.3199 35.5899 72.7399C36.0899 77.4099 38.8599 103 39.0799 103.8C39.4299 105.05 40.8399 104.87 41.3299 103.94C41.7499 103.14 42.1699 99.8699 42.2499 99.2299H43.6499L48.1199 64.4099H48.1099Z" fill="#757570"/>
</g>
<defs>
<clipPath id="clip0_134_1424">
<rect width="59.79" height="116.24" fill="white"/>
</clipPath>
</defs>
</svg>
