<svg width="40" height="119" viewBox="0 0 40 119" fill="none" xmlns="http://www.w3.org/2000/svg">
<g clip-path="url(#clip0_134_1553)">
<path d="M29.9899 63.4399L16.1899 63.4099L29.7699 82.9299L25.0299 103.89L27.3799 104.63V106.67C27.1999 108.1 27.1999 109.03 28.7199 109.86L32.6299 110.86C33.3999 110.92 33.7599 109.97 33.1599 109.32C32.7599 108.89 31.9199 108.59 31.5599 108.11C29.9899 105.99 30.8099 105.49 31.1099 104.15C32.8999 96.1399 39.3199 82.6199 39.3199 82.6199L29.9799 63.4199L29.9899 63.4399Z" fill="#636361"/>
<path d="M23.45 63.2099L10.24 63.58L13.04 112.3L15.36 113.05C15.37 113.64 15.36 114.63 15.11 115.17C14.75 115.97 14.4 117.23 15.6 117.65L21.69 118.1C22.45 117.95 22.59 116.59 21.89 116.12C21.43 115.81 20.16 115.26 19.68 114.98C18.7 114.39 18.74 113.32 18.93 111.94C20.31 101.97 23.44 63.2 23.44 63.2L23.45 63.2099Z" fill="#757570"/>
<path d="M6.13005 59.5699C6.32005 61.1999 5.15005 62.6799 3.52005 62.8699C2.18005 63.0299 0.940049 62.2699 0.440049 61.0799C0.330049 60.8199 0.260049 60.5499 0.220049 60.2599C0.140049 59.5499 0.0800488 58.8599 0.0500488 58.1699L6.03005 58.4799C6.06005 58.8399 6.09005 59.2099 6.13005 59.5699Z" fill="#FADDDC"/>
<path d="M18.6 28.14C19.62 29.42 19.41 31.29 18.13 32.32C17.99 32.43 4.89001 43.09 6.03001 58.47L0.0500077 58.16C-0.899992 40.02 13.79 28.17 14.43 27.66C15.72 26.64 17.58 26.86 18.6 28.14Z" fill="#261749"/>
<path d="M31.17 65.6H12.69C8.95998 65.6 9.14998 62.3 9.23998 61.34L11.86 36.8C11.86 32.64 11.11 26.61 19.33 24.79H23.68C25.18 24.79 26.6 25.55 27.38 26.83C33.05 36.09 31.16 65.6 31.16 65.6H31.17Z" fill="#3E2967"/>
<path d="M37.6399 55.8299C39.1599 56.4599 39.88 58.1999 39.25 59.7199C38.73 60.9699 37.4699 61.6799 36.1899 61.5399C35.9099 61.5099 35.64 61.4399 35.36 61.3299C34.7 61.0599 34.07 60.7699 33.45 60.4599L36.63 55.3899C36.96 55.5399 37.29 55.6899 37.63 55.8299H37.6399Z" fill="#FADDDC"/>
<path d="M16.14 30.5799C17.76 30.3099 18.63 31.4499 18.9 33.0699C18.93 33.2399 21.85 49.8799 35.85 56.3799L31.55 59.3499C14.27 52.9699 13.91 34.2999 13.78 33.4799C13.52 31.8599 14.52 30.8499 16.14 30.5799Z" fill="#261749"/>
<path d="M16.27 29.6301C17.89 29.3601 19.42 30.4601 19.69 32.0801C19.72 32.2501 22.64 48.8901 36.64 55.3901L33.46 60.4601C17.16 52.4501 13.96 33.8601 13.82 33.0401C13.56 31.4201 14.66 29.9001 16.27 29.6301Z" fill="#3E2967"/>
<path d="M19.53 10.46H29.92V19.76C29.92 21.58 28.44 23.06 26.62 23.06H25.57C25.06 23.06 24.64 23.47 24.64 23.99V24.9C24.64 26.06 23.4 26.79 22.38 26.24L19.73 24.8L19.52 10.46H19.53Z" fill="#FADDDC"/>
<path d="M29.2399 20.19L29.8399 20.02C30.3799 19.87 30.6999 19.3 30.5499 18.76L29.7199 15.8C29.6599 15.57 29.4199 15.44 29.1999 15.51C28.9799 15.58 28.8399 15.81 28.9099 16.03L29.6299 18.59C29.7199 18.9 29.5399 19.22 29.2299 19.3L29.0199 19.36C28.7899 19.42 28.6599 19.66 28.7299 19.88C28.7999 20.1 29.0299 20.24 29.2499 20.17L29.2399 20.19Z" fill="#E0B1BB"/>
<path d="M22.65 15.88C22.65 15.3499 22.2202 14.92 21.69 14.92C21.1598 14.92 20.73 15.3499 20.73 15.88V17.97C20.73 18.5002 21.1598 18.93 21.69 18.93C22.2202 18.93 22.65 18.5002 22.65 17.97V15.88Z" fill="#FADDDC"/>
<path d="M24.8499 35.9999C24.3499 36.9399 24.1899 38.0799 24.3399 39.0899C25.0699 38.9999 25.7899 38.4499 26.2899 37.4999C26.7899 36.5499 26.9499 35.4199 26.7999 34.4099C26.0699 34.4999 25.3499 35.0499 24.8499 35.9999Z" fill="#2D963A"/>
<path d="M25.9201 36.9101C25.1401 37.3401 24.5801 38.1701 24.3201 39.1401C24.9701 39.6101 25.7901 39.6801 26.5701 39.2601C27.3501 38.8401 27.9101 38.0001 28.1701 37.0301C27.5201 36.5601 26.7001 36.4901 25.9201 36.9101Z" fill="#3EB750"/>
<path d="M27.3299 1.59C26.6299 2.53 26.3999 3.67 26.6099 4.68C27.6399 4.59 28.6599 4.04 29.3599 3.09C30.0599 2.14 30.2899 1.01 30.0799 0C29.0499 0.09 28.0299 0.64 27.3299 1.59Z" fill="#2D963A"/>
<path d="M28.8401 2.48994C27.7501 2.91994 26.9501 3.74994 26.5801 4.71994C27.5001 5.18994 28.6601 5.25994 29.7501 4.83994C30.8401 4.41994 31.6401 3.57994 32.0101 2.60994C31.0901 2.13994 29.9301 2.06994 28.8401 2.48994Z" fill="#3EB750"/>
<path d="M18.8699 1.27002C17.8999 1.37002 15.7799 2.19002 14.5299 3.25002C13.2799 4.31002 11.5899 6.00002 11.0599 6.53003C10.5299 7.06003 8.63989 8.99002 8.21989 9.66002C7.39989 10.96 6.28989 13.61 6.67989 16.84C7.06989 20.07 10.4899 23.64 14.6799 24.55C18.8699 25.47 24.8499 26.04 28.5199 23.39C32.1899 20.74 33.5299 18.38 33.0999 14.95C32.6699 11.53 30.9799 9.45002 30.0099 8.25002C29.0399 7.05002 29.0899 4.92002 26.9199 3.52002C24.7499 2.12002 22.7699 0.870025 18.8699 1.25002V1.27002Z" fill="#FCC31E"/>
<path d="M23.2499 22.04C26.6023 22.04 29.3199 19.3224 29.3199 15.97C29.3199 12.6177 26.6023 9.90002 23.2499 9.90002C19.8976 9.90002 17.1799 12.6177 17.1799 15.97C17.1799 19.3224 19.8976 22.04 23.2499 22.04Z" fill="#FADDDC"/>
<path d="M22.45 16.67C23.3723 16.67 24.12 15.9223 24.12 15C24.12 14.0776 23.3723 13.33 22.45 13.33C21.5277 13.33 20.78 14.0776 20.78 15C20.78 15.9223 21.5277 16.67 22.45 16.67Z" fill="#F1F0EB"/>
<path d="M27.66 16.67C28.5823 16.67 29.33 15.9223 29.33 15C29.33 14.0776 28.5823 13.33 27.66 13.33C26.7377 13.33 25.99 14.0776 25.99 15C25.99 15.9223 26.7377 16.67 27.66 16.67Z" fill="#F1F0EB"/>
<path d="M24.0699 19.0601H24.6799C25.2299 19.0601 25.6699 18.6201 25.6699 18.0701V15.0901C25.6699 14.8601 25.4899 14.6801 25.2599 14.6801C25.0299 14.6801 24.8499 14.8601 24.8499 15.0901V17.6801C24.8499 17.9901 24.5999 18.2401 24.2899 18.2401H24.0799C23.8499 18.2401 23.6699 18.4201 23.6699 18.6501C23.6699 18.8801 23.8499 19.0601 24.0799 19.0601H24.0699Z" fill="#E0B1BB"/>
<path d="M20.3101 15.02C20.3101 16.19 21.2701 17.15 22.4401 17.15C23.6101 17.15 24.4601 16.29 24.5501 15.19H25.5401C25.6101 16.3 26.5301 17.18 27.6501 17.18C28.7701 17.18 29.7801 16.23 29.7801 15.05C29.7801 13.87 28.8201 12.92 27.6501 12.92C26.6901 12.92 25.8801 13.57 25.6201 14.45H24.4801C24.2301 13.55 23.4101 12.89 22.4401 12.89C21.2701 12.89 20.3101 13.84 20.3101 15.02ZM26.3701 15.05C26.3701 14.34 26.9501 13.76 27.6601 13.76C28.3701 13.76 28.9501 14.34 28.9501 15.05C28.9501 15.76 28.3701 16.34 27.6601 16.34C26.9501 16.34 26.3701 15.76 26.3701 15.05ZM21.1501 15.02C21.1501 14.31 21.7301 13.73 22.4401 13.73C23.1501 13.73 23.7301 14.31 23.7301 15.02C23.7301 15.73 23.1501 16.31 22.4401 16.31C21.7301 16.31 21.1501 15.73 21.1501 15.02Z" fill="#898989"/>
<path d="M14.8199 7.16002C15.306 7.16002 15.6999 6.76604 15.6999 6.28002C15.6999 5.79401 15.306 5.40002 14.8199 5.40002C14.3339 5.40002 13.9399 5.79401 13.9399 6.28002C13.9399 6.76604 14.3339 7.16002 14.8199 7.16002Z" fill="#D6952D"/>
<path d="M28.18 10.35C28.6661 10.35 29.06 9.95598 29.06 9.46997C29.06 8.98396 28.6661 8.58997 28.18 8.58997C27.694 8.58997 27.3 8.98396 27.3 9.46997C27.3 9.95598 27.694 10.35 28.18 10.35Z" fill="#D6952D"/>
<path d="M13.6199 22.72C14.0175 22.72 14.3399 22.3977 14.3399 22C14.3399 21.6024 14.0175 21.28 13.6199 21.28C13.2223 21.28 12.8999 21.6024 12.8999 22C12.8999 22.3977 13.2223 22.72 13.6199 22.72Z" fill="#D6952D"/>
<path d="M30.49 12.6299C30.8877 12.6299 31.21 12.3076 31.21 11.9099C31.21 11.5123 30.8877 11.1899 30.49 11.1899C30.0924 11.1899 29.77 11.5123 29.77 11.9099C29.77 12.3076 30.0924 12.6299 30.49 12.6299Z" fill="#D6952D"/>
<path d="M11.4001 10.53C11.5878 10.53 11.7401 10.3778 11.7401 10.19C11.7401 10.0022 11.5878 9.84998 11.4001 9.84998C11.2123 9.84998 11.0601 10.0022 11.0601 10.19C11.0601 10.3778 11.2123 10.53 11.4001 10.53Z" fill="#D6952D"/>
<path d="M29.9401 20.33C30.1279 20.33 30.2801 20.1778 30.2801 19.99C30.2801 19.8022 30.1279 19.65 29.9401 19.65C29.7523 19.65 29.6001 19.8022 29.6001 19.99C29.6001 20.1778 29.7523 20.33 29.9401 20.33Z" fill="#D6952D"/>
<path d="M9.0901 16.51C9.22265 16.51 9.3301 16.4026 9.3301 16.27C9.3301 16.1375 9.22265 16.03 9.0901 16.03C8.95755 16.03 8.8501 16.1375 8.8501 16.27C8.8501 16.4026 8.95755 16.51 9.0901 16.51Z" fill="#D6952D"/>
<path d="M30.49 14.77C30.6225 14.77 30.73 14.6626 30.73 14.53C30.73 14.3975 30.6225 14.29 30.49 14.29C30.3575 14.29 30.25 14.3975 30.25 14.53C30.25 14.6626 30.3575 14.77 30.49 14.77Z" fill="#D6952D"/>
<path d="M9.23005 13.08C9.46753 13.08 9.66005 12.8875 9.66005 12.65C9.66005 12.4125 9.46753 12.22 9.23005 12.22C8.99257 12.22 8.80005 12.4125 8.80005 12.65C8.80005 12.8875 8.99257 13.08 9.23005 13.08Z" fill="#D6952D"/>
</g>
<defs>
<clipPath id="clip0_134_1553">
<rect width="39.48" height="118.11" fill="white"/>
</clipPath>
</defs>
</svg>
