<svg width="110" height="110" viewBox="0 0 110 110" fill="none" xmlns="http://www.w3.org/2000/svg">
<g clip-path="url(#clip0_1217_1395)">
<path d="M33.2399 45.33C32.3699 46.68 30.5799 47.06 29.2299 46.19C28.1199 45.48 27.6699 44.14 28.0199 42.94C28.0999 42.68 28.2099 42.43 28.3699 42.19C28.7499 41.61 29.1399 41.05 29.5399 40.51L33.8499 44.45C33.6499 44.74 33.4399 45.03 33.2499 45.34L33.2399 45.33Z" fill="#FADDDC"/>
<path d="M62.1 29.43C62.07 31.03 60.75 32.3 59.15 32.28C58.98 32.28 42.52 32.17 33.84 44.45L29.53 40.51C40.06 26.28 58.45 26.47 59.25 26.49C60.85 26.52 62.12 27.84 62.09 29.44L62.1 29.43Z" fill="#281C47"/>
<path d="M63.7299 56.06L48.45 57.62L67.32 82.27L70.75 104.93L73.5999 104.52L74.15 105.96C75.11 108 74.5 109.49 76.08 108.69L81.1399 107.41C81.8599 107.05 81.74 106.01 80.9 105.76C80.34 105.59 79.4899 105.57 78.9199 105.54C76.7899 105.45 76.8499 103.48 76.7099 102.08C75.8399 93.51 75.9999 81.63 75.1199 79.3C73.3899 74.75 63.74 56.06 63.74 56.06H63.7299Z" fill="#163270"/>
<path d="M59.4199 59.63L43.8399 59.87L37.8199 80.04L21.2999 90.78L22.9199 93.48C22.6399 94.6 21.4499 94.53 20.9799 94.87C20.2899 95.37 19.5299 96.34 20.3999 97.36L24.2399 101.75C24.9899 102.04 25.7399 100.92 25.3299 100.12C25.0599 99.59 24.7899 97.95 24.8099 97.4C24.8499 96.18 25.5399 95.34 25.5399 95.34L45.9499 83.96L59.4199 59.62V59.63Z" fill="#42568E"/>
<path d="M67 61.95L43.56 62.03C39.92 62.03 44.1 40.97 44.1 40.97C45.17 34.01 46.72 25.94 54.73 24.17H58.97C60.43 24.17 61.81 24.91 62.58 26.16C68.1 35.19 67.02 61.96 67.02 61.96L67 61.95Z" fill="#3E2967"/>
<path d="M54.9099 10.19H65.0399V19.25C65.0399 21.03 63.5999 22.47 61.8199 22.47H60.7999C60.2999 22.47 59.8999 22.87 59.8999 23.37V24.26C59.8999 25.39 58.6899 26.11 57.6999 25.57L55.1199 24.17L54.9199 10.19H54.9099Z" fill="#FADDDC"/>
<path d="M64.3701 19.68L64.9601 19.51C65.4901 19.36 65.8001 18.81 65.6501 18.29L64.8401 15.41C64.7801 15.19 64.5501 15.06 64.3301 15.12C64.1101 15.18 63.9801 15.41 64.0401 15.63L64.7401 18.13C64.8201 18.43 64.6501 18.74 64.3501 18.82L64.1401 18.88C63.9201 18.94 63.7901 19.17 63.8501 19.39C63.9101 19.61 64.1401 19.74 64.3601 19.68H64.3701Z" fill="#E0B1BB"/>
<path d="M57.9401 15.48C57.9401 14.9609 57.5215 14.54 57.0051 14.54C56.4887 14.54 56.0701 14.9609 56.0701 15.48V17.51C56.0701 18.0291 56.4887 18.45 57.0051 18.45C57.5215 18.45 57.9401 18.0291 57.9401 17.51V15.48Z" fill="#FADDDC"/>
<path d="M60.09 35.08C59.61 36 59.45 37.1 59.59 38.09C60.3 38 61 37.46 61.49 36.54C61.98 35.62 62.13 34.52 61.99 33.53C61.28 33.62 60.58 34.16 60.09 35.08Z" fill="#2D963A"/>
<path d="M61.1401 35.97C60.3801 36.39 59.8301 37.2 59.5801 38.14C60.2201 38.59 61.0101 38.67 61.7701 38.25C62.5301 37.83 63.0801 37.02 63.3301 36.08C62.6901 35.63 61.9001 35.55 61.1401 35.97Z" fill="#3EB750"/>
<path d="M62.4999 1.55C61.8199 2.47 61.5899 3.57 61.7999 4.56C62.7999 4.47 63.7899 3.93 64.4799 3.01C65.1699 2.09 65.3899 0.99 65.1799 0C64.1799 0.09 63.1899 0.63 62.4999 1.55Z" fill="#2D963A"/>
<path d="M63.98 2.43C62.91 2.85 62.14 3.66 61.78 4.6C62.68 5.05 63.8 5.13 64.87 4.71C65.94 4.29 66.71 3.48 67.07 2.54C66.17 2.09 65.05 2.01 63.98 2.43Z" fill="#3EB750"/>
<path d="M54.2701 1.24C53.3201 1.33 51.2601 2.13 50.0401 3.17C48.8201 4.2 47.1701 5.85 46.6601 6.37C46.1501 6.89 44.3001 8.77 43.8901 9.42C43.0901 10.69 42.0101 13.27 42.3901 16.42C42.7701 19.57 46.1001 23.05 50.1901 23.94C54.2801 24.83 60.1001 25.4 63.6801 22.81C67.2501 20.23 68.5701 17.92 68.1401 14.59C67.7101 11.26 66.0701 9.23 65.1301 8.06C64.1901 6.89 64.2401 4.82 62.1201 3.46C60.0101 2.1 58.0801 0.88 54.2701 1.25V1.24Z" fill="#FCC31E"/>
<path d="M58.5301 21.47C61.7941 21.47 64.4401 18.824 64.4401 15.56C64.4401 12.296 61.7941 9.65 58.5301 9.65C55.2661 9.65 52.6201 12.296 52.6201 15.56C52.6201 18.824 55.2661 21.47 58.5301 21.47Z" fill="#FADDDC"/>
<path d="M57.7501 16.25C58.6503 16.25 59.3801 15.5202 59.3801 14.62C59.3801 13.7198 58.6503 12.99 57.7501 12.99C56.8499 12.99 56.1201 13.7198 56.1201 14.62C56.1201 15.5202 56.8499 16.25 57.7501 16.25Z" fill="#F1F0EB"/>
<path d="M62.83 16.25C63.7302 16.25 64.4599 15.5202 64.4599 14.62C64.4599 13.7198 63.7302 12.99 62.83 12.99C61.9297 12.99 61.2 13.7198 61.2 14.62C61.2 15.5202 61.9297 16.25 62.83 16.25Z" fill="#F1F0EB"/>
<path d="M59.3299 18.57H59.9199C60.4499 18.57 60.8899 18.14 60.8899 17.6V14.69C60.8899 14.47 60.7099 14.29 60.4899 14.29C60.2699 14.29 60.0899 14.47 60.0899 14.69V17.21C60.0899 17.51 59.8399 17.76 59.5399 17.76H59.3299C59.1099 17.76 58.9299 17.94 58.9299 18.16C58.9299 18.38 59.1099 18.56 59.3299 18.56V18.57Z" fill="#E0B1BB"/>
<path d="M55.6599 14.64C55.6599 15.78 56.5899 16.71 57.7299 16.71C58.8699 16.71 59.6999 15.87 59.7899 14.8H60.7599C60.8299 15.88 61.7199 16.74 62.8199 16.74C63.9199 16.74 64.8899 15.81 64.8899 14.67C64.8899 13.53 63.9599 12.6 62.8199 12.6C61.8799 12.6 61.0999 13.23 60.8399 14.09H59.7199C59.4799 13.22 58.6799 12.57 57.7299 12.57C56.5899 12.57 55.6599 13.5 55.6599 14.64ZM61.5599 14.67C61.5599 13.98 62.1199 13.41 62.8199 13.41C63.5199 13.41 64.0799 13.97 64.0799 14.67C64.0799 15.36 63.5199 15.93 62.8199 15.93C62.1199 15.93 61.5599 15.37 61.5599 14.67ZM56.4799 14.64C56.4799 13.95 57.0399 13.38 57.7399 13.38C58.4399 13.38 58.9999 13.94 58.9999 14.64C58.9999 15.34 58.4399 15.9 57.7399 15.9C57.0399 15.9 56.4799 15.34 56.4799 14.64Z" fill="#898989"/>
<path d="M50.32 6.98C50.7949 6.98 51.18 6.59496 51.18 6.12C51.18 5.64503 50.7949 5.26 50.32 5.26C49.845 5.26 49.46 5.64503 49.46 6.12C49.46 6.59496 49.845 6.98 50.32 6.98Z" fill="#D6952D"/>
<path d="M63.33 10.09C63.8049 10.09 64.19 9.70496 64.19 9.23C64.19 8.75503 63.8049 8.37 63.33 8.37C62.855 8.37 62.47 8.75503 62.47 9.23C62.47 9.70496 62.855 10.09 63.33 10.09Z" fill="#D6952D"/>
<path d="M49.1399 22.14C49.5265 22.14 49.8399 21.8266 49.8399 21.44C49.8399 21.0534 49.5265 20.74 49.1399 20.74C48.7533 20.74 48.4399 21.0534 48.4399 21.44C48.4399 21.8266 48.7533 22.14 49.1399 22.14Z" fill="#D6952D"/>
<path d="M65.5799 12.3C65.9665 12.3 66.2799 11.9866 66.2799 11.6C66.2799 11.2134 65.9665 10.9 65.5799 10.9C65.1933 10.9 64.8799 11.2134 64.8799 11.6C64.8799 11.9866 65.1933 12.3 65.5799 12.3Z" fill="#D6952D"/>
<path d="M46.9799 10.26C47.1622 10.26 47.3099 10.1123 47.3099 9.93C47.3099 9.74775 47.1622 9.6 46.9799 9.6C46.7976 9.6 46.6499 9.74775 46.6499 9.93C46.6499 10.1123 46.7976 10.26 46.9799 10.26Z" fill="#D6952D"/>
<path d="M65.05 19.81C65.2322 19.81 65.38 19.6623 65.38 19.48C65.38 19.2977 65.2322 19.15 65.05 19.15C64.8677 19.15 64.72 19.2977 64.72 19.48C64.72 19.6623 64.8677 19.81 65.05 19.81Z" fill="#D6952D"/>
<path d="M44.73 16.08C44.857 16.08 44.96 15.977 44.96 15.85C44.96 15.723 44.857 15.62 44.73 15.62C44.603 15.62 44.5 15.723 44.5 15.85C44.5 15.977 44.603 16.08 44.73 16.08Z" fill="#D6952D"/>
<path d="M65.5901 14.39C65.7171 14.39 65.8201 14.287 65.8201 14.16C65.8201 14.033 65.7171 13.93 65.5901 13.93C65.4631 13.93 65.3601 14.033 65.3601 14.16C65.3601 14.287 65.4631 14.39 65.5901 14.39Z" fill="#D6952D"/>
<path d="M44.87 12.75C45.1019 12.75 45.29 12.562 45.29 12.33C45.29 12.098 45.1019 11.91 44.87 11.91C44.638 11.91 44.45 12.098 44.45 12.33C44.45 12.562 44.638 12.75 44.87 12.75Z" fill="#D6952D"/>
<path d="M82.2999 40.58C83.8999 40.46 85.2899 41.65 85.4099 43.25C85.5099 44.56 84.7199 45.74 83.5499 46.18C83.2999 46.28 83.0199 46.34 82.7399 46.36C82.0499 46.41 81.3699 46.44 80.6899 46.45L81.2199 40.64C81.5699 40.63 81.9299 40.61 82.2899 40.58H82.2999Z" fill="#FADDDC"/>
<path d="M52.18 27.21C53.47 26.27 55.28 26.55 56.23 27.83C56.33 27.97 66.2 41.14 81.23 40.63L80.7 46.44C63 46.66 52.03 31.9 51.55 31.25C50.61 29.96 50.89 28.15 52.18 27.21Z" fill="#3E2967"/>
</g>
<defs>
<clipPath id="clip0_1217_1395">
<rect width="65.42" height="108.9" fill="white" transform="translate(20)"/>
</clipPath>
</defs>
</svg>
