<svg width="110" height="110" viewBox="0 0 110 110" fill="none" xmlns="http://www.w3.org/2000/svg">
<g clip-path="url(#clip0_1217_1653)">
<path d="M25.53 47.14C23.97 47.48 22.97 49.02 23.31 50.59C23.59 51.88 24.68 52.77 25.93 52.87C26.2 52.89 26.48 52.87 26.76 52.81C27.44 52.66 28.1 52.49 28.75 52.31L26.57 46.89C26.23 46.98 25.88 47.07 25.53 47.14Z" fill="#FADDDC"/>
<path d="M50.56 25.72C49.05 25.18 47.4 25.97 46.86 27.48C46.8 27.64 41.12 43.09 26.57 46.9L28.75 52.32C45.77 47.46 52.06 30.18 52.33 29.42C52.86 27.91 52.07 26.26 50.57 25.73L50.56 25.72Z" fill="#281C47"/>
<path d="M51.7301 56.25H64.0001L69.1801 78.4L85.7001 89.13L84.0801 91.83C84.3601 92.95 85.5501 92.88 86.0201 93.22C86.7101 93.72 87.4701 94.69 86.6001 95.71L82.7601 100.1C82.0101 100.39 81.2601 99.27 81.6701 98.47C81.9401 97.94 82.2101 96.3 82.1901 95.75C82.1501 94.53 81.4601 93.69 81.4601 93.69L61.0501 82.31L51.7301 56.24V56.25Z" fill="#163270"/>
<path d="M46.5 56.56L61.78 58.12L44.54 82.81L36.88 105.77L34.03 105.36L33.1 107.18C32.14 109.22 32.01 110.09 30.43 109.29L26.51 107.73C25.79 107.37 25.91 106.33 26.75 106.08C27.31 105.91 28.16 105.89 28.73 105.86C30.86 105.77 30.58 104.27 30.93 102.92C33.02 94.83 33.97 88.33 36.32 80.16C37.67 75.48 46.5 56.57 46.5 56.57V56.56Z" fill="#42568E"/>
<path d="M43 61.95L66.44 62.03C70.08 62.03 65.9 40.97 65.9 40.97C64.83 34.01 63.28 25.94 55.27 24.17H51.03C49.57 24.17 48.19 24.91 47.42 26.16C41.9 35.19 42.98 61.96 42.98 61.96L43 61.95Z" fill="#3E2967"/>
<path d="M76.62 51.84C76.99 53.4 78.55 54.36 80.11 53.99C81.39 53.69 82.27 52.58 82.34 51.33C82.35 51.06 82.34 50.78 82.27 50.5C82.11 49.82 81.93 49.17 81.73 48.52L76.36 50.79C76.46 51.13 76.55 51.47 76.63 51.83L76.62 51.84Z" fill="#FADDDC"/>
<path d="M54.74 27.21C54.23 28.73 55.05 30.37 56.57 30.88C56.73 30.93 72.28 36.33 76.36 50.81L81.73 48.54C76.56 31.61 59.17 25.64 58.4 25.39C56.88 24.89 55.25 25.71 54.74 27.22V27.21Z" fill="#3E2967"/>
<path d="M55.0901 10.19H44.9601V19.25C44.9601 21.03 46.4001 22.47 48.1801 22.47H49.2001C49.7001 22.47 50.1001 22.87 50.1001 23.37V24.26C50.1001 25.39 51.3101 26.11 52.3001 25.57L54.8801 24.17L55.0801 10.19H55.0901Z" fill="#FADDDC"/>
<path d="M45.6299 19.68L45.0399 19.51C44.5099 19.36 44.1999 18.81 44.3499 18.29L45.1599 15.41C45.2199 15.19 45.4499 15.06 45.6699 15.12C45.8899 15.18 46.0199 15.41 45.9599 15.63L45.2599 18.13C45.1799 18.43 45.3499 18.74 45.6499 18.82L45.8599 18.88C46.0799 18.94 46.2099 19.17 46.1499 19.39C46.0899 19.61 45.8599 19.74 45.6399 19.68H45.6299Z" fill="#E0B1BB"/>
<path d="M52.0599 15.48C52.0599 14.9608 52.4785 14.54 52.9949 14.54C53.5113 14.54 53.9299 14.9608 53.9299 15.48V17.51C53.9299 18.0291 53.5113 18.45 52.9949 18.45C52.4785 18.45 52.0599 18.0291 52.0599 17.51V15.48Z" fill="#FADDDC"/>
<path d="M49.91 35.08C50.39 36 50.55 37.1 50.41 38.09C49.7 38 49 37.46 48.51 36.54C48.02 35.62 47.87 34.52 48.01 33.53C48.72 33.62 49.42 34.16 49.91 35.08Z" fill="#2D963A"/>
<path d="M48.8599 35.97C49.6199 36.39 50.1699 37.2 50.4199 38.14C49.7799 38.59 48.9899 38.67 48.2299 38.25C47.4699 37.83 46.9199 37.02 46.6699 36.08C47.3099 35.63 48.0999 35.55 48.8599 35.97Z" fill="#3EB750"/>
<path d="M47.4901 1.55C48.1701 2.47 48.4001 3.57 48.1901 4.56C47.1901 4.47 46.2001 3.93 45.5101 3.01C44.8201 2.09 44.6001 0.99 44.8101 0C45.8101 0.09 46.8001 0.63 47.4901 1.55Z" fill="#2D963A"/>
<path d="M46.02 2.43C47.09 2.85 47.86 3.66 48.22 4.6C47.32 5.05 46.2 5.13 45.13 4.71C44.06 4.29 43.29 3.48 42.93 2.54C43.83 2.09 44.95 2.01 46.02 2.43Z" fill="#3EB750"/>
<path d="M55.7299 1.24C56.6799 1.33 58.7399 2.13 59.9599 3.17C61.1799 4.2 62.8299 5.85 63.3399 6.37C63.8499 6.89 65.6999 8.77 66.1099 9.42C66.9099 10.69 67.9899 13.27 67.6099 16.42C67.2299 19.57 63.8999 23.05 59.8099 23.94C55.7199 24.83 49.8999 25.4 46.3199 22.81C42.7399 20.22 41.4299 17.92 41.8599 14.59C42.2899 11.26 43.9299 9.23 44.8699 8.06C45.8099 6.89 45.7599 4.82 47.8799 3.46C49.9899 2.1 51.9199 0.880001 55.7299 1.25V1.24Z" fill="#FCC31E"/>
<path d="M51.4699 21.47C48.2059 21.47 45.5599 18.824 45.5599 15.56C45.5599 12.296 48.2059 9.64999 51.4699 9.64999C54.7339 9.64999 57.3799 12.296 57.3799 15.56C57.3799 18.824 54.7339 21.47 51.4699 21.47Z" fill="#FADDDC"/>
<path d="M52.2401 16.25C51.3399 16.25 50.6101 15.5202 50.6101 14.62C50.6101 13.7198 51.3399 12.99 52.2401 12.99C53.1403 12.99 53.8701 13.7198 53.8701 14.62C53.8701 15.5202 53.1403 16.25 52.2401 16.25Z" fill="#F1F0EB"/>
<path d="M47.17 16.25C46.2698 16.25 45.5401 15.5202 45.5401 14.62C45.5401 13.7198 46.2698 12.99 47.17 12.99C48.0703 12.99 48.8 13.7198 48.8 14.62C48.8 15.5202 48.0703 16.25 47.17 16.25Z" fill="#F1F0EB"/>
<path d="M50.6701 18.57H50.0801C49.5501 18.57 49.1101 18.14 49.1101 17.6V14.69C49.1101 14.47 49.2901 14.29 49.5101 14.29C49.7301 14.29 49.9101 14.47 49.9101 14.69V17.21C49.9101 17.51 50.1601 17.76 50.4601 17.76H50.6701C50.8901 17.76 51.0701 17.94 51.0701 18.16C51.0701 18.38 50.8901 18.56 50.6701 18.56V18.57Z" fill="#E0B1BB"/>
<path d="M54.3301 14.64C54.3301 15.78 53.4001 16.71 52.2601 16.71C51.1201 16.71 50.2901 15.87 50.2001 14.8H49.2301C49.1601 15.88 48.2701 16.74 47.1701 16.74C46.0701 16.74 45.1001 15.81 45.1001 14.67C45.1001 13.53 46.0301 12.6 47.1701 12.6C48.1101 12.6 48.8901 13.23 49.1501 14.09H50.2701C50.5101 13.22 51.3101 12.57 52.2601 12.57C53.4001 12.57 54.3301 13.5 54.3301 14.64ZM48.4301 14.67C48.4301 13.98 47.8701 13.41 47.1701 13.41C46.4701 13.41 45.9101 13.97 45.9101 14.67C45.9101 15.36 46.4701 15.93 47.1701 15.93C47.8701 15.93 48.4301 15.37 48.4301 14.67ZM53.5201 14.64C53.5201 13.95 52.9601 13.38 52.2601 13.38C51.5601 13.38 51.0001 13.94 51.0001 14.64C51.0001 15.34 51.5601 15.9 52.2601 15.9C52.9601 15.9 53.5201 15.34 53.5201 14.64Z" fill="#898989"/>
<path d="M59.68 6.97999C59.2051 6.97999 58.82 6.59496 58.82 6.11999C58.82 5.64503 59.2051 5.25999 59.68 5.25999C60.155 5.25999 60.54 5.64503 60.54 6.11999C60.54 6.59496 60.155 6.97999 59.68 6.97999Z" fill="#D6952D"/>
<path d="M46.66 10.09C46.1851 10.09 45.8 9.70496 45.8 9.22999C45.8 8.75503 46.1851 8.37 46.66 8.37C47.135 8.37 47.52 8.75503 47.52 9.22999C47.52 9.70496 47.135 10.09 46.66 10.09Z" fill="#D6952D"/>
<path d="M60.85 22.14C60.4635 22.14 60.15 21.8266 60.15 21.44C60.15 21.0534 60.4635 20.74 60.85 20.74C61.2366 20.74 61.55 21.0534 61.55 21.44C61.55 21.8266 61.2366 22.14 60.85 22.14Z" fill="#D6952D"/>
<path d="M44.4101 12.3C44.0235 12.3 43.7101 11.9866 43.7101 11.6C43.7101 11.2134 44.0235 10.9 44.4101 10.9C44.7967 10.9 45.1101 11.2134 45.1101 11.6C45.1101 11.9866 44.7967 12.3 44.4101 12.3Z" fill="#D6952D"/>
<path d="M63.0101 10.26C62.8278 10.26 62.6801 10.1123 62.6801 9.93001C62.6801 9.74775 62.8278 9.60001 63.0101 9.60001C63.1923 9.60001 63.3401 9.74775 63.3401 9.93001C63.3401 10.1123 63.1923 10.26 63.0101 10.26Z" fill="#D6952D"/>
<path d="M44.94 19.81C44.7578 19.81 44.61 19.6622 44.61 19.48C44.61 19.2977 44.7578 19.15 44.94 19.15C45.1223 19.15 45.27 19.2977 45.27 19.48C45.27 19.6622 45.1223 19.81 44.94 19.81Z" fill="#D6952D"/>
<path d="M65.27 16.08C65.143 16.08 65.04 15.977 65.04 15.85C65.04 15.723 65.143 15.62 65.27 15.62C65.397 15.62 65.5 15.723 65.5 15.85C65.5 15.977 65.397 16.08 65.27 16.08Z" fill="#D6952D"/>
<path d="M44.4099 14.39C44.2829 14.39 44.1799 14.287 44.1799 14.16C44.1799 14.033 44.2829 13.93 44.4099 13.93C44.5369 13.93 44.6399 14.033 44.6399 14.16C44.6399 14.287 44.5369 14.39 44.4099 14.39Z" fill="#D6952D"/>
<path d="M65.13 12.75C64.8981 12.75 64.71 12.562 64.71 12.33C64.71 12.098 64.8981 11.91 65.13 11.91C65.362 11.91 65.55 12.098 65.55 12.33C65.55 12.562 65.362 12.75 65.13 12.75Z" fill="#D6952D"/>
</g>
<defs>
<clipPath id="clip0_1217_1653">
<rect width="63.76" height="109.58" fill="white" transform="matrix(-1 0 0 1 87 0)"/>
</clipPath>
</defs>
</svg>
