<svg width="110" height="110" viewBox="0 0 110 110" fill="none" xmlns="http://www.w3.org/2000/svg">
<g clip-path="url(#clip0_1216_2599)">
<path d="M84.47 47.14C86.03 47.48 87.03 49.02 86.69 50.59C86.41 51.88 85.32 52.77 84.07 52.87C83.8 52.89 83.52 52.87 83.24 52.81C82.56 52.66 81.9 52.49 81.25 52.31L83.43 46.89C83.77 46.98 84.12 47.07 84.47 47.14Z" fill="#FADDDC"/>
<path d="M59.44 25.72C60.95 25.18 62.6 25.97 63.14 27.48C63.2 27.64 68.88 43.09 83.43 46.9L81.25 52.32C64.23 47.46 57.94 30.18 57.67 29.42C57.14 27.91 57.93 26.26 59.43 25.73L59.44 25.72Z" fill="#281C47"/>
<path d="M58.2699 56.25H45.9999L40.8199 78.4L24.2999 89.13L25.9199 91.83C25.6399 92.95 24.4499 92.88 23.9799 93.22C23.2899 93.72 22.5299 94.69 23.3999 95.71L27.2399 100.1C27.9899 100.39 28.7399 99.27 28.3299 98.47C28.0599 97.94 27.7899 96.3 27.8099 95.75C27.8499 94.53 28.5399 93.69 28.5399 93.69L48.9499 82.31L58.2699 56.24V56.25Z" fill="#163270"/>
<path d="M63.5 56.56L48.22 58.12L65.46 82.81L73.12 105.77L75.97 105.36L76.9 107.18C77.86 109.22 77.99 110.09 79.57 109.29L83.49 107.73C84.21 107.37 84.09 106.33 83.25 106.08C82.69 105.91 81.84 105.89 81.27 105.86C79.14 105.77 79.42 104.27 79.07 102.92C76.98 94.83 76.03 88.33 73.68 80.16C72.33 75.48 63.5 56.57 63.5 56.57V56.56Z" fill="#42568E"/>
<path d="M67 61.95L43.56 62.03C39.92 62.03 44.1 40.97 44.1 40.97C45.17 34.01 46.72 25.94 54.73 24.17H58.97C60.43 24.17 61.81 24.91 62.58 26.16C68.1 35.19 67.02 61.96 67.02 61.96L67 61.95Z" fill="#3E2967"/>
<path d="M33.38 51.84C33.01 53.4 31.45 54.36 29.89 53.99C28.61 53.69 27.73 52.58 27.66 51.33C27.65 51.06 27.66 50.78 27.73 50.5C27.89 49.82 28.07 49.17 28.27 48.52L33.64 50.79C33.54 51.13 33.45 51.47 33.37 51.83L33.38 51.84Z" fill="#FADDDC"/>
<path d="M55.26 27.21C55.77 28.73 54.95 30.37 53.43 30.88C53.27 30.93 37.72 36.33 33.64 50.81L28.27 48.54C33.44 31.61 50.83 25.64 51.6 25.39C53.12 24.89 54.75 25.71 55.26 27.22V27.21Z" fill="#3E2967"/>
<path d="M54.9099 10.19H65.0399V19.25C65.0399 21.03 63.5999 22.47 61.8199 22.47H60.7999C60.2999 22.47 59.8999 22.87 59.8999 23.37V24.26C59.8999 25.39 58.6899 26.11 57.6999 25.57L55.1199 24.17L54.9199 10.19H54.9099Z" fill="#FADDDC"/>
<path d="M64.3701 19.68L64.9601 19.51C65.4901 19.36 65.8001 18.81 65.6501 18.29L64.8401 15.41C64.7801 15.19 64.5501 15.06 64.3301 15.12C64.1101 15.18 63.9801 15.41 64.0401 15.63L64.7401 18.13C64.8201 18.43 64.6501 18.74 64.3501 18.82L64.1401 18.88C63.9201 18.94 63.7901 19.17 63.8501 19.39C63.9101 19.61 64.1401 19.74 64.3601 19.68H64.3701Z" fill="#E0B1BB"/>
<path d="M57.9401 15.48C57.9401 14.9609 57.5215 14.54 57.0051 14.54C56.4887 14.54 56.0701 14.9609 56.0701 15.48V17.51C56.0701 18.0291 56.4887 18.45 57.0051 18.45C57.5215 18.45 57.9401 18.0291 57.9401 17.51V15.48Z" fill="#FADDDC"/>
<path d="M60.09 35.08C59.61 36 59.45 37.1 59.59 38.09C60.3 38 61 37.46 61.49 36.54C61.98 35.62 62.13 34.52 61.99 33.53C61.28 33.62 60.58 34.16 60.09 35.08Z" fill="#2D963A"/>
<path d="M61.1401 35.97C60.3801 36.39 59.8301 37.2 59.5801 38.14C60.2201 38.59 61.0101 38.67 61.7701 38.25C62.5301 37.83 63.0801 37.02 63.3301 36.08C62.6901 35.63 61.9001 35.55 61.1401 35.97Z" fill="#3EB750"/>
<path d="M62.5099 1.55C61.8299 2.47 61.5999 3.57 61.8099 4.56C62.8099 4.47 63.7999 3.93 64.4899 3.01C65.1799 2.09 65.3999 0.99 65.1899 0C64.1899 0.09 63.1999 0.63 62.5099 1.55Z" fill="#2D963A"/>
<path d="M63.98 2.43C62.91 2.85 62.14 3.66 61.78 4.6C62.68 5.05 63.8 5.13 64.87 4.71C65.94 4.29 66.71 3.48 67.07 2.54C66.17 2.09 65.05 2.01 63.98 2.43Z" fill="#3EB750"/>
<path d="M54.2701 1.24C53.3201 1.33 51.2601 2.13 50.0401 3.17C48.8201 4.2 47.1701 5.85 46.6601 6.37C46.1501 6.89 44.3001 8.77 43.8901 9.42C43.0901 10.69 42.0101 13.27 42.3901 16.42C42.7701 19.57 46.1001 23.05 50.1901 23.94C54.2801 24.83 60.1001 25.4 63.6801 22.81C67.2601 20.22 68.5701 17.92 68.1401 14.59C67.7101 11.26 66.0701 9.23 65.1301 8.06C64.1901 6.89 64.2401 4.82 62.1201 3.46C60.0101 2.1 58.0801 0.88 54.2701 1.25V1.24Z" fill="#FCC31E"/>
<path d="M58.5301 21.47C61.7941 21.47 64.4401 18.824 64.4401 15.56C64.4401 12.296 61.7941 9.65 58.5301 9.65C55.2661 9.65 52.6201 12.296 52.6201 15.56C52.6201 18.824 55.2661 21.47 58.5301 21.47Z" fill="#FADDDC"/>
<path d="M57.7599 16.25C58.6601 16.25 59.3899 15.5202 59.3899 14.62C59.3899 13.7198 58.6601 12.99 57.7599 12.99C56.8597 12.99 56.1299 13.7198 56.1299 14.62C56.1299 15.5202 56.8597 16.25 57.7599 16.25Z" fill="#F1F0EB"/>
<path d="M62.83 16.25C63.7302 16.25 64.4599 15.5202 64.4599 14.62C64.4599 13.7198 63.7302 12.99 62.83 12.99C61.9297 12.99 61.2 13.7198 61.2 14.62C61.2 15.5202 61.9297 16.25 62.83 16.25Z" fill="#F1F0EB"/>
<path d="M59.3299 18.57H59.9199C60.4499 18.57 60.8899 18.14 60.8899 17.6V14.69C60.8899 14.47 60.7099 14.29 60.4899 14.29C60.2699 14.29 60.0899 14.47 60.0899 14.69V17.21C60.0899 17.51 59.8399 17.76 59.5399 17.76H59.3299C59.1099 17.76 58.9299 17.94 58.9299 18.16C58.9299 18.38 59.1099 18.56 59.3299 18.56V18.57Z" fill="#E0B1BB"/>
<path d="M55.6699 14.64C55.6699 15.78 56.5999 16.71 57.7399 16.71C58.8799 16.71 59.7099 15.87 59.7999 14.8H60.7699C60.8399 15.88 61.7299 16.74 62.8299 16.74C63.9299 16.74 64.8999 15.81 64.8999 14.67C64.8999 13.53 63.9699 12.6 62.8299 12.6C61.8899 12.6 61.1099 13.23 60.8499 14.09H59.7299C59.4899 13.22 58.6899 12.57 57.7399 12.57C56.5999 12.57 55.6699 13.5 55.6699 14.64ZM61.5699 14.67C61.5699 13.98 62.1299 13.41 62.8299 13.41C63.5299 13.41 64.0899 13.97 64.0899 14.67C64.0899 15.36 63.5299 15.93 62.8299 15.93C62.1299 15.93 61.5699 15.37 61.5699 14.67ZM56.4799 14.64C56.4799 13.95 57.0399 13.38 57.7399 13.38C58.4399 13.38 58.9999 13.94 58.9999 14.64C58.9999 15.34 58.4399 15.9 57.7399 15.9C57.0399 15.9 56.4799 15.34 56.4799 14.64Z" fill="#898989"/>
<path d="M50.32 6.98C50.7949 6.98 51.18 6.59496 51.18 6.12C51.18 5.64503 50.7949 5.26 50.32 5.26C49.845 5.26 49.46 5.64503 49.46 6.12C49.46 6.59496 49.845 6.98 50.32 6.98Z" fill="#D6952D"/>
<path d="M63.34 10.09C63.8149 10.09 64.2 9.70496 64.2 9.23C64.2 8.75503 63.8149 8.37 63.34 8.37C62.865 8.37 62.48 8.75503 62.48 9.23C62.48 9.70496 62.865 10.09 63.34 10.09Z" fill="#D6952D"/>
<path d="M49.15 22.14C49.5365 22.14 49.85 21.8266 49.85 21.44C49.85 21.0534 49.5365 20.74 49.15 20.74C48.7634 20.74 48.45 21.0534 48.45 21.44C48.45 21.8266 48.7634 22.14 49.15 22.14Z" fill="#D6952D"/>
<path d="M65.5899 12.3C65.9765 12.3 66.2899 11.9866 66.2899 11.6C66.2899 11.2134 65.9765 10.9 65.5899 10.9C65.2033 10.9 64.8899 11.2134 64.8899 11.6C64.8899 11.9866 65.2033 12.3 65.5899 12.3Z" fill="#D6952D"/>
<path d="M46.9899 10.26C47.1722 10.26 47.3199 10.1123 47.3199 9.93C47.3199 9.74775 47.1722 9.6 46.9899 9.6C46.8077 9.6 46.6599 9.74775 46.6599 9.93C46.6599 10.1123 46.8077 10.26 46.9899 10.26Z" fill="#D6952D"/>
<path d="M65.06 19.81C65.2422 19.81 65.39 19.6623 65.39 19.48C65.39 19.2977 65.2422 19.15 65.06 19.15C64.8777 19.15 64.73 19.2977 64.73 19.48C64.73 19.6623 64.8777 19.81 65.06 19.81Z" fill="#D6952D"/>
<path d="M44.73 16.08C44.857 16.08 44.96 15.977 44.96 15.85C44.96 15.723 44.857 15.62 44.73 15.62C44.603 15.62 44.5 15.723 44.5 15.85C44.5 15.977 44.603 16.08 44.73 16.08Z" fill="#D6952D"/>
<path d="M65.5901 14.39C65.7171 14.39 65.8201 14.287 65.8201 14.16C65.8201 14.033 65.7171 13.93 65.5901 13.93C65.4631 13.93 65.3601 14.033 65.3601 14.16C65.3601 14.287 65.4631 14.39 65.5901 14.39Z" fill="#D6952D"/>
<path d="M44.87 12.75C45.1019 12.75 45.29 12.562 45.29 12.33C45.29 12.098 45.1019 11.91 44.87 11.91C44.638 11.91 44.45 12.098 44.45 12.33C44.45 12.562 44.638 12.75 44.87 12.75Z" fill="#D6952D"/>
</g>
<defs>
<clipPath id="clip0_1216_2599">
<rect width="63.76" height="109.58" fill="white" transform="translate(23)"/>
</clipPath>
</defs>
</svg>
