<svg width="110" height="110" viewBox="0 0 110 110" fill="none" xmlns="http://www.w3.org/2000/svg">
<g clip-path="url(#clip0_1216_1865)">
<path d="M46.07 57.55L70.1 57.66L65.0201 99.01C65.0201 99.01 62.5 100.68 62.49 100.74C62.29 102.06 62.4901 103.19 64.4501 101.95C65.0201 101.59 65.46 101.57 65.98 102.04C66.59 102.6 66.1201 104.21 65.5801 105.08L60.76 108.92C60.19 109.38 59.34 109.42 58.8 108.92C57.97 108.16 58.21 106.95 58.55 105.96C59.88 102.14 59.48 101.7 59.48 101.7L58.73 101.95C58.25 102.11 57.75 101.74 57.79 101.23C58.18 96.21 59.18 70.44 59.35 65.82C59.36 65.43 59.06 65.1 58.66 65.09L57.62 65.07C57.31 65.07 57.01 65.28 57 65.6C56.97 71.8 56.89 81.51 56.81 81.51C56.81 81.51 56.35 85.65 56.11 86.6C55.77 87.95 54.38 87.76 53.91 86.75C53.5 85.89 53.38 83.23 53.3 82.54H51.17L46.05 57.55H46.07Z" fill="#42568E"/>
<path d="M60.03 21.69H55.54V24.95H60.03V21.69Z" fill="#FADDDC"/>
<path d="M59.56 0.289999C58.61 0.199999 56.42 0.589999 55.01 1.37C53.6 2.15 51.66 3.46 51.05 3.87C50.44 4.28 48.26 5.78 47.72 6.35C46.69 7.45 45.12 9.79 44.88 12.97C44.64 16.15 47.26 20.23 51.12 21.9C54.98 23.57 60.62 25.25 64.65 23.4C68.67 21.54 70.42 19.52 70.65 16.15C70.88 12.78 69.65 10.46 68.95 9.12C68.25 7.78 68.7 5.75 66.87 3.99C65.05 2.24 63.38 0.659999 59.55 0.289999H59.56Z" fill="#FCC31E"/>
<path d="M54.7201 5.22C55.2006 5.22 55.5901 4.83048 55.5901 4.35C55.5901 3.86951 55.2006 3.48 54.7201 3.48C54.2396 3.48 53.8501 3.86951 53.8501 4.35C53.8501 4.83048 54.2396 5.22 54.7201 5.22Z" fill="#D6952D"/>
<path d="M66.9701 10.8C67.4506 10.8 67.8401 10.4105 67.8401 9.93C67.8401 9.44951 67.4506 9.06 66.9701 9.06C66.4896 9.06 66.1001 9.44951 66.1001 9.93C66.1001 10.4105 66.4896 10.8 66.9701 10.8Z" fill="#D6952D"/>
<path d="M54.5 19.51C54.8922 19.51 55.21 19.1921 55.21 18.8C55.21 18.4079 54.8922 18.09 54.5 18.09C54.1079 18.09 53.79 18.4079 53.79 18.8C53.79 19.1921 54.1079 19.51 54.5 19.51Z" fill="#D6952D"/>
<path d="M59.18 17.97C59.5721 17.97 59.89 17.6521 59.89 17.26C59.89 16.8679 59.5721 16.55 59.18 16.55C58.7878 16.55 58.47 16.8679 58.47 17.26C58.47 17.6521 58.7878 17.97 59.18 17.97Z" fill="#D6952D"/>
<path d="M50.7001 7.79C50.8824 7.79 51.0301 7.64226 51.0301 7.46C51.0301 7.27775 50.8824 7.13 50.7001 7.13C50.5179 7.13 50.3701 7.27775 50.3701 7.46C50.3701 7.64226 50.5179 7.79 50.7001 7.79Z" fill="#D6952D"/>
<path d="M61.2299 18.67C61.4122 18.67 61.5599 18.5222 61.5599 18.34C61.5599 18.1577 61.4122 18.01 61.2299 18.01C61.0476 18.01 60.8999 18.1577 60.8999 18.34C60.8999 18.5222 61.0476 18.67 61.2299 18.67Z" fill="#D6952D"/>
<path d="M47.3201 13.11C47.4526 13.11 47.5601 13.0026 47.5601 12.87C47.5601 12.7375 47.4526 12.63 47.3201 12.63C47.1875 12.63 47.0801 12.7375 47.0801 12.87C47.0801 13.0026 47.1875 13.11 47.3201 13.11Z" fill="#D6952D"/>
<path d="M68.24 15.47C68.3726 15.47 68.48 15.3626 68.48 15.23C68.48 15.0975 68.3726 14.99 68.24 14.99C68.1075 14.99 68 15.0975 68 15.23C68 15.3626 68.1075 15.47 68.24 15.47Z" fill="#D6952D"/>
<path d="M48.15 9.84C48.3819 9.84 48.57 9.65196 48.57 9.42C48.57 9.18804 48.3819 9 48.15 9C47.918 9 47.73 9.18804 47.73 9.42C47.73 9.65196 47.918 9.84 48.15 9.84Z" fill="#D6952D"/>
<path d="M53.3 0.819999C54.21 1.52 54.73 2.53 54.81 3.54C53.82 3.73 52.71 3.48 51.8 2.78C50.89 2.08 50.37 1.07 50.29 0.0599995C51.28 -0.130001 52.39 0.119999 53.3 0.819999Z" fill="#2D963A"/>
<path d="M52.1199 2.08C53.2699 2.19 54.2399 2.76 54.8399 3.58C54.0999 4.27 53.0299 4.65 51.8799 4.54C50.7299 4.43 49.7599 3.86 49.1599 3.04C49.8999 2.35 50.9699 1.97 52.1199 2.08Z" fill="#3EB750"/>
<path d="M39.34 61.82C39.67 63.62 38.43 65.4 36.56 65.8C35.03 66.13 33.55 65.42 32.89 64.17C32.75 63.9 32.64 63.6 32.58 63.28C32.44 62.5 32.32 61.73 32.24 60.97L39.16 60.62C39.22 61.02 39.28 61.42 39.35 61.83L39.34 61.82Z" fill="#FADDDC"/>
<path d="M51.5699 25.36C52.8399 26.67 52.7199 28.78 51.3099 30.07C51.1599 30.21 36.7799 43.6 39.1499 60.61L32.2299 60.96C29.8999 40.85 46.0099 25.95 46.7299 25.3C48.1399 24.02 50.3099 24.04 51.5699 25.36Z" fill="#3E2967"/>
<path d="M72.6499 47.41C72.5399 48.61 73.6799 49.65 75.1899 49.73C75.2599 49.73 75.3199 49.73 75.3899 49.73C76.8099 49.73 78.0199 48.86 78.1199 47.71C78.1499 47.33 78.1799 46.96 78.1999 46.6H72.7099C72.6899 46.87 72.6799 47.13 72.6599 47.4L72.6499 47.41Z" fill="#FADDDC"/>
<path d="M66.22 24.02C64.9 23.44 63.25 23.82 62.51 24.86C61.77 25.9 62.24 27.22 63.55 27.82C64.05 28.05 73.64 31.56 72.71 46.62H78.2C79.19 28.91 66.85 24.31 66.22 24.03V24.02Z" fill="#281C47"/>
<path d="M70.82 61.13H44.02L44.03 31.99C44.03 26.98 48.09 22.92 53.1 22.92H61.76C66.77 22.92 70.83 26.98 70.83 31.99L70.81 61.13H70.82Z" fill="#3E2967"/>
</g>
<defs>
<clipPath id="clip0_1216_1865">
<rect width="46.25" height="109.27" fill="white" transform="translate(32)"/>
</clipPath>
</defs>
</svg>
