<svg width="110" height="110" viewBox="0 0 110 110" fill="none" xmlns="http://www.w3.org/2000/svg">
<g clip-path="url(#clip0_1217_1266)">
<path d="M63.65 55.88L50.47 53.2L59.69 74.47L51.13 93.59L53.23 94.75L52.83 96.7C52.39 98.03 52.21 98.92 53.5 100.01L57.05 101.72C57.78 101.93 58.3 101.09 57.85 100.35C57.55 99.86 56.8 99.41 56.56 98.89C55.47 96.56 56.35 96.24 56.89 95.02C60.14 87.72 68.88 76.03 68.88 76.03L63.66 55.89L63.65 55.88Z" fill="#163270"/>
<path d="M58.6 55.7L45.72 56.06L48.45 103.53L50.71 104.27C50.72 104.85 50.71 105.81 50.47 106.34C50.12 107.12 49.78 108.35 50.95 108.76L56.89 109.2C57.63 109.05 57.77 107.73 57.08 107.27C56.63 106.96 55.39 106.43 54.93 106.16C53.97 105.59 54.01 104.54 54.2 103.2C55.54 93.48 58.6 55.71 58.6 55.71V55.7Z" fill="#42568E"/>
<path d="M43.7899 57.13C43.6799 58.73 42.2999 59.93 40.6999 59.82C39.3899 59.73 38.3399 58.78 38.0699 57.56C38.0099 57.29 37.9899 57.02 38.0099 56.73C38.0599 56.04 38.1299 55.36 38.2199 54.69L43.8899 56.06C43.8499 56.41 43.8199 56.77 43.7899 57.13Z" fill="#FADDDC"/>
<path d="M61.36 29.26C62.11 30.67 61.57 32.43 60.16 33.18C60.01 33.26 45.55 41.12 43.89 56.07L38.22 54.7C40.56 37.15 56.74 28.43 57.45 28.05C58.86 27.3 60.61 27.85 61.36 29.26Z" fill="#281C47"/>
<path d="M67.0801 61.95L43.6401 62.03C40.0001 62.03 44.1801 40.97 44.1801 40.97C45.2501 34.01 46.8001 25.94 54.8101 24.17H59.0501C60.5101 24.17 61.8901 24.91 62.6601 26.16C68.1801 35.19 67.1001 61.96 67.1001 61.96L67.0801 61.95Z" fill="#3E2967"/>
<path d="M72.37 51.65C73.84 52.28 74.52 53.98 73.89 55.46C73.37 56.67 72.13 57.35 70.89 57.2C70.62 57.17 70.35 57.1 70.09 56.99C69.45 56.72 68.84 56.43 68.23 56.12L71.39 51.21C71.71 51.36 72.03 51.51 72.36 51.65H72.37Z" fill="#FADDDC"/>
<path d="M51.8601 25.87C53.4401 25.63 54.9201 26.72 55.1601 28.3C55.1901 28.47 57.8401 44.71 71.4001 51.21L68.2401 56.12C52.4501 48.12 49.5501 29.97 49.4301 29.17C49.1901 27.59 50.2801 26.12 51.8601 25.88V25.87Z" fill="#3E2967"/>
<path d="M54.99 10.19H65.12V19.25C65.12 21.03 63.68 22.47 61.9 22.47H60.88C60.38 22.47 59.98 22.87 59.98 23.37V24.26C59.98 25.39 58.77 26.11 57.78 25.57L55.2 24.17L55 10.19H54.99Z" fill="#FADDDC"/>
<path d="M64.4399 19.68L65.0299 19.51C65.5599 19.36 65.8699 18.81 65.7199 18.29L64.9099 15.41C64.8499 15.19 64.6199 15.06 64.3999 15.12C64.1799 15.18 64.0499 15.41 64.1099 15.63L64.8099 18.13C64.8899 18.43 64.7199 18.74 64.4199 18.82L64.2099 18.88C63.9899 18.94 63.8599 19.17 63.9199 19.39C63.9799 19.61 64.2099 19.74 64.4299 19.68H64.4399Z" fill="#E0B1BB"/>
<path d="M58.0199 15.48C58.0199 14.9609 57.6013 14.54 57.0849 14.54C56.5685 14.54 56.1499 14.9609 56.1499 15.48V17.51C56.1499 18.0291 56.5685 18.45 57.0849 18.45C57.6013 18.45 58.0199 18.0291 58.0199 17.51V15.48Z" fill="#FADDDC"/>
<path d="M60.1701 35.08C59.6901 36 59.5301 37.1 59.6701 38.09C60.3801 38 61.0801 37.46 61.5701 36.54C62.0601 35.62 62.2101 34.52 62.0701 33.53C61.3601 33.62 60.6601 34.16 60.1701 35.08Z" fill="#2D963A"/>
<path d="M61.2199 35.97C60.4599 36.39 59.9099 37.2 59.6599 38.14C60.2999 38.59 61.0899 38.67 61.8499 38.25C62.6099 37.83 63.1599 37.02 63.4099 36.08C62.7699 35.63 61.9799 35.55 61.2199 35.97Z" fill="#3EB750"/>
<path d="M62.58 1.55C61.9 2.47 61.67 3.57 61.88 4.56C62.88 4.47 63.87 3.93 64.56 3.01C65.25 2.09 65.47 0.99 65.26 0C64.26 0.09 63.27 0.63 62.58 1.55Z" fill="#2D963A"/>
<path d="M64.0601 2.43C62.9901 2.85 62.2201 3.66 61.8601 4.6C62.7601 5.05 63.8801 5.13 64.9501 4.71C66.0201 4.29 66.7901 3.48 67.1501 2.54C66.2501 2.09 65.1301 2.01 64.0601 2.43Z" fill="#3EB750"/>
<path d="M54.3499 1.24C53.3999 1.33 51.3399 2.13 50.1199 3.17C48.8999 4.2 47.2499 5.85 46.7399 6.37C46.2299 6.89 44.3799 8.77 43.9699 9.42C43.1699 10.69 42.0899 13.27 42.4699 16.42C42.8499 19.57 46.1799 23.05 50.2699 23.94C54.3599 24.83 60.1799 25.4 63.7599 22.81C67.3299 20.23 68.6499 17.92 68.2199 14.59C67.7899 11.26 66.1499 9.23 65.2099 8.06C64.2699 6.89 64.3199 4.82 62.1999 3.46C60.0899 2.1 58.1599 0.88 54.3499 1.25V1.24Z" fill="#FCC31E"/>
<path d="M58.61 21.47C61.874 21.47 64.52 18.824 64.52 15.56C64.52 12.296 61.874 9.65 58.61 9.65C55.3459 9.65 52.7 12.296 52.7 15.56C52.7 18.824 55.3459 21.47 58.61 21.47Z" fill="#FADDDC"/>
<path d="M57.83 16.25C58.7302 16.25 59.4599 15.5202 59.4599 14.62C59.4599 13.7198 58.7302 12.99 57.83 12.99C56.9297 12.99 56.2 13.7198 56.2 14.62C56.2 15.5202 56.9297 16.25 57.83 16.25Z" fill="#F1F0EB"/>
<path d="M62.91 16.25C63.8103 16.25 64.54 15.5202 64.54 14.62C64.54 13.7198 63.8103 12.99 62.91 12.99C62.0098 12.99 61.28 13.7198 61.28 14.62C61.28 15.5202 62.0098 16.25 62.91 16.25Z" fill="#F1F0EB"/>
<path d="M59.41 18.57H60C60.53 18.57 60.97 18.14 60.97 17.6V14.69C60.97 14.47 60.79 14.29 60.57 14.29C60.35 14.29 60.17 14.47 60.17 14.69V17.21C60.17 17.51 59.92 17.76 59.62 17.76H59.41C59.19 17.76 59.01 17.94 59.01 18.16C59.01 18.38 59.19 18.56 59.41 18.56V18.57Z" fill="#E0B1BB"/>
<path d="M55.74 14.64C55.74 15.78 56.67 16.71 57.81 16.71C58.95 16.71 59.78 15.87 59.87 14.8H60.84C60.91 15.88 61.8 16.74 62.9 16.74C64 16.74 64.97 15.81 64.97 14.67C64.97 13.53 64.04 12.6 62.9 12.6C61.96 12.6 61.18 13.23 60.92 14.09H59.8C59.56 13.22 58.76 12.57 57.81 12.57C56.67 12.57 55.74 13.5 55.74 14.64ZM61.64 14.67C61.64 13.98 62.2 13.41 62.9 13.41C63.6 13.41 64.16 13.97 64.16 14.67C64.16 15.36 63.6 15.93 62.9 15.93C62.2 15.93 61.64 15.37 61.64 14.67ZM56.56 14.64C56.56 13.95 57.12 13.38 57.82 13.38C58.52 13.38 59.08 13.94 59.08 14.64C59.08 15.33 58.52 15.9 57.82 15.9C57.12 15.9 56.56 15.34 56.56 14.64Z" fill="#898989"/>
<path d="M50.4 6.98C50.875 6.98 51.26 6.59496 51.26 6.12C51.26 5.64503 50.875 5.26 50.4 5.26C49.9251 5.26 49.54 5.64503 49.54 6.12C49.54 6.59496 49.9251 6.98 50.4 6.98Z" fill="#D6952D"/>
<path d="M63.41 10.09C63.885 10.09 64.2701 9.70496 64.2701 9.23C64.2701 8.75503 63.885 8.37 63.41 8.37C62.9351 8.37 62.55 8.75503 62.55 9.23C62.55 9.70496 62.9351 10.09 63.41 10.09Z" fill="#D6952D"/>
<path d="M49.22 22.14C49.6066 22.14 49.92 21.8266 49.92 21.44C49.92 21.0534 49.6066 20.74 49.22 20.74C48.8334 20.74 48.52 21.0534 48.52 21.44C48.52 21.8266 48.8334 22.14 49.22 22.14Z" fill="#D6952D"/>
<path d="M65.66 12.3C66.0466 12.3 66.36 11.9866 66.36 11.6C66.36 11.2134 66.0466 10.9 65.66 10.9C65.2734 10.9 64.96 11.2134 64.96 11.6C64.96 11.9866 65.2734 12.3 65.66 12.3Z" fill="#D6952D"/>
<path d="M47.06 10.26C47.2422 10.26 47.39 10.1123 47.39 9.93C47.39 9.74775 47.2422 9.6 47.06 9.6C46.8777 9.6 46.73 9.74775 46.73 9.93C46.73 10.1123 46.8777 10.26 47.06 10.26Z" fill="#D6952D"/>
<path d="M65.13 19.81C65.3123 19.81 65.46 19.6623 65.46 19.48C65.46 19.2977 65.3123 19.15 65.13 19.15C64.9478 19.15 64.8 19.2977 64.8 19.48C64.8 19.6623 64.9478 19.81 65.13 19.81Z" fill="#D6952D"/>
<path d="M44.8101 16.08C44.9371 16.08 45.0401 15.977 45.0401 15.85C45.0401 15.723 44.9371 15.62 44.8101 15.62C44.6831 15.62 44.5801 15.723 44.5801 15.85C44.5801 15.977 44.6831 16.08 44.8101 16.08Z" fill="#D6952D"/>
<path d="M65.6699 14.39C65.797 14.39 65.8999 14.287 65.8999 14.16C65.8999 14.033 65.797 13.93 65.6699 13.93C65.5429 13.93 65.4399 14.033 65.4399 14.16C65.4399 14.287 65.5429 14.39 65.6699 14.39Z" fill="#D6952D"/>
<path d="M44.95 12.75C45.182 12.75 45.37 12.562 45.37 12.33C45.37 12.098 45.182 11.91 44.95 11.91C44.7181 11.91 44.53 12.098 44.53 12.33C44.53 12.562 44.7181 12.75 44.95 12.75Z" fill="#D6952D"/>
</g>
<defs>
<clipPath id="clip0_1217_1266">
<rect width="36.13" height="109.2" fill="white" transform="translate(38)"/>
</clipPath>
</defs>
</svg>
