<svg width="110" height="112" viewBox="0 0 110 112" fill="none" xmlns="http://www.w3.org/2000/svg">
<g clip-path="url(#clip0_1216_2544)">
<path d="M62.6 60.64H36.55L41.45 105.91L44.7 105.45C44.79 106.3 44.55 107.58 43.63 108.33C43.11 108.75 42.57 109.13 42.05 109.55C41.44 110.05 41.76 111.15 42.51 111.15L47.37 110.15C49.55 109.69 49.25 108.15 48.83 106.96C48.55 106.17 48.08 104.8 48.08 104.8L49.1 104.5L48.83 68.03H50.32C50.32 68.03 53.08 88.01 53.32 88.87C53.66 90.09 55.04 89.91 55.51 89.01C55.92 88.23 56.33 85.04 56.41 84.42L58.07 84.08C59.6 83.77 60.75 82.48 60.88 80.92L62.6101 60.63L62.6 60.64Z" fill="#42568E"/>
<path d="M75.3599 56.28C76.7099 57.24 77.0299 59.12 76.0699 60.48C75.2799 61.59 73.8699 62.01 72.6399 61.58C72.3699 61.49 72.1199 61.36 71.8699 61.19C71.2799 60.77 70.7199 60.34 70.1799 59.9L74.4699 55.62C74.7599 55.85 75.0599 56.07 75.3599 56.29V56.28Z" fill="#FADDDC"/>
<path d="M60.28 27.81C61.94 27.91 63.17 30.11 63.07 31.77C63.06 31.95 62.15 46.03 74.48 55.61L70.19 59.89C55.92 48.29 57.04 31.45 57.09 30.61C57.2 28.95 58.63 27.7 60.28 27.8V27.81Z" fill="#281C47"/>
<path d="M62.9601 61.89H36.3801C35.2601 61.89 34.3601 60.94 34.4301 59.82L36.1201 32.52C36.1201 28.07 39.7301 24.47 44.1701 24.47H55.4501C59.8201 24.47 63.3701 28.01 63.3701 32.39L64.8901 59.84C64.9501 60.96 64.0601 61.9 62.9401 61.9L62.9601 61.89Z" fill="#3E2967"/>
<path d="M42.9101 61.83C43.6001 63.34 42.9401 65.13 41.4301 65.82C41.3601 65.85 41.3001 65.88 41.2301 65.9C39.7601 66.45 38.1001 65.78 37.4401 64.34C37.2201 63.87 37.0201 63.4 36.8201 62.93L42.4701 60.81C42.6201 61.15 42.7601 61.49 42.9101 61.83Z" fill="#FADDDC"/>
<path d="M39.2799 25.7C40.3499 24.44 42.2399 24.29 43.4999 25.35C44.7699 26.42 44.9299 28.31 43.8699 29.58C43.4599 30.07 34.1599 41.62 42.4499 60.8L36.7999 62.92C27.1699 40.33 38.7599 26.29 39.2699 25.69L39.2799 25.7Z" fill="#3E2967"/>
<path d="M51.9399 11.24H41.4199V18.57C41.4199 20.9 43.3099 22.79 45.6399 22.79H45.8199C46.3399 22.79 46.7599 23.21 46.7599 23.73V24.97C46.7599 26.39 47.9099 27.54 49.3299 27.54C50.7499 27.54 51.8999 26.39 51.8999 24.98L51.9399 11.25V11.24Z" fill="#FADDDC"/>
<path d="M48.6399 2.01001C47.6899 2.08001 45.6099 2.84001 44.3699 3.85001C43.1299 4.86001 41.4499 6.47001 40.9199 6.97001C40.3899 7.47001 38.5099 9.32001 38.0799 9.97001C37.2499 11.22 36.1199 13.78 36.4299 16.94C36.7399 20.1 39.9999 23.64 44.0699 24.62C48.1399 25.6 53.9499 26.28 57.5799 23.77C61.1999 21.26 62.5699 18.99 62.2099 15.64C61.8599 12.3 60.2499 10.24 59.3399 9.05001C58.4299 7.86001 58.5199 5.79001 56.4299 4.38001C54.3399 2.97001 52.4399 1.71001 48.6299 2.01001H48.6399Z" fill="#FCC31E"/>
<path d="M49.0201 22.25C52.2841 22.25 54.9301 19.604 54.9301 16.34C54.9301 13.076 52.2841 10.43 49.0201 10.43C45.7561 10.43 43.1101 13.076 43.1101 16.34C43.1101 19.604 45.7561 22.25 49.0201 22.25Z" fill="#FADDDC"/>
<path d="M47.16 16.99C48.0603 16.99 48.79 16.2602 48.79 15.36C48.79 14.4598 48.0603 13.73 47.16 13.73C46.2598 13.73 45.53 14.4598 45.53 15.36C45.53 16.2602 46.2598 16.99 47.16 16.99Z" fill="#F1F0EB"/>
<path d="M52.2401 17.1C53.1403 17.1 53.8701 16.3702 53.8701 15.47C53.8701 14.5698 53.1403 13.84 52.2401 13.84C51.3399 13.84 50.6101 14.5698 50.6101 15.47C50.6101 16.3702 51.3399 17.1 52.2401 17.1Z" fill="#F1F0EB"/>
<path d="M48.5499 19.53H49.1399C49.6699 19.55 50.1099 19.13 50.1299 18.6L50.1899 15.69C50.1899 15.47 50.0199 15.28 49.7999 15.28C49.5799 15.28 49.3899 15.45 49.3899 15.67L49.3399 18.19C49.3399 18.49 49.0799 18.73 48.7799 18.73H48.5699C48.3499 18.73 48.1599 18.9 48.1599 19.12C48.1599 19.34 48.3299 19.53 48.5499 19.53Z" fill="#E0B1BB"/>
<path d="M45.0699 15.34C45.0499 16.48 45.9599 17.43 47.0999 17.46C48.2399 17.49 49.0899 16.66 49.1999 15.6L50.1699 15.62C50.2199 16.7 51.0899 17.58 52.1899 17.6C53.2899 17.62 54.2799 16.71 54.3099 15.57C54.3299 14.43 53.4199 13.48 52.2799 13.45C51.3399 13.43 50.5399 14.04 50.2699 14.9L49.1599 14.88C48.9299 14 48.1499 13.34 47.1999 13.32C46.0599 13.3 45.1099 14.21 45.0799 15.35L45.0699 15.34ZM50.9699 15.5C50.9799 14.81 51.5599 14.25 52.2499 14.27C52.9399 14.29 53.4999 14.86 53.4799 15.55C53.4599 16.24 52.8899 16.8 52.1999 16.78C51.5099 16.76 50.9499 16.19 50.9699 15.5ZM45.8899 15.36C45.8999 14.67 46.4799 14.11 47.1699 14.13C47.8599 14.15 48.4199 14.72 48.3999 15.41C48.3799 16.1 47.8099 16.66 47.1199 16.64C46.4299 16.62 45.8699 16.05 45.8899 15.36Z" fill="#898989"/>
<path d="M44.59 7.67C45.0649 7.67 45.45 7.28496 45.45 6.81C45.45 6.33503 45.0649 5.95 44.59 5.95C44.115 5.95 43.73 6.33503 43.73 6.81C43.73 7.28496 44.115 7.67 44.59 7.67Z" fill="#D6952D"/>
<path d="M57.5399 11.04C58.0149 11.04 58.3999 10.655 58.3999 10.18C58.3999 9.70504 58.0149 9.32001 57.5399 9.32001C57.065 9.32001 56.6799 9.70504 56.6799 10.18C56.6799 10.655 57.065 11.04 57.5399 11.04Z" fill="#D6952D"/>
<path d="M43.0999 22.8C43.4865 22.8 43.7999 22.4866 43.7999 22.1C43.7999 21.7134 43.4865 21.4 43.0999 21.4C42.7133 21.4 42.3999 21.7134 42.3999 22.1C42.3999 22.4866 42.7133 22.8 43.0999 22.8Z" fill="#D6952D"/>
<path d="M56.8101 14.39C57.1967 14.39 57.5101 14.0766 57.5101 13.69C57.5101 13.3034 57.1967 12.99 56.8101 12.99C56.4235 12.99 56.1101 13.3034 56.1101 13.69C56.1101 14.0766 56.4235 14.39 56.8101 14.39Z" fill="#D6952D"/>
<path d="M41.1801 10.88C41.3624 10.88 41.5101 10.7323 41.5101 10.55C41.5101 10.3677 41.3624 10.22 41.1801 10.22C40.9978 10.22 40.8501 10.3677 40.8501 10.55C40.8501 10.7323 40.9978 10.88 41.1801 10.88Z" fill="#D6952D"/>
<path d="M57.5199 18.22C57.7022 18.22 57.8499 18.0723 57.8499 17.89C57.8499 17.7077 57.7022 17.56 57.5199 17.56C57.3377 17.56 57.1899 17.7077 57.1899 17.89C57.1899 18.0723 57.3377 18.22 57.5199 18.22Z" fill="#D6952D"/>
<path d="M38.8001 16.65C38.9271 16.65 39.0301 16.547 39.0301 16.42C39.0301 16.293 38.9271 16.19 38.8001 16.19C38.673 16.19 38.5701 16.293 38.5701 16.42C38.5701 16.547 38.673 16.65 38.8001 16.65Z" fill="#D6952D"/>
<path d="M59.69 15.39C59.817 15.39 59.92 15.287 59.92 15.16C59.92 15.033 59.817 14.93 59.69 14.93C59.5629 14.93 59.46 15.033 59.46 15.16C59.46 15.287 59.5629 15.39 59.69 15.39Z" fill="#D6952D"/>
<path d="M39.0101 13.32C39.242 13.32 39.4301 13.132 39.4301 12.9C39.4301 12.668 39.242 12.48 39.0101 12.48C38.7781 12.48 38.5901 12.668 38.5901 12.9C38.5901 13.132 38.7781 13.32 39.0101 13.32Z" fill="#D6952D"/>
<path d="M56.87 2.49C56.17 3.39 55.92 4.5 56.1 5.48C57.1 5.41 58.11 4.89 58.81 3.99C59.51 3.09 59.76 1.98 59.58 1C58.58 1.07 57.57 1.59 56.87 2.49Z" fill="#2D963A"/>
<path d="M58.3301 3.39999C57.2501 3.78999 56.4601 4.58999 56.0901 5.52999C56.9801 5.99999 58.1001 6.09999 59.1801 5.70999C60.2601 5.31999 61.0501 4.51999 61.4201 3.57999C60.5301 3.10999 59.4101 3.00999 58.3301 3.39999Z" fill="#3EB750"/>
<path d="M48.35 37.85C47.67 38.77 47.44 39.87 47.65 40.86C48.65 40.77 49.64 40.23 50.33 39.31C51.01 38.39 51.24 37.29 51.03 36.3C50.03 36.39 49.04 36.93 48.35 37.85Z" fill="#2D963A"/>
<path d="M49.8299 38.73C48.7599 39.15 47.9899 39.96 47.6299 40.9C48.5299 41.35 49.6499 41.43 50.7199 41.01C51.7899 40.59 52.5599 39.78 52.9199 38.84C52.0199 38.39 50.8999 38.31 49.8299 38.73Z" fill="#3EB750"/>
</g>
<defs>
<clipPath id="clip0_1216_2544">
<rect width="43.63" height="110.15" fill="white" transform="translate(33 1)"/>
</clipPath>
</defs>
</svg>
