<svg width="110" height="111" viewBox="0 0 110 111" fill="none" xmlns="http://www.w3.org/2000/svg">
<g clip-path="url(#clip0_1216_2209)">
<path d="M66.87 59.2L68.26 104.51L65.79 104.69C65.79 105.37 66.18 106.67 66.62 107.04C67.15 107.48 68.54 107.96 69.05 108.44C69.65 109.01 69.33 110.24 68.6 110.24H65.6H64.83C64.15 110.24 63.55 109.63 63.39 108.77L63.32 104.95L61.82 104.91C60.66 98.58 59.49 88.49 58.46 82.03C57.74 77.5 57.14 71.57 56.5 67.07C56.36 66.08 55.66 65.36 54.85 65.36H53.38C52.57 65.36 51.87 66.08 51.73 67.07C51.09 71.58 48.56 96.53 47.19 103.71C47.11 104.12 45.54 103.58 45.47 104C45.23 105.29 45.65 106.63 46.5 107.36C46.91 107.71 47.32 108.08 47.72 108.46C48.32 109.03 48.01 110.27 47.27 110.27H44.27L42.32 109.49C40.39 107.99 42.8 106.82 41.89 103.99L40.28 103.43L41.19 66.77V59.2H66.86H66.87Z" fill="#42568E"/>
<path d="M16.9201 13.25C15.9301 11.92 14.0401 11.64 12.7101 12.64C11.6101 13.46 11.2301 14.88 11.6801 16.09C11.7801 16.35 11.9101 16.61 12.0901 16.85C12.5201 17.43 12.9601 17.98 13.4201 18.51L17.6001 14.13C17.3701 13.84 17.1401 13.55 16.9101 13.25H16.9201Z" fill="#FADDDC"/>
<path d="M47.9399 27.7C47.7999 26.05 46.3399 24.82 44.6899 24.96C44.5099 24.97 27.4699 26.24 17.6099 14.13L13.4299 18.51C25.3399 32.51 44.3799 31.03 45.2099 30.95C46.8599 30.8 48.0799 29.35 47.9399 27.7Z" fill="#3E2967"/>
<path d="M68.1901 60.99H41.6201C40.5001 60.99 39.6001 60.04 39.6701 58.92L41.3601 31.62C41.3601 27.17 44.9701 23.57 49.4101 23.57H60.6901C65.0601 23.57 68.6101 27.11 68.6101 31.49L70.1301 58.94C70.1901 60.06 69.3001 61 68.1801 61L68.1901 60.99Z" fill="#3E2967"/>
<path d="M81.02 55.65C81.31 57.29 82.88 58.37 84.51 58.08C84.58 58.07 84.65 58.05 84.72 58.03C86.24 57.64 87.22 56.15 86.94 54.58C86.85 54.07 86.75 53.56 86.64 53.07L80.79 54.56C80.86 54.92 80.94 55.28 81.01 55.65H81.02Z" fill="#FADDDC"/>
<path d="M63.3699 23.92C61.7699 23.5 60.1399 24.45 59.6999 26.05C59.2699 27.65 60.2199 29.3 61.8099 29.74C62.4199 29.91 76.6599 34.08 80.7999 54.56L86.6499 53.07C81.6599 29.02 64.1199 24.12 63.3699 23.92Z" fill="#3E2967"/>
<path d="M57.1799 10.34H46.6599V17.67C46.6599 20 48.5499 21.89 50.8799 21.89H51.0599C51.5799 21.89 51.9999 22.31 51.9999 22.83V24.07C51.9999 25.49 53.1499 26.64 54.5699 26.64C55.9899 26.64 57.1399 25.49 57.1399 24.08L57.1799 10.35V10.34Z" fill="#FADDDC"/>
<path d="M53.7799 35.42C53.0999 36.34 52.8699 37.44 53.0799 38.43C54.0799 38.34 55.0699 37.8 55.7599 36.88C56.4499 35.96 56.6699 34.86 56.4599 33.87C55.4599 33.96 54.4699 34.5 53.7799 35.42Z" fill="#2D963A"/>
<path d="M55.25 36.3C54.18 36.72 53.41 37.53 53.05 38.47C53.95 38.92 55.07 39 56.14 38.58C57.21 38.16 57.98 37.35 58.34 36.41C57.44 35.96 56.32 35.88 55.25 36.3Z" fill="#3EB750"/>
<path d="M53.5 1.23999C52.55 1.32999 50.49 2.12999 49.27 3.16999C48.05 4.20999 46.4 5.84999 45.89 6.36999C45.38 6.88999 43.53 8.76999 43.12 9.41999C42.32 10.69 41.24 13.27 41.62 16.42C42 19.57 45.33 23.05 49.42 23.94C53.51 24.83 59.33 25.4 62.91 22.81C66.49 20.22 67.8 17.92 67.37 14.59C66.94 11.26 65.3 9.22999 64.36 8.05999C63.42 6.88999 63.47 4.81999 61.35 3.45999C59.23 2.09999 57.31 0.879986 53.5 1.24999V1.23999Z" fill="#FCC31E"/>
<path d="M54.18 21.47C57.444 21.47 60.09 18.824 60.09 15.56C60.09 12.296 57.444 9.64999 54.18 9.64999C50.916 9.64999 48.27 12.296 48.27 15.56C48.27 18.824 50.916 21.47 54.18 21.47Z" fill="#FADDDC"/>
<path d="M52.2999 16.25C53.2001 16.25 53.9299 15.5202 53.9299 14.62C53.9299 13.7198 53.2001 12.99 52.2999 12.99C51.3997 12.99 50.6699 13.7198 50.6699 14.62C50.6699 15.5202 51.3997 16.25 52.2999 16.25Z" fill="#F1F0EB"/>
<path d="M57.38 16.25C58.2802 16.25 59.01 15.5202 59.01 14.62C59.01 13.7198 58.2802 12.99 57.38 12.99C56.4798 12.99 55.75 13.7198 55.75 14.62C55.75 15.5202 56.4798 16.25 57.38 16.25Z" fill="#F1F0EB"/>
<path d="M53.7799 18.75H54.3699C54.8999 18.75 55.3399 18.32 55.3399 17.78V14.87C55.3399 14.65 55.1599 14.47 54.9399 14.47C54.7199 14.47 54.5399 14.65 54.5399 14.87V17.39C54.5399 17.69 54.2899 17.94 53.9899 17.94H53.7799C53.5599 17.94 53.3799 18.12 53.3799 18.34C53.3799 18.56 53.5599 18.74 53.7799 18.74V18.75Z" fill="#E0B1BB"/>
<path d="M50.21 14.64C50.21 15.78 51.14 16.71 52.28 16.71C53.42 16.71 54.25 15.87 54.34 14.8H55.31C55.38 15.88 56.27 16.74 57.37 16.74C58.47 16.74 59.44 15.81 59.44 14.67C59.44 13.53 58.51 12.6 57.37 12.6C56.43 12.6 55.65 13.23 55.39 14.09H54.27C54.03 13.22 53.23 12.57 52.28 12.57C51.14 12.57 50.21 13.5 50.21 14.64ZM56.11 14.67C56.11 13.98 56.67 13.41 57.37 13.41C58.07 13.41 58.63 13.97 58.63 14.67C58.63 15.37 58.07 15.93 57.37 15.93C56.67 15.93 56.11 15.37 56.11 14.67ZM51.03 14.64C51.03 13.95 51.59 13.38 52.29 13.38C52.99 13.38 53.55 13.94 53.55 14.64C53.55 15.34 52.99 15.9 52.29 15.9C51.59 15.9 51.03 15.34 51.03 14.64Z" fill="#898989"/>
<path d="M49.56 6.98001C50.0349 6.98001 50.4199 6.59497 50.4199 6.12001C50.4199 5.64504 50.0349 5.26001 49.56 5.26001C49.085 5.26001 48.7 5.64504 48.7 6.12001C48.7 6.59497 49.085 6.98001 49.56 6.98001Z" fill="#D6952D"/>
<path d="M62.57 10.09C63.0449 10.09 63.43 9.70496 63.43 9.22999C63.43 8.75503 63.0449 8.37 62.57 8.37C62.095 8.37 61.71 8.75503 61.71 9.22999C61.71 9.70496 62.095 10.09 62.57 10.09Z" fill="#D6952D"/>
<path d="M48.3799 22.14C48.7665 22.14 49.0799 21.8266 49.0799 21.44C49.0799 21.0534 48.7665 20.74 48.3799 20.74C47.9933 20.74 47.6799 21.0534 47.6799 21.44C47.6799 21.8266 47.9933 22.14 48.3799 22.14Z" fill="#D6952D"/>
<path d="M61.91 13.45C62.2966 13.45 62.61 13.1366 62.61 12.75C62.61 12.3634 62.2966 12.05 61.91 12.05C61.5234 12.05 61.21 12.3634 61.21 12.75C61.21 13.1366 61.5234 13.45 61.91 13.45Z" fill="#D6952D"/>
<path d="M46.2199 10.26C46.4021 10.26 46.5499 10.1123 46.5499 9.93001C46.5499 9.74775 46.4021 9.60001 46.2199 9.60001C46.0376 9.60001 45.8899 9.74775 45.8899 9.93001C45.8899 10.1123 46.0376 10.26 46.2199 10.26Z" fill="#D6952D"/>
<path d="M62.7099 17.26C62.8921 17.26 63.0399 17.1123 63.0399 16.93C63.0399 16.7478 62.8921 16.6 62.7099 16.6C62.5276 16.6 62.3799 16.7478 62.3799 16.93C62.3799 17.1123 62.5276 17.26 62.7099 17.26Z" fill="#D6952D"/>
<path d="M43.96 16.08C44.087 16.08 44.19 15.977 44.19 15.85C44.19 15.723 44.087 15.62 43.96 15.62C43.833 15.62 43.73 15.723 43.73 15.85C43.73 15.977 43.833 16.08 43.96 16.08Z" fill="#D6952D"/>
<path d="M64.8301 14.39C64.9571 14.39 65.0601 14.287 65.0601 14.16C65.0601 14.033 64.9571 13.93 64.8301 13.93C64.7031 13.93 64.6001 14.033 64.6001 14.16C64.6001 14.287 64.7031 14.39 64.8301 14.39Z" fill="#D6952D"/>
<path d="M44.1099 12.75C44.3419 12.75 44.5299 12.562 44.5299 12.33C44.5299 12.098 44.3419 11.91 44.1099 11.91C43.878 11.91 43.6899 12.098 43.6899 12.33C43.6899 12.562 43.878 12.75 44.1099 12.75Z" fill="#D6952D"/>
<path d="M61.7399 1.55C61.0599 2.47 60.8299 3.57 61.0399 4.56C62.0399 4.47 63.0299 3.93 63.7199 3.01C64.4099 2.09 64.6299 0.99 64.4199 0C63.4199 0.09 62.4299 0.63 61.7399 1.55Z" fill="#2D963A"/>
<path d="M63.22 2.43C62.15 2.85 61.38 3.66 61.02 4.6C61.92 5.05 63.04 5.13 64.11 4.71C65.18 4.29 65.95 3.48 66.31 2.54C65.41 2.09 64.29 2.01 63.22 2.43Z" fill="#3EB750"/>
</g>
<defs>
<clipPath id="clip0_1216_2209">
<rect width="75.49" height="110.27" fill="white" transform="translate(11.5)"/>
</clipPath>
</defs>
</svg>
