<svg width="110" height="110" viewBox="0 0 110 110" fill="none" xmlns="http://www.w3.org/2000/svg">
<g clip-path="url(#clip0_1217_1686)">
<path d="M46.35 55.88L59.53 53.2L50.31 74.47L58.87 93.59L56.77 94.75L57.17 96.7C57.61 98.03 57.79 98.92 56.5 100.01L52.95 101.72C52.22 101.93 51.7 101.09 52.15 100.35C52.45 99.86 53.2 99.41 53.44 98.89C54.53 96.56 53.65 96.24 53.11 95.02C49.86 87.72 41.12 76.03 41.12 76.03L46.34 55.89L46.35 55.88Z" fill="#163270"/>
<path d="M51.4 55.7L64.28 56.06L61.55 103.53L59.29 104.27C59.28 104.85 59.29 105.81 59.53 106.34C59.88 107.12 60.22 108.35 59.05 108.76L53.11 109.2C52.37 109.05 52.23 107.73 52.92 107.27C53.37 106.96 54.61 106.43 55.07 106.16C56.03 105.59 55.99 104.54 55.8 103.2C54.46 93.48 51.4 55.71 51.4 55.71V55.7Z" fill="#42568E"/>
<path d="M66.2101 57.13C66.3201 58.73 67.7001 59.93 69.3001 59.82C70.6101 59.73 71.6601 58.78 71.9301 57.56C71.9901 57.29 72.0101 57.02 71.9901 56.73C71.9401 56.04 71.8701 55.36 71.7801 54.69L66.1101 56.06C66.1501 56.41 66.1801 56.77 66.2101 57.13Z" fill="#FADDDC"/>
<path d="M48.64 29.26C47.89 30.67 48.43 32.43 49.84 33.18C49.99 33.26 64.45 41.12 66.11 56.07L71.78 54.7C69.44 37.15 53.26 28.43 52.55 28.05C51.14 27.3 49.39 27.85 48.64 29.26Z" fill="#281C47"/>
<path d="M42.9199 61.95L66.3599 62.03C69.9999 62.03 65.8199 40.97 65.8199 40.97C64.7499 34.01 63.1999 25.94 55.1899 24.17H50.9499C49.4899 24.17 48.1099 24.91 47.3399 26.16C41.8199 35.19 42.8999 61.96 42.8999 61.96L42.9199 61.95Z" fill="#3E2967"/>
<path d="M37.63 51.65C36.16 52.28 35.48 53.98 36.11 55.46C36.63 56.67 37.87 57.35 39.11 57.2C39.38 57.17 39.65 57.1 39.91 56.99C40.55 56.72 41.16 56.43 41.77 56.12L38.61 51.21C38.29 51.36 37.97 51.51 37.64 51.65H37.63Z" fill="#FADDDC"/>
<path d="M58.1399 25.87C56.5599 25.63 55.0799 26.72 54.8399 28.3C54.8099 28.47 52.1599 44.71 38.5999 51.21L41.7599 56.12C57.5499 48.12 60.4499 29.97 60.5699 29.17C60.8099 27.59 59.7199 26.12 58.1399 25.88V25.87Z" fill="#3E2967"/>
<path d="M55.01 10.19H44.88V19.25C44.88 21.03 46.32 22.47 48.1 22.47H49.12C49.62 22.47 50.02 22.87 50.02 23.37V24.26C50.02 25.39 51.23 26.11 52.22 25.57L54.8 24.17L55 10.19H55.01Z" fill="#FADDDC"/>
<path d="M45.5601 19.68L44.9701 19.51C44.4401 19.36 44.1301 18.81 44.2801 18.29L45.0901 15.41C45.1501 15.19 45.3801 15.06 45.6001 15.12C45.8201 15.18 45.9501 15.41 45.8901 15.63L45.1901 18.13C45.1101 18.43 45.2801 18.74 45.5801 18.82L45.7901 18.88C46.0101 18.94 46.1401 19.17 46.0801 19.39C46.0201 19.61 45.7901 19.74 45.5701 19.68H45.5601Z" fill="#E0B1BB"/>
<path d="M51.9801 15.48C51.9801 14.9608 52.3987 14.54 52.9151 14.54C53.4315 14.54 53.8501 14.9608 53.8501 15.48V17.51C53.8501 18.0291 53.4315 18.45 52.9151 18.45C52.3987 18.45 51.9801 18.0291 51.9801 17.51V15.48Z" fill="#FADDDC"/>
<path d="M49.8299 35.08C50.3099 36 50.4699 37.1 50.3299 38.09C49.6199 38 48.9199 37.46 48.4299 36.54C47.9399 35.62 47.7899 34.52 47.9299 33.53C48.6399 33.62 49.3399 34.16 49.8299 35.08Z" fill="#2D963A"/>
<path d="M48.7801 35.97C49.5401 36.39 50.0901 37.2 50.3401 38.14C49.7001 38.59 48.9101 38.67 48.1501 38.25C47.3901 37.83 46.8401 37.02 46.5901 36.08C47.2301 35.63 48.0201 35.55 48.7801 35.97Z" fill="#3EB750"/>
<path d="M47.42 1.55C48.1 2.47 48.33 3.57 48.12 4.56C47.12 4.47 46.13 3.93 45.44 3.01C44.75 2.09 44.53 0.99 44.74 0C45.74 0.09 46.73 0.63 47.42 1.55Z" fill="#2D963A"/>
<path d="M45.9399 2.43C47.0099 2.85 47.7799 3.66 48.1399 4.6C47.2399 5.05 46.1199 5.13 45.0499 4.71C43.9799 4.29 43.2099 3.48 42.8499 2.54C43.7499 2.09 44.8699 2.01 45.9399 2.43Z" fill="#3EB750"/>
<path d="M55.6501 1.24C56.6001 1.33 58.6601 2.13 59.8801 3.17C61.1001 4.2 62.7501 5.85 63.2601 6.37C63.7701 6.89 65.6201 8.77 66.0301 9.42C66.8301 10.69 67.9101 13.27 67.5301 16.42C67.1501 19.57 63.8201 23.05 59.7301 23.94C55.6401 24.83 49.8201 25.4 46.2401 22.81C42.6701 20.23 41.3501 17.92 41.7801 14.59C42.2101 11.26 43.8501 9.23 44.7901 8.06C45.7301 6.89 45.6801 4.82 47.8001 3.46C49.9101 2.1 51.8401 0.880001 55.6501 1.25V1.24Z" fill="#FCC31E"/>
<path d="M51.39 21.47C48.126 21.47 45.48 18.824 45.48 15.56C45.48 12.296 48.126 9.64999 51.39 9.64999C54.6541 9.64999 57.3 12.296 57.3 15.56C57.3 18.824 54.6541 21.47 51.39 21.47Z" fill="#FADDDC"/>
<path d="M52.17 16.25C51.2698 16.25 50.5401 15.5202 50.5401 14.62C50.5401 13.7198 51.2698 12.99 52.17 12.99C53.0703 12.99 53.8 13.7198 53.8 14.62C53.8 15.5202 53.0703 16.25 52.17 16.25Z" fill="#F1F0EB"/>
<path d="M47.09 16.25C46.1897 16.25 45.46 15.5202 45.46 14.62C45.46 13.7198 46.1897 12.99 47.09 12.99C47.9902 12.99 48.72 13.7198 48.72 14.62C48.72 15.5202 47.9902 16.25 47.09 16.25Z" fill="#F1F0EB"/>
<path d="M50.59 18.57H50C49.47 18.57 49.03 18.14 49.03 17.6V14.69C49.03 14.47 49.21 14.29 49.43 14.29C49.65 14.29 49.83 14.47 49.83 14.69V17.21C49.83 17.51 50.08 17.76 50.38 17.76H50.59C50.81 17.76 50.99 17.94 50.99 18.16C50.99 18.38 50.81 18.56 50.59 18.56V18.57Z" fill="#E0B1BB"/>
<path d="M54.26 14.64C54.26 15.78 53.33 16.71 52.19 16.71C51.05 16.71 50.22 15.87 50.13 14.8H49.16C49.09 15.88 48.2 16.74 47.1 16.74C46 16.74 45.03 15.81 45.03 14.67C45.03 13.53 45.96 12.6 47.1 12.6C48.04 12.6 48.82 13.23 49.08 14.09H50.2C50.44 13.22 51.24 12.57 52.19 12.57C53.33 12.57 54.26 13.5 54.26 14.64ZM48.36 14.67C48.36 13.98 47.8 13.41 47.1 13.41C46.4 13.41 45.84 13.97 45.84 14.67C45.84 15.36 46.4 15.93 47.1 15.93C47.8 15.93 48.36 15.37 48.36 14.67ZM53.44 14.64C53.44 13.95 52.88 13.38 52.18 13.38C51.48 13.38 50.92 13.94 50.92 14.64C50.92 15.33 51.48 15.9 52.18 15.9C52.88 15.9 53.44 15.34 53.44 14.64Z" fill="#898989"/>
<path d="M59.6 6.97999C59.125 6.97999 58.74 6.59496 58.74 6.11999C58.74 5.64503 59.125 5.25999 59.6 5.25999C60.0749 5.25999 60.46 5.64503 60.46 6.11999C60.46 6.59496 60.0749 6.97999 59.6 6.97999Z" fill="#D6952D"/>
<path d="M46.59 10.09C46.115 10.09 45.7299 9.70496 45.7299 9.22999C45.7299 8.75503 46.115 8.37 46.59 8.37C47.0649 8.37 47.45 8.75503 47.45 9.22999C47.45 9.70496 47.0649 10.09 46.59 10.09Z" fill="#D6952D"/>
<path d="M60.78 22.14C60.3934 22.14 60.08 21.8266 60.08 21.44C60.08 21.0534 60.3934 20.74 60.78 20.74C61.1666 20.74 61.48 21.0534 61.48 21.44C61.48 21.8266 61.1666 22.14 60.78 22.14Z" fill="#D6952D"/>
<path d="M44.34 12.3C43.9534 12.3 43.64 11.9866 43.64 11.6C43.64 11.2134 43.9534 10.9 44.34 10.9C44.7266 10.9 45.04 11.2134 45.04 11.6C45.04 11.9866 44.7266 12.3 44.34 12.3Z" fill="#D6952D"/>
<path d="M62.94 10.26C62.7578 10.26 62.61 10.1123 62.61 9.93001C62.61 9.74775 62.7578 9.60001 62.94 9.60001C63.1223 9.60001 63.27 9.74775 63.27 9.93001C63.27 10.1123 63.1223 10.26 62.94 10.26Z" fill="#D6952D"/>
<path d="M44.87 19.81C44.6877 19.81 44.54 19.6622 44.54 19.48C44.54 19.2977 44.6877 19.15 44.87 19.15C45.0522 19.15 45.2 19.2977 45.2 19.48C45.2 19.6622 45.0522 19.81 44.87 19.81Z" fill="#D6952D"/>
<path d="M65.1899 16.08C65.0629 16.08 64.9599 15.977 64.9599 15.85C64.9599 15.723 65.0629 15.62 65.1899 15.62C65.3169 15.62 65.4199 15.723 65.4199 15.85C65.4199 15.977 65.3169 16.08 65.1899 16.08Z" fill="#D6952D"/>
<path d="M44.3301 14.39C44.203 14.39 44.1001 14.287 44.1001 14.16C44.1001 14.033 44.203 13.93 44.3301 13.93C44.4571 13.93 44.5601 14.033 44.5601 14.16C44.5601 14.287 44.4571 14.39 44.3301 14.39Z" fill="#D6952D"/>
<path d="M65.05 12.75C64.818 12.75 64.63 12.562 64.63 12.33C64.63 12.098 64.818 11.91 65.05 11.91C65.2819 11.91 65.47 12.098 65.47 12.33C65.47 12.562 65.2819 12.75 65.05 12.75Z" fill="#D6952D"/>
</g>
<defs>
<clipPath id="clip0_1217_1686">
<rect width="36.13" height="109.2" fill="white" transform="matrix(-1 0 0 1 72 0)"/>
</clipPath>
</defs>
</svg>
