<svg width="110" height="110" viewBox="0 0 110 110" fill="none" xmlns="http://www.w3.org/2000/svg">
<g clip-path="url(#clip0_1217_1719)">
<path d="M76.7601 45.33C77.6301 46.68 79.4201 47.06 80.7701 46.19C81.8801 45.48 82.3301 44.14 81.9801 42.94C81.9001 42.68 81.7901 42.43 81.6301 42.19C81.2501 41.61 80.8601 41.05 80.4601 40.51L76.1501 44.45C76.3501 44.74 76.5601 45.03 76.7501 45.34L76.7601 45.33Z" fill="#FADDDC"/>
<path d="M47.9 29.43C47.93 31.03 49.25 32.3 50.85 32.28C51.02 32.28 67.48 32.17 76.16 44.45L80.47 40.51C69.94 26.28 51.55 26.47 50.75 26.49C49.15 26.52 47.88 27.84 47.91 29.44L47.9 29.43Z" fill="#281C47"/>
<path d="M46.2701 56.06L61.55 57.62L42.68 82.27L39.25 104.93L36.4001 104.52L35.85 105.96C34.89 108 35.5 109.49 33.92 108.69L28.8601 107.41C28.1401 107.05 28.26 106.01 29.1 105.76C29.66 105.59 30.5101 105.57 31.0801 105.54C33.2101 105.45 33.1501 103.48 33.2901 102.08C34.1601 93.51 34.0001 81.63 34.8801 79.3C36.6101 74.75 46.26 56.06 46.26 56.06H46.2701Z" fill="#163270"/>
<path d="M50.5801 59.63L66.1601 59.87L72.1801 80.04L88.7001 90.78L87.0801 93.48C87.3601 94.6 88.5501 94.53 89.0201 94.87C89.7101 95.37 90.4701 96.34 89.6001 97.36L85.7601 101.75C85.0101 102.04 84.2601 100.92 84.6701 100.12C84.9401 99.59 85.2101 97.95 85.1901 97.4C85.1501 96.18 84.4601 95.34 84.4601 95.34L64.0501 83.96L50.5801 59.62V59.63Z" fill="#42568E"/>
<path d="M43 61.95L66.44 62.03C70.08 62.03 65.9 40.97 65.9 40.97C64.83 34.01 63.28 25.94 55.27 24.17H51.03C49.57 24.17 48.19 24.91 47.42 26.16C41.9 35.19 42.98 61.96 42.98 61.96L43 61.95Z" fill="#3E2967"/>
<path d="M55.0901 10.19H44.9601V19.25C44.9601 21.03 46.4001 22.47 48.1801 22.47H49.2001C49.7001 22.47 50.1001 22.87 50.1001 23.37V24.26C50.1001 25.39 51.3101 26.11 52.3001 25.57L54.8801 24.17L55.0801 10.19H55.0901Z" fill="#FADDDC"/>
<path d="M45.6299 19.68L45.0399 19.51C44.5099 19.36 44.1999 18.81 44.3499 18.29L45.1599 15.41C45.2199 15.19 45.4499 15.06 45.6699 15.12C45.8899 15.18 46.0199 15.41 45.9599 15.63L45.2599 18.13C45.1799 18.43 45.3499 18.74 45.6499 18.82L45.8599 18.88C46.0799 18.94 46.2099 19.17 46.1499 19.39C46.0899 19.61 45.8599 19.74 45.6399 19.68H45.6299Z" fill="#E0B1BB"/>
<path d="M52.0599 15.48C52.0599 14.9608 52.4785 14.54 52.9949 14.54C53.5113 14.54 53.9299 14.9608 53.9299 15.48V17.51C53.9299 18.0291 53.5113 18.45 52.9949 18.45C52.4785 18.45 52.0599 18.0291 52.0599 17.51V15.48Z" fill="#FADDDC"/>
<path d="M49.91 35.08C50.39 36 50.55 37.1 50.41 38.09C49.7 38 49 37.46 48.51 36.54C48.02 35.62 47.87 34.52 48.01 33.53C48.72 33.62 49.42 34.16 49.91 35.08Z" fill="#2D963A"/>
<path d="M48.8599 35.97C49.6199 36.39 50.1699 37.2 50.4199 38.14C49.7799 38.59 48.9899 38.67 48.2299 38.25C47.4699 37.83 46.9199 37.02 46.6699 36.08C47.3099 35.63 48.0999 35.55 48.8599 35.97Z" fill="#3EB750"/>
<path d="M47.5001 1.55C48.1801 2.47 48.4101 3.57 48.2001 4.56C47.2001 4.47 46.2101 3.93 45.5201 3.01C44.8301 2.09 44.6101 0.99 44.8201 0C45.8201 0.09 46.8101 0.63 47.5001 1.55Z" fill="#2D963A"/>
<path d="M46.02 2.43C47.09 2.85 47.86 3.66 48.22 4.6C47.32 5.05 46.2 5.13 45.13 4.71C44.06 4.29 43.29 3.48 42.93 2.54C43.83 2.09 44.95 2.01 46.02 2.43Z" fill="#3EB750"/>
<path d="M55.7299 1.24C56.6799 1.33 58.7399 2.13 59.9599 3.17C61.1799 4.2 62.8299 5.85 63.3399 6.37C63.8499 6.89 65.6999 8.77 66.1099 9.42C66.9099 10.69 67.9899 13.27 67.6099 16.42C67.2299 19.57 63.8999 23.05 59.8099 23.94C55.7199 24.83 49.8999 25.4 46.3199 22.81C42.7499 20.23 41.4299 17.92 41.8599 14.59C42.2899 11.26 43.9299 9.23 44.8699 8.06C45.8099 6.89 45.7599 4.82 47.8799 3.46C49.9899 2.1 51.9199 0.880001 55.7299 1.25V1.24Z" fill="#FCC31E"/>
<path d="M51.4699 21.47C48.2059 21.47 45.5599 18.824 45.5599 15.56C45.5599 12.296 48.2059 9.64999 51.4699 9.64999C54.7339 9.64999 57.3799 12.296 57.3799 15.56C57.3799 18.824 54.7339 21.47 51.4699 21.47Z" fill="#FADDDC"/>
<path d="M52.2499 16.25C51.3497 16.25 50.6199 15.5202 50.6199 14.62C50.6199 13.7198 51.3497 12.99 52.2499 12.99C53.1501 12.99 53.8799 13.7198 53.8799 14.62C53.8799 15.5202 53.1501 16.25 52.2499 16.25Z" fill="#F1F0EB"/>
<path d="M47.17 16.25C46.2698 16.25 45.5401 15.5202 45.5401 14.62C45.5401 13.7198 46.2698 12.99 47.17 12.99C48.0703 12.99 48.8 13.7198 48.8 14.62C48.8 15.5202 48.0703 16.25 47.17 16.25Z" fill="#F1F0EB"/>
<path d="M50.6701 18.57H50.0801C49.5501 18.57 49.1101 18.14 49.1101 17.6V14.69C49.1101 14.47 49.2901 14.29 49.5101 14.29C49.7301 14.29 49.9101 14.47 49.9101 14.69V17.21C49.9101 17.51 50.1601 17.76 50.4601 17.76H50.6701C50.8901 17.76 51.0701 17.94 51.0701 18.16C51.0701 18.38 50.8901 18.56 50.6701 18.56V18.57Z" fill="#E0B1BB"/>
<path d="M54.3401 14.64C54.3401 15.78 53.4101 16.71 52.2701 16.71C51.1301 16.71 50.3001 15.87 50.2101 14.8H49.2401C49.1701 15.88 48.2801 16.74 47.1801 16.74C46.0801 16.74 45.1101 15.81 45.1101 14.67C45.1101 13.53 46.0401 12.6 47.1801 12.6C48.1201 12.6 48.9001 13.23 49.1601 14.09H50.2801C50.5201 13.22 51.3201 12.57 52.2701 12.57C53.4101 12.57 54.3401 13.5 54.3401 14.64ZM48.4401 14.67C48.4401 13.98 47.8801 13.41 47.1801 13.41C46.4801 13.41 45.9201 13.97 45.9201 14.67C45.9201 15.36 46.4801 15.93 47.1801 15.93C47.8801 15.93 48.4401 15.37 48.4401 14.67ZM53.5201 14.64C53.5201 13.95 52.9601 13.38 52.2601 13.38C51.5601 13.38 51.0001 13.94 51.0001 14.64C51.0001 15.34 51.5601 15.9 52.2601 15.9C52.9601 15.9 53.5201 15.34 53.5201 14.64Z" fill="#898989"/>
<path d="M59.68 6.97999C59.2051 6.97999 58.82 6.59496 58.82 6.11999C58.82 5.64503 59.2051 5.25999 59.68 5.25999C60.155 5.25999 60.54 5.64503 60.54 6.11999C60.54 6.59496 60.155 6.97999 59.68 6.97999Z" fill="#D6952D"/>
<path d="M46.67 10.09C46.1951 10.09 45.81 9.70496 45.81 9.22999C45.81 8.75503 46.1951 8.37 46.67 8.37C47.145 8.37 47.53 8.75503 47.53 9.22999C47.53 9.70496 47.145 10.09 46.67 10.09Z" fill="#D6952D"/>
<path d="M60.8601 22.14C60.4735 22.14 60.1601 21.8266 60.1601 21.44C60.1601 21.0534 60.4735 20.74 60.8601 20.74C61.2467 20.74 61.5601 21.0534 61.5601 21.44C61.5601 21.8266 61.2467 22.14 60.8601 22.14Z" fill="#D6952D"/>
<path d="M44.4201 12.3C44.0335 12.3 43.7201 11.9866 43.7201 11.6C43.7201 11.2134 44.0335 10.9 44.4201 10.9C44.8067 10.9 45.1201 11.2134 45.1201 11.6C45.1201 11.9866 44.8067 12.3 44.4201 12.3Z" fill="#D6952D"/>
<path d="M63.0201 10.26C62.8378 10.26 62.6901 10.1123 62.6901 9.93001C62.6901 9.74775 62.8378 9.60001 63.0201 9.60001C63.2024 9.60001 63.3501 9.74775 63.3501 9.93001C63.3501 10.1123 63.2024 10.26 63.0201 10.26Z" fill="#D6952D"/>
<path d="M44.95 19.81C44.7678 19.81 44.62 19.6622 44.62 19.48C44.62 19.2977 44.7678 19.15 44.95 19.15C45.1323 19.15 45.28 19.2977 45.28 19.48C45.28 19.6622 45.1323 19.81 44.95 19.81Z" fill="#D6952D"/>
<path d="M65.27 16.08C65.143 16.08 65.04 15.977 65.04 15.85C65.04 15.723 65.143 15.62 65.27 15.62C65.397 15.62 65.5 15.723 65.5 15.85C65.5 15.977 65.397 16.08 65.27 16.08Z" fill="#D6952D"/>
<path d="M44.4099 14.39C44.2829 14.39 44.1799 14.287 44.1799 14.16C44.1799 14.033 44.2829 13.93 44.4099 13.93C44.5369 13.93 44.6399 14.033 44.6399 14.16C44.6399 14.287 44.5369 14.39 44.4099 14.39Z" fill="#D6952D"/>
<path d="M65.13 12.75C64.8981 12.75 64.71 12.562 64.71 12.33C64.71 12.098 64.8981 11.91 65.13 11.91C65.362 11.91 65.55 12.098 65.55 12.33C65.55 12.562 65.362 12.75 65.13 12.75Z" fill="#D6952D"/>
<path d="M27.7001 40.58C26.1001 40.46 24.7101 41.65 24.5901 43.25C24.4901 44.56 25.2801 45.74 26.4501 46.18C26.7001 46.28 26.9801 46.34 27.2601 46.36C27.9501 46.41 28.6301 46.44 29.3101 46.45L28.7801 40.64C28.4301 40.63 28.0701 40.61 27.7101 40.58H27.7001Z" fill="#FADDDC"/>
<path d="M57.82 27.21C56.53 26.27 54.72 26.55 53.77 27.83C53.67 27.97 43.8 41.14 28.77 40.63L29.3 46.44C47 46.66 57.97 31.9 58.45 31.25C59.39 29.96 59.11 28.15 57.82 27.21Z" fill="#3E2967"/>
</g>
<defs>
<clipPath id="clip0_1217_1719">
<rect width="65.42" height="108.9" fill="white" transform="matrix(-1 0 0 1 90 0)"/>
</clipPath>
</defs>
</svg>
