<svg width="110" height="112" viewBox="0 0 110 112" fill="none" xmlns="http://www.w3.org/2000/svg">
<g clip-path="url(#clip0_1216_1671)">
<path d="M37.25 60.77H63.3L58.4 106.04L55.15 105.58C55.06 106.43 55.3 107.71 56.22 108.46C56.74 108.88 57.28 109.26 57.8 109.68C58.41 110.18 58.09 111.28 57.34 111.28L52.48 110.28C50.3 109.82 50.6 108.28 51.02 107.09C51.3 106.3 51.77 104.93 51.77 104.93L50.75 104.63L51.02 68.16H49.53C49.53 68.16 46.77 88.14 46.53 89C46.19 90.22 44.81 90.04 44.34 89.14C43.93 88.36 43.52 85.17 43.44 84.55L41.78 84.21C40.25 83.9 39.1 82.61 38.97 81.05L37.24 60.76L37.25 60.77Z" fill="#42568E"/>
<path d="M81.88 51.74C83.43 52.33 84.21 54.07 83.62 55.62C83.13 56.9 81.87 57.65 80.58 57.55C80.3 57.53 80.02 57.47 79.74 57.36C79.07 57.1 78.41 56.83 77.78 56.54L80.85 51.31C81.19 51.46 81.53 51.6 81.88 51.73V51.74Z" fill="#FADDDC"/>
<path d="M60.1001 27.99C61.7301 27.67 63.4701 29.49 63.7901 31.12C63.8201 31.29 66.4901 45.15 80.8401 51.32L77.7701 56.55C61.0401 48.93 57.8701 32.34 57.7101 31.52C57.4001 29.89 58.4601 28.32 60.0901 28L60.1001 27.99Z" fill="#281C47"/>
<path d="M63.36 62.01H36.78C35.66 62.01 34.76 61.06 34.83 59.94L36.52 32.64C36.52 28.19 40.13 24.59 44.57 24.59H55.85C60.22 24.59 63.77 28.13 63.77 32.51L65.29 59.96C65.35 61.08 64.46 62.02 63.34 62.02L63.36 62.01Z" fill="#3E2967"/>
<path d="M31.15 60.56C31.27 62.22 30.02 63.66 28.36 63.78C28.29 63.78 28.21 63.78 28.14 63.78C26.58 63.78 25.25 62.57 25.14 60.98C25.1 60.46 25.08 59.95 25.05 59.44H31.08C31.1 59.81 31.11 60.17 31.14 60.55L31.15 60.56Z" fill="#FADDDC"/>
<path d="M40.44 25.47C41.89 24.67 43.71 25.19 44.52 26.63C45.33 28.07 44.82 29.9 43.38 30.73C42.83 31.05 30.06 38.6 31.09 59.46H25.05C23.97 34.92 39.76 25.85 40.44 25.47Z" fill="#3E2967"/>
<path d="M52.3401 11.37H41.8201V18.7C41.8201 21.03 43.7101 22.92 46.0401 22.92H46.2201C46.7401 22.92 47.1601 23.34 47.1601 23.86V25.1C47.1601 26.52 48.3101 27.67 49.7301 27.67C51.1501 27.67 52.3001 26.52 52.3001 25.11L52.3401 11.38V11.37Z" fill="#FADDDC"/>
<path d="M50.97 2.02C50.03 1.91 47.84 2.26 46.43 3.02C45.02 3.78 43.07 5.04 42.45 5.44C41.84 5.84 39.64 7.29 39.1 7.85C38.05 8.92 36.45 11.22 36.16 14.38C35.87 17.54 38.4 21.64 42.21 23.37C46.02 25.1 51.6 26.87 55.63 25.09C59.66 23.31 61.43 21.34 61.72 17.99C62.01 14.64 60.82 12.32 60.15 10.97C59.48 9.62 59.96 7.61 58.17 5.84C56.39 4.06 54.76 2.47 50.96 2.04L50.97 2.02Z" fill="#FCC31E"/>
<path d="M48.63 22.08C51.894 22.08 54.54 19.434 54.54 16.17C54.54 12.906 51.894 10.26 48.63 10.26C45.366 10.26 42.72 12.906 42.72 16.17C42.72 19.434 45.366 22.08 48.63 22.08Z" fill="#FADDDC"/>
<path d="M46.9901 16.48C47.8903 16.48 48.6201 15.7502 48.6201 14.85C48.6201 13.9498 47.8903 13.22 46.9901 13.22C46.0899 13.22 45.3601 13.9498 45.3601 14.85C45.3601 15.7502 46.0899 16.48 46.9901 16.48Z" fill="#F1F0EB"/>
<path d="M51.9601 17.55C52.8603 17.55 53.5901 16.8202 53.5901 15.92C53.5901 15.0198 52.8603 14.29 51.9601 14.29C51.0599 14.29 50.3301 15.0198 50.3301 15.92C50.3301 16.8202 51.0599 17.55 51.9601 17.55Z" fill="#F1F0EB"/>
<path d="M47.5699 19.2L48.1499 19.32C48.6699 19.43 49.1799 19.1 49.2999 18.58L49.9099 15.74C49.9599 15.52 49.8199 15.31 49.5999 15.26C49.3799 15.21 49.1699 15.35 49.1199 15.57L48.5899 18.04C48.5299 18.34 48.2399 18.52 47.9399 18.46L47.7399 18.42C47.5199 18.37 47.3099 18.51 47.2599 18.73C47.2099 18.95 47.3499 19.16 47.5699 19.21V19.2Z" fill="#E0B1BB"/>
<path d="M44.94 14.44C44.7 15.56 45.42 16.66 46.53 16.9C47.64 17.14 48.63 16.49 48.94 15.47L49.88 15.67C49.72 16.74 50.41 17.77 51.49 18C52.57 18.23 53.71 17.52 53.95 16.41C54.19 15.29 53.47 14.19 52.36 13.95C51.44 13.75 50.54 14.21 50.11 14.99L49.02 14.76C48.96 13.85 48.32 13.06 47.39 12.86C46.27 12.62 45.17 13.34 44.93 14.45L44.94 14.44ZM50.71 15.7C50.86 15.02 51.53 14.59 52.2 14.73C52.87 14.87 53.31 15.55 53.17 16.22C53.03 16.89 52.35 17.33 51.68 17.19C51.01 17.05 50.57 16.37 50.71 15.7ZM45.74 14.61C45.89 13.93 46.56 13.5 47.23 13.64C47.9 13.78 48.34 14.46 48.2 15.13C48.06 15.8 47.38 16.24 46.71 16.1C46.04 15.96 45.6 15.28 45.74 14.61Z" fill="#898989"/>
<path d="M46.09 6.83C46.5649 6.83 46.95 6.44497 46.95 5.97C46.95 5.49504 46.5649 5.11 46.09 5.11C45.615 5.11 45.23 5.49504 45.23 5.97C45.23 6.44497 45.615 6.83 46.09 6.83Z" fill="#D6952D"/>
<path d="M58.16 12.59C58.635 12.59 59.0201 12.205 59.0201 11.73C59.0201 11.255 58.635 10.87 58.16 10.87C57.6851 10.87 57.3 11.255 57.3 11.73C57.3 12.205 57.6851 12.59 58.16 12.59Z" fill="#D6952D"/>
<path d="M41.73 21.4C42.1166 21.4 42.43 21.0866 42.43 20.7C42.43 20.3134 42.1166 20 41.73 20C41.3434 20 41.03 20.3134 41.03 20.7C41.03 21.0866 41.3434 21.4 41.73 21.4Z" fill="#D6952D"/>
<path d="M56.7801 15.74C57.1667 15.74 57.4801 15.4266 57.4801 15.04C57.4801 14.6534 57.1667 14.34 56.7801 14.34C56.3935 14.34 56.0801 14.6534 56.0801 15.04C56.0801 15.4266 56.3935 15.74 56.7801 15.74Z" fill="#D6952D"/>
<path d="M42.03 9.32C42.2122 9.32 42.36 9.17226 42.36 8.99C42.36 8.80775 42.2122 8.66 42.03 8.66C41.8477 8.66 41.7 8.80775 41.7 8.99C41.7 9.17226 41.8477 9.32 42.03 9.32Z" fill="#D6952D"/>
<path d="M56.6901 19.62C56.8724 19.62 57.0201 19.4722 57.0201 19.29C57.0201 19.1077 56.8724 18.96 56.6901 18.96C56.5079 18.96 56.3601 19.1077 56.3601 19.29C56.3601 19.4722 56.5079 19.62 56.6901 19.62Z" fill="#D6952D"/>
<path d="M38.5801 14.54C38.7071 14.54 38.8101 14.437 38.8101 14.31C38.8101 14.183 38.7071 14.08 38.5801 14.08C38.4531 14.08 38.3501 14.183 38.3501 14.31C38.3501 14.437 38.4531 14.54 38.5801 14.54Z" fill="#D6952D"/>
<path d="M59.3401 17.26C59.4671 17.26 59.5701 17.157 59.5701 17.03C59.5701 16.903 59.4671 16.8 59.3401 16.8C59.2131 16.8 59.1101 16.903 59.1101 17.03C59.1101 17.157 59.2131 17.26 59.3401 17.26Z" fill="#D6952D"/>
<path d="M39.46 11.31C39.692 11.31 39.88 11.122 39.88 10.89C39.88 10.658 39.692 10.47 39.46 10.47C39.2281 10.47 39.04 10.658 39.04 10.89C39.04 11.122 39.2281 11.31 39.46 11.31Z" fill="#D6952D"/>
<path d="M58.9599 4.05C58.0999 4.80999 57.6499 5.83999 57.6399 6.84999C58.6399 6.96999 59.7199 6.65 60.5799 5.9C61.4399 5.15 61.8899 4.11 61.8999 3.1C60.8999 2.98 59.8199 3.3 58.9599 4.05Z" fill="#2D963A"/>
<path d="M60.2201 5.22C59.0901 5.4 58.1601 6.04 57.6201 6.89C58.4001 7.52 59.4901 7.83 60.6201 7.65C61.7501 7.47 62.6801 6.83 63.2201 5.98C62.4401 5.35 61.3501 5.04 60.2201 5.22Z" fill="#3EB750"/>
<path d="M48.7499 37.98C48.0699 38.9 47.8399 40 48.0499 40.99C49.0499 40.9 50.0399 40.36 50.7299 39.44C51.4099 38.52 51.6399 37.42 51.4299 36.43C50.4299 36.52 49.4399 37.06 48.7499 37.98Z" fill="#2D963A"/>
<path d="M50.23 38.86C49.16 39.28 48.39 40.09 48.03 41.03C48.93 41.48 50.05 41.56 51.12 41.14C52.19 40.72 52.96 39.91 53.32 38.97C52.42 38.52 51.3 38.44 50.23 38.86Z" fill="#3EB750"/>
</g>
<defs>
<clipPath id="clip0_1216_1671">
<rect width="58.82" height="109.28" fill="white" transform="translate(25 2)"/>
</clipPath>
</defs>
</svg>
