<svg width="110" height="110" viewBox="0 0 110 110" fill="none" xmlns="http://www.w3.org/2000/svg">
<g clip-path="url(#clip0_1217_1848)">
<path d="M70.01 57.37L45.98 57.48L51.06 98.83C51.06 98.83 53.58 100.5 53.59 100.56C53.79 101.88 53.59 103.01 51.63 101.77C51.06 101.41 50.62 101.39 50.1 101.86C49.49 102.42 49.96 104.03 50.5 104.9L55.32 108.74C55.89 109.2 56.74 109.24 57.28 108.74C58.11 107.98 57.87 106.77 57.53 105.78C56.2 101.96 56.6 101.52 56.6 101.52L57.35 101.77C57.83 101.93 58.33 101.56 58.29 101.05C57.9 96.03 56.9 70.26 56.73 65.64C56.72 65.25 57.02 64.92 57.42 64.91L58.46 64.89C58.77 64.89 59.07 65.1 59.08 65.42C59.11 71.62 59.19 81.33 59.27 81.33C59.27 81.33 59.73 85.47 59.97 86.42C60.31 87.77 61.7 87.58 62.17 86.57C62.58 85.71 62.7 83.05 62.78 82.36H64.91L70.03 57.37H70.01Z" fill="#42568E"/>
<path d="M54.1499 24.86H58.6399V21.6H54.1499V24.86Z" fill="#FADDDC"/>
<path d="M53.2 0.379995C52.27 0.609995 50.34 1.70999 49.27 2.90999C48.2 4.10999 46.81 5.98999 46.37 6.57999C45.93 7.16999 44.37 9.30999 44.06 10.02C43.45 11.4 42.75 14.13 43.58 17.2C44.41 20.28 48.24 23.25 52.43 23.55C56.62 23.85 62.51 23.55 65.68 20.47C68.86 17.38 69.83 14.9 68.93 11.64C68.02 8.37999 66.09 6.60999 64.99 5.57999C63.88 4.54999 63.63 2.47999 61.33 1.42999C59.03 0.379995 56.93 -0.550005 53.2 0.369995V0.379995Z" fill="#FCC31E"/>
<path d="M49.9801 6.68C50.4606 6.68 50.8501 6.29049 50.8501 5.81C50.8501 5.32951 50.4606 4.94 49.9801 4.94C49.4996 4.94 49.1101 5.32951 49.1101 5.81C49.1101 6.29049 49.4996 6.68 49.9801 6.68Z" fill="#D6952D"/>
<path d="M63.38 7.88C63.8605 7.88 64.25 7.49049 64.25 7.01C64.25 6.52951 63.8605 6.14 63.38 6.14C62.8995 6.14 62.51 6.52951 62.51 7.01C62.51 7.49049 62.8995 7.88 63.38 7.88Z" fill="#D6952D"/>
<path d="M54.5701 20.23C54.9622 20.23 55.2801 19.9121 55.2801 19.52C55.2801 19.1279 54.9622 18.81 54.5701 18.81C54.178 18.81 53.8601 19.1279 53.8601 19.52C53.8601 19.9121 54.178 20.23 54.5701 20.23Z" fill="#D6952D"/>
<path d="M58.47 17.22C58.8621 17.22 59.18 16.9021 59.18 16.51C59.18 16.1179 58.8621 15.8 58.47 15.8C58.0779 15.8 57.76 16.1179 57.76 16.51C57.76 16.9021 58.0779 17.22 58.47 17.22Z" fill="#D6952D"/>
<path d="M47.2099 10.42C47.3921 10.42 47.5399 10.2722 47.5399 10.09C47.5399 9.90774 47.3921 9.75999 47.2099 9.75999C47.0276 9.75999 46.8799 9.90774 46.8799 10.09C46.8799 10.2722 47.0276 10.42 47.2099 10.42Z" fill="#D6952D"/>
<path d="M60.7599 17.18C60.9422 17.18 61.0899 17.0323 61.0899 16.85C61.0899 16.6678 60.9422 16.52 60.7599 16.52C60.5777 16.52 60.4299 16.6678 60.4299 16.85C60.4299 17.0323 60.5777 17.18 60.7599 17.18Z" fill="#D6952D"/>
<path d="M45.8301 16.54C45.9626 16.54 46.0701 16.4325 46.0701 16.3C46.0701 16.1674 45.9626 16.06 45.8301 16.06C45.6975 16.06 45.5901 16.1674 45.5901 16.3C45.5901 16.4325 45.6975 16.54 45.8301 16.54Z" fill="#D6952D"/>
<path d="M66.3401 11.83C66.4726 11.83 66.5801 11.7226 66.5801 11.59C66.5801 11.4575 66.4726 11.35 66.3401 11.35C66.2075 11.35 66.1001 11.4575 66.1001 11.59C66.1001 11.7226 66.2075 11.83 66.3401 11.83Z" fill="#D6952D"/>
<path d="M45.46 13.2C45.692 13.2 45.88 13.012 45.88 12.78C45.88 12.548 45.692 12.36 45.46 12.36C45.2281 12.36 45.04 12.548 45.04 12.78C45.04 13.012 45.2281 13.2 45.46 13.2Z" fill="#D6952D"/>
<path d="M47.48 2.75C48.29 3.57 48.68 4.63 48.62 5.64C47.61 5.69 46.54 5.31 45.73 4.49C44.92 3.67 44.53 2.61 44.59 1.6C45.6 1.55 46.67 1.93 47.48 2.75Z" fill="#2D963A"/>
<path d="M46.1401 3.84C47.2601 4.1 48.1501 4.8 48.6401 5.68C47.8101 6.26 46.7001 6.5 45.5801 6.24C44.4601 5.98 43.5701 5.28 43.0801 4.4C43.9101 3.82 45.0201 3.58 46.1401 3.84Z" fill="#3EB750"/>
<path d="M75.9101 61.53C75.5801 63.33 76.8201 65.11 78.6901 65.51C80.2201 65.84 81.7001 65.13 82.3601 63.88C82.5001 63.61 82.6101 63.31 82.6701 62.99C82.8101 62.21 82.9301 61.44 83.0101 60.68L76.0901 60.33C76.0301 60.73 75.9701 61.13 75.9001 61.54L75.9101 61.53Z" fill="#FADDDC"/>
<path d="M63.6801 25.07C62.4101 26.38 62.5301 28.49 63.9401 29.78C64.0901 29.92 78.4701 43.31 76.1001 60.32L83.0201 60.67C85.3501 40.56 69.2401 25.66 68.5201 25.01C67.1101 23.73 64.9401 23.75 63.6801 25.07Z" fill="#3E2967"/>
<path d="M42.6 47.12C42.71 48.32 41.57 49.36 40.06 49.44C39.99 49.44 39.93 49.44 39.86 49.44C38.44 49.44 37.23 48.57 37.13 47.42C37.1 47.04 37.07 46.67 37.05 46.31H42.54C42.56 46.58 42.57 46.84 42.59 47.11L42.6 47.12Z" fill="#FADDDC"/>
<path d="M49.0299 23.73C50.3499 23.15 51.9999 23.53 52.7399 24.57C53.4799 25.61 53.0099 26.93 51.6999 27.53C51.1999 27.76 41.6099 31.27 42.5399 46.33H37.0599C36.0699 28.62 48.4099 24.02 49.0399 23.74L49.0299 23.73Z" fill="#281C47"/>
<path d="M44.4299 60.84H71.2399L71.2299 31.7C71.2299 26.69 67.1699 22.63 62.1599 22.63H53.4999C48.4899 22.63 44.4299 26.69 44.4299 31.7L44.4499 60.84H44.4299Z" fill="#3E2967"/>
</g>
<defs>
<clipPath id="clip0_1217_1848">
<rect width="46.25" height="109.09" fill="white" transform="translate(37)"/>
</clipPath>
</defs>
</svg>
