
    <svg
        width="58"
        height="117"
        viewBox="0 0 58 117"
        fill="none"
        xmlns="http://www.w3.org/2000/svg"
    >
        <g clip-path="url(#clip0_85_802)">
            <path
                d="M33.5401 60.99H18.3501V109.71V109.73V109.76V111.21C18.3501 111.93 18.0701 112.61 17.5801 113C17.0001 113.46 16.4401 113.95 15.8801 114.45C15.2301 115.05 15.5701 116.35 16.3701 116.35H20.4801C21.2201 116.35 21.8701 115.71 22.0501 114.8L23.9201 105.27C25.1801 98.6 26.3701 91.86 27.4901 85.06C28.2701 80.29 29.0201 75.53 29.7201 70.78C29.8701 69.74 30.6301 68.98 31.5201 68.98H33.1201C34.0101 68.98 34.7601 69.74 34.9201 70.78C35.6201 75.53 36.3601 80.29 37.1501 85.06C38.5201 93.39 40.0001 101.63 41.5801 109.77C41.8401 111.13 41.3901 112.54 40.4601 113.31C40.0101 113.68 39.5701 114.07 39.1301 114.47C38.4801 115.07 38.8101 116.38 39.6201 116.38H43.0901C44.8701 116.38 46.3101 114.56 46.3101 112.31V61H33.5401V60.99Z"
                fill="#757570"
            />
            <path
                d="M6.16005 2.76009C5.98005 1.06009 4.45005 -0.169906 2.76005 0.0200938C1.36005 0.170094 0.290049 1.23009 0.0500488 2.54009C4.88274e-05 2.82009 -0.00995117 3.12009 0.0200488 3.42009C0.100049 4.16009 0.200049 4.87009 0.330049 5.58009L6.31005 3.88009C6.25005 3.51009 6.20005 3.13009 6.16005 2.75009V2.76009Z"
                fill="#FADDDC"
            />
            <path
                d="M26.06 31.6899C26.8 30.1499 26.15 28.3099 24.61 27.5699C24.45 27.4899 8.71996 19.7299 6.30996 3.88989L0.329956 5.57989C3.56996 24.1699 21.17 32.7699 21.95 33.1399C23.49 33.8699 25.33 33.2199 26.06 31.6899Z"
                fill="#3E2967"
            />
            <path
                d="M45.95 64.5599H18.68C17.53 64.5599 16.61 63.5899 16.68 62.4299L18.42 34.4099C18.42 29.8499 22.12 26.1399 26.69 26.1399H38.26C42.75 26.1399 46.38 29.7799 46.38 34.2599L47.94 62.4299C48 63.5799 47.09 64.5399 45.94 64.5399L45.95 64.5599Z"
                fill="#3E2967"
            />
            <path
                d="M51.49 63.0699C51.37 64.7699 52.65 66.2499 54.35 66.3699C54.42 66.3699 54.5 66.3699 54.57 66.3699C56.18 66.3699 57.53 65.1299 57.65 63.4999C57.69 62.9699 57.72 62.4399 57.74 61.9199H51.55C51.53 62.2999 51.52 62.6699 51.49 63.0599V63.0699Z"
                fill="#FADDDC"
            />
            <path
                d="M41.95 27.0599C40.47 26.2399 38.6 26.7699 37.77 28.2499C36.94 29.7299 37.46 31.6099 38.94 32.4499C39.51 32.7699 52.61 40.5199 51.55 61.9299H57.74C58.85 36.7499 42.65 27.4499 41.95 27.0499V27.0599Z"
                fill="#3E2967"
            />
            <path
                d="M34.65 12.5901H23.86V20.1101C23.86 22.5001 25.8 24.4401 28.19 24.4401H28.38C28.91 24.4401 29.34 24.8701 29.34 25.4001V26.6701C29.34 28.1301 30.52 29.3101 31.98 29.3101C33.43 29.3101 34.61 28.1301 34.62 26.6801L34.66 12.5901H34.65Z"
                fill="#FADDDC"
            />
            <path
                d="M31.16 38.32C30.46 39.26 30.23 40.4 30.44 41.41C31.47 41.32 32.49 40.77 33.19 39.82C33.89 38.87 34.12 37.74 33.91 36.73C32.88 36.82 31.86 37.37 31.16 38.32Z"
                fill="#2D963A"
            />
            <path
                d="M32.68 39.2299C31.59 39.6599 30.79 40.4899 30.42 41.4599C31.34 41.9299 32.5 41.9999 33.59 41.5799C34.68 41.1599 35.48 40.3199 35.85 39.3499C34.93 38.8799 33.77 38.8099 32.68 39.2299Z"
                fill="#3EB750"
            />
            <path
                d="M30.88 3.24988C29.91 3.34988 27.79 4.16988 26.54 5.22988C25.29 6.28988 23.6 7.97988 23.07 8.50988C22.54 9.03988 20.65 10.9699 20.23 11.6399C19.41 12.9399 18.3 15.5899 18.69 18.8199C19.08 22.0499 22.5 25.6199 26.69 26.5299C30.88 27.4399 36.86 28.0199 40.53 25.3699C44.2 22.7199 45.54 20.3599 45.11 16.9299C44.68 13.4999 42.99 11.4299 42.02 10.2299C41.05 9.02988 41.1 6.89988 38.93 5.49988C36.76 4.09988 34.78 2.84988 30.88 3.22988V3.24988Z"
                fill="#FCC31E"
            />
            <path
                d="M31.58 24.0199C34.9324 24.0199 37.65 21.3023 37.65 17.9499C37.65 14.5975 34.9324 11.8799 31.58 11.8799C28.2276 11.8799 25.51 14.5975 25.51 17.9499C25.51 21.3023 28.2276 24.0199 31.58 24.0199Z"
                fill="#FADDDC"
            />
            <path
                d="M29.65 18.6501C30.5723 18.6501 31.32 17.9024 31.32 16.9801C31.32 16.0577 30.5723 15.3101 29.65 15.3101C28.7277 15.3101 27.98 16.0577 27.98 16.9801C27.98 17.9024 28.7277 18.6501 29.65 18.6501Z"
                fill="#F1F0EB"
            />
            <path
                d="M34.8599 18.6501C35.7823 18.6501 36.5299 17.9024 36.5299 16.9801C36.5299 16.0577 35.7823 15.3101 34.8599 15.3101C33.9376 15.3101 33.1899 16.0577 33.1899 16.9801C33.1899 17.9024 33.9376 18.6501 34.8599 18.6501Z"
                fill="#F1F0EB"
            />
            <path
                d="M31.17 21.2201H31.78C32.33 21.2201 32.77 20.7801 32.77 20.2301V17.2501C32.77 17.0201 32.59 16.8401 32.36 16.8401C32.13 16.8401 31.95 17.0201 31.95 17.2501V19.8401C31.95 20.1501 31.7 20.4001 31.39 20.4001H31.18C30.95 20.4001 30.77 20.5801 30.77 20.8101C30.77 21.0401 30.95 21.2201 31.18 21.2201H31.17Z"
                fill="#E0B1BB"
            />
            <path
                d="M27.5 17.0099C27.5 18.1799 28.46 19.1399 29.63 19.1399C30.8 19.1399 31.65 18.2799 31.74 17.1799H32.73C32.8 18.2899 33.72 19.1699 34.84 19.1699C35.96 19.1699 36.97 18.2199 36.97 17.0399C36.97 15.8599 36.01 14.9099 34.84 14.9099C33.88 14.9099 33.07 15.5599 32.81 16.4399H31.67C31.42 15.5399 30.6 14.8799 29.63 14.8799C28.46 14.8799 27.5 15.8299 27.5 17.0099ZM33.56 17.0399C33.56 16.3299 34.14 15.7499 34.85 15.7499C35.56 15.7499 36.14 16.3299 36.14 17.0399C36.14 17.7499 35.56 18.3299 34.85 18.3299C34.14 18.3299 33.56 17.7499 33.56 17.0399ZM28.34 17.0099C28.34 16.2999 28.92 15.7199 29.63 15.7199C30.34 15.7199 30.92 16.2999 30.92 17.0099C30.92 17.7199 30.34 18.2999 29.63 18.2999C28.92 18.2999 28.34 17.7199 28.34 17.0099Z"
                fill="#898989"
            />
            <path
                d="M26.83 9.14989C27.316 9.14989 27.7099 8.7559 27.7099 8.26989C27.7099 7.78388 27.316 7.38989 26.83 7.38989C26.3439 7.38989 25.95 7.78388 25.95 8.26989C25.95 8.7559 26.3439 9.14989 26.83 9.14989Z"
                fill="#D6952D"
            />
            <path
                d="M40.1901 12.3301C40.6761 12.3301 41.0701 11.9361 41.0701 11.4501C41.0701 10.9641 40.6761 10.5701 40.1901 10.5701C39.704 10.5701 39.3101 10.9641 39.3101 11.4501C39.3101 11.9361 39.704 12.3301 40.1901 12.3301Z"
                fill="#D6952D"
            />
            <path
                d="M25.63 24.7C26.0277 24.7 26.35 24.3777 26.35 23.98C26.35 23.5824 26.0277 23.26 25.63 23.26C25.2324 23.26 24.91 23.5824 24.91 23.98C24.91 24.3777 25.2324 24.7 25.63 24.7Z"
                fill="#D6952D"
            />
            <path
                d="M39.51 15.7801C39.9077 15.7801 40.23 15.4577 40.23 15.0601C40.23 14.6624 39.9077 14.3401 39.51 14.3401C39.1124 14.3401 38.79 14.6624 38.79 15.0601C38.79 15.4577 39.1124 15.7801 39.51 15.7801Z"
                fill="#D6952D"
            />
            <path
                d="M23.4099 12.5101C23.5977 12.5101 23.7499 12.3579 23.7499 12.1701C23.7499 11.9823 23.5977 11.8301 23.4099 11.8301C23.2222 11.8301 23.0699 11.9823 23.0699 12.1701C23.0699 12.3579 23.2222 12.5101 23.4099 12.5101Z"
                fill="#D6952D"
            />
            <path
                d="M40.33 19.7C40.5178 19.7 40.67 19.5478 40.67 19.36C40.67 19.1722 40.5178 19.02 40.33 19.02C40.1422 19.02 39.99 19.1722 39.99 19.36C39.99 19.5478 40.1422 19.7 40.33 19.7Z"
                fill="#D6952D"
            />
            <path
                d="M21.09 18.49C21.2225 18.49 21.33 18.3826 21.33 18.25C21.33 18.1175 21.2225 18.01 21.09 18.01C20.9574 18.01 20.85 18.1175 20.85 18.25C20.85 18.3826 20.9574 18.49 21.09 18.49Z"
                fill="#D6952D"
            />
            <path
                d="M42.5 16.75C42.6326 16.75 42.74 16.6426 42.74 16.51C42.74 16.3775 42.6326 16.27 42.5 16.27C42.3675 16.27 42.26 16.3775 42.26 16.51C42.26 16.6426 42.3675 16.75 42.5 16.75Z"
                fill="#D6952D"
            />
            <path
                d="M21.2401 15.06C21.4775 15.06 21.6701 14.8674 21.6701 14.63C21.6701 14.3925 21.4775 14.2 21.2401 14.2C21.0026 14.2 20.8101 14.3925 20.8101 14.63C20.8101 14.8674 21.0026 15.06 21.2401 15.06Z"
                fill="#D6952D"
            />
            <path
                d="M39.33 3.56998C38.63 4.50998 38.4 5.64998 38.61 6.65998C39.64 6.56998 40.66 6.01998 41.36 5.06998C42.06 4.11998 42.29 2.98998 42.08 1.97998C41.05 2.06998 40.03 2.61998 39.33 3.56998Z"
                fill="#2D963A"
            />
            <path
                d="M40.85 4.47993C39.76 4.90993 38.96 5.73993 38.59 6.70993C39.51 7.17993 40.67 7.24993 41.76 6.82993C42.85 6.40993 43.65 5.56993 44.02 4.59993C43.1 4.12993 41.94 4.05993 40.85 4.47993Z"
                fill="#3EB750"
            />
        </g>
        <defs>
            <clipPath id="clip0_85_802">
                <rect width="57.79" height="116.37" fill="white" />
            </clipPath>
        </defs>
    </svg>
