
    <svg
        width="60"
        height="119"
        viewBox="0 0 60 119"
        fill="none"
        xmlns="http://www.w3.org/2000/svg"
    >
        <g clip-path="url(#clip0_85_836)">
            <path
                d="M56.9101 48.3799C58.5201 48.7299 59.5301 50.3099 59.1901 51.9199C58.9001 53.2399 57.7801 54.1599 56.5001 54.2599C56.2201 54.2799 55.9401 54.2599 55.6501 54.1999C54.9501 54.0499 54.2801 53.8799 53.6101 53.6899L55.8401 48.1299C56.1901 48.2199 56.5501 48.3099 56.9101 48.3899V48.3799Z"
                fill="#FADDDC"
            />
            <path
                d="M31.2199 26.39C32.7699 25.84 34.4699 26.65 35.0199 28.19C35.0799 28.35 40.9099 44.2 55.8399 48.11L53.6099 53.67C36.1399 48.68 29.6899 30.95 29.4199 30.17C28.8699 28.62 29.6799 26.93 31.2299 26.38L31.2199 26.39Z"
                fill="#3E2967"
            />
            <path
                d="M31.02 62.77H18.43L12.42 86.36L0 105.55L2.52 107.42C2.25 107.96 1.77 108.85 1.29 109.2C0.58 109.72 -0.33 110.66 0.57 111.72L5.94 115.57C6.71 115.86 7.48 114.71 7.06 113.89C6.78 113.34 5.88 112.14 5.57 111.61C4.95 110.53 5.61 109.67 6.32 108.44C10.59 101.1 20.78 89.73 20.78 89.73L31.02 62.78V62.77Z"
                fill="#636361"
            />
            <path
                d="M34.73 62.77H18.97L33.99 89.77L39.42 114.01L42.37 113.88L43.13 115.83C43.9 118.01 43.94 118.92 45.63 118.27L49.8 117.09C50.57 116.8 50.55 115.72 49.73 115.38C49.18 115.15 48.31 115.04 47.73 114.95C45.56 114.63 46.01 113.14 45.79 111.72C44.5 103.24 44.21 96.51 42.66 87.92C41.77 83 34.73 62.77 34.73 62.77Z"
                fill="#757570"
            />
            <path
                d="M38.2 65.6H19.73C16 65.6 16.19 62.3 16.28 61.34L18.9 36.8C18.9 32.64 18.15 26.61 26.37 24.79H30.72C32.22 24.79 33.64 25.55 34.42 26.83C40.09 36.09 38.2 65.6 38.2 65.6Z"
                fill="#3E2967"
            />
            <path
                d="M10.0101 56.8399C9.98006 58.4799 8.63006 59.7899 6.99006 59.7699C5.64006 59.7499 4.52006 58.8299 4.17006 57.5899C4.10006 57.3199 4.06006 57.0399 4.06006 56.7399C4.07006 56.0299 4.11006 55.3299 4.16006 54.6399L10.0501 55.7399C10.0301 56.0999 10.0101 56.4699 10.0101 56.8399Z"
                fill="#FADDDC"
            />
            <path
                d="M26.5199 27.3401C27.3599 28.7501 26.8999 30.5701 25.4999 31.4201C25.3499 31.5101 10.9499 40.3401 10.0499 55.7501L4.15991 54.6501C5.61991 36.5401 21.7399 26.7401 22.4499 26.3101C23.8599 25.4701 25.6799 25.9301 26.5199 27.3401Z"
                fill="#3E2967"
            />
            <path
                d="M26.5701 10.46H36.9601V19.76C36.9601 21.58 35.4801 23.06 33.6601 23.06H32.6101C32.1001 23.06 31.6801 23.47 31.6801 23.99V24.9C31.6801 26.06 30.4401 26.79 29.4201 26.24L26.7701 24.8L26.5601 10.46H26.5701Z"
                fill="#FADDDC"
            />
            <path
                d="M36.2699 20.1899L36.8699 20.0199C37.4099 19.8699 37.7299 19.2999 37.5799 18.7599L36.7499 15.7999C36.6899 15.5699 36.4499 15.4399 36.2299 15.5099C36.0099 15.5799 35.8699 15.8099 35.9399 16.0299L36.6599 18.5899C36.7499 18.8999 36.5699 19.2199 36.2599 19.2999L36.0499 19.3599C35.8199 19.4199 35.6899 19.6599 35.7599 19.8799C35.8299 20.0999 36.0599 20.2399 36.2799 20.1699L36.2699 20.1899Z"
                fill="#E0B1BB"
            />
            <path
                d="M29.68 15.8799C29.68 15.3497 29.2502 14.9199 28.72 14.9199C28.1898 14.9199 27.76 15.3497 27.76 15.8799V17.9699C27.76 18.5001 28.1898 18.9299 28.72 18.9299C29.2502 18.9299 29.68 18.5001 29.68 17.9699V15.8799Z"
                fill="#FADDDC"
            />
            <path
                d="M31.8899 35.9999C31.3899 36.9399 31.2299 38.0799 31.3799 39.0899C32.1099 38.9999 32.8299 38.4499 33.3299 37.4999C33.8299 36.5499 33.9899 35.4199 33.8399 34.4099C33.1099 34.4999 32.3899 35.0499 31.8899 35.9999Z"
                fill="#2D963A"
            />
            <path
                d="M32.9601 36.9101C32.1801 37.3401 31.6201 38.1701 31.3601 39.1401C32.0101 39.6101 32.8301 39.6801 33.6101 39.2601C34.3901 38.8401 34.9501 38.0001 35.2101 37.0301C34.5601 36.5601 33.7401 36.4901 32.9601 36.9101Z"
                fill="#3EB750"
            />
            <path
                d="M34.36 1.59C33.66 2.53 33.43 3.67 33.64 4.68C34.67 4.59 35.69 4.04 36.39 3.09C37.09 2.14 37.32 1.01 37.11 0C36.08 0.09 35.06 0.64 34.36 1.59Z"
                fill="#2D963A"
            />
            <path
                d="M35.8801 2.48994C34.7901 2.91994 33.9901 3.74994 33.6201 4.71994C34.5401 5.18994 35.7001 5.25994 36.7901 4.83994C37.8801 4.41994 38.6801 3.57994 39.0501 2.60994C38.1301 2.13994 36.9701 2.06994 35.8801 2.48994Z"
                fill="#3EB750"
            />
            <path
                d="M25.9099 1.2699C24.9399 1.3699 22.8199 2.1899 21.5699 3.2499C20.3199 4.3099 18.6299 5.9999 18.0999 6.5299C17.5699 7.0599 15.6799 8.9899 15.2599 9.6599C14.4399 10.9599 13.3299 13.6099 13.7199 16.8399C14.1099 20.0699 17.5299 23.6399 21.7199 24.5499C25.9099 25.4599 31.8899 26.0399 35.5599 23.3899C39.2299 20.7399 40.5699 18.3799 40.1399 14.9499C39.7099 11.5199 38.0199 9.4499 37.0499 8.2499C36.0799 7.0499 36.1299 4.9199 33.9599 3.5199C31.7899 2.1199 29.8099 0.869903 25.9099 1.2499V1.2699Z"
                fill="#FCC31E"
            />
            <path
                d="M30.29 22.0399C33.6423 22.0399 36.36 19.3223 36.36 15.9699C36.36 12.6175 33.6423 9.8999 30.29 9.8999C26.9376 9.8999 24.22 12.6175 24.22 15.9699C24.22 19.3223 26.9376 22.0399 30.29 22.0399Z"
                fill="#FADDDC"
            />
            <path
                d="M29.4901 16.6701C30.4124 16.6701 31.1601 15.9224 31.1601 15.0001C31.1601 14.0778 30.4124 13.3301 29.4901 13.3301C28.5678 13.3301 27.8201 14.0778 27.8201 15.0001C27.8201 15.9224 28.5678 16.6701 29.4901 16.6701Z"
                fill="#F1F0EB"
            />
            <path
                d="M34.7 16.6701C35.6223 16.6701 36.37 15.9224 36.37 15.0001C36.37 14.0778 35.6223 13.3301 34.7 13.3301C33.7777 13.3301 33.03 14.0778 33.03 15.0001C33.03 15.9224 33.7777 16.6701 34.7 16.6701Z"
                fill="#F1F0EB"
            />
            <path
                d="M31.11 19.0599H31.72C32.27 19.0599 32.71 18.6199 32.71 18.0699V15.0899C32.71 14.8599 32.53 14.6799 32.3 14.6799C32.07 14.6799 31.89 14.8599 31.89 15.0899V17.6799C31.89 17.9899 31.64 18.2399 31.33 18.2399H31.12C30.89 18.2399 30.71 18.4199 30.71 18.6499C30.71 18.8799 30.89 19.0599 31.12 19.0599H31.11Z"
                fill="#E0B1BB"
            />
            <path
                d="M27.3401 15.0199C27.3401 16.1899 28.3001 17.1499 29.4701 17.1499C30.6401 17.1499 31.4901 16.2899 31.5801 15.1899H32.5701C32.6401 16.2999 33.5601 17.1799 34.6801 17.1799C35.8001 17.1799 36.8101 16.2299 36.8101 15.0499C36.8101 13.8699 35.8501 12.9199 34.6801 12.9199C33.7201 12.9199 32.9101 13.5699 32.6501 14.4499H31.5101C31.2601 13.5499 30.4401 12.8899 29.4701 12.8899C28.3001 12.8899 27.3401 13.8399 27.3401 15.0199ZM33.4001 15.0499C33.4001 14.3399 33.9801 13.7599 34.6901 13.7599C35.4001 13.7599 35.9801 14.3399 35.9801 15.0499C35.9801 15.7599 35.4001 16.3399 34.6901 16.3399C33.9801 16.3399 33.4001 15.7599 33.4001 15.0499ZM28.1801 15.0199C28.1801 14.3099 28.7601 13.7299 29.4701 13.7299C30.1801 13.7299 30.7601 14.3099 30.7601 15.0199C30.7601 15.7299 30.1801 16.3099 29.4701 16.3099C28.7601 16.3099 28.1801 15.7299 28.1801 15.0199Z"
                fill="#898989"
            />
            <path
                d="M21.86 7.1599C22.346 7.1599 22.74 6.76591 22.74 6.2799C22.74 5.79389 22.346 5.3999 21.86 5.3999C21.374 5.3999 20.98 5.79389 20.98 6.2799C20.98 6.76591 21.374 7.1599 21.86 7.1599Z"
                fill="#D6952D"
            />
            <path
                d="M35.2201 10.3501C35.7061 10.3501 36.1001 9.9561 36.1001 9.47009C36.1001 8.98408 35.7061 8.59009 35.2201 8.59009C34.7341 8.59009 34.3401 8.98408 34.3401 9.47009C34.3401 9.9561 34.7341 10.3501 35.2201 10.3501Z"
                fill="#D6952D"
            />
            <path
                d="M20.6599 22.72C21.0576 22.72 21.3799 22.3977 21.3799 22C21.3799 21.6024 21.0576 21.28 20.6599 21.28C20.2623 21.28 19.9399 21.6024 19.9399 22C19.9399 22.3977 20.2623 22.72 20.6599 22.72Z"
                fill="#D6952D"
            />
            <path
                d="M37.5201 12.6299C37.9177 12.6299 38.2401 12.3076 38.2401 11.9099C38.2401 11.5123 37.9177 11.1899 37.5201 11.1899C37.1224 11.1899 36.8 11.5123 36.8 11.9099C36.8 12.3076 37.1224 12.6299 37.5201 12.6299Z"
                fill="#D6952D"
            />
            <path
                d="M18.4401 10.5301C18.6279 10.5301 18.7801 10.3779 18.7801 10.1901C18.7801 10.0023 18.6279 9.8501 18.4401 9.8501C18.2523 9.8501 18.1001 10.0023 18.1001 10.1901C18.1001 10.3779 18.2523 10.5301 18.4401 10.5301Z"
                fill="#D6952D"
            />
            <path
                d="M36.9799 20.3299C37.1677 20.3299 37.3199 20.1777 37.3199 19.9899C37.3199 19.8021 37.1677 19.6499 36.9799 19.6499C36.7921 19.6499 36.6399 19.8021 36.6399 19.9899C36.6399 20.1777 36.7921 20.3299 36.9799 20.3299Z"
                fill="#D6952D"
            />
            <path
                d="M16.1199 16.51C16.2524 16.51 16.3599 16.4026 16.3599 16.27C16.3599 16.1375 16.2524 16.03 16.1199 16.03C15.9873 16.03 15.8799 16.1375 15.8799 16.27C15.8799 16.4026 15.9873 16.51 16.1199 16.51Z"
                fill="#D6952D"
            />
            <path
                d="M37.53 14.77C37.6626 14.77 37.77 14.6626 37.77 14.53C37.77 14.3975 37.6626 14.29 37.53 14.29C37.3975 14.29 37.29 14.3975 37.29 14.53C37.29 14.6626 37.3975 14.77 37.53 14.77Z"
                fill="#D6952D"
            />
            <path
                d="M16.2701 13.08C16.5076 13.08 16.7001 12.8875 16.7001 12.65C16.7001 12.4125 16.5076 12.22 16.2701 12.22C16.0326 12.22 15.8401 12.4125 15.8401 12.65C15.8401 12.8875 16.0326 13.08 16.2701 13.08Z"
                fill="#D6952D"
            />
        </g>
        <defs>
            <clipPath id="clip0_85_836">
                <rect width="59.25" height="118.48" fill="white" />
            </clipPath>
        </defs>
    </svg>
