<svg width="40" height="119" viewBox="0 0 40 119" fill="none" xmlns="http://www.w3.org/2000/svg">
<g clip-path="url(#clip0_134_1587)">
<path d="M9.4899 63.4399L23.2899 63.4099L9.7099 82.9299L14.4499 103.89L12.0999 104.63V106.67C12.2799 108.1 12.2799 109.03 10.7599 109.86L6.8499 110.86C6.0799 110.92 5.7199 109.97 6.3199 109.32C6.7199 108.89 7.5599 108.59 7.9199 108.11C9.4899 105.99 8.6699 105.49 8.3699 104.15C6.5699 96.1599 0.149902 82.6399 0.149902 82.6399L9.4899 63.4399Z" fill="#636361"/>
<path d="M16.02 63.2099L29.23 63.58L26.43 112.3L24.11 113.05C24.1 113.64 24.11 114.63 24.36 115.17C24.72 115.97 25.07 117.23 23.87 117.65L17.78 118.1C17.02 117.95 16.88 116.59 17.58 116.12C18.04 115.81 19.31 115.26 19.79 114.98C20.77 114.39 20.73 113.32 20.54 111.94C19.16 101.97 16.03 63.2 16.03 63.2L16.02 63.2099Z" fill="#757570"/>
<path d="M33.3501 59.5699C33.1601 61.1999 34.3301 62.6799 35.9601 62.8699C37.3001 63.0299 38.5401 62.2699 39.0401 61.0799C39.1501 60.8199 39.2201 60.5499 39.2601 60.2599C39.3401 59.5499 39.4001 58.8599 39.4301 58.1699L33.4501 58.4799C33.4201 58.8399 33.3901 59.2099 33.3501 59.5699Z" fill="#FADDDC"/>
<path d="M20.8799 28.14C19.8599 29.42 20.0699 31.29 21.3499 32.32C21.4899 32.43 34.5899 43.09 33.4499 58.47L39.4299 58.16C40.3799 40.02 25.6899 28.17 25.0499 27.66C23.7599 26.64 21.8999 26.86 20.8799 28.14Z" fill="#261749"/>
<path d="M8.30997 65.6H26.78C30.51 65.6 30.32 62.3 30.23 61.34L27.61 36.8C27.61 32.64 28.36 26.61 20.14 24.79H15.79C14.29 24.79 12.87 25.55 12.09 26.83C6.41997 36.09 8.30997 65.6 8.30997 65.6Z" fill="#3E2967"/>
<path d="M1.83999 55.8299C0.319992 56.4599 -0.400008 58.1999 0.229992 59.7199C0.749992 60.9699 2.00999 61.6799 3.28999 61.5399C3.56999 61.5099 3.83999 61.4399 4.11999 61.3299C4.77999 61.0599 5.40999 60.7699 6.02999 60.4599L2.84999 55.3899C2.51999 55.5399 2.18999 55.6899 1.84999 55.8299H1.83999Z" fill="#FADDDC"/>
<path d="M23.3399 30.5799C21.7199 30.3099 20.8499 31.4499 20.5799 33.0699C20.5499 33.2399 17.6299 49.8799 3.62988 56.3799L7.92988 59.3499C25.2099 52.9699 25.5699 34.2999 25.6999 33.4799C25.9599 31.8599 24.9599 30.8499 23.3399 30.5799Z" fill="#261749"/>
<path d="M23.2101 29.6301C21.5901 29.3601 20.0601 30.4601 19.7901 32.0801C19.7601 32.2501 16.8401 48.8901 2.84009 55.3901L6.02009 60.4601C22.3201 52.4501 25.5201 33.8601 25.6601 33.0401C25.9201 31.4201 24.8201 29.9001 23.2101 29.6301Z" fill="#3E2967"/>
<path d="M19.94 10.46H9.55005V19.76C9.55005 21.58 11.03 23.06 12.85 23.06H13.9C14.41 23.06 14.83 23.47 14.83 23.99V24.9C14.83 26.06 16.07 26.79 17.09 26.24L19.74 24.8L19.95 10.46H19.94Z" fill="#FADDDC"/>
<path d="M10.2401 20.19L9.64006 20.02C9.10006 19.87 8.78006 19.3 8.93006 18.76L9.76006 15.8C9.82006 15.57 10.0601 15.44 10.2801 15.51C10.5001 15.58 10.6401 15.81 10.5701 16.03L9.85006 18.59C9.76006 18.9 9.94006 19.22 10.2501 19.3L10.4601 19.36C10.6901 19.42 10.8201 19.66 10.7501 19.88C10.6801 20.1 10.4501 20.24 10.2301 20.17L10.2401 20.19Z" fill="#E0B1BB"/>
<path d="M16.83 17.9701C16.83 18.5002 17.2598 18.9301 17.79 18.9301C18.3202 18.9301 18.75 18.5002 18.75 17.9701V15.8801C18.75 15.3499 18.3202 14.9201 17.79 14.9201C17.2598 14.9201 16.83 15.3499 16.83 15.8801V17.9701Z" fill="#FADDDC"/>
<path d="M14.63 35.9999C15.13 36.9399 15.29 38.0799 15.14 39.0899C14.41 38.9999 13.69 38.4499 13.19 37.4999C12.69 36.5499 12.53 35.4199 12.68 34.4099C13.41 34.4999 14.13 35.0499 14.63 35.9999Z" fill="#2D963A"/>
<path d="M13.55 36.9101C14.33 37.3401 14.89 38.1701 15.15 39.1401C14.5 39.6101 13.68 39.6801 12.9 39.2601C12.12 38.8401 11.56 38.0001 11.3 37.0301C11.95 36.5601 12.77 36.4901 13.55 36.9101Z" fill="#3EB750"/>
<path d="M12.15 1.59C12.85 2.53 13.08 3.67 12.87 4.68C11.84 4.59 10.82 4.04 10.12 3.09C9.41996 2.14 9.18996 1.01 9.39996 0C10.43 0.09 11.45 0.64 12.15 1.59Z" fill="#2D963A"/>
<path d="M10.63 2.48994C11.72 2.91994 12.52 3.74994 12.89 4.71994C11.97 5.18994 10.81 5.25994 9.71996 4.83994C8.62996 4.41994 7.82996 3.57994 7.45996 2.60994C8.37996 2.13994 9.53996 2.06994 10.63 2.48994Z" fill="#3EB750"/>
<path d="M20.6001 1.27002C21.5701 1.37002 23.6901 2.19002 24.9401 3.25002C26.1901 4.31002 27.8801 6.00002 28.4101 6.53003C28.9401 7.06003 30.8301 8.99002 31.2501 9.66002C32.0701 10.96 33.1801 13.61 32.7901 16.84C32.4001 20.07 28.9801 23.64 24.7901 24.55C20.6001 25.47 14.6201 26.04 10.9501 23.39C7.2801 20.74 5.9401 18.38 6.3701 14.95C6.8001 11.52 8.4901 9.45002 9.4601 8.25002C10.4301 7.05002 10.3801 4.92002 12.5501 3.52002C14.7201 2.12002 16.7001 0.870025 20.6001 1.25002V1.27002Z" fill="#FCC31E"/>
<path d="M16.2299 22.04C19.5823 22.04 22.2999 19.3224 22.2999 15.97C22.2999 12.6177 19.5823 9.90002 16.2299 9.90002C12.8775 9.90002 10.1599 12.6177 10.1599 15.97C10.1599 19.3224 12.8775 22.04 16.2299 22.04Z" fill="#FADDDC"/>
<path d="M17.0201 16.67C17.9424 16.67 18.6901 15.9223 18.6901 15C18.6901 14.0776 17.9424 13.33 17.0201 13.33C16.0978 13.33 15.3501 14.0776 15.3501 15C15.3501 15.9223 16.0978 16.67 17.0201 16.67Z" fill="#F1F0EB"/>
<path d="M11.8199 16.67C12.7422 16.67 13.4899 15.9223 13.4899 15C13.4899 14.0776 12.7422 13.33 11.8199 13.33C10.8976 13.33 10.1499 14.0776 10.1499 15C10.1499 15.9223 10.8976 16.67 11.8199 16.67Z" fill="#F1F0EB"/>
<path d="M15.4101 19.0601H14.8001C14.2501 19.0601 13.8101 18.6201 13.8101 18.0701V15.0901C13.8101 14.8601 13.9901 14.6801 14.2201 14.6801C14.4501 14.6801 14.6301 14.8601 14.6301 15.0901V17.6801C14.6301 17.9901 14.8801 18.2401 15.1901 18.2401H15.4001C15.6301 18.2401 15.8101 18.4201 15.8101 18.6501C15.8101 18.8801 15.6301 19.0601 15.4001 19.0601H15.4101Z" fill="#E0B1BB"/>
<path d="M17.04 12.9C16.06 12.9 15.25 13.56 15 14.46H13.86C13.6 13.58 12.79 12.93 11.83 12.93C10.66 12.93 9.69995 13.88 9.69995 15.06C9.69995 16.24 10.66 17.19 11.83 17.19C13 17.19 13.87 16.31 13.94 15.2H14.93C15.02 16.29 15.93 17.16 17.04 17.16C18.21 17.16 19.17 16.21 19.17 15.03C19.17 13.86 18.21 12.9 17.04 12.9ZM11.82 16.35C11.11 16.35 10.53 15.77 10.53 15.06C10.53 14.35 11.11 13.77 11.82 13.77C12.53 13.77 13.11 14.35 13.11 15.06C13.11 15.77 12.53 16.35 11.82 16.35ZM17.04 16.32C16.33 16.32 15.75 15.74 15.75 15.03C15.75 14.32 16.33 13.74 17.04 13.74C17.75 13.74 18.33 14.32 18.33 15.03C18.33 15.74 17.75 16.32 17.04 16.32Z" fill="#898989"/>
<path d="M24.65 7.16002C25.136 7.16002 25.53 6.76604 25.53 6.28002C25.53 5.79401 25.136 5.40002 24.65 5.40002C24.164 5.40002 23.77 5.79401 23.77 6.28002C23.77 6.76604 24.164 7.16002 24.65 7.16002Z" fill="#D6952D"/>
<path d="M11.2999 10.35C11.7859 10.35 12.1799 9.95598 12.1799 9.46997C12.1799 8.98396 11.7859 8.58997 11.2999 8.58997C10.8139 8.58997 10.4199 8.98396 10.4199 9.46997C10.4199 9.95598 10.8139 10.35 11.2999 10.35Z" fill="#D6952D"/>
<path d="M25.8599 22.72C26.2575 22.72 26.5799 22.3977 26.5799 22C26.5799 21.6024 26.2575 21.28 25.8599 21.28C25.4622 21.28 25.1399 21.6024 25.1399 22C25.1399 22.3977 25.4622 22.72 25.8599 22.72Z" fill="#D6952D"/>
<path d="M8.99002 12.6299C9.38766 12.6299 9.71002 12.3076 9.71002 11.9099C9.71002 11.5123 9.38766 11.1899 8.99002 11.1899C8.59237 11.1899 8.27002 11.5123 8.27002 11.9099C8.27002 12.3076 8.59237 12.6299 8.99002 12.6299Z" fill="#D6952D"/>
<path d="M28.08 10.53C28.2678 10.53 28.42 10.3778 28.42 10.19C28.42 10.0022 28.2678 9.84998 28.08 9.84998C27.8922 9.84998 27.74 10.0022 27.74 10.19C27.74 10.3778 27.8922 10.53 28.08 10.53Z" fill="#D6952D"/>
<path d="M9.52994 20.33C9.71772 20.33 9.86994 20.1778 9.86994 19.99C9.86994 19.8022 9.71772 19.65 9.52994 19.65C9.34216 19.65 9.18994 19.8022 9.18994 19.99C9.18994 20.1778 9.34216 20.33 9.52994 20.33Z" fill="#D6952D"/>
<path d="M30.3899 16.51C30.5225 16.51 30.6299 16.4026 30.6299 16.27C30.6299 16.1375 30.5225 16.03 30.3899 16.03C30.2574 16.03 30.1499 16.1375 30.1499 16.27C30.1499 16.4026 30.2574 16.51 30.3899 16.51Z" fill="#D6952D"/>
<path d="M8.97999 14.77C9.11254 14.77 9.21999 14.6626 9.21999 14.53C9.21999 14.3975 9.11254 14.29 8.97999 14.29C8.84744 14.29 8.73999 14.3975 8.73999 14.53C8.73999 14.6626 8.84744 14.77 8.97999 14.77Z" fill="#D6952D"/>
<path d="M30.2501 13.08C30.4876 13.08 30.6801 12.8875 30.6801 12.65C30.6801 12.4125 30.4876 12.22 30.2501 12.22C30.0126 12.22 29.8201 12.4125 29.8201 12.65C29.8201 12.8875 30.0126 13.08 30.2501 13.08Z" fill="#D6952D"/>
</g>
<defs>
<clipPath id="clip0_134_1587">
<rect width="39.48" height="118.11" fill="white"/>
</clipPath>
</defs>
</svg>
