<svg width="110" height="111" viewBox="0 0 110 111" fill="none" xmlns="http://www.w3.org/2000/svg">
<g clip-path="url(#clip0_1216_1631)">
<path d="M66.9301 59.2L68.3201 104.51L65.8501 104.69C65.8501 105.37 66.2401 106.67 66.6801 107.04C67.2101 107.48 68.6001 107.96 69.1101 108.44C69.7101 109.01 69.3901 110.24 68.6601 110.24H65.6601H64.8901C64.2101 110.24 63.6101 109.63 63.4501 108.77L63.3801 104.95L61.8801 104.91C60.7201 98.58 59.5501 88.49 58.5201 82.03C57.8001 77.5 57.2001 71.57 56.5601 67.07C56.4201 66.08 55.7201 65.36 54.9101 65.36H53.4401C52.6301 65.36 51.9301 66.08 51.7901 67.07C51.1501 71.58 48.6201 96.53 47.2501 103.71C47.1701 104.12 45.6001 103.58 45.5301 104C45.2901 105.29 45.7101 106.63 46.5601 107.36C46.9701 107.71 47.3801 108.08 47.7801 108.46C48.3801 109.03 48.0701 110.27 47.3301 110.27H44.3301L42.3801 109.49C40.4501 107.99 42.8601 106.82 41.9501 103.99L40.3401 103.43L41.2501 66.77V59.2H66.9201H66.9301Z" fill="#42568E"/>
<path d="M23.89 4.15999C23.41 2.56999 21.73 1.65999 20.14 2.13999C18.84 2.52999 18 3.73999 18 5.03999C18 5.31999 18.04 5.60999 18.13 5.88999C18.34 6.57999 18.57 7.24999 18.81 7.90999L24.24 5.21999C24.12 4.86999 24 4.51999 23.9 4.15999H23.89Z" fill="#FADDDC"/>
<path d="M48.1001 28.34C48.5301 26.74 47.5801 25.09 45.9801 24.65C45.8101 24.6 29.3601 19.97 24.2401 5.20999L18.8101 7.89999C25.2201 25.13 43.6101 30.25 44.4201 30.46C46.0201 30.89 47.6701 29.94 48.1001 28.34Z" fill="#3E2967"/>
<path d="M68.2499 60.99H41.6799C40.5599 60.99 39.6599 60.04 39.7299 58.92L41.4199 31.62C41.4199 27.17 45.0299 23.57 49.4699 23.57H60.7499C65.1199 23.57 68.6699 27.11 68.6699 31.49L70.1899 58.94C70.2499 60.06 69.3599 61 68.2399 61L68.2499 60.99Z" fill="#3E2967"/>
<path d="M73.64 59.54C73.52 61.2 74.77 62.64 76.43 62.76C76.5 62.76 76.58 62.76 76.65 62.76C78.21 62.76 79.54 61.55 79.65 59.96C79.69 59.44 79.71 58.93 79.74 58.42H73.71C73.69 58.79 73.68 59.15 73.65 59.53L73.64 59.54Z" fill="#FADDDC"/>
<path d="M64.3499 24.44C62.8999 23.64 61.0799 24.16 60.2699 25.6C59.4599 27.04 59.9699 28.87 61.4099 29.7C61.9599 30.02 74.7299 37.57 73.6999 58.43H79.7299C80.8199 33.89 65.0299 24.82 64.3399 24.44H64.3499Z" fill="#3E2967"/>
<path d="M57.24 10.34H46.72V17.67C46.72 20 48.61 21.89 50.94 21.89H51.12C51.64 21.89 52.06 22.31 52.06 22.83V24.07C52.06 25.49 53.21 26.64 54.63 26.64C56.05 26.64 57.2 25.49 57.2 24.08L57.24 10.35V10.34Z" fill="#FADDDC"/>
<path d="M53.84 35.42C53.16 36.34 52.93 37.44 53.14 38.43C54.14 38.34 55.13 37.8 55.82 36.88C56.51 35.96 56.73 34.86 56.52 33.87C55.52 33.96 54.53 34.5 53.84 35.42Z" fill="#2D963A"/>
<path d="M55.3101 36.3C54.2401 36.72 53.4701 37.53 53.1101 38.47C54.0101 38.92 55.1301 39 56.2001 38.58C57.2701 38.16 58.0401 37.35 58.4001 36.41C57.5001 35.96 56.3801 35.88 55.3101 36.3Z" fill="#3EB750"/>
<path d="M53.5601 1.23999C52.6101 1.32999 50.5501 2.12999 49.3301 3.16999C48.1101 4.20999 46.4601 5.84999 45.9501 6.36999C45.4401 6.88999 43.5901 8.76999 43.1801 9.41999C42.3801 10.69 41.3001 13.27 41.6801 16.42C42.0601 19.57 45.3901 23.05 49.4801 23.94C53.5701 24.83 59.3901 25.4 62.9701 22.81C66.5501 20.22 67.8601 17.92 67.4301 14.59C67.0001 11.26 65.3601 9.22999 64.4201 8.05999C63.4801 6.88999 63.5301 4.81999 61.4101 3.45999C59.2901 2.09999 57.3701 0.879986 53.5601 1.24999V1.23999Z" fill="#FCC31E"/>
<path d="M54.2401 21.47C57.5041 21.47 60.1501 18.824 60.1501 15.56C60.1501 12.296 57.5041 9.64999 54.2401 9.64999C50.9761 9.64999 48.3301 12.296 48.3301 15.56C48.3301 18.824 50.9761 21.47 54.2401 21.47Z" fill="#FADDDC"/>
<path d="M52.36 16.25C53.2602 16.25 53.99 15.5202 53.99 14.62C53.99 13.7198 53.2602 12.99 52.36 12.99C51.4598 12.99 50.73 13.7198 50.73 14.62C50.73 15.5202 51.4598 16.25 52.36 16.25Z" fill="#F1F0EB"/>
<path d="M57.4401 16.25C58.3403 16.25 59.0701 15.5202 59.0701 14.62C59.0701 13.7198 58.3403 12.99 57.4401 12.99C56.5398 12.99 55.8101 13.7198 55.8101 14.62C55.8101 15.5202 56.5398 16.25 57.4401 16.25Z" fill="#F1F0EB"/>
<path d="M53.8399 18.75H54.4299C54.9599 18.75 55.3999 18.32 55.3999 17.78V14.87C55.3999 14.65 55.2199 14.47 54.9999 14.47C54.7799 14.47 54.5999 14.65 54.5999 14.87V17.39C54.5999 17.69 54.3499 17.94 54.0499 17.94H53.8399C53.6199 17.94 53.4399 18.12 53.4399 18.34C53.4399 18.56 53.6199 18.74 53.8399 18.74V18.75Z" fill="#E0B1BB"/>
<path d="M50.27 14.64C50.27 15.78 51.2 16.71 52.34 16.71C53.48 16.71 54.31 15.87 54.4 14.8H55.37C55.44 15.88 56.33 16.74 57.43 16.74C58.53 16.74 59.5 15.81 59.5 14.67C59.5 13.53 58.57 12.6 57.43 12.6C56.49 12.6 55.71 13.23 55.45 14.09H54.33C54.09 13.22 53.29 12.57 52.34 12.57C51.2 12.57 50.27 13.5 50.27 14.64ZM56.17 14.67C56.17 13.98 56.73 13.41 57.43 13.41C58.13 13.41 58.69 13.97 58.69 14.67C58.69 15.37 58.13 15.93 57.43 15.93C56.73 15.93 56.17 15.37 56.17 14.67ZM51.09 14.64C51.09 13.95 51.65 13.38 52.35 13.38C53.05 13.38 53.61 13.94 53.61 14.64C53.61 15.34 53.05 15.9 52.35 15.9C51.65 15.9 51.09 15.34 51.09 14.64Z" fill="#898989"/>
<path d="M49.62 6.98001C50.095 6.98001 50.48 6.59497 50.48 6.12001C50.48 5.64504 50.095 5.26001 49.62 5.26001C49.145 5.26001 48.76 5.64504 48.76 6.12001C48.76 6.59497 49.145 6.98001 49.62 6.98001Z" fill="#D6952D"/>
<path d="M62.63 10.09C63.105 10.09 63.49 9.70496 63.49 9.22999C63.49 8.75503 63.105 8.37 62.63 8.37C62.1551 8.37 61.77 8.75503 61.77 9.22999C61.77 9.70496 62.1551 10.09 62.63 10.09Z" fill="#D6952D"/>
<path d="M48.44 22.14C48.8266 22.14 49.14 21.8266 49.14 21.44C49.14 21.0534 48.8266 20.74 48.44 20.74C48.0534 20.74 47.74 21.0534 47.74 21.44C47.74 21.8266 48.0534 22.14 48.44 22.14Z" fill="#D6952D"/>
<path d="M61.97 13.45C62.3566 13.45 62.67 13.1366 62.67 12.75C62.67 12.3634 62.3566 12.05 61.97 12.05C61.5834 12.05 61.27 12.3634 61.27 12.75C61.27 13.1366 61.5834 13.45 61.97 13.45Z" fill="#D6952D"/>
<path d="M46.28 10.26C46.4622 10.26 46.61 10.1123 46.61 9.93001C46.61 9.74775 46.4622 9.60001 46.28 9.60001C46.0977 9.60001 45.95 9.74775 45.95 9.93001C45.95 10.1123 46.0977 10.26 46.28 10.26Z" fill="#D6952D"/>
<path d="M62.7699 17.26C62.9522 17.26 63.0999 17.1123 63.0999 16.93C63.0999 16.7478 62.9522 16.6 62.7699 16.6C62.5877 16.6 62.4399 16.7478 62.4399 16.93C62.4399 17.1123 62.5877 17.26 62.7699 17.26Z" fill="#D6952D"/>
<path d="M44.02 16.08C44.1471 16.08 44.25 15.977 44.25 15.85C44.25 15.723 44.1471 15.62 44.02 15.62C43.893 15.62 43.79 15.723 43.79 15.85C43.79 15.977 43.893 16.08 44.02 16.08Z" fill="#D6952D"/>
<path d="M64.8899 14.39C65.0169 14.39 65.1199 14.287 65.1199 14.16C65.1199 14.033 65.0169 13.93 64.8899 13.93C64.7629 13.93 64.6599 14.033 64.6599 14.16C64.6599 14.287 64.7629 14.39 64.8899 14.39Z" fill="#D6952D"/>
<path d="M44.17 12.75C44.402 12.75 44.59 12.562 44.59 12.33C44.59 12.098 44.402 11.91 44.17 11.91C43.938 11.91 43.75 12.098 43.75 12.33C43.75 12.562 43.938 12.75 44.17 12.75Z" fill="#D6952D"/>
<path d="M61.7999 1.55C61.1199 2.47 60.8899 3.57 61.0999 4.56C62.0999 4.47 63.0899 3.93 63.7799 3.01C64.4699 2.09 64.6899 0.99 64.4799 0C63.4799 0.09 62.4899 0.63 61.7999 1.55Z" fill="#2D963A"/>
<path d="M63.2801 2.43C62.2101 2.85 61.4401 3.66 61.0801 4.6C61.9801 5.05 63.1001 5.13 64.1701 4.71C65.2401 4.29 66.0101 3.48 66.3701 2.54C65.4701 2.09 64.3501 2.01 63.2801 2.43Z" fill="#3EB750"/>
</g>
<defs>
<clipPath id="clip0_1216_1631">
<rect width="61.79" height="110.27" fill="white" transform="translate(18)"/>
</clipPath>
</defs>
</svg>
