<svg width="65" height="118" viewBox="0 0 65 118" fill="none" xmlns="http://www.w3.org/2000/svg">
<g clip-path="url(#clip0_134_1486)">
<path d="M62.08 48.3799C63.69 48.7299 64.7 50.3099 64.36 51.9199C64.07 53.2399 62.95 54.1599 61.67 54.2599C61.39 54.2799 61.11 54.2599 60.82 54.1999C60.12 54.0499 59.45 53.8799 58.78 53.6899L61.01 48.1299C61.36 48.2199 61.72 48.3099 62.08 48.3899V48.3799Z" fill="#FADDDC"/>
<path d="M36.4001 26.39C37.9501 25.84 39.6501 26.65 40.2001 28.19C40.2601 28.35 46.0901 44.2 61.0201 48.11L58.7901 53.67C41.3201 48.68 34.8701 30.95 34.6001 30.17C34.0501 28.62 34.8601 26.93 36.4101 26.38L36.4001 26.39Z" fill="#3E2967"/>
<path d="M36.1999 62.77H23.6099L18.2899 85.5L1.3299 96.52L2.9899 99.29C2.6999 100.43 1.4799 100.37 0.999897 100.72C0.289897 101.24 -0.490103 102.22 0.409897 103.28L4.3599 107.79C5.1299 108.08 5.8999 106.93 5.4799 106.11C5.1999 105.56 4.9299 103.88 4.9499 103.32C4.9999 102.07 5.6999 101.21 5.6999 101.21L26.6499 89.53L36.2099 62.78L36.1999 62.77Z" fill="#636361"/>
<path d="M41.5599 63.1001L25.8799 64.7001L43.5699 90.0401L51.4299 113.6L54.3499 113.17L55.3099 115.04C56.2999 117.13 56.4299 118.03 58.0499 117.21L62.0699 115.61C62.7999 115.24 62.6799 114.17 61.8199 113.91C61.2499 113.74 60.3799 113.71 59.7899 113.69C57.5999 113.59 57.8899 112.06 57.5299 110.67C55.3899 102.37 54.4099 95.7001 51.9999 87.3101C50.6199 82.5101 41.5499 63.1001 41.5499 63.1001H41.5599Z" fill="#757570"/>
<path d="M43.3799 65.6H24.9099C21.1799 65.6 21.3699 62.3 21.4599 61.34L24.0799 36.8C24.0799 32.64 23.3299 26.61 31.5499 24.79H35.8999C37.3999 24.79 38.8199 25.55 39.5999 26.83C45.2699 36.09 43.3799 65.6 43.3799 65.6Z" fill="#3E2967"/>
<path d="M15.18 56.8399C15.15 58.4799 13.8 59.7899 12.16 59.7699C10.81 59.7499 9.68998 58.8299 9.33998 57.5899C9.26998 57.3199 9.22998 57.0399 9.22998 56.7399C9.23998 56.0299 9.27998 55.3299 9.32998 54.6399L15.22 55.7399C15.2 56.0999 15.18 56.4699 15.18 56.8399Z" fill="#FADDDC"/>
<path d="M31.7001 27.34C32.5401 28.75 32.0801 30.57 30.6801 31.42C30.5301 31.51 16.1301 40.34 15.2301 55.75L9.34009 54.65C10.8001 36.54 26.9201 26.74 27.6301 26.31C29.0401 25.47 30.8601 25.93 31.7001 27.34Z" fill="#3E2967"/>
<path d="M31.75 10.46H42.14V19.76C42.14 21.58 40.66 23.06 38.84 23.06H37.79C37.28 23.06 36.86 23.47 36.86 23.99V24.9C36.86 26.06 35.62 26.79 34.6 26.24L31.95 24.8L31.74 10.46H31.75Z" fill="#FADDDC"/>
<path d="M41.4501 20.19L42.0501 20.02C42.5901 19.87 42.9101 19.3 42.7601 18.76L41.9301 15.8C41.8701 15.57 41.6301 15.44 41.4101 15.51C41.1901 15.58 41.0501 15.81 41.1201 16.03L41.8401 18.59C41.9301 18.9 41.7501 19.22 41.4401 19.3L41.2301 19.36C41.0001 19.42 40.8701 19.66 40.9401 19.88C41.0101 20.1 41.2401 20.24 41.4601 20.17L41.4501 20.19Z" fill="#E0B1BB"/>
<path d="M34.8599 15.88C34.8599 15.3499 34.4301 14.92 33.8999 14.92C33.3698 14.92 32.9399 15.3499 32.9399 15.88V17.97C32.9399 18.5002 33.3698 18.93 33.8999 18.93C34.4301 18.93 34.8599 18.5002 34.8599 17.97V15.88Z" fill="#FADDDC"/>
<path d="M37.0601 35.9999C36.5601 36.9399 36.4001 38.0799 36.5501 39.0899C37.2801 38.9999 38.0001 38.4499 38.5001 37.4999C39.0001 36.5499 39.1601 35.4199 39.0101 34.4099C38.2801 34.4999 37.5601 35.0499 37.0601 35.9999Z" fill="#2D963A"/>
<path d="M38.14 36.9101C37.36 37.3401 36.8 38.1701 36.54 39.1401C37.19 39.6101 38.01 39.6801 38.79 39.2601C39.57 38.8401 40.13 38.0001 40.39 37.0301C39.74 36.5601 38.92 36.4901 38.14 36.9101Z" fill="#3EB750"/>
<path d="M39.5399 1.59C38.8399 2.53 38.6099 3.67 38.8199 4.68C39.8499 4.59 40.8699 4.04 41.5699 3.09C42.2699 2.14 42.4999 1.01 42.2899 0C41.2599 0.09 40.2399 0.64 39.5399 1.59Z" fill="#2D963A"/>
<path d="M41.0601 2.48994C39.9701 2.91994 39.17 3.74994 38.8 4.71994C39.72 5.18994 40.8801 5.25994 41.9701 4.83994C43.0601 4.41994 43.86 3.57994 44.23 2.60994C43.31 2.13994 42.1501 2.06994 41.0601 2.48994Z" fill="#3EB750"/>
<path d="M31.0901 1.27002C30.1201 1.37002 28.0001 2.19002 26.7501 3.25002C25.5001 4.31002 23.8101 6.00002 23.2801 6.53003C22.7501 7.06003 20.8601 8.99002 20.4401 9.66002C19.6201 10.96 18.5101 13.61 18.9001 16.84C19.2901 20.07 22.7101 23.64 26.9001 24.55C31.0901 25.47 37.0701 26.04 40.7401 23.39C44.4101 20.74 45.7501 18.38 45.3201 14.95C44.8901 11.53 43.2001 9.45002 42.2301 8.25002C41.2601 7.05002 41.3101 4.92002 39.1401 3.52002C36.9701 2.12002 34.9901 0.870025 31.0901 1.25002V1.27002Z" fill="#FCC31E"/>
<path d="M35.4599 22.04C38.8123 22.04 41.5299 19.3224 41.5299 15.97C41.5299 12.6177 38.8123 9.90002 35.4599 9.90002C32.1075 9.90002 29.3899 12.6177 29.3899 15.97C29.3899 19.3224 32.1075 22.04 35.4599 22.04Z" fill="#FADDDC"/>
<path d="M34.67 16.67C35.5923 16.67 36.34 15.9223 36.34 15C36.34 14.0776 35.5923 13.33 34.67 13.33C33.7477 13.33 33 14.0776 33 15C33 15.9223 33.7477 16.67 34.67 16.67Z" fill="#F1F0EB"/>
<path d="M39.8699 16.67C40.7923 16.67 41.54 15.9223 41.54 15C41.54 14.0776 40.7923 13.33 39.8699 13.33C38.9476 13.33 38.2 14.0776 38.2 15C38.2 15.9223 38.9476 16.67 39.8699 16.67Z" fill="#F1F0EB"/>
<path d="M36.2799 19.0601H36.8899C37.4399 19.0601 37.8799 18.6201 37.8799 18.0701V15.0901C37.8799 14.8601 37.6999 14.6801 37.4699 14.6801C37.2399 14.6801 37.0599 14.8601 37.0599 15.0901V17.6801C37.0599 17.9901 36.8099 18.2401 36.4999 18.2401H36.2899C36.0599 18.2401 35.8799 18.4201 35.8799 18.6501C35.8799 18.8801 36.0599 19.0601 36.2899 19.0601H36.2799Z" fill="#E0B1BB"/>
<path d="M32.52 15.02C32.52 16.19 33.48 17.15 34.65 17.15C35.82 17.15 36.67 16.29 36.76 15.19H37.75C37.82 16.3 38.74 17.18 39.86 17.18C40.98 17.18 41.99 16.23 41.99 15.05C41.99 13.87 41.03 12.92 39.86 12.92C38.9 12.92 38.09 13.57 37.83 14.45H36.69C36.44 13.55 35.62 12.89 34.65 12.89C33.48 12.89 32.52 13.84 32.52 15.02ZM38.58 15.05C38.58 14.34 39.16 13.76 39.87 13.76C40.58 13.76 41.16 14.34 41.16 15.05C41.16 15.76 40.58 16.34 39.87 16.34C39.16 16.34 38.58 15.76 38.58 15.05ZM33.36 15.02C33.36 14.31 33.94 13.73 34.65 13.73C35.36 13.73 35.94 14.31 35.94 15.02C35.94 15.73 35.36 16.31 34.65 16.31C33.94 16.31 33.36 15.73 33.36 15.02Z" fill="#898989"/>
<path d="M27.0399 7.16002C27.5259 7.16002 27.9199 6.76604 27.9199 6.28002C27.9199 5.79401 27.5259 5.40002 27.0399 5.40002C26.5539 5.40002 26.1599 5.79401 26.1599 6.28002C26.1599 6.76604 26.5539 7.16002 27.0399 7.16002Z" fill="#D6952D"/>
<path d="M40.39 10.35C40.876 10.35 41.27 9.95598 41.27 9.46997C41.27 8.98396 40.876 8.58997 40.39 8.58997C39.904 8.58997 39.51 8.98396 39.51 9.46997C39.51 9.95598 39.904 10.35 40.39 10.35Z" fill="#D6952D"/>
<path d="M25.8301 22.72C26.2278 22.72 26.5501 22.3977 26.5501 22C26.5501 21.6024 26.2278 21.28 25.8301 21.28C25.4325 21.28 25.1101 21.6024 25.1101 22C25.1101 22.3977 25.4325 22.72 25.8301 22.72Z" fill="#D6952D"/>
<path d="M42.7 12.6299C43.0976 12.6299 43.42 12.3076 43.42 11.9099C43.42 11.5123 43.0976 11.1899 42.7 11.1899C42.3023 11.1899 41.98 11.5123 41.98 11.9099C41.98 12.3076 42.3023 12.6299 42.7 12.6299Z" fill="#D6952D"/>
<path d="M23.61 10.53C23.7978 10.53 23.95 10.3778 23.95 10.19C23.95 10.0022 23.7978 9.84998 23.61 9.84998C23.4222 9.84998 23.27 10.0022 23.27 10.19C23.27 10.3778 23.4222 10.53 23.61 10.53Z" fill="#D6952D"/>
<path d="M42.1601 20.33C42.3478 20.33 42.5001 20.1778 42.5001 19.99C42.5001 19.8022 42.3478 19.65 42.1601 19.65C41.9723 19.65 41.8201 19.8022 41.8201 19.99C41.8201 20.1778 41.9723 20.33 42.1601 20.33Z" fill="#D6952D"/>
<path d="M21.3001 16.51C21.4326 16.51 21.5401 16.4026 21.5401 16.27C21.5401 16.1375 21.4326 16.03 21.3001 16.03C21.1675 16.03 21.0601 16.1375 21.0601 16.27C21.0601 16.4026 21.1675 16.51 21.3001 16.51Z" fill="#D6952D"/>
<path d="M42.71 14.77C42.8425 14.77 42.95 14.6626 42.95 14.53C42.95 14.3975 42.8425 14.29 42.71 14.29C42.5774 14.29 42.47 14.3975 42.47 14.53C42.47 14.6626 42.5774 14.77 42.71 14.77Z" fill="#D6952D"/>
<path d="M21.44 13.08C21.6775 13.08 21.87 12.8875 21.87 12.65C21.87 12.4125 21.6775 12.22 21.44 12.22C21.2025 12.22 21.01 12.4125 21.01 12.65C21.01 12.8875 21.2025 13.08 21.44 13.08Z" fill="#D6952D"/>
</g>
<defs>
<clipPath id="clip0_134_1486">
<rect width="64.43" height="117.5" fill="white"/>
</clipPath>
</defs>
</svg>
