<svg width="110" height="110" viewBox="0 0 110 110" fill="none" xmlns="http://www.w3.org/2000/svg">
<g clip-path="url(#clip0_1203_3904)">
<path d="M58.5299 53.98H43.3399V102.7V102.72V102.75V104.2C43.3399 104.92 43.0599 105.6 42.5699 105.99C41.9899 106.45 41.4299 106.94 40.8699 107.44C40.2199 108.04 40.5599 109.34 41.3599 109.34H45.4699C46.2099 109.34 46.8599 108.7 47.0399 107.79L48.9099 98.26C50.1699 91.59 51.3599 84.85 52.4799 78.05C53.2599 73.28 54.0099 68.52 54.7099 63.77C54.8599 62.73 55.6199 61.97 56.5099 61.97H58.1099C58.9999 61.97 59.7499 62.73 59.9099 63.77C60.6099 68.52 61.3499 73.28 62.1399 78.05C63.5099 86.38 64.9899 94.62 66.5699 102.76C66.8299 104.12 66.3799 105.53 65.4499 106.3C64.9999 106.67 64.5599 107.06 64.1199 107.46C63.4699 108.06 63.7999 109.37 64.6099 109.37H68.0799C69.8599 109.37 71.2999 107.55 71.2999 105.3V53.99H58.5299V53.98Z" fill="#3E2967"/>
<path d="M24.99 47C23.4 47.61 22.59 49.39 23.2 50.99C23.7 52.3 24.99 53.07 26.32 52.97C26.61 52.95 26.9 52.88 27.18 52.78C27.87 52.52 28.54 52.23 29.19 51.94L26.04 46.58C25.69 46.73 25.34 46.87 24.98 47.01L24.99 47Z" fill="#FADDDC"/>
<path d="M47.34 22.64C45.67 22.31 43.88 24.18 43.55 25.85C43.52 26.03 40.78 40.25 26.05 46.58L29.2 51.94C46.37 44.12 49.6201 27.1 49.7801 26.26C50.1001 24.59 49.01 22.97 47.34 22.65V22.64Z" fill="#4D6059"/>
<path d="M70.95 57.55H43.68C42.53 57.55 41.61 56.58 41.68 55.42L43.42 27.4C43.42 22.84 47.12 19.13 51.69 19.13H63.26C67.75 19.13 71.38 22.77 71.38 27.25L72.94 55.42C73 56.57 72.09 57.53 70.94 57.53L70.95 57.55Z" fill="#4D6059"/>
<path d="M76.49 56.06C76.37 57.76 77.65 59.24 79.35 59.36C79.42 59.36 79.5 59.36 79.57 59.36C81.18 59.36 82.53 58.12 82.65 56.49C82.69 55.96 82.72 55.43 82.74 54.91H76.55C76.53 55.29 76.52 55.66 76.49 56.05V56.06Z" fill="#FADDDC"/>
<path d="M66.9499 20.05C65.4699 19.23 63.5999 19.76 62.7699 21.24C61.9399 22.72 62.4599 24.6 63.9399 25.44C64.5099 25.76 77.6099 33.51 76.5499 54.92H82.7399C83.8499 29.74 67.6499 20.44 66.9499 20.04V20.05Z" fill="#4D6059"/>
<path d="M55.7301 41.95L52.7301 44.46L52.0401 40.61H48.1301L50.0901 37.22L47.0901 34.7L50.7601 33.36L50.1001 29.51L53.7801 30.85L55.7401 27.46L57.7101 30.85L61.3901 29.51L60.7101 33.36L64.3801 34.7L61.3801 37.22L63.3401 40.61H59.4301L58.7401 44.46L55.7401 41.95H55.7301ZM55.7301 41.35C57.1401 41.35 58.3501 40.85 59.3501 39.85C60.3501 38.85 60.8501 37.64 60.8501 36.23C60.8501 34.82 60.3501 33.61 59.3501 32.61C58.3501 31.61 57.1401 31.11 55.7301 31.11C54.3201 31.11 53.1101 31.61 52.1101 32.61C51.1101 33.61 50.6101 34.82 50.6101 36.23C50.6101 37.64 51.1101 38.85 52.1201 39.85C53.1201 40.85 54.3301 41.35 55.7401 41.35H55.7301Z" fill="#A4B2D3"/>
<path d="M59.6501 5.57999H48.8601V13.1C48.8601 15.49 50.8001 17.43 53.1901 17.43H53.3801C53.9101 17.43 54.3401 17.86 54.3401 18.39V19.66C54.3401 21.12 55.5201 22.3 56.9801 22.3C58.4301 22.3 59.6101 21.12 59.6201 19.67L59.6601 5.57999H59.6501Z" fill="#FADDDC"/>
<path d="M52.3499 14.32H51.6999C51.1199 14.32 50.6399 13.85 50.6399 13.26V10.07C50.6399 9.82997 50.8399 9.62997 51.0799 9.62997C51.3199 9.62997 51.5199 9.82997 51.5199 10.07V12.83C51.5199 13.16 51.7899 13.43 52.1199 13.43H52.3499C52.5899 13.43 52.7899 13.63 52.7899 13.87C52.7899 14.11 52.5899 14.31 52.3499 14.31V14.32Z" fill="#E0B1BB"/>
<path d="M54.6099 10.2C54.6099 10.52 54.3499 10.79 54.0199 10.79C53.6899 10.79 53.4299 10.53 53.4299 10.2C53.4299 9.86998 53.6899 9.60999 54.0199 9.60999C54.3499 9.60999 54.6099 9.86998 54.6099 10.2Z" fill="#757570"/>
<path d="M57.4199 7.82997L57.4399 10.49C57.4399 10.71 57.6199 10.89 57.8399 10.89C58.0599 10.89 58.2399 10.71 58.2399 10.49V9.46997C58.2399 9.08997 58.5499 8.77997 58.9299 8.77997C59.3099 8.77997 59.6199 9.08997 59.6199 9.46997V12.83L60.6099 7.47997C60.6099 7.47997 60.9199 4.79997 58.9999 4.03997C57.0799 3.27997 57.3999 7.83997 57.3999 7.83997L57.4199 7.82997Z" fill="#3E2967"/>
<path d="M60.6801 6.97998C60.7401 4.07998 58.6501 1.49998 55.7001 1.02998L54.7601 0.879976C51.8101 0.409976 49.0301 2.20998 48.1701 4.97998L45.1201 4.48998C44.7301 4.42998 44.3701 4.68998 44.3101 5.07998C44.2501 5.46998 44.5101 5.82998 44.9001 5.88998L60.5201 8.38998L60.6801 6.97998Z" fill="#A4B2D3"/>
</g>
<defs>
<clipPath id="clip0_1203_3904">
<rect width="59.79" height="108.56" fill="white" transform="translate(23 0.799988)"/>
</clipPath>
</defs>
</svg>
