<svg width="110" height="110" viewBox="0 0 110 110" fill="none" xmlns="http://www.w3.org/2000/svg">
<g clip-path="url(#clip0_1203_4623)">
<g clip-path="url(#clip1_1203_4623)">
<path d="M73.5199 53.69C73.2999 55.47 74.5699 57.09 76.3499 57.31C77.8099 57.49 79.1699 56.67 79.7299 55.38C79.8499 55.1 79.9299 54.8 79.9699 54.48C80.0699 53.71 80.1299 52.95 80.1699 52.19L73.6399 52.49C73.6099 52.89 73.5699 53.28 73.5199 53.68V53.69Z" fill="#FADDDC"/>
<path d="M61.8499 20.96C60.7299 22.35 61.5799 24.93 62.9699 26.06C63.1199 26.18 74.9899 35.71 73.6399 52.5L80.1699 52.2C81.3299 32.4 67.1099 21.03 66.3999 20.46C64.9999 19.34 62.9699 19.56 61.8399 20.96H61.8499Z" fill="#4D6059"/>
<path d="M41.62 56.75H68.89C70.04 56.75 70.96 55.78 70.89 54.62L69.15 26.6C69.15 22.04 65.45 18.33 60.88 18.33H49.31C44.82 18.33 41.19 21.97 41.19 26.45L39.63 54.62C39.57 55.77 40.48 56.73 41.63 56.73L41.62 56.75Z" fill="#4D6059"/>
<path d="M36.65 48.24C36.65 49.66 35.52 50.82 34.1 50.83C34.04 50.83 33.98 50.83 33.91 50.83C32.57 50.74 31.51 49.63 31.5 48.28C31.5 47.83 31.5 47.4 31.51 46.96L36.66 47.29C36.66 47.61 36.65 47.92 36.65 48.24Z" fill="#FADDDC"/>
<path d="M46.5 18.82C47.78 18.21 49.3 18.76 49.91 20.03C50.52 21.3 49.99 22.84 48.71 23.46C48.22 23.7 36.92 29.44 36.65 47.29L31.51 46.96C31.93 25.98 45.89 19.11 46.5 18.82Z" fill="#4D6059"/>
<path d="M56.4501 43.67L57.1401 39.82H61.0501L59.0901 36.43L62.0901 33.91L58.4201 32.57L59.1001 28.72L55.4201 30.06L53.4501 26.67L51.4901 30.06L47.8101 28.72L48.4701 32.57L44.8001 33.91L47.8001 36.43L45.8401 39.82H49.7501L50.4401 43.67L53.4401 41.16L56.4401 43.67H56.4501ZM49.8301 39.05C48.8301 38.05 48.3201 36.84 48.3201 35.43C48.3201 34.02 48.8201 32.81 49.8201 31.81C50.8201 30.81 52.0301 30.31 53.4401 30.31C54.8501 30.31 56.0601 30.81 57.0601 31.81C58.0601 32.81 58.5601 34.02 58.5601 35.43C58.5601 36.84 58.0601 38.05 57.0601 39.05C56.0601 40.05 54.8501 40.55 53.4401 40.55C52.0301 40.55 50.8301 40.05 49.8201 39.05H49.8301Z" fill="#A4B2D3"/>
<path d="M57.32 4.78003H46.53V12.3C46.53 14.69 48.47 16.63 50.86 16.63H51.05C51.58 16.63 52.01 17.06 52.01 17.59V18.86C52.01 20.32 53.19 21.5 54.65 21.5C56.1 21.5 57.28 20.32 57.29 18.87L57.33 4.78003H57.32Z" fill="#FADDDC"/>
<path d="M50.0201 13.52H49.3701C48.7901 13.52 48.3101 13.05 48.3101 12.46V9.27002C48.3101 9.03002 48.5101 8.83002 48.7501 8.83002C48.9901 8.83002 49.1901 9.03002 49.1901 9.27002V12.03C49.1901 12.36 49.4601 12.63 49.7901 12.63H50.0201C50.2601 12.63 50.4601 12.83 50.4601 13.07C50.4601 13.31 50.2601 13.51 50.0201 13.51V13.52Z" fill="#E0B1BB"/>
<path d="M52.2801 9.4C52.2801 9.72 52.0201 9.99 51.6901 9.99C51.3601 9.99 51.1001 9.73 51.1001 9.4C51.1001 9.07 51.3601 8.81 51.6901 8.81C52.0201 8.81 52.2801 9.07 52.2801 9.4Z" fill="#757570"/>
<path d="M55.09 7.02998L55.11 9.68998C55.11 9.90998 55.29 10.09 55.51 10.09C55.73 10.09 55.91 9.90998 55.91 9.68998V8.66998C55.91 8.28998 56.22 7.97998 56.6 7.97998C56.98 7.97998 57.2901 8.28998 57.2901 8.66998V12.03L58.28 6.67998C58.28 6.67998 58.59 3.99998 56.67 3.23998C54.75 2.47998 55.07 7.03998 55.07 7.03998L55.09 7.02998Z" fill="#3E2967"/>
<path d="M58.35 6.17999C58.41 3.27999 56.32 0.699988 53.37 0.229988L52.43 0.0799883C49.48 -0.390012 46.7 1.40999 45.84 4.17999L42.79 3.68999C42.4 3.62999 42.04 3.88999 41.98 4.27999C41.92 4.66999 42.18 5.02999 42.57 5.08999L58.19 7.58999L58.35 6.17999Z" fill="#A4B2D3"/>
<path d="M41.44 56.67H68.4199L60.6025 104.876C60.5123 105.782 60.1315 106.847 61.0836 107.643C61.6148 108.091 62.1861 108.49 62.7172 108.948C63.3487 109.485 63.0179 110.66 62.2362 110.66L57.195 109.595C54.94 109.107 55.2406 107.454 55.6916 106.18C55.9823 105.344 56.1627 104.458 56.1928 103.562C56.3832 97.9565 55.6816 64.5749 55.6816 64.5749H54.1382C54.1382 64.5749 50.7807 96.7718 50.5402 97.6877C50.1894 98.9919 48.7662 98.8027 48.2752 97.837C47.8542 97.0007 47.4233 93.5959 47.3431 92.9288H45.9299L41.4199 56.66L41.44 56.67Z" fill="#3E2967"/>
</g>
</g>
<defs>
<clipPath id="clip0_1203_4623">
<rect width="110" height="110" fill="white"/>
</clipPath>
<clipPath id="clip1_1203_4623">
<rect width="48.74" height="110.9" fill="white" transform="translate(31.5)"/>
</clipPath>
</defs>
</svg>
