<svg width="110" height="110" viewBox="0 0 110 110" fill="none" xmlns="http://www.w3.org/2000/svg">
<g clip-path="url(#clip0_1203_4858)">
<path d="M57.1 15.9H52.49V20.41H57.1V15.9Z" fill="#FADDDC"/>
<path d="M59.9999 10.24H59.4399V7.69C59.4399 7.28 59.7699 6.94 60.1899 6.94H60.4899C60.8999 6.94 61.2399 7.27 61.2399 7.69L60.8899 9.36C60.8899 9.85 60.4999 10.24 60.0099 10.24H59.9999Z" fill="#FADDDC"/>
<path d="M48.8799 10.24H49.4399V7.69C49.4399 7.28 49.1099 6.94 48.6899 6.94H48.3899C47.9799 6.94 47.6399 7.27 47.6399 7.69L47.9899 9.36C47.9899 9.85 48.3799 10.24 48.8699 10.24H48.8799Z" fill="#FADDDC"/>
<path d="M55.8 1.38999C54.42 1.11999 52.3 0.819989 50.78 2.42999C49.26 4.03999 48.52 5.08999 48.52 6.53999C48.52 7.98999 48.62 9.21999 48.87 10.2C49.12 11.18 50.17 14.46 52.2 15.77C53.17 16.4 55.76 16.78 57.06 15.77C58.36 14.76 59.49 13.44 59.81 11.36C60.13 9.27999 59.91 9.27999 60.26 8.29999C60.61 7.31999 60.06 4.53999 59.94 3.99999C59.82 3.45999 58.42 1.88999 55.8 1.38999Z" fill="#3E2967"/>
<path d="M36.49 59.1C36.84 60.95 35.59 62.77 33.69 63.16C32.13 63.48 30.63 62.74 29.94 61.43C29.79 61.15 29.68 60.84 29.62 60.51C29.47 59.71 29.35 58.91 29.25 58.12L36.28 57.85C36.34 58.26 36.4 58.68 36.48 59.1H36.49Z" fill="#FADDDC"/>
<path d="M48.68 21.7C49.98 23.07 49.8701 25.24 48.4501 26.55C48.3001 26.69 33.7701 40.3 36.2901 57.85L29.2601 58.12C26.7601 37.39 43.0401 22.24 43.7601 21.58C45.1901 20.28 47.39 20.33 48.68 21.7Z" fill="#4D6059"/>
<path d="M67.9999 48.72C67.7299 50.27 68.7699 51.74 70.3199 52.01C70.3899 52.02 70.4599 52.03 70.5199 52.04C71.9899 52.19 73.3499 51.17 73.5999 49.69C73.6799 49.2 73.7599 48.73 73.8299 48.25L68.1599 47.68C68.1099 48.03 68.0599 48.37 67.9999 48.72Z" fill="#FADDDC"/>
<path d="M64.4801 20.04C63.2001 19.15 61.4401 19.47 60.5401 20.75C59.6401 22.03 59.9501 23.8 61.2301 24.71C61.7201 25.06 71.0801 28.17 68.1601 47.69L73.8301 48.26C77.1501 25.3 65.0901 20.47 64.4801 20.05V20.04Z" fill="#3A4F46"/>
<path d="M68.79 57.39H41.28L41.32 29.57C41.08 22.82 45.28 18.64 50.42 18.64H59.31C64.45 18.64 68.98 22.92 68.83 29.57L68.79 57.39Z" fill="#4D6059"/>
<path d="M67.4701 57.39H56.3501L42.8401 57.31C42.8401 57.31 50.3101 103.35 48.9401 102.76C48.2901 102.48 47.1301 101.67 46.5901 102.17C45.9501 102.77 47.2201 104.69 47.7901 105.62L51.5701 109.14C52.6701 110.03 54.2401 109.06 54.0101 107.65C53.8301 106.59 53.3701 105.46 53.1501 104.78C52.8501 103.84 54.1401 104.27 54.1401 104.19C54.1601 97.07 53.4701 69.53 53.3201 64.89C53.2801 63.83 53.4001 62.49 54.7201 62.49C56.0401 62.49 56.3501 63.66 56.3701 64.72C56.4501 70.37 56.7101 68.37 56.4601 82.81C56.4601 82.81 56.6101 87.09 56.8601 88.11C57.2201 89.56 58.6701 89.35 59.1701 88.28C59.6001 87.35 60.0401 83.55 60.1201 82.82H61.5601L67.4901 57.39H67.4701Z" fill="#3E2967"/>
<path d="M60.48 8.10001C58.16 10.02 51.49 10.02 48.47 8.10001V6.01001C48.47 2.69001 51.16 0.0100098 54.47 0.0100098C57.79 0.0100098 60.47 2.70001 60.47 6.01001V8.10001H60.48Z" fill="#A4B2D3"/>
<path d="M54.79 6.08002C55.78 6.08002 56.59 6.89002 56.59 7.88002V8.04002C56.59 8.28002 56.39 8.48002 56.15 8.48002H53.44C53.2 8.48002 53 8.28002 53 8.04002V7.88002C53 6.89002 53.81 6.08002 54.8 6.08002H54.79Z" fill="#3E2967"/>
</g>
<defs>
<clipPath id="clip0_1203_4858">
<rect width="45.41" height="109.49" fill="white" transform="translate(29)"/>
</clipPath>
</defs>
</svg>
