<svg width="110" height="110" viewBox="0 0 110 110" fill="none" xmlns="http://www.w3.org/2000/svg">
<g clip-path="url(#clip0_1203_4982)">
<path d="M51.0199 57L68.1799 56.52L47.1699 83.07L39.7899 105.89L37.0099 105.49L36.1099 107.3C35.1799 109.33 35.0599 110.19 33.5199 109.41L29.6899 107.88C28.9899 107.52 29.0999 106.49 29.9199 106.24C30.4599 106.07 31.2899 106.05 31.8499 106.02C33.9299 105.92 33.6499 104.44 33.9799 103.09C35.9799 95.05 36.8799 88.59 39.1499 80.47C40.4399 75.82 51.0399 57.01 51.0399 57.01L51.0199 57Z" fill="#291B4C"/>
<path d="M82.68 104.7L77.72 108.63C77 108.94 76.23 107.86 76.59 107.05C76.83 106.51 77.65 105.31 77.92 104.79C78.47 103.72 77.81 102.91 77.09 101.75C72.76 94.82 62.65 84.22 62.65 84.22L50.01 56.99H68.45L70.46 80.66L82.99 98.73" fill="#3F3072"/>
<path d="M82.9899 98.73L80.6599 100.63C80.9399 101.15 81.4299 101.98 81.8999 102.3C82.5899 102.77 83.4899 103.65 82.6799 104.71" fill="#3F3072"/>
<path d="M70.31 52.91C70.02 54.53 71.1 56.07 72.72 56.36C74.05 56.6 75.33 55.91 75.9 54.76C76.02 54.51 76.12 54.24 76.17 53.95C76.3 53.25 76.39 52.56 76.47 51.87L70.48 51.82C70.43 52.18 70.38 52.54 70.31 52.91Z" fill="#FADDDC"/>
<path d="M59.7501 20.79C58.6501 22.01 58.7501 23.89 59.9701 24.99C60.1001 25.11 72.5401 36.53 70.4701 51.83L76.4601 51.88C78.5001 33.83 64.5601 21.12 63.9401 20.56C62.7201 19.47 60.8401 19.57 59.7501 20.79Z" fill="#3A4F46"/>
<path d="M48.6001 57.34L67.3701 57.59C71.1001 57.59 70.9101 54.29 70.8201 53.33L67.0701 30.38C67.0701 26.22 67.8201 20.19 59.6001 18.37H55.2501C53.7501 18.37 52.3301 19.13 51.5501 20.41C45.8801 29.67 48.6001 57.33 48.6001 57.33V57.34Z" fill="#4D6059"/>
<path d="M59.3999 4.03998H49.0099V13.34C49.0099 15.16 50.4899 16.64 52.3099 16.64H53.3599C53.8699 16.64 54.2899 17.05 54.2899 17.57V18.48C54.2899 19.64 55.5299 20.37 56.5499 19.82L59.1999 18.38L59.4099 4.03998H59.3999Z" fill="#FADDDC"/>
<path d="M49.7001 13.77L49.1001 13.6C48.5601 13.45 48.2401 12.88 48.3901 12.34L49.2201 9.37999C49.2801 9.14999 49.5201 9.01999 49.7401 9.08999C49.9601 9.15999 50.1001 9.38999 50.0301 9.60999L49.3101 12.17C49.2201 12.48 49.4001 12.8 49.7101 12.88L49.9201 12.94C50.1501 13 50.2801 13.24 50.2101 13.46C50.1401 13.68 49.9101 13.82 49.6901 13.75L49.7001 13.77Z" fill="#E0B1BB"/>
<path d="M51.16 9.34998C51.16 9.65998 51.41 9.90998 51.72 9.90998C52.03 9.90998 52.28 9.65998 52.28 9.34998C52.28 9.03998 52.03 8.78998 51.72 8.78998C51.41 8.78998 51.16 9.03998 51.16 9.34998Z" fill="#757570"/>
<path d="M56.29 9.46C56.29 8.92981 56.7198 8.5 57.25 8.5C57.7802 8.5 58.21 8.92981 58.21 9.46V11.55C58.21 12.0802 57.7802 12.51 57.25 12.51C56.7198 12.51 56.29 12.0802 56.29 11.55V9.46Z" fill="#FADDDC"/>
<path d="M56.8999 8.02998L56.9199 10.69C56.9199 10.91 57.0999 11.09 57.3199 11.09C57.5399 11.09 57.7199 10.91 57.7199 10.69V9.66998C57.7199 9.28998 58.0299 8.97998 58.4099 8.97998C58.7899 8.97998 59.0999 9.28998 59.0999 9.66998V13.03L60.0899 7.67998C60.0899 7.67998 60.3999 4.99998 58.4799 4.23998C56.5599 3.47998 56.8799 8.03998 56.8799 8.03998L56.8999 8.02998Z" fill="#3E2967"/>
<path d="M60.1 8.00999L60.23 7.18999H60.17C60.23 4.27999 58.14 1.69999 55.19 1.22999L54.25 1.07999C51.3 0.609988 48.52 2.40999 47.66 5.17999L44.61 4.68999C44.22 4.62999 43.86 4.88999 43.8 5.27999C43.74 5.66999 44 6.02999 44.39 6.08999L60.01 8.58999L60.1 8.00999Z" fill="#A4B2D3"/>
<path d="M52.6199 40.11L53.3999 43.76L54.4299 40.27L56.0699 41.83L55.8999 37.74L57.6399 36.47L56.3499 33.7L57.3699 30.2L55.5699 30.04L55.3999 25.95L53.9199 28.48L52.6299 25.71L52.1799 29.74L50.3799 29.58L51.1599 33.24L49.6899 35.77L51.3299 37.33L50.8799 41.37L52.6199 40.11ZM52.7299 39.52C52.1399 38.96 51.7199 37.99 51.4899 36.61C51.2599 35.24 51.2799 33.86 51.5499 32.48C51.8199 31.1 52.2599 30.12 52.8699 29.54C53.4799 28.96 54.0799 28.96 54.6799 29.52C55.2799 30.08 55.6899 31.05 55.9099 32.43C56.1399 33.8 56.1199 35.18 55.8499 36.56C55.5799 37.94 55.1399 38.92 54.5199 39.5C53.9099 40.08 53.2999 40.08 52.7099 39.52H52.7299Z" fill="#A4B2D3"/>
<path opacity="0.5" d="M63.25 22.95C61.76 22.25 60 22.9 59.3 24.38C59.23 24.54 63 38.29 47.77 40.75L48.02 45.94C59.06 40.17 64.34 27.64 64.69 26.89C65.38 25.4 64.74 23.64 63.25 22.94V22.95Z" fill="#3A4F46"/>
<path d="M35.6699 41.81C34.0399 42 32.87 43.48 33.07 45.11C33.23 46.45 34.26 47.48 35.52 47.69C35.79 47.74 36.0799 47.75 36.3699 47.71C37.0799 47.63 37.77 47.52 38.45 47.39L36.7599 41.64C36.3999 41.7 36.0399 41.75 35.6699 41.79V41.81Z" fill="#FADDDC"/>
<path d="M63.3401 22.38C61.8501 21.68 60.0901 22.33 59.3901 23.81C59.3201 23.97 51.9901 39.19 36.7601 41.65L38.4501 47.4C56.3101 44.11 64.4301 27.08 64.7801 26.33C65.4701 24.84 64.8301 23.08 63.3401 22.38Z" fill="#4D6059"/>
</g>
<defs>
<clipPath id="clip0_1203_4982">
<rect width="53.78" height="108.69" fill="white" transform="matrix(-1 0 0 1 83 1)"/>
</clipPath>
</defs>
</svg>
