<svg width="110" height="110" viewBox="0 0 110 110" fill="none" xmlns="http://www.w3.org/2000/svg">
<g clip-path="url(#clip0_1203_4485)">
<g clip-path="url(#clip1_1203_4485)">
<path d="M55.99 55.19L43.49 55.55L44.23 104.68L46.37 105.38C46.38 105.93 46.37 106.84 46.14 107.34C45.8 108.08 45.49 109.24 46.59 109.62L52.2 110.04C52.9 109.9 53.03 108.65 52.38 108.22C51.95 107.93 50.78 107.43 50.34 107.17C49.44 106.63 49.47 105.64 49.65 104.37C50.92 95.18 55.98 55.21 55.98 55.21L55.99 55.19Z" fill="#291B4C"/>
<path d="M57.64 55.64L43.25 57.18L55.94 79.7L51.57 99.02L53.73 99.7V101.58C53.56 102.9 53.56 103.76 54.97 104.52L58.58 105.44C59.29 105.5 59.62 104.62 59.06 104.02C58.69 103.62 57.91 103.34 57.59 102.9C56.14 100.94 56.9 100.49 57.17 99.25C58.82 91.87 64.74 79.41 64.74 79.41L57.64 55.63V55.64Z" fill="#3E2C6D"/>
<path d="M71.3806 51.6019C72.7027 52.5851 72.9708 54.4411 71.9968 55.7673C71.188 56.8501 69.7881 57.2259 68.5809 56.7889C68.3176 56.6916 68.0708 56.5578 67.8314 56.3835C67.2557 55.958 66.7155 55.5267 66.1836 55.0772L70.5091 50.9327C70.7908 51.1591 71.0816 51.3896 71.3765 51.6111L71.3806 51.6019Z" fill="#FADDDC"/>
<path d="M57.0529 20.9709C58.6917 21.1095 59.906 22.5487 59.7716 24.1785C59.7602 24.349 58.5307 41.1924 70.5172 50.9144L66.1917 55.0589C52.3372 43.305 53.7776 24.4933 53.8535 23.6714C53.9921 22.0326 55.4272 20.8273 57.0661 20.9659L57.0529 20.9709Z" fill="#3A4F46"/>
<path d="M61.3101 57.34L42.5401 57.59C38.8101 57.59 39.0001 54.29 39.0901 53.33L42.8401 30.38C42.8401 26.22 42.0901 20.19 50.3101 18.37H54.6601C56.1601 18.37 57.5801 19.13 58.3601 20.41C64.0301 29.67 61.3101 57.33 61.3101 57.33V57.34Z" fill="#4D6059"/>
<path d="M40.331 52.8627C40.6522 54.4712 39.6134 56.0394 38.007 56.3704C36.6839 56.6394 35.3932 55.98 34.7863 54.8434C34.6602 54.5946 34.5613 54.3297 34.4971 54.0366C34.3552 53.3409 34.2446 52.6485 34.146 51.9637L40.135 51.7795C40.1924 52.1355 40.252 52.5012 40.331 52.8627Z" fill="#FADDDC"/>
<path d="M50.1532 20.506C51.2752 21.7039 51.2147 23.5802 50.0287 24.7097C49.9014 24.8297 37.7213 36.5332 40.1354 51.7795L34.1464 51.9637C31.7023 33.9601 45.3554 20.9414 45.9571 20.3696C47.155 19.2477 49.0313 19.3081 50.1532 20.506Z" fill="#4D6059"/>
<path d="M50.51 4.03998H60.9V13.34C60.9 15.16 59.42 16.64 57.6 16.64H56.55C56.04 16.64 55.62 17.05 55.62 17.57V18.48C55.62 19.64 54.38 20.37 53.36 19.82L50.71 18.38L50.5 4.03998H50.51Z" fill="#FADDDC"/>
<path d="M60.2201 13.77L60.8201 13.6C61.3601 13.45 61.6801 12.88 61.5301 12.34L60.7001 9.37999C60.6401 9.14999 60.4001 9.01999 60.1801 9.08999C59.9601 9.15999 59.8201 9.38999 59.8901 9.60999L60.6101 12.17C60.7001 12.48 60.5201 12.8 60.2101 12.88L60.0001 12.94C59.7701 13 59.6401 13.24 59.7101 13.46C59.7801 13.68 60.0101 13.82 60.2301 13.75L60.2201 13.77Z" fill="#E0B1BB"/>
<path d="M58.7599 9.34998C58.7599 9.65998 58.5099 9.90998 58.1999 9.90998C57.8899 9.90998 57.6399 9.65998 57.6399 9.34998C57.6399 9.03998 57.8899 8.78998 58.1999 8.78998C58.5099 8.78998 58.7599 9.03998 58.7599 9.34998Z" fill="#757570"/>
<path d="M53.63 9.46C53.63 8.92981 53.2002 8.5 52.67 8.5C52.1398 8.5 51.71 8.92981 51.71 9.46V11.55C51.71 12.0802 52.1398 12.51 52.67 12.51C53.2002 12.51 53.63 12.0802 53.63 11.55V9.46Z" fill="#FADDDC"/>
<path d="M53.01 8.02998L52.99 10.69C52.99 10.91 52.81 11.09 52.59 11.09C52.37 11.09 52.19 10.91 52.19 10.69V9.66998C52.19 9.28998 51.88 8.97998 51.5 8.97998C51.12 8.97998 50.81 9.28998 50.81 9.66998V13.03L49.82 7.67998C49.82 7.67998 49.51 4.99998 51.43 4.23998C53.35 3.47998 53.03 8.03998 53.03 8.03998L53.01 8.02998Z" fill="#3E2967"/>
<path d="M49.8199 8.00999L49.6899 7.18999H49.7499C49.6899 4.27999 51.7799 1.69999 54.7299 1.22999L55.6699 1.07999C58.6199 0.609988 61.3999 2.40999 62.2599 5.17999L65.3099 4.68999C65.6999 4.62999 66.0599 4.88999 66.1199 5.27999C66.1799 5.66999 65.9199 6.02999 65.5299 6.08999L49.9099 8.58999L49.8199 8.00999Z" fill="#A4B2D3"/>
<path d="M57.3 40.11L56.52 43.76L55.49 40.27L53.85 41.83L54.02 37.74L52.28 36.47L53.57 33.7L52.55 30.2L54.35 30.04L54.52 25.95L56 28.48L57.29 25.71L57.74 29.74L59.54 29.58L58.76 33.24L60.23 35.77L58.59 37.33L59.04 41.37L57.3 40.11ZM57.18 39.52C57.77 38.96 58.19 37.99 58.42 36.61C58.65 35.24 58.63 33.86 58.36 32.48C58.09 31.1 57.65 30.12 57.04 29.54C56.43 28.96 55.83 28.96 55.23 29.52C54.63 30.08 54.22 31.05 54 32.43C53.77 33.8 53.79 35.18 54.06 36.56C54.33 37.94 54.77 38.92 55.39 39.5C56 40.08 56.61 40.08 57.2 39.52H57.18Z" fill="#A4B2D3"/>
</g>
</g>
<defs>
<clipPath id="clip0_1203_4485">
<rect width="110" height="110" fill="white"/>
</clipPath>
<clipPath id="clip1_1203_4485">
<rect width="55.19" height="109.03" fill="white" transform="translate(28 1)"/>
</clipPath>
</defs>
</svg>
