<svg width="110" height="110" viewBox="0 0 110 110" fill="none" xmlns="http://www.w3.org/2000/svg">
<g clip-path="url(#clip0_1203_4733)">
<path d="M58.5399 53.99H43.3499V102.71V102.73V102.76V104.21C43.3499 104.93 43.0699 105.61 42.5799 106C41.9999 106.46 41.4399 106.95 40.8799 107.45C40.2299 108.05 40.5699 109.35 41.3699 109.35H45.4799C46.2199 109.35 46.8699 108.71 47.0499 107.8L48.9199 98.27C50.1799 91.6 51.3699 84.86 52.4899 78.06C53.2699 73.29 54.0199 68.53 54.7199 63.78C54.8699 62.74 55.6299 61.98 56.5199 61.98H58.1199C59.0099 61.98 59.7599 62.74 59.9199 63.78C60.6199 68.53 61.3599 73.29 62.1499 78.06C63.5199 86.39 64.9999 94.63 66.5799 102.77C66.8399 104.13 66.3899 105.54 65.4599 106.31C65.0099 106.68 64.5699 107.07 64.1299 107.47C63.4799 108.07 63.8099 109.38 64.6199 109.38H68.0899C69.8699 109.38 71.3099 107.56 71.3099 105.31V54H58.5399V53.99Z" fill="#3E2967"/>
<path d="M18.741 7.02177C17.82 5.58156 15.9015 5.16527 14.4747 6.09071C13.2895 6.85074 12.8062 8.27726 13.1771 9.55636C13.2576 9.82918 13.3827 10.102 13.5437 10.3569C13.946 10.9831 14.3529 11.5735 14.7866 12.1505L19.3758 7.95657C19.1567 7.65242 18.9421 7.33486 18.7365 7.01282L18.741 7.02177Z" fill="#FADDDC"/>
<path d="M49.4745 24.0041C49.448 22.2958 48.044 20.9404 46.3357 20.9669C46.1568 20.9669 28.617 21.0573 19.3802 7.96555L14.7865 12.1506C25.9951 27.3312 45.5831 27.1562 46.4462 27.1385C48.1501 27.1031 49.5055 25.6991 49.4745 24.0041Z" fill="#4D6059"/>
<path d="M70.95 57.56H43.68C42.53 57.56 41.61 56.59 41.68 55.43L43.42 27.41C43.42 22.85 47.12 19.14 51.69 19.14H63.26C67.75 19.14 71.38 22.78 71.38 27.26L72.94 55.43C73 56.58 72.09 57.54 70.94 57.54L70.95 57.56Z" fill="#4D6059"/>
<path d="M76.49 56.07C76.37 57.77 77.65 59.25 79.35 59.37C79.42 59.37 79.5 59.37 79.57 59.37C81.18 59.37 82.53 58.13 82.65 56.5C82.69 55.97 82.72 55.44 82.74 54.92H76.55C76.53 55.3 76.52 55.67 76.49 56.06V56.07Z" fill="#FADDDC"/>
<path d="M66.9499 20.0599C65.4699 19.2399 63.5999 19.7699 62.7699 21.2499C61.9399 22.7299 62.4599 24.6099 63.9399 25.4499C64.5099 25.7699 77.6099 33.5199 76.5499 54.9299H82.7399C83.8499 29.7499 67.6499 20.4499 66.9499 20.0499V20.0599Z" fill="#4D6059"/>
<path d="M55.7301 41.97L52.7301 44.4799L52.0401 40.63H48.1301L50.0901 37.24L47.0901 34.72L50.7601 33.38L50.1001 29.5299L53.7801 30.8699L55.7401 27.4799L57.7101 30.8699L61.3901 29.5299L60.7101 33.38L64.3801 34.72L61.3801 37.24L63.3401 40.63H59.4301L58.7401 44.4799L55.7401 41.97H55.7301ZM55.7301 41.3699C57.1401 41.3699 58.3501 40.8699 59.3501 39.8699C60.3501 38.8699 60.8501 37.66 60.8501 36.25C60.8501 34.84 60.3501 33.63 59.3501 32.63C58.3501 31.63 57.1401 31.13 55.7301 31.13C54.3201 31.13 53.1101 31.63 52.1101 32.63C51.1101 33.63 50.6101 34.84 50.6101 36.25C50.6101 37.66 51.1101 38.8699 52.1201 39.8699C53.1201 40.8699 54.3301 41.3699 55.7401 41.3699H55.7301Z" fill="#A4B2D3"/>
<path d="M59.6501 5.58997H48.8601V13.11C48.8601 15.5 50.8001 17.44 53.1901 17.44H53.3801C53.9101 17.44 54.3401 17.87 54.3401 18.4V19.67C54.3401 21.13 55.5201 22.31 56.9801 22.31C58.4301 22.31 59.6101 21.13 59.6201 19.68L59.6601 5.58997H59.6501Z" fill="#FADDDC"/>
<path d="M52.3499 14.33H51.6999C51.1199 14.33 50.6399 13.86 50.6399 13.27V10.08C50.6399 9.83995 50.8399 9.63995 51.0799 9.63995C51.3199 9.63995 51.5199 9.83995 51.5199 10.08V12.84C51.5199 13.17 51.7899 13.44 52.1199 13.44H52.3499C52.5899 13.44 52.7899 13.64 52.7899 13.88C52.7899 14.12 52.5899 14.32 52.3499 14.32V14.33Z" fill="#E0B1BB"/>
<path d="M54.6099 10.21C54.6099 10.53 54.3499 10.8 54.0199 10.8C53.6899 10.8 53.4299 10.54 53.4299 10.21C53.4299 9.87996 53.6899 9.61996 54.0199 9.61996C54.3499 9.61996 54.6099 9.87996 54.6099 10.21Z" fill="#757570"/>
<path d="M57.4199 7.83995L57.4399 10.5C57.4399 10.72 57.6199 10.9 57.8399 10.9C58.0599 10.9 58.2399 10.72 58.2399 10.5V9.47995C58.2399 9.09995 58.5499 8.78995 58.9299 8.78995C59.3099 8.78995 59.6199 9.09995 59.6199 9.47995V12.84L60.6099 7.48995C60.6099 7.48995 60.9199 4.80995 58.9999 4.04995C57.0799 3.28995 57.3999 7.84995 57.3999 7.84995L57.4199 7.83995Z" fill="#3E2967"/>
<path d="M60.6801 6.98996C60.7401 4.08996 58.6501 1.50996 55.7001 1.03996L54.7601 0.889955C51.8101 0.419955 49.0301 2.21996 48.1701 4.98996L45.1201 4.49996C44.7301 4.43996 44.3701 4.69996 44.3101 5.08996C44.2501 5.47996 44.5101 5.83996 44.9001 5.89996L60.5201 8.39996L60.6801 6.98996Z" fill="#A4B2D3"/>
</g>
<defs>
<clipPath id="clip0_1203_4733">
<rect width="110" height="110" fill="white"/>
</clipPath>
</defs>
</svg>
