<svg width="110" height="110" viewBox="0 0 110 110" fill="none" xmlns="http://www.w3.org/2000/svg">
<g clip-path="url(#clip0_1203_3906)">
<path d="M60.1101 56.67L43.6001 57.52L38.5401 81.24L26.0101 98.94L28.3401 100.8C28.0601 101.3 27.5701 102.12 27.1001 102.44C26.4101 102.9 25.5101 103.77 26.3201 104.8L31.2801 108.65C32.0001 108.96 32.7701 107.9 32.4101 107.1C32.1701 106.57 31.3501 105.39 31.0801 104.89C30.5301 103.84 31.1901 103.05 31.9101 101.91C36.2401 95.12 46.3501 84.73 46.3501 84.73L60.1001 56.67H60.1101Z" fill="#291B4C"/>
<path d="M59.2799 56.5L40.95 56.27L63.36 83.59L70.74 105.95L73.52 105.56L74.4199 107.33C75.3499 109.32 75.4699 110.17 77.0099 109.4L80.84 107.9C81.54 107.55 81.43 106.54 80.61 106.29C80.07 106.13 79.24 106.1 78.68 106.07C76.6 105.97 76.8799 104.52 76.5499 103.2C74.5499 95.32 73.65 88.99 71.38 81.04C70.09 76.48 59.2599 56.5 59.2599 56.5H59.2799Z" fill="#3F3072"/>
<path d="M80.9799 41.96C82.5899 42.31 83.5999 43.89 83.2599 45.5C82.9699 46.82 81.8499 47.74 80.5699 47.84C80.2899 47.86 80.0099 47.84 79.7199 47.78C79.0199 47.63 78.3499 47.46 77.6799 47.27L79.9099 41.71C80.2599 41.8 80.6199 41.89 80.9799 41.97V41.96Z" fill="#FADDDC"/>
<path d="M55.29 19.97C56.84 19.42 58.54 20.23 59.09 21.77C59.15 21.93 64.98 37.78 79.91 41.69L77.68 47.25C60.21 42.26 53.76 24.53 53.49 23.75C52.94 22.2 53.75 20.51 55.3 19.96L55.29 19.97Z" fill="#3A4F46"/>
<path d="M61.45 57.34L42.68 57.59C38.95 57.59 39.14 54.29 39.23 53.33L42.98 30.38C42.98 26.22 42.23 20.19 50.45 18.37H54.8C56.3 18.37 57.72 19.13 58.5 20.41C64.17 29.67 61.45 57.33 61.45 57.33V57.34Z" fill="#4D6059"/>
<path d="M34.0799 50.42C34.0499 52.06 32.6999 53.37 31.0599 53.35C29.7099 53.33 28.5899 52.41 28.2399 51.17C28.1699 50.9 28.1299 50.62 28.1299 50.32C28.1399 49.61 28.1799 48.91 28.2299 48.22L34.1199 49.32C34.0999 49.68 34.0799 50.05 34.0799 50.42Z" fill="#FADDDC"/>
<path d="M50.6 20.91C51.44 22.32 50.98 24.14 49.58 24.99C49.43 25.08 35.03 33.91 34.13 49.32L28.24 48.22C29.7 30.11 45.82 20.31 46.53 19.88C47.94 19.04 49.76 19.5 50.6 20.91Z" fill="#4D6059"/>
<path d="M50.6399 4.03998H61.0299V13.34C61.0299 15.16 59.5499 16.64 57.7299 16.64H56.6799C56.1699 16.64 55.7499 17.05 55.7499 17.57V18.48C55.7499 19.64 54.5099 20.37 53.4899 19.82L50.8399 18.38L50.6299 4.03998H50.6399Z" fill="#FADDDC"/>
<path d="M60.35 13.77L60.95 13.6C61.49 13.45 61.81 12.88 61.66 12.34L60.83 9.37999C60.77 9.14999 60.53 9.01999 60.31 9.08999C60.09 9.15999 59.95 9.38999 60.02 9.60999L60.74 12.17C60.83 12.48 60.65 12.8 60.34 12.88L60.13 12.94C59.9 13 59.77 13.24 59.84 13.46C59.91 13.68 60.14 13.82 60.36 13.75L60.35 13.77Z" fill="#E0B1BB"/>
<path d="M58.89 9.34998C58.89 9.65998 58.64 9.90998 58.33 9.90998C58.02 9.90998 57.77 9.65998 57.77 9.34998C57.77 9.03998 58.02 8.78998 58.33 8.78998C58.64 8.78998 58.89 9.03998 58.89 9.34998Z" fill="#757570"/>
<path d="M53.7601 9.46C53.7601 8.92981 53.3303 8.5 52.8001 8.5C52.2699 8.5 51.8401 8.92981 51.8401 9.46V11.55C51.8401 12.0802 52.2699 12.51 52.8001 12.51C53.3303 12.51 53.7601 12.0802 53.7601 11.55V9.46Z" fill="#FADDDC"/>
<path d="M53.1499 8.02998L53.1299 10.69C53.1299 10.91 52.9499 11.09 52.7299 11.09C52.5099 11.09 52.3299 10.91 52.3299 10.69V9.66998C52.3299 9.28998 52.0199 8.97998 51.6399 8.97998C51.2599 8.97998 50.9499 9.28998 50.9499 9.66998V13.03L49.9599 7.67998C49.9599 7.67998 49.6499 4.99998 51.5699 4.23998C53.4899 3.47998 53.1699 8.03998 53.1699 8.03998L53.1499 8.02998Z" fill="#3E2967"/>
<path d="M49.9501 8.00999L49.8201 7.18999H49.8801C49.8201 4.27999 51.9101 1.69999 54.8601 1.22999L55.8001 1.07999C58.7501 0.609988 61.5301 2.40999 62.3901 5.17999L65.4401 4.68999C65.8301 4.62999 66.1901 4.88999 66.2501 5.27999C66.3101 5.66999 66.0501 6.02999 65.6601 6.08999L50.0401 8.58999L49.9501 8.00999Z" fill="#A4B2D3"/>
<path d="M57.4299 40.11L56.6499 43.76L55.6199 40.27L53.9799 41.83L54.1499 37.74L52.4099 36.47L53.6999 33.7L52.6799 30.2L54.4799 30.04L54.6499 25.95L56.1299 28.48L57.4199 25.71L57.8699 29.74L59.6699 29.58L58.8899 33.24L60.3599 35.77L58.7199 37.33L59.1699 41.37L57.4299 40.11ZM57.3099 39.52C57.8999 38.96 58.3199 37.99 58.5499 36.61C58.7799 35.24 58.7599 33.86 58.4899 32.48C58.2199 31.1 57.7799 30.12 57.1699 29.54C56.5599 28.96 55.9599 28.96 55.3599 29.52C54.7599 30.08 54.3499 31.05 54.1299 32.43C53.8999 33.8 53.9199 35.18 54.1899 36.56C54.4599 37.94 54.8999 38.92 55.5199 39.5C56.1299 40.08 56.7399 40.08 57.3299 39.52H57.3099Z" fill="#A4B2D3"/>
</g>
<defs>
<clipPath id="clip0_1203_3906">
<rect width="57.32" height="108.68" fill="white" transform="translate(26 1)"/>
</clipPath>
</defs>
</svg>
