<svg width="110" height="110" viewBox="0 0 110 110" fill="none" xmlns="http://www.w3.org/2000/svg">
<g clip-path="url(#clip0_1203_4130)">
<path d="M52.2999 20.4H56.9099V15.89H52.2999V20.4Z" fill="#FADDDC"/>
<path d="M49.4099 10.24H49.9699V7.69C49.9699 7.28 49.6399 6.94 49.2199 6.94H48.9199C48.5099 6.94 48.1699 7.27 48.1699 7.69L48.5199 9.36C48.5199 9.85 48.9099 10.24 49.3999 10.24H49.4099Z" fill="#FADDDC"/>
<path d="M60.53 10.24H59.97V7.69C59.97 7.28 60.3 6.94 60.72 6.94H61.02C61.43 6.94 61.77 7.27 61.77 7.69L61.42 9.36C61.42 9.85 61.03 10.24 60.54 10.24H60.53Z" fill="#FADDDC"/>
<path d="M53.6101 1.38999C54.9901 1.11999 57.1101 0.819989 58.6301 2.42999C60.1501 4.03999 60.8901 5.08999 60.8901 6.53999C60.8901 7.98999 60.7901 9.21999 60.5401 10.2C60.2901 11.18 59.2401 14.46 57.2101 15.77C56.2401 16.4 53.6501 16.78 52.3501 15.77C51.0501 14.76 49.9201 13.44 49.6001 11.36C49.2801 9.27999 49.5001 9.27999 49.1501 8.29999C48.8001 7.31999 49.3501 4.53999 49.4701 3.99999C49.5901 3.45999 50.9901 1.88999 53.6101 1.38999Z" fill="#3E2967"/>
<path d="M72.91 59.1C72.56 60.95 73.81 62.77 75.71 63.16C77.27 63.48 78.77 62.74 79.46 61.43C79.61 61.15 79.72 60.84 79.78 60.51C79.93 59.71 80.05 58.91 80.15 58.12L73.12 57.85C73.06 58.26 73 58.68 72.92 59.1H72.91Z" fill="#FADDDC"/>
<path d="M60.73 21.7C59.43 23.07 59.54 25.24 60.96 26.55C61.11 26.69 75.64 40.3 73.12 57.85L80.15 58.12C82.66 37.39 66.38 22.24 65.66 21.58C64.23 20.28 62.03 20.33 60.74 21.7H60.73Z" fill="#4D6059"/>
<path d="M41.4101 48.72C41.6801 50.27 40.6401 51.74 39.0901 52.01C39.0201 52.02 38.9501 52.03 38.8901 52.04C37.4201 52.19 36.0601 51.17 35.8101 49.69C35.7301 49.2 35.6501 48.73 35.5801 48.25L41.2501 47.68C41.3001 48.03 41.3501 48.37 41.4101 48.72Z" fill="#FADDDC"/>
<path d="M44.9201 20.04C46.2001 19.15 47.9601 19.47 48.8601 20.75C49.7601 22.03 49.4501 23.8 48.1701 24.71C47.6801 25.06 38.3201 28.17 41.2401 47.69L35.5701 48.26C32.2501 25.3 44.3101 20.47 44.9201 20.05V20.04Z" fill="#3A4F46"/>
<path d="M40.61 57.39H68.12L68.08 29.57C68.32 22.82 64.12 18.64 58.98 18.64H50.09C44.95 18.64 40.42 22.92 40.57 29.57L40.61 57.39Z" fill="#4D6059"/>
<path d="M41.9299 57.39H53.0499L66.5599 57.31C66.5599 57.31 59.0899 103.35 60.4599 102.76C61.1099 102.48 62.2699 101.67 62.8099 102.17C63.4499 102.77 62.1799 104.69 61.6099 105.62L57.8299 109.14C56.7299 110.03 55.1599 109.06 55.3899 107.65C55.5699 106.59 56.0299 105.46 56.2499 104.78C56.5499 103.84 55.2599 104.27 55.2599 104.19C55.2399 97.07 55.9299 69.53 56.0799 64.89C56.1199 63.83 55.9999 62.49 54.6799 62.49C53.3599 62.49 53.0499 63.66 53.0299 64.72C52.9499 70.37 52.6899 68.37 52.9399 82.81C52.9399 82.81 52.7899 87.09 52.5399 88.11C52.1799 89.56 50.7299 89.35 50.2299 88.28C49.7999 87.35 49.3599 83.55 49.2799 82.82H47.8399L41.9099 57.39H41.9299Z" fill="#3E2967"/>
<path d="M48.9299 8.10001C51.2499 10.02 57.9199 10.02 60.9399 8.10001V6.01001C60.9399 2.69001 58.2499 0.0100098 54.9399 0.0100098C51.6199 0.0100098 48.9399 2.70001 48.9399 6.01001V8.10001H48.9299Z" fill="#A4B2D3"/>
<path d="M55.9799 8.47998H53.2699C53.0299 8.47998 52.8299 8.27998 52.8299 8.03998V7.87998C52.8299 6.88998 53.6399 6.07998 54.6299 6.07998C55.6199 6.07998 56.4299 6.88998 56.4299 7.87998V8.03998C56.4299 8.27998 56.2299 8.47998 55.9899 8.47998H55.9799Z" fill="#3E2967"/>
</g>
<defs>
<clipPath id="clip0_1203_4130">
<rect width="45.41" height="109.49" fill="white" transform="translate(35)"/>
</clipPath>
</defs>
</svg>
