
    <svg
        width="60"
        height="112"
        viewBox="0 0 60 112"
        fill="none"
        xmlns="http://www.w3.org/2000/svg"
    >
        <g clip-path="url(#clip0_9_111)">
            <path
                d="M56.91 40.96C58.52 41.31 59.53 42.89 59.19 44.5C58.9 45.82 57.78 46.74 56.5 46.84C56.22 46.86 55.94 46.84 55.65 46.78C54.95 46.63 54.28 46.46 53.61 46.27L55.84 40.71C56.19 40.8 56.55 40.89 56.91 40.97V40.96Z"
                fill="#FADDDC"
            />
            <path
                d="M31.22 18.97C32.77 18.42 34.47 19.23 35.02 20.77C35.08 20.93 40.91 36.78 55.84 40.69L53.61 46.25C36.14 41.26 29.69 23.53 29.42 22.75C28.87 21.2 29.68 19.51 31.23 18.96L31.22 18.97Z"
                fill="#3A4F46"
            />
            <path
                d="M31.02 55.3501H18.43L12.42 78.9401L0 98.1201L2.52 99.9901C2.25 100.53 1.77 101.42 1.29 101.77C0.58 102.29 -0.33 103.23 0.57 104.29L5.94 108.14C6.71 108.43 7.48 107.28 7.06 106.46C6.78 105.91 5.88 104.71 5.57 104.18C4.95 103.1 5.61 102.24 6.32 101.01C10.59 93.6701 20.78 82.3001 20.78 82.3001L31.02 55.3501Z"
                fill="#291B4C"
            />
            <path
                d="M34.73 55.3501H18.97L33.99 82.3501L39.42 106.59L42.37 106.46L43.13 108.41C43.9 110.59 43.94 111.5 45.63 110.85L49.8 109.67C50.57 109.38 50.55 108.3 49.73 107.96C49.18 107.73 48.31 107.62 47.73 107.53C45.56 107.21 46.01 105.72 45.79 104.3C44.5 95.8201 44.21 89.0901 42.66 80.5001C41.77 75.5801 34.73 55.3501 34.73 55.3501Z"
                fill="#3E2C6D"
            />
            <path
                d="M38.2 58.18H19.73C16 58.18 16.19 54.88 16.28 53.92L18.9 29.38C18.9 25.22 18.15 19.19 26.37 17.37H30.72C32.22 17.37 33.64 18.13 34.42 19.41C40.09 28.67 38.2 58.18 38.2 58.18Z"
                fill="#4D6059"
            />
            <path
                d="M10.0101 49.42C9.98006 51.06 8.63006 52.37 6.99006 52.35C5.64006 52.33 4.52006 51.41 4.17006 50.17C4.10006 49.9 4.06006 49.62 4.06006 49.32C4.07006 48.61 4.11006 47.91 4.16006 47.22L10.0501 48.32C10.0301 48.68 10.0101 49.05 10.0101 49.42Z"
                fill="#FADDDC"
            />
            <path
                d="M26.52 19.9101C27.36 21.3201 26.9 23.1401 25.5 23.9901C25.35 24.0801 10.95 32.9101 10.05 48.3201L4.16003 47.2201C5.62003 29.1101 21.74 19.3101 22.45 18.8801C23.86 18.0401 25.68 18.5001 26.52 19.9101Z"
                fill="#4D6059"
            />
            <path
                d="M26.5701 3.04004H36.9601V12.34C36.9601 14.16 35.4801 15.64 33.6601 15.64H32.6101C32.1001 15.64 31.6801 16.05 31.6801 16.57V17.48C31.6801 18.64 30.4401 19.37 29.4201 18.82L26.7701 17.38L26.5601 3.04004H26.5701Z"
                fill="#FADDDC"
            />
            <path
                d="M36.27 12.77L36.87 12.6C37.41 12.45 37.73 11.88 37.58 11.34L36.75 8.37999C36.69 8.14999 36.45 8.01999 36.23 8.08999C36.01 8.15999 35.87 8.38999 35.94 8.60999L36.66 11.17C36.75 11.48 36.57 11.8 36.26 11.88L36.05 11.94C35.82 12 35.69 12.24 35.76 12.46C35.83 12.68 36.06 12.82 36.28 12.75L36.27 12.77Z"
                fill="#E0B1BB"
            />
            <path
                d="M34.82 8.35004C34.82 8.66004 34.5699 8.91004 34.2599 8.91004C33.9499 8.91004 33.7 8.66004 33.7 8.35004C33.7 8.04004 33.9499 7.79004 34.2599 7.79004C34.5699 7.79004 34.82 8.04004 34.82 8.35004Z"
                fill="#757570"
            />
            <path
                d="M29.68 8.46C29.68 7.92981 29.2502 7.5 28.72 7.5C28.1898 7.5 27.76 7.92981 27.76 8.46V10.55C27.76 11.0802 28.1898 11.51 28.72 11.51C29.2502 11.51 29.68 11.0802 29.68 10.55V8.46Z"
                fill="#FADDDC"
            />
            <path
                d="M29.07 7.02998L29.05 9.68998C29.05 9.90998 28.87 10.09 28.65 10.09C28.43 10.09 28.25 9.90998 28.25 9.68998V8.66998C28.25 8.28998 27.94 7.97998 27.56 7.97998C27.18 7.97998 26.87 8.28998 26.87 8.66998V12.03L25.88 6.67998C25.88 6.67998 25.57 3.99998 27.49 3.23998C29.41 2.47998 29.09 7.03998 29.09 7.03998L29.07 7.02998Z"
                fill="#3E2967"
            />
            <path
                d="M25.88 7.00999L25.75 6.18999H25.81C25.75 3.27999 27.84 0.699988 30.79 0.229988L31.73 0.0799883C34.68 -0.390012 37.46 1.40999 38.32 4.17999L41.37 3.68999C41.76 3.62999 42.12 3.88999 42.18 4.27999C42.24 4.66999 41.98 5.02999 41.59 5.08999L25.97 7.58999L25.88 7.00999Z"
                fill="#A4B2D3"
            />
            <path
                d="M33.36 39.11L32.58 42.76L31.55 39.27L29.91 40.83L30.08 36.74L28.34 35.47L29.63 32.7L28.61 29.2L30.41 29.04L30.58 24.95L32.06 27.48L33.35 24.71L33.8 28.74L35.6 28.58L34.82 32.24L36.29 34.77L34.65 36.33L35.1 40.37L33.36 39.11ZM33.24 38.52C33.83 37.96 34.25 36.99 34.48 35.61C34.71 34.24 34.69 32.86 34.42 31.48C34.15 30.1 33.71 29.12 33.1 28.54C32.49 27.96 31.89 27.96 31.29 28.52C30.69 29.08 30.28 30.05 30.06 31.43C29.83 32.8 29.85 34.18 30.12 35.56C30.39 36.94 30.83 37.92 31.45 38.5C32.06 39.08 32.67 39.08 33.26 38.52H33.24Z"
                fill="#A4B2D3"
            />
        </g>
        <defs>
            <clipPath id="clip0_9_111">
                <rect width="59.25" height="111.06" fill="white" />
            </clipPath>
        </defs>
    </svg>

