<svg width="49" height="111" viewBox="0 0 49 111" fill="none" xmlns="http://www.w3.org/2000/svg">
<g clip-path="url(#clip0_109_1149)">
<path d="M6.71995 53.6899C6.93995 55.4699 5.66995 57.0899 3.88995 57.3099C2.42995 57.4899 1.06995 56.6699 0.509946 55.3799C0.389946 55.0999 0.309946 54.7999 0.269946 54.4799C0.169946 53.7099 0.109946 52.9499 0.0699463 52.1899L6.59995 52.4899C6.62995 52.8899 6.66995 53.2799 6.71995 53.6799V53.6899Z" fill="#FADDDC"/>
<path d="M18.3899 20.96C19.5099 22.35 18.6599 24.93 17.2699 26.06C17.1199 26.18 5.24994 35.71 6.59994 52.5L0.0699413 52.2C-1.09006 32.4 13.1299 21.03 13.8399 20.46C15.2399 19.34 17.2699 19.56 18.3999 20.96H18.3899Z" fill="#4D6059"/>
<path d="M38.6201 56.75H11.3501C10.2001 56.75 9.28006 55.78 9.35006 54.62L11.0901 26.6C11.0901 22.04 14.7901 18.33 19.3601 18.33H30.9301C35.4201 18.33 39.0501 21.97 39.0501 26.45L40.6101 54.62C40.6701 55.77 39.7601 56.73 38.6101 56.73L38.6201 56.75Z" fill="#4D6059"/>
<path d="M43.5899 48.24C43.5899 49.66 44.7199 50.82 46.1399 50.83C46.1999 50.83 46.2599 50.83 46.3299 50.83C47.6599 50.74 48.7199 49.64 48.7299 48.28C48.7299 47.83 48.7299 47.4 48.7199 46.96L43.5699 47.29C43.5699 47.61 43.5799 47.92 43.5799 48.24H43.5899Z" fill="#FADDDC"/>
<path d="M33.74 18.82C32.46 18.21 30.94 18.76 30.33 20.03C29.72 21.3 30.25 22.84 31.53 23.46C32.02 23.7 43.32 29.44 43.59 47.29L48.74 46.96C48.32 25.98 34.36 19.11 33.75 18.82H33.74Z" fill="#4D6059"/>
<path d="M23.39 41.15L20.39 43.66L19.7 39.81H15.79L17.75 36.42L14.75 33.9L18.42 32.56L17.76 28.71L21.44 30.05L23.4 26.66L25.37 30.05L29.05 28.71L28.37 32.56L32.04 33.9L29.04 36.42L31 39.81H27.09L26.4 43.66L23.4 41.15H23.39ZM23.39 40.55C24.8 40.55 26.01 40.05 27.01 39.05C28.01 38.05 28.51 36.84 28.51 35.43C28.51 34.02 28.01 32.81 27.01 31.81C26.01 30.81 24.8 30.31 23.39 30.31C21.98 30.31 20.77 30.81 19.77 31.81C18.77 32.81 18.27 34.02 18.27 35.43C18.27 36.84 18.77 38.05 19.78 39.05C20.78 40.05 21.99 40.55 23.4 40.55H23.39Z" fill="#A4B2D3"/>
<path d="M27.31 4.78003H16.52V12.3C16.52 14.69 18.46 16.63 20.85 16.63H21.04C21.57 16.63 22 17.06 22 17.59V18.86C22 20.32 23.18 21.5 24.64 21.5C26.09 21.5 27.27 20.32 27.28 18.87L27.32 4.78003H27.31Z" fill="#FADDDC"/>
<path d="M20.0201 13.52H19.3701C18.7901 13.52 18.3101 13.05 18.3101 12.46V9.26996C18.3101 9.02996 18.5101 8.82996 18.7501 8.82996C18.9901 8.82996 19.1901 9.02996 19.1901 9.26996V12.03C19.1901 12.36 19.4601 12.63 19.7901 12.63H20.0201C20.2601 12.63 20.4601 12.83 20.4601 13.07C20.4601 13.31 20.2601 13.51 20.0201 13.51V13.52Z" fill="#E0B1BB"/>
<path d="M22.28 9.40006C22.28 9.72006 22.02 9.99006 21.69 9.99006C21.36 9.99006 21.1 9.73006 21.1 9.40006C21.1 9.07006 21.36 8.81006 21.69 8.81006C22.02 8.81006 22.28 9.07006 22.28 9.40006Z" fill="#757570"/>
<path d="M25.09 7.02998L25.11 9.68998C25.11 9.90998 25.29 10.09 25.51 10.09C25.73 10.09 25.91 9.90998 25.91 9.68998V8.66998C25.91 8.28998 26.22 7.97998 26.6 7.97998C26.98 7.97998 27.2901 8.28998 27.2901 8.66998V12.03L28.28 6.67998C28.28 6.67998 28.59 3.99998 26.67 3.23998C24.75 2.47998 25.07 7.03998 25.07 7.03998L25.09 7.02998Z" fill="#3E2967"/>
<path d="M28.35 6.17999C28.41 3.27999 26.32 0.699988 23.37 0.229988L22.43 0.0799883C19.48 -0.390012 16.7 1.40999 15.84 4.17999L12.79 3.68999C12.4 3.62999 12.04 3.88999 11.98 4.27999C11.92 4.66999 12.18 5.02999 12.57 5.08999L28.19 7.58999L28.35 6.17999Z" fill="#A4B2D3"/>
<path d="M38.8 56.67H11.88L19.68 105.09C19.77 106 20.15 107.07 19.2 107.87C18.67 108.32 18.1 108.72 17.57 109.18C16.94 109.72 17.27 110.9 18.05 110.9L23.08 109.83C25.33 109.34 25.03 107.68 24.58 106.4C24.29 105.56 24.11 104.67 24.08 103.77C23.89 98.14 24.59 64.61 24.59 64.61H26.13C26.13 64.61 29.48 96.95 29.72 97.87C30.07 99.18 31.49 98.99 31.98 98.02C32.4 97.18 32.83 93.76 32.91 93.09H34.32L38.82 56.66L38.8 56.67Z" fill="#3E2967"/>
</g>
<defs>
<clipPath id="clip0_109_1149">
<rect width="48.74" height="110.9" fill="white"/>
</clipPath>
</defs>
</svg>
