<svg width="110" height="110" viewBox="0 0 110 110" fill="none" xmlns="http://www.w3.org/2000/svg">
<g clip-path="url(#clip0_1203_5002)">
<g clip-path="url(#clip1_1203_5002)">
<path d="M48.8745 57.34H62.9277L53.4117 77.37L58.1697 98.33L55.8108 99.07V101.11C55.9914 102.54 55.9914 103.47 54.4657 104.3L50.5408 105.3C49.7679 105.36 49.4065 104.41 50.0088 103.76C50.4103 103.33 51.2535 103.03 51.6149 102.55C53.1908 100.43 52.3677 99.93 52.0666 98.59C50.2698 90.58 43.8253 77.06 43.8253 77.06L48.8845 57.33L48.8745 57.34Z" fill="#291B4C"/>
<path d="M53.3515 55.4L66.9731 55.79L66.1701 104.49L63.8413 105.24C63.8312 105.83 63.8413 106.82 64.0922 107.36C64.4536 108.16 64.8049 109.42 63.6004 109.84L57.4872 110.29C56.7243 110.14 56.5838 108.78 57.2864 108.31C57.7482 108 59.023 107.45 59.5048 107.17C60.4886 106.58 60.4484 105.51 60.2577 104.13C58.8724 94.16 53.3615 55.39 53.3615 55.39L53.3515 55.4Z" fill="#3E2C6D"/>
<path d="M40.6427 52.4639C39.3697 53.5192 39.1978 55.3886 40.2426 56.6603C41.1091 57.6977 42.5308 57.9962 43.7173 57.493C43.9759 57.3812 44.2162 57.2339 44.4469 57.0466C45.0014 56.5897 45.52 56.1289 46.0294 55.6504L41.4808 51.7472C41.2105 51.9889 40.9312 52.2353 40.6474 52.4728L40.6427 52.4639Z" fill="#FADDDC"/>
<path d="M53.398 21.0653C51.7637 21.294 50.6223 22.7992 50.8419 24.4204C50.8622 24.5901 52.9713 41.3538 41.4717 51.7294L46.0202 55.6326C59.2851 43.1238 56.8621 24.4047 56.7433 23.5876C56.5191 21.9575 55.0188 20.8323 53.3845 21.061L53.398 21.0653Z" fill="#3A4F46"/>
<path d="M48.5633 57.34L67.4047 57.59C71.1489 57.59 70.9581 54.29 70.8678 53.33L67.1035 30.38C67.1035 26.22 67.8564 20.19 59.6051 18.37H55.2386C53.7328 18.37 52.3074 19.13 51.5245 20.41C45.8329 29.67 48.5633 57.33 48.5633 57.33V57.34Z" fill="#4D6059"/>
<path d="M66.9019 53.6595C66.427 55.2298 67.3148 56.8906 68.8882 57.3742C70.1845 57.7689 71.5374 57.2365 72.2526 56.1634C72.4024 55.9279 72.5267 55.6736 72.6188 55.388C72.8273 54.7091 73.004 54.0305 73.1681 53.3584L67.2015 52.6001C67.1101 52.949 67.0156 53.3073 66.9019 53.6595Z" fill="#FADDDC"/>
<path d="M60.1864 20.5087C58.9506 21.5934 58.8313 23.4669 59.9082 24.7051C60.0239 24.8367 71.0738 37.6557 67.2016 52.6002L73.1682 53.3584C77.3343 35.6721 64.9387 21.4027 64.3922 20.7758C63.3027 19.544 61.4221 19.424 60.1864 20.5087Z" fill="#4D6059"/>
<path d="M59.4043 4.03998H48.9747V13.34C48.9747 15.16 50.4604 16.64 52.2873 16.64H53.3413C53.8532 16.64 54.2748 17.05 54.2748 17.57V18.48C54.2748 19.64 55.5195 20.37 56.5434 19.82L59.2035 18.38L59.4143 4.03998H59.4043Z" fill="#FADDDC"/>
<path d="M49.6575 13.77L49.0552 13.6C48.5132 13.45 48.192 12.88 48.3425 12.34L49.1757 9.37999C49.2359 9.14999 49.4768 9.01999 49.6977 9.08999C49.9185 9.15999 50.059 9.38999 49.9888 9.60999L49.266 12.17C49.1757 12.48 49.3564 12.8 49.6676 12.88L49.8784 12.94C50.1092 13 50.2397 13.24 50.1695 13.46C50.0992 13.68 49.8683 13.82 49.6475 13.75L49.6575 13.77Z" fill="#E0B1BB"/>
<path d="M51.1231 9.34998C51.1231 9.65998 51.374 9.90998 51.6852 9.90998C51.9964 9.90998 52.2473 9.65998 52.2473 9.34998C52.2473 9.03998 51.9964 8.78998 51.6852 8.78998C51.374 8.78998 51.1231 9.03998 51.1231 9.34998Z" fill="#757570"/>
<path d="M56.2724 9.46C56.2724 8.92981 56.7038 8.5 57.2361 8.5C57.7683 8.5 58.1997 8.92981 58.1997 9.46V11.55C58.1997 12.0802 57.7683 12.51 57.2361 12.51C56.7038 12.51 56.2724 12.0802 56.2724 11.55V9.46Z" fill="#FADDDC"/>
<path d="M56.8948 8.02998L56.9149 10.69C56.9149 10.91 57.0956 11.09 57.3164 11.09C57.5372 11.09 57.7179 10.91 57.7179 10.69V9.66998C57.7179 9.28998 58.0291 8.97998 58.4105 8.97998C58.792 8.97998 59.1032 9.28998 59.1032 9.66998V13.03L60.0969 7.67998C60.0969 7.67998 60.4081 4.99998 58.4808 4.23998C56.5535 3.47998 56.8747 8.03998 56.8747 8.03998L56.8948 8.02998Z" fill="#3E2967"/>
<path d="M60.097 8.00999L60.2275 7.18999H60.1673C60.2275 4.27999 58.1296 1.69999 55.1684 1.22999L54.2248 1.07999C51.2636 0.609988 48.473 2.40999 47.6097 5.17999L44.5481 4.68999C44.1566 4.62999 43.7953 4.88999 43.735 5.27999C43.6748 5.66999 43.9358 6.02999 44.3273 6.08999L60.0067 8.58999L60.097 8.00999Z" fill="#A4B2D3"/>
<path d="M52.5886 40.11L53.3716 43.76L54.4055 40.27L56.0517 41.83L55.8811 37.74L57.6277 36.47L56.3328 33.7L57.3567 30.2L55.5498 30.04L55.3792 25.95L53.8935 28.48L52.5986 25.71L52.1469 29.74L50.3401 29.58L51.123 33.24L49.6474 35.77L51.2937 37.33L50.842 41.37L52.5886 40.11ZM52.709 39.52C52.1168 38.96 51.6952 37.99 51.4643 36.61C51.2334 35.24 51.2535 33.86 51.5246 32.48C51.7956 31.1 52.2373 30.12 52.8496 29.54C53.4619 28.96 54.0642 28.96 54.6665 29.52C55.2687 30.08 55.6803 31.05 55.9011 32.43C56.132 33.8 56.1119 35.18 55.8409 36.56C55.5699 37.94 55.1282 38.92 54.5059 39.5C53.8935 40.08 53.2812 40.08 52.689 39.52H52.709Z" fill="#A4B2D3"/>
</g>
</g>
<defs>
<clipPath id="clip0_1203_5002">
<rect width="110" height="110" fill="white" transform="matrix(-1 0 0 1 110 0)"/>
</clipPath>
<clipPath id="clip1_1203_5002">
<rect width="55.4" height="109.29" fill="white" transform="matrix(-1 0 0 1 82 1)"/>
</clipPath>
</defs>
</svg>
