<svg width="56" height="110" viewBox="0 0 56 110" fill="none" xmlns="http://www.w3.org/2000/svg">
<g clip-path="url(#clip0_109_1199)">
<path d="M33 56.34H19L28.48 76.37L23.74 97.33L26.09 98.07V100.11C25.91 101.54 25.91 102.47 27.43 103.3L31.34 104.3C32.11 104.36 32.47 103.41 31.87 102.76C31.47 102.33 30.63 102.03 30.27 101.55C28.7 99.43 29.52 98.93 29.82 97.59C31.61 89.5799 38.03 76.06 38.03 76.06L32.99 56.33L33 56.34Z" fill="#291B4C"/>
<path d="M28.54 54.4L14.97 54.79L15.77 103.49L18.09 104.24C18.1 104.83 18.09 105.82 17.84 106.36C17.48 107.16 17.13 108.42 18.33 108.84L24.42 109.29C25.18 109.14 25.32 107.78 24.62 107.31C24.16 107 22.89 106.45 22.41 106.17C21.43 105.58 21.47 104.51 21.66 103.13C23.04 93.16 28.53 54.39 28.53 54.39L28.54 54.4Z" fill="#3E2C6D"/>
<path d="M52.85 40.96C54.46 41.31 55.4701 42.89 55.1301 44.5C54.8401 45.82 53.72 46.74 52.44 46.84C52.16 46.86 51.88 46.84 51.59 46.78C50.89 46.63 50.22 46.46 49.55 46.27L51.78 40.71C52.13 40.8 52.49 40.89 52.85 40.97V40.96Z" fill="#FADDDC"/>
<path d="M27.16 18.97C28.71 18.42 30.41 19.23 30.96 20.77C31.02 20.93 36.85 36.78 51.78 40.69L49.55 46.25C32.08 41.26 25.63 23.53 25.36 22.75C24.81 21.2 25.62 19.51 27.17 18.96L27.16 18.97Z" fill="#3A4F46"/>
<path d="M33.31 56.34L14.54 56.59C10.81 56.59 11 53.29 11.09 52.33L14.84 29.38C14.84 25.22 14.0899 19.19 22.3099 17.37H26.66C28.16 17.37 29.58 18.13 30.36 19.41C36.03 28.67 33.31 56.33 33.31 56.33V56.34Z" fill="#4D6059"/>
<path d="M5.95 49.42C5.92 51.06 4.57 52.37 2.93 52.35C1.58 52.33 0.46 51.41 0.11 50.17C0.04 49.9 0 49.62 0 49.32C0.01 48.61 0.05 47.91 0.1 47.22L5.99 48.32C5.97 48.68 5.95 49.05 5.95 49.42Z" fill="#FADDDC"/>
<path d="M22.46 19.9101C23.3 21.3201 22.84 23.1401 21.44 23.9901C21.29 24.0801 6.88998 32.9101 5.98998 48.3201L0.0999756 47.2201C1.55998 29.1101 17.68 19.3101 18.39 18.8801C19.8 18.0401 21.62 18.5001 22.46 19.9101Z" fill="#4D6059"/>
<path d="M22.51 3.04004H32.9V12.34C32.9 14.16 31.42 15.64 29.6 15.64H28.55C28.04 15.64 27.62 16.05 27.62 16.57V17.48C27.62 18.64 26.38 19.37 25.36 18.82L22.71 17.38L22.5 3.04004H22.51Z" fill="#FADDDC"/>
<path d="M32.22 12.77L32.82 12.6C33.36 12.45 33.68 11.88 33.53 11.34L32.7 8.37999C32.64 8.14999 32.4 8.01999 32.18 8.08999C31.96 8.15999 31.82 8.38999 31.89 8.60999L32.61 11.17C32.7 11.48 32.52 11.8 32.21 11.88L32 11.94C31.77 12 31.64 12.24 31.71 12.46C31.78 12.68 32.01 12.82 32.23 12.75L32.22 12.77Z" fill="#E0B1BB"/>
<path d="M30.76 8.35004C30.76 8.66004 30.51 8.91004 30.2 8.91004C29.89 8.91004 29.64 8.66004 29.64 8.35004C29.64 8.04004 29.89 7.79004 30.2 7.79004C30.51 7.79004 30.76 8.04004 30.76 8.35004Z" fill="#757570"/>
<path d="M25.63 8.46C25.63 7.92981 25.2002 7.5 24.67 7.5C24.1398 7.5 23.71 7.92981 23.71 8.46V10.55C23.71 11.0802 24.1398 11.51 24.67 11.51C25.2002 11.51 25.63 11.0802 25.63 10.55V8.46Z" fill="#FADDDC"/>
<path d="M25.01 7.02998L24.99 9.68998C24.99 9.90998 24.81 10.09 24.59 10.09C24.37 10.09 24.19 9.90998 24.19 9.68998V8.66998C24.19 8.28998 23.88 7.97998 23.5 7.97998C23.12 7.97998 22.81 8.28998 22.81 8.66998V12.03L21.82 6.67998C21.82 6.67998 21.51 3.99998 23.43 3.23998C25.35 2.47998 25.03 7.03998 25.03 7.03998L25.01 7.02998Z" fill="#3E2967"/>
<path d="M21.8199 7.00999L21.6899 6.18999H21.7499C21.6899 3.27999 23.7799 0.699988 26.7299 0.229988L27.6699 0.0799883C30.6199 -0.390012 33.3999 1.40999 34.2599 4.17999L37.3099 3.68999C37.6999 3.62999 38.0599 3.88999 38.1199 4.27999C38.1799 4.66999 37.9199 5.02999 37.5299 5.08999L21.9099 7.58999L21.8199 7.00999Z" fill="#A4B2D3"/>
<path d="M29.3 39.11L28.52 42.76L27.49 39.27L25.85 40.83L26.02 36.74L24.28 35.47L25.57 32.7L24.55 29.2L26.35 29.04L26.52 24.95L28 27.48L29.29 24.71L29.74 28.74L31.54 28.58L30.76 32.24L32.23 34.77L30.59 36.33L31.04 40.37L29.3 39.11ZM29.18 38.52C29.77 37.96 30.19 36.99 30.42 35.61C30.65 34.24 30.63 32.86 30.36 31.48C30.09 30.1 29.65 29.12 29.04 28.54C28.43 27.96 27.83 27.96 27.23 28.52C26.63 29.08 26.22 30.05 26 31.43C25.77 32.8 25.79 34.18 26.06 35.56C26.33 36.94 26.77 37.92 27.39 38.5C28 39.08 28.61 39.08 29.2 38.52H29.18Z" fill="#A4B2D3"/>
</g>
<defs>
<clipPath id="clip0_109_1199">
<rect width="55.19" height="109.29" fill="white"/>
</clipPath>
</defs>
</svg>
