<svg width="110" height="110" viewBox="0 0 110 110" fill="none" xmlns="http://www.w3.org/2000/svg">
<g clip-path="url(#clip0_1203_5021)">
<g clip-path="url(#clip1_1203_5021)">
<path d="M54.01 55.19L66.51 55.55L65.77 104.68L63.63 105.38C63.62 105.93 63.63 106.84 63.86 107.34C64.2 108.08 64.51 109.24 63.41 109.62L57.8 110.04C57.1 109.9 56.97 108.65 57.62 108.22C58.05 107.93 59.22 107.43 59.66 107.17C60.56 106.63 60.53 105.64 60.35 104.37C59.08 95.18 54.02 55.21 54.02 55.21L54.01 55.19Z" fill="#291B4C"/>
<path d="M52.36 55.64L66.75 57.18L54.06 79.7L58.43 99.02L56.27 99.7V101.58C56.44 102.9 56.44 103.76 55.03 104.52L51.42 105.44C50.71 105.5 50.38 104.62 50.94 104.02C51.31 103.62 52.09 103.34 52.41 102.9C53.86 100.94 53.1 100.49 52.83 99.25C51.18 91.87 45.26 79.41 45.26 79.41L52.36 55.63V55.64Z" fill="#3E2C6D"/>
<path d="M38.6194 51.6019C37.2973 52.5851 37.0292 54.4411 38.0032 55.7673C38.812 56.8501 40.2119 57.2259 41.4191 56.7889C41.6824 56.6916 41.9292 56.5578 42.1686 56.3835C42.7443 55.958 43.2845 55.5267 43.8164 55.0772L39.4909 50.9327C39.2092 51.1591 38.9184 51.3896 38.6235 51.6111L38.6194 51.6019Z" fill="#FADDDC"/>
<path d="M52.9471 20.9709C51.3083 21.1095 50.094 22.5487 50.2284 24.1785C50.2398 24.349 51.4693 41.1924 39.4828 50.9144L43.8083 55.0589C57.6628 43.305 56.2224 24.4933 56.1465 23.6714C56.0079 22.0326 54.5728 20.8273 52.9339 20.9659L52.9471 20.9709Z" fill="#3A4F46"/>
<path d="M48.6899 57.34L67.4599 57.59C71.1899 57.59 70.9999 54.29 70.9099 53.33L67.1599 30.38C67.1599 26.22 67.9099 20.19 59.6899 18.37H55.3399C53.8399 18.37 52.4199 19.13 51.6399 20.41C45.9699 29.67 48.6899 57.33 48.6899 57.33V57.34Z" fill="#4D6059"/>
<path d="M69.669 52.8627C69.3478 54.4712 70.3866 56.0394 71.993 56.3704C73.3161 56.6394 74.6068 55.98 75.2137 54.8434C75.3398 54.5946 75.4387 54.3297 75.5029 54.0366C75.6448 53.3409 75.7554 52.6485 75.854 51.9637L69.865 51.7795C69.8076 52.1355 69.748 52.5012 69.669 52.8627Z" fill="#FADDDC"/>
<path d="M59.8468 20.506C58.7248 21.7039 58.7853 23.5802 59.9713 24.7097C60.0986 24.8297 72.2787 36.5332 69.8646 51.7795L75.8536 51.9637C78.2977 33.9601 64.6446 20.9414 64.0429 20.3696C62.845 19.2477 60.9687 19.3081 59.8468 20.506Z" fill="#4D6059"/>
<path d="M59.49 4.03998H49.1V13.34C49.1 15.16 50.58 16.64 52.4 16.64H53.45C53.96 16.64 54.38 17.05 54.38 17.57V18.48C54.38 19.64 55.62 20.37 56.64 19.82L59.29 18.38L59.5 4.03998H59.49Z" fill="#FADDDC"/>
<path d="M49.7799 13.77L49.1799 13.6C48.6399 13.45 48.3199 12.88 48.4699 12.34L49.2999 9.37999C49.3599 9.14999 49.5999 9.01999 49.8199 9.08999C50.0399 9.15999 50.1799 9.38999 50.1099 9.60999L49.3899 12.17C49.2999 12.48 49.4799 12.8 49.7899 12.88L49.9999 12.94C50.2299 13 50.3599 13.24 50.2899 13.46C50.2199 13.68 49.9899 13.82 49.7699 13.75L49.7799 13.77Z" fill="#E0B1BB"/>
<path d="M51.2401 9.34998C51.2401 9.65998 51.4901 9.90998 51.8001 9.90998C52.1101 9.90998 52.3601 9.65998 52.3601 9.34998C52.3601 9.03998 52.1101 8.78998 51.8001 8.78998C51.4901 8.78998 51.2401 9.03998 51.2401 9.34998Z" fill="#757570"/>
<path d="M56.37 9.46C56.37 8.92981 56.7998 8.5 57.33 8.5C57.8602 8.5 58.29 8.92981 58.29 9.46V11.55C58.29 12.0802 57.8602 12.51 57.33 12.51C56.7998 12.51 56.37 12.0802 56.37 11.55V9.46Z" fill="#FADDDC"/>
<path d="M56.99 8.02998L57.01 10.69C57.01 10.91 57.19 11.09 57.41 11.09C57.63 11.09 57.81 10.91 57.81 10.69V9.66998C57.81 9.28998 58.12 8.97998 58.5 8.97998C58.88 8.97998 59.19 9.28998 59.19 9.66998V13.03L60.18 7.67998C60.18 7.67998 60.49 4.99998 58.57 4.23998C56.65 3.47998 56.97 8.03998 56.97 8.03998L56.99 8.02998Z" fill="#3E2967"/>
<path d="M60.1801 8.00999L60.3101 7.18999H60.2501C60.3101 4.27999 58.2201 1.69999 55.2701 1.22999L54.3301 1.07999C51.3801 0.609988 48.6001 2.40999 47.7401 5.17999L44.6901 4.68999C44.3001 4.62999 43.9401 4.88999 43.8801 5.27999C43.8201 5.66999 44.0801 6.02999 44.4701 6.08999L60.0901 8.58999L60.1801 8.00999Z" fill="#A4B2D3"/>
<path d="M52.7 40.11L53.48 43.76L54.51 40.27L56.15 41.83L55.98 37.74L57.72 36.47L56.43 33.7L57.45 30.2L55.65 30.04L55.48 25.95L54 28.48L52.71 25.71L52.26 29.74L50.46 29.58L51.24 33.24L49.77 35.77L51.41 37.33L50.96 41.37L52.7 40.11ZM52.82 39.52C52.23 38.96 51.81 37.99 51.58 36.61C51.35 35.24 51.37 33.86 51.64 32.48C51.91 31.1 52.35 30.12 52.96 29.54C53.57 28.96 54.17 28.96 54.77 29.52C55.37 30.08 55.78 31.05 56 32.43C56.23 33.8 56.21 35.18 55.94 36.56C55.67 37.94 55.23 38.92 54.61 39.5C54 40.08 53.39 40.08 52.8 39.52H52.82Z" fill="#A4B2D3"/>
</g>
</g>
<defs>
<clipPath id="clip0_1203_5021">
<rect width="110" height="110" fill="white" transform="matrix(-1 0 0 1 110 0)"/>
</clipPath>
<clipPath id="clip1_1203_5021">
<rect width="55.19" height="109.03" fill="white" transform="matrix(-1 0 0 1 82 1)"/>
</clipPath>
</defs>
</svg>
