<svg width="110" height="110" viewBox="0 0 110 110" fill="none" xmlns="http://www.w3.org/2000/svg">
<g clip-path="url(#clip0_1203_4181)">
<g clip-path="url(#clip1_1203_4181)">
<path d="M36.7201 53.69C36.9401 55.47 35.6701 57.09 33.8901 57.31C32.4301 57.49 31.0701 56.67 30.5101 55.38C30.3901 55.1 30.3101 54.8 30.2701 54.48C30.1701 53.71 30.1101 52.95 30.0701 52.19L36.6001 52.49C36.6301 52.89 36.6701 53.28 36.7201 53.68V53.69Z" fill="#FADDDC"/>
<path d="M48.3899 20.96C49.5099 22.35 48.6599 24.93 47.2699 26.06C47.1199 26.18 35.2499 35.71 36.5999 52.5L30.0699 52.2C28.9099 32.4 43.1299 21.03 43.8399 20.46C45.2399 19.34 47.2699 19.56 48.3999 20.96H48.3899Z" fill="#4D6059"/>
<path d="M68.6199 56.75H41.3499C40.1999 56.75 39.2799 55.78 39.3499 54.62L41.0899 26.6C41.0899 22.04 44.7899 18.33 49.3599 18.33H60.9299C65.4199 18.33 69.0499 21.97 69.0499 26.45L70.6099 54.62C70.6699 55.77 69.7599 56.73 68.6099 56.73L68.6199 56.75Z" fill="#4D6059"/>
<path d="M73.5901 48.24C73.5901 49.66 74.7201 50.82 76.1401 50.83C76.2001 50.83 76.2601 50.83 76.3301 50.83C77.6601 50.74 78.7201 49.64 78.7301 48.28C78.7301 47.83 78.7301 47.4 78.7201 46.96L73.5701 47.29C73.5701 47.61 73.5801 47.92 73.5801 48.24H73.5901Z" fill="#FADDDC"/>
<path d="M63.74 18.82C62.46 18.21 60.94 18.76 60.33 20.03C59.72 21.3 60.25 22.84 61.53 23.46C62.02 23.7 73.32 29.44 73.59 47.29L78.74 46.96C78.32 25.98 64.36 19.11 63.75 18.82H63.74Z" fill="#4D6059"/>
<path d="M53.39 41.15L50.39 43.66L49.7 39.81H45.79L47.75 36.42L44.75 33.9L48.42 32.56L47.76 28.71L51.44 30.05L53.4 26.66L55.37 30.05L59.05 28.71L58.37 32.56L62.04 33.9L59.04 36.42L61 39.81H57.09L56.4 43.66L53.4 41.15H53.39ZM53.39 40.55C54.8 40.55 56.01 40.05 57.01 39.05C58.01 38.05 58.51 36.84 58.51 35.43C58.51 34.02 58.01 32.81 57.01 31.81C56.01 30.81 54.8 30.31 53.39 30.31C51.98 30.31 50.77 30.81 49.77 31.81C48.77 32.81 48.27 34.02 48.27 35.43C48.27 36.84 48.77 38.05 49.78 39.05C50.78 40.05 51.99 40.55 53.4 40.55H53.39Z" fill="#A4B2D3"/>
<path d="M57.31 4.78003H46.52V12.3C46.52 14.69 48.46 16.63 50.85 16.63H51.04C51.57 16.63 52 17.06 52 17.59V18.86C52 20.32 53.18 21.5 54.64 21.5C56.09 21.5 57.27 20.32 57.28 18.87L57.32 4.78003H57.31Z" fill="#FADDDC"/>
<path d="M50.0201 13.52H49.3701C48.7901 13.52 48.3101 13.05 48.3101 12.46V9.27002C48.3101 9.03002 48.5101 8.83002 48.7501 8.83002C48.9901 8.83002 49.1901 9.03002 49.1901 9.27002V12.03C49.1901 12.36 49.4601 12.63 49.7901 12.63H50.0201C50.2601 12.63 50.4601 12.83 50.4601 13.07C50.4601 13.31 50.2601 13.51 50.0201 13.51V13.52Z" fill="#E0B1BB"/>
<path d="M52.2801 9.4C52.2801 9.72 52.0201 9.99 51.6901 9.99C51.3601 9.99 51.1001 9.73 51.1001 9.4C51.1001 9.07 51.3601 8.81 51.6901 8.81C52.0201 8.81 52.2801 9.07 52.2801 9.4Z" fill="#757570"/>
<path d="M55.09 7.02998L55.11 9.68998C55.11 9.90998 55.29 10.09 55.51 10.09C55.73 10.09 55.91 9.90998 55.91 9.68998V8.66998C55.91 8.28998 56.22 7.97998 56.6 7.97998C56.98 7.97998 57.2901 8.28998 57.2901 8.66998V12.03L58.28 6.67998C58.28 6.67998 58.59 3.99998 56.67 3.23998C54.75 2.47998 55.07 7.03998 55.07 7.03998L55.09 7.02998Z" fill="#3E2967"/>
<path d="M58.35 6.17999C58.41 3.27999 56.32 0.699988 53.37 0.229988L52.43 0.0799883C49.48 -0.390012 46.7 1.40999 45.84 4.17999L42.79 3.68999C42.4 3.62999 42.04 3.88999 41.98 4.27999C41.92 4.66999 42.18 5.02999 42.57 5.08999L58.19 7.58999L58.35 6.17999Z" fill="#A4B2D3"/>
<path d="M68.8598 56.67H41.8799L49.6973 104.876C49.7875 105.782 50.1683 106.847 49.2162 107.643C48.685 108.091 48.1137 108.49 47.5826 108.948C46.9512 109.485 47.2819 110.66 48.0636 110.66L53.1048 109.595C55.3598 109.107 55.0592 107.454 54.6082 106.18C54.3175 105.344 54.1371 104.458 54.1071 103.562C53.9166 97.9565 54.6182 64.5749 54.6182 64.5749H56.1616C56.1616 64.5749 59.5191 96.7718 59.7596 97.6877C60.1104 98.9919 61.5336 98.8027 62.0246 97.837C62.4456 97.0007 62.8765 93.5959 62.9567 92.9288H64.3699L68.8799 56.66L68.8598 56.67Z" fill="#3E2967"/>
</g>
</g>
<defs>
<clipPath id="clip0_1203_4181">
<rect width="110" height="110" fill="white"/>
</clipPath>
<clipPath id="clip1_1203_4181">
<rect width="48.74" height="110.9" fill="white" transform="translate(30)"/>
</clipPath>
</defs>
</svg>
