<svg width="110" height="110" viewBox="0 0 110 110" fill="none" xmlns="http://www.w3.org/2000/svg">
<g clip-path="url(#clip0_1203_4362)">
<g clip-path="url(#clip1_1203_4362)">
<path d="M61.1255 57.34H47.0723L56.5883 77.37L51.8303 98.33L54.1892 99.07V101.11C54.0086 102.54 54.0086 103.47 55.5343 104.3L59.4592 105.3C60.2321 105.36 60.5935 104.41 59.9912 103.76C59.5897 103.33 58.7465 103.03 58.3851 102.55C56.8092 100.43 57.6323 99.93 57.9334 98.59C59.7302 90.58 66.1747 77.06 66.1747 77.06L61.1155 57.33L61.1255 57.34Z" fill="#291B4C"/>
<path d="M56.6485 55.4L43.0269 55.79L43.8299 104.49L46.1587 105.24C46.1688 105.83 46.1587 106.82 45.9078 107.36C45.5464 108.16 45.1951 109.42 46.3996 109.84L52.5128 110.29C53.2757 110.14 53.4162 108.78 52.7136 108.31C52.2518 108 50.977 107.45 50.4952 107.17C49.5114 106.58 49.5516 105.51 49.7423 104.13C51.1276 94.16 56.6385 55.39 56.6385 55.39L56.6485 55.4Z" fill="#3E2C6D"/>
<path d="M69.3573 52.4639C70.6303 53.5192 70.8022 55.3886 69.7574 56.6603C68.8909 57.6977 67.4692 57.9962 66.2827 57.493C66.0241 57.3812 65.7838 57.2339 65.5531 57.0466C64.9986 56.5897 64.48 56.1289 63.9706 55.6504L68.5192 51.7472C68.7895 51.9889 69.0688 52.2353 69.3526 52.4728L69.3573 52.4639Z" fill="#FADDDC"/>
<path d="M56.602 21.0653C58.2363 21.294 59.3777 22.7992 59.1581 24.4204C59.1378 24.5901 57.0287 41.3538 68.5283 51.7294L63.9798 55.6326C50.7149 43.1238 53.1379 24.4047 53.2567 23.5876C53.4809 21.9575 54.9812 20.8323 56.6155 21.061L56.602 21.0653Z" fill="#3A4F46"/>
<path d="M61.4367 57.34L42.5953 57.59C38.8511 57.59 39.0419 54.29 39.1322 53.33L42.8965 30.38C42.8965 26.22 42.1436 20.19 50.3949 18.37H54.7614C56.2672 18.37 57.6926 19.13 58.4755 20.41C64.1671 29.67 61.4367 57.33 61.4367 57.33V57.34Z" fill="#4D6059"/>
<path d="M43.0981 53.6595C43.573 55.2298 42.6852 56.8906 41.1118 57.3742C39.8155 57.7689 38.4626 57.2365 37.7474 56.1634C37.5976 55.9279 37.4733 55.6736 37.3812 55.388C37.1727 54.7091 36.996 54.0305 36.8319 53.3584L42.7985 52.6001C42.8899 52.949 42.9844 53.3073 43.0981 53.6595Z" fill="#FADDDC"/>
<path d="M49.8136 20.5087C51.0494 21.5934 51.1687 23.4669 50.0918 24.7051C49.9761 24.8367 38.9262 37.6557 42.7984 52.6002L36.8318 53.3584C32.6657 35.6721 45.0613 21.4027 45.6078 20.7758C46.6973 19.544 48.5779 19.424 49.8136 20.5087Z" fill="#4D6059"/>
<path d="M50.5957 4.03998H61.0253V13.34C61.0253 15.16 59.5396 16.64 57.7127 16.64H56.6587C56.1468 16.64 55.7252 17.05 55.7252 17.57V18.48C55.7252 19.64 54.4805 20.37 53.4566 19.82L50.7965 18.38L50.5857 4.03998H50.5957Z" fill="#FADDDC"/>
<path d="M60.3425 13.77L60.9448 13.6C61.4868 13.45 61.808 12.88 61.6575 12.34L60.8243 9.37999C60.7641 9.14999 60.5232 9.01999 60.3023 9.08999C60.0815 9.15999 59.941 9.38999 60.0112 9.60999L60.734 12.17C60.8243 12.48 60.6436 12.8 60.3324 12.88L60.1216 12.94C59.8908 13 59.7603 13.24 59.8305 13.46C59.9008 13.68 60.1317 13.82 60.3525 13.75L60.3425 13.77Z" fill="#E0B1BB"/>
<path d="M58.8769 9.34998C58.8769 9.65998 58.626 9.90998 58.3148 9.90998C58.0036 9.90998 57.7527 9.65998 57.7527 9.34998C57.7527 9.03998 58.0036 8.78998 58.3148 8.78998C58.626 8.78998 58.8769 9.03998 58.8769 9.34998Z" fill="#757570"/>
<path d="M53.7276 9.46C53.7276 8.92981 53.2962 8.5 52.7639 8.5C52.2317 8.5 51.8003 8.92981 51.8003 9.46V11.55C51.8003 12.0802 52.2317 12.51 52.7639 12.51C53.2962 12.51 53.7276 12.0802 53.7276 11.55V9.46Z" fill="#FADDDC"/>
<path d="M53.1052 8.02998L53.0851 10.69C53.0851 10.91 52.9044 11.09 52.6836 11.09C52.4628 11.09 52.2821 10.91 52.2821 10.69V9.66998C52.2821 9.28998 51.9709 8.97998 51.5895 8.97998C51.208 8.97998 50.8968 9.28998 50.8968 9.66998V13.03L49.9031 7.67998C49.9031 7.67998 49.5919 4.99998 51.5192 4.23998C53.4465 3.47998 53.1253 8.03998 53.1253 8.03998L53.1052 8.02998Z" fill="#3E2967"/>
<path d="M49.903 8.00999L49.7725 7.18999H49.8327C49.7725 4.27999 51.8704 1.69999 54.8316 1.22999L55.7752 1.07999C58.7364 0.609988 61.527 2.40999 62.3903 5.17999L65.4519 4.68999C65.8434 4.62999 66.2047 4.88999 66.265 5.27999C66.3252 5.66999 66.0642 6.02999 65.6727 6.08999L49.9933 8.58999L49.903 8.00999Z" fill="#A4B2D3"/>
<path d="M57.4114 40.11L56.6284 43.76L55.5945 40.27L53.9483 41.83L54.1189 37.74L52.3723 36.47L53.6672 33.7L52.6433 30.2L54.4502 30.04L54.6208 25.95L56.1065 28.48L57.4014 25.71L57.8531 29.74L59.6599 29.58L58.877 33.24L60.3526 35.77L58.7063 37.33L59.158 41.37L57.4114 40.11ZM57.291 39.52C57.8832 38.96 58.3048 37.99 58.5357 36.61C58.7666 35.24 58.7465 33.86 58.4754 32.48C58.2044 31.1 57.7627 30.12 57.1504 29.54C56.5381 28.96 55.9358 28.96 55.3335 29.52C54.7313 30.08 54.3197 31.05 54.0989 32.43C53.868 33.8 53.8881 35.18 54.1591 36.56C54.4301 37.94 54.8718 38.92 55.4941 39.5C56.1065 40.08 56.7188 40.08 57.311 39.52H57.291Z" fill="#A4B2D3"/>
</g>
</g>
<defs>
<clipPath id="clip0_1203_4362">
<rect width="110" height="110" fill="white"/>
</clipPath>
<clipPath id="clip1_1203_4362">
<rect width="55.4" height="109.29" fill="white" transform="translate(28 1)"/>
</clipPath>
</defs>
</svg>
