<svg width="110" height="110" viewBox="0 0 110 110" fill="none" xmlns="http://www.w3.org/2000/svg">
<g clip-path="url(#clip0_1203_4429)">
<path d="M58.9801 57L41.8201 56.52L62.8301 83.07L70.2101 105.89L72.9901 105.49L73.8901 107.3C74.8201 109.33 74.9401 110.19 76.4801 109.41L80.3101 107.88C81.0101 107.52 80.9001 106.49 80.0801 106.24C79.5401 106.07 78.7101 106.05 78.1501 106.02C76.0701 105.92 76.3501 104.44 76.0201 103.09C74.0201 95.05 73.1201 88.59 70.8501 80.47C69.5601 75.82 58.9601 57.01 58.9601 57.01L58.9801 57Z" fill="#291B4C"/>
<path d="M27.32 104.7L32.28 108.63C33 108.94 33.77 107.86 33.41 107.05C33.17 106.51 32.35 105.31 32.08 104.79C31.53 103.72 32.19 102.91 32.91 101.75C37.24 94.82 47.35 84.22 47.35 84.22L59.99 56.99H41.55L39.54 80.66L27.01 98.73" fill="#3F3072"/>
<path d="M27.0101 98.73L29.3401 100.63C29.0601 101.15 28.5701 101.98 28.1001 102.3C27.4101 102.77 26.5101 103.65 27.3201 104.71" fill="#3F3072"/>
<path d="M39.69 52.91C39.98 54.53 38.9 56.07 37.28 56.36C35.95 56.6 34.67 55.91 34.1 54.76C33.98 54.51 33.88 54.24 33.83 53.95C33.7 53.25 33.61 52.56 33.53 51.87L39.52 51.82C39.57 52.18 39.62 52.54 39.69 52.91Z" fill="#FADDDC"/>
<path d="M50.2499 20.79C51.3499 22.01 51.2499 23.89 50.0299 24.99C49.8999 25.11 37.4599 36.53 39.5299 51.83L33.5399 51.88C31.4999 33.83 45.4399 21.12 46.0599 20.56C47.2799 19.47 49.1599 19.57 50.2499 20.79Z" fill="#3A4F46"/>
<path d="M61.3999 57.34L42.6299 57.59C38.8999 57.59 39.0899 54.29 39.1799 53.33L42.9299 30.38C42.9299 26.22 42.1799 20.19 50.3999 18.37H54.7499C56.2499 18.37 57.6699 19.13 58.4499 20.41C64.1199 29.67 61.3999 57.33 61.3999 57.33V57.34Z" fill="#4D6059"/>
<path d="M50.6001 4.03998H60.9901V13.34C60.9901 15.16 59.5101 16.64 57.6901 16.64H56.6401C56.1301 16.64 55.7101 17.05 55.7101 17.57V18.48C55.7101 19.64 54.4701 20.37 53.4501 19.82L50.8001 18.38L50.5901 4.03998H50.6001Z" fill="#FADDDC"/>
<path d="M60.2999 13.77L60.8999 13.6C61.4399 13.45 61.7599 12.88 61.6099 12.34L60.7799 9.37999C60.7199 9.14999 60.4799 9.01999 60.2599 9.08999C60.0399 9.15999 59.8999 9.38999 59.9699 9.60999L60.6899 12.17C60.7799 12.48 60.5999 12.8 60.2899 12.88L60.0799 12.94C59.8499 13 59.7199 13.24 59.7899 13.46C59.8599 13.68 60.0899 13.82 60.3099 13.75L60.2999 13.77Z" fill="#E0B1BB"/>
<path d="M58.84 9.34998C58.84 9.65998 58.59 9.90998 58.28 9.90998C57.97 9.90998 57.72 9.65998 57.72 9.34998C57.72 9.03998 57.97 8.78998 58.28 8.78998C58.59 8.78998 58.84 9.03998 58.84 9.34998Z" fill="#757570"/>
<path d="M53.71 9.46C53.71 8.92981 53.2802 8.5 52.75 8.5C52.2198 8.5 51.79 8.92981 51.79 9.46V11.55C51.79 12.0802 52.2198 12.51 52.75 12.51C53.2802 12.51 53.71 12.0802 53.71 11.55V9.46Z" fill="#FADDDC"/>
<path d="M53.1001 8.02998L53.0801 10.69C53.0801 10.91 52.9001 11.09 52.6801 11.09C52.4601 11.09 52.2801 10.91 52.2801 10.69V9.66998C52.2801 9.28998 51.9701 8.97998 51.5901 8.97998C51.2101 8.97998 50.9001 9.28998 50.9001 9.66998V13.03L49.9101 7.67998C49.9101 7.67998 49.6001 4.99998 51.5201 4.23998C53.4401 3.47998 53.1201 8.03998 53.1201 8.03998L53.1001 8.02998Z" fill="#3E2967"/>
<path d="M49.9 8.00999L49.77 7.18999H49.83C49.77 4.27999 51.86 1.69999 54.81 1.22999L55.75 1.07999C58.7 0.609988 61.48 2.40999 62.34 5.17999L65.39 4.68999C65.78 4.62999 66.14 4.88999 66.2 5.27999C66.26 5.66999 66 6.02999 65.61 6.08999L49.99 8.58999L49.9 8.00999Z" fill="#A4B2D3"/>
<path d="M57.3801 40.11L56.6001 43.76L55.5701 40.27L53.9301 41.83L54.1001 37.74L52.3601 36.47L53.6501 33.7L52.6301 30.2L54.4301 30.04L54.6001 25.95L56.0801 28.48L57.3701 25.71L57.8201 29.74L59.6201 29.58L58.8401 33.24L60.3101 35.77L58.6701 37.33L59.1201 41.37L57.3801 40.11ZM57.2701 39.52C57.8601 38.96 58.2801 37.99 58.5101 36.61C58.7401 35.24 58.7201 33.86 58.4501 32.48C58.1801 31.1 57.7401 30.12 57.1301 29.54C56.5201 28.96 55.9201 28.96 55.3201 29.52C54.7201 30.08 54.3101 31.05 54.0901 32.43C53.8601 33.8 53.8801 35.18 54.1501 36.56C54.4201 37.94 54.8601 38.92 55.4801 39.5C56.0901 40.08 56.7001 40.08 57.2901 39.52H57.2701Z" fill="#A4B2D3"/>
<path opacity="0.5" d="M46.75 22.95C48.24 22.25 50 22.9 50.7 24.38C50.77 24.54 47 38.29 62.23 40.75L61.98 45.94C50.94 40.17 45.66 27.64 45.31 26.89C44.62 25.4 45.26 23.64 46.75 22.94V22.95Z" fill="#3A4F46"/>
<path d="M74.3301 41.81C75.9601 42 77.13 43.48 76.93 45.11C76.77 46.45 75.74 47.48 74.48 47.69C74.21 47.74 73.9201 47.75 73.6301 47.71C72.9201 47.63 72.23 47.52 71.55 47.39L73.2401 41.64C73.6001 41.7 73.9601 41.75 74.3301 41.79V41.81Z" fill="#FADDDC"/>
<path d="M46.6599 22.38C48.1499 21.68 49.9099 22.33 50.6099 23.81C50.6799 23.97 58.0099 39.19 73.2399 41.65L71.5499 47.4C53.6899 44.11 45.5699 27.08 45.2199 26.33C44.5299 24.84 45.1699 23.08 46.6599 22.38Z" fill="#4D6059"/>
</g>
<defs>
<clipPath id="clip0_1203_4429">
<rect width="53.78" height="108.69" fill="white" transform="translate(27 1)"/>
</clipPath>
</defs>
</svg>
