
    <svg
        width="60"
        height="112"
        viewBox="0 0 60 112"
        fill="none"
        xmlns="http://www.w3.org/2000/svg"
    >
        <g clip-path="url(#clip0_9_112)">
            <path
                d="M2.33995 40.96C0.729945 41.31 -0.280055 42.89 0.0599451 44.5C0.349945 45.82 1.46995 46.74 2.74995 46.84C3.02995 46.86 3.30995 46.84 3.59995 46.78C4.29994 46.63 4.96994 46.46 5.63995 46.27L3.40995 40.71C3.05995 40.8 2.69994 40.89 2.33995 40.97V40.96Z"
                fill="#FADDDC"
            />
            <path
                d="M28.03 18.97C26.48 18.42 24.78 19.23 24.23 20.77C24.17 20.93 18.34 36.78 3.41003 40.69L5.64003 46.25C23.11 41.26 29.56 23.53 29.83 22.75C30.38 21.2 29.57 19.51 28.02 18.96L28.03 18.97Z"
                fill="#3A4F46"
            />
            <path
                d="M28.23 55.3501H40.82L46.83 78.9401L59.25 98.1201L56.73 99.9901C57 100.53 57.48 101.42 57.96 101.77C58.67 102.29 59.58 103.23 58.68 104.29L53.31 108.14C52.54 108.43 51.77 107.28 52.19 106.46C52.47 105.91 53.37 104.71 53.68 104.18C54.3 103.1 53.64 102.24 52.93 101.01C48.66 93.6701 38.47 82.3001 38.47 82.3001L28.23 55.3501Z"
                fill="#291B4C"
            />
            <path
                d="M24.52 55.3501H40.28L25.26 82.3501L19.83 106.59L16.88 106.46L16.12 108.41C15.35 110.59 15.31 111.5 13.62 110.85L9.45003 109.67C8.68003 109.38 8.70003 108.3 9.52003 107.96C10.07 107.73 10.94 107.62 11.52 107.53C13.69 107.21 13.24 105.72 13.46 104.3C14.75 95.8201 15.04 89.0901 16.59 80.5001C17.48 75.5801 24.52 55.3501 24.52 55.3501Z"
                fill="#3E2C6D"
            />
            <path
                d="M21.05 58.18H39.52C43.25 58.18 43.06 54.88 42.97 53.92L40.35 29.38C40.35 25.22 41.1 19.19 32.88 17.37H28.53C27.03 17.37 25.61 18.13 24.83 19.41C19.16 28.67 21.05 58.18 21.05 58.18Z"
                fill="#4D6059"
            />
            <path
                d="M49.24 49.42C49.27 51.06 50.6199 52.37 52.2599 52.35C53.6099 52.33 54.73 51.41 55.08 50.17C55.15 49.9 55.1899 49.62 55.1899 49.32C55.1799 48.61 55.14 47.91 55.09 47.22L49.2 48.32C49.22 48.68 49.24 49.05 49.24 49.42Z"
                fill="#FADDDC"
            />
            <path
                d="M32.73 19.9101C31.89 21.3201 32.35 23.1401 33.75 23.9901C33.9 24.0801 48.3001 32.9101 49.2001 48.3201L55.09 47.2201C53.6301 29.1101 37.51 19.3101 36.8 18.8801C35.39 18.0401 33.57 18.5001 32.73 19.9101Z"
                fill="#4D6059"
            />
            <path
                d="M32.68 3.04004H22.29V12.34C22.29 14.16 23.77 15.64 25.59 15.64H26.64C27.15 15.64 27.57 16.05 27.57 16.57V17.48C27.57 18.64 28.81 19.37 29.83 18.82L32.48 17.38L32.69 3.04004H32.68Z"
                fill="#FADDDC"
            />
            <path
                d="M22.98 12.77L22.38 12.6C21.84 12.45 21.52 11.88 21.67 11.34L22.5 8.37999C22.56 8.14999 22.8 8.01999 23.02 8.08999C23.24 8.15999 23.38 8.38999 23.31 8.60999L22.59 11.17C22.5 11.48 22.68 11.8 22.99 11.88L23.2 11.94C23.43 12 23.56 12.24 23.49 12.46C23.42 12.68 23.19 12.82 22.97 12.75L22.98 12.77Z"
                fill="#E0B1BB"
            />
            <path
                d="M24.4301 8.35004C24.4301 8.66004 24.6801 8.91004 24.9901 8.91004C25.3001 8.91004 25.5501 8.66004 25.5501 8.35004C25.5501 8.04004 25.3001 7.79004 24.9901 7.79004C24.6801 7.79004 24.4301 8.04004 24.4301 8.35004Z"
                fill="#757570"
            />
            <path
                d="M29.57 10.55C29.57 11.0802 29.9998 11.51 30.53 11.51C31.0602 11.51 31.49 11.0802 31.49 10.55V8.46001C31.49 7.92982 31.0602 7.50001 30.53 7.50001C29.9998 7.50001 29.57 7.92982 29.57 8.46001V10.55Z"
                fill="#FADDDC"
            />
            <path
                d="M30.18 7.02998L30.2 9.68998C30.2 9.90998 30.38 10.09 30.6 10.09C30.82 10.09 31 9.90998 31 9.68998V8.66998C31 8.28998 31.31 7.97998 31.69 7.97998C32.07 7.97998 32.38 8.28998 32.38 8.66998V12.03L33.37 6.67998C33.37 6.67998 33.68 3.99998 31.76 3.23998C29.84 2.47998 30.16 7.03998 30.16 7.03998L30.18 7.02998Z"
                fill="#3E2967"
            />
            <path
                d="M33.37 7.00999L33.5 6.18999H33.44C33.5 3.27999 31.41 0.699988 28.46 0.229988L27.52 0.0799883C24.57 -0.390012 21.79 1.40999 20.93 4.17999L17.88 3.68999C17.49 3.62999 17.13 3.88999 17.07 4.27999C17.01 4.66999 17.27 5.02999 17.66 5.08999L33.28 7.58999L33.37 7.00999Z"
                fill="#A4B2D3"
            />
            <path
                d="M24.15 40.37L24.6 36.33L22.96 34.77L24.43 32.24L23.65 28.58L25.45 28.74L25.9 24.71L27.19 27.48L28.67 24.95L28.84 29.04L30.64 29.2L29.62 32.7L30.91 35.47L29.17 36.74L29.34 40.83L27.7 39.27L26.67 42.76L25.89 39.11L24.15 40.37ZM27.81 38.5C28.42 37.92 28.86 36.95 29.14 35.56C29.42 34.17 29.43 32.8 29.2 31.43C28.97 30.06 28.56 29.09 27.97 28.52C27.38 27.95 26.77 27.96 26.16 28.54C25.55 29.12 25.11 30.1 24.84 31.48C24.57 32.86 24.55 34.24 24.78 35.61C25.01 36.98 25.42 37.95 26.02 38.52C26.62 39.09 27.21 39.07 27.83 38.5H27.81Z"
                fill="#A4B2D3"
            />
        </g>
        <defs>
            <clipPath id="clip0_9_112">
                <rect width="59.25" height="111.06" fill="white" />
            </clipPath>
        </defs>
    </svg>

