<svg width="49" height="111" viewBox="0 0 49 111" fill="none" xmlns="http://www.w3.org/2000/svg">
<g clip-path="url(#clip0_109_1163)">
<path d="M42.02 53.6899C41.8 55.4699 43.07 57.0899 44.85 57.3099C46.31 57.4899 47.67 56.6699 48.23 55.3799C48.35 55.0999 48.43 54.7999 48.47 54.4799C48.57 53.7099 48.63 52.9499 48.67 52.1899L42.14 52.4899C42.11 52.8899 42.07 53.2799 42.02 53.6799V53.6899Z" fill="#FADDDC"/>
<path d="M30.35 20.96C29.23 22.35 30.08 24.93 31.47 26.06C31.62 26.18 43.49 35.71 42.14 52.5L48.67 52.2C49.83 32.4 35.61 21.03 34.9 20.46C33.5 19.34 31.47 19.56 30.34 20.96H30.35Z" fill="#4D6059"/>
<path d="M10.12 56.75H37.39C38.54 56.75 39.46 55.78 39.39 54.62L37.65 26.6C37.65 22.04 33.95 18.33 29.38 18.33H17.81C13.32 18.33 9.69 21.97 9.69 26.45L8.13 54.62C8.07 55.77 8.98 56.73 10.13 56.73L10.12 56.75Z" fill="#4D6059"/>
<path d="M5.15 48.24C5.15 49.66 4.02 50.82 2.6 50.83C2.54 50.83 2.48 50.83 2.41 50.83C1.07 50.74 0.01 49.63 0 48.28C0 47.83 0 47.4 0.01 46.96L5.16 47.29C5.16 47.61 5.15 47.92 5.15 48.24Z" fill="#FADDDC"/>
<path d="M15 18.82C16.28 18.21 17.8 18.76 18.41 20.03C19.02 21.3 18.49 22.84 17.21 23.46C16.72 23.7 5.42001 29.44 5.15001 47.29L0.0100098 46.96C0.43001 25.98 14.39 19.11 15 18.82Z" fill="#4D6059"/>
<path d="M22.35 43.67L21.66 39.82H17.75L19.71 36.43L16.71 33.91L20.38 32.57L19.7 28.72L23.38 30.06L25.35 26.67L27.31 30.06L30.99 28.72L30.33 32.57L34 33.91L31 36.43L32.96 39.82H29.05L28.36 43.67L25.36 41.16L22.36 43.67H22.35ZM28.97 39.05C29.97 38.05 30.48 36.84 30.48 35.43C30.48 34.02 29.98 32.81 28.98 31.81C27.98 30.81 26.77 30.31 25.36 30.31C23.95 30.31 22.74 30.81 21.74 31.81C20.74 32.81 20.24 34.02 20.24 35.43C20.24 36.84 20.74 38.05 21.74 39.05C22.74 40.05 23.95 40.55 25.36 40.55C26.77 40.55 27.97 40.05 28.98 39.05H28.97Z" fill="#A4B2D3"/>
<path d="M25.82 4.78003H15.03V12.3C15.03 14.69 16.97 16.63 19.36 16.63H19.55C20.08 16.63 20.51 17.06 20.51 17.59V18.86C20.51 20.32 21.69 21.5 23.15 21.5C24.6 21.5 25.78 20.32 25.79 18.87L25.83 4.78003H25.82Z" fill="#FADDDC"/>
<path d="M18.5201 13.52H17.8701C17.2901 13.52 16.8101 13.05 16.8101 12.46V9.26996C16.8101 9.02996 17.0101 8.82996 17.2501 8.82996C17.4901 8.82996 17.6901 9.02996 17.6901 9.26996V12.03C17.6901 12.36 17.9601 12.63 18.2901 12.63H18.5201C18.7601 12.63 18.9601 12.83 18.9601 13.07C18.9601 13.31 18.7601 13.51 18.5201 13.51V13.52Z" fill="#E0B1BB"/>
<path d="M20.78 9.40006C20.78 9.72006 20.52 9.99006 20.19 9.99006C19.86 9.99006 19.6 9.73006 19.6 9.40006C19.6 9.07006 19.86 8.81006 20.19 8.81006C20.52 8.81006 20.78 9.07006 20.78 9.40006Z" fill="#757570"/>
<path d="M23.59 7.02998L23.61 9.68998C23.61 9.90998 23.79 10.09 24.01 10.09C24.23 10.09 24.41 9.90998 24.41 9.68998V8.66998C24.41 8.28998 24.72 7.97998 25.1 7.97998C25.48 7.97998 25.7901 8.28998 25.7901 8.66998V12.03L26.78 6.67998C26.78 6.67998 27.09 3.99998 25.17 3.23998C23.25 2.47998 23.57 7.03998 23.57 7.03998L23.59 7.02998Z" fill="#3E2967"/>
<path d="M26.85 6.17999C26.91 3.27999 24.82 0.699988 21.87 0.229988L20.93 0.0799883C17.98 -0.390012 15.2 1.40999 14.34 4.17999L11.29 3.68999C10.9 3.62999 10.54 3.88999 10.48 4.27999C10.42 4.66999 10.68 5.02999 11.07 5.08999L26.69 7.58999L26.85 6.17999Z" fill="#A4B2D3"/>
<path d="M9.94004 56.67H36.86L29.06 105.09C28.97 106 28.59 107.07 29.54 107.87C30.07 108.32 30.64 108.72 31.17 109.18C31.8 109.72 31.47 110.9 30.69 110.9L25.66 109.83C23.41 109.34 23.71 107.68 24.16 106.4C24.45 105.56 24.63 104.67 24.66 103.77C24.85 98.14 24.15 64.61 24.15 64.61H22.61C22.61 64.61 19.26 96.95 19.02 97.87C18.67 99.18 17.25 98.99 16.76 98.02C16.34 97.18 15.91 93.76 15.83 93.09H14.42L9.92004 56.66L9.94004 56.67Z" fill="#3E2967"/>
</g>
<defs>
<clipPath id="clip0_109_1163">
<rect width="48.74" height="110.9" fill="white"/>
</clipPath>
</defs>
</svg>
