<svg width="45" height="107" viewBox="0 0 45 107" fill="none" xmlns="http://www.w3.org/2000/svg">
<g clip-path="url(#clip0_109_1299)">
<path d="M19.5299 18.1801H24.1399V14.8301H19.5299V18.1801Z" fill="#FADDDC"/>
<path d="M16.6299 11.19H17.1899V8.64002C17.1899 8.23002 16.8599 7.89001 16.4399 7.89001H16.1399C15.7299 7.89001 15.3899 8.22002 15.3899 8.64002L15.7399 10.31C15.7399 10.8 16.1299 11.19 16.6199 11.19H16.6299Z" fill="#FADDDC"/>
<path d="M27.7499 11.19H27.1899V8.64002C27.1899 8.23002 27.5199 7.89001 27.9399 7.89001H28.2399C28.6499 7.89001 28.9899 8.22002 28.9899 8.64002L28.6399 10.31C28.6399 10.8 28.2499 11.19 27.7599 11.19H27.7499Z" fill="#FADDDC"/>
<path d="M20.8299 1.14005C22.2099 0.87005 24.3299 0.57005 25.8499 2.18005C27.3699 3.79005 28.1099 4.84005 28.1099 6.29005C28.1099 7.74005 28.0099 8.97005 27.7599 9.95005C27.5099 10.93 26.4599 14.2101 24.4299 15.5201C23.4599 16.1501 20.8699 16.5301 19.5699 15.5201C18.2699 14.5101 17.1399 13.1901 16.8199 11.1101C16.4999 9.03005 16.2399 8.70005 16.1299 7.67005C15.9799 6.33005 16.3499 4.55005 16.4799 4.01005C16.6099 3.47005 18.2099 1.64005 20.8299 1.14005Z" fill="#3E2967"/>
<path d="M37.81 53.33C37.49 54.98 38.56 56.58 40.2 56.9C41.55 57.17 42.87 56.49 43.48 55.33C43.61 55.08 43.71 54.8 43.77 54.51C43.91 53.8 44.02 53.09 44.12 52.39L38 52.23C37.94 52.6 37.88 52.97 37.81 53.34V53.33Z" fill="#FADDDC"/>
<path d="M27.62 20.33C26.48 21.56 26.55 23.48 27.77 24.62C27.9 24.74 40.4 36.64 38.01 52.23L44.13 52.39C46.54 33.99 32.54 20.74 31.92 20.17C30.69 19.03 28.77 19.1 27.63 20.33H27.62Z" fill="#4D6059"/>
<path d="M5.81006 49.85C5.92006 51.42 4.74006 52.78 3.18006 52.89C3.11006 52.89 3.04006 52.89 2.97006 52.89C1.49006 52.89 0.240059 51.75 0.140059 50.25C0.100059 49.76 0.0800586 49.27 0.0600586 48.79H5.76006C5.78006 49.14 5.79006 49.48 5.81006 49.84V49.85Z" fill="#FADDDC"/>
<path d="M12.4899 19.23C13.8599 18.47 15.5699 18.96 16.3399 20.32C17.1099 21.68 16.6199 23.41 15.2599 24.19C14.7399 24.49 4.77988 29.08 5.74988 48.79H0.0598827C-0.970117 25.62 11.8399 19.59 12.4899 19.23Z" fill="#4D6059"/>
<path d="M7.81005 52.34H35.32L35.3101 27.34C35.3101 22.2 31.14 18.03 26 18.03H17.11C11.97 18.03 7.80005 22.2 7.80005 27.34L7.82005 52.34H7.81005Z" fill="#4D6059"/>
<path d="M7.81006 52.34H20.3801H35.3201C35.3201 52.34 27.0701 99.4 28.4401 98.83C29.0901 98.56 29.5001 98.43 30.0401 98.92C30.6801 99.5 30.1901 101.2 29.6201 102.11L23.7901 106.75C21.4901 106.22 21.8001 104.42 22.2501 103.04C22.5501 102.13 22.7301 101.17 22.7701 100.2C22.9601 94.1 23.9101 66.86 24.0701 62.33C24.1101 61.29 23.2301 60.17 22.3601 60.17H20.7801C19.9101 60.17 19.1601 60.92 19.0101 61.94C18.3201 66.59 19.2301 70.09 19.4801 84.2C19.4801 84.2 19.3301 88.38 19.0801 89.38C18.7201 90.8 17.2701 90.59 16.7701 89.54C16.3401 88.63 15.9001 84.92 15.8201 84.2H14.3801L7.81006 52.35V52.34Z" fill="#3E2967"/>
<path d="M22.1001 0C25.4101 0 28.1001 2.69 28.1001 6V8.09H16.0901V6C16.1001 2.69 18.7901 0 22.1001 0Z" fill="#A4B2D3"/>
<path d="M22.08 5.93994H22.19C22.94 5.93994 23.55 6.54994 23.55 7.29994V7.37994H20.72V7.29994C20.72 6.54994 21.33 5.93994 22.08 5.93994Z" fill="#3E2967"/>
</g>
<defs>
<clipPath id="clip0_109_1299">
<rect width="44.4" height="106.75" fill="white"/>
</clipPath>
</defs>
</svg>
