<svg width="110" height="110" viewBox="0 0 110 110" fill="none" xmlns="http://www.w3.org/2000/svg">
<g clip-path="url(#clip0_1203_4980)">
<path d="M49.8899 56.67L66.3999 57.52L71.4599 81.24L83.9899 98.94L81.6599 100.8C81.9399 101.3 82.4299 102.12 82.8999 102.44C83.5899 102.9 84.4899 103.77 83.6799 104.8L78.7199 108.65C77.9999 108.96 77.2299 107.9 77.5899 107.1C77.8299 106.57 78.6499 105.39 78.9199 104.89C79.4699 103.84 78.8099 103.05 78.0899 101.91C73.7599 95.12 63.6499 84.73 63.6499 84.73L49.8999 56.67H49.8899Z" fill="#291B4C"/>
<path d="M50.7201 56.5L69.05 56.27L46.64 83.59L39.26 105.95L36.48 105.56L35.5801 107.33C34.6501 109.32 34.5301 110.17 32.9901 109.4L29.16 107.9C28.46 107.55 28.57 106.54 29.39 106.29C29.93 106.13 30.76 106.1 31.32 106.07C33.4 105.97 33.1201 104.52 33.4501 103.2C35.4501 95.32 36.35 88.99 38.62 81.04C39.91 76.48 50.7401 56.5 50.7401 56.5H50.7201Z" fill="#3F3072"/>
<path d="M29.0201 41.96C27.4101 42.31 26.4001 43.89 26.7401 45.5C27.0301 46.82 28.1501 47.74 29.4301 47.84C29.7101 47.86 29.9901 47.84 30.2801 47.78C30.9801 47.63 31.6501 47.46 32.3201 47.27L30.0901 41.71C29.7401 41.8 29.3801 41.89 29.0201 41.97V41.96Z" fill="#FADDDC"/>
<path d="M54.71 19.97C53.16 19.42 51.46 20.23 50.91 21.77C50.85 21.93 45.02 37.78 30.09 41.69L32.32 47.25C49.79 42.26 56.24 24.53 56.51 23.75C57.06 22.2 56.25 20.51 54.7 19.96L54.71 19.97Z" fill="#3A4F46"/>
<path d="M48.55 57.34L67.32 57.59C71.05 57.59 70.86 54.29 70.77 53.33L67.02 30.38C67.02 26.22 67.77 20.19 59.55 18.37H55.2C53.7 18.37 52.28 19.13 51.5 20.41C45.83 29.67 48.55 57.33 48.55 57.33V57.34Z" fill="#4D6059"/>
<path d="M75.9201 50.42C75.9501 52.06 77.3001 53.37 78.9401 53.35C80.2901 53.33 81.4101 52.41 81.7601 51.17C81.8301 50.9 81.8701 50.62 81.8701 50.32C81.8601 49.61 81.8201 48.91 81.7701 48.22L75.8801 49.32C75.9001 49.68 75.9201 50.05 75.9201 50.42Z" fill="#FADDDC"/>
<path d="M59.4 20.91C58.56 22.32 59.02 24.14 60.42 24.99C60.57 25.08 74.97 33.91 75.87 49.32L81.76 48.22C80.3 30.11 64.18 20.31 63.47 19.88C62.06 19.04 60.24 19.5 59.4 20.91Z" fill="#4D6059"/>
<path d="M59.3601 4.03998H48.9701V13.34C48.9701 15.16 50.4501 16.64 52.2701 16.64H53.3201C53.8301 16.64 54.2501 17.05 54.2501 17.57V18.48C54.2501 19.64 55.4901 20.37 56.5101 19.82L59.1601 18.38L59.3701 4.03998H59.3601Z" fill="#FADDDC"/>
<path d="M49.65 13.77L49.05 13.6C48.51 13.45 48.19 12.88 48.34 12.34L49.17 9.37999C49.23 9.14999 49.47 9.01999 49.69 9.08999C49.91 9.15999 50.05 9.38999 49.98 9.60999L49.26 12.17C49.17 12.48 49.35 12.8 49.66 12.88L49.87 12.94C50.1 13 50.23 13.24 50.16 13.46C50.09 13.68 49.86 13.82 49.64 13.75L49.65 13.77Z" fill="#E0B1BB"/>
<path d="M51.11 9.34998C51.11 9.65998 51.36 9.90998 51.67 9.90998C51.98 9.90998 52.23 9.65998 52.23 9.34998C52.23 9.03998 51.98 8.78998 51.67 8.78998C51.36 8.78998 51.11 9.03998 51.11 9.34998Z" fill="#757570"/>
<path d="M56.2399 9.46C56.2399 8.92981 56.6697 8.5 57.1999 8.5C57.7301 8.5 58.1599 8.92981 58.1599 9.46V11.55C58.1599 12.0802 57.7301 12.51 57.1999 12.51C56.6697 12.51 56.2399 12.0802 56.2399 11.55V9.46Z" fill="#FADDDC"/>
<path d="M56.8501 8.02998L56.8701 10.69C56.8701 10.91 57.0501 11.09 57.2701 11.09C57.4901 11.09 57.6701 10.91 57.6701 10.69V9.66998C57.6701 9.28998 57.9801 8.97998 58.3601 8.97998C58.7401 8.97998 59.0501 9.28998 59.0501 9.66998V13.03L60.0401 7.67998C60.0401 7.67998 60.3501 4.99998 58.4301 4.23998C56.5101 3.47998 56.8301 8.03998 56.8301 8.03998L56.8501 8.02998Z" fill="#3E2967"/>
<path d="M60.0499 8.00999L60.1799 7.18999H60.1199C60.1799 4.27999 58.0899 1.69999 55.1399 1.22999L54.1999 1.07999C51.2499 0.609988 48.4699 2.40999 47.6099 5.17999L44.5599 4.68999C44.1699 4.62999 43.8099 4.88999 43.7499 5.27999C43.6899 5.66999 43.9499 6.02999 44.3399 6.08999L59.9599 8.58999L60.0499 8.00999Z" fill="#A4B2D3"/>
<path d="M52.5701 40.11L53.3501 43.76L54.3801 40.27L56.0201 41.83L55.8501 37.74L57.5901 36.47L56.3001 33.7L57.3201 30.2L55.5201 30.04L55.3501 25.95L53.8701 28.48L52.5801 25.71L52.1301 29.74L50.3301 29.58L51.1101 33.24L49.6401 35.77L51.2801 37.33L50.8301 41.37L52.5701 40.11ZM52.6901 39.52C52.1001 38.96 51.6801 37.99 51.4501 36.61C51.2201 35.24 51.2401 33.86 51.5101 32.48C51.7801 31.1 52.2201 30.12 52.8301 29.54C53.4401 28.96 54.0401 28.96 54.6401 29.52C55.2401 30.08 55.6501 31.05 55.8701 32.43C56.1001 33.8 56.0801 35.18 55.8101 36.56C55.5401 37.94 55.1001 38.92 54.4801 39.5C53.8701 40.08 53.2601 40.08 52.6701 39.52H52.6901Z" fill="#A4B2D3"/>
</g>
<defs>
<clipPath id="clip0_1203_4980">
<rect width="57.32" height="108.68" fill="white" transform="matrix(-1 0 0 1 84 1)"/>
</clipPath>
</defs>
</svg>
