
    <svg
        width="58"
        height="117"
        viewBox="0 0 58 117"
        fill="none"
        xmlns="http://www.w3.org/2000/svg"
    >
        <g clip-path="url(#clip0_9_109)">
            <path
                d="M33.5401 60.99H18.3501V109.71V109.73V109.76V111.21C18.3501 111.93 18.0701 112.61 17.5801 113C17.0001 113.46 16.4401 113.95 15.8801 114.45C15.2301 115.05 15.5701 116.35 16.3701 116.35H20.4801C21.2201 116.35 21.8701 115.71 22.0501 114.8L23.9201 105.27C25.1801 98.6 26.3701 91.86 27.4901 85.06C28.2701 80.29 29.0201 75.53 29.7201 70.78C29.8701 69.74 30.6301 68.98 31.5201 68.98H33.1201C34.0101 68.98 34.7601 69.74 34.9201 70.78C35.6201 75.53 36.3601 80.29 37.1501 85.06C38.5201 93.39 40.0001 101.63 41.5801 109.77C41.8401 111.13 41.3901 112.54 40.4601 113.31C40.0101 113.68 39.5701 114.07 39.1301 114.47C38.4801 115.07 38.8101 116.38 39.6201 116.38H43.0901C44.8701 116.38 46.3101 114.56 46.3101 112.31V61H33.5401V60.99Z"
                fill="#3E2967"
            />
            <path
                d="M6.16005 2.75997C5.98005 1.05997 4.45005 -0.170028 2.76005 0.0199717C1.36005 0.169972 0.290049 1.22997 0.0500488 2.53997C4.88274e-05 2.81997 -0.00995117 3.11997 0.0200488 3.41997C0.100049 4.15997 0.200049 4.86997 0.330049 5.57997L6.31005 3.87997C6.25005 3.50997 6.20005 3.12997 6.16005 2.74997V2.75997Z"
                fill="#FADDDC"
            />
            <path
                d="M26.06 31.69C26.8 30.15 26.15 28.31 24.61 27.57C24.45 27.49 8.71996 19.73 6.30996 3.89001L0.329956 5.58001C3.56996 24.17 21.17 32.77 21.95 33.14C23.49 33.87 25.33 33.22 26.06 31.69Z"
                fill="#4D6059"
            />
            <path
                d="M45.95 64.56H18.68C17.53 64.56 16.61 63.59 16.68 62.43L18.42 34.41C18.42 29.85 22.12 26.14 26.69 26.14H38.26C42.75 26.14 46.38 29.78 46.38 34.26L47.94 62.43C48 63.58 47.09 64.54 45.94 64.54L45.95 64.56Z"
                fill="#4D6059"
            />
            <path
                d="M51.49 63.0699C51.37 64.7699 52.65 66.2499 54.35 66.3699C54.42 66.3699 54.5 66.3699 54.57 66.3699C56.18 66.3699 57.53 65.1299 57.65 63.4999C57.69 62.9699 57.72 62.4399 57.74 61.9199H51.55C51.53 62.2999 51.52 62.6699 51.49 63.0599V63.0699Z"
                fill="#FADDDC"
            />
            <path
                d="M41.95 27.06C40.47 26.24 38.6 26.77 37.77 28.25C36.94 29.73 37.46 31.61 38.94 32.45C39.51 32.77 52.61 40.52 51.55 61.93H57.74C58.85 36.75 42.65 27.45 41.95 27.05V27.06Z"
                fill="#4D6059"
            />
            <path
                d="M30.73 48.97L27.73 51.48L27.04 47.63H23.13L25.09 44.24L22.09 41.72L25.76 40.38L25.1 36.53L28.78 37.87L30.74 34.48L32.71 37.87L36.39 36.53L35.71 40.38L39.38 41.72L36.38 44.24L38.34 47.63H34.43L33.74 51.48L30.74 48.97H30.73ZM30.73 48.37C32.14 48.37 33.35 47.87 34.35 46.87C35.35 45.87 35.85 44.66 35.85 43.25C35.85 41.84 35.35 40.63 34.35 39.63C33.35 38.63 32.14 38.13 30.73 38.13C29.32 38.13 28.11 38.63 27.11 39.63C26.11 40.63 25.61 41.84 25.61 43.25C25.61 44.66 26.11 45.87 27.12 46.87C28.12 47.87 29.33 48.37 30.74 48.37H30.73Z"
                fill="#A4B2D3"
            />
            <path
                d="M34.65 12.59H23.86V20.11C23.86 22.5 25.8 24.44 28.19 24.44H28.38C28.91 24.44 29.34 24.87 29.34 25.4V26.67C29.34 28.13 30.52 29.31 31.98 29.31C33.43 29.31 34.61 28.13 34.62 26.68L34.66 12.59H34.65Z"
                fill="#FADDDC"
            />
            <path
                d="M27.35 21.33H26.7C26.12 21.33 25.64 20.86 25.64 20.27V17.08C25.64 16.84 25.84 16.64 26.08 16.64C26.32 16.64 26.52 16.84 26.52 17.08V19.84C26.52 20.17 26.79 20.44 27.12 20.44H27.35C27.59 20.44 27.79 20.64 27.79 20.88C27.79 21.12 27.59 21.32 27.35 21.32V21.33Z"
                fill="#E0B1BB"
            />
            <path
                d="M29.6101 17.21C29.6101 17.53 29.3501 17.8 29.0201 17.8C28.6901 17.8 28.4301 17.54 28.4301 17.21C28.4301 16.88 28.6901 16.62 29.0201 16.62C29.3501 16.62 29.6101 16.88 29.6101 17.21Z"
                fill="#757570"
            />
            <path
                d="M32.42 14.84L32.44 17.5C32.44 17.72 32.62 17.9 32.84 17.9C33.06 17.9 33.24 17.72 33.24 17.5V16.48C33.24 16.1 33.55 15.79 33.93 15.79C34.31 15.79 34.62 16.1 34.62 16.48V19.84L35.61 14.49C35.61 14.49 35.92 11.81 34 11.05C32.08 10.29 32.4 14.85 32.4 14.85L32.42 14.84Z"
                fill="#3E2967"
            />
            <path
                d="M35.68 13.99C35.74 11.09 33.65 8.51005 30.7 8.04005L29.76 7.89005C26.81 7.42005 24.03 9.22005 23.17 11.99L20.12 11.5C19.73 11.44 19.37 11.7 19.31 12.09C19.25 12.48 19.51 12.84 19.9 12.9L35.52 15.4L35.68 13.99Z"
                fill="#A4B2D3"
            />
        </g>
        <defs>
            <clipPath id="clip0_9_109">
                <rect width="57.79" height="116.37" fill="white" />
            </clipPath>
        </defs>
    </svg>
