<svg width="110" height="110" viewBox="0 0 110 110" fill="none" xmlns="http://www.w3.org/2000/svg">
<g clip-path="url(#clip0_1206_3756)">
<path d="M51.72 53.84L67.29 54.21L64.49 102.93L62.17 103.68C62.16 104.27 62.17 105.26 62.42 105.8C62.78 106.6 63.13 107.86 61.93 108.28L55.84 108.73C55.08 108.58 54.94 107.22 55.64 106.75C56.1 106.44 57.37 105.89 57.85 105.61C58.83 105.02 58.79 103.95 58.6 102.57C57.22 92.6 51.73 53.83 51.73 53.83L51.72 53.84Z" fill="#291B4C"/>
<path d="M47.27 55.79L63.29 54.77L51.79 75.82L56.53 96.78L54.18 97.52V99.56C54.36 100.99 54.36 101.92 52.84 102.75L48.93 103.75C48.16 103.81 47.8 102.86 48.4 102.21C48.8 101.78 49.64 101.48 50 101C51.57 98.88 50.75 98.38 50.45 97.04C48.66 89.03 42.24 75.51 42.24 75.51L47.28 55.78L47.27 55.79Z" fill="#3F3072"/>
<path d="M49.3099 56.85C48.2599 58.12 48.4399 59.99 49.7099 61.04C50.7499 61.9 52.1999 61.93 53.2699 61.21C53.4999 61.05 53.7099 60.86 53.8999 60.64C54.3499 60.09 54.7799 59.54 55.1799 58.98L49.9899 55.99C49.7699 56.28 49.5499 56.57 49.3099 56.85Z" fill="#FADDDC"/>
<path d="M69.0799 52.13C69.2899 53.76 70.7899 54.91 72.4099 54.69C73.7499 54.52 74.7599 53.48 74.9599 52.21C74.9999 51.93 75.0099 51.65 74.9699 51.36C74.8799 50.65 74.7599 49.96 74.6299 49.29L68.8999 51.05C68.9599 51.41 69.0199 51.77 69.0699 52.14L69.0799 52.13Z" fill="#FADDDC"/>
<path d="M49.3199 24.69C48.6399 26.18 49.3099 27.95 50.7999 28.63C50.9599 28.7 66.2599 35.85 68.9099 51.05L74.6399 49.29C71.1399 31.47 54.0099 23.55 53.2599 23.21C51.7599 22.54 50.0099 23.21 49.3299 24.7L49.3199 24.69Z" fill="#FCAD1E"/>
<path d="M44.7399 58.12H65.1799C68.9099 58.12 68.7199 54.82 68.6299 53.86L65.8399 31.2C64.7099 27.44 67.9299 25.6 57.7299 21.71H53.3799C51.8799 21.71 50.4599 22.47 49.6799 23.75C44.0099 33.01 44.7399 58.12 44.7399 58.12Z" fill="#FCC31E"/>
<path d="M57.53 7.37H47.14V16.67C47.14 18.49 48.62 19.97 50.44 19.97H51.49C52 19.97 52.42 20.38 52.42 20.9V21.81C52.42 22.97 53.66 23.7 54.68 23.15L57.33 21.71L57.54 7.37H57.53Z" fill="#FADDDC"/>
<path d="M47.8299 17.1L47.2299 16.93C46.6899 16.78 46.3699 16.21 46.5199 15.67L47.3499 12.71C47.4099 12.48 47.6499 12.35 47.8699 12.42C48.0899 12.49 48.2299 12.72 48.1599 12.94L47.4399 15.5C47.3499 15.81 47.5299 16.13 47.8399 16.21L48.0499 16.27C48.2799 16.33 48.4099 16.57 48.3399 16.79C48.2699 17.01 48.0399 17.15 47.8199 17.08L47.8299 17.1Z" fill="#E0B1BB"/>
<path d="M55.2401 5.59H54.2801C53.6601 5.59 53.0701 5.24 52.8201 4.66C52.4601 3.8 51.6301 3.21 50.6601 3.21C50.4401 3.21 50.2401 3.24 50.0401 3.3C49.3601 2.37 48.2101 1.82 46.9401 2.05C45.7001 2.28 44.7001 3.28 44.4501 4.53C44.3401 5.1 44.3801 5.66 44.5301 6.16C44.7901 7.47 45.9201 8.45 47.2801 8.45H51.5301C52.7001 8.45 53.1201 9.64 53.1201 10.37L53.1601 12.65C53.1601 13.79 53.4701 15.36 56.2501 14.92L57.2701 16.72C57.5801 16.78 58.1001 17.1 58.3701 15.97V10.95V9.3C58.3701 8.06 58.2301 5.6 55.2201 5.6L55.2401 5.59Z" fill="#3E2967"/>
<path d="M49.2799 12.68C49.2799 12.99 49.5299 13.24 49.8399 13.24C50.1499 13.24 50.3999 12.99 50.3999 12.68C50.3999 12.37 50.1499 12.12 49.8399 12.12C49.5299 12.12 49.2799 12.37 49.2799 12.68Z" fill="#757570"/>
<path d="M52.74 35.84H51.13L52.27 34.7L51.97 34.4L50.83 35.54V33.93H50.4V35.54L49.26 34.4L48.96 34.7L50.1 35.84H48.49V36.27H50.1L48.96 37.41L49.26 37.71L50.4 36.57V38.18H50.83V36.57L51.97 37.71L52.27 37.41L51.13 36.27H52.74V35.84Z" fill="#F6A723"/>
<path d="M61.5801 34.35H59.9701L61.1101 33.21L60.8101 32.91L59.6701 34.05V32.44H59.2501V34.05L58.1101 32.91L57.8001 33.21L58.9401 34.35H57.3301V34.77H58.9401L57.8001 35.91L58.1101 36.21L59.2501 35.07V36.69H59.6701V35.07L60.8101 36.21L61.1101 35.91L59.9701 34.77H61.5801V34.35Z" fill="#F6A723"/>
<path d="M55.73 27.58H54.12L55.26 26.44L54.96 26.14L53.82 27.28V25.66H53.39V27.28L52.25 26.14L51.95 26.44L53.09 27.58H51.48V28H53.09L51.95 29.14L52.25 29.44L53.39 28.3V29.91H53.82V28.3L54.96 29.44L55.26 29.14L54.12 28H55.73V27.58Z" fill="#F6A723"/>
<path d="M58.5801 41.15H56.9701L58.1101 40.02L57.8101 39.71L56.6701 40.85V39.24H56.2401V40.85L55.1001 39.71L54.8001 40.02L55.9401 41.15H54.3301V41.58H55.9401L54.8001 42.72L55.1001 43.02L56.2401 41.88V43.49H56.6701V41.88L57.8101 43.02L58.1101 42.72L56.9701 41.58H58.5801V41.15Z" fill="#F6A723"/>
<path d="M53.04 49.03H51.43L52.57 47.89L52.27 47.59L51.13 48.73V47.12H50.7V48.73L49.56 47.59L49.26 47.89L50.4 49.03H48.79V49.46H50.4L49.26 50.6L49.56 50.9L50.7 49.76V51.37H51.13V49.76L52.27 50.9L52.57 50.6L51.43 49.46H53.04V49.03Z" fill="#F6A723"/>
<path d="M64.05 49.85H62.44L63.58 48.71L63.28 48.41L62.14 49.55V47.94H61.71V49.55L60.57 48.41L60.27 48.71L61.41 49.85H59.8V50.27H61.41L60.27 51.41L60.57 51.71L61.71 50.57V52.18H62.14V50.57L63.28 51.71L63.58 51.41L62.44 50.27H64.05V49.85Z" fill="#F6A723"/>
<path d="M54.35 12.83C54.35 12.2998 54.7798 11.87 55.31 11.87C55.8402 11.87 56.27 12.2998 56.27 12.83V14.92C56.27 15.4502 55.8402 15.88 55.31 15.88C54.7798 15.88 54.35 15.4502 54.35 14.92V12.83Z" fill="#FADDDC"/>
<path d="M59.0599 24.14C57.8499 24.97 57.5999 25.22 57.9899 26.82C58.0299 26.99 59.4299 41.36 51.1099 54.5L56.5499 58C66.6799 46.47 62.0799 26.37 61.8899 25.57C61.4999 23.98 60.4199 23.21 59.0699 24.14H59.0599Z" fill="#FCAD1E"/>
<path d="M49.9001 56.11C48.7501 57.28 48.7601 59.16 49.9401 60.32C50.9001 61.27 52.3501 61.42 53.4701 60.8C53.7101 60.66 53.9401 60.49 54.1501 60.28C54.6501 59.77 55.1201 59.26 55.5701 58.73L50.6601 55.3C50.4201 55.57 50.1701 55.84 49.9101 56.1L49.9001 56.11Z" fill="#FADDDC"/>
<path d="M59.3101 23.63C57.7201 24.02 56.7401 25.63 57.1201 27.22C57.1601 27.39 60.9701 43.84 50.6301 55.3L55.5401 58.73C67.4201 44.99 63.1001 26.62 62.9001 25.82C62.5101 24.23 60.9001 23.25 59.3101 23.64V23.63Z" fill="#FCC31E"/>
</g>
<defs>
<clipPath id="clip0_1206_3756">
<rect width="32.77" height="106.74" fill="white" transform="matrix(-1 0 0 1 75 2)"/>
</clipPath>
</defs>
</svg>
