<svg width="110" height="110" viewBox="0 0 110 110" fill="none" xmlns="http://www.w3.org/2000/svg">
<g clip-path="url(#clip0_1206_2862)">
<path d="M46.8399 56.23L45.4199 102.46L47.9499 102.64C47.9499 103.32 47.5499 104.6 47.0899 104.96C46.5499 105.39 45.1199 105.87 44.5999 106.34C43.9899 106.9 44.3099 108.12 45.0699 108.12H48.1499H48.9399C49.6399 108.12 50.2499 107.52 50.4199 106.66L50.4899 102.88L52.0199 102.84C53.2099 96.57 54.4199 86.6 55.4699 80.21C56.2099 75.73 56.8199 67.84 57.4799 63.38C57.6299 62.4 58.3399 61.69 59.1699 61.69H60.6799C61.5199 61.69 62.2299 62.4 62.3699 63.38C63.0299 67.84 65.6299 94.55 67.0299 101.65C67.1099 102.05 68.7199 101.52 68.7999 101.93C69.0499 103.21 68.6199 104.53 67.7399 105.25C67.3099 105.6 66.8999 105.96 66.4899 106.34C65.8699 106.9 66.1899 108.13 66.9499 108.13H70.0299L72.0299 107.36C74.0099 105.88 71.5399 104.72 72.4699 101.92L74.1199 101.37L73.1799 56.21H46.8299L46.8399 56.23Z" fill="#3E2967"/>
<path d="M19.9801 15.8C18.7701 14.69 16.8901 14.77 15.7801 15.99C14.8701 16.99 14.7601 18.43 15.4301 19.53C15.5701 19.77 15.7501 19.99 15.9701 20.19C16.5001 20.67 17.0301 21.12 17.5701 21.56L20.8201 16.53C20.5401 16.3 20.2701 16.06 19.9901 15.81L19.9801 15.8Z" fill="#FADDDC"/>
<path d="M52.7701 24.07C52.3301 22.49 50.6801 21.57 49.1001 22.01C48.9301 22.06 32.6201 26.45 20.8101 16.52L17.5601 21.55C31.7201 32.93 49.9201 27.95 50.7101 27.73C52.2901 27.28 53.2001 25.64 52.7601 24.06L52.7701 24.07Z" fill="#FCAD1E"/>
<path d="M73.58 58.19H44.91C43.56 58.19 42.49 57.05 42.58 55.7L44.14 33.45C44.04 25.83 50.15 20.51 53.25 20.73H65.2C70.23 20.73 74.31 24.81 74.31 29.84L75.92 55.69C76.01 57.04 74.94 58.19 73.59 58.19H73.58Z" fill="#FCC31E"/>
<path d="M78.48 56.38C78.36 58.02 79.6 59.44 81.23 59.56C81.3 59.56 81.3699 59.56 81.4499 59.56C82.9999 59.56 84.3 58.36 84.41 56.8C84.45 56.29 84.47 55.78 84.5 55.28H78.54C78.52 55.65 78.51 56 78.48 56.38Z" fill="#FADDDC"/>
<path d="M69.2899 21.7C67.8599 20.91 66.0599 21.42 65.2599 22.85C64.4599 24.28 64.9599 26.09 66.3899 26.9C66.9399 27.21 79.5499 34.67 78.5399 55.29H84.4999C85.5699 31.05 69.9699 22.08 69.2999 21.71L69.2899 21.7Z" fill="#FCC31E"/>
<path d="M71.28 32.18H69.67L70.81 31.04L70.51 30.74L69.37 31.88V30.27H68.94V31.88L67.8 30.74L67.5 31.04L68.64 32.18H67.03V32.61H68.64L67.5 33.75L67.8 34.05L68.94 32.91V34.52H69.37V32.91L70.51 34.05L70.81 33.75L69.67 32.61H71.28V32.18Z" fill="#F6A723"/>
<path d="M63.22 25.65H61.61L62.75 24.51L62.45 24.21L61.31 25.35V23.74H60.88V25.35L59.75 24.21L59.44 24.51L60.58 25.65H58.97V26.08H60.58L59.44 27.22L59.75 27.52L60.88 26.38V27.99H61.31V26.38L62.45 27.52L62.75 27.22L61.61 26.08H63.22V25.65Z" fill="#F6A723"/>
<path d="M49.9299 34.2H48.3199L49.4599 33.06L49.1599 32.76L48.0199 33.9V32.29H47.5899V33.9L46.4499 32.76L46.1499 33.06L47.2899 34.2H45.6799V34.63H47.2899L46.1499 35.77L46.4499 36.07L47.5899 34.93V36.54H48.0199V34.93L49.1599 36.07L49.4599 35.77L48.3199 34.63H49.9299V34.2Z" fill="#F6A723"/>
<path d="M62.98 34.04H61.36L62.5 32.9L62.2 32.6L61.06 33.74V32.13H60.64V33.74L59.5 32.6L59.2 32.9L60.34 34.04H58.73V34.47H60.34L59.2 35.61L59.5 35.91L60.64 34.77V36.38H61.06V34.77L62.2 35.91L62.5 35.61L61.36 34.47H62.98V34.04Z" fill="#F6A723"/>
<path d="M70.8899 40.72H69.2799L70.4199 39.58L70.1199 39.28L68.9799 40.42V38.81H68.5499V40.42L67.4099 39.28L67.1099 39.58L68.2499 40.72H66.6399V41.14H68.2499L67.1099 42.28L67.4099 42.58L68.5499 41.44V43.05H68.9799V41.44L70.1199 42.58L70.4199 42.28L69.2799 41.14H70.8899V40.72Z" fill="#F6A723"/>
<path d="M52.9199 25.94H51.3099L52.4499 24.8L52.1499 24.5L51.0099 25.63V24.02H50.5799V25.63L49.4499 24.5L49.1399 24.8L50.2799 25.94H48.6699V26.36H50.2799L49.1399 27.5L49.4499 27.8L50.5799 26.66V28.27H51.0099V26.66L52.1499 27.8L52.4499 27.5L51.3099 26.36H52.9199V25.94Z" fill="#F6A723"/>
<path d="M55.77 39.51H54.16L55.3 38.37L55 38.07L53.86 39.21V37.6H53.43V39.21L52.29 38.07L51.99 38.37L53.13 39.51H51.52V39.94H53.13L51.99 41.08L52.29 41.38L53.43 40.24V41.85H53.86V40.24L55 41.38L55.3 41.08L54.16 39.94H55.77V39.51Z" fill="#F6A723"/>
<path d="M50.23 47.39H48.62L49.76 46.25L49.46 45.95L48.32 47.09V45.48H47.89V47.09L46.75 45.95L46.45 46.25L47.59 47.39H45.98V47.82H47.59L46.45 48.96L46.75 49.26L47.89 48.12V49.73H48.32V48.12L49.46 49.26L49.76 48.96L48.62 47.82H50.23V47.39Z" fill="#F6A723"/>
<path d="M70.6399 49.43H69.0299L70.1699 48.29L69.8699 47.99L68.7299 49.13V47.52H68.3099V49.13L67.1699 47.99L66.8699 48.29L68.0099 49.43H66.3899V49.85H68.0099L66.8699 50.99L67.1699 51.29L68.3099 50.15V51.77H68.7299V50.15L69.8699 51.29L70.1699 50.99L69.0299 49.85H70.6399V49.43Z" fill="#F6A723"/>
<path d="M61.24 48.21H59.63L60.77 47.07L60.47 46.77L59.33 47.91V46.29H58.91V47.91L57.77 46.77L57.47 47.07L58.6 48.21H56.99V48.63H58.6L57.47 49.77L57.77 50.07L58.91 48.93V50.54H59.33V48.93L60.47 50.07L60.77 49.77L59.63 48.63H61.24V48.21Z" fill="#F6A723"/>
<path d="M61.2201 7.38H50.8301V15.49C50.8301 17.31 52.3101 18.79 54.1301 18.79H55.1801C55.6901 18.79 56.1101 19.2 56.1101 19.72V20.77C56.1101 21.84 56.9801 22.71 58.0501 22.71H59.2401C60.3101 22.71 61.1801 21.84 61.1801 20.77L61.2201 7.37V7.38Z" fill="#FADDDC"/>
<path d="M59.61 5.59H57.68C57.05 5.59 56.45 5.24 56.2 4.66C55.84 3.8 54.99 3.21 54 3.21C53.78 3.21 53.57 3.24 53.37 3.3C52.68 2.37 51.5 1.82 50.21 2.05C48.95 2.28 47.93 3.28 47.68 4.53C47.56 5.1 47.61 5.66 47.77 6.16C48.03 7.47 49.19 8.45 50.57 8.45H57.83C58.56 8.45 59.15 9.04 59.15 9.77V12.07C59.15 13.21 60.07 14.13 61.21 14.13C61.57 14.13 61.87 13.84 61.87 13.47V7.84C61.87 6.6 60.86 5.59 59.62 5.59H59.61Z" fill="#3E2967"/>
<path d="M54.2001 15.79H53.57C53.01 15.79 52.55 15.33 52.55 14.77V11.7C52.55 11.47 52.7401 11.28 52.9701 11.28C53.2001 11.28 53.39 11.47 53.39 11.7V14.36C53.39 14.68 53.6501 14.94 53.9701 14.94H54.19C54.42 14.94 54.6101 15.13 54.6101 15.37C54.6101 15.61 54.42 15.79 54.19 15.79H54.2001Z" fill="#E0B1BB"/>
<path d="M56.37 11.83C56.37 12.14 56.12 12.4 55.8 12.4C55.48 12.4 55.23 12.15 55.23 11.83C55.23 11.51 55.48 11.26 55.8 11.26C56.12 11.26 56.37 11.51 56.37 11.83Z" fill="#757570"/>
</g>
<defs>
<clipPath id="clip0_1206_2862">
<rect width="69.55" height="106.15" fill="white" transform="translate(15 2)"/>
</clipPath>
</defs>
</svg>
