<svg width="110" height="110" viewBox="0 0 110 110" fill="none" xmlns="http://www.w3.org/2000/svg">
<g clip-path="url(#clip0_1206_2904)">
<path d="M59.74 57.38L47.77 56.91L41.18 79.33L28.66 97.29L30.99 99.18C30.71 99.69 30.22 100.52 29.75 100.84C29.06 101.31 28.16 102.18 28.97 103.23L33.93 107.13C34.65 107.44 35.42 106.37 35.06 105.56C34.82 105.03 34 103.83 33.73 103.31C33.18 102.25 33.84 101.44 34.56 100.29C38.89 93.41 49 82.87 49 82.87L59.74 57.37V57.38Z" fill="#291B4C"/>
<path d="M62.67 55.82L43.01 56.63L64.47 81.73L71.85 104.41L74.63 104.01L75.53 105.81C76.46 107.83 76.58 108.69 78.12 107.9L81.95 106.38C82.65 106.03 82.54 105 81.72 104.75C81.18 104.58 80.35 104.56 79.79 104.53C77.71 104.43 77.99 102.96 77.66 101.62C75.66 93.63 74.76 87.21 72.49 79.14C71.2 74.52 62.65 55.83 62.65 55.83L62.67 55.82Z" fill="#3F3072"/>
<path d="M82.1601 44.59C83.7601 44.94 84.7801 46.53 84.4201 48.14C84.1301 49.46 83.0101 50.38 81.7201 50.47C81.4401 50.49 81.1601 50.47 80.8701 50.41C80.1701 50.26 79.5001 50.08 78.8301 49.89L81.0801 44.34C81.4301 44.43 81.7901 44.52 82.1501 44.6L82.1601 44.59Z" fill="#FADDDC"/>
<path d="M56.5599 22.51C58.1099 21.97 59.7999 22.78 60.3499 24.33C60.4099 24.49 66.1899 40.36 81.0999 44.33L78.8499 49.88C61.3999 44.83 55.0099 27.08 54.7399 26.3C54.1999 24.75 55.0199 23.06 56.5599 22.52V22.51Z" fill="#FCAD1E"/>
<path d="M65.19 58.12H44.76C41.03 58.12 41.22 54.82 41.31 53.86L44.1 31.2C45.23 27.44 42.01 25.6 52.21 21.71H56.56C58.06 21.71 59.48 22.47 60.26 23.75C65.93 33.01 65.2 58.12 65.2 58.12H65.19Z" fill="#FCC31E"/>
<path d="M30.87 50.62C30.5 52.22 28.9 53.22 27.3 52.85C25.98 52.55 25.08 51.41 25 50.13C24.98 49.85 25 49.57 25.07 49.28C25.23 48.59 25.41 47.91 25.61 47.25L31.14 49.56C31.04 49.91 30.95 50.26 30.87 50.62Z" fill="#FADDDC"/>
<path d="M53.2199 25.24C53.7499 26.79 52.9199 28.48 51.3699 29.01C51.2099 29.07 35.2799 34.69 31.1699 49.56L25.6399 47.25C30.8599 29.85 48.6699 23.64 49.4599 23.37C51.0099 22.84 52.6999 23.68 53.2299 25.23L53.2199 25.24Z" fill="#FCC31E"/>
<path d="M52.4099 7.37H62.7999V16.67C62.7999 18.49 61.3199 19.97 59.4999 19.97H58.4499C57.9399 19.97 57.5199 20.38 57.5199 20.9V21.81C57.5199 22.97 56.2799 23.7 55.2599 23.15L52.6099 21.71L52.3999 7.37H52.4099Z" fill="#FADDDC"/>
<path d="M62.11 17.1L62.71 16.93C63.25 16.78 63.57 16.21 63.42 15.67L62.59 12.71C62.53 12.48 62.29 12.35 62.07 12.42C61.85 12.49 61.71 12.72 61.78 12.94L62.5 15.5C62.59 15.81 62.41 16.13 62.1 16.21L61.89 16.27C61.66 16.33 61.53 16.57 61.6 16.79C61.67 17.01 61.9 17.15 62.12 17.08L62.11 17.1Z" fill="#E0B1BB"/>
<path d="M54.7001 5.59H55.6601C56.2801 5.59 56.8701 5.24 57.1201 4.66C57.4801 3.8 58.3101 3.21 59.2801 3.21C59.5001 3.21 59.7001 3.24 59.9001 3.3C60.5801 2.37 61.7301 1.82 63.0001 2.05C64.2401 2.28 65.2401 3.28 65.4901 4.53C65.6001 5.1 65.5601 5.66 65.4101 6.16C65.1501 7.47 64.0201 8.45 62.6601 8.45H58.4101C57.2401 8.45 56.8201 9.64 56.8201 10.37L56.7801 12.65C56.7801 13.79 56.4701 15.36 53.6901 14.92L52.6701 16.72C52.3601 16.78 51.8401 17.1 51.5701 15.97V10.95V9.3C51.5701 8.06 51.7101 5.6 54.7201 5.6L54.7001 5.59Z" fill="#3E2967"/>
<path d="M60.65 12.68C60.65 12.99 60.4 13.24 60.09 13.24C59.78 13.24 59.53 12.99 59.53 12.68C59.53 12.37 59.78 12.12 60.09 12.12C60.4 12.12 60.65 12.37 60.65 12.68Z" fill="#757570"/>
<path d="M57.2 35.84H58.81L57.6699 34.7L57.97 34.4L59.11 35.54V33.93H59.54V35.54L60.68 34.4L60.9799 34.7L59.84 35.84H61.45V36.27H59.84L60.9799 37.41L60.68 37.71L59.54 36.57V38.18H59.11V36.57L57.97 37.71L57.6699 37.41L58.81 36.27H57.2V35.84Z" fill="#F6A723"/>
<path d="M48.3501 34.35H49.9701L48.8301 33.21L49.1301 32.91L50.2701 34.05V32.44H50.6901V34.05L51.8301 32.91L52.1301 33.21L50.9901 34.35H52.6001V34.77H50.9901L52.1301 35.91L51.8301 36.21L50.6901 35.07V36.69H50.2701V35.07L49.1301 36.21L48.8301 35.91L49.9701 34.77H48.3501V34.35Z" fill="#F6A723"/>
<path d="M54.21 27.58H55.82L54.68 26.44L54.98 26.14L56.12 27.28V25.66H56.54V27.28L57.68 26.14L57.98 26.44L56.84 27.58H58.46V28H56.84L57.98 29.14L57.68 29.44L56.54 28.3V29.91H56.12V28.3L54.98 29.44L54.68 29.14L55.82 28H54.21V27.58Z" fill="#F6A723"/>
<path d="M51.3601 41.15H52.9701L51.8301 40.02L52.1301 39.71L53.2701 40.85V39.24H53.6901V40.85L54.8301 39.71L55.1301 40.02L53.9901 41.15H55.6101V41.58H53.9901L55.1301 42.72L54.8301 43.02L53.6901 41.88V43.49H53.2701V41.88L52.1301 43.02L51.8301 42.72L52.9701 41.58H51.3601V41.15Z" fill="#F6A723"/>
<path d="M56.8999 49.03H58.5099L57.3699 47.89L57.6699 47.59L58.8099 48.73V47.12H59.2399V48.73L60.3799 47.59L60.6799 47.89L59.5399 49.03H61.1499V49.46H59.5399L60.6799 50.6L60.3799 50.9L59.2399 49.76V51.37H58.8099V49.76L57.6699 50.9L57.3699 50.6L58.5099 49.46H56.8999V49.03Z" fill="#F6A723"/>
<path d="M45.8899 49.85H47.4999L46.3599 48.71L46.6599 48.41L47.7999 49.55V47.94H48.2199V49.55L49.3599 48.41L49.6599 48.71L48.5199 49.85H50.1299V50.27H48.5199L49.6599 51.41L49.3599 51.71L48.2199 50.57V52.18H47.7999V50.57L46.6599 51.71L46.3599 51.41L47.4999 50.27H45.8899V49.85Z" fill="#F6A723"/>
<path d="M55.5899 12.83C55.5899 12.2998 55.1601 11.87 54.6299 11.87C54.0997 11.87 53.6699 12.2998 53.6699 12.83V14.92C53.6699 15.4502 54.0997 15.88 54.6299 15.88C55.1601 15.88 55.5899 15.4502 55.5899 14.92V12.83Z" fill="#FADDDC"/>
</g>
<defs>
<clipPath id="clip0_1206_2904">
<rect width="59.5" height="106.18" fill="white" transform="translate(25 2)"/>
</clipPath>
</defs>
</svg>
