<svg width="110" height="110" viewBox="0 0 110 110" fill="none" xmlns="http://www.w3.org/2000/svg">
<g clip-path="url(#clip0_1206_3062)">
<path d="M38.53 57.79C38.87 59.63 37.59 61.46 35.68 61.87C34.11 62.21 32.59 61.48 31.91 60.19C31.76 59.91 31.65 59.6 31.59 59.27C31.44 58.47 31.33 57.68 31.24 56.9L38.34 56.55C38.4 56.96 38.46 57.37 38.54 57.79H38.53Z" fill="#FADDDC"/>
<path d="M44.6799 56.6L69.3399 56.71L64.1199 99.14C64.1199 99.14 61.5299 100.85 61.5199 100.91C61.3099 102.27 61.5199 103.42 63.5299 102.15C64.1099 101.78 64.5699 101.76 65.0999 102.24C65.7299 102.81 65.2499 104.47 64.6899 105.36L59.7399 109.3C59.1499 109.77 58.2799 109.82 57.7299 109.3C56.8799 108.52 57.1199 107.27 57.4799 106.26C58.8499 102.34 58.4299 101.89 58.4299 101.89L57.6599 102.15C57.1599 102.32 56.6599 101.93 56.6999 101.41C57.0999 96.26 58.1199 69.82 58.2999 65.07C58.3199 64.67 57.9999 64.33 57.5999 64.32L56.5399 64.3C56.2199 64.3 55.9099 64.52 55.9099 64.84C55.8799 71.2 55.7999 81.17 55.7099 81.17C55.7099 81.17 55.2399 85.42 54.9899 86.39C54.6399 87.77 53.2199 87.58 52.7299 86.55C52.3099 85.66 52.1899 82.94 52.1099 82.23H49.9299L44.6799 56.59V56.6Z" fill="#3E2967"/>
<path d="M59.12 14.67H54.51V18.02H59.12V14.67Z" fill="#FADDDC"/>
<path d="M62.02 11.03H61.46V8.48001C61.46 8.07001 61.79 7.73001 62.21 7.73001H62.51C62.92 7.73001 63.26 8.06001 63.26 8.48001L62.91 10.15C62.91 10.64 62.52 11.03 62.03 11.03H62.02Z" fill="#FADDDC"/>
<path d="M50.8999 11.03H51.4599V8.48001C51.4599 8.07001 51.1299 7.73001 50.7099 7.73001H50.4099C49.9999 7.73001 49.6599 8.06001 49.6599 8.48001L50.0099 10.15C50.0099 10.64 50.3999 11.03 50.8899 11.03H50.8999Z" fill="#FADDDC"/>
<path d="M58.4701 1.78001C57.0901 1.51001 55.2301 1.48001 53.2001 2.77001C51.3401 3.95001 50.6201 5.77001 50.6201 7.22001C50.6201 8.67001 50.6501 8.82001 50.9001 9.80001C51.1501 10.78 52.2001 14.06 54.2301 15.37C55.2001 16 57.7901 16.38 59.0901 15.37C60.3901 14.36 61.5201 13.04 61.8401 10.96C62.1601 8.88001 62.1801 8.50001 62.5301 7.52001C62.8801 6.54001 62.5601 5.13001 62.4301 4.59001C62.3001 4.05001 61.0901 2.29001 58.4801 1.79001L58.4701 1.78001Z" fill="#3E2967"/>
<path d="M51.08 20.38C52.38 21.73 52.26 23.89 50.81 25.21C50.66 25.35 35.9 39.09 38.33 56.55L31.23 56.9C28.85 36.27 45.38 20.98 46.11 20.32C47.56 19 49.78 19.03 51.08 20.38Z" fill="#FCC31E"/>
<path d="M72.72 43C72.61 44.23 73.78 45.29 75.32 45.38C75.39 45.38 75.46 45.38 75.52 45.38C76.98 45.38 78.22 44.48 78.32 43.31C78.35 42.92 78.38 42.55 78.4 42.17H72.76C72.74 42.44 72.73 42.71 72.71 42.99L72.72 43Z" fill="#FADDDC"/>
<path d="M66.1201 19C64.7701 18.4 63.0701 18.79 62.3101 19.86C61.5501 20.93 62.0301 22.29 63.3701 22.89C63.8901 23.12 73.7301 26.73 72.7701 42.18H78.4101C79.4201 24.01 66.7601 19.28 66.1201 19Z" fill="#FCAD1E"/>
<path d="M70.8401 57.09H43.3301L43.3401 27.19C43.3401 22.05 47.5101 17.88 52.6501 17.88H61.5401C66.6801 17.88 70.8501 22.05 70.8501 27.19L70.8301 57.09H70.8401Z" fill="#FCC31E"/>
<path d="M62.2601 6.89C62.2601 6.89 64.1301 5.24 63.4101 3.65C62.6901 2.06 60.1701 0.68 58.8001 1.07C57.4301 1.46 55.7201 0.91 54.5701 1.45C53.4201 1.99 52.0401 2.6 52.2101 3.81C52.3801 5.02 54.1901 8.42 55.0701 8.7C55.9501 8.98 62.2701 6.89 62.2701 6.89H62.2601Z" fill="#3E2967"/>
</g>
<defs>
<clipPath id="clip0_1206_3062">
<rect width="47.46" height="108.67" fill="white" transform="translate(31 1)"/>
</clipPath>
</defs>
</svg>
