<svg width="110" height="110" viewBox="0 0 110 110" fill="none" xmlns="http://www.w3.org/2000/svg">
<g clip-path="url(#clip0_1206_3597)">
<path d="M58.28 53.84L42.71 54.21L45.51 102.93L47.83 103.68C47.84 104.27 47.83 105.26 47.58 105.8C47.22 106.6 46.87 107.86 48.07 108.28L54.16 108.73C54.92 108.58 55.06 107.22 54.36 106.75C53.9 106.44 52.63 105.89 52.15 105.61C51.17 105.02 51.21 103.95 51.4 102.57C52.78 92.6 58.27 53.83 58.27 53.83L58.28 53.84Z" fill="#291B4C"/>
<path d="M62.73 55.79L46.71 54.77L58.21 75.82L53.47 96.78L55.82 97.52V99.56C55.64 100.99 55.64 101.92 57.16 102.75L61.07 103.75C61.84 103.81 62.2 102.86 61.6 102.21C61.2 101.78 60.36 101.48 60 101C58.43 98.88 59.25 98.38 59.55 97.04C61.34 89.03 67.76 75.51 67.76 75.51L62.72 55.78L62.73 55.79Z" fill="#3F3072"/>
<path d="M60.6901 56.85C61.7401 58.12 61.5601 59.99 60.2901 61.04C59.2501 61.9 57.8001 61.93 56.7301 61.21C56.5001 61.05 56.2901 60.86 56.1001 60.64C55.6501 60.09 55.2201 59.54 54.8201 58.98L60.0101 55.99C60.2301 56.28 60.4501 56.57 60.6901 56.85Z" fill="#FADDDC"/>
<path d="M40.9201 52.13C40.7101 53.76 39.2101 54.91 37.5901 54.69C36.2501 54.52 35.2401 53.48 35.0401 52.21C35.0001 51.93 34.9901 51.65 35.0301 51.36C35.1201 50.65 35.2401 49.96 35.3701 49.29L41.1001 51.05C41.0401 51.41 40.9801 51.77 40.9301 52.14L40.9201 52.13Z" fill="#FADDDC"/>
<path d="M60.6801 24.69C61.3601 26.18 60.6901 27.95 59.2001 28.63C59.0401 28.7 43.7401 35.85 41.0901 51.05L35.3601 49.29C38.8601 31.47 55.9901 23.55 56.7401 23.21C58.2401 22.54 59.9901 23.21 60.6701 24.7L60.6801 24.69Z" fill="#FCAD1E"/>
<path d="M65.2601 58.12H44.8201C41.0901 58.12 41.2801 54.82 41.3701 53.86L44.1601 31.2C45.2901 27.44 42.0701 25.6 52.2701 21.71H56.6201C58.1201 21.71 59.5401 22.47 60.3201 23.75C65.9901 33.01 65.2601 58.12 65.2601 58.12Z" fill="#FCC31E"/>
<path d="M52.47 7.37H62.86V16.67C62.86 18.49 61.38 19.97 59.56 19.97H58.51C58 19.97 57.58 20.38 57.58 20.9V21.81C57.58 22.97 56.34 23.7 55.32 23.15L52.67 21.71L52.46 7.37H52.47Z" fill="#FADDDC"/>
<path d="M62.1701 17.1L62.7701 16.93C63.3101 16.78 63.6301 16.21 63.4801 15.67L62.6501 12.71C62.5901 12.48 62.3501 12.35 62.1301 12.42C61.9101 12.49 61.7701 12.72 61.8401 12.94L62.5601 15.5C62.6501 15.81 62.4701 16.13 62.1601 16.21L61.9501 16.27C61.7201 16.33 61.5901 16.57 61.6601 16.79C61.7301 17.01 61.9601 17.15 62.1801 17.08L62.1701 17.1Z" fill="#E0B1BB"/>
<path d="M54.7599 5.59H55.7199C56.3399 5.59 56.9299 5.24 57.1799 4.66C57.5399 3.8 58.3699 3.21 59.3399 3.21C59.5599 3.21 59.7599 3.24 59.9599 3.3C60.6399 2.37 61.7899 1.82 63.0599 2.05C64.2999 2.28 65.2999 3.28 65.5499 4.53C65.6599 5.1 65.6199 5.66 65.4699 6.16C65.2099 7.47 64.0799 8.45 62.7199 8.45H58.4699C57.2999 8.45 56.8799 9.64 56.8799 10.37L56.8399 12.65C56.8399 13.79 56.5299 15.36 53.7499 14.92L52.7299 16.72C52.4199 16.78 51.8999 17.1 51.6299 15.97V10.95V9.3C51.6299 8.06 51.7699 5.6 54.7799 5.6L54.7599 5.59Z" fill="#3E2967"/>
<path d="M60.7201 12.68C60.7201 12.99 60.4701 13.24 60.1601 13.24C59.8501 13.24 59.6001 12.99 59.6001 12.68C59.6001 12.37 59.8501 12.12 60.1601 12.12C60.4701 12.12 60.7201 12.37 60.7201 12.68Z" fill="#757570"/>
<path d="M57.26 35.84H58.87L57.73 34.7L58.03 34.4L59.17 35.54V33.93H59.6V35.54L60.74 34.4L61.04 34.7L59.9 35.84H61.51V36.27H59.9L61.04 37.41L60.74 37.71L59.6 36.57V38.18H59.17V36.57L58.03 37.71L57.73 37.41L58.87 36.27H57.26V35.84Z" fill="#F6A723"/>
<path d="M48.4199 34.35H50.0299L48.8899 33.21L49.1899 32.91L50.3299 34.05V32.44H50.7499V34.05L51.8899 32.91L52.1999 33.21L51.0599 34.35H52.6699V34.77H51.0599L52.1999 35.91L51.8899 36.21L50.7499 35.07V36.69H50.3299V35.07L49.1899 36.21L48.8899 35.91L50.0299 34.77H48.4199V34.35Z" fill="#F6A723"/>
<path d="M54.27 27.58H55.88L54.74 26.44L55.04 26.14L56.18 27.28V25.66H56.61V27.28L57.75 26.14L58.05 26.44L56.91 27.58H58.52V28H56.91L58.05 29.14L57.75 29.44L56.61 28.3V29.91H56.18V28.3L55.04 29.44L54.74 29.14L55.88 28H54.27V27.58Z" fill="#F6A723"/>
<path d="M51.4199 41.15H53.0299L51.8899 40.02L52.1899 39.71L53.3299 40.85V39.24H53.7599V40.85L54.8999 39.71L55.1999 40.02L54.0599 41.15H55.6699V41.58H54.0599L55.1999 42.72L54.8999 43.02L53.7599 41.88V43.49H53.3299V41.88L52.1899 43.02L51.8899 42.72L53.0299 41.58H51.4199V41.15Z" fill="#F6A723"/>
<path d="M56.96 49.03H58.57L57.43 47.89L57.73 47.59L58.87 48.73V47.12H59.3V48.73L60.44 47.59L60.74 47.89L59.6 49.03H61.21V49.46H59.6L60.74 50.6L60.44 50.9L59.3 49.76V51.37H58.87V49.76L57.73 50.9L57.43 50.6L58.57 49.46H56.96V49.03Z" fill="#F6A723"/>
<path d="M45.95 49.85H47.56L46.42 48.71L46.72 48.41L47.86 49.55V47.94H48.29V49.55L49.43 48.41L49.73 48.71L48.59 49.85H50.2V50.27H48.59L49.73 51.41L49.43 51.71L48.29 50.57V52.18H47.86V50.57L46.72 51.71L46.42 51.41L47.56 50.27H45.95V49.85Z" fill="#F6A723"/>
<path d="M55.65 12.83C55.65 12.2998 55.2202 11.87 54.69 11.87C54.1598 11.87 53.73 12.2998 53.73 12.83V14.92C53.73 15.4502 54.1598 15.88 54.69 15.88C55.2202 15.88 55.65 15.4502 55.65 14.92V12.83Z" fill="#FADDDC"/>
<path d="M50.9401 24.14C52.1501 24.97 52.4001 25.22 52.0101 26.82C51.9701 26.99 50.5701 41.36 58.8901 54.5L53.4501 58C43.3201 46.47 47.9201 26.37 48.1101 25.57C48.5001 23.98 49.5801 23.21 50.9301 24.14H50.9401Z" fill="#FCAD1E"/>
<path d="M60.0999 56.11C61.2499 57.28 61.2399 59.16 60.0599 60.32C59.0999 61.27 57.6499 61.42 56.5299 60.8C56.2899 60.66 56.0599 60.49 55.8499 60.28C55.3499 59.77 54.8799 59.26 54.4299 58.73L59.3399 55.3C59.5799 55.57 59.8299 55.84 60.0899 56.1L60.0999 56.11Z" fill="#FADDDC"/>
<path d="M50.6899 23.63C52.2799 24.02 53.2599 25.63 52.8799 27.22C52.8399 27.39 49.0299 43.84 59.3699 55.3L54.4599 58.73C42.5799 44.99 46.8999 26.62 47.0999 25.82C47.4899 24.23 49.0999 23.25 50.6899 23.64V23.63Z" fill="#FCC31E"/>
</g>
<defs>
<clipPath id="clip0_1206_3597">
<rect width="32.77" height="106.74" fill="white" transform="translate(35 2)"/>
</clipPath>
</defs>
</svg>
