<svg width="110" height="110" viewBox="0 0 110 110" fill="none" xmlns="http://www.w3.org/2000/svg">
<g clip-path="url(#clip0_1206_3198)">
<path d="M46.9002 56.16L45.4802 102.39L48.0102 102.57C48.0102 103.25 47.6102 104.53 47.1502 104.89C46.6102 105.32 45.1802 105.8 44.6602 106.27C44.0502 106.83 44.3702 108.05 45.1302 108.05H48.2102H49.0002C49.7002 108.05 50.3102 107.45 50.4802 106.59L50.5502 102.81L52.0802 102.77C53.2702 96.5 54.4802 86.53 55.5302 80.14C56.2702 75.66 56.8802 67.77 57.5402 63.31C57.6902 62.33 58.4002 61.62 59.2302 61.62H60.7402C61.5802 61.62 62.2902 62.33 62.4302 63.31C63.0902 67.77 65.6902 94.48 67.0902 101.58C67.1702 101.98 68.7802 101.45 68.8602 101.86C69.1102 103.14 68.6802 104.46 67.8002 105.18C67.3702 105.53 66.9602 105.89 66.5502 106.27C65.9302 106.83 66.2502 108.06 67.0102 108.06H70.0902L72.0902 107.29C74.0702 105.81 71.6002 104.65 72.5302 101.85L74.1802 101.3L73.2402 56.14H46.8902L46.9002 56.16Z" fill="#3E2967"/>
<path d="M20.8602 29.98C19.2802 29.55 17.6402 30.48 17.2102 32.07C16.8502 33.37 17.4202 34.71 18.5202 35.38C18.7602 35.53 19.0202 35.64 19.3002 35.72C19.9902 35.91 20.6702 36.07 21.3402 36.21L21.9302 30.25C21.5802 30.17 21.2202 30.08 20.8602 29.99V29.98Z" fill="#FADDDC"/>
<path d="M53.7901 22.34C52.6701 21.14 50.7901 21.07 49.5901 22.19C49.4601 22.31 36.9701 33.67 21.9201 30.25L21.3301 36.21C39.1301 39.85 53.0401 27.11 53.6401 26.54C54.8401 25.42 54.9001 23.54 53.7901 22.34Z" fill="#FCAD1E"/>
<path d="M73.6401 58.13H44.9701C43.6201 58.13 42.5501 56.99 42.6401 55.64L44.2001 33.39C44.1001 25.77 50.2101 20.45 53.3101 20.67H65.2601C70.2901 20.67 74.3701 24.75 74.3701 29.78L75.9801 55.63C76.0701 56.98 75.0001 58.13 73.6501 58.13H73.6401Z" fill="#FCC31E"/>
<path d="M84.8401 53.12C85.0801 54.74 86.6001 55.87 88.2201 55.62C88.2901 55.61 88.3601 55.6 88.4301 55.58C89.9401 55.24 90.9501 53.79 90.7201 52.24C90.6401 51.73 90.5601 51.23 90.4701 50.74L84.6501 52.04C84.7101 52.4 84.7801 52.75 84.8301 53.12H84.8401Z" fill="#FADDDC"/>
<path d="M68.3301 21.27C66.7601 20.81 65.1201 21.7 64.6501 23.26C64.1801 24.83 65.0701 26.48 66.6301 26.96C67.2301 27.15 81.17 31.68 84.66 52.03L90.48 50.73C86.26 26.83 69.0801 21.48 68.3401 21.26L68.3301 21.27Z" fill="#FCC31E"/>
<path d="M71.3401 32.12H69.7301L70.8701 30.98L70.5701 30.68L69.4301 31.82V30.21H69.0001V31.82L67.8601 30.68L67.5601 30.98L68.7001 32.12H67.0901V32.55H68.7001L67.5601 33.69L67.8601 33.99L69.0001 32.85V34.46H69.4301V32.85L70.5701 33.99L70.8701 33.69L69.7301 32.55H71.3401V32.12Z" fill="#F6A723"/>
<path d="M63.28 25.59H61.67L62.81 24.45L62.51 24.15L61.37 25.29V23.68H60.95V25.29L59.81 24.15L59.51 24.45L60.64 25.59H59.03V26.01H60.64L59.51 27.15L59.81 27.45L60.95 26.31V27.93H61.37V26.31L62.51 27.45L62.81 27.15L61.67 26.01H63.28V25.59Z" fill="#F6A723"/>
<path d="M49.99 34.14H48.38L49.52 33L49.22 32.7L48.08 33.84V32.23H47.65V33.84L46.51 32.7L46.21 33L47.35 34.14H45.74V34.56H47.35L46.21 35.7L46.51 36L47.65 34.86V36.48H48.08V34.86L49.22 36L49.52 35.7L48.38 34.56H49.99V34.14Z" fill="#F6A723"/>
<path d="M63.04 33.98H61.43L62.56 32.84L62.26 32.54L61.12 33.68V32.07H60.7V33.68L59.56 32.54L59.26 32.84L60.4 33.98H58.79V34.41H60.4L59.26 35.54L59.56 35.85L60.7 34.71V36.32H61.12V34.71L62.26 35.85L62.56 35.54L61.43 34.41H63.04V33.98Z" fill="#F6A723"/>
<path d="M70.9502 40.65H69.3402L70.4802 39.51L70.1802 39.21L69.0402 40.35V38.74H68.6102V40.35L67.4702 39.21L67.1702 39.51L68.3102 40.65H66.7002V41.08H68.3102L67.1702 42.22L67.4702 42.52L68.6102 41.38V42.99H69.0402V41.38L70.1802 42.52L70.4802 42.22L69.3402 41.08H70.9502V40.65Z" fill="#F6A723"/>
<path d="M52.98 25.87H51.37L52.51 24.73L52.21 24.43L51.07 25.57V23.96H50.64V25.57L49.51 24.43L49.2 24.73L50.34 25.87H48.73V26.3H50.34L49.2 27.44L49.51 27.74L50.64 26.6V28.21H51.07V26.6L52.21 27.74L52.51 27.44L51.37 26.3H52.98V25.87Z" fill="#F6A723"/>
<path d="M55.8301 39.45H54.2201L55.3601 38.31L55.0601 38.01L53.9201 39.15V37.54H53.4901V39.15L52.3601 38.01L52.0501 38.31L53.1901 39.45H51.5801V39.88H53.1901L52.0501 41.01L52.3601 41.31L53.4901 40.18V41.79H53.9201V40.18L55.0601 41.31L55.3601 41.01L54.2201 39.88H55.8301V39.45Z" fill="#F6A723"/>
<path d="M50.29 47.33H48.68L49.82 46.19L49.52 45.89L48.38 47.03V45.42H47.95V47.03L46.81 45.89L46.51 46.19L47.65 47.33H46.04V47.75H47.65L46.51 48.89L46.81 49.19L47.95 48.05V49.67H48.38V48.05L49.52 49.19L49.82 48.89L48.68 47.75H50.29V47.33Z" fill="#F6A723"/>
<path d="M70.7002 49.37H69.0902L70.2302 48.23L69.9302 47.93L68.7902 49.07V47.45H68.3702V49.07L67.2302 47.93L66.9302 48.23L68.0702 49.37H66.4502V49.79H68.0702L66.9302 50.93L67.2302 51.23L68.3702 50.09V51.7H68.7902V50.09L69.9302 51.23L70.2302 50.93L69.0902 49.79H70.7002V49.37Z" fill="#F6A723"/>
<path d="M61.3 48.14H59.69L60.83 47L60.53 46.7L59.39 47.84V46.23H58.97V47.84L57.83 46.7L57.53 47L58.67 48.14H57.05V48.57H58.67L57.53 49.71L57.83 50.01L58.97 48.87V50.48H59.39V48.87L60.53 50.01L60.83 49.71L59.69 48.57H61.3V48.14Z" fill="#F6A723"/>
<path d="M64.6701 8.68L54.5201 6.44L52.7701 14.36C52.3801 16.14 53.5001 17.9 55.2801 18.3L56.3001 18.53C56.8001 18.64 57.1101 19.13 57.0001 19.63L56.7701 20.66C56.5401 21.71 57.2001 22.75 58.2501 22.98L59.4101 23.24C60.4601 23.47 61.4901 22.81 61.7301 21.77L64.6601 8.69L64.6701 8.68Z" fill="#FADDDC"/>
<path d="M63.4801 6.59L63.0201 6.49L61.5901 6.17C60.9701 6.03 60.4601 5.56 60.3401 4.94C60.1701 4.03 59.4701 3.26 58.5101 3.04C58.3001 2.99 58.0801 2.98 57.8701 2.99C57.4001 1.93 56.3701 1.14 55.0601 1.09C53.7801 1.04 52.5701 1.8 52.0501 2.97C51.8101 3.51 51.7301 4.05 51.7801 4.58C51.7601 5.91 52.6701 7.12 54.0201 7.42L61.1101 8.99C61.8201 9.15 62.2701 9.85 62.1101 10.56L61.6101 12.8C61.3601 13.91 62.0701 15.01 63.1801 15.25C63.5301 15.33 63.8801 15.11 63.9601 14.75L65.0401 9.85L65.1701 9.25C65.4401 8.04 64.6701 6.84 63.4601 6.57L63.4801 6.59Z" fill="#3E2967"/>
<path d="M55.99 15.38L55.38 15.24C54.83 15.12 54.48 14.57 54.6 14.02L55.26 11.02C55.31 10.79 55.54 10.65 55.77 10.7C56 10.75 56.14 10.98 56.09 11.21L55.52 13.81C55.45 14.12 55.65 14.43 55.96 14.5L56.17 14.55C56.4 14.6 56.54 14.83 56.49 15.06C56.44 15.29 56.21 15.43 55.98 15.38H55.99Z" fill="#E0B1BB"/>
<path d="M58.9702 11.97C58.9002 12.28 58.6002 12.47 58.2902 12.4C57.9802 12.33 57.7902 12.03 57.8602 11.72C57.9302 11.41 58.2302 11.22 58.5402 11.29C58.8502 11.36 59.0402 11.66 58.9702 11.97Z" fill="#757570"/>
</g>
<defs>
<clipPath id="clip0_1206_3198">
<rect width="73.65" height="106.98" fill="white" transform="translate(17.1001 1.1)"/>
</clipPath>
</defs>
</svg>
