<svg width="110" height="110" viewBox="0 0 110 110" fill="none" xmlns="http://www.w3.org/2000/svg">
<g clip-path="url(#clip0_1206_3687)">
<path d="M50.26 57.38L62.23 56.91L68.82 79.33L81.34 97.29L79.01 99.18C79.29 99.69 79.78 100.52 80.25 100.84C80.94 101.31 81.84 102.18 81.03 103.23L76.07 107.13C75.35 107.44 74.58 106.37 74.94 105.56C75.18 105.03 76 103.83 76.27 103.31C76.82 102.25 76.16 101.44 75.44 100.29C71.11 93.41 61 82.87 61 82.87L50.26 57.37V57.38Z" fill="#291B4C"/>
<path d="M47.33 55.82L66.99 56.63L45.53 81.73L38.15 104.41L35.37 104.01L34.47 105.81C33.54 107.83 33.42 108.69 31.88 107.9L28.05 106.38C27.35 106.03 27.46 105 28.28 104.75C28.82 104.58 29.65 104.56 30.21 104.53C32.29 104.43 32.01 102.96 32.34 101.62C34.34 93.63 35.24 87.21 37.51 79.14C38.8 74.52 47.35 55.83 47.35 55.83L47.33 55.82Z" fill="#3F3072"/>
<path d="M27.8399 44.59C26.2399 44.94 25.2199 46.53 25.5799 48.14C25.8699 49.46 26.9899 50.38 28.2799 50.47C28.5599 50.49 28.8399 50.47 29.1299 50.41C29.8299 50.26 30.4999 50.08 31.1699 49.89L28.9199 44.34C28.5699 44.43 28.2099 44.52 27.8499 44.6L27.8399 44.59Z" fill="#FADDDC"/>
<path d="M53.4401 22.51C51.8901 21.97 50.2001 22.78 49.6501 24.33C49.5901 24.49 43.8101 40.36 28.9001 44.33L31.1501 49.88C48.6001 44.83 54.9901 27.08 55.2601 26.3C55.8001 24.75 54.9801 23.06 53.4401 22.52V22.51Z" fill="#FCAD1E"/>
<path d="M44.81 58.12H65.24C68.97 58.12 68.78 54.82 68.69 53.86L65.9 31.2C64.77 27.44 67.99 25.6 57.79 21.71H53.44C51.94 21.71 50.52 22.47 49.74 23.75C44.07 33.01 44.8 58.12 44.8 58.12H44.81Z" fill="#FCC31E"/>
<path d="M79.13 50.62C79.5 52.22 81.1 53.22 82.7 52.85C84.02 52.55 84.92 51.41 85 50.13C85.02 49.85 85 49.57 84.93 49.28C84.77 48.59 84.59 47.91 84.39 47.25L78.86 49.56C78.96 49.91 79.05 50.26 79.13 50.62Z" fill="#FADDDC"/>
<path d="M56.7801 25.24C56.2501 26.79 57.0801 28.48 58.6301 29.01C58.7901 29.07 74.7201 34.69 78.8301 49.56L84.3601 47.25C79.1401 29.85 61.3301 23.64 60.5401 23.37C58.9901 22.84 57.3001 23.68 56.7701 25.23L56.7801 25.24Z" fill="#FCC31E"/>
<path d="M57.5901 7.37H47.2001V16.67C47.2001 18.49 48.6801 19.97 50.5001 19.97H51.5501C52.0601 19.97 52.4801 20.38 52.4801 20.9V21.81C52.4801 22.97 53.7201 23.7 54.7401 23.15L57.3901 21.71L57.6001 7.37H57.5901Z" fill="#FADDDC"/>
<path d="M47.89 17.1L47.29 16.93C46.75 16.78 46.43 16.21 46.58 15.67L47.41 12.71C47.47 12.48 47.71 12.35 47.93 12.42C48.15 12.49 48.29 12.72 48.22 12.94L47.5 15.5C47.41 15.81 47.59 16.13 47.9 16.21L48.11 16.27C48.34 16.33 48.47 16.57 48.4 16.79C48.33 17.01 48.1 17.15 47.88 17.08L47.89 17.1Z" fill="#E0B1BB"/>
<path d="M55.2999 5.59H54.3399C53.7199 5.59 53.1299 5.24 52.8799 4.66C52.5199 3.8 51.6899 3.21 50.7199 3.21C50.4999 3.21 50.2999 3.24 50.0999 3.3C49.4199 2.37 48.2699 1.82 46.9999 2.05C45.7599 2.28 44.7599 3.28 44.5099 4.53C44.3999 5.1 44.4399 5.66 44.5899 6.16C44.8499 7.47 45.9799 8.45 47.3399 8.45H51.5899C52.7599 8.45 53.1799 9.64 53.1799 10.37L53.2199 12.65C53.2199 13.79 53.5299 15.36 56.3099 14.92L57.3299 16.72C57.6399 16.78 58.1599 17.1 58.4299 15.97V10.95V9.3C58.4299 8.06 58.2899 5.6 55.2799 5.6L55.2999 5.59Z" fill="#3E2967"/>
<path d="M49.35 12.68C49.35 12.99 49.6 13.24 49.91 13.24C50.22 13.24 50.47 12.99 50.47 12.68C50.47 12.37 50.22 12.12 49.91 12.12C49.6 12.12 49.35 12.37 49.35 12.68Z" fill="#757570"/>
<path d="M52.8 35.84H51.19L52.3301 34.7L52.03 34.4L50.89 35.54V33.93H50.46V35.54L49.32 34.4L49.0201 34.7L50.16 35.84H48.55V36.27H50.16L49.0201 37.41L49.32 37.71L50.46 36.57V38.18H50.89V36.57L52.03 37.71L52.3301 37.41L51.19 36.27H52.8V35.84Z" fill="#F6A723"/>
<path d="M61.6499 34.35H60.0299L61.1699 33.21L60.8699 32.91L59.7299 34.05V32.44H59.3099V34.05L58.1699 32.91L57.8699 33.21L59.0099 34.35H57.3999V34.77H59.0099L57.8699 35.91L58.1699 36.21L59.3099 35.07V36.69H59.7299V35.07L60.8699 36.21L61.1699 35.91L60.0299 34.77H61.6499V34.35Z" fill="#F6A723"/>
<path d="M55.79 27.58H54.18L55.32 26.44L55.02 26.14L53.88 27.28V25.66H53.46V27.28L52.32 26.14L52.02 26.44L53.16 27.58H51.54V28H53.16L52.02 29.14L52.32 29.44L53.46 28.3V29.91H53.88V28.3L55.02 29.44L55.32 29.14L54.18 28H55.79V27.58Z" fill="#F6A723"/>
<path d="M58.6399 41.15H57.0299L58.1699 40.02L57.8699 39.71L56.7299 40.85V39.24H56.3099V40.85L55.1699 39.71L54.8699 40.02L56.0099 41.15H54.3899V41.58H56.0099L54.8699 42.72L55.1699 43.02L56.3099 41.88V43.49H56.7299V41.88L57.8699 43.02L58.1699 42.72L57.0299 41.58H58.6399V41.15Z" fill="#F6A723"/>
<path d="M53.1001 49.03H51.4901L52.6301 47.89L52.3301 47.59L51.1901 48.73V47.12H50.7601V48.73L49.6201 47.59L49.3201 47.89L50.4601 49.03H48.8501V49.46H50.4601L49.3201 50.6L49.6201 50.9L50.7601 49.76V51.37H51.1901V49.76L52.3301 50.9L52.6301 50.6L51.4901 49.46H53.1001V49.03Z" fill="#F6A723"/>
<path d="M64.1101 49.85H62.5001L63.6401 48.71L63.3401 48.41L62.2001 49.55V47.94H61.7801V49.55L60.6401 48.41L60.3401 48.71L61.4801 49.85H59.8701V50.27H61.4801L60.3401 51.41L60.6401 51.71L61.7801 50.57V52.18H62.2001V50.57L63.3401 51.71L63.6401 51.41L62.5001 50.27H64.1101V49.85Z" fill="#F6A723"/>
<path d="M54.4101 12.83C54.4101 12.2998 54.8399 11.87 55.3701 11.87C55.9003 11.87 56.3301 12.2998 56.3301 12.83V14.92C56.3301 15.4502 55.9003 15.88 55.3701 15.88C54.8399 15.88 54.4101 15.4502 54.4101 14.92V12.83Z" fill="#FADDDC"/>
</g>
<defs>
<clipPath id="clip0_1206_3687">
<rect width="59.5" height="106.18" fill="white" transform="matrix(-1 0 0 1 85 2)"/>
</clipPath>
</defs>
</svg>
