<svg width="45" height="106" viewBox="0 0 45 106" fill="none" xmlns="http://www.w3.org/2000/svg">
<g clip-path="url(#clip0_134_852)">
<path d="M38.19 52.83C37.84 54.24 38.73 55.67 40.16 56.02C40.22 56.04 40.29 56.05 40.35 56.06C41.72 56.29 43.06 55.45 43.39 54.1C43.5 53.66 43.6 53.22 43.69 52.79L38.4 51.89C38.33 52.21 38.27 52.52 38.19 52.84V52.83Z" fill="#FADDDC"/>
<path d="M35.18 21.2C34.03 20.29 32.36 20.47 31.43 21.59C30.51 22.71 30.69 24.37 31.83 25.29C32.27 25.64 42.36 34.06 38.4 51.88L43.69 52.78C48.24 31.8 35.72 21.63 35.17 21.2H35.18Z" fill="#FFD517"/>
<path d="M37.23 53.86H10.5L18.24 100.14C18.33 101.01 18.71 102.03 17.76 102.8C17.23 103.23 16.67 103.62 16.14 104.05C15.52 104.56 15.84 105.69 16.61 105.69L21.6 104.67C23.84 104.2 23.53 102.62 23.09 101.4C22.8 100.59 22.62 99.75 22.59 98.89C22.4 93.51 23.09 61.46 23.09 61.46H24.62C24.62 61.46 27.94 92.37 28.19 93.25C28.54 94.5 29.95 94.32 30.44 93.39C30.86 92.59 31.28 89.32 31.36 88.68H32.76L37.23 53.86Z" fill="#3E2967"/>
<path d="M38.04 53.84H9.36996C8.01996 53.84 6.94996 52.7 7.03996 51.35L8.59996 27.84C8.59996 22.81 12.68 18.73 17.71 18.73H29.66C34.69 18.73 38.77 22.81 38.77 27.84L40.38 51.35C40.47 52.7 39.4 53.85 38.05 53.85L38.04 53.84Z" fill="#FCC31E"/>
<path d="M7.05007 55.63C7.52007 57.2 6.63007 58.86 5.05007 59.33C3.76007 59.72 2.41007 59.18 1.71007 58.11C1.56007 57.88 1.44007 57.62 1.35007 57.34C1.15007 56.66 0.970068 55.98 0.820068 55.31L6.76007 54.58C6.85007 54.93 6.94007 55.29 7.05007 55.64V55.63Z" fill="#FADDDC"/>
<path d="M13.8999 22.52C15.1299 23.61 15.2399 25.49 14.1599 26.72C14.0499 26.85 2.97991 39.62 6.76991 54.57L0.829908 55.3C-3.25009 37.6 9.14991 23.39 9.69991 22.77C10.7899 21.54 12.6599 21.44 13.8899 22.52H13.8999Z" fill="#FFD517"/>
<path d="M35.74 30.18H34.12L35.26 29.04L34.96 28.74L33.82 29.88V28.27H33.4V29.88L32.26 28.74L31.96 29.04L33.1 30.18H31.49V30.61H33.1L31.96 31.75L32.26 32.05L33.4 30.91V32.52H33.82V30.91L34.96 32.05L35.26 31.75L34.12 30.61H35.74V30.18Z" fill="#F6A723"/>
<path d="M27.6799 23.65H26.0699L27.1999 22.51L26.8999 22.21L25.7599 23.35V21.74H25.3399V23.35L24.1999 22.21L23.8999 22.51L25.0399 23.65H23.4299V24.08H25.0399L23.8999 25.22L24.1999 25.52L25.3399 24.38V25.99H25.7599V24.38L26.8999 25.52L27.1999 25.22L26.0699 24.08H27.6799V23.65Z" fill="#F6A723"/>
<path d="M27.4299 32.04H25.8199L26.9599 30.9L26.6599 30.6L25.5199 31.74V30.13H25.0899V31.74L23.9499 30.6L23.6499 30.9L24.7899 32.04H23.1799V32.47H24.7899L23.6499 33.61L23.9499 33.91L25.0899 32.77V34.38H25.5199V32.77L26.6599 33.91L26.9599 33.61L25.8199 32.47H27.4299V32.04Z" fill="#F6A723"/>
<path d="M16.5901 30.76H14.9801L16.1201 29.62L15.8201 29.32L14.6801 30.46V28.85H14.2501V30.46L13.1101 29.32L12.8101 29.62L13.9501 30.76H12.3401V31.18H13.9501L12.8101 32.32L13.1101 32.62L14.2501 31.48V33.09H14.6801V31.48L15.8201 32.62L16.1201 32.32L14.9801 31.18H16.5901V30.76Z" fill="#F6A723"/>
<path d="M35.3501 38.7201H33.7301L34.8701 37.5801L34.5701 37.2801L33.4301 38.4201V36.8101H33.0101V38.4201L31.8701 37.2801L31.5701 37.5801L32.7101 38.7201H31.1001V39.1401H32.7101L31.5701 40.2801L31.8701 40.5801L33.0101 39.4401V41.0501H33.4301V39.4401L34.5701 40.5801L34.8701 40.2801L33.7301 39.1401H35.3501V38.7201Z" fill="#F6A723"/>
<path d="M20.23 37.51H18.61L19.75 36.37L19.45 36.07L18.31 37.21V35.6H17.89V37.21L16.75 36.07L16.45 36.37L17.59 37.51H15.98V37.94H17.59L16.45 39.08L16.75 39.38L17.89 38.24V39.85H18.31V38.24L19.45 39.38L19.75 39.08L18.61 37.94H20.23V37.51Z" fill="#F6A723"/>
<path d="M14.6799 45.39H13.0699L14.2099 44.25L13.9099 43.95L12.7699 45.09V43.48H12.3499V45.09L11.2099 43.95L10.9099 44.25L12.0499 45.39H10.4399V45.82H12.0499L10.9099 46.96L11.2099 47.26L12.3499 46.12V47.73H12.7699V46.12L13.9099 47.26L14.2099 46.96L13.0699 45.82H14.6799V45.39Z" fill="#F6A723"/>
<path d="M35.1001 47.43H33.4901L34.6301 46.29L34.3301 45.99L33.1901 47.13V45.52H32.7601V47.13L31.6201 45.99L31.3201 46.29L32.4601 47.43H30.8501V47.85H32.4601L31.3201 48.99L31.6201 49.29L32.7601 48.15V49.77H33.1901V48.15L34.3301 49.29L34.6301 48.99L33.4901 47.85H35.1001V47.43Z" fill="#F6A723"/>
<path d="M25.7 46.21H24.09L25.2299 45.07L24.93 44.77L23.79 45.91V44.29H23.36V45.91L22.2199 44.77L21.92 45.07L23.0599 46.21H21.45V46.63H23.0599L21.92 47.77L22.2199 48.07L23.36 46.93V48.54H23.79V46.93L24.93 48.07L25.2299 47.77L24.09 46.63H25.7V46.21Z" fill="#F6A723"/>
<path d="M25.68 5.38H15.29V13.49C15.29 15.31 16.77 16.79 18.59 16.79H19.64C20.15 16.79 20.57 17.2 20.57 17.72V18.77C20.57 19.84 21.44 20.71 22.51 20.71H23.7C24.77 20.71 25.64 19.84 25.64 18.77L25.68 5.37V5.38Z" fill="#FADDDC"/>
<path d="M24.0699 3.59003H22.1399C21.5099 3.59003 20.9099 3.24003 20.6599 2.66003C20.2999 1.80003 19.4499 1.21003 18.4599 1.21003C18.2399 1.21003 18.0299 1.24003 17.8299 1.30003C17.1399 0.370029 15.9599 -0.179971 14.6699 0.0500288C13.4099 0.280029 12.3899 1.28003 12.1399 2.53003C12.0199 3.10003 12.0699 3.66003 12.2299 4.16003C12.4899 5.47003 13.6499 6.45003 15.0299 6.45003H22.2899C23.0199 6.45003 23.6099 7.04003 23.6099 7.77003V10.07C23.6099 11.21 24.5299 12.13 25.6699 12.13C26.0299 12.13 26.3299 11.84 26.3299 11.47V5.84003C26.3299 4.60003 25.3199 3.59003 24.0799 3.59003H24.0699Z" fill="#3E2967"/>
<path d="M18.65 13.79H18.02C17.46 13.79 17 13.33 17 12.77V9.70003C17 9.47003 17.19 9.28003 17.42 9.28003C17.65 9.28003 17.84 9.47003 17.84 9.70003V12.36C17.84 12.68 18.1 12.94 18.42 12.94H18.64C18.87 12.94 19.06 13.13 19.06 13.37C19.06 13.61 18.87 13.79 18.64 13.79H18.65Z" fill="#E0B1BB"/>
<path d="M20.8299 9.83001C20.8299 10.14 20.5799 10.4 20.2599 10.4C19.9399 10.4 19.6899 10.15 19.6899 9.83001C19.6899 9.51001 19.9399 9.26001 20.2599 9.26001C20.5799 9.26001 20.8299 9.51001 20.8299 9.83001Z" fill="#757570"/>
</g>
<defs>
<clipPath id="clip0_134_852">
<rect width="44.69" height="105.69" fill="white"/>
</clipPath>
</defs>
</svg>
