<svg width="27" height="106" viewBox="0 0 27 106" fill="none" xmlns="http://www.w3.org/2000/svg">
<g clip-path="url(#clip0_134_958)">
<path d="M5.04001 53.03L21.06 52.01L9.56001 73.06L14.3 94.02L11.95 94.76V96.8C12.13 98.23 12.13 99.16 10.61 99.99L6.70001 100.99C5.93001 101.05 5.57001 100.1 6.17001 99.45C6.57001 99.02 7.41001 98.72 7.77001 98.24C9.34001 96.12 8.52001 95.62 8.22001 94.28C6.43001 86.27 0.0100098 72.75 0.0100098 72.75L5.05001 53.02L5.04001 53.03Z" fill="#291B4C"/>
<path d="M9.48999 51.09L25.06 51.46L22.26 100.18L19.94 100.93C19.93 101.52 19.94 102.51 20.19 103.05C20.55 103.85 20.9 105.11 19.7 105.53L13.61 105.98C12.85 105.83 12.71 104.47 13.41 104C13.87 103.69 15.14 103.14 15.62 102.86C16.6 102.27 16.56 101.2 16.37 99.82C14.99 89.85 9.49999 51.08 9.49999 51.08L9.48999 51.09Z" fill="#3E2C6D"/>
<path d="M4.26993 55.24H22.7399C26.4699 55.24 26.2799 51.94 26.1899 50.98L22.0399 27.25C22.0399 23.09 19.6299 19.71 16.0999 19.71H11.7499C10.2499 19.71 8.82993 20.47 8.04993 21.75C2.37993 31.01 4.26993 55.24 4.26993 55.24Z" fill="#FCC31E"/>
<path d="M15.9 5.37H5.51001V14.67C5.51001 16.49 6.99001 17.97 8.81001 17.97H9.86001C10.37 17.97 10.79 18.38 10.79 18.9V19.81C10.79 20.97 12.03 21.7 13.05 21.15L15.7 19.71L15.91 5.37H15.9Z" fill="#FADDDC"/>
<path d="M6.20002 15.1L5.60002 14.93C5.06002 14.78 4.74002 14.21 4.89002 13.67L5.72002 10.71C5.78002 10.48 6.02002 10.35 6.24002 10.42C6.46002 10.49 6.60002 10.72 6.53002 10.94L5.81002 13.5C5.72002 13.81 5.90002 14.13 6.21002 14.21L6.42002 14.27C6.65002 14.33 6.78002 14.57 6.71002 14.79C6.64002 15.01 6.41002 15.15 6.19002 15.08L6.20002 15.1Z" fill="#E0B1BB"/>
<path d="M13.61 3.59003H13.13H12.66C12.04 3.59003 11.45 3.24003 11.2 2.66003C10.84 1.80003 10.01 1.21003 9.03996 1.21003C8.81996 1.21003 8.61996 1.24003 8.41996 1.30003C7.72996 0.370029 6.57996 -0.179971 5.30996 0.0500288C4.06996 0.280029 3.06996 1.28003 2.81996 2.53003C2.70996 3.10003 2.74996 3.66003 2.89996 4.16003C3.15996 5.47003 4.28996 6.45003 5.64996 6.45003H9.89996C11.07 6.45003 11.49 7.64003 11.49 8.37003L11.53 10.65C11.53 11.79 11.84 13.36 14.62 12.92L15.64 14.72C15.95 14.78 16.47 15.1 16.74 13.97V8.95003V7.30003C16.74 6.06003 16.6 3.60003 13.59 3.60003L13.61 3.59003Z" fill="#3E2967"/>
<path d="M7.6499 10.68C7.6499 10.99 7.8999 11.24 8.2099 11.24C8.5199 11.24 8.7699 10.99 8.7699 10.68C8.7699 10.37 8.5199 10.12 8.2099 10.12C7.8999 10.12 7.6499 10.37 7.6499 10.68Z" fill="#757570"/>
<path d="M11.1101 33.8401H9.49011L10.6301 32.7001L10.3301 32.4001L9.19011 33.5401V31.9301H8.77011V33.5401L7.63011 32.4001L7.33011 32.7001L8.47011 33.8401H6.86011V34.2701H8.47011L7.33011 35.4101L7.63011 35.7101L8.77011 34.5701V36.1801H9.19011V34.5701L10.3301 35.7101L10.6301 35.4101L9.49011 34.2701H11.1101V33.8401Z" fill="#F6A723"/>
<path d="M19.95 32.3499H18.34L19.48 31.2099L19.18 30.9099L18.04 32.0499V30.4399H17.61V32.0499L16.47 30.9099L16.17 31.2099L17.31 32.3499H15.7V32.7699H17.31L16.17 33.9099L16.47 34.2099L17.61 33.0699V34.6899H18.04V33.0699L19.18 34.2099L19.48 33.9099L18.34 32.7699H19.95V32.3499Z" fill="#F6A723"/>
<path d="M14.1001 25.58H12.4901L13.6301 24.44L13.3301 24.14L12.1901 25.28V23.66H11.7601V25.28L10.6201 24.14L10.3201 24.44L11.4601 25.58H9.8501V26H11.4601L10.3201 27.14L10.6201 27.44L11.7601 26.3V27.91H12.1901V26.3L13.3301 27.44L13.6301 27.14L12.4901 26H14.1001V25.58Z" fill="#F6A723"/>
<path d="M16.95 39.15H15.34L16.48 38.02L16.18 37.71L15.04 38.85V37.24H14.61V38.85L13.47 37.71L13.17 38.02L14.31 39.15H12.7V39.58H14.31L13.17 40.72L13.47 41.02L14.61 39.88V41.49H15.04V39.88L16.18 41.02L16.48 40.72L15.34 39.58H16.95V39.15Z" fill="#F6A723"/>
<path d="M11.4099 47.03H9.78991L10.9299 45.89L10.6299 45.59L9.48991 46.73V45.12H9.06991V46.73L7.92991 45.59L7.62991 45.89L8.76991 47.03H7.15991V47.46H8.76991L7.62991 48.6L7.92991 48.9L9.06991 47.76V49.37H9.48991V47.76L10.6299 48.9L10.9299 48.6L9.78991 47.46H11.4099V47.03Z" fill="#F6A723"/>
<path d="M22.4199 47.8499H20.8099L21.9499 46.7099L21.6499 46.4099L20.5099 47.5499V45.9399H20.0799V47.5499L18.9399 46.4099L18.6399 46.7099L19.7799 47.8499H18.1699V48.2699H19.7799L18.6399 49.4099L18.9399 49.7099L20.0799 48.5699V50.1799H20.5099V48.5699L21.6499 49.7099L21.9499 49.4099L20.8099 48.2699H22.4199V47.8499Z" fill="#F6A723"/>
<path d="M12.7199 12.92C12.7199 13.4502 13.1497 13.88 13.6799 13.88C14.2101 13.88 14.6399 13.4502 14.6399 12.92V10.83C14.6399 10.2998 14.2101 9.87 13.6799 9.87C13.1497 9.87 12.7199 10.2998 12.7199 10.83V12.92Z" fill="#FADDDC"/>
<path d="M9.56002 55.33C8.51002 56.6 8.69002 58.47 9.96002 59.52C11 60.38 12.45 60.41 13.52 59.69C13.75 59.53 13.96 59.34 14.15 59.12C14.6 58.57 15.03 58.02 15.43 57.46L10.24 54.47C10.02 54.76 9.80002 55.05 9.56002 55.33Z" fill="#FADDDC"/>
<path d="M16.15 22.1699C14.6 22.6899 13.76 24.3799 14.28 25.9399C14.34 26.0999 19.55 42.17 10.24 54.47L15.43 57.4599C26.07 42.7399 20.18 24.8199 19.91 24.0299C19.38 22.4799 17.7 21.6499 16.14 22.1699H16.15Z" fill="#FFD517"/>
</g>
<defs>
<clipPath id="clip0_134_958">
<rect width="26.23" height="105.99" fill="white"/>
</clipPath>
</defs>
</svg>
