<svg width="27" height="106" viewBox="0 0 27 106" fill="none" xmlns="http://www.w3.org/2000/svg">
<g clip-path="url(#clip0_134_916)">
<path d="M21.1899 53.03L5.16992 52.01L16.6699 73.06L11.9299 94.02L14.2799 94.76V96.8C14.0999 98.23 14.0999 99.16 15.6199 99.99L19.5299 100.99C20.2999 101.05 20.6599 100.1 20.0599 99.45C19.6599 99.02 18.8199 98.72 18.4599 98.24C16.8899 96.12 17.7099 95.62 18.0099 94.28C19.7999 86.27 26.2199 72.75 26.2199 72.75L21.1799 53.02L21.1899 53.03Z" fill="#291B4C"/>
<path d="M16.7299 51.09L1.15991 51.46L3.95991 100.18L6.27991 100.93C6.28991 101.52 6.27991 102.51 6.02991 103.05C5.66991 103.85 5.31991 105.11 6.51991 105.53L12.6099 105.98C13.3699 105.83 13.5099 104.47 12.8099 104C12.3499 103.69 11.0799 103.14 10.5999 102.86C9.61991 102.27 9.65991 101.2 9.84991 99.82C11.2299 89.85 16.7199 51.08 16.7199 51.08L16.7299 51.09Z" fill="#3E2C6D"/>
<path d="M21.96 55.24H3.49004C-0.249959 55.24 -0.0599588 51.94 0.0400412 50.98L4.19004 27.25C4.19004 23.09 6.60004 19.71 10.13 19.71H14.48C15.98 19.71 17.4 20.47 18.18 21.75C23.85 31.01 21.96 55.24 21.96 55.24Z" fill="#FCC31E"/>
<path d="M10.3301 5.37H20.7201V14.67C20.7201 16.49 19.2401 17.97 17.4201 17.97H16.3701C15.8601 17.97 15.4401 18.38 15.4401 18.9V19.81C15.4401 20.97 14.2001 21.7 13.1801 21.15L10.5301 19.71L10.3201 5.37H10.3301Z" fill="#FADDDC"/>
<path d="M20.0299 15.1L20.6299 14.93C21.1699 14.78 21.4899 14.21 21.3399 13.67L20.5099 10.71C20.4499 10.48 20.2099 10.35 19.9899 10.42C19.7699 10.49 19.6299 10.72 19.6999 10.94L20.4199 13.5C20.5099 13.81 20.3299 14.13 20.0199 14.21L19.8099 14.27C19.5799 14.33 19.4499 14.57 19.5199 14.79C19.5899 15.01 19.8199 15.15 20.0399 15.08L20.0299 15.1Z" fill="#E0B1BB"/>
<path d="M12.62 3.59003H13.58C14.2 3.59003 14.79 3.24003 15.04 2.66003C15.4 1.80003 16.23 1.21003 17.2 1.21003C17.42 1.21003 17.62 1.24003 17.82 1.30003C18.5 0.370029 19.65 -0.179971 20.92 0.0500288C22.16 0.280029 23.16 1.28003 23.41 2.53003C23.52 3.10003 23.48 3.66003 23.33 4.16003C23.07 5.47003 21.94 6.45003 20.58 6.45003H16.33C15.16 6.45003 14.74 7.64003 14.74 8.37003L14.7 10.65C14.7 11.79 14.39 13.36 11.61 12.92L10.59 14.72C10.28 14.78 9.75999 15.1 9.48999 13.97V8.95003V7.30003C9.48999 6.06003 9.62999 3.60003 12.64 3.60003L12.62 3.59003Z" fill="#3E2967"/>
<path d="M18.57 10.68C18.57 10.99 18.32 11.24 18.01 11.24C17.7 11.24 17.45 10.99 17.45 10.68C17.45 10.37 17.7 10.12 18.01 10.12C18.32 10.12 18.57 10.37 18.57 10.68Z" fill="#757570"/>
<path d="M15.1201 33.8401H16.7301L15.5901 32.7001L15.8901 32.4001L17.0301 33.5401V31.9301H17.4601V33.5401L18.6001 32.4001L18.9001 32.7001L17.7601 33.8401H19.3701V34.2701H17.7601L18.9001 35.4101L18.6001 35.7101L17.4601 34.5701V36.1801H17.0301V34.5701L15.8901 35.7101L15.5901 35.4101L16.7301 34.2701H15.1201V33.8401Z" fill="#F6A723"/>
<path d="M6.28003 32.3499H7.89003L6.75003 31.2099L7.05003 30.9099L8.19003 32.0499V30.4399H8.61003V32.0499L9.75003 30.9099L10.05 31.2099L8.91003 32.3499H10.52V32.7699H8.91003L10.05 33.9099L9.75003 34.2099L8.61003 33.0699V34.6899H8.19003V33.0699L7.05003 34.2099L6.75003 33.9099L7.89003 32.7699H6.28003V32.3499Z" fill="#F6A723"/>
<path d="M12.1299 25.58H13.7399L12.5999 24.44L12.8999 24.14L14.0399 25.28V23.66H14.4599V25.28L15.5999 24.14L15.8999 24.44L14.7599 25.58H16.3799V26H14.7599L15.8999 27.14L15.5999 27.44L14.4599 26.3V27.91H14.0399V26.3L12.8999 27.44L12.5999 27.14L13.7399 26H12.1299V25.58Z" fill="#F6A723"/>
<path d="M9.28003 39.15H10.89L9.75003 38.02L10.05 37.71L11.19 38.85V37.24H11.61V38.85L12.75 37.71L13.05 38.02L11.92 39.15H13.53V39.58H11.92L13.05 40.72L12.75 41.02L11.61 39.88V41.49H11.19V39.88L10.05 41.02L9.75003 40.72L10.89 39.58H9.28003V39.15Z" fill="#F6A723"/>
<path d="M14.8201 47.03H16.4301L15.2901 45.89L15.5901 45.59L16.7301 46.73V45.12H17.1601V46.73L18.3001 45.59L18.6001 45.89L17.4601 47.03H19.0701V47.46H17.4601L18.6001 48.6L18.3001 48.9L17.1601 47.76V49.37H16.7301V47.76L15.5901 48.9L15.2901 48.6L16.4301 47.46H14.8201V47.03Z" fill="#F6A723"/>
<path d="M3.81006 47.8499H5.42006L4.28006 46.7099L4.58006 46.4099L5.72006 47.5499V45.9399H6.14006V47.5499L7.28006 46.4099L7.58006 46.7099L6.44006 47.8499H8.06006V48.2699H6.44006L7.58006 49.4099L7.28006 49.7099L6.14006 48.5699V50.1799H5.72006V48.5699L4.58006 49.7099L4.28006 49.4099L5.42006 48.2699H3.81006V47.8499Z" fill="#F6A723"/>
<path d="M13.5101 10.83C13.5101 10.2998 13.0803 9.87 12.5501 9.87C12.0199 9.87 11.5901 10.2998 11.5901 10.83V12.92C11.5901 13.4502 12.0199 13.88 12.5501 13.88C13.0803 13.88 13.5101 13.4502 13.5101 12.92V10.83Z" fill="#FADDDC"/>
<path d="M16.66 55.33C17.71 56.6 17.53 58.47 16.26 59.52C15.22 60.38 13.77 60.41 12.7 59.69C12.47 59.53 12.26 59.34 12.07 59.12C11.62 58.57 11.19 58.02 10.79 57.46L15.98 54.47C16.2 54.76 16.42 55.05 16.66 55.33Z" fill="#FADDDC"/>
<path d="M10.08 22.1699C11.63 22.6899 12.47 24.3799 11.95 25.9399C11.89 26.0999 6.68001 42.1699 15.99 54.4699L10.8 57.4599C0.150008 42.7299 6.04001 24.8099 6.31001 24.0199C6.84001 22.4699 8.52001 21.6399 10.08 22.1599V22.1699Z" fill="#FFD517"/>
</g>
<defs>
<clipPath id="clip0_134_916">
<rect width="26.23" height="105.99" fill="white"/>
</clipPath>
</defs>
</svg>
