<svg width="110" height="110" viewBox="0 0 110 110" fill="none" xmlns="http://www.w3.org/2000/svg">
<g clip-path="url(#clip0_1206_3090)">
<path d="M86.3799 47.85C87.7299 48.39 88.3799 49.93 87.8299 51.31C87.8099 51.37 87.7799 51.43 87.7499 51.49C87.1399 52.74 85.6799 53.34 84.3899 52.83C83.9699 52.66 83.5499 52.49 83.1399 52.31L85.4799 47.48C85.7799 47.61 86.0699 47.73 86.3799 47.86V47.85Z" fill="#FADDDC"/>
<path d="M27.9399 52.24C27.8199 53.88 26.3899 55.11 24.7499 54.99C23.3999 54.89 22.3299 53.91 22.0599 52.65C21.9999 52.38 21.9799 52.09 21.9999 51.8C22.0499 51.09 22.1299 50.39 22.2299 49.71L28.0399 51.15C27.9999 51.51 27.9599 51.87 27.9299 52.24H27.9399Z" fill="#FADDDC"/>
<path d="M65.8101 56.01H39.0801L44.1101 102.47L47.4401 102C47.5301 102.87 47.2901 104.18 46.3401 104.95C45.8101 105.38 45.2501 105.77 44.7201 106.2C44.1001 106.71 44.4201 107.84 45.1901 107.84L50.1801 106.82C52.4201 106.35 52.1101 104.77 51.6701 103.55C51.3801 102.74 50.9101 101.34 50.9101 101.34L51.9601 101.04L51.6801 63.61H53.2101C53.2101 63.61 56.0401 84.12 56.2901 84.99C56.6401 86.24 58.0501 86.06 58.5401 85.13C58.9601 84.33 59.3801 81.06 59.4601 80.42L61.1601 80.07C62.7301 79.75 63.9101 78.43 64.0401 76.83L65.8201 56.01H65.8101Z" fill="#3E2967"/>
<path d="M62.3601 27.05C62.2901 25.59 63.4001 24.33 64.8501 24.22C66.3001 24.12 67.5401 25.23 67.6301 26.69C67.6601 27.25 68.6601 40.35 85.4801 47.46L83.1401 52.29C63.4101 43.83 62.3901 27.73 62.3501 27.04L62.3601 27.05Z" fill="#FCAD1E"/>
<path d="M67.4301 57.23H38.7601C37.4101 57.23 36.3401 56.09 36.4301 54.74L38.4401 29.84C38.4401 24.81 42.5201 20.73 47.5501 20.73H59.5001C64.5301 20.73 68.6101 24.81 68.6101 29.84L69.7601 54.73C69.8501 56.08 68.7801 57.23 67.4301 57.23Z" fill="#FCC31E"/>
<path d="M46.14 23.75C46.9 25.2 46.33 27 44.88 27.76C44.73 27.84 29.84 35.82 28.05 51.15L22.24 49.71C24.75 31.72 41.41 22.86 42.14 22.48C43.6 21.72 45.39 22.29 46.14 23.74V23.75Z" fill="#FCC31E"/>
<path d="M65.5901 32.18H63.9801L65.1101 31.04L64.8101 30.74L63.6701 31.88V30.27H63.2501V31.88L62.1101 30.74L61.8101 31.04L62.9501 32.18H61.3401V32.61H62.9501L61.8101 33.75L62.1101 34.05L63.2501 32.91V34.52H63.6701V32.91L64.8101 34.05L65.1101 33.75L63.9801 32.61H65.5901V32.18Z" fill="#F6A723"/>
<path d="M57.53 25.65H55.92L57.06 24.51L56.76 24.21L55.62 25.35V23.74H55.19V25.35L54.05 24.21L53.75 24.51L54.89 25.65H53.28V26.08H54.89L53.75 27.22L54.05 27.52L55.19 26.38V27.99H55.62V26.38L56.76 27.52L57.06 27.22L55.92 26.08H57.53V25.65Z" fill="#F6A723"/>
<path d="M57.28 34.04H55.67L56.81 32.9L56.51 32.6L55.37 33.74V32.13H54.95V33.74L53.81 32.6L53.51 32.9L54.65 34.04H53.03V34.47H54.65L53.51 35.61L53.81 35.91L54.95 34.77V36.38H55.37V34.77L56.51 35.91L56.81 35.61L55.67 34.47H57.28V34.04Z" fill="#F6A723"/>
<path d="M46.4399 32.76H44.8299L45.9699 31.62L45.6699 31.32L44.5299 32.46V30.85H44.1099V32.46L42.9699 31.32L42.6699 31.62L43.8099 32.76H42.1899V33.18H43.8099L42.6699 34.32L42.9699 34.62L44.1099 33.48V35.09H44.5299V33.48L45.6699 34.62L45.9699 34.32L44.8299 33.18H46.4399V32.76Z" fill="#F6A723"/>
<path d="M65.2 40.72H63.59L64.7299 39.58L64.43 39.28L63.29 40.42V38.81H62.86V40.42L61.72 39.28L61.4199 39.58L62.56 40.72H60.95V41.14H62.56L61.4199 42.28L61.72 42.58L62.86 41.44V43.05H63.29V41.44L64.43 42.58L64.7299 42.28L63.59 41.14H65.2V40.72Z" fill="#F6A723"/>
<path d="M50.0801 39.51H48.4701L49.6101 38.37L49.3101 38.07L48.1701 39.21V37.6H47.7401V39.21L46.6001 38.07L46.3001 38.37L47.4401 39.51H45.8301V39.94H47.4401L46.3001 41.08L46.6001 41.38L47.7401 40.24V41.85H48.1701V40.24L49.3101 41.38L49.6101 41.08L48.4701 39.94H50.0801V39.51Z" fill="#F6A723"/>
<path d="M44.54 47.39H42.92L44.06 46.25L43.76 45.95L42.62 47.09V45.48H42.2V47.09L41.06 45.95L40.76 46.25L41.9 47.39H40.29V47.82H41.9L40.76 48.96L41.06 49.26L42.2 48.12V49.73H42.62V48.12L43.76 49.26L44.06 48.96L42.92 47.82H44.54V47.39Z" fill="#F6A723"/>
<path d="M64.95 49.43H63.34L64.4799 48.29L64.18 47.99L63.04 49.13V47.52H62.61V49.13L61.47 47.99L61.1699 48.29L62.31 49.43H60.7V49.85H62.31L61.1699 50.99L61.47 51.29L62.61 50.15V51.77H63.04V50.15L64.18 51.29L64.4799 50.99L63.34 49.85H64.95V49.43Z" fill="#F6A723"/>
<path d="M55.55 48.21H53.9401L55.0801 47.07L54.78 46.77L53.64 47.91V46.29H53.21V47.91L52.07 46.77L51.7701 47.07L52.91 48.21H51.3V48.63H52.91L51.7701 49.77L52.07 50.07L53.21 48.93V50.54H53.64V48.93L54.78 50.07L55.0801 49.77L53.9401 48.63H55.55V48.21Z" fill="#F6A723"/>
<path d="M55.5299 7.38H45.1399V15.49C45.1399 17.31 46.6199 18.79 48.4399 18.79H49.4899C49.9999 18.79 50.4199 19.2 50.4199 19.72V20.77C50.4199 21.84 51.2899 22.71 52.3599 22.71H53.5499C54.6199 22.71 55.4899 21.84 55.4899 20.77L55.5299 7.37V7.38Z" fill="#FADDDC"/>
<path d="M53.92 5.59H51.99C51.36 5.59 50.76 5.24 50.51 4.66C50.15 3.8 49.3 3.21 48.31 3.21C48.09 3.21 47.88 3.24 47.68 3.3C46.99 2.37 45.81 1.82 44.52 2.05C43.26 2.28 42.24 3.28 41.99 4.53C41.87 5.1 41.92 5.66 42.08 6.16C42.34 7.47 43.5 8.45 44.88 8.45H52.14C52.87 8.45 53.46 9.04 53.46 9.77V12.07C53.46 13.21 54.38 14.13 55.52 14.13C55.88 14.13 56.18 13.84 56.18 13.47V7.84C56.18 6.6 55.17 5.59 53.93 5.59H53.92Z" fill="#3E2967"/>
<path d="M48.5001 15.79H47.8701C47.3101 15.79 46.8501 15.33 46.8501 14.77V11.7C46.8501 11.47 47.0401 11.28 47.2701 11.28C47.5001 11.28 47.6901 11.47 47.6901 11.7V14.36C47.6901 14.68 47.9501 14.94 48.2701 14.94H48.4901C48.7201 14.94 48.9101 15.13 48.9101 15.37C48.9101 15.61 48.7201 15.79 48.4901 15.79H48.5001Z" fill="#E0B1BB"/>
<path d="M50.68 11.83C50.68 12.14 50.43 12.4 50.11 12.4C49.79 12.4 49.54 12.15 49.54 11.83C49.54 11.51 49.79 11.26 50.11 11.26C50.43 11.26 50.68 11.51 50.68 11.83Z" fill="#757570"/>
</g>
<defs>
<clipPath id="clip0_1206_3090">
<rect width="66.03" height="105.85" fill="white" transform="translate(22 2)"/>
</clipPath>
</defs>
</svg>
