<svg width="110" height="110" viewBox="0 0 110 110" fill="none" xmlns="http://www.w3.org/2000/svg">
<g clip-path="url(#clip0_1206_3283)">
<path d="M39.1899 56.02H65.9199L60.8899 102.48L57.5599 102.01C57.4699 102.88 57.7099 104.19 58.6599 104.96C59.1899 105.39 59.7499 105.78 60.2799 106.21C60.8999 106.72 60.5799 107.85 59.8099 107.85L54.8199 106.83C52.5799 106.36 52.8899 104.78 53.3299 103.56C53.6199 102.75 54.0899 101.35 54.0899 101.35L53.0399 101.05L53.3199 63.62H51.7899C51.7899 63.62 48.9599 84.13 48.7099 85C48.3599 86.25 46.9499 86.07 46.4599 85.14C46.0399 84.34 45.6199 81.07 45.5399 80.43L43.8399 80.08C42.2699 79.76 41.0899 78.44 40.9599 76.84L39.1799 56.02H39.1899Z" fill="#3E2967"/>
<path d="M75.8401 54.87C76.8601 55.9 76.8401 57.58 75.7901 58.62C75.7401 58.67 75.7001 58.71 75.6501 58.75C74.5901 59.66 73.0101 59.62 72.0301 58.63C71.7101 58.31 71.4001 57.98 71.1001 57.66L75.1801 54.16C75.4001 54.39 75.6201 54.63 75.8501 54.86L75.8401 54.87Z" fill="#FADDDC"/>
<path d="M36.2801 56.84C36.6901 58.43 35.7301 60.05 34.1401 60.46C32.8301 60.8 31.5001 60.21 30.8501 59.11C30.7101 58.87 30.6001 58.61 30.5201 58.32C30.3401 57.63 30.1901 56.95 30.0601 56.27L36.0301 55.77C36.1101 56.13 36.1901 56.48 36.2801 56.84Z" fill="#FADDDC"/>
<path d="M62.1499 26.2C62.6699 24.83 64.1899 24.12 65.5599 24.61C66.9299 25.1 67.6299 26.61 67.1199 27.99C66.9299 28.52 62.5999 40.92 75.1699 54.17L71.0899 57.67C56.3899 42.02 61.8999 26.86 62.1399 26.21L62.1499 26.2Z" fill="#FCAD1E"/>
<path d="M67.4301 57.24H38.7701C37.4201 57.24 36.3501 56.1 36.4401 54.75L38.4501 29.85C38.4501 24.82 42.5301 20.74 47.5601 20.74H59.5101C64.5401 20.74 68.6201 24.82 68.6201 29.85L69.7701 54.74C69.8601 56.09 68.7901 57.24 67.4401 57.24H67.4301Z" fill="#FCC31E"/>
<path d="M44.3901 24.01C45.5801 25.14 45.6201 27.03 44.4801 28.21C44.3601 28.34 32.8201 40.67 36.0201 55.76L30.0501 56.26C26.6601 38.41 39.6101 24.69 40.1801 24.09C41.3201 22.91 43.1901 22.87 44.3801 24.01H44.3901Z" fill="#FCC31E"/>
<path d="M65.5901 32.19H63.9801L65.1201 31.05L64.8201 30.75L63.6801 31.89V30.28H63.2601V31.89L62.1201 30.75L61.8201 31.05L62.9501 32.19H61.3401V32.61H62.9501L61.8201 33.75L62.1201 34.05L63.2601 32.91V34.52H63.6801V32.91L64.8201 34.05L65.1201 33.75L63.9801 32.61H65.5901V32.19Z" fill="#F6A723"/>
<path d="M57.53 25.66H55.92L57.06 24.52L56.76 24.22L55.62 25.36V23.74H55.2V25.36L54.06 24.22L53.76 24.52L54.9 25.66H53.28V26.08H54.9L53.76 27.22L54.06 27.52L55.2 26.38V27.99H55.62V26.38L56.76 27.52L57.06 27.22L55.92 26.08H57.53V25.66Z" fill="#F6A723"/>
<path d="M57.29 34.05H55.68L56.82 32.91L56.52 32.61L55.38 33.75V32.13H54.95V33.75L53.81 32.61L53.51 32.91L54.65 34.05H53.04V34.47H54.65L53.51 35.61L53.81 35.91L54.95 34.77V36.38H55.38V34.77L56.52 35.91L56.82 35.61L55.68 34.47H57.29V34.05Z" fill="#F6A723"/>
<path d="M46.45 32.76H44.84L45.98 31.62L45.68 31.32L44.54 32.46V30.85H44.11V32.46L42.97 31.32L42.67 31.62L43.81 32.76H42.2V33.19H43.81L42.67 34.32L42.97 34.63L44.11 33.49V35.1H44.54V33.49L45.68 34.63L45.98 34.32L44.84 33.19H46.45V32.76Z" fill="#F6A723"/>
<path d="M65.2 40.72H63.59L64.7299 39.58L64.43 39.28L63.29 40.42V38.81H62.8699V40.42L61.7299 39.28L61.43 39.58L62.57 40.72H60.95V41.15H62.57L61.43 42.29L61.7299 42.59L62.8699 41.45V43.06H63.29V41.45L64.43 42.59L64.7299 42.29L63.59 41.15H65.2V40.72Z" fill="#F6A723"/>
<path d="M50.0801 39.52H48.4701L49.6101 38.38L49.3101 38.08L48.1701 39.22V37.6H47.7501V39.22L46.6101 38.08L46.3101 38.38L47.4501 39.52H45.8301V39.94H47.4501L46.3101 41.08L46.6101 41.38L47.7501 40.24V41.85H48.1701V40.24L49.3101 41.38L49.6101 41.08L48.4701 39.94H50.0801V39.52Z" fill="#F6A723"/>
<path d="M44.54 47.4H42.93L44.07 46.26L43.77 45.96L42.63 47.1V45.48H42.2V47.1L41.06 45.96L40.76 46.26L41.9 47.4H40.29V47.82H41.9L40.76 48.96L41.06 49.26L42.2 48.12V49.73H42.63V48.12L43.77 49.26L44.07 48.96L42.93 47.82H44.54V47.4Z" fill="#F6A723"/>
<path d="M64.95 49.43H63.34L64.48 48.29L64.18 47.99L63.04 49.13V47.52H62.62V49.13L61.48 47.99L61.18 48.29L62.32 49.43H60.71V49.86H62.32L61.18 51L61.48 51.3L62.62 50.16V51.77H63.04V50.16L64.18 51.3L64.48 51L63.34 49.86H64.95V49.43Z" fill="#F6A723"/>
<path d="M55.5501 48.21H53.9401L55.0801 47.07L54.7801 46.77L53.6401 47.91V46.3H53.2201V47.91L52.0801 46.77L51.7801 47.07L52.9201 48.21H51.3101V48.64H52.9201L51.7801 49.77L52.0801 50.08L53.2201 48.94V50.55H53.6401V48.94L54.7801 50.08L55.0801 49.77L53.9401 48.64H55.5501V48.21Z" fill="#F6A723"/>
<path d="M56.0601 8.14999L45.7401 6.95999L44.8101 15.02C44.6001 16.83 45.9001 18.47 47.7101 18.68L48.7501 18.8C49.2601 18.86 49.6201 19.32 49.5601 19.83L49.4401 20.88C49.3201 21.95 50.0801 22.91 51.1501 23.03L52.3301 23.17C53.3901 23.29 54.3601 22.53 54.4801 21.47L56.0501 8.15999L56.0601 8.14999Z" fill="#FADDDC"/>
<path d="M54.6699 6.20001L54.2099 6.15001L52.7599 5.98001C52.1299 5.91001 51.5699 5.49001 51.3999 4.89001C51.1399 4.00001 50.3599 3.31001 49.3799 3.19001C49.1599 3.16001 48.9499 3.17001 48.7399 3.20001C48.1499 2.20001 47.0399 1.52001 45.7299 1.60001C44.4499 1.68001 43.3299 2.56001 42.9299 3.78001C42.7499 4.34001 42.7299 4.89001 42.8299 5.41001C42.9399 6.74001 43.9799 7.85001 45.3499 8.00001L52.5599 8.83001C53.2799 8.91001 53.7999 9.57001 53.7199 10.29L53.4599 12.57C53.3299 13.7 54.1399 14.72 55.2699 14.85C55.6299 14.89 55.9499 14.63 55.9999 14.27L56.5699 9.28001L56.6399 8.67001C56.7799 7.44001 55.8999 6.32001 54.6599 6.18001L54.6699 6.20001Z" fill="#3E2967"/>
<path d="M48.12 15.71L47.4999 15.64C46.9399 15.58 46.5399 15.07 46.5999 14.51L46.95 11.46C46.98 11.23 47.1899 11.06 47.4199 11.09C47.6499 11.12 47.82 11.33 47.79 11.56L47.4899 14.2C47.4499 14.52 47.6799 14.8 47.9999 14.84L48.2199 14.87C48.4499 14.9 48.6199 15.11 48.5899 15.34C48.5599 15.57 48.35 15.74 48.12 15.71Z" fill="#E0B1BB"/>
<path d="M50.7399 12.02C50.6999 12.33 50.4199 12.55 50.1099 12.52C49.7999 12.49 49.5799 12.2 49.6099 11.89C49.6399 11.58 49.9299 11.36 50.2399 11.39C50.5499 11.42 50.7699 11.71 50.7399 12.02Z" fill="#757570"/>
</g>
<defs>
<clipPath id="clip0_1206_3283">
<rect width="47.1" height="106.25" fill="white" transform="translate(29.5 1.60001)"/>
</clipPath>
</defs>
</svg>
