<svg width="54" height="106" viewBox="0 0 54 106" fill="none" xmlns="http://www.w3.org/2000/svg">
<g clip-path="url(#clip0_134_896)">
<path d="M30.8101 56.16L18.9501 55.71L12.4201 77.61L0.0101027 95.15L2.3201 96.99C2.0501 97.49 1.5601 98.3 1.0901 98.61C0.400103 99.07 -0.489897 99.92 0.320103 100.95L5.2401 104.76C5.9501 105.06 6.7201 104.01 6.3601 103.23C6.1201 102.71 5.3101 101.54 5.0401 101.04C4.4901 100 5.1501 99.22 5.8601 98.09C10.1501 91.36 20.1701 81.07 20.1701 81.07L30.8101 56.16Z" fill="#291B4C"/>
<path d="M33.72 54.63L14.24 55.42L35.5 79.94L42.81 102.1L45.56 101.71L46.45 103.47C47.37 105.44 47.49 106.28 49.02 105.52L52.82 104.03C53.51 103.68 53.4 102.68 52.6 102.44C52.06 102.28 51.24 102.25 50.69 102.22C48.63 102.12 48.91 100.68 48.58 99.38C46.6 91.57 45.7 85.3 43.46 77.42C42.18 72.91 33.71 54.64 33.71 54.64L33.72 54.63Z" fill="#3F3072"/>
<path d="M49.2201 44.68C50.7701 45.22 51.59 46.92 51.05 48.47C50.61 49.74 49.38 50.52 48.1 50.46C47.82 50.45 47.54 50.39 47.26 50.3C46.59 50.07 45.94 49.81 45.3 49.54L48.19 44.29C48.53 44.42 48.8701 44.55 49.2201 44.68Z" fill="#FADDDC"/>
<path d="M26.3901 19.7401C27.9901 19.3801 29.5801 20.3901 29.9401 21.9901C29.9801 22.1601 33.8401 38.6001 48.1801 44.3001L45.2901 49.5501C28.5601 42.4801 24.3101 24.1001 24.1301 23.2901C23.7801 21.6901 24.7901 20.1101 26.3901 19.7501V19.7401Z" fill="#FFD517"/>
<path d="M34.45 55.24H15.98C12.25 55.24 12.44 51.94 12.53 50.98L16.68 27.25C16.68 23.09 19.09 19.71 22.62 19.71H26.97C28.47 19.71 29.89 20.47 30.67 21.75C36.34 31.01 34.45 55.24 34.45 55.24Z" fill="#FCC31E"/>
<path d="M11.7399 52.82C11.9599 54.45 10.8099 55.94 9.17988 56.16C7.83988 56.34 6.58988 55.6 6.06988 54.42C5.95988 54.17 5.87988 53.89 5.83988 53.6C5.74988 52.89 5.67988 52.2 5.62988 51.51L11.6099 51.73C11.6399 52.09 11.6799 52.46 11.7299 52.82H11.7399Z" fill="#FADDDC"/>
<path d="M23.73 21.22C24.77 22.49 24.58 24.36 23.32 25.4C23.19 25.51 10.24 36.36 11.62 51.73L5.63998 51.51C4.41998 33.39 18.92 21.32 19.56 20.79C20.83 19.75 22.7 19.94 23.74 21.21L23.73 21.22Z" fill="#FFD517"/>
<path d="M22.8201 5.37H33.2101V14.67C33.2101 16.49 31.7301 17.97 29.9101 17.97H28.8601C28.3501 17.97 27.9301 18.38 27.9301 18.9V19.81C27.9301 20.97 26.6901 21.7 25.6701 21.15L23.0201 19.71L22.8101 5.37H22.8201Z" fill="#FADDDC"/>
<path d="M32.5199 15.1L33.1199 14.93C33.6599 14.78 33.9799 14.21 33.8299 13.67L32.9999 10.71C32.9399 10.48 32.6999 10.35 32.4799 10.42C32.2599 10.49 32.1199 10.72 32.1899 10.94L32.9099 13.5C32.9999 13.81 32.8199 14.13 32.5099 14.21L32.2999 14.27C32.0699 14.33 31.9399 14.57 32.0099 14.79C32.0799 15.01 32.3099 15.15 32.5299 15.08L32.5199 15.1Z" fill="#E0B1BB"/>
<path d="M25.11 3.59003H26.07C26.69 3.59003 27.28 3.24003 27.53 2.66003C27.89 1.80003 28.72 1.21003 29.69 1.21003C29.91 1.21003 30.11 1.24003 30.31 1.30003C30.99 0.370029 32.14 -0.179971 33.41 0.0500288C34.65 0.280029 35.65 1.28003 35.9 2.53003C36.01 3.10003 35.97 3.66003 35.82 4.16003C35.56 5.47003 34.43 6.45003 33.07 6.45003H28.82C27.65 6.45003 27.23 7.64003 27.23 8.37003L27.19 10.65C27.19 11.79 26.88 13.36 24.1 12.92L23.08 14.72C22.77 14.78 22.25 15.1 21.98 13.97V8.95003V7.30003C21.98 6.06003 22.12 3.60003 25.13 3.60003L25.11 3.59003Z" fill="#3E2967"/>
<path d="M31.07 10.68C31.07 10.99 30.82 11.24 30.51 11.24C30.2 11.24 29.95 10.99 29.95 10.68C29.95 10.37 30.2 10.12 30.51 10.12C30.82 10.12 31.07 10.37 31.07 10.68Z" fill="#757570"/>
<path d="M27.6201 33.8401H29.2301L28.0901 32.7001L28.3901 32.4001L29.5301 33.5401V31.9301H29.9501V33.5401L31.0901 32.4001L31.3901 32.7001L30.2501 33.8401H31.8601V34.2701H30.2501L31.3901 35.4101L31.0901 35.7101L29.9501 34.5701V36.1801H29.5301V34.5701L28.3901 35.7101L28.0901 35.4101L29.2301 34.2701H27.6201V33.8401Z" fill="#F6A723"/>
<path d="M18.77 32.3499H20.38L19.24 31.2099L19.54 30.9099L20.68 32.0499V30.4399H21.11V32.0499L22.25 30.9099L22.55 31.2099L21.41 32.3499H23.02V32.7699H21.41L22.55 33.9099L22.25 34.2099L21.11 33.0699V34.6899H20.68V33.0699L19.54 34.2099L19.24 33.9099L20.38 32.7699H18.77V32.3499Z" fill="#F6A723"/>
<path d="M24.6201 25.58H26.2301L25.0901 24.44L25.4001 24.14L26.5301 25.28V23.66H26.9601V25.28L28.1001 24.14L28.4001 24.44L27.2601 25.58H28.8701V26H27.2601L28.4001 27.14L28.1001 27.44L26.9601 26.3V27.91H26.5301V26.3L25.4001 27.44L25.0901 27.14L26.2301 26H24.6201V25.58Z" fill="#F6A723"/>
<path d="M21.77 39.15H23.38L22.24 38.02L22.55 37.71L23.68 38.85V37.24H24.11V38.85L25.25 37.71L25.55 38.02L24.41 39.15H26.02V39.58H24.41L25.55 40.72L25.25 41.02L24.11 39.88V41.49H23.68V39.88L22.55 41.02L22.24 40.72L23.38 39.58H21.77V39.15Z" fill="#F6A723"/>
<path d="M27.3101 47.03H28.9301L27.7901 45.89L28.0901 45.59L29.2301 46.73V45.12H29.6501V46.73L30.7901 45.59L31.0901 45.89L29.9501 47.03H31.5601V47.46H29.9501L31.0901 48.6L30.7901 48.9L29.6501 47.76V49.37H29.2301V47.76L28.0901 48.9L27.7901 48.6L28.9301 47.46H27.3101V47.03Z" fill="#F6A723"/>
<path d="M16.3 47.8499H17.91L16.7701 46.7099L17.07 46.4099L18.21 47.5499V45.9399H18.64V47.5499L19.7801 46.4099L20.08 46.7099L18.9401 47.8499H20.55V48.2699H18.9401L20.08 49.4099L19.7801 49.7099L18.64 48.5699V50.1799H18.21V48.5699L17.07 49.7099L16.7701 49.4099L17.91 48.2699H16.3V47.8499Z" fill="#F6A723"/>
<path d="M26.0101 10.83C26.0101 10.2998 25.5803 9.87 25.0501 9.87C24.5199 9.87 24.0901 10.2998 24.0901 10.83V12.92C24.0901 13.4502 24.5199 13.88 25.0501 13.88C25.5803 13.88 26.0101 13.4502 26.0101 12.92V10.83Z" fill="#FADDDC"/>
</g>
<defs>
<clipPath id="clip0_134_896">
<rect width="53.29" height="105.79" fill="white"/>
</clipPath>
</defs>
</svg>
