<svg width="45" height="107" viewBox="0 0 45 107" fill="none" xmlns="http://www.w3.org/2000/svg">
<g clip-path="url(#clip0_134_986)">
<path d="M19.5299 17.9301H24.1399V14.5801H19.5299V17.9301Z" fill="#FADDDC"/>
<path d="M16.6299 10.94H17.1899V8.39002C17.1899 7.98002 16.8599 7.64001 16.4399 7.64001H16.1399C15.7299 7.64001 15.3899 7.97002 15.3899 8.39002L15.7399 10.06C15.7399 10.55 16.1299 10.94 16.6199 10.94H16.6299Z" fill="#FADDDC"/>
<path d="M27.7499 10.94H27.1899V8.39002C27.1899 7.98002 27.5199 7.64001 27.9399 7.64001H28.2399C28.6499 7.64001 28.9899 7.97002 28.9899 8.39002L28.6399 10.06C28.6399 10.55 28.2499 10.94 27.7599 10.94H27.7499Z" fill="#FADDDC"/>
<path d="M20.8301 0.89005C22.2101 0.62005 24.3301 0.32005 25.8501 1.93005C27.3701 3.54005 28.1101 4.59005 28.1101 6.04005C28.1101 7.49005 28.0101 8.72005 27.7601 9.70005C27.5101 10.68 26.4601 13.9601 24.4301 15.2701C23.4601 15.9001 20.8701 16.2801 19.5701 15.2701C18.2701 14.2601 17.1401 12.9401 16.8201 10.8601C16.5001 8.78005 16.4801 8.40005 16.1301 7.42005C15.7801 6.44005 16.3501 4.30005 16.4801 3.76005C16.6101 3.22005 18.2101 1.39005 20.8301 0.89005Z" fill="#3E2967"/>
<path d="M37.81 53.09C37.49 54.74 38.56 56.34 40.2 56.66C41.55 56.93 42.87 56.25 43.48 55.09C43.61 54.84 43.71 54.56 43.77 54.27C43.91 53.56 44.02 52.85 44.12 52.15L38 51.99C37.94 52.36 37.88 52.73 37.81 53.1V53.09Z" fill="#FADDDC"/>
<path d="M27.62 20.08C26.48 21.31 26.55 23.23 27.77 24.37C27.9 24.49 40.4 36.39 38.01 51.98L44.13 52.14C46.54 33.74 32.54 20.49 31.92 19.92C30.69 18.78 28.77 18.85 27.63 20.08H27.62Z" fill="#FFD517"/>
<path d="M5.81006 49.6101C5.92006 51.1801 4.74006 52.5401 3.18006 52.6501C3.11006 52.6501 3.04006 52.6501 2.97006 52.6501C1.49006 52.6501 0.240059 51.51 0.140059 50.01C0.100059 49.52 0.0800586 49.03 0.0600586 48.55H5.76006C5.78006 48.9 5.79006 49.24 5.81006 49.6V49.6101Z" fill="#FADDDC"/>
<path d="M12.4899 18.99C13.8599 18.23 15.5699 18.72 16.3399 20.08C17.1099 21.44 16.6199 23.17 15.2599 23.95C14.7399 24.25 4.77988 28.84 5.74988 48.55H0.0598827C-0.970117 25.38 11.8399 19.35 12.4899 18.99Z" fill="#FFD517"/>
<path d="M7.81005 52.1H35.32L35.3101 27.1C35.3101 21.96 31.14 17.79 26 17.79H17.11C11.97 17.79 7.80005 21.96 7.80005 27.1L7.82005 52.1H7.81005Z" fill="#FCC31E"/>
<path d="M7.81006 52.1H20.3801H35.3201C35.3201 52.1 27.0701 99.16 28.4401 98.59C29.0901 98.32 29.5001 98.19 30.0401 98.68C30.6801 99.26 30.1901 100.96 29.6201 101.87L23.7901 106.51C21.4901 105.98 21.8001 104.18 22.2501 102.8C22.5501 101.89 22.7301 100.93 22.7701 99.96C22.9601 93.86 23.9101 66.62 24.0701 62.09C24.1101 61.05 23.2301 59.93 22.3601 59.93H20.7801C19.9101 59.93 19.1601 60.68 19.0101 61.7C18.3201 66.35 19.2301 69.85 19.4801 83.96C19.4801 83.96 19.3301 88.14 19.0801 89.14C18.7201 90.56 17.2701 90.35 16.7701 89.3C16.3401 88.39 15.9001 84.68 15.8201 83.96H14.3801L7.81006 52.11V52.1Z" fill="#3E2967"/>
<path d="M22.7799 7.06C25.1934 7.06 27.1499 5.47957 27.1499 3.53C27.1499 1.58043 25.1934 0 22.7799 0C20.3664 0 18.4099 1.58043 18.4099 3.53C18.4099 5.47957 20.3664 7.06 22.7799 7.06Z" fill="#3E2967"/>
</g>
<defs>
<clipPath id="clip0_134_986">
<rect width="44.4" height="106.5" fill="white"/>
</clipPath>
</defs>
</svg>
