<svg width="110" height="110" viewBox="0 0 110 110" fill="none" xmlns="http://www.w3.org/2000/svg">
<g clip-path="url(#clip0_1206_3807)">
<path d="M74.93 57.79C74.59 59.63 75.87 61.46 77.78 61.87C79.35 62.21 80.87 61.48 81.55 60.19C81.7 59.91 81.81 59.6 81.87 59.27C82.02 58.47 82.13 57.68 82.22 56.9L75.12 56.55C75.06 56.96 75 57.37 74.92 57.79H74.93Z" fill="#FADDDC"/>
<path d="M68.78 56.6L44.12 56.71L49.34 99.14C49.34 99.14 51.93 100.85 51.94 100.91C52.15 102.27 51.94 103.42 49.93 102.15C49.35 101.78 48.89 101.76 48.36 102.24C47.73 102.81 48.21 104.47 48.77 105.36L53.72 109.3C54.31 109.77 55.18 109.82 55.73 109.3C56.58 108.52 56.34 107.27 55.98 106.26C54.61 102.34 55.03 101.89 55.03 101.89L55.8 102.15C56.3 102.32 56.8 101.93 56.76 101.41C56.36 96.26 55.34 69.82 55.16 65.07C55.14 64.67 55.46 64.33 55.86 64.32L56.92 64.3C57.24 64.3 57.55 64.52 57.55 64.84C57.58 71.2 57.66 81.17 57.75 81.17C57.75 81.17 58.22 85.42 58.47 86.39C58.82 87.77 60.24 87.58 60.73 86.55C61.15 85.66 61.27 82.94 61.35 82.23H63.53L68.78 56.59V56.6Z" fill="#3E2967"/>
<path d="M62.38 20.38C61.08 21.73 61.2 23.89 62.65 25.21C62.8 25.35 77.56 39.09 75.13 56.55L82.23 56.9C84.61 36.27 68.08 20.98 67.35 20.32C65.9 19 63.68 19.03 62.38 20.38Z" fill="#FCC31E"/>
<path d="M40.74 43C40.85 44.23 39.68 45.29 38.14 45.38C38.07 45.38 38 45.38 37.94 45.38C36.48 45.38 35.24 44.48 35.14 43.31C35.11 42.92 35.08 42.55 35.06 42.17H40.7C40.72 42.44 40.73 42.71 40.75 42.99L40.74 43Z" fill="#FADDDC"/>
<path d="M47.3398 19C48.6898 18.4 50.3898 18.79 51.1498 19.86C51.9098 20.93 51.4298 22.29 50.0898 22.89C49.5698 23.12 39.7298 26.73 40.6898 42.18H35.0498C34.0398 24.01 46.6998 19.28 47.3398 19Z" fill="#FCAD1E"/>
<path d="M42.6199 57.09H70.1299L70.1199 27.19C70.1199 22.05 65.9499 17.88 60.8099 17.88H51.9199C46.7799 17.88 42.6099 22.05 42.6099 27.19L42.6299 57.09H42.6199Z" fill="#FCC31E"/>
<path d="M59.3451 14.67H54.7351V18.02H59.3451V14.67Z" fill="#FADDDC"/>
<path d="M62.2451 11.03H61.6851V8.48001C61.6851 8.07001 62.0151 7.73001 62.4351 7.73001H62.7351C63.1451 7.73001 63.4851 8.06001 63.4851 8.48001L63.1351 10.15C63.1351 10.64 62.7451 11.03 62.2551 11.03H62.2451Z" fill="#FADDDC"/>
<path d="M51.125 11.03H51.685V8.48001C51.685 8.07001 51.355 7.73001 50.935 7.73001H50.635C50.225 7.73001 49.885 8.06001 49.885 8.48001L50.235 10.15C50.235 10.64 50.625 11.03 51.115 11.03H51.125Z" fill="#FADDDC"/>
<path d="M58.6952 1.78001C57.3152 1.51001 55.4552 1.48001 53.4252 2.77001C51.5652 3.95001 50.8452 5.77001 50.8452 7.22001C50.8452 8.67001 50.8752 8.82001 51.1252 9.80001C51.3752 10.78 52.4252 14.06 54.4552 15.37C55.4252 16 58.0152 16.38 59.3152 15.37C60.6152 14.36 61.7452 13.04 62.0652 10.96C62.3852 8.88001 62.4052 8.50001 62.7552 7.52001C63.1052 6.54001 62.7852 5.13001 62.6552 4.59001C62.5252 4.05001 61.3152 2.29001 58.7052 1.79001L58.6952 1.78001Z" fill="#3E2967"/>
<path d="M62.4852 6.89C62.4852 6.89 64.3552 5.24 63.6352 3.65C62.9152 2.06 60.3952 0.68 59.0252 1.07C57.6552 1.46 55.9452 0.91 54.7952 1.45C53.6452 1.99 52.2652 2.6 52.4352 3.81C52.6052 5.02 54.4152 8.42 55.2952 8.7C56.1752 8.98 62.4952 6.89 62.4952 6.89H62.4852Z" fill="#3E2967"/>
</g>
<defs>
<clipPath id="clip0_1206_3807">
<rect width="47.46" height="108.67" fill="white" transform="matrix(-1 0 0 1 82.46 1)"/>
</clipPath>
</defs>
</svg>
