<svg width="110" height="110" viewBox="0 0 110 110" fill="none" xmlns="http://www.w3.org/2000/svg">
<g clip-path="url(#clip0_1206_3507)">
<path d="M63.4599 58.11L47.1299 58.21L64.6899 81.72L72.0699 104.4L74.8499 104L75.7499 105.8C76.6799 107.82 76.7999 108.68 78.3399 107.89L82.1699 106.37C82.8699 106.02 82.7599 104.99 81.9399 104.74C81.3999 104.57 80.5699 104.55 80.0099 104.52C77.9299 104.42 78.2099 102.95 77.8799 101.61C75.8799 93.62 74.9799 87.2 72.7099 79.13C71.4199 74.51 63.4399 58.11 63.4399 58.11H63.4599Z" fill="#291B4C"/>
<path d="M60.9 58.32L43.37 58.37L41.4 79.33L28.88 97.29L31.21 99.18C30.93 99.69 30.44 100.52 29.97 100.84C29.28 101.31 28.38 102.18 29.19 103.23L34.15 107.13C34.87 107.44 35.64 106.37 35.28 105.56C35.04 105.03 34.22 103.83 33.95 103.31C33.4 102.25 34.06 101.44 34.78 100.29C39.11 93.41 49.22 82.87 49.22 82.87L60.9 58.31V58.32Z" fill="#3F3072"/>
<path d="M31.2399 48.7C30.6399 50.23 28.9099 50.98 27.3799 50.38C26.1199 49.89 25.3899 48.63 25.5099 47.35C25.5299 47.07 25.5999 46.79 25.7099 46.52C25.9699 45.86 26.2499 45.22 26.5499 44.59L31.6799 47.69C31.5299 48.02 31.3899 48.36 31.2499 48.7H31.2399Z" fill="#FADDDC"/>
<path d="M57.07 26.89C57.36 28.5 56.29 30.05 54.68 30.35C54.51 30.38 37.93 33.59 31.67 47.69L26.54 44.59C34.27 28.15 52.81 24.64 53.62 24.49C55.23 24.2 56.78 25.27 57.07 26.89Z" fill="#FCAD1E"/>
<path d="M65.19 58.12H44.76C41.03 58.12 41.22 54.82 41.31 53.86L44.1 31.2C45.23 27.44 42.01 25.6 52.21 21.71H56.56C58.06 21.71 59.48 22.47 60.26 23.75C65.93 33.01 65.2 58.12 65.2 58.12H65.19Z" fill="#FCC31E"/>
<path d="M52.3999 7.37H62.7899V16.67C62.7899 18.49 61.3099 19.97 59.4899 19.97H58.4399C57.9299 19.97 57.5099 20.38 57.5099 20.9V21.81C57.5099 22.97 56.2699 23.7 55.2499 23.15L52.5999 21.71L52.3899 7.37H52.3999Z" fill="#FADDDC"/>
<path d="M62.1 17.1L62.7 16.93C63.24 16.78 63.56 16.21 63.41 15.67L62.58 12.71C62.52 12.48 62.28 12.35 62.06 12.42C61.84 12.49 61.7 12.72 61.77 12.94L62.49 15.5C62.58 15.81 62.4 16.13 62.09 16.21L61.88 16.27C61.65 16.33 61.52 16.57 61.59 16.79C61.66 17.01 61.89 17.15 62.11 17.08L62.1 17.1Z" fill="#E0B1BB"/>
<path d="M54.6901 5.59H55.6501C56.2701 5.59 56.8601 5.24 57.1101 4.66C57.4701 3.8 58.3001 3.21 59.2701 3.21C59.4901 3.21 59.6901 3.24 59.8901 3.3C60.5701 2.37 61.7201 1.82 62.9901 2.05C64.2301 2.28 65.2301 3.28 65.4801 4.53C65.5901 5.1 65.5501 5.66 65.4001 6.16C65.1401 7.47 64.0101 8.45 62.6501 8.45H58.4001C57.2301 8.45 56.8101 9.64 56.8101 10.37L56.7701 12.65C56.7701 13.79 56.4601 15.36 53.6801 14.92L52.6601 16.72C52.3501 16.78 51.8301 17.1 51.5601 15.97V10.95V9.3C51.5601 8.06 51.7001 5.6 54.7101 5.6L54.6901 5.59Z" fill="#3E2967"/>
<path d="M60.65 12.68C60.65 12.99 60.4 13.24 60.09 13.24C59.78 13.24 59.53 12.99 59.53 12.68C59.53 12.37 59.78 12.12 60.09 12.12C60.4 12.12 60.65 12.37 60.65 12.68Z" fill="#757570"/>
<path d="M57.1899 35.84H58.7999L57.6599 34.7L57.9699 34.4L59.0999 35.54V33.93H59.5299V35.54L60.6699 34.4L60.9699 34.7L59.8299 35.84H61.4399V36.27H59.8299L60.9699 37.41L60.6699 37.71L59.5299 36.57V38.18H59.0999V36.57L57.9699 37.71L57.6599 37.41L58.7999 36.27H57.1899V35.84Z" fill="#F6A723"/>
<path d="M48.3501 34.35H49.9601L48.8201 33.21L49.1201 32.91L50.2601 34.05V32.44H50.6901V34.05L51.8301 32.91L52.1301 33.21L50.9901 34.35H52.6001V34.77H50.9901L52.1301 35.91L51.8301 36.21L50.6901 35.07V36.69H50.2601V35.07L49.1201 36.21L48.8201 35.91L49.9601 34.77H48.3501V34.35Z" fill="#F6A723"/>
<path d="M54.2 27.58H55.8099L54.67 26.44L54.9699 26.14L56.11 27.28V25.66H56.54V27.28L57.68 26.14L57.9799 26.44L56.84 27.58H58.45V28H56.84L57.9799 29.14L57.68 29.44L56.54 28.3V29.91H56.11V28.3L54.9699 29.44L54.67 29.14L55.8099 28H54.2V27.58Z" fill="#F6A723"/>
<path d="M51.3501 41.15H52.9601L51.8201 40.02L52.1201 39.71L53.2601 40.85V39.24H53.6901V40.85L54.8301 39.71L55.1301 40.02L53.9901 41.15H55.6001V41.58H53.9901L55.1301 42.72L54.8301 43.02L53.6901 41.88V43.49H53.2601V41.88L52.1201 43.02L51.8201 42.72L52.9601 41.58H51.3501V41.15Z" fill="#F6A723"/>
<path d="M56.8899 49.03H58.4999L57.3599 47.89L57.6599 47.59L58.7999 48.73V47.12H59.2299V48.73L60.3699 47.59L60.6699 47.89L59.5299 49.03H61.1399V49.46H59.5299L60.6699 50.6L60.3699 50.9L59.2299 49.76V51.37H58.7999V49.76L57.6599 50.9L57.3599 50.6L58.4999 49.46H56.8899V49.03Z" fill="#F6A723"/>
<path d="M45.8799 49.85H47.4899L46.3499 48.71L46.6499 48.41L47.7899 49.55V47.94H48.2199V49.55L49.3599 48.41L49.6599 48.71L48.5199 49.85H50.1299V50.27H48.5199L49.6599 51.41L49.3599 51.71L48.2199 50.57V52.18H47.7899V50.57L46.6499 51.71L46.3499 51.41L47.4899 50.27H45.8799V49.85Z" fill="#F6A723"/>
<path d="M55.5799 12.83C55.5799 12.2998 55.1501 11.87 54.6199 11.87C54.0897 11.87 53.6599 12.2998 53.6599 12.83V14.92C53.6599 15.4502 54.0897 15.88 54.6199 15.88C55.1501 15.88 55.5799 15.4502 55.5799 14.92V12.83Z" fill="#FADDDC"/>
<path d="M50.26 28.3C51.7 28.02 51.04 29.7 51.91 31.09C52 31.24 54.88 43.06 64.98 43.61L65.2 49.76C46.53 37.02 48.94 31.79 48.5 31.09C47.64 29.7 48.65 28.61 50.26 28.3Z" fill="#FCAD1E"/>
<path d="M78.56 44C80.2 44 81.54 45.33 81.54 46.97C81.54 48.32 80.64 49.46 79.41 49.83C79.14 49.91 78.86 49.95 78.57 49.95C77.86 49.95 77.16 49.93 76.47 49.88L77.47 43.97C77.83 43.98 78.2 44 78.57 43.99L78.56 44Z" fill="#FADDDC"/>
<path d="M48.78 27.97C50.17 27.1 52.01 27.53 52.87 28.92C52.96 29.07 62.04 43.31 77.46 43.95L76.46 49.86C58.33 48.71 48.25 32.77 47.81 32.06C46.95 30.67 47.38 28.84 48.77 27.97H48.78Z" fill="#FCC31E"/>
</g>
<defs>
<clipPath id="clip0_1206_3507">
<rect width="57.14" height="106.18" fill="white" transform="translate(25.5 2)"/>
</clipPath>
</defs>
</svg>
