<svg width="110" height="110" viewBox="0 0 110 110" fill="none" xmlns="http://www.w3.org/2000/svg">
<g clip-path="url(#clip0_1206_3733)">
<path d="M46.5401 58.11L62.8701 58.21L45.3101 81.72L37.9301 104.4L35.1501 104L34.2501 105.8C33.3201 107.82 33.2001 108.68 31.6601 107.89L27.8301 106.37C27.1301 106.02 27.2401 104.99 28.0601 104.74C28.6001 104.57 29.4301 104.55 29.9901 104.52C32.0701 104.42 31.7901 102.95 32.1201 101.61C34.1201 93.62 35.0201 87.2 37.2901 79.13C38.5801 74.51 46.5601 58.11 46.5601 58.11H46.5401Z" fill="#291B4C"/>
<path d="M49.1 58.32L66.63 58.37L68.6 79.33L81.12 97.29L78.79 99.18C79.07 99.69 79.56 100.52 80.03 100.84C80.72 101.31 81.62 102.18 80.81 103.23L75.85 107.13C75.13 107.44 74.36 106.37 74.72 105.56C74.96 105.03 75.78 103.83 76.05 103.31C76.6 102.25 75.94 101.44 75.22 100.29C70.89 93.41 60.78 82.87 60.78 82.87L49.1 58.31V58.32Z" fill="#3F3072"/>
<path d="M78.7601 48.7C79.3601 50.23 81.0901 50.98 82.6201 50.38C83.8801 49.89 84.6101 48.63 84.4901 47.35C84.4701 47.07 84.4001 46.79 84.2901 46.52C84.0301 45.86 83.7501 45.22 83.4501 44.59L78.3201 47.69C78.4701 48.02 78.6101 48.36 78.7501 48.7H78.7601Z" fill="#FADDDC"/>
<path d="M52.93 26.89C52.64 28.5 53.71 30.05 55.32 30.35C55.49 30.38 72.07 33.59 78.33 47.69L83.46 44.59C75.73 28.15 57.19 24.64 56.38 24.49C54.77 24.2 53.22 25.27 52.93 26.89Z" fill="#FCAD1E"/>
<path d="M44.81 58.12H65.24C68.97 58.12 68.78 54.82 68.69 53.86L65.9 31.2C64.77 27.44 67.99 25.6 57.79 21.71H53.44C51.94 21.71 50.52 22.47 49.74 23.75C44.07 33.01 44.8 58.12 44.8 58.12H44.81Z" fill="#FCC31E"/>
<path d="M57.6001 7.37H47.2101V16.67C47.2101 18.49 48.6901 19.97 50.5101 19.97H51.5601C52.0701 19.97 52.4901 20.38 52.4901 20.9V21.81C52.4901 22.97 53.7301 23.7 54.7501 23.15L57.4001 21.71L57.6101 7.37H57.6001Z" fill="#FADDDC"/>
<path d="M47.9 17.1L47.3 16.93C46.76 16.78 46.44 16.21 46.59 15.67L47.42 12.71C47.48 12.48 47.72 12.35 47.94 12.42C48.16 12.49 48.3 12.72 48.23 12.94L47.51 15.5C47.42 15.81 47.6 16.13 47.91 16.21L48.12 16.27C48.35 16.33 48.48 16.57 48.41 16.79C48.34 17.01 48.11 17.15 47.89 17.08L47.9 17.1Z" fill="#E0B1BB"/>
<path d="M55.3099 5.59H54.3499C53.7299 5.59 53.1399 5.24 52.8899 4.66C52.5299 3.8 51.6999 3.21 50.7299 3.21C50.5099 3.21 50.3099 3.24 50.1099 3.3C49.4299 2.37 48.2799 1.82 47.0099 2.05C45.7699 2.28 44.7699 3.28 44.5199 4.53C44.4099 5.1 44.4499 5.66 44.5999 6.16C44.8599 7.47 45.9899 8.45 47.3499 8.45H51.5999C52.7699 8.45 53.1899 9.64 53.1899 10.37L53.2299 12.65C53.2299 13.79 53.5399 15.36 56.3199 14.92L57.3399 16.72C57.6499 16.78 58.1699 17.1 58.4399 15.97V10.95V9.3C58.4399 8.06 58.2999 5.6 55.2899 5.6L55.3099 5.59Z" fill="#3E2967"/>
<path d="M49.35 12.68C49.35 12.99 49.6 13.24 49.91 13.24C50.22 13.24 50.47 12.99 50.47 12.68C50.47 12.37 50.22 12.12 49.91 12.12C49.6 12.12 49.35 12.37 49.35 12.68Z" fill="#757570"/>
<path d="M52.8101 35.84H51.2001L52.3401 34.7L52.0301 34.4L50.9001 35.54V33.93H50.4701V35.54L49.3301 34.4L49.0301 34.7L50.1701 35.84H48.5601V36.27H50.1701L49.0301 37.41L49.3301 37.71L50.4701 36.57V38.18H50.9001V36.57L52.0301 37.71L52.3401 37.41L51.2001 36.27H52.8101V35.84Z" fill="#F6A723"/>
<path d="M61.6499 34.35H60.0399L61.1799 33.21L60.8799 32.91L59.7399 34.05V32.44H59.3099V34.05L58.1699 32.91L57.8699 33.21L59.0099 34.35H57.3999V34.77H59.0099L57.8699 35.91L58.1699 36.21L59.3099 35.07V36.69H59.7399V35.07L60.8799 36.21L61.1799 35.91L60.0399 34.77H61.6499V34.35Z" fill="#F6A723"/>
<path d="M55.8 27.58H54.1901L55.33 26.44L55.0301 26.14L53.89 27.28V25.66H53.46V27.28L52.32 26.14L52.0201 26.44L53.16 27.58H51.55V28H53.16L52.0201 29.14L52.32 29.44L53.46 28.3V29.91H53.89V28.3L55.0301 29.44L55.33 29.14L54.1901 28H55.8V27.58Z" fill="#F6A723"/>
<path d="M58.6499 41.15H57.0399L58.1799 40.02L57.8799 39.71L56.7399 40.85V39.24H56.3099V40.85L55.1699 39.71L54.8699 40.02L56.0099 41.15H54.3999V41.58H56.0099L54.8699 42.72L55.1699 43.02L56.3099 41.88V43.49H56.7399V41.88L57.8799 43.02L58.1799 42.72L57.0399 41.58H58.6499V41.15Z" fill="#F6A723"/>
<path d="M53.1101 49.03H51.5001L52.6401 47.89L52.3401 47.59L51.2001 48.73V47.12H50.7701V48.73L49.6301 47.59L49.3301 47.89L50.4701 49.03H48.8601V49.46H50.4701L49.3301 50.6L49.6301 50.9L50.7701 49.76V51.37H51.2001V49.76L52.3401 50.9L52.6401 50.6L51.5001 49.46H53.1101V49.03Z" fill="#F6A723"/>
<path d="M64.1201 49.85H62.5101L63.6501 48.71L63.3501 48.41L62.2101 49.55V47.94H61.7801V49.55L60.6401 48.41L60.3401 48.71L61.4801 49.85H59.8701V50.27H61.4801L60.3401 51.41L60.6401 51.71L61.7801 50.57V52.18H62.2101V50.57L63.3501 51.71L63.6501 51.41L62.5101 50.27H64.1201V49.85Z" fill="#F6A723"/>
<path d="M54.4201 12.83C54.4201 12.2998 54.8499 11.87 55.3801 11.87C55.9103 11.87 56.3401 12.2998 56.3401 12.83V14.92C56.3401 15.4502 55.9103 15.88 55.3801 15.88C54.8499 15.88 54.4201 15.4502 54.4201 14.92V12.83Z" fill="#FADDDC"/>
<path d="M59.74 28.3C58.3 28.02 58.96 29.7 58.09 31.09C58 31.24 55.12 43.06 45.02 43.61L44.8 49.76C63.47 37.02 61.06 31.79 61.5 31.09C62.36 29.7 61.35 28.61 59.74 28.3Z" fill="#FCAD1E"/>
<path d="M31.44 44C29.8 44 28.46 45.33 28.46 46.97C28.46 48.32 29.36 49.46 30.59 49.83C30.86 49.91 31.14 49.95 31.43 49.95C32.14 49.95 32.84 49.93 33.53 49.88L32.53 43.97C32.17 43.98 31.8 44 31.43 43.99L31.44 44Z" fill="#FADDDC"/>
<path d="M61.22 27.97C59.83 27.1 57.99 27.53 57.13 28.92C57.04 29.07 47.96 43.31 32.54 43.95L33.54 49.86C51.67 48.71 61.75 32.77 62.19 32.06C63.05 30.67 62.62 28.84 61.23 27.97H61.22Z" fill="#FCC31E"/>
</g>
<defs>
<clipPath id="clip0_1206_3733">
<rect width="57.14" height="106.18" fill="white" transform="matrix(-1 0 0 1 84.5 2)"/>
</clipPath>
</defs>
</svg>
