<svg width="110" height="110" viewBox="0 0 110 110" fill="none" xmlns="http://www.w3.org/2000/svg">
<g clip-path="url(#clip0_1215_1530)">
<path d="M59.1 57.72L47.13 57.25L40.54 79.67L28.01 97.63L30.34 99.52C30.06 100.03 29.57 100.86 29.1 101.18C28.41 101.65 27.51 102.52 28.32 103.57L33.28 107.47C34 107.78 34.77 106.71 34.41 105.9C34.17 105.37 33.35 104.17 33.08 103.65C32.53 102.59 33.19 101.78 33.91 100.63C38.24 93.75 48.35 83.21 48.35 83.21L59.09 57.71L59.1 57.72Z" fill="#291B4C"/>
<path d="M62.03 56.16L42.37 56.97L63.83 82.07L71.21 104.75L73.99 104.35L74.89 106.15C75.82 108.17 75.94 109.03 77.48 108.24L81.31 106.72C82.01 106.37 81.9 105.34 81.08 105.09C80.54 104.92 79.71 104.9 79.15 104.87C77.07 104.77 77.35 103.3 77.02 101.96C75.02 93.97 74.12 87.55 71.85 79.48C70.56 74.86 62.01 56.17 62.01 56.17L62.03 56.16Z" fill="#3E2C6D"/>
<path d="M80.6801 42.87C82.2701 43.28 83.2301 44.9 82.8201 46.49C82.4801 47.8 81.3301 48.68 80.0501 48.72C79.7701 48.72 79.4901 48.7 79.2001 48.63C78.5101 48.45 77.8401 48.25 77.1801 48.04L79.6201 42.57C79.9701 42.68 80.3201 42.78 80.6801 42.87Z" fill="#FADDDC"/>
<path d="M55.86 19.92C57.43 19.43 59.09 20.3 59.59 21.87C59.64 22.04 64.87 38.1 79.64 42.57L77.2 48.04C59.93 42.39 54.16 24.43 53.92 23.64C53.43 22.07 54.31 20.41 55.87 19.92H55.86Z" fill="#FADDDC"/>
<path d="M58.82 20.37L66.32 31.73L59.47 39.1L56.16 26.87L58.82 20.37Z" fill="#E52729"/>
<path d="M59.13 37.93L65.75 30.82L66.4 31.72L59.49 39.22" fill="#FFD415"/>
<path d="M63.9 57.16L38.48 57.08C38.48 57.08 39.62 40.97 41.34 33.9C43.06 26.83 38.15 21.6 50.78 18.33H55.13C56.63 18.33 58.05 19.09 58.83 20.37C64.5 29.63 63.91 57.16 63.91 57.16H63.9Z" fill="#EA5041"/>
<path d="M49.97 18.53C49.97 18.53 51.07 21.57 54.38 21.29C56.63 21.1 56.53 18.55 56.53 18.55C56.25 18.44 55.98 18.36 55.71 18.3H50.86C50.52 18.34 50.22 18.42 49.97 18.53Z" fill="#FFD415"/>
<path d="M50.71 4.41H61.1V13.71C61.1 15.53 59.62 17.01 57.8 17.01H56.75C56.24 17.01 55.82 17.42 55.82 17.94V18.85C55.78 19.6 54.85 20.52 53.91 20.28C52.97 20.04 51.34 19.28 50.92 18.44L50.71 4.41Z" fill="#FADDDC"/>
<path d="M60.65 13.88L61.25 13.71C61.79 13.56 62.11 12.99 61.96 12.45L61.13 9.49C61.07 9.26 60.83 9.13 60.61 9.2C60.39 9.27 60.25 9.5 60.32 9.72L61.04 12.28C61.13 12.59 60.95 12.91 60.64 12.99L60.43 13.05C60.2 13.11 60.07 13.35 60.14 13.57C60.21 13.79 60.44 13.93 60.66 13.86L60.65 13.88Z" fill="#E0B1BB"/>
<path opacity="0.5" d="M57.57 11.72L58.76 11.6C59.51 11.52 60.06 10.84 59.98 10.09C59.9 9.34001 59.22 8.79001 58.47 8.87001L57.28 8.99001C56.53 9.07001 55.98 9.75001 56.06 10.5C56.14 11.25 56.82 11.8 57.57 11.72Z" fill="white"/>
<path d="M55.68 10.86L55.61 10.24C55.52 9.43 56.11 8.7 56.92 8.62L58.72 8.43C59.53 8.34 60.26 8.93 60.34 9.74L60.41 10.36C60.5 11.17 59.91 11.9 59.1 11.98L57.3 12.17C56.49 12.26 55.76 11.67 55.68 10.86ZM57.02 9.44C56.67 9.48 56.41 9.8 56.44 10.15L56.51 10.77C56.55 11.12 56.87 11.38 57.22 11.35L59.02 11.16C59.37 11.12 59.63 10.8 59.6 10.45L59.53 9.83C59.49 9.48 59.17 9.22 58.82 9.25L57.02 9.44Z" fill="#9A9A99"/>
<path opacity="0.5" d="M62.22 11.24L62.45 11.22C62.92 11.17 63.23 10.52 63.15 9.77001C63.07 9.02001 62.62 8.45 62.16 8.49L61.93 8.51C61.46 8.56 61.15 9.21 61.23 9.96C61.31 10.71 61.76 11.28 62.22 11.24Z" fill="white"/>
<path d="M61 10.3L60.93 9.68C60.84 8.87 61.18 8.17 61.69 8.12L62.31 8.06C62.81 8.01 63.29 8.62 63.38 9.43L63.45 10.05C63.54 10.86 63.2 11.56 62.69 11.61L62.07 11.67C61.57 11.72 61.09 11.11 61 10.3ZM61.78 8.94C61.56 8.96 61.41 9.27 61.45 9.63L61.52 10.25C61.56 10.6 61.77 10.87 61.99 10.85L62.61 10.79C62.83 10.77 62.98 10.46 62.94 10.1L62.87 9.47999C62.83 9.12999 62.62 8.86 62.4 8.88L61.78 8.94Z" fill="#9A9A99"/>
<path d="M61.2383 9.04978L59.6968 9.21207L59.7837 10.0375L61.3252 9.87522L61.2383 9.04978Z" fill="#9A9A99"/>
<path d="M62.16 4.12999L62.2 4.53999C62.3 5.46999 61.62 6.31999 60.68 6.40999L55.55 7.06999C55.07 7.11999 54.43 7.53999 54.48 8.01999L54.52 8.49999C54.58 9.02999 54 9.46999 53.69 9.59999C53.33 9.73999 53.17 10.15 53.3 10.5C53.49 10.99 53.74 11.93 53.57 12.9C53.38 13.95 50.56 14.15 50.77 13.89C50.97 13.64 51.28 13.43 51.18 12.99C51.08 13.28 49.79 13.57 49.76 13.26C49.82 13.27 50.76 12.1 50.3 11.66C49.98 11.35 49.42 11.41 49.32 10.44C49.18 9.14999 49.81 9.16999 49.13 8.60999C48.46 8.05999 48.48 7.20999 48.77 6.78999C49.06 6.35999 49.7 4.88999 49.7 4.88999C49.72 4.80999 49.74 4.72999 49.78 4.65999C49.33 4.61999 49.02 4.20999 49.02 4.20999C49.61 4.42999 50.2 3.74999 50.2 3.74999H50.21C51.03 2.55999 52.48 2.22999 53.85 2.03999C55.23 1.83999 56.32 2.21999 57.01 2.40999C57.79 2.27999 58.38 1.71999 58.6 1.00999C59.21 1.08999 59.71 1.53999 59.86 2.13999C61.03 2.10999 62.03 2.95999 62.15 4.13999L62.16 4.12999Z" fill="#3E2967"/>
<path d="M45.61 57.06L46.68 45.67L48.53 57.06H45.61Z" fill="#FFD415"/>
<path d="M29.6699 51.73C29.6999 52.43 29.7499 53.15 29.8199 53.87C29.8499 54.17 29.9199 54.45 30.0299 54.71C30.5299 55.92 31.7799 56.71 33.1499 56.57C34.8199 56.4 36.0299 54.9 35.8499 53.23C35.8099 52.85 35.7799 52.48 35.7599 52.11C35.3599 45.69 37.3799 40.1 39.9099 35.73L35.0899 31.86C31.9499 37 29.3299 43.75 29.6499 51.72L29.6699 51.73Z" fill="#FADDDC"/>
<path d="M48.99 21.31C47.96 19.99 46.06 19.74 44.74 20.77C44.36 21.06 38.51 24.46 34.35 31.28L40.2 35.97C43.87 29.64 48.37 25.64 48.45 25.58C49.77 24.55 50.01 22.64 48.99 21.32V21.31Z" fill="#EA5041"/>
<path d="M34.7141 30.6455L34.0668 31.4077L39.8749 36.3403L40.5222 35.5781L34.7141 30.6455Z" fill="#FFD415"/>
<path d="M59.86 34.25H59.75C59.29 33.5 58.75 33.14 58.1 33.18C57.69 33.21 57.59 33.21 57.78 33.18C57.66 33.2 57.56 33.25 57.5 33.35C57.39 33.54 57.35 33.9 57.38 34.45C57.44 35.4 57.8 35.99 58.46 36.21V36.36C58.12 36.61 57.88 36.94 57.78 37.36C57.71 37.67 57.69 38.07 57.72 38.57C57.76 39.18 58.07 39.69 58.65 40.11V40.29L55.41 40.5C55.45 40.46 55.44 40.4 55.4 40.32C55.92 39.84 56.17 39.29 56.13 38.68C56.1 38.18 56.02 37.78 55.91 37.49C55.75 37.08 55.48 36.78 55.1 36.58V36.43C55.72 36.12 56 35.49 55.94 34.55C55.92 34.25 55.91 34.09 55.9 34.07C55.88 33.88 55.82 33.74 55.74 33.65C55.63 33.53 55.49 33.46 55.3 33.46C55.42 33.46 55.26 33.48 54.82 33.5C54.33 33.53 53.93 34 53.64 34.9H53.49L53.34 32.58L59.71 32.18L59.84 34.25H59.86Z" fill="white"/>
<path d="M55.94 27.85C55.78 27.93 55.65 27.93 55.57 27.85C55.36 27.64 55.48 27.18 55.52 27.04C55.44 27.21 55.35 27.38 55.29 27.57C55.19 27.86 55.16 28.17 55.25 28.36C55.41 28.71 55.74 28.52 55.94 28.36L57.84 26.9L55.94 27.85Z" fill="white"/>
<path d="M55.55 28.66C55.4 28.66 55.28 28.59 55.2 28.41C55.1 28.2 55.11 27.86 55.23 27.5C55.29 27.31 55.38 27.13 55.46 26.97L55.58 27.09C55.54 27.21 55.44 27.6 55.6 27.76C55.66 27.82 55.78 27.82 55.91 27.76L57.82 26.81L57.88 27.01L55.98 28.47C55.81 28.6 55.67 28.66 55.55 28.67V28.66ZM55.38 27.54C55.38 27.54 55.36 27.59 55.35 27.62C55.26 27.9 55.24 28.16 55.31 28.3C55.41 28.51 55.61 28.5 55.91 28.27L56.96 27.46L55.95 27.96C55.77 28.05 55.62 28.04 55.52 27.94C55.42 27.84 55.38 27.69 55.37 27.54H55.38Z" fill="white"/>
<path d="M36.48 32.43L35.65 31.87C43.15 20.84 50.48 19.2 50.79 19.14L51 20.12C50.93 20.14 43.73 21.78 36.48 32.44V32.43Z" fill="#FFD415"/>
</g>
<defs>
<clipPath id="clip0_1215_1530">
<rect width="54.92" height="107.52" fill="white" transform="translate(28 1)"/>
</clipPath>
</defs>
</svg>
