<svg width="110" height="110" viewBox="0 0 110 110" fill="none" xmlns="http://www.w3.org/2000/svg">
<g clip-path="url(#clip0_1215_1509)">
<path d="M50 57.37H64.31L65.73 102.19L63.2 102.37C63.2 103.05 63.6 104.33 64.06 104.69C64.6 105.12 66.03 105.6 66.55 106.07C67.16 106.63 66.84 107.85 66.08 107.85H63H62.21C61.51 107.85 60.9 107.25 60.73 106.39L60.66 102.61L59.13 102.57C57.94 96.3 56.73 86.33 55.68 79.94C54.94 75.46 54.33 69.6 53.67 65.14C53.52 64.16 52.81 63.45 51.98 63.45H50.47C49.63 63.45 48.92 64.16 48.78 65.14C48.12 69.6 45.52 94.28 44.12 101.38C44.04 101.78 42.43 101.25 42.35 101.66C42.1 102.94 42.53 104.26 43.41 104.98C43.84 105.33 44.25 105.69 44.66 106.07C45.28 106.63 44.96 107.86 44.2 107.86H41.12L39.12 107.09C37.14 105.61 39.61 104.45 38.68 101.65L37.03 101.1L37.97 64.84V57.35H50.01L50 57.37Z" fill="#3E2C6D"/>
<path d="M87.25 4.85999C87.07 5.18999 86.87 5.50999 86.68 5.82999C82.46 12.66 75.91 16.26 70.49 18.15L73.12 23.71C79.25 21.49 86.46 17.36 91.44 9.67999C91.82 9.08999 92.2 8.47999 92.55 7.83999C92.7 7.57999 92.8 7.30999 92.86 7.02999C93.15 5.74999 92.59 4.37999 91.38 3.70999C89.92 2.88999 88.07 3.40999 87.25 4.86999V4.85999Z" fill="#FADDDC"/>
<path d="M57.75 20.67C56.06 21.17 55.9 22.72 56.03 24.19C56.17 25.86 60.27 28.44 61.95 28.55C62.87 28.61 67.31 26.99 73.59 24.71L70.36 17.9C65.14 19.71 60.5 19.86 57.76 20.66L57.75 20.67Z" fill="#E52729"/>
<path d="M66.48 57.54H35.14L37.07 27.22C37.07 22.97 36.71 19.52 44.77 19.52H56.86C61.11 19.52 64.56 22.97 64.56 27.22L66.47 57.54H66.48Z" fill="#EA5041"/>
<path d="M46.91 19.54H54.26V19.77C54.26 21.76 52.65 23.37 50.66 23.37H50.51C48.52 23.37 46.91 21.76 46.91 19.77V19.54Z" fill="#FFD415"/>
<path d="M48.24 4.67001H56C57.08 4.67001 57.96 5.55001 57.96 6.63001V14.27C57.96 15.98 56.58 17.36 54.87 17.36H53.89C53.41 17.36 53.02 17.75 53.02 18.23V19.92C53.02 21.23 51.96 22.3 50.64 22.3C49.33 22.3 48.27 21.24 48.26 19.93L48.23 4.67001H48.24Z" fill="#FADDDC"/>
<path d="M54.82 14.56H55.41C55.94 14.56 56.36 14.13 56.36 13.61V10.74C56.36 10.52 56.18 10.34 55.96 10.34C55.74 10.34 55.56 10.52 55.56 10.74V13.23C55.56 13.53 55.32 13.77 55.02 13.77H54.82C54.6 13.77 54.42 13.95 54.42 14.17C54.42 14.39 54.6 14.57 54.82 14.57V14.56Z" fill="#ECBEC6"/>
<path d="M47.24 12.12H48.85V8.7H47.24V12.12Z" fill="#FADDDC"/>
<path opacity="0.5" d="M52.67 12.39H53.8601C54.6101 12.39 55.23 11.77 55.23 11.02C55.23 10.27 54.6101 9.64999 53.8601 9.64999H52.67C51.92 9.64999 51.3 10.27 51.3 11.02C51.3 11.77 51.92 12.39 52.67 12.39Z" fill="white"/>
<path d="M50.88 11.33V10.71C50.88 9.90001 51.54 9.23001 52.36 9.23001H54.17C54.98 9.23001 55.65 9.89001 55.65 10.71V11.33C55.65 12.14 54.99 12.81 54.17 12.81H52.36C51.55 12.81 50.88 12.15 50.88 11.33ZM52.36 10.06C52 10.06 51.71 10.35 51.71 10.71V11.33C51.71 11.69 52 11.98 52.36 11.98H54.17C54.53 11.98 54.82 11.69 54.82 11.33V10.71C54.82 10.35 54.53 10.06 54.17 10.06H52.36Z" fill="#9A9A99"/>
<path opacity="0.5" d="M58.02 12.39H58.4C59.15 12.39 59.77 11.77 59.77 11.02C59.77 10.27 59.15 9.64999 58.4 9.64999H58.02C57.27 9.64999 56.65 10.27 56.65 11.02C56.65 11.77 57.27 12.39 58.02 12.39Z" fill="white"/>
<path d="M56.24 11.33V10.71C56.24 9.90001 56.9 9.23001 57.72 9.23001H58.72C59.53 9.23001 60.2 9.89001 60.2 10.71V11.33C60.2 12.14 59.54 12.81 58.72 12.81H57.72C56.91 12.81 56.24 12.15 56.24 11.33ZM57.71 10.06C57.35 10.06 57.06 10.35 57.06 10.71V11.33C57.06 11.69 57.35 11.98 57.71 11.98H58.71C59.07 11.98 59.36 11.69 59.36 11.33V10.71C59.36 10.35 59.07 10.06 58.71 10.06H57.71Z" fill="#9A9A99"/>
<path d="M56.6 10.11H55.05V10.94H56.6V10.11Z" fill="#9A9A99"/>
<path d="M59.72 5.47999V5.88999C59.72 6.82999 58.95 7.59999 58.01 7.59999H51.04C50.56 7.59999 50.17 7.97999 50.17 8.45999L50.19 8.88999C50.19 9.41999 49.89 9.85999 49.57 9.94999C49.2 10.05 49 10.44 49.09 10.81C49.22 11.32 49.38 12.28 49.11 13.23C48.81 14.25 47.14 14.24 47.37 14.01C47.59 13.79 47.92 13.6 47.87 13.16C47.74 13.44 46.43 13.59 46.43 13.28C46.49 13.3 47.54 12.23 47.13 11.75C46.84 11.41 46.28 11.41 46.28 10.43C46.28 9.12999 46.9 9.20999 46.28 8.58999C45.67 7.97999 45.78 7.12999 46.12 6.73999C46.46 6.33999 47.24 4.93999 47.24 4.93999C47.27 4.85999 47.3 4.78999 47.34 4.71999C46.9 4.63999 46.64 4.18999 46.64 4.18999C47.2 4.46999 47.87 3.84999 47.87 3.84999H47.88C48.82 2.75999 50.3 2.56999 51.68 2.52999C53.07 2.47999 54.12 2.96999 54.78 3.21999C55.57 3.16999 56.21 2.67999 56.51 1.98999C57.11 2.12999 57.56 2.62999 57.64 3.24999C58.8 3.33999 59.71 4.28999 59.71 5.47999H59.72Z" fill="#3E2967"/>
<path d="M56.38 34.57H56.22C55.61 33.83 54.81 33.46 53.84 33.46C53.23 33.46 53.07 33.46 53.36 33.45C53.17 33.45 53.03 33.51 52.92 33.6C52.73 33.77 52.64 34.11 52.64 34.63C52.64 35.53 53.13 36.1 54.1 36.36V36.51C53.54 36.72 53.16 37.02 52.96 37.42C52.82 37.71 52.75 38.09 52.75 38.56C52.75 39.14 53.17 39.64 54 40.07V40.24H49.09C49.15 40.21 49.15 40.15 49.09 40.07C49.92 39.65 50.34 39.14 50.34 38.56C50.34 38.09 50.27 37.71 50.12 37.42C49.91 37.03 49.54 36.73 48.99 36.51V36.36C49.96 36.11 50.45 35.53 50.45 34.63C50.45 34.34 50.45 34.19 50.44 34.18C50.42 34 50.36 33.87 50.24 33.78C50.09 33.66 49.88 33.59 49.6 33.57C49.78 33.57 49.54 33.58 48.88 33.58C48.14 33.58 47.5 34 46.97 34.83H46.75V32.62H56.38V34.58V34.57Z" fill="white"/>
<path d="M37.04 57.55L38.1 46.17L39.95 57.55H37.04Z" fill="#FFD415"/>
<path d="M61.65 57.55L62.71 46.17L64.56 57.55H61.65Z" fill="#FFD415"/>
<path d="M23.02 51.75C23.04 52.45 23.09 53.17 23.16 53.89C23.19 54.19 23.26 54.47 23.37 54.73C23.86 55.95 25.11 56.74 26.48 56.61C28.15 56.44 29.37 54.96 29.2 53.29C29.16 52.91 29.14 52.54 29.12 52.17C28.76 45.75 30.8 40.17 33.36 35.81L28.56 31.91C25.4 37.04 22.74 43.77 23.02 51.75Z" fill="#FADDDC"/>
<path d="M42.5001 21.42C41.4801 20.09 39.5801 19.84 38.2501 20.85C37.8701 21.14 32.0001 24.51 27.8101 31.3L33.6401 36.02C37.3501 29.71 41.8601 25.74 41.9501 25.67C43.2801 24.65 43.5301 22.74 42.5101 21.41L42.5001 21.42Z" fill="#EA5041"/>
<path d="M28.1935 30.6989L27.5432 31.4587L33.3323 36.4135L33.9826 35.6538L28.1935 30.6989Z" fill="#FFD415"/>
<path d="M29.81 32.89L29 32.3C33.43 26.16 36.63 23.68 38 22.62C38.15 22.5 38.28 22.4 38.38 22.32C41.34 19.9 47.22 20.43 47.47 20.45L47.37 21.45C47.31 21.45 41.65 20.93 39.01 23.09C38.9 23.18 38.77 23.28 38.61 23.4C37.28 24.43 34.16 26.86 29.81 32.88V32.89Z" fill="#FFD415"/>
<path d="M51.09 28.3C50.84 28.37 50.6401 28.36 50.5301 28.27C50.2401 28.06 50.4601 27.63 50.5301 27.5C50.3901 27.66 50.25 27.81 50.14 27.98C49.97 28.25 49.8901 28.54 50.0101 28.73C50.22 29.07 50.73 28.91 51.05 28.78L54.0401 27.52L51.08 28.3H51.09Z" fill="white"/>
<path d="M50.43 29.04C50.2 29.04 50.04 28.96 49.93 28.79C49.8 28.58 49.85 28.26 50.06 27.93C50.17 27.75 50.32 27.59 50.46 27.44L50.63 27.56C50.56 27.67 50.37 28.03 50.59 28.19C50.67 28.25 50.85 28.26 51.06 28.19L54.02 27.41L54.09 27.6L51.1 28.86C50.84 28.97 50.62 29.02 50.43 29.02V29.04ZM50.29 27.98C50.29 27.98 50.26 28.03 50.24 28.05C50.07 28.31 50.02 28.55 50.11 28.69C50.24 28.9 50.55 28.9 51.02 28.69L52.68 27.99L51.12 28.4C50.84 28.48 50.61 28.46 50.47 28.36C50.33 28.26 50.28 28.12 50.28 27.98H50.29Z" fill="white"/>
<path d="M73.0501 24.91L69.8101 18.08L70.6201 17.8L74.0501 24.54L73.0501 24.91Z" fill="#FFD415"/>
</g>
<defs>
<clipPath id="clip0_1215_1509">
<rect width="69.93" height="105.88" fill="white" transform="translate(23 2)"/>
</clipPath>
</defs>
</svg>
