<svg width="110" height="110" viewBox="0 0 110 110" fill="none" xmlns="http://www.w3.org/2000/svg">
<g clip-path="url(#clip0_1215_2686)">
<path d="M50.9 57.72L62.87 57.25L69.46 79.67L81.99 97.63L79.66 99.52C79.94 100.03 80.43 100.86 80.9 101.18C81.59 101.65 82.49 102.52 81.68 103.57L76.72 107.47C76 107.78 75.23 106.71 75.59 105.9C75.83 105.37 76.65 104.17 76.92 103.65C77.47 102.59 76.81 101.78 76.09 100.63C71.76 93.75 61.65 83.21 61.65 83.21L50.91 57.71L50.9 57.72Z" fill="#291B4C"/>
<path d="M47.97 56.16L67.63 56.97L46.17 82.07L38.79 104.75L36.01 104.35L35.11 106.15C34.18 108.17 34.06 109.03 32.52 108.24L28.69 106.72C27.99 106.37 28.1 105.34 28.92 105.09C29.46 104.92 30.29 104.9 30.85 104.87C32.93 104.77 32.65 103.3 32.98 101.96C34.98 93.97 35.88 87.55 38.15 79.48C39.44 74.86 47.99 56.17 47.99 56.17L47.97 56.16Z" fill="#3E2C6D"/>
<path d="M29.3199 42.87C27.7299 43.28 26.7699 44.9 27.1799 46.49C27.5199 47.8 28.6699 48.68 29.9499 48.72C30.2299 48.72 30.5099 48.7 30.7999 48.63C31.4899 48.45 32.1599 48.25 32.8199 48.04L30.3799 42.57C30.0299 42.68 29.6799 42.78 29.3199 42.87Z" fill="#FADDDC"/>
<path d="M54.14 19.92C52.57 19.43 50.91 20.3 50.41 21.87C50.36 22.04 45.13 38.1 30.36 42.57L32.8 48.04C50.07 42.39 55.84 24.43 56.08 23.64C56.57 22.07 55.69 20.41 54.13 19.92H54.14Z" fill="#FADDDC"/>
<path d="M51.18 20.37L43.68 31.73L50.53 39.1L53.84 26.87L51.18 20.37Z" fill="#E52729"/>
<path d="M50.87 37.93L44.25 30.82L43.6 31.72L50.51 39.22" fill="#FFD415"/>
<path d="M46.1 57.16L71.52 57.08C71.52 57.08 70.38 40.97 68.66 33.9C66.94 26.83 71.85 21.6 59.22 18.33H54.87C53.37 18.33 51.95 19.09 51.17 20.37C45.5 29.63 46.09 57.16 46.09 57.16H46.1Z" fill="#EA5041"/>
<path d="M60.03 18.53C60.03 18.53 58.93 21.57 55.62 21.29C53.37 21.1 53.47 18.55 53.47 18.55C53.75 18.44 54.02 18.36 54.29 18.3H59.14C59.48 18.34 59.78 18.42 60.03 18.53Z" fill="#FFD415"/>
<path d="M59.29 4.41H48.9V13.71C48.9 15.53 50.38 17.01 52.2 17.01H53.25C53.76 17.01 54.18 17.42 54.18 17.94V18.85C54.22 19.6 55.15 20.52 56.09 20.28C57.03 20.04 58.66 19.28 59.08 18.44L59.29 4.41Z" fill="#FADDDC"/>
<path d="M49.35 13.88L48.75 13.71C48.21 13.56 47.89 12.99 48.04 12.45L48.87 9.49C48.93 9.26 49.17 9.13 49.39 9.2C49.61 9.27 49.75 9.5 49.68 9.72L48.96 12.28C48.87 12.59 49.05 12.91 49.36 12.99L49.57 13.05C49.8 13.11 49.93 13.35 49.86 13.57C49.79 13.79 49.56 13.93 49.34 13.86L49.35 13.88Z" fill="#E0B1BB"/>
<path opacity="0.5" d="M52.43 11.72L51.24 11.6C50.49 11.52 49.94 10.84 50.02 10.09C50.1 9.34 50.78 8.79 51.53 8.87L52.72 8.99C53.47 9.07 54.02 9.75 53.94 10.5C53.86 11.25 53.18 11.8 52.43 11.72Z" fill="white"/>
<path d="M54.32 10.86L54.39 10.24C54.48 9.43 53.89 8.7 53.08 8.62L51.28 8.43C50.47 8.34 49.74 8.93 49.66 9.74L49.59 10.36C49.5 11.17 50.09 11.9 50.9 11.98L52.7 12.17C53.51 12.26 54.24 11.67 54.32 10.86ZM52.98 9.44C53.33 9.48 53.59 9.8 53.56 10.15L53.49 10.77C53.45 11.12 53.13 11.38 52.78 11.35L50.98 11.16C50.63 11.12 50.37 10.8 50.4 10.45L50.47 9.83C50.51 9.48 50.83 9.22 51.18 9.25L52.98 9.44Z" fill="#9A9A99"/>
<path opacity="0.5" d="M47.78 11.24L47.55 11.22C47.08 11.17 46.77 10.52 46.85 9.77C46.93 9.02 47.38 8.45 47.84 8.49L48.07 8.51C48.54 8.56 48.85 9.21 48.77 9.96C48.69 10.71 48.24 11.28 47.78 11.24Z" fill="white"/>
<path d="M49 10.3L49.07 9.68C49.16 8.87 48.82 8.17 48.31 8.12L47.69 8.06C47.19 8.01 46.71 8.62 46.62 9.43L46.55 10.05C46.46 10.86 46.8 11.56 47.31 11.61L47.93 11.67C48.43 11.72 48.91 11.11 49 10.3ZM48.22 8.94C48.44 8.96 48.59 9.27 48.55 9.63L48.48 10.25C48.44 10.6 48.23 10.87 48.01 10.85L47.39 10.79C47.17 10.77 47.02 10.46 47.06 10.1L47.13 9.48C47.17 9.13 47.38 8.86 47.6 8.88L48.22 8.94Z" fill="#9A9A99"/>
<path d="M48.7617 9.04978L50.3032 9.21207L50.2163 10.0375L48.6748 9.87522L48.7617 9.04978Z" fill="#9A9A99"/>
<path d="M47.84 4.13L47.8 4.54C47.7 5.47 48.38 6.32 49.32 6.41L54.45 7.07C54.93 7.12 55.57 7.54 55.52 8.02L55.48 8.5C55.42 9.03 56 9.47 56.31 9.6C56.67 9.74 56.83 10.15 56.7 10.5C56.51 10.99 56.26 11.93 56.43 12.9C56.62 13.95 59.44 14.15 59.23 13.89C59.03 13.64 58.72 13.43 58.82 12.99C58.92 13.28 60.21 13.57 60.24 13.26C60.18 13.27 59.24 12.1 59.7 11.66C60.02 11.35 60.58 11.41 60.68 10.44C60.82 9.15 60.19 9.17 60.87 8.61C61.54 8.06 61.52 7.21 61.23 6.79C60.94 6.36 60.3 4.89 60.3 4.89C60.28 4.81 60.26 4.73 60.22 4.66C60.67 4.62 60.98 4.21 60.98 4.21C60.39 4.43 59.8 3.75 59.8 3.75H59.79C58.97 2.56 57.52 2.23 56.15 2.04C54.77 1.84 53.68 2.22 52.99 2.41C52.21 2.28 51.62 1.72 51.4 1.01C50.79 1.09 50.29 1.54 50.14 2.14C48.97 2.11 47.97 2.96 47.85 4.14L47.84 4.13Z" fill="#3E2967"/>
<path d="M64.39 57.06L63.32 45.67L61.47 57.06H64.39Z" fill="#FFD415"/>
<path d="M80.3301 51.73C80.3001 52.43 80.2501 53.15 80.1801 53.87C80.1501 54.17 80.0801 54.45 79.9701 54.71C79.4701 55.92 78.2201 56.71 76.8501 56.57C75.1801 56.4 73.9701 54.9 74.1501 53.23C74.1901 52.85 74.2201 52.48 74.2401 52.11C74.6401 45.69 72.6201 40.1 70.0901 35.73L74.9101 31.86C78.0501 37 80.6701 43.75 80.3501 51.72L80.3301 51.73Z" fill="#FADDDC"/>
<path d="M61.01 21.31C62.04 19.99 63.94 19.74 65.26 20.77C65.64 21.06 71.49 24.46 75.65 31.28L69.8 35.97C66.13 29.64 61.63 25.64 61.55 25.58C60.23 24.55 59.99 22.64 61.01 21.32V21.31Z" fill="#EA5041"/>
<path d="M75.2859 30.6455L75.9332 31.4077L70.1251 36.3403L69.4778 35.5781L75.2859 30.6455Z" fill="#FFD415"/>
<path d="M50.14 34.25H50.25C50.71 33.5 51.25 33.14 51.9 33.18C52.31 33.21 52.41 33.21 52.22 33.18C52.34 33.2 52.44 33.25 52.5 33.35C52.61 33.54 52.65 33.9 52.62 34.45C52.56 35.4 52.2 35.99 51.54 36.21V36.36C51.88 36.61 52.12 36.94 52.22 37.36C52.29 37.67 52.31 38.07 52.28 38.57C52.24 39.18 51.93 39.69 51.35 40.11V40.29L54.59 40.5C54.55 40.46 54.56 40.4 54.6 40.32C54.08 39.84 53.83 39.29 53.87 38.68C53.9 38.18 53.98 37.78 54.09 37.49C54.25 37.08 54.52 36.78 54.9 36.58V36.43C54.28 36.12 54 35.49 54.06 34.55C54.08 34.25 54.09 34.09 54.1 34.07C54.12 33.88 54.18 33.74 54.26 33.65C54.37 33.53 54.51 33.46 54.7 33.46C54.58 33.46 54.74 33.48 55.18 33.5C55.67 33.53 56.07 34 56.36 34.9H56.51L56.66 32.58L50.29 32.18L50.16 34.25H50.14Z" fill="white"/>
<path d="M54.06 27.85C54.22 27.93 54.35 27.93 54.43 27.85C54.64 27.64 54.52 27.18 54.48 27.04C54.56 27.21 54.65 27.38 54.71 27.57C54.81 27.86 54.84 28.17 54.75 28.36C54.59 28.71 54.26 28.52 54.06 28.36L52.16 26.9L54.06 27.85Z" fill="white"/>
<path d="M54.45 28.66C54.6 28.66 54.72 28.59 54.8 28.41C54.9 28.2 54.89 27.86 54.77 27.5C54.71 27.31 54.62 27.13 54.54 26.97L54.42 27.09C54.46 27.21 54.56 27.6 54.4 27.76C54.34 27.82 54.22 27.82 54.09 27.76L52.18 26.81L52.12 27.01L54.02 28.47C54.19 28.6 54.33 28.66 54.45 28.67V28.66ZM54.62 27.54C54.62 27.54 54.64 27.59 54.65 27.62C54.74 27.9 54.76 28.16 54.69 28.3C54.59 28.51 54.39 28.5 54.09 28.27L53.04 27.46L54.05 27.96C54.23 28.05 54.38 28.04 54.48 27.94C54.58 27.84 54.62 27.69 54.63 27.54H54.62Z" fill="white"/>
<path d="M73.52 32.43L74.35 31.87C66.85 20.84 59.52 19.2 59.21 19.14L59 20.12C59.07 20.14 66.27 21.78 73.52 32.44V32.43Z" fill="#FFD415"/>
</g>
<defs>
<clipPath id="clip0_1215_2686">
<rect width="54.92" height="107.52" fill="white" transform="matrix(-1 0 0 1 82 1)"/>
</clipPath>
</defs>
</svg>
