<svg width="110" height="110" viewBox="0 0 110 110" fill="none" xmlns="http://www.w3.org/2000/svg">
<g clip-path="url(#clip0_1215_2742)">
<path d="M48.8599 56.23L65.1899 56.34L47.6299 80.74L40.2499 104.28L37.4699 103.87L36.5699 105.73C35.6399 107.82 35.5199 108.72 33.9799 107.9L30.1499 106.32C29.4499 105.95 29.5599 104.89 30.3799 104.63C30.9199 104.46 31.7499 104.43 32.3099 104.4C34.3899 104.3 34.1099 102.77 34.4399 101.38C36.4399 93.09 37.3399 86.43 39.6099 78.05C40.8999 73.25 48.8799 56.23 48.8799 56.23H48.8599Z" fill="#291B4C"/>
<path d="M51.43 56.45L68.96 56.5L70.93 78.26L83.45 96.9L81.12 98.86C81.4 99.39 81.89 100.25 82.36 100.58C83.05 101.07 83.95 101.97 83.14 103.06L78.18 107.11C77.46 107.43 76.69 106.32 77.05 105.48C77.29 104.92 78.11 103.69 78.38 103.15C78.93 102.05 78.27 101.21 77.55 100.02C73.22 92.87 63.11 81.93 63.11 81.93L51.43 56.44V56.45Z" fill="#3E2C6D"/>
<path d="M83.5099 45.34C84.1799 46.84 85.9499 47.5 87.4399 46.83C88.6699 46.28 89.3399 44.99 89.1699 43.71C89.1299 43.43 89.0499 43.16 88.9299 42.89C88.6399 42.24 88.3299 41.61 87.9999 41L83.0299 44.34C83.1899 44.66 83.3499 44.99 83.4999 45.33L83.5099 45.34Z" fill="#FADDDC"/>
<path d="M56.66 24.8C56.44 26.43 57.59 27.92 59.21 28.14C59.38 28.16 76.1 30.57 83.03 44.35L88 41.01C79.49 24.96 60.8 22.35 59.98 22.24C58.35 22.03 56.87 23.17 56.65 24.8H56.66Z" fill="#FADDDC"/>
<path d="M57.61 27.65L70.08 33.09L75.38 26.16C70.61 22.82 65.7 20.56 60.64 19.57C57.35 21.09 55.96 23.58 57.61 27.64V27.65Z" fill="#E52729"/>
<path d="M74.5799 25.57L69.1799 32.7L70.0699 33.11L75.3899 26.16" fill="#FFD415"/>
<path d="M45.91 57.16L71.33 57.08C71.33 57.08 69.76 41.09 69.13 33.85C68.5 26.61 68.97 21.33 59.03 18.33H54.68C53.18 18.33 51.76 19.09 50.98 20.37C45.31 29.63 45.9 57.16 45.9 57.16H45.91Z" fill="#EA5041"/>
<path d="M59.85 18.53C59.85 18.53 58.75 21.57 55.44 21.29C53.19 21.1 53.29 18.55 53.29 18.55C53.57 18.44 53.84 18.36 54.11 18.3H58.96C59.3 18.34 59.6 18.42 59.85 18.53Z" fill="#FFD415"/>
<path d="M59.11 4.41H48.72V13.71C48.72 15.53 50.2 17.01 52.02 17.01H53.07C53.58 17.01 54 17.42 54 17.94V18.85C54.04 19.6 54.97 20.52 55.91 20.28C56.85 20.04 58.48 19.28 58.9 18.44L59.11 4.41Z" fill="#FADDDC"/>
<path d="M49.1699 13.88L48.5699 13.71C48.0299 13.56 47.7099 12.99 47.8599 12.45L48.6899 9.49C48.7499 9.26 48.9899 9.13 49.2099 9.2C49.4299 9.27 49.5699 9.5 49.4999 9.72L48.7799 12.28C48.6899 12.59 48.8699 12.91 49.1799 12.99L49.3899 13.05C49.6199 13.11 49.7499 13.35 49.6799 13.57C49.6099 13.79 49.3799 13.93 49.1599 13.86L49.1699 13.88Z" fill="#E0B1BB"/>
<path opacity="0.5" d="M52.25 11.72L51.06 11.6C50.31 11.52 49.76 10.84 49.84 10.09C49.92 9.34 50.6 8.79 51.35 8.87L52.54 8.99C53.29 9.07 53.84 9.75 53.76 10.5C53.68 11.25 53 11.8 52.25 11.72Z" fill="white"/>
<path d="M54.1399 10.86L54.2099 10.24C54.2999 9.43 53.7099 8.7 52.8999 8.62L51.0999 8.43C50.2899 8.34 49.5599 8.93 49.4799 9.74L49.4099 10.36C49.3199 11.17 49.9099 11.9 50.7199 11.98L52.5199 12.17C53.3299 12.26 54.0599 11.67 54.1399 10.86ZM52.7999 9.44C53.1499 9.48 53.4099 9.8 53.3799 10.15L53.3099 10.77C53.2699 11.12 52.9499 11.38 52.5999 11.35L50.7999 11.16C50.4499 11.12 50.1899 10.8 50.2199 10.45L50.2899 9.83C50.3299 9.48 50.6499 9.22 50.9999 9.25L52.7999 9.44Z" fill="#9A9A99"/>
<path opacity="0.5" d="M47.6 11.24L47.37 11.22C46.9 11.17 46.59 10.52 46.67 9.77C46.75 9.02 47.2 8.45 47.66 8.49L47.89 8.51C48.36 8.56 48.67 9.21 48.59 9.96C48.51 10.71 48.06 11.28 47.6 11.24Z" fill="white"/>
<path d="M48.81 10.3L48.88 9.68C48.97 8.87 48.63 8.17 48.12 8.12L47.5 8.06C47 8.01 46.52 8.62 46.43 9.43L46.36 10.05C46.27 10.86 46.61 11.56 47.12 11.61L47.74 11.67C48.24 11.72 48.72 11.11 48.81 10.3ZM48.03 8.94C48.25 8.96 48.4 9.27 48.36 9.63L48.29 10.25C48.25 10.6 48.04 10.87 47.82 10.85L47.2 10.79C46.98 10.77 46.83 10.46 46.87 10.1L46.94 9.48C46.98 9.13 47.19 8.86 47.41 8.88L48.03 8.94Z" fill="#9A9A99"/>
<path d="M48.5723 9.04708L50.1138 9.20937L50.0269 10.0348L48.4854 9.87252L48.5723 9.04708Z" fill="#9A9A99"/>
<path d="M47.66 4.13L47.62 4.54C47.52 5.47 48.2 6.32 49.14 6.41L54.27 7.07C54.75 7.12 55.39 7.54 55.34 8.02L55.3 8.5C55.24 9.03 55.82 9.47 56.13 9.6C56.49 9.74 56.65 10.15 56.52 10.5C56.33 10.99 56.08 11.93 56.25 12.9C56.44 13.95 59.26 14.15 59.05 13.89C58.85 13.64 58.54 13.43 58.64 12.99C58.74 13.28 60.03 13.57 60.06 13.26C60 13.27 59.06 12.1 59.52 11.66C59.84 11.35 60.4 11.41 60.5 10.44C60.64 9.15 60.01 9.17 60.69 8.61C61.36 8.06 61.34 7.21 61.05 6.79C60.76 6.36 60.12 4.89 60.12 4.89C60.1 4.81 60.08 4.73 60.04 4.66C60.49 4.62 60.8 4.21 60.8 4.21C60.21 4.43 59.62 3.75 59.62 3.75H59.61C58.79 2.56 57.34 2.23 55.97 2.04C54.59 1.84 53.5 2.22 52.81 2.41C52.03 2.28 51.44 1.72 51.22 1.01C50.61 1.09 50.11 1.54 49.96 2.14C48.79 2.11 47.79 2.96 47.67 4.14L47.66 4.13Z" fill="#3E2967"/>
<path d="M63.1599 57.06L62.0999 45.67L60.2499 57.06H63.1599Z" fill="#FFD415"/>
<path d="M49.96 34.25H50.07C50.53 33.5 51.07 33.14 51.72 33.18C52.13 33.21 52.23 33.21 52.04 33.18C52.16 33.2 52.26 33.25 52.32 33.35C52.43 33.54 52.47 33.9 52.44 34.45C52.38 35.4 52.02 35.99 51.36 36.21V36.36C51.7 36.61 51.94 36.94 52.04 37.36C52.11 37.67 52.13 38.07 52.1 38.57C52.06 39.18 51.75 39.69 51.17 40.11V40.29L54.41 40.5C54.37 40.46 54.38 40.4 54.42 40.32C53.9 39.84 53.65 39.29 53.69 38.68C53.72 38.18 53.8 37.78 53.91 37.49C54.07 37.08 54.34 36.78 54.72 36.58V36.43C54.1 36.12 53.82 35.49 53.88 34.55C53.9 34.25 53.91 34.09 53.92 34.07C53.94 33.88 54 33.74 54.08 33.65C54.19 33.53 54.33 33.46 54.52 33.46C54.4 33.46 54.56 33.48 55 33.5C55.49 33.53 55.89 34 56.18 34.9H56.33L56.48 32.58L50.11 32.18L49.98 34.25H49.96Z" fill="white"/>
<path d="M53.8699 27.85C54.0299 27.93 54.1599 27.93 54.2399 27.85C54.4499 27.64 54.3299 27.18 54.2899 27.04C54.3699 27.21 54.4599 27.38 54.5199 27.57C54.6199 27.86 54.6499 28.17 54.5599 28.36C54.3999 28.71 54.0699 28.52 53.8699 28.36L51.9699 26.9L53.8699 27.85Z" fill="white"/>
<path d="M54.2599 28.66C54.4099 28.66 54.5299 28.59 54.6099 28.41C54.7099 28.2 54.6999 27.86 54.5799 27.5C54.5199 27.31 54.4299 27.13 54.3499 26.97L54.2299 27.09C54.2699 27.21 54.3699 27.6 54.2099 27.76C54.1499 27.82 54.0299 27.82 53.8999 27.76L51.9899 26.81L51.9299 27.01L53.8299 28.47C53.9999 28.6 54.1399 28.66 54.2599 28.67V28.66ZM54.4299 27.54C54.4299 27.54 54.4499 27.59 54.4599 27.62C54.5499 27.9 54.5699 28.16 54.4999 28.3C54.3999 28.51 54.1999 28.5 53.8999 28.27L52.8499 27.46L53.8599 27.96C54.0399 28.05 54.1899 28.04 54.2899 27.94C54.3899 27.84 54.4299 27.69 54.4399 27.54H54.4299Z" fill="white"/>
<path d="M32.8999 45.73C32.1999 45.78 31.4799 45.81 30.7599 45.81C30.4599 45.81 30.1699 45.77 29.8999 45.69C28.6399 45.32 27.7199 44.16 27.7099 42.79C27.7099 41.11 29.0599 39.75 30.7299 39.74C31.1099 39.74 31.4799 39.73 31.8499 39.71C38.2799 39.41 43.6099 36.8 47.6799 33.8L52.0499 38.17C47.2799 41.85 40.8599 45.19 32.8999 45.73Z" fill="#FADDDC"/>
<path d="M61.05 23.23C62.48 24.11 62.93 25.97 62.05 27.4C61.8 27.81 59.05 33.99 52.73 38.87L47.44 33.56C53.34 29.22 56.82 24.32 56.88 24.23C57.76 22.8 59.63 22.36 61.06 23.24L61.05 23.23Z" fill="#EA5041"/>
<path d="M47.7859 33.2011L53.3206 38.4386L52.6332 39.165L47.0985 33.9274L47.7859 33.2011Z" fill="#FFD415"/>
<path d="M50.7399 36.83C60.2499 32.12 64.9099 27.9 64.5799 24.28C64.2599 20.69 59.2699 19.21 59.0599 19.15L58.7799 20.11C58.7799 20.11 63.3299 21.46 63.5799 24.37C63.7699 26.55 61.6199 30.33 50.2899 35.93L50.7299 36.83H50.7399Z" fill="#FFD415"/>
</g>
<defs>
<clipPath id="clip0_1215_2742">
<rect width="61.5" height="107.2" fill="white" transform="matrix(-1 0 0 1 89.2 1)"/>
</clipPath>
</defs>
</svg>
