<svg width="110" height="110" viewBox="0 0 110 110" fill="none" xmlns="http://www.w3.org/2000/svg">
<g clip-path="url(#clip0_1215_2176)">
<path d="M70.7 56.34L46.04 56.45L51.26 98.88C51.26 98.88 53.85 100.59 53.86 100.65C54.07 102.01 53.86 103.16 51.85 101.89C51.27 101.52 50.81 101.5 50.28 101.98C49.65 102.55 50.13 104.21 50.69 105.1L55.64 109.04C56.23 109.51 57.1 109.56 57.65 109.04C58.5 108.26 58.26 107.01 57.9 106C56.53 102.08 56.95 101.63 56.95 101.63L57.72 101.89C58.22 102.06 58.72 101.67 58.68 101.15C58.28 96 57.26 69.56 57.08 64.81C57.06 64.41 57.38 64.07 57.78 64.06L58.84 64.04C59.16 64.04 59.47 64.26 59.47 64.58C59.5 70.94 59.58 80.91 59.67 80.91C59.67 80.91 60.14 85.16 60.39 86.13C60.74 87.51 62.16 87.32 62.65 86.29C63.07 85.4 63.19 82.68 63.27 81.97H65.45L70.7 56.33V56.34Z" fill="#3E2C6D"/>
<path d="M59.95 14.42H55.34V17.77H59.95V14.42Z" fill="#FADDDC"/>
<path d="M62.67 10.61L62.11 10.64L61.96 8.09C61.94 7.68 62.25 7.33 62.66 7.3L62.96 7.28C63.37 7.26 63.72 7.57 63.75 7.98L63.5 9.67C63.53 10.16 63.16 10.57 62.67 10.6V10.61Z" fill="#FADDDC"/>
<path d="M51.5701 11.25L52.1301 11.22L51.9801 8.67C51.9601 8.26 51.6001 7.94 51.1901 7.97L50.8901 7.99C50.4801 8.01 50.1601 8.37 50.1901 8.78L50.6301 10.43C50.6601 10.92 51.0701 11.29 51.5601 11.26L51.5701 11.25Z" fill="#FADDDC"/>
<path d="M64.03 7.57C63.38 8.17 64 8.11 63.95 9.41C63.91 10.38 63.34 10.37 63.04 10.68C62.61 11.15 63.6 12.26 63.67 12.25C63.66 12.55 62.35 12.34 62.24 12.06C62.17 12.5 62.49 12.69 62.7 12.92C62.8 13.02 62.32 13.08 61.72 13.02C61.27 13.85 60.65 14.52 59.99 15.1C58.76 16.18 56.15 15.95 55.14 15.38C54.4 14.96 53.76 14.29 53.24 13.56C52.8 13.63 52.5 13.6 52.57 13.51C52.67 13.35 52.82 13.21 52.9 13.03C52.84 12.95 52.79 12.87 52.75 12.78C52.38 13 51.56 13.19 51.53 12.95C51.58 12.95 52.22 12.06 52.1 11.54C52.1 11.48 52.06 11.42 52.03 11.37C52.02 11.35 52 11.33 51.98 11.31C51.64 11.03 51.09 11.11 50.93 10.15C50.72 8.87 51.35 8.85 50.63 8.33C49.93 7.83 49.9 6.97 50.18 6.53C50.44 6.08 51 4.58 51 4.58C51.01 4.49 51.03 4.42 51.07 4.34C50.62 4.34 50.29 3.93 50.29 3.93C50.89 4.11 51.44 3.39 51.44 3.39H51.45C52.2 2.16 53.63 1.74 54.98 1.47C55.55 1.27 55.9 0.859996 57.12 0.729996C58.14 0.619996 58.91 1.04 59.15 1.11C59.4 0.849996 59.69 1.05 59.43 -0.0200043C60.04 0.0199957 60.8 0.639996 60.99 1.23C61.85 1.16 62.64 1.57 63.07 2.26C63.26 2.37 63.49 2.63 63.61 3.04C63.72 3.7 63.61 4.06 63.54 4.38C63.78 4.83 64.12 5.46 64.32 5.71C64.63 6.11 64.7 6.97 64.07 7.55L64.03 7.57Z" fill="#3E2967"/>
<path d="M48.8701 19.52C50.0601 18.86 51.5501 19.29 52.2201 20.47C52.8901 21.66 52.4701 23.16 51.2801 23.84C50.8201 24.1 42.1601 28.1 43.0101 45.25C43.0201 45.55 43.0301 45.85 43.0601 46.16C43.1601 47.52 42.1301 48.71 40.7701 48.81C40.7101 48.81 40.6501 48.81 40.5901 48.81C39.3001 48.81 38.2201 47.81 38.1201 46.51C38.0901 46.08 38.0701 45.66 38.0501 45.24C37.1601 25.07 48.3101 19.82 48.8701 19.51V19.52Z" fill="#FADDDC"/>
<path d="M51.8001 18.5C51.8001 18.5 45.1301 19.07 40.1801 28.68L46.2801 33.91C46.2801 33.91 50.5101 29.61 51.8701 25.3C53.2301 20.99 51.8001 18.49 51.8001 18.49V18.5Z" fill="#E52729"/>
<path d="M44.55 56.87H72.06L72.05 26.96C72.05 21.82 67.88 17.65 62.74 17.65H53.85C48.71 17.65 44.54 21.82 44.54 26.96L44.56 56.87H44.55Z" fill="#EA5041"/>
<path d="M69.46 23.32C70.82 22.17 72.86 22.33 74.02 23.7C74.6 24.39 87.74 40.18 82.85 59.34C82.66 60.07 82.46 60.8 82.22 61.54C82.12 61.84 81.98 62.12 81.81 62.37C81.02 63.52 79.54 64.07 78.14 63.62C76.44 63.07 75.51 61.24 76.06 59.54C76.18 59.16 76.3 58.78 76.4 58.39C80.91 42.21 69.2 28.03 69.08 27.88C67.93 26.51 68.1 24.47 69.47 23.32H69.46Z" fill="#FADDDC"/>
<path d="M64.98 17.97C64.98 17.97 74.98 18.94 80.58 30.91L71.46 37.72L68.63 31.8C66.51 29.08 65.29 25.76 65.15 22.32L64.98 17.97Z" fill="#EA5041"/>
<path d="M68.7399 56.72L67.6699 45.34L65.8199 56.72H68.7399Z" fill="#FFD415"/>
<path d="M51.3499 56.72L50.2899 45.34L48.4399 56.72H51.3499Z" fill="#FFD415"/>
<path d="M62.74 17.72L60.99 16.85L56.15 16.89L54.66 17.72H62.74Z" fill="#FFD415"/>
<path d="M78.4501 31.84L79.4001 31.53C75.3901 19.31 60.95 17.04 60.8 17.02L60.55 17.7C60.69 17.72 74.6401 20.21 78.4501 31.84Z" fill="#FFD415"/>
<path d="M72.07 37.86L80.87 31.32L80.31 30.32L71.88 36.64L72.07 37.86Z" fill="#FFD415"/>
<path d="M53.22 28.48C52.92 28.62 52.77 28.7 52.48 28.86C52.22 28.42 52.09 28.19 51.83 27.75C51.27 28.1 51 28.3 50.49 28.73C50.79 29.1 50.95 29.29 51.25 29.66C50.97 29.87 50.84 29.98 50.57 30.21C49.79 29.43 49.4 29.04 48.62 28.26C48.93 27.92 49.09 27.75 49.43 27.44C49.73 27.81 49.88 28 50.19 28.37C50.72 27.91 51 27.7 51.58 27.31C51.32 26.87 51.19 26.65 50.94 26.2C51.3 25.94 51.49 25.82 51.87 25.59C52.41 26.75 52.69 27.32 53.23 28.48H53.22Z" fill="white"/>
<path d="M56.06 23.89C56.98 23.68 57.73 24.1 57.73 24.72C57.73 25.36 57.73 25.69 57.73 26.33C57.73 26.94 57.17 27.45 56.48 27.54C56.28 27.57 56.19 27.58 55.99 27.61C55.31 27.73 54.64 27.47 54.49 26.95C54.33 26.4 54.25 26.12 54.1 25.57C53.95 25.04 54.53 24.31 55.43 24.05C55.69 23.98 55.82 23.94 56.08 23.88L56.06 23.89ZM56.76 24.88C56.74 24.62 56.49 24.45 56.12 24.53C55.88 24.58 55.76 24.61 55.51 24.68C55.14 24.78 54.95 25.05 55 25.29C55.11 25.84 55.17 26.12 55.28 26.67C55.33 26.91 55.56 27.06 55.87 27C56.07 26.96 56.17 26.94 56.37 26.91C56.68 26.86 56.86 26.63 56.85 26.37C56.81 25.78 56.79 25.48 56.75 24.88H56.76Z" fill="white"/>
<path d="M60.67 24.99C60.43 26.06 60.32 26.6 60.08 27.67C59.78 27.61 59.63 27.58 59.33 27.54C59.57 25.93 59.69 25.12 59.94 23.51C60.36 23.52 60.57 23.54 60.99 23.58C61.55 24.74 61.75 25.37 61.99 26.65C62.38 25.56 62.57 25.01 62.96 23.92C63.36 24.02 63.56 24.07 63.96 24.2C63.25 25.85 62.9 26.68 62.19 28.33C61.91 28.21 61.77 28.15 61.49 28.05C61.33 26.77 61.16 26.15 60.68 24.98L60.67 24.99Z" fill="white"/>
<path d="M66.25 29.52L66.8 28.9C66.54 28.67 66.4 28.56 66.13 28.35C66.32 28.11 66.42 27.99 66.61 27.74C67.2 28.18 67.48 28.42 68.02 28.94C67.17 29.79 66.75 30.21 65.9 31.06C65.7 30.83 65.59 30.72 65.38 30.51C65.42 30.46 65.44 30.44 65.49 30.39C65.29 30.33 65.1 30.24 64.95 30.1C64.82 29.98 64.75 29.92 64.61 29.81C64.06 29.37 63.89 28.54 64.27 27.89C64.67 27.21 64.87 26.87 65.28 26.19C65.67 25.54 66.7 25.35 67.53 25.88C67.79 26.05 67.92 26.14 68.18 26.32C68.95 26.88 69.05 27.78 68.57 28.38C68.26 28.09 68.1 27.95 67.78 27.68C67.9 27.44 67.9 27.19 67.63 26.98C67.4 26.81 67.28 26.72 67.03 26.56C66.7 26.34 66.31 26.43 66.12 26.71C65.69 27.34 65.47 27.66 65.04 28.3C64.85 28.58 64.87 28.93 65.13 29.12C65.32 29.27 65.42 29.35 65.6 29.51C65.8 29.69 66.05 29.66 66.27 29.51L66.25 29.52Z" fill="white"/>
</g>
<defs>
<clipPath id="clip0_1215_2176">
<rect width="45.93" height="109.41" fill="white" transform="translate(38)"/>
</clipPath>
</defs>
</svg>
