<svg width="110" height="110" viewBox="0 0 110 110" fill="none" xmlns="http://www.w3.org/2000/svg">
<g clip-path="url(#clip0_1215_1732)">
<path d="M70.13 56.45H43.4L48.43 102.91L51.76 102.44C51.85 103.31 51.61 104.62 50.66 105.39C50.13 105.82 49.57 106.21 49.04 106.64C48.42 107.15 48.74 108.28 49.51 108.28L54.5 107.26C56.74 106.79 56.43 105.21 55.99 103.99C55.7 103.18 55.23 101.78 55.23 101.78L56.28 101.48L56 64.05H57.53C57.53 64.05 60.36 84.56 60.61 85.43C60.96 86.68 62.37 86.5 62.86 85.57C63.28 84.77 63.7 81.5 63.78 80.86L65.48 80.51C67.05 80.19 68.23 78.87 68.36 77.27L70.14 56.45H70.13Z" fill="#3E2C6D"/>
<path d="M93.31 43C85.37 41.75 79.53 37.11 75.69 32.83L71.58 37.41C76 42.2 82.6 47.25 91.61 48.87" fill="#FADDDC"/>
<path d="M68.43 22.06C67.32 20.69 65.83 21.15 64.52 21.83C63.03 22.6 62.24 27.39 62.79 28.97C63.09 29.84 66.3 33.31 70.83 38.22L75.86 32.61C72.17 28.5 70.24 24.28 68.44 22.06H68.43Z" fill="#E52729"/>
<path d="M71.2 38.56L70.46 37.89L75.58 32.29L76.33 32.96L71.2 38.56Z" fill="#FFD415"/>
<path d="M32.28 53.46C32.37 54.16 32.48 54.86 32.62 55.58C32.68 55.87 32.78 56.15 32.91 56.4C33.52 57.56 34.84 58.24 36.19 57.97C37.84 57.65 38.91 56.05 38.58 54.4C38.51 54.03 38.45 53.66 38.39 53.29C37.41 46.93 38.92 41.18 41.05 36.6L35.9 33.18C33.24 38.59 31.24 45.55 32.28 53.46Z" fill="#FADDDC"/>
<path d="M72.74 57.54H41.41L43.34 27.22C43.34 22.97 42.98 19.52 51.04 19.52H63.13C67.38 19.52 70.83 22.97 70.83 27.22L72.74 57.54Z" fill="#EA5041"/>
<path d="M48.77 21.41C47.63 20.18 45.71 20.11 44.48 21.25C44.13 21.58 38.61 25.49 35.08 32.65L41.33 36.79C44.42 30.15 48.53 25.77 48.61 25.7C49.83 24.56 49.9 22.64 48.76 21.41H48.77Z" fill="#EA5041"/>
<path d="M53.1801 19.54H60.5301V19.77C60.5301 21.76 58.9201 23.37 56.9301 23.37H56.7801C54.7901 23.37 53.1801 21.76 53.1801 19.77V19.54Z" fill="#FFD415"/>
<path d="M54.51 4.67H62.27C63.35 4.67 64.23 5.55 64.23 6.63V14.27C64.23 15.98 62.85 17.36 61.14 17.36H60.16C59.68 17.36 59.29 17.75 59.29 18.23V19.92C59.29 21.23 58.23 22.3 56.91 22.3C55.6 22.3 54.54 21.24 54.53 19.93L54.5 4.67H54.51Z" fill="#FADDDC"/>
<path d="M61.0899 14.56H61.6799C62.2099 14.56 62.6299 14.13 62.6299 13.61V10.74C62.6299 10.52 62.4499 10.34 62.2299 10.34C62.0099 10.34 61.8299 10.52 61.8299 10.74V13.23C61.8299 13.53 61.5899 13.77 61.2899 13.77H61.0899C60.8699 13.77 60.6899 13.95 60.6899 14.17C60.6899 14.39 60.8699 14.57 61.0899 14.57V14.56Z" fill="#ECBEC6"/>
<path d="M53.5 12.12H55.11V8.7H53.5V12.12Z" fill="#FADDDC"/>
<path opacity="0.5" d="M58.9399 12.39H60.1299C60.8799 12.39 61.4999 11.77 61.4999 11.02C61.4999 10.27 60.8799 9.64999 60.1299 9.64999H58.9399C58.1899 9.64999 57.5699 10.27 57.5699 11.02C57.5699 11.77 58.1899 12.39 58.9399 12.39Z" fill="white"/>
<path d="M57.15 11.33V10.71C57.15 9.9 57.81 9.23 58.63 9.23H60.44C61.25 9.23 61.92 9.89 61.92 10.71V11.33C61.92 12.14 61.26 12.81 60.44 12.81H58.63C57.82 12.81 57.15 12.15 57.15 11.33ZM58.63 10.06C58.27 10.06 57.98 10.35 57.98 10.71V11.33C57.98 11.69 58.27 11.98 58.63 11.98H60.44C60.8 11.98 61.09 11.69 61.09 11.33V10.71C61.09 10.35 60.8 10.06 60.44 10.06H58.63Z" fill="#9A9A99"/>
<path opacity="0.5" d="M64.29 12.39H64.67C65.42 12.39 66.04 11.77 66.04 11.02C66.04 10.27 65.42 9.64999 64.67 9.64999H64.29C63.54 9.64999 62.92 10.27 62.92 11.02C62.92 11.77 63.54 12.39 64.29 12.39Z" fill="white"/>
<path d="M62.5 11.33V10.71C62.5 9.9 63.16 9.23 63.98 9.23H64.98C65.79 9.23 66.46 9.89 66.46 10.71V11.33C66.46 12.14 65.8 12.81 64.98 12.81H63.98C63.17 12.81 62.5 12.15 62.5 11.33ZM63.98 10.06C63.62 10.06 63.33 10.35 63.33 10.71V11.33C63.33 11.69 63.62 11.98 63.98 11.98H64.98C65.34 11.98 65.63 11.69 65.63 11.33V10.71C65.63 10.35 65.34 10.06 64.98 10.06H63.98Z" fill="#9A9A99"/>
<path d="M62.8699 10.11H61.3199V10.94H62.8699V10.11Z" fill="#9A9A99"/>
<path d="M65.99 5.48001V5.89001C65.99 6.83001 65.22 7.60001 64.28 7.60001H57.31C56.83 7.60001 56.44 7.98001 56.44 8.46001L56.46 8.89001C56.46 9.42001 56.16 9.86001 55.84 9.95001C55.47 10.05 55.27 10.44 55.36 10.81C55.49 11.32 55.65 12.28 55.38 13.23C55.08 14.25 53.41 14.24 53.64 14.01C53.86 13.79 54.19 13.6 54.14 13.16C54.01 13.44 52.7 13.59 52.7 13.28C52.76 13.3 53.81 12.23 53.4 11.75C53.11 11.41 52.55 11.41 52.55 10.43C52.55 9.13001 53.17 9.21001 52.55 8.59001C51.94 7.98001 52.05 7.13001 52.39 6.74001C52.73 6.34001 53.51 4.94001 53.51 4.94001C53.54 4.86001 53.57 4.79001 53.61 4.72001C53.17 4.64001 52.91 4.19001 52.91 4.19001C53.47 4.47001 54.14 3.85001 54.14 3.85001H54.15C55.09 2.76001 56.57 2.57001 57.95 2.53001C59.34 2.48001 60.39 2.97001 61.05 3.22001C61.84 3.17001 62.48 2.68001 62.78 1.99001C63.38 2.13001 63.83 2.63001 63.91 3.25001C65.07 3.34001 65.98 4.29001 65.98 5.48001H65.99Z" fill="#3E2967"/>
<path d="M62.65 34.57H62.49C61.88 33.83 61.08 33.46 60.11 33.46C59.5 33.46 59.34 33.46 59.63 33.45C59.44 33.45 59.3 33.51 59.19 33.6C59 33.77 58.91 34.11 58.91 34.63C58.91 35.53 59.4 36.1 60.37 36.36V36.51C59.81 36.72 59.43 37.02 59.23 37.42C59.09 37.71 59.02 38.09 59.02 38.56C59.02 39.14 59.44 39.64 60.27 40.07V40.24H55.36C55.42 40.21 55.42 40.15 55.36 40.07C56.19 39.65 56.61 39.14 56.61 38.56C56.61 38.09 56.54 37.71 56.39 37.42C56.18 37.03 55.81 36.73 55.26 36.51V36.36C56.23 36.11 56.72 35.53 56.72 34.63C56.72 34.34 56.72 34.19 56.71 34.18C56.69 34 56.63 33.87 56.51 33.78C56.36 33.66 56.15 33.59 55.87 33.57C56.05 33.57 55.81 33.58 55.15 33.58C54.41 33.58 53.77 34 53.24 34.83H53.02V32.62H62.65V34.58V34.57Z" fill="white"/>
<path d="M43.3101 57.55L44.3701 46.17L46.2201 57.55H43.3101Z" fill="#FFD415"/>
<path d="M67.92 57.55L68.98 46.17L70.83 57.55H67.92Z" fill="#FFD415"/>
<path d="M36.7 33.51L35.87 32.96C41.16 25.01 43.24 23.42 44.35 22.56C44.46 22.48 44.56 22.4 44.65 22.32C47.61 19.9 53.49 20.43 53.74 20.45L53.64 21.45C53.58 21.45 47.92 20.93 45.28 23.09C45.18 23.17 45.07 23.25 44.96 23.34C43.89 24.16 41.9 25.69 36.7 33.5V33.51Z" fill="#FFD415"/>
<path d="M35.4032 32.0057L34.8271 32.8231L41.0561 37.2123L41.6321 36.3948L35.4032 32.0057Z" fill="#FFD415"/>
<path d="M57.3599 28.3C57.1099 28.37 56.9099 28.36 56.7999 28.27C56.5099 28.06 56.7299 27.63 56.7999 27.5C56.6599 27.66 56.5199 27.81 56.4099 27.98C56.2399 28.25 56.1599 28.54 56.2799 28.73C56.4899 29.07 56.9999 28.91 57.3199 28.78L60.3099 27.52L57.3499 28.3H57.3599Z" fill="white"/>
<path d="M56.7001 29.04C56.4701 29.04 56.3101 28.96 56.2001 28.79C56.0701 28.58 56.12 28.26 56.33 27.93C56.44 27.75 56.59 27.59 56.73 27.44L56.9 27.56C56.83 27.67 56.6401 28.03 56.8601 28.19C56.9401 28.25 57.12 28.26 57.33 28.19L60.2901 27.41L60.3601 27.6L57.3701 28.86C57.1101 28.97 56.8901 29.02 56.7001 29.02V29.04ZM56.55 27.98C56.55 27.98 56.52 28.03 56.5 28.05C56.33 28.31 56.2801 28.55 56.3701 28.69C56.5001 28.9 56.8101 28.9 57.2801 28.69L58.9401 27.99L57.38 28.4C57.1 28.48 56.87 28.46 56.73 28.36C56.59 28.26 56.5401 28.12 56.5401 27.98H56.55Z" fill="white"/>
</g>
<defs>
<clipPath id="clip0_1215_1732">
<rect width="61.31" height="106.29" fill="white" transform="translate(32 2)"/>
</clipPath>
</defs>
</svg>
