<svg width="110" height="110" viewBox="0 0 110 110" fill="none" xmlns="http://www.w3.org/2000/svg">
<g clip-path="url(#clip0_1215_2549)">
<path d="M56.8801 54.3L41.3101 54.67L44.1101 103.39L46.4301 104.14C46.4401 104.73 46.4301 105.72 46.1801 106.26C45.8201 107.06 45.4701 108.32 46.6701 108.74L52.7601 109.19C53.5201 109.04 53.6601 107.68 52.9601 107.21C52.5001 106.9 51.2301 106.35 50.7501 106.07C49.7701 105.48 49.8101 104.41 50.0001 103.03C51.3801 93.06 56.8701 54.29 56.8701 54.29L56.8801 54.3Z" fill="#291B4C"/>
<path d="M61.3399 56.25L45.3199 55.23L56.8199 76.28L52.0799 97.24L54.4299 97.98V100.02C54.2499 101.45 54.2499 102.38 55.7699 103.21L59.6799 104.21C60.4499 104.27 60.8099 103.32 60.2099 102.67C59.8099 102.24 58.9699 101.94 58.6099 101.46C57.0399 99.34 57.8599 98.84 58.1599 97.5C59.9499 89.49 66.3699 75.97 66.3699 75.97L61.3299 56.24L61.3399 56.25Z" fill="#3E2C6D"/>
<path d="M37.95 52.72C37.96 54.36 36.64 55.7 35 55.72C33.65 55.73 32.5 54.84 32.13 53.61C32.05 53.34 32 53.06 32 52.77C32 52.06 32.01 51.36 32.05 50.67L37.96 51.63C37.95 51.99 37.94 52.36 37.94 52.73L37.95 52.72Z" fill="#FADDDC"/>
<path d="M53.7601 22.84C54.6401 24.23 54.2201 26.06 52.8301 26.94C52.6801 27.03 38.5001 36.2 37.9601 51.62L32.0601 50.67C33.0901 32.53 48.9701 22.35 49.6701 21.91C51.0601 21.04 52.8901 21.46 53.7601 22.84Z" fill="#FADDDC"/>
<path d="M54.0899 25.82L45.0299 35.98L37.3199 31.9C40.2599 26.87 43.7699 22.76 47.9599 19.76C51.5799 19.76 53.8799 21.45 54.0799 25.83L54.0899 25.82Z" fill="#E52729"/>
<path d="M37.76 31.02L44.44 34.63L43.97 35.52L37.29 31.9" fill="#FFD415"/>
<path d="M64.02 57.16L38.6 57.08C38.6 57.08 40.17 41.09 40.8 33.85C41.43 26.61 40.96 21.33 50.9 18.33H55.25C56.75 18.33 58.17 19.09 58.95 20.37C64.62 29.63 64.03 57.16 64.03 57.16H64.02Z" fill="#EA5041"/>
<path d="M50.09 18.53C50.09 18.53 51.19 21.57 54.5 21.29C56.75 21.1 56.65 18.55 56.65 18.55C56.37 18.44 56.1 18.36 55.83 18.3H50.98C50.64 18.34 50.34 18.42 50.09 18.53Z" fill="#FFD415"/>
<path d="M50.83 4.41H61.22V13.71C61.22 15.53 59.74 17.01 57.92 17.01H56.87C56.36 17.01 55.94 17.42 55.94 17.94V18.85C55.9 19.6 54.97 20.52 54.03 20.28C53.09 20.04 51.46 19.28 51.04 18.44L50.83 4.41Z" fill="#FADDDC"/>
<path d="M60.77 13.88L61.37 13.71C61.91 13.56 62.23 12.99 62.08 12.45L61.25 9.49C61.19 9.26 60.95 9.13 60.73 9.2C60.51 9.27 60.37 9.5 60.44 9.72L61.16 12.28C61.25 12.59 61.07 12.91 60.76 12.99L60.55 13.05C60.32 13.11 60.19 13.35 60.26 13.57C60.33 13.79 60.56 13.93 60.78 13.86L60.77 13.88Z" fill="#E0B1BB"/>
<path opacity="0.5" d="M57.69 11.72L58.88 11.6C59.63 11.52 60.18 10.84 60.1 10.09C60.02 9.34001 59.34 8.79001 58.59 8.87001L57.4 8.99001C56.65 9.07001 56.1 9.75001 56.18 10.5C56.26 11.25 56.94 11.8 57.69 11.72Z" fill="white"/>
<path d="M55.8 10.86L55.73 10.24C55.64 9.43 56.23 8.7 57.04 8.62L58.84 8.43C59.65 8.34 60.38 8.93 60.46 9.74L60.53 10.36C60.62 11.17 60.03 11.9 59.22 11.98L57.42 12.17C56.61 12.26 55.88 11.67 55.8 10.86ZM57.13 9.44C56.78 9.48 56.52 9.8 56.55 10.15L56.62 10.77C56.66 11.12 56.98 11.38 57.33 11.35L59.13 11.16C59.48 11.12 59.74 10.8 59.71 10.45L59.64 9.83C59.6 9.48 59.28 9.22 58.93 9.25L57.13 9.44Z" fill="#9A9A99"/>
<path opacity="0.5" d="M62.34 11.24L62.57 11.22C63.04 11.17 63.35 10.52 63.27 9.77001C63.19 9.02001 62.74 8.45 62.28 8.49L62.05 8.51C61.58 8.56 61.27 9.21 61.35 9.96C61.43 10.71 61.88 11.28 62.34 11.24Z" fill="white"/>
<path d="M61.12 10.3L61.05 9.68C60.96 8.87 61.3 8.17 61.81 8.12L62.43 8.06C62.93 8.01 63.41 8.62 63.5 9.43L63.57 10.05C63.66 10.86 63.32 11.56 62.81 11.61L62.19 11.67C61.69 11.72 61.21 11.11 61.12 10.3ZM61.9 8.94C61.68 8.96 61.53 9.27 61.57 9.63L61.64 10.25C61.68 10.6 61.89 10.87 62.11 10.85L62.73 10.79C62.95 10.77 63.1 10.46 63.06 10.1L62.99 9.47999C62.95 9.12999 62.74 8.86 62.52 8.88L61.9 8.94Z" fill="#9A9A99"/>
<path d="M61.3596 9.04602L59.8181 9.20831L59.905 10.0338L61.4465 9.87146L61.3596 9.04602Z" fill="#9A9A99"/>
<path d="M62.27 4.12999L62.31 4.53999C62.41 5.46999 61.73 6.31999 60.79 6.40999L55.66 7.06999C55.18 7.11999 54.54 7.53999 54.59 8.01999L54.63 8.49999C54.69 9.02999 54.11 9.46999 53.8 9.59999C53.44 9.73999 53.28 10.15 53.41 10.5C53.6 10.99 53.85 11.93 53.68 12.9C53.49 13.95 50.67 14.15 50.88 13.89C51.08 13.64 51.39 13.43 51.29 12.99C51.19 13.28 49.9 13.57 49.87 13.26C49.93 13.27 50.87 12.1 50.41 11.66C50.09 11.35 49.53 11.41 49.43 10.44C49.29 9.14999 49.92 9.16999 49.24 8.60999C48.57 8.05999 48.59 7.20999 48.88 6.78999C49.17 6.35999 49.81 4.88999 49.81 4.88999C49.83 4.80999 49.85 4.72999 49.89 4.65999C49.44 4.61999 49.13 4.20999 49.13 4.20999C49.72 4.42999 50.31 3.74999 50.31 3.74999H50.32C51.14 2.55999 52.59 2.22999 53.96 2.03999C55.34 1.83999 56.43 2.21999 57.12 2.40999C57.9 2.27999 58.49 1.71999 58.71 1.00999C59.32 1.08999 59.82 1.53999 59.97 2.13999C61.14 2.10999 62.14 2.95999 62.26 4.13999L62.27 4.12999Z" fill="#3E2967"/>
<path d="M55.09 56.35C55.58 56.86 56.09 57.35 56.63 57.84C56.85 58.04 57.1 58.2 57.35 58.32C58.53 58.89 59.99 58.64 60.92 57.61C62.04 56.36 61.94 54.44 60.7 53.32C60.42 53.07 60.15 52.81 59.89 52.55C55.3 48.04 53.07 42.54 52.03 37.59L45.86 37.93C46.96 43.85 49.53 50.62 55.09 56.33V56.35Z" fill="#FADDDC"/>
<path d="M49.11 20.81C47.46 20.51 45.88 21.6 45.58 23.25C45.49 23.72 43.42 30.16 44.88 38.01L52.37 37.58C50.87 30.41 51.54 24.44 51.56 24.33C51.85 22.68 50.76 21.1 49.11 20.8V20.81Z" fill="#EA5041"/>
<path d="M52.3522 37.0772L44.7355 37.3006L44.7648 38.3002L52.3815 38.0768L52.3522 37.0772Z" fill="#FFD415"/>
<path d="M46.77 57.06L47.84 45.67L49.69 57.06H46.77Z" fill="#FFD415"/>
<path d="M59.98 34.25H59.87C59.41 33.5 58.87 33.14 58.22 33.18C57.81 33.21 57.71 33.21 57.9 33.18C57.78 33.2 57.68 33.25 57.62 33.35C57.51 33.54 57.47 33.9 57.5 34.45C57.56 35.4 57.92 35.99 58.58 36.21V36.36C58.24 36.61 58 36.94 57.9 37.36C57.83 37.67 57.81 38.07 57.84 38.57C57.88 39.18 58.19 39.69 58.77 40.11V40.29L55.53 40.5C55.57 40.46 55.56 40.4 55.52 40.32C56.04 39.84 56.29 39.29 56.25 38.68C56.22 38.18 56.14 37.78 56.03 37.49C55.87 37.08 55.6 36.78 55.22 36.58V36.43C55.84 36.12 56.12 35.49 56.06 34.55C56.04 34.25 56.03 34.09 56.02 34.07C56 33.88 55.94 33.74 55.86 33.65C55.75 33.53 55.61 33.46 55.42 33.46C55.54 33.46 55.38 33.48 54.94 33.5C54.45 33.53 54.05 34 53.76 34.9H53.61L53.46 32.58L59.83 32.18L59.96 34.25H59.98Z" fill="white"/>
<path d="M56.06 27.85C55.9 27.93 55.77 27.93 55.69 27.85C55.48 27.64 55.6 27.18 55.64 27.04C55.56 27.21 55.47 27.38 55.41 27.57C55.31 27.86 55.28 28.17 55.37 28.36C55.53 28.71 55.86 28.52 56.06 28.36L57.96 26.9L56.06 27.85Z" fill="white"/>
<path d="M55.67 28.66C55.52 28.66 55.4 28.59 55.32 28.41C55.22 28.2 55.23 27.86 55.35 27.5C55.41 27.31 55.5 27.13 55.58 26.97L55.7 27.09C55.66 27.21 55.56 27.6 55.72 27.76C55.78 27.82 55.9 27.82 56.03 27.76L57.94 26.81L58 27.01L56.1 28.47C55.93 28.6 55.79 28.66 55.67 28.67V28.66ZM55.5 27.54C55.5 27.54 55.48 27.59 55.47 27.62C55.38 27.9 55.36 28.16 55.43 28.3C55.53 28.51 55.73 28.5 56.03 28.27L57.08 27.46L56.07 27.96C55.89 28.05 55.74 28.04 55.64 27.94C55.54 27.84 55.5 27.69 55.49 27.54H55.5Z" fill="white"/>
<path d="M48.09 37.74C45.14 31.31 44.54 26.3 46.3 22.86C47.89 19.77 50.79 19.16 50.92 19.14L51.11 20.12C51.01 20.14 48.54 20.67 47.18 23.33C45.6 26.45 46.22 31.28 48.99 37.32L48.08 37.74H48.09Z" fill="#FFD415"/>
</g>
<defs>
<clipPath id="clip0_1215_2549">
<rect width="34.37" height="108.2" fill="white" transform="translate(32 1)"/>
</clipPath>
</defs>
</svg>
