<svg width="110" height="110" viewBox="0 0 110 110" fill="none" xmlns="http://www.w3.org/2000/svg">
<g clip-path="url(#clip0_1215_2054)">
<path d="M43.8201 56.18H70.5501L65.5201 102.64L62.1901 102.17C62.1001 103.04 62.3401 104.35 63.2901 105.12C63.8201 105.55 64.3801 105.94 64.9101 106.37C65.5301 106.88 65.2101 108.01 64.4401 108.01L59.4501 106.99C57.2101 106.52 57.5201 104.94 57.9601 103.72C58.2501 102.91 58.7201 101.51 58.7201 101.51L57.6701 101.21L57.9501 63.78H56.4201C56.4201 63.78 53.5901 84.29 53.3401 85.16C52.9901 86.41 51.5801 86.23 51.0901 85.3C50.6701 84.5 50.2501 81.23 50.1701 80.59L48.4701 80.24C46.9001 79.92 45.7201 78.6 45.5901 77L43.8101 56.18H43.8201Z" fill="#3E2C6D"/>
<path d="M91.43 47.77C91.07 47.67 90.71 47.55 90.36 47.44C82.74 44.9 77.73 39.36 74.65 34.52L69.85 38.36C73.42 43.81 79.1 49.88 87.72 52.96C88.38 53.2 89.06 53.42 89.76 53.62C90.05 53.7 90.34 53.74 90.62 53.74C91.93 53.73 93.13 52.86 93.51 51.54C93.97 49.93 93.04 48.25 91.42 47.78L91.43 47.77Z" fill="#FADDDC"/>
<path d="M69.26 22.71C68.39 21.18 66.84 21.39 65.44 21.84C63.85 22.36 62.28 26.95 62.56 28.6C62.72 29.51 65.31 33.45 68.97 39.04L74.85 34.33C71.88 29.67 70.67 25.19 69.26 22.7V22.71Z" fill="#E52729"/>
<path d="M68.4301 38.3L74.5701 33.84L75.1701 34.64L69.0201 39.1" fill="#FFD415"/>
<path d="M73.21 57.44H41.87L43.8 27.12C43.8 22.87 43.44 19.42 51.5 19.42H63.59C67.84 19.42 71.29 22.87 71.29 27.12L73.2 57.44H73.21Z" fill="#EA5041"/>
<path d="M53.64 19.43H60.99V19.66C60.99 21.65 59.38 23.26 57.39 23.26H57.24C55.25 23.26 53.64 21.65 53.64 19.66V19.43Z" fill="#FFD415"/>
<path d="M53.3101 5.03L61.0301 4.22C62.1101 4.11 63.0701 4.89 63.1901 5.97L63.9901 13.57C64.1701 15.27 62.9401 16.79 61.2401 16.97L60.2601 17.07C59.7801 17.12 59.4401 17.55 59.4901 18.02L59.6701 19.7C59.8101 21 58.8601 22.17 57.5601 22.31C56.2601 22.45 55.0901 21.5 54.9501 20.2L53.3201 5.03H53.3101Z" fill="#FADDDC"/>
<path d="M60.89 14.17L61.47 14.11C61.99 14.05 62.37 13.59 62.32 13.06L62.02 10.2C62 9.97999 61.8 9.81999 61.58 9.84999C61.36 9.87999 61.2 10.07 61.23 10.29L61.49 12.77C61.52 13.07 61.31 13.33 61.01 13.36L60.81 13.38C60.59 13.4 60.43 13.6 60.46 13.82C60.49 14.04 60.68 14.2 60.9 14.17H60.89Z" fill="#ECBEC6"/>
<path d="M53.0863 12.5376L54.6875 12.3691L54.3294 8.96786L52.7283 9.13643L53.0863 12.5376Z" fill="#FADDDC"/>
<path opacity="0.5" d="M58.5201 12.24L59.7101 12.12C60.4601 12.04 61.0101 11.36 60.9301 10.61C60.8501 9.86 60.1701 9.31 59.4201 9.39L58.2301 9.51C57.4801 9.59 56.9301 10.27 57.0101 11.02C57.0901 11.77 57.7701 12.32 58.5201 12.24Z" fill="white"/>
<path d="M56.64 11.37L56.57 10.75C56.48 9.94 57.07 9.21 57.88 9.13L59.68 8.94C60.49 8.85 61.22 9.44 61.3 10.25L61.37 10.87C61.46 11.68 60.87 12.41 60.06 12.49L58.26 12.68C57.45 12.77 56.72 12.18 56.64 11.37ZM57.97 9.95C57.62 9.99 57.36 10.31 57.39 10.66L57.46 11.28C57.5 11.63 57.82 11.89 58.17 11.86L59.97 11.67C60.32 11.63 60.58 11.31 60.55 10.96L60.48 10.34C60.44 9.99 60.12 9.73 59.77 9.76L57.97 9.95Z" fill="#9A9A99"/>
<path opacity="0.5" d="M63.85 11.68L64.22 11.64C64.97 11.56 65.52 10.88 65.44 10.13C65.36 9.38 64.68 8.83 63.93 8.91L63.56 8.95C62.81 9.03 62.26 9.71 62.34 10.46C62.42 11.21 63.1 11.76 63.85 11.68Z" fill="white"/>
<path d="M61.9601 10.81L61.8901 10.19C61.8001 9.37999 62.3901 8.64999 63.2001 8.56999L64.1901 8.46999C65.0001 8.37999 65.7301 8.96999 65.8101 9.77999L65.8801 10.4C65.9701 11.21 65.3801 11.94 64.5701 12.02L63.5801 12.12C62.7701 12.21 62.0401 11.62 61.9601 10.81ZM63.2901 9.38999C62.9401 9.42999 62.6801 9.74999 62.7101 10.1L62.7801 10.72C62.8201 11.07 63.1401 11.33 63.4901 11.3L64.4801 11.2C64.8301 11.16 65.0901 10.84 65.0601 10.49L64.9901 9.86999C64.9501 9.51999 64.6301 9.25999 64.2801 9.28999L63.2901 9.38999Z" fill="#9A9A99"/>
<path d="M62.195 9.55967L60.6536 9.72195L60.7405 10.5474L62.2819 10.3851L62.195 9.55967Z" fill="#9A9A99"/>
<path d="M64.81 4.63001L64.85 5.04001C64.95 5.97001 64.27 6.82001 63.33 6.91001L56.39 7.64001C55.91 7.69001 55.57 8.11001 55.62 8.58001L55.69 9.00001C55.75 9.53001 55.5 10 55.18 10.12C54.82 10.26 54.66 10.67 54.79 11.02C54.98 11.51 55.23 12.45 55.06 13.42C54.87 14.47 53.21 14.63 53.41 14.37C53.61 14.12 53.92 13.91 53.82 13.47C53.72 13.76 52.43 14.05 52.4 13.74C52.46 13.75 53.4 12.58 52.94 12.14C52.62 11.83 52.06 11.89 51.96 10.92C51.82 9.63001 52.45 9.65001 51.77 9.09001C51.1 8.54001 51.12 7.69001 51.41 7.27001C51.7 6.84001 52.34 5.37001 52.34 5.37001C52.36 5.29001 52.38 5.21001 52.42 5.14001C51.97 5.10001 51.66 4.69001 51.66 4.69001C52.25 4.91001 52.84 4.23001 52.84 4.23001H52.85C53.67 3.04001 55.12 2.71001 56.49 2.52001C57.87 2.32001 58.96 2.70001 59.65 2.89001C60.43 2.76001 61.02 2.20001 61.24 1.49001C61.85 1.57001 62.35 2.02001 62.5 2.62001C63.67 2.59001 64.67 3.44001 64.79 4.62001L64.81 4.63001Z" fill="#3E2967"/>
<path d="M63.11 34.46H62.95C62.34 33.72 61.54 33.35 60.57 33.35C59.96 33.35 59.8 33.35 60.09 33.34C59.9 33.34 59.76 33.4 59.65 33.49C59.46 33.66 59.37 34 59.37 34.52C59.37 35.42 59.86 35.99 60.83 36.25V36.4C60.27 36.61 59.89 36.91 59.69 37.31C59.55 37.6 59.48 37.98 59.48 38.45C59.48 39.03 59.9 39.53 60.73 39.96V40.13H55.82C55.88 40.1 55.88 40.04 55.82 39.96C56.65 39.54 57.07 39.03 57.07 38.45C57.07 37.98 57 37.6 56.85 37.31C56.64 36.92 56.27 36.62 55.72 36.4V36.25C56.69 36 57.18 35.42 57.18 34.52C57.18 34.23 57.18 34.08 57.17 34.07C57.15 33.89 57.09 33.76 56.97 33.67C56.82 33.55 56.61 33.48 56.33 33.46C56.51 33.46 56.27 33.47 55.61 33.47C54.87 33.47 54.23 33.89 53.7 34.72H53.48V32.51H63.11V34.47V34.46Z" fill="white"/>
<path d="M43.77 57.45L44.84 46.06L46.69 57.45H43.77Z" fill="#FFD415"/>
<path d="M68.38 57.45L69.45 46.06L71.3 57.45H68.38Z" fill="#FFD415"/>
<path d="M30.0299 51.9C30.0599 52.6 30.1099 53.32 30.1799 54.04C30.2099 54.34 30.2799 54.62 30.3899 54.88C30.8899 56.09 32.1399 56.88 33.5099 56.74C35.1799 56.57 36.3899 55.07 36.2099 53.4C36.1699 53.02 36.1399 52.65 36.1199 52.28C35.7199 45.86 37.7399 40.27 40.2699 35.9L35.4499 32.03C32.3299 37.19 29.7099 43.93 30.0299 51.9Z" fill="#FADDDC"/>
<path d="M49.34 21.48C48.31 20.16 46.41 19.91 45.09 20.94C44.71 21.23 38.86 24.63 34.7 31.45L40.55 36.14C44.22 29.81 48.72 25.81 48.8 25.75C50.12 24.72 50.36 22.81 49.34 21.49V21.48Z" fill="#EA5041"/>
<path d="M35.0646 30.8095L34.4172 31.5717L40.2253 36.5043L40.8726 35.7421L35.0646 30.8095Z" fill="#FFD415"/>
<path d="M36.69 32.6L35.86 32.05C40.92 24.45 42.88 23.41 44.45 22.58C44.69 22.45 44.92 22.33 45.16 22.18C48.37 20.2 53.93 20.34 54.16 20.35L54.13 21.35C54.13 21.35 48.63 21.21 45.68 23.03C45.43 23.19 45.18 23.32 44.91 23.46C43.43 24.24 41.6 25.22 36.68 32.61L36.69 32.6Z" fill="#FFD415"/>
<path d="M57.83 28.2C57.58 28.27 57.38 28.26 57.27 28.17C56.98 27.96 57.2 27.53 57.27 27.4C57.13 27.56 56.99 27.71 56.88 27.88C56.71 28.15 56.63 28.44 56.75 28.63C56.96 28.97 57.47 28.81 57.79 28.68L60.78 27.42L57.82 28.2H57.83Z" fill="white"/>
<path d="M57.16 28.94C56.93 28.94 56.77 28.86 56.66 28.69C56.53 28.48 56.58 28.16 56.79 27.83C56.9 27.65 57.05 27.49 57.19 27.34L57.36 27.46C57.29 27.57 57.1 27.93 57.32 28.09C57.4 28.15 57.58 28.16 57.79 28.09L60.75 27.31L60.82 27.5L57.83 28.76C57.57 28.87 57.35 28.92 57.16 28.92V28.94ZM57.02 27.87C57.02 27.87 56.99 27.92 56.97 27.94C56.8 28.2 56.75 28.44 56.84 28.58C56.97 28.79 57.28 28.79 57.75 28.58L59.41 27.88L57.85 28.29C57.57 28.37 57.34 28.35 57.2 28.25C57.06 28.15 57.01 28.01 57.01 27.87H57.02Z" fill="white"/>
</g>
<defs>
<clipPath id="clip0_1215_2054">
<rect width="63.63" height="106.51" fill="white" transform="translate(30 1.5)"/>
</clipPath>
</defs>
</svg>
