<svg width="110" height="110" viewBox="0 0 110 110" fill="none" xmlns="http://www.w3.org/2000/svg">
<g clip-path="url(#clip0_1215_2440)">
<path d="M61.1401 56.23L44.8101 56.34L62.3701 80.74L69.7501 104.28L72.5301 103.87L73.4301 105.73C74.3601 107.82 74.4801 108.72 76.0201 107.9L79.8501 106.32C80.5501 105.95 80.4401 104.89 79.6201 104.63C79.0801 104.46 78.2501 104.43 77.6901 104.4C75.6101 104.3 75.8901 102.77 75.5601 101.38C73.5601 93.09 72.6601 86.43 70.3901 78.05C69.1001 73.25 61.1201 56.23 61.1201 56.23H61.1401Z" fill="#291B4C"/>
<path d="M58.57 56.45L41.04 56.5L39.07 78.26L26.55 96.9L28.88 98.86C28.6 99.39 28.11 100.25 27.64 100.58C26.95 101.07 26.05 101.97 26.86 103.06L31.82 107.11C32.54 107.43 33.31 106.32 32.95 105.48C32.71 104.92 31.89 103.69 31.62 103.15C31.07 102.05 31.73 101.21 32.45 100.02C36.78 92.87 46.89 81.93 46.89 81.93L58.57 56.44V56.45Z" fill="#3E2C6D"/>
<path d="M26.4901 45.34C25.8201 46.84 24.0501 47.5 22.5601 46.83C21.3301 46.28 20.6601 44.99 20.8301 43.71C20.8701 43.43 20.9501 43.16 21.0701 42.89C21.3601 42.24 21.6701 41.61 22.0001 41L26.9701 44.34C26.8101 44.66 26.6501 44.99 26.5001 45.33L26.4901 45.34Z" fill="#FADDDC"/>
<path d="M53.34 24.8C53.56 26.43 52.41 27.92 50.79 28.14C50.62 28.16 33.9 30.57 26.97 44.35L22 41.01C30.51 24.96 49.2 22.35 50.02 22.24C51.65 22.03 53.13 23.17 53.35 24.8H53.34Z" fill="#FADDDC"/>
<path d="M52.39 27.65L39.92 33.09L34.62 26.16C39.39 22.82 44.3 20.56 49.36 19.57C52.65 21.09 54.04 23.58 52.39 27.64V27.65Z" fill="#E52729"/>
<path d="M35.4201 25.57L40.8201 32.7L39.9301 33.11L34.6101 26.16" fill="#FFD415"/>
<path d="M64.09 57.16L38.67 57.08C38.67 57.08 40.24 41.09 40.87 33.85C41.5 26.61 41.03 21.33 50.97 18.33H55.32C56.82 18.33 58.24 19.09 59.02 20.37C64.69 29.63 64.1 57.16 64.1 57.16H64.09Z" fill="#EA5041"/>
<path d="M50.15 18.53C50.15 18.53 51.25 21.57 54.56 21.29C56.81 21.1 56.71 18.55 56.71 18.55C56.43 18.44 56.16 18.36 55.89 18.3H51.04C50.7 18.34 50.4 18.42 50.15 18.53Z" fill="#FFD415"/>
<path d="M50.89 4.41H61.28V13.71C61.28 15.53 59.8 17.01 57.98 17.01H56.93C56.42 17.01 56 17.42 56 17.94V18.85C55.96 19.6 55.03 20.52 54.09 20.28C53.15 20.04 51.52 19.28 51.1 18.44L50.89 4.41Z" fill="#FADDDC"/>
<path d="M60.8301 13.88L61.4301 13.71C61.9701 13.56 62.2901 12.99 62.1401 12.45L61.3101 9.49C61.2501 9.26 61.0101 9.13 60.7901 9.2C60.5701 9.27 60.4301 9.5 60.5001 9.72L61.2201 12.28C61.3101 12.59 61.1301 12.91 60.8201 12.99L60.6101 13.05C60.3801 13.11 60.2501 13.35 60.3201 13.57C60.3901 13.79 60.6201 13.93 60.8401 13.86L60.8301 13.88Z" fill="#E0B1BB"/>
<path opacity="0.5" d="M57.75 11.72L58.94 11.6C59.69 11.52 60.24 10.84 60.16 10.09C60.08 9.34001 59.4 8.79001 58.65 8.87001L57.46 8.99001C56.71 9.07001 56.16 9.75001 56.24 10.5C56.32 11.25 57 11.8 57.75 11.72Z" fill="white"/>
<path d="M55.8601 10.86L55.7901 10.24C55.7001 9.43 56.2901 8.7 57.1001 8.62L58.9001 8.43C59.7101 8.34 60.4401 8.93 60.5201 9.74L60.5901 10.36C60.6801 11.17 60.0901 11.9 59.2801 11.98L57.4801 12.17C56.6701 12.26 55.9401 11.67 55.8601 10.86ZM57.2001 9.44C56.8501 9.48 56.5901 9.8 56.6201 10.15L56.6901 10.77C56.7301 11.12 57.0501 11.38 57.4001 11.35L59.2001 11.16C59.5501 11.12 59.8101 10.8 59.7801 10.45L59.7101 9.83C59.6701 9.48 59.3501 9.22 59.0001 9.25L57.2001 9.44Z" fill="#9A9A99"/>
<path opacity="0.5" d="M62.4 11.24L62.63 11.22C63.1 11.17 63.41 10.52 63.33 9.77001C63.25 9.02001 62.8 8.45 62.34 8.49L62.11 8.51C61.64 8.56 61.33 9.21 61.41 9.96C61.49 10.71 61.94 11.28 62.4 11.24Z" fill="white"/>
<path d="M61.19 10.3L61.12 9.68C61.03 8.87 61.37 8.17 61.88 8.12L62.5 8.06C63 8.01 63.48 8.62 63.57 9.43L63.64 10.05C63.73 10.86 63.39 11.56 62.88 11.61L62.26 11.67C61.76 11.72 61.28 11.11 61.19 10.3ZM61.97 8.94C61.75 8.96 61.6 9.27 61.64 9.63L61.71 10.25C61.75 10.6 61.96 10.87 62.18 10.85L62.8 10.79C63.02 10.77 63.17 10.46 63.13 10.1L63.06 9.47999C63.02 9.12999 62.81 8.86 62.59 8.88L61.97 8.94Z" fill="#9A9A99"/>
<path d="M61.4277 9.04708L59.8862 9.20937L59.9731 10.0348L61.5146 9.87252L61.4277 9.04708Z" fill="#9A9A99"/>
<path d="M62.34 4.12999L62.38 4.53999C62.48 5.46999 61.8 6.31999 60.86 6.40999L55.73 7.06999C55.25 7.11999 54.61 7.53999 54.66 8.01999L54.7 8.49999C54.76 9.02999 54.18 9.46999 53.87 9.59999C53.51 9.73999 53.35 10.15 53.48 10.5C53.67 10.99 53.92 11.93 53.75 12.9C53.56 13.95 50.74 14.15 50.95 13.89C51.15 13.64 51.46 13.43 51.36 12.99C51.26 13.28 49.97 13.57 49.94 13.26C50 13.27 50.94 12.1 50.48 11.66C50.16 11.35 49.6 11.41 49.5 10.44C49.36 9.14999 49.99 9.16999 49.31 8.60999C48.64 8.05999 48.66 7.20999 48.95 6.78999C49.24 6.35999 49.88 4.88999 49.88 4.88999C49.9 4.80999 49.92 4.72999 49.96 4.65999C49.51 4.61999 49.2 4.20999 49.2 4.20999C49.79 4.42999 50.38 3.74999 50.38 3.74999H50.39C51.21 2.55999 52.66 2.22999 54.03 2.03999C55.41 1.83999 56.5 2.21999 57.19 2.40999C57.97 2.27999 58.56 1.71999 58.78 1.00999C59.39 1.08999 59.89 1.53999 60.04 2.13999C61.21 2.10999 62.21 2.95999 62.33 4.13999L62.34 4.12999Z" fill="#3E2967"/>
<path d="M46.8401 57.06L47.9001 45.67L49.7501 57.06H46.8401Z" fill="#FFD415"/>
<path d="M60.04 34.25H59.93C59.47 33.5 58.93 33.14 58.28 33.18C57.87 33.21 57.77 33.21 57.96 33.18C57.84 33.2 57.74 33.25 57.68 33.35C57.57 33.54 57.53 33.9 57.56 34.45C57.62 35.4 57.98 35.99 58.64 36.21V36.36C58.3 36.61 58.06 36.94 57.96 37.36C57.89 37.67 57.87 38.07 57.9 38.57C57.94 39.18 58.25 39.69 58.83 40.11V40.29L55.59 40.5C55.63 40.46 55.62 40.4 55.58 40.32C56.1 39.84 56.35 39.29 56.31 38.68C56.28 38.18 56.2 37.78 56.09 37.49C55.93 37.08 55.66 36.78 55.28 36.58V36.43C55.9 36.12 56.18 35.49 56.12 34.55C56.1 34.25 56.09 34.09 56.08 34.07C56.06 33.88 56 33.74 55.92 33.65C55.81 33.53 55.67 33.46 55.48 33.46C55.6 33.46 55.44 33.48 55 33.5C54.51 33.53 54.11 34 53.82 34.9H53.67L53.52 32.58L59.89 32.18L60.02 34.25H60.04Z" fill="white"/>
<path d="M56.1301 27.85C55.9701 27.93 55.8401 27.93 55.7601 27.85C55.5501 27.64 55.6701 27.18 55.7101 27.04C55.6301 27.21 55.5401 27.38 55.4801 27.57C55.3801 27.86 55.3501 28.17 55.4401 28.36C55.6001 28.71 55.9301 28.52 56.1301 28.36L58.0301 26.9L56.1301 27.85Z" fill="white"/>
<path d="M55.7401 28.66C55.5901 28.66 55.4701 28.59 55.3901 28.41C55.2901 28.2 55.3001 27.86 55.4201 27.5C55.4801 27.31 55.5701 27.13 55.6501 26.97L55.7701 27.09C55.7301 27.21 55.6301 27.6 55.7901 27.76C55.8501 27.82 55.9701 27.82 56.1001 27.76L58.0101 26.81L58.0701 27.01L56.1701 28.47C56.0001 28.6 55.8601 28.66 55.7401 28.67V28.66ZM55.5701 27.54C55.5701 27.54 55.5501 27.59 55.5401 27.62C55.4501 27.9 55.4301 28.16 55.5001 28.3C55.6001 28.51 55.8001 28.5 56.1001 28.27L57.1501 27.46L56.1401 27.96C55.9601 28.05 55.8101 28.04 55.7101 27.94C55.6101 27.84 55.5701 27.69 55.5601 27.54H55.5701Z" fill="white"/>
<path d="M77.1001 45.73C77.8001 45.78 78.5201 45.81 79.2401 45.81C79.5401 45.81 79.8301 45.77 80.1001 45.69C81.3601 45.32 82.2801 44.16 82.2901 42.79C82.2901 41.11 80.9401 39.75 79.2701 39.74C78.8901 39.74 78.5201 39.73 78.1501 39.71C71.7201 39.41 66.3901 36.8 62.3201 33.8L57.9501 38.17C62.7201 41.85 69.1401 45.19 77.1001 45.73Z" fill="#FADDDC"/>
<path d="M48.95 23.23C47.52 24.11 47.07 25.97 47.95 27.4C48.2 27.81 50.95 33.99 57.27 38.87L62.56 33.56C56.66 29.22 53.18 24.32 53.12 24.23C52.24 22.8 50.37 22.36 48.94 23.24L48.95 23.23Z" fill="#EA5041"/>
<path d="M62.2141 33.2011L56.6794 38.4386L57.3668 39.165L62.9015 33.9274L62.2141 33.2011Z" fill="#FFD415"/>
<path d="M59.2601 36.83C49.7501 32.12 45.0901 27.9 45.4201 24.28C45.7401 20.69 50.7301 19.21 50.9401 19.15L51.2201 20.11C51.2201 20.11 46.6701 21.46 46.4201 24.37C46.2301 26.55 48.3801 30.33 59.7101 35.93L59.2701 36.83H59.2601Z" fill="#FFD415"/>
</g>
<defs>
<clipPath id="clip0_1215_2440">
<rect width="61.5" height="107.2" fill="white" transform="translate(20.8 1)"/>
</clipPath>
</defs>
</svg>
