<svg width="110" height="110" viewBox="0 0 110 110" fill="none" xmlns="http://www.w3.org/2000/svg">
<g clip-path="url(#clip0_1215_2714)">
<path d="M48.33 55.58L64.35 54.56L52.85 75.61L57.59 96.57L55.24 97.31V99.35C55.42 100.78 55.42 101.71 53.9 102.54L49.99 103.54C49.22 103.6 48.86 102.65 49.46 102C49.86 101.57 50.7 101.27 51.06 100.79C52.63 98.67 51.81 98.17 51.51 96.83C49.72 88.82 43.3 75.3 43.3 75.3L48.34 55.57L48.33 55.58Z" fill="#291B4C"/>
<path d="M52.79 53.63L68.36 54L65.56 102.72L63.24 103.47C63.23 104.06 63.24 105.05 63.49 105.59C63.85 106.39 64.2 107.65 63 108.07L56.91 108.52C56.15 108.37 56.01 107.01 56.71 106.54C57.17 106.23 58.44 105.68 58.92 105.4C59.9 104.81 59.86 103.74 59.67 102.36C58.29 92.39 52.8 53.62 52.8 53.62L52.79 53.63Z" fill="#3E2C6D"/>
<path d="M72.05 52.72C72.04 54.36 73.36 55.7 75 55.72C76.35 55.73 77.5 54.84 77.87 53.61C77.95 53.34 78 53.06 78 52.77C78 52.06 77.99 51.36 77.95 50.67L72.04 51.63C72.05 51.99 72.06 52.36 72.06 52.73L72.05 52.72Z" fill="#FADDDC"/>
<path d="M56.2399 22.84C55.3599 24.23 55.7799 26.06 57.1699 26.94C57.3199 27.03 71.4999 36.2 72.0399 51.62L77.9399 50.67C76.9099 32.53 61.0299 22.35 60.3299 21.91C58.9399 21.04 57.1099 21.46 56.2399 22.84Z" fill="#FADDDC"/>
<path d="M55.9101 25.82L64.9701 35.98L72.6801 31.9C69.7401 26.87 66.2301 22.76 62.0401 19.76C58.4201 19.76 56.1201 21.45 55.9201 25.83L55.9101 25.82Z" fill="#E52729"/>
<path d="M72.17 31.05L64.36 35.27L64.91 36.02L72.72 31.91" fill="#FFD415"/>
<path d="M45.98 57.16L71.4 57.08C71.4 57.08 69.83 41.09 69.2 33.85C68.57 26.61 69.04 21.33 59.1 18.33H54.75C53.25 18.33 51.83 19.09 51.05 20.37C45.38 29.63 45.97 57.16 45.97 57.16H45.98Z" fill="#EA5041"/>
<path d="M59.91 18.53C59.91 18.53 58.81 21.57 55.5 21.29C53.25 21.1 53.35 18.55 53.35 18.55C53.63 18.44 53.9 18.36 54.17 18.3H59.02C59.36 18.34 59.66 18.42 59.91 18.53Z" fill="#FFD415"/>
<path d="M59.17 4.41H48.78V13.71C48.78 15.53 50.26 17.01 52.08 17.01H53.13C53.64 17.01 54.06 17.42 54.06 17.94V18.85C54.1 19.6 55.03 20.52 55.97 20.28C56.91 20.04 58.54 19.28 58.96 18.44L59.17 4.41Z" fill="#FADDDC"/>
<path d="M49.23 13.88L48.63 13.71C48.09 13.56 47.77 12.99 47.92 12.45L48.75 9.49C48.81 9.26 49.05 9.13 49.27 9.2C49.49 9.27 49.63 9.5 49.56 9.72L48.84 12.28C48.75 12.59 48.93 12.91 49.24 12.99L49.45 13.05C49.68 13.11 49.81 13.35 49.74 13.57C49.67 13.79 49.44 13.93 49.22 13.86L49.23 13.88Z" fill="#E0B1BB"/>
<path opacity="0.5" d="M52.31 11.72L51.12 11.6C50.37 11.52 49.82 10.84 49.9 10.09C49.98 9.34 50.66 8.79 51.41 8.87L52.6 8.99C53.35 9.07 53.9 9.75 53.82 10.5C53.74 11.25 53.06 11.8 52.31 11.72Z" fill="white"/>
<path d="M54.2 10.86L54.27 10.24C54.36 9.43 53.77 8.7 52.96 8.62L51.16 8.43C50.35 8.34 49.62 8.93 49.54 9.74L49.47 10.36C49.38 11.17 49.97 11.9 50.78 11.98L52.58 12.17C53.39 12.26 54.12 11.67 54.2 10.86ZM52.87 9.44C53.22 9.48 53.48 9.8 53.45 10.15L53.38 10.77C53.34 11.12 53.02 11.38 52.67 11.35L50.87 11.16C50.52 11.12 50.26 10.8 50.29 10.45L50.36 9.83C50.4 9.48 50.72 9.22 51.07 9.25L52.87 9.44Z" fill="#9A9A99"/>
<path opacity="0.5" d="M47.66 11.24L47.43 11.22C46.96 11.17 46.65 10.52 46.73 9.77C46.81 9.02 47.26 8.45 47.72 8.49L47.95 8.51C48.42 8.56 48.73 9.21 48.65 9.96C48.57 10.71 48.12 11.28 47.66 11.24Z" fill="white"/>
<path d="M48.88 10.3L48.95 9.68C49.04 8.87 48.7 8.17 48.19 8.12L47.57 8.06C47.07 8.01 46.59 8.62 46.5 9.43L46.43 10.05C46.34 10.86 46.68 11.56 47.19 11.61L47.81 11.67C48.31 11.72 48.79 11.11 48.88 10.3ZM48.1 8.94C48.32 8.96 48.47 9.27 48.43 9.63L48.36 10.25C48.32 10.6 48.11 10.87 47.89 10.85L47.27 10.79C47.05 10.77 46.9 10.46 46.94 10.1L47.01 9.48C47.05 9.13 47.26 8.86 47.48 8.88L48.1 8.94Z" fill="#9A9A99"/>
<path d="M48.6404 9.04603L50.1819 9.20832L50.095 10.0338L48.5535 9.87147L48.6404 9.04603Z" fill="#9A9A99"/>
<path d="M47.73 4.13L47.69 4.54C47.59 5.47 48.27 6.32 49.21 6.41L54.34 7.07C54.82 7.12 55.46 7.54 55.41 8.02L55.37 8.5C55.31 9.03 55.89 9.47 56.2 9.6C56.56 9.74 56.72 10.15 56.59 10.5C56.4 10.99 56.15 11.93 56.32 12.9C56.51 13.95 59.33 14.15 59.12 13.89C58.92 13.64 58.61 13.43 58.71 12.99C58.81 13.28 60.1 13.57 60.13 13.26C60.07 13.27 59.13 12.1 59.59 11.66C59.91 11.35 60.47 11.41 60.57 10.44C60.71 9.15 60.08 9.17 60.76 8.61C61.43 8.06 61.41 7.21 61.12 6.79C60.83 6.36 60.19 4.89 60.19 4.89C60.17 4.81 60.15 4.73 60.11 4.66C60.56 4.62 60.87 4.21 60.87 4.21C60.28 4.43 59.69 3.75 59.69 3.75H59.68C58.86 2.56 57.41 2.23 56.04 2.04C54.66 1.84 53.57 2.22 52.88 2.41C52.1 2.28 51.51 1.72 51.29 1.01C50.68 1.09 50.18 1.54 50.03 2.14C48.86 2.11 47.86 2.96 47.74 4.14L47.73 4.13Z" fill="#3E2967"/>
<path d="M54.91 56.35C54.42 56.86 53.91 57.35 53.37 57.84C53.15 58.04 52.9 58.2 52.65 58.32C51.47 58.89 50.01 58.64 49.08 57.61C47.96 56.36 48.06 54.44 49.3 53.32C49.58 53.07 49.85 52.81 50.11 52.55C54.7 48.04 56.93 42.54 57.97 37.59L64.14 37.93C63.04 43.85 60.47 50.62 54.91 56.33V56.35Z" fill="#FADDDC"/>
<path d="M60.89 20.81C62.54 20.51 64.12 21.6 64.42 23.25C64.51 23.72 66.58 30.16 65.12 38.01L57.63 37.58C59.13 30.41 58.46 24.44 58.44 24.33C58.15 22.68 59.24 21.1 60.89 20.8V20.81Z" fill="#EA5041"/>
<path d="M57.6478 37.0772L65.2645 37.3006L65.2352 38.3002L57.6185 38.0768L57.6478 37.0772Z" fill="#FFD415"/>
<path d="M63.23 57.06L62.16 45.67L60.31 57.06H63.23Z" fill="#FFD415"/>
<path d="M50.02 34.25H50.13C50.59 33.5 51.13 33.14 51.78 33.18C52.19 33.21 52.29 33.21 52.1 33.18C52.22 33.2 52.32 33.25 52.38 33.35C52.49 33.54 52.53 33.9 52.5 34.45C52.44 35.4 52.08 35.99 51.42 36.21V36.36C51.76 36.61 52 36.94 52.1 37.36C52.17 37.67 52.19 38.07 52.16 38.57C52.12 39.18 51.81 39.69 51.23 40.11V40.29L54.47 40.5C54.43 40.46 54.44 40.4 54.48 40.32C53.96 39.84 53.71 39.29 53.75 38.68C53.78 38.18 53.86 37.78 53.97 37.49C54.13 37.08 54.4 36.78 54.78 36.58V36.43C54.16 36.12 53.88 35.49 53.94 34.55C53.96 34.25 53.97 34.09 53.98 34.07C54 33.88 54.06 33.74 54.14 33.65C54.25 33.53 54.39 33.46 54.58 33.46C54.46 33.46 54.62 33.48 55.06 33.5C55.55 33.53 55.95 34 56.24 34.9H56.39L56.54 32.58L50.17 32.18L50.04 34.25H50.02Z" fill="white"/>
<path d="M53.94 27.85C54.1 27.93 54.23 27.93 54.31 27.85C54.52 27.64 54.4 27.18 54.36 27.04C54.44 27.21 54.53 27.38 54.59 27.57C54.69 27.86 54.72 28.17 54.63 28.36C54.47 28.71 54.14 28.52 53.94 28.36L52.04 26.9L53.94 27.85Z" fill="white"/>
<path d="M54.33 28.66C54.48 28.66 54.6 28.59 54.68 28.41C54.78 28.2 54.77 27.86 54.65 27.5C54.59 27.31 54.5 27.13 54.42 26.97L54.3 27.09C54.34 27.21 54.44 27.6 54.28 27.76C54.22 27.82 54.1 27.82 53.97 27.76L52.06 26.81L52 27.01L53.9 28.47C54.07 28.6 54.21 28.66 54.33 28.67V28.66ZM54.5 27.54C54.5 27.54 54.52 27.59 54.53 27.62C54.62 27.9 54.64 28.16 54.57 28.3C54.47 28.51 54.27 28.5 53.97 28.27L52.92 27.46L53.93 27.96C54.11 28.05 54.26 28.04 54.36 27.94C54.46 27.84 54.5 27.69 54.51 27.54H54.5Z" fill="white"/>
<path d="M61.91 37.74C64.86 31.31 65.46 26.3 63.7 22.86C62.11 19.77 59.21 19.16 59.08 19.14L58.89 20.12C58.99 20.14 61.46 20.67 62.82 23.33C64.4 26.45 63.78 31.28 61.01 37.32L61.92 37.74H61.91Z" fill="#FFD415"/>
</g>
<defs>
<clipPath id="clip0_1215_2714">
<rect width="34.7" height="107.53" fill="white" transform="matrix(-1 0 0 1 78 1)"/>
</clipPath>
</defs>
</svg>
