<svg width="110" height="110" viewBox="0 0 110 110" fill="none" xmlns="http://www.w3.org/2000/svg">
<g clip-path="url(#clip0_1215_1704)">
<path d="M45.48 56.32L70.14 56.43L64.92 98.86C64.92 98.86 62.33 100.57 62.32 100.63C62.11 101.99 62.32 103.14 64.33 101.87C64.91 101.5 65.37 101.48 65.9 101.96C66.53 102.53 66.05 104.19 65.49 105.08L60.54 109.02C59.95 109.49 59.08 109.54 58.53 109.02C57.68 108.24 57.92 106.99 58.28 105.98C59.65 102.06 59.23 101.61 59.23 101.61L58.46 101.87C57.96 102.04 57.46 101.65 57.5 101.13C57.9 95.98 58.92 69.54 59.1 64.79C59.12 64.39 58.8 64.05 58.4 64.04L57.34 64.02C57.02 64.02 56.71 64.24 56.71 64.56C56.68 70.92 56.6 80.89 56.51 80.89C56.51 80.89 56.04 85.14 55.79 86.11C55.44 87.49 54.02 87.3 53.53 86.27C53.11 85.38 52.99 82.66 52.91 81.95H50.73L45.48 56.31V56.32Z" fill="#3E2C6D"/>
<path d="M59.66 14.42H55.05V17.77H59.66V14.42Z" fill="#FADDDC"/>
<path d="M62.55 10.78H61.99V8.23C61.99 7.82 62.32 7.48 62.74 7.48H63.04C63.45 7.48 63.79 7.81 63.79 8.23L63.44 9.9C63.44 10.39 63.05 10.78 62.56 10.78H62.55Z" fill="#FADDDC"/>
<path d="M51.44 10.78H52V8.23C52 7.82 51.67 7.48 51.25 7.48H50.95C50.54 7.48 50.2 7.81 50.2 8.23L50.5499 9.9C50.5499 10.39 50.94 10.78 51.43 10.78H51.44Z" fill="#FADDDC"/>
<path d="M64.09 7.82C63.41 8.38 64.03 8.36 63.9 9.65C63.8 10.62 63.24 10.57 62.92 10.87C62.46 11.31 63.39 12.48 63.46 12.47C63.43 12.77 62.14 12.48 62.04 12.2C61.94 12.63 62.25 12.84 62.45 13.09C62.54 13.2 62.06 13.23 61.47 13.13C60.97 13.93 60.32 14.57 59.62 15.11C58.33 16.12 55.74 15.74 54.76 15.11C54.05 14.65 53.45 13.94 52.97 13.18C52.53 13.22 52.23 13.18 52.3 13.09C52.41 12.94 52.57 12.81 52.66 12.63C52.6 12.55 52.56 12.46 52.52 12.37C52.14 12.57 51.31 12.71 51.29 12.47C51.34 12.48 52.03 11.62 51.94 11.1C51.94 11.04 51.91 10.98 51.88 10.93C51.87 10.91 51.85 10.89 51.83 10.87C51.51 10.57 50.95 10.62 50.85 9.65C50.71 8.36 51.34 8.38 50.65 7.82C49.98 7.28 50 6.42 50.3 6C50.59 5.57 51.23 4.1 51.23 4.1C51.25 4.01 51.27 3.94 51.31 3.86C50.86 3.83 50.55 3.41 50.55 3.41C51.14 3.62 51.73 2.94 51.73 2.94H51.74C52.56 1.76 54.01 1.42 55.37 1.23H55.38C55.96 1.06 56.33 0.68 57.56 0.61C58.59 0.56 59.33 1.02 59.56 1.11C59.82 0.86 60.1 1.08 59.91 0C60.52 0.08 61.24 0.73 61.39 1.33C62.25 1.31 63.02 1.76 63.41 2.48C63.59 2.6 63.81 2.87 63.9 3.29C63.97 3.96 63.85 4.31 63.75 4.63C63.96 5.09 64.27 5.74 64.45 6C64.74 6.42 64.76 7.28 64.09 7.82Z" fill="#3E2967"/>
<path d="M67.06 19.5C65.87 18.84 64.38 19.27 63.71 20.45C63.04 21.64 63.46 23.14 64.65 23.82C65.11 24.08 73.77 28.08 72.92 45.23C72.91 45.53 72.9 45.83 72.87 46.14C72.77 47.5 73.8 48.69 75.16 48.79C75.22 48.79 75.28 48.79 75.34 48.79C76.63 48.79 77.71 47.79 77.81 46.49C77.84 46.06 77.86 45.64 77.88 45.22C78.77 25.05 67.62 19.8 67.06 19.49V19.5Z" fill="#FADDDC"/>
<path d="M64.13 18.48C64.13 18.48 70.8 19.05 75.75 28.66L69.65 33.89C69.65 33.89 65.42 29.59 64.06 25.28C62.7 20.97 64.13 18.47 64.13 18.47V18.48Z" fill="#E52729"/>
<path d="M71.37 56.85H43.87L43.88 26.94C43.88 21.8 48.05 17.63 53.19 17.63H62.08C67.22 17.63 71.39 21.8 71.39 26.94L71.37 56.85Z" fill="#EA5041"/>
<path d="M46.47 23.29C45.11 22.14 43.07 22.3 41.91 23.67C41.33 24.36 28.19 40.15 33.08 59.31C33.27 60.04 33.47 60.77 33.71 61.51C33.81 61.81 33.95 62.09 34.12 62.34C34.91 63.49 36.39 64.04 37.79 63.59C39.49 63.04 40.42 61.21 39.87 59.51C39.75 59.13 39.63 58.75 39.53 58.36C35.02 42.18 46.73 28 46.85 27.85C48 26.48 47.83 24.44 46.46 23.29H46.47Z" fill="#FADDDC"/>
<path d="M50.95 17.95C50.95 17.95 40.95 18.92 35.35 30.89L44.47 37.7L47.3 31.78C49.42 29.06 50.64 25.74 50.78 22.3L50.95 17.95Z" fill="#EA5041"/>
<path d="M47.1899 56.7L48.2599 45.31L50.1099 56.7H47.1899Z" fill="#FFD415"/>
<path d="M64.58 56.7L65.64 45.31L67.49 56.7H64.58Z" fill="#FFD415"/>
<path d="M53.1899 17.69L54.9399 16.83L59.7799 16.87L61.2599 17.69H53.1899Z" fill="#FFD415"/>
<path d="M37.48 31.81L36.53 31.5C40.54 19.28 54.98 17.01 55.13 16.99L55.38 17.67C55.24 17.69 41.29 20.18 37.48 31.81Z" fill="#FFD415"/>
<path d="M43.8601 37.84L35.0601 31.29L35.6201 30.3L44.0401 36.62L43.8601 37.84Z" fill="#FFD415"/>
<path d="M53.19 29.37C52.91 29.54 52.78 29.64 52.51 29.83C52.05 29.16 51.82 28.83 51.36 28.16C50.81 28.52 50.54 28.73 50.03 29.17C50.59 29.81 50.86 30.12 51.42 30.76C51.18 31 51.06 31.12 50.83 31.38C49.37 29.92 48.63 29.18 47.17 27.72C47.53 27.4 47.71 27.24 48.09 26.95C48.64 27.58 48.92 27.9 49.48 28.54C50.03 28.08 50.32 27.87 50.91 27.49C50.45 26.82 50.22 26.49 49.76 25.82C50.16 25.59 50.36 25.48 50.77 25.28C51.74 26.92 52.23 27.73 53.2 29.37H53.19Z" fill="white"/>
<path d="M55.18 23.91C56.13 23.77 56.97 24.29 57.07 24.94C57.17 25.62 57.22 25.96 57.32 26.64C57.42 27.29 56.94 27.88 56.26 28.05C56.07 28.1 55.97 28.12 55.78 28.18C55.12 28.38 54.36 28.07 54.08 27.4C53.78 26.7 53.63 26.35 53.34 25.66C53.05 24.99 53.57 24.2 54.51 24.02C54.78 23.97 54.91 23.95 55.18 23.91ZM56.1 25.07C56.04 24.78 55.74 24.57 55.36 24.63C55.11 24.67 54.99 24.69 54.74 24.74C54.36 24.82 54.21 25.12 54.31 25.41C54.54 26.08 54.66 26.41 54.89 27.07C54.99 27.36 55.27 27.54 55.57 27.45C55.77 27.4 55.87 27.37 56.07 27.33C56.38 27.26 56.52 26.99 56.46 26.7C56.32 26.04 56.25 25.71 56.1 25.06V25.07Z" fill="white"/>
<path d="M60.07 25.32C60 26.3 59.97 26.8 59.9 27.78C59.59 27.75 59.43 27.74 59.12 27.74C59.12 26.19 59.12 25.41 59.12 23.86C59.54 23.91 59.75 23.94 60.16 24.02C60.88 25.16 61.17 25.73 61.62 26.83C61.81 25.91 61.91 25.45 62.1 24.53C62.49 24.66 62.69 24.73 63.07 24.89C62.69 26.22 62.5 26.88 62.12 28.2C61.82 28.11 61.67 28.07 61.37 28C60.98 26.96 60.72 26.41 60.07 25.31V25.32Z" fill="white"/>
<path d="M66.1701 29.45C66.2901 29.3 66.3501 29.23 66.4801 29.08C66.2101 28.85 66.0701 28.74 65.7901 28.53C65.9001 28.38 65.9501 28.3 66.0601 28.15C66.6401 28.6 66.9201 28.85 67.4601 29.39C67.0001 29.85 66.7701 30.08 66.3101 30.54C66.0701 30.33 65.9501 30.23 65.7001 30.04C65.7201 30.01 65.7401 30 65.7601 29.97C65.5701 29.9 65.3701 29.8 65.1901 29.68C65.0401 29.57 64.9601 29.52 64.8001 29.43C64.1801 29.04 63.8201 28.42 64.0401 27.95L64.6101 26.73C64.8301 26.26 65.6901 26.28 66.4601 26.88C66.7001 27.07 66.8201 27.17 67.0501 27.37C67.7601 27.99 67.9901 28.74 67.7501 29.1C67.4601 28.79 67.3001 28.64 66.9901 28.36C67.0301 28.2 66.9901 28 66.7301 27.78C66.5101 27.59 66.3901 27.5 66.1701 27.33C65.8501 27.09 65.5401 27.1 65.4401 27.28C65.1901 27.71 65.0701 27.92 64.8201 28.35C64.7101 28.54 64.8201 28.8 65.0901 28.98C65.3001 29.12 65.4001 29.19 65.6101 29.34C65.8301 29.5 66.0401 29.53 66.1801 29.46L66.1701 29.45Z" fill="white"/>
</g>
<defs>
<clipPath id="clip0_1215_1704">
<rect width="45.93" height="109.39" fill="white" transform="translate(32)"/>
</clipPath>
</defs>
</svg>
