<svg width="110" height="110" viewBox="0 0 110 110" fill="none" xmlns="http://www.w3.org/2000/svg">
<g clip-path="url(#clip0_1215_1488)">
<path d="M50.27 57.37H64.5801L66 102.19L63.4701 102.37C63.4701 103.05 63.8701 104.33 64.3301 104.69C64.8701 105.12 66.3 105.6 66.82 106.07C67.43 106.63 67.11 107.85 66.35 107.85H63.2701H62.48C61.78 107.85 61.17 107.25 61 106.39L60.93 102.61L59.4001 102.57C58.2101 96.3 57.0001 86.33 55.9501 79.94C55.2101 75.46 54.6 69.6 53.94 65.14C53.79 64.16 53.08 63.45 52.25 63.45H50.74C49.9 63.45 49.19 64.16 49.05 65.14C48.39 69.6 45.79 94.28 44.39 101.38C44.31 101.78 42.7 101.25 42.62 101.66C42.37 102.94 42.8 104.26 43.68 104.98C44.11 105.33 44.52 105.69 44.93 106.07C45.55 106.63 45.23 107.86 44.47 107.86H41.39L39.39 107.09C37.41 105.61 39.88 104.45 38.95 101.65L37.3 101.1L38.24 64.84V57.35H50.28L50.27 57.37Z" fill="#3E2C6D"/>
<path d="M88.42 43.15C88.04 43.11 87.68 43.05 87.31 43C79.37 41.75 73.53 37.11 69.69 32.83L65.58 37.41C70 42.2 76.6 47.25 85.61 48.87C86.3 48.99 87.01 49.1 87.73 49.18C88.03 49.21 88.32 49.2 88.6 49.15C89.89 48.92 90.94 47.87 91.09 46.5C91.28 44.83 90.08 43.33 88.42 43.14V43.15Z" fill="#FADDDC"/>
<path d="M62.43 22.06C61.32 20.69 59.83 21.15 58.52 21.83C57.03 22.6 56.24 27.39 56.79 28.97C57.09 29.84 60.3 33.31 64.83 38.22L69.86 32.61C66.17 28.5 64.24 24.28 62.44 22.06H62.43Z" fill="#E52729"/>
<path d="M64.84 38.26L64.1 37.45L69.17 31.8L69.91 32.6L64.84 38.26Z" fill="#FFD415"/>
<path d="M26.28 53.46C26.37 54.16 26.48 54.86 26.62 55.58C26.68 55.87 26.78 56.15 26.91 56.4C27.52 57.56 28.84 58.24 30.19 57.97C31.84 57.65 32.91 56.05 32.58 54.4C32.51 54.03 32.45 53.66 32.39 53.29C31.41 46.93 32.92 41.18 35.05 36.6L29.9 33.18C27.24 38.59 25.24 45.55 26.28 53.46Z" fill="#FADDDC"/>
<path d="M66.74 57.54H35.41L37.34 27.22C37.34 22.97 36.98 19.52 45.04 19.52H57.13C61.38 19.52 64.83 22.97 64.83 27.22L66.74 57.54Z" fill="#EA5041"/>
<path d="M42.77 21.41C41.63 20.18 39.71 20.11 38.48 21.25C38.13 21.58 32.61 25.49 29.08 32.65L35.33 36.79C38.42 30.15 42.53 25.77 42.61 25.7C43.83 24.56 43.9 22.64 42.76 21.41H42.77Z" fill="#EA5041"/>
<path d="M47.1801 19.54H54.5301V19.77C54.5301 21.76 52.9201 23.37 50.9301 23.37H50.7801C48.7901 23.37 47.1801 21.76 47.1801 19.77V19.54Z" fill="#FFD415"/>
<path d="M48.51 4.67001H56.27C57.35 4.67001 58.23 5.55001 58.23 6.63001V14.27C58.23 15.98 56.85 17.36 55.14 17.36H54.16C53.68 17.36 53.29 17.75 53.29 18.23V19.92C53.29 21.23 52.23 22.3 50.91 22.3C49.6 22.3 48.54 21.24 48.53 19.93L48.5 4.67001H48.51Z" fill="#FADDDC"/>
<path d="M55.0899 14.56H55.6799C56.2099 14.56 56.6299 14.13 56.6299 13.61V10.74C56.6299 10.52 56.4499 10.34 56.2299 10.34C56.0099 10.34 55.8299 10.52 55.8299 10.74V13.23C55.8299 13.53 55.5899 13.77 55.2899 13.77H55.0899C54.8699 13.77 54.6899 13.95 54.6899 14.17C54.6899 14.39 54.8699 14.57 55.0899 14.57V14.56Z" fill="#ECBEC6"/>
<path d="M47.5 12.12H49.11V8.7H47.5V12.12Z" fill="#FADDDC"/>
<path opacity="0.5" d="M52.9399 12.39H54.1299C54.8799 12.39 55.4999 11.77 55.4999 11.02C55.4999 10.27 54.8799 9.64999 54.1299 9.64999H52.9399C52.1899 9.64999 51.5699 10.27 51.5699 11.02C51.5699 11.77 52.1899 12.39 52.9399 12.39Z" fill="white"/>
<path d="M51.15 11.33V10.71C51.15 9.90001 51.81 9.23001 52.63 9.23001H54.44C55.25 9.23001 55.92 9.89001 55.92 10.71V11.33C55.92 12.14 55.26 12.81 54.44 12.81H52.63C51.82 12.81 51.15 12.15 51.15 11.33ZM52.63 10.06C52.27 10.06 51.98 10.35 51.98 10.71V11.33C51.98 11.69 52.27 11.98 52.63 11.98H54.44C54.8 11.98 55.09 11.69 55.09 11.33V10.71C55.09 10.35 54.8 10.06 54.44 10.06H52.63Z" fill="#9A9A99"/>
<path opacity="0.5" d="M58.29 12.39H58.67C59.42 12.39 60.04 11.77 60.04 11.02C60.04 10.27 59.42 9.64999 58.67 9.64999H58.29C57.54 9.64999 56.92 10.27 56.92 11.02C56.92 11.77 57.54 12.39 58.29 12.39Z" fill="white"/>
<path d="M56.5 11.33V10.71C56.5 9.90001 57.16 9.23001 57.98 9.23001H58.98C59.79 9.23001 60.46 9.89001 60.46 10.71V11.33C60.46 12.14 59.8 12.81 58.98 12.81H57.98C57.17 12.81 56.5 12.15 56.5 11.33ZM57.98 10.06C57.62 10.06 57.33 10.35 57.33 10.71V11.33C57.33 11.69 57.62 11.98 57.98 11.98H58.98C59.34 11.98 59.63 11.69 59.63 11.33V10.71C59.63 10.35 59.34 10.06 58.98 10.06H57.98Z" fill="#9A9A99"/>
<path d="M56.8699 10.11H55.3199V10.94H56.8699V10.11Z" fill="#9A9A99"/>
<path d="M59.99 5.47999V5.88999C59.99 6.82999 59.22 7.59999 58.28 7.59999H51.31C50.83 7.59999 50.44 7.97999 50.44 8.45999L50.46 8.88999C50.46 9.41999 50.16 9.85999 49.84 9.94999C49.47 10.05 49.27 10.44 49.36 10.81C49.49 11.32 49.65 12.28 49.38 13.23C49.08 14.25 47.41 14.24 47.64 14.01C47.86 13.79 48.19 13.6 48.14 13.16C48.01 13.44 46.7 13.59 46.7 13.28C46.76 13.3 47.81 12.23 47.4 11.75C47.11 11.41 46.55 11.41 46.55 10.43C46.55 9.12999 47.17 9.20999 46.55 8.58999C45.94 7.97999 46.05 7.12999 46.39 6.73999C46.73 6.33999 47.51 4.93999 47.51 4.93999C47.54 4.85999 47.57 4.78999 47.61 4.71999C47.17 4.63999 46.91 4.18999 46.91 4.18999C47.47 4.46999 48.14 3.84999 48.14 3.84999H48.15C49.09 2.75999 50.57 2.56999 51.95 2.52999C53.34 2.47999 54.39 2.96999 55.05 3.21999C55.84 3.16999 56.48 2.67999 56.78 1.98999C57.38 2.12999 57.83 2.62999 57.91 3.24999C59.07 3.33999 59.98 4.28999 59.98 5.47999H59.99Z" fill="#3E2967"/>
<path d="M56.65 34.57H56.49C55.88 33.83 55.08 33.46 54.11 33.46C53.5 33.46 53.34 33.46 53.63 33.45C53.44 33.45 53.3 33.51 53.19 33.6C53 33.77 52.91 34.11 52.91 34.63C52.91 35.53 53.4 36.1 54.37 36.36V36.51C53.81 36.72 53.43 37.02 53.23 37.42C53.09 37.71 53.02 38.09 53.02 38.56C53.02 39.14 53.44 39.64 54.27 40.07V40.24H49.36C49.42 40.21 49.42 40.15 49.36 40.07C50.19 39.65 50.61 39.14 50.61 38.56C50.61 38.09 50.54 37.71 50.39 37.42C50.18 37.03 49.81 36.73 49.26 36.51V36.36C50.23 36.11 50.72 35.53 50.72 34.63C50.72 34.34 50.72 34.19 50.71 34.18C50.69 34 50.63 33.87 50.51 33.78C50.36 33.66 50.15 33.59 49.87 33.57C50.05 33.57 49.81 33.58 49.15 33.58C48.41 33.58 47.77 34 47.24 34.83H47.02V32.62H56.65V34.58V34.57Z" fill="white"/>
<path d="M37.3101 57.55L38.3701 46.17L40.2201 57.55H37.3101Z" fill="#FFD415"/>
<path d="M61.92 57.55L62.98 46.17L64.83 57.55H61.92Z" fill="#FFD415"/>
<path d="M30.7 33.51L29.87 32.96C35.16 25.01 37.23 23.42 38.35 22.56C38.46 22.48 38.56 22.4 38.65 22.32C41.61 19.9 47.49 20.43 47.74 20.45L47.64 21.45C47.58 21.45 41.92 20.93 39.28 23.09C39.18 23.17 39.07 23.25 38.96 23.34C37.89 24.16 35.9 25.69 30.7 33.5V33.51Z" fill="#FFD415"/>
<path d="M29.4109 32.0027L28.8351 32.8203L35.0648 37.2083L35.6407 36.3908L29.4109 32.0027Z" fill="#FFD415"/>
<path d="M51.3599 28.3C51.1099 28.37 50.9099 28.36 50.7999 28.27C50.5099 28.06 50.7299 27.63 50.7999 27.5C50.6599 27.66 50.5199 27.81 50.4099 27.98C50.2399 28.25 50.1599 28.54 50.2799 28.73C50.4899 29.07 50.9999 28.91 51.3199 28.78L54.3099 27.52L51.3499 28.3H51.3599Z" fill="white"/>
<path d="M50.7001 29.04C50.4701 29.04 50.3101 28.96 50.2001 28.79C50.0701 28.58 50.12 28.26 50.33 27.93C50.44 27.75 50.59 27.59 50.73 27.44L50.9 27.56C50.83 27.67 50.6401 28.03 50.8601 28.19C50.9401 28.25 51.12 28.26 51.33 28.19L54.2901 27.41L54.3601 27.6L51.3701 28.86C51.1101 28.97 50.8901 29.02 50.7001 29.02V29.04ZM50.55 27.98C50.55 27.98 50.52 28.03 50.5 28.05C50.33 28.31 50.2801 28.55 50.3701 28.69C50.5001 28.9 50.8101 28.9 51.2801 28.69L52.9401 27.99L51.38 28.4C51.1 28.48 50.87 28.46 50.73 28.36C50.59 28.26 50.5401 28.12 50.5401 27.98H50.55Z" fill="white"/>
</g>
<defs>
<clipPath id="clip0_1215_1488">
<rect width="65.11" height="105.88" fill="white" transform="translate(26 2)"/>
</clipPath>
</defs>
</svg>
