<svg width="110" height="110" viewBox="0 0 110 110" fill="none" xmlns="http://www.w3.org/2000/svg">
<g clip-path="url(#clip0_1203_1915)">
<path d="M30.02 44.78C28.46 45.31 27.63 47 28.16 48.55C28.59 49.83 29.81 50.62 31.1 50.56C31.38 50.55 31.66 50.5 31.94 50.4C32.61 50.17 33.27 49.92 33.91 49.66L31.06 44.39C30.72 44.52 30.38 44.65 30.03 44.77L30.02 44.78Z" fill="#FADDDC"/>
<path d="M53.0301 20.01C51.4301 19.64 49.84 20.64 49.46 22.23C49.42 22.4 45.43 38.81 31.05 44.4L33.9 49.67C50.69 42.73 55.08 24.38 55.26 23.57C55.63 21.97 54.6301 20.38 53.0301 20.01Z" fill="#A4B2D3"/>
<path d="M47.96 23.04C49.23 20.92 52.05 19.04 53.45 19.4C55.04 19.81 58.29 24.98 58.12 26.61C58.02 27.51 53.83 32.06 50.61 37.75L43.14 32.73C45.75 27.99 46.52 25.44 47.96 23.04Z" fill="#5280DD"/>
<path d="M76.8299 54.95C76.7099 56.59 77.9499 58.01 79.5799 58.13C79.6499 58.13 79.7199 58.13 79.7899 58.13C81.3399 58.13 82.6399 56.93 82.7499 55.37C82.7899 54.86 82.8099 54.35 82.8399 53.85H76.8799C76.8599 54.22 76.8499 54.57 76.8199 54.95H76.8299Z" fill="#FADDDC"/>
<path d="M67.64 20.2701C66.21 19.4801 64.41 19.9901 63.61 21.4201C62.81 22.8501 63.31 24.6601 64.74 25.4701C65.29 25.7801 77.9 33.2401 76.89 53.8601H82.85C83.92 29.6201 68.32 20.6501 67.65 20.2801L67.64 20.2701Z" fill="#A4B2D3"/>
<path d="M45.24 56.58H75.92L71.78 26.88C70.97 22.46 68.83 19 64.24 19.34H54.64C51.38 19.34 48.95 22.02 48.51 26.88L45.23 56.58H45.24Z" fill="#5280DD"/>
<path d="M65.25 20.83C66.37 19.63 68.24 19.56 69.45 20.67C69.8 20.99 75.66 24.5 79.11 31.52L72.53 35.89C69.51 29.39 65.47 25.1 65.4 25.03C64.2 23.91 64.13 22.03 65.25 20.83Z" fill="#5280DD"/>
<path d="M58.52 16.28H53.11V19.41H58.52V16.28Z" fill="#3E2967"/>
<path d="M62.39 5.87H52.92V14.69C52.92 16.35 54.27 17.7 55.93 17.7H56.89C57.36 17.7 57.73 18.08 57.73 18.54V19.68C57.73 20.96 58.77 21.99 60.04 21.99C61.32 21.99 62.35 20.96 62.35 19.68L62.38 5.87H62.39Z" fill="#FADDDC"/>
<path d="M55.99 14.97H55.42C54.91 14.97 54.49 14.55 54.49 14.04V11.24C54.49 11.03 54.66 10.85 54.88 10.85C55.1 10.85 55.27 11.02 55.27 11.24V13.67C55.27 13.96 55.51 14.2 55.8 14.2H56C56.21 14.2 56.39 14.37 56.39 14.59C56.39 14.81 56.22 14.98 56 14.98L55.99 14.97Z" fill="#E0B1BB"/>
<path d="M56.9 11.36C56.9 11.67 57.15 11.92 57.46 11.92C57.77 11.92 58.02 11.67 58.02 11.36C58.02 11.05 57.77 10.8 57.46 10.8C57.15 10.8 56.9 11.05 56.9 11.36Z" fill="#757570"/>
<path d="M58.81 8.26999C59.33 9.04999 60.08 10.22 60.38 11.92C61.06 15.83 58.58 16.92 58.58 16.92L61.69 17.17L61.43 24.59C63.37 24.59 69.46 26.36 65.7 13.46L64.18 7.19999C63.58 4.72999 61.37 2.98999 58.83 2.98999H56.06C55.42 2.98999 54.86 3.44999 54.74 4.07999C53.33 4.07999 52.27 5.20999 52.01 6.54999C51.34 10.04 51.81 14.81 51.81 14.81C51.94 16.96 51 16.98 51 16.98C51 16.98 52.28 17.04 52.62 17.04H53.92C53.92 17.04 52.96 16.13 52.95 14.83C52.95 14.17 52.95 12.56 52.95 11.13C52.95 9.46999 53.78 6.95999 55.16 6.03999C55.16 6.03999 57.32 6.00999 58.81 8.25999V8.26999Z" fill="#3E2967"/>
<path d="M64.39 42.06C64.18 41.49 63.68 41.07 63.05 41.07H62.34V38.95C62.34 38.53 62.06 38.24 61.63 38.24H57.38V36.82H58.8C59.22 36.82 59.51 36.54 59.51 36.11V34.69H60.93C61.71 34.69 62.35 34.05 62.35 33.27V32.99C64.4 33.84 65.89 35.89 65.89 38.23C65.89 39.72 65.32 41.06 64.4 42.05M59.52 43.82C56.76 43.47 54.57 41.06 54.57 38.23C54.57 37.81 54.64 37.38 54.71 36.96L58.11 40.36V41.07C58.11 41.85 58.75 42.49 59.53 42.49M60.24 31.17C56.35 31.17 53.16 34.36 53.16 38.25C53.16 42.14 56.35 45.33 60.24 45.33C64.13 45.33 67.32 42.14 67.32 38.25C67.32 34.36 64.13 31.17 60.24 31.17Z" fill="white"/>
<path d="M72.8201 56.4399H49.0601L54.9401 102.1C55.0401 102.96 55.4201 103.96 54.4501 104.72C53.9001 105.14 53.3201 105.53 52.7801 105.96C52.1401 106.47 52.4701 107.58 53.2701 107.58L58.4101 106.57C60.7101 106.11 60.4001 104.55 59.9501 103.34C59.6501 102.54 59.4701 101.71 59.4301 100.86C59.2601 96.1499 59.8001 70.7899 59.9201 65.0799C59.9301 64.4399 60.4301 63.9399 61.0501 63.9399C61.6301 63.9399 62.1101 64.3899 62.1701 64.9899C62.6801 70.3699 64.9801 94.5299 65.2001 95.2899C65.5601 96.5199 67.0201 96.3499 67.5101 95.4299C67.9401 94.6399 68.3801 91.4099 68.4601 90.7899H69.9001L72.8101 56.4399H72.8201Z" fill="#3E2967"/>
</g>
<defs>
<clipPath id="clip0_1203_1915">
<rect width="54.9" height="104.57" fill="white" transform="translate(28 3)"/>
</clipPath>
</defs>
</svg>
