<svg width="33" height="106" viewBox="0 0 33 106" fill="none" xmlns="http://www.w3.org/2000/svg">
<g clip-path="url(#clip0_134_1737)">
<path d="M11.91 50.68L22.71 51.27L14.82 75.55L19.19 94.87L17.03 95.55V97.43C17.2 98.75 17.2 99.6101 15.79 100.37L12.18 101.29C11.47 101.35 11.14 100.47 11.7 99.87C12.07 99.47 12.85 99.19 13.17 98.75C14.62 96.79 13.86 96.34 13.59 95.1C11.94 87.72 6.02002 75.26 6.02002 75.26L11.91 50.67V50.68Z" fill="#291B4C"/>
<path d="M14.77 51.05L27.27 51.41L26.53 100.54L24.39 101.24C24.38 101.79 24.39 102.7 24.62 103.2C24.96 103.94 25.27 105.1 24.17 105.48L18.56 105.9C17.86 105.76 17.73 104.51 18.38 104.08C18.81 103.79 19.98 103.29 20.42 103.03C21.32 102.49 21.29 101.5 21.11 100.23C19.84 91.0401 14.78 51.07 14.78 51.07L14.77 51.05Z" fill="#3E2C6D"/>
<path d="M1.03001 49.71C-0.209992 50.79 -0.349992 52.66 0.730008 53.91C1.61001 54.93 3.04001 55.2 4.21001 54.67C4.46001 54.55 4.71001 54.4 4.93001 54.21C5.47001 53.74 5.98001 53.27 6.47001 52.78L1.85001 48.97C1.59001 49.22 1.32001 49.47 1.04001 49.71H1.03001Z" fill="#FADDDC"/>
<path d="M13.02 18.1001C11.4 18.3601 10.3 19.8801 10.55 21.5001C10.58 21.6701 13.06 38.3801 1.82996 48.9701L6.44996 52.7801C19.39 40.0301 16.55 21.3801 16.42 20.5601C16.16 18.9401 14.63 17.8401 13.01 18.1001H13.02Z" fill="#A4B2D3"/>
<path d="M10.73 20.16L9.08997 33.67L18.5 37.21L16.02 24.79L10.73 20.16Z" fill="#5280DD"/>
<path d="M7.92997 55.65L31.32 55.41L28.14 31.84C28.14 27.68 23.04 16.34 19.51 16.34H15.16C13.66 16.34 12.24 17.1 11.46 18.38C5.78997 27.64 7.91997 55.66 7.91997 55.66L7.92997 55.65Z" fill="#5280DD"/>
<path d="M19.61 56.1C18.68 57.46 19.04 59.31 20.39 60.23C21.51 60.99 22.95 60.89 23.95 60.08C24.17 59.9 24.36 59.69 24.52 59.45C24.92 58.86 25.29 58.27 25.64 57.67L20.2 55.17C20.01 55.48 19.81 55.79 19.6 56.09L19.61 56.1Z" fill="#FADDDC"/>
<path d="M23.11 22.4701C21.61 23.1301 20.93 24.8901 21.6 26.3901C21.67 26.5501 28.35 42.0601 20.21 55.1701L25.65 57.6701C34.89 42.0301 27.37 24.7301 27.03 23.9701C26.36 22.4701 24.61 21.8001 23.11 22.4701Z" fill="#A4B2D3"/>
<path d="M22.87 17.04C22.87 17.04 27.67 19.29 29.1 24.3C30.53 29.31 31.34 34.09 31.34 34.09C31.34 34.09 21.75 35.94 21.49 35.81C21.23 35.68 17.09 21.47 17.09 21.47C17.09 21.47 20.04 16.78 22.87 17.05V17.04Z" fill="#5280DD"/>
<path d="M21.1001 4.32996H11.8101V12.64C11.8101 14.27 13.1301 15.59 14.7601 15.59H15.7001C16.1601 15.59 16.5301 15.96 16.5301 16.42V17.24C16.5301 18.28 17.6401 18.93 18.5501 18.44L20.9201 17.15L21.1101 4.32996H21.1001Z" fill="#FADDDC"/>
<path d="M12.1 12.79L11.56 12.64C11.08 12.5 10.79 12 10.93 11.52L11.67 8.87999C11.73 8.67999 11.94 8.55999 12.14 8.61999C12.34 8.67999 12.46 8.88999 12.4 9.08999L11.76 11.38C11.68 11.65 11.84 11.94 12.12 12.02L12.31 12.07C12.51 12.13 12.63 12.34 12.57 12.54C12.51 12.74 12.3 12.86 12.1 12.8V12.79Z" fill="#E0B1BB"/>
<path d="M13.4 8.83997C13.4 9.11997 13.62 9.33997 13.9 9.33997C14.18 9.33997 14.4 9.11997 14.4 8.83997C14.4 8.55997 14.18 8.33997 13.9 8.33997C13.62 8.33997 13.4 8.55997 13.4 8.83997Z" fill="#757570"/>
<path d="M18.31 10.44C18.31 10.915 18.6951 11.3 19.17 11.3C19.645 11.3 20.03 10.915 20.03 10.44V8.57005C20.03 8.09508 19.645 7.71005 19.17 7.71005C18.6951 7.71005 18.31 8.09508 18.31 8.57005V10.44Z" fill="#FADDDC"/>
<path d="M11.7201 37.8499C11.1201 36.8599 10.7501 35.5099 10.7501 34.0299C10.7501 31.6899 11.7201 29.6399 13.0601 28.7899V29.0699C13.0601 29.8499 13.4801 30.4899 13.9801 30.4899H14.9001V31.9099C14.9001 32.3299 15.0801 32.6199 15.3601 32.6199H16.2801V34.0399H13.5101C13.2301 34.0399 13.0501 34.3199 13.0501 34.7499V36.8699H12.5901C12.1701 36.8699 11.8501 37.2899 11.7101 37.8599M14.8901 38.2799C15.4001 38.2799 15.8101 37.6399 15.8101 36.8599V36.1499L18.0201 32.7499C18.0701 33.1699 18.1101 33.5999 18.1101 34.0199C18.1101 36.8499 16.6801 39.2599 14.8801 39.6099M9.81006 34.0199C9.81006 37.9099 11.8901 41.0999 14.4201 41.0999C16.9501 41.0999 19.0301 37.9099 19.0301 34.0199C19.0301 30.1299 16.9501 26.9399 14.4201 26.9399C11.8901 26.9399 9.81006 30.1299 9.81006 34.0199Z" fill="white"/>
<path d="M12.96 1.35006C15.46 -0.409944 21.46 -1.61994 24.62 5.45006C26.31 9.24006 27.57 14.0701 29.01 16.4701C30.21 18.4801 32.97 17.9501 32.97 17.9501C32.97 17.9501 30.39 19.3001 28.75 17.9701C27.78 17.1901 27.49 16.7601 27.09 15.9701C27.09 15.9701 27.64 17.3601 28.89 18.8101C29.51 19.5301 29.97 20.4001 30.07 21.3501C30.08 21.4801 30.09 21.6101 30.09 21.7501C27.83 19.3701 27.11 21.9501 23.55 17.4101C22.56 17.3001 21.23 17.2201 20.17 17.4401L19.53 14.2501L15.84 14.6201C15.84 14.6201 17.94 12.5601 16.78 9.20006C15.65 5.94005 14.88 5.99006 13.94 5.60006C13.12 5.26006 11.79 4.31006 11.79 4.31006C11.78 4.29006 11.78 4.27006 11.77 4.25006V6.99006C11.77 6.99006 8.39995 3.59006 12.94 1.33006L12.96 1.35006Z" fill="#3E2967"/>
</g>
<defs>
<clipPath id="clip0_134_1737">
<rect width="32.98" height="105.89" fill="white"/>
</clipPath>
</defs>
</svg>
