<svg width="110" height="110" viewBox="0 0 110 110" fill="none" xmlns="http://www.w3.org/2000/svg">
<g clip-path="url(#clip0_1203_1561)">
<path d="M52.8 56.51L64.77 56.05L71.36 78.16L83.89 95.86L81.56 97.72C81.84 98.22 82.33 99.04 82.8 99.36C83.49 99.82 84.39 100.69 83.58 101.72L78.62 105.57C77.9 105.88 77.13 104.82 77.49 104.02C77.73 103.49 78.55 102.31 78.82 101.81C79.37 100.76 78.71 99.97 77.99 98.83C73.66 92.04 63.55 81.65 63.55 81.65L52.81 56.51H52.8Z" fill="#291B4C"/>
<path d="M51.92 54.97L69.53 55.77L48.07 80.52L40.69 102.88L37.91 102.49L37.01 104.26C36.08 106.25 35.96 107.1 34.42 106.33L30.59 104.83C29.89 104.48 30 103.47 30.82 103.22C31.36 103.06 32.19 103.03 32.75 103C34.83 102.9 34.55 101.45 34.88 100.13C36.88 92.25 37.78 85.92 40.05 77.97C41.34 73.41 51.94 54.98 51.94 54.98L51.92 54.97Z" fill="#3F3072"/>
<path d="M29.2401 42.5C27.6501 42.91 26.6901 44.53 27.1001 46.12C27.4401 47.43 28.5901 48.31 29.8701 48.35C30.1501 48.35 30.4301 48.33 30.7201 48.26C31.4101 48.08 32.0801 47.88 32.7401 47.67L30.3001 42.2C29.9501 42.31 29.6001 42.41 29.2401 42.5Z" fill="#FADDDC"/>
<path d="M54.07 19.55C52.5 19.06 50.84 19.93 50.34 21.5C50.29 21.67 45.06 37.73 30.29 42.2L32.73 47.67C50 42.02 55.77 24.06 56.01 23.27C56.5 21.7 55.62 20.04 54.06 19.55H54.07Z" fill="#A4B2D3"/>
<path d="M51.1 20.37L43.61 31.73L50.45 39.1L53.77 26.87L51.1 20.37Z" fill="#5280DD"/>
<path d="M47.56 57.65L70.95 57.41L67.77 33.84C67.77 29.68 62.67 18.34 59.14 18.34H54.79C53.29 18.34 51.87 19.1 51.09 20.38C45.42 29.64 47.55 57.66 47.55 57.66L47.56 57.65Z" fill="#5280DD"/>
<path d="M73.81 54.69C73.59 56.32 74.74 57.81 76.37 58.03C77.71 58.21 78.96 57.47 79.48 56.29C79.59 56.04 79.67 55.76 79.71 55.47C79.8 54.76 79.87 54.07 79.92 53.38L73.94 53.6C73.91 53.96 73.87 54.33 73.82 54.69H73.81Z" fill="#FADDDC"/>
<path d="M61.81 23.08C60.77 24.35 60.96 26.22 62.22 27.26C62.35 27.37 75.3 38.22 73.92 53.59L79.9 53.37C81.12 35.25 66.62 23.18 65.98 22.65C64.71 21.61 62.84 21.8 61.8 23.07L61.81 23.08Z" fill="#A4B2D3"/>
<path d="M59.15 18.34C59.15 18.34 64.45 18.19 67.98 22.02C71.51 25.85 74.39 29.75 74.39 29.75C74.39 29.75 66.66 35.71 66.36 35.71C66.06 35.71 55.98 24.89 55.98 24.89C55.98 24.89 56.51 19.37 59.15 18.34Z" fill="#5280DD"/>
<path d="M60.7301 6.33002H51.4401V14.64C51.4401 16.27 52.7601 17.59 54.3901 17.59H55.3301C55.7901 17.59 56.1601 17.96 56.1601 18.42V19.24C56.1601 20.28 57.2701 20.93 58.1801 20.44L60.5501 19.15L60.7401 6.33002H60.7301Z" fill="#FADDDC"/>
<path d="M51.72 14.79L51.18 14.64C50.7 14.5 50.41 14 50.55 13.52L51.29 10.88C51.35 10.68 51.56 10.56 51.76 10.62C51.96 10.68 52.08 10.89 52.02 11.09L51.38 13.38C51.3 13.65 51.46 13.94 51.74 14.02L51.93 14.07C52.13 14.13 52.25 14.34 52.19 14.54C52.13 14.74 51.92 14.86 51.72 14.8V14.79Z" fill="#E0B1BB"/>
<path d="M53.03 10.84C53.03 11.12 53.25 11.34 53.53 11.34C53.81 11.34 54.03 11.12 54.03 10.84C54.03 10.56 53.81 10.34 53.53 10.34C53.25 10.34 53.03 10.56 53.03 10.84Z" fill="#757570"/>
<path d="M57.94 10.58C57.94 10.105 58.3251 9.71997 58.8 9.71997C59.275 9.71997 59.66 10.105 59.66 10.58V12.45C59.66 12.9249 59.275 13.31 58.8 13.31C58.3251 13.31 57.94 12.9249 57.94 12.45V10.58Z" fill="#FADDDC"/>
<path d="M51.35 39.85C51.49 39.28 51.81 38.86 52.23 38.86H52.69V36.74C52.69 36.32 52.87 36.03 53.15 36.03H55.92V34.61H55C54.72 34.61 54.54 34.33 54.54 33.9V32.48H53.62C53.11 32.48 52.7 31.84 52.7 31.06V30.78C51.36 31.63 50.39 33.68 50.39 36.02C50.39 37.51 50.76 38.85 51.36 39.84M54.54 41.61C56.34 41.26 57.77 38.85 57.77 36.02C57.77 35.6 57.72 35.17 57.68 34.75L55.47 38.15V38.86C55.47 39.64 55.05 40.28 54.55 40.28M54.09 28.96C56.63 28.96 58.7 32.15 58.7 36.04C58.7 39.93 56.62 43.12 54.09 43.12C51.56 43.12 49.48 39.93 49.48 36.04C49.48 32.15 51.56 28.96 54.09 28.96Z" fill="white"/>
<path d="M52.59 3.34999C55.09 1.58999 61.09 0.379994 64.25 7.44999C65.94 11.24 67.2 16.07 68.64 18.47C69.84 20.48 72.6 19.95 72.6 19.95C72.6 19.95 70.02 21.3 68.38 19.97C67.41 19.19 67.12 18.76 66.72 17.97C66.72 17.97 67.27 19.36 68.52 20.81C69.14 21.53 69.6 22.4 69.7 23.35C69.71 23.48 69.72 23.61 69.72 23.75C67.46 21.37 66.3 19.9 63.18 19.41C62.19 19.3 60.86 19.22 59.8 19.44L59.16 16.25L55.47 16.62C55.47 16.62 57.57 14.56 56.41 11.2C55.28 7.93999 54.51 7.98999 53.57 7.59999C52.75 7.25999 51.42 6.30999 51.42 6.30999C51.41 6.28999 51.41 6.26999 51.4 6.24999V8.98999C51.4 8.98999 48.03 5.58999 52.57 3.32999L52.59 3.34999Z" fill="#3E2967"/>
</g>
<defs>
<clipPath id="clip0_1203_1561">
<rect width="56.9" height="104.6" fill="white" transform="matrix(-1 0 0 1 83.9 2)"/>
</clipPath>
</defs>
</svg>
