<svg width="40" height="107" viewBox="0 0 40 107" fill="none" xmlns="http://www.w3.org/2000/svg">
<g clip-path="url(#clip0_134_1818)">
<path d="M23.4701 14.96H18.8601V18.31H23.4701V14.96Z" fill="#FADDDC"/>
<path d="M26.3701 11.32H25.8101V8.77002C25.8101 8.36002 26.1401 8.02002 26.5601 8.02002H26.8601C27.2701 8.02002 27.6101 8.35002 27.6101 8.77002L27.2601 10.44C27.2601 10.93 26.8701 11.32 26.3801 11.32H26.3701Z" fill="#FADDDC"/>
<path d="M15.25 11.32H15.81V8.77002C15.81 8.36002 15.48 8.02002 15.06 8.02002H14.76C14.35 8.02002 14.01 8.35002 14.01 8.77002L14.36 10.44C14.36 10.93 14.75 11.32 15.24 11.32H15.25Z" fill="#FADDDC"/>
<path d="M7.18006 54.81C7.66006 56.42 6.73006 58.11 5.12006 58.58C3.80006 58.97 2.42006 58.42 1.71006 57.32C1.56006 57.08 1.43006 56.82 1.35006 56.53C1.14006 55.83 0.970059 55.14 0.810059 54.45L6.89006 53.73C6.98006 54.09 7.08006 54.45 7.18006 54.81Z" fill="#FADDDC"/>
<path d="M14.2901 21.0001C15.5401 22.1201 15.6501 24.0401 14.5401 25.2901C14.4201 25.4201 3.07011 38.4301 6.89011 53.7201L0.810106 54.4401C-3.28989 36.3401 9.44011 21.8701 10.0101 21.2401C11.1301 19.9901 13.0401 19.8901 14.2901 21.0001Z" fill="#A4B2D3"/>
<path d="M33.8499 51.45C33.7399 53.02 34.9199 54.38 36.4799 54.49C36.5499 54.49 36.6199 54.49 36.6899 54.49C38.1699 54.49 39.4199 53.35 39.5199 51.85C39.5599 51.36 39.5799 50.87 39.5999 50.39H33.8999C33.8799 50.74 33.8699 51.08 33.8499 51.44V51.45Z" fill="#FADDDC"/>
<path d="M27.22 20.84C25.85 20.08 24.14 20.57 23.37 21.93C22.6 23.29 23.09 25.02 24.45 25.8C24.97 26.1 34.93 30.69 33.96 50.4H39.66C40.69 27.22 27.88 21.19 27.23 20.83L27.22 20.84Z" fill="#A4B2D3"/>
<path d="M35.1899 52.47H7.67993L10.3599 28.94C10.3599 23.8 11.8599 18.16 16.9999 18.16H25.8899C31.0299 18.16 34.2599 31.95 33.4199 37.77L35.1799 52.46L35.1899 52.47Z" fill="#5280DD"/>
<path d="M33.3301 52.4L9.08008 52.5C9.08008 52.5 15.9301 99.53 14.5501 98.95C13.9001 98.68 13.4901 98.55 12.9501 99.04C12.3101 99.62 12.8001 101.32 13.3701 102.23L19.2001 106.87C21.5001 106.34 21.1901 104.54 20.7401 103.16C20.4401 102.25 20.2601 101.29 20.2201 100.32C20.0301 94.22 19.0801 66.98 18.9201 62.45C18.8801 61.41 19.7601 60.29 20.6301 60.29H22.2101C23.0801 60.29 23.8301 61.04 23.9801 62.06C24.6701 66.71 23.7601 70.21 23.5101 84.32C23.5101 84.32 23.6601 88.5 23.9101 89.5C24.2701 90.92 25.7201 90.71 26.2201 89.66C26.6501 88.75 27.0901 85.04 27.1701 84.32H28.6101L33.3201 52.41L33.3301 52.4Z" fill="#3E2C6D"/>
<path d="M14.2801 18.4401C14.2801 18.4401 5.64007 20.1601 1.32007 33.2601L9.47007 37.3801L14.2801 18.4301V18.4401Z" fill="#5280DD"/>
<path d="M27.49 18.5699C27.49 18.5699 33.39 19.0799 37.5 33.2599L33.43 37.7799C33.57 29.2599 31.24 23.0499 27.49 18.5699Z" fill="#3070D6"/>
<path d="M17.25 1.77C17.25 1.77 14.92 3.14 14.23 8.81C13.53 14.47 13.19 19.66 14.48 24.11C14.5 21.69 14.43 21.36 14.8 19.52C15.07 22.59 16.15 25.37 18.09 27.84C18.17 25.98 18.27 24.14 19.12 23.59C19.12 23.59 20.15 25.85 19.59 28.11C19.03 30.37 26.11 26.02 26.25 23.4C26.31 22.29 27.34 8.23 26.65 4.8C25.96 1.37 22.24 -0.409997 19.68 0.0800034C17.12 0.570003 17.25 1.77 17.25 1.77Z" fill="#3E2967"/>
<path d="M26.4099 4.44995C26.4099 4.44995 27.5899 5.65995 27.5899 9.99995C27.5899 14.32 27.2999 22.42 27.7099 22.42C26.8099 21.75 26.2199 20.59 26.3799 18.27L26.3999 4.44995H26.4099Z" fill="#3E2967"/>
<path d="M9.47011 37.38L9.94011 31.59L8.36011 36.8L9.47011 37.38Z" fill="#3070D6"/>
</g>
<defs>
<clipPath id="clip0_134_1818">
<rect width="39.71" height="106.88" fill="white"/>
</clipPath>
</defs>
</svg>
