<svg width="110" height="110" viewBox="0 0 110 110" fill="none" xmlns="http://www.w3.org/2000/svg">
<g clip-path="url(#clip0_1203_2045)">
<path d="M70.07 59.9C70.07 58.2 70 56.26 69.71 54.35H44.41V99.28C44.41 100.06 44.21 100.83 43.84 101.51L43.77 101.64C43.39 102.33 42.81 102.88 42.1 103.21L40.68 103.87C40.42 103.99 40.25 104.25 40.25 104.54C40.25 104.95 40.58 105.28 40.99 105.28H44.73C45.9 105.28 46.87 104.39 46.98 103.23L47.08 102.23C47.19 101.05 47.35 99.88 47.57 98.72L50.87 79.43L53.49 64.14C53.75 62.62 55.06 61.51 56.6 61.51C58.14 61.51 59.42 62.59 59.7 64.07L62.64 79.43L66.58 99.98C66.76 100.83 66.55 101.71 66 102.38C65.57 102.9 64.97 103.26 64.31 103.37L63.67 103.48C63.26 103.55 62.96 103.9 62.96 104.32C62.96 104.79 63.34 105.17 63.81 105.17H67.52C68.55 105.17 69.39 104.33 69.38 103.29L69.35 99.64L69.71 79.42L70.06 59.88L70.07 59.9Z" fill="#3E2967"/>
<path d="M21.98 17.28C20.76 16.17 18.88 16.26 17.78 17.48C16.87 18.48 16.77 19.93 17.44 21.02C17.58 21.26 17.77 21.48 17.98 21.68C18.51 22.16 19.04 22.61 19.58 23.04L22.81 18C22.53 17.77 22.25 17.53 21.98 17.28Z" fill="#FADDDC"/>
<path d="M54.79 25.43C54.34 23.85 52.7 22.94 51.12 23.38C50.95 23.43 34.66 27.88 22.81 17.99L19.58 23.03C33.78 34.36 51.96 29.32 52.76 29.1C54.34 28.65 55.25 27 54.8 25.43H54.79Z" fill="#A4B2D3"/>
<path d="M72.72 56.95C72.6 58.59 73.84 60.01 75.47 60.13C75.54 60.13 75.61 60.13 75.68 60.13C77.23 60.13 78.53 58.93 78.64 57.37C78.68 56.86 78.7 56.35 78.73 55.85H72.77C72.75 56.22 72.74 56.57 72.71 56.95H72.72Z" fill="#FADDDC"/>
<path d="M63.5399 22.27C62.1099 21.48 60.3099 21.99 59.5099 23.42C58.7099 24.85 59.2099 26.66 60.6399 27.47C61.1899 27.78 73.7999 35.24 72.7899 55.86H78.7499C79.8199 31.62 64.2199 22.65 63.5499 22.28L63.5399 22.27Z" fill="#A4B2D3"/>
<path d="M41.13 58.58H71.81L67.67 28.88C66.86 24.46 64.72 21 60.13 21.34H50.53C47.27 21.34 44.84 24.02 44.4 28.88L41.12 58.58H41.13Z" fill="#5280DD"/>
<path d="M61.15 22.83C62.27 21.63 64.14 21.56 65.35 22.67C65.7 22.99 71.56 26.5 75.01 33.52L68.43 37.89C65.41 31.39 61.37 27.1 61.3 27.03C60.1 25.91 60.03 24.03 61.15 22.83Z" fill="#5280DD"/>
<path d="M49.54 21.4C51.27 21.31 51.91 22.7 52.27 24.09C52.68 25.68 49.73 31.03 48.22 31.67C47.38 32.02 44.63 31.96 38.09 31.9L38.87 22.93C44.28 22.92 46.75 21.55 49.54 21.4Z" fill="#5280DD"/>
<path d="M54.4647 18.2093L49.0951 17.55L48.5 21.5L54 21.5L54.4647 18.2093Z" fill="#3E2967"/>
<path d="M59.5746 8.3485L50.1752 7.1944L49.1003 15.9487C48.898 17.5963 50.0734 19.1007 51.721 19.303L52.6739 19.42C53.1404 19.4773 53.4613 19.8996 53.4052 20.3561L53.2663 21.4877C53.1103 22.7581 54.017 23.9072 55.2776 24.062C56.548 24.2179 57.6959 23.3211 57.8519 22.0507L59.5647 8.34728L59.5746 8.3485Z" fill="#FADDDC"/>
<path d="M52.1033 16.5995L51.5375 16.53C51.0313 16.4679 50.6657 15.9998 50.7278 15.4936L51.069 12.7145C51.0946 12.5061 51.2853 12.3481 51.5037 12.3749C51.722 12.4017 51.87 12.5912 51.8432 12.8095L51.5471 15.2214C51.5117 15.5093 51.7207 15.7767 52.0085 15.8121L52.2071 15.8364C52.4155 15.862 52.5734 16.0527 52.5466 16.2711C52.5198 16.4894 52.3304 16.6374 52.112 16.6106L52.1033 16.5995Z" fill="#E0B1BB"/>
<path d="M53.4465 13.1273C53.4087 13.435 53.6264 13.7136 53.9341 13.7514C54.2418 13.7891 54.5204 13.5715 54.5582 13.2638C54.596 12.9561 54.3783 12.6775 54.0706 12.6397C53.7629 12.6019 53.4843 12.8196 53.4465 13.1273Z" fill="#757570"/>
<path d="M55.7288 10.2943C56.1499 11.1319 56.7517 12.3846 56.8423 14.1084C57.0407 18.0722 54.4463 18.8518 54.4463 18.8518L57.5027 19.479L56.3404 26.812C58.2659 27.0484 64.0948 29.5474 61.9349 16.2853L61.1892 9.88673C60.8947 7.36201 58.9132 5.36565 56.3921 5.0561L53.6428 4.71853C53.0075 4.64053 52.3957 5.02885 52.1998 5.63953C50.8003 5.4677 49.6105 6.46009 49.1891 7.75842C48.0988 11.1408 47.9839 15.9325 47.9839 15.9325C47.851 18.0823 46.9155 17.9876 46.9155 17.9876C46.9155 17.9876 48.1787 18.2031 48.5161 18.2446L49.8065 18.403C49.8065 18.403 48.9645 17.3828 49.113 16.0913C49.1934 15.4362 49.3897 13.8382 49.5639 12.4188C49.7662 10.7712 50.8959 8.38107 52.3778 7.63611C52.3778 7.63611 54.5253 7.86957 55.73 10.2844L55.7288 10.2943Z" fill="#3E2967"/>
<path d="M60.2901 44.06C60.0801 43.49 59.5801 43.07 58.9501 43.07H58.2401V40.95C58.2401 40.53 57.9601 40.24 57.5301 40.24H53.2801V38.82H54.7001C55.1201 38.82 55.4101 38.54 55.4101 38.11V36.69H56.8301C57.6101 36.69 58.2501 36.05 58.2501 35.27V34.99C60.3001 35.84 61.7901 37.89 61.7901 40.23C61.7901 41.72 61.2201 43.06 60.3001 44.05M55.4201 45.82C52.6601 45.47 50.4701 43.06 50.4701 40.23C50.4701 39.81 50.5401 39.38 50.6101 38.96L54.0101 42.36V43.07C54.0101 43.85 54.6501 44.49 55.4301 44.49M56.1401 33.17C52.2501 33.17 49.0601 36.36 49.0601 40.25C49.0601 44.14 52.2501 47.33 56.1401 47.33C60.0301 47.33 63.2201 44.14 63.2201 40.25C63.2201 36.36 60.0301 33.17 56.1401 33.17Z" fill="white"/>
</g>
<defs>
<clipPath id="clip0_1203_2045">
<rect width="61.8" height="100.29" fill="white" transform="translate(17 5)"/>
</clipPath>
</defs>
</svg>
