<svg width="110" height="110" viewBox="0 0 110 110" fill="none" xmlns="http://www.w3.org/2000/svg">
<g clip-path="url(#clip0_1203_1581)">
<path d="M52.77 53.05L65.27 53.41L64.53 102.54L62.39 103.24C62.38 103.79 62.39 104.7 62.62 105.2C62.96 105.94 63.27 107.1 62.17 107.48L56.56 107.9C55.86 107.76 55.73 106.51 56.38 106.08C56.81 105.79 57.98 105.29 58.42 105.03C59.32 104.49 59.29 103.5 59.11 102.23C57.84 93.04 52.78 53.07 52.78 53.07L52.77 53.05Z" fill="#291B4C"/>
<path d="M51.13 53.5L65.52 55.04L52.83 77.56L57.2 96.88L55.04 97.56V99.44C55.21 100.76 55.21 101.62 53.8 102.38L50.19 103.3C49.48 103.36 49.15 102.48 49.71 101.88C50.08 101.48 50.86 101.2 51.18 100.76C52.63 98.8 51.87 98.35 51.6 97.11C49.95 89.73 44.03 77.27 44.03 77.27L51.13 53.49V53.5Z" fill="#3E2C6D"/>
<path d="M39.03 51.71C37.79 52.79 37.65 54.66 38.73 55.91C39.61 56.93 41.04 57.2 42.21 56.67C42.46 56.55 42.71 56.4 42.93 56.21C43.47 55.74 43.98 55.27 44.47 54.78L39.85 50.97C39.59 51.22 39.32 51.47 39.04 51.71H39.03Z" fill="#FADDDC"/>
<path d="M51.03 20.1C49.41 20.36 48.31 21.88 48.56 23.5C48.59 23.67 51.07 40.38 39.84 50.97L44.46 54.78C57.4 42.03 54.56 23.38 54.43 22.56C54.17 20.94 52.64 19.84 51.02 20.1H51.03Z" fill="#A4B2D3"/>
<path d="M48.74 22.16L47.09 35.67L56.5 39.21L54.02 26.79L48.74 22.16Z" fill="#5280DD"/>
<path d="M45.94 57.65L69.33 57.41L66.15 33.84C66.15 29.68 61.05 18.34 57.52 18.34H53.17C51.67 18.34 50.25 19.1 49.47 20.38C43.8 29.64 45.93 57.66 45.93 57.66L45.94 57.65Z" fill="#5280DD"/>
<path d="M57.61 58.1C56.68 59.46 57.04 61.31 58.39 62.23C59.51 62.99 60.95 62.89 61.95 62.08C62.17 61.9 62.36 61.69 62.52 61.45C62.92 60.86 63.29 60.27 63.64 59.67L58.2 57.17C58.01 57.48 57.81 57.79 57.6 58.09L57.61 58.1Z" fill="#FADDDC"/>
<path d="M61.11 24.47C59.61 25.13 58.93 26.89 59.6 28.39C59.67 28.55 66.35 44.06 58.21 57.17L63.65 59.67C72.89 44.03 65.37 26.73 65.03 25.97C64.36 24.47 62.61 23.8 61.11 24.47Z" fill="#A4B2D3"/>
<path d="M60.87 19.04C60.87 19.04 65.67 21.29 67.1 26.3C68.53 31.31 69.34 36.09 69.34 36.09C69.34 36.09 59.75 37.94 59.49 37.81C59.23 37.68 55.09 23.47 55.09 23.47C55.09 23.47 58.04 18.78 60.87 19.05V19.04Z" fill="#5280DD"/>
<path d="M59.11 6.33002H49.82V14.64C49.82 16.27 51.14 17.59 52.77 17.59H53.71C54.17 17.59 54.54 17.96 54.54 18.42V19.24C54.54 20.28 55.65 20.93 56.56 20.44L58.93 19.15L59.12 6.33002H59.11Z" fill="#FADDDC"/>
<path d="M50.1 14.79L49.56 14.64C49.08 14.5 48.79 14 48.93 13.52L49.67 10.88C49.73 10.68 49.94 10.56 50.14 10.62C50.34 10.68 50.46 10.89 50.4 11.09L49.76 13.38C49.68 13.65 49.84 13.94 50.12 14.02L50.31 14.07C50.51 14.13 50.63 14.34 50.57 14.54C50.51 14.74 50.3 14.86 50.1 14.8V14.79Z" fill="#E0B1BB"/>
<path d="M51.4 10.84C51.4 11.12 51.62 11.34 51.9 11.34C52.18 11.34 52.4 11.12 52.4 10.84C52.4 10.56 52.18 10.34 51.9 10.34C51.62 10.34 51.4 10.56 51.4 10.84Z" fill="#757570"/>
<path d="M56.32 10.58C56.32 10.105 56.7051 9.71997 57.18 9.71997C57.655 9.71997 58.04 10.105 58.04 10.58V12.45C58.04 12.9249 57.655 13.31 57.18 13.31C56.7051 13.31 56.32 12.9249 56.32 12.45V10.58Z" fill="#FADDDC"/>
<path d="M49.7299 39.85C49.8699 39.28 50.1899 38.86 50.6099 38.86H51.0699V36.74C51.0699 36.32 51.2499 36.03 51.5299 36.03H54.2999V34.61H53.3799C53.0999 34.61 52.9199 34.33 52.9199 33.9V32.48H51.9999C51.4899 32.48 51.0799 31.84 51.0799 31.06V30.78C49.7399 31.63 48.7699 33.68 48.7699 36.02C48.7699 37.51 49.1399 38.85 49.7399 39.84M52.9099 41.62C54.7099 41.27 56.1399 38.86 56.1399 36.03C56.1399 35.61 56.0899 35.18 56.0499 34.76L53.8399 38.16V38.87C53.8399 39.65 53.4199 40.29 52.9199 40.29M52.4499 28.95C54.9899 28.95 57.0599 32.14 57.0599 36.03C57.0599 39.92 54.9799 43.11 52.4499 43.11C49.9199 43.11 47.8399 39.92 47.8399 36.03C47.8399 32.14 49.9199 28.95 52.4499 28.95Z" fill="white"/>
<path d="M50.97 3.34999C53.47 1.58999 59.47 0.379994 62.63 7.44999C64.32 11.24 65.58 16.07 67.02 18.47C68.22 20.48 70.98 19.95 70.98 19.95C70.98 19.95 68.4 21.3 66.76 19.97C65.79 19.19 65.5 18.76 65.1 17.97C65.1 17.97 65.65 19.36 66.9 20.81C67.52 21.53 67.98 22.4 68.08 23.35C68.09 23.48 68.1 23.61 68.1 23.75C65.84 21.37 65.12 23.95 61.56 19.41C60.57 19.3 59.24 19.22 58.18 19.44L57.54 16.25L53.85 16.62C53.85 16.62 55.95 14.56 54.79 11.2C53.66 7.93999 52.89 7.98999 51.95 7.59999C51.13 7.25999 49.8 6.30999 49.8 6.30999C49.79 6.28999 49.79 6.26999 49.78 6.24999V8.98999C49.78 8.98999 46.41 5.58999 50.95 3.32999L50.97 3.34999Z" fill="#3E2967"/>
</g>
<defs>
<clipPath id="clip0_1203_1581">
<rect width="32.98" height="105.89" fill="white" transform="matrix(-1 0 0 1 70.98 2)"/>
</clipPath>
</defs>
</svg>
