<svg width="110" height="110" viewBox="0 0 110 110" fill="none" xmlns="http://www.w3.org/2000/svg">
<g clip-path="url(#clip0_1203_2110)">
<path d="M26.02 46.78C24.46 47.31 23.63 49 24.16 50.55C24.59 51.83 25.81 52.62 27.1 52.56C27.38 52.55 27.66 52.5 27.94 52.4C28.61 52.17 29.27 51.92 29.91 51.66L27.06 46.39C26.72 46.52 26.38 46.65 26.03 46.77L26.02 46.78Z" fill="#FADDDC"/>
<path d="M49.0301 22.01C47.4301 21.64 45.84 22.64 45.46 24.23C45.42 24.4 41.43 40.81 27.05 46.4L29.9 51.67C46.69 44.73 51.08 26.38 51.26 25.57C51.63 23.97 50.6301 22.38 49.0301 22.01Z" fill="#A4B2D3"/>
<path d="M43.96 25.04C45.23 22.92 48.05 21.04 49.45 21.4C51.04 21.81 54.29 26.98 54.12 28.61C54.02 29.51 49.83 34.06 46.61 39.75L39.14 34.73C41.75 29.99 42.52 27.44 43.96 25.04Z" fill="#5280DD"/>
<path d="M70.17 59.9C70.17 58.2 70.1 56.26 69.81 54.35H44.51V99.28C44.51 100.06 44.31 100.83 43.94 101.51L43.87 101.64C43.49 102.33 42.91 102.88 42.2 103.21L40.78 103.87C40.52 103.99 40.35 104.25 40.35 104.54C40.35 104.95 40.68 105.28 41.09 105.28H44.83C46 105.28 46.97 104.39 47.08 103.23L47.18 102.23C47.29 101.05 47.45 99.88 47.67 98.72L50.97 79.43L53.59 64.14C53.85 62.62 55.16 61.51 56.7 61.51C58.24 61.51 59.52 62.59 59.8 64.07L62.74 79.43L66.68 99.98C66.86 100.83 66.65 101.71 66.1 102.38C65.67 102.9 65.07 103.26 64.41 103.37L63.77 103.48C63.36 103.55 63.06 103.9 63.06 104.32C63.06 104.79 63.44 105.17 63.91 105.17H67.62C68.65 105.17 69.49 104.33 69.48 103.29L69.45 99.64L69.81 79.42L70.16 59.88L70.17 59.9Z" fill="#3E2967"/>
<path d="M72.8299 56.95C72.7099 58.59 73.9499 60.01 75.5799 60.13C75.6499 60.13 75.7199 60.13 75.7899 60.13C77.3399 60.13 78.6399 58.93 78.7499 57.37C78.7899 56.86 78.8099 56.35 78.8399 55.85H72.8799C72.8599 56.22 72.8499 56.57 72.8199 56.95H72.8299Z" fill="#FADDDC"/>
<path d="M63.64 22.27C62.21 21.48 60.41 21.99 59.61 23.42C58.81 24.85 59.31 26.66 60.74 27.47C61.29 27.78 73.9 35.24 72.89 55.86H78.85C79.92 31.62 64.32 22.65 63.65 22.28L63.64 22.27Z" fill="#A4B2D3"/>
<path d="M41.24 58.58H71.92L67.78 28.88C66.97 24.46 64.83 21 60.24 21.34H50.64C47.38 21.34 44.95 24.02 44.51 28.88L41.23 58.58H41.24Z" fill="#5280DD"/>
<path d="M61.25 22.83C62.37 21.63 64.24 21.56 65.45 22.67C65.8 22.99 71.66 26.5 75.11 33.52L68.53 37.89C65.51 31.39 61.47 27.1 61.4 27.03C60.2 25.91 60.13 24.03 61.25 22.83Z" fill="#5280DD"/>
<path d="M54.86 18.28H49.45V21.41H54.86V18.28Z" fill="#3E2967"/>
<path d="M58.73 7.87H49.26V16.69C49.26 18.35 50.61 19.7 52.27 19.7H53.23C53.7 19.7 54.07 20.08 54.07 20.54V21.68C54.07 22.96 55.11 23.99 56.38 23.99C57.66 23.99 58.69 22.96 58.69 21.68L58.72 7.87H58.73Z" fill="#FADDDC"/>
<path d="M52.33 16.97H51.76C51.25 16.97 50.83 16.55 50.83 16.04V13.24C50.83 13.03 51 12.85 51.22 12.85C51.44 12.85 51.61 13.02 51.61 13.24V15.67C51.61 15.96 51.85 16.2 52.14 16.2H52.34C52.55 16.2 52.73 16.37 52.73 16.59C52.73 16.81 52.56 16.98 52.34 16.98L52.33 16.97Z" fill="#E0B1BB"/>
<path d="M53.24 13.36C53.24 13.67 53.49 13.92 53.8 13.92C54.11 13.92 54.36 13.67 54.36 13.36C54.36 13.05 54.11 12.8 53.8 12.8C53.49 12.8 53.24 13.05 53.24 13.36Z" fill="#757570"/>
<path d="M55.15 10.27C55.67 11.05 56.42 12.22 56.72 13.92C57.4 17.83 54.92 18.92 54.92 18.92L58.03 19.17L57.77 26.59C59.71 26.59 65.8 28.36 62.04 15.46L60.52 9.19999C59.92 6.72999 57.71 4.98999 55.17 4.98999H52.4C51.76 4.98999 51.2 5.44999 51.08 6.07999C49.67 6.07999 48.61 7.20999 48.35 8.54999C47.68 12.04 48.15 16.81 48.15 16.81C48.28 18.96 47.34 18.98 47.34 18.98C47.34 18.98 48.62 19.04 48.96 19.04H50.26C50.26 19.04 49.3 18.13 49.29 16.83C49.29 16.17 49.29 14.56 49.29 13.13C49.29 11.47 50.12 8.95999 51.5 8.03999C51.5 8.03999 53.66 8.00999 55.15 10.26V10.27Z" fill="#3E2967"/>
<path d="M60.39 44.06C60.18 43.49 59.68 43.07 59.05 43.07H58.34V40.95C58.34 40.53 58.06 40.24 57.63 40.24H53.38V38.82H54.8C55.22 38.82 55.51 38.54 55.51 38.11V36.69H56.93C57.71 36.69 58.35 36.05 58.35 35.27V34.99C60.4 35.84 61.89 37.89 61.89 40.23C61.89 41.72 61.32 43.06 60.4 44.05M55.51 45.83C52.75 45.48 50.56 43.07 50.56 40.24C50.56 39.82 50.63 39.39 50.7 38.97L54.1 42.37V43.08C54.1 43.86 54.74 44.5 55.52 44.5M56.22 33.16C52.33 33.16 49.14 36.35 49.14 40.24C49.14 44.13 52.33 47.32 56.22 47.32C60.11 47.32 63.3 44.13 63.3 40.24C63.3 36.35 60.11 33.16 56.22 33.16Z" fill="white"/>
</g>
<defs>
<clipPath id="clip0_1203_2110">
<rect width="54.9" height="100.29" fill="white" transform="translate(24 5)"/>
</clipPath>
</defs>
</svg>
