<svg width="110" height="110" viewBox="0 0 110 110" fill="none" xmlns="http://www.w3.org/2000/svg">
<g clip-path="url(#clip0_1203_1779)">
<path d="M90.59 44.78C92.15 45.31 92.98 47 92.45 48.55C92.02 49.83 90.7999 50.62 89.5099 50.56C89.2299 50.55 88.9499 50.5 88.6699 50.4C87.9999 50.17 87.34 49.92 86.7 49.66L89.5499 44.39C89.8899 44.52 90.23 44.65 90.58 44.77L90.59 44.78Z" fill="#FADDDC"/>
<path d="M67.57 20.01C69.17 19.64 70.76 20.64 71.14 22.23C71.18 22.4 75.17 38.81 89.55 44.4L86.7 49.67C69.91 42.73 65.52 24.38 65.34 23.57C64.97 21.97 65.97 20.38 67.57 20.01Z" fill="#A4B2D3"/>
<path d="M72.6401 23.04C71.3701 20.92 68.5501 19.04 67.1501 19.4C65.5601 19.81 62.3101 24.98 62.4801 26.61C62.5801 27.51 66.7701 32.06 69.9901 37.75L77.4601 32.73C74.8501 27.99 74.0801 25.44 72.6401 23.04Z" fill="#5280DD"/>
<path d="M44.0701 55.24C44.1901 56.88 42.9501 58.3 41.3201 58.42C41.2501 58.42 41.1801 58.42 41.1101 58.42C39.5601 58.42 38.2601 57.22 38.1501 55.66C38.1101 55.15 38.0901 54.64 38.0601 54.14H44.0201C44.0401 54.51 44.0501 54.86 44.0801 55.24H44.0701Z" fill="#FADDDC"/>
<path d="M53.26 20.56C54.69 19.77 56.49 20.28 57.29 21.71C58.09 23.14 57.59 24.95 56.16 25.76C55.61 26.07 43 33.53 44.01 54.15H38.05C36.98 29.9 52.58 20.94 53.26 20.56Z" fill="#A4B2D3"/>
<path d="M55.65 21.12C54.53 19.92 52.66 19.85 51.45 20.96C51.1 21.28 45.24 24.79 41.79 31.81L48.37 36.18C51.39 29.68 55.43 25.39 55.5 25.32C56.7 24.2 56.77 22.32 55.65 21.12Z" fill="#5280DD"/>
<path d="M45.91 56.58H76.59L72.45 26.88C71.64 22.46 69.5 19 64.91 19.34H55.31C52.05 19.34 49.62 22.02 49.18 26.88L45.9 56.58H45.91Z" fill="#5280DD"/>
<path d="M59.54 16.28H54.13V19.41H59.54V16.28Z" fill="#3E2967"/>
<path d="M63.4001 5.87H53.9301V14.69C53.9301 16.35 55.2801 17.7 56.9401 17.7H57.9001C58.3701 17.7 58.7401 18.08 58.7401 18.54V19.68C58.7401 20.96 59.7801 21.99 61.0501 21.99C62.3301 21.99 63.3601 20.96 63.3601 19.68L63.3901 5.87H63.4001Z" fill="#FADDDC"/>
<path d="M57 14.97H56.43C55.92 14.97 55.5 14.55 55.5 14.04V11.24C55.5 11.03 55.67 10.85 55.89 10.85C56.11 10.85 56.28 11.02 56.28 11.24V13.67C56.28 13.96 56.52 14.2 56.81 14.2H57.01C57.22 14.2 57.4 14.37 57.4 14.59C57.4 14.81 57.23 14.98 57.01 14.98L57 14.97Z" fill="#E0B1BB"/>
<path d="M57.91 11.36C57.91 11.67 58.16 11.92 58.47 11.92C58.78 11.92 59.03 11.67 59.03 11.36C59.03 11.05 58.78 10.8 58.47 10.8C58.16 10.8 57.91 11.05 57.91 11.36Z" fill="#757570"/>
<path d="M59.83 8.26999C60.35 9.04999 61.1 10.22 61.4 11.92C62.08 15.83 59.6 16.92 59.6 16.92L62.71 17.17L62.45 24.59C64.39 24.59 70.48 26.36 66.72 13.46L65.2 7.19999C64.6 4.72999 62.39 2.98999 59.85 2.98999H57.08C56.44 2.98999 55.88 3.44999 55.76 4.07999C54.35 4.07999 53.29 5.20999 53.03 6.54999C52.36 10.04 52.83 14.81 52.83 14.81C52.96 16.96 52.02 16.98 52.02 16.98C52.02 16.98 53.3 17.04 53.64 17.04H54.94C54.94 17.04 53.98 16.13 53.97 14.83C53.97 14.17 53.97 12.56 53.97 11.13C53.97 9.46999 54.8 6.95999 56.18 6.03999C56.18 6.03999 58.34 6.00999 59.83 8.25999V8.26999Z" fill="#3E2967"/>
<path d="M65.07 42.06C64.86 41.49 64.36 41.07 63.73 41.07H63.02V38.95C63.02 38.53 62.74 38.24 62.31 38.24H58.06V36.82H59.48C59.9 36.82 60.19 36.54 60.19 36.11V34.69H61.61C62.39 34.69 63.03 34.05 63.03 33.27V32.99C65.08 33.84 66.57 35.89 66.57 38.23C66.57 39.72 66 41.06 65.08 42.05M60.2 43.82C57.44 43.47 55.25 41.06 55.25 38.23C55.25 37.81 55.32 37.38 55.39 36.96L58.79 40.36V41.07C58.79 41.85 59.43 42.49 60.21 42.49M60.92 31.17C57.03 31.17 53.84 34.36 53.84 38.25C53.84 42.14 57.03 45.33 60.92 45.33C64.81 45.33 68 42.14 68 38.25C68 34.36 64.81 31.17 60.92 31.17Z" fill="white"/>
<path d="M49.74 56.4399H73.5L67.62 102.1C67.52 102.96 67.14 103.96 68.11 104.72C68.66 105.14 69.24 105.53 69.78 105.96C70.42 106.47 70.09 107.58 69.29 107.58L64.15 106.57C61.85 106.11 62.16 104.55 62.61 103.34C62.91 102.54 63.09 101.71 63.13 100.86C63.3 96.1499 62.76 70.7899 62.64 65.0799C62.63 64.4399 62.13 63.9399 61.51 63.9399C60.93 63.9399 60.45 64.3899 60.39 64.9899C59.88 70.3699 57.58 94.5299 57.36 95.2899C57 96.5199 55.54 96.3499 55.05 95.4299C54.62 94.6399 54.18 91.4099 54.1 90.7899H52.66L49.75 56.4399H49.74Z" fill="#3E2967"/>
</g>
<defs>
<clipPath id="clip0_1203_1779">
<rect width="54.6" height="104.57" fill="white" transform="translate(38 3)"/>
</clipPath>
</defs>
</svg>
