<svg width="110" height="110" viewBox="0 0 110 110" fill="none" xmlns="http://www.w3.org/2000/svg">
<g clip-path="url(#clip0_1203_1266)">
<path d="M59.06 52.68L48.26 53.27L56.15 77.55L51.78 96.87L53.94 97.55V99.43C53.77 100.75 53.77 101.61 55.18 102.37L58.79 103.29C59.5 103.35 59.83 102.47 59.27 101.87C58.9 101.47 58.12 101.19 57.8 100.75C56.35 98.79 57.11 98.34 57.38 97.1C59.03 89.72 64.95 77.26 64.95 77.26L59.06 52.67V52.68Z" fill="#291B4C"/>
<path d="M56.21 53.05L43.71 53.41L44.45 102.54L46.59 103.24C46.6 103.79 46.59 104.7 46.36 105.2C46.02 105.94 45.71 107.1 46.81 107.48L52.42 107.9C53.12 107.76 53.25 106.51 52.6 106.08C52.17 105.79 51 105.29 50.56 105.03C49.66 104.49 49.69 103.5 49.87 102.23C51.14 93.04 56.2 53.07 56.2 53.07L56.21 53.05Z" fill="#3E2C6D"/>
<path d="M69.95 51.71C71.19 52.79 71.33 54.66 70.25 55.91C69.37 56.93 67.94 57.2 66.77 56.67C66.52 56.55 66.27 56.4 66.05 56.21C65.51 55.74 65 55.27 64.51 54.78L69.13 50.97C69.39 51.22 69.66 51.47 69.94 51.71H69.95Z" fill="#FADDDC"/>
<path d="M57.95 20.1C59.57 20.36 60.67 21.88 60.42 23.5C60.39 23.67 57.91 40.38 69.14 50.97L64.52 54.78C51.58 42.03 54.42 23.38 54.55 22.56C54.81 20.94 56.34 19.84 57.96 20.1H57.95Z" fill="#A4B2D3"/>
<path d="M60.24 22.16L61.89 35.67L52.48 39.21L54.96 26.79L60.24 22.16Z" fill="#5280DD"/>
<path d="M63.04 57.65L39.65 57.41L42.83 33.84C42.83 29.68 47.93 18.34 51.46 18.34H55.81C57.31 18.34 58.73 19.1 59.51 20.38C65.18 29.64 63.05 57.66 63.05 57.66L63.04 57.65Z" fill="#5280DD"/>
<path d="M51.37 58.1C52.3 59.46 51.94 61.31 50.59 62.23C49.47 62.99 48.03 62.89 47.03 62.08C46.81 61.9 46.62 61.69 46.46 61.45C46.06 60.86 45.69 60.27 45.34 59.67L50.78 57.17C50.97 57.48 51.17 57.79 51.38 58.09L51.37 58.1Z" fill="#FADDDC"/>
<path d="M47.87 24.47C49.37 25.13 50.05 26.89 49.38 28.39C49.31 28.55 42.63 44.06 50.77 57.17L45.33 59.67C36.09 44.03 43.61 26.73 43.95 25.97C44.62 24.47 46.37 23.8 47.87 24.47Z" fill="#A4B2D3"/>
<path d="M48.11 19.04C48.11 19.04 43.31 21.29 41.88 26.3C40.45 31.31 39.64 36.09 39.64 36.09C39.64 36.09 49.23 37.94 49.49 37.81C49.75 37.68 53.89 23.47 53.89 23.47C53.89 23.47 50.94 18.78 48.11 19.05V19.04Z" fill="#5280DD"/>
<path d="M49.87 6.33002H59.16V14.64C59.16 16.27 57.84 17.59 56.21 17.59H55.27C54.81 17.59 54.44 17.96 54.44 18.42V19.24C54.44 20.28 53.33 20.93 52.42 20.44L50.05 19.15L49.86 6.33002H49.87Z" fill="#FADDDC"/>
<path d="M58.88 14.79L59.42 14.64C59.9 14.5 60.19 14 60.05 13.52L59.31 10.88C59.25 10.68 59.04 10.56 58.84 10.62C58.64 10.68 58.52 10.89 58.58 11.09L59.22 13.38C59.3 13.65 59.14 13.94 58.86 14.02L58.67 14.07C58.47 14.13 58.35 14.34 58.41 14.54C58.47 14.74 58.68 14.86 58.88 14.8V14.79Z" fill="#E0B1BB"/>
<path d="M57.58 10.84C57.58 11.12 57.36 11.34 57.08 11.34C56.8 11.34 56.58 11.12 56.58 10.84C56.58 10.56 56.8 10.34 57.08 10.34C57.36 10.34 57.58 10.56 57.58 10.84Z" fill="#757570"/>
<path d="M52.66 10.58C52.66 10.105 52.275 9.71997 51.8 9.71997C51.325 9.71997 50.94 10.105 50.94 10.58V12.45C50.94 12.9249 51.325 13.31 51.8 13.31C52.275 13.31 52.66 12.9249 52.66 12.45V10.58Z" fill="#FADDDC"/>
<path d="M59.25 39.85C59.11 39.28 58.79 38.86 58.37 38.86H57.91V36.74C57.91 36.32 57.73 36.03 57.45 36.03H54.68V34.61H55.6C55.88 34.61 56.06 34.33 56.06 33.9V32.48H56.98C57.49 32.48 57.9 31.84 57.9 31.06V30.78C59.24 31.63 60.21 33.68 60.21 36.02C60.21 37.51 59.84 38.85 59.24 39.84M56.06 41.61C54.26 41.26 52.83 38.85 52.83 36.02C52.83 35.6 52.88 35.17 52.92 34.75L55.13 38.15V38.86C55.13 39.64 55.55 40.28 56.05 40.28M56.51 28.96C53.97 28.96 51.9 32.15 51.9 36.04C51.9 39.93 53.98 43.12 56.51 43.12C59.04 43.12 61.12 39.93 61.12 36.04C61.12 32.15 59.04 28.96 56.51 28.96Z" fill="white"/>
<path d="M58.01 3.34999C55.51 1.58999 49.51 0.379994 46.35 7.44999C44.66 11.24 43.4 16.07 41.96 18.47C40.76 20.48 38 19.95 38 19.95C38 19.95 40.58 21.3 42.22 19.97C43.19 19.19 43.48 18.76 43.88 17.97C43.88 17.97 43.33 19.36 42.08 20.81C41.46 21.53 41 22.4 40.9 23.35C40.89 23.48 40.88 23.61 40.88 23.75C43.14 21.37 43.86 23.95 47.42 19.41C48.41 19.3 49.74 19.22 50.8 19.44L51.44 16.25L55.13 16.62C55.13 16.62 53.03 14.56 54.19 11.2C55.32 7.93999 56.09 7.98999 57.03 7.59999C57.85 7.25999 59.18 6.30999 59.18 6.30999C59.19 6.28999 59.19 6.26999 59.2 6.24999V8.98999C59.2 8.98999 62.57 5.58999 58.03 3.32999L58.01 3.34999Z" fill="#3E2967"/>
</g>
<defs>
<clipPath id="clip0_1203_1266">
<rect width="32.98" height="105.89" fill="white" transform="translate(38 2)"/>
</clipPath>
</defs>
</svg>
