<svg width="110" height="110" viewBox="0 0 110 110" fill="none" xmlns="http://www.w3.org/2000/svg">
<g clip-path="url(#clip0_1203_1729)">
<path d="M58.47 15.65H53.86V19H58.47V15.65Z" fill="#FADDDC"/>
<path d="M61.3701 12.01H60.8101V9.45996C60.8101 9.04996 61.1401 8.70996 61.5601 8.70996H61.8601C62.2701 8.70996 62.6101 9.03996 62.6101 9.45996L62.2601 11.13C62.2601 11.62 61.8701 12.01 61.3801 12.01H61.3701Z" fill="#FADDDC"/>
<path d="M50.25 12.01H50.81V9.45996C50.81 9.04996 50.48 8.70996 50.06 8.70996H49.76C49.35 8.70996 49.01 9.03996 49.01 9.45996L49.36 11.13C49.36 11.62 49.75 12.01 50.24 12.01H50.25Z" fill="#FADDDC"/>
<path d="M42.1801 55.5C42.6601 57.11 41.7301 58.8 40.1201 59.27C38.8001 59.66 37.4201 59.11 36.7101 58.01C36.5601 57.77 36.4301 57.51 36.3501 57.22C36.1401 56.52 35.9701 55.83 35.8101 55.14L41.8901 54.42C41.9801 54.78 42.0801 55.14 42.1801 55.5Z" fill="#FADDDC"/>
<path d="M49.29 21.69C50.54 22.81 50.65 24.73 49.54 25.98C49.42 26.11 38.07 39.12 41.89 54.41L35.81 55.13C31.71 37.03 44.44 22.56 45.01 21.93C46.13 20.68 48.04 20.58 49.29 21.69Z" fill="#A4B2D3"/>
<path d="M68.85 52.14C68.74 53.71 69.92 55.07 71.48 55.18C71.55 55.18 71.62 55.18 71.69 55.18C73.17 55.18 74.42 54.04 74.52 52.54C74.56 52.05 74.58 51.56 74.6 51.08H68.9C68.88 51.43 68.87 51.77 68.85 52.13V52.14Z" fill="#FADDDC"/>
<path d="M62.22 21.53C60.85 20.77 59.14 21.26 58.37 22.62C57.6 23.98 58.09 25.71 59.45 26.49C59.97 26.79 69.93 31.3801 68.96 51.09H74.66C75.69 27.91 62.88 21.88 62.23 21.52L62.22 21.53Z" fill="#A4B2D3"/>
<path d="M68.33 53.09L44.08 53.19C44.08 53.19 47.1 73.36 51.8 103.02C51.91 103.72 50.2 101.28 49.66 101.77C49.02 102.35 49.51 104.05 50.08 104.96C50.08 104.96 53.7 107.52 54.5 107.69C55.3 107.86 56.07 107.22 55.49 105.27C55.33 104.73 55.38 103.78 55.71 103.38C55.95 103.09 56.95 103.45 56.94 103.05C56.75 96.95 54.78 67.17 55.65 67.17H57.23C58.1 67.17 58.9 67.91 59 68.94C59.17 70.75 59.17 75.12 58.53 85.01C58.53 85.01 58.68 89.19 58.93 90.19C59.29 91.61 60.74 91.4 61.24 90.35C61.67 89.44 62.11 85.73 62.19 85.01H63.63L68.34 53.1L68.33 53.09Z" fill="#3E2C6D"/>
<path d="M69.98 58.47H42.47L45.35 29.63C45.35 24.49 46.85 18.85 51.99 18.85H60.88C66.02 18.85 69.25 32.64 68.41 38.46L69.96 58.47H69.98Z" fill="#5280DD"/>
<path d="M49.2799 19.13C49.2799 19.13 40.6399 20.85 36.3199 33.95L44.4699 38.07L49.2799 19.12V19.13Z" fill="#5280DD"/>
<path d="M62.49 19.26C62.49 19.26 68.39 19.77 72.5 33.95L68.43 38.47C68.57 29.95 66.24 23.74 62.49 19.26Z" fill="#3070D6"/>
<path d="M62.68 23.0701C62.12 22.6501 61.68 22.0201 61.47 21.0401C61.36 22.6201 60.31 24.0301 60.07 24.4901C58.83 26.8401 53.94 29.5501 54.51 27.2901C55.07 25.0301 54.12 24.2801 54.12 24.2801C53.27 24.8301 53.06 26.1701 52.98 28.0301C51.04 25.5601 50.07 23.2801 49.8 20.2101C49.43 22.0501 49.51 22.3801 49.48 24.8001C48.2 20.3501 48.53 15.1601 49.23 9.50006C49.93 3.83006 52.26 4.77006 52.26 4.77006C52.26 4.77006 52.13 3.57006 54.68 3.08006C56.79 2.68006 59.68 3.80006 61.02 6.12006C61.85 7.21006 62.59 8.74006 62.59 10.6801C62.58 14.8501 62.32 22.5301 62.68 23.0701Z" fill="#3E2967"/>
<path d="M44.47 38.07L44.94 32.28L43.36 37.49L44.47 38.07Z" fill="#3070D6"/>
</g>
<defs>
<clipPath id="clip0_1203_1729">
<rect width="39.71" height="104.71" fill="white" transform="translate(35 3)"/>
</clipPath>
</defs>
</svg>
