<svg width="110" height="110" viewBox="0 0 110 110" fill="none" xmlns="http://www.w3.org/2000/svg">
<g clip-path="url(#clip0_1203_1336)">
<path d="M58.98 54.97L41.37 55.77L62.83 80.52L70.21 102.88L72.99 102.49L73.89 104.26C74.82 106.25 74.94 107.1 76.48 106.33L80.31 104.83C81.01 104.48 80.9 103.47 80.08 103.22C79.54 103.06 78.71 103.03 78.15 103C76.07 102.9 76.35 101.45 76.02 100.13C74.02 92.25 73.12 85.92 70.85 77.97C69.56 73.41 58.96 54.98 58.96 54.98L58.98 54.97Z" fill="#291B4C"/>
<path d="M58.1 56.51L42.93 56.05L39.55 78.16L27.01 95.86L29.34 97.72C29.06 98.22 28.57 99.04 28.1 99.36C27.41 99.82 26.51 100.69 27.32 101.72L32.28 105.57C33 105.88 33.77 104.82 33.41 104.02C33.17 103.49 32.35 102.31 32.08 101.81C31.53 100.76 32.19 99.97 32.91 98.83C37.24 92.04 47.35 81.65 47.35 81.65L58.09 56.51H58.1Z" fill="#3F3072"/>
<path d="M62.83 57.65L39.44 57.41L42.62 33.84C42.62 29.68 47.72 18.34 51.25 18.34H55.6C57.1 18.34 58.52 19.1 59.3 20.38C64.97 29.64 62.84 57.66 62.84 57.66L62.83 57.65Z" fill="#5280DD"/>
<path d="M49.66 6.33002H58.95V14.64C58.95 16.27 57.63 17.59 56 17.59H55.06C54.6 17.59 54.23 17.96 54.23 18.42V19.24C54.23 20.28 53.12 20.93 52.21 20.44L49.84 19.15L49.65 6.33002H49.66Z" fill="#FADDDC"/>
<path d="M58.66 14.79L59.2 14.64C59.68 14.5 59.97 14 59.83 13.52L59.09 10.88C59.03 10.68 58.82 10.56 58.62 10.62C58.42 10.68 58.3 10.89 58.36 11.09L59 13.38C59.08 13.65 58.92 13.94 58.64 14.02L58.45 14.07C58.25 14.13 58.13 14.34 58.19 14.54C58.25 14.74 58.46 14.86 58.66 14.8V14.79Z" fill="#E0B1BB"/>
<path d="M57.36 10.84C57.36 11.12 57.14 11.34 56.86 11.34C56.58 11.34 56.36 11.12 56.36 10.84C56.36 10.56 56.58 10.34 56.86 10.34C57.14 10.34 57.36 10.56 57.36 10.84Z" fill="#757570"/>
<path d="M52.44 10.58C52.44 10.105 52.0549 9.71997 51.58 9.71997C51.105 9.71997 50.72 10.105 50.72 10.58V12.45C50.72 12.9249 51.105 13.31 51.58 13.31C52.0549 13.31 52.44 12.9249 52.44 12.45V10.58Z" fill="#FADDDC"/>
<path d="M59.04 39.85C58.9 39.28 58.58 38.86 58.16 38.86H57.7V36.74C57.7 36.32 57.52 36.03 57.24 36.03H54.47V34.61H55.39C55.67 34.61 55.85 34.33 55.85 33.9V32.48H56.77C57.28 32.48 57.69 31.84 57.69 31.06V30.78C59.03 31.63 60 33.68 60 36.02C60 37.51 59.63 38.85 59.03 39.84M55.85 41.62C54.05 41.27 52.62 38.86 52.62 36.03C52.62 35.61 52.67 35.18 52.71 34.76L54.92 38.16V38.87C54.92 39.65 55.34 40.29 55.84 40.29M56.32 28.95C53.78 28.95 51.71 32.14 51.71 36.03C51.71 39.92 53.79 43.11 56.32 43.11C58.85 43.11 60.93 39.92 60.93 36.03C60.93 32.14 58.85 28.95 56.32 28.95Z" fill="white"/>
<path d="M57.8 3.34999C55.3 1.58999 49.3 0.379994 46.14 7.44999C44.45 11.24 43.19 16.07 41.75 18.47C40.55 20.48 37.79 19.95 37.79 19.95C37.79 19.95 40.37 21.3 42.01 19.97C42.98 19.19 43.27 18.76 43.67 17.97C43.67 17.97 43.12 19.36 41.87 20.81C41.25 21.53 40.79 22.4 40.69 23.35C40.68 23.48 40.67 23.61 40.67 23.75C42.93 21.37 43.65 23.95 47.21 19.41C48.2 19.3 49.53 19.22 50.59 19.44L51.23 16.25L54.92 16.62C54.92 16.62 52.82 14.56 53.98 11.2C55.11 7.93999 55.88 7.98999 56.82 7.59999C57.64 7.25999 58.97 6.30999 58.97 6.30999C58.98 6.28999 58.98 6.26999 58.99 6.24999V8.98999C58.99 8.98999 62.36 5.58999 57.82 3.32999L57.8 3.34999Z" fill="#3E2967"/>
<path d="M70.15 53.46C71.63 54.17 72.26 55.95 71.55 57.43C70.97 58.65 69.66 59.29 68.39 59.08C68.11 59.04 67.84 58.95 67.58 58.82C66.94 58.51 66.32 58.19 65.72 57.85L69.18 52.96C69.5 53.13 69.83 53.3 70.16 53.46H70.15Z" fill="#FADDDC"/>
<path d="M50.25 26.13C51.88 25.95 53.35 27.13 53.53 28.76C53.55 28.93 55.56 45.7 69.18 52.96L65.72 57.85C49.88 48.96 47.7 30.22 47.61 29.4C47.44 27.77 48.62 26.31 50.25 26.13Z" fill="#A4B2D3"/>
<path d="M47.73 21.31C47.73 21.31 44.71 25.66 45.98 30.71C47.25 35.76 48.95 40.3 48.95 40.3C48.95 40.3 58.17 37.09 58.33 36.84C58.49 36.59 54.95 22.23 54.95 22.23C54.95 22.23 50.04 19.65 47.73 21.3V21.31Z" fill="#5280DD"/>
</g>
<defs>
<clipPath id="clip0_1203_1336">
<rect width="53.78" height="104.6" fill="white" transform="translate(27 2)"/>
</clipPath>
</defs>
</svg>
