<svg width="40" height="107" viewBox="0 0 40 107" fill="none" xmlns="http://www.w3.org/2000/svg">
<g clip-path="url(#clip0_134_1835)">
<path d="M16.2401 18.3101H20.8501V14.9601H16.2401V18.3101Z" fill="#FADDDC"/>
<path d="M13.3401 11.32H13.9001V8.77002C13.9001 8.36002 13.5701 8.02002 13.1501 8.02002H12.8501C12.4401 8.02002 12.1001 8.35002 12.1001 8.77002L12.4501 10.44C12.4501 10.93 12.8401 11.32 13.3301 11.32H13.3401Z" fill="#FADDDC"/>
<path d="M24.4599 11.32H23.8999V8.77002C23.8999 8.36002 24.2299 8.02002 24.6499 8.02002H24.9499C25.3599 8.02002 25.6999 8.35002 25.6999 8.77002L25.3499 10.44C25.3499 10.93 24.9599 11.32 24.4699 11.32H24.4599Z" fill="#FADDDC"/>
<path d="M32.53 54.81C32.05 56.42 32.98 58.11 34.59 58.58C35.91 58.97 37.29 58.42 38 57.32C38.15 57.08 38.28 56.82 38.36 56.53C38.57 55.83 38.74 55.14 38.9 54.45L32.82 53.73C32.73 54.09 32.63 54.45 32.53 54.81Z" fill="#FADDDC"/>
<path d="M25.4199 21C24.1699 22.12 24.0599 24.04 25.1699 25.29C25.2899 25.42 36.6399 38.4301 32.8199 53.7201L38.8999 54.44C42.9999 36.34 30.2699 21.86 29.6999 21.23C28.5799 19.98 26.6699 19.88 25.4199 20.99V21Z" fill="#A4B2D3"/>
<path d="M5.86011 51.45C5.97011 53.02 4.79011 54.38 3.23011 54.49C3.16011 54.49 3.09011 54.49 3.02011 54.49C1.54011 54.49 0.290107 53.35 0.190107 51.85C0.150107 51.36 0.130107 50.87 0.110107 50.39H5.81011C5.83011 50.74 5.84011 51.08 5.86011 51.44V51.45Z" fill="#FADDDC"/>
<path d="M12.4899 20.84C13.8599 20.08 15.5699 20.57 16.3399 21.93C17.1099 23.29 16.6199 25.02 15.2599 25.8C14.7399 26.1 4.77988 30.69 5.74988 50.4H0.0598827C-0.970117 27.23 11.8399 21.2 12.4899 20.84Z" fill="#A4B2D3"/>
<path d="M4.52002 52.47H32.03L29.35 28.94C29.35 23.8 27.85 18.16 22.71 18.16H13.82C8.68002 18.16 5.45002 31.95 6.29002 37.77L4.53002 52.46L4.52002 52.47Z" fill="#5280DD"/>
<path d="M6.37988 52.4L30.6299 52.5C30.6299 52.5 23.7799 99.53 25.1599 98.95C25.8099 98.68 26.2199 98.55 26.7599 99.04C27.3999 99.62 26.9099 101.32 26.3399 102.23L20.5099 106.87C18.2099 106.34 18.5199 104.54 18.9699 103.16C19.2699 102.25 19.4499 101.29 19.4899 100.32C19.6799 94.22 20.6299 66.98 20.7899 62.45C20.8299 61.41 19.9499 60.29 19.0799 60.29H17.4999C16.6299 60.29 15.8799 61.04 15.7299 62.06C15.0399 66.71 15.9499 70.21 16.1999 84.32C16.1999 84.32 16.0499 88.5 15.7999 89.5C15.4399 90.92 13.9899 90.71 13.4899 89.66C13.0599 88.75 12.6199 85.04 12.5399 84.32H11.0999L6.38988 52.41L6.37988 52.4Z" fill="#3E2C6D"/>
<path d="M25.4299 18.4401C25.4299 18.4401 34.0699 20.1601 38.3899 33.2601L30.2399 37.3801L25.4299 18.4301V18.4401Z" fill="#5280DD"/>
<path d="M12.22 18.5699C12.22 18.5699 6.31996 19.0799 2.20996 33.2599L6.27996 37.7799C6.13996 29.2599 8.46996 23.0499 12.22 18.5699Z" fill="#3070D6"/>
<path d="M22.46 1.77C22.46 1.77 24.79 3.14 25.48 8.81C26.18 14.47 26.52 19.66 25.23 24.11C25.21 21.69 25.28 21.36 24.91 19.52C24.64 22.59 23.56 25.37 21.62 27.84C21.54 25.98 21.44 24.14 20.59 23.59C20.59 23.59 19.56 25.85 20.12 28.11C20.68 30.37 13.6 26.02 13.46 23.4C13.4 22.29 12.37 8.23 13.06 4.8C13.75 1.37 17.47 -0.409997 20.03 0.0800034C22.59 0.570003 22.46 1.77 22.46 1.77Z" fill="#3E2967"/>
<path d="M13.3 4.44995C13.3 4.44995 12.12 5.65995 12.12 9.99995C12.12 14.32 12.41 22.42 12 22.42C12.9 21.75 13.49 20.59 13.33 18.27L13.31 4.44995H13.3Z" fill="#3E2967"/>
<path d="M30.24 37.38L29.77 31.59L31.35 36.8L30.24 37.38Z" fill="#3070D6"/>
</g>
<defs>
<clipPath id="clip0_134_1835">
<rect width="39.71" height="106.88" fill="white"/>
</clipPath>
</defs>
</svg>
