<svg width="110" height="110" viewBox="0 0 110 110" fill="none" xmlns="http://www.w3.org/2000/svg">
<g clip-path="url(#clip0_1203_1565)">
<path d="M48.8 54.97L66.41 55.77L44.95 80.52L37.57 102.88L34.79 102.49L33.89 104.26C32.96 106.25 32.84 107.1 31.3 106.33L27.47 104.83C26.77 104.48 26.88 103.47 27.7 103.22C28.24 103.06 29.07 103.03 29.63 103C31.71 102.9 31.43 101.45 31.76 100.13C33.76 92.25 34.66 85.92 36.93 77.97C38.22 73.41 48.82 54.98 48.82 54.98L48.8 54.97Z" fill="#291B4C"/>
<path d="M49.68 56.51L64.85 56.05L68.23 78.16L80.77 95.86L78.44 97.72C78.72 98.22 79.21 99.04 79.68 99.36C80.37 99.82 81.27 100.69 80.46 101.72L75.5 105.57C74.78 105.88 74.01 104.82 74.37 104.02C74.61 103.49 75.43 102.31 75.7 101.81C76.25 100.76 75.59 99.97 74.87 98.83C70.54 92.04 60.43 81.65 60.43 81.65L49.69 56.51H49.68Z" fill="#3F3072"/>
<path d="M44.95 57.65L68.34 57.41L65.16 33.84C65.16 29.68 60.06 18.34 56.53 18.34H52.18C50.68 18.34 49.26 19.1 48.48 20.38C42.81 29.64 44.94 57.66 44.94 57.66L44.95 57.65Z" fill="#5280DD"/>
<path d="M58.12 6.33002H48.83V14.64C48.83 16.27 50.15 17.59 51.78 17.59H52.72C53.18 17.59 53.55 17.96 53.55 18.42V19.24C53.55 20.28 54.66 20.93 55.57 20.44L57.94 19.15L58.13 6.33002H58.12Z" fill="#FADDDC"/>
<path d="M49.12 14.79L48.58 14.64C48.1 14.5 47.81 14 47.95 13.52L48.69 10.88C48.75 10.68 48.96 10.56 49.16 10.62C49.36 10.68 49.48 10.89 49.42 11.09L48.78 13.38C48.7 13.65 48.86 13.94 49.14 14.02L49.33 14.07C49.53 14.13 49.65 14.34 49.59 14.54C49.53 14.74 49.32 14.86 49.12 14.8V14.79Z" fill="#E0B1BB"/>
<path d="M50.42 10.84C50.42 11.12 50.64 11.34 50.92 11.34C51.2 11.34 51.42 11.12 51.42 10.84C51.42 10.56 51.2 10.34 50.92 10.34C50.64 10.34 50.42 10.56 50.42 10.84Z" fill="#757570"/>
<path d="M55.3401 10.58C55.3401 10.105 55.7251 9.71997 56.2001 9.71997C56.675 9.71997 57.0601 10.105 57.0601 10.58V12.45C57.0601 12.9249 56.675 13.31 56.2001 13.31C55.7251 13.31 55.3401 12.9249 55.3401 12.45V10.58Z" fill="#FADDDC"/>
<path d="M48.74 39.85C48.88 39.28 49.2 38.86 49.62 38.86H50.08V36.74C50.08 36.32 50.26 36.03 50.54 36.03H53.31V34.61H52.39C52.11 34.61 51.93 34.33 51.93 33.9V32.48H51.01C50.5 32.48 50.09 31.84 50.09 31.06V30.78C48.75 31.63 47.78 33.68 47.78 36.02C47.78 37.51 48.15 38.85 48.75 39.84M51.93 41.62C53.73 41.27 55.16 38.86 55.16 36.03C55.16 35.61 55.11 35.18 55.07 34.76L52.86 38.16V38.87C52.86 39.65 52.44 40.29 51.94 40.29M51.46 28.95C54 28.95 56.07 32.14 56.07 36.03C56.07 39.92 53.99 43.11 51.46 43.11C48.93 43.11 46.85 39.92 46.85 36.03C46.85 32.14 48.93 28.95 51.46 28.95Z" fill="white"/>
<path d="M49.9801 3.34999C52.4801 1.58999 58.4801 0.379994 61.6401 7.44999C63.3301 11.24 64.5901 16.07 66.0301 18.47C67.2301 20.48 69.9901 19.95 69.9901 19.95C69.9901 19.95 67.4101 21.3 65.7701 19.97C64.8001 19.19 64.5101 18.76 64.1101 17.97C64.1101 17.97 64.6601 19.36 65.9101 20.81C66.5301 21.53 66.9901 22.4 67.0901 23.35C67.1001 23.48 67.1101 23.61 67.1101 23.75C64.8501 21.37 64.1301 23.95 60.5701 19.41C59.5801 19.3 58.2501 19.22 57.1901 19.44L56.5501 16.25L52.8601 16.62C52.8601 16.62 54.9601 14.56 53.8001 11.2C52.6701 7.93999 51.9001 7.98999 50.9601 7.59999C50.1401 7.25999 48.8101 6.30999 48.8101 6.30999C48.8001 6.28999 48.8001 6.26999 48.7901 6.24999V8.98999C48.7901 8.98999 45.4201 5.58999 49.9601 3.32999L49.9801 3.34999Z" fill="#3E2967"/>
<path d="M37.6301 53.46C36.1501 54.17 35.5201 55.95 36.2301 57.43C36.8101 58.65 38.1201 59.29 39.3901 59.08C39.6701 59.04 39.9401 58.95 40.2001 58.82C40.8401 58.51 41.4601 58.19 42.0601 57.85L38.6001 52.96C38.2801 53.13 37.9501 53.3 37.6201 53.46H37.6301Z" fill="#FADDDC"/>
<path d="M57.5301 26.13C55.9001 25.95 54.4301 27.13 54.2501 28.76C54.2301 28.93 52.2201 45.7 38.6001 52.96L42.0601 57.85C57.9001 48.96 60.0801 30.22 60.1701 29.4C60.3401 27.77 59.1601 26.31 57.5301 26.13Z" fill="#A4B2D3"/>
<path d="M60.05 21.31C60.05 21.31 63.07 25.66 61.8 30.71C60.53 35.76 58.83 40.3 58.83 40.3C58.83 40.3 49.61 37.09 49.45 36.84C49.29 36.59 52.83 22.23 52.83 22.23C52.83 22.23 57.74 19.65 60.05 21.3V21.31Z" fill="#5280DD"/>
</g>
<defs>
<clipPath id="clip0_1203_1565">
<rect width="53.78" height="104.6" fill="white" transform="matrix(-1 0 0 1 80.78 2)"/>
</clipPath>
</defs>
</svg>
