<svg width="110" height="110" viewBox="0 0 110 110" fill="none" xmlns="http://www.w3.org/2000/svg">
<g clip-path="url(#clip0_1203_1035)">
<path d="M58.1 56.51L46.13 56.05L39.54 78.16L27.01 95.86L29.34 97.72C29.06 98.22 28.57 99.04 28.1 99.36C27.41 99.82 26.51 100.69 27.32 101.72L32.28 105.57C33 105.88 33.77 104.82 33.41 104.02C33.17 103.49 32.35 102.31 32.08 101.81C31.53 100.76 32.19 99.97 32.91 98.83C37.24 92.04 47.35 81.65 47.35 81.65L58.09 56.51H58.1Z" fill="#291B4C"/>
<path d="M58.98 54.97L41.37 55.77L62.83 80.52L70.21 102.88L72.99 102.49L73.89 104.26C74.82 106.25 74.94 107.1 76.48 106.33L80.31 104.83C81.01 104.48 80.9 103.47 80.08 103.22C79.54 103.06 78.71 103.03 78.15 103C76.07 102.9 76.35 101.45 76.02 100.13C74.02 92.25 73.12 85.92 70.85 77.97C69.56 73.41 58.96 54.98 58.96 54.98L58.98 54.97Z" fill="#3F3072"/>
<path d="M81.66 42.5C83.25 42.91 84.21 44.53 83.8 46.12C83.46 47.43 82.31 48.31 81.03 48.35C80.75 48.35 80.47 48.33 80.18 48.26C79.49 48.08 78.82 47.88 78.16 47.67L80.6 42.2C80.95 42.31 81.3 42.41 81.66 42.5Z" fill="#FADDDC"/>
<path d="M56.83 19.55C58.4 19.06 60.06 19.93 60.56 21.5C60.61 21.67 65.84 37.73 80.61 42.2L78.17 47.67C60.9 42.02 55.13 24.06 54.89 23.27C54.4 21.7 55.28 20.04 56.84 19.55H56.83Z" fill="#A4B2D3"/>
<path d="M59.8 20.37L67.29 31.73L60.45 39.1L57.13 26.87L59.8 20.37Z" fill="#5280DD"/>
<path d="M63.34 57.65L39.95 57.41L43.13 33.84C43.13 29.68 48.23 18.34 51.76 18.34H56.11C57.61 18.34 59.03 19.1 59.81 20.38C65.48 29.64 63.35 57.66 63.35 57.66L63.34 57.65Z" fill="#5280DD"/>
<path d="M37.09 54.69C37.31 56.32 36.16 57.81 34.53 58.03C33.19 58.21 31.94 57.47 31.42 56.29C31.31 56.04 31.23 55.76 31.19 55.47C31.1 54.76 31.03 54.07 30.98 53.38L36.96 53.6C36.99 53.96 37.03 54.33 37.08 54.69H37.09Z" fill="#FADDDC"/>
<path d="M49.09 23.08C50.13 24.35 49.94 26.22 48.68 27.26C48.55 27.37 35.6 38.22 36.98 53.59L31 53.37C29.78 35.25 44.28 23.18 44.92 22.65C46.19 21.61 48.06 21.8 49.1 23.07L49.09 23.08Z" fill="#A4B2D3"/>
<path d="M51.75 18.34C51.75 18.34 46.45 18.19 42.92 22.02C39.39 25.85 36.51 29.75 36.51 29.75C36.51 29.75 44.24 35.71 44.54 35.71C44.84 35.71 54.92 24.89 54.92 24.89C54.92 24.89 54.39 19.37 51.75 18.34Z" fill="#5280DD"/>
<path d="M50.17 6.33002H59.46V14.64C59.46 16.27 58.14 17.59 56.51 17.59H55.57C55.11 17.59 54.74 17.96 54.74 18.42V19.24C54.74 20.28 53.63 20.93 52.72 20.44L50.35 19.15L50.16 6.33002H50.17Z" fill="#FADDDC"/>
<path d="M59.18 14.79L59.72 14.64C60.2 14.5 60.49 14 60.35 13.52L59.61 10.88C59.55 10.68 59.34 10.56 59.14 10.62C58.94 10.68 58.82 10.89 58.88 11.09L59.52 13.38C59.6 13.65 59.44 13.94 59.16 14.02L58.97 14.07C58.77 14.13 58.65 14.34 58.71 14.54C58.77 14.74 58.98 14.86 59.18 14.8V14.79Z" fill="#E0B1BB"/>
<path d="M57.87 10.84C57.87 11.12 57.65 11.34 57.37 11.34C57.09 11.34 56.87 11.12 56.87 10.84C56.87 10.56 57.09 10.34 57.37 10.34C57.65 10.34 57.87 10.56 57.87 10.84Z" fill="#757570"/>
<path d="M52.96 10.58C52.96 10.105 52.575 9.71997 52.1 9.71997C51.625 9.71997 51.24 10.105 51.24 10.58V12.45C51.24 12.9249 51.625 13.31 52.1 13.31C52.575 13.31 52.96 12.9249 52.96 12.45V10.58Z" fill="#FADDDC"/>
<path d="M59.55 39.85C59.41 39.28 59.09 38.86 58.67 38.86H58.21V36.74C58.21 36.32 58.03 36.03 57.75 36.03H54.98V34.61H55.9C56.18 34.61 56.36 34.33 56.36 33.9V32.48H57.28C57.79 32.48 58.2 31.84 58.2 31.06V30.78C59.54 31.63 60.51 33.68 60.51 36.02C60.51 37.51 60.14 38.85 59.54 39.84M56.36 41.61C54.56 41.26 53.13 38.85 53.13 36.02C53.13 35.6 53.18 35.17 53.22 34.75L55.43 38.15V38.86C55.43 39.64 55.85 40.28 56.35 40.28M56.81 28.96C54.27 28.96 52.2 32.15 52.2 36.04C52.2 39.93 54.28 43.12 56.81 43.12C59.34 43.12 61.42 39.93 61.42 36.04C61.42 32.15 59.34 28.96 56.81 28.96Z" fill="white"/>
<path d="M58.31 3.34999C55.81 1.58999 49.81 0.379994 46.65 7.44999C44.96 11.24 43.7 16.07 42.26 18.47C41.06 20.48 38.3 19.95 38.3 19.95C38.3 19.95 40.88 21.3 42.52 19.97C43.49 19.19 43.78 18.76 44.18 17.97C44.18 17.97 43.63 19.36 42.38 20.81C41.76 21.53 41.3 22.4 41.2 23.35C41.19 23.48 41.18 23.61 41.18 23.75C43.44 21.37 44.6 19.9 47.72 19.41C48.71 19.3 50.04 19.22 51.1 19.44L51.74 16.25L55.43 16.62C55.43 16.62 53.33 14.56 54.49 11.2C55.62 7.93999 56.39 7.98999 57.33 7.59999C58.15 7.25999 59.48 6.30999 59.48 6.30999C59.49 6.28999 59.49 6.26999 59.5 6.24999V8.98999C59.5 8.98999 62.87 5.58999 58.33 3.32999L58.31 3.34999Z" fill="#3E2967"/>
</g>
<defs>
<clipPath id="clip0_1203_1035">
<rect width="56.9" height="104.6" fill="white" transform="translate(27 2)"/>
</clipPath>
</defs>
</svg>
