<svg width="110" height="110" viewBox="0 0 110 110" fill="none" xmlns="http://www.w3.org/2000/svg">
<g clip-path="url(#clip0_1203_2014)">
<path d="M52.2401 19H56.8501V15.65H52.2401V19Z" fill="#FADDDC"/>
<path d="M49.3401 12.01H49.9001V9.45996C49.9001 9.04996 49.5701 8.70996 49.1501 8.70996H48.8501C48.4401 8.70996 48.1001 9.03996 48.1001 9.45996L48.4501 11.13C48.4501 11.62 48.8401 12.01 49.3301 12.01H49.3401Z" fill="#FADDDC"/>
<path d="M60.4599 12.01H59.8999V9.45996C59.8999 9.04996 60.2299 8.70996 60.6499 8.70996H60.9499C61.3599 8.70996 61.6999 9.03996 61.6999 9.45996L61.3499 11.13C61.3499 11.62 60.9599 12.01 60.4699 12.01H60.4599Z" fill="#FADDDC"/>
<path d="M68.53 55.5C68.05 57.11 68.98 58.8 70.59 59.27C71.91 59.66 73.29 59.11 74 58.01C74.15 57.77 74.28 57.51 74.36 57.22C74.57 56.52 74.74 55.83 74.9 55.14L68.82 54.42C68.73 54.78 68.63 55.14 68.53 55.5Z" fill="#FADDDC"/>
<path d="M61.4199 21.69C60.1699 22.81 60.0599 24.73 61.1699 25.98C61.2899 26.11 72.6399 39.12 68.8199 54.41L74.8999 55.13C78.9999 37.03 66.2699 22.55 65.6999 21.92C64.5799 20.67 62.6699 20.57 61.4199 21.68V21.69Z" fill="#A4B2D3"/>
<path d="M41.8601 52.14C41.9701 53.71 40.7901 55.07 39.2301 55.18C39.1601 55.18 39.0901 55.18 39.0201 55.18C37.5401 55.18 36.2901 54.04 36.1901 52.54C36.1501 52.05 36.1301 51.56 36.1101 51.08H41.8101C41.8301 51.43 41.8401 51.77 41.8601 52.13V52.14Z" fill="#FADDDC"/>
<path d="M48.4899 21.53C49.8599 20.77 51.5699 21.26 52.3399 22.62C53.1099 23.98 52.6199 25.71 51.2599 26.49C50.7399 26.79 40.7799 31.3801 41.7499 51.09H36.0599C35.0299 27.92 47.8399 21.89 48.4899 21.53Z" fill="#A4B2D3"/>
<path d="M42.3801 53.09L66.6301 53.19C66.6301 53.19 63.6101 73.36 58.9101 103.02C58.8001 103.72 60.5101 101.28 61.0501 101.77C61.6901 102.35 61.2001 104.05 60.6301 104.96C60.6301 104.96 57.0101 107.52 56.2101 107.69C55.4101 107.86 54.6401 107.22 55.2201 105.27C55.3801 104.73 55.3301 103.78 55.0001 103.38C54.7601 103.09 53.7601 103.45 53.7701 103.05C53.9601 96.95 55.9301 67.17 55.0601 67.17H53.4801C52.6101 67.17 51.8101 67.91 51.7101 68.94C51.5401 70.75 51.5401 75.12 52.1801 85.01C52.1801 85.01 52.0301 89.19 51.7801 90.19C51.4201 91.61 49.9701 91.4 49.4701 90.35C49.0401 89.44 48.6001 85.73 48.5201 85.01H47.0801L42.3701 53.1L42.3801 53.09Z" fill="#3E2C6D"/>
<path d="M40.73 58.47H68.24L65.36 29.63C65.36 24.49 63.86 18.85 58.72 18.85H49.83C44.69 18.85 41.46 32.64 42.3 38.46L40.75 58.47H40.73Z" fill="#5280DD"/>
<path d="M61.4299 19.13C61.4299 19.13 70.0699 20.85 74.3899 33.95L66.2399 38.07L61.4299 19.12V19.13Z" fill="#5280DD"/>
<path d="M48.22 19.26C48.22 19.26 42.32 19.77 38.21 33.95L42.28 38.47C42.14 29.95 44.47 23.74 48.22 19.26Z" fill="#3070D6"/>
<path d="M48.03 23.0701C48.59 22.6501 49.03 22.0201 49.24 21.0401C49.35 22.6201 50.4 24.0301 50.64 24.4901C51.88 26.8401 56.77 29.5501 56.2 27.2901C55.64 25.0301 56.59 24.2801 56.59 24.2801C57.44 24.8301 57.65 26.1701 57.73 28.0301C59.67 25.5601 60.64 23.2801 60.91 20.2101C61.28 22.0501 61.2 22.3801 61.23 24.8001C62.51 20.3501 62.18 15.1601 61.48 9.50006C60.78 3.83006 58.45 4.77006 58.45 4.77006C58.45 4.77006 58.58 3.57006 56.03 3.08006C53.92 2.68006 51.03 3.80006 49.69 6.12006C48.86 7.21006 48.12 8.74006 48.12 10.6801C48.13 14.8501 48.39 22.5301 48.03 23.0701Z" fill="#3E2967"/>
<path d="M66.24 38.07L65.77 32.28L67.35 37.49L66.24 38.07Z" fill="#3070D6"/>
</g>
<defs>
<clipPath id="clip0_1203_2014">
<rect width="39.71" height="104.71" fill="white" transform="translate(36 3)"/>
</clipPath>
</defs>
</svg>
