
    <svg
        width="62"
        height="101"
        viewBox="0 0 62 101"
        fill="none"
        xmlns="http://www.w3.org/2000/svg"
    >
        <g clip-path="url(#clip0_8_17)">
            <path
                d="M53.07 54.9C53.07 53.2 53 51.26 52.71 49.35H27.41V94.28C27.41 95.06 27.21 95.83 26.84 96.51L26.77 96.64C26.39 97.33 25.81 97.88 25.1 98.21L23.68 98.87C23.42 98.99 23.25 99.25 23.25 99.54C23.25 99.95 23.58 100.28 23.99 100.28H27.73C28.9 100.28 29.87 99.39 29.98 98.23L30.08 97.23C30.19 96.05 30.35 94.88 30.57 93.72L33.87 74.43L36.49 59.14C36.75 57.62 38.06 56.51 39.6 56.51C41.14 56.51 42.42 57.59 42.7 59.07L45.64 74.43L49.58 94.98C49.76 95.83 49.55 96.71 49 97.38C48.57 97.9 47.97 98.26 47.31 98.37L46.67 98.48C46.26 98.55 45.96 98.9 45.96 99.32C45.96 99.79 46.34 100.17 46.81 100.17H50.52C51.55 100.17 52.39 99.33 52.38 98.29L52.35 94.64L52.71 74.42L53.06 54.88L53.07 54.9Z"
                fill="#3E2967"
            />
            <path
                d="M4.97998 12.2799C3.75998 11.1699 1.87998 11.2599 0.779982 12.4799C-0.130018 13.4799 -0.230018 14.9299 0.439982 16.0199C0.579982 16.2599 0.769982 16.4799 0.979982 16.6799C1.50998 17.1599 2.03998 17.6099 2.57998 18.0399L5.80998 12.9999C5.52998 12.7699 5.24998 12.5299 4.97998 12.2799Z"
                fill="#FADDDC"
            />
            <path
                d="M37.79 20.43C37.34 18.85 35.7 17.94 34.12 18.38C33.95 18.43 17.66 22.88 5.80996 12.99L2.57996 18.03C16.78 29.36 34.96 24.32 35.76 24.1C37.34 23.65 38.25 22 37.8 20.43H37.79Z"
                fill="#A4B2D3"
            />
            <path
                d="M55.72 51.95C55.6 53.59 56.84 55.01 58.47 55.13C58.54 55.13 58.61 55.13 58.68 55.13C60.23 55.13 61.53 53.93 61.64 52.37C61.68 51.86 61.7 51.35 61.73 50.85H55.77C55.75 51.22 55.74 51.57 55.71 51.95H55.72Z"
                fill="#FADDDC"
            />
            <path
                d="M46.5399 17.2701C45.1099 16.4801 43.3099 16.9901 42.5099 18.4201C41.7099 19.8501 42.2099 21.6601 43.6399 22.4701C44.1899 22.7801 56.7999 30.2401 55.7899 50.8601H61.7499C62.8199 26.6201 47.2199 17.6501 46.5499 17.2801L46.5399 17.2701Z"
                fill="#A4B2D3"
            />
            <path
                d="M24.13 53.58H54.81L50.67 23.88C49.86 19.46 47.72 16 43.13 16.34H33.53C30.27 16.34 27.84 19.02 27.4 23.88L24.12 53.58H24.13Z"
                fill="#5280DD"
            />
            <path
                d="M44.15 17.83C45.27 16.63 47.14 16.56 48.35 17.67C48.7 17.99 54.56 21.5 58.01 28.52L51.43 32.89C48.41 26.39 44.37 22.1 44.3 22.03C43.1 20.91 43.03 19.03 44.15 17.83Z"
                fill="#5280DD"
            />
            <path
                d="M32.54 16.4C34.27 16.31 34.91 17.7 35.27 19.09C35.68 20.68 32.73 26.03 31.22 26.67C30.38 27.02 27.63 26.96 21.09 26.9L21.87 17.93C27.28 17.92 29.75 16.55 32.54 16.4Z"
                fill="#5280DD"
            />
            <path d="M37.76 13.28H32.35V16.41H37.76V13.28Z" fill="#3E2967" />
            <path
                d="M41.63 2.87H32.16V11.69C32.16 13.35 33.51 14.7 35.17 14.7H36.13C36.6 14.7 36.97 15.08 36.97 15.54V16.68C36.97 17.96 38.01 18.99 39.28 18.99C40.56 18.99 41.59 17.96 41.59 16.68L41.62 2.87H41.63Z"
                fill="#FADDDC"
            />
            <path
                d="M35.22 11.97H34.65C34.14 11.97 33.72 11.55 33.72 11.04V8.23998C33.72 8.02998 33.89 7.84998 34.11 7.84998C34.33 7.84998 34.5 8.01998 34.5 8.23998V10.67C34.5 10.96 34.74 11.2 35.03 11.2H35.23C35.44 11.2 35.62 11.37 35.62 11.59C35.62 11.81 35.45 11.98 35.23 11.98L35.22 11.97Z"
                fill="#E0B1BB"
            />
            <path
                d="M36.13 8.36005C36.13 8.67005 36.38 8.92005 36.69 8.92005C37 8.92005 37.25 8.67005 37.25 8.36005C37.25 8.05005 37 7.80005 36.69 7.80005C36.38 7.80005 36.13 8.05005 36.13 8.36005Z"
                fill="#757570"
            />
            <path
                d="M38.05 5.26999C38.57 6.04999 39.32 7.21999 39.62 8.91999C40.3 12.83 37.82 13.92 37.82 13.92L40.93 14.17L40.67 21.59C42.61 21.59 48.7 23.36 44.94 10.46L43.42 4.19999C42.82 1.72999 40.61 -0.0100098 38.07 -0.0100098H35.3C34.66 -0.0100098 34.1 0.44999 33.98 1.07999C32.57 1.07999 31.51 2.20999 31.25 3.54999C30.58 7.03999 31.05 11.81 31.05 11.81C31.18 13.96 30.24 13.98 30.24 13.98C30.24 13.98 31.52 14.04 31.86 14.04H33.16C33.16 14.04 32.2 13.13 32.19 11.83C32.19 11.17 32.19 9.55999 32.19 8.12999C32.19 6.46999 33.02 3.95999 34.4 3.03999C34.4 3.03999 36.56 3.00999 38.05 5.25999V5.26999Z"
                fill="#3E2967"
            />
            <path
                d="M43.2901 39.06C43.0801 38.49 42.5801 38.07 41.9501 38.07H41.2401V35.95C41.2401 35.53 40.9601 35.24 40.5301 35.24H36.2801V33.82H37.7001C38.1201 33.82 38.4101 33.54 38.4101 33.11V31.69H39.8301C40.6101 31.69 41.2501 31.05 41.2501 30.27V29.99C43.3001 30.84 44.7901 32.89 44.7901 35.23C44.7901 36.72 44.2201 38.06 43.3001 39.05M38.4201 40.82C35.6601 40.47 33.4701 38.06 33.4701 35.23C33.4701 34.81 33.5401 34.38 33.6101 33.96L37.0101 37.36V38.07C37.0101 38.85 37.6501 39.49 38.4301 39.49M39.1401 28.17C35.2501 28.17 32.0601 31.36 32.0601 35.25C32.0601 39.14 35.2501 42.33 39.1401 42.33C43.0301 42.33 46.2201 39.14 46.2201 35.25C46.2201 31.36 43.0301 28.17 39.1401 28.17Z"
                fill="white"
            />
        </g>
        <defs>
            <clipPath id="clip0_8_17">
                <rect width="61.8" height="100.29" fill="white" />
            </clipPath>
        </defs>
    </svg>

