<svg
    width="57"
    height="107"
    viewBox="0 0 57 107"
    fill="none"
    xmlns="http://www.w3.org/2000/svg"
>
    <g clip-path="url(#clip0_9_668)">
        <path
            d="M54.4499 41.62C56.0599 41.97 57.0699 43.55 56.7299 45.16C56.4399 46.48 55.3199 47.4 54.0399 47.5C53.7599 47.52 53.4799 47.5 53.1899 47.44C52.4899 47.29 51.8199 47.12 51.1499 46.93L53.3799 41.37C53.7299 41.46 54.0899 41.55 54.4499 41.63V41.62Z"
            fill="#FADDDC"
        />
        <path
            d="M28.7599 19.64C30.3099 19.09 32.0099 19.9 32.5599 21.44C32.6199 21.6 38.4499 37.45 53.3799 41.36L51.1499 46.92C33.6799 41.93 27.2299 24.2 26.9599 23.42C26.4099 21.87 27.2199 20.18 28.7699 19.63L28.7599 19.64Z"
            fill="#E5E1DC"
        />
        <path
            d="M29.51 53.52H17.53L11.82 75.88L0 94.07L2.4 95.84C2.14 96.36 1.69 97.19 1.23 97.52C0.55 98.01 -0.31 98.91 0.54 99.91L5.65 103.56C6.38 103.84 7.11 102.75 6.71 101.97C6.45 101.45 5.58 100.31 5.3 99.81C4.71 98.78 5.33 97.97 6.01 96.8C10.07 89.85 19.76 79.06 19.76 79.06L29.5 53.52H29.51Z"
            fill="#291B4C"
        />
        <path
            d="M33.0401 53.52H18.05L32.34 79.12L37.5 102.09L40.3 101.97L41.03 103.82C41.76 105.89 41.8 106.75 43.41 106.13L47.37 105.01C48.1 104.73 48.09 103.71 47.3 103.39C46.78 103.17 45.9501 103.07 45.4001 102.99C43.3401 102.69 43.7601 101.27 43.5601 99.92C42.3401 91.88 42.0601 85.5 40.5801 77.36C39.7401 72.7 33.0401 53.52 33.0401 53.52Z"
            fill="#3E2C6D"
        />
        <path
            d="M35.7501 53.57H17.2801C13.5501 53.57 13.7401 50.27 13.8301 49.31L17.9801 25.58C17.9801 21.42 20.3901 18.04 23.9201 18.04H28.2701C29.7701 18.04 31.1901 18.8 31.9701 20.08C37.6401 29.34 35.7501 53.57 35.7501 53.57Z"
            fill="white"
        />
        <path
            d="M7.5501 50.08C7.5201 51.72 6.1701 53.03 4.5301 53.01C3.1801 52.99 2.0601 52.07 1.7101 50.83C1.6401 50.56 1.6001 50.28 1.6001 49.98C1.6101 49.27 1.6501 48.57 1.7001 47.88L7.5901 48.98C7.5701 49.34 7.5501 49.71 7.5501 50.08Z"
            fill="#FADDDC"
        />
        <path
            d="M24.0599 20.58C24.9 21.99 24.44 23.81 23.04 24.66C22.89 24.75 8.48995 33.58 7.58995 48.99L1.69995 47.89C3.15995 29.78 19.28 19.98 19.99 19.55C21.4 18.71 23.2199 19.17 24.0599 20.58Z"
            fill="white"
        />
        <path
            d="M22.22 18.3201C22.83 18.0101 23.52 17.9101 24.32 18.0501L29.23 18.1401C29.23 18.1401 29.82 18.1601 31.02 18.9901C31.22 19.1301 31.21 19.8701 31.16 20.5801C31.12 21.1401 30.45 21.4101 30.03 21.0301L28.43 19.6001L27.84 21.5501C27.7 22.0101 27.15 22.1801 26.77 21.8901L22.22 18.3101V18.3201Z"
            fill="#E5E1DC"
        />
        <path
            d="M24.1101 3.70996H34.5001V13.01C34.5001 14.83 33.0201 16.31 31.2001 16.31H30.1501C29.6401 16.31 29.2201 16.72 29.2201 17.24V18.15C29.2201 19.31 27.9801 20.04 26.9601 19.49L24.3101 18.05L24.1001 3.70996H24.1101Z"
            fill="#FADDDC"
        />
        <path
            d="M33.82 13.44L34.42 13.27C34.96 13.12 35.28 12.55 35.13 12.01L34.3 9.05004C34.24 8.82004 34 8.69004 33.78 8.76004C33.56 8.83004 33.42 9.06004 33.49 9.28004L34.21 11.84C34.3 12.15 34.12 12.47 33.81 12.55L33.6 12.61C33.37 12.67 33.24 12.91 33.31 13.13C33.38 13.35 33.61 13.49 33.83 13.42L33.82 13.44Z"
            fill="#E0B1BB"
        />
        <path
            d="M32.36 9.00995C32.36 9.31995 32.11 9.56995 31.8 9.56995C31.49 9.56995 31.24 9.31995 31.24 9.00995C31.24 8.69995 31.49 8.44995 31.8 8.44995C32.11 8.44995 32.36 8.69995 32.36 9.00995Z"
            fill="#757570"
        />
        <path
            d="M20.8799 6.06002C21.2299 3.93002 23.2399 3.09002 24.3199 2.05002C25.6899 0.73002 26.7499 -0.139979 29.7299 0.0200205C30.7499 0.0700205 31.2399 0.76002 31.3599 0.76002C34.7199 0.76002 35.9499 3.47002 35.9299 5.10002C35.9099 7.33002 34.7499 7.94002 34.7499 7.94002C34.7499 7.94002 34.6999 7.94002 34.6899 7.94002C33.6999 7.94002 34.2899 3.98002 33.6699 3.98002C33.0499 3.98002 33.3699 8.00002 28.6399 8.00002C28.2799 8.00002 27.9999 8.29002 27.9999 8.64002V9.79002C27.9999 10 27.8299 10.17 27.6099 10.17C27.3899 10.17 27.2199 10 27.2199 9.79002C27.2199 9.58002 25.8799 11.94 24.7799 13.95C24.5999 14.28 24.2899 14.22 24.2899 14.22C23.9499 13.7 23.0099 11.65 22.0799 9.36002C21.6399 8.29002 20.6399 7.57002 20.8899 6.06002H20.8799Z"
            fill="#3E2967"
        />
        <path
            d="M27.2301 9.13004C27.2301 8.59985 26.8003 8.17004 26.2701 8.17004C25.7399 8.17004 25.3101 8.59985 25.3101 9.13004V11.22C25.3101 11.7502 25.7399 12.18 26.2701 12.18C26.8003 12.18 27.2301 11.7502 27.2301 11.22V9.13004Z"
            fill="#FADDDC"
        />
        <path
            d="M26.9401 36.95L24.6701 37.06C23.7801 37.1 23.0101 36.24 22.9501 35.14L22.6201 29.04L28.1201 28.77L28.4501 34.87C28.5101 35.98 27.8401 36.91 26.9401 36.95Z"
            fill="#E5E1DC"
        />
        <path
            d="M31.1899 50.5601L30.6899 50.5401C31.5599 31.2001 29.8199 24.24 28.6999 21.82C28.6099 21.63 28.5199 21.43 28.7199 21.3L28.8599 21.51L29.0999 21.48C29.0999 21.48 29.1299 21.5501 29.1599 21.6201C30.2999 24.0801 32.0699 31.12 31.1999 50.57L31.1899 50.5601Z"
            fill="#E5E1DC"
        />
    </g>
    <defs>
        <clipPath id="clip0_9_668">
            <rect width="56.79" height="106.33" fill="white" />
        </clipPath>
    </defs>
</svg>
