<svg width="46" height="105" viewBox="0 0 46 105" fill="none" xmlns="http://www.w3.org/2000/svg">
<g clip-path="url(#clip0_134_1022)">
<path d="M18.5801 3.42003H26.1801C27.2401 3.42003 28.1001 4.28003 28.1001 5.34003V12.82C28.1001 14.49 26.7501 15.84 25.0801 15.84H24.1201C23.6501 15.84 23.2701 16.22 23.2701 16.69V17.67H18.6201L18.5801 3.41003V3.42003Z" fill="#FADDDC"/>
<path d="M25.0201 13.1H25.5901C26.1101 13.1 26.5201 12.68 26.5201 12.17V9.35997C26.5201 9.13997 26.3501 8.96997 26.1301 8.96997C25.9101 8.96997 25.7401 9.13997 25.7401 9.35997V11.8C25.7401 12.09 25.5001 12.33 25.2101 12.33H25.0101C24.7901 12.33 24.6201 12.5 24.6201 12.72C24.6201 12.94 24.7901 13.11 25.0101 13.11L25.0201 13.1Z" fill="#E0B1BB"/>
<path d="M17.5899 10.7H19.1699V7.34995H17.5899V10.7Z" fill="#FADDDC"/>
<path d="M29.5299 4.76994C29.5299 3.11994 28.5199 0.139943 24.6499 0.139943C24.5299 0.139943 24.4199 0.159943 24.2999 0.139943C19.9399 -0.550057 17.4199 1.30994 16.3099 4.00994C15.7499 4.38994 15.3899 5.02994 15.3899 5.74994C15.3899 6.46994 15.7799 7.14994 16.3699 7.51994C16.7299 8.44994 16.9199 9.37994 17.4399 10.1899C17.4399 10.1899 17.4599 11.0699 17.4599 11.6699C17.4599 12.5799 18.6099 12.5799 18.6099 12.5799V10.5399C17.9299 10.2899 17.7599 9.70994 17.7599 8.80994C17.7599 7.90994 18.5599 7.90994 18.5599 7.90994V8.97994C18.5599 9.29994 18.8199 9.55994 19.1399 9.55994C19.4599 9.55994 19.7199 9.29994 19.7199 8.97994V8.04994C19.7199 7.88994 19.8699 7.87994 20.0199 7.87994C25.8799 7.87994 25.2899 3.86994 25.9199 3.86994C26.5499 3.86994 26.3999 6.75994 28.0799 6.75994C28.0999 6.75994 28.1099 7.64994 28.1099 7.64994C28.1099 7.64994 29.5299 7.10994 29.5299 4.76994Z" fill="#3E2967"/>
<path d="M22.3001 9.23997C22.3101 9.54997 22.5701 9.78997 22.8801 9.77997C23.1901 9.76997 23.4301 9.50997 23.4201 9.19997C23.4101 8.88997 23.1501 8.64997 22.8401 8.65997C22.5301 8.66997 22.2901 8.92997 22.3001 9.23997Z" fill="#757570"/>
<path d="M36.3599 52.74H6.88989L6.89989 26.55C6.89989 21.63 10.8899 17.65 15.7999 17.65H27.4699C32.3899 17.65 36.3699 21.64 36.3699 26.55L36.3499 52.74H36.3599Z" fill="white"/>
<path d="M37.9 58.5C37.52 60.23 38.63 61.95 40.36 62.32C40.44 62.34 40.51 62.35 40.59 62.36C42.24 62.6 43.82 61.52 44.18 59.86C44.3 59.32 44.4 58.78 44.5 58.25L38.12 57.34C38.04 57.73 37.98 58.11 37.89 58.51L37.9 58.5Z" fill="#FADDDC"/>
<path d="M33.3801 20C31.9701 18.93 29.9701 19.21 28.9001 20.61C27.8201 22.01 28.0901 24.03 29.4801 25.11C30.0201 25.53 42.3701 35.44 38.1301 57.33L44.5101 58.24C49.3701 32.47 34.0501 20.5 33.3801 20Z" fill="white"/>
<path d="M5.58009 49.33C5.79009 50.73 4.83009 52.03 3.43009 52.24C3.37009 52.24 3.31009 52.26 3.25009 52.26C1.92009 52.37 0.720088 51.43 0.520088 50.09C0.450088 49.65 0.400088 49.22 0.340088 48.79L5.45009 48.38C5.49009 48.69 5.53009 49 5.57009 49.32L5.58009 49.33Z" fill="#FADDDC"/>
<path d="M11.0901 18.98C12.2601 18.2 13.8401 18.52 14.6201 19.69C15.4101 20.86 15.0901 22.44 13.9301 23.24C13.4801 23.54 3.18007 30.8 5.45007 48.4L0.340068 48.81C-2.22993 28.1 10.5401 19.36 11.0901 18.99V18.98Z" fill="white"/>
<path d="M23.85 20.72L20.78 17.65H25.59V20C25.59 20.91 24.49 21.37 23.85 20.72Z" fill="#E5E1DC"/>
<path d="M17.6101 20.72L20.6801 17.65H15.8701V20C15.8701 20.91 16.9701 21.37 17.6101 20.72Z" fill="#E5E1DC"/>
<path d="M20.7101 49.67H21.0901L21.0901 19.31H20.7101L20.7101 49.67Z" fill="#E5E1DC"/>
<path d="M29.0401 33.89H26.5101C25.5201 33.89 24.7101 33.08 24.7101 32.09V26.6H30.8501V32.09C30.8501 33.08 30.0401 33.89 29.0501 33.89H29.0401Z" fill="#E5E1DC"/>
<path d="M15.46 33.89H12.93C11.94 33.89 11.13 33.08 11.13 32.09V26.6H17.27V32.09C17.27 33.08 16.46 33.89 15.47 33.89H15.46Z" fill="#E5E1DC"/>
<path d="M8.42992 52.76H35.1599L27.4199 99.04C27.3299 99.91 26.9499 100.93 27.8999 101.7C28.4299 102.13 28.9899 102.52 29.5199 102.95C30.1399 103.46 29.8199 104.59 29.0499 104.59L24.0599 103.57C21.8199 103.1 22.1299 101.52 22.5699 100.3C22.8599 99.49 23.0399 98.65 23.0699 97.79C23.2399 92.91 22.6899 66.12 22.5799 61.15C22.5799 60.71 22.2099 60.36 21.7599 60.36C21.3399 60.36 20.9899 60.67 20.9499 61.09C20.4499 65.76 17.6799 91.35 17.4599 92.15C17.1099 93.4 15.6999 93.22 15.2099 92.29C14.7899 91.49 14.3699 88.22 14.2899 87.58H12.8899L8.41992 52.76H8.42992Z" fill="#3E2967"/>
</g>
<defs>
<clipPath id="clip0_134_1022">
<rect width="45.45" height="104.59" fill="white"/>
</clipPath>
</defs>
</svg>
