<svg width="57" height="103" viewBox="0 0 57 103" fill="none" xmlns="http://www.w3.org/2000/svg">
<g clip-path="url(#clip0_134_1041)">
<path d="M30.2499 54.24L18.6099 53.79L12.1999 75.29L0.00989241 92.52L2.26989 94.33C1.99989 94.82 1.51989 95.62 1.06989 95.92C0.389892 96.37 -0.480108 97.21 0.309892 98.21L5.13989 101.95C5.83989 102.25 6.58989 101.22 6.22989 100.45C5.98989 99.94 5.19989 98.79 4.93989 98.3C4.39989 97.28 5.03989 96.51 5.74989 95.41C9.95989 88.81 19.7999 78.7 19.7999 78.7L30.2399 54.25L30.2499 54.24Z" fill="#291B4C"/>
<path d="M33.1 52.75L13.98 53.52L34.85 77.59L42.03 99.34L44.73 98.96L45.61 100.68C46.51 102.61 46.63 103.44 48.13 102.69L51.86 101.23C52.54 100.89 52.43 99.91 51.64 99.67C51.11 99.51 50.3 99.48 49.76 99.46C47.74 99.36 48.01 97.95 47.68 96.67C45.73 89.01 44.86 82.85 42.66 75.11C41.4 70.68 33.09 52.75 33.09 52.75H33.1Z" fill="#3F3072"/>
<path d="M54.59 41.62C56.2 41.97 57.21 43.55 56.87 45.16C56.58 46.48 55.46 47.4 54.18 47.5C53.9 47.52 53.62 47.5 53.33 47.44C52.63 47.29 51.96 47.12 51.29 46.93L53.52 41.37C53.87 41.46 54.23 41.55 54.59 41.63V41.62Z" fill="#FADDDC"/>
<path d="M28.9001 19.64C30.4501 19.09 32.1501 19.9 32.7001 21.44C32.7601 21.6 38.5901 37.45 53.5201 41.36L51.2901 46.92C33.8201 41.93 27.3701 24.2 27.1001 23.42C26.5501 21.87 27.3601 20.18 28.9101 19.63L28.9001 19.64Z" fill="#E5E1DC"/>
<path d="M35.8901 53.57H11.2801C10.5901 49.22 11.5701 24.38 24.0601 18.04H28.4101C29.9101 18.04 31.3301 18.8 32.1101 20.08C37.7801 29.34 35.8901 53.57 35.8901 53.57Z" fill="white"/>
<path d="M7.98003 49.2C7.95003 50.84 6.60003 52.15 4.96003 52.13C3.61003 52.11 2.49003 51.19 2.14003 49.95C2.07003 49.68 2.03003 49.4 2.03003 49.1C2.04003 48.39 2.08003 47.69 2.13003 47L8.02003 48.1C8.00003 48.46 7.98003 48.83 7.98003 49.2Z" fill="#FADDDC"/>
<path d="M24.4999 19.7C25.3399 21.11 24.8799 22.93 23.4799 23.78C23.3299 23.87 8.92989 32.7 8.02989 48.11L2.13989 47.01C3.59989 28.9 19.7199 19.1 20.4299 18.67C21.8399 17.83 23.6599 18.29 24.4999 19.7Z" fill="white"/>
<path d="M22.3601 18.3201C22.9701 18.0101 23.6601 17.9101 24.4601 18.0501L29.3701 18.1401C29.3701 18.1401 29.9601 18.1601 31.1601 18.9901C31.3601 19.1301 31.3501 19.8701 31.3001 20.5801C31.2601 21.1401 30.5901 21.4101 30.1701 21.0301L28.5701 19.6001L27.9801 21.5501C27.8401 22.0101 27.2901 22.1801 26.9101 21.8901L22.3601 18.3101V18.3201Z" fill="#E5E1DC"/>
<path d="M24.25 3.70996H34.64V13.01C34.64 14.83 33.16 16.31 31.34 16.31H30.29C29.78 16.31 29.36 16.72 29.36 17.24V18.15C29.36 19.31 28.12 20.04 27.1 19.49L24.45 18.05L24.24 3.70996H24.25Z" fill="#FADDDC"/>
<path d="M33.9601 13.44L34.5601 13.27C35.1001 13.12 35.4201 12.55 35.2701 12.01L34.4401 9.05004C34.3801 8.82004 34.1401 8.69004 33.9201 8.76004C33.7001 8.83004 33.5601 9.06004 33.6301 9.28004L34.3501 11.84C34.4401 12.15 34.2601 12.47 33.9501 12.55L33.7401 12.61C33.5101 12.67 33.3801 12.91 33.4501 13.13C33.5201 13.35 33.7501 13.49 33.9701 13.42L33.9601 13.44Z" fill="#E0B1BB"/>
<path d="M32.4999 9.00995C32.4999 9.31995 32.2499 9.56995 31.9399 9.56995C31.6299 9.56995 31.3799 9.31995 31.3799 9.00995C31.3799 8.69995 31.6299 8.44995 31.9399 8.44995C32.2499 8.44995 32.4999 8.69995 32.4999 9.00995Z" fill="#757570"/>
<path d="M21.02 6.06002C21.37 3.93002 23.38 3.09002 24.46 2.05002C25.83 0.73002 26.89 -0.139979 29.87 0.0200205C30.89 0.0700205 31.38 0.76002 31.5 0.76002C34.86 0.76002 36.09 3.47002 36.07 5.10002C36.05 7.33002 34.89 7.94002 34.89 7.94002C34.89 7.94002 34.84 7.94002 34.83 7.94002C33.84 7.94002 34.43 3.98002 33.81 3.98002C33.19 3.98002 33.51 8.00002 28.78 8.00002C28.42 8.00002 28.14 8.29002 28.14 8.64002V9.79002C28.14 10 27.97 10.17 27.75 10.17C27.53 10.17 27.36 10 27.36 9.79002C27.36 9.58002 26.02 11.94 24.92 13.95C24.74 14.28 24.43 14.22 24.43 14.22C24.09 13.7 23.15 11.65 22.22 9.36002C21.78 8.29002 20.78 7.57002 21.03 6.06002H21.02Z" fill="#3E2967"/>
<path d="M27.37 9.13004C27.37 8.59985 26.9401 8.17004 26.41 8.17004C25.8798 8.17004 25.45 8.59985 25.45 9.13004V11.22C25.45 11.7502 25.8798 12.18 26.41 12.18C26.9401 12.18 27.37 11.7502 27.37 11.22V9.13004Z" fill="#FADDDC"/>
<path d="M27.08 36.95L24.81 37.06C23.92 37.1 23.15 36.24 23.09 35.14L22.76 29.04L28.26 28.77L28.59 34.87C28.65 35.98 27.98 36.91 27.08 36.95Z" fill="#E5E1DC"/>
<path d="M31.33 50.5601L30.83 50.5401C31.7 31.2001 29.96 24.24 28.84 21.82C28.75 21.63 28.66 21.43 28.86 21.3L29 21.51L29.24 21.48C29.24 21.48 29.27 21.5501 29.3 21.6201C30.44 24.0801 32.21 31.12 31.34 50.57L31.33 50.5601Z" fill="#E5E1DC"/>
</g>
<defs>
<clipPath id="clip0_134_1041">
<rect width="56.93" height="102.96" fill="white"/>
</clipPath>
</defs>
</svg>
