<svg
    width="63"
    height="101"
    viewBox="0 0 63 101"
    fill="none"
    xmlns="http://www.w3.org/2000/svg"
>
    <g clip-path="url(#clip0_9_649)">
        <path
            d="M22.04 52.8H39.5V95.01V95.03V95.06V96.31C39.5 96.94 39.7701 97.53 40.2201 97.86C40.7601 98.26 41.3001 98.68 41.8101 99.12C42.4201 99.64 42.1 100.77 41.35 100.77H37.4901C36.7901 100.77 36.18 100.22 36.01 99.43L34.25 91.17C33.07 85.39 31.94 79.55 30.89 73.66C30.15 69.53 29.46 65.4 28.8 61.29C28.65 60.38 27.9401 59.73 27.1101 59.73H22.43C21.6 59.73 20.88 60.39 20.74 61.29C20.08 65.4 19.38 69.53 18.65 73.66C17.36 80.88 15.97 88.02 14.49 95.07C14.24 96.25 14.67 97.47 15.55 98.13C15.97 98.45 16.39 98.79 16.8 99.13C17.41 99.65 17.1 100.78 16.34 100.78H13.08C11.41 100.78 10.05 99.2 10.05 97.25V52.79H22.06L22.04 52.8Z"
            fill="#3E2967"
        />
        <path
            d="M56.9099 4.25995C57.5999 2.80995 59.3299 2.18995 60.7799 2.87995C61.9699 3.43995 62.5999 4.71995 62.4099 5.95995C62.3699 6.22995 62.2899 6.49995 62.1599 6.74995C61.8599 7.37995 61.5499 7.98995 61.2199 8.56995L56.4299 5.20995C56.5999 4.89995 56.7599 4.57995 56.9099 4.24995V4.25995Z"
            fill="#FADDDC"
        />
        <path
            d="M30.3001 23.82C30.1201 22.23 31.2701 20.79 32.8601 20.61C33.0301 20.59 49.4001 18.56 56.4301 5.22998L61.2201 8.58998C52.6001 24.1 34.3001 26.3 33.5001 26.39C31.9101 26.57 30.4801 25.42 30.3001 23.83V23.82Z"
            fill="white"
        />
        <path
            d="M10.02 52.74H39.49L39.48 26.55C39.48 21.63 35.49 17.65 30.58 17.65H18.91C13.99 17.65 10.01 21.64 10.01 26.55L10.03 52.74H10.02Z"
            fill="white"
        />
        <path
            d="M5.93006 52.48C6.04006 54.08 4.84006 55.47 3.24006 55.59C3.17006 55.59 3.10006 55.59 3.03006 55.59C1.52006 55.59 0.240059 54.42 0.140059 52.89C0.100059 52.39 0.0800586 51.89 0.0600586 51.4H5.88006C5.90006 51.76 5.91006 52.11 5.94006 52.47L5.93006 52.48Z"
            fill="#FADDDC"
        />
        <path
            d="M14.9 18.6C16.3 17.82 18.05 18.33 18.84 19.72C19.62 21.11 19.13 22.88 17.74 23.67C17.21 23.97 4.88001 31.26 5.88001 51.4H0.0500124C-0.999988 27.72 14.24 18.97 14.9 18.6Z"
            fill="white"
        />
        <path
            d="M22.53 20.72L25.6 17.65H20.79V20C20.79 20.91 21.89 21.37 22.53 20.72Z"
            fill="#E5E1DC"
        />
        <path
            d="M28.77 20.72L25.7 17.65H30.51V20C30.51 20.91 29.41 21.37 28.77 20.72Z"
            fill="#E5E1DC"
        />
        <path d="M25.67 19.3199H25.29V49.6799H25.67V19.3199Z" fill="#E5E1DC" />
        <path
            d="M15.53 26.61H21.67V32.1C21.67 33.09 20.86 33.9 19.87 33.9H17.34C16.35 33.9 15.54 33.09 15.54 32.1V26.61H15.53Z"
            fill="#E5E1DC"
        />
        <path
            d="M29.12 26.61H35.26V32.1C35.26 33.09 34.45 33.9 33.46 33.9H30.93C29.94 33.9 29.13 33.09 29.13 32.1V26.61H29.12Z"
            fill="#E5E1DC"
        />
        <path
            d="M23.1899 3.42003H30.7899C31.8499 3.42003 32.7099 4.28003 32.7099 5.34003V12.82C32.7099 14.49 31.3599 15.84 29.6899 15.84H28.7299C28.2599 15.84 27.8799 16.22 27.8799 16.69V17.67H23.2299L23.1899 3.41003V3.42003Z"
            fill="#FADDDC"
        />
        <path
            d="M29.63 13.1H30.2C30.72 13.1 31.13 12.68 31.13 12.17V9.35997C31.13 9.13997 30.96 8.96997 30.74 8.96997C30.52 8.96997 30.35 9.13997 30.35 9.35997V11.8C30.35 12.09 30.11 12.33 29.82 12.33H29.62C29.4 12.33 29.23 12.5 29.23 12.72C29.23 12.94 29.4 13.11 29.62 13.11L29.63 13.1Z"
            fill="#E0B1BB"
        />
        <path d="M22.19 10.7H23.77V7.34995H22.19V10.7Z" fill="#FADDDC" />
        <path
            d="M34.14 4.76994C34.14 3.11994 33.13 0.139943 29.26 0.139943C29.14 0.139943 29.03 0.159943 28.91 0.139943C24.55 -0.550057 22.03 1.30994 20.92 4.00994C20.36 4.38994 20 5.02994 20 5.74994C20 6.46994 20.39 7.14994 20.98 7.51994C21.34 8.44994 21.53 9.37994 22.05 10.1899C22.05 10.1899 22.07 11.0699 22.07 11.6699C22.07 12.5799 23.22 12.5799 23.22 12.5799V10.5399C22.54 10.2899 22.37 9.70994 22.37 8.80994C22.37 7.90994 23.17 7.90994 23.17 7.90994V8.97994C23.17 9.29994 23.43 9.55994 23.75 9.55994C24.07 9.55994 24.33 9.29994 24.33 8.97994V8.04994C24.33 7.88994 24.48 7.87994 24.63 7.87994C30.49 7.87994 29.9 3.86994 30.53 3.86994C31.16 3.86994 31.01 6.75994 32.69 6.75994C32.71 6.75994 32.72 7.64994 32.72 7.64994C32.72 7.64994 34.14 7.10994 34.14 4.76994Z"
            fill="#3E2967"
        />
        <path
            d="M26.91 9.23997C26.92 9.54997 27.18 9.78997 27.49 9.77997C27.8 9.76997 28.04 9.50997 28.03 9.19997C28.02 8.88997 27.76 8.64997 27.45 8.65997C27.14 8.66997 26.9 8.92997 26.91 9.23997Z"
            fill="#757570"
        />
    </g>
    <defs>
        <clipPath id="clip0_9_649">
            <rect width="62.44" height="100.78" fill="white" />
        </clipPath>
    </defs>
</svg>

