<svg width="46" height="105" viewBox="0 0 46 105" fill="none" xmlns="http://www.w3.org/2000/svg">
<g clip-path="url(#clip0_134_1004)">
<path d="M9.10009 52.74H38.5701L38.5601 26.55C38.5601 21.63 34.5701 17.65 29.6601 17.65H17.9901C13.0701 17.65 9.09009 21.64 9.09009 26.55L9.11009 52.74H9.10009Z" fill="white"/>
<path d="M7.55996 58.5C7.93996 60.23 6.82996 61.95 5.09996 62.32C5.01996 62.34 4.94996 62.35 4.86996 62.36C3.21996 62.6 1.63996 61.52 1.27996 59.86C1.15996 59.32 1.05996 58.78 0.959961 58.25L7.33996 57.34C7.41996 57.73 7.47996 58.11 7.56996 58.51L7.55996 58.5Z" fill="#FADDDC"/>
<path d="M12.08 20C13.49 18.93 15.49 19.21 16.56 20.61C17.64 22.01 17.37 24.03 15.98 25.11C15.44 25.53 3.09002 35.44 7.33002 57.33L0.950024 58.24C-3.90998 32.48 11.41 20.51 12.08 20Z" fill="white"/>
<path d="M39.8799 49.33C39.6699 50.73 40.6299 52.03 42.0299 52.24C42.0899 52.24 42.1499 52.26 42.2099 52.26C43.5399 52.37 44.7399 51.43 44.9399 50.09C45.0099 49.65 45.0599 49.22 45.1199 48.79L40.0099 48.38C39.9699 48.69 39.9299 49 39.8899 49.32L39.8799 49.33Z" fill="#FADDDC"/>
<path d="M34.36 18.98C33.19 18.2 31.61 18.52 30.83 19.69C30.04 20.86 30.36 22.44 31.52 23.24C31.97 23.54 42.27 30.8 40 48.4L45.11 48.81C47.68 28.1 34.91 19.36 34.36 18.99V18.98Z" fill="white"/>
<path d="M21.6001 20.72L24.6701 17.65H19.8601V20C19.8601 20.91 20.9601 21.37 21.6001 20.72Z" fill="#E5E1DC"/>
<path d="M27.84 20.72L24.77 17.65H29.58V20C29.58 20.91 28.48 21.37 27.84 20.72Z" fill="#E5E1DC"/>
<path d="M24.7401 19.3199H24.3601V49.6799H24.7401V19.3199Z" fill="#E5E1DC"/>
<path d="M14.6101 26.61H20.7501V32.1C20.7501 33.09 19.9401 33.9 18.9501 33.9H16.4201C15.4301 33.9 14.6201 33.09 14.6201 32.1V26.61H14.6101Z" fill="#E5E1DC"/>
<path d="M28.2 26.61H34.34V32.1C34.34 33.09 33.53 33.9 32.54 33.9H30.01C29.02 33.9 28.2099 33.09 28.2099 32.1V26.61H28.2Z" fill="#E5E1DC"/>
<path d="M22.26 3.42003H29.86C30.92 3.42003 31.78 4.28003 31.78 5.34003V12.82C31.78 14.49 30.43 15.84 28.76 15.84H27.8C27.33 15.84 26.95 16.22 26.95 16.69V17.67H22.3L22.26 3.41003V3.42003Z" fill="#FADDDC"/>
<path d="M28.7001 13.1H29.2701C29.7901 13.1 30.2001 12.68 30.2001 12.17V9.35997C30.2001 9.13997 30.03 8.96997 29.81 8.96997C29.59 8.96997 29.42 9.13997 29.42 9.35997V11.8C29.42 12.09 29.18 12.33 28.89 12.33H28.6901C28.4701 12.33 28.3 12.5 28.3 12.72C28.3 12.94 28.4701 13.11 28.6901 13.11L28.7001 13.1Z" fill="#E0B1BB"/>
<path d="M21.2701 10.7H22.8501V7.34995H21.2701V10.7Z" fill="#FADDDC"/>
<path d="M33.2101 4.76994C33.2101 3.11994 32.2001 0.139943 28.3301 0.139943C28.2101 0.139943 28.1001 0.159943 27.9801 0.139943C23.6201 -0.550057 21.1001 1.30994 19.9901 4.00994C19.4301 4.38994 19.0701 5.02994 19.0701 5.74994C19.0701 6.46994 19.4601 7.14994 20.0501 7.51994C20.4101 8.44994 20.6001 9.37994 21.1201 10.1899C21.1201 10.1899 21.1401 11.0699 21.1401 11.6699C21.1401 12.5799 22.2901 12.5799 22.2901 12.5799V10.5399C21.6101 10.2899 21.4401 9.70994 21.4401 8.80994C21.4401 7.90994 22.2401 7.90994 22.2401 7.90994V8.97994C22.2401 9.29994 22.5001 9.55994 22.8201 9.55994C23.1401 9.55994 23.4001 9.29994 23.4001 8.97994V8.04994C23.4001 7.88994 23.5501 7.87994 23.7001 7.87994C29.5601 7.87994 28.9701 3.86994 29.6001 3.86994C30.2301 3.86994 30.0801 6.75994 31.7601 6.75994C31.7801 6.75994 31.7901 7.64994 31.7901 7.64994C31.7901 7.64994 33.2101 7.10994 33.2101 4.76994Z" fill="#3E2967"/>
<path d="M25.99 9.23997C26 9.54997 26.26 9.78997 26.57 9.77997C26.88 9.76997 27.12 9.50997 27.11 9.19997C27.1 8.88997 26.84 8.64997 26.53 8.65997C26.22 8.66997 25.98 8.92997 25.99 9.23997Z" fill="#757570"/>
<path d="M37.02 52.76H10.29L18.03 99.04C18.12 99.91 18.5 100.93 17.55 101.7C17.02 102.13 16.46 102.52 15.93 102.95C15.31 103.46 15.63 104.59 16.4 104.59L21.39 103.57C23.63 103.1 23.32 101.52 22.88 100.3C22.59 99.49 22.41 98.65 22.38 97.79C22.21 92.91 22.76 66.12 22.87 61.15C22.87 60.71 23.24 60.36 23.69 60.36C24.11 60.36 24.46 60.67 24.5 61.09C25 65.76 27.77 91.35 27.99 92.15C28.34 93.4 29.75 93.22 30.24 92.29C30.66 91.49 31.08 88.22 31.16 87.58H32.56L37.03 52.76H37.02Z" fill="#3E2967"/>
</g>
<defs>
<clipPath id="clip0_134_1004">
<rect width="45.45" height="104.59" fill="white"/>
</clipPath>
</defs>
</svg>
