<svg width="57" height="103" viewBox="0 0 57 103" fill="none" xmlns="http://www.w3.org/2000/svg">
<g clip-path="url(#clip0_134_1080)">
<path d="M26.6899 54.24L38.3299 53.79L44.7399 75.29L56.9199 92.51L54.6599 94.32C54.9299 94.81 55.4099 95.61 55.8599 95.91C56.5399 96.36 57.4099 97.2 56.6199 98.2L51.7899 101.94C51.0899 102.24 50.3399 101.21 50.6999 100.44C50.9399 99.93 51.7299 98.78 51.9899 98.29C52.5299 97.27 51.8899 96.5 51.1799 95.4C46.9699 88.8 37.1299 78.69 37.1299 78.69L26.6899 54.24Z" fill="#291B4C"/>
<path d="M23.83 52.75L42.95 53.52L22.08 77.59L14.9 99.34L12.2 98.96L11.32 100.68C10.42 102.61 10.3 103.44 8.8 102.69L5.07 101.23C4.39 100.89 4.5 99.91 5.29 99.67C5.82 99.51 6.63 99.48 7.17 99.46C9.19 99.36 8.92 97.95 9.25 96.67C11.2 89.01 12.07 82.85 14.27 75.11C15.53 70.68 23.84 52.75 23.84 52.75H23.83Z" fill="#3F3072"/>
<path d="M2.33995 41.62C0.729945 41.97 -0.280055 43.55 0.0599451 45.16C0.349945 46.48 1.46995 47.4 2.74995 47.5C3.02995 47.52 3.30995 47.5 3.59995 47.44C4.29994 47.29 4.96994 47.12 5.63995 46.93L3.40995 41.37C3.05995 41.46 2.69994 41.55 2.33995 41.63V41.62Z" fill="#FADDDC"/>
<path d="M28.0299 19.64C26.4799 19.09 24.7799 19.9 24.2299 21.44C24.1699 21.6 18.3399 37.45 3.40991 41.36L5.63991 46.92C23.1099 41.93 29.5599 24.2 29.8299 23.42C30.3799 21.87 29.5699 20.18 28.0199 19.63L28.0299 19.64Z" fill="#E5E1DC"/>
<path d="M21.05 53.57H45.66C46.35 49.22 45.37 24.38 32.88 18.04H28.53C27.03 18.04 25.61 18.8 24.83 20.08C19.16 29.34 21.05 53.57 21.05 53.57Z" fill="white"/>
<path d="M48.9499 49.2C48.9799 50.84 50.3299 52.15 51.9699 52.13C53.3199 52.11 54.4399 51.19 54.7899 49.95C54.8599 49.68 54.8999 49.4 54.8999 49.1C54.8899 48.39 54.8499 47.69 54.7999 47L48.9099 48.1C48.9299 48.46 48.9499 48.83 48.9499 49.2Z" fill="#FADDDC"/>
<path d="M32.4299 19.7C31.5899 21.11 32.0499 22.93 33.4499 23.78C33.5999 23.87 47.9999 32.7 48.8999 48.11L54.7899 47.01C53.3299 28.9 37.2099 19.1 36.4999 18.67C35.0899 17.83 33.2699 18.29 32.4299 19.7Z" fill="white"/>
<path d="M34.5699 18.3201C33.9599 18.0101 33.2699 17.9101 32.4699 18.0501L27.5599 18.1401C27.5599 18.1401 26.9699 18.1601 25.7699 18.9901C25.5699 19.1301 25.5799 19.8701 25.6299 20.5801C25.6699 21.1401 26.3399 21.4101 26.7599 21.0301L28.3599 19.6001L28.9499 21.5501C29.0899 22.0101 29.6399 22.1801 30.0199 21.8901L34.5699 18.3101V18.3201Z" fill="#E5E1DC"/>
<path d="M32.68 3.70996H22.29V13.01C22.29 14.83 23.77 16.31 25.59 16.31H26.64C27.15 16.31 27.57 16.72 27.57 17.24V18.15C27.57 19.31 28.81 20.04 29.83 19.49L32.48 18.05L32.69 3.70996H32.68Z" fill="#FADDDC"/>
<path d="M22.98 13.44L22.38 13.27C21.84 13.12 21.52 12.55 21.67 12.01L22.5 9.05004C22.56 8.82004 22.8 8.69004 23.02 8.76004C23.24 8.83004 23.38 9.06004 23.31 9.28004L22.59 11.84C22.5 12.15 22.68 12.47 22.99 12.55L23.2 12.61C23.43 12.67 23.56 12.91 23.49 13.13C23.42 13.35 23.19 13.49 22.97 13.42L22.98 13.44Z" fill="#E0B1BB"/>
<path d="M24.4299 9.00995C24.4299 9.31995 24.6799 9.56995 24.9899 9.56995C25.2999 9.56995 25.5499 9.31995 25.5499 9.00995C25.5499 8.69995 25.2999 8.44995 24.9899 8.44995C24.6799 8.44995 24.4299 8.69995 24.4299 9.00995Z" fill="#757570"/>
<path d="M35.9101 6.06002C35.5601 3.93002 33.5501 3.09002 32.4701 2.05002C31.1001 0.73002 30.0401 -0.139979 27.0601 0.0200205C26.0401 0.0700205 25.5501 0.76002 25.4301 0.76002C22.0701 0.76002 20.8401 3.47002 20.8601 5.10002C20.8801 7.33002 22.0401 7.94002 22.0401 7.94002C22.0401 7.94002 22.0901 7.94002 22.1001 7.94002C23.0901 7.94002 22.5001 3.98002 23.1201 3.98002C23.7401 3.98002 23.4201 8.00002 28.1501 8.00002C28.5101 8.00002 28.7901 8.29002 28.7901 8.64002V9.79002C28.7901 10 28.9601 10.17 29.1801 10.17C29.4001 10.17 29.5701 10 29.5701 9.79002C29.5701 9.58002 30.9101 11.94 32.0101 13.95C32.1901 14.28 32.5001 14.22 32.5001 14.22C32.8401 13.7 33.7801 11.65 34.7101 9.36002C35.1501 8.29002 36.1501 7.57002 35.9001 6.06002H35.9101Z" fill="#3E2967"/>
<path d="M29.57 11.21C29.57 11.7402 29.9998 12.17 30.53 12.17C31.0602 12.17 31.49 11.7402 31.49 11.21V9.12004C31.49 8.58985 31.0602 8.16004 30.53 8.16004C29.9998 8.16004 29.57 8.58985 29.57 9.12004V11.21Z" fill="#FADDDC"/>
<path d="M29.8499 36.95L32.1199 37.06C33.0099 37.1 33.7799 36.24 33.8399 35.14L34.1699 29.04L28.6699 28.77L28.3399 34.87C28.2799 35.98 28.9499 36.91 29.8499 36.95Z" fill="#E5E1DC"/>
<path d="M25.6099 50.5601L26.1099 50.5401C25.2399 31.2001 26.9799 24.24 28.0999 21.82C28.1899 21.63 28.2799 21.43 28.0799 21.3L27.9399 21.51L27.6999 21.48C27.6999 21.48 27.6699 21.5501 27.6399 21.6201C26.4999 24.0801 24.7299 31.12 25.5999 50.57L25.6099 50.5601Z" fill="#E5E1DC"/>
</g>
<defs>
<clipPath id="clip0_134_1080">
<rect width="56.93" height="102.96" fill="white"/>
</clipPath>
</defs>
</svg>
