
    <svg
        width="69"
        height="104"
        viewBox="0 0 69 104"
        fill="none"
        xmlns="http://www.w3.org/2000/svg"
    >
        <g clip-path="url(#clip0_9_831)">
            <path
                d="M23.4 51.02H38.02V96.92V96.94V96.97V98.33C38.02 99.01 38.29 99.65 38.76 100.01C39.32 100.44 39.86 100.9 40.39 101.38C41.02 101.94 40.69 103.17 39.91 103.17H35.95C35.23 103.17 34.61 102.57 34.44 101.71L32.64 92.73C31.43 86.44 30.28 80.1 29.2 73.69C28.44 69.2 27.73 64.71 27.06 60.24C26.91 59.26 26.18 58.54 25.33 58.54H23.79C22.94 58.54 22.21 59.26 22.06 60.24C21.38 64.71 20.67 69.2 19.92 73.69C18.6 81.54 17.18 89.3 15.66 96.97C15.41 98.25 15.85 99.58 16.74 100.3C17.17 100.65 17.6 101.01 18.02 101.39C18.65 101.96 18.32 103.19 17.55 103.19H14.21C12.5 103.19 11.11 101.47 11.11 99.35V51.01H23.41L23.4 51.02Z"
                fill="#3E2967"
            />
            <path
                d="M0.270016 52.7599C0.360016 53.5199 0.470016 54.2799 0.610016 55.0499C0.670016 55.3699 0.760016 55.6599 0.890016 55.9399C1.48002 57.1999 2.78002 57.9299 4.10002 57.6399C5.71002 57.2899 6.76002 55.5599 6.44002 53.7899C6.37002 53.3899 6.31002 52.9899 6.25002 52.5999C5.29002 45.7299 6.41002 38.9799 8.50002 34.0299L3.82002 30.8799C1.22002 36.6999 -0.739984 44.2199 0.270016 52.7599Z"
                fill="#FADDDC"
            />
            <path
                d="M63.88 12.49C63.6 12.73 63.32 12.97 63.04 13.2C56.92 18.15 49.71 19.35 44.09 19.34L44.72 25.33C51.1 25.26 59.1 23.78 66.2 18.29C66.75 17.87 67.29 17.42 67.82 16.95C68.04 16.76 68.22 16.54 68.37 16.3C69.05 15.21 68.97 13.76 68.08 12.75C66.99 11.52 65.11 11.4 63.88 12.49Z"
                fill="#FADDDC"
            />
            <path
                d="M39.9 54.71H9.20996L11.1 25.01C11.1 20.85 10.75 17.47 18.64 17.47H30.48C34.64 17.47 38.02 20.85 38.02 25.01L39.89 54.71H39.9Z"
                fill="#74E0C1"
            />
            <path
                d="M16.42 19.33C15.3 18.13 13.43 18.06 12.22 19.17C11.87 19.49 6.47002 23.32 3.02002 30.34L9.14002 34.39C12.16 27.89 16.2 23.6 16.27 23.53C17.47 22.41 17.54 20.53 16.42 19.33Z"
                fill="#74E0C1"
            />
            <path
                d="M31.5 17.54C29.77 17.45 29.13 18.84 28.77 20.23C28.36 21.82 31.31 25.54 32.82 26.18C33.66 26.53 38.28 26.47 44.82 26.41L44.04 19.07C38.63 19.06 34.29 17.69 31.5 17.54Z"
                fill="#74E0C1"
            />
            <path
                d="M20.74 17.5H27.94V17.65C27.94 19.64 26.33 21.25 24.34 21.25C22.35 21.25 20.74 19.64 20.74 17.65V17.5Z"
                fill="#65CEAE"
            />
            <path
                d="M27.05 34.9999H23.4V34.0099H25.63L23.67 28.7299L24.6 28.3799L27.05 34.9999Z"
                fill="white"
            />
            <path
                d="M18.89 32.1899L17.9 32.1699C17.92 31.1599 18.41 29.24 20.14 29.2C20.16 29.2 20.19 29.2 20.21 29.2C21.96 29.2 22.62 30.76 22.72 31.59L21.74 31.7099C21.72 31.5499 21.48 30.13 20.17 30.19C18.96 30.22 18.9 32.1699 18.9 32.1899H18.89Z"
                fill="white"
            />
            <path
                d="M27.69 31.3401L26.7 31.3201C26.72 30.3101 27.21 28.3901 28.94 28.3501C30.7 28.3101 31.42 29.9001 31.52 30.7401L30.54 30.8601C30.52 30.7001 30.3299 29.2901 28.9699 29.3401C27.7599 29.3701 27.7 31.3201 27.7 31.3401H27.69Z"
                fill="white"
            />
            <path
                d="M25.28 39.1199C20.32 39.1199 19.86 34.9699 19.86 34.9199L20.85 34.82C20.86 34.95 21.25 38.1199 25.29 38.1199C28.94 38.1199 29.07 34.36 29.07 34.2L30.06 34.22C30.03 35.91 28.99 39.11 25.29 39.11L25.28 39.1199Z"
                fill="white"
            />
            <path
                d="M21.87 4.61011H32.11V12.6101C32.11 14.4101 30.65 15.8601 28.86 15.8601H27.83C27.33 15.8601 26.92 16.7501 26.92 17.2601V17.5701C26.92 18.9501 25.8 20.0701 24.42 20.0701C23.04 20.0701 21.92 18.9501 21.92 17.5701L21.89 4.61011H21.87Z"
                fill="#FADDDC"
            />
            <path
                d="M28.82 12.9H29.44C29.99 12.9 30.44 12.45 30.44 11.9V8.86995C30.44 8.63995 30.25 8.44995 30.02 8.44995C29.79 8.44995 29.6 8.63995 29.6 8.86995V11.49C29.6 11.8 29.35 12.06 29.03 12.06H28.81C28.58 12.06 28.39 12.25 28.39 12.48C28.39 12.71 28.58 12.9 28.81 12.9H28.82Z"
                fill="#E0B1BB"
            />
            <path
                d="M26.51 8.96991C26.51 9.27991 26.76 9.52991 27.07 9.52991C27.38 9.52991 27.63 9.27991 27.63 8.96991C27.63 8.65991 27.38 8.40991 27.07 8.40991C26.76 8.40991 26.51 8.65991 26.51 8.96991Z"
                fill="#757570"
            />
            <path
                d="M24.9799 0.56003C23.4199 1.18003 20.9099 2.49003 20.4199 5.61003C20.1699 7.20003 21.2599 11.88 21.2599 11.88C21.4099 12.38 21.7799 12.35 21.8899 12.38L21.8699 9.22003V9.10003C21.8699 9.04003 21.8799 8.98003 21.8999 8.92003C21.9799 8.63003 22.2399 8.41003 22.5599 8.41003H22.6399C23.0199 8.41003 23.3199 8.72003 23.3199 9.09003V9.67003V9.65003L23.3299 10.13C23.3299 10.33 23.4899 10.49 23.6899 10.49C23.8899 10.49 24.0499 10.33 24.0499 10.13V8.57003C24.0499 7.96003 24.1999 7.36003 24.5399 6.86003C24.8299 6.42003 25.3699 5.67003 26.1999 5.48003C27.0299 5.29003 29.4799 5.44003 30.4999 5.20003C32.0299 4.84003 32.4599 2.76003 32.0799 1.29003C31.7599 0.0200295 27.6299 -0.49997 24.9699 0.55003L24.9799 0.56003Z"
                fill="#3E2967"
            />
            <path
                d="M31.95 1.86011C32.03 1.89011 32.94 2.22011 32.96 3.39011C32.98 4.56011 32.0801 7.72011 32.0801 7.72011C32.0801 7.72011 32.22 4.68011 31.26 4.57011C30.3 4.46011 31.94 1.86011 31.94 1.86011H31.95Z"
                fill="#3E2967"
            />
        </g>
        <defs>
            <clipPath id="clip0_9_831">
                <rect width="68.82" height="103.19" fill="white" />
            </clipPath>
        </defs>
    </svg>
