<svg width="50" height="106" viewBox="0 0 50 106" fill="none" xmlns="http://www.w3.org/2000/svg">
<g clip-path="url(#clip0_134_1320)">
<path d="M11.1899 53.9399H37.9199L30.1799 100.22C30.0899 101.09 29.7099 102.11 30.6599 102.88C31.1899 103.31 31.7499 103.7 32.2799 104.13C32.8999 104.64 32.5799 105.77 31.8099 105.77L26.8199 104.75C24.5799 104.28 24.8899 102.7 25.3299 101.48C25.6199 100.67 25.7999 99.8299 25.8299 98.9699C25.9999 94.0899 25.4499 67.2999 25.3399 62.3299C25.3399 61.8899 24.9699 61.5399 24.5199 61.5399C24.0999 61.5399 23.7499 61.8499 23.7099 62.2699C23.2099 66.9399 20.4399 92.5299 20.2199 93.3299C19.8699 94.5799 18.4599 94.3999 17.9699 93.4699C17.5499 92.6699 17.1299 89.3999 17.0499 88.7599H15.6499L11.1799 53.9399H11.1899Z" fill="#3E2967"/>
<path d="M48.7199 51.97C48.4399 51.72 48.1799 51.47 47.9199 51.22C42.2699 45.75 40.2099 38.73 39.5399 33.15L33.6699 34.5C34.5099 40.83 36.9399 48.59 43.2499 54.97C43.7399 55.46 44.2399 55.95 44.7699 56.42C44.9899 56.61 45.2299 56.77 45.4799 56.89C46.6399 57.44 48.0699 57.18 48.9699 56.17C50.0599 54.94 49.9499 53.06 48.7199 51.97Z" fill="#FADDDC"/>
<path d="M38.3399 23.5401C38.0699 21.8301 35.0099 18.6301 33.5899 18.4401C31.9599 18.2201 31.8399 21.2201 31.3899 22.8001C31.1399 23.6701 31.7599 28.2501 32.6099 34.7401L39.7999 33.0801C39.1599 27.7101 38.7999 26.4101 38.3499 23.5401H38.3399Z" fill="#74E0C1"/>
<path d="M39.9 54.71H9.20996L11.1 25.01C11.1 20.85 10.75 17.47 18.64 17.47H30.48C34.64 17.47 38.02 20.85 38.02 25.01L39.89 54.71H39.9Z" fill="#74E0C1"/>
<path d="M0.269894 52.76C0.359894 53.52 0.469894 54.28 0.609894 55.05C0.669894 55.37 0.759894 55.66 0.889894 55.94C1.47989 57.2 2.77989 57.93 4.09989 57.64C5.70989 57.29 6.75989 55.56 6.43989 53.79C6.36989 53.39 6.30989 52.99 6.24989 52.6C5.28989 45.73 6.40989 38.98 8.49989 34.03L3.81989 30.88C1.21989 36.7 -0.740106 44.22 0.269894 52.76Z" fill="#FADDDC"/>
<path d="M16.42 19.33C15.3 18.13 13.43 18.06 12.22 19.17C11.87 19.49 6.47002 23.32 3.02002 30.34L9.14002 34.39C12.16 27.89 16.2 23.6 16.27 23.53C17.47 22.41 17.54 20.53 16.42 19.33Z" fill="#74E0C1"/>
<path d="M20.74 17.5H27.94V17.65C27.94 19.64 26.33 21.25 24.34 21.25C22.35 21.25 20.74 19.64 20.74 17.65V17.5Z" fill="#65CEAE"/>
<path d="M27.0499 35H23.3999V34.01H25.6299L23.6699 28.73L24.5999 28.38L27.0499 35Z" fill="white"/>
<path d="M18.8899 32.1899L17.8999 32.1699C17.9199 31.1599 18.4099 29.24 20.1399 29.2C20.1599 29.2 20.1899 29.2 20.2099 29.2C21.9599 29.2 22.6199 30.76 22.7199 31.59L21.7399 31.7099C21.7199 31.5499 21.4799 30.13 20.1699 30.19C18.9599 30.22 18.8999 32.1699 18.8999 32.1899H18.8899Z" fill="white"/>
<path d="M27.69 31.34L26.7 31.32C26.72 30.31 27.21 28.39 28.94 28.35C30.7 28.31 31.42 29.9 31.52 30.74L30.54 30.86C30.52 30.7 30.3299 29.29 28.9699 29.34C27.7599 29.37 27.7 31.32 27.7 31.34H27.69Z" fill="white"/>
<path d="M25.2801 39.1199C20.3201 39.1199 19.8601 34.9699 19.8601 34.9199L20.8501 34.82C20.8601 34.95 21.2501 38.1199 25.2901 38.1199C28.9401 38.1199 29.0701 34.36 29.0701 34.2L30.0601 34.22C30.0301 35.91 28.9901 39.11 25.2901 39.11L25.2801 39.1199Z" fill="white"/>
<path d="M21.8701 4.60999H32.1101V12.61C32.1101 14.41 30.6501 15.86 28.8601 15.86H27.8301C27.3301 15.86 26.9201 16.75 26.9201 17.26V17.57C26.9201 18.95 25.8001 20.07 24.4201 20.07C23.0401 20.07 21.9201 18.95 21.9201 17.57L21.8901 4.60999H21.8701Z" fill="#FADDDC"/>
<path d="M28.8199 12.9H29.4399C29.9899 12.9 30.4399 12.45 30.4399 11.9V8.86995C30.4399 8.63995 30.2499 8.44995 30.0199 8.44995C29.7899 8.44995 29.5999 8.63995 29.5999 8.86995V11.49C29.5999 11.8 29.3499 12.06 29.0299 12.06H28.8099C28.5799 12.06 28.3899 12.25 28.3899 12.48C28.3899 12.71 28.5799 12.9 28.8099 12.9H28.8199Z" fill="#E0B1BB"/>
<path d="M26.51 8.97003C26.51 9.28003 26.76 9.53003 27.07 9.53003C27.38 9.53003 27.63 9.28003 27.63 8.97003C27.63 8.66003 27.38 8.41003 27.07 8.41003C26.76 8.41003 26.51 8.66003 26.51 8.97003Z" fill="#757570"/>
<path d="M24.9801 0.56003C23.4201 1.18003 20.9101 2.49003 20.4201 5.61003C20.1701 7.20003 21.2601 11.88 21.2601 11.88C21.4101 12.38 21.7801 12.35 21.8901 12.38L21.8701 9.22003V9.10003C21.8701 9.04003 21.8801 8.98003 21.9001 8.92003C21.9801 8.63003 22.2401 8.41003 22.5601 8.41003H22.6401C23.0201 8.41003 23.3201 8.72003 23.3201 9.09003V9.67003V9.65003L23.3301 10.13C23.3301 10.33 23.4901 10.49 23.6901 10.49C23.8901 10.49 24.0501 10.33 24.0501 10.13V8.57003C24.0501 7.96003 24.2001 7.36003 24.5401 6.86003C24.8301 6.42003 25.3701 5.67003 26.2001 5.48003C27.0301 5.29003 29.4801 5.44003 30.5001 5.20003C32.0301 4.84003 32.4601 2.76003 32.0801 1.29003C31.7601 0.0200295 27.6301 -0.49997 24.9701 0.55003L24.9801 0.56003Z" fill="#3E2967"/>
<path d="M31.9499 1.85999C32.0299 1.88999 32.9399 2.21999 32.9599 3.38999C32.9799 4.55999 32.0799 7.71999 32.0799 7.71999C32.0799 7.71999 32.2199 4.67999 31.2599 4.56999C30.2999 4.45999 31.9399 1.85999 31.9399 1.85999H31.9499Z" fill="#3E2967"/>
</g>
<defs>
<clipPath id="clip0_134_1320">
<rect width="49.71" height="105.77" fill="white"/>
</clipPath>
</defs>
</svg>
