<svg width="57" height="107" viewBox="0 0 57 107" fill="none" xmlns="http://www.w3.org/2000/svg">
<g clip-path="url(#clip0_9_875)">
<path d="M53.8301 42.04C55.4201 42.45 56.3801 44.07 55.9701 45.66C55.6301 46.97 54.4801 47.85 53.2001 47.89C52.9201 47.89 52.6401 47.87 52.3501 47.8C51.6601 47.62 50.9901 47.42 50.3301 47.21L52.7701 41.74C53.1201 41.85 53.4701 41.95 53.8301 42.04Z" fill="#FADDDC"/>
<path d="M29 19.09C30.57 18.6 32.23 19.47 32.73 21.04C32.78 21.21 38.01 37.27 52.78 41.74L50.34 47.21C33.07 41.56 27.3 23.6 27.06 22.81C26.57 21.24 27.45 19.58 29.01 19.09H29Z" fill="#FADDDC"/>
<path d="M31.96 19.91L39.46 31.27L32.6101 38.64L29.3 26.41L31.96 19.91Z" fill="#65CEAE"/>
<path d="M29.51 53.35H17.53L11.82 75.71L0 93.9L2.4 95.67C2.14 96.19 1.69 97.02 1.23 97.35C0.55 97.84 -0.31 98.74 0.54 99.74L5.65 103.39C6.38 103.67 7.11 102.58 6.71 101.8C6.45 101.28 5.58 100.14 5.3 99.64C4.71 98.61 5.33 97.8 6.01 96.63C10.07 89.68 19.76 78.89 19.76 78.89L29.5 53.35H29.51Z" fill="#291B4C"/>
<path d="M33.0401 53.35H18.05L32.34 78.95L37.5 101.92L40.3 101.8L41.03 103.65C41.76 105.72 41.8 106.58 43.41 105.96L47.37 104.84C48.1 104.56 48.09 103.54 47.3 103.22C46.78 103 45.9501 102.9 45.4001 102.82C43.3401 102.52 43.7601 101.1 43.5601 99.75C42.3401 91.71 42.0601 85.33 40.5801 77.19C39.7401 72.53 33.0401 53.35 33.0401 53.35Z" fill="#3E2C6D"/>
<path d="M35.5001 57.19L12.1101 56.95L15.2901 33.38C15.2901 29.22 20.3901 17.88 23.9201 17.88H28.2701C29.7701 17.88 31.1901 18.64 31.9701 19.92C37.6401 29.18 35.5101 57.2 35.5101 57.2L35.5001 57.19Z" fill="#74E0C1"/>
<path d="M9.2599 54.23C9.4799 55.86 8.3299 57.35 6.6999 57.57C5.3599 57.75 4.1099 57.01 3.5899 55.83C3.4799 55.58 3.3999 55.3 3.3599 55.01C3.2699 54.3 3.1999 53.61 3.1499 52.92L9.1299 53.14C9.1599 53.5 9.1999 53.87 9.2499 54.23H9.2599Z" fill="#FADDDC"/>
<path d="M21.26 22.62C22.3 23.89 22.11 25.76 20.85 26.8C20.72 26.91 7.77001 37.76 9.15001 53.13L3.17001 52.91C1.95001 34.79 16.45 22.72 17.09 22.19C18.36 21.15 20.23 21.34 21.27 22.61L21.26 22.62Z" fill="#FADDDC"/>
<path d="M23.9199 17.8799C23.9199 17.8799 18.6199 17.7299 15.0899 21.5599C11.5599 25.3899 8.67993 29.2899 8.67993 29.2899C8.67993 29.2899 16.4099 35.2499 16.7099 35.2499C17.0099 35.2499 27.0899 24.4299 27.0899 24.4299C27.0899 24.4299 26.5599 18.9099 23.9199 17.8799Z" fill="#74E0C1"/>
<path d="M30.3999 35.35L28.0299 35.19L27.9899 34.11L29.4299 34.21L27.9299 28.38L28.5199 28.04L30.3999 35.35Z" fill="white"/>
<path d="M24.9701 31.94L24.3201 31.88C24.2901 30.78 24.5201 28.72 25.6401 28.74C25.6601 28.74 25.6701 28.74 25.6901 28.74C26.8301 28.82 27.3201 30.54 27.4301 31.45L26.8001 31.54C26.7801 31.37 26.5601 29.81 25.7101 29.82C24.9201 29.8 24.9701 31.92 24.9701 31.94Z" fill="white"/>
<path d="M30.6601 31.39L30.0101 31.33C29.9801 30.23 30.2101 28.17 31.3301 28.19C32.4801 28.22 33.0101 29.98 33.1101 30.9L32.4801 30.99C32.4601 30.82 32.2701 29.27 31.3901 29.27C30.6001 29.25 30.6501 31.37 30.6501 31.39H30.6601Z" fill="white"/>
<path d="M29.43 39.7399C26.21 39.5299 25.72 34.9899 25.72 34.9399L26.36 34.8799C26.38 35.0299 26.76 38.4899 29.39 38.6599C31.76 38.8199 31.68 34.7399 31.68 34.5699L32.33 34.6299C32.38 36.4699 31.85 39.8999 29.44 39.7399H29.43Z" fill="white"/>
<path d="M23.01 17.92C23.01 17.92 25.45 20.78 27.56 20.66C29.14 20.57 29.46 19.45 29.64 18.97C29.82 18.49 29.67 18.09 29.67 18.09L28.89 17.9H23.99L23.02 17.92H23.01Z" fill="#65CEAE"/>
<path d="M23.74 3.80005H34.13V13.1C34.13 14.92 32.65 16.4 30.83 16.4H29.78C29.27 16.4 28.85 16.81 28.85 17.33V18.24C28.85 19.4 27.61 20.13 26.59 19.58L23.94 18.14L23.73 3.80005H23.74Z" fill="#FADDDC"/>
<path d="M33.82 13.27L34.42 13.1C34.96 12.95 35.28 12.38 35.13 11.84L34.3 8.87999C34.24 8.64999 34 8.51999 33.78 8.58999C33.56 8.65999 33.42 8.88999 33.49 9.10999L34.21 11.67C34.3 11.98 34.12 12.3 33.81 12.38L33.6 12.44C33.37 12.5 33.24 12.74 33.31 12.96C33.38 13.18 33.61 13.32 33.83 13.25L33.82 13.27Z" fill="#E0B1BB"/>
<path d="M32.36 8.84003C32.36 9.15003 32.11 9.40003 31.8 9.40003C31.49 9.40003 31.24 9.15003 31.24 8.84003C31.24 8.53003 31.49 8.28003 31.8 8.28003C32.11 8.28003 32.36 8.53003 32.36 8.84003Z" fill="#757570"/>
<path d="M27.37 0.560039C25.81 1.18004 23.3 2.49004 22.81 5.61004C22.56 7.20004 23.65 11.88 23.65 11.88C23.8 12.38 24.16 13.23 24.27 13.27L24.44 13.12L25 10.89C25.38 10.89 26.8 8.73004 26.8 9.11004V9.69004V9.67004L26.81 10.15C26.81 10.35 26.97 10.51 27.17 10.51C27.37 10.51 27.53 10.35 27.53 10.15V8.59004C27.53 7.98004 27.42 7.23004 27.75 6.73004C28.04 6.29004 28.46 5.69004 29.3 5.49004C30.14 5.29004 31.89 5.45004 32.9 5.21004C34.43 4.85004 34.86 2.77004 34.48 1.30004C34.16 0.0300393 30.03 -0.489961 27.37 0.560039Z" fill="#3E2967"/>
<path d="M34.3401 1.85999C34.4201 1.88999 35.3301 2.21999 35.3501 3.38999C35.3701 4.55999 34.4701 7.71999 34.4701 7.71999C34.4701 7.71999 34.6101 4.67999 33.6501 4.56999C32.6901 4.45999 34.3301 1.85999 34.3301 1.85999H34.3401Z" fill="#3E2967"/>
<path d="M26.8599 8.54997C26.8599 8.01977 26.4301 7.58997 25.8999 7.58997C25.3697 7.58997 24.9399 8.01977 24.9399 8.54997V10.64C24.9399 11.1702 25.3697 11.6 25.8999 11.6C26.4301 11.6 26.8599 11.1702 26.8599 10.64V8.54997Z" fill="#FADDDC"/>
</g>
<defs>
<clipPath id="clip0_9_875">
<rect width="56.06" height="106.16" fill="white"/>
</clipPath>
</defs>
</svg>
