<svg width="53" height="108" viewBox="0 0 53 108" fill="none" xmlns="http://www.w3.org/2000/svg">
<g clip-path="url(#clip0_134_1368)">
<path d="M21.9199 54.9599L37.9399 53.9399L26.4399 74.9899L31.1799 95.9499L28.8299 96.6899V98.7299C29.0099 100.16 29.0099 101.09 27.4899 101.92L23.5799 102.92C22.8099 102.98 22.4499 102.03 23.0499 101.38C23.4499 100.95 24.2899 100.65 24.6499 100.17C26.2199 98.0499 25.3999 97.5499 25.0999 96.2099C23.3099 88.1999 16.8899 74.6799 16.8899 74.6799L21.9299 54.9499L21.9199 54.9599Z" fill="#291B4C"/>
<path d="M26.3799 53.02L41.9499 53.39L39.1499 102.11L36.8299 102.86C36.8199 103.45 36.8299 104.44 37.0799 104.98C37.4399 105.78 37.7899 107.04 36.5899 107.46L30.4999 107.91C29.7399 107.76 29.5999 106.4 30.2999 105.93C30.7599 105.62 32.0299 105.07 32.5099 104.79C33.4899 104.2 33.4499 103.13 33.2599 101.75C31.8799 91.78 26.3899 53.01 26.3899 53.01L26.3799 53.02Z" fill="#3E2C6D"/>
<path d="M2.23003 42.04C0.64003 42.45 -0.31997 44.07 0.0900299 45.66C0.43003 46.97 1.58003 47.85 2.86003 47.89C3.14003 47.89 3.42003 47.87 3.71003 47.8C4.40003 47.62 5.07003 47.42 5.73003 47.21L3.29003 41.74C2.94003 41.85 2.59003 41.95 2.23003 42.04Z" fill="#FADDDC"/>
<path d="M27.06 19.09C25.49 18.6 23.83 19.47 23.33 21.04C23.28 21.21 18.05 37.27 3.28003 41.74L5.72003 47.21C22.99 41.56 28.76 23.6 29 22.81C29.49 21.24 28.61 19.58 27.05 19.09H27.06Z" fill="#FADDDC"/>
<path d="M24.1001 19.91L16.6001 31.27L23.4501 38.64L26.7601 26.41L24.1001 19.91Z" fill="#65CEAE"/>
<path d="M20.56 57.19L43.95 56.95L40.77 33.38C40.77 29.22 35.67 17.88 32.14 17.88H27.79C26.29 17.88 24.87 18.64 24.09 19.92C18.42 29.18 20.55 57.2 20.55 57.2L20.56 57.19Z" fill="#74E0C1"/>
<path d="M46.7999 54.23C46.5799 55.86 47.7299 57.35 49.3599 57.57C50.6999 57.75 51.9499 57.01 52.4699 55.83C52.5799 55.58 52.6599 55.3 52.6999 55.01C52.7899 54.3 52.8599 53.61 52.9099 52.92L46.9299 53.14C46.8999 53.5 46.8599 53.87 46.8099 54.23H46.7999Z" fill="#FADDDC"/>
<path d="M34.8001 22.62C33.7601 23.89 33.9501 25.76 35.2101 26.8C35.3401 26.91 48.2901 37.76 46.9101 53.13L52.8901 52.91C54.1101 34.79 39.6101 22.72 38.9701 22.19C37.7001 21.15 35.8301 21.34 34.7901 22.61L34.8001 22.62Z" fill="#FADDDC"/>
<path d="M32.14 17.8799C32.14 17.8799 37.44 17.7299 40.97 21.5599C44.5 25.3899 47.38 29.2899 47.38 29.2899C47.38 29.2899 39.65 35.2499 39.35 35.2499C39.05 35.2499 28.97 24.4299 28.97 24.4299C28.97 24.4299 29.5 18.9099 32.14 17.8799Z" fill="#74E0C1"/>
<path d="M25.6599 35.35L28.0299 35.19L28.0699 34.11L26.6299 34.21L28.1299 28.38L27.5399 28.04L25.6599 35.35Z" fill="white"/>
<path d="M31.0899 31.94L31.7399 31.88C31.7699 30.78 31.5399 28.72 30.4199 28.74C30.3999 28.74 30.3899 28.74 30.3699 28.74C29.2299 28.82 28.7399 30.54 28.6299 31.45L29.2599 31.54C29.2799 31.37 29.4999 29.81 30.3499 29.82C31.1399 29.8 31.0899 31.92 31.0899 31.94Z" fill="white"/>
<path d="M25.4 31.39L26.0499 31.33C26.0799 30.23 25.8499 28.17 24.7299 28.19C23.5799 28.22 23.05 29.98 22.95 30.9L23.58 30.99C23.6 30.82 23.79 29.27 24.67 29.27C25.46 29.25 25.41 31.37 25.41 31.39H25.4Z" fill="white"/>
<path d="M26.6299 39.7399C29.8499 39.5299 30.3399 34.9899 30.3399 34.9399L29.6999 34.8799C29.6799 35.0299 29.2999 38.4899 26.6699 38.6599C24.2999 38.8199 24.3799 34.7399 24.3799 34.5699L23.7299 34.6299C23.6799 36.4699 24.2099 39.8999 26.6199 39.7399H26.6299Z" fill="white"/>
<path d="M33.0499 17.92C33.0499 17.92 30.6099 20.78 28.4999 20.66C26.9199 20.57 26.5999 19.45 26.4199 18.97C26.2399 18.49 26.3899 18.09 26.3899 18.09L27.1699 17.9H32.0699L33.0399 17.92H33.0499Z" fill="#65CEAE"/>
<path d="M32.3199 3.80005H21.9299V13.1C21.9299 14.92 23.4099 16.4 25.2299 16.4H26.2799C26.7899 16.4 27.2099 16.81 27.2099 17.33V18.24C27.2099 19.4 28.4499 20.13 29.4699 19.58L32.1199 18.14L32.3299 3.80005H32.3199Z" fill="#FADDDC"/>
<path d="M22.2401 13.27L21.6401 13.1C21.1001 12.95 20.7801 12.38 20.9301 11.84L21.7601 8.87999C21.8201 8.64999 22.0601 8.51999 22.2801 8.58999C22.5001 8.65999 22.6401 8.88999 22.5701 9.10999L21.8501 11.67C21.7601 11.98 21.9401 12.3 22.2501 12.38L22.4601 12.44C22.6901 12.5 22.8201 12.74 22.7501 12.96C22.6801 13.18 22.4501 13.32 22.2301 13.25L22.2401 13.27Z" fill="#E0B1BB"/>
<path d="M23.7 8.84003C23.7 9.15003 23.95 9.40003 24.26 9.40003C24.57 9.40003 24.82 9.15003 24.82 8.84003C24.82 8.53003 24.57 8.28003 24.26 8.28003C23.95 8.28003 23.7 8.53003 23.7 8.84003Z" fill="#757570"/>
<path d="M28.6899 0.560039C30.2499 1.18004 32.7599 2.49004 33.2499 5.61004C33.4999 7.20004 32.4099 11.88 32.4099 11.88C32.2599 12.38 31.8999 13.23 31.7899 13.27L31.6199 13.12L31.0599 10.89C30.6799 10.89 29.2599 8.73004 29.2599 9.11004V9.69004V9.67004L29.2499 10.15C29.2499 10.35 29.0899 10.51 28.8899 10.51C28.6899 10.51 28.5299 10.35 28.5299 10.15V8.59004C28.5299 7.98004 28.6399 7.23004 28.3099 6.73004C28.0199 6.29004 27.5999 5.69004 26.7599 5.49004C25.9199 5.29004 24.1699 5.45004 23.1599 5.21004C21.6299 4.85004 21.1999 2.77004 21.5799 1.30004C21.8999 0.0300393 26.0299 -0.489961 28.6899 0.560039Z" fill="#3E2967"/>
<path d="M21.72 1.85999C21.64 1.88999 20.73 2.21999 20.71 3.38999C20.69 4.55999 21.59 7.71999 21.59 7.71999C21.59 7.71999 21.45 4.67999 22.41 4.56999C23.37 4.45999 21.73 1.85999 21.73 1.85999H21.72Z" fill="#3E2967"/>
<path d="M29.2099 10.65C29.2099 11.1802 29.6397 11.61 30.1699 11.61C30.7001 11.61 31.1299 11.1802 31.1299 10.65V8.55999C31.1299 8.02979 30.7001 7.59999 30.1699 7.59999C29.6397 7.59999 29.2099 8.02979 29.2099 8.55999V10.65Z" fill="#FADDDC"/>
</g>
<defs>
<clipPath id="clip0_134_1368">
<rect width="52.98" height="107.91" fill="white"/>
</clipPath>
</defs>
</svg>
