<svg width="25" height="102" viewBox="0 0 25 102" fill="none" xmlns="http://www.w3.org/2000/svg">
<g clip-path="url(#clip0_134_1211)">
<path d="M17.7799 46.53L6.88989 47.83L15.0499 68.68L10.3099 89.64L12.6599 90.38V92.42C12.4799 93.85 12.4799 94.78 13.9999 95.61L17.9099 96.61C18.6799 96.67 19.0399 95.72 18.4399 95.07C18.0399 94.64 17.1999 94.34 16.8399 93.86C15.2699 91.74 16.0899 91.24 16.3899 89.9C18.1799 81.89 24.5999 68.37 24.5999 68.37L17.7799 46.52V46.53Z" fill="#56564C"/>
<path d="M13.84 46.7099L0.719971 47.08L2.33997 95.8L4.65997 96.55C4.66997 97.14 4.65997 98.1299 4.40997 98.6699C4.04997 99.4699 3.69997 100.73 4.89997 101.15L10.99 101.6C11.75 101.45 11.89 100.09 11.19 99.62C10.73 99.31 9.45997 98.76 8.97997 98.48C7.99997 97.89 8.03997 96.82 8.22997 95.44C9.60997 85.47 13.83 46.7 13.83 46.7L13.84 46.7099Z" fill="#757570"/>
<path d="M20.1099 51.95H1.62992C0.669922 51.95 -0.0900777 51.12 -7.76583e-05 50.16L2.32992 25.95C2.32992 21.79 4.73992 18.41 8.26992 18.41H12.6199C14.1199 18.41 15.5399 19.17 16.3199 20.45C21.9899 29.71 20.0999 51.96 20.0999 51.96L20.1099 51.95Z" fill="#502489"/>
<path d="M8.46996 4.06995H18.86V13.3699C18.86 15.1899 17.38 16.6699 15.56 16.6699H14.51C14 16.6699 13.58 17.0799 13.58 17.5999V18.5099C13.58 19.6699 12.34 20.3999 11.32 19.8499L8.66996 18.4099L8.45996 4.06995H8.46996Z" fill="#FADDDC"/>
<path d="M18.1801 13.8L18.7801 13.63C19.3201 13.48 19.6401 12.91 19.4901 12.37L18.6601 9.41002C18.6001 9.18002 18.3601 9.05002 18.1401 9.12002C17.9201 9.19002 17.7801 9.42002 17.8501 9.64002L18.5701 12.2C18.6601 12.51 18.4801 12.83 18.1701 12.91L17.9601 12.97C17.7301 13.03 17.6001 13.27 17.6701 13.49C17.7401 13.71 17.9701 13.85 18.1901 13.78L18.1801 13.8Z" fill="#E0B1BB"/>
<path d="M7.46997 8.72002V4.81002C7.46997 3.95002 8.15997 3.26002 9.01997 3.26002H9.95997V1.60002H14.19C14.72 0.430024 16.03 -0.299976 17.46 0.120024C18.32 0.370024 19.01 1.07002 19.25 1.93002C19.73 3.66002 18.53 5.22002 16.92 5.38002V5.41002H15.23H13.61C12.95 5.41002 12.42 5.94002 12.42 6.60002V8.40002C12.42 9.17002 11.8 9.79002 11.03 9.79002L9.71997 9.89002L9.85997 9.79002L9.70997 13.79L9.15997 13.77C8.21997 13.73 7.46997 12.95 7.46997 12.01V8.73002V8.72002Z" fill="#3E2967"/>
<path d="M18.0899 13.77L18.6499 13.65C18.9599 13.99 18.9699 14.1 18.9699 14.68L18.6099 14.57C18.4099 14.5 18.1899 14.5 17.9899 14.55L16.3899 14.98L16.6799 14.49C17.0799 14.01 17.5099 13.77 18.0899 13.77Z" fill="#3E2967"/>
<path d="M17.3301 16.08C17.5001 16.04 17.8101 15.77 17.8101 15.77C18.1701 16.11 17.8701 16.93 16.9001 17.32C16.9001 17.32 15.5601 17.24 15.5601 16.67L16.3801 16.29L17.3201 16.09L17.3301 16.08Z" fill="#3E2967"/>
<path d="M16.7201 9.37006C16.7201 9.68006 16.4701 9.93006 16.1601 9.93006C15.8501 9.93006 15.6001 9.68006 15.6001 9.37006C15.6001 9.06006 15.8501 8.81006 16.1601 8.81006C16.4701 8.81006 16.7201 9.06006 16.7201 9.37006Z" fill="#757570"/>
<path d="M10.8801 31.11V31.2C10.8101 31.59 10.8001 31.89 10.8501 32.09C10.8601 32.15 10.9001 32.21 10.9501 32.26C10.9201 32.28 10.8701 32.31 10.7801 32.37C10.7401 32.4 10.7001 32.41 10.6601 32.42C10.5801 32.42 10.5201 32.38 10.4901 32.27C10.4401 32.05 10.4601 31.7 10.5601 31.22L10.5901 31.09H10.5001C10.3001 31.12 10.1601 31.17 10.0701 31.26C10.0701 30.98 10.1801 30.84 10.4301 30.81H10.6601L10.6901 30.7C10.7901 30.3 10.9501 29.77 11.1901 29.1C11.2701 28.87 11.3301 28.73 11.3901 28.67C11.4401 28.61 11.5601 28.55 11.7301 28.49C11.7601 28.78 11.8101 29.05 11.8701 29.3C12.0301 29.96 12.2501 30.62 12.5201 31.29C12.6701 31.66 12.8301 31.89 12.9801 31.98C12.9001 32.14 12.8201 32.22 12.7401 32.23C12.5501 32.25 12.3001 31.83 11.9901 30.96C11.8001 31.01 11.6001 31.04 11.4001 31.06L10.9101 31.09L10.8801 31.11ZM10.9401 30.82L11.3101 30.8C11.5601 30.78 11.7501 30.75 11.8701 30.72C11.6801 30.16 11.5401 29.7 11.4501 29.33L11.4101 29.15C11.3901 29.22 11.3301 29.37 11.2501 29.61C11.1001 30.04 11.0001 30.41 10.9601 30.73L10.9401 30.83V30.82Z" fill="#F1F0EC"/>
<path d="M15.01 29.96C14.91 30.61 14.78 31.13 14.62 31.51C14.46 31.89 14.28 32.0901 14.08 32.1101C13.94 32.1201 13.81 32.06 13.69 31.92C13.57 31.78 13.48 31.6001 13.42 31.3601C13.39 31.2301 13.36 31.04 13.34 30.8L13.12 28.3601C13.12 28.3601 13.04 28.38 13 28.39C12.72 28.41 12.55 28.27 12.47 27.96V27.9C12.63 28 12.8 28.0401 12.98 28.0201C13.16 28.0001 13.31 27.93 13.41 27.8L13.69 30.73C13.71 30.99 13.74 31.1701 13.76 31.2701C13.83 31.5401 13.93 31.67 14.08 31.66C14.23 31.65 14.34 31.53 14.44 31.3C14.53 31.07 14.66 30.59 14.82 29.85L15 29.97L15.01 29.96Z" fill="#F1F0EC"/>
<path d="M16.4599 30.12C16.4999 30.2 16.5199 30.28 16.5399 30.36C16.6399 30.76 16.6199 31.12 16.4799 31.44C16.3399 31.76 16.1299 31.93 15.8399 31.95C15.6299 31.97 15.4399 31.9 15.2699 31.74C15.0999 31.58 14.9799 31.38 14.9199 31.11C14.8699 30.92 14.8399 30.64 14.7999 30.28L14.6099 28.21C14.5499 28.23 14.4999 28.24 14.4599 28.25C14.1999 28.27 14.0299 28.1 13.9399 27.74C14.0399 27.83 14.1799 27.87 14.3499 27.86C14.4999 27.85 14.6899 27.78 14.9099 27.65L15.1699 30.54C15.1899 30.74 15.2199 30.91 15.2499 31.05C15.2999 31.25 15.3699 31.4 15.4799 31.52C15.5899 31.64 15.6999 31.69 15.8299 31.68C16.0199 31.66 16.1499 31.54 16.2299 31.29C16.3099 31.05 16.3099 30.77 16.2299 30.44C16.1899 30.28 16.1299 30.12 16.0599 29.98C15.8899 29.93 15.7499 29.85 15.6299 29.75C15.5099 29.65 15.4299 29.55 15.4099 29.45C15.3999 29.39 15.3999 29.32 15.4099 29.23C15.7399 29.23 16.0299 29.4 16.2899 29.73C16.4699 29.82 16.6499 29.85 16.8199 29.84C16.9899 29.83 17.1599 29.74 17.3099 29.58L17.4499 29.77C17.2899 30 17.0799 30.13 16.8199 30.15C16.6999 30.16 16.5799 30.15 16.4699 30.12H16.4599Z" fill="#F1F0EC"/>
<path d="M17.5299 30.72C17.6399 31.19 17.8499 31.41 18.1499 31.38C18.4099 31.36 18.6499 31.17 18.8899 30.81C19.1199 30.45 19.2999 30 19.4199 29.44L19.5999 29.54C19.5099 30.15 19.3199 30.66 19.0299 31.08C18.7499 31.5 18.4299 31.72 18.0999 31.75C17.8799 31.77 17.6899 31.69 17.5199 31.52C17.3499 31.35 17.2299 31.1 17.1499 30.77C17.0399 30.31 17.0599 29.9 17.1999 29.55C17.3499 29.2 17.5799 29.01 17.8999 28.98C18.0499 28.97 18.1899 29.01 18.3099 29.1C18.4299 29.2 18.5099 29.33 18.5499 29.51C18.6199 29.8 18.5499 30.06 18.3399 30.31C18.1299 30.56 17.8599 30.69 17.5299 30.72ZM17.4899 30.49C17.7399 30.45 17.9299 30.34 18.0699 30.15C18.2099 29.96 18.2499 29.75 18.1899 29.52C18.1399 29.32 18.0499 29.22 17.9099 29.23C17.7499 29.24 17.6199 29.37 17.5399 29.62C17.4599 29.87 17.4399 30.16 17.4899 30.49Z" fill="#F1F0EC"/>
<path d="M22.9799 50.73C24.3899 51.57 24.8599 53.39 24.0199 54.8C23.3299 55.96 21.9799 56.48 20.7299 56.17C20.4599 56.1 20.1899 55.99 19.9399 55.84C19.3299 55.48 18.7399 55.1 18.1699 54.71L22.0399 50.14C22.3399 50.34 22.6499 50.53 22.9699 50.72L22.9799 50.73Z" fill="#FADDDC"/>
<path d="M5.10996 22.84C6.74996 22.81 7.43996 24.21 7.47996 25.85C7.47996 26.02 8.01996 42.9 20.96 51.32L14.93 52.04C1.67996 43.6 2.57996 26.27 2.55996 25.44C2.52996 23.8 3.46996 22.87 5.10996 22.84Z" fill="#3E2967"/>
<path d="M5.52989 21.77C7.16989 21.74 8.52989 23.04 8.56989 24.68C8.56989 24.85 9.10989 41.73 22.0499 50.15L18.1799 54.72C3.16989 44.48 2.62989 25.62 2.61989 24.79C2.58989 23.15 3.88989 21.8 5.52989 21.76V21.77Z" fill="#502489"/>
</g>
<defs>
<clipPath id="clip0_134_1211">
<rect width="24.6" height="101.61" fill="white"/>
</clipPath>
</defs>
</svg>
