
    <svg
        width="53"
        height="103"
        viewBox="0 0 53 103"
        fill="none"
        xmlns="http://www.w3.org/2000/svg"
    >
        <g clip-path="url(#clip0_9_811)">
            <path
                d="M2.00002 43.38C0.45002 43.92 -0.36998 45.62 0.17002 47.17C0.61002 48.44 1.84002 49.22 3.12002 49.16C3.40002 49.15 3.68002 49.09 3.96002 49C4.63002 48.77 5.28002 48.51 5.92002 48.24L3.03002 42.99C2.69002 43.12 2.35002 43.25 2.00002 43.38Z"
                fill="#FADDDC"
            />
            <path
                d="M24.82 18.43C23.22 18.07 21.63 19.08 21.27 20.68C21.23 20.85 17.37 37.29 3.03003 42.99L5.92003 48.24C22.65 41.17 26.9 22.79 27.08 21.98C27.43 20.38 26.42 18.8 24.82 18.44V18.43Z"
                fill="#3E2967"
            />
            <path
                d="M23.3899 51.95H35.3699L40.6399 73.7399L52.1799 91.4899L50.4999 92.62C50.7599 93.12 51.2099 93.9199 51.6699 94.2399C52.3499 94.7099 53.2099 95.57 52.3599 96.5299L47.2499 100.04C46.5199 100.31 45.7899 99.26 46.1899 98.51C46.4499 98.01 47.3199 96.91 47.5999 96.43C48.1899 95.4399 47.5699 94.66 46.8899 93.54C42.8299 86.86 33.1399 76.5 33.1399 76.5L23.3999 51.95H23.3899Z"
                fill="#56564C"
            />
            <path
                d="M19.2599 51.95H34.2499L19.2199 76.2399L13.9799 98.6299L11.9899 98.5199L11.2599 100.3C10.5299 102.29 10.4899 103.11 8.87992 102.52L4.91992 101.45C4.18992 101.18 4.19992 100.2 4.98992 99.8899C5.50992 99.68 6.33992 99.58 6.88992 99.5C8.94992 99.2099 8.52992 97.85 8.72992 96.55C9.94992 88.83 10.2299 82.69 11.7099 74.87C12.5499 70.39 19.2499 51.9599 19.2499 51.9599L19.2599 51.95Z"
                fill="#757570"
            />
            <path
                d="M16.7599 51.95H35.2299C36.1899 51.95 36.9499 51.12 36.8599 50.16L34.5299 25.95C34.5299 21.79 32.1199 18.41 28.5899 18.41H24.2399C22.7399 18.41 21.3199 19.17 20.5399 20.45C14.8699 29.71 16.7599 51.96 16.7599 51.96V51.95Z"
                fill="#502489"
            />
            <path
                d="M39.4801 51.52C39.2601 53.15 40.4101 54.64 42.0401 54.86C43.3801 55.04 44.6301 54.3 45.1501 53.12C45.2601 52.87 45.3401 52.59 45.3801 52.3C45.4701 51.59 45.5401 50.9 45.5901 50.21L39.6101 50.43C39.5801 50.79 39.5401 51.16 39.4901 51.52H39.4801Z"
                fill="#FADDDC"
            />
            <path
                d="M27.48 19.91C26.44 21.18 26.63 23.05 27.89 24.09C28.02 24.2 40.97 35.05 39.59 50.42L45.57 50.2C46.79 32.08 32.29 20.01 31.65 19.48C30.38 18.44 28.51 18.63 27.47 19.9L27.48 19.91Z"
                fill="#502489"
            />
            <path
                d="M28.39 4.06995H18V13.3699C18 15.1899 19.48 16.6699 21.3 16.6699H22.35C22.86 16.6699 23.28 17.0799 23.28 17.5999V18.5099C23.28 19.6699 24.52 20.3999 25.54 19.8499L28.19 18.4099L28.4 4.06995H28.39Z"
                fill="#FADDDC"
            />
            <path
                d="M18.69 13.8L18.09 13.63C17.55 13.48 17.23 12.91 17.38 12.37L18.21 9.41002C18.27 9.18002 18.51 9.05002 18.73 9.12002C18.95 9.19002 19.09 9.42002 19.02 9.64002L18.3 12.2C18.21 12.51 18.39 12.83 18.7 12.91L18.91 12.97C19.14 13.03 19.27 13.27 19.2 13.49C19.13 13.71 18.9 13.85 18.68 13.78L18.69 13.8Z"
                fill="#E0B1BB"
            />
            <path
                d="M29.4001 8.72002V4.81002C29.4001 3.95002 28.7101 3.26002 27.8501 3.26002H26.9101V1.60002H22.6801C22.1501 0.430024 20.8401 -0.299976 19.4101 0.120024C18.5501 0.370024 17.8601 1.07002 17.6201 1.93002C17.1401 3.66002 18.3401 5.22002 19.9501 5.38002V5.41002H23.2601C23.9201 5.41002 24.4501 5.94002 24.4501 6.60002V8.40002C24.4501 9.17002 25.0701 9.79002 25.8401 9.79002L27.1501 9.89002L27.0101 9.79002L27.1601 13.79L27.7101 13.77C28.6501 13.73 29.4001 12.95 29.4001 12.01V8.73002V8.72002Z"
                fill="#3E2967"
            />
            <path
                d="M18.7699 13.77L18.2099 13.65C17.8999 13.99 17.8899 14.1 17.8899 14.68L18.2499 14.57C18.4499 14.5 18.6699 14.5 18.8699 14.55L20.4699 14.98L20.1799 14.49C19.7799 14.01 19.3499 13.77 18.7699 13.77Z"
                fill="#3E2967"
            />
            <path
                d="M19.5399 16.08C19.3699 16.04 19.0599 15.77 19.0599 15.77C18.6999 16.11 18.9999 16.93 19.9699 17.32C19.9699 17.32 21.3099 17.24 21.3099 16.67L20.4899 16.29L19.5499 16.09L19.5399 16.08Z"
                fill="#3E2967"
            />
            <path
                d="M20.1499 9.37006C20.1499 9.68006 20.3999 9.93006 20.7099 9.93006C21.0199 9.93006 21.2699 9.68006 21.2699 9.37006C21.2699 9.06006 21.0199 8.81006 20.7099 8.81006C20.3999 8.81006 20.1499 9.06006 20.1499 9.37006Z"
                fill="#757570"
            />
            <path
                d="M25.4899 31.08C25.2899 31.06 25.0899 31.03 24.8999 30.98C24.5899 31.84 24.3399 32.26 24.1499 32.25C24.0699 32.25 23.9899 32.16 23.9099 32C24.0599 31.9 24.2199 31.67 24.3699 31.31C24.6499 30.64 24.8599 29.98 25.0199 29.32C25.0799 29.07 25.1299 28.8 25.1599 28.51C25.3399 28.57 25.4499 28.63 25.4999 28.69C25.5499 28.75 25.6199 28.89 25.6999 29.12C25.9299 29.79 26.0999 30.33 26.1999 30.72L26.2299 30.82H26.4599C26.7099 30.85 26.8299 31 26.8199 31.28C26.7299 31.19 26.5899 31.13 26.3899 31.12H26.2999L26.3299 31.24C26.4299 31.71 26.4499 32.06 26.3999 32.29C26.3699 32.4 26.3199 32.45 26.2299 32.44C26.1899 32.44 26.1499 32.42 26.1099 32.39C26.0199 32.33 25.9599 32.29 25.9399 32.28C25.9899 32.23 26.0199 32.17 26.0399 32.11C26.0899 31.9 26.0799 31.61 26.0199 31.22V31.13L25.5099 31.1L25.4899 31.08ZM25.9099 30.72C25.8699 30.41 25.7699 30.03 25.6199 29.6C25.5399 29.36 25.4799 29.21 25.4599 29.14L25.4199 29.32C25.3299 29.69 25.1899 30.15 24.9999 30.71C25.1299 30.74 25.3199 30.77 25.5599 30.79L25.9299 30.81L25.9099 30.71V30.72Z"
                fill="#F1F0EC"
            />
            <path
                d="M22.0401 29.84C22.2001 30.58 22.3301 31.06 22.4201 31.29C22.5101 31.52 22.6301 31.64 22.7801 31.65C22.9301 31.66 23.0401 31.53 23.1001 31.26C23.1201 31.16 23.1501 30.98 23.1701 30.72L23.4501 27.79C23.5601 27.92 23.7001 28 23.8801 28.01C24.0601 28.02 24.2401 27.99 24.4101 27.89V27.95C24.3201 28.26 24.1501 28.4 23.8701 28.38C23.8301 28.38 23.8001 28.37 23.7501 28.35L23.5301 30.79C23.5101 31.03 23.4801 31.22 23.4501 31.35C23.3901 31.58 23.3001 31.77 23.1801 31.91C23.0601 32.05 22.9301 32.11 22.7901 32.1C22.6001 32.08 22.4201 31.89 22.2501 31.5C22.0801 31.12 21.9501 30.6 21.8601 29.95L22.0401 29.83V29.84Z"
                fill="#F1F0EC"
            />
            <path
                d="M20.0499 30.15C19.7899 30.13 19.5799 30 19.4199 29.77L19.5599 29.58C19.7099 29.74 19.8699 29.83 20.0499 29.84C20.2299 29.85 20.3999 29.82 20.5799 29.73C20.8299 29.4 21.1199 29.24 21.4599 29.23C21.4699 29.32 21.4699 29.39 21.4599 29.45C21.4299 29.55 21.3599 29.66 21.2399 29.75C21.1199 29.85 20.9699 29.93 20.8099 29.98C20.7299 30.13 20.6799 30.28 20.6399 30.44C20.5599 30.76 20.5599 31.05 20.6399 31.29C20.7199 31.53 20.8499 31.66 21.0399 31.68C21.1599 31.69 21.2799 31.64 21.3899 31.52C21.4999 31.4 21.5699 31.25 21.6199 31.05C21.6599 30.9 21.6799 30.73 21.6999 30.54L21.9599 27.65C22.1799 27.78 22.3699 27.84 22.5199 27.86C22.6899 27.87 22.8299 27.84 22.9299 27.74C22.8399 28.1 22.6699 28.27 22.4099 28.25C22.3699 28.25 22.3199 28.23 22.2599 28.21L22.0699 30.28C22.0399 30.64 21.9999 30.92 21.9499 31.11C21.8899 31.37 21.7699 31.58 21.5999 31.74C21.4299 31.9 21.2399 31.96 21.0299 31.95C20.7399 31.93 20.5299 31.75 20.3899 31.44C20.2499 31.13 20.2299 30.76 20.3299 30.36C20.3499 30.28 20.3799 30.2 20.4099 30.12C20.2899 30.15 20.1799 30.16 20.0599 30.15H20.0499Z"
                fill="#F1F0EC"
            />
            <path
                d="M18.53 30.31C18.32 30.07 18.26 29.8 18.32 29.51C18.36 29.34 18.44 29.2 18.56 29.1C18.68 29 18.81 28.96 18.97 28.98C19.29 29.01 19.52 29.2 19.67 29.55C19.82 29.9 19.84 30.31 19.72 30.77C19.64 31.09 19.52 31.34 19.35 31.52C19.18 31.7 18.99 31.77 18.77 31.75C18.43 31.72 18.12 31.5 17.84 31.08C17.56 30.66 17.37 30.15 17.27 29.54L17.45 29.44C17.57 30 17.75 30.45 17.98 30.81C18.21 31.17 18.46 31.35 18.72 31.38C19.02 31.41 19.22 31.18 19.34 30.72C19 30.69 18.73 30.55 18.53 30.31ZM19.33 29.62C19.25 29.37 19.13 29.24 18.96 29.23C18.82 29.22 18.73 29.31 18.68 29.52C18.62 29.75 18.67 29.96 18.8 30.15C18.94 30.34 19.13 30.46 19.38 30.49C19.43 30.15 19.41 29.86 19.33 29.62Z"
                fill="#F1F0EC"
            />
        </g>
        <defs>
            <clipPath id="clip0_9_811">
                <rect width="52.71" height="102.7" fill="white" />
            </clipPath>
        </defs>
    </svg>
