<svg width="43" height="104" viewBox="0 0 43 104" fill="none" xmlns="http://www.w3.org/2000/svg">
<g clip-path="url(#clip0_134_1170)">
<path d="M5.73998 51.8101H32.47L24.73 98.0901C24.64 98.9601 24.26 99.9801 25.21 100.75C25.74 101.18 26.3 101.57 26.83 102C27.45 102.51 27.13 103.64 26.36 103.64L21.37 102.62C19.13 102.15 19.44 100.57 19.88 99.3501C20.17 98.5401 20.35 97.7001 20.38 96.8401C20.55 91.9601 20 65.1701 19.89 60.2001C19.89 59.7601 19.52 59.4101 19.07 59.4101C18.65 59.4101 18.3 59.7201 18.26 60.1401C17.76 64.8101 14.99 90.4001 14.77 91.2001C14.42 92.4501 13.01 92.2701 12.52 91.3401C12.1 90.5401 11.68 87.2701 11.6 86.6301H10.2L5.72998 51.8101H5.73998Z" fill="#757570"/>
<path d="M34.7599 56.3399C34.2499 58.0499 35.2199 59.8499 36.9299 60.3599C38.3399 60.7799 39.7999 60.1999 40.5599 59.0299C40.7299 58.7799 40.8599 58.4899 40.9499 58.1899C41.1699 57.4499 41.3599 56.7099 41.5299 55.9799L35.0699 55.1899C34.9699 55.5699 34.8699 55.9599 34.7599 56.3399Z" fill="#FADDDC"/>
<path d="M27.3099 20.35C25.9699 21.53 25.8499 23.58 27.0299 24.91C27.1599 25.05 39.1899 38.92 35.0799 55.19L41.5399 55.98C45.9599 36.73 32.4599 21.28 31.8699 20.61C30.6799 19.28 28.6499 19.16 27.3099 20.34V20.35Z" fill="#502489"/>
<path d="M6.36006 48.03C6.83006 49.35 6.14006 50.79 4.83006 51.26C3.75006 51.65 2.58006 51.26 1.94006 50.37C1.80006 50.18 1.69006 49.96 1.60006 49.73C1.40006 49.16 1.22006 48.59 1.06006 48.03L6.08006 47.15C6.17006 47.45 6.27006 47.74 6.37006 48.04L6.36006 48.03Z" fill="#FADDDC"/>
<path d="M10.7101 19.61C11.8001 20.48 11.9801 22.07 11.1101 23.16C11.0201 23.28 2.19011 34.61 6.06011 47.15L1.04011 48.03C-3.19988 33.17 6.71011 20.55 7.15012 20C8.02011 18.91 9.61011 18.74 10.7001 19.61H10.7101Z" fill="#502489"/>
<path d="M32.63 51.82H5.69995V25.82C5.69995 21.66 6.00995 18.28 13.24 18.28H23.9C28.06 18.28 32.6199 17.79 32.6199 25.82V51.82H32.63Z" fill="#502489"/>
<path d="M12.76 31.84L12.72 31.92C12.54 32.25 12.45 32.5 12.45 32.69C12.45 32.74 12.47 32.8 12.51 32.85C12.48 32.86 12.4 32.89 12.28 32.93C12.23 32.95 12.17 32.96 12.12 32.96C12.02 32.96 11.97 32.91 11.97 32.82C11.97 32.63 12.09 32.33 12.33 31.93L12.4 31.82H12.29C12.06 31.82 11.88 31.86 11.76 31.93C11.83 31.69 12 31.57 12.29 31.57H12.55L12.61 31.49C12.83 31.16 13.17 30.71 13.62 30.15C13.77 29.96 13.89 29.84 13.96 29.8C14.04 29.75 14.18 29.71 14.4 29.67C14.36 29.92 14.34 30.16 14.34 30.37C14.34 30.95 14.41 31.53 14.54 32.12C14.61 32.44 14.72 32.65 14.87 32.75C14.74 32.88 14.63 32.95 14.53 32.95C14.31 32.95 14.14 32.57 14.02 31.81C13.79 31.84 13.56 31.85 13.32 31.85H12.75L12.76 31.84ZM12.91 31.59H13.33C13.62 31.6 13.84 31.59 14 31.57C13.94 31.08 13.9 30.67 13.9 30.35V30.19C13.86 30.25 13.75 30.38 13.59 30.57C13.3 30.93 13.08 31.24 12.95 31.51L12.91 31.59Z" fill="#F1F0EC"/>
<path d="M17.79 31.1601C17.5 31.7101 17.21 32.1401 16.92 32.4601C16.63 32.7701 16.37 32.9301 16.14 32.9301C15.98 32.9301 15.84 32.8701 15.74 32.7401C15.64 32.6101 15.59 32.4501 15.59 32.2401C15.59 32.1301 15.61 31.9601 15.65 31.7501L16.07 29.6401C16.02 29.6401 15.97 29.6501 15.93 29.6501C15.61 29.6501 15.45 29.5201 15.45 29.2501V29.2001C15.62 29.3001 15.81 29.3401 16.02 29.3401C16.23 29.3401 16.42 29.2901 16.58 29.1801L16.09 31.7101C16.05 31.9401 16.03 32.0901 16.03 32.1801C16.03 32.4201 16.12 32.5301 16.29 32.5301C16.46 32.5301 16.63 32.4301 16.8 32.2501C16.97 32.0601 17.25 31.6501 17.64 31.0401L17.81 31.1601H17.79Z" fill="#F1F0EC"/>
<path d="M19.4099 31.4099C19.4299 31.4799 19.4399 31.5499 19.4399 31.6199C19.4399 31.9699 19.3199 32.2799 19.0699 32.5399C18.8199 32.7999 18.5299 32.9299 18.1999 32.9299C17.9599 32.9299 17.7599 32.8599 17.5999 32.7099C17.4499 32.5599 17.3699 32.3799 17.3699 32.1499C17.3699 31.9799 17.3999 31.7399 17.4599 31.4299L17.8099 29.6499C17.7399 29.6599 17.6799 29.6699 17.6299 29.6699C17.3299 29.6699 17.1799 29.5099 17.1799 29.1999C17.2699 29.2899 17.4199 29.3299 17.6199 29.3299C17.7999 29.3299 18.0299 29.2799 18.3199 29.1899L17.8199 31.6799C17.7899 31.8499 17.7699 31.9999 17.7699 32.1299C17.7699 32.2999 17.8199 32.4399 17.9099 32.5499C17.9999 32.6599 18.1199 32.7099 18.2699 32.7099C18.4899 32.7099 18.6799 32.6099 18.8299 32.4099C18.9799 32.2099 19.0599 31.9699 19.0599 31.6899C19.0599 31.5499 19.0399 31.4099 18.9899 31.2799C18.8099 31.2199 18.6699 31.1499 18.5599 31.0499C18.4499 30.9599 18.3899 30.8599 18.3899 30.7699C18.3899 30.7199 18.4099 30.6599 18.4499 30.5799C18.8299 30.6099 19.1199 30.7699 19.3099 31.0699C19.4899 31.1599 19.6799 31.1999 19.8899 31.1999C20.0999 31.1999 20.3099 31.1399 20.5199 31.0099L20.6299 31.1799C20.3899 31.3599 20.1099 31.4599 19.8099 31.4599C19.6699 31.4599 19.5399 31.4399 19.4099 31.4099Z" fill="#F1F0EC"/>
<path d="M20.46 32C20.46 32.41 20.63 32.61 20.98 32.61C21.28 32.61 21.61 32.47 21.98 32.18C22.34 31.89 22.67 31.52 22.96 31.05L23.14 31.15C22.87 31.66 22.51 32.09 22.07 32.42C21.63 32.76 21.21 32.92 20.82 32.92C20.57 32.92 20.37 32.84 20.22 32.68C20.07 32.52 20 32.3 20 32.01C20 31.6 20.13 31.26 20.4 30.97C20.67 30.68 20.99 30.54 21.36 30.54C21.54 30.54 21.69 30.59 21.79 30.68C21.9 30.77 21.95 30.89 21.95 31.05C21.95 31.3 21.8 31.52 21.5 31.72C21.2 31.92 20.85 32.01 20.46 32.01V32ZM20.48 31.8C20.77 31.78 21.02 31.7 21.23 31.55C21.44 31.4 21.54 31.22 21.54 31.02C21.54 30.84 21.46 30.75 21.3 30.75C21.11 30.75 20.93 30.85 20.77 31.06C20.61 31.26 20.51 31.51 20.47 31.8H20.48Z" fill="#F1F0EC"/>
<path d="M23.0701 32.8601C22.9701 32.9101 22.9001 32.93 22.8401 32.93C22.7001 32.93 22.6201 32.8701 22.6201 32.7401C22.6201 32.6801 22.6501 32.52 22.7001 32.26L22.8101 31.74C22.8701 31.43 22.9101 31.2 22.9101 31.05C22.9101 30.97 22.8901 30.9 22.8401 30.85C22.9901 30.8 23.1101 30.7701 23.2001 30.7701C23.3001 30.7701 23.3501 30.83 23.3501 30.96C23.3501 31.04 23.3201 31.24 23.2501 31.57L23.1301 32.18C23.3901 31.67 23.6601 31.27 23.9301 30.98C24.2001 30.69 24.4401 30.55 24.6601 30.55C24.7401 30.55 24.8001 30.5701 24.8601 30.6201C24.9201 30.6601 24.9401 30.7201 24.9401 30.7801C24.9401 30.8801 24.8301 31.01 24.6201 31.17C24.5701 31.06 24.4901 31 24.3901 31C24.2101 31 23.9901 31.19 23.7101 31.57C23.5401 31.81 23.3901 32.05 23.2601 32.3C23.1301 32.55 23.0701 32.7301 23.0701 32.8301V32.87V32.8601Z" fill="#F1F0EC"/>
<path d="M26.4901 32.05C26.5301 32.12 26.5501 32.18 26.5501 32.23C26.5501 32.37 26.4301 32.52 26.2001 32.69C25.9701 32.86 25.7601 32.94 25.5701 32.94C25.4001 32.94 25.2601 32.87 25.1601 32.71C25.0501 32.56 25.0001 32.37 25.0001 32.13C25.0001 31.87 25.0701 31.49 25.2101 31L25.3101 30.65H24.9501C24.8001 30.65 24.6801 30.67 24.6001 30.71C24.6801 30.56 24.7501 30.47 24.8001 30.43C24.8501 30.39 24.9401 30.37 25.0701 30.37H25.3901L25.4301 30.22C25.4901 30 25.5701 29.85 25.6601 29.77C25.7501 29.69 25.8801 29.65 26.0601 29.65C26.0801 29.65 26.1101 29.65 26.1601 29.65C26.0501 29.79 25.9401 30.03 25.8201 30.36H26.9301C27.1201 30.36 27.2701 30.33 27.3801 30.28C27.3501 30.42 27.3001 30.52 27.2401 30.56C27.1801 30.6 27.0701 30.63 26.9201 30.63H25.7401C25.7401 30.63 25.7201 30.71 25.7101 30.73C25.5401 31.31 25.4601 31.74 25.4601 32.04C25.4601 32.36 25.5801 32.53 25.8101 32.53C25.9301 32.53 26.0601 32.48 26.2001 32.38C26.3401 32.28 26.4401 32.16 26.5001 32.03L26.4901 32.05Z" fill="#F1F0EC"/>
<path d="M16.0701 4.06995H26.4601V13.3699C26.4601 15.1899 24.9801 16.6699 23.1601 16.6699H22.1101C21.6001 16.6699 21.1801 17.0799 21.1801 17.5999V18.5399C21.1801 19.9399 20.0401 21.0799 18.6401 21.0799C17.2401 21.0799 16.1001 19.9499 16.1001 18.5499L16.0601 4.07995L16.0701 4.06995Z" fill="#FADDDC"/>
<path d="M23.0999 13.67H23.7299C24.2899 13.67 24.7499 13.21 24.7499 12.65V9.58003C24.7499 9.35003 24.5599 9.16003 24.3299 9.16003C24.0999 9.16003 23.9099 9.35003 23.9099 9.58003V12.24C23.9099 12.56 23.6499 12.82 23.3299 12.82H23.1099C22.8799 12.82 22.6899 13.01 22.6899 13.24C22.6899 13.47 22.8799 13.66 23.1099 13.66L23.0999 13.67Z" fill="#E0B1BB"/>
<path d="M15.0701 8.72004V4.81004C15.0701 3.95004 15.7601 3.26004 16.6201 3.26004H17.5601V1.60004H21.7901C22.2901 0.490039 23.5201 -0.229961 24.8701 0.0700395C25.8801 0.290039 26.7001 1.13004 26.9001 2.15004C27.2301 3.80004 26.0601 5.23004 24.5201 5.38004V5.41004H22.8301H18.6901C18.0301 5.41004 17.5001 5.94004 17.5001 6.60004V8.40004C17.5001 9.17004 16.8801 9.79004 16.1101 9.79004H16.1001C16.1001 9.79004 16.1001 9.79004 16.0901 9.79004V11.77H15.0701V8.73004V8.72004Z" fill="#3E2967"/>
<path d="M22.7399 13.67H24.0799C24.6599 13.67 25.1399 14.14 25.1399 14.73V14.9L23.9099 14.48C23.7099 14.41 23.4899 14.41 23.2899 14.46L21.6899 14.89V14.72C21.6899 14.14 22.1599 13.66 22.7499 13.66L22.7399 13.67Z" fill="#3E2967"/>
<path d="M23.3199 16.08C23.4899 16.04 23.6599 16.06 23.8299 16.11L24.3999 16.32V16.49C24.3999 17.07 23.9299 17.55 23.3399 17.55H23.2499C22.6699 17.55 22.1899 17.08 22.1899 16.49V16.32L23.3199 16.08Z" fill="#3E2967"/>
<path d="M21.38 9.52997C21.38 9.83997 21.13 10.09 20.82 10.09C20.51 10.09 20.26 9.83997 20.26 9.52997C20.26 9.21997 20.51 8.96997 20.82 8.96997C21.13 8.96997 21.38 9.21997 21.38 9.52997Z" fill="#757570"/>
</g>
<defs>
<clipPath id="clip0_134_1170">
<rect width="42.43" height="103.64" fill="white"/>
</clipPath>
</defs>
</svg>
