<svg width="43" height="104" viewBox="0 0 43 104" fill="none" xmlns="http://www.w3.org/2000/svg">
<g clip-path="url(#clip0_134_1149)">
<path d="M36.3999 51.8101H9.66992L17.4099 98.0901C17.4999 98.9601 17.8799 99.9801 16.9299 100.75C16.3999 101.18 15.8399 101.57 15.3099 102C14.6899 102.51 15.0099 103.64 15.7799 103.64L20.7699 102.62C23.0099 102.15 22.6999 100.57 22.2599 99.3501C21.9699 98.5401 21.7899 97.7001 21.7599 96.8401C21.5899 91.9601 22.1399 65.1701 22.2499 60.2001C22.2499 59.7601 22.6199 59.4101 23.0699 59.4101C23.4899 59.4101 23.8399 59.7201 23.8799 60.1401C24.3799 64.8101 27.1499 90.4001 27.3699 91.2001C27.7199 92.4501 29.1299 92.2701 29.6199 91.3401C30.0399 90.5401 30.4599 87.2701 30.5399 86.6301H31.9399L36.4099 51.8101H36.3999Z" fill="#757570"/>
<path d="M7.65989 56.3399C8.16989 58.0499 7.19989 59.8499 5.48989 60.3599C4.07989 60.7799 2.61989 60.1999 1.85989 59.0299C1.68989 58.7799 1.55989 58.4899 1.46989 58.1899C1.24989 57.4499 1.05989 56.7099 0.889893 55.9799L7.34989 55.1899C7.44989 55.5699 7.54989 55.9599 7.65989 56.3399Z" fill="#FADDDC"/>
<path d="M15.12 20.35C16.46 21.53 16.58 23.58 15.4 24.91C15.27 25.05 3.24001 38.92 7.35001 55.19L0.890009 55.98C-3.52999 36.73 9.96001 21.28 10.56 20.61C11.75 19.28 13.78 19.16 15.12 20.34V20.35Z" fill="#502489"/>
<path d="M36.07 48.03C35.6 49.35 36.29 50.79 37.6 51.26C38.68 51.65 39.85 51.26 40.49 50.37C40.63 50.18 40.74 49.96 40.83 49.73C41.03 49.16 41.21 48.59 41.37 48.03L36.35 47.15C36.26 47.45 36.16 47.74 36.06 48.04L36.07 48.03Z" fill="#FADDDC"/>
<path d="M31.7101 19.61C30.6201 20.48 30.4401 22.07 31.3101 23.16C31.4001 23.28 40.2301 34.61 36.3601 47.15L41.3801 48.03C45.6201 33.17 35.7101 20.55 35.2701 20C34.4001 18.91 32.8101 18.74 31.7201 19.61H31.7101Z" fill="#502489"/>
<path d="M36.5499 51.82H9.62988V25.82C9.62988 21.66 9.93988 18.28 17.1699 18.28H27.8299C31.9899 18.28 36.5499 17.79 36.5499 25.82V51.82Z" fill="#502489"/>
<path d="M16.6899 31.84L16.6499 31.92C16.4699 32.25 16.3799 32.5 16.3799 32.69C16.3799 32.74 16.3999 32.8 16.4399 32.85C16.4099 32.86 16.3299 32.89 16.2099 32.93C16.1599 32.95 16.0999 32.96 16.0499 32.96C15.9499 32.96 15.8999 32.91 15.8999 32.82C15.8999 32.63 16.0199 32.33 16.2599 31.93L16.3299 31.82H16.2199C15.9899 31.82 15.8099 31.86 15.6899 31.93C15.7599 31.69 15.9299 31.57 16.2199 31.57H16.4799L16.5399 31.49C16.7599 31.16 17.0999 30.71 17.5499 30.15C17.6999 29.96 17.8199 29.84 17.8899 29.8C17.9699 29.75 18.1099 29.71 18.3299 29.67C18.2899 29.92 18.2699 30.16 18.2699 30.37C18.2699 30.95 18.3399 31.53 18.4699 32.12C18.5399 32.44 18.6499 32.65 18.7999 32.75C18.6699 32.88 18.5599 32.95 18.4599 32.95C18.2399 32.95 18.0699 32.57 17.9499 31.81C17.7199 31.84 17.4899 31.85 17.2499 31.85H16.6799L16.6899 31.84ZM16.8399 31.59H17.2599C17.5499 31.6 17.7699 31.59 17.9299 31.57C17.8699 31.08 17.8299 30.67 17.8299 30.35V30.19C17.7899 30.25 17.6799 30.38 17.5199 30.57C17.2299 30.93 17.0099 31.24 16.8799 31.51L16.8399 31.59Z" fill="#F1F0EC"/>
<path d="M21.7199 31.1601C21.4299 31.7101 21.1399 32.1401 20.8499 32.4601C20.5599 32.7701 20.2999 32.9301 20.0699 32.9301C19.9099 32.9301 19.7699 32.8701 19.6699 32.7401C19.5699 32.6101 19.5199 32.4501 19.5199 32.2401C19.5199 32.1301 19.5399 31.9601 19.5799 31.7501L19.9999 29.6401C19.9499 29.6401 19.8999 29.6501 19.8599 29.6501C19.5399 29.6501 19.3799 29.5201 19.3799 29.2501V29.2001C19.5499 29.3001 19.7399 29.3401 19.9499 29.3401C20.1599 29.3401 20.3499 29.2901 20.5099 29.1801L20.0199 31.7101C19.9799 31.9401 19.9599 32.0901 19.9599 32.1801C19.9599 32.4201 20.0499 32.5301 20.2199 32.5301C20.3899 32.5301 20.5599 32.4301 20.7299 32.2501C20.8999 32.0601 21.1799 31.6501 21.5699 31.0401L21.7399 31.1601H21.7199Z" fill="#F1F0EC"/>
<path d="M23.3401 31.4099C23.3601 31.4799 23.3701 31.5499 23.3701 31.6199C23.3701 31.9699 23.2501 32.2799 23.0001 32.5399C22.7501 32.7999 22.4601 32.9299 22.1301 32.9299C21.8901 32.9299 21.6901 32.8599 21.5301 32.7099C21.3801 32.5599 21.3001 32.3799 21.3001 32.1499C21.3001 31.9799 21.3301 31.7399 21.3901 31.4299L21.7401 29.6499C21.6701 29.6599 21.6101 29.6699 21.5601 29.6699C21.2601 29.6699 21.1101 29.5099 21.1101 29.1999C21.2001 29.2899 21.3501 29.3299 21.5501 29.3299C21.7301 29.3299 21.9601 29.2799 22.2501 29.1899L21.7501 31.6799C21.7201 31.8499 21.7001 31.9999 21.7001 32.1299C21.7001 32.2999 21.7501 32.4399 21.8401 32.5499C21.9301 32.6599 22.0501 32.7099 22.2001 32.7099C22.4201 32.7099 22.6101 32.6099 22.7601 32.4099C22.9101 32.2099 22.9901 31.9699 22.9901 31.6899C22.9901 31.5499 22.9701 31.4099 22.9201 31.2799C22.7401 31.2199 22.6001 31.1499 22.4901 31.0499C22.3801 30.9599 22.3201 30.8599 22.3201 30.7699C22.3201 30.7199 22.3401 30.6599 22.3801 30.5799C22.7601 30.6099 23.0501 30.7699 23.2401 31.0699C23.4201 31.1599 23.6101 31.1999 23.8201 31.1999C24.0301 31.1999 24.2401 31.1399 24.4501 31.0099L24.5601 31.1799C24.3201 31.3599 24.0401 31.4599 23.7401 31.4599C23.6001 31.4599 23.4701 31.4399 23.3401 31.4099Z" fill="#F1F0EC"/>
<path d="M24.3899 32C24.3899 32.41 24.5599 32.61 24.9099 32.61C25.2099 32.61 25.5399 32.47 25.9099 32.18C26.2699 31.89 26.5999 31.52 26.8899 31.05L27.0699 31.15C26.7999 31.66 26.4399 32.09 25.9999 32.42C25.5599 32.76 25.1399 32.92 24.7499 32.92C24.4999 32.92 24.2999 32.84 24.1499 32.68C23.9999 32.52 23.9299 32.3 23.9299 32.01C23.9299 31.6 24.0599 31.26 24.3299 30.97C24.5999 30.68 24.9199 30.54 25.2899 30.54C25.4699 30.54 25.6199 30.59 25.7199 30.68C25.8299 30.77 25.8799 30.89 25.8799 31.05C25.8799 31.3 25.7299 31.52 25.4299 31.72C25.1299 31.92 24.7799 32.01 24.3899 32.01V32ZM24.4099 31.8C24.6999 31.78 24.9499 31.7 25.1599 31.55C25.3699 31.4 25.4699 31.22 25.4699 31.02C25.4699 30.84 25.3899 30.75 25.2299 30.75C25.0399 30.75 24.8599 30.85 24.6999 31.06C24.5399 31.26 24.4399 31.51 24.3999 31.8H24.4099Z" fill="#F1F0EC"/>
<path d="M27 32.8601C26.9 32.9101 26.8301 32.93 26.7701 32.93C26.6301 32.93 26.55 32.8701 26.55 32.7401C26.55 32.6801 26.58 32.52 26.63 32.26L26.74 31.74C26.8 31.43 26.84 31.2 26.84 31.05C26.84 30.97 26.8201 30.9 26.7701 30.85C26.9201 30.8 27.04 30.7701 27.13 30.7701C27.23 30.7701 27.2801 30.83 27.2801 30.96C27.2801 31.04 27.25 31.24 27.18 31.57L27.06 32.18C27.32 31.67 27.5901 31.27 27.8601 30.98C28.1301 30.69 28.37 30.55 28.59 30.55C28.67 30.55 28.7301 30.5701 28.7901 30.6201C28.8501 30.6601 28.8701 30.7201 28.8701 30.7801C28.8701 30.8801 28.76 31.01 28.55 31.17C28.5 31.06 28.42 31 28.32 31C28.14 31 27.92 31.19 27.64 31.57C27.47 31.81 27.3201 32.05 27.1901 32.3C27.0601 32.55 27 32.7301 27 32.8301V32.87V32.8601Z" fill="#F1F0EC"/>
<path d="M30.41 32.05C30.45 32.12 30.47 32.18 30.47 32.23C30.47 32.37 30.35 32.52 30.12 32.69C29.89 32.86 29.68 32.94 29.49 32.94C29.32 32.94 29.18 32.87 29.08 32.71C28.97 32.56 28.92 32.37 28.92 32.13C28.92 31.87 28.99 31.49 29.13 31L29.23 30.65H28.87C28.72 30.65 28.6 30.67 28.52 30.71C28.6 30.56 28.67 30.47 28.72 30.43C28.77 30.39 28.86 30.37 28.99 30.37H29.31L29.35 30.22C29.41 30 29.49 29.85 29.58 29.77C29.67 29.69 29.8 29.65 29.98 29.65C30 29.65 30.03 29.65 30.08 29.65C29.97 29.79 29.86 30.03 29.74 30.36H30.85C31.04 30.36 31.19 30.33 31.3 30.28C31.27 30.42 31.22 30.52 31.16 30.56C31.1 30.6 30.99 30.63 30.84 30.63H29.66C29.66 30.63 29.64 30.71 29.63 30.73C29.46 31.31 29.38 31.74 29.38 32.04C29.38 32.36 29.5 32.53 29.73 32.53C29.85 32.53 29.98 32.48 30.12 32.38C30.26 32.28 30.36 32.16 30.42 32.03L30.41 32.05Z" fill="#F1F0EC"/>
<path d="M19.99 4.06995H30.38V13.3699C30.38 15.1899 28.9 16.6699 27.08 16.6699H26.03C25.52 16.6699 25.1 17.0799 25.1 17.5999V18.5399C25.1 19.9399 23.96 21.0799 22.56 21.0799C21.16 21.0799 20.02 19.9499 20.02 18.5499L19.98 4.07995L19.99 4.06995Z" fill="#FADDDC"/>
<path d="M27.0201 13.67H27.6501C28.2101 13.67 28.6701 13.21 28.6701 12.65V9.58003C28.6701 9.35003 28.4801 9.16003 28.2501 9.16003C28.0201 9.16003 27.8301 9.35003 27.8301 9.58003V12.24C27.8301 12.56 27.5701 12.82 27.2501 12.82H27.0301C26.8001 12.82 26.6101 13.01 26.6101 13.24C26.6101 13.47 26.8001 13.66 27.0301 13.66L27.0201 13.67Z" fill="#E0B1BB"/>
<path d="M18.99 8.72004V4.81004C18.99 3.95004 19.68 3.26004 20.54 3.26004H21.48V1.60004H25.71C26.21 0.490039 27.44 -0.229961 28.79 0.0700395C29.8 0.290039 30.62 1.13004 30.82 2.15004C31.15 3.80004 29.98 5.23004 28.44 5.38004V5.41004H26.75H22.61C21.95 5.41004 21.42 5.94004 21.42 6.60004V8.40004C21.42 9.17004 20.8 9.79004 20.03 9.79004H20.02C20.02 9.79004 20.02 9.79004 20.01 9.79004V11.77H18.99V8.73004V8.72004Z" fill="#3E2967"/>
<path d="M26.6701 13.67H28.0101C28.5901 13.67 29.0701 14.14 29.0701 14.73V14.9L27.8401 14.48C27.6401 14.41 27.4201 14.41 27.2201 14.46L25.6201 14.89V14.72C25.6201 14.14 26.0901 13.66 26.6801 13.66L26.6701 13.67Z" fill="#3E2967"/>
<path d="M27.2501 16.08C27.4201 16.04 27.5901 16.06 27.7601 16.11L28.3301 16.32V16.49C28.3301 17.07 27.8601 17.55 27.2701 17.55H27.1801C26.6001 17.55 26.1201 17.08 26.1201 16.49V16.32L27.2501 16.08Z" fill="#3E2967"/>
<path d="M25.3099 9.52997C25.3099 9.83997 25.0599 10.09 24.7499 10.09C24.4399 10.09 24.1899 9.83997 24.1899 9.52997C24.1899 9.21997 24.4399 8.96997 24.7499 8.96997C25.0599 8.96997 25.3099 9.21997 25.3099 9.52997Z" fill="#757570"/>
</g>
<defs>
<clipPath id="clip0_134_1149">
<rect width="42.43" height="103.64" fill="white"/>
</clipPath>
</defs>
</svg>
