
    <svg
        width="61"
        height="107"
        viewBox="0 0 61 107"
        fill="none"
        xmlns="http://www.w3.org/2000/svg"
    >
        <g clip-path="url(#clip0_9_708)">
            <path
                d="M6.45003 55.1801C6.77003 56.7901 5.72003 58.3601 4.11003 58.6701C2.79003 58.9301 1.49003 58.2701 0.900029 57.1301C0.770029 56.8801 0.670029 56.6101 0.620029 56.3301C0.480029 55.6301 0.370029 54.9401 0.280029 54.2601L6.27003 54.1001C6.33003 54.4601 6.39003 54.8201 6.46003 55.1801H6.45003Z"
                fill="#FADDDC"
            />
            <path
                d="M16.42 22.8701C17.54 24.0701 17.47 25.9501 16.27 27.0701C16.14 27.1901 3.91001 38.84 6.25001 54.09L0.260011 54.25C-2.09999 36.24 11.61 23.2801 12.21 22.7101C13.41 21.5901 15.29 21.6701 16.41 22.8701H16.42Z"
                fill="#502489"
            />
            <path
                d="M55.0101 1.94998C55.5801 0.409984 57.2901 -0.380016 58.8301 0.179984C60.1001 0.649984 60.8601 1.87998 60.7701 3.15998C60.7501 3.43998 60.6901 3.71998 60.5901 3.98998C60.3401 4.65998 60.0801 5.30998 59.8001 5.93998L54.6001 2.95998C54.7401 2.61998 54.8801 2.28998 55.0001 1.93998L55.0101 1.94998Z"
                fill="#FADDDC"
            />
            <path
                d="M29.6899 24.36C29.3599 22.75 30.3899 21.18 31.9999 20.85C32.1699 20.81 48.6699 17.22 54.6099 2.97998L59.8099 5.95998C52.4599 22.57 34.0099 26.52 33.1999 26.68C31.5899 27.01 30.0299 25.97 29.6999 24.37L29.6899 24.36Z"
                fill="#502489"
            />
            <path
                d="M23.43 54.22H38.05V100.12V100.14V100.17V101.53C38.05 102.21 38.32 102.85 38.79 103.21C39.35 103.64 39.89 104.1 40.42 104.58C41.05 105.14 40.72 106.37 39.94 106.37H35.98C35.26 106.37 34.64 105.77 34.47 104.91L32.67 95.93C31.46 89.64 30.31 83.3 29.23 76.89C28.47 72.4 27.76 67.91 27.09 63.44C26.94 62.46 26.21 61.74 25.36 61.74H23.82C22.97 61.74 22.24 62.46 22.09 63.44C21.41 67.91 20.7 72.4 19.95 76.89C18.63 84.74 17.21 92.5 15.69 100.17C15.44 101.45 15.88 102.78 16.77 103.5C17.2 103.85 17.63 104.21 18.05 104.59C18.68 105.16 18.35 106.39 17.58 106.39H14.24C12.53 106.39 11.14 104.67 11.14 102.55V54.21H23.44L23.43 54.22Z"
                fill="#757570"
            />
            <path
                d="M38.06 54.22H11.13V28.22C11.13 24.06 11.44 20.68 18.67 20.68H30.51C34.67 20.68 38.05 20.19 38.05 28.22V54.22H38.06Z"
                fill="#502489"
            />
            <path
                d="M18.1899 34.2399L18.1499 34.3199C17.9699 34.6499 17.8799 34.8999 17.8799 35.0899C17.8799 35.1399 17.8999 35.1999 17.9399 35.2499C17.9099 35.2599 17.8299 35.2899 17.7099 35.3299C17.6599 35.3499 17.5999 35.3599 17.5499 35.3599C17.4499 35.3599 17.3999 35.3099 17.3999 35.2199C17.3999 35.0299 17.5199 34.7299 17.7599 34.3299L17.8299 34.2199H17.7199C17.4899 34.2199 17.3099 34.2599 17.1899 34.3299C17.2599 34.0899 17.4299 33.9699 17.7199 33.9699H17.9799L18.0399 33.8899C18.2599 33.5599 18.5999 33.1099 19.0499 32.5499C19.1999 32.3599 19.3199 32.2399 19.3899 32.1999C19.4699 32.1499 19.6099 32.1099 19.8299 32.0699C19.7899 32.3199 19.7699 32.5599 19.7699 32.7699C19.7699 33.3499 19.8399 33.9299 19.9699 34.5199C20.0399 34.8399 20.1499 35.0499 20.2999 35.1499C20.1699 35.2799 20.0599 35.3499 19.9599 35.3499C19.7399 35.3499 19.5699 34.9699 19.4499 34.2099C19.2199 34.2399 18.9899 34.2499 18.7499 34.2499H18.1799L18.1899 34.2399ZM18.3399 33.9899H18.7599C19.0499 33.9999 19.2699 33.9899 19.4299 33.9699C19.3699 33.4799 19.3299 33.0699 19.3299 32.7499V32.5899C19.2899 32.6499 19.1799 32.7799 19.0199 32.9699C18.7299 33.3299 18.5099 33.6399 18.3799 33.9099L18.3399 33.9899Z"
                fill="#F1F0EC"
            />
            <path
                d="M23.22 33.56C22.93 34.11 22.64 34.54 22.35 34.86C22.06 35.17 21.8 35.33 21.57 35.33C21.41 35.33 21.27 35.27 21.17 35.14C21.07 35.01 21.02 34.85 21.02 34.64C21.02 34.53 21.04 34.36 21.08 34.15L21.5 32.04C21.45 32.04 21.4 32.05 21.36 32.05C21.04 32.05 20.88 31.92 20.88 31.65V31.6C21.05 31.7 21.24 31.74 21.45 31.74C21.66 31.74 21.85 31.69 22.01 31.58L21.52 34.11C21.48 34.34 21.46 34.49 21.46 34.58C21.46 34.82 21.55 34.93 21.72 34.93C21.89 34.93 22.06 34.83 22.23 34.65C22.4 34.46 22.68 34.05 23.07 33.44L23.24 33.56H23.22Z"
                fill="#F1F0EC"
            />
            <path
                d="M24.84 33.81C24.86 33.88 24.87 33.95 24.87 34.02C24.87 34.37 24.75 34.68 24.5 34.94C24.25 35.2 23.96 35.33 23.63 35.33C23.39 35.33 23.19 35.26 23.03 35.11C22.88 34.96 22.8 34.78 22.8 34.55C22.8 34.38 22.83 34.14 22.89 33.83L23.24 32.05C23.17 32.06 23.11 32.07 23.06 32.07C22.76 32.07 22.61 31.91 22.61 31.6C22.7 31.69 22.85 31.73 23.05 31.73C23.23 31.73 23.46 31.68 23.75 31.59L23.25 34.08C23.22 34.25 23.2 34.4 23.2 34.53C23.2 34.7 23.25 34.84 23.34 34.95C23.43 35.06 23.55 35.11 23.7 35.11C23.92 35.11 24.11 35.01 24.26 34.81C24.41 34.61 24.49 34.37 24.49 34.09C24.49 33.95 24.47 33.81 24.42 33.68C24.24 33.62 24.1 33.55 23.99 33.45C23.88 33.36 23.82 33.26 23.82 33.17C23.82 33.12 23.84 33.06 23.88 32.98C24.26 33.01 24.55 33.17 24.74 33.47C24.92 33.56 25.11 33.6 25.32 33.6C25.53 33.6 25.74 33.54 25.95 33.41L26.06 33.58C25.82 33.76 25.54 33.86 25.24 33.86C25.1 33.86 24.97 33.84 24.84 33.81Z"
                fill="#F1F0EC"
            />
            <path
                d="M25.8999 34.3999C25.8999 34.8099 26.0699 35.0099 26.4199 35.0099C26.7199 35.0099 27.0499 34.8699 27.4199 34.5799C27.7799 34.2899 28.1099 33.9199 28.3999 33.4499L28.5799 33.5499C28.3099 34.0599 27.9499 34.4899 27.5099 34.8199C27.0699 35.1599 26.6499 35.3199 26.2599 35.3199C26.0099 35.3199 25.8099 35.2399 25.6599 35.0799C25.5099 34.9199 25.4399 34.6999 25.4399 34.4099C25.4399 33.9999 25.5699 33.6599 25.8399 33.3699C26.1099 33.0799 26.4299 32.9399 26.7999 32.9399C26.9799 32.9399 27.1299 32.9899 27.2299 33.0799C27.3399 33.1699 27.3899 33.2899 27.3899 33.4499C27.3899 33.6999 27.2399 33.9199 26.9399 34.1199C26.6399 34.3199 26.2899 34.4099 25.8999 34.4099V34.3999ZM25.9199 34.1999C26.2099 34.1799 26.4599 34.0999 26.6699 33.9499C26.8799 33.7999 26.9799 33.6199 26.9799 33.4199C26.9799 33.2399 26.8999 33.1499 26.7399 33.1499C26.5499 33.1499 26.3699 33.2499 26.2099 33.4599C26.0499 33.6599 25.9499 33.9099 25.9099 34.1999H25.9199Z"
                fill="#F1F0EC"
            />
            <path
                d="M28.5 35.2599C28.4 35.3099 28.3301 35.33 28.2701 35.33C28.1301 35.33 28.05 35.2699 28.05 35.1399C28.05 35.0799 28.08 34.92 28.13 34.66L28.24 34.1399C28.3 33.8299 28.34 33.6 28.34 33.45C28.34 33.37 28.3201 33.3 28.2701 33.25C28.4201 33.2 28.54 33.1699 28.63 33.1699C28.73 33.1699 28.7801 33.23 28.7801 33.36C28.7801 33.44 28.75 33.64 28.68 33.97L28.56 34.58C28.82 34.07 29.0901 33.67 29.3601 33.38C29.6301 33.09 29.87 32.95 30.09 32.95C30.17 32.95 30.2301 32.97 30.2901 33.02C30.3501 33.06 30.3701 33.12 30.3701 33.18C30.3701 33.28 30.26 33.41 30.05 33.57C30 33.46 29.92 33.4 29.82 33.4C29.64 33.4 29.42 33.59 29.14 33.97C28.97 34.21 28.8201 34.45 28.6901 34.7C28.5601 34.95 28.5 35.13 28.5 35.2299V35.27V35.2599Z"
                fill="#F1F0EC"
            />
            <path
                d="M31.92 34.4501C31.96 34.5201 31.98 34.5801 31.98 34.6301C31.98 34.7701 31.86 34.92 31.63 35.09C31.4 35.26 31.19 35.34 31 35.34C30.83 35.34 30.69 35.2701 30.59 35.1101C30.48 34.9601 30.43 34.77 30.43 34.53C30.43 34.27 30.5 33.8901 30.64 33.4001L30.74 33.05H30.38C30.23 33.05 30.11 33.0701 30.03 33.1101C30.11 32.9601 30.18 32.8701 30.23 32.8301C30.28 32.7901 30.37 32.7701 30.5 32.7701H30.82L30.86 32.62C30.92 32.4 31 32.25 31.09 32.17C31.18 32.09 31.31 32.05 31.49 32.05C31.51 32.05 31.54 32.05 31.59 32.05C31.48 32.19 31.37 32.43 31.25 32.76H32.36C32.55 32.76 32.7 32.73 32.81 32.68C32.78 32.82 32.73 32.92 32.67 32.96C32.61 33 32.5 33.03 32.35 33.03H31.17C31.17 33.03 31.15 33.1101 31.14 33.1301C30.97 33.7101 30.89 34.14 30.89 34.44C30.89 34.76 31.01 34.93 31.24 34.93C31.36 34.93 31.49 34.88 31.63 34.78C31.77 34.68 31.87 34.5601 31.93 34.43L31.92 34.4501Z"
                fill="#F1F0EC"
            />
            <path
                d="M21.5 6.46997H31.89V15.77C31.89 17.59 30.41 19.07 28.59 19.07H27.54C27.03 19.07 26.61 19.48 26.61 20V20.94C26.61 22.34 25.47 23.48 24.07 23.48C22.67 23.48 21.53 22.35 21.53 20.95L21.49 6.47997L21.5 6.46997Z"
                fill="#FADDDC"
            />
            <path
                d="M28.53 16.0701H29.16C29.72 16.0701 30.18 15.6101 30.18 15.0501V11.9801C30.18 11.7501 29.99 11.5601 29.76 11.5601C29.53 11.5601 29.34 11.7501 29.34 11.9801V14.6401C29.34 14.9601 29.08 15.2201 28.76 15.2201H28.54C28.31 15.2201 28.12 15.4101 28.12 15.6401C28.12 15.8701 28.31 16.0601 28.54 16.0601L28.53 16.0701Z"
                fill="#E0B1BB"
            />
            <path
                d="M20.5 11.1199V7.20994C20.5 6.34994 21.19 5.65994 22.05 5.65994H22.99V3.99994H27.22C27.72 2.88994 28.95 2.16994 30.3 2.46994C31.31 2.68994 32.13 3.52994 32.33 4.54994C32.66 6.19994 31.49 7.62994 29.95 7.77994V7.80994H28.26H24.12C23.46 7.80994 22.93 8.33994 22.93 8.99994V10.7999C22.93 11.5699 22.31 12.1899 21.54 12.1899H21.53C21.53 12.1899 21.53 12.1899 21.52 12.1899V14.1699H20.5V11.1299V11.1199Z"
                fill="#3E2967"
            />
            <path
                d="M28.18 16.0701H29.52C30.1 16.0701 30.58 16.5401 30.58 17.1301V17.3001L29.35 16.8801C29.15 16.8101 28.93 16.8101 28.73 16.8601L27.13 17.2901V17.1201C27.13 16.5401 27.6 16.0601 28.19 16.0601L28.18 16.0701Z"
                fill="#3E2967"
            />
            <path
                d="M28.75 18.48C28.92 18.44 29.09 18.46 29.26 18.51L29.83 18.72V18.89C29.83 19.47 29.36 19.95 28.77 19.95H28.68C28.1 19.95 27.62 19.48 27.62 18.89V18.72L28.75 18.48Z"
                fill="#3E2967"
            />
            <path
                d="M26.8099 11.93C26.8099 12.24 26.5599 12.49 26.2499 12.49C25.9399 12.49 25.6899 12.24 25.6899 11.93C25.6899 11.62 25.9399 11.37 26.2499 11.37C26.5599 11.37 26.8099 11.62 26.8099 11.93Z"
                fill="#757570"
            />
        </g>
        <defs>
            <clipPath id="clip0_9_708">
                <rect width="60.77" height="106.39" fill="white" />
            </clipPath>
        </defs>
    </svg>
