<svg width="46" height="107" viewBox="0 0 46 107" fill="none" xmlns="http://www.w3.org/2000/svg">
<g clip-path="url(#clip0_109_911)">
<path d="M16.83 51.67L31.46 51.02L18.8 72.26L24.7 93.03L22.35 93.77V95.81C22.53 97.24 22.53 98.17 21.01 99L17.1 100C16.33 100.06 15.97 99.11 16.57 98.46C16.97 98.03 17.81 97.73 18.17 97.25C19.74 95.13 18.92 94.63 18.62 93.29C16.83 85.28 10.41 71.76 10.41 71.76L16.83 51.66V51.67Z" fill="#291B4C"/>
<path d="M17.74 51.4699L30.14 51.0699L30.5 100.56L28.18 101.31C28.17 101.9 28.18 102.89 28.43 103.43C28.79 104.23 29.14 105.49 27.94 105.91L21.85 106.36C21.09 106.21 20.95 104.85 21.65 104.38C22.11 104.07 23.38 103.52 23.86 103.24C24.84 102.65 24.8 101.58 24.61 100.2C23.23 90.2299 17.74 51.4599 17.74 51.4599V51.4699Z" fill="#3E2C6D"/>
<path d="M39.21 49.0199C39.27 50.6599 40.65 51.9399 42.3 51.8799C43.65 51.8299 44.75 50.8899 45.07 49.6399C45.14 49.3699 45.17 49.0899 45.16 48.7899C45.13 48.0799 45.08 47.3799 45.01 46.6899L39.15 47.9199C39.18 48.2799 39.2 48.6499 39.22 49.0199H39.21Z" fill="#FADDDC"/>
<path d="M22.04 19.89C21.23 21.32 21.73 23.13 23.15 23.94C23.3 24.03 37.89 32.54 39.14 47.92L45 46.69C43.14 28.62 26.81 19.18 26.09 18.77C24.66 17.96 22.85 18.46 22.04 19.89Z" fill="#8FA0C1"/>
<path d="M12.33 52.86H30.8C34.53 52.86 34.34 49.56 34.25 48.6L30.1 24.87C30.1 20.71 27.69 17.33 24.16 17.33H19.81C18.31 17.33 16.89 18.09 16.11 19.37C10.44 28.63 12.33 52.86 12.33 52.86Z" fill="#A4B2D3"/>
<path d="M2.04999 45.96C0.489992 46.47 -0.360008 48.15 0.149992 49.71C0.569992 50.99 1.77999 51.8 3.05999 51.76C3.33999 51.76 3.61999 51.7 3.89999 51.61C4.57999 51.39 5.22999 51.15 5.86999 50.89L3.07999 45.59C2.73999 45.72 2.39999 45.84 2.03999 45.96H2.04999Z" fill="#FADDDC"/>
<path d="M25.35 21.46C23.76 21.07 22.15 22.05 21.76 23.64C21.72 23.81 17.54 40.17 3.08997 45.59L5.87997 50.89C22.75 44.14 27.35 25.85 27.54 25.04C27.92 23.45 26.95 21.84 25.35 21.46Z" fill="#A4B2D3"/>
<path d="M23.86 12.81C24.08 12.81 26.88 11.95 29.65 16.03C31.37 18.55 31.02 20.3 28.3 20.3C25.58 20.3 23.42 19.86 22.09 20.23L17.23 20.79L18.8 19.37L23.75 17.35L23.86 12.82V12.81Z" fill="#A4B2D3"/>
<path d="M23.86 12.8101C24.23 12.8101 26.66 13.0301 26.07 14.2801C25.48 15.5301 23.76 17.3401 23.76 17.3401L23.87 12.8101H23.86Z" fill="#3E2967"/>
<path d="M20.91 20.62C21.1475 20.62 21.34 20.4275 21.34 20.19C21.34 19.9525 21.1475 19.76 20.91 19.76C20.6725 19.76 20.48 19.9525 20.48 20.19C20.48 20.4275 20.6725 20.62 20.91 20.62Z" fill="#5B6882"/>
<path d="M18.89 33.28C19.04 33.3 19.18 33.2 19.21 33.05L21.16 20.24C21.18 20.09 21.08 19.95 20.93 19.92C20.78 19.89 20.64 20 20.61 20.15L18.66 32.96C18.64 33.11 18.74 33.25 18.89 33.28Z" fill="white"/>
<path d="M17.73 20.1701C17.9675 20.1701 18.16 19.9775 18.16 19.7401C18.16 19.5026 17.9675 19.3101 17.73 19.3101C17.4926 19.3101 17.3 19.5026 17.3 19.7401C17.3 19.9775 17.4926 20.1701 17.73 20.1701Z" fill="#5B6882"/>
<path d="M15.72 32.8401C15.87 32.8601 16.01 32.7601 16.04 32.6101L17.99 19.8C18.01 19.65 17.91 19.51 17.76 19.48C17.61 19.45 17.47 19.56 17.44 19.71L15.49 32.5201C15.47 32.6701 15.57 32.8101 15.72 32.8401Z" fill="white"/>
<path d="M18.81 19.37C18.65 19.33 17.81 17.9 17.57 17.58C17.33 17.26 16.43 16.02 17.04 15.2C17.65 14.38 19 14.01 19.31 14.38C19.62 14.75 18.81 19.37 18.81 19.37Z" fill="#A4B2D3"/>
<path d="M23.97 3H14.29V12.3C14.29 14.12 15.67 15.6 17.37 15.6H18.35C18.83 15.6 19.21 16.01 19.21 16.53V20.01L23.78 17.35L23.97 3.01V3Z" fill="#FADDDC"/>
<path d="M15.04 12.73L14.44 12.56C13.9 12.41 13.58 11.84 13.73 11.3L14.56 8.33996C14.62 8.10996 14.86 7.97996 15.08 8.04996C15.3 8.11996 15.44 8.34995 15.37 8.56995L14.65 11.13C14.56 11.44 14.74 11.76 15.05 11.84L15.26 11.9C15.49 11.96 15.62 12.2 15.55 12.42C15.48 12.64 15.25 12.78 15.03 12.71L15.04 12.73Z" fill="#E0B1BB"/>
<path opacity="0.5" d="M17.6 10.14H16.6C15.97 10.14 15.45 9.55996 15.45 8.85996C15.45 8.14996 15.97 7.57996 16.6 7.57996H17.6C18.23 7.57996 18.75 8.15996 18.75 8.85996C18.75 9.56996 18.23 10.14 17.6 10.14Z" fill="white"/>
<path opacity="0.5" d="M13.12 10.14H13.64C13.01 10.14 12.49 9.55996 12.49 8.85996C12.49 8.14996 13.01 7.57996 13.64 7.57996H13.12C13.75 7.57996 14.27 8.15996 14.27 8.85996C14.27 9.56996 13.75 10.14 13.12 10.14Z" fill="white"/>
<path d="M17.84 7.06995H16.32C15.82 7.06995 15.38 7.40995 15.19 7.88995H14.48C14.29 7.40995 13.86 7.06995 13.35 7.06995C12.67 7.06995 12.11 7.68995 12.11 8.44995V9.02995C12.11 9.78995 12.66 10.4099 13.35 10.4099C14.03 10.4099 14.59 9.78995 14.59 9.02995V8.66995H15.08V9.02995C15.08 9.78995 15.63 10.4099 16.32 10.4099H17.84C18.52 10.4099 19.08 9.78995 19.08 9.02995V8.44995C19.08 7.68995 18.53 7.06995 17.84 7.06995ZM13.9 9.02995C13.9 9.35995 13.66 9.63995 13.36 9.63995C13.06 9.63995 12.82 9.36995 12.82 9.02995V8.44995C12.82 8.11995 13.06 7.83995 13.36 7.83995C13.66 7.83995 13.9 8.10995 13.9 8.44995V9.02995ZM18.38 9.02995C18.38 9.35995 18.14 9.63995 17.84 9.63995H16.32C16.02 9.63995 15.78 9.36995 15.78 9.02995V8.44995C15.78 8.11995 16.02 7.83995 16.32 7.83995H17.84C18.14 7.83995 18.38 8.10995 18.38 8.44995V9.02995Z" fill="#9C9E9F"/>
<path d="M25.59 5.71C25.74 4.23 25.23 2.74 24.15 1.7C22.78 0.379998 20.69 -0.320002 17.74 0.139998C17.63 0.159998 17.51 0.139998 17.4 0.139998C14.04 0.139998 12.81 2.85 12.83 4.48C12.85 6.71 14.01 7.32 14.01 7.32C14.01 7.32 14.06 7.32 14.07 7.32C15.06 7.32 14.47 3.36 15.09 3.36C15.71 3.36 15.39 7.38 20.12 7.38C20.48 7.38 20.76 7.67 20.76 8.02V9.17C20.76 9.38 20.93 9.55 21.15 9.55C21.37 9.55 21.54 9.38 21.54 9.17C21.54 8.96 22.46 11.06 23.11 11.92C23.34 12.22 23.97 11.78 23.97 11.78C24.37 11.17 25.33 8.27 25.6 5.73L25.59 5.71Z" fill="#3E2967"/>
<path d="M21.53 10.6001C21.53 11.1303 21.9598 11.5601 22.49 11.5601C23.0201 11.5601 23.45 11.1303 23.45 10.6001V8.51006C23.45 7.97987 23.0201 7.55006 22.49 7.55006C21.9598 7.55006 21.53 7.97987 21.53 8.51006V10.6001Z" fill="#FADDDC"/>
</g>
<defs>
<clipPath id="clip0_109_911">
<rect width="45.16" height="106.37" fill="white"/>
</clipPath>
</defs>
</svg>
