<svg width="44" height="104" viewBox="0 0 44 104" fill="none" xmlns="http://www.w3.org/2000/svg">
<g clip-path="url(#clip0_109_926)">
<path d="M24.34 13.61H19.83V16.89H24.34V13.61Z" fill="#FADDDC"/>
<path d="M27.18 10.0399H26.63V7.54995C26.63 7.14995 26.96 6.81995 27.36 6.81995H27.65C28.05 6.81995 28.38 7.14995 28.38 7.54995L28.04 9.17995C28.04 9.65995 27.65 10.0399 27.18 10.0399Z" fill="#FADDDC"/>
<path d="M16.3 10.0399H16.85V7.54995C16.85 7.14995 16.52 6.81995 16.12 6.81995H15.83C15.43 6.81995 15.1 7.14995 15.1 7.54995L15.44 9.17995C15.44 9.65995 15.83 10.0399 16.3 10.0399Z" fill="#FADDDC"/>
<path d="M23.07 0.210025C21.72 -0.0499749 19.64 -0.349975 18.16 1.23003C16.68 2.81003 15.95 3.84003 15.95 5.26003C15.95 6.68003 16.05 7.89003 16.29 8.84002C16.53 9.79002 17.57 13.01 19.55 14.29C20.5 14.9 23.04 15.28 24.3 14.29C25.56 13.3 26.68 12.01 26.99 9.97003C27.3 7.93003 27.33 7.56003 27.67 6.60003C28.01 5.64003 27.45 3.54002 27.33 3.02003C27.21 2.50003 25.63 0.700025 23.07 0.210025Z" fill="#3E2967"/>
<path d="M6.45003 51.29C6.77003 52.9 5.72003 54.47 4.11003 54.78C2.79003 55.04 1.49003 54.38 0.900029 53.24C0.770029 52.99 0.670029 52.72 0.620029 52.44C0.480029 51.74 0.370029 51.05 0.280029 50.37L6.27003 50.21C6.33003 50.57 6.39003 50.93 6.46003 51.29H6.45003Z" fill="#FADDDC"/>
<path d="M16.42 18.98C17.54 20.18 17.47 22.06 16.27 23.18C16.14 23.3 3.91001 34.95 6.25001 50.2L0.260011 50.36C-2.09999 32.35 11.61 19.39 12.21 18.82C13.41 17.7 15.29 17.78 16.41 18.98H16.42Z" fill="#A4B2D3"/>
<path d="M37.77 47.88C37.66 49.41 38.81 50.74 40.35 50.85C40.42 50.85 40.48 50.85 40.55 50.85C42 50.85 43.22 49.73 43.32 48.27C43.35 47.79 43.38 47.32 43.4 46.85H37.82C37.8 47.19 37.79 47.53 37.77 47.88Z" fill="#FADDDC"/>
<path d="M31.2299 17.92C29.8899 17.18 28.2099 17.66 27.4599 18.99C26.7099 20.32 27.1799 22.02 28.5099 22.78C29.0199 23.07 38.7599 27.57 37.8099 46.86H43.3899C44.3899 24.18 31.8599 18.28 31.2199 17.93L31.2299 17.92Z" fill="#A4B2D3"/>
<path d="M35.81 50.32H8.89001L8.90001 25.86C8.90001 20.83 12.98 16.75 18.01 16.75H26.71C31.74 16.75 35.82 20.83 35.82 25.86L35.8 50.32H35.81Z" fill="#A4B2D3"/>
<path d="M35.81 50.3199H8.89001C8.89001 50.3199 16.96 96.3799 15.62 95.8099C14.98 95.5399 14.58 95.4199 14.05 95.8999C13.42 96.4699 13.9 98.1299 14.46 99.0199L20.17 103.56C22.42 103.04 22.12 101.28 21.67 99.9299C21.38 99.0399 21.2 98.0999 21.17 97.1499C20.98 91.1799 20.05 64.5199 19.9 60.0899C19.86 59.0699 20.72 57.9699 21.58 57.9699H23.12C23.97 57.9699 24.7 58.6999 24.85 59.6999C25.53 64.2499 24.64 67.6699 24.39 81.4899C24.39 81.4899 24.54 85.5799 24.78 86.5599C25.13 87.9399 26.55 87.7499 27.04 86.7199C27.46 85.8299 27.89 82.1999 27.97 81.4999H29.38L35.81 50.3299V50.3199Z" fill="#3E2967"/>
<path d="M18.25 16.3199H26.07C27.2 16.3199 28.12 17.2399 28.12 18.3699V19.0399C28.12 22.3299 25.45 24.9999 22.16 24.9999C18.87 24.9999 16.2 22.3299 16.2 19.0399V18.3699C16.2 17.2399 17.12 16.3199 18.25 16.3199Z" fill="#879CC6"/>
<path d="M18.17 15.66H25.99C27.12 15.66 28.04 16.58 28.04 17.71V18.38C28.04 21.67 25.37 24.34 22.08 24.34C18.79 24.34 16.12 21.67 16.12 18.38V17.71C16.12 16.58 17.04 15.66 18.17 15.66Z" fill="#A4B2D3"/>
</g>
<defs>
<clipPath id="clip0_109_926">
<rect width="43.45" height="103.56" fill="white"/>
</clipPath>
</defs>
</svg>
