<svg width="60" height="103" viewBox="0 0 60 103" fill="none" xmlns="http://www.w3.org/2000/svg">
<g clip-path="url(#clip0_109_962)">
<path d="M2.13993 45.04C0.569928 45.49 -0.340072 47.13 0.119928 48.7C0.489928 49.99 1.65993 50.83 2.93993 50.84C3.21993 50.84 3.49993 50.8 3.77993 50.72C4.45993 50.52 5.11993 50.31 5.76993 50.08L3.18993 44.71C2.84993 44.82 2.49993 44.93 2.14993 45.04H2.13993Z" fill="#FADDDC"/>
<path d="M26.1699 21.55C24.5999 21.11 22.9699 22.02 22.5199 23.59C22.4699 23.76 17.7299 39.86 3.17993 44.72L5.75993 50.09C22.7599 44 27.9899 25.98 28.2099 25.19C28.6499 23.62 27.7399 21.99 26.1699 21.55Z" fill="#A4B2D3"/>
<path d="M49.64 54.59H23.18C22.16 54.59 21.36 53.73 21.43 52.71L22.94 23.21C22.94 21.91 26.52 18.65 30.93 18.65H41.4C47.7001 18.65 49.39 22.55 49.39 27.36L51.39 52.67C51.49 53.7 50.68 54.59 49.64 54.59Z" fill="#A4B2D3"/>
<path d="M53.9099 49.03C53.8099 50.41 54.8499 51.61 56.2299 51.71C56.2899 51.71 56.3499 51.71 56.4099 51.71C57.7099 51.71 58.8099 50.7 58.8999 49.38C58.9299 48.95 58.9499 48.52 58.9699 48.1H53.9499C53.9299 48.41 53.9199 48.71 53.8999 49.02L53.9099 49.03Z" fill="#FADDDC"/>
<path d="M46.17 19.84C44.97 19.17 43.45 19.6 42.78 20.8C42.1 22 42.53 23.52 43.73 24.21C44.19 24.47 54.81 30.75 53.95 48.11H58.97C59.87 27.7 46.74 20.16 46.17 19.84Z" fill="#A4B2D3"/>
<path d="M40.6752 14.619L31.1218 14.2637C29.8966 14.2181 28.8664 15.1744 28.8208 16.3996L28.8193 16.4396C28.7738 17.6648 29.7301 18.695 30.9553 18.7406L40.5087 19.0959C41.7339 19.1415 42.7641 18.1852 42.8096 16.9599L42.8111 16.92C42.8567 15.6947 41.9004 14.6645 40.6752 14.619Z" fill="#A4B2D3"/>
<path d="M35.7501 18.7299L39.7001 16.6899C40.2501 16.4099 40.6001 15.8499 40.6301 15.2299C40.6401 14.8899 40.3801 14.6099 40.0401 14.5899L31.7701 14.2799C31.4301 14.2699 31.1501 14.5299 31.1401 14.8699C31.1201 15.4899 31.4301 16.0699 31.9601 16.3899L35.7601 18.7199L35.7501 18.7299Z" fill="#3E2967"/>
<path d="M38.12 17.5499L38.65 3.11995L31.28 2.84995C29.91 2.79995 28.76 3.86995 28.71 5.22995L28.53 11.21C28.45 13.43 30.18 15.29 32.39 15.37H32.5C32.98 15.39 33.36 15.8 33.35 16.28L33.31 17.32L35.71 18.79L38.12 17.54V17.5499Z" fill="#FADDDC"/>
<path d="M31.53 12.77L30.94 12.75C30.41 12.73 29.99 12.28 30.01 11.75L30.12 8.83998C30.12 8.61998 30.32 8.43998 30.54 8.44998C30.76 8.45998 30.94 8.64998 30.93 8.86998L30.84 11.39C30.83 11.69 31.06 11.95 31.37 11.96H31.58C31.8 11.98 31.98 12.16 31.97 12.39C31.96 12.62 31.77 12.79 31.55 12.78L31.53 12.77Z" fill="#E0B1BB"/>
<path d="M32.88 19.2C33.1174 19.2 33.31 19.0074 33.31 18.77C33.31 18.5325 33.1174 18.34 32.88 18.34C32.6425 18.34 32.45 18.5325 32.45 18.77C32.45 19.0074 32.6425 19.2 32.88 19.2Z" fill="#F1EFEA"/>
<path d="M32.3801 31.99C32.2301 31.99 32.1101 31.85 32.1101 31.7L32.5901 18.76C32.5901 18.61 32.7301 18.49 32.8801 18.49C33.0301 18.49 33.1501 18.63 33.1501 18.78L32.6701 31.72C32.6701 31.87 32.5301 31.99 32.3801 31.99Z" fill="white"/>
<path d="M37.8001 19.38C38.0376 19.38 38.2301 19.1875 38.2301 18.95C38.2301 18.7125 38.0376 18.52 37.8001 18.52C37.5626 18.52 37.3701 18.7125 37.3701 18.95C37.3701 19.1875 37.5626 19.38 37.8001 19.38Z" fill="#F1EFEA"/>
<path d="M37.31 32.1801C37.16 32.1801 37.04 32.0401 37.04 31.8901L37.52 18.9501C37.52 18.8001 37.66 18.6801 37.81 18.6801C37.96 18.6801 38.08 18.8201 38.08 18.9701L37.6 31.9101C37.6 32.0601 37.46 32.1801 37.31 32.1801Z" fill="white"/>
<path opacity="0.5" d="M33.5699 10.65H32.4499C31.7399 10.65 31.1699 10.07 31.1699 9.36997C31.1699 8.65997 31.7499 8.08997 32.4499 8.08997H33.5699C34.2799 8.08997 34.8499 8.66997 34.8499 9.36997C34.8499 10.08 34.2699 10.65 33.5699 10.65Z" fill="white"/>
<path opacity="0.5" d="M28.5599 10.65H28.2099C27.4999 10.65 26.9299 10.07 26.9299 9.36997C26.9299 8.65997 27.5099 8.08997 28.2099 8.08997H28.5599C29.2699 8.08997 29.8399 8.66997 29.8399 9.36997C29.8399 10.08 29.2599 10.65 28.5599 10.65Z" fill="white"/>
<path d="M33.86 7.31006H32.16C31.6 7.31006 31.11 7.65006 30.9 8.13006H30.11C29.9 7.65006 29.41 7.31006 28.85 7.31006H27.92C27.16 7.31006 26.54 7.93006 26.54 8.69006V9.27006C26.54 10.0301 27.16 10.6501 27.92 10.6501H28.85C29.61 10.6501 30.23 10.0301 30.23 9.27006V8.91006H30.78V9.27006C30.78 10.0301 31.4 10.6501 32.16 10.6501H33.86C34.62 10.6501 35.24 10.0301 35.24 9.27006V8.69006C35.24 7.93006 34.62 7.31006 33.86 7.31006ZM29.46 9.27006C29.46 9.60006 29.19 9.88006 28.85 9.88006H27.92C27.59 9.88006 27.31 9.61006 27.31 9.27006V8.69006C27.31 8.36006 27.58 8.08006 27.92 8.08006H28.85C29.18 8.08006 29.46 8.35006 29.46 8.69006V9.27006ZM34.47 9.27006C34.47 9.60006 34.2 9.88006 33.86 9.88006H32.16C31.83 9.88006 31.55 9.61006 31.55 9.27006V8.69006C31.55 8.36006 31.82 8.08006 32.16 8.08006H33.86C34.19 8.08006 34.47 8.35006 34.47 8.69006V9.27006Z" fill="#9C9E9F"/>
<path d="M40.0599 5.71C40.2099 4.23 39.7099 2.74 38.6599 1.7C37.3199 0.379998 35.2899 -0.320002 32.4199 0.139998C32.3099 0.159998 32.1999 0.139998 32.0899 0.139998C28.8199 0.139998 27.6199 2.85 27.6399 4.48C27.6599 6.71 28.7899 7.32 28.7899 7.32C28.7899 7.32 28.8399 7.32 28.8499 7.32C30.6399 7.32 30.3299 3.36 30.9299 3.36C31.5299 3.36 30.5899 7.14 35.9499 7.38C36.2999 7.4 36.5699 7.67 36.5699 8.02V9.17C36.5699 9.38 36.7399 9.55 36.9499 9.55C37.1599 9.55 37.3299 9.38 37.3299 9.17V7.96C37.3299 7.66 37.5499 7.39 37.8499 7.37C38.1699 7.35 38.4299 7.61 38.4299 7.92L38.3299 11.91V11.93C38.7199 11.32 39.7999 8.26 40.0599 5.72V5.71Z" fill="#3E2967"/>
<path d="M49.7301 54.64H22.8101L30.7101 97.04C30.8001 97.89 31.1801 98.88 30.2301 99.63C29.7001 100.05 29.1301 100.43 28.6001 100.85C27.9701 101.35 28.3001 102.45 29.0801 102.45L34.1101 101.45C36.3601 100.99 36.0601 99.45 35.6101 98.26C35.3201 97.47 35.1401 96.65 35.1101 95.81C34.9201 90.56 33.9901 67.12 33.8401 63.22C33.8001 62.33 34.6601 61.36 35.5201 61.36H37.0601C37.9101 61.36 38.6401 62 38.7901 62.88C39.4701 66.88 39.7501 77.7 40.3601 89.11C40.3601 89.11 40.5101 92.71 40.7501 93.56C41.1001 94.78 42.5201 94.6 43.0101 93.7C43.4301 92.92 43.8601 89.73 43.9401 89.11H45.3501L49.7501 54.63L49.7301 54.64Z" fill="#3E2967"/>
</g>
<defs>
<clipPath id="clip0_109_962">
<rect width="59.02" height="102.46" fill="white"/>
</clipPath>
</defs>
</svg>
