<svg width="44" height="104" viewBox="0 0 44 104" fill="none" xmlns="http://www.w3.org/2000/svg">
<g clip-path="url(#clip0_109_941)">
<path d="M19.11 16.88H23.62V13.6H19.11V16.88Z" fill="#FADDDC"/>
<path d="M16.28 10.0399H16.83V7.54995C16.83 7.14995 16.5 6.81995 16.1 6.81995H15.81C15.41 6.81995 15.08 7.14995 15.08 7.54995L15.42 9.17995C15.42 9.65995 15.81 10.0399 16.28 10.0399Z" fill="#FADDDC"/>
<path d="M27.16 10.0399H26.61V7.54995C26.61 7.14995 26.94 6.81995 27.34 6.81995H27.63C28.03 6.81995 28.36 7.14995 28.36 7.54995L28.02 9.17995C28.02 9.65995 27.63 10.0399 27.16 10.0399Z" fill="#FADDDC"/>
<path d="M20.38 0.210025C21.73 -0.0499749 23.81 -0.349975 25.29 1.23003C26.77 2.81003 27.5 3.84003 27.5 5.26003C27.5 6.68003 27.4 7.89003 27.16 8.84002C26.92 9.79002 25.88 13.01 23.9 14.29C22.95 14.9 20.41 15.28 19.15 14.29C17.89 13.3 16.77 12.01 16.46 9.97003C16.15 7.93003 16.12 7.56003 15.78 6.60003C15.44 5.64003 16 3.54002 16.12 3.02003C16.24 2.50003 17.82 0.700025 20.38 0.210025Z" fill="#3E2967"/>
<path d="M37.0101 51.29C36.6901 52.9 37.7401 54.47 39.3501 54.78C40.6701 55.04 41.9701 54.38 42.5601 53.24C42.6901 52.99 42.7901 52.72 42.8401 52.44C42.9801 51.74 43.0901 51.05 43.1801 50.37L37.1901 50.21C37.1301 50.57 37.0701 50.93 37.0001 51.29H37.0101Z" fill="#FADDDC"/>
<path d="M27.03 18.98C25.91 20.18 25.98 22.06 27.18 23.18C27.31 23.3 39.54 34.95 37.2 50.2L43.19 50.36C45.55 32.35 31.84 19.39 31.24 18.82C30.04 17.7 28.16 17.78 27.04 18.98H27.03Z" fill="#A4B2D3"/>
<path d="M5.69006 47.88C5.80006 49.41 4.65006 50.74 3.11006 50.85C3.04006 50.85 2.98006 50.85 2.91006 50.85C1.46006 50.85 0.240059 49.73 0.140059 48.27C0.110059 47.79 0.0800586 47.32 0.0600586 46.85H5.64006C5.66006 47.19 5.67006 47.53 5.69006 47.88Z" fill="#FADDDC"/>
<path d="M12.2201 17.92C13.5601 17.18 15.2401 17.66 15.9901 18.99C16.7401 20.32 16.2701 22.02 14.9401 22.78C14.4301 23.07 4.69005 27.57 5.64005 46.86H0.0600529C-0.949947 24.17 11.5901 18.27 12.2201 17.92Z" fill="#A4B2D3"/>
<path d="M7.65001 50.32H34.57L34.56 25.86C34.56 20.83 30.48 16.75 25.45 16.75H16.75C11.72 16.75 7.64001 20.83 7.64001 25.86L7.66001 50.32H7.65001Z" fill="#A4B2D3"/>
<path d="M7.64001 50.3199H19.94H34.56C34.56 50.3199 26.49 96.3799 27.83 95.8099C28.47 95.5399 28.87 95.4199 29.4 95.8999C30.03 96.4699 29.55 98.1299 28.99 99.0199L23.28 103.56C21.03 103.04 21.33 101.28 21.78 99.9299C22.07 99.0399 22.25 98.0999 22.28 97.1499C22.47 91.1799 23.4 64.5199 23.55 60.0899C23.59 59.0699 22.73 57.9699 21.87 57.9699H20.33C19.48 57.9699 18.75 58.6999 18.6 59.6999C17.92 64.2499 18.81 67.6699 19.06 81.4899C19.06 81.4899 18.91 85.5799 18.67 86.5599C18.32 87.9399 16.9 87.7499 16.41 86.7199C15.99 85.8299 15.56 82.1999 15.48 81.4999H14.07L7.64001 50.3299V50.3199Z" fill="#3E2967"/>
<path d="M21.29 25.01C18 25.01 15.33 22.34 15.33 19.05V18.38C15.33 17.25 16.25 16.33 17.38 16.33H25.2C26.33 16.33 27.25 17.25 27.25 18.38V19.05C27.25 22.34 24.58 25.01 21.29 25.01Z" fill="#879CC6"/>
<path d="M21.37 24.34C18.08 24.34 15.41 21.67 15.41 18.38V17.71C15.41 16.58 16.33 15.66 17.46 15.66L25.28 15.66C26.41 15.66 27.33 16.58 27.33 17.71V18.38C27.33 21.67 24.66 24.34 21.37 24.34Z" fill="#A4B2D3"/>
</g>
<defs>
<clipPath id="clip0_109_941">
<rect width="43.45" height="103.56" fill="white"/>
</clipPath>
</defs>
</svg>
