<svg width="55" height="104" viewBox="0 0 55 104" fill="none" xmlns="http://www.w3.org/2000/svg">
<g clip-path="url(#clip0_109_833)">
<path d="M52.56 42.31C54.11 42.85 54.93 44.55 54.39 46.1C53.95 47.37 52.72 48.15 51.44 48.09C51.16 48.08 50.88 48.02 50.6 47.93C49.93 47.7 49.28 47.44 48.64 47.17L51.53 41.92C51.87 42.05 52.21 42.18 52.56 42.31Z" fill="#FADDDC"/>
<path d="M29.73 17.3601C31.33 17.0001 32.92 18.0101 33.28 19.6101C33.32 19.7801 37.18 36.2201 51.5201 41.9201L48.6301 47.1701C31.9001 40.1001 27.65 21.7201 27.47 20.9101C27.12 19.3101 28.13 17.7301 29.73 17.3701V17.3601Z" fill="#8FA0C1"/>
<path d="M31.1 53.07L19.13 52.61L12.54 74.72L0.00999512 92.42L2.34 94.28C2.06 94.78 1.57 95.6 1.1 95.92C0.409995 96.38 -0.490005 97.25 0.319995 98.28L5.28 102.13C6 102.44 6.77 101.38 6.41 100.58C6.17 100.05 5.35 98.87 5.08 98.37C4.52999 97.32 5.18999 96.53 5.91 95.39C10.24 88.6 20.35 78.21 20.35 78.21L31.09 53.07H31.1Z" fill="#291B4C"/>
<path d="M34.03 51.53L19.11 52.99L35.83 77.07L43.21 99.43L45.99 99.04L46.89 100.81C47.82 102.8 47.94 103.65 49.48 102.88L53.31 101.38C54.01 101.03 53.9 100.02 53.08 99.77C52.54 99.61 51.71 99.58 51.15 99.55C49.07 99.45 49.35 98 49.02 96.68C47.02 88.8 46.12 82.47 43.85 74.52C42.56 69.96 34.01 51.53 34.01 51.53H34.03Z" fill="#3F3072"/>
<path d="M37.79 52.86H19.32C15.59 52.86 15.78 49.56 15.87 48.6L20.02 24.87C20.02 20.71 22.43 17.33 25.96 17.33H30.31C31.81 17.33 33.23 18.09 34.01 19.37C39.68 28.63 37.79 52.86 37.79 52.86Z" fill="#A4B2D3"/>
<path d="M15.08 50.45C15.3 52.08 14.15 53.57 12.52 53.79C11.18 53.97 9.92997 53.23 9.40997 52.05C9.29997 51.8 9.21997 51.52 9.17997 51.23C9.08997 50.52 9.01997 49.83 8.96997 49.14L14.95 49.36C14.98 49.72 15.02 50.09 15.07 50.45H15.08Z" fill="#FADDDC"/>
<path d="M27.0699 18.84C28.1099 20.11 27.9199 21.98 26.6599 23.02C26.5299 23.13 13.5799 33.98 14.9599 49.35L8.97995 49.13C7.75995 31.01 22.2599 18.94 22.8999 18.41C24.1699 17.37 26.0399 17.56 27.0799 18.83L27.0699 18.84Z" fill="#A4B2D3"/>
<path d="M26.26 12.81C26.04 12.81 23.24 11.95 20.47 16.03C18.75 18.55 19.1 20.3 21.82 20.3C24.54 20.3 26.7 19.86 28.03 20.23L32.89 20.79L31.32 19.37L26.37 17.35L26.26 12.82V12.81Z" fill="#A4B2D3"/>
<path d="M26.26 12.8101C25.89 12.8101 23.46 13.0301 24.05 14.2801C24.64 15.5301 26.36 17.3401 26.36 17.3401L26.25 12.8101H26.26Z" fill="#3E2967"/>
<path d="M29.22 20.62C29.4575 20.62 29.65 20.4275 29.65 20.19C29.65 19.9525 29.4575 19.76 29.22 19.76C28.9826 19.76 28.79 19.9525 28.79 20.19C28.79 20.4275 28.9826 20.62 29.22 20.62Z" fill="#5B6882"/>
<path d="M31.2399 33.28C31.0899 33.3 30.9499 33.2 30.92 33.05L28.9699 20.24C28.9499 20.09 29.05 19.95 29.2 19.92C29.35 19.89 29.49 20 29.52 20.15L31.4699 32.96C31.4899 33.11 31.3899 33.25 31.2399 33.28Z" fill="white"/>
<path d="M32.39 20.1701C32.6274 20.1701 32.82 19.9775 32.82 19.7401C32.82 19.5026 32.6274 19.3101 32.39 19.3101C32.1525 19.3101 31.96 19.5026 31.96 19.7401C31.96 19.9775 32.1525 20.1701 32.39 20.1701Z" fill="#5B6882"/>
<path d="M34.41 32.8401C34.26 32.8601 34.12 32.7601 34.09 32.6101L32.14 19.8C32.12 19.65 32.22 19.51 32.37 19.48C32.52 19.45 32.66 19.56 32.69 19.71L34.64 32.5201C34.66 32.6701 34.56 32.8101 34.41 32.8401Z" fill="white"/>
<path d="M31.32 19.37C31.48 19.33 32.32 17.9 32.56 17.58C32.8 17.26 33.7 16.02 33.09 15.2C32.48 14.38 31.13 14.01 30.82 14.38C30.51 14.75 31.32 19.37 31.32 19.37Z" fill="#A4B2D3"/>
<path d="M26.16 3H35.84V12.3C35.84 14.12 34.46 15.6 32.76 15.6H31.78C31.3 15.6 30.92 16.01 30.92 16.53V20.01L26.35 17.35L26.16 3.01V3Z" fill="#FADDDC"/>
<path d="M35.09 12.73L35.69 12.56C36.23 12.41 36.55 11.84 36.4 11.3L35.57 8.33996C35.51 8.10996 35.27 7.97996 35.05 8.04996C34.83 8.11996 34.69 8.34995 34.76 8.56995L35.48 11.13C35.57 11.44 35.39 11.76 35.08 11.84L34.87 11.9C34.64 11.96 34.51 12.2 34.58 12.42C34.65 12.64 34.88 12.78 35.1 12.71L35.09 12.73Z" fill="#E0B1BB"/>
<path opacity="0.5" d="M32.53 10.14H33.53C34.16 10.14 34.68 9.55996 34.68 8.85996C34.68 8.14996 34.16 7.57996 33.53 7.57996H32.53C31.9 7.57996 31.38 8.15996 31.38 8.85996C31.38 9.56996 31.9 10.14 32.53 10.14Z" fill="white"/>
<path opacity="0.5" d="M37.01 10.14H36.49C37.12 10.14 37.64 9.55996 37.64 8.85996C37.64 8.14996 37.12 7.57996 36.49 7.57996H37.01C36.38 7.57996 35.86 8.15996 35.86 8.85996C35.86 9.56996 36.38 10.14 37.01 10.14Z" fill="white"/>
<path d="M31.05 8.44995V9.02995C31.05 9.78995 31.6001 10.4099 32.2901 10.4099H33.8101C34.4901 10.4099 35.05 9.78995 35.05 9.02995V8.66995H35.5401V9.02995C35.5401 9.78995 36.09 10.4099 36.78 10.4099C37.46 10.4099 38.0201 9.78995 38.0201 9.02995V8.44995C38.0201 7.68995 37.47 7.06995 36.78 7.06995C36.28 7.06995 35.8401 7.40995 35.6501 7.88995H34.94C34.75 7.40995 34.3201 7.06995 33.8101 7.06995H32.2901C31.6101 7.06995 31.05 7.68995 31.05 8.44995ZM36.2201 8.44995C36.2201 8.11995 36.46 7.83995 36.76 7.83995C37.06 7.83995 37.3 8.10995 37.3 8.44995V9.02995C37.3 9.35995 37.06 9.63995 36.76 9.63995C36.46 9.63995 36.2201 9.36995 36.2201 9.02995V8.44995ZM31.74 8.44995C31.74 8.11995 31.98 7.83995 32.28 7.83995H33.8C34.1 7.83995 34.34 8.10995 34.34 8.44995V9.02995C34.34 9.35995 34.1 9.63995 33.8 9.63995H32.28C31.98 9.63995 31.74 9.36995 31.74 9.02995V8.44995Z" fill="#9C9E9F"/>
<path d="M24.54 5.71C24.39 4.23 24.9 2.74 25.98 1.7C27.35 0.379998 29.44 -0.320002 32.39 0.139998C32.5 0.159998 32.62 0.139998 32.73 0.139998C36.09 0.139998 37.32 2.85 37.3 4.48C37.28 6.71 36.12 7.32 36.12 7.32C36.12 7.32 36.07 7.32 36.06 7.32C35.07 7.32 35.66 3.36 35.04 3.36C34.42 3.36 34.74 7.38 30.01 7.38C29.65 7.38 29.37 7.67 29.37 8.02V9.17C29.37 9.38 29.2 9.55 28.98 9.55C28.76 9.55 28.59 9.38 28.59 9.17C28.59 8.96 27.67 11.06 27.02 11.92C26.79 12.22 26.16 11.78 26.16 11.78C25.76 11.17 24.8 8.27 24.53 5.73L24.54 5.71Z" fill="#3E2967"/>
<path d="M28.6001 8.50004C28.6001 7.96985 28.1702 7.54004 27.6401 7.54004C27.1099 7.54004 26.6801 7.96985 26.6801 8.50004V10.59C26.6801 11.1202 27.1099 11.55 27.6401 11.55C28.1702 11.55 28.6001 11.1202 28.6001 10.59V8.50004Z" fill="#FADDDC"/>
</g>
<defs>
<clipPath id="clip0_109_833">
<rect width="54.55" height="103.16" fill="white"/>
</clipPath>
</defs>
</svg>
