
    <svg
        width="60"
        height="103"
        viewBox="0 0 60 103"
        fill="none"
        xmlns="http://www.w3.org/2000/svg"
    >
        <g clip-path="url(#clip0_9_332)">
            <path
                d="M36.26 50.6301H21.95V58.1201V96.3601V96.3801V96.4101V97.7701C21.95 98.4501 21.68 99.0901 21.23 99.4501C20.69 99.8801 20.15 100.34 19.63 100.81C19.02 101.37 19.34 102.59 20.1 102.59H23.18H23.97C24.67 102.59 25.28 101.99 25.45 101.13L27.21 92.1801C28.4 85.9101 29.52 79.5901 30.57 73.2101C31.31 68.7301 32.01 64.2601 32.67 59.8101C32.82 58.8301 33.53 58.1201 34.36 58.1201H35.87C36.71 58.1201 37.42 58.8301 37.56 59.8101C38.22 64.2701 38.92 68.7301 39.66 73.2101C40.95 81.0301 42.34 88.7701 43.83 96.4101C44.08 97.6901 43.65 99.0101 42.77 99.7301C42.34 100.08 41.93 100.44 41.52 100.82C40.9 101.38 41.22 102.61 41.98 102.61H45.06H45.25C46.93 102.61 48.29 100.9 48.29 98.7901V58.1101V50.6201H36.25L36.26 50.6301Z"
                fill="#3E2967"
            />
            <path
                d="M2.05999 44.1401C0.549986 44.5701 -0.320014 46.1501 0.109986 47.6601C0.469986 48.9001 1.58999 49.7101 2.81999 49.7201C3.08999 49.7201 3.35999 49.6901 3.62999 49.6101C4.27999 49.4201 4.91999 49.2101 5.53999 48.9901L3.05999 43.8301C2.72999 43.9401 2.39999 44.0501 2.05999 44.1401Z"
                fill="#FADDDC"
            />
            <path
                d="M25.1701 21.54C23.6601 21.11 22.0901 21.99 21.6601 23.5C21.6101 23.66 17.0501 39.15 3.06006 43.82L5.54006 48.98C21.8901 43.12 26.9201 25.8 27.1301 25.04C27.5501 23.53 26.6701 21.97 25.1601 21.54H25.1701Z"
                fill="#A4B2D3"
            />
            <path
                d="M48.55 54.5899H22.09C21.07 54.5899 20.27 53.7299 20.34 52.7099L21.85 23.2099C21.85 21.9099 25.43 18.6499 29.84 18.6499H40.31C46.61 18.6499 48.3 22.5499 48.3 27.3599L50.3 52.6699C50.4 53.6999 49.59 54.5899 48.55 54.5899Z"
                fill="#A4B2D3"
            />
            <path
                d="M53.49 52.7399C53.38 54.3099 54.56 55.6699 56.12 55.7799C56.19 55.7799 56.26 55.7799 56.33 55.7799C57.81 55.7799 59.06 54.6399 59.16 53.1399C59.2 52.6499 59.22 52.1599 59.24 51.6799H53.54C53.52 52.0299 53.51 52.3699 53.49 52.7299V52.7399Z"
                fill="#FADDDC"
            />
            <path
                d="M44.71 19.59C43.34 18.83 41.63 19.32 40.86 20.68C40.09 22.04 40.58 23.77 41.94 24.55C42.46 24.85 54.52 31.98 53.55 51.69H59.25C60.28 28.51 45.36 19.94 44.71 19.58V19.59Z"
                fill="#A4B2D3"
            />
            <path
                d="M39.5861 14.6185L30.0327 14.2632C28.8075 14.2176 27.7773 15.1739 27.7317 16.3991L27.7302 16.4391C27.6846 17.6643 28.6409 18.6945 29.8662 18.7401L39.4196 19.0954C40.6448 19.141 41.675 18.1847 41.7205 16.9594L41.722 16.9195C41.7676 15.6942 40.8113 14.6641 39.5861 14.6185Z"
                fill="#A4B2D3"
            />
            <path
                d="M34.66 18.7301L38.61 16.6901C39.16 16.4101 39.51 15.8501 39.54 15.2301C39.55 14.8901 39.29 14.6101 38.95 14.5901L30.68 14.2801C30.34 14.2701 30.06 14.5301 30.05 14.8701C30.03 15.4901 30.34 16.0701 30.87 16.3901L34.67 18.7201L34.66 18.7301Z"
                fill="#3E2967"
            />
            <path
                d="M37.0401 17.5501L37.5701 3.12007L30.2001 2.85007C28.8301 2.80007 27.6801 3.87007 27.6301 5.23007L27.4501 11.2101C27.3701 13.4301 29.1001 15.2901 31.3101 15.3701H31.4201C31.9001 15.3901 32.2801 15.8001 32.2701 16.2801L32.2301 17.3201L34.6301 18.7901L37.0401 17.5401V17.5501Z"
                fill="#FADDDC"
            />
            <path
                d="M30.44 12.7701L29.85 12.7501C29.32 12.7301 28.9 12.2801 28.92 11.7501L29.03 8.8401C29.03 8.6201 29.23 8.4401 29.45 8.4501C29.67 8.4601 29.85 8.6501 29.84 8.8701L29.75 11.3901C29.74 11.6901 29.97 11.9501 30.28 11.9601H30.49C30.71 11.9801 30.89 12.1601 30.88 12.3901C30.87 12.6201 30.68 12.7901 30.46 12.7801L30.44 12.7701Z"
                fill="#E0B1BB"
            />
            <path
                d="M31.8 19.2001C32.0375 19.2001 32.23 19.0076 32.23 18.7701C32.23 18.5326 32.0375 18.3401 31.8 18.3401C31.5625 18.3401 31.37 18.5326 31.37 18.7701C31.37 19.0076 31.5625 19.2001 31.8 19.2001Z"
                fill="#F1EFEA"
            />
            <path
                d="M31.3 31.99C31.15 31.99 31.03 31.85 31.03 31.7L31.51 18.76C31.51 18.61 31.65 18.49 31.8 18.49C31.95 18.49 32.07 18.63 32.07 18.78L31.59 31.72C31.59 31.87 31.45 31.99 31.3 31.99Z"
                fill="white"
            />
            <path
                d="M36.71 19.38C36.9475 19.38 37.14 19.1875 37.14 18.95C37.14 18.7125 36.9475 18.52 36.71 18.52C36.4725 18.52 36.28 18.7125 36.28 18.95C36.28 19.1875 36.4725 19.38 36.71 19.38Z"
                fill="#F1EFEA"
            />
            <path
                d="M36.22 32.1799C36.07 32.1799 35.95 32.0399 35.95 31.8899L36.43 18.9499C36.43 18.7999 36.57 18.6799 36.72 18.6799C36.87 18.6799 36.99 18.8199 36.99 18.9699L36.5099 31.9099C36.5099 32.0599 36.37 32.1799 36.22 32.1799Z"
                fill="white"
            />
            <path
                opacity="0.5"
                d="M32.48 10.6501H31.36C30.65 10.6501 30.08 10.0701 30.08 9.37009C30.08 8.66009 30.66 8.09009 31.36 8.09009H32.48C33.19 8.09009 33.76 8.67009 33.76 9.37009C33.76 10.0801 33.18 10.6501 32.48 10.6501Z"
                fill="white"
            />
            <path
                opacity="0.5"
                d="M27.47 10.6501H27.12C26.41 10.6501 25.84 10.0701 25.84 9.37009C25.84 8.66009 26.42 8.09009 27.12 8.09009H27.47C28.18 8.09009 28.75 8.67009 28.75 9.37009C28.75 10.0801 28.17 10.6501 27.47 10.6501Z"
                fill="white"
            />
            <path
                d="M32.77 7.31006H31.07C30.51 7.31006 30.0199 7.65006 29.8099 8.13006H29.02C28.81 7.65006 28.32 7.31006 27.76 7.31006H26.83C26.07 7.31006 25.45 7.93006 25.45 8.69006V9.27006C25.45 10.0301 26.07 10.6501 26.83 10.6501H27.76C28.52 10.6501 29.1399 10.0301 29.1399 9.27006V8.91006H29.69V9.27006C29.69 10.0301 30.3099 10.6501 31.07 10.6501H32.77C33.53 10.6501 34.15 10.0301 34.15 9.27006V8.69006C34.15 7.93006 33.53 7.31006 32.77 7.31006ZM28.37 9.27006C28.37 9.60006 28.1 9.88006 27.76 9.88006H26.83C26.5 9.88006 26.2199 9.61006 26.2199 9.27006V8.69006C26.2199 8.36006 26.49 8.08006 26.83 8.08006H27.76C28.09 8.08006 28.37 8.35006 28.37 8.69006V9.27006ZM33.38 9.27006C33.38 9.60006 33.11 9.88006 32.77 9.88006H31.07C30.74 9.88006 30.4599 9.61006 30.4599 9.27006V8.69006C30.4599 8.36006 30.7299 8.08006 31.07 8.08006H32.77C33.1 8.08006 33.38 8.35006 33.38 8.69006V9.27006Z"
                fill="#9C9E9F"
            />
            <path
                d="M38.9701 5.71012C39.1201 4.23012 38.6201 2.74012 37.5701 1.70012C36.2301 0.38012 34.2001 -0.31988 31.3301 0.14012C31.2201 0.16012 31.1101 0.14012 31.0001 0.14012C27.7301 0.14012 26.5301 2.85012 26.5501 4.48012C26.5701 6.71012 27.7001 7.32012 27.7001 7.32012C27.7001 7.32012 27.7501 7.32012 27.7601 7.32012C29.5501 7.32012 29.2401 3.36012 29.8401 3.36012C30.4401 3.36012 29.5001 7.14012 34.8601 7.38012C35.2101 7.40012 35.4801 7.67012 35.4801 8.02012V9.17012C35.4801 9.38012 35.6501 9.55012 35.8601 9.55012C36.0701 9.55012 36.2401 9.38012 36.2401 9.17012V7.96012C36.2401 7.66012 36.46 7.39012 36.76 7.37012C37.08 7.35012 37.3401 7.61012 37.3401 7.92012L37.2401 11.9101V11.9301C37.6301 11.3201 38.7101 8.26012 38.9701 5.72012V5.71012Z"
                fill="#3E2967"
            />
        </g>
        <defs>
            <clipPath id="clip0_9_332">
                <rect width="59.3" height="102.61" fill="white" />
            </clipPath>
        </defs>
    </svg>
