<svg width="59" height="103" viewBox="0 0 59 103" fill="none" xmlns="http://www.w3.org/2000/svg">
<g clip-path="url(#clip0_109_983)">
<path d="M56.0199 45.04C57.5899 45.49 58.4999 47.13 58.0399 48.7C57.6699 49.99 56.4999 50.83 55.2199 50.84C54.9399 50.84 54.6599 50.8 54.3799 50.72C53.6999 50.52 53.0399 50.31 52.3899 50.08L54.9699 44.71C55.3099 44.82 55.6599 44.93 56.0099 45.04H56.0199Z" fill="#FADDDC"/>
<path d="M31.9901 21.55C33.5601 21.11 35.1901 22.02 35.6401 23.59C35.6901 23.76 40.4301 39.86 54.9801 44.72L52.4001 50.09C35.4001 44 30.1701 25.98 29.9501 25.19C29.5101 23.62 30.4201 21.99 31.9901 21.55Z" fill="#A4B2D3"/>
<path d="M36.33 54.59H9.88C8.86 54.59 8.06 53.73 8.13 52.71L9.64 23.21C9.64 21.91 13.22 18.65 17.63 18.65H28.1C34.4 18.65 36.09 22.55 36.09 27.36L38.09 52.67C38.19 53.7 37.38 54.59 36.34 54.59H36.33Z" fill="#A4B2D3"/>
<path d="M5.11005 49.03C5.21005 50.41 4.17005 51.61 2.79005 51.71C2.73005 51.71 2.67005 51.71 2.61005 51.71C1.31005 51.71 0.210049 50.7 0.120049 49.38C0.0900488 48.95 0.0700488 48.52 0.0500488 48.1H5.07005C5.09005 48.41 5.10005 48.71 5.12005 49.02L5.11005 49.03Z" fill="#FADDDC"/>
<path d="M12.8401 19.84C14.0401 19.17 15.5601 19.6 16.2301 20.8C16.9101 22 16.4801 23.52 15.2801 24.21C14.8201 24.47 4.20007 30.75 5.06007 48.11H0.0400697C-0.85993 27.7 12.2701 20.16 12.8401 19.84Z" fill="#A4B2D3"/>
<path d="M27.3744 14.6143L17.821 14.259C16.5958 14.2135 15.5656 15.1698 15.52 16.395L15.5185 16.435C15.473 17.6602 16.4293 18.6904 17.6545 18.7359L27.2079 19.0912C28.4331 19.1368 29.4633 18.1805 29.5089 16.9553L29.5104 16.9153C29.5559 15.6901 28.5996 14.6599 27.3744 14.6143Z" fill="#A4B2D3"/>
<path d="M22.44 18.7299L26.39 16.6899C26.94 16.4099 27.29 15.8499 27.32 15.2299C27.33 14.8899 27.07 14.6099 26.73 14.5899L18.46 14.2799C18.12 14.2699 17.84 14.5299 17.83 14.8699C17.81 15.4899 18.12 16.0699 18.65 16.3899L22.45 18.7199L22.44 18.7299Z" fill="#3E2967"/>
<path d="M24.82 17.5499L25.35 3.11995L17.98 2.84995C16.61 2.79995 15.46 3.86995 15.41 5.22995L15.23 11.21C15.15 13.43 16.88 15.29 19.09 15.37H19.2C19.68 15.39 20.06 15.8 20.05 16.28L20.01 17.32L22.41 18.79L24.82 17.54V17.5499Z" fill="#FADDDC"/>
<path d="M18.2199 12.77L17.6299 12.75C17.0999 12.73 16.6799 12.28 16.6999 11.75L16.8099 8.83998C16.8099 8.61998 17.0099 8.43998 17.2299 8.44998C17.4499 8.45998 17.6299 8.64998 17.6199 8.86998L17.5299 11.39C17.5199 11.69 17.7499 11.95 18.0599 11.96H18.2699C18.4899 11.98 18.6699 12.16 18.6599 12.39C18.6499 12.62 18.4599 12.79 18.2399 12.78L18.2199 12.77Z" fill="#E0B1BB"/>
<path d="M19.5699 19.2C19.8074 19.2 19.9999 19.0074 19.9999 18.77C19.9999 18.5325 19.8074 18.34 19.5699 18.34C19.3324 18.34 19.1399 18.5325 19.1399 18.77C19.1399 19.0074 19.3324 19.2 19.5699 19.2Z" fill="#F1EFEA"/>
<path d="M19.0801 31.99C18.9301 31.99 18.8101 31.85 18.8101 31.7L19.2901 18.76C19.2901 18.61 19.4301 18.49 19.5801 18.49C19.7301 18.49 19.8501 18.63 19.8501 18.78L19.3701 31.72C19.3701 31.87 19.2301 31.99 19.0801 31.99Z" fill="white"/>
<path d="M24.4901 19.38C24.7275 19.38 24.9201 19.1875 24.9201 18.95C24.9201 18.7125 24.7275 18.52 24.4901 18.52C24.2526 18.52 24.0601 18.7125 24.0601 18.95C24.0601 19.1875 24.2526 19.38 24.4901 19.38Z" fill="#F1EFEA"/>
<path d="M24 32.1801C23.85 32.1801 23.73 32.0401 23.73 31.8901L24.21 18.9501C24.21 18.8001 24.35 18.6801 24.5 18.6801C24.65 18.6801 24.77 18.8201 24.77 18.9701L24.29 31.9101C24.29 32.0601 24.15 32.1801 24 32.1801Z" fill="white"/>
<path opacity="0.5" d="M20.2601 10.65H19.1401C18.4301 10.65 17.8601 10.07 17.8601 9.36997C17.8601 8.65997 18.4401 8.08997 19.1401 8.08997H20.2601C20.9701 8.08997 21.5401 8.66997 21.5401 9.36997C21.5401 10.08 20.9601 10.65 20.2601 10.65Z" fill="white"/>
<path opacity="0.5" d="M15.2501 10.65H14.9001C14.1901 10.65 13.6201 10.07 13.6201 9.36997C13.6201 8.65997 14.2001 8.08997 14.9001 8.08997H15.2501C15.9601 8.08997 16.5301 8.66997 16.5301 9.36997C16.5301 10.08 15.9501 10.65 15.2501 10.65Z" fill="white"/>
<path d="M20.55 7.31006H18.85C18.29 7.31006 17.8 7.65006 17.59 8.13006H16.8C16.59 7.65006 16.1 7.31006 15.54 7.31006H14.61C13.85 7.31006 13.23 7.93006 13.23 8.69006V9.27006C13.23 10.0301 13.85 10.6501 14.61 10.6501H15.54C16.3 10.6501 16.92 10.0301 16.92 9.27006V8.91006H17.47V9.27006C17.47 10.0301 18.09 10.6501 18.85 10.6501H20.55C21.31 10.6501 21.93 10.0301 21.93 9.27006V8.69006C21.93 7.93006 21.31 7.31006 20.55 7.31006ZM16.15 9.27006C16.15 9.60006 15.88 9.88006 15.54 9.88006H14.61C14.28 9.88006 14 9.61006 14 9.27006V8.69006C14 8.36006 14.27 8.08006 14.61 8.08006H15.54C15.87 8.08006 16.15 8.35006 16.15 8.69006V9.27006ZM21.16 9.27006C21.16 9.60006 20.89 9.88006 20.55 9.88006H18.85C18.52 9.88006 18.24 9.61006 18.24 9.27006V8.69006C18.24 8.36006 18.51 8.08006 18.85 8.08006H20.55C20.88 8.08006 21.16 8.35006 21.16 8.69006V9.27006Z" fill="#9C9E9F"/>
<path d="M26.7501 5.71C26.9001 4.23 26.4001 2.74 25.3501 1.7C24.0101 0.379998 21.9801 -0.320002 19.1101 0.139998C19.0001 0.159998 18.8901 0.139998 18.7801 0.139998C15.5101 0.139998 14.3101 2.85 14.3301 4.48C14.3501 6.71 15.4801 7.32 15.4801 7.32C15.4801 7.32 15.5301 7.32 15.5401 7.32C17.3301 7.32 17.0201 3.36 17.6201 3.36C18.2201 3.36 17.2801 7.14 22.6401 7.38C22.9901 7.4 23.2601 7.67 23.2601 8.02V9.17C23.2601 9.38 23.4301 9.55 23.6401 9.55C23.8501 9.55 24.0201 9.38 24.0201 9.17V7.96C24.0201 7.66 24.2401 7.39 24.5401 7.37C24.8601 7.35 25.1201 7.61 25.1201 7.92L25.0201 11.91V11.93C25.4101 11.32 26.4901 8.26 26.7501 5.72V5.71Z" fill="#3E2967"/>
<path d="M9.48997 54.64H21.79H36.41L28.51 97.04C28.42 97.89 28.04 98.88 28.99 99.63C29.52 100.05 30.09 100.43 30.62 100.85C31.25 101.35 30.92 102.45 30.14 102.45L25.11 101.45C22.86 100.99 23.16 99.45 23.61 98.26C23.9 97.47 24.08 96.65 24.11 95.81C24.3 90.56 25.23 67.12 25.38 63.22C25.42 62.33 24.56 61.36 23.7 61.36H22.16C21.31 61.36 20.58 62 20.43 62.88C19.75 66.88 19.47 77.7 18.86 89.11C18.86 89.11 18.71 92.71 18.47 93.56C18.12 94.78 16.7 94.6 16.21 93.7C15.79 92.92 15.36 89.73 15.28 89.11H13.87L9.46997 54.63L9.48997 54.64Z" fill="#3E2967"/>
</g>
<defs>
<clipPath id="clip0_109_983">
<rect width="58.17" height="102.46" fill="white"/>
</clipPath>
</defs>
</svg>
