
    <svg
        width="59"
        height="103"
        viewBox="0 0 59 103"
        fill="none"
        xmlns="http://www.w3.org/2000/svg"
    >
        <g clip-path="url(#clip0_9_462)">
            <path
                d="M56.82 45.42C58.32 46 59.07 47.68 58.49 49.17C58.02 50.4 56.8 51.12 55.55 51.02C55.28 51 55.01 50.94 54.74 50.83C54.09 50.58 53.46 50.31 52.85 50.03L55.83 45C56.16 45.14 56.48 45.28 56.82 45.41V45.42Z"
                fill="#F4D3D3"
            />
            <path
                d="M35.3001 20.37C36.8701 20.07 38.3901 21.1 38.7001 22.68C38.7301 22.85 42.0001 39.02 55.8301 45.02L52.8501 50.05C36.7301 42.63 33.1501 24.55 33.0001 23.76C32.7001 22.19 33.7401 20.67 35.3101 20.37H35.3001Z"
                fill="#2E423A"
            />
            <path
                d="M10.02 52.36H39.49L39.48 26.17C39.48 21.25 35.49 17.27 30.58 17.27H18.91C13.99 17.27 10.01 21.26 10.01 26.17L10.03 52.36H10.02Z"
                fill="#4D6059"
            />
            <path
                d="M5.93006 52.1C6.04006 53.7 4.84006 55.09 3.24006 55.21C3.17006 55.21 3.10006 55.21 3.03006 55.21C1.52006 55.21 0.240059 54.04 0.140059 52.51C0.100059 52.01 0.0800586 51.51 0.0600586 51.02H5.88006C5.90006 51.38 5.91006 51.73 5.94006 52.09L5.93006 52.1Z"
                fill="#F4D3D3"
            />
            <path
                d="M14.9 18.22C16.3 17.44 18.05 17.95 18.84 19.34C19.62 20.73 19.13 22.5 17.74 23.29C17.21 23.59 4.88001 30.88 5.88001 51.02H0.0500124C-0.999988 27.34 14.24 18.59 14.9 18.22Z"
                fill="#4D6059"
            />
            <path d="M27.14 21.8799H26.76V52.2399H27.14V21.8799Z" fill="#2E423A" />
            <path
                d="M30.4 28.3701H36.54V33.8601C36.54 34.8501 35.73 35.6601 34.74 35.6601H32.21C31.22 35.6601 30.41 34.8501 30.41 33.8601V28.3701H30.4Z"
                fill="#2E423A"
            />
            <path d="M28.53 17.26L26.54 22.85L22.27 17.26H28.53Z" fill="#F4D3D3" />
            <path d="M22.27 17.26L26.54 22.85L22.32 24.06L22.27 17.26Z" fill="#2E423A" />
            <path d="M28.56 17.23L30.99 23.72L26.54 22.85L28.56 17.23Z" fill="#2E423A" />
            <path
                d="M22.9399 4.41992H33.1799V12.4199C33.1799 14.2199 31.7199 15.6699 29.9299 15.6699H28.8999C28.3999 15.6699 27.9899 16.5599 27.9899 17.0699V17.3799C27.9899 18.7599 26.8699 19.8799 25.4899 19.8799C24.1099 19.8799 22.9899 18.7599 22.9899 17.3799L22.9599 4.41992H22.9399Z"
                fill="#F4D3D3"
            />
            <path
                d="M29.89 12.71H30.51C31.06 12.71 31.51 12.26 31.51 11.71V8.68001C31.51 8.45001 31.32 8.26001 31.09 8.26001C30.86 8.26001 30.67 8.45001 30.67 8.68001V11.3C30.67 11.61 30.42 11.87 30.1 11.87H29.88C29.65 11.87 29.46 12.06 29.46 12.29C29.46 12.52 29.65 12.71 29.88 12.71H29.89Z"
                fill="#E0B1BB"
            />
            <path
                d="M27.58 8.77997C27.58 9.08997 27.83 9.33997 28.14 9.33997C28.45 9.33997 28.7 9.08997 28.7 8.77997C28.7 8.46997 28.45 8.21997 28.14 8.21997C27.83 8.21997 27.58 8.46997 27.58 8.77997Z"
                fill="#757570"
            />
            <path
                d="M27.28 5.68994C27.28 5.68994 27.19 5.68994 27.04 5.70994C27.12 5.69994 27.2 5.68994 27.28 5.68994Z"
                fill="#3E2967"
            />
            <path
                d="M22.97 8.73996C23.05 8.44996 23.31 8.22996 23.63 8.22996H23.71C24.09 8.22996 24.39 8.53996 24.39 8.90996V9.48996V9.46996L24.4 9.94996C24.4 10.15 24.56 10.31 24.76 10.31C24.96 10.31 25.12 10.15 25.12 9.94996V8.38996C25.12 7.77996 25.27 7.17996 25.61 6.67996C25.9 6.23996 26.34 5.81996 26.98 5.70996C26.05 5.81996 23.19 6.34996 22.96 8.72996L22.97 8.73996Z"
                fill="#674E99"
            />
            <path
                d="M26.22 0.0800748C24.61 0.230075 23.26 1.23007 22.95 2.75007C22.95 2.75007 20.9 3.52007 20.9 5.64007C20.9 7.25007 21.29 8.21007 22.05 8.58007L22.75 11.6801C22.75 11.8201 22.84 11.9101 22.94 11.9401V8.91007C22.94 8.85007 22.95 8.79007 22.97 8.73007C23.2 6.34007 26.07 5.81007 26.99 5.71007H27.09C27.09 5.71007 29.68 5.91007 32.02 6.20007C32.86 6.11007 33.67 5.85007 34.15 4.88007C34.7 4.16008 34.65 -0.699925 26.22 0.0800748Z"
                fill="#3E2967"
            />
            <path
                d="M23.5 52.3501H39.5V59.5201V95.9501V96.1501V96.1701V96.2001V97.5001C39.5 98.1501 39.8001 98.7601 40.3101 99.1101C40.9201 99.5301 41.51 99.9601 42.1 100.41C42.79 100.95 42.43 102.12 41.5801 102.12H38.1301H37.25C36.47 102.12 35.79 101.55 35.6 100.73L33.6301 92.1601C32.3001 86.1601 31.05 80.1001 29.87 73.9901C29.04 69.7001 28.26 65.4201 27.5201 61.1501C27.3601 60.2101 26.56 59.5301 25.63 59.5301H23.94C23.01 59.5301 22.21 60.2101 22.05 61.1501C21.31 65.4201 20.53 69.7001 19.7 73.9901C18.26 81.4801 16.7 88.8901 15.04 96.2101C14.76 97.4401 15.24 98.7001 16.22 99.3901C16.7 99.7201 17.16 100.07 17.62 100.43C18.31 100.97 17.95 102.15 17.1 102.15H13.66H13.45C11.57 102.15 10.05 100.51 10.05 98.4901V95.9701V59.5401V52.3701H23.51L23.5 52.3501Z"
                fill="#3E2967"
            />
        </g>
        <defs>
            <clipPath id="clip0_9_462">
                <rect width="58.68" height="102.14" fill="white" />
            </clipPath>
        </defs>
    </svg>

