
    <svg
        width="57"
        height="107"
        viewBox="0 0 57 107"
        fill="none"
        xmlns="http://www.w3.org/2000/svg"
    >
        <g clip-path="url(#clip0_9_504)">
            <path
                d="M2.23003 42.51C0.64003 42.92 -0.31997 44.54 0.0900299 46.13C0.43003 47.44 1.58003 48.32 2.86003 48.36C3.14003 48.36 3.42003 48.34 3.71003 48.27C4.40003 48.09 5.07003 47.89 5.73003 47.68L3.29003 42.21C2.94003 42.32 2.59003 42.42 2.23003 42.51Z"
                fill="#FADDDC"
            />
            <path
                d="M27.06 19.5599C25.49 19.0699 23.83 19.9399 23.33 21.5099C23.28 21.6799 18.05 37.7399 3.28003 42.2099L5.72003 47.6799C22.99 42.0299 28.76 24.0699 29 23.2799C29.49 21.7099 28.61 20.0499 27.05 19.5599H27.06Z"
                fill="#2E423A"
            />
            <path
                d="M26.55 53.8201H38.53L44.2401 76.1801L56.0601 94.3601L53.66 96.1301C53.92 96.6501 54.3701 97.4801 54.8301 97.8101C55.5101 98.3001 56.3701 99.2001 55.5201 100.2L50.41 103.85C49.68 104.13 48.95 103.04 49.35 102.26C49.61 101.74 50.48 100.6 50.76 100.1C51.35 99.0701 50.73 98.2601 50.05 97.0901C45.99 90.1401 36.3 79.3501 36.3 79.3501L26.56 53.8101L26.55 53.8201Z"
                fill="#291B4C"
            />
            <path
                d="M23.0201 53.8201H38.0101L23.7201 79.4201L18.5601 102.39L15.7601 102.27L15.0301 104.12C14.3001 106.19 14.2601 107.05 12.6501 106.43L8.69006 105.31C7.96006 105.03 7.97006 104.01 8.76006 103.69C9.28006 103.47 10.1101 103.37 10.6601 103.29C12.7201 102.99 12.3001 101.57 12.5001 100.22C13.7201 92.1801 14.0001 85.8001 15.4801 77.6601C16.3201 73.0001 23.0201 53.8201 23.0201 53.8201Z"
                fill="#3E2C6D"
            />
            <path
                d="M20.56 57.6601L43.95 57.4201L41.45 32.3201C41.45 28.1601 44.17 24.0701 32.15 18.3501H27.8C26.75 18.3501 25.98 18.6301 25.08 19.3401C24.18 20.0501 23.52 20.9601 22.99 21.9601C15.83 35.5701 20.55 57.6601 20.55 57.6601H20.56Z"
                fill="#4D6059"
            />
            <path
                d="M46.8 54.6999C46.58 56.3299 47.73 57.8199 49.36 58.0399C50.7 58.2199 51.95 57.4799 52.47 56.2999C52.58 56.0499 52.66 55.7699 52.7 55.4799C52.79 54.7699 52.86 54.0799 52.91 53.3899L46.93 53.6099C46.9 53.9699 46.86 54.3399 46.81 54.6999H46.8Z"
                fill="#FADDDC"
            />
            <path
                d="M34.8001 23.0901C33.7601 24.3601 33.9501 26.2301 35.2101 27.2701C35.3401 27.3801 48.2901 38.2301 46.9101 53.6001L52.8901 53.3801C54.1101 35.2601 39.6101 23.1901 38.9701 22.6601C37.7001 21.6201 35.8301 21.8101 34.7901 23.0801L34.8001 23.0901Z"
                fill="#4D6059"
            />
            <path
                d="M32.3201 4.27002H21.9301V13.57C21.9301 15.39 23.4101 16.87 25.2301 16.87H26.2801C26.7901 16.87 27.2101 17.28 27.2101 17.8V21.28L32.1201 18.62L32.3301 4.28002L32.3201 4.27002Z"
                fill="#FADDDC"
            />
            <path
                d="M22.2401 13.74L21.6401 13.57C21.1001 13.42 20.7801 12.85 20.9301 12.31L21.7601 9.34997C21.8201 9.11997 22.0601 8.98997 22.2801 9.05997C22.5001 9.12997 22.6401 9.35996 22.5701 9.57996L21.8501 12.14C21.7601 12.45 21.9401 12.77 22.2501 12.85L22.4601 12.91C22.6901 12.97 22.8201 13.21 22.7501 13.43C22.6801 13.65 22.4501 13.79 22.2301 13.72L22.2401 13.74Z"
                fill="#E0B1BB"
            />
            <path
                d="M23.7 9.31C23.7 9.62 23.95 9.87 24.26 9.87C24.57 9.87 24.82 9.62 24.82 9.31C24.82 9 24.57 8.75 24.26 8.75C23.95 8.75 23.7 9 23.7 9.31Z"
                fill="#757570"
            />
            <path
                d="M29.62 36.9699L29.92 37.0999C32.16 37.0499 32.99 35.4399 33.01 34.5099L33.46 29.8999L28.71 30.0499L28.26 34.6599C28.24 35.5799 28.85 36.6099 29.62 36.9599V36.9699Z"
                fill="#2E423A"
            />
            <path
                d="M32.7999 17.6399L27.2 20.9799L30.84 23.6299L34.5999 19.2999L32.7999 17.6399Z"
                fill="#2E423A"
            />
            <path
                d="M27.2 20.9799L24.84 22.5199L26.69 18.1499L27.2 17.9199V20.9799Z"
                fill="#2E423A"
            />
            <path
                d="M26.06 57.0199C22.07 38.5299 26.96 21.0999 27.01 20.9299L27.39 21.0399C27.34 21.2099 22.48 38.5499 26.44 56.9399L26.05 57.0199H26.06Z"
                fill="#2E423A"
            />
            <path
                d="M31.2 8.73001C30.32 7.12001 28.65 6.01001 26.7 5.95001C25.84 5.78001 24.16 5.92001 23.17 5.68001C21.64 5.32001 21.21 3.24001 21.59 1.77001C21.91 0.50001 26.04 -0.01999 28.7 1.03001C30.26 1.65001 32.77 2.96001 33.26 6.08001C33.51 7.67001 32.72 10.03 32.72 10.03C32.71 10.07 32.69 10.13 32.68 10.2C31.48 9.56001 31.2 8.72001 31.2 8.72001V8.73001Z"
                fill="#3E2967"
            />
            <path
                d="M31.9699 13.2499C31.9699 13.2499 31.18 11.4499 31.18 11.3999V8.96994C31.18 8.43994 30.7499 8.00994 30.2199 8.00994C29.6899 8.00994 29.26 8.43994 29.26 8.96994V10.1299V10.6099C29.26 10.8099 29.1 10.9699 28.9 10.9699C28.6999 10.9699 28.54 10.8099 28.54 10.6099V9.04994C28.54 8.43994 28.65 7.68994 28.32 7.18994C28.03 6.74994 27.61 6.14994 26.77 5.94994C26.75 5.94994 26.72 5.94994 26.7 5.93994C28.65 5.98994 30.32 7.09994 31.2 8.71994C31.2 8.71994 31.48 9.55994 32.68 10.1999C32.52 10.9799 32.2399 13.3599 32.1399 13.3899L31.9699 13.2399V13.2499Z"
                fill="#674E99"
            />
            <path
                d="M28.4001 0.0800846C30.0101 0.230085 31.3601 1.23008 31.6701 2.75008C31.6701 2.75008 33.7201 3.52008 33.7201 5.64008C33.7201 7.25008 33.3301 8.21008 32.5701 8.58008L31.6801 9.04008V8.92008C31.6801 8.86008 31.6701 8.80009 31.6501 8.74008C31.4201 6.35008 28.5501 5.82008 27.6301 5.72008H27.5301C27.5301 5.72008 24.9401 5.92008 22.6001 6.21008C21.7601 6.12008 20.9501 5.86008 20.4701 4.89008C19.9201 4.17008 19.9701 -0.689915 28.4001 0.0900846V0.0800846Z"
                fill="#3E2967"
            />
        </g>
        <defs>
            <clipPath id="clip0_9_504">
                <rect width="56.06" height="106.63" fill="white" />
            </clipPath>
        </defs>
    </svg>
