<svg width="65" height="107" viewBox="0 0 65 107" fill="none" xmlns="http://www.w3.org/2000/svg">
<g clip-path="url(#clip0_134_700)">
<path d="M43.6601 55.0601H16.9301L24.6701 101.34C24.7601 102.21 25.1401 103.23 24.1901 104C23.6601 104.43 23.1001 104.82 22.5701 105.25C21.9501 105.76 22.2701 106.89 23.0401 106.89L28.0301 105.87C30.2701 105.4 29.9601 103.82 29.5201 102.6C29.2301 101.79 29.0501 100.95 29.0201 100.09C28.8301 94.7101 29.5201 62.6601 29.5201 62.6601H31.0501C31.0501 62.6601 34.3701 93.5701 34.6201 94.4501C34.9701 95.7001 36.3801 95.5201 36.8701 94.5901C37.2901 93.7901 37.7101 90.5201 37.7901 89.8801H39.1901L43.6601 55.0601Z" fill="#3E2967"/>
<path d="M62.71 45.42C64.21 46 64.96 47.68 64.38 49.17C63.91 50.4 62.69 51.12 61.44 51.02C61.17 51 60.9 50.94 60.63 50.83C59.98 50.58 59.35 50.31 58.74 50.03L61.72 45C62.05 45.14 62.37 45.28 62.71 45.41V45.42Z" fill="#F4D3D3"/>
<path d="M41.2 20.37C42.77 20.07 44.29 21.1 44.6 22.68C44.63 22.85 47.9 39.02 61.73 45.02L58.75 50.05C42.63 42.63 39.05 24.55 38.9 23.76C38.6 22.19 39.64 20.67 41.21 20.37H41.2Z" fill="#2E423A"/>
<path d="M15.92 55.14H45.39L45.38 26.17C45.38 21.25 41.39 17.27 36.48 17.27H24.81C19.89 17.27 15.91 21.26 15.91 26.17L15.93 55.14H15.92Z" fill="#4D6059"/>
<path d="M5.79001 49.7601C5.59001 51.3501 4.14001 52.4801 2.55001 52.2801C2.48001 52.2801 2.41001 52.2601 2.34001 52.2501C0.860007 51.9601 -0.169993 50.5601 0.0200068 49.0401C0.0800068 48.5401 0.150007 48.0501 0.230007 47.5701L5.94001 48.7001C5.89001 49.0501 5.83001 49.4001 5.79001 49.7601Z" fill="#F4D3D3"/>
<path d="M21.16 18.27C22.68 17.78 24.3 18.61 24.8 20.13C25.3 21.65 24.47 23.29 22.96 23.79C22.38 23.99 8.87998 28.75 5.93998 48.7L0.22998 47.57C3.78998 24.14 20.44 18.5 21.16 18.27Z" fill="#4D6059"/>
<path d="M33.04 21.88H32.66V52.24H33.04V21.88Z" fill="#2E423A"/>
<path d="M36.29 28.37H42.43V33.86C42.43 34.85 41.62 35.66 40.63 35.66H38.1C37.11 35.66 36.3 34.85 36.3 33.86V28.37H36.29Z" fill="#2E423A"/>
<path d="M34.43 17.26L32.44 22.85L28.17 17.26H34.43Z" fill="#F4D3D3"/>
<path d="M28.17 17.26L32.44 22.85L28.22 24.06L28.17 17.26Z" fill="#2E423A"/>
<path d="M34.4499 17.23L36.8799 23.72L32.4399 22.85L34.4499 17.23Z" fill="#2E423A"/>
<path d="M28.84 4.42004H39.08V12.42C39.08 14.22 37.62 15.67 35.83 15.67H34.8C34.3 15.67 33.89 16.56 33.89 17.07V17.38C33.89 18.76 32.77 19.88 31.39 19.88C30.01 19.88 28.89 18.76 28.89 17.38L28.86 4.42004H28.84Z" fill="#F4D3D3"/>
<path d="M35.79 12.71H36.41C36.96 12.71 37.41 12.26 37.41 11.71V8.68001C37.41 8.45001 37.22 8.26001 36.99 8.26001C36.76 8.26001 36.57 8.45001 36.57 8.68001V11.3C36.57 11.61 36.32 11.87 36 11.87H35.78C35.55 11.87 35.36 12.06 35.36 12.29C35.36 12.52 35.55 12.71 35.78 12.71H35.79Z" fill="#E0B1BB"/>
<path d="M33.48 8.77997C33.48 9.08997 33.73 9.33997 34.04 9.33997C34.35 9.33997 34.6 9.08997 34.6 8.77997C34.6 8.46997 34.35 8.21997 34.04 8.21997C33.73 8.21997 33.48 8.46997 33.48 8.77997Z" fill="#757570"/>
<path d="M33.1799 5.68994C33.1799 5.68994 33.0899 5.68994 32.9399 5.70994C33.0199 5.69994 33.0999 5.68994 33.1799 5.68994Z" fill="#3E2967"/>
<path d="M28.86 8.73996C28.94 8.44996 29.2 8.22996 29.52 8.22996H29.6C29.98 8.22996 30.28 8.53996 30.28 8.90996V9.48996V9.46996L30.29 9.94996C30.29 10.15 30.45 10.31 30.65 10.31C30.85 10.31 31.01 10.15 31.01 9.94996V8.38996C31.01 7.77996 31.16 7.17996 31.5 6.67996C31.79 6.23996 32.23 5.81996 32.87 5.70996C31.94 5.81996 29.08 6.34996 28.85 8.72996L28.86 8.73996Z" fill="#674E99"/>
<path d="M32.11 0.0799528C30.5 0.229953 29.15 1.22995 28.84 2.74995C28.84 2.74995 26.79 3.51995 26.79 5.63995C26.79 7.24995 27.18 8.20995 27.94 8.57995L28.64 11.68C28.64 11.82 28.73 11.91 28.83 11.94V8.90995C28.83 8.84995 28.84 8.78995 28.86 8.72995C29.09 6.33995 31.96 5.80995 32.88 5.70995H32.98C32.98 5.70995 35.57 5.90995 37.91 6.19995C38.75 6.10995 39.56 5.84995 40.04 4.87995C40.59 4.15995 40.54 -0.700047 32.11 0.0799528Z" fill="#3E2967"/>
</g>
<defs>
<clipPath id="clip0_134_700">
<rect width="64.58" height="106.89" fill="white"/>
</clipPath>
</defs>
</svg>
