<svg width="53" height="103" viewBox="0 0 53 103" fill="none" xmlns="http://www.w3.org/2000/svg">
<g clip-path="url(#clip0_133_704)">
<path d="M7.33001 57.49C7.67001 59.34 6.44001 61.13 4.59001 61.47C3.07001 61.75 1.59001 60.97 0.93001 59.66C0.79001 59.37 0.68001 59.06 0.62001 58.73C0.47001 57.93 0.36001 57.13 0.26001 56.34L7.14001 56.25C7.20001 56.66 7.26001 57.08 7.34001 57.5L7.33001 57.49Z" fill="#FADDDC"/>
<path d="M19.26 20.55C20.53 21.94 20.42 24.1 19.03 25.37C18.88 25.5 4.67003 38.7 7.13003 56.24L0.250027 56.33C-2.18997 35.63 13.74 20.95 14.45 20.31C15.85 19.05 18 19.16 19.27 20.55H19.26Z" fill="#74E0C1"/>
<path d="M46.73 54.01C46.61 55.65 47.85 57.07 49.48 57.19C49.55 57.19 49.62 57.19 49.69 57.19C51.24 57.19 52.54 55.99 52.65 54.43C52.69 53.92 52.71 53.41 52.74 52.91H46.78C46.76 53.28 46.75 53.63 46.72 54.01H46.73Z" fill="#FADDDC"/>
<path d="M39.1 20.35C37.68 19.14 35.84 18.41 33.82 18.41H19.99C19.27 18.41 18.59 18.55 17.91 18.68C12.08 19.77 11.82 26.13 11.8 26.62L10.45 51.82C10.41 52.56 11 53.19 11.75 53.19H42.08C42.83 53.19 43.43 52.55 43.37 51.8L41.99 32.17C44.81 36.67 47.26 43.39 46.79 52.92H52.75C53.64 32.9 43.16 23.31 39.1 20.36V20.35Z" fill="#74E0C1"/>
<path d="M26.91 35.29L31.87 18.41H21.63L26.91 35.29Z" fill="white"/>
<path d="M21.11 31.03H13.49V32.8H21.11V31.03Z" fill="#5DC9A8"/>
<path d="M21.32 33.26H16.72V35.03H21.32V33.26Z" fill="#5DC9A8"/>
<path d="M38.33 39.25H26.97V41.02H38.33V39.25Z" fill="#5DC9A8"/>
<path d="M40.43 30.86H31.3V32.63H40.43V30.86Z" fill="#5DC9A8"/>
<path d="M40.42 28.16H35.25V29.93H40.42V28.16Z" fill="#5DC9A8"/>
<path d="M38.4 25.45H33.23V27.2199H38.4V25.45Z" fill="#5DC9A8"/>
<path d="M22.03 24.23H16.86V26H22.03V24.23Z" fill="#5DC9A8"/>
<path d="M18.34 26.67H15.14V28.44H18.34V26.67Z" fill="#5DC9A8"/>
<path d="M35.67 19.76H32.47V21.53H35.67V19.76Z" fill="#5DC9A8"/>
<path d="M21.32 48.58H16.72V50.35H21.32V48.58Z" fill="#5DC9A8"/>
<path d="M29.53 41.58H22.24V43.35H29.53V41.58Z" fill="#5DC9A8"/>
<path d="M39.88 46.95H35.28V48.72H39.88V46.95Z" fill="#5DC9A8"/>
<path d="M18.99 46.35H14.39V48.12H18.99V46.35Z" fill="#5DC9A8"/>
<path d="M28.91 5.06006H18.52V13.1701C18.52 14.9901 20 16.4701 21.82 16.4701H22.87C23.38 16.4701 23.8 16.8801 23.8 17.4001V18.4801C23.8 19.8801 24.94 21.0201 26.34 21.0201C27.74 21.0201 28.88 19.8901 28.88 18.4901L28.92 5.06006H28.91Z" fill="#FADDDC"/>
<path d="M21.89 13.47H21.26C20.7 13.47 20.24 13.01 20.24 12.45V9.37996C20.24 9.14996 20.43 8.95996 20.66 8.95996C20.89 8.95996 21.08 9.14996 21.08 9.37996V12.04C21.08 12.36 21.34 12.62 21.66 12.62H21.88C22.11 12.62 22.3 12.81 22.3 13.04C22.3 13.27 22.11 13.46 21.88 13.46L21.89 13.47Z" fill="#E0B1BB"/>
<path d="M28.44 2.39C28.31 1.78 27.77 1.32 27.12 1.32C26.98 1.32 26.85 1.35 26.72 1.39C26.54 0.85 26.04 0.46 25.45 0.46C25.06 0.46 24.71 0.63 24.47 0.89C24.03 0.35 23.37 0 22.61 0C21.74 0 20.98 0.47 20.56 1.17C20.33 1.04 20.08 0.97 19.8 0.97C18.98 0.97 18.31 1.61 18.24 2.41C17.27 2.52 16.53 3.38 16.63 4.4C16.73 5.35 17.6 6.04 18.55 6.04H25.98C26.57 6.04 27.05 6.52 27.05 7.11V7.53C27.05 8.54 27.87 9.35 28.87 9.35C29.17 9.35 29.43 9.12 29.46 8.82L29.93 4.1C30.02 3.21 29.34 2.44 28.45 2.4L28.44 2.39Z" fill="#3E2967"/>
<path d="M22.9399 9.50995C22.9399 9.81995 23.1899 10.07 23.4999 10.07C23.8099 10.07 24.0599 9.81995 24.0599 9.50995C24.0599 9.19995 23.8099 8.94995 23.4999 8.94995C23.1899 8.94995 22.9399 9.19995 22.9399 9.50995Z" fill="#757570"/>
<path d="M40.6201 53.36H13.0601L21.0401 97.05C21.1401 97.87 21.5201 98.83 20.5501 99.56C20.0001 99.96 19.4201 100.33 18.8801 100.74C18.2401 101.23 18.5701 102.29 19.3701 102.29L24.5101 101.33C26.8101 100.89 26.5001 99.39 26.0501 98.24C25.7501 97.48 25.5701 96.68 25.5301 95.87C25.3401 90.79 26.0501 60.54 26.0501 60.54H27.6301C27.6301 60.54 31.0601 89.72 31.3101 90.54C31.6701 91.72 33.1301 91.55 33.6201 90.67C34.0501 89.92 34.4901 86.83 34.5701 86.23H36.0101L40.6101 53.36H40.6201Z" fill="#3E2967"/>
</g>
<defs>
<clipPath id="clip0_133_704">
<rect width="52.81" height="102.28" fill="white"/>
</clipPath>
</defs>
</svg>
