<svg width="36" height="106" viewBox="0 0 36 106" fill="none" xmlns="http://www.w3.org/2000/svg">
<g clip-path="url(#clip0_133_840)">
<path d="M11.68 52.5799H25.68L16.2 72.6099L20.94 93.5699L18.59 94.3099V96.3499C18.77 97.7799 18.77 98.7099 17.25 99.5399L13.34 100.54C12.57 100.6 12.21 99.6499 12.81 98.9999C13.21 98.5699 14.05 98.2699 14.41 97.7899C15.98 95.6699 15.16 95.1699 14.86 93.8299C13.07 85.8199 6.65002 72.2999 6.65002 72.2999L11.69 52.5699L11.68 52.5799Z" fill="#291B4C"/>
<path d="M16.13 50.64L29.7 51.03L28.9 99.73L26.58 100.48C26.57 101.07 26.58 102.06 26.83 102.6C27.19 103.4 27.54 104.66 26.34 105.08L20.25 105.53C19.49 105.38 19.35 104.02 20.05 103.55C20.51 103.24 21.78 102.69 22.26 102.41C23.24 101.82 23.2 100.75 23.01 99.37C21.63 89.4 16.14 50.63 16.14 50.63L16.13 50.64Z" fill="#3E2C6D"/>
<path d="M1.13005 50.44C-0.159955 51.46 -0.379955 53.33 0.640045 54.62C1.48005 55.68 2.89005 56.02 4.08005 55.54C4.34004 55.44 4.59005 55.29 4.82005 55.11C5.38005 54.67 5.91005 54.21 6.42005 53.75L1.97005 49.74C1.69005 49.98 1.41005 50.21 1.12005 50.44H1.13005Z" fill="#FADDDC"/>
<path d="M14.53 19.4C12.9 19.59 11.73 21.06 11.91 22.69C11.93 22.86 13.66 39.66 1.96997 49.74L6.41997 53.75C19.92 41.59 17.92 22.83 17.82 22.01C17.63 20.38 16.16 19.22 14.53 19.4Z" fill="#5DC9A8"/>
<path d="M8.02001 54.0401L32.74 53.8001L30.27 33.6801C34.28 32.9101 31.67 19.3301 20.31 18.1801H15.96C14.46 18.1801 13.04 18.9401 12.26 20.2201C6.59001 29.4801 8.02001 54.0401 8.02001 54.0401Z" fill="#74E0C1"/>
<path d="M26.91 56.02C26.2 57.5 26.82 59.28 28.3 59.99C29.52 60.57 30.93 60.26 31.79 59.3C31.98 59.09 32.14 58.86 32.26 58.59C32.57 57.95 32.85 57.31 33.11 56.67L27.35 55.02C27.21 55.35 27.06 55.69 26.9 56.02H26.91Z" fill="#FADDDC"/>
<path d="M25.34 22.2499C23.96 23.1299 23.55 24.9699 24.43 26.3499C24.52 26.4999 33.44 40.8399 27.36 55.0199L33.12 56.6699C39.92 39.8199 29.89 23.8399 29.45 23.1499C28.57 21.7699 26.73 21.3699 25.35 22.2499H25.34Z" fill="#74E0C1"/>
<path d="M21.59 18.34C19.46 17.84 17.09 17.8 14.41 18.34L15.11 36.58L21.59 18.34Z" fill="white"/>
<path d="M20.48 4.10999H10.09V7.59999V13.41C10.09 15.23 11.57 16.71 13.39 16.71H14.44C14.95 16.71 15.37 17.12 15.37 17.64C15.37 19.21 17.05 20.21 18.43 19.46L20.28 18.46L20.49 4.11999L20.48 4.10999Z" fill="#FADDDC"/>
<path d="M10.41 13.5801L9.80998 13.4101C9.26998 13.2601 8.94998 12.6901 9.09998 12.1501L9.92998 9.19005C9.98998 8.96005 10.23 8.83005 10.45 8.90005C10.67 8.97005 10.81 9.20005 10.74 9.42005L10.02 11.9801C9.92998 12.2901 10.11 12.6101 10.42 12.6901L10.63 12.7501C10.86 12.8101 10.99 13.0501 10.92 13.2701C10.85 13.4901 10.62 13.6301 10.4 13.5601L10.41 13.5801Z" fill="#E0B1BB"/>
<path d="M11.86 9.14997C11.86 9.45997 12.11 9.70997 12.42 9.70997C12.73 9.70997 12.98 9.45997 12.98 9.14997C12.98 8.83997 12.73 8.58997 12.42 8.58997C12.11 8.58997 11.86 8.83997 11.86 9.14997Z" fill="#757570"/>
<path d="M17.36 10.96C17.36 11.4902 17.7898 11.92 18.32 11.92C18.8502 11.92 19.28 11.4902 19.28 10.96V8.87004C19.28 8.33985 18.8502 7.91004 18.32 7.91004C17.7898 7.91004 17.36 8.33985 17.36 8.87004V10.96Z" fill="#FADDDC"/>
<path d="M19.8 2.39C19.67 1.78 19.13 1.32 18.48 1.32C18.34 1.32 18.21 1.35 18.08 1.39C17.9 0.85 17.4 0.46 16.81 0.46C16.42 0.46 16.07 0.63 15.83 0.89C15.39 0.35 14.73 0 13.97 0C13.1 0 12.34 0.47 11.92 1.17C11.69 1.04 11.44 0.97 11.16 0.97C10.34 0.97 9.67002 1.61 9.60002 2.41C8.63002 2.52 7.89002 3.38 7.99002 4.4C8.09002 5.35 8.96002 6.04 9.91002 6.04H16.05C16.64 6.04 17.12 6.52 17.12 7.11V7.53C17.12 8.54 17.94 9.42 18.94 9.35C20.93 9.22 19.86 11.72 20.31 12.58C20.46 12.87 20.77 12.66 20.77 12.58L21.68 6.28C22.31 4.52 20.68 2.43 19.8 2.39Z" fill="#3E2967"/>
<path d="M19.8 40.27H27.42V38.5H19.8V40.27Z" fill="#5DC9A8"/>
<path d="M19.5801 42.51H24.1801V40.74H19.5801V42.51Z" fill="#5DC9A8"/>
<path d="M10.26 40.96H14.86V39.19H10.26V40.96Z" fill="#5DC9A8"/>
<path d="M9.21006 48.73H13.8101V46.96H9.21006V48.73Z" fill="#5DC9A8"/>
<path d="M23.42 51.62H28.02V49.85H23.42V51.62Z" fill="#5DC9A8"/>
<path d="M19.19 48.4301H23.79V46.6601H19.19V48.4301Z" fill="#5DC9A8"/>
<path d="M20.38 28.6H25.55V26.83H20.38V28.6Z" fill="#5DC9A8"/>
<path d="M22.57 35.91H25.77V34.14H22.57V35.91Z" fill="#5DC9A8"/>
<path d="M8.72004 33.86H11.92V32.09H8.72004V33.86Z" fill="#5DC9A8"/>
<path d="M19.38 30.96H22.58V29.19H19.38V30.96Z" fill="#5DC9A8"/>
<path d="M9.42003 45.59H20.78V43.82H9.42003V45.59Z" fill="#5DC9A8"/>
</g>
<defs>
<clipPath id="clip0_133_840">
<rect width="35.47" height="105.53" fill="white"/>
</clipPath>
</defs>
</svg>
