
    <svg
        width="69"
        height="103"
        viewBox="0 0 69 103"
        fill="none"
        xmlns="http://www.w3.org/2000/svg"
    >
        <g clip-path="url(#clip0_8_259)">
            <path
                d="M5.33994 8.16004C4.33994 6.86004 2.46994 6.61004 1.16994 7.61004C0.0999414 8.43004 -0.260059 9.84004 0.199941 11.04C0.299941 11.3 0.439941 11.55 0.619941 11.78C1.04994 12.35 1.49994 12.89 1.94994 13.41L6.02994 9.02004C5.79994 8.74004 5.56994 8.46004 5.33994 8.16004Z"
                fill="#FADDDC"
            />
            <path
                d="M62.0701 54.01C61.9501 55.65 63.1901 57.07 64.8201 57.19C64.8901 57.19 64.9601 57.19 65.0301 57.19C66.5801 57.19 67.8801 55.99 67.9901 54.43C68.0301 53.92 68.0501 53.41 68.0801 52.91H62.1201C62.1001 53.28 62.0901 53.63 62.0601 54.01H62.0701Z"
                fill="#FADDDC"
            />
            <path
                d="M54.4399 20.35C53.02 19.14 51.18 18.41 49.16 18.41H35.33C34.61 18.41 33.92 18.5 33.25 18.68C31.43 19.16 29.57 19.46 27.69 19.3C21.8899 18.81 12.48 16.75 6.01995 9.02002L1.94995 13.4C9.77995 22.37 20.56 24.73 27.28 25.26C27.21 25.69 27.16 26.13 27.15 26.62L25.7999 51.82C25.7599 52.56 26.35 53.19 27.1 53.19H57.43C58.18 53.19 58.78 52.55 58.72 51.8L57.34 32.17C60.16 36.67 62.61 43.39 62.1399 52.92H68.1C68.99 32.9 58.51 23.31 54.45 20.36L54.4399 20.35Z"
                fill="#74E0C1"
            />
            <path d="M42.25 35.29L47.21 18.41H36.97L42.25 35.29Z" fill="white" />
            <path d="M36.45 31.03H28.83V32.8H36.45V31.03Z" fill="#5DC9A8" />
            <path d="M36.6601 33.26H32.0601V35.03H36.6601V33.26Z" fill="#5DC9A8" />
            <path d="M53.6701 39.25H42.3101V41.02H53.6701V39.25Z" fill="#5DC9A8" />
            <path d="M55.77 30.86H46.64V32.63H55.77V30.86Z" fill="#5DC9A8" />
            <path d="M55.77 28.16H50.6V29.93H55.77V28.16Z" fill="#5DC9A8" />
            <path d="M53.7399 25.45H48.5699V27.2199H53.7399V25.45Z" fill="#5DC9A8" />
            <path d="M37.3699 24.23H32.2V26H37.3699V24.23Z" fill="#5DC9A8" />
            <path d="M33.68 26.67H30.48V28.44H33.68V26.67Z" fill="#5DC9A8" />
            <path d="M51.0101 19.76H47.8101V21.53H51.0101V19.76Z" fill="#5DC9A8" />
            <path d="M36.6601 48.58H32.0601V50.35H36.6601V48.58Z" fill="#5DC9A8" />
            <path d="M44.88 41.58H37.59V43.35H44.88V41.58Z" fill="#5DC9A8" />
            <path d="M55.23 46.95H50.63V48.72H55.23V46.95Z" fill="#5DC9A8" />
            <path d="M34.33 46.35H29.73V48.12H34.33V46.35Z" fill="#5DC9A8" />
            <path
                d="M44.25 5.06006H33.86V13.1701C33.86 14.9901 35.34 16.4701 37.16 16.4701H38.21C38.72 16.4701 39.14 16.8801 39.14 17.4001V18.4801C39.14 19.8801 40.28 21.0201 41.68 21.0201C43.08 21.0201 44.22 19.8901 44.22 18.4901L44.26 5.06006H44.25Z"
                fill="#FADDDC"
            />
            <path
                d="M37.23 13.47H36.6C36.04 13.47 35.58 13.01 35.58 12.45V9.37996C35.58 9.14996 35.77 8.95996 36 8.95996C36.23 8.95996 36.42 9.14996 36.42 9.37996V12.04C36.42 12.36 36.68 12.62 37 12.62H37.22C37.45 12.62 37.64 12.81 37.64 13.04C37.64 13.27 37.45 13.46 37.22 13.46L37.23 13.47Z"
                fill="#E0B1BB"
            />
            <path
                d="M43.79 2.39C43.66 1.78 43.12 1.32 42.47 1.32C42.33 1.32 42.2 1.35 42.07 1.39C41.89 0.85 41.39 0.46 40.8 0.46C40.41 0.46 40.06 0.63 39.82 0.89C39.38 0.35 38.72 0 37.96 0C37.09 0 36.33 0.47 35.91 1.17C35.68 1.04 35.43 0.97 35.15 0.97C34.33 0.97 33.66 1.61 33.59 2.41C32.62 2.52 31.88 3.38 31.98 4.4C32.08 5.35 32.95 6.04 33.9 6.04H41.33C41.92 6.04 42.4 6.52 42.4 7.11V7.53C42.4 8.54 43.22 9.35 44.22 9.35C44.52 9.35 44.78 9.12 44.81 8.82L45.28 4.1C45.37 3.21 44.69 2.44 43.8 2.4L43.79 2.39Z"
                fill="#3E2967"
            />
            <path
                d="M38.28 9.50995C38.28 9.81995 38.53 10.07 38.84 10.07C39.15 10.07 39.4 9.81995 39.4 9.50995C39.4 9.19995 39.15 8.94995 38.84 8.94995C38.53 8.94995 38.28 9.19995 38.28 9.50995Z"
                fill="#757570"
            />
            <path
                d="M43.54 53.12H27.54V60.29V96.92V96.94V96.97V98.27C27.54 98.92 27.24 99.53 26.73 99.88C26.12 100.3 25.53 100.73 24.94 101.18C24.25 101.72 24.61 102.89 25.46 102.89H28.91H29.79C30.57 102.89 31.25 102.32 31.44 101.5L33.41 92.93C34.74 86.93 35.99 80.87 37.17 74.76C38 70.47 38.78 66.19 39.52 61.92C39.68 60.98 40.48 60.3 41.41 60.3H43.1C44.03 60.3 44.83 60.98 44.99 61.92C45.73 66.19 46.51 70.47 47.34 74.76C48.78 82.25 50.34 89.66 52 96.98C52.28 98.21 51.8 99.47 50.82 100.16C50.34 100.49 49.88 100.84 49.42 101.2C48.73 101.74 49.09 102.92 49.94 102.92H53.38H53.59C55.47 102.92 56.99 101.28 56.99 99.26V60.3V53.13H43.53L43.54 53.12Z"
                fill="#3E2967"
            />
        </g>
        <defs>
            <clipPath id="clip0_8_259">
                <rect width="68.15" height="102.91" fill="white" />
            </clipPath>
        </defs>
    </svg>
