<svg width="45" height="107" viewBox="0 0 45 107" fill="none" xmlns="http://www.w3.org/2000/svg">
<g clip-path="url(#clip0_133_867)">
<path d="M19.5299 17.89H24.1399V14.54H19.5299V17.89Z" fill="#FADDDC"/>
<path d="M16.6299 10.9H17.1899V8.34998C17.1899 7.93998 16.8599 7.59998 16.4399 7.59998H16.1399C15.7299 7.59998 15.3899 7.92998 15.3899 8.34998L15.7399 10.02C15.7399 10.51 16.1299 10.9 16.6199 10.9H16.6299Z" fill="#FADDDC"/>
<path d="M27.7499 10.9H27.1899V8.34998C27.1899 7.93998 27.5199 7.59998 27.9399 7.59998H28.2399C28.6499 7.59998 28.9899 7.92998 28.9899 8.34998L28.6399 10.02C28.6399 10.51 28.2499 10.9 27.7599 10.9H27.7499Z" fill="#FADDDC"/>
<path d="M37.81 53.0499C37.49 54.6999 38.56 56.2999 40.2 56.6199C41.55 56.8899 42.87 56.2099 43.48 55.0499C43.61 54.7999 43.71 54.5199 43.77 54.2299C43.91 53.5199 44.02 52.81 44.12 52.11L38 51.95C37.94 52.32 37.88 52.69 37.81 53.06V53.0499Z" fill="#FADDDC"/>
<path d="M27.62 20.0401C26.48 21.2701 26.55 23.1901 27.77 24.3301C27.9 24.4501 40.4 36.3501 38.01 51.9401L44.13 52.1001C46.54 33.7001 32.54 20.4501 31.92 19.8801C30.69 18.7401 28.77 18.8101 27.63 20.0401H27.62Z" fill="#74E0C1"/>
<path d="M5.81006 49.56C5.92006 51.13 4.74006 52.49 3.18006 52.6C3.11006 52.6 3.04006 52.6 2.97006 52.6C1.49006 52.6 0.240059 51.46 0.140059 49.96C0.100059 49.47 0.0800586 48.98 0.0600586 48.5H5.76006C5.78006 48.85 5.79006 49.19 5.81006 49.55V49.56Z" fill="#FADDDC"/>
<path d="M12.4899 18.95C13.8599 18.19 15.5699 18.68 16.3399 20.04C17.1099 21.4 16.6199 23.13 15.2599 23.91C14.7399 24.21 4.77988 28.8 5.74988 48.51H0.0598827C-0.970117 25.33 11.8399 19.31 12.4899 18.95Z" fill="#74E0C1"/>
<path d="M7.81005 52.05H35.32L35.3101 27.05C35.3101 21.91 31.14 17.74 26 17.74H17.11C11.97 17.74 7.80005 21.91 7.80005 27.05L7.82005 52.05H7.81005Z" fill="#74E0C1"/>
<path d="M7.81006 52.05H20.3801H35.3201C35.3201 52.05 27.0701 99.1101 28.4401 98.5401C29.0901 98.2701 29.5001 98.14 30.0401 98.63C30.6801 99.21 30.1901 100.91 29.6201 101.82L23.7901 106.46C21.4901 105.93 21.8001 104.13 22.2501 102.75C22.5501 101.84 22.7301 100.88 22.7701 99.9101C22.9601 93.8101 23.9101 66.5701 24.0701 62.0401C24.1101 61.0001 23.2301 59.8801 22.3601 59.8801H20.7801C19.9101 59.8801 19.1601 60.6301 19.0101 61.6501C18.3201 66.3001 19.2301 69.8001 19.4801 83.9101C19.4801 83.9101 19.3301 88.09 19.0801 89.09C18.7201 90.51 17.2701 90.3 16.7701 89.25C16.3401 88.34 15.9001 84.6301 15.8201 83.9101H14.3801L7.81006 52.0601V52.05Z" fill="#3E2967"/>
<path d="M16.4301 3.91C16.4101 3.82 16.3701 3.73 16.3701 3.63C16.3701 3.27 16.5201 2.95 16.7501 2.71C16.7501 2.7 16.7501 2.69 16.7501 2.67C16.7501 1.94 17.3401 1.35 18.0701 1.35C18.2901 0.93 18.7201 0.64 19.2301 0.64C19.3601 0.64 19.4801 0.68 19.6001 0.71C19.8401 0.38 20.2101 0.15 20.6601 0.15C20.9301 0.15 21.1601 0.25 21.3701 0.39C21.5901 0.15 21.9201 0 22.2901 0C22.6601 0 22.9601 0.14 23.2001 0.37C23.3901 0.27 23.5901 0.2 23.8201 0.2C24.3901 0.2 24.8701 0.56 25.0501 1.07C25.0701 1.07 25.0801 1.07 25.0901 1.07C25.6601 1.07 26.1401 1.43 26.3201 1.94C26.3401 1.94 26.3501 1.94 26.3601 1.94C27.0901 1.94 27.6901 2.53 27.6901 3.27C27.6901 3.52 27.6001 3.74 27.4801 3.94C27.8901 4.62 28.1101 5.27 28.1101 6.04C28.1101 7.49 28.0101 8.72 27.7601 9.7C27.5101 10.68 26.4601 13.96 24.4301 15.27C23.4601 15.9 20.8701 16.28 19.5701 15.27C18.2701 14.26 17.1401 12.94 16.8201 10.86C16.5001 8.78 16.4801 8.4 16.1301 7.42C15.8101 6.53 16.2501 4.68 16.4301 3.95V3.91Z" fill="#3E2967"/>
</g>
<defs>
<clipPath id="clip0_133_867">
<rect width="44.4" height="106.46" fill="white"/>
</clipPath>
</defs>
</svg>
