<svg width="62" height="107" viewBox="0 0 62 107" fill="none" xmlns="http://www.w3.org/2000/svg">
<g clip-path="url(#clip0_109_1019)">
<path d="M59.7601 45.23C61.3301 45.69 62.2301 47.34 61.7601 48.91C61.3801 50.2 60.2001 51.03 58.9201 51.03C58.6401 51.03 58.3601 50.99 58.0801 50.91C57.4001 50.71 56.7401 50.49 56.0901 50.25L58.7101 44.89C59.0501 45.01 59.4001 45.12 59.7501 45.22L59.7601 45.23Z" fill="#F4D3D3"/>
<path d="M35.8501 21.52C37.4301 21.09 39.0501 22.01 39.4901 23.59C39.5401 23.76 44.1801 39.93 58.7201 44.9L56.1001 50.26C39.1101 44.03 34.0001 25.95 33.7801 25.16C33.3501 23.58 34.2801 21.96 35.8501 21.53V21.52Z" fill="#F4B2C4"/>
<path d="M10.22 55.46H40.27L40.2599 27.12C40.2599 22.11 36.2 18.04 31.18 18.04H19.28C14.27 18.04 10.2 22.1 10.2 27.11L10.22 55.46Z" fill="#F4B2C4"/>
<path d="M6.05006 53.5499C6.17006 55.1799 4.94006 56.6 3.31006 56.72C3.24006 56.72 3.17006 56.72 3.10006 56.72C1.56006 56.72 0.260059 55.53 0.150059 53.97C0.110059 53.46 0.0900586 52.95 0.0600586 52.45H6.00006C6.02006 52.81 6.03006 53.17 6.06006 53.54L6.05006 53.5499Z" fill="#F4D3D3"/>
<path d="M15.2 19.01C16.62 18.22 18.41 18.73 19.21 20.15C20.01 21.57 19.5 23.37 18.09 24.18C17.55 24.49 4.97999 31.92 5.98999 52.46H0.0499915C-1.02001 28.31 14.52 19.38 15.2 19.01Z" fill="#F4B2C4"/>
<path d="M27.68 36.3101H27.29V53.6901H27.68V36.3101Z" fill="#EF9AB4"/>
<path d="M15.84 42.12H22.1V47.75C22.1 48.74 21.29 49.55 20.3 49.55H17.65C16.66 49.55 15.85 48.74 15.85 47.75V42.12H15.84Z" fill="#EF9AB4"/>
<path d="M29.75 41.98H36.01V47.61C36.01 48.6 35.2 49.41 34.21 49.41H31.56C30.57 49.41 29.76 48.6 29.76 47.61V41.98H29.75Z" fill="#EF9AB4"/>
<path d="M29.92 18.02L27.63 36.98L21.71 18.02H29.92Z" fill="white"/>
<path d="M21.71 18.0601L27.63 36.9801L18.99 24.2101L21.71 18.0601Z" fill="#EF9AB4"/>
<path d="M29.92 18.05L33.48 23.75L27.63 37.01L29.92 18.05Z" fill="#EF9AB4"/>
<path d="M28.43 4.58997H18.04V12.7C18.04 14.52 19.52 16 21.34 16H22.39C22.9 16 23.32 16.41 23.32 16.93V17.94C23.32 19.34 24.46 20.48 25.86 20.48C27.26 20.48 28.39 19.35 28.4 17.95L28.44 4.58997H28.43Z" fill="#FADDDC"/>
<path d="M21.4 13H20.77C20.21 13 19.75 12.54 19.75 11.98V8.90999C19.75 8.67999 19.94 8.48999 20.17 8.48999C20.4 8.48999 20.59 8.67999 20.59 8.90999V11.57C20.59 11.89 20.85 12.15 21.17 12.15H21.39C21.62 12.15 21.82 12.34 21.82 12.57C21.82 12.8 21.63 12.99 21.39 12.99L21.4 13Z" fill="#E0B1BB"/>
<path d="M22.4399 9.03998C22.4399 9.34998 22.6899 9.59998 22.9999 9.59998C23.3099 9.59998 23.5599 9.34998 23.5599 9.03998C23.5599 8.72998 23.3099 8.47998 22.9999 8.47998C22.6899 8.47998 22.4399 8.72998 22.4399 9.03998Z" fill="#757570"/>
<path d="M23.2 1.34C22.38 1.34 21.6 1.03 20.92 0.56C20.41 0.21 19.78 0 19.11 0C18.04 0 17.09 0.53 16.5 1.34C16.11 1.87 15.87 2.53 15.87 3.24C15.87 4.48 16.58 5.54 17.6 6.09C17.71 6.15 17.82 6.2 17.94 6.25C18.62 6.53 19.41 6.69 20.25 6.69C21.28 6.69 22.24 6.45 22.99 6.06C23.51 5.79 24.07 5.61 24.65 5.61C25.79 5.61 26.71 6.53 26.71 7.67V9.7C26.71 10.62 27.45 11.36 28.37 11.36H28.4C29.03 11.36 29.55 10.85 29.55 10.21V4.78C29.55 2.89 28.01 1.35 26.12 1.35H23.19L23.2 1.34Z" fill="#3E2967"/>
<path d="M11.91 55.63H38.83L31.03 100.79C30.94 101.64 30.56 102.63 31.51 103.38C32.04 103.8 32.61 104.18 33.14 104.6C33.77 105.1 33.44 106.2 32.66 106.2L27.63 105.2C25.38 104.74 25.68 103.2 26.13 102.01C26.42 101.22 26.6 100.4 26.63 99.56C26.82 94.31 26.12 63.04 26.12 63.04H24.58C24.58 63.04 21.23 93.2 20.99 94.05C20.64 95.27 19.22 95.09 18.73 94.19C18.31 93.41 17.88 90.22 17.8 89.6H16.39L11.89 55.63H11.91Z" fill="#3E2967"/>
</g>
<defs>
<clipPath id="clip0_109_1019">
<rect width="61.88" height="106.2" fill="white"/>
</clipPath>
</defs>
</svg>
