<svg width="43" height="109" viewBox="0 0 43 109" fill="none" xmlns="http://www.w3.org/2000/svg">
<g clip-path="url(#clip0_109_1109)">
<path d="M11.8401 55.19L27.8601 54.17L16.3601 75.22L21.1001 96.18L18.7501 96.92V98.96C18.9301 100.39 18.9301 101.32 17.4101 102.15L13.5001 103.15C12.7301 103.21 12.3701 102.26 12.9701 101.61C13.3701 101.18 14.2101 100.88 14.5701 100.4C16.1401 98.28 15.3201 97.78 15.0201 96.44C13.2301 88.43 6.81006 74.91 6.81006 74.91L11.8501 55.18L11.8401 55.19Z" fill="#291B4C"/>
<path d="M16.29 53.25L31.86 53.62L29.06 102.34L26.74 103.09C26.73 103.68 26.74 104.67 26.99 105.21C27.35 106.01 27.7 107.27 26.5 107.69L20.41 108.14C19.65 107.99 19.51 106.63 20.21 106.16C20.67 105.85 21.94 105.3 22.42 105.02C23.4 104.43 23.36 103.36 23.17 101.98C21.79 92.01 16.3 53.24 16.3 53.24L16.29 53.25Z" fill="#3E2C6D"/>
<path d="M36.38 53.61C36.26 55.25 37.49 56.68 39.12 56.8C40.47 56.9 41.67 56.09 42.12 54.89C42.22 54.63 42.28 54.35 42.3 54.06C42.35 53.35 42.38 52.65 42.39 51.96L36.43 52.52C36.42 52.88 36.4 53.25 36.37 53.62L36.38 53.61Z" fill="#FADDDC"/>
<path d="M22.62 22.73C21.65 24.06 21.95 25.91 23.27 26.88C23.41 26.98 36.95 37.09 36.45 52.51L42.41 51.95C42.6 33.79 27.44 22.56 26.77 22.07C25.44 21.11 23.59 21.4 22.62 22.73Z" fill="#EF9AB4"/>
<path d="M10.6901 55.94H33.4001C33.4001 55.94 37.3401 19.32 23.1801 18.7L18.8401 18.49C17.3401 18.42 15.8901 19.11 15.0501 20.35C8.95005 29.34 10.6901 55.93 10.6901 55.93V55.94Z" fill="#F4B2C4"/>
<path d="M24.46 18.92C22.36 18.32 19.99 18.17 17.29 18.58L17.13 36.83L24.46 18.92Z" fill="white"/>
<path d="M24.02 4.65003L13.64 4.16003L13.48 7.65003L13.21 13.45C13.12 15.27 14.53 16.82 16.35 16.9L17.4 16.95C17.91 16.97 18.31 17.41 18.28 17.92C18.21 19.49 19.84 20.57 21.25 19.88L23.14 18.97L24.03 4.65003H24.02Z" fill="#FADDDC"/>
<path d="M13.51 13.63L12.91 13.43C12.38 13.25 12.09 12.68 12.26 12.14L13.23 9.23001C13.3 9.01001 13.54 8.89001 13.77 8.96001C14 9.03001 14.11 9.27001 14.04 9.50001L13.2 12.03C13.1 12.33 13.26 12.66 13.57 12.76L13.78 12.83C14 12.9 14.12 13.14 14.05 13.37C13.98 13.6 13.74 13.71 13.51 13.64V13.63Z" fill="#E0B1BB"/>
<path d="M15.18 9.27995C15.17 9.58995 15.4 9.84995 15.71 9.85995C16.02 9.86995 16.28 9.63995 16.29 9.32995C16.3 9.01995 16.07 8.75995 15.76 8.74995C15.45 8.73995 15.19 8.96995 15.18 9.27995Z" fill="#757570"/>
<path d="M24.46 18.92L17.13 36.84L25.68 26.02L24.46 18.92Z" fill="#EF9AB4"/>
<path d="M17.29 18.58L17.1 37.38L14.95 24.63L17.29 18.58Z" fill="#EF9AB4"/>
<path d="M16.9079 37.3652L15.7318 53.8533L16.1308 53.8817L17.3069 37.3936L16.9079 37.3652Z" fill="#EF9AB4"/>
<path d="M20.8009 41.2286L27.0539 41.5246L26.7877 47.1483C26.7409 48.1372 25.8935 48.908 24.9046 48.8612L22.2576 48.7359C21.2687 48.6891 20.4979 47.8417 20.5447 46.8528L20.8109 41.2291L20.8009 41.2286Z" fill="#EF9AB4"/>
<path d="M11.06 48.5C10.5 48.47 10.43 47.66 10.47 46.67L10.74 41.05L13.21 41.17L12.94 46.7901C12.89 47.7801 12.05 48.55 11.06 48.5Z" fill="#EF9AB4"/>
<path d="M21.6919 11.4619C21.6668 11.9915 22.0758 12.4411 22.6054 12.4662C23.135 12.4913 23.5847 12.0823 23.6097 11.5527L23.7085 9.46501C23.7336 8.93541 23.3246 8.48576 22.795 8.46069C22.2654 8.43562 21.8158 8.84463 21.7907 9.37423L21.6919 11.4619Z" fill="#FADDDC"/>
<path d="M19.09 1.53003C18.27 1.49003 17.51 1.14003 16.85 0.650032C16.35 0.270032 15.74 0.040032 15.07 0.010032C14 -0.039968 13.03 0.440032 12.4 1.22003C11.99 1.74003 11.72 2.38003 11.68 3.09003C11.62 4.33003 12.28 5.42003 13.27 6.01003C13.38 6.07003 13.48 6.13003 13.6 6.19003C14.26 6.50003 15.04 6.70003 15.89 6.74003C16.92 6.79003 17.99 6.73003 18.81 6.47003C20.24 6.01003 21.31 6.80003 21.26 7.93003L21.39 9.10003C21.61 10.14 22.04 10.46 22.55 10.55C23.2 10.67 23.62 11.3 23.6 11.96L23.49 14.58C24.12 14.61 24.99 11.33 25.02 10.69L25.66 6.12003L25.7 5.29003C25.79 3.40003 24.33 1.79003 22.44 1.70003L19.09 1.54003V1.53003Z" fill="#3E2967"/>
<path d="M2.25994 52.9799C0.669943 53.3699 -0.310056 54.99 0.0899436 56.58C0.409944 57.89 1.55994 58.78 2.83994 58.84C3.11994 58.85 3.39994 58.8299 3.68994 58.7599C4.37994 58.5899 5.04994 58.3999 5.70994 58.1899L3.31994 52.7C2.96994 52.8 2.61994 52.9 2.25994 52.99V52.9799Z" fill="#FADDDC"/>
<path d="M28.1701 27.58C26.6101 27.07 24.9301 27.93 24.4301 29.49C24.3801 29.66 18.4901 48.93 3.68005 53.27L10.5801 55.99C24.9801 50.6 29.8501 32.1 30.1001 31.32C30.6001 29.76 29.7401 28.09 28.1801 27.58H28.1701Z" fill="#EF9AB4"/>
<path d="M28.1299 26.94C26.5699 26.43 24.8899 27.29 24.3899 28.85C24.3399 29.02 18.1299 48.36 3.31995 52.69L5.70995 58.18C23.0299 52.7 29.7899 31.46 30.0499 30.67C30.5499 29.11 29.6899 27.44 28.1299 26.93V26.94Z" fill="#F4B2C4"/>
</g>
<defs>
<clipPath id="clip0_109_1109">
<rect width="42.41" height="108.15" fill="white"/>
</clipPath>
</defs>
</svg>
