<svg width="60" height="107" viewBox="0 0 60 107" fill="none" xmlns="http://www.w3.org/2000/svg">
<g clip-path="url(#clip0_109_1086)">
<path d="M28.11 56.59L40.08 56.13L46.67 78.24L59.19 95.94L56.86 97.8C57.14 98.3 57.63 99.12 58.1 99.44C58.79 99.9 59.69 100.77 58.88 101.8L53.92 105.65C53.2 105.96 52.43 104.9 52.79 104.1C53.03 103.57 53.85 102.39 54.12 101.89C54.67 100.84 54.01 100.05 53.29 98.91C48.96 92.12 38.85 81.73 38.85 81.73L28.11 56.59Z" fill="#291B4C"/>
<path d="M25.18 55.05L44.84 55.85L23.38 80.6L16 102.96L13.22 102.57L12.32 104.34C11.39 106.33 11.27 107.18 9.72998 106.41L5.89998 104.91C5.19998 104.56 5.30998 103.55 6.12998 103.3C6.66998 103.14 7.49998 103.11 8.05998 103.08C10.14 102.98 9.85998 101.53 10.19 100.21C12.19 92.33 13.09 86.0001 15.36 78.0501C16.65 73.4901 25.2 55.0601 25.2 55.0601L25.18 55.05Z" fill="#3F3072"/>
<path d="M2.23003 42.46C0.64003 42.87 -0.31997 44.49 0.0900299 46.08C0.43003 47.39 1.58003 48.27 2.86003 48.31C3.14003 48.31 3.42003 48.29 3.71003 48.22C4.40003 48.04 5.07003 47.84 5.73003 47.63L3.29003 42.16C2.94003 42.27 2.59003 42.37 2.23003 42.46Z" fill="#FADDDC"/>
<path d="M27.06 19.51C25.49 19.02 23.83 19.89 23.33 21.46C23.28 21.63 18.05 37.69 3.28003 42.16L5.72003 47.63C22.99 41.98 28.76 24.02 29 23.23C29.49 21.66 28.61 20 27.05 19.51H27.06Z" fill="#EF9AB4"/>
<path d="M21.43 56.08L47.38 56.05C47.38 56.05 46.33 18.25 32.15 18.3H27.8C26.3 18.3 24.88 19.06 24.1 20.34C18.43 29.6 21.43 56.09 21.43 56.09V56.08Z" fill="#F4B2C4"/>
<path d="M53.25 51.03C53.33 52.67 54.73 53.93 56.37 53.85C57.72 53.78 58.81 52.83 59.11 51.58C59.18 51.31 59.2 51.02 59.19 50.73C59.15 50.02 59.09 49.32 59.02 48.64L53.17 49.93C53.2 50.29 53.23 50.66 53.25 51.03Z" fill="#FADDDC"/>
<path d="M32.64 20.65C31.84 22.09 32.37 23.89 33.8 24.69C33.95 24.77 51.74 34.57 53.16 49.93L59.01 48.64C56.95 30.59 37.4 19.88 36.67 19.48C35.23 18.69 33.43 19.21 32.64 20.65Z" fill="#F4B2C4"/>
<path d="M33.43 18.45C31.3 17.95 28.93 17.91 26.25 18.45L26.95 36.69L33.43 18.45Z" fill="white"/>
<path d="M32.3201 4.21997H21.9301V7.70997V13.52C21.9301 15.34 23.4101 16.82 25.2301 16.82H26.2801C26.7901 16.82 27.2101 17.23 27.2101 17.75C27.2101 19.32 28.8901 20.32 30.2701 19.57L32.1201 18.57L32.3301 4.22997L32.3201 4.21997Z" fill="#FADDDC"/>
<path d="M22.2401 13.69L21.6401 13.52C21.1001 13.37 20.7801 12.8 20.9301 12.26L21.7601 9.30004C21.8201 9.07004 22.0601 8.94004 22.2801 9.01004C22.5001 9.08004 22.6401 9.31004 22.5701 9.53004L21.8501 12.09C21.7601 12.4 21.9401 12.72 22.2501 12.8L22.4601 12.86C22.6901 12.92 22.8201 13.16 22.7501 13.38C22.6801 13.6 22.4501 13.74 22.2301 13.67L22.2401 13.69Z" fill="#E0B1BB"/>
<path d="M23.7 9.25995C23.7 9.56995 23.95 9.81995 24.26 9.81995C24.57 9.81995 24.82 9.56995 24.82 9.25995C24.82 8.94995 24.57 8.69995 24.26 8.69995C23.95 8.69995 23.7 8.94995 23.7 9.25995Z" fill="#757570"/>
<path d="M33.43 18.45L26.95 36.6899L34.9799 25.4799L33.43 18.45Z" fill="#EF9AB4"/>
<path d="M26.25 18.45L26.95 37.24L24.2 24.61L26.25 18.45Z" fill="#EF9AB4"/>
<path d="M26.7443 37.233L26.3491 53.7583L26.749 53.7679L27.1442 37.2426L26.7443 37.233Z" fill="#EF9AB4"/>
<path d="M30.8199 40.91H37.0799V46.54C37.0799 47.53 36.2699 48.34 35.2799 48.34H32.6299C31.6399 48.34 30.8299 47.53 30.8299 46.54V40.91H30.8199Z" fill="#EF9AB4"/>
<path d="M21.44 48.63C20.88 48.63 20.77 47.82 20.77 46.83V41.2H23.24V46.83C23.24 47.83 22.43 48.63 21.44 48.63Z" fill="#EF9AB4"/>
<path d="M30.31 11.13C30.31 11.6602 30.7398 12.09 31.27 12.09C31.8002 12.09 32.23 11.6602 32.23 11.13V9.03997C32.23 8.50977 31.8002 8.07997 31.27 8.07997C30.7398 8.07997 30.31 8.50977 30.31 9.03997V11.13Z" fill="#FADDDC"/>
<path d="M27.24 1.34C26.42 1.34 25.64 1.03 24.96 0.56C24.45 0.21 23.82 0 23.15 0C22.08 0 21.13 0.53 20.54 1.34C20.15 1.87 19.91 2.53 19.91 3.24C19.91 4.48 20.62 5.54 21.64 6.09C21.75 6.15 21.86 6.2 21.98 6.25C22.66 6.53 23.45 6.69 24.29 6.69C25.32 6.69 26.39 6.58 27.19 6.28C28.59 5.75 29.71 6.49 29.71 7.62L29.89 8.78C30.15 9.81 30.6 10.11 31.12 10.17C31.77 10.26 32.23 10.87 32.23 11.53L32.25 14.15C32.88 14.15 33.59 10.83 33.59 10.19L34.02 5.59V4.76C34.02 2.87 32.48 1.33 30.59 1.33H27.24V1.34Z" fill="#3E2967"/>
</g>
<defs>
<clipPath id="clip0_109_1086">
<rect width="59.21" height="106.68" fill="white"/>
</clipPath>
</defs>
</svg>
