<svg width="62" height="106" viewBox="0 0 62 106" fill="none" xmlns="http://www.w3.org/2000/svg">
<g clip-path="url(#clip0_109_1001)">
<path d="M2.11996 44.92C0.549958 45.38 -0.350042 47.03 0.119958 48.6C0.499958 49.89 1.67996 50.72 2.95996 50.72C3.23996 50.72 3.51996 50.68 3.79996 50.6C4.47996 50.4 5.13996 50.18 5.78996 49.94L3.16996 44.58C2.82996 44.7 2.47996 44.81 2.12996 44.91L2.11996 44.92Z" fill="#F4D3D3"/>
<path d="M26.04 21.2099C24.46 20.7799 22.84 21.6999 22.4 23.2799C22.35 23.4499 17.71 39.6199 3.17004 44.5899L5.79004 49.9499C22.78 43.7199 27.89 25.6399 28.11 24.8499C28.54 23.2699 27.61 21.6499 26.04 21.2199V21.2099Z" fill="#F4B2C4"/>
<path d="M51.66 55.14H21.61L21.62 26.8C21.62 21.79 25.68 17.72 30.7 17.72H42.6C47.61 17.72 51.68 21.78 51.68 26.79L51.66 55.14Z" fill="#F4B2C4"/>
<path d="M55.84 53.23C55.72 54.86 56.95 56.28 58.58 56.4C58.65 56.4 58.72 56.4 58.79 56.4C60.33 56.4 61.63 55.21 61.74 53.65C61.78 53.14 61.8 52.63 61.83 52.13H55.89C55.87 52.49 55.86 52.85 55.83 53.22L55.84 53.23Z" fill="#F4D3D3"/>
<path d="M46.69 18.6901C45.27 17.9001 43.48 18.4101 42.68 19.8301C41.88 21.2501 42.39 23.0501 43.8 23.8601C44.34 24.1701 56.91 31.6001 55.9 52.1401H61.84C62.91 27.9901 47.37 19.0701 46.7 18.6901H46.69Z" fill="#F4B2C4"/>
<path d="M34.2 53.38H34.59V36H34.2V53.38Z" fill="#EF9AB4"/>
<path d="M44.24 49.24H41.59C40.6 49.24 39.79 48.43 39.79 47.44V41.81H46.05V47.44C46.05 48.43 45.24 49.24 44.25 49.24H44.24Z" fill="#EF9AB4"/>
<path d="M30.33 49.1H27.68C26.69 49.1 25.88 48.29 25.88 47.3V41.67H32.14V47.3C32.14 48.29 31.33 49.1 30.34 49.1H30.33Z" fill="#EF9AB4"/>
<path d="M31.97 17.71L34.26 36.66L40.17 17.71H31.97Z" fill="white"/>
<path d="M40.17 17.75L34.26 36.66L42.89 23.9L40.17 17.75Z" fill="#EF9AB4"/>
<path d="M31.97 17.74L28.4 23.44L34.26 36.69L31.97 17.74Z" fill="#EF9AB4"/>
<path d="M38.5 4.58997H28.11V12.7C28.11 14.52 29.59 16 31.41 16H32.46C32.97 16 33.39 16.41 33.39 16.93V17.94C33.39 19.34 34.53 20.48 35.93 20.48C37.33 20.48 38.46 19.35 38.47 17.95L38.51 4.58997H38.5Z" fill="#FADDDC"/>
<path d="M31.48 13H30.85C30.29 13 29.83 12.54 29.83 11.98V8.90999C29.83 8.67999 30.02 8.48999 30.25 8.48999C30.48 8.48999 30.67 8.67999 30.67 8.90999V11.57C30.67 11.89 30.93 12.15 31.25 12.15H31.47C31.7 12.15 31.9 12.34 31.9 12.57C31.9 12.8 31.71 12.99 31.47 12.99L31.48 13Z" fill="#E0B1BB"/>
<path d="M32.52 9.03998C32.52 9.34998 32.77 9.59998 33.08 9.59998C33.39 9.59998 33.64 9.34998 33.64 9.03998C33.64 8.72998 33.39 8.47998 33.08 8.47998C32.77 8.47998 32.52 8.72998 32.52 9.03998Z" fill="#757570"/>
<path d="M33.2699 1.34C32.4499 1.34 31.6699 1.03 30.9899 0.56C30.4799 0.21 29.8499 0 29.1799 0C28.1099 0 27.1599 0.53 26.5699 1.34C26.1799 1.87 25.9399 2.53 25.9399 3.24C25.9399 4.48 26.6499 5.54 27.6699 6.09C27.7799 6.15 27.8899 6.2 28.0099 6.25C28.6899 6.53 29.4799 6.69 30.3199 6.69C31.3499 6.69 32.3099 6.45 33.0599 6.06C33.5799 5.79 34.1399 5.61 34.7199 5.61C35.8599 5.61 36.7799 6.53 36.7799 7.67V9.7C36.7799 10.62 37.5199 11.36 38.4399 11.36H38.4699C39.0999 11.36 39.6199 10.85 39.6199 10.21V4.78C39.6199 2.89 38.0799 1.35 36.1899 1.35H33.2599L33.2699 1.34Z" fill="#3E2967"/>
<path d="M49.9801 55.3199H23.0601L30.8601 100.48C30.9501 101.33 31.3301 102.32 30.3801 103.07C29.8501 103.49 29.2801 103.87 28.7501 104.29C28.1201 104.79 28.4501 105.89 29.2301 105.89L34.2601 104.89C36.5101 104.43 36.2101 102.89 35.7601 101.7C35.4701 100.91 35.2901 100.09 35.2601 99.2499C35.0701 93.9999 35.7701 62.7299 35.7701 62.7299H37.3101C37.3101 62.7299 40.6601 92.8899 40.9001 93.7399C41.2501 94.9599 42.6701 94.7799 43.1601 93.8799C43.5801 93.0999 44.0101 89.9099 44.0901 89.2899H45.5001L50.0001 55.3199H49.9801Z" fill="#3E2967"/>
</g>
<defs>
<clipPath id="clip0_109_1001">
<rect width="61.88" height="105.89" fill="white"/>
</clipPath>
</defs>
</svg>
