<svg width="60" height="107" viewBox="0 0 60 107" fill="none" xmlns="http://www.w3.org/2000/svg">
<g clip-path="url(#clip0_109_1041)">
<path d="M31.1 56.59L19.13 56.13L12.54 78.24L0.00999512 95.94L2.34 97.8C2.06 98.3 1.57 99.12 1.1 99.44C0.409995 99.9 -0.490005 100.77 0.319995 101.8L5.28 105.65C6 105.96 6.77 104.9 6.41 104.1C6.17 103.57 5.35 102.39 5.08 101.89C4.52999 100.84 5.18999 100.05 5.91 98.91C10.24 92.12 20.35 81.73 20.35 81.73L31.09 56.59H31.1Z" fill="#291B4C"/>
<path d="M34.03 55.05L14.37 55.85L35.83 80.6L43.21 102.96L45.99 102.57L46.89 104.34C47.82 106.33 47.94 107.18 49.48 106.41L53.31 104.91C54.01 104.56 53.9 103.55 53.08 103.3C52.54 103.14 51.71 103.11 51.15 103.08C49.07 102.98 49.35 101.53 49.02 100.21C47.02 92.33 46.12 86.0001 43.85 78.0501C42.56 73.4901 34.01 55.0601 34.01 55.0601L34.03 55.05Z" fill="#3F3072"/>
<path d="M56.98 42.46C58.57 42.87 59.53 44.49 59.12 46.08C58.78 47.39 57.63 48.27 56.35 48.31C56.07 48.31 55.79 48.29 55.5 48.22C54.81 48.04 54.14 47.84 53.48 47.63L55.92 42.16C56.27 42.27 56.62 42.37 56.98 42.46Z" fill="#FADDDC"/>
<path d="M32.15 19.51C33.72 19.02 35.38 19.89 35.88 21.46C35.93 21.63 41.16 37.69 55.93 42.16L53.49 47.63C36.22 41.98 30.45 24.02 30.21 23.23C29.72 21.66 30.6 20 32.16 19.51H32.15Z" fill="#EF9AB4"/>
<path d="M37.78 56.08L11.83 56.05C11.83 56.05 12.88 18.25 27.06 18.3H31.41C32.91 18.3 34.33 19.06 35.11 20.34C40.78 29.6 37.78 56.09 37.78 56.09V56.08Z" fill="#F4B2C4"/>
<path d="M5.95999 51.03C5.87999 52.67 4.47999 53.93 2.83999 53.85C1.48999 53.78 0.399992 52.83 0.0999925 51.58C0.0299925 51.31 0.00999249 51.02 0.0199925 50.73C0.0599925 50.02 0.119992 49.32 0.189992 48.64L6.03999 49.93C6.00999 50.29 5.97999 50.66 5.95999 51.03Z" fill="#FADDDC"/>
<path d="M26.57 20.65C27.3699 22.09 26.84 23.89 25.41 24.69C25.26 24.77 7.46995 34.57 6.04995 49.93L0.199951 48.64C2.25995 30.59 21.81 19.88 22.54 19.48C23.98 18.69 25.7799 19.21 26.57 20.65Z" fill="#F4B2C4"/>
<path d="M25.78 18.45C27.91 17.95 30.28 17.91 32.96 18.45L32.26 36.69L25.78 18.45Z" fill="white"/>
<path d="M26.89 4.21997H37.28V7.70997V13.52C37.28 15.34 35.8 16.82 33.98 16.82H32.93C32.42 16.82 32 17.23 32 17.75C32 19.32 30.32 20.32 28.94 19.57L27.09 18.57L26.88 4.22997L26.89 4.21997Z" fill="#FADDDC"/>
<path d="M36.97 13.69L37.57 13.52C38.11 13.37 38.43 12.8 38.28 12.26L37.45 9.30004C37.39 9.07004 37.15 8.94004 36.93 9.01004C36.71 9.08004 36.57 9.31004 36.64 9.53004L37.36 12.09C37.45 12.4 37.27 12.72 36.96 12.8L36.75 12.86C36.52 12.92 36.39 13.16 36.46 13.38C36.53 13.6 36.76 13.74 36.98 13.67L36.97 13.69Z" fill="#E0B1BB"/>
<path d="M35.51 9.25995C35.51 9.56995 35.26 9.81995 34.95 9.81995C34.64 9.81995 34.39 9.56995 34.39 9.25995C34.39 8.94995 34.64 8.69995 34.95 8.69995C35.26 8.69995 35.51 8.94995 35.51 9.25995Z" fill="#757570"/>
<path d="M25.78 18.45L32.26 36.6899L24.23 25.4799L25.78 18.45Z" fill="#EF9AB4"/>
<path d="M32.96 18.45L32.26 37.24L35.01 24.61L32.96 18.45Z" fill="#EF9AB4"/>
<path d="M32.461 37.2385L32.0612 37.248L32.4564 53.7733L32.8563 53.7638L32.461 37.2385Z" fill="#EF9AB4"/>
<path d="M26.59 48.34H23.94C22.95 48.34 22.14 47.53 22.14 46.54V40.91H28.4V46.54C28.4 47.53 27.59 48.34 26.6 48.34H26.59Z" fill="#EF9AB4"/>
<path d="M37.77 48.63C38.33 48.63 38.44 47.82 38.44 46.83V41.2H35.97V46.83C35.97 47.83 36.78 48.63 37.77 48.63Z" fill="#EF9AB4"/>
<path d="M28.9 9.04997C28.9 8.51977 28.4702 8.08997 27.94 8.08997C27.4098 8.08997 26.98 8.51977 26.98 9.04997V11.14C26.98 11.6702 27.4098 12.1 27.94 12.1C28.4702 12.1 28.9 11.6702 28.9 11.14V9.04997Z" fill="#FADDDC"/>
<path d="M31.9699 1.34C32.7899 1.34 33.5699 1.03 34.2499 0.56C34.7599 0.21 35.3799 0 36.0599 0C37.1299 0 38.0799 0.53 38.6699 1.34C39.0599 1.87 39.2999 2.53 39.2999 3.24C39.2999 4.48 38.5899 5.54 37.5699 6.09C37.4599 6.15 37.3499 6.2 37.2299 6.25C36.5499 6.53 35.7599 6.69 34.9199 6.69C33.8899 6.69 32.8199 6.58 32.0199 6.28C30.6199 5.75 29.4999 6.49 29.4999 7.62L29.3199 8.78C29.0599 9.81 28.6099 10.11 28.0899 10.17C27.4399 10.26 26.9799 10.87 26.9799 11.53L26.9599 14.15C26.3299 14.15 25.6199 10.83 25.6199 10.19L25.1899 5.59V4.76C25.1899 2.87 26.7299 1.33 28.6199 1.33H31.9699V1.34Z" fill="#3E2967"/>
</g>
<defs>
<clipPath id="clip0_109_1041">
<rect width="59.21" height="106.68" fill="white"/>
</clipPath>
</defs>
</svg>
