<svg width="61" height="98" viewBox="0 0 61 98" fill="none" xmlns="http://www.w3.org/2000/svg">
    <g clip-path="url(#clip0_9_397)">
        <path
            d="M37.94 51.29H23.32V92.37V92.39V92.41V93.63C23.32 94.24 23.05 94.81 22.58 95.14C22.02 95.53 21.48 95.94 20.95 96.36C20.32 96.86 20.65 97.96 21.43 97.96H25.39C26.11 97.96 26.73 97.42 26.9 96.65L28.7 88.61C29.91 82.98 31.06 77.3 32.14 71.57C32.9 67.55 33.61 63.53 34.28 59.53C34.43 58.65 35.16 58.01 36.01 58.01H37.55C38.4 58.01 39.13 58.65 39.28 59.53C39.96 63.53 40.67 67.55 41.42 71.57C42.74 78.6 44.16 85.54 45.68 92.41C45.93 93.56 45.49 94.74 44.6 95.39C44.17 95.7 43.74 96.03 43.32 96.37C42.69 96.88 43.02 97.98 43.79 97.98H47.13C48.84 97.98 50.23 96.44 50.23 94.55V51.29H37.93H37.94Z"
            fill="#3E2967"
        />
        <path
            d="M38.93 3.16992H28.54V12.4699C28.54 14.2899 30.02 15.7699 31.84 15.7699H32.89C33.4 15.7699 33.82 16.1799 33.82 16.6999V17.7699H38.89L38.93 3.17992V3.16992Z"
            fill="#FADDDC"
        />
        <path
            d="M31.9 12.78H31.27C30.71 12.78 30.25 12.32 30.25 11.76V8.69002C30.25 8.46002 30.44 8.27002 30.67 8.27002C30.9 8.27002 31.1 8.46002 31.1 8.69002V11.35C31.1 11.67 31.36 11.93 31.68 11.93H31.9C32.13 11.93 32.32 12.12 32.32 12.36C32.32 12.6 32.13 12.78 31.9 12.78Z"
            fill="#E0B1BB"
        />
        <path
            d="M39.6399 1.66L39.7799 0H32.5599C30.5399 0 28.7399 1.29 28.0999 3.21L26.6899 7.41H28.4099C32.7199 6.85 34.7499 3.61 34.7499 3.61C35.5099 7.92 38.9599 9.7 38.9599 9.7C38.9599 9.7 40.0599 7.99 40.5999 6C41.0299 4.41 40.0499 2.43 39.6299 1.68L39.6399 1.66Z"
            fill="#3E2967"
        />
        <path
            d="M33.71 8.76996C33.71 9.07996 33.96 9.32996 34.27 9.32996C34.58 9.32996 34.83 9.07996 34.83 8.76996C34.83 8.45996 34.58 8.20996 34.27 8.20996C33.96 8.20996 33.71 8.45996 33.71 8.76996Z"
            fill="#757570"
        />
        <path
            d="M5.61005 3.15999C4.85005 1.69999 3.06005 1.13999 1.60005 1.88999C0.400047 2.51999 -0.189953 3.83999 0.0500474 5.09999C0.100047 5.36999 0.200047 5.63999 0.330047 5.89999C0.660047 6.52999 1.00005 7.13999 1.36005 7.72999L6.14005 4.11999C5.96005 3.80999 5.78005 3.48999 5.61005 3.15999Z"
            fill="#FADDDC"
        />
        <path
            d="M33.58 22.1699C33.7 20.5299 32.48 19.1099 30.84 18.9799C30.67 18.9699 13.84 17.4999 6.15 4.12988L1.37 7.73988C10.77 23.2799 29.57 24.8499 30.4 24.9099C32.04 25.0299 33.46 23.7999 33.58 22.1699Z"
            fill="#9A9A99"
        />
        <path
            d="M54.6599 53.5099C54.5399 55.1499 55.7799 56.5699 57.4099 56.6899C57.4799 56.6899 57.5499 56.6899 57.6199 56.6899C59.1699 56.6899 60.4699 55.4899 60.5799 53.9299C60.6199 53.4199 60.6399 52.9099 60.6699 52.4099H54.7099C54.6899 52.7799 54.6799 53.1299 54.6499 53.5099H54.6599Z"
            fill="#FADDDC"
        />
        <path
            d="M45.47 18.83C44.04 18.04 42.24 18.55 41.44 19.98C40.64 21.41 41.14 23.22 42.57 24.03C43.12 24.34 55.73 31.8 54.72 52.42H60.68C61.75 28.18 46.15 19.21 45.48 18.84L45.47 18.83Z"
            fill="#9A9A99"
        />
        <path
            d="M50.2301 51.29H23.3101L23.3201 26.83C23.3201 21.8 27.4001 17.72 32.4301 17.72H41.1301C46.1601 17.72 50.2401 21.8 50.2401 26.83L50.2201 51.29H50.2301Z"
            fill="#9A9A99"
        />
        <path
            d="M36.3099 17.6899H31.1899V20.1399C31.1899 21.0899 32.3399 21.5599 33.0099 20.8899L36.2299 17.7699L39.5199 20.9199C40.1899 21.5899 41.3399 21.1199 41.3399 20.1699V17.6899H36.3199H36.3099Z"
            fill="white"
        />
    </g>
    <defs>
        <clipPath id="clip0_9_397">
            <rect width="60.73" height="97.98" fill="white" />
        </clipPath>
    </defs>
</svg>
