<svg width="44" height="100" viewBox="0 0 44 100" fill="none" xmlns="http://www.w3.org/2000/svg">
<g clip-path="url(#clip0_99_707)">
<path d="M23.4801 3.16992H13.0901V12.4699C13.0901 14.2899 14.5701 15.7699 16.3901 15.7699H17.4401C17.9501 15.7699 18.3701 16.1799 18.3701 16.6999V17.7699H23.4401L23.4801 3.17992V3.16992Z" fill="#FADDDC"/>
<path d="M16.45 12.78H15.82C15.26 12.78 14.8 12.32 14.8 11.76V8.69002C14.8 8.46002 14.99 8.27002 15.22 8.27002C15.45 8.27002 15.65 8.46002 15.65 8.69002V11.35C15.65 11.67 15.91 11.93 16.23 11.93H16.45C16.68 11.93 16.87 12.12 16.87 12.36C16.87 12.6 16.68 12.78 16.45 12.78Z" fill="#E0B1BB"/>
<path d="M24.19 1.66L24.33 0H17.11C15.09 0 13.29 1.29 12.65 3.21L11.24 7.41H12.96C17.27 6.85 19.3 3.61 19.3 3.61C20.06 7.92 23.51 9.7 23.51 9.7C23.51 9.7 24.61 7.99 25.15 6C25.58 4.41 24.6 2.43 24.18 1.68L24.19 1.66Z" fill="#3E2967"/>
<path d="M18.26 8.76996C18.26 9.07996 18.51 9.32996 18.82 9.32996C19.13 9.32996 19.38 9.07996 19.38 8.76996C19.38 8.45996 19.13 8.20996 18.82 8.20996C18.51 8.20996 18.26 8.45996 18.26 8.76996Z" fill="#757570"/>
<path d="M37.43 52.2599C37.11 53.8699 38.16 55.4399 39.77 55.7499C41.09 56.0099 42.39 55.3499 42.98 54.2099C43.11 53.9599 43.21 53.6899 43.26 53.4099C43.4 52.7099 43.51 52.0199 43.6 51.3399L37.61 51.1799C37.55 51.5399 37.49 51.8999 37.42 52.2599H37.43Z" fill="#FADDDC"/>
<path d="M27.46 19.9599C26.34 21.1599 26.41 23.0399 27.61 24.1599C27.74 24.2799 39.97 35.9299 37.63 51.1799L43.62 51.3399C45.98 33.3299 32.27 20.3699 31.67 19.7999C30.47 18.6799 28.59 18.7599 27.47 19.9599H27.46Z" fill="#9A9A99"/>
<path d="M5.67005 48.78C5.78005 50.31 4.63005 51.64 3.10005 51.75C3.03005 51.75 2.97005 51.75 2.90005 51.75C1.46005 51.75 0.240049 50.63 0.130049 49.17C0.100049 48.69 0.0700488 48.22 0.0500488 47.75H5.61005C5.63005 48.09 5.64005 48.43 5.66005 48.77L5.67005 48.78Z" fill="#FADDDC"/>
<path d="M12.1901 18.89C13.5201 18.15 15.2001 18.63 15.9501 19.96C16.7001 21.29 16.2301 22.98 14.9001 23.74C14.3901 24.03 4.67009 28.52 5.62009 47.76H0.0600907C-0.939909 25.13 11.5601 19.24 12.1901 18.89Z" fill="#9A9A99"/>
<path d="M34.7801 51.29H7.86011L7.87011 26.83C7.87011 21.8 11.9501 17.72 16.9801 17.72H25.6801C30.7101 17.72 34.7901 21.8 34.7901 26.83L34.7701 51.29H34.7801Z" fill="#9A9A99"/>
<path d="M20.86 17.6899H15.74V20.1399C15.74 21.0899 16.89 21.5599 17.56 20.8899L20.78 17.7699L24.07 20.9199C24.74 21.5899 25.89 21.1199 25.89 20.1699V17.6899H20.87H20.86Z" fill="white"/>
<path d="M7.86009 51.29H20.1601H34.7801L26.8801 93.69C26.7901 94.54 26.4101 95.53 27.3601 96.28C27.8901 96.7 28.4601 97.08 28.9901 97.5C29.6201 98 29.2901 99.1 28.5101 99.1L23.4801 98.1C21.2301 97.64 21.5301 96.1 21.9801 94.91C22.2701 94.12 22.4501 93.3 22.4801 92.46C22.6701 87.21 23.6001 63.77 23.7501 59.87C23.7901 58.98 22.9301 58.01 22.0701 58.01H20.5301C19.6801 58.01 18.9501 58.65 18.8001 59.53C18.1201 63.53 17.8401 74.35 17.2301 85.76C17.2301 85.76 17.0801 89.36 16.8401 90.21C16.4901 91.43 15.0701 91.25 14.5801 90.35C14.1601 89.57 13.7301 86.38 13.6501 85.76H12.2401L7.84009 51.28L7.86009 51.29Z" fill="#3E2967"/>
</g>
<defs>
<clipPath id="clip0_99_707">
<rect width="43.88" height="99.11" fill="white"/>
</clipPath>
</defs>
</svg>
