<svg width="61" height="114" viewBox="0 0 61 114" fill="none" xmlns="http://www.w3.org/2000/svg">
<g clip-path="url(#clip0_134_1452)">
<path d="M58.3699 51.0401C59.9599 51.6501 60.7699 53.4301 60.1599 55.0301C59.6599 56.3401 58.3699 57.1101 57.0399 57.0101C56.7499 56.9901 56.4599 56.9201 56.1799 56.8201C55.4899 56.5601 54.8199 56.2701 54.1699 55.9801L57.3199 50.6201C57.6699 50.7701 58.0199 50.9101 58.3799 51.0501L58.3699 51.0401Z" fill="#FADDDC"/>
<path d="M36.0199 26.67C37.6899 26.34 39.4799 28.21 39.8099 29.88C39.8399 30.06 42.5799 44.28 57.3099 50.61L54.1599 55.97C36.9899 48.15 33.7399 31.13 33.5799 30.29C33.2599 28.62 34.3499 27 36.0199 26.68V26.67Z" fill="#3E2967"/>
<path d="M39.3599 61.5899H12.0899C10.9399 61.5899 10.0199 60.6199 10.0899 59.4599L11.8299 31.4399C11.8299 26.8799 15.5299 23.1699 20.0999 23.1699H31.6699C36.1599 23.1699 39.7899 26.8099 39.7899 31.2899L41.3499 59.4599C41.4099 60.6099 40.4999 61.5699 39.3499 61.5699L39.3599 61.5899Z" fill="#3E2967"/>
<path d="M6.31006 60.0999C6.43006 61.7999 5.15006 63.28 3.45006 63.4C3.38006 63.4 3.30006 63.4 3.23006 63.4C1.62006 63.4 0.270059 62.1599 0.150059 60.5299C0.110059 59.9999 0.0800586 59.47 0.0600586 58.95H6.25006C6.27006 59.33 6.28006 59.7 6.31006 60.09V60.0999Z" fill="#FADDDC"/>
<path d="M15.8499 24.0799C17.3299 23.2599 19.1999 23.7899 20.0299 25.2699C20.8599 26.7499 20.3399 28.6299 18.8599 29.4699C18.2899 29.7899 5.18988 37.5399 6.24988 58.9499H0.0498788C-1.06012 33.7799 15.1399 24.4699 15.8499 24.0799Z" fill="#3E2967"/>
<path d="M28.06 9.60999H17.27V17.13C17.27 19.52 19.21 21.46 21.6 21.46H21.79C22.32 21.46 22.75 21.89 22.75 22.42V23.69C22.75 25.15 23.93 26.33 25.39 26.33C26.84 26.33 28.02 25.15 28.03 23.7L28.07 9.60999H28.06Z" fill="#FADDDC"/>
<path d="M26.65 0.0200161C25.68 -0.0899839 23.44 0.270016 21.99 1.04002C20.54 1.81002 18.54 3.11002 17.91 3.52002C17.28 3.93002 15.03 5.42002 14.47 5.99002C13.4 7.09002 11.76 9.45002 11.46 12.69C11.16 15.93 13.76 20.14 17.67 21.91C21.58 23.68 27.3 25.5 31.44 23.68C35.58 21.85 37.39 19.83 37.69 16.39C37.98 12.95 36.77 10.57 36.08 9.19002C35.39 7.81002 35.88 5.74002 34.05 3.92002C32.22 2.10002 30.55 0.460016 26.65 0.0200161Z" fill="#FCC31E"/>
<path d="M24.2499 20.61C27.6023 20.61 30.3199 17.8923 30.3199 14.54C30.3199 11.1876 27.6023 8.46997 24.2499 8.46997C20.8976 8.46997 18.1799 11.1876 18.1799 14.54C18.1799 17.8923 20.8976 20.61 24.2499 20.61Z" fill="#FADDDC"/>
<path d="M22.5699 14.86C23.4922 14.86 24.2399 14.1123 24.2399 13.19C24.2399 12.2677 23.4922 11.52 22.5699 11.52C21.6476 11.52 20.8999 12.2677 20.8999 13.19C20.8999 14.1123 21.6476 14.86 22.5699 14.86Z" fill="#F1F0EB"/>
<path d="M27.66 15.95C28.5823 15.95 29.33 15.2023 29.33 14.28C29.33 13.3577 28.5823 12.61 27.66 12.61C26.7377 12.61 25.99 13.3577 25.99 14.28C25.99 15.2023 26.7377 15.95 27.66 15.95Z" fill="#F1F0EB"/>
<path d="M23.16 17.65L23.76 17.78C24.3 17.89 24.82 17.55 24.94 17.02L25.57 14.1C25.62 13.88 25.48 13.66 25.25 13.61C25.02 13.56 24.81 13.7 24.76 13.93L24.22 16.46C24.16 16.76 23.86 16.96 23.55 16.89L23.34 16.85C23.12 16.8 22.9 16.94 22.85 17.17C22.8 17.4 22.94 17.61 23.17 17.66L23.16 17.65Z" fill="#E0B1BB"/>
<path d="M20.47 12.76C20.22 13.91 20.96 15.04 22.11 15.29C23.26 15.54 24.27 14.87 24.58 13.82L25.55 14.03C25.39 15.13 26.1 16.18 27.2 16.42C28.3 16.66 29.48 15.93 29.73 14.78C29.98 13.63 29.24 12.5 28.09 12.25C27.15 12.05 26.22 12.51 25.78 13.32L24.66 13.08C24.6 12.15 23.94 11.33 22.99 11.13C21.84 10.88 20.71 11.62 20.46 12.77L20.47 12.76ZM26.38 14.06C26.53 13.36 27.22 12.92 27.91 13.07C28.6 13.22 29.05 13.91 28.9 14.6C28.75 15.29 28.06 15.74 27.37 15.59C26.68 15.44 26.23 14.75 26.38 14.06ZM21.29 12.93C21.44 12.23 22.13 11.79 22.82 11.94C23.51 12.09 23.96 12.78 23.81 13.47C23.66 14.16 22.97 14.61 22.28 14.46C21.59 14.31 21.14 13.62 21.29 12.93Z" fill="#898989"/>
<path d="M21.64 4.94994C22.126 4.94994 22.52 4.55595 22.52 4.06994C22.52 3.58393 22.126 3.18994 21.64 3.18994C21.154 3.18994 20.76 3.58393 20.76 4.06994C20.76 4.55595 21.154 4.94994 21.64 4.94994Z" fill="#D6952D"/>
<path d="M34.0299 10.86C34.5159 10.86 34.9099 10.466 34.9099 9.97997C34.9099 9.49396 34.5159 9.09998 34.0299 9.09998C33.5439 9.09998 33.1499 9.49396 33.1499 9.97997C33.1499 10.466 33.5439 10.86 34.0299 10.86Z" fill="#D6952D"/>
<path d="M17.17 19.91C17.5676 19.91 17.8899 19.5876 17.8899 19.19C17.8899 18.7923 17.5676 18.47 17.17 18.47C16.7723 18.47 16.45 18.7923 16.45 19.19C16.45 19.5876 16.7723 19.91 17.17 19.91Z" fill="#D6952D"/>
<path d="M32.6099 14.1C33.0075 14.1 33.3299 13.7777 33.3299 13.38C33.3299 12.9824 33.0075 12.66 32.6099 12.66C32.2122 12.66 31.8899 12.9824 31.8899 13.38C31.8899 13.7777 32.2122 14.1 32.6099 14.1Z" fill="#D6952D"/>
<path d="M17.4699 7.51997C17.6577 7.51997 17.8099 7.36774 17.8099 7.17997C17.8099 6.99219 17.6577 6.83997 17.4699 6.83997C17.2821 6.83997 17.1299 6.99219 17.1299 7.17997C17.1299 7.36774 17.2821 7.51997 17.4699 7.51997Z" fill="#D6952D"/>
<path d="M32.5199 18.09C32.7077 18.09 32.8599 17.9378 32.8599 17.75C32.8599 17.5623 32.7077 17.41 32.5199 17.41C32.3322 17.41 32.1799 17.5623 32.1799 17.75C32.1799 17.9378 32.3322 18.09 32.5199 18.09Z" fill="#D6952D"/>
<path d="M13.94 12.87C14.0725 12.87 14.18 12.7626 14.18 12.63C14.18 12.4975 14.0725 12.39 13.94 12.39C13.8074 12.39 13.7 12.4975 13.7 12.63C13.7 12.7626 13.8074 12.87 13.94 12.87Z" fill="#D6952D"/>
<path d="M35.23 15.6601C35.3625 15.6601 35.47 15.5526 35.47 15.4201C35.47 15.2875 35.3625 15.1801 35.23 15.1801C35.0974 15.1801 34.99 15.2875 34.99 15.4201C34.99 15.5526 35.0974 15.6601 35.23 15.6601Z" fill="#D6952D"/>
<path d="M14.8399 9.55995C15.0774 9.55995 15.2699 9.36743 15.2699 9.12995C15.2699 8.89247 15.0774 8.69995 14.8399 8.69995C14.6024 8.69995 14.4099 8.89247 14.4099 9.12995C14.4099 9.36743 14.6024 9.55995 14.8399 9.55995Z" fill="#D6952D"/>
<path d="M34.85 2.09995C33.97 2.87995 33.51 3.93995 33.5 4.96995C34.52 5.08995 35.64 4.76995 36.52 3.98995C37.4 3.20995 37.86 2.14995 37.87 1.11995C36.85 0.999954 35.73 1.31995 34.85 2.09995Z" fill="#2D963A"/>
<path d="M36.14 3.31005C34.98 3.50005 34.02 4.15005 33.47 5.02005C34.27 5.67005 35.39 5.99005 36.55 5.80005C37.71 5.61005 38.67 4.96005 39.22 4.09005C38.42 3.44005 37.3 3.12005 36.14 3.31005Z" fill="#3EB750"/>
<path d="M24.37 36.9201C23.67 37.8601 23.44 39.0001 23.65 40.0101C24.68 39.9201 25.7 39.3701 26.4 38.4201C27.1 37.4701 27.33 36.3401 27.12 35.3301C26.09 35.4201 25.07 35.9701 24.37 36.9201Z" fill="#2D963A"/>
<path d="M25.8899 37.82C24.7999 38.25 23.9999 39.08 23.6299 40.05C24.5499 40.52 25.7099 40.59 26.7999 40.17C27.8899 39.75 28.6899 38.91 29.0599 37.94C28.1399 37.47 26.9799 37.4 25.8899 37.82Z" fill="#3EB750"/>
<path d="M12.79 61.49H39.52L31.78 107.77C31.69 108.64 31.31 109.66 32.26 110.43C32.79 110.86 33.35 111.25 33.88 111.68C34.5 112.19 34.18 113.32 33.41 113.32L28.42 112.3C26.18 111.83 26.49 110.25 26.93 109.03C27.22 108.22 27.4 107.38 27.43 106.52C27.6 101.64 27.05 74.85 26.94 69.88C26.94 69.44 26.57 69.09 26.12 69.09C25.7 69.09 25.35 69.4 25.31 69.82C24.81 74.49 22.04 100.08 21.82 100.88C21.47 102.13 20.06 101.95 19.57 101.02C19.15 100.22 18.73 96.95 18.65 96.31H17.25L12.78 61.49H12.79Z" fill="#757570"/>
</g>
<defs>
<clipPath id="clip0_134_1452">
<rect width="60.36" height="113.32" fill="white"/>
</clipPath>
</defs>
</svg>
