<svg width="65" height="118" viewBox="0 0 65 118" fill="none" xmlns="http://www.w3.org/2000/svg">
<g clip-path="url(#clip0_134_1519)">
<path d="M2.33995 48.3799C0.729945 48.7299 -0.280055 50.3099 0.0599451 51.9199C0.349945 53.2399 1.46995 54.1599 2.74995 54.2599C3.02995 54.2799 3.30995 54.2599 3.59995 54.1999C4.29994 54.0499 4.96994 53.8799 5.63995 53.6899L3.40995 48.1299C3.05995 48.2199 2.69994 48.3099 2.33995 48.3899V48.3799Z" fill="#FADDDC"/>
<path d="M28.0299 26.39C26.4799 25.84 24.7799 26.65 24.2299 28.19C24.1699 28.35 18.3399 44.2 3.40991 48.11L5.63991 53.67C23.1099 48.68 29.5599 30.95 29.8299 30.17C30.3799 28.62 29.5699 26.93 28.0199 26.38L28.0299 26.39Z" fill="#3E2967"/>
<path d="M28.23 62.77H40.82L46.14 85.5L63.1 96.52L61.44 99.29C61.73 100.43 62.95 100.37 63.43 100.72C64.14 101.24 64.92 102.22 64.02 103.28L60.07 107.79C59.3 108.08 58.53 106.93 58.95 106.11C59.23 105.56 59.5 103.88 59.48 103.32C59.43 102.07 58.73 101.21 58.73 101.21L37.78 89.53L28.22 62.78L28.23 62.77Z" fill="#636361"/>
<path d="M22.8699 63.1001L38.5499 64.7001L20.8599 90.0401L12.9999 113.6L10.0799 113.17L9.11992 115.04C8.12992 117.13 7.99992 118.03 6.37992 117.21L2.35992 115.61C1.62992 115.24 1.74992 114.17 2.60992 113.91C3.17992 113.74 4.04992 113.71 4.63992 113.69C6.82992 113.59 6.53992 112.06 6.89992 110.67C9.03992 102.37 10.0199 95.7001 12.4299 87.3101C13.8099 82.5101 22.8799 63.1001 22.8799 63.1001H22.8699Z" fill="#757570"/>
<path d="M21.05 65.6H39.52C43.25 65.6 43.06 62.3 42.97 61.34L40.35 36.8C40.35 32.64 41.1 26.61 32.88 24.79H28.53C27.03 24.79 25.61 25.55 24.83 26.83C19.16 36.09 21.05 65.6 21.05 65.6Z" fill="#3E2967"/>
<path d="M49.24 56.8399C49.27 58.4799 50.6199 59.7899 52.2599 59.7699C53.6099 59.7499 54.73 58.8299 55.08 57.5899C55.15 57.3199 55.1899 57.0399 55.1899 56.7399C55.1799 56.0299 55.14 55.3299 55.09 54.6399L49.2 55.7399C49.22 56.0999 49.24 56.4699 49.24 56.8399Z" fill="#FADDDC"/>
<path d="M32.7299 27.34C31.8899 28.75 32.3499 30.57 33.7499 31.42C33.8999 31.51 48.2999 40.34 49.1999 55.75L55.0899 54.65C53.6299 36.54 37.5099 26.74 36.7999 26.31C35.3899 25.47 33.5699 25.93 32.7299 27.34Z" fill="#3E2967"/>
<path d="M32.68 10.46H22.29V19.76C22.29 21.58 23.77 23.06 25.59 23.06H26.64C27.15 23.06 27.57 23.47 27.57 23.99V24.9C27.57 26.06 28.81 26.79 29.83 26.24L32.48 24.8L32.69 10.46H32.68Z" fill="#FADDDC"/>
<path d="M22.98 20.19L22.38 20.02C21.84 19.87 21.52 19.3 21.67 18.76L22.5 15.8C22.56 15.57 22.8 15.44 23.02 15.51C23.24 15.58 23.38 15.81 23.31 16.03L22.59 18.59C22.5 18.9 22.68 19.22 22.99 19.3L23.2 19.36C23.43 19.42 23.56 19.66 23.49 19.88C23.42 20.1 23.19 20.24 22.97 20.17L22.98 20.19Z" fill="#E0B1BB"/>
<path d="M29.57 17.9701C29.57 18.5002 29.9998 18.9301 30.53 18.9301C31.0602 18.9301 31.49 18.5002 31.49 17.9701V15.8801C31.49 15.3499 31.0602 14.9201 30.53 14.9201C29.9998 14.9201 29.57 15.3499 29.57 15.8801V17.9701Z" fill="#FADDDC"/>
<path d="M27.36 35.9999C27.86 36.9399 28.02 38.0799 27.87 39.0899C27.14 38.9999 26.42 38.4499 25.92 37.4999C25.42 36.5499 25.26 35.4199 25.41 34.4099C26.14 34.4999 26.86 35.0499 27.36 35.9999Z" fill="#2D963A"/>
<path d="M26.29 36.9101C27.07 37.3401 27.63 38.1701 27.89 39.1401C27.24 39.6101 26.42 39.6801 25.64 39.2601C24.86 38.8401 24.3 38.0001 24.04 37.0301C24.69 36.5601 25.51 36.4901 26.29 36.9101Z" fill="#3EB750"/>
<path d="M24.89 1.59C25.59 2.53 25.82 3.67 25.61 4.68C24.58 4.59 23.56 4.04 22.86 3.09C22.16 2.14 21.93 1.01 22.14 0C23.17 0.09 24.19 0.64 24.89 1.59Z" fill="#2D963A"/>
<path d="M23.37 2.48994C24.46 2.91994 25.2599 3.74994 25.6299 4.71994C24.7099 5.18994 23.5499 5.25994 22.4599 4.83994C21.3699 4.41994 20.57 3.57994 20.2 2.60994C21.12 2.13994 22.28 2.06994 23.37 2.48994Z" fill="#3EB750"/>
<path d="M33.3401 1.27002C34.3101 1.37002 36.4301 2.19002 37.6801 3.25002C38.9301 4.31002 40.6201 6.00002 41.1501 6.53003C41.6801 7.06003 43.5701 8.99002 43.9901 9.66002C44.8101 10.96 45.9201 13.61 45.5301 16.84C45.1401 20.07 41.7201 23.64 37.5301 24.55C33.3401 25.46 27.3601 26.04 23.6901 23.39C20.0201 20.74 18.6801 18.38 19.1101 14.95C19.5401 11.52 21.2301 9.45002 22.2001 8.25002C23.1701 7.05002 23.1201 4.92002 25.2901 3.52002C27.4601 2.12002 29.4401 0.870025 33.3401 1.25002V1.27002Z" fill="#FCC31E"/>
<path d="M28.9599 22.04C32.3123 22.04 35.0299 19.3224 35.0299 15.97C35.0299 12.6177 32.3123 9.90002 28.9599 9.90002C25.6075 9.90002 22.8899 12.6177 22.8899 15.97C22.8899 19.3224 25.6075 22.04 28.9599 22.04Z" fill="#FADDDC"/>
<path d="M29.7601 16.67C30.6824 16.67 31.4301 15.9223 31.4301 15C31.4301 14.0776 30.6824 13.33 29.7601 13.33C28.8378 13.33 28.0901 14.0776 28.0901 15C28.0901 15.9223 28.8378 16.67 29.7601 16.67Z" fill="#F1F0EB"/>
<path d="M24.5499 16.67C25.4722 16.67 26.2199 15.9223 26.2199 15C26.2199 14.0776 25.4722 13.33 24.5499 13.33C23.6276 13.33 22.8799 14.0776 22.8799 15C22.8799 15.9223 23.6276 16.67 24.5499 16.67Z" fill="#F1F0EB"/>
<path d="M28.15 19.0601H27.5401C26.9901 19.0601 26.55 18.6201 26.55 18.0701V15.0901C26.55 14.8601 26.73 14.6801 26.96 14.6801C27.19 14.6801 27.3701 14.8601 27.3701 15.0901V17.6801C27.3701 17.9901 27.62 18.2401 27.93 18.2401H28.14C28.37 18.2401 28.55 18.4201 28.55 18.6501C28.55 18.8801 28.37 19.0601 28.14 19.0601H28.15Z" fill="#E0B1BB"/>
<path d="M29.7799 12.9C28.7999 12.9 27.9899 13.56 27.7399 14.46H26.5999C26.3399 13.58 25.5299 12.93 24.5699 12.93C23.3999 12.93 22.4399 13.88 22.4399 15.06C22.4399 16.24 23.3999 17.19 24.5699 17.19C25.7399 17.19 26.6099 16.31 26.6799 15.2H27.6699C27.7599 16.29 28.6699 17.16 29.7799 17.16C30.9499 17.16 31.9099 16.21 31.9099 15.03C31.9099 13.86 30.9499 12.9 29.7799 12.9ZM24.5599 16.35C23.8499 16.35 23.2699 15.77 23.2699 15.06C23.2699 14.35 23.8499 13.77 24.5599 13.77C25.2699 13.77 25.8499 14.35 25.8499 15.06C25.8499 15.77 25.2699 16.35 24.5599 16.35ZM29.7799 16.32C29.0699 16.32 28.4899 15.74 28.4899 15.03C28.4899 14.32 29.0699 13.74 29.7799 13.74C30.4899 13.74 31.0699 14.32 31.0699 15.03C31.0699 15.74 30.4899 16.32 29.7799 16.32Z" fill="#898989"/>
<path d="M37.39 7.16002C37.876 7.16002 38.27 6.76604 38.27 6.28002C38.27 5.79401 37.876 5.40002 37.39 5.40002C36.904 5.40002 36.51 5.79401 36.51 6.28002C36.51 6.76604 36.904 7.16002 37.39 7.16002Z" fill="#D6952D"/>
<path d="M24.0299 10.35C24.5159 10.35 24.9099 9.95598 24.9099 9.46997C24.9099 8.98396 24.5159 8.58997 24.0299 8.58997C23.5439 8.58997 23.1499 8.98396 23.1499 9.46997C23.1499 9.95598 23.5439 10.35 24.0299 10.35Z" fill="#D6952D"/>
<path d="M38.5999 22.72C38.9975 22.72 39.3199 22.3977 39.3199 22C39.3199 21.6024 38.9975 21.28 38.5999 21.28C38.2022 21.28 37.8799 21.6024 37.8799 22C37.8799 22.3977 38.2022 22.72 38.5999 22.72Z" fill="#D6952D"/>
<path d="M21.73 12.6299C22.1277 12.6299 22.45 12.3076 22.45 11.9099C22.45 11.5123 22.1277 11.1899 21.73 11.1899C21.3324 11.1899 21.01 11.5123 21.01 11.9099C21.01 12.3076 21.3324 12.6299 21.73 12.6299Z" fill="#D6952D"/>
<path d="M40.81 10.53C40.9977 10.53 41.15 10.3778 41.15 10.19C41.15 10.0022 40.9977 9.84998 40.81 9.84998C40.6222 9.84998 40.47 10.0022 40.47 10.19C40.47 10.3778 40.6222 10.53 40.81 10.53Z" fill="#D6952D"/>
<path d="M22.2699 20.33C22.4577 20.33 22.6099 20.1778 22.6099 19.99C22.6099 19.8022 22.4577 19.65 22.2699 19.65C22.0822 19.65 21.9299 19.8022 21.9299 19.99C21.9299 20.1778 22.0822 20.33 22.2699 20.33Z" fill="#D6952D"/>
<path d="M43.1299 16.51C43.2624 16.51 43.3699 16.4026 43.3699 16.27C43.3699 16.1375 43.2624 16.03 43.1299 16.03C42.9973 16.03 42.8899 16.1375 42.8899 16.27C42.8899 16.4026 42.9973 16.51 43.1299 16.51Z" fill="#D6952D"/>
<path d="M21.72 14.77C21.8525 14.77 21.96 14.6626 21.96 14.53C21.96 14.3975 21.8525 14.29 21.72 14.29C21.5874 14.29 21.48 14.3975 21.48 14.53C21.48 14.6626 21.5874 14.77 21.72 14.77Z" fill="#D6952D"/>
<path d="M42.98 13.08C43.2175 13.08 43.41 12.8875 43.41 12.65C43.41 12.4125 43.2175 12.22 42.98 12.22C42.7426 12.22 42.55 12.4125 42.55 12.65C42.55 12.8875 42.7426 13.08 42.98 13.08Z" fill="#D6952D"/>
</g>
<defs>
<clipPath id="clip0_134_1519">
<rect width="64.43" height="117.5" fill="white"/>
</clipPath>
</defs>
</svg>
