
    <svg
        width="60"
        height="119"
        viewBox="0 0 60 119"
        fill="none"
        xmlns="http://www.w3.org/2000/svg"
    >
        <g clip-path="url(#clip0_85_869)">
            <path
                d="M2.33995 48.3799C0.729945 48.7299 -0.280055 50.3099 0.0599451 51.9199C0.349945 53.2399 1.46995 54.1599 2.74995 54.2599C3.02995 54.2799 3.30995 54.2599 3.59995 54.1999C4.29994 54.0499 4.96994 53.8799 5.63995 53.6899L3.40995 48.1299C3.05995 48.2199 2.69994 48.3099 2.33995 48.3899V48.3799Z"
                fill="#FADDDC"
            />
            <path
                d="M28.0299 26.39C26.4799 25.84 24.7799 26.65 24.2299 28.19C24.1699 28.35 18.3399 44.2 3.40991 48.11L5.63991 53.67C23.1099 48.68 29.5599 30.95 29.8299 30.17C30.3799 28.62 29.5699 26.93 28.0199 26.38L28.0299 26.39Z"
                fill="#3E2967"
            />
            <path
                d="M28.23 62.77H40.82L46.83 86.36L59.25 105.54L56.73 107.41C57 107.95 57.48 108.84 57.96 109.19C58.67 109.71 59.58 110.65 58.68 111.71L53.31 115.56C52.54 115.85 51.77 114.7 52.19 113.88C52.47 113.33 53.37 112.13 53.68 111.6C54.3 110.52 53.64 109.66 52.93 108.43C48.66 101.09 38.47 89.72 38.47 89.72L28.23 62.77Z"
                fill="#636361"
            />
            <path
                d="M24.5199 62.77H40.2799L25.2599 89.77L19.8299 114.01L16.8799 113.88L16.1199 115.83C15.3499 118.01 15.3099 118.92 13.6199 118.27L9.44991 117.09C8.67991 116.8 8.69991 115.72 9.51991 115.38C10.0699 115.15 10.9399 115.04 11.5199 114.95C13.6899 114.63 13.2399 113.14 13.4599 111.72C14.7499 103.24 15.0399 96.51 16.5899 87.92C17.4799 83 24.5199 62.77 24.5199 62.77Z"
                fill="#757570"
            />
            <path
                d="M21.05 65.6H39.52C43.25 65.6 43.06 62.3 42.97 61.34L40.35 36.8C40.35 32.64 41.1 26.61 32.88 24.79H28.53C27.03 24.79 25.61 25.55 24.83 26.83C19.16 36.09 21.05 65.6 21.05 65.6Z"
                fill="#3E2967"
            />
            <path
                d="M49.24 56.8399C49.27 58.4799 50.6199 59.7899 52.2599 59.7699C53.6099 59.7499 54.73 58.8299 55.08 57.5899C55.15 57.3199 55.1899 57.0399 55.1899 56.7399C55.1799 56.0299 55.14 55.3299 55.09 54.6399L49.2 55.7399C49.22 56.0999 49.24 56.4699 49.24 56.8399Z"
                fill="#FADDDC"
            />
            <path
                d="M32.7299 27.3401C31.8899 28.7501 32.3499 30.5701 33.7499 31.4201C33.8999 31.5101 48.2999 40.3401 49.1999 55.7501L55.0899 54.6501C53.6299 36.5401 37.5099 26.7401 36.7999 26.3101C35.3899 25.4701 33.5699 25.9301 32.7299 27.3401Z"
                fill="#3E2967"
            />
            <path
                d="M32.68 10.46H22.29V19.76C22.29 21.58 23.77 23.06 25.59 23.06H26.64C27.15 23.06 27.57 23.47 27.57 23.99V24.9C27.57 26.06 28.81 26.79 29.83 26.24L32.48 24.8L32.69 10.46H32.68Z"
                fill="#FADDDC"
            />
            <path
                d="M22.98 20.1899L22.38 20.0199C21.84 19.8699 21.52 19.2999 21.67 18.7599L22.5 15.7999C22.56 15.5699 22.8 15.4399 23.02 15.5099C23.24 15.5799 23.38 15.8099 23.31 16.0299L22.59 18.5899C22.5 18.8999 22.68 19.2199 22.99 19.2999L23.2 19.3599C23.43 19.4199 23.56 19.6599 23.49 19.8799C23.42 20.0999 23.19 20.2399 22.97 20.1699L22.98 20.1899Z"
                fill="#E0B1BB"
            />
            <path
                d="M29.57 17.9699C29.57 18.5001 29.9998 18.9299 30.53 18.9299C31.0602 18.9299 31.49 18.5001 31.49 17.9699V15.8799C31.49 15.3497 31.0602 14.9199 30.53 14.9199C29.9998 14.9199 29.57 15.3497 29.57 15.8799V17.9699Z"
                fill="#FADDDC"
            />
            <path
                d="M27.36 35.9999C27.86 36.9399 28.02 38.0799 27.87 39.0899C27.14 38.9999 26.42 38.4499 25.92 37.4999C25.42 36.5499 25.26 35.4199 25.41 34.4099C26.14 34.4999 26.86 35.0499 27.36 35.9999Z"
                fill="#2D963A"
            />
            <path
                d="M26.29 36.9101C27.07 37.3401 27.63 38.1701 27.89 39.1401C27.24 39.6101 26.42 39.6801 25.64 39.2601C24.86 38.8401 24.3 38.0001 24.04 37.0301C24.69 36.5601 25.51 36.4901 26.29 36.9101Z"
                fill="#3EB750"
            />
            <path
                d="M24.89 1.59C25.59 2.53 25.82 3.67 25.61 4.68C24.58 4.59 23.56 4.04 22.86 3.09C22.16 2.14 21.93 1.01 22.14 0C23.17 0.09 24.19 0.64 24.89 1.59Z"
                fill="#2D963A"
            />
            <path
                d="M23.37 2.48994C24.46 2.91994 25.2599 3.74994 25.6299 4.71994C24.7099 5.18994 23.5499 5.25994 22.4599 4.83994C21.3699 4.41994 20.57 3.57994 20.2 2.60994C21.12 2.13994 22.28 2.06994 23.37 2.48994Z"
                fill="#3EB750"
            />
            <path
                d="M33.3401 1.2699C34.3101 1.3699 36.4301 2.1899 37.6801 3.2499C38.9301 4.3099 40.6201 5.9999 41.1501 6.5299C41.6801 7.0599 43.5701 8.9899 43.9901 9.6599C44.8101 10.9599 45.9201 13.6099 45.5301 16.8399C45.1401 20.0699 41.7201 23.6399 37.5301 24.5499C33.3401 25.4599 27.3601 26.0399 23.6901 23.3899C20.0201 20.7399 18.6801 18.3799 19.1101 14.9499C19.5401 11.5199 21.2301 9.4499 22.2001 8.2499C23.1601 7.0399 23.1201 4.9199 25.2901 3.5199C27.4601 2.1199 29.4401 0.869903 33.3401 1.2499V1.2699Z"
                fill="#FCC31E"
            />
            <path
                d="M28.9599 22.0399C32.3123 22.0399 35.0299 19.3223 35.0299 15.9699C35.0299 12.6175 32.3123 9.8999 28.9599 9.8999C25.6075 9.8999 22.8899 12.6175 22.8899 15.9699C22.8899 19.3223 25.6075 22.0399 28.9599 22.0399Z"
                fill="#FADDDC"
            />
            <path
                d="M29.7601 16.6701C30.6824 16.6701 31.4301 15.9224 31.4301 15.0001C31.4301 14.0778 30.6824 13.3301 29.7601 13.3301C28.8378 13.3301 28.0901 14.0778 28.0901 15.0001C28.0901 15.9224 28.8378 16.6701 29.7601 16.6701Z"
                fill="#F1F0EB"
            />
            <path
                d="M24.5499 16.6701C25.4722 16.6701 26.2199 15.9224 26.2199 15.0001C26.2199 14.0778 25.4722 13.3301 24.5499 13.3301C23.6276 13.3301 22.8799 14.0778 22.8799 15.0001C22.8799 15.9224 23.6276 16.6701 24.5499 16.6701Z"
                fill="#F1F0EB"
            />
            <path
                d="M28.15 19.0599H27.5401C26.9901 19.0599 26.55 18.6199 26.55 18.0699V15.0899C26.55 14.8599 26.73 14.6799 26.96 14.6799C27.19 14.6799 27.3701 14.8599 27.3701 15.0899V17.6799C27.3701 17.9899 27.62 18.2399 27.93 18.2399H28.14C28.37 18.2399 28.55 18.4199 28.55 18.6499C28.55 18.8799 28.37 19.0599 28.14 19.0599H28.15Z"
                fill="#E0B1BB"
            />
            <path
                d="M29.7799 12.8999C28.7999 12.8999 27.9899 13.5599 27.7399 14.4599H26.5999C26.3399 13.5799 25.5299 12.9299 24.5699 12.9299C23.3999 12.9299 22.4399 13.8799 22.4399 15.0599C22.4399 16.2399 23.3999 17.1899 24.5699 17.1899C25.7399 17.1899 26.6099 16.3099 26.6799 15.1999H27.6699C27.7599 16.2899 28.6699 17.1599 29.7799 17.1599C30.9499 17.1599 31.9099 16.2099 31.9099 15.0299C31.9099 13.8599 30.9499 12.8999 29.7799 12.8999ZM24.5599 16.3499C23.8499 16.3499 23.2699 15.7699 23.2699 15.0599C23.2699 14.3499 23.8499 13.7699 24.5599 13.7699C25.2699 13.7699 25.8499 14.3499 25.8499 15.0599C25.8499 15.7699 25.2699 16.3499 24.5599 16.3499ZM29.7799 16.3199C29.0699 16.3199 28.4899 15.7399 28.4899 15.0299C28.4899 14.3199 29.0699 13.7399 29.7799 13.7399C30.4899 13.7399 31.0699 14.3199 31.0699 15.0299C31.0699 15.7399 30.4899 16.3199 29.7799 16.3199Z"
                fill="#898989"
            />
            <path
                d="M37.39 7.1599C37.876 7.1599 38.27 6.76591 38.27 6.2799C38.27 5.79389 37.876 5.3999 37.39 5.3999C36.904 5.3999 36.51 5.79389 36.51 6.2799C36.51 6.76591 36.904 7.1599 37.39 7.1599Z"
                fill="#D6952D"
            />
            <path
                d="M24.0299 10.3501C24.5159 10.3501 24.9099 9.9561 24.9099 9.47009C24.9099 8.98408 24.5159 8.59009 24.0299 8.59009C23.5439 8.59009 23.1499 8.98408 23.1499 9.47009C23.1499 9.9561 23.5439 10.3501 24.0299 10.3501Z"
                fill="#D6952D"
            />
            <path
                d="M38.5999 22.72C38.9975 22.72 39.3199 22.3977 39.3199 22C39.3199 21.6024 38.9975 21.28 38.5999 21.28C38.2022 21.28 37.8799 21.6024 37.8799 22C37.8799 22.3977 38.2022 22.72 38.5999 22.72Z"
                fill="#D6952D"
            />
            <path
                d="M21.73 12.6299C22.1277 12.6299 22.45 12.3076 22.45 11.9099C22.45 11.5123 22.1277 11.1899 21.73 11.1899C21.3324 11.1899 21.01 11.5123 21.01 11.9099C21.01 12.3076 21.3324 12.6299 21.73 12.6299Z"
                fill="#D6952D"
            />
            <path
                d="M40.81 10.5301C40.9977 10.5301 41.15 10.3779 41.15 10.1901C41.15 10.0023 40.9977 9.8501 40.81 9.8501C40.6222 9.8501 40.47 10.0023 40.47 10.1901C40.47 10.3779 40.6222 10.5301 40.81 10.5301Z"
                fill="#D6952D"
            />
            <path
                d="M22.2699 20.3299C22.4577 20.3299 22.6099 20.1777 22.6099 19.9899C22.6099 19.8021 22.4577 19.6499 22.2699 19.6499C22.0822 19.6499 21.9299 19.8021 21.9299 19.9899C21.9299 20.1777 22.0822 20.3299 22.2699 20.3299Z"
                fill="#D6952D"
            />
            <path
                d="M43.1299 16.51C43.2624 16.51 43.3699 16.4026 43.3699 16.27C43.3699 16.1375 43.2624 16.03 43.1299 16.03C42.9973 16.03 42.8899 16.1375 42.8899 16.27C42.8899 16.4026 42.9973 16.51 43.1299 16.51Z"
                fill="#D6952D"
            />
            <path
                d="M21.72 14.77C21.8525 14.77 21.96 14.6626 21.96 14.53C21.96 14.3975 21.8525 14.29 21.72 14.29C21.5874 14.29 21.48 14.3975 21.48 14.53C21.48 14.6626 21.5874 14.77 21.72 14.77Z"
                fill="#D6952D"
            />
            <path
                d="M42.98 13.08C43.2175 13.08 43.41 12.8875 43.41 12.65C43.41 12.4125 43.2175 12.22 42.98 12.22C42.7426 12.22 42.55 12.4125 42.55 12.65C42.55 12.8875 42.7426 13.08 42.98 13.08Z"
                fill="#D6952D"
            />
        </g>
        <defs>
            <clipPath id="clip0_85_869">
                <rect width="59.25" height="118.48" fill="white" />
            </clipPath>
        </defs>
    </svg>
