<svg width="45" height="115" viewBox="0 0 45 115" fill="none" xmlns="http://www.w3.org/2000/svg">
<g clip-path="url(#clip0_134_1629)">
<path d="M19.5299 25.51H24.1399V22.16H19.5299V25.51Z" fill="#FADDDC"/>
<path d="M37.81 60.6601C37.49 62.3101 38.56 63.9101 40.2 64.2301C41.55 64.5001 42.87 63.8201 43.48 62.6601C43.61 62.4101 43.71 62.1301 43.77 61.8401C43.91 61.1301 44.02 60.4201 44.12 59.7201L38 59.5601C37.94 59.9301 37.88 60.3001 37.81 60.6701V60.6601Z" fill="#FADDDC"/>
<path d="M27.62 27.65C26.48 28.88 26.55 30.8 27.77 31.94C27.9 32.06 40.4 43.96 38.01 59.55L44.13 59.71C46.54 41.31 32.54 28.06 31.92 27.49C30.69 26.35 28.77 26.42 27.63 27.65H27.62Z" fill="#3E2967"/>
<path d="M5.81006 57.1801C5.92006 58.7501 4.74006 60.1101 3.18006 60.2201C3.11006 60.2201 3.04006 60.2201 2.97006 60.2201C1.49006 60.2201 0.240059 59.0801 0.140059 57.5801C0.100059 57.0901 0.0800586 56.6001 0.0600586 56.1201H5.76006C5.78006 56.4701 5.79006 56.8101 5.81006 57.1701V57.1801Z" fill="#FADDDC"/>
<path d="M12.4899 26.56C13.8599 25.8 15.5699 26.29 16.3399 27.65C17.1099 29.01 16.6199 30.74 15.2599 31.52C14.7399 31.82 4.77988 36.41 5.74988 56.12H0.0598827C-0.970117 32.94 11.8399 26.91 12.4899 26.55V26.56Z" fill="#3E2967"/>
<path d="M7.81005 59.6701H35.32L35.3101 34.6701C35.3101 29.5301 31.14 25.3601 26 25.3601H17.11C11.97 25.3601 7.80005 29.5301 7.80005 34.6701L7.82005 59.6701H7.81005Z" fill="#3E2967"/>
<path d="M7.81006 59.6699H20.3801H35.3201C35.3201 59.6699 27.0701 106.73 28.4401 106.16C29.0901 105.89 29.5001 105.76 30.0401 106.25C30.6801 106.83 30.1901 108.53 29.6201 109.44L23.7901 114.08C21.4901 113.55 21.8001 111.75 22.2501 110.37C22.5501 109.46 22.7301 108.5 22.7701 107.53C22.9601 101.43 23.9101 74.1899 24.0701 69.6599C24.1101 68.6199 23.2301 67.4999 22.3601 67.4999H20.7801C19.9101 67.4999 19.1601 68.2499 19.0101 69.2699C18.3201 73.9199 19.2301 77.4199 19.4801 91.5299C19.4801 91.5299 19.3301 95.7099 19.0801 96.7099C18.7201 98.1299 17.2701 97.9199 16.7701 96.8699C16.3401 95.9599 15.9001 92.2499 15.8201 91.5299H14.3801L7.81006 59.6799V59.6699Z" fill="#757570"/>
<path d="M18.5601 0.38995C17.6101 0.62995 15.6201 1.74995 14.5301 2.98995C13.4401 4.22995 12.0001 6.14995 11.5501 6.75995C11.1001 7.36995 9.50009 9.55995 9.17009 10.2899C8.54009 11.6999 7.83009 14.5 8.68009 17.66C9.53009 20.82 13.4601 23.87 17.7601 24.17C22.0601 24.4699 28.1001 24.17 31.3601 21.01C34.6201 17.84 35.6201 15.2899 34.6901 11.9499C33.7601 8.60995 31.7801 6.78995 30.6501 5.72995C29.5201 4.66995 29.2601 2.54995 26.8901 1.47995C24.5201 0.40995 22.3901 -0.56005 18.5601 0.38995Z" fill="#FCC31E"/>
<path d="M15.2601 6.85996C15.7517 6.85996 16.1501 6.46149 16.1501 5.96996C16.1501 5.47842 15.7517 5.07996 15.2601 5.07996C14.7686 5.07996 14.3701 5.47842 14.3701 5.96996C14.3701 6.46149 14.7686 6.85996 15.2601 6.85996Z" fill="#D6952D"/>
<path d="M29.0101 8.08005C29.5016 8.08005 29.9001 7.68158 29.9001 7.19005C29.9001 6.69852 29.5016 6.30005 29.0101 6.30005C28.5186 6.30005 28.1201 6.69852 28.1201 7.19005C28.1201 7.68158 28.5186 8.08005 29.0101 8.08005Z" fill="#D6952D"/>
<path d="M19.97 20.76C20.3732 20.76 20.7 20.4332 20.7 20.0301C20.7 19.6269 20.3732 19.3 19.97 19.3C19.5668 19.3 19.24 19.6269 19.24 20.0301C19.24 20.4332 19.5668 20.76 19.97 20.76Z" fill="#D6952D"/>
<path d="M23.97 17.67C24.3732 17.67 24.7 17.3431 24.7 16.94C24.7 16.5368 24.3732 16.21 23.97 16.21C23.5668 16.21 23.24 16.5368 23.24 16.94C23.24 17.3431 23.5668 17.67 23.97 17.67Z" fill="#D6952D"/>
<path d="M12.4201 10.69C12.6079 10.69 12.7601 10.5378 12.7601 10.35C12.7601 10.1622 12.6079 10.01 12.4201 10.01C12.2323 10.01 12.0801 10.1622 12.0801 10.35C12.0801 10.5378 12.2323 10.69 12.4201 10.69Z" fill="#D6952D"/>
<path d="M26.32 17.6299C26.5078 17.6299 26.66 17.4777 26.66 17.29C26.66 17.1022 26.5078 16.95 26.32 16.95C26.1322 16.95 25.98 17.1022 25.98 17.29C25.98 17.4777 26.1322 17.6299 26.32 17.6299Z" fill="#D6952D"/>
<path d="M11 16.97C11.1326 16.97 11.24 16.8625 11.24 16.73C11.24 16.5974 11.1326 16.49 11 16.49C10.8675 16.49 10.76 16.5974 10.76 16.73C10.76 16.8625 10.8675 16.97 11 16.97Z" fill="#D6952D"/>
<path d="M32.0501 12.13C32.1826 12.13 32.2901 12.0226 32.2901 11.89C32.2901 11.7575 32.1826 11.65 32.0501 11.65C31.9175 11.65 31.8101 11.7575 31.8101 11.89C31.8101 12.0226 31.9175 12.13 32.0501 12.13Z" fill="#D6952D"/>
<path d="M10.6199 13.5401C10.8574 13.5401 11.0499 13.3475 11.0499 13.1101C11.0499 12.8726 10.8574 12.6801 10.6199 12.6801C10.3825 12.6801 10.1899 12.8726 10.1899 13.1101C10.1899 13.3475 10.3825 13.5401 10.6199 13.5401Z" fill="#D6952D"/>
<path d="M12.69 2.82003C13.52 3.66003 13.92 4.75003 13.86 5.79003C12.82 5.85003 11.73 5.45003 10.9 4.61003C10.07 3.77003 9.67 2.68003 9.73 1.64003C10.77 1.58003 11.86 1.98003 12.69 2.82003Z" fill="#2D963A"/>
<path d="M11.3099 3.94995C12.4599 4.21995 13.3799 4.92995 13.8799 5.83995C13.0299 6.43995 11.8899 6.67995 10.7399 6.41995C9.58992 6.15995 8.66992 5.43995 8.16992 4.52995C9.01992 3.92995 10.1599 3.68995 11.3099 3.94995Z" fill="#3EB750"/>
</g>
<defs>
<clipPath id="clip0_134_1629">
<rect width="44.4" height="114.08" fill="white"/>
</clipPath>
</defs>
</svg>
