<svg width="45" height="116" viewBox="0 0 45 116" fill="none" xmlns="http://www.w3.org/2000/svg">
<g clip-path="url(#clip0_134_1608)">
<path d="M24.87 23.71H20.26V27.06H24.87V23.71Z" fill="#FADDDC"/>
<path d="M6.59003 62.2101C6.91003 63.8601 5.84003 65.4601 4.20003 65.7801C2.85003 66.0501 1.53003 65.3701 0.920029 64.2101C0.790029 63.9601 0.690029 63.6801 0.630029 63.3901C0.490029 62.6801 0.380029 61.9701 0.280029 61.2701L6.40003 61.1101C6.46003 61.4801 6.52003 61.8501 6.59003 62.2201V62.2101Z" fill="#FADDDC"/>
<path d="M16.7801 29.2001C17.9201 30.4301 17.8501 32.3501 16.6301 33.4901C16.5001 33.6101 4.00007 45.5101 6.39007 61.1001L0.270069 61.2601C-2.13993 42.8601 11.8601 29.6101 12.4801 29.0401C13.7101 27.9001 15.6301 27.9701 16.7701 29.2001H16.7801Z" fill="#3E2967"/>
<path d="M38.5901 58.7299C38.4801 60.2999 39.6601 61.6599 41.2201 61.7699C41.2901 61.7699 41.3601 61.7699 41.4301 61.7699C42.9101 61.7699 44.1601 60.6299 44.2601 59.1299C44.3001 58.6399 44.3201 58.1499 44.3401 57.6699H38.6401C38.6201 58.0199 38.6101 58.3599 38.5901 58.7199V58.7299Z" fill="#FADDDC"/>
<path d="M31.91 28.11C30.54 27.35 28.83 27.84 28.06 29.2C27.29 30.56 27.78 32.29 29.14 33.07C29.66 33.37 39.62 37.96 38.65 57.67H44.35C45.38 34.49 32.57 28.46 31.92 28.1L31.91 28.11Z" fill="#3E2967"/>
<path d="M36.5901 61.2199H9.08008L9.09008 36.2199C9.09008 31.0799 13.2601 26.9099 18.4001 26.9099H27.2901C32.4301 26.9099 36.6001 31.0799 36.6001 36.2199L36.5801 61.2199H36.5901Z" fill="#3E2967"/>
<path d="M36.5901 61.22H9.08008C9.08008 61.22 17.3301 108.28 15.9601 107.71C15.3101 107.44 14.9001 107.31 14.3601 107.8C13.7201 108.38 14.2101 110.08 14.7801 110.99L20.6101 115.63C22.9101 115.1 22.6001 113.3 22.1501 111.92C21.8501 111.01 21.6701 110.05 21.6301 109.08C21.4401 102.98 20.4901 75.74 20.3301 71.21C20.2901 70.17 21.1701 69.05 22.0401 69.05H23.6201C24.4901 69.05 25.2401 69.8 25.3901 70.82C26.0801 75.47 25.1701 78.97 24.9201 93.08C24.9201 93.08 25.0701 97.26 25.3201 98.26C25.6801 99.68 27.1301 99.47 27.6301 98.42C28.0601 97.51 28.5001 93.8 28.5801 93.08H30.0201L36.5901 61.23V61.22Z" fill="#757570"/>
<path d="M24.3901 1.75002C23.4101 1.66002 21.1701 2.06002 19.7301 2.86002C18.2901 3.66002 16.3001 5.00002 15.6701 5.42002C15.0401 5.84002 12.8101 7.38002 12.2601 7.96002C11.2001 9.09002 9.59011 11.49 9.35011 14.75C9.11011 18.01 11.7901 22.2 15.7601 23.91C19.7201 25.63 25.5101 27.35 29.6401 25.44C33.7701 23.53 35.5601 21.46 35.7901 18C36.0201 14.54 34.7601 12.17 34.0401 10.79C33.3201 9.41002 33.7801 7.33002 31.9101 5.53002C30.0401 3.73002 28.3301 2.11002 24.4001 1.74002L24.3901 1.75002Z" fill="#FCC31E"/>
<path d="M19.42 6.81003C19.9116 6.81003 20.31 6.41156 20.31 5.92003C20.31 5.4285 19.9116 5.03003 19.42 5.03003C18.9285 5.03003 18.53 5.4285 18.53 5.92003C18.53 6.41156 18.9285 6.81003 19.42 6.81003Z" fill="#D6952D"/>
<path d="M31.9801 12.53C32.4716 12.53 32.8701 12.1315 32.8701 11.64C32.8701 11.1485 32.4716 10.75 31.9801 10.75C31.4886 10.75 31.0901 11.1485 31.0901 11.64C31.0901 12.1315 31.4886 12.53 31.9801 12.53Z" fill="#D6952D"/>
<path d="M19.19 21.48C19.5931 21.48 19.92 21.1532 19.92 20.75C19.92 20.3469 19.5931 20.02 19.19 20.02C18.7868 20.02 18.46 20.3469 18.46 20.75C18.46 21.1532 18.7868 21.48 19.19 21.48Z" fill="#D6952D"/>
<path d="M24 19.8901C24.4032 19.8901 24.73 19.5632 24.73 19.1601C24.73 18.7569 24.4032 18.4301 24 18.4301C23.5969 18.4301 23.27 18.7569 23.27 19.1601C23.27 19.5632 23.5969 19.8901 24 19.8901Z" fill="#D6952D"/>
<path d="M15.29 9.45002C15.4777 9.45002 15.63 9.2978 15.63 9.11002C15.63 8.92224 15.4777 8.77002 15.29 8.77002C15.1022 8.77002 14.95 8.92224 14.95 9.11002C14.95 9.2978 15.1022 9.45002 15.29 9.45002Z" fill="#D6952D"/>
<path d="M26.1 20.6101C26.2878 20.6101 26.44 20.4578 26.44 20.2701C26.44 20.0823 26.2878 19.9301 26.1 19.9301C25.9122 19.9301 25.76 20.0823 25.76 20.2701C25.76 20.4578 25.9122 20.6101 26.1 20.6101Z" fill="#D6952D"/>
<path d="M11.8301 14.9C11.9626 14.9 12.0701 14.7926 12.0701 14.66C12.0701 14.5275 11.9626 14.42 11.8301 14.42C11.6975 14.42 11.5901 14.5275 11.5901 14.66C11.5901 14.7926 11.6975 14.9 11.8301 14.9Z" fill="#D6952D"/>
<path d="M33.2901 17.32C33.4226 17.32 33.53 17.2125 33.53 17.08C33.53 16.9474 33.4226 16.84 33.2901 16.84C33.1575 16.84 33.05 16.9474 33.05 17.08C33.05 17.2125 33.1575 17.32 33.2901 17.32Z" fill="#D6952D"/>
<path d="M12.67 11.5499C12.9075 11.5499 13.1 11.3574 13.1 11.1199C13.1 10.8825 12.9075 10.6899 12.67 10.6899C12.4325 10.6899 12.24 10.8825 12.24 11.1199C12.24 11.3574 12.4325 11.5499 12.67 11.5499Z" fill="#D6952D"/>
<path d="M18.0399 2.1C18.5499 3.17 18.5599 4.33 18.1599 5.29C17.1599 5 16.2599 4.26 15.7599 3.19C15.2499 2.12 15.2399 0.96 15.6399 0C16.6399 0.29 17.5399 1.03 18.0399 2.1Z" fill="#2D963A"/>
<path d="M16.37 2.70001C17.37 3.33001 17.99 4.31001 18.16 5.34001C17.16 5.62001 16.01 5.47001 15.01 4.84001C14.01 4.21001 13.39 3.23001 13.22 2.20001C14.22 1.92001 15.37 2.07001 16.37 2.70001Z" fill="#3EB750"/>
</g>
<defs>
<clipPath id="clip0_134_1608">
<rect width="44.4" height="115.63" fill="white"/>
</clipPath>
</defs>
</svg>
