<svg width="58" height="109" viewBox="0 0 58 109" fill="none" xmlns="http://www.w3.org/2000/svg">
<g clip-path="url(#clip0_109_1181)">
<path d="M34.11 55.67L17.6 56.52L12.54 80.24L0.00999512 97.94L2.34 99.8C2.06 100.3 1.57 101.12 1.1 101.44C0.409995 101.9 -0.490005 102.77 0.319995 103.8L5.28 107.65C6 107.96 6.77 106.9 6.41 106.1C6.17 105.57 5.35 104.39 5.08 103.89C4.52999 102.84 5.18999 102.05 5.91 100.91C10.24 94.12 20.35 83.73 20.35 83.73L34.1 55.67H34.11Z" fill="#291B4C"/>
<path d="M33.2799 55.5L14.95 55.27L37.36 82.59L44.74 104.95L47.52 104.56L48.4199 106.33C49.3499 108.32 49.4699 109.17 51.0099 108.4L54.84 106.9C55.54 106.55 55.43 105.54 54.61 105.29C54.07 105.13 53.24 105.1 52.68 105.07C50.6 104.97 50.88 103.52 50.5499 102.2C48.5499 94.32 47.65 87.99 45.38 80.04C44.09 75.48 33.2599 55.5 33.2599 55.5H33.2799Z" fill="#3F3072"/>
<path d="M54.9801 40.96C56.5901 41.31 57.6001 42.89 57.2601 44.5C56.9701 45.82 55.8501 46.74 54.5701 46.84C54.2901 46.86 54.0101 46.84 53.7201 46.78C53.0201 46.63 52.3501 46.46 51.6801 46.27L53.9101 40.71C54.2601 40.8 54.6201 40.89 54.9801 40.97V40.96Z" fill="#FADDDC"/>
<path d="M29.29 18.97C30.84 18.42 32.54 19.23 33.09 20.77C33.15 20.93 38.98 36.78 53.91 40.69L51.68 46.25C34.21 41.26 27.76 23.53 27.49 22.75C26.94 21.2 27.75 19.51 29.3 18.96L29.29 18.97Z" fill="#3A4F46"/>
<path d="M35.45 56.34L16.68 56.59C12.95 56.59 13.14 53.29 13.23 52.33L16.98 29.38C16.98 25.22 16.23 19.19 24.45 17.37H28.8C30.3 17.37 31.72 18.13 32.5 19.41C38.17 28.67 35.45 56.33 35.45 56.33V56.34Z" fill="#4D6059"/>
<path d="M8.08 49.42C8.05 51.06 6.7 52.37 5.06 52.35C3.71 52.33 2.59 51.41 2.24 50.17C2.17 49.9 2.13 49.62 2.13 49.32C2.14 48.61 2.18 47.91 2.23 47.22L8.12 48.32C8.1 48.68 8.08 49.05 8.08 49.42Z" fill="#FADDDC"/>
<path d="M24.6 19.9101C25.44 21.3201 24.98 23.1401 23.58 23.9901C23.43 24.0801 9.02999 32.9101 8.12999 48.3201L2.23999 47.2201C3.69999 29.1101 19.82 19.3101 20.53 18.8801C21.94 18.0401 23.76 18.5001 24.6 19.9101Z" fill="#4D6059"/>
<path d="M24.64 3.04004H35.03V12.34C35.03 14.16 33.55 15.64 31.73 15.64H30.68C30.17 15.64 29.75 16.05 29.75 16.57V17.48C29.75 18.64 28.51 19.37 27.49 18.82L24.84 17.38L24.63 3.04004H24.64Z" fill="#FADDDC"/>
<path d="M34.35 12.77L34.95 12.6C35.49 12.45 35.81 11.88 35.66 11.34L34.83 8.37999C34.77 8.14999 34.53 8.01999 34.31 8.08999C34.09 8.15999 33.95 8.38999 34.02 8.60999L34.74 11.17C34.83 11.48 34.65 11.8 34.34 11.88L34.13 11.94C33.9 12 33.77 12.24 33.84 12.46C33.91 12.68 34.14 12.82 34.36 12.75L34.35 12.77Z" fill="#E0B1BB"/>
<path d="M32.89 8.35004C32.89 8.66004 32.64 8.91004 32.33 8.91004C32.02 8.91004 31.77 8.66004 31.77 8.35004C31.77 8.04004 32.02 7.79004 32.33 7.79004C32.64 7.79004 32.89 8.04004 32.89 8.35004Z" fill="#757570"/>
<path d="M27.76 8.46C27.76 7.92981 27.3302 7.5 26.8 7.5C26.2698 7.5 25.84 7.92981 25.84 8.46V10.55C25.84 11.0802 26.2698 11.51 26.8 11.51C27.3302 11.51 27.76 11.0802 27.76 10.55V8.46Z" fill="#FADDDC"/>
<path d="M27.15 7.02998L27.13 9.68998C27.13 9.90998 26.95 10.09 26.73 10.09C26.51 10.09 26.33 9.90998 26.33 9.68998V8.66998C26.33 8.28998 26.02 7.97998 25.64 7.97998C25.26 7.97998 24.95 8.28998 24.95 8.66998V12.03L23.96 6.67998C23.96 6.67998 23.65 3.99998 25.57 3.23998C27.49 2.47998 27.17 7.03998 27.17 7.03998L27.15 7.02998Z" fill="#3E2967"/>
<path d="M23.9499 7.00999L23.8199 6.18999H23.8799C23.8199 3.27999 25.9099 0.699988 28.8599 0.229988L29.7999 0.0799883C32.7499 -0.390012 35.5299 1.40999 36.3899 4.17999L39.4399 3.68999C39.8299 3.62999 40.1899 3.88999 40.2499 4.27999C40.3099 4.66999 40.0499 5.02999 39.6599 5.08999L24.0399 7.58999L23.9499 7.00999Z" fill="#A4B2D3"/>
<path d="M31.43 39.11L30.65 42.76L29.62 39.27L27.98 40.83L28.15 36.74L26.41 35.47L27.7 32.7L26.68 29.2L28.48 29.04L28.65 24.95L30.13 27.48L31.42 24.71L31.87 28.74L33.67 28.58L32.89 32.24L34.36 34.77L32.72 36.33L33.17 40.37L31.43 39.11ZM31.31 38.52C31.9 37.96 32.32 36.99 32.55 35.61C32.78 34.24 32.76 32.86 32.49 31.48C32.22 30.1 31.78 29.12 31.17 28.54C30.56 27.96 29.96 27.96 29.36 28.52C28.76 29.08 28.35 30.05 28.13 31.43C27.9 32.8 27.92 34.18 28.19 35.56C28.46 36.94 28.9 37.92 29.52 38.5C30.13 39.08 30.74 39.08 31.33 38.52H31.31Z" fill="#A4B2D3"/>
</g>
<defs>
<clipPath id="clip0_109_1181">
<rect width="57.32" height="108.68" fill="white"/>
</clipPath>
</defs>
</svg>
