<svg width="45" height="107" viewBox="0 0 45 107" fill="none" xmlns="http://www.w3.org/2000/svg">
<g clip-path="url(#clip0_109_1284)">
<path d="M24.87 14.83H20.26V18.18H24.87V14.83Z" fill="#FADDDC"/>
<path d="M27.77 11.19H27.21V8.64002C27.21 8.23002 27.54 7.89001 27.96 7.89001H28.26C28.67 7.89001 29.01 8.22002 29.01 8.64002L28.66 10.31C28.66 10.8 28.27 11.19 27.78 11.19H27.77Z" fill="#FADDDC"/>
<path d="M16.6499 11.19H17.2099V8.64002C17.2099 8.23002 16.8799 7.89001 16.4599 7.89001H16.1599C15.7499 7.89001 15.4099 8.22002 15.4099 8.64002L15.7599 10.31C15.7599 10.8 16.1499 11.19 16.6399 11.19H16.6499Z" fill="#FADDDC"/>
<path d="M23.57 1.14005C22.19 0.87005 20.07 0.57005 18.55 2.18005C17.03 3.79005 16.29 4.84005 16.29 6.29005C16.29 7.74005 16.39 8.97005 16.64 9.95005C16.89 10.93 17.94 14.2101 19.97 15.5201C20.94 16.1501 23.53 16.5301 24.83 15.5201C26.13 14.5101 27.26 13.1901 27.58 11.1101C27.9 9.03005 27.68 9.03005 28.03 8.05005C28.38 7.07005 27.83 4.29005 27.71 3.75005C27.59 3.21005 26.19 1.64005 23.57 1.14005Z" fill="#3E2967"/>
<path d="M6.59003 53.33C6.91003 54.98 5.84003 56.58 4.20003 56.9C2.85003 57.17 1.53003 56.49 0.920029 55.33C0.790029 55.08 0.690029 54.8 0.630029 54.51C0.490029 53.8 0.380029 53.09 0.280029 52.39L6.40003 52.23C6.46003 52.6 6.52003 52.97 6.59003 53.34V53.33Z" fill="#FADDDC"/>
<path d="M16.7801 20.33C17.9201 21.56 17.8501 23.48 16.6301 24.62C16.5001 24.74 4.00007 36.64 6.39007 52.23L0.270069 52.39C-2.13993 33.99 11.8601 20.74 12.4801 20.17C13.7101 19.03 15.6301 19.1 16.7701 20.33H16.7801Z" fill="#4D6059"/>
<path d="M38.5901 49.85C38.4801 51.42 39.6601 52.78 41.2201 52.89C41.2901 52.89 41.3601 52.89 41.4301 52.89C42.9101 52.89 44.1601 51.75 44.2601 50.25C44.3001 49.76 44.3201 49.27 44.3401 48.79H38.6401C38.6201 49.14 38.6101 49.48 38.5901 49.84V49.85Z" fill="#FADDDC"/>
<path d="M31.91 19.23C30.54 18.47 28.83 18.96 28.06 20.32C27.29 21.68 27.78 23.41 29.14 24.19C29.66 24.49 39.62 29.08 38.65 48.79H44.35C45.38 25.61 32.57 19.58 31.92 19.22L31.91 19.23Z" fill="#4D6059"/>
<path d="M36.5901 52.34H9.08008L9.09008 27.34C9.09008 22.2 13.2601 18.03 18.4001 18.03H27.2901C32.4301 18.03 36.6001 22.2 36.6001 27.34L36.5801 52.34H36.5901Z" fill="#4D6059"/>
<path d="M36.5901 52.34H9.08008C9.08008 52.34 17.3301 99.4 15.9601 98.83C15.3101 98.56 14.9001 98.43 14.3601 98.92C13.7201 99.5 14.2101 101.2 14.7801 102.11L20.6101 106.75C22.9101 106.22 22.6001 104.42 22.1501 103.04C21.8501 102.13 21.6701 101.17 21.6301 100.2C21.4401 94.1 20.4901 66.86 20.3301 62.33C20.2901 61.29 21.1701 60.17 22.0401 60.17H23.6201C24.4901 60.17 25.2401 60.92 25.3901 61.94C26.0801 66.59 25.1701 70.09 24.9201 84.2C24.9201 84.2 25.0701 88.38 25.3201 89.38C25.6801 90.8 27.1301 90.59 27.6301 89.54C28.0601 88.63 28.5001 84.92 28.5801 84.2H30.0201L36.5901 52.35V52.34Z" fill="#3E2967"/>
<path d="M22.25 0C25.56 0 28.25 2.69 28.25 6V8.09H16.24V6C16.24 2.69 18.93 0 22.25 0Z" fill="#A4B2D3"/>
<path d="M22.2301 5.93994H22.3401C23.0901 5.93994 23.7001 6.54994 23.7001 7.29994V7.37994H20.8701V7.29994C20.8701 6.54994 21.4801 5.93994 22.2301 5.93994Z" fill="#3E2967"/>
</g>
<defs>
<clipPath id="clip0_109_1284">
<rect width="44.4" height="106.75" fill="white"/>
</clipPath>
</defs>
</svg>
