
    <svg
        width="60"
        height="109"
        viewBox="0 0 60 109"
        fill="none"
        xmlns="http://www.w3.org/2000/svg"
    >
        <g clip-path="url(#clip0_9_110)">
            <path
                d="M35.53 53.1799H20.34V101.9V101.92V101.95V103.4C20.34 104.12 20.06 104.8 19.57 105.19C18.99 105.65 18.43 106.14 17.87 106.64C17.22 107.24 17.56 108.54 18.36 108.54H22.47C23.21 108.54 23.86 107.9 24.04 106.99L25.91 97.4599C27.17 90.7899 28.36 84.0499 29.48 77.2499C30.26 72.4799 31.01 67.7199 31.71 62.9699C31.86 61.9299 32.62 61.1699 33.51 61.1699H35.11C36 61.1699 36.75 61.9299 36.91 62.9699C37.61 67.7199 38.35 72.4799 39.14 77.2499C40.51 85.5799 41.99 93.8199 43.57 101.96C43.83 103.32 43.38 104.73 42.45 105.5C42 105.87 41.56 106.26 41.12 106.66C40.47 107.26 40.8 108.57 41.61 108.57H45.08C46.86 108.57 48.3 106.75 48.3 104.5V53.1899H35.53V53.1799Z"
                fill="#3E2967"
            />
            <path
                d="M1.98997 46.2C0.399966 46.81 -0.410034 48.59 0.199966 50.19C0.699966 51.5 1.98997 52.27 3.31997 52.17C3.60997 52.15 3.89997 52.08 4.17997 51.98C4.86997 51.72 5.53997 51.43 6.18997 51.14L3.03997 45.78C2.68997 45.93 2.33997 46.07 1.97997 46.21L1.98997 46.2Z"
                fill="#FADDDC"
            />
            <path
                d="M24.34 21.84C22.67 21.51 20.88 23.38 20.55 25.05C20.52 25.23 17.78 39.45 3.05005 45.78L6.20005 51.14C23.37 43.32 26.6201 26.3 26.7801 25.46C27.1 23.79 26.01 22.17 24.34 21.85V21.84Z"
                fill="#4D6059"
            />
            <path
                d="M47.95 56.75H20.68C19.53 56.75 18.61 55.78 18.68 54.62L20.42 26.6C20.42 22.04 24.12 18.33 28.69 18.33H40.26C44.75 18.33 48.38 21.97 48.38 26.45L49.94 54.62C50 55.77 49.09 56.73 47.94 56.73L47.95 56.75Z"
                fill="#4D6059"
            />
            <path
                d="M53.49 55.2601C53.37 56.9601 54.65 58.4401 56.35 58.5601C56.42 58.5601 56.5 58.5601 56.57 58.5601C58.18 58.5601 59.53 57.3201 59.65 55.6901C59.69 55.1601 59.72 54.6301 59.74 54.1101H53.55C53.53 54.4901 53.52 54.8601 53.49 55.2501V55.2601Z"
                fill="#FADDDC"
            />
            <path
                d="M43.95 19.25C42.47 18.43 40.6 18.96 39.77 20.44C38.94 21.92 39.46 23.8 40.94 24.64C41.51 24.96 54.61 32.71 53.55 54.12H59.74C60.85 28.94 44.65 19.64 43.95 19.24V19.25Z"
                fill="#4D6059"
            />
            <path
                d="M32.73 41.15L29.73 43.66L29.04 39.81H25.13L27.09 36.42L24.09 33.9L27.76 32.56L27.1 28.71L30.78 30.05L32.74 26.66L34.71 30.05L38.39 28.71L37.71 32.56L41.38 33.9L38.38 36.42L40.34 39.81H36.43L35.74 43.66L32.74 41.15H32.73ZM32.73 40.55C34.14 40.55 35.35 40.05 36.35 39.05C37.35 38.05 37.85 36.84 37.85 35.43C37.85 34.02 37.35 32.81 36.35 31.81C35.35 30.81 34.14 30.31 32.73 30.31C31.32 30.31 30.11 30.81 29.11 31.81C28.11 32.81 27.61 34.02 27.61 35.43C27.61 36.84 28.11 38.05 29.12 39.05C30.12 40.05 31.33 40.55 32.74 40.55H32.73Z"
                fill="#A4B2D3"
            />
            <path
                d="M36.65 4.78003H25.86V12.3C25.86 14.69 27.8 16.63 30.19 16.63H30.38C30.91 16.63 31.34 17.06 31.34 17.59V18.86C31.34 20.32 32.52 21.5 33.98 21.5C35.43 21.5 36.61 20.32 36.62 18.87L36.66 4.78003H36.65Z"
                fill="#FADDDC"
            />
            <path
                d="M29.35 13.52H28.7C28.12 13.52 27.64 13.05 27.64 12.46V9.26996C27.64 9.02996 27.84 8.82996 28.08 8.82996C28.32 8.82996 28.52 9.02996 28.52 9.26996V12.03C28.52 12.36 28.79 12.63 29.12 12.63H29.35C29.59 12.63 29.79 12.83 29.79 13.07C29.79 13.31 29.59 13.51 29.35 13.51V13.52Z"
                fill="#E0B1BB"
            />
            <path
                d="M31.6101 9.40006C31.6101 9.72006 31.3501 9.99006 31.0201 9.99006C30.6901 9.99006 30.4301 9.73006 30.4301 9.40006C30.4301 9.07006 30.6901 8.81006 31.0201 8.81006C31.3501 8.81006 31.6101 9.07006 31.6101 9.40006Z"
                fill="#757570"
            />
            <path
                d="M34.42 7.02998L34.44 9.68998C34.44 9.90998 34.62 10.09 34.84 10.09C35.06 10.09 35.24 9.90998 35.24 9.68998V8.66998C35.24 8.28998 35.55 7.97998 35.93 7.97998C36.31 7.97998 36.62 8.28998 36.62 8.66998V12.03L37.61 6.67998C37.61 6.67998 37.92 3.99998 36 3.23998C34.08 2.47998 34.4 7.03998 34.4 7.03998L34.42 7.02998Z"
                fill="#3E2967"
            />
            <path
                d="M37.68 6.17999C37.74 3.27999 35.65 0.699988 32.7 0.229988L31.76 0.0799883C28.81 -0.390012 26.03 1.40999 25.17 4.17999L22.12 3.68999C21.73 3.62999 21.37 3.88999 21.31 4.27999C21.25 4.66999 21.51 5.02999 21.9 5.08999L37.52 7.58999L37.68 6.17999Z"
                fill="#A4B2D3"
            />
        </g>
        <defs>
            <clipPath id="clip0_9_110">
                <rect width="59.79" height="108.56" fill="white" />
            </clipPath>
        </defs>
    </svg>
