
    <svg
        width="57"
        height="111"
        viewBox="0 0 57 111"
        fill="none"
        xmlns="http://www.w3.org/2000/svg"
    >
        <g clip-path="url(#clip0_9_526)">
            <path
                d="M5.95 2.85995C5.88 1.21995 4.5 -0.0600491 2.86 -4.91356e-05C1.51 0.0499509 0.41 0.999951 0.09 2.23995C0.02 2.50995 0 2.79995 0 3.08995C0.03 3.79995 0.08 4.49995 0.15 5.18995L6.01 3.95995C5.98 3.59995 5.96 3.22995 5.94 2.85995H5.95Z"
                fill="#FADDDC"
            />
            <path
                d="M23.11 31.99C23.92 30.56 23.42 28.75 22 27.94C21.85 27.85 7.26002 19.34 6.02002 3.95996L0.150024 5.17996C2.01002 23.25 18.34 32.7 19.06 33.11C20.49 33.92 22.3 33.42 23.11 31.99Z"
                fill="#FFD517"
            />
            <path
                d="M45.8 60.69H17.13C15.78 60.69 14.71 59.55 14.8 58.2L16.36 34.69C16.36 29.66 20.44 25.58 25.47 25.58H37.42C42.45 25.58 46.53 29.66 46.53 34.69L48.14 58.2C48.23 59.55 47.16 60.7 45.81 60.7L45.8 60.69Z"
                fill="#FCC31E"
            />
            <path
                d="M50.7 61.23C50.58 62.87 51.82 64.29 53.45 64.41C53.52 64.41 53.59 64.41 53.67 64.41C55.22 64.41 56.52 63.21 56.63 61.65C56.67 61.14 56.69 60.63 56.72 60.13H50.76C50.74 60.5 50.73 60.85 50.7 61.23Z"
                fill="#FADDDC"
            />
            <path
                d="M41.51 26.55C40.08 25.76 38.28 26.27 37.48 27.7C36.68 29.13 37.18 30.94 38.61 31.75C39.16 32.06 51.77 39.52 50.76 60.14H56.72C57.79 35.9 42.19 26.93 41.52 26.56L41.51 26.55Z"
                fill="#FFD517"
            />
            <path
                d="M43.5 37.03H41.89L43.03 35.89L42.73 35.59L41.59 36.73V35.12H41.16V36.73L40.02 35.59L39.72 35.89L40.86 37.03H39.25V37.46H40.86L39.72 38.6L40.02 38.9L41.16 37.76V39.37H41.59V37.76L42.73 38.9L43.03 38.6L41.89 37.46H43.5V37.03Z"
                fill="#F6A723"
            />
            <path
                d="M35.4399 30.5H33.8299L34.9699 29.36L34.6699 29.06L33.5299 30.2V28.59H33.1099V30.2L31.9699 29.06L31.6699 29.36L32.8099 30.5H31.1899V30.93H32.8099L31.6699 32.07L31.9699 32.37L33.1099 31.23V32.84H33.5299V31.23L34.6699 32.37L34.9699 32.07L33.8299 30.93H35.4399V30.5Z"
                fill="#F6A723"
            />
            <path
                d="M22.15 39.05H20.54L21.68 37.91L21.38 37.61L20.24 38.75V37.14H19.81V38.75L18.67 37.61L18.37 37.91L19.51 39.05H17.9V39.48H19.51L18.37 40.62L18.67 40.92L19.81 39.78V41.39H20.24V39.78L21.38 40.92L21.68 40.62L20.54 39.48H22.15V39.05Z"
                fill="#F6A723"
            />
            <path
                d="M35.2 38.89H33.59L34.7299 37.75L34.4199 37.45L33.29 38.59V36.98H32.86V38.59L31.7199 37.45L31.42 37.75L32.56 38.89H30.95V39.32H32.56L31.42 40.46L31.7199 40.76L32.86 39.62V41.23H33.29V39.62L34.4199 40.76L34.7299 40.46L33.59 39.32H35.2V38.89Z"
                fill="#F6A723"
            />
            <path
                d="M43.11 45.57H41.5L42.64 44.43L42.34 44.13L41.2 45.27V43.65H40.77V45.27L39.63 44.13L39.33 44.43L40.47 45.57H38.86V45.99H40.47L39.33 47.13L39.63 47.43L40.77 46.29V47.9H41.2V46.29L42.34 47.43L42.64 47.13L41.5 45.99H43.11V45.57Z"
                fill="#F6A723"
            />
            <path
                d="M25.14 30.78H23.53L24.67 29.64L24.37 29.34L23.23 30.48V28.87H22.81V30.48L21.67 29.34L21.37 29.64L22.5 30.78H20.89V31.21H22.5L21.37 32.35L21.67 32.65L22.81 31.51V33.12H23.23V31.51L24.37 32.65L24.67 32.35L23.53 31.21H25.14V30.78Z"
                fill="#F6A723"
            />
            <path
                d="M27.99 44.36H26.38L27.52 43.22L27.22 42.9199L26.08 44.06V42.45H25.66V44.06L24.52 42.9199L24.22 43.22L25.35 44.36H23.74V44.79H25.35L24.22 45.93L24.52 46.2299L25.66 45.09V46.7H26.08V45.09L27.22 46.2299L27.52 45.93L26.38 44.79H27.99V44.36Z"
                fill="#F6A723"
            />
            <path
                d="M22.45 52.24H20.84L21.9799 51.1L21.68 50.8L20.54 51.94V50.33H20.11V51.94L18.9699 50.8L18.67 51.1L19.8099 52.24H18.2V52.67H19.8099L18.67 53.81L18.9699 54.11L20.11 52.97V54.58H20.54V52.97L21.68 54.11L21.9799 53.81L20.84 52.67H22.45V52.24Z"
                fill="#F6A723"
            />
            <path
                d="M42.86 54.28H41.25L42.39 53.14L42.09 52.84L40.95 53.98V52.37H40.53V53.98L39.39 52.84L39.09 53.14L40.23 54.28H38.61V54.7H40.23L39.09 55.84L39.39 56.14L40.53 55V56.62H40.95V55L42.09 56.14L42.39 55.84L41.25 54.7H42.86V54.28Z"
                fill="#F6A723"
            />
            <path
                d="M33.46 53.06H31.85L32.99 51.92L32.69 51.62L31.55 52.76V51.14H31.13V52.76L29.99 51.62L29.69 51.92L30.83 53.06H29.21V53.48H30.83L29.69 54.62L29.99 54.92L31.13 53.78V55.39H31.55V53.78L32.69 54.92L32.99 54.62L31.85 53.48H33.46V53.06Z"
                fill="#F6A723"
            />
            <path
                d="M32.51 60.59H16.51V67.76V104.39V104.41V104.44V105.74C16.51 106.39 16.21 107 15.7 107.35C15.09 107.77 14.5 108.2 13.91 108.65C13.22 109.19 13.58 110.36 14.43 110.36H17.88H18.76C19.54 110.36 20.22 109.79 20.41 108.97L22.38 100.4C23.71 94.4 24.96 88.34 26.14 82.23C26.97 77.94 27.75 73.66 28.49 69.39C28.65 68.45 29.45 67.77 30.38 67.77H32.07C33 67.77 33.8 68.45 33.96 69.39C34.7 73.66 35.48 77.94 36.31 82.23C37.75 89.72 39.31 97.13 40.97 104.45C41.25 105.68 40.77 106.94 39.79 107.63C39.31 107.96 38.85 108.31 38.39 108.67C37.7 109.21 38.06 110.39 38.91 110.39H42.35H42.56C44.44 110.39 45.96 108.75 45.96 106.73V67.77V60.6H32.5L32.51 60.59Z"
                fill="#3E2967"
            />
            <path
                d="M33.44 12.23H23.05V20.34C23.05 22.16 24.53 23.64 26.35 23.64H27.4C27.91 23.64 28.33 24.05 28.33 24.57V25.62C28.33 26.69 29.2 27.56 30.2701 27.56H31.46C32.53 27.56 33.4001 26.69 33.4001 25.62L33.44 12.22V12.23Z"
                fill="#FADDDC"
            />
            <path
                d="M31.8299 10.44H29.8999C29.2699 10.44 28.6699 10.09 28.4199 9.51C28.0599 8.65 27.2099 8.06 26.2199 8.06C25.9999 8.06 25.7899 8.09 25.5899 8.15C24.8999 7.22 23.7199 6.67 22.4299 6.9C21.1699 7.13 20.1499 8.13 19.8999 9.38C19.7799 9.95 19.8299 10.51 19.9899 11.01C20.2499 12.32 21.4099 13.3 22.7899 13.3H30.0499C30.7799 13.3 31.3699 13.89 31.3699 14.62V16.92C31.3699 18.06 32.2899 18.98 33.4299 18.98C33.7899 18.98 34.0899 18.69 34.0899 18.32V12.69C34.0899 11.45 33.0799 10.44 31.8399 10.44H31.8299Z"
                fill="#3E2967"
            />
            <path
                d="M26.42 20.64H25.79C25.23 20.64 24.77 20.18 24.77 19.62V16.55C24.77 16.32 24.96 16.13 25.19 16.13C25.42 16.13 25.61 16.32 25.61 16.55V19.21C25.61 19.53 25.87 19.79 26.19 19.79H26.41C26.64 19.79 26.83 19.98 26.83 20.22C26.83 20.46 26.64 20.64 26.41 20.64H26.42Z"
                fill="#E0B1BB"
            />
            <path
                d="M28.59 16.67C28.59 16.98 28.34 17.24 28.02 17.24C27.7 17.24 27.45 16.99 27.45 16.67C27.45 16.35 27.7 16.1 28.02 16.1C28.34 16.1 28.59 16.35 28.59 16.67Z"
                fill="#757570"
            />
        </g>
        <defs>
            <clipPath id="clip0_9_526">
                <rect width="56.77" height="110.38" fill="white" />
            </clipPath>
        </defs>
    </svg>
