<svg width="54" height="106" viewBox="0 0 54 106" fill="none" xmlns="http://www.w3.org/2000/svg">
<g clip-path="url(#clip0_134_938)">
<path d="M22.48 56.16L34.34 55.71L40.87 77.61L53.28 95.15L50.97 96.99C51.24 97.49 51.73 98.3 52.2 98.61C52.89 99.07 53.78 99.92 52.97 100.95L48.05 104.76C47.34 105.06 46.57 104.01 46.93 103.23C47.17 102.71 47.98 101.54 48.25 101.04C48.8 100 48.14 99.22 47.43 98.09C43.14 91.36 33.12 81.07 33.12 81.07L22.48 56.16Z" fill="#291B4C"/>
<path d="M19.57 54.63L39.05 55.42L17.79 79.94L10.48 102.1L7.72999 101.71L6.83999 103.47C5.91999 105.44 5.79999 106.28 4.26999 105.52L0.469988 104.03C-0.220012 103.68 -0.110012 102.68 0.689988 102.44C1.22999 102.28 2.04999 102.25 2.59999 102.22C4.65999 102.12 4.37999 100.68 4.70999 99.38C6.68999 91.57 7.58999 85.3 9.82999 77.42C11.11 72.91 19.58 54.64 19.58 54.64L19.57 54.63Z" fill="#3F3072"/>
<path d="M4.07009 44.68C2.52009 45.22 1.70009 46.92 2.24009 48.47C2.68009 49.74 3.91009 50.52 5.19009 50.46C5.47009 50.45 5.75009 50.39 6.03009 50.3C6.70009 50.07 7.35009 49.81 7.99009 49.54L5.10009 44.29C4.76009 44.42 4.42009 44.55 4.07009 44.68Z" fill="#FADDDC"/>
<path d="M26.9001 19.7401C25.3001 19.3801 23.7101 20.3901 23.3501 21.9901C23.3101 22.1601 19.4501 38.6001 5.11011 44.3001L8.00011 49.5501C24.7301 42.4801 28.9801 24.1001 29.1601 23.2901C29.5101 21.6901 28.5001 20.1101 26.9001 19.7501V19.7401Z" fill="#FFD517"/>
<path d="M18.84 55.24H37.31C41.04 55.24 40.85 51.94 40.76 50.98L36.61 27.25C36.61 23.09 34.2 19.71 30.67 19.71H26.32C24.82 19.71 23.4 20.47 22.62 21.75C16.95 31.01 18.84 55.24 18.84 55.24Z" fill="#FCC31E"/>
<path d="M41.5599 52.82C41.3399 54.45 42.4899 55.94 44.1199 56.16C45.4599 56.34 46.7099 55.6 47.2299 54.42C47.3399 54.17 47.4199 53.89 47.4599 53.6C47.5499 52.89 47.6199 52.2 47.6699 51.51L41.6899 51.73C41.6599 52.09 41.6199 52.46 41.5699 52.82H41.5599Z" fill="#FADDDC"/>
<path d="M29.5601 21.22C28.5201 22.49 28.7101 24.36 29.9701 25.4C30.1001 25.51 43.0501 36.36 41.6701 51.73L47.6501 51.51C48.8701 33.39 34.3701 21.32 33.7301 20.79C32.4601 19.75 30.5901 19.94 29.5501 21.21L29.5601 21.22Z" fill="#FFD517"/>
<path d="M30.4701 5.37H20.0801V14.67C20.0801 16.49 21.5601 17.97 23.3801 17.97H24.4301C24.9401 17.97 25.3601 18.38 25.3601 18.9V19.81C25.3601 20.97 26.6001 21.7 27.6201 21.15L30.2701 19.71L30.4801 5.37H30.4701Z" fill="#FADDDC"/>
<path d="M20.7701 15.1L20.1701 14.93C19.6301 14.78 19.3101 14.21 19.4601 13.67L20.2901 10.71C20.3501 10.48 20.5901 10.35 20.8101 10.42C21.0301 10.49 21.1701 10.72 21.1001 10.94L20.3801 13.5C20.2901 13.81 20.4701 14.13 20.7801 14.21L20.9901 14.27C21.2201 14.33 21.3501 14.57 21.2801 14.79C21.2101 15.01 20.9801 15.15 20.7601 15.08L20.7701 15.1Z" fill="#E0B1BB"/>
<path d="M28.18 3.59003H27.7H27.23C26.61 3.59003 26.02 3.24003 25.77 2.66003C25.41 1.80003 24.58 1.21003 23.61 1.21003C23.39 1.21003 23.19 1.24003 22.99 1.30003C22.31 0.370029 21.16 -0.179971 19.89 0.0500288C18.65 0.280029 17.65 1.28003 17.4 2.53003C17.29 3.10003 17.33 3.66003 17.48 4.16003C17.74 5.47003 18.87 6.45003 20.23 6.45003H24.48C25.65 6.45003 26.07 7.64003 26.07 8.37003L26.11 10.65C26.11 11.79 26.42 13.36 29.2 12.92L30.22 14.72C30.53 14.78 31.05 15.1 31.32 13.97V8.95003V7.30003C31.32 6.06003 31.18 3.60003 28.17 3.60003L28.18 3.59003Z" fill="#3E2967"/>
<path d="M22.22 10.68C22.22 10.99 22.47 11.24 22.78 11.24C23.09 11.24 23.34 10.99 23.34 10.68C23.34 10.37 23.09 10.12 22.78 10.12C22.47 10.12 22.22 10.37 22.22 10.68Z" fill="#757570"/>
<path d="M25.6799 33.8401H24.0699L25.2099 32.7001L24.9099 32.4001L23.7699 33.5401V31.9301H23.3399V33.5401L22.1999 32.4001L21.8999 32.7001L23.0399 33.8401H21.4299V34.2701H23.0399L21.8999 35.4101L22.1999 35.7101L23.3399 34.5701V36.1801H23.7699V34.5701L24.9099 35.7101L25.2099 35.4101L24.0699 34.2701H25.6799V33.8401Z" fill="#F6A723"/>
<path d="M34.52 32.3499H32.91L34.05 31.2099L33.75 30.9099L32.61 32.0499V30.4399H32.18V32.0499L31.05 30.9099L30.74 31.2099L31.88 32.3499H30.27V32.7699H31.88L30.74 33.9099L31.05 34.2099L32.18 33.0699V34.6899H32.61V33.0699L33.75 34.2099L34.05 33.9099L32.91 32.7699H34.52V32.3499Z" fill="#F6A723"/>
<path d="M28.6699 25.58H27.0599L28.1999 24.44L27.8999 24.14L26.7599 25.28V23.66H26.3299V25.28L25.1899 24.14L24.8899 24.44L26.0299 25.58H24.4199V26H26.0299L24.8899 27.14L25.1899 27.44L26.3299 26.3V27.91H26.7599V26.3L27.8999 27.44L28.1999 27.14L27.0599 26H28.6699V25.58Z" fill="#F6A723"/>
<path d="M31.52 39.15H29.91L31.05 38.02L30.75 37.71L29.61 38.85V37.24H29.18V38.85L28.04 37.71L27.74 38.02L28.88 39.15H27.27V39.58H28.88L27.74 40.72L28.04 41.02L29.18 39.88V41.49H29.61V39.88L30.75 41.02L31.05 40.72L29.91 39.58H31.52V39.15Z" fill="#F6A723"/>
<path d="M25.98 47.03H24.37L25.51 45.89L25.21 45.59L24.07 46.73V45.12H23.64V46.73L22.5 45.59L22.2 45.89L23.34 47.03H21.73V47.46H23.34L22.2 48.6L22.5 48.9L23.64 47.76V49.37H24.07V47.76L25.21 48.9L25.51 48.6L24.37 47.46H25.98V47.03Z" fill="#F6A723"/>
<path d="M36.99 47.8499H35.38L36.52 46.7099L36.22 46.4099L35.08 47.5499V45.9399H34.65V47.5499L33.51 46.4099L33.21 46.7099L34.35 47.8499H32.74V48.2699H34.35L33.21 49.4099L33.51 49.7099L34.65 48.5699V50.1799H35.08V48.5699L36.22 49.7099L36.52 49.4099L35.38 48.2699H36.99V47.8499Z" fill="#F6A723"/>
<path d="M27.29 12.92C27.29 13.4502 27.7198 13.88 28.25 13.88C28.7802 13.88 29.21 13.4502 29.21 12.92V10.83C29.21 10.2998 28.7802 9.87 28.25 9.87C27.7198 9.87 27.29 10.2998 27.29 10.83V12.92Z" fill="#FADDDC"/>
</g>
<defs>
<clipPath id="clip0_134_938">
<rect width="53.29" height="105.79" fill="white"/>
</clipPath>
</defs>
</svg>
