<svg width="47" height="106" viewBox="0 0 47 106" fill="none" xmlns="http://www.w3.org/2000/svg">
<g clip-path="url(#clip0_134_874)">
<path d="M8.12012 53.86H34.8501L27.1101 100.14C27.0201 101.01 26.6401 102.03 27.5901 102.8C28.1201 103.23 28.6801 103.62 29.2101 104.05C29.8301 104.56 29.5101 105.69 28.7401 105.69L23.7501 104.67C21.5101 104.2 21.8201 102.62 22.2601 101.4C22.5501 100.59 22.7301 99.75 22.7601 98.89C22.9501 93.51 22.2601 61.46 22.2601 61.46H20.7301C20.7301 61.46 17.4101 92.37 17.1601 93.25C16.8101 94.5 15.4001 94.32 14.9101 93.39C14.4901 92.59 14.0701 89.32 13.9901 88.68H12.5901L8.12012 53.86Z" fill="#3E2967"/>
<path d="M7.01997 53.1501C7.54997 54.5801 6.80997 56.1701 5.37997 56.6901C4.19997 57.1201 2.91997 56.7001 2.20997 55.7401C2.05997 55.5301 1.92997 55.3001 1.82997 55.0401C1.59997 54.4201 1.39997 53.8001 1.21997 53.1901L6.68997 52.1801C6.78997 52.5001 6.89997 52.8201 7.01997 53.1501Z" fill="#FADDDC"/>
<path d="M11.49 22.07C12.69 23.01 12.9 24.74 11.96 25.95C11.86 26.08 2.33 38.53 6.69 52.19L1.22 53.2C-3.56 37.02 7.14001 23.15 7.61 22.54C8.55 21.34 10.28 21.14 11.48 22.07H11.49Z" fill="#FFD517"/>
<path d="M35.6501 53.84H6.99007C5.64007 53.84 4.57007 52.7 4.66007 51.35L6.22007 27.84C6.22007 22.81 10.3001 18.73 15.3301 18.73H27.2801C32.3101 18.73 36.3901 22.81 36.3901 27.84L38.0001 51.35C38.0901 52.7 37.0201 53.85 35.6701 53.85L35.6501 53.84Z" fill="#FCC31E"/>
<path d="M40.55 54.38C40.43 56.02 41.67 57.44 43.3 57.56C43.37 57.56 43.44 57.56 43.52 57.56C45.07 57.56 46.37 56.36 46.48 54.8C46.52 54.29 46.54 53.78 46.57 53.28H40.61C40.59 53.65 40.58 54 40.55 54.38Z" fill="#FADDDC"/>
<path d="M31.37 19.7C29.94 18.91 28.14 19.42 27.34 20.85C26.54 22.28 27.04 24.09 28.47 24.9C29.02 25.21 41.63 32.67 40.62 53.29H46.58C47.65 29.05 32.05 20.08 31.38 19.71L31.37 19.7Z" fill="#FFD517"/>
<path d="M33.3501 30.18H31.7401L32.8801 29.04L32.5801 28.74L31.4401 29.88V28.27H31.0201V29.88L29.8801 28.74L29.5801 29.04L30.7101 30.18H29.1001V30.61H30.7101L29.5801 31.75L29.8801 32.05L31.0201 30.91V32.52H31.4401V30.91L32.5801 32.05L32.8801 31.75L31.7401 30.61H33.3501V30.18Z" fill="#F6A723"/>
<path d="M25.2901 23.65H23.68L24.82 22.51L24.5201 22.21L23.38 23.35V21.74H22.96V23.35L21.82 22.21L21.5201 22.51L22.66 23.65H21.05V24.08H22.66L21.5201 25.22L21.82 25.52L22.96 24.38V25.99H23.38V24.38L24.5201 25.52L24.82 25.22L23.68 24.08H25.2901V23.65Z" fill="#F6A723"/>
<path d="M12 32.2H10.39L11.53 31.06L11.23 30.76L10.09 31.9V30.29H9.66V31.9L8.52 30.76L8.22 31.06L9.36 32.2H7.75V32.63H9.36L8.22 33.77L8.52 34.07L9.66 32.93V34.54H10.09V32.93L11.23 34.07L11.53 33.77L10.39 32.63H12V32.2Z" fill="#F6A723"/>
<path d="M25.05 32.04H23.4401L24.58 30.9L24.2801 30.6L23.14 31.74V30.13H22.71V31.74L21.57 30.6L21.2701 30.9L22.41 32.04H20.8V32.47H22.41L21.2701 33.61L21.57 33.91L22.71 32.77V34.38H23.14V32.77L24.2801 33.91L24.58 33.61L23.4401 32.47H25.05V32.04Z" fill="#F6A723"/>
<path d="M32.96 38.7201H31.35L32.49 37.5801L32.19 37.2801L31.05 38.4201V36.8101H30.63V38.4201L29.49 37.2801L29.19 37.5801L30.33 38.7201H28.71V39.1401H30.33L29.19 40.2801L29.49 40.5801L30.63 39.4401V41.0501H31.05V39.4401L32.19 40.5801L32.49 40.2801L31.35 39.1401H32.96V38.7201Z" fill="#F6A723"/>
<path d="M14.99 23.94H13.38L14.52 22.8L14.22 22.5L13.08 23.63V22.02H12.66V23.63L11.52 22.5L11.22 22.8L12.36 23.94H10.74V24.36H12.36L11.22 25.5L11.52 25.8L12.66 24.66V26.27H13.08V24.66L14.22 25.8L14.52 25.5L13.38 24.36H14.99V23.94Z" fill="#F6A723"/>
<path d="M17.8401 37.51H16.2301L17.3701 36.37L17.0701 36.07L15.9301 37.21V35.6H15.5101V37.21L14.3701 36.07L14.0701 36.37L15.2101 37.51H13.5901V37.94H15.2101L14.0701 39.08L14.3701 39.38L15.5101 38.24V39.85H15.9301V38.24L17.0701 39.38L17.3701 39.08L16.2301 37.94H17.8401V37.51Z" fill="#F6A723"/>
<path d="M12.3 45.39H10.69L11.83 44.25L11.53 43.95L10.39 45.09V43.48H9.96005V45.09L8.83005 43.95L8.52005 44.25L9.66005 45.39H8.05005V45.82H9.66005L8.52005 46.96L8.83005 47.26L9.96005 46.12V47.73H10.39V46.12L11.53 47.26L11.83 46.96L10.69 45.82H12.3V45.39Z" fill="#F6A723"/>
<path d="M32.72 47.43H31.1L32.24 46.29L31.94 45.99L30.8 47.13V45.52H30.38V47.13L29.24 45.99L28.94 46.29L30.08 47.43H28.47V47.85H30.08L28.94 48.99L29.24 49.29L30.38 48.15V49.77H30.8V48.15L31.94 49.29L32.24 48.99L31.1 47.85H32.72V47.43Z" fill="#F6A723"/>
<path d="M23.3101 46.21H21.7001L22.8401 45.07L22.5401 44.77L21.4001 45.91V44.29H20.9801V45.91L19.8401 44.77L19.5401 45.07L20.6801 46.21H19.0701V46.63H20.6801L19.5401 47.77L19.8401 48.07L20.9801 46.93V48.54H21.4001V46.93L22.5401 48.07L22.8401 47.77L21.7001 46.63H23.3101V46.21Z" fill="#F6A723"/>
<path d="M23.2999 5.38H12.9099V13.49C12.9099 15.31 14.3899 16.79 16.2099 16.79H17.2599C17.7699 16.79 18.1899 17.2 18.1899 17.72V18.77C18.1899 19.84 19.0599 20.71 20.1299 20.71H21.3199C22.3899 20.71 23.2599 19.84 23.2599 18.77L23.2999 5.37V5.38Z" fill="#FADDDC"/>
<path d="M21.68 3.59003H19.75C19.12 3.59003 18.52 3.24003 18.27 2.66003C17.91 1.80003 17.06 1.21003 16.07 1.21003C15.85 1.21003 15.64 1.24003 15.44 1.30003C14.75 0.370029 13.57 -0.179971 12.28 0.0500288C11.02 0.280029 10 1.28003 9.75004 2.53003C9.63004 3.10003 9.68004 3.66003 9.84004 4.16003C10.1 5.47003 11.26 6.45003 12.64 6.45003H19.9C20.63 6.45003 21.22 7.04003 21.22 7.77003V10.07C21.22 11.21 22.14 12.13 23.28 12.13C23.64 12.13 23.94 11.84 23.94 11.47V5.84003C23.94 4.60003 22.93 3.59003 21.69 3.59003H21.68Z" fill="#3E2967"/>
<path d="M16.2701 13.79H15.6401C15.0801 13.79 14.6201 13.33 14.6201 12.77V9.70003C14.6201 9.47003 14.8101 9.28003 15.0401 9.28003C15.2701 9.28003 15.4601 9.47003 15.4601 9.70003V12.36C15.4601 12.68 15.7201 12.94 16.0401 12.94H16.2601C16.4901 12.94 16.6801 13.13 16.6801 13.37C16.6801 13.61 16.4901 13.79 16.2601 13.79H16.2701Z" fill="#E0B1BB"/>
<path d="M18.4501 9.83001C18.4501 10.14 18.2001 10.4 17.8801 10.4C17.5601 10.4 17.3101 10.15 17.3101 9.83001C17.3101 9.51001 17.5601 9.26001 17.8801 9.26001C18.2001 9.26001 18.4501 9.51001 18.4501 9.83001Z" fill="#757570"/>
</g>
<defs>
<clipPath id="clip0_134_874">
<rect width="46.62" height="105.69" fill="white"/>
</clipPath>
</defs>
</svg>
