<svg width="45" height="107" viewBox="0 0 45 107" fill="none" xmlns="http://www.w3.org/2000/svg">
<g clip-path="url(#clip0_134_972)">
<path d="M24.87 14.98H20.26V18.33H24.87V14.98Z" fill="#FADDDC"/>
<path d="M27.77 11.34H27.21V8.79004C27.21 8.38004 27.54 8.04004 27.96 8.04004H28.26C28.67 8.04004 29.01 8.37004 29.01 8.79004L28.66 10.46C28.66 10.95 28.27 11.34 27.78 11.34H27.77Z" fill="#FADDDC"/>
<path d="M16.6499 11.34H17.2099V8.79004C17.2099 8.38004 16.8799 8.04004 16.4599 8.04004H16.1599C15.7499 8.04004 15.4099 8.37004 15.4099 8.79004L15.7599 10.46C15.7599 10.95 16.1499 11.34 16.6399 11.34H16.6499Z" fill="#FADDDC"/>
<path d="M23.57 1.28995C22.19 1.01995 20.07 0.719952 18.55 2.32995C17.03 3.93995 16.29 4.98995 16.29 6.43995C16.29 7.88995 16.39 9.11995 16.64 10.1C16.89 11.08 17.94 14.36 19.97 15.67C20.94 16.3 23.53 16.68 24.83 15.67C26.13 14.66 27.26 13.34 27.58 11.26C27.9 9.17995 27.92 8.79995 28.27 7.81995C28.62 6.83995 28.05 4.69995 27.92 4.15995C27.79 3.61995 26.19 1.78995 23.57 1.28995Z" fill="#3E2967"/>
<path d="M6.59003 53.48C6.91003 55.13 5.84003 56.73 4.20003 57.05C2.85003 57.32 1.53003 56.64 0.920029 55.48C0.790029 55.23 0.690029 54.95 0.630029 54.66C0.490029 53.95 0.380029 53.24 0.280029 52.54L6.40003 52.38C6.46003 52.75 6.52003 53.12 6.59003 53.49V53.48Z" fill="#FADDDC"/>
<path d="M16.7801 20.47C17.9201 21.7 17.8501 23.62 16.6301 24.76C16.5001 24.88 4.00007 36.78 6.39007 52.37L0.270069 52.53C-2.13993 34.13 11.8601 20.88 12.4801 20.31C13.7101 19.17 15.6301 19.24 16.7701 20.47H16.7801Z" fill="#FFD517"/>
<path d="M38.5901 49.9999C38.4801 51.5699 39.6601 52.9299 41.2201 53.0399C41.2901 53.0399 41.3601 53.0399 41.4301 53.0399C42.9101 53.0399 44.1601 51.8999 44.2601 50.3999C44.3001 49.9099 44.3201 49.4199 44.3401 48.9399H38.6401C38.6201 49.2899 38.6101 49.6299 38.5901 49.9899V49.9999Z" fill="#FADDDC"/>
<path d="M31.91 19.38C30.54 18.62 28.83 19.11 28.06 20.47C27.29 21.83 27.78 23.56 29.14 24.34C29.66 24.64 39.62 29.23 38.65 48.94H44.35C45.38 25.76 32.57 19.73 31.92 19.37L31.91 19.38Z" fill="#FFD517"/>
<path d="M36.5901 52.4901H9.08008L9.09008 27.4901C9.09008 22.3501 13.2601 18.1801 18.4001 18.1801H27.2901C32.4301 18.1801 36.6001 22.3501 36.6001 27.4901L36.5801 52.4901H36.5901Z" fill="#FCC31E"/>
<path d="M36.5901 52.49H9.08008C9.08008 52.49 17.3301 99.55 15.9601 98.98C15.3101 98.71 14.9001 98.58 14.3601 99.07C13.7201 99.65 14.2101 101.35 14.7801 102.26L20.6101 106.9C22.9101 106.37 22.6001 104.57 22.1501 103.19C21.8501 102.28 21.6701 101.32 21.6301 100.35C21.4401 94.25 20.4901 67.01 20.3301 62.48C20.2901 61.44 21.1701 60.32 22.0401 60.32H23.6201C24.4901 60.32 25.2401 61.07 25.3901 62.09C26.0801 66.74 25.1701 70.24 24.9201 84.35C24.9201 84.35 25.0701 88.53 25.3201 89.53C25.6801 90.95 27.1301 90.74 27.6301 89.69C28.0601 88.78 28.5001 85.07 28.5801 84.35H30.0201L36.5901 52.5V52.49Z" fill="#3E2967"/>
<path d="M23.2201 7.06C25.6336 7.06 27.5901 5.47957 27.5901 3.53C27.5901 1.58043 25.6336 0 23.2201 0C20.8066 0 18.8501 1.58043 18.8501 3.53C18.8501 5.47957 20.8066 7.06 23.2201 7.06Z" fill="#3E2967"/>
</g>
<defs>
<clipPath id="clip0_134_972">
<rect width="44.4" height="106.9" fill="white"/>
</clipPath>
</defs>
</svg>
