
    <svg width="51" height="98" viewBox="0 0 51 98" fill="none" xmlns="http://www.w3.org/2000/svg">
        <g clip-path="url(#clip0_8_129)">
            <path
                d="M2.03524 39.3829C0.584097 39.7577 -0.292066 41.2387 0.0821287 42.6922C0.392437 43.8898 1.44201 44.6943 2.61022 44.7308C2.86577 44.7308 3.12132 44.7126 3.38599 44.6486C4.01574 44.484 4.62723 44.3012 5.22959 44.1092L3.00267 39.1086C2.68324 39.2092 2.3638 39.3006 2.03524 39.3829Z"
                fill="#FADDDC"
            />
            <path
                d="M24.6968 18.4116C23.2639 17.9636 21.7489 18.759 21.2926 20.1942C21.2469 20.3496 16.4737 35.0313 2.99353 39.1177L5.22044 44.1183C20.9823 38.9532 26.2484 22.5345 26.4674 21.8123C26.9146 20.3771 26.1115 18.8595 24.6877 18.4116H24.6968Z"
                fill="#A4B2D3"
            />
            <path
                d="M21.9953 19.1521L15.1503 29.5372L21.4021 36.2747L24.423 25.1034L21.9953 19.1521Z"
                fill="#5280DD"
            />
            <path
                d="M24.2314 49.7222H35.1652L40.3766 70.1632L49.5307 87.7886L48.9648 88.4011C49.2021 88.8764 49.6128 89.6352 50.0326 89.9369C50.6532 90.3848 51.4381 91.2076 50.6624 92.1218L45.9986 95.4585C45.3324 95.7145 44.6661 94.7181 45.0312 94.005C45.2685 93.5296 46.0625 92.4875 46.3181 92.0304C46.8565 91.0888 46.2907 90.3483 45.6701 89.2787C41.9646 82.9251 33.1209 73.0611 33.1209 73.0611L24.2314 49.713V49.7222Z"
                fill="#291B4C"
            />
            <path
                d="M22.4791 49.5851L34.6906 49.7222L21.6486 73.1252L15.1504 93.9959L14.3837 94.0142L13.7175 95.7054C13.0512 97.5978 13.0147 98.384 11.5453 97.8172L7.93114 96.7933C7.26489 96.5373 7.27402 95.6049 7.99503 95.3123C8.46962 95.1112 9.22713 95.0198 9.7291 94.9467C11.6092 94.6724 11.2259 93.3743 11.4084 92.1401C12.5219 84.7901 12.7774 78.9577 14.1282 71.5162C14.8948 67.2562 22.4882 49.5851 22.4882 49.5851H22.4791Z"
                fill="#3E2C6D"
            />
            <path
                d="M18.7645 53.2326L40.1118 53.0132L37.2095 31.466C37.2095 27.6631 32.5549 17.2963 29.3332 17.2963H25.3631C23.9941 17.2963 22.6981 17.991 21.9862 19.1612C16.8114 27.6265 18.7554 53.2418 18.7554 53.2418L18.7645 53.2326Z"
                fill="#5280DD"
            />
            <path
                d="M42.713 50.5267C42.5122 52.0168 43.5618 53.3789 45.0494 53.58C46.2724 53.7446 47.4132 53.0681 47.8878 51.9894C47.9882 51.7608 48.0612 51.5048 48.0977 51.2397C48.1799 50.5907 48.2438 49.9599 48.2894 49.3291L42.8316 49.5302C42.8042 49.8593 42.7677 50.1976 42.7221 50.5267H42.713Z"
                fill="#FADDDC"
            />
            <path
                d="M31.7609 21.6295C30.8117 22.7905 30.9851 24.5 32.1351 25.4507C32.2537 25.5513 44.0728 35.4701 42.8133 49.5211L48.2711 49.32C49.3846 32.755 36.1508 21.7209 35.5667 21.2364C34.4076 20.2856 32.7009 20.4593 31.7518 21.6203L31.7609 21.6295Z"
                fill="#A4B2D3"
            />
            <path
                d="M29.3332 17.2963C29.3332 17.2963 34.1704 17.1591 37.3921 20.6604C40.6138 24.1617 43.2423 27.727 43.2423 27.727C43.2423 27.727 36.1874 33.1755 35.9136 33.1755C35.6398 33.1755 26.4401 23.2841 26.4401 23.2841C26.4401 23.2841 26.9238 18.2379 29.3332 17.2963Z"
                fill="#5280DD"
            />
            <path
                d="M29.4975 4.42468H20.0149V12.9265C20.0149 14.5904 21.3656 15.9433 23.0267 15.9433H23.985C24.4505 15.9433 24.8338 16.3182 24.8338 16.7935V17.6254C24.8338 18.6859 25.9655 19.3532 26.8964 18.8504L29.315 17.534L29.5067 4.42468H29.4975Z"
                fill="#FADDDC"
            />
            <path
                d="M20.2978 13.0819L19.7502 12.9265C19.2574 12.7894 18.9653 12.2683 19.1022 11.7747L19.8598 9.06869C19.9145 8.85843 20.1336 8.73959 20.3343 8.80358C20.5351 8.86757 20.6629 9.07783 20.599 9.27895L19.9419 11.6192C19.8598 11.9026 20.024 12.1952 20.307 12.2683L20.4986 12.3232C20.7085 12.378 20.8272 12.5974 20.7633 12.7985C20.6994 12.9997 20.4895 13.1276 20.2887 13.0637L20.2978 13.0819Z"
                fill="#E0B1BB"
            />
            <path
                d="M21.6302 9.04124C21.6302 9.32463 21.8584 9.55318 22.1413 9.55318C22.4243 9.55318 22.6524 9.32463 22.6524 9.04124C22.6524 8.75784 22.4243 8.5293 22.1413 8.5293C21.8584 8.5293 21.6302 8.75784 21.6302 9.04124Z"
                fill="#757570"
            />
            <path
                d="M26.6591 10.6867C26.6591 11.1714 27.0513 11.5643 27.5352 11.5643C28.0191 11.5643 28.4114 11.1714 28.4114 10.6867V8.77608C28.4114 8.29139 28.0191 7.89847 27.5352 7.89847C27.0513 7.89847 26.6591 8.29139 26.6591 8.77608V10.6867Z"
                fill="#FADDDC"
            />
            <path
                d="M22.2235 36.9603C21.6759 36.0552 21.3383 34.8211 21.3383 33.4681C21.3383 31.3289 22.2235 29.4549 23.4465 28.6778V28.9338C23.4465 29.6468 23.8298 30.2319 24.2862 30.2319H25.1258V31.53C25.1258 31.914 25.2901 32.1791 25.5457 32.1791H26.3853V33.4772H23.8572C23.6017 33.4772 23.4374 33.7332 23.4374 34.1263V36.0644H23.0176C22.6342 36.0644 22.3422 36.4483 22.2144 36.9694M25.1167 37.3534C25.5822 37.3534 25.9564 36.7683 25.9564 36.0552V35.4062L27.9734 32.298C28.019 32.6819 28.0555 33.075 28.0555 33.459C28.0555 36.0461 26.7504 38.2493 25.1076 38.5692M20.4803 33.459C20.4803 37.0151 22.3787 39.9313 24.6878 39.9313C26.9968 39.9313 28.8952 37.0151 28.8952 33.459C28.8952 29.9028 26.9968 26.9866 24.6878 26.9866C22.3787 26.9866 20.4803 29.9028 20.4803 33.459Z"
                fill="white"
            />
            <path
                d="M21.1831 1.38044C23.7295 -0.420494 29.8626 -1.65464 33.0843 5.57652C34.8093 9.45264 36.0961 14.3892 37.5655 16.8484C38.7976 18.9053 41.6087 18.3659 41.6087 18.3659C41.6087 18.3659 38.9802 19.7463 37.3009 18.3842C36.3152 17.5888 36.014 17.15 35.6124 16.3364C35.6124 16.3364 36.1783 17.7625 37.456 19.2435C38.0949 19.984 38.5603 20.8707 38.6607 21.8398C38.6699 21.9769 38.679 22.114 38.679 22.242C36.3791 19.8103 35.1926 18.311 31.9982 17.7991C30.9943 17.6803 29.6344 17.6071 28.5484 17.8265L27.9004 14.5629L24.1402 14.9469C24.1402 14.9469 26.2849 12.8442 25.0985 9.40693C23.9485 6.07932 23.1545 6.12503 22.1962 5.73193C21.3565 5.38454 20.0058 4.41551 20.0058 4.41551C19.9966 4.39723 19.9966 4.36981 19.9875 4.35152V7.14891C19.9875 7.14891 16.5467 3.67503 21.1831 1.36216V1.38044Z"
                fill="#3E2967"
            />
        </g>
        <defs>
            <clipPath id="clip0_8_129">
                <rect width="51" height="98" fill="white" />
            </clipPath>
        </defs>
    </svg>
