<svg width="33" height="106" viewBox="0 0 33 106" fill="none" xmlns="http://www.w3.org/2000/svg">
<g clip-path="url(#clip0_134_1718)">
<path d="M21.06 50.68L10.26 51.27L18.15 75.55L13.78 94.87L15.94 95.55V97.43C15.77 98.75 15.77 99.6101 17.18 100.37L20.79 101.29C21.5 101.35 21.83 100.47 21.27 99.87C20.9 99.47 20.12 99.19 19.8 98.75C18.35 96.79 19.11 96.34 19.38 95.1C21.03 87.72 26.95 75.26 26.95 75.26L21.06 50.67V50.68Z" fill="#291B4C"/>
<path d="M18.21 51.05L5.70996 51.41L6.44996 100.54L8.58996 101.24C8.59996 101.79 8.58996 102.7 8.35996 103.2C8.01996 103.94 7.70996 105.1 8.80996 105.48L14.42 105.9C15.12 105.76 15.25 104.51 14.6 104.08C14.17 103.79 13 103.29 12.56 103.03C11.66 102.49 11.69 101.5 11.87 100.23C13.14 91.0401 18.2 51.07 18.2 51.07L18.21 51.05Z" fill="#3E2C6D"/>
<path d="M31.95 49.71C33.19 50.79 33.33 52.66 32.25 53.91C31.37 54.93 29.94 55.2 28.77 54.67C28.52 54.55 28.27 54.4 28.05 54.21C27.51 53.74 27 53.27 26.51 52.78L31.13 48.97C31.39 49.22 31.66 49.47 31.94 49.71H31.95Z" fill="#FADDDC"/>
<path d="M19.95 18.1001C21.57 18.3601 22.67 19.8801 22.42 21.5001C22.39 21.6701 19.91 38.3801 31.14 48.9701L26.52 52.7801C13.58 40.0301 16.42 21.3801 16.55 20.5601C16.81 18.9401 18.34 17.8401 19.96 18.1001H19.95Z" fill="#A4B2D3"/>
<path d="M22.24 20.16L23.89 33.67L14.48 37.21L16.96 24.79L22.24 20.16Z" fill="#5280DD"/>
<path d="M25.04 55.65L1.65002 55.41L4.83002 31.84C4.83002 27.68 9.93003 16.34 13.46 16.34H17.81C19.31 16.34 20.73 17.1 21.51 18.38C27.18 27.64 25.05 55.66 25.05 55.66L25.04 55.65Z" fill="#5280DD"/>
<path d="M13.37 56.1C14.3 57.46 13.94 59.31 12.59 60.23C11.47 60.99 10.03 60.89 9.02997 60.08C8.80997 59.9 8.61997 59.69 8.45997 59.45C8.05997 58.86 7.68997 58.27 7.33997 57.67L12.78 55.17C12.97 55.48 13.17 55.79 13.38 56.09L13.37 56.1Z" fill="#FADDDC"/>
<path d="M9.87001 22.4701C11.37 23.1301 12.05 24.8901 11.38 26.3901C11.31 26.5501 4.63001 42.0601 12.77 55.1701L7.33001 57.6701C-1.90999 42.0301 5.61001 24.7301 5.95001 23.9701C6.62001 22.4701 8.37001 21.8001 9.87001 22.4701Z" fill="#A4B2D3"/>
<path d="M10.11 17.04C10.11 17.04 5.31001 19.29 3.88001 24.3C2.45001 29.31 1.64001 34.09 1.64001 34.09C1.64001 34.09 11.23 35.94 11.49 35.81C11.75 35.68 15.89 21.47 15.89 21.47C15.89 21.47 12.94 16.78 10.11 17.05V17.04Z" fill="#5280DD"/>
<path d="M11.87 4.32996H21.16V12.64C21.16 14.27 19.84 15.59 18.21 15.59H17.27C16.81 15.59 16.44 15.96 16.44 16.42V17.24C16.44 18.28 15.33 18.93 14.42 18.44L12.05 17.15L11.86 4.32996H11.87Z" fill="#FADDDC"/>
<path d="M20.88 12.79L21.42 12.64C21.9 12.5 22.19 12 22.05 11.52L21.31 8.87999C21.25 8.67999 21.04 8.55999 20.84 8.61999C20.64 8.67999 20.52 8.88999 20.58 9.08999L21.22 11.38C21.3 11.65 21.14 11.94 20.86 12.02L20.67 12.07C20.47 12.13 20.35 12.34 20.41 12.54C20.47 12.74 20.68 12.86 20.88 12.8V12.79Z" fill="#E0B1BB"/>
<path d="M19.58 8.83997C19.58 9.11997 19.36 9.33997 19.08 9.33997C18.8 9.33997 18.58 9.11997 18.58 8.83997C18.58 8.55997 18.8 8.33997 19.08 8.33997C19.36 8.33997 19.58 8.55997 19.58 8.83997Z" fill="#757570"/>
<path d="M14.6599 8.57997C14.6599 8.10501 14.2749 7.71997 13.7999 7.71997C13.325 7.71997 12.9399 8.10501 12.9399 8.57997V10.45C12.9399 10.9249 13.325 11.31 13.7999 11.31C14.2749 11.31 14.6599 10.9249 14.6599 10.45V8.57997Z" fill="#FADDDC"/>
<path d="M21.25 37.85C21.11 37.28 20.79 36.86 20.37 36.86H19.91V34.74C19.91 34.32 19.73 34.03 19.45 34.03H16.68V32.61H17.6C17.88 32.61 18.06 32.33 18.06 31.9V30.48H18.98C19.49 30.48 19.9 29.84 19.9 29.06V28.78C21.24 29.63 22.21 31.68 22.21 34.02C22.21 35.51 21.84 36.85 21.24 37.84M18.06 39.61C16.26 39.26 14.83 36.85 14.83 34.02C14.83 33.6 14.88 33.17 14.92 32.75L17.13 36.15V36.86C17.13 37.64 17.55 38.28 18.05 38.28M18.51 26.96C15.97 26.96 13.9 30.15 13.9 34.04C13.9 37.93 15.98 41.12 18.51 41.12C21.04 41.12 23.12 37.93 23.12 34.04C23.12 30.15 21.04 26.96 18.51 26.96Z" fill="white"/>
<path d="M20.01 1.35006C17.51 -0.409944 11.51 -1.61994 8.35 5.45006C6.66 9.24006 5.4 14.0701 3.96 16.4701C2.76 18.4801 0 17.9501 0 17.9501C0 17.9501 2.58 19.3001 4.22 17.9701C5.19 17.1901 5.48 16.7601 5.88 15.9701C5.88 15.9701 5.33 17.3601 4.08 18.8101C3.46 19.5301 3 20.4001 2.9 21.3501C2.89 21.4801 2.88 21.6101 2.88 21.7501C5.14 19.3701 5.86 21.9501 9.42 17.4101C10.41 17.3001 11.74 17.2201 12.8 17.4401L13.44 14.2501L17.13 14.6201C17.13 14.6201 15.03 12.5601 16.19 9.20006C17.32 5.94005 18.09 5.99006 19.03 5.60006C19.85 5.26006 21.18 4.31006 21.18 4.31006C21.19 4.29006 21.19 4.27006 21.2 4.25006V6.99006C21.2 6.99006 24.57 3.59006 20.03 1.33006L20.01 1.35006Z" fill="#3E2967"/>
</g>
<defs>
<clipPath id="clip0_134_1718">
<rect width="32.98" height="105.89" fill="white"/>
</clipPath>
</defs>
</svg>
