<svg width="57" height="105" viewBox="0 0 57 105" fill="none" xmlns="http://www.w3.org/2000/svg">
<g clip-path="url(#clip0_134_1680)">
<path d="M31.1 54.51L19.13 54.05L12.54 76.1601L0.00999512 93.8601L2.34 95.7201C2.06 96.2201 1.57 97.0401 1.1 97.3601C0.409995 97.82 -0.490005 98.6901 0.319995 99.7201L5.28 103.57C6 103.88 6.77 102.82 6.41 102.02C6.17 101.49 5.35 100.31 5.08 99.81C4.52999 98.76 5.18999 97.9701 5.91 96.8301C10.24 90.0401 20.35 79.6501 20.35 79.6501L31.09 54.51H31.1Z" fill="#291B4C"/>
<path d="M31.98 52.97L14.37 53.77L35.83 78.52L43.21 100.88L45.99 100.49L46.89 102.26C47.82 104.25 47.94 105.1 49.48 104.33L53.31 102.83C54.01 102.48 53.9 101.47 53.08 101.22C52.54 101.06 51.71 101.03 51.15 101C49.07 100.9 49.35 99.45 49.02 98.13C47.02 90.25 46.12 83.92 43.85 75.97C42.56 71.41 31.96 52.98 31.96 52.98L31.98 52.97Z" fill="#3F3072"/>
<path d="M54.66 40.5C56.25 40.91 57.21 42.5299 56.8 44.1199C56.46 45.4299 55.31 46.3099 54.03 46.3499C53.75 46.3499 53.47 46.3299 53.18 46.2599C52.49 46.0799 51.82 45.8799 51.16 45.6699L53.6 40.2C53.95 40.31 54.3 40.41 54.66 40.5Z" fill="#FADDDC"/>
<path d="M29.83 17.55C31.4 17.06 33.06 17.93 33.56 19.5C33.61 19.67 38.84 35.73 53.61 40.2L51.17 45.67C33.9 40.02 28.13 22.06 27.89 21.27C27.4 19.7 28.28 18.04 29.84 17.55H29.83Z" fill="#A4B2D3"/>
<path d="M32.8 18.37L40.29 29.73L33.45 37.1L30.13 24.87L32.8 18.37Z" fill="#5280DD"/>
<path d="M36.34 55.65L12.95 55.41L16.13 31.84C16.13 27.68 21.23 16.34 24.76 16.34H29.11C30.61 16.34 32.03 17.1 32.81 18.38C38.48 27.64 36.3499 55.66 36.3499 55.66L36.34 55.65Z" fill="#5280DD"/>
<path d="M10.09 52.69C10.31 54.32 9.15998 55.81 7.52998 56.03C6.18998 56.21 4.93998 55.47 4.41998 54.29C4.30998 54.04 4.22998 53.76 4.18998 53.47C4.09998 52.76 4.02998 52.07 3.97998 51.38L9.95998 51.6C9.98998 51.96 10.03 52.33 10.08 52.69H10.09Z" fill="#FADDDC"/>
<path d="M22.09 21.0799C23.13 22.3499 22.94 24.2199 21.68 25.2599C21.55 25.3699 8.59997 36.2199 9.97997 51.5899L3.99997 51.3699C2.77997 33.2499 17.28 21.1799 17.92 20.6499C19.19 19.6099 21.06 19.7999 22.1 21.0699L22.09 21.0799Z" fill="#A4B2D3"/>
<path d="M24.75 16.34C24.75 16.34 19.45 16.19 15.92 20.02C12.39 23.85 9.51001 27.75 9.51001 27.75C9.51001 27.75 17.24 33.71 17.54 33.71C17.84 33.71 27.92 22.89 27.92 22.89C27.92 22.89 27.39 17.37 24.75 16.34Z" fill="#5280DD"/>
<path d="M23.17 4.32996H32.46V12.64C32.46 14.27 31.14 15.59 29.51 15.59H28.57C28.11 15.59 27.74 15.96 27.74 16.42V17.24C27.74 18.28 26.63 18.93 25.72 18.44L23.35 17.15L23.16 4.32996H23.17Z" fill="#FADDDC"/>
<path d="M32.18 12.79L32.72 12.64C33.2 12.5 33.49 12 33.35 11.52L32.61 8.87999C32.55 8.67999 32.34 8.55999 32.14 8.61999C31.94 8.67999 31.82 8.88999 31.88 9.08999L32.52 11.38C32.6 11.65 32.44 11.94 32.16 12.02L31.97 12.07C31.77 12.13 31.65 12.34 31.71 12.54C31.77 12.74 31.98 12.86 32.18 12.8V12.79Z" fill="#E0B1BB"/>
<path d="M30.87 8.83997C30.87 9.11997 30.65 9.33997 30.37 9.33997C30.09 9.33997 29.87 9.11997 29.87 8.83997C29.87 8.55997 30.09 8.33997 30.37 8.33997C30.65 8.33997 30.87 8.55997 30.87 8.83997Z" fill="#757570"/>
<path d="M25.96 8.57997C25.96 8.10501 25.575 7.71997 25.1 7.71997C24.625 7.71997 24.24 8.10501 24.24 8.57997V10.45C24.24 10.9249 24.625 11.31 25.1 11.31C25.575 11.31 25.96 10.9249 25.96 10.45V8.57997Z" fill="#FADDDC"/>
<path d="M32.5499 37.85C32.4099 37.28 32.09 36.86 31.67 36.86H31.2099V34.74C31.2099 34.32 31.03 34.03 30.75 34.03H27.9799V32.61H28.9C29.1799 32.61 29.36 32.33 29.36 31.9V30.48H30.28C30.79 30.48 31.2 29.84 31.2 29.06V28.78C32.54 29.63 33.5099 31.68 33.5099 34.02C33.5099 35.51 33.14 36.85 32.54 37.84M29.36 39.61C27.56 39.26 26.1299 36.85 26.1299 34.02C26.1299 33.6 26.1799 33.17 26.2199 32.75L28.43 36.15V36.86C28.43 37.64 28.85 38.28 29.35 38.28M29.8099 26.96C27.2699 26.96 25.2 30.15 25.2 34.04C25.2 37.93 27.2799 41.12 29.8099 41.12C32.3399 41.12 34.4199 37.93 34.4199 34.04C34.4199 30.15 32.3399 26.96 29.8099 26.96Z" fill="white"/>
<path d="M31.31 1.35006C28.81 -0.409944 22.81 -1.61994 19.65 5.45006C17.96 9.24006 16.7 14.0701 15.26 16.4701C14.06 18.4801 11.3 17.9501 11.3 17.9501C11.3 17.9501 13.88 19.3001 15.52 17.9701C16.49 17.1901 16.78 16.7601 17.18 15.9701C17.18 15.9701 16.63 17.3601 15.38 18.8101C14.76 19.5301 14.3 20.4001 14.2 21.3501C14.19 21.4801 14.18 21.6101 14.18 21.7501C16.44 19.3701 17.6 17.9001 20.72 17.4101C21.71 17.3001 23.04 17.2201 24.1 17.4401L24.74 14.2501L28.43 14.6201C28.43 14.6201 26.33 12.5601 27.49 9.20006C28.62 5.94005 29.39 5.99006 30.33 5.60006C31.15 5.26006 32.48 4.31006 32.48 4.31006C32.49 4.29006 32.49 4.27006 32.5 4.25006V6.99006C32.5 6.99006 35.87 3.59006 31.33 1.33006L31.31 1.35006Z" fill="#3E2967"/>
</g>
<defs>
<clipPath id="clip0_134_1680">
<rect width="56.9" height="104.6" fill="white"/>
</clipPath>
</defs>
</svg>
