<svg width="57" height="105" viewBox="0 0 57 105" fill="none" xmlns="http://www.w3.org/2000/svg">
<g clip-path="url(#clip0_134_1699)">
<path d="M25.8 54.51L37.7701 54.05L44.3601 76.1601L56.8801 93.8601L54.55 95.7201C54.83 96.2201 55.3201 97.0401 55.7901 97.3601C56.4801 97.82 57.38 98.6901 56.57 99.7201L51.6101 103.57C50.8901 103.88 50.12 102.82 50.48 102.02C50.72 101.49 51.5401 100.31 51.8101 99.81C52.3601 98.76 51.7 97.9701 50.98 96.8301C46.65 90.0401 36.5401 79.6501 36.5401 79.6501L25.8 54.51Z" fill="#291B4C"/>
<path d="M24.92 52.97L42.53 53.77L21.07 78.52L13.69 100.88L10.91 100.49L10.01 102.26C9.08004 104.25 8.96004 105.1 7.42004 104.33L3.59004 102.83C2.89004 102.48 3.00004 101.47 3.82004 101.22C4.36004 101.06 5.19004 101.03 5.75004 101C7.83004 100.9 7.55004 99.45 7.88004 98.13C9.88004 90.25 10.78 83.92 13.05 75.97C14.34 71.41 24.94 52.98 24.94 52.98L24.92 52.97Z" fill="#3F3072"/>
<path d="M2.23003 40.5C0.64003 40.91 -0.31997 42.5299 0.0900299 44.1199C0.43003 45.4299 1.58003 46.3099 2.86003 46.3499C3.14003 46.3499 3.42003 46.3299 3.71003 46.2599C4.40003 46.0799 5.07003 45.8799 5.73003 45.6699L3.29003 40.2C2.94003 40.31 2.59003 40.41 2.23003 40.5Z" fill="#FADDDC"/>
<path d="M27.06 17.55C25.49 17.06 23.83 17.93 23.33 19.5C23.28 19.67 18.05 35.73 3.28003 40.2L5.72003 45.67C22.99 40.02 28.76 22.06 29 21.27C29.49 19.7 28.61 18.04 27.05 17.55H27.06Z" fill="#A4B2D3"/>
<path d="M24.1 18.37L16.6 29.73L23.45 37.1L26.76 24.87L24.1 18.37Z" fill="#5280DD"/>
<path d="M20.56 55.65L43.95 55.41L40.77 31.84C40.77 27.68 35.67 16.34 32.14 16.34H27.79C26.29 16.34 24.87 17.1 24.09 18.38C18.42 27.64 20.55 55.66 20.55 55.66L20.56 55.65Z" fill="#5280DD"/>
<path d="M46.8 52.69C46.58 54.32 47.73 55.81 49.36 56.03C50.7 56.21 51.95 55.47 52.47 54.29C52.58 54.04 52.66 53.76 52.7 53.47C52.79 52.76 52.86 52.07 52.91 51.38L46.93 51.6C46.9 51.96 46.86 52.33 46.81 52.69H46.8Z" fill="#FADDDC"/>
<path d="M34.8001 21.0799C33.7601 22.3499 33.9501 24.2199 35.2101 25.2599C35.3401 25.3699 48.2901 36.2199 46.9101 51.5899L52.8901 51.3699C54.1101 33.2499 39.6101 21.1799 38.9701 20.6499C37.7001 19.6099 35.8301 19.7999 34.7901 21.0699L34.8001 21.0799Z" fill="#A4B2D3"/>
<path d="M32.14 16.34C32.14 16.34 37.44 16.19 40.97 20.02C44.5 23.85 47.38 27.75 47.38 27.75C47.38 27.75 39.65 33.71 39.35 33.71C39.05 33.71 28.97 22.89 28.97 22.89C28.97 22.89 29.5 17.37 32.14 16.34Z" fill="#5280DD"/>
<path d="M33.7299 4.32996H24.4399V12.64C24.4399 14.27 25.7599 15.59 27.3899 15.59H28.3299C28.7899 15.59 29.1599 15.96 29.1599 16.42V17.24C29.1599 18.28 30.2699 18.93 31.1799 18.44L33.5499 17.15L33.7399 4.32996H33.7299Z" fill="#FADDDC"/>
<path d="M24.7199 12.79L24.1799 12.64C23.6999 12.5 23.4099 12 23.5499 11.52L24.2899 8.87999C24.3499 8.67999 24.5599 8.55999 24.7599 8.61999C24.9599 8.67999 25.0799 8.88999 25.0199 9.08999L24.3799 11.38C24.2999 11.65 24.4599 11.94 24.7399 12.02L24.9299 12.07C25.1299 12.13 25.2499 12.34 25.1899 12.54C25.1299 12.74 24.9199 12.86 24.7199 12.8V12.79Z" fill="#E0B1BB"/>
<path d="M26.02 8.83997C26.02 9.11997 26.24 9.33997 26.52 9.33997C26.8 9.33997 27.02 9.11997 27.02 8.83997C27.02 8.55997 26.8 8.33997 26.52 8.33997C26.24 8.33997 26.02 8.55997 26.02 8.83997Z" fill="#757570"/>
<path d="M30.94 10.44C30.94 10.915 31.3251 11.3 31.8 11.3C32.275 11.3 32.66 10.915 32.66 10.44V8.57005C32.66 8.09508 32.275 7.71005 31.8 7.71005C31.3251 7.71005 30.94 8.09508 30.94 8.57005V10.44Z" fill="#FADDDC"/>
<path d="M24.3499 37.8499C23.7499 36.8599 23.3799 35.5099 23.3799 34.0299C23.3799 31.6899 24.3499 29.6399 25.6899 28.7899V29.0699C25.6899 29.8499 26.1099 30.4899 26.6099 30.4899H27.5299V31.9099C27.5299 32.3299 27.7099 32.6199 27.9899 32.6199H28.9099V34.0399H26.1399C25.8599 34.0399 25.6799 34.3199 25.6799 34.7499V36.8699H25.2199C24.7999 36.8699 24.4799 37.2899 24.3399 37.8599M27.5199 38.2799C28.0299 38.2799 28.4399 37.6399 28.4399 36.8599V36.1499L30.6499 32.7499C30.6999 33.1699 30.7399 33.5999 30.7399 34.0199C30.7399 36.8499 29.3099 39.2599 27.5099 39.6099M22.4399 34.0199C22.4399 37.9099 24.5199 41.0999 27.0499 41.0999C29.5799 41.0999 31.6599 37.9099 31.6599 34.0199C31.6599 30.1299 29.5799 26.9399 27.0499 26.9399C24.5199 26.9399 22.4399 30.1299 22.4399 34.0199Z" fill="white"/>
<path d="M25.59 1.35006C28.09 -0.409944 34.09 -1.61994 37.25 5.45006C38.94 9.24006 40.2 14.0701 41.64 16.4701C42.84 18.4801 45.6 17.9501 45.6 17.9501C45.6 17.9501 43.02 19.3001 41.38 17.9701C40.41 17.1901 40.12 16.7601 39.72 15.9701C39.72 15.9701 40.27 17.3601 41.52 18.8101C42.14 19.5301 42.6 20.4001 42.7 21.3501C42.71 21.4801 42.72 21.6101 42.72 21.7501C40.46 19.3701 39.3 17.9001 36.18 17.4101C35.19 17.3001 33.86 17.2201 32.8 17.4401L32.16 14.2501L28.47 14.6201C28.47 14.6201 30.57 12.5601 29.41 9.20006C28.28 5.94005 27.51 5.99006 26.57 5.60006C25.75 5.26006 24.42 4.31006 24.42 4.31006C24.41 4.29006 24.41 4.27006 24.4 4.25006V6.99006C24.4 6.99006 21.03 3.59006 25.57 1.33006L25.59 1.35006Z" fill="#3E2967"/>
</g>
<defs>
<clipPath id="clip0_134_1699">
<rect width="56.9" height="104.6" fill="white"/>
</clipPath>
</defs>
</svg>
