<svg width="55" height="105" viewBox="0 0 55 105" fill="none" xmlns="http://www.w3.org/2000/svg">
<g clip-path="url(#clip0_134_1801)">
<path d="M52.59 41.78C54.15 42.31 54.98 44 54.45 45.55C54.02 46.83 52.7999 47.62 51.5099 47.56C51.2299 47.55 50.9499 47.5 50.6699 47.4C49.9999 47.17 49.34 46.92 48.7 46.66L51.5499 41.39C51.8899 41.52 52.23 41.65 52.58 41.77L52.59 41.78Z" fill="#FADDDC"/>
<path d="M29.57 17.01C31.17 16.64 32.76 17.64 33.14 19.23C33.18 19.4 37.17 35.81 51.55 41.4L48.7 46.67C31.91 39.73 27.52 21.38 27.34 20.57C26.97 18.97 27.97 17.38 29.57 17.01Z" fill="#A4B2D3"/>
<path d="M34.6401 20.04C33.3701 17.92 30.5501 16.04 29.1501 16.4C27.5601 16.81 24.3101 21.98 24.4801 23.61C24.5801 24.51 28.7701 29.06 31.9901 34.75L39.4601 29.73C36.8501 24.99 36.0801 22.44 34.6401 20.04Z" fill="#5280DD"/>
<path d="M6.07006 52.24C6.19006 53.88 4.95006 55.3 3.32006 55.42C3.25006 55.42 3.18006 55.42 3.11006 55.42C1.56006 55.42 0.260059 54.22 0.150059 52.66C0.110059 52.15 0.0900586 51.64 0.0600586 51.14H6.02006C6.04006 51.51 6.05006 51.86 6.08006 52.24H6.07006Z" fill="#FADDDC"/>
<path d="M15.26 17.56C16.69 16.77 18.49 17.28 19.29 18.71C20.09 20.14 19.59 21.95 18.16 22.76C17.61 23.07 5.00004 30.53 6.01004 51.15H0.0500417C-1.01996 26.9 14.58 17.94 15.26 17.56Z" fill="#A4B2D3"/>
<path d="M17.65 18.12C16.53 16.92 14.66 16.85 13.45 17.96C13.1 18.28 7.24004 21.79 3.79004 28.81L10.37 33.18C13.39 26.68 17.43 22.39 17.5 22.32C18.7 21.2 18.77 19.32 17.65 18.12Z" fill="#5280DD"/>
<path d="M7.91002 53.58H38.59L34.45 23.88C33.64 19.46 31.5 16 26.91 16.34H17.31C14.05 16.34 11.62 19.02 11.18 23.88L7.90002 53.58H7.91002Z" fill="#5280DD"/>
<path d="M21.54 13.28H16.13V16.41H21.54V13.28Z" fill="#3E2967"/>
<path d="M25.4001 2.87H15.9301V11.69C15.9301 13.35 17.2801 14.7 18.9401 14.7H19.9001C20.3701 14.7 20.7401 15.08 20.7401 15.54V16.68C20.7401 17.96 21.7801 18.99 23.0501 18.99C24.3301 18.99 25.3601 17.96 25.3601 16.68L25.3901 2.87H25.4001Z" fill="#FADDDC"/>
<path d="M19 11.97H18.43C17.92 11.97 17.5 11.55 17.5 11.04V8.23998C17.5 8.02998 17.67 7.84998 17.89 7.84998C18.11 7.84998 18.28 8.01998 18.28 8.23998V10.67C18.28 10.96 18.52 11.2 18.81 11.2H19.01C19.22 11.2 19.4 11.37 19.4 11.59C19.4 11.81 19.23 11.98 19.01 11.98L19 11.97Z" fill="#E0B1BB"/>
<path d="M19.91 8.36005C19.91 8.67005 20.16 8.92005 20.47 8.92005C20.78 8.92005 21.03 8.67005 21.03 8.36005C21.03 8.05005 20.78 7.80005 20.47 7.80005C20.16 7.80005 19.91 8.05005 19.91 8.36005Z" fill="#757570"/>
<path d="M21.83 5.26999C22.35 6.04999 23.1 7.21999 23.4 8.91999C24.08 12.83 21.6 13.92 21.6 13.92L24.71 14.17L24.45 21.59C26.39 21.59 32.48 23.36 28.72 10.46L27.2 4.19999C26.6 1.72999 24.39 -0.0100098 21.85 -0.0100098H19.08C18.44 -0.0100098 17.88 0.44999 17.76 1.07999C16.35 1.07999 15.29 2.20999 15.03 3.54999C14.36 7.03999 14.83 11.81 14.83 11.81C14.96 13.96 14.02 13.98 14.02 13.98C14.02 13.98 15.3 14.04 15.64 14.04H16.94C16.94 14.04 15.98 13.13 15.97 11.83C15.97 11.17 15.97 9.55999 15.97 8.12999C15.97 6.46999 16.8 3.95999 18.18 3.03999C18.18 3.03999 20.34 3.00999 21.83 5.25999V5.26999Z" fill="#3E2967"/>
<path d="M27.07 39.06C26.86 38.49 26.36 38.07 25.73 38.07H25.02V35.95C25.02 35.53 24.74 35.24 24.31 35.24H20.06V33.82H21.48C21.9 33.82 22.19 33.54 22.19 33.11V31.69H23.61C24.39 31.69 25.03 31.05 25.03 30.27V29.99C27.08 30.84 28.57 32.89 28.57 35.23C28.57 36.72 28 38.06 27.08 39.05M22.2 40.82C19.44 40.47 17.25 38.06 17.25 35.23C17.25 34.81 17.32 34.38 17.39 33.96L20.79 37.36V38.07C20.79 38.85 21.43 39.49 22.21 39.49M22.92 28.17C19.03 28.17 15.84 31.36 15.84 35.25C15.84 39.14 19.03 42.33 22.92 42.33C26.81 42.33 30 39.14 30 35.25C30 31.36 26.81 28.17 22.92 28.17Z" fill="white"/>
<path d="M11.74 53.4399H35.5L29.62 99.0999C29.52 99.9599 29.14 100.96 30.11 101.72C30.66 102.14 31.24 102.53 31.78 102.96C32.42 103.47 32.09 104.58 31.29 104.58L26.15 103.57C23.85 103.11 24.16 101.55 24.61 100.34C24.91 99.5399 25.09 98.7099 25.13 97.8599C25.3 93.1499 24.76 67.7899 24.64 62.0799C24.63 61.4399 24.13 60.9399 23.51 60.9399C22.93 60.9399 22.45 61.3899 22.39 61.9899C21.88 67.3699 19.58 91.5299 19.36 92.2899C19 93.5199 17.54 93.3499 17.05 92.4299C16.62 91.6399 16.18 88.4099 16.1 87.7899H14.66L11.75 53.4399H11.74Z" fill="#3E2967"/>
</g>
<defs>
<clipPath id="clip0_134_1801">
<rect width="54.6" height="104.57" fill="white"/>
</clipPath>
</defs>
</svg>
