
    <svg
        width="55"
        height="101"
        viewBox="0 0 55 101"
        fill="none"
        xmlns="http://www.w3.org/2000/svg"
    >
        <g clip-path="url(#clip0_8_127)">
            <path
                d="M2.02004 41.78C0.460038 42.31 -0.369962 44 0.160038 45.55C0.590038 46.83 1.81004 47.62 3.10004 47.56C3.38004 47.55 3.66004 47.5 3.94004 47.4C4.61004 47.17 5.27004 46.92 5.91004 46.66L3.06004 41.39C2.72004 41.52 2.38004 41.65 2.03004 41.77L2.02004 41.78Z"
                fill="#FADDDC"
            />
            <path
                d="M25.0301 17.01C23.43 16.64 21.84 17.64 21.46 19.23C21.42 19.4 17.43 35.81 3.05005 41.4L5.90005 46.67C22.6901 39.73 27.08 21.38 27.26 20.57C27.6301 18.97 26.6301 17.38 25.0301 17.01Z"
                fill="#A4B2D3"
            />
            <path
                d="M19.96 20.04C21.23 17.92 24.05 16.04 25.45 16.4C27.04 16.81 30.29 21.98 30.12 23.61C30.02 24.51 25.83 29.06 22.61 34.75L15.14 29.73C17.75 24.99 18.52 22.44 19.96 20.04Z"
                fill="#5280DD"
            />
            <path
                d="M46.17 54.9C46.17 53.2 46.1 51.26 45.81 49.35H20.51V94.28C20.51 95.06 20.31 95.83 19.94 96.51L19.87 96.64C19.49 97.33 18.91 97.88 18.2 98.21L16.78 98.87C16.52 98.99 16.35 99.25 16.35 99.54C16.35 99.95 16.68 100.28 17.09 100.28H20.83C22 100.28 22.97 99.39 23.08 98.23L23.18 97.23C23.29 96.05 23.45 94.88 23.67 93.72L26.97 74.43L29.59 59.14C29.85 57.62 31.16 56.51 32.7 56.51C34.24 56.51 35.52 57.59 35.8 59.07L38.74 74.43L42.68 94.98C42.86 95.83 42.65 96.71 42.1 97.38C41.67 97.9 41.07 98.26 40.41 98.37L39.77 98.48C39.36 98.55 39.06 98.9 39.06 99.32C39.06 99.79 39.44 100.17 39.91 100.17H43.62C44.65 100.17 45.49 99.33 45.48 98.29L45.45 94.64L45.81 74.42L46.16 54.88L46.17 54.9Z"
                fill="#3E2967"
            />
            <path
                d="M48.8299 51.95C48.7099 53.59 49.9499 55.01 51.5799 55.13C51.6499 55.13 51.7199 55.13 51.7899 55.13C53.3399 55.13 54.6399 53.93 54.7499 52.37C54.7899 51.86 54.8099 51.35 54.8399 50.85H48.8799C48.8599 51.22 48.8499 51.57 48.8199 51.95H48.8299Z"
                fill="#FADDDC"
            />
            <path
                d="M39.64 17.2701C38.21 16.4801 36.41 16.9901 35.61 18.4201C34.81 19.8501 35.31 21.6601 36.74 22.4701C37.29 22.7801 49.9 30.2401 48.89 50.8601H54.85C55.92 26.6201 40.32 17.6501 39.65 17.2801L39.64 17.2701Z"
                fill="#A4B2D3"
            />
            <path
                d="M17.24 53.58H47.92L43.78 23.88C42.97 19.46 40.83 16 36.24 16.34H26.64C23.38 16.34 20.95 19.02 20.51 23.88L17.23 53.58H17.24Z"
                fill="#5280DD"
            />
            <path
                d="M37.25 17.83C38.37 16.63 40.24 16.56 41.45 17.67C41.8 17.99 47.66 21.5 51.11 28.52L44.53 32.89C41.51 26.39 37.47 22.1 37.4 22.03C36.2 20.91 36.13 19.03 37.25 17.83Z"
                fill="#5280DD"
            />
            <path d="M30.86 13.28H25.45V16.41H30.86V13.28Z" fill="#3E2967" />
            <path
                d="M34.73 2.87H25.26V11.69C25.26 13.35 26.61 14.7 28.27 14.7H29.23C29.7 14.7 30.07 15.08 30.07 15.54V16.68C30.07 17.96 31.11 18.99 32.38 18.99C33.66 18.99 34.69 17.96 34.69 16.68L34.72 2.87H34.73Z"
                fill="#FADDDC"
            />
            <path
                d="M28.33 11.97H27.76C27.25 11.97 26.83 11.55 26.83 11.04V8.23998C26.83 8.02998 27 7.84998 27.22 7.84998C27.44 7.84998 27.61 8.01998 27.61 8.23998V10.67C27.61 10.96 27.85 11.2 28.14 11.2H28.34C28.55 11.2 28.73 11.37 28.73 11.59C28.73 11.81 28.56 11.98 28.34 11.98L28.33 11.97Z"
                fill="#E0B1BB"
            />
            <path
                d="M29.24 8.36005C29.24 8.67005 29.49 8.92005 29.8 8.92005C30.11 8.92005 30.36 8.67005 30.36 8.36005C30.36 8.05005 30.11 7.80005 29.8 7.80005C29.49 7.80005 29.24 8.05005 29.24 8.36005Z"
                fill="#757570"
            />
            <path
                d="M31.15 5.26999C31.67 6.04999 32.42 7.21999 32.72 8.91999C33.4 12.83 30.92 13.92 30.92 13.92L34.03 14.17L33.77 21.59C35.71 21.59 41.8 23.36 38.04 10.46L36.52 4.19999C35.92 1.72999 33.71 -0.0100098 31.17 -0.0100098H28.4C27.76 -0.0100098 27.2 0.44999 27.08 1.07999C25.67 1.07999 24.61 2.20999 24.35 3.54999C23.68 7.03999 24.15 11.81 24.15 11.81C24.28 13.96 23.34 13.98 23.34 13.98C23.34 13.98 24.62 14.04 24.96 14.04H26.26C26.26 14.04 25.3 13.13 25.29 11.83C25.29 11.17 25.29 9.55999 25.29 8.12999C25.29 6.46999 26.12 3.95999 27.5 3.03999C27.5 3.03999 29.66 3.00999 31.15 5.25999V5.26999Z"
                fill="#3E2967"
            />
            <path
                d="M36.39 39.06C36.18 38.49 35.68 38.07 35.05 38.07H34.34V35.95C34.34 35.53 34.06 35.24 33.63 35.24H29.38V33.82H30.8C31.22 33.82 31.51 33.54 31.51 33.11V31.69H32.93C33.71 31.69 34.35 31.05 34.35 30.27V29.99C36.4 30.84 37.89 32.89 37.89 35.23C37.89 36.72 37.32 38.06 36.4 39.05M31.52 40.82C28.76 40.47 26.57 38.06 26.57 35.23C26.57 34.81 26.64 34.38 26.71 33.96L30.11 37.36V38.07C30.11 38.85 30.75 39.49 31.53 39.49M32.24 28.17C28.35 28.17 25.16 31.36 25.16 35.25C25.16 39.14 28.35 42.33 32.24 42.33C36.13 42.33 39.32 39.14 39.32 35.25C39.32 31.36 36.13 28.17 32.24 28.17Z"
                fill="white"
            />
        </g>
        <defs>
            <clipPath id="clip0_8_127">
                <rect width="54.9" height="100.29" fill="white" />
            </clipPath>
        </defs>
    </svg>

